<?xml version="1.0" standalone="no"?>
<!DOCTYPE svg PUBLIC "-//W3C//DTD SVG 20010904//EN"
 "http://www.w3.org/TR/2001/REC-SVG-20010904/DTD/svg10.dtd">
<svg version="1.0" xmlns="http://www.w3.org/2000/svg"
 width="400.000000pt" height="400.000000pt" viewBox="0 0 400.000000 400.000000"
 preserveAspectRatio="xMidYMid meet">
<metadata>
Created by potrace 1.11, written by Peter Selinger 2001-2013
</metadata>
<g transform="translate(0.000000,400.000000) scale(0.100000,-0.100000)"
fill="#000000" stroke="none">
<path d="M1850 3489 c-196 -23 -356 -71 -534 -162 -412 -209 -699 -594 -792
-1062 -25 -125 -25 -414 -1 -540 56 -287 174 -521 384 -763 l42 -49 -97 -57
c-138 -82 -382 -199 -482 -232 -62 -20 -107 -28 -163 -28 -74 -1 -80 1 -103
27 -80 93 44 381 343 795 78 109 80 113 28 57 -152 -165 -328 -414 -399 -567
-74 -158 -84 -263 -29 -328 39 -47 76 -61 156 -62 160 0 389 87 696 266 62 36
116 66 118 66 3 0 39 -26 82 -58 533 -402 1255 -403 1801 -4 97 71 250 226
323 329 115 161 208 373 252 573 22 98 31 389 16 500 -10 79 -10 86 13 134 29
63 52 158 71 296 8 58 15 110 15 116 0 6 55 60 122 120 164 147 185 169 208
230 24 64 47 191 55 305 7 102 18 94 -140 104 -116 8 -248 -6 -308 -33 -23
-10 -82 -53 -132 -96 -49 -42 -113 -97 -142 -122 l-52 -44 -150 0 -150 0 -83
54 c-204 132 -433 211 -682 235 -123 12 -178 12 -286 0z m1290 -342 c0 -2 -12
-14 -27 -28 l-28 -24 24 28 c23 25 31 32 31 24z m400 -440 c0 -2 -10 -12 -22
-23 l-23 -19 19 23 c18 21 26 27 26 19z"/>
</g>
</svg>
