<?xml version="1.0" encoding="UTF-8"?>
<svg width="29px" height="26px" viewBox="0 0 29 26" version="1.1" xmlns="http://www.w3.org/2000/svg" xmlns:xlink="http://www.w3.org/1999/xlink">
    <!-- Generator: Sketch 50.2 (55047) - http://www.bohemiancoding.com/sketch -->
    <title>notif1</title>
    <desc>Created with Sketch.</desc>
    <defs></defs>
    <g id="v2" stroke="none" stroke-width="1" fill="none" fill-rule="evenodd">
        <g id="01-home-desktop" transform="translate(-512.000000, -1071.000000)" fill="#FFFFFF" stroke="#FFFFFF" stroke-width="0.4">
            <g id="TICKER" transform="translate(0.000000, 1054.000000)">
                <path d="M537.060709,29.6825008 C537.99981,29.3857232 538.664641,28.5063739 538.664641,27.4935215 C538.664641,26.4807295 537.999821,25.6014211 537.060709,25.3046057 L537.060709,29.6825008 Z M535.347633,35.3552411 L535.347633,19.6318515 C531.41121,21.7900753 527.155596,23.1013924 522.68375,23.5344809 L522.68375,31.4531759 C527.155116,31.885655 531.410704,33.1967827 535.347633,35.3552421 Z M535.347633,19.3649672 L535.347633,19.3448773 C535.346755,19.352769 535.346174,19.3579889 535.347633,19.3649603 Z M535.588216,35.4884209 C535.590807,35.489869 535.593398,35.4913175 535.595989,35.4927664 C535.588877,35.4887897 535.581204,35.4852523 535.573082,35.4822781 Z M535.347633,35.6212543 C535.346234,35.6282551 535.346797,35.6338746 535.347633,35.6422188 L535.347633,35.6212543 Z M523.875914,40.4868173 L521.189685,33.0769391 L518.514516,33.0769391 L521.19947,40.4868173 L523.875914,40.4868173 Z M524.12339,40.4868173 L524.134477,40.4868173 C524.130679,40.4863457 524.128379,40.4860601 524.12339,40.4868173 Z M523.986079,40.5640088 C523.985925,40.5642115 523.985771,40.5644155 523.985615,40.5646209 L523.986125,40.5638913 C523.986109,40.5639305 523.986094,40.5639697 523.986079,40.5640088 Z M515.345363,29.5543679 L515.345363,25.4348514 L514.702588,25.4348514 C514.598282,25.4348514 514.513077,25.5200486 514.513077,25.6243103 L514.513077,29.3648029 C514.513077,29.4691627 514.598274,29.5543679 514.702588,29.5543679 L515.345363,29.5543679 Z M517.058334,24.1635079 L517.058334,30.8258176 C517.058334,31.0392435 517.185071,31.2304171 517.374344,31.3152948 C517.449808,31.3474791 517.459005,31.3497347 517.562076,31.3619547 C517.560384,31.3617527 517.871069,31.3621579 518.122311,31.3623564 C518.685836,31.3627577 518.685836,31.3627577 519.360357,31.3631296 C520.039274,31.3634741 520.039274,31.3634741 520.605041,31.3637288 C520.789107,31.3638081 520.898318,31.3638551 520.970726,31.363886 L520.970726,23.6253038 L517.596538,23.6253038 C517.300031,23.6253038 517.05844,23.866871 517.05844,24.1634018 L517.058334,24.1635079 Z M537.060709,31.4411762 L537.060709,35.6421657 C537.060709,36.1946938 536.775307,36.6932365 536.29906,36.9726259 C536.058487,37.1138176 535.78968,37.1870294 535.516845,37.1870912 C535.254183,37.1870912 534.994704,37.1192388 534.759954,36.9879131 C531.121397,34.9530808 527.192393,33.68638 523.062125,33.2154129 L525.57424,40.1450408 C525.74481,40.6137429 525.675688,41.1379391 525.38928,41.5469193 C525.102837,41.9559138 524.633915,42.2 524.134584,42.2 L521.072472,42.2 C520.430475,42.2 519.852454,41.7952353 519.63288,41.1917582 L516.609772,32.8484838 C515.980995,32.5407428 515.527006,31.9552318 515.389463,31.2674445 L514.702588,31.2674445 C513.653368,31.2674445 512.8,30.4140947 512.8,29.364856 L512.8,25.6243103 C512.8,24.5750798 513.65336,23.7217749 514.702588,23.7217749 L515.389403,23.7217749 C515.596424,22.6833923 516.514407,21.9121742 517.595664,21.912176 C517.727326,21.9116006 517.727326,21.9116006 518.253997,21.9092591 C518.912336,21.9063026 518.912336,21.9063026 519.702335,21.902652 C519.818939,21.9021065 519.818939,21.9021065 519.935119,21.9015592 C520.97567,21.8966489 521.788473,21.8922957 521.794987,21.8918074 C526.388273,21.551267 530.749887,20.2417312 534.759842,17.9992391 C535.244268,17.7283088 535.821072,17.7340115 536.299098,18.0144081 C536.775365,18.2938702 537.060709,18.7923533 537.060709,19.3448773 L537.060709,23.5458622 C538.958663,23.8769604 540.377718,25.535574 540.377718,27.4935215 C540.377718,29.4514185 538.958662,31.1100292 537.060709,31.4411762 Z" id="notif1"></path>
            </g>
        </g>
    </g>
</svg>