<?xml version="1.0" encoding="UTF-8"?>
<svg width="206px" height="49px" viewBox="0 0 206 49" version="1.1" xmlns="http://www.w3.org/2000/svg" xmlns:xlink="http://www.w3.org/1999/xlink">
    <!-- Generator: sketchtool 63.1 (101010) - https://sketch.com -->
    <title>8DD1D633-8EEA-4F1D-AAB5-95494D1C3242</title>
    <desc>Created with sketchtool.</desc>
    <defs>
        <polygon id="path-1" points="0.410819473 0.162703442 19.3254185 0.162703442 19.3254185 22.4583333 0.410819473 22.4583333"></polygon>
        <polygon id="path-3" points="0 0.168449669 21.0604042 0.168449669 21.0604042 21.4645875 0 21.4645875"></polygon>
        <polygon id="path-5" points="0.0129584317 0.447125 28.4769625 0.447125 28.4769625 45.0127011 0.0129584317 45.0127011"></polygon>
        <polygon id="path-7" points="0.592187783 0.25602489 23.5705195 0.25602489 23.5705195 22.4583333 0.592187783 22.4583333"></polygon>
    </defs>
    <g id="yugaweb" stroke="none" stroke-width="1" fill="none" fill-rule="evenodd">
        <g id="voiceland-desktop" transform="translate(-209.000000, -31.000000)">
            <g id="VOICELAND" transform="translate(209.223034, 30.542370)">
                <g id="Group-3" transform="translate(55.125000, 26.094882)">
                    <mask id="mask-2" fill="white">
                        <use xlink:href="#path-1"></use>
                    </mask>
                    <g id="Clip-2"></g>
                    <path d="M8.60324306,22.4586056 C4.14015972,20.5033694 0.761201389,17.6811056 0.436576389,12.3993139 C-0.128284722,3.225425 8.69852083,-2.60965833 16.9849653,1.50361944 C17.9397847,1.97728611 19.8303681,2.44278611 18.8918819,3.8563 C18.1527986,4.96968889 17.4885764,7.51564722 14.8425764,5.79111944 C12.5409375,4.291175 10.0398958,4.58925833 7.98461806,6.48256389 C5.8769375,8.42555 5.42300694,10.9191056 6.27165972,13.5848417 C7.4510625,17.2904667 11.4309514,19.0959806 14.6309236,16.9113972 C17.3157153,15.0793417 18.2487569,17.2298972 19.0422847,18.4651056 C20.0971458,20.1072861 17.9322986,20.4421194 16.9999375,21.1737167 C16.3193819,21.7079528 15.4761736,22.0380222 14.7051042,22.4586056 L8.60324306,22.4586056 Z" id="Fill-1" fill="#01AEEE" mask="url(#mask-2)"></path>
                </g>
                <g id="Group-6" transform="translate(0.000000, 26.775438)">
                    <mask id="mask-4" fill="white">
                        <use xlink:href="#path-3"></use>
                    </mask>
                    <g id="Clip-5"></g>
                    <path d="M-6.80555556e-05,0.201580556 C5.71251528,0.134205556 5.70775139,0.135566667 7.47039028,5.57116389 C8.2999875,8.12869167 9.14795972,10.6814556 9.99525139,13.2342194 C10.1000569,13.5493167 10.2531819,13.8487611 10.6363347,14.7450528 C11.8688208,11.0734556 12.9590708,7.87688611 14.0146125,4.66942778 C15.6105153,-0.181572222 15.6003069,-0.184975 21.0604042,0.476525 C18.3184458,7.40866389 15.6057514,14.2673028 12.8923764,21.1266222 C11.4598069,21.7568167 9.95237639,21.2845111 8.48850139,21.4274278 C7.0382375,21.4233444 6.64827917,20.3038306 6.26989028,19.2523722 C4.0798625,13.1607194 1.20859861,7.29841389 -6.80555556e-05,0.875330556 L-6.80555556e-05,0.201580556 Z" id="Fill-4" fill="#01AEEE" mask="url(#mask-4)"></path>
                </g>
                <g id="Group-9" transform="translate(176.944444, 0.233771)">
                    <mask id="mask-6" fill="white">
                        <use xlink:href="#path-5"></use>
                    </mask>
                    <g id="Clip-8"></g>
                    <path d="M3.39304583,0.446852778 C3.84969861,1.40779722 4.90047639,1.31047778 5.67630972,1.63238056 C18.0447264,6.77193611 25.4838792,15.8525889 27.9502125,28.9641722 C28.0257542,29.3663806 28.2972958,29.7318389 28.4769625,30.1143111 L28.4769625,40.2280472 C27.5024069,40.9399083 27.9359208,42.1022972 27.5806708,43.0162833 C27.1668931,44.0806722 26.8599625,45.3077139 25.3239486,44.9490611 C23.8049486,44.5944917 23.9614764,43.46545 24.2309764,42.2758389 C25.3933653,37.1546583 25.5117819,32.0130611 24.0792125,26.9374778 C20.9302819,15.774325 13.9627542,8.09153333 2.84043472,4.31717222 C0.882476389,3.65226944 -1.04009306,3.08672778 0.6817125,0.446852778 L3.39304583,0.446852778 Z" id="Fill-7" fill="#01AEEE" mask="url(#mask-6)"></path>
                </g>
                <path d="M153.744714,47.6588972 C151.762936,47.729675 149.781158,47.8004528 147.7987,47.8712306 C145.237089,43.748425 142.676158,39.6249389 139.55445,34.6003972 L139.55445,47.7113 C134.686436,48.1182722 134.660575,48.1182722 134.691881,43.4537444 C134.728631,37.9562167 134.816422,32.4593694 134.881075,26.9618417 C138.997756,26.1397306 141.546436,27.82955 143.265519,31.5882583 C144.509575,34.3098 146.362047,36.7557167 148.611283,39.3186889 C148.611283,36.1017028 148.699756,32.8806333 148.577936,29.66705 C148.505797,27.7696611 148.849478,26.831175 151.104158,26.8760917 C153.161478,26.9162444 153.802561,27.4913139 153.762408,29.550675 C153.646033,35.5844806 153.735867,41.6223694 153.744714,47.6588972" id="Fill-10" fill="#02AEEE"></path>
                <path d="M92.0946153,47.7127292 C87.1830458,47.7277014 82.2714764,47.7433542 77.3605875,47.7576458 C77.3510597,41.5911319 77.3925736,35.4225764 77.3000181,29.2560625 C77.2741569,27.5526319 77.7069903,26.8448542 79.5499347,26.9183542 C82.8145597,27.0497014 86.0900736,27.0102292 89.3581014,26.9306042 C90.8614486,26.8931736 91.5773931,27.2103125 91.5807958,28.9341597 C91.5841986,30.6845486 91.0676569,31.3739514 89.2750736,31.2317153 C87.7063931,31.1078542 86.1172958,31.2657431 84.5424903,31.1929236 C83.0364208,31.1221458 82.2769208,31.5577014 82.2333653,33.2386736 C82.1843653,35.0904653 83.2099625,35.1986736 84.5880875,35.1496736 C85.9396708,35.1020347 87.3021431,35.2313403 88.6455597,35.1183681 C90.3945875,34.9706875 91.0016431,35.6063264 91.0030042,37.3852986 C91.0043653,39.2609097 89.9712819,39.3044653 88.6224208,39.2643125 C87.2708375,39.2248403 85.9097264,39.3452986 84.5656292,39.2370903 C82.7492264,39.0894097 82.2177125,39.8972292 82.2360875,41.5965764 C82.2537819,43.2162986 82.8996292,43.8090625 84.4737542,43.7042569 C85.7089625,43.6225903 86.9816014,43.8573819 88.1882264,43.6579792 C91.5828375,43.0965208 92.6683236,44.5746875 92.0946153,47.7127292" id="Fill-12" fill="#01AEEE"></path>
                <path d="M108.416651,47.7811931 C103.965818,47.8798736 99.5129431,48.0983319 95.0668736,47.6586931 C95.0750403,42.1577625 95.0158319,36.6554708 95.1301653,31.1565819 C95.1675958,29.3531097 93.9092486,26.8078319 97.8067903,26.8520681 C101.871068,26.8983458 100.166957,29.1959014 100.255429,31.3035819 C100.377249,34.2102347 100.222082,36.0695125 100.253388,40.0473597 C100.277888,43.2514153 101.109526,43.8271653 104.044763,43.5984986 C104.155693,43.5896514 104.27411,43.6148319 104.382318,43.5930542 C107.934138,42.8893597 109.054332,44.4975125 108.416651,47.7811931" id="Fill-14" fill="#03AEEE"></path>
                <path d="M197.277607,35.0247236 C197.415079,37.0800014 196.932565,39.0508903 196.581399,41.0333486 C196.373829,42.1998208 195.972982,43.3336264 194.485968,43.1321819 C192.900274,42.9178069 193.009843,41.6295153 193.215371,40.5188486 C193.811538,37.3032236 194.091926,34.1257097 193.41001,30.8563208 C191.543246,21.9063347 186.420704,15.7738486 177.807593,12.5473347 C177.386329,12.3894458 176.956899,12.2560569 176.528149,12.1213069 C175.45219,11.7830708 174.637565,11.1644458 174.958788,9.9414875 C175.349426,8.45175139 176.599607,8.55315417 177.708913,8.87982083 C180.752357,9.77747361 183.603885,11.1195292 186.125343,13.0509458 C193.369176,18.5995153 196.992454,25.9862653 197.277607,35.0247236" id="Fill-16" fill="#02AEEE"></path>
                <path d="M189.727047,35.6773764 C189.673964,36.0680153 189.616117,37.0827236 189.384047,38.0565986 C189.072353,39.3659875 189.382686,41.4389597 187.190617,41.1293069 C184.967242,40.8155708 185.798881,38.9488069 186.032992,37.6108347 C186.287519,36.1571681 186.395728,34.7300431 186.168422,33.2702514 C185.154394,26.7450847 181.6332,22.1812792 175.438783,19.7319597 C174.190644,19.2392375 172.408269,18.9595292 173.077936,17.1805569 C173.796603,15.2729597 175.501394,16.1318208 176.857742,16.6156958 C184.386728,19.3038903 189.712756,26.9526542 189.727047,35.6773764" id="Fill-18" fill="#03AEEE"></path>
                <path d="M52.1737708,47.8244083 C50.5976042,47.8523111 49.0207569,47.8802139 47.4439097,47.9081167 C47.3717708,41.5490056 47.3533958,35.1892139 47.1982292,28.8314639 C47.1444653,26.6387139 48.5504931,27.0300333 49.8714514,26.9374778 C51.4659931,26.8258667 52.3296181,27.1327972 52.2887847,29.0608111 C52.1560764,35.313075 52.1989514,41.5701028 52.1737708,47.8244083" id="Fill-20" fill="#00ADEE"></path>
                <path d="M182.470896,35.2281417 C182.449118,35.6344333 182.438229,36.3054611 182.370854,36.9710444 C182.237465,38.2743083 181.860438,39.5626 180.250243,39.4108361 C178.706063,39.2645167 178.833326,37.9469611 178.956507,36.8090722 C179.507757,31.704225 177.45316,28.1701 172.592632,26.3135444 C171.535049,25.909975 170.802771,25.2246556 171.262826,24.0370861 C171.797743,22.6521556 172.924063,22.8440722 174.089174,23.1884333 C178.81291,24.5862944 182.441632,29.6639194 182.470896,35.2281417" id="Fill-22" fill="#03AEEE"></path>
                <g id="Group-26" transform="translate(20.416667, 26.094882)">
                    <mask id="mask-8" fill="white">
                        <use xlink:href="#path-7"></use>
                    </mask>
                    <g id="Clip-25"></g>
                    <path d="M11.8694333,17.7565111 C8.53198889,17.6442194 6.04455833,14.8076639 6.11193333,11.1905111 C6.17998889,7.56110833 8.76133611,4.89265 12.1668361,4.93144167 C15.5512389,4.97023333 18.1114889,7.72376111 18.1101283,11.3232194 C18.1087667,15.0778444 15.3953917,17.8756083 11.8694333,17.7565111 M23.2251833,8.62821944 C21.9607111,3.37501111 17.8134056,0.256705556 12.091975,0.25602489 C6.39300278,0.255344444 2.21779444,3.40631667 0.973738889,8.64795556 C-0.407788889,14.4687472 1.91358611,18.5976778 8.735475,22.4584694 L15.5151694,22.4584694 C15.8384333,21.5506083 16.7993778,21.6649417 17.4527111,21.326025 C22.2029889,18.8630944 24.4930583,13.8991222 23.2251833,8.62821944" id="Fill-24" fill="#01AEEE" mask="url(#mask-8)"></path>
                </g>
                <path d="M163.440589,43.6426667 C162.218311,43.3445833 162.172714,42.5735139 162.173394,41.6425139 C162.174756,38.8338611 162.179519,36.0252083 162.1706,33.2165556 C162.167269,32.2583333 162.278881,31.5315 163.488908,31.262 C167.541617,30.3582222 171.475228,33.2560278 171.533756,37.2869583 C171.594325,41.4859861 167.519839,44.6383194 163.440589,43.6426667 M176.881561,36.7118889 C176.627714,31.5600833 173.623061,28.1294028 168.104436,27.2589722 C165.35295,26.8254583 162.491894,27.1242222 159.692769,26.9241389 C157.779047,26.7866667 157.1822,27.4304722 157.223033,29.3523611 C157.354381,35.5032222 157.304019,41.6574861 157.323756,47.8110694 C160.482214,47.8648333 163.641353,47.9185972 166.799811,47.9723611 C167.564756,47.7960972 168.342631,47.6613472 169.092603,47.4354028 C174.375756,45.8449444 177.144256,42.0229444 176.881561,36.7118889" id="Fill-27" fill="#01ADEE"></path>
                <path d="M118.738638,39.6889792 C119.517874,37.5676875 120.22361,35.6464792 121.064096,33.3570903 C122.666124,35.2959931 122.950596,37.3710069 123.81286,39.6889792 L118.738638,39.6889792 Z M124.852749,29.1764375 C124.15654,27.4076736 123.234387,26.8904514 121.385999,26.8814757 C119.508346,26.8713958 118.626346,27.4682431 117.931499,29.2063819 C115.521651,35.2395069 112.920568,41.1970903 110.391624,47.1839375 C112.085526,48.5913264 114.028513,47.6385486 115.858526,47.7542431 C116.581276,45.9310347 116.445846,43.5354792 119.661471,43.7859236 C122.79611,44.0288819 126.300971,43.1305486 126.821596,47.7998403 C128.658415,47.5990764 130.634068,48.6212708 132.330012,47.1805347 C129.821485,41.1855208 127.234693,35.2211319 124.852749,29.1764375 L124.852749,29.1764375 Z" id="Fill-29" fill="#01AEEE"></path>
            </g>
        </g>
    </g>
</svg>