<?xml version="1.0" encoding="UTF-8"?>
<svg width="32px" height="33px" viewBox="0 0 32 33" version="1.1" xmlns="http://www.w3.org/2000/svg" xmlns:xlink="http://www.w3.org/1999/xlink">
    <!-- Generator: Sketch 53 (72520) - https://sketchapp.com -->
    <title>yb-SLACK</title>
    <desc>Created with Sketch.</desc>
    <g id="Symbols" stroke="none" stroke-width="1" fill="none" fill-rule="evenodd">
        <g id="FOOTER---desktop" transform="translate(-434.000000, -622.000000)" fill="#FFFFFF">
            <g id="social" transform="translate(124.000000, 621.000000)">
                <path d="M313,1.5 L339,1.5 C340.656854,1.5 342,2.84314575 342,4.5 L342,30.5 C342,32.1568542 340.656854,33.5 339,33.5 L313,33.5 C311.343146,33.5 310,32.1568542 310,30.5 L310,4.5 C310,2.84314575 311.343146,1.5 313,1.5 Z M323.331699,7.5 C322.226307,7.50081349 321.331699,8.39402227 321.332516,9.49467026 C321.331699,10.5953182 322.227124,11.488527 323.332516,11.4893405 L325.332517,11.4893405 L325.332516,9.49548374 C325.333333,8.39483576 324.437908,7.50162697 323.331699,7.5 C323.332516,7.5 323.332516,7.5 323.331699,7.5 Z M323.331699,12.8202053 L318,12.8202053 C316.894608,12.8210188 315.999183,13.7142276 316,14.8148756 C315.998366,15.9155236 316.893791,16.8087324 317.999183,16.8103593 L323.331699,16.8103593 C324.437092,16.8095458 325.332516,15.9163371 325.331699,14.8156891 C325.332516,13.7142276 324.437092,12.8210188 323.331699,12.8202053 Z M335.996732,14.8148756 C335.997549,13.7142276 335.102124,12.8210188 333.996732,12.8202053 C332.89134,12.8210188 331.995915,13.7142276 331.996732,14.8148756 L331.996731,16.8103593 L333.996732,16.8103593 C335.102124,16.8095458 335.997549,15.9163371 335.996732,14.8148756 Z M330.664216,14.8148756 L330.664216,9.49467026 C330.665033,8.39483576 329.770425,7.50162697 328.665033,7.5 C327.559641,7.50081349 326.664216,8.39402227 326.665033,9.49467026 L326.665033,14.8148756 C326.663399,15.9155236 327.558824,16.8087324 328.664216,16.8103593 C329.769608,16.8095458 330.665033,15.9163371 330.664216,14.8148756 Z M328.664216,27.45077 C329.769608,27.4499565 330.665033,26.5567477 330.664216,25.4560998 C330.665033,24.3554518 329.769608,23.462243 328.664216,23.4614295 L326.664215,23.4614295 L326.664216,25.4560998 C326.663399,26.5559342 327.558824,27.449143 328.664216,27.45077 Z M328.664216,22.1297512 L333.996732,22.1297512 C335.102124,22.1289377 335.997549,21.2357289 335.996732,20.1350809 C335.998366,19.0344329 335.102941,18.1412242 333.997549,18.1395972 L328.665033,18.1395972 C327.559641,18.1404107 326.664216,19.0336195 326.665033,20.1342674 C326.664216,21.2357289 327.558824,22.1289377 328.664216,22.1297512 Z M316,20.1350809 C315.999183,21.2357289 316.894608,22.1289377 318,22.1297512 C319.105392,22.1289377 320.000817,21.2357289 320,20.1350809 L320.000001,18.1404107 L318,18.1404107 C316.894608,18.1412242 315.999183,19.0344329 316,20.1350809 Z M321.332516,20.1350809 L321.332516,25.4552863 C321.330882,26.5559342 322.226307,27.449143 323.331699,27.45077 C324.437092,27.4499565 325.332516,26.5567477 325.331699,25.4560998 L325.331699,20.1367079 C325.333333,19.0360599 324.437908,18.1428511 323.332516,18.1412242 C322.226307,18.1412242 321.331699,19.0344329 321.332516,20.1350809 C321.332516,20.1350809 321.332516,20.1358944 321.332516,20.1350809 Z" id="yb-SLACK"></path>
            </g>
        </g>
    </g>
</svg>