<?xml version="1.0" encoding="UTF-8"?>
<svg width="196px" height="51px" viewBox="0 0 196 51" version="1.1" xmlns="http://www.w3.org/2000/svg" xmlns:xlink="http://www.w3.org/1999/xlink">
    <!-- Generator: Sketch 61 (89581) - https://sketch.com -->
    <title>Group 33@1x</title>
    <desc>Created with Sketch.</desc>
    <defs>
        <polygon id="path-1" points="0.280195313 0.0065625 4.49882812 0.0065625 4.49882812 4.19796875 0.280195313 4.19796875"></polygon>
        <polygon id="path-3" points="0.0693338707 0.306640625 32.0127121 0.306640625 32.0127121 32.0021875 0.0693338707 32.0021875"></polygon>
    </defs>
    <g id="yugaweb" stroke="none" stroke-width="1" fill="none" fill-rule="evenodd">
        <g id="01-Home" transform="translate(-1152.000000, -3696.000000)">
            <g id="cs3" transform="translate(1040.000000, 3646.462504)">
                <g id="Group-33" transform="translate(112.343750, 50.000000)">
                    <g id="Group-3" transform="translate(190.625000, 20.005859)">
                        <mask id="mask-2" fill="white">
                            <use xlink:href="#path-1"></use>
                        </mask>
                        <g id="Clip-2"></g>
                        <path d="M2.35597656,1.96476562 C2.44191406,1.96476562 2.52355469,1.96203125 2.60011719,1.9565625 C2.67667969,1.95070312 2.74503906,1.93507813 2.80441406,1.90851562 C2.86457031,1.88273438 2.91261719,1.8425 2.94777344,1.7878125 C2.98292969,1.73351562 3.00128906,1.65851562 3.00128906,1.56085937 C3.00128906,1.47882812 2.98488281,1.41320312 2.95324219,1.36476562 C2.92160156,1.3159375 2.88097656,1.2784375 2.83019531,1.25226562 C2.77980469,1.22570312 2.72160156,1.208125 2.65636719,1.19875 C2.59074219,1.18976563 2.52589844,1.18507812 2.46222656,1.18507812 L1.95753906,1.18507812 L1.95753906,1.96476562 L2.35597656,1.96476562 Z M2.52433594,0.876484375 C2.81652344,0.876484375 3.03175781,0.934296875 3.17238281,1.0503125 C3.31222656,1.16632812 3.38253906,1.34171875 3.38253906,1.57765625 C3.38253906,1.79835937 3.32121094,1.96007812 3.19738281,2.06320312 C3.07433594,2.1659375 2.92082031,2.22648437 2.73800781,2.245625 L3.43878906,3.32804687 L3.02941406,3.32804687 L2.36183594,2.27335938 L1.95753906,2.27335938 L1.95753906,3.32804687 L1.57628906,3.32804687 L1.57628906,0.876484375 L2.52433594,0.876484375 Z M0.793476563,2.80890625 C0.880976563,3.02804687 1.00285156,3.21789062 1.15832031,3.3784375 C1.31300781,3.539375 1.49660156,3.66554687 1.70792969,3.75734375 C1.91886719,3.84875 2.14855469,3.89484375 2.39503906,3.89484375 C2.63878906,3.89484375 2.86457031,3.84875 3.07433594,3.75734375 C3.28371094,3.66554687 3.46574219,3.539375 3.62082031,3.3784375 C3.77628906,3.21789062 3.89777344,3.02804687 3.98566406,2.80890625 C4.07316406,2.59054687 4.11808594,2.351875 4.11808594,2.09367187 C4.11808594,1.84328125 4.07316406,1.6096875 3.98566406,1.3925 C3.89777344,1.1753125 3.77628906,0.9878125 3.62082031,0.8284375 C3.46574219,0.66984375 3.28371094,0.544453125 3.07433594,0.453046875 C2.86457031,0.361640625 2.63878906,0.31515625 2.39503906,0.31515625 C2.14855469,0.31515625 1.91886719,0.361640625 1.70792969,0.453046875 C1.49660156,0.544453125 1.31300781,0.66984375 1.15832031,0.8284375 C1.00285156,0.9878125 0.880976563,1.1753125 0.793476563,1.3925 C0.705585938,1.6096875 0.661835938,1.84328125 0.661835938,2.09367187 C0.661835938,2.351875 0.705585938,2.59054687 0.793476563,2.80890625 L0.793476563,2.80890625 Z M0.448164063,1.2690625 C0.560664063,1.01476562 0.713007813,0.7940625 0.905976563,0.606953125 C1.09816406,0.420234375 1.32277344,0.273359375 1.57863281,0.16671875 C1.83488281,0.060078125 2.10675781,0.0065625 2.39503906,0.0065625 C2.68292969,0.0065625 2.95441406,0.060078125 3.20910156,0.16671875 C3.46261719,0.273359375 3.68527344,0.420234375 3.87628906,0.606953125 C4.06730469,0.7940625 4.21886719,1.01476562 4.33097656,1.2690625 C4.44308594,1.52335937 4.49894531,1.79835937 4.49894531,2.09367187 C4.49894531,2.39640625 4.44308594,2.67648437 4.33097656,2.93273437 C4.21886719,3.18859375 4.06730469,3.41164062 3.87628906,3.6003125 C3.68527344,3.789375 3.46261719,3.93585938 3.20910156,4.04054687 C2.95441406,4.14523437 2.68292969,4.19796875 2.39503906,4.19796875 C2.10675781,4.19796875 1.83488281,4.14523437 1.57863281,4.04054687 C1.32277344,3.93585938 1.09816406,3.789375 0.905976563,3.6003125 C0.713007813,3.41164062 0.560664063,3.18859375 0.448164063,2.93273437 C0.336054688,2.67648437 0.280195313,2.39640625 0.280195313,2.09367187 C0.280195313,1.79835937 0.336054688,1.52335937 0.448164063,1.2690625 L0.448164063,1.2690625 Z" id="Fill-1" fill="#202020" mask="url(#mask-2)"></path>
                    </g>
                    <path d="M86.4944922,10.4510156 L73.9765234,10.4510156 C73.5374609,10.4510156 73.1441016,10.7795312 73.1210547,11.2182031 C73.0964453,11.6857813 73.4683203,12.0725 73.9308203,12.0725 L73.9319922,12.0725 L75.9159766,12.0721094 C76.1616797,12.0721094 76.3605078,12.2713281 76.3605078,12.5166406 L76.3605078,37.5088281 C76.3605078,37.7541406 76.1616797,37.9529687 75.9159766,37.9529687 L73.9511328,37.9529687 C73.5636328,37.9529687 73.2124609,38.2154687 73.1358984,38.5951563 C73.0304297,39.1170312 73.4265234,39.5752344 73.9296484,39.5752344 L73.9319922,39.5748437 L82.3304297,39.5752344 C82.7171484,39.5752344 83.0687109,39.3127344 83.1456641,38.9330469 C83.2507422,38.4111719 82.8546484,37.9529687 82.3519141,37.9529687 L80.3655859,37.9529687 C80.1202734,37.9529687 79.9210547,37.7541406 79.9210547,37.5088281 L79.9210547,12.5166406 C79.9210547,12.2713281 80.1202734,12.0721094 80.3655859,12.0721094 L85.5948828,12.0721094 C88.9507422,12.0721094 90.6491797,14.869375 90.6491797,18.535 C90.6491797,22.4209375 89.3983984,25.3232813 85.5948828,25.3232813 C85.4319922,25.3232813 82.6730078,25.3322656 82.5105078,25.3357813 C82.0624609,25.3357813 81.6999609,25.6990625 81.6999609,26.1471094 C81.6999609,26.5920312 82.0589453,26.9525781 82.5026953,26.9572656 L82.5026953,26.9584375 L85.5948828,26.9580469 L86.4944922,26.9580469 C90.6456641,26.9580469 94.4163672,24.1310937 94.4163672,18.6838281 C94.4163672,13.2365625 90.6456641,10.4510156 86.4944922,10.4510156" id="Fill-4" fill="#202020"></path>
                    <path d="M121.499258,35.9667578 C121.499258,35.9667578 119.278945,37.0593359 118.463711,37.2941016 C116.45668,37.8722266 115.32543,36.6019141 115.32543,34.3851172 L115.316836,21.4835547 C115.318008,20.9921484 114.91918,20.5933203 114.427773,20.5933203 L109.372695,20.5929297 C108.933242,20.5929297 108.539883,20.9218359 108.517227,21.3605078 C108.493008,21.8284766 108.864492,22.2140234 109.326992,22.2140234 L111.313711,22.2140234 C111.559023,22.2140234 111.758242,22.4132422 111.758242,22.6585547 L111.758242,33.4476172 C111.758242,37.1562109 111.772695,39.0042578 114.410195,39.7995703 L114.410977,39.7905859 C114.41332,39.7913672 114.415273,39.7921484 114.417617,39.7929297 C116.129336,40.4562109 118.251992,39.8624609 119.634414,39.0429297 C121.016445,38.2233984 122.333633,37.3487891 122.333633,37.3487891 C122.777773,37.0441016 122.861758,36.5511328 122.573086,36.1608984 C122.297695,35.7894141 121.914102,35.7374609 121.499258,35.9667578" id="Fill-6" fill="#202020"></path>
                    <path d="M129.266016,37.9530469 L128.598047,37.9530469 L128.526953,37.9530469 C128.28125,37.9530469 128.082812,37.7542187 128.082812,37.5085156 L128.082812,21.4819531 C128.082812,20.9909375 127.684375,20.5932813 127.19375,20.5928906 L122.136719,20.5928906 C121.697266,20.5928906 121.303906,20.9217969 121.28125,21.3604687 C121.257031,21.8284375 121.628906,22.2139844 122.091016,22.2139844 L124.077734,22.2139844 C124.323437,22.2139844 124.521875,22.4132031 124.521875,22.6585156 L124.521875,38.68625 C124.521875,39.1772656 124.919922,39.5749219 125.410938,39.5749219 L129.311719,39.5749219 L129.311719,39.5741406 C129.773828,39.5733594 130.144922,39.1870312 130.120703,38.7198437 C130.097656,38.2819531 129.704687,37.9530469 129.266016,37.9530469" id="Fill-8" fill="#202020"></path>
                    <path d="M106.112695,37.9530469 L104.12793,37.9530469 C103.882617,37.9530469 103.68457,37.7542187 103.68457,37.5085156 L103.680664,11.3401562 C103.680273,10.8491406 103.282617,10.4514844 102.791992,10.4514844 L97.7302734,10.4510938 C97.3322266,10.4510938 96.9642578,10.7190625 96.8931641,11.1104688 C96.8005859,11.6249219 97.1931641,12.0725781 97.6904297,12.0725781 L97.6916016,12.0725781 L99.6755859,12.0721875 C99.9208984,12.0721875 100.120117,12.2714062 100.120117,12.5167187 L100.120117,37.5085156 C100.120117,37.7542187 99.9208984,37.9534375 99.6755859,37.9534375 L97.7052734,37.9530469 C97.3533203,37.9530469 97.0232422,38.1678906 96.9185547,38.5034375 C96.7443359,39.0620312 97.1564453,39.5749219 97.6892578,39.5749219 L106.072852,39.5749219 C106.470898,39.5749219 106.839258,39.3069531 106.909961,38.9155469 C107.00293,38.4007031 106.609961,37.9530469 106.112695,37.9530469" id="Fill-10" fill="#202020"></path>
                    <path d="M181.429688,26.9579688 L175.161328,26.9583594 C174.757422,26.9583594 174.383203,27.2341406 174.318359,27.6329688 C174.235547,28.1407813 174.625391,28.5798438 175.117969,28.5798438 L184.555469,28.5790625 C185.046484,28.5790625 185.444141,28.1829688 185.444141,27.6919531 C185.444141,27.4528906 185.44375,27.1751563 185.443359,26.8704688 C185.4375,22.586875 182.058984,20.1294531 177.705859,20.1294531 C173.351953,20.1294531 168.9875,23.8083594 168.9875,29.9021094 C168.9875,30.2001563 168.996875,30.6189063 169.014844,30.9048438 C169.442578,37.7771094 176.285156,41.5810156 182.495703,38.6075781 C183.329688,38.2083594 184.116406,37.6122656 184.765234,37.1048438 C185.066797,36.8685156 185.352734,36.4388281 185.039063,35.9614844 C184.725781,35.4833594 184.264453,35.54625 183.857031,35.7653906 C182.414453,36.5403906 180.833203,37.1200781 179.387109,37.1200781 C174.911328,37.1200781 172.549219,34.2599219 172.549219,29.4005469 L172.554297,28.5790625 C172.559375,27.8052344 172.630859,27.0290625 172.829688,26.2810156 C173.552734,23.5638281 175.435547,21.7501563 177.710156,21.7501563 C180.262891,21.7501563 181.761719,23.4603125 181.875391,26.5052344 C181.884375,26.7536719 181.678516,26.9579688 181.429688,26.9579688" id="Fill-12" fill="#202020"></path>
                    <path d="M142.026914,39.2969922 C142.150742,39.1657422 142.233555,38.9973828 142.243711,38.8063672 C142.267539,38.3391797 141.896055,37.9536328 141.433555,37.9536328 L141.377695,37.9536328 L141.374961,37.9532422 L139.446055,37.9532422 C139.201133,37.9524609 139.002695,37.7540234 139.002695,37.5091016 L139.002695,21.4813672 C139.002695,20.9903516 138.604648,20.5923047 138.113633,20.5923047 L134.212852,20.5919141 L134.212852,20.5930859 C134.109336,20.5934766 134.01168,20.6153516 133.920664,20.6508984 C133.914805,20.6528516 133.908945,20.6540234 133.902695,20.6563672 C133.815977,20.6923047 133.739414,20.7446484 133.671055,20.8063672 C133.664023,20.8133984 133.656211,20.8184766 133.64918,20.8255078 C133.585117,20.8880078 133.533164,20.9618359 133.492148,21.0430859 C133.48668,21.0540234 133.48082,21.0637891 133.475742,21.0751172 C133.439805,21.1571484 133.417539,21.2454297 133.409727,21.3391797 C133.408945,21.3462109 133.405039,21.3524609 133.404648,21.3591016 C133.404258,21.3680859 133.407383,21.3755078 133.407383,21.3841016 C133.406992,21.4051953 133.403086,21.4258984 133.404258,21.4477734 C133.426133,21.8669141 133.787852,22.1825391 134.203477,22.2091016 L134.214414,22.2145703 L134.983945,22.2145703 C135.229648,22.2145703 135.428086,22.4133984 135.428086,22.6587109 L135.428086,37.5087109 C135.428086,37.7540234 135.229648,37.9532422 134.983945,37.9532422 L134.226133,37.9532422 C134.221055,37.9532422 134.216367,37.9516797 134.210898,37.9516797 C133.763242,37.9516797 133.400352,38.3145703 133.400352,38.7626172 C133.400352,39.2098828 133.762852,39.5727734 134.210508,39.5731641 L134.214414,39.5751172 L141.387852,39.5743359 C141.389023,39.5743359 141.390586,39.5739453 141.390586,39.5739453 L141.419492,39.5739453 C141.625742,39.5739453 141.810898,39.4946484 141.953867,39.3684766 C141.964414,39.3594922 141.97457,39.3512891 141.984336,39.3419141 C141.99918,39.3274609 142.013242,39.3126172 142.026914,39.2969922" id="Fill-14" fill="#202020"></path>
                    <path d="M152.975117,37.9515234 C152.970039,37.9515234 152.965742,37.9530859 152.960273,37.9530859 L152.205195,37.9530859 C151.959883,37.9530859 151.761055,37.7538672 151.761055,37.5085547 L151.761055,26.7714453 L151.759492,26.7597266 C151.759492,23.0507422 151.60793,21.3761328 149.10793,20.4073828 C147.396211,19.7441016 145.273164,20.3378516 143.891133,21.1573828 C142.509102,21.9765234 141.191914,22.8515234 141.191914,22.8515234 C140.747383,23.1562109 140.663398,23.6491797 140.952461,24.0394141 C141.227852,24.4108984 141.593086,24.4737891 142.00793,24.2444922 C142.00793,24.2444922 144.209492,23.1226172 145.061836,22.9058203 C147.086055,22.3913672 148.199727,23.5987891 148.199727,25.8155859 L148.199336,37.6566016 C148.199336,37.8202734 148.067305,37.9530859 147.903633,37.9530859 C147.903633,37.9530859 146.986836,37.9515234 146.981758,37.9515234 C146.534102,37.9515234 146.17082,38.3148047 146.17082,38.7624609 C146.17082,39.2101172 146.538008,39.5745703 146.985273,39.5749609 L152.976289,39.5749609 L152.976289,39.5741797 C153.143477,39.5737891 153.297773,39.5222266 153.42668,39.4358984 C153.431758,39.4323828 153.435664,39.4284766 153.439961,39.4249609 C153.477461,39.3987891 153.512617,39.3706641 153.544648,39.3390234 C153.552461,39.3312109 153.55832,39.3226172 153.565742,39.3148047 C153.593086,39.2855078 153.619258,39.2550391 153.642305,39.2218359 C153.650508,39.2105078 153.656758,39.1972266 153.66418,39.1851172 C153.68332,39.1538672 153.70168,39.1222266 153.716523,39.0882422 C153.723555,39.0722266 153.728242,39.0554297 153.734102,39.0390234 C153.746211,39.0069922 153.757148,38.9745703 153.764961,38.9405859 C153.769258,38.9210547 153.771211,38.9007422 153.773945,38.8804297 C153.777852,38.8562109 153.783711,38.8331641 153.784883,38.8081641 C153.785273,38.8030859 153.78332,38.7968359 153.78293,38.7909766 C153.78332,38.7816016 153.786055,38.7726172 153.786055,38.7624609 C153.786055,38.3148047 153.422773,37.9515234 152.975117,37.9515234" id="Fill-16" fill="#202020"></path>
                    <path d="M165.728789,37.9515234 C165.72332,37.9515234 165.719023,37.9530859 165.713945,37.9530859 L164.961602,37.9530859 C164.715898,37.9530859 164.51707,37.7538672 164.51707,37.5085547 L164.515508,26.7597266 C164.515508,23.0507422 164.364336,21.3761328 161.863945,20.4073828 C160.152617,19.7441016 158.02918,20.3378516 156.647539,21.1573828 C155.265508,21.9765234 153.94832,22.8515234 153.94832,22.8515234 C153.503398,23.1562109 153.419805,23.6491797 153.708867,24.0394141 C153.983867,24.4108984 154.367852,24.4628516 154.782695,24.2335547 C154.782695,24.2335547 157.002617,23.1409766 157.818242,22.9058203 C159.825273,22.3280859 160.955742,23.5987891 160.955742,25.8155859 L160.955742,37.5085547 C160.955742,37.7542578 160.756523,37.9530859 160.511602,37.9530859 L159.754961,37.9530859 C159.749883,37.9530859 159.745195,37.9515234 159.740117,37.9515234 C159.419414,37.9515234 159.144805,38.1390234 159.013164,38.4097266 C159.01082,38.4144141 159.008086,38.4183203 159.005742,38.4233984 C158.988555,38.4601172 158.976055,38.4980078 158.965117,38.5374609 C158.961211,38.5495703 158.956523,38.5608984 158.953789,38.5730078 C158.945586,38.6073828 158.941289,38.6429297 158.937773,38.6788672 C158.936211,38.6925391 158.932305,38.7062109 158.931523,38.7202734 C158.931133,38.7253516 158.932305,38.7308203 158.931914,38.7366797 C158.931914,38.7452734 158.92918,38.7534766 158.92918,38.7624609 C158.92918,38.7784766 158.933086,38.7933203 158.933867,38.8093359 C158.934648,38.8171484 158.935039,38.8245703 158.936211,38.8323828 C158.972148,39.2456641 159.314336,39.5710547 159.736602,39.5726172 L159.741289,39.5749609 L160.956523,39.5749609 L160.956914,39.5749609 L164.51668,39.5749609 L165.732695,39.5749609 L165.732695,39.5741797 C166.164727,39.5733984 166.518242,39.2347266 166.541289,38.8081641 C166.544023,38.7573828 166.538164,38.7073828 166.52918,38.6585547 C166.477227,38.2601172 166.140898,37.9515234 165.728789,37.9515234" id="Fill-18" fill="#202020"></path>
                    <path d="M43.0374609,29.4771875 L43.0355078,29.4736719 C43.2761328,29.8935938 43.3956641,30.3611719 43.3964453,30.8299219 C43.3956641,31.2998438 43.2737891,31.7709375 43.0304297,32.1947656 L43.0319922,32.1924219 L36.1378516,44.1338281 C34.9608984,46.1709375 32.7870703,47.4260156 30.4331641,47.4260156 L14.9140234,47.4213281 C14.3495703,47.4209375 13.8261328,47.8064844 13.7351172,48.3639063 C13.6194922,49.0744531 14.1640234,49.688125 14.8534766,49.688125 L30.4327734,49.6932032 C33.5968359,49.6935938 36.5191016,48.0064844 38.1011328,45.2678125 L44.9956641,33.3264063 L44.9972266,33.3236719 C45.4386328,32.55375 45.6636328,31.6928125 45.6632427,30.8299219 C45.6636328,29.9736719 45.4433203,29.1158594 45.0030859,28.3467188 L45.0007422,28.3435938 L39.2679297,18.4064844 C39.1222266,18.15375 38.8523047,17.9978906 38.5608984,17.9978906 L36.7632422,17.9978906 C36.6062109,17.9978906 36.5081641,18.1682031 36.5866797,18.30375 L43.0374609,29.4771875 Z" id="Fill-20" fill="#202020"></path>
                    <path d="M31.7478516,40.1614062 L31.7498047,40.1578906 C31.5060547,40.57625 31.1611328,40.91375 30.7552734,41.1485156 C30.3482422,41.3832813 29.8794922,41.5133594 29.3904297,41.5141406 L29.3935547,41.5145313 L15.6044922,41.5145313 C13.2517578,41.51375 11.0783203,40.2586719 9.90136719,38.2203906 L2.14824219,24.7813281 C1.85175781,24.2676563 1.21230469,24.0129687 0.671679687,24.2567188 C0.0498046875,24.5371875 -0.180273438,25.2828906 0.152148437,25.8590625 L7.93769531,39.3539844 C9.51972656,42.0938281 12.4416016,43.7813281 15.6041016,43.7821094 L29.3935547,43.7817187 L29.3958984,43.7821094 C30.2837891,43.7797656 31.1419922,43.5434375 31.8884766,43.1117969 C32.6306641,42.6840625 33.2634766,42.0641406 33.7091797,41.2989063 L33.7111328,41.295 L39.4501953,31.3617969 C39.5962891,31.1086719 39.5962891,30.7977344 39.4505859,30.545 L38.5517578,28.9883594 C38.4732422,28.8524219 38.2771484,28.8524219 38.1986328,28.9883594 L31.7478516,40.1614062 Z" id="Fill-22" fill="#202020"></path>
                    <path d="M16.8499219,35.7264062 L16.8538281,35.7264062 C16.3698438,35.7248437 15.905,35.5947656 15.49875,35.3603906 C15.0921094,35.1252344 14.7448437,34.7842188 14.4995313,34.3611719 L14.5007031,34.3639062 L7.6065625,22.4225 C6.43078125,20.385 6.43078125,17.8748437 7.60773438,15.8365625 L15.3717969,2.39867188 C15.6538281,1.91 15.5815625,1.26351563 15.1444531,0.906484375 C14.5870313,0.451015625 13.7827344,0.61546875 13.4385937,1.21273438 L5.6440625,14.7025781 C4.06242187,17.4424219 4.06242187,20.8166406 5.64289063,23.5560937 L12.5374219,35.4975 L12.5389844,35.5002344 C12.9842969,36.2678125 13.6182813,36.8928125 14.3655469,37.3236719 C15.1065625,37.7525781 15.9596875,37.9904687 16.845625,37.9939844 L16.8499219,37.9935937 L28.3221875,37.9967195 C28.6135937,37.9971094 28.8835156,37.8416406 29.0292187,37.5892969 L29.9276562,36.0322656 C30.0065625,35.8967187 29.9085156,35.7264062 29.7510937,35.7264062 L16.8499219,35.7264062 Z" id="Fill-24" fill="#202020"></path>
                    <g id="Group-28" transform="translate(10.546875, 0.083984)">
                        <mask id="mask-4" fill="white">
                            <use xlink:href="#path-3"></use>
                        </mask>
                        <g id="Clip-27"></g>
                        <path d="M2.69472656,20.5228906 L2.69707031,20.5264062 C2.45644531,20.1064844 2.33652344,19.6389062 2.33613281,19.1701562 C2.33652344,18.7002344 2.45878906,18.2291406 2.70214844,17.8049219 L2.70058594,17.8076562 L9.59472656,5.86625 C10.7716797,3.82914062 12.9451172,2.5740625 15.2990234,2.5740625 L30.8185547,2.57875 C31.3830078,2.57914062 31.9060547,2.19320312 31.9970703,1.63617188 C32.1130859,0.925625 31.5681641,0.311953125 30.8787109,0.311953125 L15.2998047,0.306484375 C12.1353516,0.306484375 9.21308594,1.99359375 7.63144531,4.731875 L0.736914062,16.6736719 L0.734960937,16.6764062 C0.293554687,17.4463281 0.0685546875,18.3072656 0.0693338707,19.1701562 C0.0685546875,20.0264062 0.289257812,20.8842187 0.729101562,21.6533594 L0.731445312,21.6564844 L6.46464844,31.5935937 C6.61035156,31.8459375 6.87988281,32.0021875 7.17167969,32.0021875 L8.96894531,32.0021875 C9.12597656,32.0021875 9.22441406,31.831875 9.14589844,31.6959375 L2.69472656,20.5228906 Z" id="Fill-26" fill="#202020" mask="url(#mask-4)"></path>
                    </g>
                    <path d="M24.5316016,9.92230469 L24.5296484,9.92621094 C24.7730078,9.50746094 25.1179297,9.17035156 25.5237891,8.93558594 C25.9312109,8.70082031 26.3999609,8.57074219 26.8886328,8.56957031 L26.8858984,8.56957031 L40.6745703,8.56957031 C43.0276953,8.56996094 45.2011328,9.82503906 46.3780859,11.8637109 L54.1312109,25.3027734 C54.4273047,25.8160547 55.0671484,26.0711328 55.6077734,25.8273828 C56.2292578,25.5469141 56.4597266,24.8012109 56.1273047,24.2250391 L48.3417578,10.7301172 C46.7597266,7.99027344 43.8378516,6.30277344 40.6749609,6.30199219 L26.8858984,6.30238281 L26.8831641,6.30199219 C25.9952734,6.30433594 25.1374609,6.54066406 24.3905859,6.97230469 C23.6487891,7.40003906 23.0159766,8.01957031 22.5702734,8.78519531 L22.5683203,8.78910156 L16.8288672,18.7223047 C16.6831641,18.9750391 16.6827734,19.2863672 16.8288672,19.5387109 L17.7273047,21.0957422 C17.8058203,21.2316797 18.0023047,21.2316797 18.0808203,21.0957422 L24.5316016,9.92230469 Z" id="Fill-29" fill="#202020"></path>
                    <path d="M39.4294922,14.3576172 L39.4251953,14.3576172 C39.9095703,14.3591797 40.3740234,14.4892578 40.7806641,14.7236328 C41.1869141,14.9587891 41.5341797,15.2998047 41.7798828,15.7224609 L41.7783203,15.7197266 L48.6728516,27.6615234 C49.8486328,29.6990234 49.8486328,32.2091797 48.6716797,34.2474609 L40.9076172,47.6853516 C40.6251953,48.1740234 40.6974609,48.8205078 41.1345703,49.1775391 C41.6919922,49.6330078 42.4962891,49.4681641 42.8408203,48.8712891 L50.6349609,35.3814453 C52.2169922,32.6416016 52.2169922,29.2673828 50.6361328,26.5279297 L43.7416016,14.5865234 L43.7404297,14.5837891 C43.2947266,13.8162109 42.6611328,13.1912109 41.9138672,12.7603516 C41.1728516,12.3314453 40.3193359,12.0935547 39.4337891,12.0900391 L39.4294922,12.0900391 L27.9572266,12.087304 C27.6654297,12.0869141 27.3958984,12.2423828 27.2498047,12.4947266 L26.3513672,14.0517578 C26.2724609,14.1873047 26.3708984,14.3576172 26.5279297,14.3576172 L39.4294922,14.3576172 Z" id="Fill-31" fill="#202020"></path>
                </g>
            </g>
        </g>
    </g>
</svg>