<?xml version="1.0" encoding="UTF-8"?>
<svg width="32px" height="33px" viewBox="0 0 32 33" version="1.1" xmlns="http://www.w3.org/2000/svg" xmlns:xlink="http://www.w3.org/1999/xlink">
    <g id="yb_facebook" class="yb_social_icon" transform="translate(-315.000000, -7872.000000)" fill="#322965">
        <g transform="translate(67.000000, 7872.000000)">
            <path d="M280,5.83333333 C280,3.03111111 277.470667,0.5 274.666667,0.5 L253.333333,0.5 C250.529333,0.5 248,3.03111111 248,5.83333333 L248,27.1666667 C248,29.9688889 250.529333,32.5 253.333333,32.5 L264,32.5 L264,20.4115556 L260.088444,20.4115556 L260.088444,15.0782222 L264,15.0782222 L264,13 C264,9.41644444 266.691111,6.18933333 270,6.18933333 L274.310667,6.18933333 L274.310667,11.5226667 L270,11.5226667 C269.528,11.5226667 268.977333,12.0955556 268.977333,12.9533333 L268.977333,15.0782222 L274.310667,15.0782222 L274.310667,20.4115556 L268.977333,20.4115556 L268.977333,32.5 L274.666667,32.5 C277.470667,32.5 280,29.9688889 280,27.1666667 L280,5.83333333 Z" id="facebook-copy"></path>
        </g>
    </g>
</svg>