<?xml version="1.0" encoding="UTF-8"?>
<svg width="33px" height="33px" viewBox="0 0 33 33" version="1.1" xmlns="http://www.w3.org/2000/svg" xmlns:xlink="http://www.w3.org/1999/xlink">
    <g id="icon-github" fill-rule="nonzero">
        <circle class="bg" fill="#000041" cx="16.1" cy="16.9" r="15.5"></circle>
        <g id="yb_github" fill="#FFFFFF">
            <g class="group">
                <path d="M29.7,8.5 C28.3,6.1 26.4,4.1 23.9,2.7 C21.5,1.3 18.8,0.6 15.9,0.6 C13,0.6 10.4,1.3 7.9,2.7 C5.6,4.2 3.7,6.1 2.3,8.5 C0.9,10.9 0.2,13.6 0.2,16.5 C0.2,20 1.2,23.1 3.2,25.8 C5.2,28.6 7.8,30.5 11,31.5 C11.4,31.6 11.6,31.5 11.8,31.4 C12,31.2 12.1,31 12.1,30.8 C12.1,30.8 12.1,30.4 12.1,29.7 C12.1,29 12.1,28.4 12.1,27.9 L11.6,28 C11.3,28 10.9,28 10.4,28 C10,28 9.5,27.9 9,27.8 C8.5,27.7 8,27.5 7.6,27.2 C7.2,26.9 6.9,26.5 6.7,25.9 L6.5,25.4 C6.4,25.1 6.1,24.7 5.9,24.3 C5.6,24 5.3,23.8 5,23.6 L4.9,23.5 C4.8,23.4 4.7,23.3 4.6,23.3 C4.5,23.2 4.5,23.1 4.4,23 C4.4,22.9 4.4,22.8 4.5,22.8 C4.6,22.7 4.8,22.7 5.1,22.7 L5.5,22.8 C5.8,22.9 6.1,23 6.5,23.3 C6.9,23.6 7.2,23.9 7.5,24.4 C7.8,25 8.2,25.4 8.6,25.7 C9.1,25.9 9.5,26 10,26 C10.5,26 10.8,26 11.2,25.9 C11.5,25.8 11.8,25.7 12.1,25.6 C12.2,24.7 12.6,24 13.1,23.5 C12.3,23.4 11.6,23.3 11,23.1 C10.4,22.9 9.7,22.7 9.1,22.3 C8.4,21.9 7.9,21.5 7.4,20.9 C7,20.3 6.6,19.6 6.3,18.7 C6,17.8 5.9,16.8 5.9,15.6 C5.9,13.9 6.4,12.5 7.5,11.3 C7,10.1 7.1,8.7 7.7,7.2 C8.1,7.1 8.7,7.2 9.5,7.5 C10.3,7.8 10.9,8.1 11.2,8.3 C11.6,8.5 11.9,8.7 12.1,8.9 C13.4,8.5 14.7,8.4 16.1,8.4 C17.5,8.4 18.8,8.6 20.1,8.9 L20.9,8.4 C21.4,8.1 22.1,7.8 22.8,7.5 C23.5,7.2 24.1,7.1 24.5,7.3 C25.1,8.9 25.2,10.3 24.7,11.5 C25.8,12.7 26.3,14.1 26.3,15.8 C26.3,17 26.2,18 25.9,18.9 C25.6,19.8 25.3,20.5 24.8,21.1 C24.4,21.6 23.8,22.1 23.1,22.5 C22.4,22.9 21.8,23.1 21.2,23.3 C20.6,23.5 19.9,23.6 19.1,23.7 C19.8,24.3 20.2,25.3 20.2,26.6 L20.2,31 C20.2,31.2 20.3,31.5 20.5,31.6 C20.7,31.8 20.9,31.8 21.3,31.7 C24.5,30.6 27.1,28.7 29.1,26 C31.1,23.2 32.1,20.1 32.1,16.7 C31.9,13.6 31.1,10.9 29.7,8.5 Z" class="icon"></path>
            </g>
        </g>
    </g>
</svg>