<?xml version="1.0" encoding="UTF-8"?>
<svg width="32px" height="31px" viewBox="0 0 32 31" version="1.1" xmlns="http://www.w3.org/2000/svg" xmlns:xlink="http://www.w3.org/1999/xlink">
    <g id="yb_github" class="yb_social_icon" transform="translate(-67.000000, -7874.000000)" fill="#322965">
        <g transform="translate(67.000000, 7872.000000)">
            <path d="M29.5927129,9.89861386 C28.1745743,7.46914851 26.2501386,5.54566337 23.8206733,4.12752475 C21.3899406,2.70906931 18.7377426,2 15.8602772,2 C12.9828119,2 10.3293465,2.70906931 7.89861386,4.12752475 C5.46914851,5.54566337 3.54566337,7.46914851 2.12752475,9.89861386 C0.709069307,12.3290297 0,14.982495 0,17.8599604 C0,21.3156436 1.00879208,24.4231287 3.02479208,27.1830495 C5.04205941,29.9429703 7.64736634,31.8537822 10.8416634,32.9132673 C11.2129901,32.9826535 11.4889505,32.934495 11.6670099,32.7697426 C11.8466535,32.6040396 11.9356832,32.3971485 11.9356832,32.149703 C11.9356832,32.1088317 11.9318812,31.737505 11.9258614,31.0344554 C11.9182574,30.3329901 11.9144554,29.7202376 11.9144554,29.1968317 L11.4404752,29.2795248 C11.1372673,29.3352871 10.7548515,29.3587327 10.294495,29.3514455 C9.83287129,29.3451089 9.35382178,29.2969505 8.85893069,29.2066535 C8.36277228,29.1176238 7.90209901,28.912 7.47532673,28.5878812 C7.04823762,28.2647129 6.74629703,27.8414257 6.5669703,27.3180198 L6.36007921,26.8427723 C6.22289109,26.5259406 6.00617822,26.1758416 5.71025743,25.7896238 C5.41338614,25.4046733 5.1139802,25.1423366 4.8120396,25.0048317 L4.66693069,24.9021782 C4.57061386,24.8327921 4.48158416,24.750099 4.39857426,24.6534653 C4.31556436,24.558099 4.25378218,24.4614653 4.21291089,24.3651485 C4.1720396,24.2685149 4.20530693,24.1893069 4.31556436,24.1275248 C4.42582178,24.0641584 4.62637624,24.0346931 4.91469307,24.0346931 L5.32784158,24.0964752 C5.60285149,24.1509703 5.94439604,24.3166733 6.35025743,24.5916832 C6.75611881,24.8676436 7.09037624,25.2253465 7.35144554,25.6657426 C7.66827723,26.2300198 8.04942574,26.6596436 8.49742574,26.9565149 C8.94542574,27.2524356 9.3959604,27.3997624 9.85029703,27.3997624 C10.3043168,27.3997624 10.6968713,27.3649109 11.0273267,27.2971089 C11.3577822,27.2277228 11.6670099,27.1250693 11.9565941,26.9875644 C12.0804752,26.0643168 12.4182178,25.3552475 12.9679208,24.8600396 C12.1831287,24.7770297 11.4778614,24.6534653 10.8514851,24.4874455 C10.2251089,24.3230099 9.57782178,24.0543366 8.91089109,23.6817426 C8.24269307,23.3107327 7.68823762,22.8491089 7.24752475,22.2994059 C6.80807921,21.7487525 6.44562376,21.0247921 6.16459406,20.1310099 C5.88229703,19.2350099 5.74130693,18.2027723 5.74130693,17.0333465 C5.74130693,15.3674455 6.28467327,13.9493069 7.37267327,12.778297 C6.86257426,11.5258614 6.91073267,10.1226139 7.51746535,8.56665347 C7.91572277,8.44182178 8.50851485,8.53592079 9.29330693,8.84514851 C10.078099,9.15469307 10.652198,9.42083168 11.0171881,9.63976238 C11.382495,9.8599604 11.6746139,10.0468911 11.8948119,10.1980198 C13.1757624,9.84031683 14.4975842,9.6609901 15.8602772,9.6609901 C17.2226535,9.6609901 18.5444752,9.84031683 19.8254257,10.1980198 L20.6102178,9.70154455 C21.1459802,9.37108911 21.7796436,9.06914851 22.5099406,8.79318812 C23.2389703,8.51849505 23.7969109,8.44308911 24.1831287,8.56665347 C24.801901,10.1226139 24.8576634,11.5258614 24.3478812,12.7795644 C25.4355644,13.9493069 25.9789307,15.3674455 25.9789307,17.0333465 C25.9789307,18.2027723 25.8379406,19.2388119 25.5556436,20.1411485 C25.2736634,21.0431683 24.9096238,21.7661782 24.4616238,22.3092277 C24.0136238,22.8538614 23.4566337,23.3107327 22.7884356,23.6830099 C22.1211881,24.0543366 21.473901,24.3230099 20.8478416,24.4874455 C20.2214653,24.6534653 19.516198,24.7770297 18.7314059,24.8600396 C19.4468119,25.4800792 19.8045149,26.4565545 19.8045149,27.792 L19.8045149,32.149703 C19.8045149,32.3971485 19.8910099,32.6040396 20.0630495,32.7684752 C20.2350891,32.9332277 20.506297,32.9826535 20.8785743,32.9132673 C24.0728713,31.8525149 26.6781782,29.9429703 28.6941782,27.1817822 C30.7117624,24.4218614 31.7202376,21.3143762 31.7202376,17.8590099 C31.7189703,14.982495 31.009901,12.3290297 29.5927129,9.89861386 Z" id="github"></path>
        </g>
    </g>
</svg>