<?xml version="1.0" encoding="UTF-8"?>
<svg width="32px" height="33px" viewBox="0 0 32 33" version="1.1" xmlns="http://www.w3.org/2000/svg" xmlns:xlink="http://www.w3.org/1999/xlink">
    <g id="yb_linkedin" class="yb_social_icon" transform="translate(-253.000000, -7873.000000)" fill="#322965">
        <g transform="translate(67.000000, 7872.000000)">
            <path d="M214.796,1.73076923 L189.204,1.73076923 C187.438,1.73076923 186,3.16876923 186,4.93476923 L186,30.5267692 C186,32.2927692 187.438,33.7307692 189.204,33.7307692 L214.796,33.7307692 C216.562,33.7307692 218,32.2927692 218,30.5267692 L218,4.93476923 C218,3.16876923 216.562,1.73076923 214.796,1.73076923 Z M190.796,28.9347692 L195.602,28.9347692 L195.602,14.5267692 L190.796,14.5267692 L190.796,28.9347692 Z M193.204,11.8087692 C191.602,11.8087692 190.32,10.5267692 190.32,8.93476923 C190.32,7.33276923 191.602,6.05076923 193.204,6.05076923 C194.796,6.05076923 196.078,7.33276923 196.078,8.93476923 C196.078,10.5267692 194.796,11.8087692 193.204,11.8087692 Z M213.204,28.9347692 L208.398,28.9347692 L208.398,20.4487692 C208.398,19.1687692 207.282,18.0507692 206,18.0507692 C204.718,18.0507692 203.602,19.1687692 203.602,20.4487692 L203.602,28.9347692 L198.796,28.9347692 L198.796,14.5267692 L203.602,14.5267692 L203.602,16.4487692 C204.398,15.1687692 206.156,14.2067692 207.602,14.2067692 C210.64,14.2067692 213.204,16.7707692 213.204,19.8087692 L213.204,28.9347692 Z" id="linkedin"></path>
        </g>
    </g>
</svg>