<?xml version="1.0" encoding="UTF-8"?>
<svg width="32px" height="33px" viewBox="0 0 32 33" version="1.1" xmlns="http://www.w3.org/2000/svg" xmlns:xlink="http://www.w3.org/1999/xlink">
    <g id="linkedin" fill-rule="nonzero">
        <path d="M3,0.5 L29,0.5 C30.7,0.5 32,1.8 32,3.5 L32,29.5 C32,31.2 30.7,32.5 29,32.5 L3,32.5 C1.3,32.5 0,31.2 0,29.5 L0,3.5 C0,1.8 1.3,0.5 3,0.5 Z" class="bg" fill="#FFFFFF"></path>
        <g class="icon" transform="translate(4.000000, 5.000000)" fill="#322965">
            <rect id="Rectangle" x="0.8" y="8.5" width="4.8" height="14.4"></rect>
            <path d="M3.2,0.1 C1.6,0.1 0.3,1.4 0.3,3 C0.3,4.6 1.6,5.9 3.2,5.9 C4.8,5.9 6.1,4.6 6.1,3 C6.1,1.3 4.8,0.1 3.2,0.1 Z" id="Path"></path>
            <path d="M17.6,8.2 C16.2,8.2 14.4,9.2 13.6,10.4 L13.6,8.5 L8.8,8.5 L8.8,22.9 L13.6,22.9 L13.6,14.4 C13.6,13.1 14.7,12 16,12 C17.3,12 18.4,13.1 18.4,14.4 L18.4,22.9 L23.2,22.9 L23.2,13.8 C23.2,10.8 20.6,8.2 17.6,8.2 Z" id="Path_1_"></path>
        </g>
    </g>
</svg>