<?xml version="1.0" encoding="UTF-8"?>
<svg width="32px" height="33px" viewBox="0 0 32 33" version="1.1" xmlns="http://www.w3.org/2000/svg" xmlns:xlink="http://www.w3.org/1999/xlink">
    <g id="reddit" fill-rule="nonzero">
        <path d="M3,0.5 L29,0.5 C30.7,0.5 32,1.8 32,3.5 L32,29.5 C32,31.2 30.7,32.5 29,32.5 L3,32.5 C1.3,32.5 0,31.2 0,29.5 L0,3.5 C0,1.8 1.3,0.5 3,0.5 Z" class="bg" fill="#FFFFFF"></path>
        <path d="M29.5,16.3 C29.5,14.6 28.1,13.2 26.4,13.2 C25.6,13.2 24.9,13.5 24.3,14 C22.3,12.7 19.6,11.8 16.6,11.7 L18.3,6.7 L22.6,7.7 C22.6,9.1 23.7,10.2 25.1,10.2 C26.5,10.2 27.6,9.1 27.6,7.7 C27.6,6.3 26.5,5.2 25.1,5.2 C24.1,5.2 23.2,5.8 22.8,6.7 L18,5.6 L17.6,5.5 L15.6,11.7 C12.5,11.8 9.7,12.6 7.6,13.9 C7,13.4 6.3,13.1 5.6,13.1 C3.9,13.1 2.5,14.5 2.5,16.2 C2.5,17.3 3,18.2 4,18.8 C3.9,19.1 3.9,19.4 3.9,19.7 C3.9,24.1 9.3,27.8 16,27.8 C22.7,27.8 28.1,24.2 28.1,19.7 C28.1,19.4 28.1,19.1 28,18.9 C28.9,18.4 29.5,17.4 29.5,16.3 Z M25.2,6.2 C26,6.2 26.7,6.9 26.7,7.7 C26.7,8.5 26,9.2 25.2,9.2 C24.4,9.2 23.7,8.5 23.7,7.7 C23.7,6.9 24.3,6.2 25.2,6.2 Z M4.2,17.9 C3.8,17.4 3.5,16.9 3.5,16.3 C3.5,15.2 4.4,14.3 5.5,14.3 C5.9,14.3 6.3,14.4 6.7,14.7 C5.5,15.6 4.7,16.7 4.2,17.9 Z M10,18.3 C10,17.3 10.9,16.4 11.9,16.4 C13,16.4 13.8,17.3 13.8,18.3 C13.8,19.3 12.9,20.2 11.9,20.2 C10.9,20.2 10,19.3 10,18.3 Z M20.5,23.6 C19.5,24.5 18.1,24.9 16.1,24.9 C14,24.9 12.6,24.5 11.7,23.6 C11.5,23.4 11.5,23.1 11.7,22.9 C11.9,22.7 12.2,22.7 12.4,22.9 C13.1,23.7 14.3,24 16,24 C17.7,24 18.9,23.6 19.6,22.9 C19.8,22.7 20.2,22.7 20.5,22.9 C20.7,23.1 20.7,23.4 20.5,23.6 Z M20.1,20.2 C19.1,20.2 18.2,19.3 18.2,18.3 C18.2,17.3 19.1,16.4 20.1,16.4 C21.1,16.4 21.9,17.3 22,18.3 C22,19.4 21.1,20.2 20.1,20.2 Z M27.7,17.9 C27.3,16.7 26.4,15.6 25.2,14.6 C25.6,14.3 26,14.2 26.4,14.2 C27.5,14.2 28.4,15.1 28.4,16.2 C28.5,16.9 28.2,17.5 27.7,17.9 Z" class="icon" fill="#322965"></path>
    </g>
</svg>