<?xml version="1.0" encoding="UTF-8"?>
<svg width="32px" height="33px" viewBox="0 0 32 33" version="1.1" xmlns="http://www.w3.org/2000/svg" xmlns:xlink="http://www.w3.org/1999/xlink">
    <g id="slack" fill-rule="nonzero">
        <path d="M3,0.5 L29,0.5 C30.7,0.5 32,1.8 32,3.5 L32,29.5 C32,31.2 30.7,32.5 29,32.5 L3,32.5 C1.3,32.5 0,31.2 0,29.5 L0,3.5 C0,1.8 1.3,0.5 3,0.5 Z" class="bg" fill="#FFFFFF"></path>
        <g class="icon" transform="translate(6.000000, 6.000000)" fill="#322965">
            <path d="M7.3,0.5 C6.2,0.5 5.3,1.4 5.3,2.5 C5.3,3.6 6.2,4.5 7.3,4.5 L9.3,4.5 L9.3,2.5 C9.3,1.4 8.4,0.5 7.3,0.5 Z" id="Path"></path>
            <path d="M7.3,5.8 L2,5.8 C0.9,5.8 0,6.7 0,7.8 C0,8.9 0.9,9.8 2,9.8 L7.3,9.8 C8.4,9.8 9.3,8.9 9.3,7.8 C9.3,6.7 8.4,5.8 7.3,5.8 Z" id="Path"></path>
            <path d="M20,7.8 C20,6.7 19.1,5.8 18,5.8 C16.9,5.8 16,6.7 16,7.8 L16,9.8 L18,9.8 C19.1,9.8 20,8.9 20,7.8 Z" id="Path"></path>
            <path d="M12.7,9.8 C13.8,9.8 14.7,8.9 14.7,7.8 L14.7,2.5 C14.7,1.4 13.8,0.5 12.7,0.5 C11.6,0.5 10.7,1.4 10.7,2.5 L10.7,7.8 C10.7,8.9 11.6,9.8 12.7,9.8 Z" id="Path"></path>
            <path d="M12.7,16.5 L10.7,16.5 L10.7,18.5 C10.7,19.6 11.6,20.5 12.7,20.5 C13.8,20.5 14.7,19.6 14.7,18.5 C14.7,17.4 13.8,16.5 12.7,16.5 Z" id="Path"></path>
            <path d="M18,11.1 L12.7,11.1 C11.6,11.1 10.7,12 10.7,13.1 C10.7,14.2 11.6,15.1 12.7,15.1 L18,15.1 C19.1,15.1 20,14.2 20,13.1 C20,12 19.1,11.1 18,11.1 Z" id="Path"></path>
            <path d="M0,13.1 C0,14.2 0.9,15.1 2,15.1 C3.1,15.1 4,14.2 4,13.1 L4,11.1 L2,11.1 C0.9,11.1 0,12 0,13.1 Z" id="Path"></path>
            <path d="M7.3,11.1 C6.2,11.1 5.3,12 5.3,13.1 L5.3,18.4 C5.3,19.5 6.2,20.4 7.3,20.4 C8.4,20.4 9.3,19.5 9.3,18.4 L9.3,13.1 C9.3,12 8.4,11.1 7.3,11.1 Z" id="Path"></path>
        </g>
    </g>
</svg>