<?xml version="1.0" encoding="UTF-8"?>
<svg width="32px" height="33px" viewBox="0 0 32 33" version="1.1" xmlns="http://www.w3.org/2000/svg" xmlns:xlink="http://www.w3.org/1999/xlink">
    <g id="twitter" fill-rule="nonzero">
        <path d="M3,0.5 L29,0.5 C30.7,0.5 32,1.8 32,3.5 L32,29.5 C32,31.2 30.7,32.5 29,32.5 L3,32.5 C1.3,32.5 0,31.2 0,29.5 L0,3.5 C0,1.8 1.3,0.5 3,0.5 Z" class="bg" fill="#FFFFFF"></path>
        <g class="icon" transform="translate(3.000000, 6.000000)" fill="#322965">
            <path d="M25.4,2.7 C24.4,3.1 23.5,3.4 22.4,3.5 C23.4,2.9 24.3,1.8 24.6,0.6 C23.6,1.2 22.5,1.6 21.3,1.9 C20.3,0.9 19,0.3 17.5,0.3 C14.6,0.3 12.3,2.6 12.3,5.5 C12.3,5.9 12.4,6.3 12.5,6.7 C8.2,6.4 4.5,4.4 1.9,1.2 C1.4,2 1.2,2.9 1.2,3.9 C1.2,5.7 2.1,7.3 3.5,8.2 C2.6,8.2 1.9,8 1.2,7.6 L1.2,7.7 C1.2,10.2 3,12.3 5.4,12.7 C5,12.8 4.5,12.8 4,12.8 C3.7,12.8 3.4,12.8 3,12.7 C3.6,14.8 5.6,16.2 7.8,16.3 C6,17.7 3.8,18.5 1.4,18.5 C1,18.5 0.6,18.5 0.2,18.4 C2.5,19.8 5.2,20.7 8.1,20.7 C17.6,20.7 22.8,12.9 22.8,6 L22.8,5.5 C23.8,4.6 24.6,3.7 25.4,2.7 Z" id="Path"></path>
        </g>
    </g>
</svg>