<?xml version="1.0" encoding="UTF-8"?>
<svg width="32px" height="27px" viewBox="0 0 32 27" version="1.1" xmlns="http://www.w3.org/2000/svg" xmlns:xlink="http://www.w3.org/1999/xlink">
    <g id="yb_twitter" class="yb_social_icon" transform="translate(-191.000000, -7877.000000)" fill="#322965">
        <g transform="translate(67.000000, 7872.000000)">
            <path d="M155.510154,8.70184615 C154.355692,9.21384615 153.105231,9.56830769 151.798154,9.72338462 C153.134769,8.92338462 154.153846,7.65569231 154.643692,6.14430769 C153.393231,6.88523077 152.009846,7.42430769 150.528,7.71230769 C149.356308,6.46184615 147.672615,5.67415385 145.816615,5.67415385 C142.249846,5.67415385 139.355077,8.56892308 139.355077,12.1356923 C139.355077,12.6452308 139.414154,13.1350769 139.52,13.6076923 C134.144,13.3369231 129.385846,10.7695385 126.193231,6.85569231 C125.634462,7.80830769 125.316923,8.92338462 125.316923,10.1073846 C125.316923,12.3473846 126.461538,14.3289231 128.192,15.4809231 C127.133538,15.4538462 126.144,15.156 125.270154,14.6735385 L125.270154,14.7523077 C125.270154,17.8858462 127.500308,20.5 130.451692,21.0981538 C129.912615,21.2409231 129.336615,21.3172308 128.750769,21.3172308 C128.337231,21.3172308 127.933538,21.2803077 127.529846,21.204 C128.356923,23.7713846 130.739692,25.6347692 133.568,25.6938462 C131.355077,27.4243077 128.566154,28.4532308 125.538462,28.4532308 C125.019077,28.4532308 124.509538,28.4236923 124,28.3670769 C126.865231,30.2033846 130.259692,31.2692308 133.912615,31.2692308 C145.796923,31.2692308 152.297846,21.4230769 152.297846,12.8864615 L152.278154,12.0495385 C153.548308,11.1363077 154.643692,10.0015385 155.510154,8.70184615 Z" id="twitter"></path>
        </g>
    </g>
</svg>