<?xml version="1.0" encoding="UTF-8"?>
<svg width="32px" height="33px" viewBox="0 0 32 33" version="1.1" xmlns="http://www.w3.org/2000/svg" xmlns:xlink="http://www.w3.org/1999/xlink">
    <g id="youtube" fill-rule="nonzero">
        <path d="M3,0.5 L29,0.5 C30.7,0.5 32,1.8 32,3.5 L32,29.5 C32,31.2 30.7,32.5 29,32.5 L3,32.5 C1.3,32.5 0,31.2 0,29.5 L0,3.5 C0,1.8 1.3,0.5 3,0.5 Z" class="bg" fill="#FFFFFF"></path>
        <path d="M29.8,21.7 C29.7,22.9 29.5,23.5 29.2,24.4 C28.7,25.6 27.8,26.3 26.7,26.5 C26,26.6 25.3,26.7 24.6,26.7 C22.1,26.8 19.6,26.9 17.3,26.9 C15.2,26.9 13.1,26.9 11,26.8 C9.3,26.7 7.7,26.6 6,26.5 C4.3,26.3 3.2,25.5 2.7,23.9 C2.3,22.7 2.2,21.5 2.2,20.4 C1.9,17 2,13.1 2.2,11.7 C2.4,10.3 2.4,9.6 2.8,8.6 C3.3,7.3 4.2,6.6 5.4,6.3 C6.4,6.1 7.4,6 8.4,6 C10.6,5.9 12.7,5.8 14.9,5.8 C17.3,5.8 19.9,5.8 22.3,5.9 C23.7,5.9 25,6 26.5,6.2 C27.7,6.3 28.5,6.9 29.1,8 C29.6,8.7 29.8,9.6 29.8,10.5 C30.1,14.8 29.9,20.6 29.8,21.7 Z M12.6,21.8 C15.6,20 18.5,18.3 21.5,16.5 C18.5,14.7 15.6,13 12.6,11.2 C12.6,14.7 12.6,18.2 12.6,21.8 Z" class="icon" fill="#322965"></path>
    </g>
</svg>