<?xml version="1.0" encoding="UTF-8"?>
<svg width="48px" height="46px" viewBox="0 0 48 46" version="1.1" xmlns="http://www.w3.org/2000/svg" xmlns:xlink="http://www.w3.org/1999/xlink">
    <!-- Generator: sketchtool 63.1 (101010) - https://sketch.com -->
    <title>C7E0DA1B-7D60-4376-96A7-0A8660C3A045</title>
    <desc>Created with sketchtool.</desc>
    <defs>
        <polygon id="path-1" points="0 0.7266 48 0.7266 48 34.5 0 34.5"></polygon>
        <polygon id="path-3" points="0.3003 0.7266 1.8003 0.7266 1.8003 33 0.3003 33"></polygon>
        <polygon id="path-5" points="0.6006 0.7266 2.1006 0.7266 2.1006 33 0.6006 33"></polygon>
        <polygon id="path-7" points="0.9009 0.7266 2.4009 0.7266 2.4009 33 0.9009 33"></polygon>
        <polygon id="path-9" points="1.2012 0.7266 2.7012 0.7266 2.7012 33 1.2012 33"></polygon>
        <polygon id="path-11" points="0 45 48 45 48 0 0 0"></polygon>
    </defs>
    <g id="yugaweb" stroke="none" stroke-width="1" fill="none" fill-rule="evenodd">
        <g id="04-CAREERS" transform="translate(-1109.000000, -968.000000)">
            <g id="Group" transform="translate(991.000000, 968.500000)">
                <g id="careers-ico3" transform="translate(118.000000, 0.000000)">
                    <g id="Group-3" transform="translate(0.000000, 10.500000)">
                        <mask id="mask-2" fill="white">
                            <use xlink:href="#path-1"></use>
                        </mask>
                        <g id="Clip-2"></g>
                        <path d="M46.5,1.4766 L46.5,29.6946 C46.497,31.5186 45.021,32.9976 43.1955,33.0006 L4.806,33.0006 C2.9805,32.9976 1.503,31.5186 1.5,29.6946 L1.5,0.7266 L0,0.7266 L0,29.6946 C0,32.3481 2.1525,34.5006 4.806,34.5006 L43.1955,34.5006 C45.849,34.5006 48,32.3481 48,29.6946 L48,0.7266 L46.5,0.7266 L46.5,1.4766 Z" id="Fill-1" fill="#322965" mask="url(#mask-2)"></path>
                    </g>
                    <path d="M0.75,20.79495 L47.25,20.79495 C47.664,20.79495 48,20.45895 48,20.04495 C48,19.63095 47.664,19.29495 47.25,19.29495 L0.75,19.29495 C0.336,19.29495 0,19.63095 0,20.04495 C0,20.45895 0.336,20.79495 0.75,20.79495" id="Fill-4" fill="#322965"></path>
                    <path d="M0.75,28.8633 L47.25,28.8633 C47.664,28.8633 48,28.5273 48,28.1133 C48,27.6993 47.664,27.3633 47.25,27.3633 L0.75,27.3633 C0.336,27.3633 0,27.6993 0,28.1133 C0,28.5273 0.336,28.8633 0.75,28.8633" id="Fill-6" fill="#322965"></path>
                    <path d="M0.75,36.93165 L47.25,36.93165 C47.664,36.93165 48,36.59565 48,36.18165 C48,35.76765 47.664,35.43165 47.25,35.43165 L0.75,35.43165 C0.336,35.43165 0,35.76765 0,36.18165 C0,36.59565 0.336,36.93165 0.75,36.93165" id="Fill-8" fill="#322965"></path>
                    <g id="Group-12" transform="translate(9.000000, 12.000000)">
                        <mask id="mask-4" fill="white">
                            <use xlink:href="#path-3"></use>
                        </mask>
                        <g id="Clip-11"></g>
                        <polyline id="Fill-10" fill="#322965" mask="url(#mask-4)" points="0.3003 0.7266 0.3003 33.0006 1.8003 33.0006 1.8003 0.7266"></polyline>
                    </g>
                    <g id="Group-15" transform="translate(18.000000, 12.000000)">
                        <mask id="mask-6" fill="white">
                            <use xlink:href="#path-5"></use>
                        </mask>
                        <g id="Clip-14"></g>
                        <polyline id="Fill-13" fill="#322965" mask="url(#mask-6)" points="0.6006 0.7266 0.6006 33.0006 2.1006 33.0006 2.1006 0.7266"></polyline>
                    </g>
                    <g id="Group-18" transform="translate(27.000000, 12.000000)">
                        <mask id="mask-8" fill="white">
                            <use xlink:href="#path-7"></use>
                        </mask>
                        <g id="Clip-17"></g>
                        <polyline id="Fill-16" fill="#322965" mask="url(#mask-8)" points="0.9009 0.7266 0.9009 33.0006 2.4009 33.0006 2.4009 0.7266"></polyline>
                    </g>
                    <g id="Group-21" transform="translate(36.000000, 12.000000)">
                        <mask id="mask-10" fill="white">
                            <use xlink:href="#path-9"></use>
                        </mask>
                        <g id="Clip-20"></g>
                        <polyline id="Fill-19" fill="#322965" mask="url(#mask-10)" points="1.2012 0.7266 1.2012 33.0006 2.7012 33.0006 2.7012 0.7266"></polyline>
                    </g>
                    <path d="M47.25,11.9766 L0.75,11.9766 L0.75,8.1591 C0.75,5.9196 2.5665,4.1046 4.806,4.1046 L43.1955,4.1046 C45.435,4.1046 47.25,5.9196 47.25,8.1591 L47.25,11.9766 Z" id="Fill-22" fill="#FFF3EF"></path>
                    <path d="M47.25,11.9766 L47.25,11.2266 L1.5,11.2266 L1.5,8.1591 C1.503,6.3336 2.9805,4.8576 4.806,4.8546 L43.1955,4.8546 C45.021,4.8576 46.497,6.3336 46.5,8.1591 L46.5,11.9766 L47.25,11.9766 L47.25,11.2266 L47.25,11.9766 L48,11.9766 L48,8.1591 C48,5.5056 45.849,3.3546 43.1955,3.3546 L4.806,3.3546 C2.1525,3.3546 0,5.5056 0,8.1591 L0,11.9766 C0,12.1746 0.081,12.3681 0.219,12.5076 C0.3585,12.6456 0.552,12.7266 0.75,12.7266 L47.25,12.7266 C47.448,12.7266 47.6415,12.6456 47.781,12.5076 C47.919,12.3681 48,12.1746 48,11.9766 L47.25,11.9766 Z" id="Fill-24" fill="#FF6E42"></path>
                    <path d="M11.02875,0.75 L11.02875,7.104 C11.02875,7.5195 11.36475,7.854 11.77875,7.854 C12.19275,7.854 12.52875,7.5195 12.52875,7.104 L12.52875,0.75 C12.52875,0.336 12.19275,0 11.77875,0 C11.36475,0 11.02875,0.336 11.02875,0.75" id="Fill-26" fill="#322965"></path>
                    <path d="M35.02875,0.75 L35.02875,7.104 C35.02875,7.5195 35.36475,7.854 35.77875,7.854 C36.19275,7.854 36.52875,7.5195 36.52875,7.104 L36.52875,0.75 C36.52875,0.336 36.19275,0 35.77875,0 C35.36475,0 35.02875,0.336 35.02875,0.75" id="Fill-28" fill="#322965"></path>
                    <mask id="mask-12" fill="white">
                        <use xlink:href="#path-11"></use>
                    </mask>
                    <g id="Clip-31"></g>
                    <polygon id="Fill-30" fill="#FFF3EF" mask="url(#mask-12)" points="10.05 28.113 19.35 28.113 19.35 20.0445 10.05 20.0445"></polygon>
                    <path d="M19.3506,28.1133 L19.3506,27.3633 L10.8006,27.3633 L10.8006,20.7948 L18.6006,20.7948 L18.6006,28.1133 L19.3506,28.1133 L19.3506,27.3633 L19.3506,28.1133 L20.1006,28.1133 L20.1006,20.0448 C20.1006,19.8468 20.0196,19.6533 19.8816,19.5153 C19.7421,19.3758 19.5486,19.2948 19.3506,19.2948 L10.0506,19.2948 C9.8526,19.2948 9.6591,19.3758 9.5196,19.5153 C9.3816,19.6533 9.3006,19.8468 9.3006,20.0448 L9.3006,28.1133 C9.3006,28.3113 9.3816,28.5048 9.5196,28.6443 C9.6591,28.7823 9.8526,28.8633 10.0506,28.8633 L19.3506,28.8633 C19.5486,28.8633 19.7421,28.7823 19.8816,28.6443 C20.0196,28.5048 20.1006,28.3113 20.1006,28.1133 L19.3506,28.1133 Z" id="Fill-32" fill="#FF6E42" mask="url(#mask-12)"></path>
                    <polygon id="Fill-33" fill="#FFF3EF" mask="url(#mask-12)" points="28.6515 36.1815 37.9515 36.1815 37.9515 28.113 28.6515 28.113"></polygon>
                    <path d="M37.9512,36.18165 L37.9512,35.43165 L29.4012,35.43165 L29.4012,28.86315 L37.2012,28.86315 L37.2012,36.18165 L37.9512,36.18165 L37.9512,35.43165 L37.9512,36.18165 L38.7012,36.18165 L38.7012,28.11315 C38.7012,27.91515 38.6202,27.72165 38.4822,27.58365 C38.3427,27.44415 38.1492,27.36315 37.9512,27.36315 L28.6512,27.36315 C28.4532,27.36315 28.2597,27.44415 28.1202,27.58365 C27.9822,27.72165 27.9012,27.91515 27.9012,28.11315 L27.9012,36.18165 C27.9012,36.37965 27.9822,36.57315 28.1202,36.71265 C28.2597,36.85065 28.4532,36.93165 28.6512,36.93165 L37.9512,36.93165 C38.1492,36.93165 38.3427,36.85065 38.4822,36.71265 C38.6202,36.57315 38.7012,36.37965 38.7012,36.18165 L37.9512,36.18165 Z" id="Fill-34" fill="#FF6E42" mask="url(#mask-12)"></path>
                    <path d="M12.08055,22.7988 L16.33605,26.4918 C16.64955,26.7633 17.12205,26.7288 17.39505,26.4168 C17.66655,26.1033 17.63205,25.6308 17.32005,25.3578 L13.06455,21.6648 C12.75105,21.3933 12.27855,21.4278 12.00555,21.7398 C11.73555,22.0533 11.76855,22.5258 12.08055,22.7988" id="Fill-35" fill="#FF6E42" mask="url(#mask-12)"></path>
                    <path d="M16.3359,21.6651 L12.0804,25.3581 C11.7684,25.6311 11.7354,26.1036 12.0054,26.4171 C12.2784,26.7291 12.7509,26.7621 13.0644,26.4921 L17.3199,22.7991 C17.6319,22.5261 17.6664,22.0536 17.3949,21.7401 C17.1219,21.4281 16.6494,21.3936 16.3359,21.6651" id="Fill-36" fill="#FF6E42" mask="url(#mask-12)"></path>
                    <path d="M30.67965,30.86715 L34.93665,34.56015 C35.25015,34.83165 35.72265,34.79715 35.99565,34.48365 C36.26715,34.17165 36.23265,33.69915 35.91915,33.42615 L31.66215,29.73315 C31.35015,29.46165 30.87765,29.49615 30.60465,29.80815 C30.33465,30.12165 30.36765,30.59415 30.67965,30.86715" id="Fill-37" fill="#FF6E42" mask="url(#mask-12)"></path>
                    <path d="M34.9365,29.73345 L30.6795,33.42645 C30.3675,33.69945 30.3345,34.17195 30.6045,34.48395 C30.8775,34.79745 31.35,34.83045 31.662,34.56045 L35.919,30.86745 C36.2325,30.59445 36.267,30.12195 35.9955,29.80845 C35.7225,29.49645 35.25,29.46195 34.9365,29.73345" id="Fill-38" fill="#FF6E42" mask="url(#mask-12)"></path>
                </g>
            </g>
        </g>
    </g>
</svg>