<?xml version="1.0" encoding="UTF-8"?>
<svg width="44px" height="48px" viewBox="0 0 44 48" version="1.1" xmlns="http://www.w3.org/2000/svg" xmlns:xlink="http://www.w3.org/1999/xlink">
    <!-- Generator: sketchtool 63.1 (101010) - https://sketch.com -->
    <title>423A7AFC-1B76-4B6F-82E3-1D61E898DFB4</title>
    <desc>Created with sketchtool.</desc>
    <defs>
        <polygon id="path-1" points="1.08863454 0.7287 36.363 0.7287 36.363 15.9627 1.08863454 15.9627"></polygon>
        <polygon id="path-3" points="0 0.4845 10.0884 0.4845 10.0884 19.5 0 19.5"></polygon>
    </defs>
    <g id="yugaweb" stroke="none" stroke-width="1" fill="none" fill-rule="evenodd">
        <g id="04-CAREERS" transform="translate(-445.000000, -967.000000)">
            <g id="careers-ico1" transform="translate(445.000000, 967.000000)">
                <path d="M34.3902,19.5015 C34.0632,15.8205 31.4622,12.7305 27.8517,12.7305 C25.1712,12.7305 22.8642,14.4015 21.8577,16.7925 C20.8482,14.4015 18.6927,12.729 16.0107,12.729 C12.4002,12.729 9.7992,15.819 9.4722,19.5015 C9.4722,19.5015 9.2967,20.415 9.6837,22.0605 C10.2132,24.3015 11.4567,26.292 13.1322,27.8115 L15.8757,30.3 C16.0242,30.294 16.1652,30.2715 16.3152,30.2715 C19.2387,30.2715 22.7157,31.29 25.1367,32.802 L30.7302,27.8115 C32.4057,26.292 33.6492,24.3015 34.1772,22.0605 C34.5672,20.415 34.3902,19.5015 34.3902,19.5015" id="Fill-1" fill="#FFF3EF"></path>
                <path d="M34.3902,19.5015 L35.1372,19.4355 C34.9587,17.439 34.1697,15.594 32.9022,14.226 C31.6407,12.858 29.8752,11.9775 27.8517,11.9805 C25.3562417,11.9817477 23.1576186,13.2741249 21.847214,15.2351681 L21.8747133,15.2293746 C20.6054203,13.2840719 18.5073688,11.9752324 16.0107,11.9789598 C13.9857,11.976 12.2217,12.8565 10.9602,14.2245 C9.6942,15.594 8.9037,17.439 8.7252,19.4355 L9.4722,19.5015 L8.7342,19.359 C8.7282,19.404 8.6817,19.6575 8.6817,20.1 C8.6817,20.592 8.7357,21.312 8.9547,22.233 C9.5217,24.6345 10.8492,26.754 12.6282,28.3665 L15.3717,30.855 C15.5187,30.9885 15.7092,31.0575 15.9057,31.05 C16.1142,31.038 16.2432,31.02 16.3152,31.0215 C19.0677,31.014 22.4637,32.01 24.7392,33.438 C25.0227,33.615 25.3872,33.5835 25.6362,33.3615 L31.2297,28.371 L31.2342,28.3665 C33.0132,26.754 34.3407,24.6345 34.9077,22.233 C35.1252,21.315 35.1792,20.595 35.1792,20.103 C35.1792,19.6575 35.1342,19.4025 35.1267,19.359 L34.3902,19.5015 L35.1372,19.4355 L34.3902,19.5015 L33.6537,19.644 L33.9597,19.5855 L33.6522,19.638 L33.6537,19.644 L33.9597,19.5855 L33.6522,19.638 C33.6537,19.644 33.6792,19.803 33.6792,20.103 C33.6792,20.4825 33.6387,21.084 33.4482,21.888 C32.9577,23.97 31.7967,25.8315 30.2262,27.2565 L30.2307,27.252 L24.6372,32.2425 L25.1367,32.802 L25.5342,32.166 C22.9677,30.5715 19.4112,29.529 16.3152,29.5215 C16.0857,29.523 15.9327,29.55 15.8472,29.55 L15.8757,30.3 L16.3797,29.745 L13.6362,27.2565 C12.0642,25.8315 10.9047,23.97 10.4142,21.888 C10.2252,21.0825 10.1817,20.4795 10.1817,20.1 C10.1817,19.929 10.1907,19.8045 10.1982,19.7265 L10.2072,19.6485 L10.2102,19.6365 L9.9027,19.584 L10.2087,19.644 L10.2102,19.6365 L9.9027,19.584 L10.2087,19.644 L10.2192,19.5675 C10.3677,17.8815 11.0427,16.3425 12.0597,15.2445 C13.0827,14.1465 14.4237,13.482 16.0107,13.479 C18.3657,13.4835 20.2452,14.925 21.1662,17.085 C21.2832,17.361 21.5562,17.5425 21.8577,17.5425 C22.1592,17.5425 22.4307,17.361 22.5477,17.085 C23.4492,14.952 25.4892,13.479 27.8517,13.4805 C29.4372,13.4835 30.7797,14.148 31.8012,15.246 C32.8212,16.344 33.4947,17.883 33.6432,19.5675 L33.6537,19.644 L34.3902,19.5015 Z" id="Fill-3" fill="#FF6E42"></path>
                <path d="M9.76755,33.04395 L9.79155,33.02745 C10.08105,32.82495 12.93405,31.01295 16.31505,31.02195 C18.70005,31.01745 21.57405,31.75695 23.77905,32.88795 C24.88155,33.45195 25.81605,34.11345 26.44305,34.78845 C27.07605,35.46645 27.37755,36.12495 27.37455,36.71295 C27.37305,36.85845 27.34605,36.89445 27.33255,36.91845 L27.17505,37.01295 L27.06405,37.03545 L27.04005,37.03695 L27.05055,37.27245 L27.05055,37.03695 L27.04005,37.03695 L27.05055,37.27245 L27.05055,37.03695 L18.46305,37.03695 C18.04905,37.03695 17.71305,37.37295 17.71305,37.78695 C17.71305,38.20095 18.04905,38.53695 18.46305,38.53695 L27.05055,38.53695 C27.11355,38.53245 27.47505,38.54145 27.92355,38.32395 C28.14555,38.21295 28.39455,38.03145 28.58055,37.75095 C28.76955,37.47045 28.87605,37.10595 28.8745656,36.71295 C28.87155,35.60745 28.33005,34.61145 27.54105,33.76395 C26.34705,32.49195 24.54555,31.45995 22.54005,30.71295 C20.53455,29.97045 18.32805,29.52345 16.31505,29.52195 C12.14955,29.53545 8.97255,31.77945 8.90955,31.81395 C8.56905,32.05095 8.48655,32.51745 8.72355,32.85795 C8.96055,33.19845 9.42705,33.28095 9.76755,33.04395" id="Fill-5" fill="#322965"></path>
                <g id="Group-9" transform="translate(7.500000, 31.500000)">
                    <mask id="mask-2" fill="white">
                        <use xlink:href="#path-1"></use>
                    </mask>
                    <g id="Clip-8"></g>
                    <path d="M1.71675,13.7622 C1.71975,13.7622 5.07225,14.3097 8.69775,14.8587 C10.51125,15.1332 12.39375,15.4077 13.96275,15.6132 C15.54075,15.8202 16.76325,15.9597 17.40375,15.9627 C17.87475,15.9522 18.35025,15.8067 19.00725,15.5877 C21.25725,14.8092 25.22475,12.9252 28.73175,11.1102 C30.48225,10.2042 32.10975,9.3177 33.33675,8.5962 C33.95175,8.2332 34.46475,7.9152 34.85475,7.6452 C35.04975,7.5102 35.21325,7.3887 35.35425,7.2702 C35.49375,7.1382 35.60925,7.0617 35.74725,6.7977 C36.12075,6.0057 36.36075,4.9812 36.36375,3.9072 C36.36225,3.3837 36.30375,2.8497 36.16125,2.3307 C36.01125,1.7592 35.61075,1.2927 35.13225,1.0512 C34.65675,0.8037 34.13325,0.7302 33.59625,0.7287 C32.07825,0.7362 30.29325,1.3422 28.81875,1.9227 C27.35325,2.5092 26.23575,3.0897 26.22075,3.0957 L26.56575,3.7617 L26.38725,3.0342 L20.44575,4.4847 C20.04525,4.5837 19.79775,4.9887 19.89675,5.3922 C19.99575,5.7942 20.40075,6.0402 20.80425,5.9412 L26.74575,4.4892 L26.91225,4.4277 L27.09525,4.3347 C27.51975,4.1232 28.63575,3.5877 29.91075,3.1092 C31.17975,2.6292 32.63025,2.2212 33.59625,2.2287 C33.98475,2.2272 34.27725,2.2932 34.43475,2.3802 C34.59525,2.4747 34.65075,2.5332 34.71375,2.7297 C34.81425,3.0942 34.86375,3.4977 34.86375,3.9072 C34.86525,4.7427 34.65675,5.6052 34.39125,6.1572 L34.80675,6.3537 L34.44075,6.0747 L34.39125,6.1572 L34.80675,6.3537 L34.44075,6.0747 L34.57425,6.1767 L34.44675,6.0657 L34.44075,6.0747 L34.57425,6.1767 L34.44675,6.0657 C34.44825,6.0672 34.35375,6.1587 34.20825,6.2637 C33.65025,6.6807 32.38425,7.4382 30.82125,8.2977 C28.46925,9.5937 25.40325,11.1522 22.75575,12.3822 C21.43275,12.9957 20.21175,13.5297 19.24725,13.9017 C18.76275,14.0892 18.34425,14.2347 18.01575,14.3307 C17.69475,14.4282 17.44275,14.4672 17.40375,14.4627 C16.96275,14.4657 15.69975,14.3307 14.15775,14.1267 C11.82825,13.8207 8.77575,13.3587 6.30975,12.9747 C3.84225,12.5907 1.96425,12.2832 1.95975,12.2832 C1.55025,12.2157 1.16475,12.4917 1.09875,12.9012 C1.03125,13.3107 1.30875,13.6962 1.71675,13.7622" id="Fill-7" fill="#322965" mask="url(#mask-2)"></path>
                </g>
                <path d="M6.3384,47.25 L3.7494,47.25 C2.0994,47.25 0.7494,45.9 0.7494,44.25 L0.7494,32.7345 C0.7494,31.086 2.0994,29.7345 3.7494,29.7345 L6.3384,29.7345 C7.9884,29.7345 9.3384,31.086 9.3384,32.7345 L9.3384,44.25 C9.3384,45.9 7.9884,47.25 6.3384,47.25" id="Fill-10" fill="#FFF3EF"></path>
                <g id="Group-14" transform="translate(0.000000, 28.500000)">
                    <mask id="mask-4" fill="white">
                        <use xlink:href="#path-3"></use>
                    </mask>
                    <g id="Clip-13"></g>
                    <path d="M6.3384,18.75 L6.3384,18 L3.7494,18 C2.5164,17.997 1.5024,16.9815 1.4994,15.75 L1.4994,4.2345 C1.5024,3.003 2.5164,1.9875 3.7494,1.9845 L6.3384,1.9845 C7.5699,1.9875 8.5854,3.003 8.5884,4.2345 L8.5884,15.75 C8.5854,16.9815 7.5699,17.997 6.3384,18 L6.3384,18.75 L6.3384,19.5 C8.4054,19.497 10.0854,17.817 10.0884,15.75 L10.0884,4.2345 C10.0854,2.1675 8.4054,0.4875 6.3384,0.4845 L3.7494,0.4845 C1.6824,0.4875 0.0024,2.1675 -0.0006,4.2345 L-0.0006,15.75 C0.0024,17.817 1.6824,19.497 3.7494,19.5 L6.3384,19.5 L6.3384,18.75 Z" id="Fill-12" fill="#FF6E42" mask="url(#mask-4)"></path>
                </g>
                <path d="M22.68165,7.4913 L22.68165,0.7503 C22.68165,0.3348 22.34565,0.0003 21.93165,0.0003 C21.51765,0.0003 21.18165,0.3348 21.18165,0.7503 L21.18165,7.4913 C21.18165,7.9053 21.51765,8.2413 21.93165,8.2413 C22.34565,8.2413 22.68165,7.9053 22.68165,7.4913" id="Fill-15" fill="#FF6E42"></path>
                <path d="M34.2891,10.28475 L38.6226,5.12025 C38.8881,4.80225 38.8476,4.32825 38.5296,4.06425 C38.2116,3.79725 37.7391,3.83775 37.4736,4.15575 L33.1401,9.32025 C32.8746,9.63825 32.9151,10.11225 33.2331,10.37775 C33.5511,10.64325 34.0236,10.60275 34.2891,10.28475" id="Fill-17" fill="#FF6E42"></path>
                <path d="M10.3155,9.7647 L6.945,3.9252 C6.738,3.5667 6.2805,3.4437 5.9205,3.6522 C5.562,3.8577 5.439,4.3167 5.6475,4.6752 L9.018,10.5147 C9.2235,10.8732 9.6825,10.9962 10.041,10.7892 C10.401,10.5822 10.524,10.1232 10.3155,9.7647" id="Fill-19" fill="#FF6E42"></path>
            </g>
        </g>
    </g>
</svg>