<?xml version="1.0" encoding="UTF-8"?>
<svg width="48px" height="44px" viewBox="0 0 48 44" version="1.1" xmlns="http://www.w3.org/2000/svg" xmlns:xlink="http://www.w3.org/1999/xlink">
    <!-- Generator: sketchtool 63.1 (101010) - https://sketch.com -->
    <title>2C60A439-048D-47F9-A842-CA1D5FEA7180</title>
    <desc>Created with sketchtool.</desc>
    <defs>
        <polygon id="path-1" points="0.121224356 1.01777436 2.4785955 1.01777436 2.4785955 6 0.121224356 6"></polygon>
        <polygon id="path-3" points="0.90165 0.0555 15.92265 0.0555 15.92265 24.1197 0.90165 24.1197"></polygon>
    </defs>
    <g id="yugaweb" stroke="none" stroke-width="1" fill="none" fill-rule="evenodd">
        <g id="04-CAREERS" transform="translate(-776.000000, -1171.000000)">
            <g id="careers-ico5" transform="translate(776.000000, 1171.000000)">
                <g id="Group-3" transform="translate(10.500000, 37.944500)">
                    <mask id="mask-2" fill="white">
                        <use xlink:href="#path-1"></use>
                    </mask>
                    <g id="Clip-2"></g>
                    <path d="M1.0002,1.58925 L0.1437,5.07075 C0.0432,5.47275 0.2892,5.87925 0.6927,5.97825 C1.0932,6.07725 1.5012,5.83125 1.5987,5.42925 L2.4567,1.94625 C2.5557,1.54575 2.3097,1.13775 1.9062,1.04025 C1.5057,0.93975 1.0977,1.18575 1.0002,1.58925" id="Fill-1" fill="#FF6E42" mask="url(#mask-2)"></path>
                </g>
                <path d="M5.09745,28.1885 L42.90345,28.1885 C43.31745,28.1885 43.65345,27.8525 43.65345,27.4385 C43.65345,27.0245 43.31745,26.6885 42.90345,26.6885 L5.09745,26.6885 C4.68345,26.6885 4.34745,27.0245 4.34745,27.4385 C4.34745,27.8525 4.68345,28.1885 5.09745,28.1885" id="Fill-4" fill="#322965"></path>
                <path d="M46.3096939,42.44435 L1.7337,42.44435 L8.8212,16.75835 L39.1782,16.75835 L46.3096939,42.44435 L47.9727,42.99485 L40.4727,15.80885 C40.3827,15.48335 40.0872,15.25835 39.7497,15.25835 L8.2497,15.25835 C7.9122,15.25835 7.6167,15.48335 7.5267,15.80885 L0.0267,42.99485 C-0.0348,43.21985 0.0117,43.46435 0.1542,43.64885 C0.2937,43.83485 0.5172,43.94435 0.7497,43.94435 L47.2497,43.94435 C47.4822,43.94435 47.7057,43.83485 47.8452,43.64885 C47.9877,43.46435 48.0342,43.21985 47.9727,42.99485 L46.3096939,42.44435 Z" id="Fill-6" fill="#322965"></path>
                <path d="M32.4123,23.0645 L16.1358,23.0645 C15.7923,23.0645 15.4908,23.3015 15.4083,23.636 L11.5008,39.533 C11.4003,39.935 11.6463,40.343 12.0498,40.4405 C12.4503,40.5395 12.8583,40.2935 12.9558,39.8915 L16.7238,24.5645 L32.4123,24.5645 C32.8263,24.5645 33.1623,24.2285 33.1623,23.8145 C33.1623,23.4005 32.8263,23.0645 32.4123,23.0645" id="Fill-8" fill="#FF6E42"></path>
                <path d="M6.9153,21.59675 L41.0853,21.59675 C41.5008,21.59675 41.8353,21.26075 41.8353,20.84675 C41.8353,20.43275 41.5008,20.09675 41.0853,20.09675 L6.9153,20.09675 C6.5013,20.09675 6.1653,20.43275 6.1653,20.84675 C6.1653,21.26075 6.5013,21.59675 6.9153,21.59675" id="Fill-10" fill="#322965"></path>
                <path d="M39.17265,8.0102 C39.17265,4.2782 36.14565,1.2497 32.41215,1.2497 C28.67865,1.2497 25.65165,4.2782 25.65165,8.0102 C25.65165,9.1082 25.92015,10.1417 26.38515,11.0582 L26.37765,11.0582 L32.41215,23.8142 L38.48865,10.9772 L38.47965,10.9772 C38.91915,10.0802 39.17265,9.0767 39.17265,8.0102" id="Fill-12" fill="#FFF3EF"></path>
                <g id="Group-16" transform="translate(24.000000, 0.444500)">
                    <mask id="mask-4" fill="white">
                        <use xlink:href="#path-3"></use>
                    </mask>
                    <g id="Clip-15"></g>
                    <path d="M15.17265,7.5657 L15.92265,7.5657 C15.92265,3.4182 12.56115,0.0552 8.41215,0.0552 C4.26465,0.0552 0.90165,3.4182 0.90165,7.5657 C0.90165,8.7867 1.20165,9.9372 1.71465,10.9527 L1.69965,10.9347 L7.73415,23.6907 C7.85865,23.9532 8.12265,24.1197 8.41215,24.1197 C8.70165,24.1197 8.96565,23.9532 9.09015,23.6907 L15.16665,10.8522 C15.23965,10.6972 15.23515,10.7002 15.15315,10.8612 C15.64065,9.8697 15.92265,8.7507 15.92265,7.5657 L15.17265,7.5657 L14.42265,7.5657 C14.42265,8.5137 14.19915,9.4017 13.80615,10.2027 C13.73115,10.3567 13.73265,10.3597 13.81065,10.2117 L8.41215,21.6162 L3.05565,10.2927 L3.05415,10.2762 C2.61915,9.1192 2.40165,8.2157 2.40165,7.5657 C2.40165,5.9052 3.07365,4.4067 4.16265,3.3162 C5.25315,2.2272 6.75015,1.5552 8.41215,1.5552 C10.07565,1.5552 11.57265,2.2272 12.66165,3.3162 C13.75215,4.4067 14.42265,5.9052 14.42265,7.5657 L15.17265,7.5657 Z" id="Fill-14" fill="#FF6E42" mask="url(#mask-4)"></path>
                </g>
                <path d="M16.25955,33.3974 C16.25955,34.9274 15.02055,36.1679 13.48905,36.1679 C11.95905,36.1679 10.71855,34.9274 10.71855,33.3974 C10.71855,31.8659 11.95905,30.6254 13.48905,30.6254 C15.02055,30.6254 16.25955,31.8659 16.25955,33.3974" id="Fill-17" fill="#FFF3EF"></path>
                <path d="M16.25955,33.3974 L15.50955,33.3974 C15.50805,34.5119 14.60505,35.4164 13.48905,35.4179 C12.37305,35.4164 11.47005,34.5119 11.46855,33.3974 C11.47005,32.2814 12.37305,31.3769 13.48905,31.3754 C14.60505,31.3769 15.50805,32.2814 15.50955,33.3974 L16.25955,33.3974 L17.00955,33.3974 C17.00955,31.4519 15.43455,29.8754 13.48905,29.8754 C11.54355,29.8754 9.96855,31.4519 9.96855,33.3974 C9.96855,35.3414 11.54355,36.9179 13.48905,36.9179 C15.43455,36.9179 17.00955,35.3414 17.00955,33.3974 L16.25955,33.3974 Z" id="Fill-19" fill="#FF6E42"></path>
            </g>
        </g>
    </g>
</svg>