<?xml version="1.0" encoding="UTF-8"?>
<svg width="48px" height="34px" viewBox="0 0 48 34" version="1.1" xmlns="http://www.w3.org/2000/svg" xmlns:xlink="http://www.w3.org/1999/xlink">
    <!-- Generator: sketchtool 63.1 (101010) - https://sketch.com -->
    <title>B2D7984A-4F06-4B8C-A462-D6474D1DE383</title>
    <desc>Created with sketchtool.</desc>
    <defs>
        <polygon id="path-1" points="0.98025 0.186 6.92475 0.186 6.92475 27.1224 0.98025 27.1224"></polygon>
    </defs>
    <g id="yugaweb" stroke="none" stroke-width="1" fill="none" fill-rule="evenodd">
        <g id="04-CAREERS" transform="translate(-776.000000, -975.000000)">
            <g id="careers-ico2" transform="translate(776.000000, 973.750000)">
                <path d="M6.33735,20.3745 L12.37785,14.3325 L15.39285,11.3175 C16.53285,10.179 17.32035,9.6615 18.03735,9.4065 C18.75285,9.1515 19.49085,9.1275 20.59035,9.129 L20.92635,9.129 L28.34985,9.129 C28.76385,9.129 29.09985,8.793 29.09985,8.379 C29.09985,7.965 28.76385,7.629 28.34985,7.629 L20.92635,7.629 L20.59035,7.629 C19.49385,7.6305 18.54585,7.635 17.53335,7.9935 C16.52385,8.355 15.54735,9.042 14.33235,10.257 L11.31735,13.272 L5.27685,19.314 C4.98435,19.6065 4.98435,20.082 5.27685,20.3745 C5.56935,20.667 6.04485,20.667 6.33735,20.3745" id="Fill-1" fill="#322965"></path>
                <path d="M15.1878,29.11965 L17.3298,26.97615 L17.5563,26.97615 L20.4663,26.97615 C21.4068,26.98965 22.2738,26.65515 23.1348,25.97115 C24.0108,25.28865 24.9963,24.26415 26.5143,22.68465 L25.9728,22.16415 L26.5038,22.69515 L27.8913,21.30765 C28.1838,21.01515 28.1838,20.53965 27.8913,20.24715 C27.5973,19.95465 27.1233,19.95465 26.8308,20.24715 L25.4433,21.63465 L25.4328,21.64515 C23.9193,23.22165 22.9398,24.22665 22.2153,24.78615 C21.4743,25.34415 21.1023,25.46265 20.4663,25.47615 L17.5563,25.47615 L17.0193,25.47615 C16.8183,25.47615 16.6308,25.55415 16.4883,25.69665 L14.1273,28.05915 C13.8348,28.35165 13.8348,28.82715 14.1273,29.11965 C14.4198,29.41215 14.8953,29.41215 15.1878,29.11965" id="Fill-3" fill="#322965"></path>
                <g id="Group-7" transform="translate(33.000000, 1.314000)">
                    <mask id="mask-2" fill="white">
                        <use xlink:href="#path-1"></use>
                    </mask>
                    <g id="Clip-6"></g>
                    <path d="M5.42475,21.5859 L5.42475,25.3149 C5.42475,25.4859 5.28675,25.6224 5.11725,25.6224 L2.78775,25.6224 C2.61825,25.6224 2.48025,25.4859 2.48025,25.3149 L2.48025,1.9929 C2.48025,1.8249 2.61975,1.6854 2.78775,1.6854 L5.11725,1.6854 C5.28525,1.6854 5.42475,1.8249 5.42475,1.9929 L5.42475,5.7234 C5.42475,6.1374 5.76075,6.4734 6.17475,6.4734 C6.58875,6.4734 6.92475,6.1374 6.92475,5.7234 L6.92475,1.9929 C6.92325,0.9954 6.11775,0.1869 5.11725,0.1854 L2.78775,0.1854 C1.78725,0.1869 0.98025,0.9954 0.98025,1.9929 L0.98025,25.3149 C0.98025,26.3139 1.78875,27.1224 2.78775,27.1224 L5.11725,27.1224 C6.11625,27.1224 6.92475,26.3139 6.92475,25.3149 L6.92475,21.5859 C6.92475,21.1719 6.58875,20.8359 6.17475,20.8359 C5.76075,20.8359 5.42475,21.1719 5.42475,21.5859" id="Fill-5" fill="#322965" mask="url(#mask-2)"></path>
                </g>
                <path d="M39.1761,10.3023 C37.7331,8.3238 35.3976,7.0368 32.7621,7.0368 C28.6551,7.0368 25.3071,10.1118 24.8991,14.1108 L28.1616,14.1108 C28.8411,14.1108 29.8281,14.7408 29.8281,16.5078 C29.8281,18.2718 28.7871,18.9273 27.4326,18.9273 L25.8876,18.9273 C27.2586,21.3018 29.8236,22.8993 32.7621,22.8993 C35.3976,22.8993 37.7331,21.6153 39.1761,19.6368 L39.1746,14.9688 L39.1761,10.3023 Z" id="Fill-8" fill="#FFF3EF"></path>
                <path d="M39.1761,10.3023 L39.7821,9.8598 C38.2056,7.6968 35.6451,6.2867995 32.7621,6.2867995 C28.2726,6.2853 24.5976,9.6558 24.1536,14.0343 C24.1326,14.2458 24.2016,14.4573 24.3426,14.6133 C24.4851,14.7708 24.6891,14.8608 24.8991,14.8608 L26.4081,14.8608 L28.1616,14.8608 C28.2741,14.8593 28.4946,14.9208 28.6851,15.1413 C28.8771,15.3603 29.0751,15.7608 29.0781,16.5078 C29.0706,17.2518 28.8771,17.6013 28.6386,17.8203 C28.3956,18.0393 27.9966,18.1773 27.4326,18.1773 L25.8876,18.1773 C25.6191,18.1773 25.3716,18.3213 25.2381,18.5523 C25.1031,18.7833 25.1031,19.0713 25.2381,19.3023 C26.7366,21.8988 29.5461,23.6493 32.7621,23.6493 C35.6451,23.6493 38.2056,22.2423 39.7821,20.0793 C39.8766,19.9488 39.9261,19.7958 39.9261,19.6368 L39.9246,14.9688 L39.9261,10.3023 C39.9261,10.1433 39.8766,9.9903 39.7821,9.8598 L39.1761,10.3023 L38.4261,10.3023 L38.4246,14.9688 L38.4261,19.6368 L39.1761,19.6368 L38.5701,19.1943 C37.2621,20.9883 35.1501,22.1493 32.7621,22.1493 C30.0996,22.1493 27.7791,20.7048 26.5356,18.5523 L25.8876,18.9273 L25.8876,19.6773 L27.4326,19.6773 C28.2231,19.6773 29.0211,19.4868 29.6391,18.9378 C30.2586,18.3888 30.5841,17.5278 30.5781,16.5078 C30.5811,15.4878 30.2856,14.6898 29.8146,14.1513 C29.3406,13.6158 28.7286,13.3623 28.1616,13.3608 L24.8991,13.3608 L24.8991,14.1108 L25.6446,14.1873 C26.0166,10.5678 29.0376,7.7883 32.7621,7.7867995 C35.1501,7.7867995 37.2621,8.9508 38.5701,10.7448 L39.1761,10.3023 L38.4261,10.3023 L39.1761,10.3023 Z" id="Fill-10" fill="#FF6E42"></path>
                <path d="M42.4062,15.71925 L47.2572,15.71925 C47.6727,15.71925 48.0072,15.38325 48.0072,14.96925 C48.0072,14.55525 47.6727,14.21925 47.2572,14.21925 L42.4062,14.21925 C41.9922,14.21925 41.6562,14.55525 41.6562,14.96925 C41.6562,15.38325 41.9922,15.71925 42.4062,15.71925" id="Fill-12" fill="#FF6E42"></path>
                <path d="M42.7812,11.39355 L46.6257,9.17355 C46.9857,8.96655 47.1087,8.50755 46.9002,8.14905 C46.6932,7.79055 46.2357,7.66755 45.8757,7.87455 L42.0312,10.09605 C41.6727,10.30155 41.5497,10.76055 41.7567,11.11905 C41.9637,11.47905 42.4227,11.60205 42.7812,11.39355" id="Fill-14" fill="#FF6E42"></path>
                <path d="M42.0312,19.8429 L45.8757,22.0614 C46.2357,22.2699 46.6932,22.1469 46.9002,21.7884 C47.1087,21.4299 46.9857,20.9709 46.6257,20.7639 L42.7812,18.5454 C42.4227,18.3369 41.9637,18.4599 41.7567,18.8184 C41.5497,19.1784 41.6727,19.6359 42.0312,19.8429" id="Fill-16" fill="#FF6E42"></path>
                <path d="M18.5409,14.86095 L23.0964,14.86095 L28.1619,14.86095 C28.2744,14.85945 28.4949,14.92095 28.6854,15.14145 C28.8774,15.36045 29.0739,15.76095 29.0769,16.50795 C29.0709,17.25195 28.8774,17.60145 28.6374,17.82045 C28.3959,18.03945 27.9969,18.17745 27.4329,18.17745 L23.3274,18.17745 C23.1249,18.17745 22.9284,18.26145 22.7874,18.40695 C21.2739,19.98345 20.2959,20.98845 19.5699,21.54795 C18.8289,22.10445 18.4569,22.22445 17.8209,22.23795 L14.9094,22.23795 C14.4954,22.23795 14.1594,22.57395 14.1594,22.98795 C14.1594,23.40195 14.4954,23.73795 14.9094,23.73795 L17.8209,23.73795 C18.7599,23.75145 19.6284,23.41695 20.4894,22.73295 C21.3654,22.05195 22.3509,21.02445 23.8689,19.44795 L23.3274,18.92745 L23.3274,19.67745 L27.4329,19.67745 C28.2234,19.67745 29.0214,19.48695 29.6379,18.93795 C30.2589,18.38895 30.5844,17.52795 30.5770267,16.50795 C30.5799,15.48795 30.2859,14.68995 29.8149,14.15145 C29.3409,13.61595 28.7289,13.36245 28.1619,13.36095 L18.5409,13.36095 C18.1269,13.36095 17.7909,13.69695 17.7909,14.11095 C17.7909,14.52495 18.1269,14.86095 18.5409,14.86095" id="Fill-18" fill="#322965"></path>
                <path d="M38.42475,7.0371 L38.42475,22.8996 C38.42475,23.3151 38.76075,23.6496 39.17475,23.6496 C39.58875,23.6496 39.92475,23.3151 39.92475,22.8996 L39.92475,7.0371 C39.92475,6.6231 39.58875,6.2871 39.17475,6.2871 C38.76075,6.2871 38.42475,6.6231 38.42475,7.0371" id="Fill-20" fill="#322965"></path>
                <path d="M14.98425,31.1412 L13.00125,33.1242 C12.41475,33.7107 11.46375,33.7107 10.88025,33.1242 L1.18875,23.4342 C0.60375,22.8492 0.60375,21.8982 1.18875,21.3132 L3.17175,19.3302 C3.75825,18.7437 4.70775,18.7437 5.29275,19.3302 L14.98425,29.0202 C15.56925,29.6067 15.56925,30.5547 14.98425,31.1412" id="Fill-22" fill="#FFF3EF"></path>
                <path d="M14.98425,31.1412 L14.45325,30.6102 L12.47025,32.5947 C12.32325,32.7417 12.13425,32.8122 11.94075,32.8137 C11.74575,32.8122 11.55825,32.7417 11.40975,32.5947 L1.71825,22.9047 C1.57275,22.7562 1.5007424,22.5687 1.5007424,22.3737 C1.5007424,22.1772 1.57275,21.9897 1.71825,21.8442 L3.70275,19.8597 C3.84975,19.7127 4.03875,19.6422 4.23225,19.6406924 C4.42725,19.6422 4.61475,19.7127 4.76325,19.8597 L14.45325,29.5497 C14.60025,29.6982 14.67225,29.8857 14.67225,30.0807 C14.67225,30.2757 14.60025,30.4632 14.45325,30.6102 L14.98425,31.1412 L15.51525,31.6722 C15.95325,31.2342 16.17375,30.6537 16.1722576,30.0807 C16.17375,29.5077 15.95325,28.9272 15.51525,28.4892 L5.82375,18.7992 C5.38725,18.3612 4.80675,18.1392 4.23225,18.1406924 C3.65925,18.1392 3.07875,18.3612 2.64075,18.7992 L0.65775,20.7837 C0.21975,21.2202 -0.00075,21.8007 0.000742398475,22.3737 C-0.00075,22.9467 0.21975,23.5272 0.65775,23.9652 L10.34925,33.6552 C10.78575,34.0932 11.36625,34.3152 11.94075,34.3137076 C12.51375,34.3152 13.09275,34.0932 13.53075,33.6552 L15.51525,31.6722 L14.98425,31.1412 Z" id="Fill-24" fill="#FF6E42"></path>
            </g>
        </g>
    </g>
</svg>