<?xml version="1.0" encoding="UTF-8"?>
<svg width="47px" height="48px" viewBox="0 0 47 48" version="1.1" xmlns="http://www.w3.org/2000/svg" xmlns:xlink="http://www.w3.org/1999/xlink">
    <!-- Generator: sketchtool 63.1 (101010) - https://sketch.com -->
    <title>C32BADD2-34E4-41BD-9A95-3B5CE75727ED</title>
    <desc>Created with sketchtool.</desc>
    <defs>
        <polygon id="path-1" points="0.5427 0 27.6987 0 27.6987 33.38535 0.5427 33.38535"></polygon>
        <polygon id="path-3" points="0.698676672 1.06509827 11.742 1.06509827 11.742 21.1080433 0.698676672 21.1080433"></polygon>
        <polygon id="path-5" points="0 1.06554818 11.0434481 1.06554818 11.0434481 21.1084267 0 21.1084267"></polygon>
    </defs>
    <g id="yugaweb" stroke="none" stroke-width="1" fill="none" fill-rule="evenodd">
        <g id="04-CAREERS" transform="translate(-1107.000000, -1169.000000)">
            <g id="Group" transform="translate(991.000000, 968.500000)">
                <g id="careers-ico6" transform="translate(116.750000, 200.500000)">
                    <polygon id="Fill-1" fill="#FFF3EF" points="19.0755 39.708 27.165 39.708 27.165 32.6355 19.0755 32.6355"></polygon>
                    <g id="Group-19">
                        <path d="M27.1656,32.63535 L27.1656,31.88535 L19.0761,31.88535 C18.8796,31.88535 18.6861,31.96635 18.5466,32.10435 C18.4071,32.24385 18.3261,32.43735 18.3261,32.63535 L18.3261,39.70785 C18.3261,39.90585 18.4071,40.09935 18.5466,40.23735 C18.6861,40.37685 18.8796,40.45785 19.0761,40.45785 L27.1656,40.45785 C27.3636,40.45785 27.5571,40.37685 27.6966,40.23735 C27.8346,40.09935 27.9156,39.90585 27.9156,39.70785 L27.9156,32.63535 C27.9156,32.43735 27.8346,32.24385 27.6966,32.10435 C27.5571,31.96635 27.3636,31.88535 27.1656,31.88535 L27.1656,32.63535 L26.4156,32.63535 L26.4156,38.95785 L19.8261,38.95785 L19.8261,33.38535 L27.1656,33.38535 L27.1656,32.63535 L26.4156,32.63535 L27.1656,32.63535 Z" id="Fill-2" fill="#FF6E42"></path>
                        <path d="M36.4863,47.25 L36.4863,46.5 L10.8918,46.5 L13.4598,40.458 L32.7828,40.458 L35.7963,47.5425 L36.4863,47.25 L36.4863,46.5 L36.4863,47.25 L37.1763,46.9575 L33.9693,39.414 C33.8523,39.138 33.5808,38.958 33.2793,38.958 L12.9633,38.958 C12.6633,38.958 12.3918,39.138 12.2733,39.414 L9.0678,46.9575 C8.9688,47.187 8.9928,47.4555 9.1323,47.6625 C9.2688,47.8725 9.5073,48 9.7578,48 L36.4863,48 C36.7368,48 36.9738,47.8725 37.1118,47.6625 C37.2498,47.4555 37.2738,47.187 37.1763,46.9575 L36.4863,47.25 Z" id="Fill-4" fill="#322965"></path>
                        <g id="Group-8" transform="translate(9.000000, 0.000000)">
                            <mask id="mask-2" fill="white">
                                <use xlink:href="#path-1"></use>
                            </mask>
                            <g id="Clip-7"></g>
                            <path d="M16.4487,32.63535 L16.4487,31.88535 L11.7927,31.88535 C9.1002,31.88535 6.6672,30.79485 4.9002,29.03085 C3.1332,27.26235 2.0427,24.83085 2.0427,22.13535 L2.0427,1.49985 L26.1987,1.49985 L26.1987,22.13535 C26.1987,24.83085 25.1082,27.26385 23.3442,29.03085 C21.5757,30.79485 19.1442,31.88535 16.4487,31.88535 L16.4487,32.63535 L16.4487,33.38535 C22.6632,33.38535 27.6987,28.34985 27.6987,22.13535 L27.6987,0.74985 C27.6987,0.55185 27.6177,0.35835 27.4797,0.22035 C27.3402,0.08085 27.1467,-0.00015 26.9487,-0.00015 L1.2927,-0.00015 C1.0962,-0.00015 0.9027,0.08085 0.7632,0.22035 C0.6237,0.35835 0.5427,0.55185 0.5427,0.74985 L0.5427,22.13535 C0.5427,28.34985 5.5812,33.38535 11.7927,33.38535 L16.4487,33.38535 L16.4487,32.63535 Z" id="Fill-6" fill="#322965" mask="url(#mask-2)"></path>
                        </g>
                        <path d="M28.6773,16.3038 C28.6773,19.3713 26.1903,21.8583 23.1213,21.8583 C20.0538,21.8583 17.5668,19.3713 17.5668,16.3038 C17.5668,13.2363 20.0538,10.7493 23.1213,10.7493 C26.1903,10.7493 28.6773,13.2363 28.6773,16.3038" id="Fill-9" fill="#FFF3EF"></path>
                        <path d="M28.6773,16.3038 L27.9273,16.3038 C27.9228,18.9573 25.7748,21.1038 23.1213,21.1083 C20.4678,21.1038 18.3213,18.9573 18.3168,16.3038 C18.3213,13.6503 20.4678,11.5038 23.1213,11.4993 C25.7748,11.5038 27.9228,13.6503 27.9273,16.3038 L28.6773,16.3038 L29.4273,16.3038 C29.4273,12.8223 26.6043,9.9993 23.1213,9.9993 C19.6398,9.9993 16.8168,12.8223 16.8168,16.3038 C16.8168,19.7853 19.6398,22.6083 23.1213,22.6083 C26.6043,22.6083 29.4273,19.7853 29.4273,16.3038 L28.6773,16.3038 Z" id="Fill-11" fill="#FF6E42"></path>
                        <g id="Group-15" transform="translate(34.500000, 1.500000)">
                            <mask id="mask-4" fill="white">
                                <use xlink:href="#path-3"></use>
                            </mask>
                            <g id="Clip-14"></g>
                            <path d="M1.8486,20.99265 C1.8711,20.97765 4.2861,19.45965 6.7296,17.20365 C7.9506,16.07415 9.1821,14.76165 10.1271,13.33515 C11.0676,11.90865 11.7381,10.35765 11.7426,8.73615 C11.7411,6.46215 11.1966,4.57965 10.2246,3.22065 C9.2586,1.86615 7.8171,1.05765 6.2226,1.06509827 C4.6101,1.07265 3.2826,1.87665 2.3541,2.62665 C1.4241,3.38415 0.8736,4.12065 0.8481,4.15065 C0.6006,4.48365 0.6681,4.95465 0.9996,5.20215 C1.3311,5.44965 1.8021,5.38215 2.0496,5.05065 L2.0646,5.03115 C2.1576,4.90965 2.6826,4.26315 3.4491,3.67065 C4.2201,3.07365 5.2116,2.55915 6.2226,2.56515 C7.3176,2.57265 8.2566,3.07065 9.0051,4.09665 C9.7476,5.12415 10.2441,6.70065 10.2426,8.73615 C10.2471,9.92265 9.7251,11.22615 8.8761,12.50715 C7.6086,14.42715 5.6421,16.25565 3.9981,17.57865 C3.1761,18.24015 2.4351,18.77865 1.8996,19.15065 C1.6326,19.33665 1.4181,19.48215 1.2711,19.57965 C1.1256,19.67565 1.0491,19.72365 1.0491,19.72365 C0.6981,19.94415 0.5931,20.40615 0.8151,20.75865 C1.0341,21.1080433 1.4976,21.21315 1.8486,20.99265" id="Fill-13" fill="#322965" mask="url(#mask-4)"></path>
                        </g>
                        <g id="Group-18" transform="translate(0.000000, 1.500000)">
                            <mask id="mask-6" fill="white">
                                <use xlink:href="#path-5"></use>
                            </mask>
                            <g id="Clip-17"></g>
                            <path d="M10.69335,19.7241 C10.69185,19.7241 10.55535,19.6371 10.30035,19.4661 C9.41235,18.8706 7.16085,17.2806 5.16285,15.2661 C4.16535,14.2611 3.23235,13.1496 2.56485,12.0261 C1.89435,10.9011 1.49835,9.7746 1.49985,8.7366 C1.49835,6.6996 1.99485,5.1246 2.73585,4.0971 C3.48435,3.0696 4.42635,2.5716 5.52135,2.5656 C6.59685,2.5581 7.65735,3.1461 8.44185,3.7896 C8.83335,4.1076 9.15435,4.4316 9.37035,4.6701 L9.61785,4.9551 L9.67785,5.0316 L9.69285,5.0511 C9.94035,5.3811 10.41135,5.4486 10.74285,5.2011 C11.07435,4.9536 11.14185,4.4841 10.89435,4.1511 C10.86885,4.1211 10.31835,3.3831 9.38835,2.6271 C8.45985,1.8771 7.13385,1.0716 5.52135,1.06554818 C3.92685,1.0581 2.48235,1.8651 1.51935,3.2211 C0.54585,4.5786 0.00135,6.4626 -0.00015,8.7366 C0.00435,10.3581 0.67485,11.9091 1.61535,13.3341 C4.44885,17.5911 9.85785,20.9586 9.89385,20.9931 C10.24335,21.2136 10.70835,21.1084267 10.92735,20.7576 C11.14935,20.4066 11.04285,19.9431 10.69335,19.7241" id="Fill-16" fill="#322965" mask="url(#mask-6)"></path>
                        </g>
                    </g>
                </g>
            </g>
        </g>
    </g>
</svg>