<?xml version="1.0" encoding="UTF-8"?>
<svg width="49px" height="43px" viewBox="0 0 49 43" version="1.1" xmlns="http://www.w3.org/2000/svg" xmlns:xlink="http://www.w3.org/1999/xlink">
    <!-- Generator: sketchtool 63.1 (101010) - https://sketch.com -->
    <title>33F0E6A8-5E7F-4A1A-8653-56B72D639D29</title>
    <desc>Created with sketchtool.</desc>
    <defs>
        <polygon id="path-1" points="0.0003 0.0315 48 0.0315 48 7.5 0.0003 7.5"></polygon>
    </defs>
    <g id="yugaweb" stroke="none" stroke-width="1" fill="none" fill-rule="evenodd">
        <g id="04-CAREERS" transform="translate(-443.000000, -1171.000000)">
            <g id="careers-ico4" transform="translate(443.500000, 1171.000000)">
                <path d="M5.73345,35.4888 C6.34395,25.9323 14.28795,18.3693 24.00045,18.3693 C33.70845,18.3693 41.65395,25.9308 42.26445,35.4858 L5.73345,35.4888 Z" id="Fill-1" fill="#FFF3EF"></path>
                <path d="M5.73345,35.4888 L6.48195,35.5368 C7.06845,26.3733 14.68695,19.1178 24.00045,19.1193 C33.31095,19.1178 40.93245,26.3733 41.51595,35.5338 L42.26445,35.4858 L42.26445,34.7358 L5.73345,34.7388 L5.73345,35.4888 L6.48195,35.5368 L5.73345,35.4888 L5.73345,36.2388 L42.26445,36.2358 C42.47145,36.2358 42.67095,36.1488 42.81195,35.9988 C42.95295,35.8488 43.02645,35.6448 43.01445,35.4378 C42.37695,25.4883 34.10745,17.6208 24.00045,17.6193 C13.88895,17.6208 5.62095,25.4913 4.98495,35.4408 C4.97145,35.6463 5.04495,35.8518 5.18745,36.0018 C5.32695,36.1518 5.52645,36.2388 5.73345,36.2388 L5.73345,35.4888 Z" id="Fill-3" fill="#FF6E42"></path>
                <path d="M26.77005,15.5127 C26.77005,17.0427 25.52955,18.2832 23.99955,18.2832 C22.46955,18.2832 21.22905,17.0427 21.22905,15.5127 C21.22905,13.9812 22.46955,12.7407 23.99955,12.7407 C25.52955,12.7407 26.77005,13.9812 26.77005,15.5127" id="Fill-5" fill="#FFF3EF"></path>
                <path d="M26.77005,15.5127 L26.02005,15.5127 C26.01855,16.6272 25.11405,17.5317 23.99955,17.5332 C22.88355,17.5317 21.98055,16.6272 21.97905,15.5127 C21.98055,14.3967 22.88355,13.4922 23.99955,13.4907 C25.11405,13.4922 26.01855,14.3967 26.02005,15.5127 L26.77005,15.5127 L27.52005,15.5127 C27.52005,13.5672 25.94355,11.9907 23.99955,11.9907 C22.05405,11.9907 20.47905,13.5672 20.47905,15.5127 C20.47905,17.4567 22.05405,19.0332 23.99955,19.0332 C25.94355,19.0332 27.52005,17.4567 27.52005,15.5127 L26.77005,15.5127 Z" id="Fill-7" fill="#FF6E42"></path>
                <g id="Group-11" transform="translate(0.000000, 34.703550)">
                    <mask id="mask-2" fill="white">
                        <use xlink:href="#path-1"></use>
                    </mask>
                    <g id="Clip-10"></g>
                    <path d="M45.6123,6.75 L45.6123,6 L2.3868,6 C1.8963,5.9985 1.5018,5.604 1.5003,5.112 L1.5003,2.4195 C1.5018,1.9305 1.8978,1.533 2.3868,1.5315 L45.6123,1.5315 C46.1013,1.533 46.4988,1.9305 46.5003,2.4195 L46.5003,5.112 C46.4988,5.6025 46.1013,5.9985 45.6123,6 L45.6123,6.75 L45.6123,7.5 C46.9308,7.5 48.0003,6.432 48.0003,5.112 L48.0003,2.4195 C47.9988,1.101 46.9308,0.033 45.6123,0.0315 L2.3868,0.0315 C1.0668,0.033 0.0003,1.101 0.0003,2.4195 L0.0003,5.112 C0.0003,6.4305 1.0683,7.5 2.3868,7.5 L45.6123,7.5 L45.6123,6.75 Z" id="Fill-9" fill="#322965" mask="url(#mask-2)"></path>
                </g>
                <path d="M34.0869,1.29195 L34.0914,1.29645 C34.1379,1.34295 34.4439,1.65795 34.7214,2.11695 C35.0019,2.57745 35.2434,3.16995 35.2404,3.76845 L35.2389,3.84945 L35.2389,3.84795 C35.2089,4.52145 34.9824,4.87995 34.6344,5.44845 C34.2954,5.99295 33.8484,6.75495 33.8559,7.84545 C33.8559,9.84945 34.6659,11.42295 35.3484,12.54945 C35.5629,12.90195 36.0249,13.01445 36.3789,12.80145 C36.7329,12.58545 36.8454,12.12495 36.6309,11.76945 C35.9949,10.72245 35.3559,9.43395 35.3559,7.84545 C35.3634,7.14045 35.5779,6.78795 35.9139,6.23295 C36.2424,5.69895 36.7074,4.96845 36.7389,3.90045 L36.7389,3.89895 L36.7404,3.76845 C36.7374,2.71245 36.3204,1.83645 35.9304,1.22145 C35.5359,0.60495 35.1534,0.23595 35.1234,0.20745 C34.8249,-0.07755 34.3509,-0.06705 34.0629,0.23145 C33.7779,0.52995 33.7884,1.00545 34.0869,1.29195" id="Fill-12" fill="#322965"></path>
                <path d="M38.0523,1.29195 L38.0568,1.29645 C38.1033,1.34145 38.4078,1.65795 38.6853,2.11695 C38.9658,2.57595 39.2073,3.16995 39.2043,3.76695 L39.2028,3.84945 C39.1728,4.52145 38.9463,4.87995 38.5998,5.44845 C38.2608,5.99295 37.8138,6.75495 37.8213,7.84545 C37.8213,9.84945 38.6313,11.42295 39.3123,12.54795 C39.5253,12.90195 39.9873,13.01445 40.3413,12.80145 C40.6968,12.58695 40.8093,12.12645 40.5948,11.77095 C39.9603,10.72245 39.3213,9.43395 39.3213,7.84545 C39.3288,7.14045 39.5418,6.78795 39.8793,6.23145 C40.2078,5.69895 40.6713,4.96845 40.7028,3.90045 L40.7043,3.76695 C40.7013,2.71245 40.2843,1.83645 39.8958,1.22145 C39.5013,0.60495 39.1188,0.23745 39.0888,0.20745 C38.7903,-0.07755 38.3163,-0.06705 38.0283,0.23145 C37.7433,0.52995 37.7538,1.00545 38.0523,1.29195" id="Fill-14" fill="#322965"></path>
                <path d="M7.13235,1.29195 L7.13685,1.29645 C7.18335,1.34295 7.48935,1.65795 7.76685,2.11695 C8.04735,2.57745 8.28885,3.16995 8.28585,3.76845 L8.28435,3.84945 L8.28435,3.84795 C8.25435,4.52145 8.02785,4.87995 7.67985,5.44845 C7.34085,5.99295 6.89385,6.75495 6.90135,7.84545 C6.90135,9.84945 7.71135,11.42295 8.39385,12.54945 C8.60835,12.90195 9.07035,13.01445 9.42285,12.80145 C9.77835,12.58545 9.89085,12.12495 9.67635,11.76945 C9.04035,10.72245 8.40135,9.43395 8.40135,7.84545 C8.40885,7.14045 8.62335,6.78795 8.95935,6.23295 C9.28785,5.69895 9.75285,4.96845 9.78435,3.90045 L9.78435,3.89895 L9.78585,3.76845 C9.78285,2.71245 9.36585,1.83645 8.97585,1.22145 C8.58135,0.60495 8.19885,0.23595 8.16885,0.20745 C7.87035,-0.07755 7.39635,-0.06705 7.10835,0.23145 C6.82335,0.52995 6.83385,1.00545 7.13235,1.29195" id="Fill-16" fill="#322965"></path>
                <path d="M11.0976,1.29195 L11.1021,1.29645 C11.1486,1.34145 11.4531,1.65795 11.7306,2.11695 C12.0111,2.57595 12.2526,3.16995 12.2496,3.76695 L12.2481,3.84945 C12.2181,4.52145 11.9916,4.87995 11.6451,5.44845 C11.3061,5.99295 10.8591,6.75495 10.8666,7.84545 C10.8666,9.84945 11.6751,11.42295 12.3576,12.54945 C12.5721,12.90195 13.0341,13.01445 13.3866,12.80145 C13.7421,12.58545 13.8546,12.12495 13.6401,11.76945 C13.0041,10.72245 12.3666,9.43395 12.3666,7.84545 C12.3741,7.14045 12.5871,6.78795 12.9246,6.23145 C13.2531,5.69895 13.7166,4.96845 13.7481,3.90045 L13.7496,3.76695 C13.7466,2.71245 13.3296,1.83645 12.9411,1.22145 C12.5466,0.60495 12.1641,0.23745 12.1341,0.20745 C11.8356,-0.07755 11.3616,-0.06705 11.0736,0.23145 C10.7886,0.52995 10.7991,1.00545 11.0976,1.29195" id="Fill-18" fill="#322965"></path>
            </g>
        </g>
    </g>
</svg>