<?xml version="1.0" encoding="UTF-8"?>
<svg width="72px" height="72px" viewBox="0 0 72 72" version="1.1" xmlns="http://www.w3.org/2000/svg" xmlns:xlink="http://www.w3.org/1999/xlink">
    <!-- Generator: Sketch 50.2 (55047) - http://www.bohemiancoding.com/sketch -->
    <title>iot</title>
    <desc>Created with Sketch.</desc>
    <defs>
        <polygon id="path-1" points="0.6599 0.9151 6.935 0.9151 6.935 7.1901 0.6599 7.1901"></polygon>
        <polygon id="path-3" points="0 0.9034 6.2757 0.9034 6.2757 7.1774 0 7.1774"></polygon>
    </defs>
    <g id="iot" stroke="none" stroke-width="1" fill="none" fill-rule="evenodd">
        <path d="M22.7481,68.8624 L28.2211,55.4284" id="Stroke-1" stroke="#202951" stroke-linecap="round"></path>
        <path d="M6.8809,51.4835 L17.3619,46.0955" id="Stroke-2" stroke="#202951" stroke-linecap="round"></path>
        <path d="M3.1377,23.0411 L15.9607,28.8621" id="Stroke-3" stroke="#202951" stroke-linecap="round"></path>
        <path d="M15.5889,3.1378 L25.2649,18.1138" id="Stroke-4" stroke="#202951" stroke-linecap="round"></path>
        <path d="M40.0772,3.8936 L38.9112,10.8436" id="Stroke-5" stroke="#202951" stroke-linecap="round"></path>
        <g id="Group-66">
            <path d="M35.5694,15.2032 C24.0294,15.2032 14.6734,24.5572 14.6734,36.0982 C14.6734,47.6392 24.0294,56.9932 35.5694,56.9932 C47.1094,56.9932 56.4654,47.6392 56.4654,36.0982 C56.4654,24.5572 47.1094,15.2032 35.5694,15.2032 M35.5694,16.2032 C46.5404,16.2032 55.4654,25.1282 55.4654,36.0982 C55.4654,47.0682 46.5404,55.9932 35.5694,55.9932 C24.5984,55.9932 15.6734,47.0682 15.6734,36.0982 C15.6734,25.1282 24.5984,16.2032 35.5694,16.2032" id="Fill-6" fill="#202951"></path>
            <path d="M35.5694,9.1563 C29.7424,9.1563 25.0174,21.2193 25.0174,36.0973 C25.0174,50.9773 29.7424,63.0403 35.5694,63.0403 C41.3964,63.0403 46.1214,50.9773 46.1214,36.0973 C46.1214,21.2193 41.3964,9.1563 35.5694,9.1563 M35.5694,10.1563 C40.1814,10.1563 45.1214,20.5813 45.1214,36.0973 C45.1214,51.6153 40.1814,62.0403 35.5694,62.0403 C30.9564,62.0403 26.0174,51.6153 26.0174,36.0973 C26.0174,20.5813 30.9564,10.1563 35.5694,10.1563" id="Fill-8" fill="#202951"></path>
            <path d="M35.5694,25.546 C20.6894,25.546 8.6284,30.271 8.6284,36.098 C8.6284,41.926 20.6894,46.65 35.5694,46.65 C50.4484,46.65 62.5104,41.926 62.5104,36.098 C62.5104,30.271 50.4484,25.546 35.5694,25.546 M35.5694,26.546 C51.0874,26.546 61.5104,31.485 61.5104,36.098 C61.5104,40.711 51.0874,45.65 35.5694,45.65 C20.0514,45.65 9.6284,40.711 9.6284,36.098 C9.6284,31.485 20.0514,26.546 35.5694,26.546" id="Fill-10" fill="#202951"></path>
            <path d="M8.628,36.0977 L62.511,36.0977" id="Stroke-12" stroke="#202951" stroke-linejoin="round"></path>
            <path d="M35.5694,63.0401 L35.5694,9.1561" id="Stroke-14" stroke="#202951" stroke-linejoin="round"></path>
            <path d="M35.5694,41.2686 C32.7174,41.2686 30.3984,38.9496 30.3984,36.0976 C30.3984,33.2476 32.7174,30.9276 35.5694,30.9276 C38.4214,30.9276 40.7404,33.2476 40.7404,36.0976 C40.7404,38.9496 38.4214,41.2686 35.5694,41.2686" id="Fill-16" fill="#F75821"></path>
            <path d="M35.5694,30.4278 C32.4374,30.4278 29.8984,32.9658 29.8984,36.0978 C29.8984,39.2298 32.4374,41.7688 35.5694,41.7688 C38.7014,41.7688 41.2404,39.2298 41.2404,36.0978 C41.2404,32.9658 38.7014,30.4278 35.5694,30.4278 M35.5694,31.4278 C38.1444,31.4278 40.2404,33.5228 40.2404,36.0978 C40.2404,38.6738 38.1444,40.7688 35.5694,40.7688 C32.9944,40.7688 30.8984,38.6738 30.8984,36.0978 C30.8984,33.5228 32.9944,31.4278 35.5694,31.4278" id="Fill-18" fill="#202951"></path>
            <path d="M68.7979,40.6905 C67.3439,40.6905 66.1599,39.5065 66.1599,38.0525 C66.1599,36.5985 67.3439,35.4155 68.7979,35.4155 C70.2519,35.4155 71.4359,36.5985 71.4359,38.0525 C71.4359,39.5065 70.2519,40.6905 68.7979,40.6905" id="Fill-20" fill="#F75821"></path>
            <g id="Group-24" transform="translate(65.000000, 34.000000)">
                <mask id="mask-2" fill="white">
                    <use xlink:href="#path-1"></use>
                </mask>
                <g id="Clip-23"></g>
                <path d="M3.7979,0.9151 C2.0659,0.9151 0.6599,2.3201 0.6599,4.0531 C0.6599,5.7851 2.0659,7.1901 3.7979,7.1901 C5.5299,7.1901 6.9359,5.7851 6.9359,4.0531 C6.9359,2.3201 5.5299,0.9151 3.7979,0.9151 M3.7979,1.9151 C4.9769,1.9151 5.9359,2.8741 5.9359,4.0531 C5.9359,5.2311 4.9769,6.1901 3.7979,6.1901 C2.6189,6.1901 1.6599,5.2311 1.6599,4.0531 C1.6599,2.8741 2.6189,1.9151 3.7979,1.9151" id="Fill-22" fill="#202951" mask="url(#mask-2)"></path>
            </g>
            <path d="M39.7676,6.5303 C38.3136,6.5303 37.1296,5.3473 37.1296,3.8933 C37.1296,2.4393 38.3136,1.2563 39.7676,1.2563 C41.2216,1.2563 42.4056,2.4393 42.4056,3.8933 C42.4056,5.3473 41.2216,6.5303 39.7676,6.5303" id="Fill-25" fill="#F75821"></path>
            <path d="M39.7676,0.7559 C38.0356,0.7559 36.6296,2.1599 36.6296,3.8939 C36.6296,5.6259 38.0356,7.0299 39.7676,7.0299 C41.5006,7.0299 42.9056,5.6259 42.9056,3.8939 C42.9056,2.1599 41.5006,0.7559 39.7676,0.7559 M39.7676,1.7559 C40.9466,1.7559 41.9056,2.7149 41.9056,3.8939 C41.9056,5.0709 40.9466,6.0299 39.7676,6.0299 C38.5886,6.0299 37.6296,5.0709 37.6296,3.8939 C37.6296,2.7149 38.5886,1.7559 39.7676,1.7559" id="Fill-27" fill="#202951"></path>
            <path d="M15.5889,5.7755 C14.1349,5.7755 12.9509,4.5915 12.9509,3.1375 C12.9509,1.6835 14.1349,0.5005 15.5889,0.5005 C17.0429,0.5005 18.2259,1.6835 18.2259,3.1375 C18.2259,4.5915 17.0429,5.7755 15.5889,5.7755" id="Fill-29" fill="#F75821"></path>
            <path d="M15.5889,0.0001 C13.8559,0.0001 12.4509,1.4041 12.4509,3.1381 C12.4509,4.8701 13.8559,6.2751 15.5889,6.2751 C17.3209,6.2751 18.7259,4.8701 18.7259,3.1381 C18.7259,1.4041 17.3209,0.0001 15.5889,0.0001 M15.5889,1.0001 C16.7679,1.0001 17.7259,1.9591 17.7259,3.1381 C17.7259,4.3161 16.7679,5.2751 15.5889,5.2751 C14.4099,5.2751 13.4509,4.3161 13.4509,3.1381 C13.4509,1.9591 14.4099,1.0001 15.5889,1.0001" id="Fill-31" fill="#202951"></path>
            <path d="M3.1377,25.6778 C1.6837,25.6778 0.4997,24.4948 0.4997,23.0408 C0.4997,21.5868 1.6837,20.4038 3.1377,20.4038 C4.5917,20.4038 5.7757,21.5868 5.7757,23.0408 C5.7757,24.4948 4.5917,25.6778 3.1377,25.6778" id="Fill-33" fill="#F75821"></path>
            <g id="Group-37" transform="translate(0.000000, 19.000000)">
                <mask id="mask-4" fill="white">
                    <use xlink:href="#path-3"></use>
                </mask>
                <g id="Clip-36"></g>
                <path d="M3.1377,0.9034 C1.4047,0.9034 -0.0003,2.3074 -0.0003,4.0414 C-0.0003,5.7734 1.4047,7.1774 3.1377,7.1774 C4.8697,7.1774 6.2757,5.7734 6.2757,4.0414 C6.2757,2.3074 4.8697,0.9034 3.1377,0.9034 M3.1377,1.9034 C4.3167,1.9034 5.2757,2.8624 5.2757,4.0414 C5.2757,5.2194 4.3167,6.1774 3.1377,6.1774 C1.9587,6.1774 0.9997,5.2194 0.9997,4.0414 C0.9997,2.8624 1.9587,1.9034 3.1377,1.9034" id="Fill-35" fill="#202951" mask="url(#mask-4)"></path>
            </g>
            <path d="M7.7813,53.6993 C6.3273,53.6993 5.1433,52.5163 5.1433,51.0623 C5.1433,49.6083 6.3273,48.4253 7.7813,48.4253 C9.2353,48.4253 10.4183,49.6083 10.4183,51.0623 C10.4183,52.5163 9.2353,53.6993 7.7813,53.6993" id="Fill-38" fill="#F75821"></path>
            <path d="M7.7813,47.9249 C6.0483,47.9249 4.6433,49.3289 4.6433,51.0629 C4.6433,52.7949 6.0483,54.1989 7.7813,54.1989 C9.5133,54.1989 10.9183,52.7949 10.9183,51.0629 C10.9183,49.3289 9.5133,47.9249 7.7813,47.9249 M7.7813,48.9249 C8.9593,48.9249 9.9183,49.8839 9.9183,51.0629 C9.9183,52.2409 8.9593,53.1989 7.7813,53.1989 C6.6023,53.1989 5.6433,52.2409 5.6433,51.0629 C5.6433,49.8839 6.6023,48.9249 7.7813,48.9249" id="Fill-40" fill="#202951"></path>
            <path d="M22.7481,71.5001 C21.2941,71.5001 20.1111,70.3161 20.1111,68.8621 C20.1111,67.4081 21.2941,66.2251 22.7481,66.2251 C24.2021,66.2251 25.3861,67.4081 25.3861,68.8621 C25.3861,70.3161 24.2021,71.5001 22.7481,71.5001" id="Fill-42" fill="#F75821"></path>
            <path d="M22.7481,65.7247 C21.0161,65.7247 19.6111,67.1297 19.6111,68.8627 C19.6111,70.5947 21.0161,71.9997 22.7481,71.9997 C24.4811,71.9997 25.8861,70.5947 25.8861,68.8627 C25.8861,67.1297 24.4811,65.7247 22.7481,65.7247 M22.7481,66.7247 C23.9271,66.7247 24.8861,67.6837 24.8861,68.8627 C24.8861,70.0407 23.9271,70.9997 22.7481,70.9997 C21.5691,70.9997 20.6111,70.0407 20.6111,68.8627 C20.6111,67.6837 21.5691,66.7247 22.7481,66.7247" id="Fill-44" fill="#202951"></path>
            <path d="M52.4942,71.1485 C51.0402,71.1485 49.8562,69.9645 49.8562,68.5105 C49.8562,67.0565 51.0402,65.8745 52.4942,65.8745 C53.9482,65.8745 55.1322,67.0565 55.1322,68.5105 C55.1322,69.9645 53.9482,71.1485 52.4942,71.1485" id="Fill-46" fill="#F75821"></path>
            <path d="M52.4942,65.3741 C50.7622,65.3741 49.3562,66.7781 49.3562,68.5111 C49.3562,70.2441 50.7622,71.6481 52.4942,71.6481 C54.2272,71.6481 55.6322,70.2441 55.6322,68.5111 C55.6322,66.7781 54.2272,65.3741 52.4942,65.3741 M52.4942,66.3741 C53.6732,66.3741 54.6322,67.3321 54.6322,68.5111 C54.6322,69.6891 53.6732,70.6481 52.4942,70.6481 C51.3152,70.6481 50.3562,69.6891 50.3562,68.5111 C50.3562,67.3321 51.3152,66.3741 52.4942,66.3741" id="Fill-48" fill="#202951"></path>
            <path d="M65.7881,57.8135 C64.3341,57.8135 63.1511,56.6295 63.1511,55.1755 C63.1511,53.7215 64.3341,52.5385 65.7881,52.5385 C67.2421,52.5385 68.4261,53.7215 68.4261,55.1755 C68.4261,56.6295 67.2421,57.8135 65.7881,57.8135" id="Fill-50" fill="#F75821"></path>
            <path d="M65.7881,52.0381 C64.0561,52.0381 62.6511,53.4421 62.6511,55.1761 C62.6511,56.9081 64.0561,58.3131 65.7881,58.3131 C67.5211,58.3131 68.9261,56.9081 68.9261,55.1761 C68.9261,53.4421 67.5211,52.0381 65.7881,52.0381 M65.7881,53.0381 C66.9671,53.0381 67.9261,53.9971 67.9261,55.1761 C67.9261,56.3541 66.9671,57.3131 65.7881,57.3131 C64.6091,57.3131 63.6511,56.3541 63.6511,55.1761 C63.6511,53.9971 64.6091,53.0381 65.7881,53.0381" id="Fill-52" fill="#202951"></path>
            <path d="M49.7374,21.2774 L59.7494,9.1564" id="Stroke-54" stroke="#202951" stroke-linecap="round"></path>
            <path d="M65.9707,37.6505 L62.0437,37.2795" id="Stroke-56" stroke="#202951" stroke-linecap="round"></path>
            <path d="M63.128,53.9844 L51.912,48.3474" id="Stroke-58" stroke="#202951" stroke-linecap="round"></path>
            <path d="M50.71,65.8399 L45.103,54.1989" id="Stroke-60" stroke="#202951" stroke-linecap="round"></path>
            <path d="M60.1651,11.794 C58.7111,11.794 57.5281,10.61 57.5281,9.156 C57.5281,7.702 58.7111,6.519 60.1651,6.519 C61.6191,6.519 62.8031,7.702 62.8031,9.156 C62.8031,10.61 61.6191,11.794 60.1651,11.794" id="Fill-62" fill="#F75821"></path>
            <path d="M60.1651,6.0186 C58.4331,6.0186 57.0281,7.4236 57.0281,9.1566 C57.0281,10.8896 58.4331,12.2936 60.1651,12.2936 C61.8981,12.2936 63.3031,10.8896 63.3031,9.1566 C63.3031,7.4236 61.8981,6.0186 60.1651,6.0186 M60.1651,7.0186 C61.3441,7.0186 62.3031,7.9776 62.3031,9.1566 C62.3031,10.3346 61.3441,11.2936 60.1651,11.2936 C58.9871,11.2936 58.0281,10.3346 58.0281,9.1566 C58.0281,7.9776 58.9871,7.0186 60.1651,7.0186" id="Fill-64" fill="#202951"></path>
        </g>
    </g>
</svg>