<?xml version="1.0" encoding="UTF-8"?>
<svg width="71px" height="72px" viewBox="0 0 71 72" version="1.1" xmlns="http://www.w3.org/2000/svg" xmlns:xlink="http://www.w3.org/1999/xlink">
    <!-- Generator: Sketch 50.2 (55047) - http://www.bohemiancoding.com/sketch -->
    <title>ico2-advancedfeat</title>
    <desc>Created with Sketch.</desc>
    <defs></defs>
    <g id="v2" stroke="none" stroke-width="1" fill="none" fill-rule="evenodd">
        <g id="02-enterprise-desktop" transform="translate(-684.000000, -2616.000000)">
            <g id="B" transform="translate(0.000000, 2515.000000)">
                <g id="h2---A-Copy" transform="translate(459.000000, 101.000000)">
                    <g id="ico2-advancedfeat" transform="translate(226.000000, 0.000000)">
                        <path d="M39.6483288,35.8894356 L34.0530411,30.2951342 C32.8980822,29.139189 32.8980822,27.2662027 34.0530411,26.1102575 L36.1272329,24.0360658 L45.9073973,33.8152438 L43.8322192,35.8894356 C42.6772603,37.0453808 40.8032877,37.0453808 39.6483288,35.8894356 Z" id="Stroke-1" stroke="#202951"></path>
                        <path d="M68.1209753,11.6007781 C70.2533589,9.46938082 69.0816329,0.860942466 69.0816329,0.860942466 C69.0816329,0.860942466 60.592537,-0.429139726 58.3417973,1.8216 C56.0910575,4.07233973 36.1273315,24.0360658 36.1273315,24.0360658 L45.9074959,33.8152438 C45.9074959,33.8152438 65.9895781,13.7331616 68.1209753,11.6007781 Z" id="Stroke-3" stroke="#202951"></path>
                        <path d="M30.8399671,32.9729425 C28.7075836,35.1043397 29.8793096,40.0417644 29.8793096,40.0417644 C29.8793096,40.0417644 34.6983781,41.3328329 36.9491178,39.0811068 C39.2008438,36.8303671 39.4355836,35.6773808 39.4355836,35.6773808 L34.2446795,30.4864767 C34.2446795,30.4864767 32.9723507,30.8405589 30.8399671,32.9729425" id="Fill-5" fill="#F75821"></path>
                        <path d="M30.8399671,32.9729425 C28.7075836,35.1043397 29.8793096,40.0417644 29.8793096,40.0417644 C29.8793096,40.0417644 34.6983781,41.3328329 36.9491178,39.0811068 C39.2008438,36.8303671 39.4355836,35.6773808 39.4355836,35.6773808 L34.2446795,30.4864767 C34.2446795,30.4864767 32.9723507,30.8405589 30.8399671,32.9729425 Z" id="Stroke-7" stroke="#202951"></path>
                        <polygon id="Stroke-9" stroke="#202951" points="59.805863 31.772811 61.4500274 18.2723178 44.6533151 35.0690301 49.8027945 41.8774685"></polygon>
                        <polygon id="Stroke-11" stroke="#202951" points="38.1491507 10.1164932 51.6486575 8.47232877 34.8529315 25.2680548 28.0444932 20.1195616"></polygon>
                        <path d="M63.5709699,10.8533589 C62.3272438,12.0970849 60.3112438,12.0970849 59.0685041,10.8533589 C57.8247781,9.60963288 57.8247781,7.59363288 59.0685041,6.35089315 C60.3112438,5.10716712 62.3272438,5.10716712 63.5709699,6.35089315 C64.8146959,7.59363288 64.8146959,9.60963288 63.5709699,10.8533589" id="Fill-13" fill="#F75821"></path>
                        <path d="M63.5709699,10.8533589 C62.3272438,12.0970849 60.3112438,12.0970849 59.0685041,10.8533589 C57.8247781,9.60963288 57.8247781,7.59363288 59.0685041,6.35089315 C60.3112438,5.10716712 62.3272438,5.10716712 63.5709699,6.35089315 C64.8146959,7.59363288 64.8146959,9.60963288 63.5709699,10.8533589 Z" id="Stroke-15" stroke="#202951"></path>
                        <path d="M55.8327452,18.612789 C54.5890192,19.8565151 52.5730192,19.8565151 51.3302795,18.612789 C50.0865534,17.369063 50.0865534,15.353063 51.3302795,14.1103233 C52.5730192,12.8665973 54.5890192,12.8665973 55.8327452,14.1103233 C57.0764712,15.353063 57.0764712,17.369063 55.8327452,18.612789" id="Fill-17" fill="#F75821"></path>
                        <path d="M55.8327452,18.612789 C54.5890192,19.8565151 52.5730192,19.8565151 51.3302795,18.612789 C50.0865534,17.369063 50.0865534,15.353063 51.3302795,14.1103233 C52.5730192,12.8665973 54.5890192,12.8665973 55.8327452,14.1103233 C57.0764712,15.353063 57.0764712,17.369063 55.8327452,18.612789 Z" id="Stroke-19" stroke="#202951"></path>
                        <path d="M48.0838685,26.3616658 C46.8401425,27.6053918 44.8241425,27.6053918 43.5814027,26.3616658 C42.3376767,25.1179397 42.3376767,23.1019397 43.5814027,21.8592 C44.8241425,20.615474 46.8401425,20.615474 48.0838685,21.8592 C49.3275945,23.1019397 49.3275945,25.1179397 48.0838685,26.3616658" id="Fill-21" fill="#F75821"></path>
                        <path d="M48.0838685,26.3616658 C46.8401425,27.6053918 44.8241425,27.6053918 43.5814027,26.3616658 C42.3376767,25.1179397 42.3376767,23.1019397 43.5814027,21.8592 C44.8241425,20.615474 46.8401425,20.615474 48.0838685,21.8592 C49.3275945,23.1019397 49.3275945,25.1179397 48.0838685,26.3616658 Z" id="Stroke-23" stroke="#202951"></path>
                        <path d="M35.6115945,44.1111452 L29.3663342,50.3554192" id="Stroke-25" stroke="#202951" stroke-linecap="round" stroke-linejoin="round"></path>
                        <path d="M26.8230575,52.8992877 L14.1027288,65.6196164" id="Stroke-27" stroke="#202951" stroke-linecap="round" stroke-linejoin="round"></path>
                        <path d="M14.6012055,55.3207562 L0.493150685,69.428811" id="Stroke-29" stroke="#202951" stroke-linecap="round" stroke-linejoin="round"></path>
                        <path d="M26.4430356,43.4995397 L17.8858849,52.0576767" id="Stroke-31" stroke="#202951" stroke-linecap="round" stroke-linejoin="round"></path>
                        <path d="M25.4740932,34.6893041 L20.6175452,39.5468384" id="Stroke-33" stroke="#202951" stroke-linecap="round" stroke-linejoin="round"></path>
                        <path d="M17.6106082,42.552789 L12.7540603,47.4103233" id="Stroke-35" stroke="#202951" stroke-linecap="round" stroke-linejoin="round"></path>
                        <path d="M10.2095014,49.9538959 L2.11492603,58.0484712" id="Stroke-37" stroke="#202951" stroke-linecap="round" stroke-linejoin="round"></path>
                        <path d="M11.6851068,68.0376329 L8.21529863,71.5074411" id="Stroke-39" stroke="#202951" stroke-linecap="round" stroke-linejoin="round"></path>
                    </g>
                </g>
            </g>
        </g>
    </g>
</svg>