<?xml version="1.0" encoding="UTF-8" standalone="no"?>
<svg width="32px" height="32px" viewBox="0 0 32 32" version="1.1" xmlns="http://www.w3.org/2000/svg" xmlns:xlink="http://www.w3.org/1999/xlink">
    <!-- Generator: Sketch 46.2 (44496) - http://www.bohemiancoding.com/sketch -->
    <title>plugin-oriented</title>
    <desc>Created with Sketch.</desc>
    <defs></defs>
    <g id="KongHQ.com" stroke="none" stroke-width="1" fill="none" fill-rule="evenodd">
        <g id="#home" transform="translate(-588.000000, -1927.000000)">
            <g id="03-value-ponts" transform="translate(0.000000, 1616.000000)">
                <g id="02-extensible" transform="translate(588.000000, 311.000000)">
                    <g id="plugin-oriented">
                        <path d="M15,28 L17,28 C17,30.209139 15.209139,32 13,32 L13,30 C14.1045695,30 15,29.1045695 15,28 Z M29,32 L22,32 C21.4477153,32 21,31.5522847 21,31 C21,30.4477153 21.4477153,30 22,30 L29,30 C29.5522847,30 30,29.5522847 30,29 L30,3 C30,2.44771525 29.5522847,2 29,2 L3,2 C2.44771525,2 2,2.44771525 2,3 L2,29 C2,29.5522847 2.44771525,30 3,30 L13,30 L13,32 L3,32 C1.34314575,32 0,30.6568542 0,29 L0,3 C0,1.34314575 1.34314575,0 3,0 L29,0 C30.6568542,0 32,1.34314575 32,3 L32,29 C32,30.6568542 30.6568542,32 29,32 Z" id="icn-plugins.svg" fill="#B5BFC7"></path>
                        <path d="M24,17 L23,17 L23,20 L19,23 L19,25 L18,26 L17,26 L17,28 L15,28 L15,26 L14,26 L13,25 L13,23 L9,20 L9,17 L8,17 L7,16 L7,12 L8,11 L24,11 L25,12 L25,16 L24,17 Z M23,13 L9,13 L9,15 L11,15 L11,19 L15,22 L15,24 L17,24 L17,22 L21,19 L21,15 L23,15 L23,13 Z M11,7 C11,6.44771525 11.4477153,6 12,6 C12.5522847,6 13,6.44771525 13,7 L13,11 L11,11 L11,7 Z M19,7 C19,6.44771525 19.4477153,6 20,6 C20.5522847,6 21,6.44771525 21,7 L21,11 L19,11 L19,7 Z" id="Combined-Shape" fill="#0070CE"></path>
                        <polygon id="icn-plugins.svg-path" fill="#17A956" points="13 15 19 15 17 17 15 17"></polygon>
                    </g>
                </g>
            </g>
        </g>
    </g>
</svg>