<?xml version="1.0" encoding="UTF-8"?>
<svg width="351px" height="56px" viewBox="0 0 351 56" version="1.1" xmlns="http://www.w3.org/2000/svg" xmlns:xlink="http://www.w3.org/1999/xlink">
    <!-- Generator: Sketch 55.2 (78181) - https://sketchapp.com -->
    <title>DB logo with tagline</title>
    <desc>Created with Sketch.</desc>
    <defs>
        <polygon id="path-1" points="0.286729032 0.0711290323 30.0394387 0.0711290323 30.0394387 44.2580645 0.286729032 44.2580645"></polygon>
        <polygon id="path-3" points="0.15223871 0.30483871 23.247271 0.30483871 23.247271 42.1353032 0.15223871 42.1353032"></polygon>
        <polygon id="path-5" points="0.199567742 0.4424 35.5491613 0.4424 35.5491613 41.6836903 0.199567742 41.6836903"></polygon>
    </defs>
    <g id="YugaWeb-v2" stroke="none" stroke-width="1" fill="none" fill-rule="evenodd">
        <g id="NEW-HERO-IMAGE" transform="translate(-544.000000, -133.000000)">
            <g id="ybDB-wordmark" transform="translate(544.000000, 133.000000)">
                <g id="DB-logo-with-tagline">
                    <g id="Group-24" transform="translate(0.500000, 0.000000)">
                        <path d="M7.04041935,53.1224581 C6.78480645,52.8871677 6.65745161,52.6116839 6.65745161,52.2978129 C6.65745161,52.022329 6.73603226,51.7084581 6.89319355,51.3548452 L11.5475161,40.4556194 L0.235516129,13.7666516 C0.0783548387,13.4130387 0.000225806452,13.1389097 0.000225806452,12.9415548 C0.0386129032,12.5883935 0.176806452,12.2844581 0.412548387,12.0283935 C0.64783871,11.7736839 0.942741935,11.6454258 1.29590323,11.6454258 L6.18596774,11.6454258 C6.89319355,11.6454258 7.40306452,12.0193613 7.71783871,12.7649742 L15.5542258,31.9716194 L23.5075806,12.7649742 C23.8995806,12.0193613 24.4500968,11.6454258 25.1573226,11.6454258 L29.9295161,11.6454258 C30.2826774,11.6454258 30.5775806,11.7632968 30.812871,11.9990387 C31.0490645,12.2347806 31.1664839,12.5098129 31.1664839,12.8241355 C31.1664839,13.0991677 31.0874516,13.4130387 30.9307419,13.7666516 L14.2576452,52.3565226 C13.942871,53.1025871 13.3932581,53.476071 12.6079032,53.476071 L7.89487097,53.476071 C7.57964516,53.476071 7.29558065,53.3582 7.04041935,53.1224581" id="Fill-1" fill="#FFFFFF"></path>
                        <path d="M39.0608581,39.3361613 C36.9789226,36.9796452 35.9384065,33.738871 35.9384065,29.6151935 L35.9384065,13.0595161 C35.9384065,12.6277742 36.0756968,12.2845484 36.3511806,12.0284839 C36.6253097,11.7737742 36.9595032,11.6455161 37.3524065,11.6455161 L42.6547935,11.6455161 C43.0472452,11.6455161 43.3814387,11.7837097 43.656471,12.0582903 C43.9306,12.3333226 44.0687935,12.6675161 44.0687935,13.0595161 L44.0687935,29.2615806 C44.0687935,34.0924839 46.1696968,36.5081613 50.3728581,36.5081613 C52.4146,36.5081613 54.0349871,35.8600968 55.2335677,34.5639677 C56.4312452,33.2678387 57.0305355,31.5002258 57.0305355,29.2615806 L57.0305355,13.0595161 C57.0305355,12.6277742 57.1678258,12.2845484 57.4428581,12.0284839 C57.7174387,11.7737742 58.0511806,11.6455161 58.4445355,11.6455161 L63.6882129,11.6455161 C64.1199548,11.6455161 64.4631806,11.7737742 64.7187935,12.0284839 C64.9739548,12.2845484 65.1022129,12.6277742 65.1022129,13.0595161 L65.1022129,40.8680323 C65.1022129,41.2609355 64.9739548,41.595129 64.7187935,41.8697097 C64.4631806,42.1447419 64.1199548,42.2820323 63.6882129,42.2820323 L58.7981484,42.2820323 C58.4047935,42.2820323 58.0706,42.1447419 57.796471,41.8697097 C57.5209871,41.595129 57.3841484,41.2609355 57.3841484,40.8680323 L57.3841484,38.4523548 C55.2236323,41.3982258 51.9638903,42.8713871 47.6040194,42.8713871 C43.9897613,42.8713871 41.1423419,41.6926774 39.0608581,39.3361613" id="Fill-3" fill="#FFFFFF"></path>
                        <g id="Group-7" transform="translate(71.354839, 10.985484)">
                            <mask id="mask-2" fill="white">
                                <use xlink:href="#path-1"></use>
                            </mask>
                            <g id="Clip-6"></g>
                            <path d="M20.0822774,22.6946774 C21.1815032,21.2806774 21.790729,19.5528065 21.9086,17.5101613 C21.9474387,17.1962903 21.9677613,16.5676452 21.9677613,15.6246774 C21.9677613,14.6821613 21.9474387,14.0544194 21.9086,13.7391935 C21.790729,11.6974516 21.1815032,9.96867742 20.0822774,8.55467742 C18.9821484,7.14112903 17.3328581,6.43390323 15.1335032,6.43390323 C10.8915032,6.43390323 8.65240645,9.02616129 8.41711613,14.2106774 L8.35795484,15.6246774 C8.35795484,21.7521613 10.616471,24.8159032 15.1335032,24.8159032 C17.3328581,24.8159032 18.9821484,24.1086774 20.0822774,22.6946774 M6.88524516,42.5200323 C4.72472903,41.3611935 3.19285806,40.0352581 2.28963226,38.543129 C1.38595484,37.0500968 0.934793548,35.7738387 0.934793548,34.7134516 C0.934793548,34.3205484 1.07163226,33.9962903 1.34711613,33.7415806 C1.62124516,33.4855161 1.95543871,33.3586129 2.34834194,33.3586129 L7.59201935,33.3586129 C7.94563226,33.3586129 8.24956774,33.447129 8.50563226,33.6237097 C8.76034194,33.8002903 8.96672903,34.1245484 9.12389032,34.5960323 C9.55563226,35.6166774 10.2036968,36.4900968 11.0685355,37.2176452 C11.9315677,37.9438387 13.2674387,38.3073871 15.0747935,38.3073871 C17.4308581,38.3073871 19.1591806,37.7862258 20.2593097,36.7461613 C21.3585355,35.7051935 21.9086,33.8888065 21.9086,31.2965484 L21.9086,27.2902903 C19.7878258,29.8044194 16.7832452,31.0608065 12.8944065,31.0608065 C8.80911613,31.0608065 5.73634194,29.8238387 3.67427742,27.349 C1.6122129,24.8746129 0.502148387,21.497 0.34543871,17.2157097 L0.286729032,15.6246774 L0.34543871,14.0340968 C0.502148387,9.83183871 1.62124516,6.45422581 3.70363226,3.90035484 C5.78511613,1.34783871 8.84885806,0.0711290323 12.8944065,0.0711290323 C14.9758903,0.0711290323 16.8022129,0.464032258 18.3738258,1.2493871 C19.9445355,2.03519355 21.2402129,3.09603226 22.2622129,4.431 L22.2622129,2.13319355 C22.2622129,1.70145161 22.4094387,1.34783871 22.7043419,1.07280645 C22.9987935,0.798225806 23.3420194,0.660032258 23.7353742,0.660032258 L28.5662774,0.660032258 C28.9582774,0.660032258 29.2929226,0.798225806 29.5679548,1.07280645 C29.8420839,1.34783871 29.9802774,1.70145161 29.9802774,2.13319355 L30.0394387,30.5306129 C30.0394387,34.8904839 28.8214387,38.2676452 26.3863419,40.6643548 C23.9507935,43.0592581 20.278729,44.2582903 15.3692452,44.2582903 C11.8728581,44.2582903 9.04485806,43.6779677 6.88524516,42.5200323" id="Fill-5" fill="#FFFFFF" mask="url(#mask-2)"></path>
                        </g>
                        <path d="M125.37271,35.0941161 C126.746968,33.6801161 127.434774,31.6383742 127.434774,28.9670839 L127.434774,27.7888258 L121.543032,28.7313419 C117.026,29.4385677 114.767935,30.9505677 114.767935,33.2677935 C114.767935,34.5255355 115.287742,35.4974065 116.329161,36.1843097 C117.369226,36.8721161 118.616581,37.2153419 120.070323,37.2153419 C122.229935,37.2153419 123.997548,36.5081161 125.37271,35.0941161 M112.558645,41.6632774 C110.888581,40.8589548 109.573032,39.7687613 108.611097,38.3936 C107.647806,37.0193419 107.16729,35.5068903 107.16729,33.8571484 C107.16729,31.1863097 108.247548,29.0257935 110.408065,27.3760516 C112.567677,25.7263097 115.533419,24.6072129 119.304387,24.0178581 L127.376065,22.8396 L127.376065,21.6021806 C127.376065,19.9140516 126.943419,18.6373419 126.079935,17.7729548 C125.215097,16.909471 123.840839,16.4768258 121.955806,16.4768258 C120.659226,16.4768258 119.618258,16.7125677 118.833355,17.1836 C118.046645,17.6550839 117.408968,18.1365032 116.918516,18.6274065 C116.42671,19.1187613 116.102452,19.4425677 115.946194,19.5992774 C115.788581,20.0707613 115.494129,20.3060516 115.062387,20.3060516 L110.467226,20.3060516 C110.113161,20.3060516 109.808774,20.1886323 109.553613,19.9528903 C109.298,19.7171484 109.170645,19.4032774 109.170645,19.0099226 C109.209484,18.0285677 109.690903,16.9185032 110.614,15.6815355 C111.536645,14.4441161 112.961032,13.3643097 114.885806,12.4407613 C116.809677,11.5185677 119.186516,11.0565677 122.014516,11.0565677 C126.648968,11.0565677 130.027032,12.0975355 132.148258,14.1790194 C134.269032,16.2614065 135.329419,18.9909548 135.329419,22.3681161 L135.329419,40.8679871 C135.329419,41.2608903 135.201613,41.5955355 134.946452,41.8696645 C134.690387,42.1446968 134.347161,42.2819871 133.915419,42.2819871 L129.025355,42.2819871 C128.632452,42.2819871 128.298258,42.1446968 128.024129,41.8696645 C127.748645,41.5955355 127.611355,41.2608903 127.611355,40.8679871 L127.611355,38.5701806 C126.746968,39.827471 125.528968,40.8589548 123.95871,41.6632774 C122.387548,42.4680516 120.423935,42.8713419 118.067419,42.8713419 C116.064065,42.8713419 114.227355,42.4680516 112.558645,41.6632774" id="Fill-8" fill="#FFFFFF"></path>
                        <path d="M164.374587,28.7311613 C164.413426,28.3391613 164.433748,27.7498065 164.433748,26.9635484 C164.433748,26.1786452 164.413426,25.5892903 164.374587,25.1963871 C164.099555,20.0114194 161.860458,17.4196129 157.6582,17.4196129 C155.497684,17.4196129 153.847942,18.1069677 152.709426,19.4816774 C151.569555,20.8568387 150.961232,22.5255484 150.882652,24.4891613 C150.843361,24.9606452 150.823942,25.7265806 150.823942,26.7869677 C150.823942,27.8089677 150.843361,28.5545806 150.882652,29.0256129 C150.961232,31.108 151.550587,32.8756129 152.650265,34.3284516 C153.74949,35.7817419 155.419103,36.5083871 157.6582,36.5083871 C161.860458,36.5083871 164.099555,33.9156774 164.374587,28.7311613 M150.52949,38.687871 L150.52949,40.8682581 C150.52949,41.2611613 150.391297,41.5953548 150.117168,41.8694839 C149.841684,42.1449677 149.488071,42.2818065 149.056329,42.2818065 L144.343297,42.2818065 C143.949942,42.2818065 143.615748,42.1449677 143.341619,41.8694839 C143.066587,41.5953548 142.929297,41.2611613 142.929297,40.8682581 L142.929297,1.8656129 C142.929297,1.43387097 143.066587,1.09019355 143.341619,0.834580645 C143.615748,0.579419355 143.949942,0.451612903 144.343297,0.451612903 L149.469103,0.451612903 C149.900845,0.451612903 150.244071,0.579419355 150.499684,0.834580645 C150.754845,1.09019355 150.882652,1.43387097 150.882652,1.8656129 L150.882652,14.9447742 C153.082006,12.3525161 156.086587,11.0563871 159.896845,11.0563871 C163.863813,11.0563871 166.917168,12.3434839 169.058716,14.9154194 C171.19891,17.4882581 172.328394,20.8568387 172.446265,25.0193548 C172.484652,25.4908387 172.504974,26.1389032 172.504974,26.9635484 C172.504974,27.7498065 172.484652,28.397871 172.446265,28.9081935 C172.288652,33.1501935 171.149684,36.5377419 169.02891,39.0712903 C166.908135,41.6043871 163.863813,42.8711613 159.896845,42.8711613 C155.811555,42.8711613 152.689103,41.4774839 150.52949,38.687871" id="Fill-10" fill="#FFFFFF"></path>
                        <path d="M182.550471,53.1224581 C182.294858,52.8871677 182.167503,52.6116839 182.167503,52.2978129 C182.167503,52.022329 182.245632,51.7084581 182.403245,51.3548452 L187.057568,40.4556194 L175.745568,13.7666516 C175.588406,13.4130387 175.509826,13.1389097 175.509826,12.9415548 C175.548665,12.5883935 175.686858,12.2844581 175.9226,12.0283935 C176.15789,11.7736839 176.452794,11.6454258 176.805955,11.6454258 L181.696019,11.6454258 C182.403245,11.6454258 182.913116,12.0193613 183.22789,12.7649742 L191.063826,31.9716194 L199.017632,12.7649742 C199.409632,12.0193613 199.960148,11.6454258 200.667374,11.6454258 L205.439568,11.6454258 C205.792729,11.6454258 206.087632,11.7632968 206.322923,11.9990387 C206.559116,12.2347806 206.676535,12.5098129 206.676535,12.8241355 C206.676535,13.0991677 206.597503,13.4130387 206.440794,13.7666516 L189.767697,52.3565226 C189.452923,53.1025871 188.90331,53.476071 188.117955,53.476071 L183.404923,53.476071 C183.089697,53.476071 182.805632,53.3582 182.550471,53.1224581" id="Fill-12" fill="#FFFFFF"></path>
                        <g id="Group-16" transform="translate(208.645161, 0.146774)">
                            <mask id="mask-4" fill="white">
                                <use xlink:href="#path-3"></use>
                            </mask>
                            <g id="Clip-15"></g>
                            <path d="M8.93069032,39.3366581 C7.1237871,37.4714968 6.22056129,34.7320129 6.22056129,31.1177548 L6.22056129,17.8028516 L1.5657871,17.8028516 C1.17288387,17.8028516 0.839141935,17.6655613 0.56456129,17.390529 C0.289077419,17.1159484 0.15223871,16.7817548 0.15223871,16.3888516 L0.15223871,12.9127871 C0.15223871,12.5207871 0.289077419,12.1865935 0.56456129,11.9111097 C0.839141935,11.6369806 1.17288387,11.4987871 1.5657871,11.4987871 L6.22056129,11.4987871 L6.22056129,1.71865806 C6.22056129,1.28691613 6.3574,0.943690323 6.63288387,0.687625806 C6.90746452,0.432464516 7.24120645,0.304658065 7.63456129,0.304658065 L12.5246258,0.304658065 C12.9563677,0.304658065 13.2995935,0.432464516 13.5556581,0.687625806 C13.8103677,0.943690323 13.9381742,1.28691613 13.9381742,1.71865806 L13.9381742,11.4987871 L21.3030774,11.4987871 C21.6950774,11.4987871 22.029271,11.6369806 22.3043032,11.9111097 C22.5788839,12.1865935 22.7170774,12.5207871 22.7170774,12.9127871 L22.7170774,16.3888516 C22.7170774,16.7817548 22.5788839,17.1159484 22.3043032,17.390529 C22.029271,17.6655613 21.6950774,17.8028516 21.3030774,17.8028516 L13.9381742,17.8028516 L13.9381742,30.4696903 C13.9381742,32.1591742 14.2330774,33.4358839 14.8219806,34.2993677 C15.4113355,35.1637548 16.373271,35.5954968 17.7091419,35.5954968 L21.833271,35.5954968 C22.2650129,35.5954968 22.6082387,35.7237548 22.8647548,35.9784645 C23.1194645,36.234529 23.247271,36.5777548 23.247271,37.0094968 L23.247271,40.7213032 C23.247271,41.1142065 23.1194645,41.4484 22.8647548,41.7229806 C22.6082387,41.9980129 22.2650129,42.1353032 21.833271,42.1353032 L17.0023677,42.1353032 C13.4278516,42.1353032 10.7366903,41.2027226 8.93069032,39.3366581" id="Fill-14" fill="#FFFFFF" mask="url(#mask-4)"></path>
                        </g>
                        <path d="M256.813697,24.2536452 L256.813697,24.1357742 C256.813697,21.8185484 256.233826,19.962871 255.07589,18.5682903 C253.9166,17.1746129 252.335955,16.476871 250.333052,16.476871 C248.330148,16.476871 246.758535,17.1746129 245.619568,18.5682903 C244.480148,19.962871 243.911116,21.8185484 243.911116,24.1357742 L243.911116,24.2536452 L256.813697,24.2536452 Z M239.934665,39.1004194 C237.361374,36.5876452 235.996148,33.013129 235.83989,28.3777742 L235.780729,26.9050645 C235.780729,21.9955806 237.066471,18.1266129 239.639761,15.2981613 C242.211697,12.4706129 245.776277,11.0566129 250.333052,11.0566129 C255.006794,11.0566129 258.610665,12.4706129 261.144213,15.2981613 C263.67731,18.1266129 264.944084,21.897129 264.944084,26.6101613 L264.944084,27.8475806 C264.944084,28.2404839 264.806342,28.5746774 264.531761,28.8492581 C264.256729,29.1242903 263.903116,29.2615806 263.471374,29.2615806 L243.911116,29.2615806 L243.911116,29.7326129 C243.989697,31.932871 244.588987,33.7492581 245.708084,35.1826774 C246.827632,36.6165484 248.368535,37.3328065 250.333052,37.3328065 C252.571697,37.3328065 254.398471,36.4300323 255.812471,34.6226774 C256.165632,34.1909355 256.439761,33.9258387 256.637116,33.8273871 C256.833116,33.7298387 257.16731,33.6801613 257.638794,33.6801613 L262.82331,33.6801613 C263.176923,33.6801613 263.480406,33.7786129 263.736471,33.9746129 C263.991632,34.1715161 264.119439,34.4460968 264.119439,34.7997097 C264.119439,35.7422258 263.55989,36.8522903 262.440342,38.1285484 C261.320794,39.4052581 259.720277,40.5144194 257.638794,41.4569355 C255.556406,42.3999032 253.140729,42.8713871 250.392213,42.8713871 C245.993052,42.8713871 242.5066,41.6145484 239.934665,39.1004194 L239.934665,39.1004194 Z" id="Fill-17" fill="#FFFFFF"></path>
                        <path d="M289.581194,33.4446452 C292.055581,33.4446452 293.881903,32.8552903 295.060161,31.6770323 C296.238871,30.4987742 296.866161,28.6132903 296.945645,26.0210323 C297.023774,24.8825161 297.063516,23.4093548 297.063516,21.6024516 C297.063516,19.796 297.023774,18.3427097 296.945645,17.2425806 C296.866161,14.7293548 296.188742,12.8736774 294.912935,11.6750968 C293.636226,10.4774194 291.761129,9.87812903 289.286742,9.87812903 L283.689452,9.87812903 L283.689452,33.4446452 L289.581194,33.4446452 Z M273.054871,41.840129 C272.760419,41.5452258 272.613194,41.202 272.613194,40.8090968 L272.613194,2.5723871 C272.613194,2.14064516 272.750484,1.77709677 273.025968,1.48264516 C273.300097,1.18774194 273.653258,1.04096774 274.085903,1.04096774 L289.581194,1.04096774 C295.393903,1.04096774 299.910935,2.42516129 303.131839,5.19445161 C306.351839,7.96329032 308.040871,11.9401935 308.198484,17.1247097 C308.237323,18.2645806 308.257645,19.776129 308.257645,21.6611613 C308.257645,23.5466452 308.237323,25.0396774 308.198484,26.1389032 C307.805581,36.9012903 301.697516,42.2818065 289.875645,42.2818065 L274.085903,42.2818065 C273.693,42.2818065 273.349774,42.1345806 273.054871,41.840129 L273.054871,41.840129 Z" id="Fill-19" fill="#FF6E42"></path>
                        <g id="Group-23" transform="translate(314.774194, 0.598387)">
                            <mask id="mask-6" fill="white">
                                <use xlink:href="#path-5"></use>
                            </mask>
                            <g id="Clip-22"></g>
                            <path d="M19.170471,33.7298839 C20.7023419,33.7298839 21.8896323,33.2877548 22.7350516,32.4044 C23.5791161,31.5205935 24.0018258,30.4304 24.0018258,29.134271 C24.0018258,27.7997548 23.568729,26.6896903 22.7056968,25.8058839 C21.8408581,24.9220774 20.6626,24.4804 19.170471,24.4804 L11.2758258,24.4804 L11.2758258,33.7298839 L19.170471,33.7298839 Z M18.6402774,16.7618839 C20.0926645,16.7618839 21.2122129,16.3698839 21.998471,15.5836258 C22.7833742,14.7987226 23.1771806,13.7776258 23.1771806,12.5203355 C23.1771806,11.3032387 22.7937613,10.3110452 22.0282774,9.54465806 C21.2618903,8.77872258 20.1324065,8.39575484 18.6402774,8.39575484 L11.2758258,8.39575484 L11.2758258,16.7618839 L18.6402774,16.7618839 Z M0.641245161,41.2415613 C0.346793548,40.9471097 0.199567742,40.6038839 0.199567742,40.2109806 L0.199567742,1.97427097 C0.199567742,1.54252903 0.336406452,1.17852903 0.611890323,0.884077419 C0.886470968,0.589625806 1.23963226,0.4424 1.67227742,0.4424 L19.8772452,0.4424 C24.8648581,0.4424 28.5771161,1.46394839 31.0126645,3.50614194 C33.4473097,5.5487871 34.6657613,8.45491613 34.6657613,12.2254323 C34.6657613,14.1109161 34.164471,15.7412387 33.1632452,17.1154968 C32.1615677,18.4906581 31.0515032,19.4923355 29.8344065,20.1200774 C31.4444065,20.8273032 32.7992452,21.996529 33.8993742,23.6259484 C34.9986,25.256271 35.5495677,27.092529 35.5495677,29.134271 C35.5495677,33.1021419 34.2430516,36.1853032 31.6313742,38.3842065 C29.0187935,40.5844645 25.2776323,41.6836903 20.4078903,41.6836903 L1.67227742,41.6836903 C1.27937419,41.6836903 0.936148387,41.5364645 0.641245161,41.2415613 L0.641245161,41.2415613 Z" id="Fill-21" fill="#FF6E42" mask="url(#mask-6)"></path>
                        </g>
                    </g>
                </g>
            </g>
        </g>
    </g>
</svg>