<svg xmlns="http://www.w3.org/2000/svg" viewBox="0 0 1773.15 461.37"><defs><style>.cls-1{fill:#fff;}.cls-2{fill:#ff6e42;}</style></defs><title>ybdb-1903</title><g id="Layer_2" data-name="Layer 2"><g id="Layer_1-2" data-name="Layer 1"><path class="cls-1" d="M22.61,0,90.75,112.18,159.46,0h22.32L101,131V208.5H80.46V130.39L0,0Z"/><path class="cls-1" d="M237.58,211.44q-25,0-37.15-16.59t-12.19-49.49V55.5h20v86.34q0,52,35.53,52a52.5,52.5,0,0,0,17.33-2.94,54.36,54.36,0,0,0,15.71-8.51,69,69,0,0,0,12.92-13.22A66.51,66.51,0,0,0,299,151.83V55.5h20V182.66c0,5.49,2.35,8.22,7.05,8.22V208.5a36.67,36.67,0,0,1-5.73.59h-3.08a16,16,0,0,1-11.45-5c-2.94-3.13-4.41-7.35-4.41-12.63V173.85a71.17,71.17,0,0,1-27.17,27.75A72.36,72.36,0,0,1,237.58,211.44Z"/><path class="cls-1" d="M425.52,210.56A63.26,63.26,0,0,1,396.59,204,74.4,74.4,0,0,1,374,186.48a80,80,0,0,1-14.83-25,82.24,82.24,0,0,1-5.28-29.07,90.4,90.4,0,0,1,5.13-30.4,78.21,78.21,0,0,1,14.54-25.4A70.93,70.93,0,0,1,396,59.32a64.4,64.4,0,0,1,28.92-6.46q19.68,0,34.07,9.84a94.48,94.48,0,0,1,24.66,24.81v-32h17.92V209.09q0,15.85-6,28a60.43,60.43,0,0,1-16.15,20.41,68.82,68.82,0,0,1-23.79,12.33A99.86,99.86,0,0,1,426.69,274q-26.43,0-42.58-9.4A75,75,0,0,1,358,239.34l12.34-9.69a55,55,0,0,0,24.08,21.58,76.24,76.24,0,0,0,32.3,6.91,71.18,71.18,0,0,0,21.15-3.09,52.26,52.26,0,0,0,17.47-9.1,43,43,0,0,0,11.89-15.28q4.41-9.24,4.41-21.58V178.85a63.75,63.75,0,0,1-24.08,23.2A64.76,64.76,0,0,1,425.52,210.56Zm5.58-16.74a48.4,48.4,0,0,0,17.33-3.23,58,58,0,0,0,15.41-8.66,56.53,56.53,0,0,0,11.6-12.19,37.6,37.6,0,0,0,6.17-13.8V108.66a59.66,59.66,0,0,0-8.81-15.27,61.16,61.16,0,0,0-12.63-12,63.47,63.47,0,0,0-15.12-7.93,47.38,47.38,0,0,0-16.3-2.94,48,48,0,0,0-23.05,5.43,55.07,55.07,0,0,0-17.18,14.25,63.34,63.34,0,0,0-10.72,20,71.83,71.83,0,0,0-3.67,22.61,63.33,63.33,0,0,0,4.4,23.49,61.59,61.59,0,0,0,12.19,19.53A58.16,58.16,0,0,0,408.78,189,51.53,51.53,0,0,0,431.1,193.82Z"/><path class="cls-1" d="M584.1,211.44A54,54,0,0,1,564,207.77a50.65,50.65,0,0,1-16.15-10.13,45.67,45.67,0,0,1-14.54-33.78,37.75,37.75,0,0,1,4.7-18.5,44.8,44.8,0,0,1,13.22-14.68,64.61,64.61,0,0,1,20.26-9.54,93.37,93.37,0,0,1,25.84-3.38,141.28,141.28,0,0,1,23.79,2.06,103.45,103.45,0,0,1,21.44,5.87v-13.8q0-20.26-11.46-32.16T599.37,67.84a67.44,67.44,0,0,0-24.08,4.7,115.37,115.37,0,0,0-25,13.51l-7.05-13.22q29.65-20,57.56-20,28.77,0,45.22,16.15t16.45,44.64v69c0,5.49,2.44,8.22,7.34,8.22V208.5a47.36,47.36,0,0,1-7.64.88q-7.63,0-11.89-3.81T645.77,195l-.59-12A69.38,69.38,0,0,1,618.6,204.1,81.81,81.81,0,0,1,584.1,211.44Zm4.7-15.27a69,69,0,0,0,28.63-5.87q13.07-5.88,19.82-15.57a18.34,18.34,0,0,0,4-5.72,14.68,14.68,0,0,0,1.32-5.73v-25a122.11,122.11,0,0,0-20.7-5.87A116.17,116.17,0,0,0,600,130.39q-21.13,0-34.35,8.81t-13.22,23.2a31.65,31.65,0,0,0,2.79,13.21,33.37,33.37,0,0,0,7.64,10.72,35.73,35.73,0,0,0,11.6,7.2A39.13,39.13,0,0,0,588.8,196.17Z"/><path class="cls-1" d="M866.6,154.76a49.47,49.47,0,0,1-4.7,21.59,54.48,54.48,0,0,1-12.62,17,57,57,0,0,1-18.5,11.16,64,64,0,0,1-22.62,4H709.79V0H810.22a41.15,41.15,0,0,1,19.67,4.7,48.9,48.9,0,0,1,15,12.19,55.62,55.62,0,0,1,9.54,17,57.08,57.08,0,0,1,3.38,19.24,54.71,54.71,0,0,1-7.92,28.92,49.07,49.07,0,0,1-22,19.53,52.11,52.11,0,0,1,28.34,19.67Q866.59,135.68,866.6,154.76ZM730.34,17.91v77H802a32.06,32.06,0,0,0,14.25-3.23,36.58,36.58,0,0,0,11.31-8.52,39.62,39.62,0,0,0,7.34-12.19,40.31,40.31,0,0,0,2.64-14.54,44.63,44.63,0,0,0-2.5-15,36.59,36.59,0,0,0-7-12.19A35.48,35.48,0,0,0,817.27,21a29.74,29.74,0,0,0-13.51-3.09ZM846.05,151.24a42.52,42.52,0,0,0-2.65-14.83A38.59,38.59,0,0,0,824.46,115a30.84,30.84,0,0,0-14.24-3.38H730.34v79h77.82A34.44,34.44,0,0,0,823,187.36a39.42,39.42,0,0,0,12-8.66,40.44,40.44,0,0,0,8.08-12.63A38.87,38.87,0,0,0,846.05,151.24Z"/><path class="cls-1" d="M908.6,255.49c1.56.19,3.08.34,4.54.44s2.89.15,4.27.15a19.7,19.7,0,0,0,8.36-1.47q3.09-1.47,6-6.46a105.64,105.64,0,0,0,6.61-14.39q3.68-9.4,10.42-25.26l-66.66-153h20.56L959.4,190,1012,55.5h19.09L951.76,252.85A36,36,0,0,1,941,267.68q-7.49,6.3-20.41,6.31c-2,0-3.82-.05-5.58-.14s-3.92-.35-6.45-.74Z"/><path class="cls-1" d="M1132.37,201.16c-1.18.59-2.9,1.38-5.14,2.35s-4.85,2-7.78,2.94a91.08,91.08,0,0,1-10,2.64,57.17,57.17,0,0,1-11.75,1.17,42.44,42.44,0,0,1-12.33-1.76,28.63,28.63,0,0,1-10.28-5.43,26.73,26.73,0,0,1-7-9.25,29.9,29.9,0,0,1-2.64-12.92V71.36h-21.14V55.5h21.14V3.82h20V55.5h35.24V71.36h-35.24v104q.58,8.52,6,12.48a20.56,20.56,0,0,0,12.48,4,37.35,37.35,0,0,0,15-2.79,66.06,66.06,0,0,0,8.22-4Z"/><path class="cls-1" d="M1219.59,211.44a73.55,73.55,0,0,1-30.69-6.31,75.23,75.23,0,0,1-24.23-17.33,80.53,80.53,0,0,1-16-25.4,82.57,82.57,0,0,1-5.73-30.84,80.69,80.69,0,0,1,5.73-30.39,78.6,78.6,0,0,1,15.86-25,75.27,75.27,0,0,1,24.22-17,77.42,77.42,0,0,1,61.23,0,73.11,73.11,0,0,1,23.94,17.19,80.68,80.68,0,0,1,21.14,54.91V136a12.1,12.1,0,0,1-.29,3.23h-131a64.49,64.49,0,0,0,5.73,22.76A62.55,62.55,0,0,0,1182,180a55.9,55.9,0,0,0,17.47,11.89,52.29,52.29,0,0,0,21,4.26,53.9,53.9,0,0,0,14.68-2.06,59.36,59.36,0,0,0,13.51-5.57,50.55,50.55,0,0,0,11.16-8.67,37.26,37.26,0,0,0,7.63-11.31l17.33,4.7a50.86,50.86,0,0,1-10,15.42,69.57,69.57,0,0,1-15,12,73.26,73.26,0,0,1-18.79,7.93A81.53,81.53,0,0,1,1219.59,211.44ZM1276,123.93a61.72,61.72,0,0,0-5.73-22.47A61,61,0,0,0,1257.91,84a54.64,54.64,0,0,0-17.32-11.45,53.93,53.93,0,0,0-21-4.11,55,55,0,0,0-21.15,4.11A54.21,54.21,0,0,0,1181,84a56.22,56.22,0,0,0-12,17.62,66.37,66.37,0,0,0-5.43,22.32Z"/><path class="cls-2" d="M1394.91,208.5V0h75.77q25.54,0,44.78,8.22A90,90,0,0,1,1567,63.58a124.19,124.19,0,0,1,6.46,40.38q0,23.79-7.19,43a91.88,91.88,0,0,1-20.71,32.89A93.41,93.41,0,0,1,1513.11,201q-18.93,7.48-42.43,7.48ZM1532.64,104a88.66,88.66,0,0,0-4.11-27.6,61.7,61.7,0,0,0-12-21.74A53.68,53.68,0,0,0,1497,40.53a65.86,65.86,0,0,0-26.28-5h-35.24V173h35.24q15,0,26.57-5.29a54.17,54.17,0,0,0,19.38-14.53,64.64,64.64,0,0,0,11.9-21.88A87.76,87.76,0,0,0,1532.64,104Z"/><path class="cls-2" d="M1773.15,154.76q0,13.22-5.28,23.2a48.7,48.7,0,0,1-14.54,16.74A68,68,0,0,1,1731.89,205a93.11,93.11,0,0,1-26,3.52H1605.18V0h111.59a41.15,41.15,0,0,1,19.67,4.7,48.9,48.9,0,0,1,15,12.19,56.07,56.07,0,0,1,9.55,17,57.56,57.56,0,0,1,3.37,19.24,56.87,56.87,0,0,1-7.63,28.63,46.49,46.49,0,0,1-22.32,19.82q17.91,5.28,28.34,18.94T1773.15,154.76ZM1645.7,34.66V87.22h54a24,24,0,0,0,17.47-7q7.18-7,7.19-19.38,0-12-6.61-19.09a21.42,21.42,0,0,0-16.29-7Zm86.63,112.47a30.62,30.62,0,0,0-1.91-10.72,29.61,29.61,0,0,0-5.14-9,24,24,0,0,0-7.63-6,21.33,21.33,0,0,0-9.69-2.2H1645.7v54.92h60.2a26.45,26.45,0,0,0,10.43-2.06,25,25,0,0,0,8.37-5.73,27.83,27.83,0,0,0,7.63-19.23Z"/><path class="cls-1" d="M274.49,404.28h28.38V415.5H274.49Z"/><path class="cls-1" d="M448.51,371.45a35.48,35.48,0,0,1,14.35,13.64,38.79,38.79,0,0,1,5.12,20,38.22,38.22,0,0,1-5.23,20,36.12,36.12,0,0,1-14.57,13.64,45.39,45.39,0,0,1-21.34,4.89h-32v-77H427.5A44.13,44.13,0,0,1,448.51,371.45Zm-9.08,54.45a21,21,0,0,0,8-8.42,26,26,0,0,0,2.86-12.32,25.34,25.34,0,0,0-3-12.43,21.75,21.75,0,0,0-8.25-8.52,23.11,23.11,0,0,0-11.82-3h-15v47.74h15.73A22.2,22.2,0,0,0,439.43,425.9Z"/><path class="cls-1" d="M479.42,366.55H496.8v77H479.42Z"/><path class="cls-1" d="M552,382.23a38.2,38.2,0,0,0-11.38-2.15,13.39,13.39,0,0,0-7.15,1.65,5.36,5.36,0,0,0-2.64,4.84,6.77,6.77,0,0,0,3.79,6.22,58.7,58.7,0,0,0,11.72,4.45,101.13,101.13,0,0,1,13,4.62,23.13,23.13,0,0,1,8.75,6.93q3.63,4.62,3.63,12.21a21,21,0,0,1-3.91,12.71,24.1,24.1,0,0,1-10.72,8.08,41.28,41.28,0,0,1-15.51,2.75,53,53,0,0,1-18.37-3.3,49.39,49.39,0,0,1-15.62-9L514.51,418a46.62,46.62,0,0,0,13.42,8.47,36.07,36.07,0,0,0,13.86,3.19q5.38,0,8.41-2a6.9,6.9,0,0,0,1-10.61A15.57,15.57,0,0,0,546,414q-3.13-1.2-8.63-2.75a97.14,97.14,0,0,1-12.93-4.4,22.6,22.6,0,0,1-8.63-6.71q-3.63-4.5-3.63-12A20.27,20.27,0,0,1,515.94,376a23.63,23.63,0,0,1,10.45-8A40.25,40.25,0,0,1,542,365.12a54.12,54.12,0,0,1,15.62,2.31,53.12,53.12,0,0,1,13.64,6.16L564.56,388A58.41,58.41,0,0,0,552,382.23Z"/><path class="cls-1" d="M576.32,366.55h64.35v14.74H617.13v62.26H599.75V381.29H576.32Z"/><path class="cls-1" d="M697.32,443.55l-12.21-22H667.4v22H650v-77h33.44q15.07,0,23.32,7T715,393.28a29.76,29.76,0,0,1-3.68,15.24,23.69,23.69,0,0,1-10.73,9.62L717,443.55ZM667.4,407h16.06q7.26,0,11.17-3.35t3.9-9.85q0-6.37-3.9-9.62T683.46,381H667.4Z"/><path class="cls-1" d="M729.66,366.55H747v77H729.66Z"/><path class="cls-1" d="M819.64,371.72A16.3,16.3,0,0,1,827,385.8a16.92,16.92,0,0,1-3.57,10.73,17.84,17.84,0,0,1-9.74,6.21,18.87,18.87,0,0,1,16.06,19.47A18.32,18.32,0,0,1,822,437.83q-7.8,5.73-21.23,5.72H764.09v-77h35.42Q812.28,366.55,819.64,371.72Zm-13.25,23.6a7.66,7.66,0,0,0,2.8-6.33,7.38,7.38,0,0,0-2.8-6.16q-2.8-2.19-7.76-2.09H781.47v16.83h17.16Q803.58,397.57,806.39,395.32Zm1.92,31.57a7.93,7.93,0,0,0,3.52-6.88,7.61,7.61,0,0,0-3.52-6.6q-3.51-2.42-9.68-2.31H781.47v18.26h17.16Q804.8,429.36,808.31,426.89Z"/><path class="cls-1" d="M863.15,424.8q4.67,4.79,12.48,4.78,7.59,0,12.1-4.73t4.51-13.09V366.55h17.38v45.21a35.58,35.58,0,0,1-4.12,17.55,28.09,28.09,0,0,1-11.83,11.44,38.81,38.81,0,0,1-18.15,4,39.5,39.5,0,0,1-18.26-4,28.25,28.25,0,0,1-12-11.44,35.17,35.17,0,0,1-4.18-17.55V366.55h17.38v45.21Q858.47,420,863.15,424.8Z"/><path class="cls-1" d="M917.65,366.55H982v14.74H958.46v62.26H941.08V381.29H917.65Z"/><path class="cls-1" d="M991.35,366.55H1050V381h-41.25v16.72h37.07v14.41h-37.07v17.05h42.46v14.41H991.35Z"/><path class="cls-1" d="M1118.51,371.45a35.5,35.5,0,0,1,14.36,13.64,38.78,38.78,0,0,1,5.11,20,38.21,38.21,0,0,1-5.22,20,36.21,36.21,0,0,1-14.58,13.64,45.36,45.36,0,0,1-21.34,4.89h-32v-77h32.67A44.1,44.1,0,0,1,1118.51,371.45Zm-9.07,54.45a21,21,0,0,0,8-8.42,25.83,25.83,0,0,0,2.86-12.32,25.44,25.44,0,0,0-3-12.43,21.75,21.75,0,0,0-8.25-8.52,23.17,23.17,0,0,0-11.83-3h-15v47.74h15.73A22.24,22.24,0,0,0,1109.44,425.9Z"/><path class="cls-1" d="M1213.27,382.23a38.14,38.14,0,0,0-11.38-2.15,13.39,13.39,0,0,0-7.15,1.65,5.36,5.36,0,0,0-2.64,4.84,6.77,6.77,0,0,0,3.79,6.22,58.7,58.7,0,0,0,11.72,4.45,101.13,101.13,0,0,1,13,4.62,23.13,23.13,0,0,1,8.75,6.93Q1233,413.41,1233,421a20.89,20.89,0,0,1-3.91,12.71,24,24,0,0,1-10.72,8.08,41.28,41.28,0,0,1-15.51,2.75,53.09,53.09,0,0,1-18.37-3.3,49.5,49.5,0,0,1-15.62-9l6.93-14.19a46.75,46.75,0,0,0,13.42,8.47,36.07,36.07,0,0,0,13.86,3.19c3.59,0,6.4-.66,8.41-2a6.9,6.9,0,0,0,1-10.61,15.47,15.47,0,0,0-5.17-3.14c-2.09-.8-5-1.72-8.63-2.75a97.14,97.14,0,0,1-12.93-4.4,22.68,22.68,0,0,1-8.63-6.71q-3.63-4.5-3.63-12a20.34,20.34,0,0,1,3.74-12.15,23.68,23.68,0,0,1,10.45-8,40.25,40.25,0,0,1,15.62-2.81,54.07,54.07,0,0,1,15.62,2.31,53.12,53.12,0,0,1,13.64,6.16L1225.87,388A58.41,58.41,0,0,0,1213.27,382.23Z"/><path class="cls-1" d="M1326.52,452.9a32.85,32.85,0,0,1-10.29,6.22,32,32,0,0,1-11.49,2.25,24.27,24.27,0,0,1-14-4.34,33.54,33.54,0,0,1-10.5-12.27,42.66,42.66,0,0,1-20.68-5.5,39.33,39.33,0,0,1,.49-68.75,45.4,45.4,0,0,1,42.08,0,39.39,39.39,0,0,1-5.61,71.61q5,5.5,10.23,5.5A15.55,15.55,0,0,0,1313,446a38.31,38.31,0,0,0,7.26-4.46Zm-65.73-35.53a24.75,24.75,0,0,0,8.69,8.91,22.4,22.4,0,0,0,11.83,3.3,22.12,22.12,0,0,0,11.71-3.24,23.64,23.64,0,0,0,8.47-8.91,25.37,25.37,0,0,0,3.14-12.49,24.84,24.84,0,0,0-3.14-12.32,23.62,23.62,0,0,0-8.47-8.85,22,22,0,0,0-11.71-3.25,22.88,22.88,0,0,0-11.88,3.25,23.59,23.59,0,0,0-8.69,8.85,25.42,25.42,0,0,0,0,24.75Z"/><path class="cls-1" d="M1334.55,366.55h17.38v61.82h33v15.18h-50.38Z"/><path class="cls-1" d="M1470.28,404.28h28.38V415.5h-28.38Z"/></g></g></svg>