<svg xmlns="http://www.w3.org/2000/svg" viewBox="0 0 1773.15 415.24"><defs><style>.cls-1{fill:#fff;}.cls-2{fill:#ff6e42;}</style></defs><title>ybdb-logo-home</title><g id="Layer_2" data-name="Layer 2"><g id="Layer_1-2" data-name="Layer 1"><path class="cls-1" d="M22.61,0,90.75,112.18,159.46,0h22.32L101,131V208.5H80.46V130.39L0,0Z"/><path class="cls-1" d="M237.58,211.44q-25,0-37.15-16.59t-12.19-49.49V55.5h20v86.34q0,52,35.53,52a52.5,52.5,0,0,0,17.33-2.94,54.36,54.36,0,0,0,15.71-8.51,69,69,0,0,0,12.92-13.22A66.51,66.51,0,0,0,299,151.83V55.5h20V182.66c0,5.49,2.35,8.22,7.05,8.22V208.5a36.67,36.67,0,0,1-5.73.59h-3.08a16,16,0,0,1-11.45-5c-2.94-3.13-4.41-7.35-4.41-12.63V173.85a71.17,71.17,0,0,1-27.17,27.75A72.36,72.36,0,0,1,237.58,211.44Z"/><path class="cls-1" d="M425.52,210.56A63.26,63.26,0,0,1,396.59,204,74.4,74.4,0,0,1,374,186.48a80,80,0,0,1-14.83-25,82.24,82.24,0,0,1-5.28-29.07,90.4,90.4,0,0,1,5.13-30.4,78.21,78.21,0,0,1,14.54-25.4A70.93,70.93,0,0,1,396,59.32a64.4,64.4,0,0,1,28.92-6.46q19.68,0,34.07,9.84a94.48,94.48,0,0,1,24.66,24.81v-32h17.92V209.09q0,15.85-6,28a60.43,60.43,0,0,1-16.15,20.41,68.82,68.82,0,0,1-23.79,12.33A99.86,99.86,0,0,1,426.69,274q-26.43,0-42.58-9.4A75,75,0,0,1,358,239.34l12.34-9.69a55,55,0,0,0,24.08,21.58,76.24,76.24,0,0,0,32.3,6.91,71.18,71.18,0,0,0,21.15-3.09,52.26,52.26,0,0,0,17.47-9.1,43,43,0,0,0,11.89-15.28q4.41-9.24,4.41-21.58V178.85a63.75,63.75,0,0,1-24.08,23.2A64.76,64.76,0,0,1,425.52,210.56Zm5.58-16.74a48.4,48.4,0,0,0,17.33-3.23,58,58,0,0,0,15.41-8.66,56.53,56.53,0,0,0,11.6-12.19,37.6,37.6,0,0,0,6.17-13.8V108.66a59.66,59.66,0,0,0-8.81-15.27,61.16,61.16,0,0,0-12.63-12,63.47,63.47,0,0,0-15.12-7.93,47.38,47.38,0,0,0-16.3-2.94,48,48,0,0,0-23.05,5.43,55.07,55.07,0,0,0-17.18,14.25,63.34,63.34,0,0,0-10.72,20,71.83,71.83,0,0,0-3.67,22.61,63.33,63.33,0,0,0,4.4,23.49,61.59,61.59,0,0,0,12.19,19.53A58.16,58.16,0,0,0,408.78,189,51.53,51.53,0,0,0,431.1,193.82Z"/><path class="cls-1" d="M584.1,211.44A54,54,0,0,1,564,207.77a50.65,50.65,0,0,1-16.15-10.13,45.67,45.67,0,0,1-14.54-33.78,37.75,37.75,0,0,1,4.7-18.5,44.8,44.8,0,0,1,13.22-14.68,64.61,64.61,0,0,1,20.26-9.54,93.37,93.37,0,0,1,25.84-3.38,141.28,141.28,0,0,1,23.79,2.06,103.45,103.45,0,0,1,21.44,5.87v-13.8q0-20.26-11.46-32.16T599.37,67.84a67.44,67.44,0,0,0-24.08,4.7,115.37,115.37,0,0,0-25,13.51l-7.05-13.22q29.65-20,57.56-20,28.77,0,45.22,16.15t16.45,44.64v69c0,5.49,2.44,8.22,7.34,8.22V208.5a47.36,47.36,0,0,1-7.64.88q-7.63,0-11.89-3.81T645.77,195l-.59-12A69.38,69.38,0,0,1,618.6,204.1,81.81,81.81,0,0,1,584.1,211.44Zm4.7-15.27a69,69,0,0,0,28.63-5.87q13.07-5.88,19.82-15.57a18.34,18.34,0,0,0,4-5.72,14.68,14.68,0,0,0,1.32-5.73v-25a122.11,122.11,0,0,0-20.7-5.87A116.17,116.17,0,0,0,600,130.39q-21.13,0-34.35,8.81t-13.22,23.2a31.65,31.65,0,0,0,2.79,13.21,33.37,33.37,0,0,0,7.64,10.72,35.73,35.73,0,0,0,11.6,7.2A39.13,39.13,0,0,0,588.8,196.17Z"/><path class="cls-1" d="M866.6,154.76a49.47,49.47,0,0,1-4.7,21.59,54.48,54.48,0,0,1-12.62,17,57,57,0,0,1-18.5,11.16,64,64,0,0,1-22.62,4H709.79V0H810.22a41.15,41.15,0,0,1,19.67,4.7,48.9,48.9,0,0,1,15,12.19,55.62,55.62,0,0,1,9.54,17,57.08,57.08,0,0,1,3.38,19.24,54.71,54.71,0,0,1-7.92,28.92,49.07,49.07,0,0,1-22,19.53,52.11,52.11,0,0,1,28.34,19.67Q866.59,135.68,866.6,154.76ZM730.34,17.91v77H802a32.06,32.06,0,0,0,14.25-3.23,36.58,36.58,0,0,0,11.31-8.52,39.62,39.62,0,0,0,7.34-12.19,40.31,40.31,0,0,0,2.64-14.54,44.63,44.63,0,0,0-2.5-15,36.59,36.59,0,0,0-7-12.19A35.48,35.48,0,0,0,817.27,21a29.74,29.74,0,0,0-13.51-3.09ZM846.05,151.24a42.52,42.52,0,0,0-2.65-14.83A38.59,38.59,0,0,0,824.46,115a30.84,30.84,0,0,0-14.24-3.38H730.34v79h77.82A34.44,34.44,0,0,0,823,187.36a39.42,39.42,0,0,0,12-8.66,40.44,40.44,0,0,0,8.08-12.63A38.87,38.87,0,0,0,846.05,151.24Z"/><path class="cls-1" d="M908.6,255.49c1.56.19,3.08.34,4.54.44s2.89.15,4.27.15a19.7,19.7,0,0,0,8.36-1.47q3.09-1.47,6-6.46a105.64,105.64,0,0,0,6.61-14.39q3.68-9.4,10.42-25.26l-66.66-153h20.56L959.4,190,1012,55.5h19.09L951.76,252.85A36,36,0,0,1,941,267.68q-7.49,6.3-20.41,6.31c-2,0-3.82-.05-5.58-.14s-3.92-.35-6.45-.74Z"/><path class="cls-1" d="M1132.37,201.16c-1.18.59-2.9,1.38-5.14,2.35s-4.85,2-7.78,2.94a91.08,91.08,0,0,1-10,2.64,57.17,57.17,0,0,1-11.75,1.17,42.44,42.44,0,0,1-12.33-1.76,28.63,28.63,0,0,1-10.28-5.43,26.73,26.73,0,0,1-7-9.25,29.9,29.9,0,0,1-2.64-12.92V71.36h-21.14V55.5h21.14V3.82h20V55.5h35.24V71.36h-35.24v104q.58,8.52,6,12.48a20.56,20.56,0,0,0,12.48,4,37.35,37.35,0,0,0,15-2.79,66.06,66.06,0,0,0,8.22-4Z"/><path class="cls-1" d="M1219.59,211.44a73.55,73.55,0,0,1-30.69-6.31,75.23,75.23,0,0,1-24.23-17.33,80.53,80.53,0,0,1-16-25.4,82.57,82.57,0,0,1-5.73-30.84,80.69,80.69,0,0,1,5.73-30.39,78.6,78.6,0,0,1,15.86-25,75.27,75.27,0,0,1,24.22-17,77.42,77.42,0,0,1,61.23,0,73.11,73.11,0,0,1,23.94,17.19,80.68,80.68,0,0,1,21.14,54.91V136a12.1,12.1,0,0,1-.29,3.23h-131a64.49,64.49,0,0,0,5.73,22.76A62.55,62.55,0,0,0,1182,180a55.9,55.9,0,0,0,17.47,11.89,52.29,52.29,0,0,0,21,4.26,53.9,53.9,0,0,0,14.68-2.06,59.36,59.36,0,0,0,13.51-5.57,50.55,50.55,0,0,0,11.16-8.67,37.26,37.26,0,0,0,7.63-11.31l17.33,4.7a50.86,50.86,0,0,1-10,15.42,69.57,69.57,0,0,1-15,12,73.26,73.26,0,0,1-18.79,7.93A81.53,81.53,0,0,1,1219.59,211.44ZM1276,123.93a61.72,61.72,0,0,0-5.73-22.47A61,61,0,0,0,1257.91,84a54.64,54.64,0,0,0-17.32-11.45,53.93,53.93,0,0,0-21-4.11,55,55,0,0,0-21.15,4.11A54.21,54.21,0,0,0,1181,84a56.22,56.22,0,0,0-12,17.62,66.37,66.37,0,0,0-5.43,22.32Z"/><path class="cls-2" d="M1394.91,208.5V0h75.77q25.54,0,44.78,8.22A90,90,0,0,1,1567,63.58a124.19,124.19,0,0,1,6.46,40.38q0,23.79-7.19,43a91.88,91.88,0,0,1-20.71,32.89A93.41,93.41,0,0,1,1513.11,201q-18.93,7.48-42.43,7.48ZM1532.64,104a88.66,88.66,0,0,0-4.11-27.6,61.7,61.7,0,0,0-12-21.74A53.68,53.68,0,0,0,1497,40.53a65.86,65.86,0,0,0-26.28-5h-35.24V173h35.24q15,0,26.57-5.29a54.17,54.17,0,0,0,19.38-14.53,64.64,64.64,0,0,0,11.9-21.88A87.76,87.76,0,0,0,1532.64,104Z"/><path class="cls-2" d="M1773.15,154.76q0,13.22-5.28,23.2a48.7,48.7,0,0,1-14.54,16.74A68,68,0,0,1,1731.89,205a93.11,93.11,0,0,1-26,3.52H1605.18V0h111.59a41.15,41.15,0,0,1,19.67,4.7,48.9,48.9,0,0,1,15,12.19,56.07,56.07,0,0,1,9.55,17,57.56,57.56,0,0,1,3.37,19.24,56.87,56.87,0,0,1-7.63,28.63,46.49,46.49,0,0,1-22.32,19.82q17.91,5.28,28.34,18.94T1773.15,154.76ZM1645.7,34.66V87.22h54a24,24,0,0,0,17.47-7q7.18-7,7.19-19.38,0-12-6.61-19.09a21.42,21.42,0,0,0-16.29-7Zm86.63,112.47a30.62,30.62,0,0,0-1.91-10.72,29.61,29.61,0,0,0-5.14-9,24,24,0,0,0-7.63-6,21.33,21.33,0,0,0-9.69-2.2H1645.7v54.92h60.2a26.45,26.45,0,0,0,10.43-2.06,25,25,0,0,0,8.37-5.73,27.83,27.83,0,0,0,7.63-19.23Z"/><path class="cls-1" d="M138.08,378.07h18.55v8H138.08Z"/><path class="cls-1" d="M180.78,354.48h12.81v20H213.4v-20h12.81v49.07H213.4V384.72H193.59v18.83H180.78Z"/><path class="cls-1" d="M235.73,354.48h12.81v49.07H235.73Z"/><path class="cls-1" d="M290.53,378.49h11.06V398a32.52,32.52,0,0,1-9.62,4.66,36.23,36.23,0,0,1-10.82,1.78,27.2,27.2,0,0,1-13.4-3.32,24.62,24.62,0,0,1-9.42-9.14,25.17,25.17,0,0,1-3.43-13,24.2,24.2,0,0,1,3.54-12.91,24.88,24.88,0,0,1,9.73-9.07A29,29,0,0,1,282,353.71a31.64,31.64,0,0,1,10.92,2,28.39,28.39,0,0,1,9.24,5.35l-7.28,9a20.35,20.35,0,0,0-6.12-4,17.41,17.41,0,0,0-6.83-1.47,13.48,13.48,0,0,0-7.07,1.89,13.67,13.67,0,0,0-5,5.18,15,15,0,0,0-1.82,7.35,15.31,15.31,0,0,0,1.82,7.46,13.5,13.5,0,0,0,5,5.21,13.86,13.86,0,0,0,7.14,1.89,19.29,19.29,0,0,0,8.47-2.38Z"/><path class="cls-1" d="M310.06,354.48h12.81v20h19.81v-20h12.81v49.07H342.68V384.72H322.87v18.83H310.06Z"/><path class="cls-1" d="M416.67,359q5.19,4.51,5.18,12.7,0,8.69-5.18,13.48T402.11,390h-8.75v13.58H380.55V354.48h21.56Q411.5,354.48,416.67,359Zm-9.13,18.79a7.3,7.3,0,0,0,2.13-5.67,7,7,0,0,0-2.13-5.49,8.72,8.72,0,0,0-6.06-1.93h-8.12v15.05h8.12A8.63,8.63,0,0,0,407.54,377.79Z"/><path class="cls-1" d="M428.15,354.48h38.71V364.7H441v9.17h23.38V384l-23.38.07v9.24h26.6v10.22H428.15Z"/><path class="cls-1" d="M504.87,403.55,497.73,390h-9.52v13.58H475.4V354.48h22.05q9.74,0,15.09,4.52t5.35,12.7a19.41,19.41,0,0,1-2.24,9.56,15.44,15.44,0,0,1-6.51,6.26l10.22,16Zm-16.66-23.8h9.31a8.65,8.65,0,0,0,6.06-2,7.3,7.3,0,0,0,2.13-5.67,7,7,0,0,0-2.13-5.49,8.73,8.73,0,0,0-6.06-1.93h-9.31Z"/><path class="cls-1" d="M526.08,354.48h36.68l-.07,10.22h-23.8v10.92h22v10.22h-22v17.71H526.08Z"/><path class="cls-1" d="M605.5,357a24.77,24.77,0,0,1,9.52,9,24.44,24.44,0,0,1,3.46,12.88,24.82,24.82,0,0,1-13,22.19,29.14,29.14,0,0,1-27.09,0,24.69,24.69,0,0,1-9.52-9.17,25.14,25.14,0,0,1-3.47-13.06A24.45,24.45,0,0,1,568.89,366a24.7,24.7,0,0,1,9.52-9,29.53,29.53,0,0,1,27.09,0Zm-20.16,9.45a13.57,13.57,0,0,0-4.94,5.22,15.6,15.6,0,0,0,0,14.7,14.31,14.31,0,0,0,4.93,5.25,12.44,12.44,0,0,0,6.72,1.92,12.3,12.3,0,0,0,6.69-1.92,13.64,13.64,0,0,0,4.79-5.25,15.59,15.59,0,0,0,1.75-7.39,15.38,15.38,0,0,0-1.75-7.31,13.28,13.28,0,0,0-4.79-5.22,12.44,12.44,0,0,0-6.69-1.89A12.74,12.74,0,0,0,585.34,366.45Z"/><path class="cls-1" d="M654.32,403.55,647.18,390h-9.52v13.58H624.85V354.48h22q9.74,0,15.08,4.52t5.36,12.7a19.41,19.41,0,0,1-2.24,9.56,15.44,15.44,0,0,1-6.51,6.26l10.22,16Zm-16.66-23.8H647a8.6,8.6,0,0,0,6-2,7.27,7.27,0,0,0,2.14-5.67,7,7,0,0,0-2.14-5.49,8.69,8.69,0,0,0-6-1.93h-9.31Z"/><path class="cls-1" d="M675.53,354.48h13.93l14.21,28.7,14.14-28.7h13.93v49.07H720.4l-.07-31.08L707.8,398.65h-8.26l-12.6-26.18v31.08H675.53Z"/><path class="cls-1" d="M777.31,403.55,774,394.87H752.74l-3.43,8.68H736.15l21.07-49.07h13.16L791,403.55Zm-20.72-18.48h13.58l-6.72-17.5Z"/><path class="cls-1" d="M828.9,354.48h11.9v49.07H829.6l-22.26-29.33v29.33h-12V354.48h11.27L829,384Z"/><path class="cls-1" d="M880.21,366.35a13.62,13.62,0,0,0-6.51-1.79,12.71,12.71,0,0,0-6.76,1.86,13,13,0,0,0-4.79,5.11,15.87,15.87,0,0,0,0,14.49,13.11,13.11,0,0,0,4.79,5.11A12.79,12.79,0,0,0,873.7,393a14.85,14.85,0,0,0,6.3-1.54,19.81,19.81,0,0,0,5.88-4.2l7.49,8.05a30,30,0,0,1-9.49,6.69A26.33,26.33,0,0,1,873,404.46a26,26,0,0,1-13.16-3.36,24.5,24.5,0,0,1-9.24-9.17,25.51,25.51,0,0,1-3.36-13A24.46,24.46,0,0,1,860.08,357a27.89,27.89,0,0,1,24.19-1,26.79,26.79,0,0,1,9,6.19l-7.42,9A18.44,18.44,0,0,0,880.21,366.35Z"/><path class="cls-1" d="M898.83,354.48h38.71V364.7h-25.9v9.17H935V384l-23.38.07v9.24h26.6v10.22H898.83Z"/><path class="cls-1" d="M996.37,357.56a22.68,22.68,0,0,1,9.21,8.65,26.37,26.37,0,0,1,0,25.58,22.45,22.45,0,0,1-9.38,8.68,30.15,30.15,0,0,1-13.89,3.08H961.62V354.48h21.14A29.08,29.08,0,0,1,996.37,357.56Zm-6.68,33.88a11.9,11.9,0,0,0,4.48-5,16.22,16.22,0,0,0,1.61-7.35,15.6,15.6,0,0,0-1.72-7.42,12.57,12.57,0,0,0-4.72-5,13.22,13.22,0,0,0-6.86-1.79h-8.05v28.28h8.68A12.38,12.38,0,0,0,989.69,391.44Z"/><path class="cls-1" d="M1015.23,354.48H1028v49.07h-12.81Z"/><path class="cls-1" d="M1063,365.47a24.68,24.68,0,0,0-7.46-1.47,6.83,6.83,0,0,0-3.74.88,2.84,2.84,0,0,0-1.37,2.55,3.52,3.52,0,0,0,1.19,2.7,9.44,9.44,0,0,0,2.94,1.75q1.76.66,5.18,1.71a67.49,67.49,0,0,1,8.44,2.94,14.75,14.75,0,0,1,5.7,4.52,12.51,12.51,0,0,1,2.38,7.94,13.56,13.56,0,0,1-2.59,8.37,15.6,15.6,0,0,1-7.1,5.21,27.53,27.53,0,0,1-10,1.75,36.33,36.33,0,0,1-12.14-2.13,33.24,33.24,0,0,1-10.47-5.85l5-10a30.81,30.81,0,0,0,8.79,5.39,24,24,0,0,0,9,2.1,8.35,8.35,0,0,0,4.52-1.05,3.43,3.43,0,0,0,1.64-3.08,3.66,3.66,0,0,0-1.22-2.8,9.14,9.14,0,0,0-3.08-1.78c-1.24-.45-3-1-5.22-1.58a65.3,65.3,0,0,1-8.33-2.83,14.83,14.83,0,0,1-5.63-4.34,11.93,11.93,0,0,1-2.35-7.74,13.53,13.53,0,0,1,2.42-8,15.32,15.32,0,0,1,6.86-5.28,26.55,26.55,0,0,1,10.32-1.86,37.18,37.18,0,0,1,10.5,1.51,34.3,34.3,0,0,1,9.1,4l-4.83,10.22A43,43,0,0,0,1063,365.47Z"/><path class="cls-1" d="M1078.51,354.48h42.07v10.57h-14.7v38.5h-12.81v-38.5h-14.56Z"/><path class="cls-1" d="M1155.23,403.55,1148.09,390h-9.52v13.58h-12.81V354.48h22q9.74,0,15.09,4.52t5.35,12.7a19.31,19.31,0,0,1-2.24,9.56,15.44,15.44,0,0,1-6.51,6.26l10.22,16Zm-16.66-23.8h9.31a8.63,8.63,0,0,0,6.06-2,7.3,7.3,0,0,0,2.13-5.67,7,7,0,0,0-2.13-5.49,8.72,8.72,0,0,0-6.06-1.93h-9.31Z"/><path class="cls-1" d="M1176.44,354.48h12.81v49.07h-12.81Z"/><path class="cls-1" d="M1231.71,356a14.09,14.09,0,0,1,6.33,4.3,10.19,10.19,0,0,1,2.24,6.58,10.52,10.52,0,0,1-2.27,6.72,11.37,11.37,0,0,1-6.2,3.92,12.07,12.07,0,0,1,7.39,4.27,12.61,12.61,0,0,1,2.69,8.12,11.84,11.84,0,0,1-2.31,7.25,14.41,14.41,0,0,1-6.58,4.76,27.89,27.89,0,0,1-10,1.64h-24.22V354.48h23.31A27.74,27.74,0,0,1,1231.71,356Zm-6.13,16.73a4.46,4.46,0,0,0,1.54-3.61,4.15,4.15,0,0,0-1.54-3.46,6.29,6.29,0,0,0-4.2-1.16h-9.8V374h9.8A6.31,6.31,0,0,0,1225.58,372.72Zm1.12,19.49a4.53,4.53,0,0,0,2-3.92,4.24,4.24,0,0,0-2-3.67,8.87,8.87,0,0,0-5.32-1.3h-9.8v10.29h9.8A8.93,8.93,0,0,0,1226.7,392.21Z"/><path class="cls-1" d="M1263.59,390.74a9.25,9.25,0,0,0,6.93,2.8,8.71,8.71,0,0,0,6.69-2.76,10.58,10.58,0,0,0,2.55-7.46V354.48h12.81v28.84a22.49,22.49,0,0,1-2.69,11.17,18.28,18.28,0,0,1-7.7,7.38,25.17,25.17,0,0,1-11.73,2.59,25.54,25.54,0,0,1-11.79-2.59,18.52,18.52,0,0,1-7.84-7.38,21.91,21.91,0,0,1-2.77-11.17V354.48h12.81v28.84A10.16,10.16,0,0,0,1263.59,390.74Z"/><path class="cls-1" d="M1297.05,354.48h42.07v10.57h-14.7v38.5h-12.81v-38.5h-14.56Z"/><path class="cls-1" d="M1344.3,354.48H1383V364.7h-25.9v9.17h23.38V384l-23.38.07v9.24h26.6v10.22H1344.3Z"/><path class="cls-1" d="M1426.31,357.56a22.59,22.59,0,0,1,9.2,8.65,26.4,26.4,0,0,1,0,25.58,22.5,22.5,0,0,1-9.38,8.68,30.17,30.17,0,0,1-13.9,3.08h-20.65V354.48h21.14A29.15,29.15,0,0,1,1426.31,357.56Zm-6.69,33.88a11.83,11.83,0,0,0,4.48-5,16.22,16.22,0,0,0,1.61-7.35,15.59,15.59,0,0,0-1.71-7.42,12.6,12.6,0,0,0-4.73-5,13.19,13.19,0,0,0-6.86-1.79h-8.05v28.28H1413A12.35,12.35,0,0,0,1419.62,391.44Z"/><path class="cls-1" d="M1486.15,365.47a24.62,24.62,0,0,0-7.45-1.47,6.85,6.85,0,0,0-3.75.88,2.83,2.83,0,0,0-1.36,2.55,3.49,3.49,0,0,0,1.19,2.7,9.22,9.22,0,0,0,2.94,1.75q1.74.66,5.18,1.71a67.27,67.27,0,0,1,8.43,2.94,14.78,14.78,0,0,1,5.71,4.52,12.57,12.57,0,0,1,2.38,7.94,13.63,13.63,0,0,1-2.59,8.37,15.68,15.68,0,0,1-7.11,5.21,27.52,27.52,0,0,1-10,1.75,36.43,36.43,0,0,1-12.15-2.13,33.3,33.3,0,0,1-10.46-5.85l5-10a30.75,30.75,0,0,0,8.78,5.39,24,24,0,0,0,9,2.1,8.31,8.31,0,0,0,4.51-1.05,3.42,3.42,0,0,0,1.65-3.08,3.63,3.63,0,0,0-1.23-2.8,9,9,0,0,0-3.08-1.78c-1.23-.45-3-1-5.21-1.58a64.76,64.76,0,0,1-8.33-2.83,14.86,14.86,0,0,1-5.64-4.34,12,12,0,0,1-2.34-7.74,13.52,13.52,0,0,1,2.41-8,15.38,15.38,0,0,1,6.86-5.28,26.64,26.64,0,0,1,10.33-1.86,37.29,37.29,0,0,1,10.5,1.51,34.59,34.59,0,0,1,9.1,4l-4.83,10.22A43.08,43.08,0,0,0,1486.15,365.47Z"/><path class="cls-1" d="M1558.29,409.78a21,21,0,0,1-6.69,4,21.37,21.37,0,0,1-7.59,1.47,15.6,15.6,0,0,1-9.1-2.87,20,20,0,0,1-6.58-7.91,27.05,27.05,0,0,1-13.09-3.6,24.89,24.89,0,0,1-12.46-21.95,24.44,24.44,0,0,1,3.46-12.88,24.77,24.77,0,0,1,9.52-9,29.53,29.53,0,0,1,27.09,0,24.7,24.7,0,0,1,9.52,9,24.45,24.45,0,0,1,3.47,12.88,24.85,24.85,0,0,1-16,23.59c1.72,2,3.57,3,5.53,3a9.82,9.82,0,0,0,3.88-1,24.83,24.83,0,0,0,4.52-2.66Zm-40.5-23.41a14.34,14.34,0,0,0,4.94,5.25,12.44,12.44,0,0,0,6.72,1.92,12.29,12.29,0,0,0,6.68-1.92,13.67,13.67,0,0,0,4.8-5.25,15.71,15.71,0,0,0,1.75-7.39,15.5,15.5,0,0,0-1.75-7.31,13.31,13.31,0,0,0-4.8-5.22,12.43,12.43,0,0,0-6.68-1.89,12.8,12.8,0,0,0-6.76,1.89,13.62,13.62,0,0,0-4.93,5.22,15.64,15.64,0,0,0,0,14.7Z"/><path class="cls-1" d="M1562.49,354.48h12.81v38.15h20.79v10.92h-33.6Z"/><path class="cls-1" d="M1616.53,378.07h18.55v8h-18.55Z"/></g></g></svg>