<?xml version="1.0" encoding="UTF-8"?>
<svg width="225px" height="36px" viewBox="0 0 225 36" version="1.1" xmlns="http://www.w3.org/2000/svg" xmlns:xlink="http://www.w3.org/1999/xlink">
    <!-- Generator: Sketch 53.2 (72643) - https://sketchapp.com -->
    <title>YugaByteDB-COLOR</title>
    <desc>Created with Sketch.</desc>
    <defs>
        <polygon id="path-1" points="0.816788571 0.24552 22.1060571 0.24552 22.1060571 26.6715771 0.816788571 26.6715771"></polygon>
    </defs>
    <g id="Symbols" stroke="none" stroke-width="1" fill="none" fill-rule="evenodd">
        <g id="HEADER-darkbg" transform="translate(0.000000, -11.000000)">
            <g id="YugaByteDB-COLOR" transform="translate(0.000000, 10.500000)">
                <polygon id="Fill-1" fill="#202951" points="20.2101943 1.02867429 11.50128 15.2466171 2.86642286 1.02867429 -0.000205714286 1.02867429 10.19808 17.5547314 10.19808 27.4547314 12.80448 27.4547314 12.80448 17.6287886 23.0387657 1.02867429"></polygon>
                <path d="M30.1110171,27.82728 C28.0014171,27.82728 26.4318171,27.1268229 25.4032457,25.72488 C24.3726171,24.3229371 23.8583314,22.2318514 23.8583314,19.4526514 L23.8583314,8.06328 L26.3896457,8.06328 L26.3896457,19.0062514 C26.3896457,23.3982514 27.8903314,25.5942514 30.8927314,25.5942514 C31.6374171,25.5942514 32.3687314,25.4697943 33.0887314,25.2219086 C33.8077029,24.9740229 34.4711314,24.6140229 35.0800457,24.1419086 C35.6879314,23.6708229 36.2341029,23.1133371 36.7175314,22.4684229 C37.2019886,21.82248 37.5918171,21.0901371 37.8890743,20.2713943 L37.8890743,8.06328 L40.4214171,8.06328 L40.4214171,24.1789371 C40.4214171,24.8742514 40.7186743,25.2219086 41.3152457,25.2219086 L41.3152457,27.4549371 C41.01696,27.5043086 40.7742171,27.5289943 40.5890743,27.5289943 L40.1982171,27.5289943 C39.6026743,27.5043086 39.1182171,27.2934514 38.7469029,26.8964229 C38.3735314,26.4993943 38.1883886,25.9655657 38.1883886,25.2959657 L38.1883886,23.0629371 C37.3439314,24.5769943 36.1970743,25.7495657 34.7447314,26.5806514 C33.2934171,27.4117371 31.7495314,27.82728 30.1110171,27.82728" id="Fill-2" fill="#202951"></path>
                <path d="M54.6389486,25.59384 C55.3836343,25.59384 56.1149486,25.4580686 56.8349486,25.1844686 C57.55392,24.9118971 58.2060343,24.5457257 58.7892343,24.0869829 C59.3724343,23.6272114 59.8620343,23.1129257 60.2590629,22.5420686 C60.6560914,21.97224 60.91632,21.3880114 61.0407771,20.7924686 L61.0407771,14.8000114 C60.7671771,14.1057257 60.3958629,13.4597829 59.9237486,12.86424 C59.4526629,12.2686971 58.9188343,11.7605829 58.3232914,11.3388686 C57.7277486,10.9171543 57.0890057,10.58184 56.4070629,10.3339543 C55.7240914,10.08504 55.0359771,9.96161143 54.3416914,9.96161143 C53.24832,9.96161143 52.2752914,10.1909829 51.4184914,10.6497257 C50.56272,11.1094971 49.8375771,11.7101829 49.2420343,12.4558971 C48.6464914,13.1995543 48.1928914,14.0440114 47.8832914,14.9861829 C47.5726629,15.9293829 47.4173486,16.8838971 47.4173486,17.8528114 C47.4173486,18.8937257 47.60352,19.8873257 47.9758629,20.8294971 C48.3482057,21.7726971 48.86352,22.5976114 49.5207771,23.30424 C50.1780343,24.0118971 50.9412343,24.5704114 51.8093486,24.9797829 C52.6784914,25.3891543 53.6206629,25.59384 54.6389486,25.59384 M53.93232,27.7157829 C52.5920914,27.7157829 51.36912,27.4360114 50.2654629,26.8785257 C49.1607771,26.3200114 48.2052343,25.5814971 47.3988343,24.6629829 C46.5934629,23.7465257 45.9660343,22.6912114 45.5206629,21.5001257 C45.0732343,20.30904 44.8500343,19.0798971 44.8500343,17.8157829 C44.8500343,16.4745257 45.0660343,15.1908686 45.50112,13.9627543 C45.9351771,12.73464 46.5492343,11.66184 47.3432914,10.7433257 C48.1373486,9.82481143 49.08672,9.09349714 50.1914057,8.54732571 C51.2950629,8.00115429 52.5170057,7.72858286 53.8572343,7.72858286 C55.5194057,7.72858286 56.9583771,8.14412571 58.1751771,8.97521143 C59.38992,9.80629714 60.4328914,10.8544114 61.3010057,12.1205829 L61.3010057,8.06389714 L63.5720914,8.06389714 L63.5720914,27.5296114 C63.5720914,28.8688114 63.3170057,30.0537257 62.8078629,31.0843543 C62.2997486,32.1129257 61.6167771,32.9758971 60.7610057,33.6712114 C59.9052343,34.3654971 58.9013486,34.8859543 57.7462629,35.2336114 C56.5922057,35.5812686 55.3702629,35.7550971 54.0804343,35.7550971 C51.8463771,35.7550971 50.0474057,35.3580686 48.68352,34.5640114 C47.3186057,33.7699543 46.2149486,32.7033257 45.3704914,31.3630971 L46.93392,30.1349829 C47.7032914,31.37544 48.7205486,32.2867543 49.98672,32.8709829 C51.2518629,33.4531543 52.6157486,33.7452686 54.0804343,33.7452686 C55.0236343,33.7452686 55.9164343,33.61464 56.7608914,33.3544114 C57.6032914,33.0941829 58.3428343,32.7084686 58.9754057,32.2003543 C59.6079771,31.69224 60.10992,31.0473257 60.4822629,30.2656114 C60.8546057,29.4838971 61.0407771,28.5715543 61.0407771,27.5296114 L61.0407771,23.6961257 C60.2960914,24.9365829 59.2788343,25.9157829 57.9890057,26.6368114 C56.6981486,27.3557829 55.3455771,27.7157829 53.93232,27.7157829" id="Fill-4" fill="#202951"></path>
                <path d="M74.62584,25.8917143 C75.9403543,25.8917143 77.1509829,25.6438286 78.25464,25.1470286 C79.3593257,24.6512571 80.1965829,23.9929714 80.76744,23.1742286 C80.99064,22.9510286 81.1582971,22.7093143 81.2704114,22.4490857 C81.3814971,22.1888571 81.43704,21.9471429 81.43704,21.7229143 L81.43704,18.5600571 C80.5936114,18.2370857 79.7182971,17.9892 78.8131543,17.8153714 C77.9069829,17.6415429 76.9833257,17.5541143 76.0401257,17.5541143 C74.2534971,17.5541143 72.8021829,17.9264571 71.6861829,18.6711429 C70.5691543,19.4158286 70.01064,20.3960571 70.01064,21.6108 C70.01064,22.2063429 70.1278971,22.7648571 70.36344,23.2863429 C70.6000114,23.8078286 70.9219543,24.2604 71.3323543,24.6450857 C71.7417257,25.0297714 72.2313257,25.3332 72.8021829,25.5564 C73.3720114,25.7796 73.9798971,25.8917143 74.62584,25.8917143 M74.0302971,27.8274857 C73.1117829,27.8274857 72.2621829,27.6721714 71.4804686,27.3615429 C70.6997829,27.0519429 70.0168114,26.6240571 69.4336114,26.0778857 C68.8504114,25.5327429 68.39784,24.8929714 68.0758971,24.1606286 C67.7518971,23.4293143 67.59144,22.6414286 67.59144,21.7969714 C67.59144,20.9545714 67.7899543,20.1728571 68.1869829,19.4528571 C68.5840114,18.7338857 69.1414971,18.1126286 69.8614971,17.5911429 C70.5804686,17.0706857 71.4372686,16.6674857 72.42984,16.3815429 C73.4224114,16.0976571 74.5147543,15.9536571 75.70584,15.9536571 C76.6984114,15.9536571 77.7022971,16.0410857 78.7195543,16.2149143 C79.73784,16.3887429 80.6429829,16.6366286 81.43704,16.9585714 L81.43704,15.2089714 C81.43704,13.4974286 80.9536114,12.1386857 79.9857257,11.1337714 C79.01784,10.1288571 77.6776114,9.62691429 75.9660686,9.62691429 C74.9734971,9.62691429 73.95624,9.82542857 72.9142971,10.2224571 C71.8713257,10.6184571 70.81704,11.1893143 69.7504114,11.934 L68.8565829,10.2594857 C71.3632114,8.57262857 73.7937257,7.72817143 76.15224,7.72817143 C78.5837829,7.72817143 80.49384,8.41114286 81.8844686,9.77605714 C83.27304,11.1399429 83.9683543,13.0263429 83.9683543,15.4332 L83.9683543,24.1791429 C83.9683543,24.8744571 84.2779543,25.2221143 84.8981829,25.2221143 L84.8981829,27.4551429 C84.4764686,27.5292 84.1545257,27.5662286 83.9313257,27.5662286 C83.2853829,27.5662286 82.78344,27.4057714 82.42344,27.0828 C82.06344,26.7608571 81.8710971,26.3144571 81.84744,25.7425714 L81.7723543,24.2172 C80.8795543,25.3825714 79.7553257,26.2774286 78.4037829,26.8966286 C77.0512114,27.5168571 75.5937257,27.8274857 74.0302971,27.8274857" id="Fill-7" fill="#202951"></path>
                <path d="M107.230731,20.19744 C107.230731,19.5525257 107.119646,18.9261257 106.895417,18.3172114 C106.672217,17.7103543 106.355417,17.1765257 105.946046,16.7167543 C105.537703,16.2580114 105.053246,15.8866971 104.494731,15.5997257 C103.937246,15.31584 103.334503,15.17184 102.689589,15.17184 L92.56536,15.17184 L92.56536,25.1849829 L102.42936,25.1849829 C103.09896,25.1849829 103.726389,25.0481829 104.30856,24.7745829 C104.89176,24.50304 105.399874,24.1368686 105.83496,23.6770971 C106.267989,23.2183543 106.609474,22.6845257 106.858389,22.07664 C107.106274,21.4687543 107.230731,20.8423543 107.230731,20.19744 L107.230731,20.19744 Z M92.56536,3.29904 L92.56536,13.0509257 L101.646617,13.0509257 C102.29256,13.0509257 102.894274,12.9141257 103.452789,12.6415543 C104.011303,12.3689829 104.48856,12.0089829 104.885589,11.5615543 C105.281589,11.1151543 105.592217,10.6008686 105.816446,10.0176686 C106.039646,9.43446857 106.150731,8.82041143 106.150731,8.17549714 C106.150731,7.50486857 106.044789,6.87229714 105.83496,6.27675429 C105.624103,5.68121143 105.324789,5.16692571 104.941131,4.73184 C104.556446,4.29778286 104.103874,3.95115429 103.583417,3.68989714 C103.061931,3.42966857 102.491074,3.29904 101.870846,3.29904 L92.56536,3.29904 Z M109.835074,20.64384 C109.835074,21.6364114 109.63656,22.5487543 109.239531,23.37984 C108.842503,24.2109257 108.309703,24.9309257 107.640103,25.5377829 C106.969474,26.1466971 106.18776,26.6177829 105.29496,26.9530971 C104.40216,27.2873829 103.446617,27.45504 102.42936,27.45504 L89.9610171,27.45504 L89.9610171,1.02898286 L102.689589,1.02898286 C103.608103,1.02898286 104.439189,1.22749714 105.182846,1.62349714 C105.927531,2.02155429 106.561131,2.53584 107.081589,3.16841143 C107.603074,3.80201143 108.006274,4.52201143 108.291189,5.32738286 C108.577131,6.13378286 108.719074,6.94635429 108.719074,7.76612571 C108.719074,9.10532571 108.384789,10.3272686 107.715189,11.4319543 C107.04456,12.5356114 106.113703,13.3615543 104.922617,13.9066971 C106.436674,14.3530971 107.633931,15.1852114 108.514389,16.4009829 C109.394846,17.6167543 109.835074,19.03104 109.835074,20.64384 L109.835074,20.64384 Z" id="Fill-9" fill="#202951"></path>
                <path d="M115.157931,33.41016 C115.355417,33.4338171 115.548789,33.45336 115.73496,33.4667314 C115.920103,33.4780457 116.100103,33.4842171 116.27496,33.4842171 C116.72136,33.4842171 117.07416,33.4225029 117.335417,33.2990743 C117.595646,33.1746171 117.849703,32.9010171 118.097589,32.4803314 C118.346503,32.0575886 118.625246,31.4497029 118.935874,30.6556457 C119.245474,29.8615886 119.685703,28.79496 120.25656,27.4547314 L111.807874,8.06307429 L114.413246,8.06307429 L121.597817,25.1106171 L128.258846,8.06307429 L130.679074,8.06307429 L120.628903,33.0758743 C120.356331,33.7948457 119.902731,34.4202171 119.27016,34.9540457 C118.637589,35.4878743 117.775646,35.7553029 116.683303,35.7553029 C116.435417,35.7553029 116.199874,35.7491314 115.976674,35.7367886 C115.753474,35.7244457 115.478846,35.69256 115.157931,35.6431886 L115.157931,33.41016 Z" id="Fill-11" fill="#202951"></path>
                <path d="M143.519966,26.5239771 C143.369794,26.5990629 143.152766,26.6988343 142.867851,26.8222629 C142.581909,26.94672 142.253794,27.0701486 141.881451,27.1946057 C141.509109,27.3190629 141.087394,27.4301486 140.616309,27.52992 C140.145223,27.6276343 139.648423,27.6780343 139.126937,27.6780343 C138.580766,27.6780343 138.05928,27.6039771 137.563509,27.4548343 C137.067737,27.30672 136.63368,27.0773486 136.261337,26.7656914 C135.888994,26.45712 135.591737,26.0662629 135.368537,25.5941486 C135.144309,25.1230629 135.033223,24.5768914 135.033223,23.9556343 L135.033223,10.0730057 L132.353794,10.0730057 L132.353794,8.06317714 L135.033223,8.06317714 L135.033223,1.51220571 L137.563509,1.51220571 L137.563509,8.06317714 L142.030594,8.06317714 L142.030594,10.0730057 L137.563509,10.0730057 L137.563509,23.2490057 C137.613909,23.9690057 137.867966,24.4956343 138.326709,24.8309486 C138.785451,25.1662629 139.313109,25.3328914 139.908651,25.3328914 C140.628651,25.3328914 141.261223,25.2166629 141.807394,24.9800914 C142.352537,24.7445486 142.700194,24.5768914 142.849337,24.47712 L143.519966,26.5239771 Z" id="Fill-14" fill="#202951"></path>
                <path d="M161.720949,16.7354743 C161.646891,15.6935314 161.404149,14.74416 160.994777,13.88736 C160.585406,13.0315886 160.064949,12.2941029 159.431349,11.6738743 C158.798777,11.0536457 158.066434,10.5691886 157.236377,10.2215314 C156.404263,9.87490286 155.517634,9.70107429 154.574434,9.70107429 C153.631234,9.70107429 152.738434,9.87490286 151.893977,10.2215314 C151.050549,10.5691886 150.312034,11.0536457 149.679463,11.6738743 C149.046891,12.2941029 148.538777,13.03776 148.154091,13.9069029 C147.769406,14.7750171 147.540034,15.7182171 147.465977,16.7354743 L161.720949,16.7354743 Z M154.574434,27.8275886 C153.160149,27.8275886 151.86312,27.56016 150.685406,27.02736 C149.505634,26.4935314 148.483234,25.7611886 147.614091,24.83136 C146.744949,23.9005029 146.069177,22.8277029 145.58472,21.6109029 C145.101291,20.39616 144.859577,19.09296 144.859577,17.7023314 C144.859577,16.3384457 145.101291,15.0547886 145.58472,13.8503314 C146.069177,12.6469029 146.739806,11.5936457 147.596606,10.6874743 C148.452377,9.78130286 149.474777,9.06233143 150.665863,8.52850286 C151.856949,7.99467429 153.147806,7.72827429 154.537406,7.72827429 C155.951691,7.72827429 157.247691,7.99467429 158.426434,8.52850286 C159.604149,9.06233143 160.616263,9.78850286 161.459691,10.7059886 C162.30312,11.6245029 162.960377,12.6787886 163.432491,13.8698743 C163.903577,15.06096 164.140149,16.3261029 164.140149,17.6653029 L164.140149,18.2608457 C164.140149,18.4603886 164.126777,18.5971886 164.102091,18.6712457 L147.503006,18.6712457 C147.577063,19.7131886 147.818777,20.6749029 148.228149,21.55536 C148.63752,22.4368457 149.165177,23.2000457 149.810091,23.84496 C150.455006,24.4909029 151.19352,24.9928457 152.024606,25.3518171 C152.85672,25.7118171 153.74232,25.8918171 154.68552,25.8918171 C155.305749,25.8918171 155.925977,25.8043886 156.547234,25.63056 C157.166434,25.45776 157.73832,25.2211886 158.258777,24.9239314 C158.780263,24.6256457 159.251349,24.2605029 159.674091,23.8264457 C160.094777,23.3923886 160.417749,22.9141029 160.640949,22.3926171 L162.836949,22.98816 C162.539691,23.7091886 162.117977,24.3602743 161.571806,24.9424457 C161.025634,25.5256457 160.393063,26.0347886 159.674091,26.4688457 C158.954091,26.9029029 158.159006,27.2382171 157.290891,27.47376 C156.422777,27.7093029 155.517634,27.8275886 154.574434,27.8275886 L154.574434,27.8275886 Z" id="Fill-16" fill="#202951"></path>
                <path d="M194.251474,14.2047771 C194.251474,12.9386057 194.077646,11.7732343 193.729989,10.7066057 C193.382331,9.63997714 192.874217,8.72043429 192.204617,7.95106286 C191.533989,7.18272 190.710103,6.58717714 189.729874,6.16546286 C188.748617,5.74272 187.63776,5.53186286 186.398331,5.53186286 L181.931246,5.53186286 L181.931246,22.95072 L186.398331,22.95072 C187.663474,22.95072 188.786674,22.7285486 189.766903,22.28112 C190.747131,21.8336914 191.565874,21.2206629 192.222103,20.4399771 C192.880389,19.6572343 193.382331,18.7335771 193.729989,17.66592 C194.077646,16.5992914 194.251474,15.4462629 194.251474,14.2047771 L194.251474,14.2047771 Z M176.795589,27.4548343 L176.795589,1.02877714 L186.398331,1.02877714 C188.557303,1.02877714 190.448846,1.37643429 192.073989,2.07072 C193.699131,2.76603429 195.057874,3.70820571 196.150217,4.90032 C197.240503,6.09037714 198.060274,7.48614857 198.606446,9.08660571 C199.152617,10.6870629 199.425189,12.3934629 199.425189,14.2047771 C199.425189,16.2146057 199.120731,18.0320914 198.513874,19.6572343 C197.90496,21.2823771 197.029646,22.6719771 195.88896,23.8260343 C194.747246,24.9800914 193.37616,25.8728914 191.776731,26.5054629 C190.176274,27.1390629 188.382446,27.4548343 186.398331,27.4548343 L176.795589,27.4548343 Z" id="Fill-18" fill="#F75821"></path>
                <g id="Group-22" transform="translate(202.628571, 0.783566)">
                    <mask id="mask-2" fill="white">
                        <use xlink:href="#path-1"></use>
                    </mask>
                    <g id="Clip-21"></g>
                    <path d="M16.9324457,18.8924914 C16.9324457,18.4214057 16.8511886,17.9688343 16.6907314,17.5337486 C16.5282171,17.0996914 16.3111886,16.7211771 16.0386171,16.3992343 C15.7660457,16.0762629 15.4441029,15.8222057 15.07176,15.6350057 C14.6994171,15.4488343 14.2910743,15.3562629 13.8436457,15.3562629 L5.95244571,15.3562629 L5.95244571,22.3166057 L13.5823886,22.3166057 C14.0534743,22.3166057 14.4947314,22.2302057 14.9041029,22.0563771 C15.3134743,21.8825486 15.6673029,21.6408343 15.96456,21.3302057 C16.2628457,21.0206057 16.49736,20.6544343 16.6722171,20.23272 C16.8450171,19.8110057 16.9324457,19.3635771 16.9324457,18.8924914 L16.9324457,18.8924914 Z M5.95244571,4.63752 L5.95244571,11.2995771 L12.8006743,11.2995771 C13.6698171,11.2995771 14.4073029,11.0012914 15.0162171,10.4057486 C15.6241029,9.81020571 15.9265029,8.99249143 15.9265029,7.94952 C15.9265029,6.93226286 15.6487886,6.12586286 15.0902743,5.53032 C14.53176,4.93477714 13.8436457,4.63752 13.0238743,4.63752 L5.95244571,4.63752 Z M22.10616,19.8593486 C22.10616,20.9763771 21.8819314,21.9566057 21.43656,22.8000343 C20.9891314,23.6444914 20.3750743,24.3521486 19.5943886,24.9219771 C18.8126743,25.4928343 17.9054743,25.9268914 16.8758743,26.2241486 C15.8462743,26.5224343 14.7487886,26.6715771 13.5823886,26.6715771 L0.816788571,26.6715771 L0.816788571,0.24552 L14.9596457,0.24552 C15.87816,0.24552 16.7092457,0.443005714 17.4539314,0.840034286 C18.1975886,1.23809143 18.8311886,1.75237714 19.3526743,2.38494857 C19.8721029,3.01752 20.2763314,3.73854857 20.5612457,4.54392 C20.8471886,5.35032 20.9891314,6.16289143 20.9891314,6.98163429 C20.9891314,8.27249143 20.6671886,9.48209143 20.0222743,10.6104343 C19.3763314,11.7398057 18.43416,12.5780914 17.1926743,13.1232343 C18.7067314,13.5696343 19.9039886,14.3708914 20.7844457,15.52392 C21.6659314,16.6779771 22.10616,18.12312 22.10616,19.8593486 L22.10616,19.8593486 Z" id="Fill-20" fill="#F75821" mask="url(#mask-2)"></path>
                </g>
            </g>
        </g>
    </g>
</svg>