<svg id="Layer_1" data-name="Layer 1" xmlns="http://www.w3.org/2000/svg" xmlns:xlink="http://www.w3.org/1999/xlink" viewBox="0 0 1084 181"><defs><style>.cls-1{fill:none;}.cls-2{fill:#fff;}.cls-3{fill:#ff6e42;}.cls-4{clip-path:url(#clip-path);}.cls-5{fill:#dae1e5;}.cls-6{fill:#ed5735;}.cls-7{fill:#ff8b68;}</style><clipPath id="clip-path"><path class="cls-1" d="M209.5,89.94A89.88,89.88,0,1,1,118.94.74a89.87,89.87,0,0,1,90.56,89.2"/></clipPath></defs><title>ybDB</title><path class="cls-2" d="M323.62,148.18a2.43,2.43,0,0,1-.85-1.83,5.23,5.23,0,0,1,.52-2.09l10.31-24.13L308.55,61A4.86,4.86,0,0,1,308,59.2a3.51,3.51,0,0,1,.91-2,2.58,2.58,0,0,1,2-.85h10.83a3.54,3.54,0,0,1,3.39,2.48l17.35,42.53,17.61-42.53a4,4,0,0,1,3.65-2.48H374.3a2.68,2.68,0,0,1,2,.79,2.5,2.5,0,0,1,.78,1.82,5.2,5.2,0,0,1-.52,2.09L339.6,146.48A3.7,3.7,0,0,1,336,149H325.51A2.71,2.71,0,0,1,323.62,148.18Z"/><path class="cls-2" d="M394.52,117.65q-6.91-7.83-6.91-21.53V59.47a3,3,0,0,1,.91-2.29,3.17,3.17,0,0,1,2.22-.85h11.74a3.12,3.12,0,0,1,3.13,3.14V95.34q0,16.05,14,16,6.78,0,10.76-4.31t4-11.74V59.47a3,3,0,0,1,.91-2.29,3.17,3.17,0,0,1,2.22-.85h11.61a2.92,2.92,0,0,1,3.13,3.14V121a3.16,3.16,0,0,1-.84,2.22,3,3,0,0,1-2.29.91H438.22a3,3,0,0,1-2.21-.91,3,3,0,0,1-.92-2.22v-5.35q-7.17,9.78-21.65,9.79Q401.44,125.48,394.52,117.65Z"/><path class="cls-2" d="M481.28,149q-7.18-3.84-10.18-8.8c-2-3.31-3-6.13-3-8.48a2.79,2.79,0,0,1,.91-2.15,3.13,3.13,0,0,1,2.22-.85h11.61a3.46,3.46,0,0,1,2,.58,4.12,4.12,0,0,1,1.37,2.16,15.24,15.24,0,0,0,4.31,5.8q2.86,2.41,8.87,2.42,7.83,0,11.48-3.46t3.65-12.07V115.3q-7,8.36-20,8.35-13.56,0-20.41-8.22T466.79,93l-.13-3.52.13-3.52q.52-14,7.44-22.44T494.58,55a26.78,26.78,0,0,1,12.13,2.61,24.44,24.44,0,0,1,8.61,7V59.6a3.08,3.08,0,0,1,1-2.35,3.27,3.27,0,0,1,2.29-.92h10.69a3,3,0,0,1,2.22.92,3.17,3.17,0,0,1,.91,2.35l.14,62.88q0,14.47-8.09,22.43t-24.4,8Q488.45,152.87,481.28,149Zm29.22-43.89a20.16,20.16,0,0,0,4-11.49,40.73,40.73,0,0,0,.13-4.17,40.73,40.73,0,0,0-.13-4.17,20.1,20.1,0,0,0-4-11.48q-3.66-4.71-11-4.7-14.09,0-14.87,17.22l-.13,3.13q0,20.36,15,20.35Q506.85,109.82,510.5,105.13Z"/><path class="cls-2" d="M557.27,122.8a22,22,0,0,1-8.74-7.24,17.71,17.71,0,0,1,4-24.39q7.18-5.49,19.7-7.44l17.88-2.61V78.38c0-3.74-1-6.56-2.87-8.48s-5-2.87-9.14-2.87a13.27,13.27,0,0,0-6.91,1.57,22.17,22.17,0,0,0-4.24,3.19L564.77,74a2,2,0,0,1-2,1.56H552.64a2.9,2.9,0,0,1-2-.78,2.73,2.73,0,0,1-.85-2.09q.13-3.26,3.2-7.37t9.46-7.17Q568.81,55,578.2,55q15.4,0,22.44,6.91t7.05,18.14v41a3.17,3.17,0,0,1-.85,2.22,3,3,0,0,1-2.28.91H593.73A3.11,3.11,0,0,1,590.6,121V116a21.36,21.36,0,0,1-8.09,6.85,28.49,28.49,0,0,1-13,2.68A27.71,27.71,0,0,1,557.27,122.8Zm28.37-14.54q4.56-4.7,4.57-13.57V92.08l-13.05,2.09q-15,2.34-15,10a7.29,7.29,0,0,0,3.46,6.46A14.68,14.68,0,0,0,573.9,113,15.67,15.67,0,0,0,585.64,108.26Z"/><path class="cls-2" d="M641.34,116.21V121a3,3,0,0,1-.91,2.22,3.17,3.17,0,0,1-2.35.91H627.65a3.11,3.11,0,0,1-3.13-3.13V34.68a2.94,2.94,0,0,1,.91-2.28,3.13,3.13,0,0,1,2.22-.85H639a2.93,2.93,0,0,1,3.13,3.13v29q7.3-8.61,20-8.61,13.17,0,20.28,8.54T689.87,86c.09,1,.14,2.48.14,4.3s0,3.18-.14,4.31q-.51,14.09-7.56,22.5t-20.22,8.42Q648.51,125.48,641.34,116.21Zm30.66-22c.09-.87.13-2.18.13-3.92s0-3-.13-3.91q-.91-17.22-14.87-17.22-7.17,0-11,4.56a18,18,0,0,0-4,11.09c-.09,1-.13,2.74-.13,5.09s0,3.92.13,5A20.22,20.22,0,0,0,646,106.56q3.65,4.83,11.09,4.83Q671.08,111.39,672,94.17Z"/><path class="cls-2" d="M712.25,148.18a2.43,2.43,0,0,1-.85-1.83,5.23,5.23,0,0,1,.52-2.09l10.31-24.13L697.18,61a4.86,4.86,0,0,1-.52-1.83,3.45,3.45,0,0,1,.91-2,2.58,2.58,0,0,1,2-.85h10.83a3.54,3.54,0,0,1,3.39,2.48l17.35,42.53,17.61-42.53a4,4,0,0,1,3.65-2.48h10.57a2.68,2.68,0,0,1,2,.79,2.5,2.5,0,0,1,.78,1.82,5.37,5.37,0,0,1-.52,2.09l-36.92,85.45a3.7,3.7,0,0,1-3.65,2.48H714.14A2.71,2.71,0,0,1,712.25,148.18Z"/><path class="cls-2" d="M789.8,118q-6-6.2-6-18.2V70.29H773.5a3.11,3.11,0,0,1-3.13-3.13V59.47a3.12,3.12,0,0,1,3.13-3.14h10.3V34.68a3,3,0,0,1,.92-2.28,3.09,3.09,0,0,1,2.21-.85h10.83a2.91,2.91,0,0,1,3.13,3.13V56.33H817.2a3.12,3.12,0,0,1,3.13,3.14v7.69a3.11,3.11,0,0,1-3.13,3.13H800.89V98.34c0,3.74.66,6.57,2,8.48s3.43,2.87,6.39,2.87h9.13a3.09,3.09,0,0,1,2.29.85,3.12,3.12,0,0,1,.85,2.28V121a3.17,3.17,0,0,1-.85,2.22,3,3,0,0,1-2.29.91H807.68Q795.8,124.17,789.8,118Z"/><path class="cls-2" d="M839.31,117.13q-8.53-8.35-9.06-23.75l-.13-3.26q0-16.31,8.54-25.7T862.34,55q15.52,0,23.94,9.39t8.41,25v2.74a3,3,0,0,1-.91,2.22,3.17,3.17,0,0,1-2.35.91H848.12v1a20.19,20.19,0,0,0,4,12.07,12.26,12.26,0,0,0,10.24,4.76,14.71,14.71,0,0,0,12.13-6,7.09,7.09,0,0,1,1.83-1.76,5.5,5.5,0,0,1,2.22-.32H890a3.2,3.2,0,0,1,2,.65,2.17,2.17,0,0,1,.85,1.82q0,3.14-3.72,7.37a30.89,30.89,0,0,1-10.63,7.38,38.72,38.72,0,0,1-16,3.13Q847.86,125.48,839.31,117.13Zm37.38-32.88V84q0-7.69-3.85-12.33A13,13,0,0,0,862.34,67a12.76,12.76,0,0,0-10.44,4.63Q848.12,76.3,848.12,84v.26Z"/><path class="cls-3" d="M912.65,123.19a3.13,3.13,0,0,1-1-2.28V36.24a3.4,3.4,0,0,1,.92-2.41,3.06,3.06,0,0,1,2.34-1h34.31q19.32,0,30,9.2t11.22,26.42c.08,2.52.13,5.87.13,10s-.05,7.48-.13,9.92q-1.31,35.75-40.57,35.74h-35A3.09,3.09,0,0,1,912.65,123.19Zm36.59-18.59q8.22,0,12.14-3.91t4.17-12.52c.18-2.53.26-5.79.26-9.79s-.08-7.22-.26-9.65q-.25-8.36-4.5-12.33t-12.46-4H936.2V104.6Z"/><path class="cls-3" d="M1006.45,123.19a3.13,3.13,0,0,1-1-2.28V36.24a3.39,3.39,0,0,1,.91-2.41,3.08,3.08,0,0,1,2.35-1H1049q16.57,0,24.66,6.79t8.09,19.3a17.86,17.86,0,0,1-3.33,10.83,21.36,21.36,0,0,1-7.37,6.65,21,21,0,0,1,9,7.77,21.26,21.26,0,0,1,3.66,12.19q0,13.19-8.68,20.49t-24.85,7.3h-41.49A3.09,3.09,0,0,1,1006.45,123.19ZM1046.3,69q4.83,0,7.44-2.61a9.17,9.17,0,0,0,2.61-6.78,8.92,8.92,0,0,0-2.54-6.59q-2.55-2.55-7.51-2.55H1030V69Zm1.18,37.57q5.08,0,7.89-2.94a10.82,10.82,0,0,0-.06-14.61,10.49,10.49,0,0,0-7.83-2.93H1030v20.48Z"/><path class="cls-2" d="M209.5,89.94A89.88,89.88,0,1,1,118.94.74a89.87,89.87,0,0,1,90.56,89.2"/><g class="cls-4"><path class="cls-5" d="M131.08.4l.28,0-.28,0M129.55.17h0m-.43-.06.4.05h0l-.18,0-.2,0m-.23,0h0L128.4,0h0l.52.07m53.4,25.42-.29-.31c-1.42-1.33-2.78-2.52-4-3.57l-.56-.48c1.7,1.34,2.62,2.2,4.6,4.05l.47.45a1.24,1.24,0,0,0-.18-.14M205,59.88a.76.76,0,0,0,.06.16l0,0,0-.12M204.25,58c.27.65.52,1.29.75,1.9l-.06-.15c0-.12-.09-.27-.13-.39l0-.1-.05-.12V59L204.25,58m-4.81-10.33h0c-1.26-2.26-1.85-3.35-3-5.07.93,1.44,1.79,2.9,2.61,4.37l.4.7M191.7,35.86h0l-.09-.12.09.12m-9.39-10.35c.18.19.38.37.56.55-.13-.15-.27-.29-.4-.42a1.24,1.24,0,0,0-.18-.14h0M193.21,142l-.34.46a60.1,60.1,0,0,0,3.46-5c-.56.86-1.6,2.47-3.12,4.55m6.89-11h0A53.87,53.87,0,0,0,203,124.9a1.24,1.24,0,0,1-.1.2q-1.35,3.08-2.84,5.88M206,117s0,.06,0,.08a55.63,55.63,0,0,0,1.67-5.79h0c-.5,2-1.06,3.91-1.67,5.77l0-.07m4.29-27.19a.65.65,0,0,1,0,.14.65.65,0,0,0,0-.14m0-.4v0h0m0-.06v0m-1-12.83c.26,1.53.4,2.61.54,4.27-.15-1.48-.33-2.91-.54-4.27M108.92,26.9c0-.14,0-.28,0-.41s0-.49,0-.74l-.8-.1-.84.41.17,1.05h1l.43-.21M106,25.48l0-.05,0-.4c-.15.07-.24.2-.39.27a1,1,0,0,1-.32.09,2.36,2.36,0,0,0-.77.35c-.12.07-.24.14-.37.2.12.1.2.25.37.31a1.13,1.13,0,0,0,.44,0,2.66,2.66,0,0,0,.7-.36c.08-.06.08-.06.32-.37m6.12-15.11.79-.21-.68-.56-1.16-.07h-.78l0,.63.08.5,1.28.07.5-.36M127.82-.06h0L128,0c-.38,0-.75-.1-1.14-.13l-.27,0,.21,0h0L128.2,0h0l1,.13.49.07.55.08h0l.48.08.31.05.18,0-2-.3.15,0-.6-.08L128.3,0h.1l-.58-.07m2.46.34L129.7.2l-.88-.12-.12,0c.36.05.74.09,1.1.16h-.05l.36.06h0l-.21,0,.85.13-.38,0h0l1.08.15c-.26,0-.53-.07-.79-.13h0c.27,0,.54.06.8.12l.61.1.53.09.35.06c-.28-.06-.76-.14-1.47-.25l-.28,0-.14,0h0l-.83-.13m3.66.87a6.49,6.49,0,0,0-.78-.12l.23.05h0L132.06.87c.38.09.77.12,1.15.23l-.23,0-.69-.13-.16,0-.32-.05.39.07h0L132,.9h0l1.71.32c-.43-.05-.84-.15-1.26-.21-.27-.05-.28-.05-.36,0,.36.09,1.11.23,1.45.28h0l.25,0-.19-.06c.18,0,.34.05.7.12l0,0,.68.14.57.09,0,0-.08,0c.23,0,.42.18.65.1-.23-.11-.5-.08-.74-.19a1.54,1.54,0,0,0,.3,0c-.13,0-.13,0-1.78-.39m1.63.55-.16,0,.16,0h0m6,1.25-.31-.08-.6-.14.06,0-1.07-.26,0,0c-.67-.17-1.34-.31-2-.47,0,0-1-.19-1.15-.21l.28.08c-.14,0-.27,0-.35-.05l-.79-.18c-.7.12-1.29-.27-1.94-.33h0c.31.08.61.14.91.2l.31.06c1.29.28,1.29.28,1.51.35a4.88,4.88,0,0,1-.86-.18l-.31-.06-.31-.07-.31-.07-.62-.12c.31.09.63.16,1,.24v0l-.52-.11c-.28-.07-.53-.14-.81-.19l.6.15,0,0c1.32.47,2.72.59,4.07,1-.49-.1-1-.24-1.45-.32.23.08,1.89.48,2.1.5a4.83,4.83,0,0,0-.94-.26,4.68,4.68,0,0,1,1.11.24H139c-.1,0-.94-.29-1.24-.37l-.49-.12-.05,0c.39.08.39.08,1.15.28l.05,0L138,2.37l.23,0c.25.06.5.14.77.19l.26.07h-.21c.06,0,.06,0,.25.09,0,.09,0,.09.53.22l.65.18-.11,0h0l.19,0a2.52,2.52,0,0,0-.6-.22l0,0c.13,0,1.2.37,1.21.37h0a.27.27,0,0,0-.18,0,23.15,23.15,0,0,0,3.26.9l-.07,0-2.68-.89c-.51-.17-1-.31-1.51-.44-.07-.06-.1-.08-1.89-.52l.06,0c2.08.51,2.08.51,3.83,1h0a7.75,7.75,0,0,0-.77-.26,10,10,0,0,1,1.11.3v0l-.7-.21,0-.05L141.53,3m41,23.42.08-.09-.07,0v0l-.19-.15-.21-.2h0v0s0,.11.42.43M161.05,10.58,159.83,10h0l.06,0,0,0,.14.06,1,.55v0m7.5,4.09-5.17-3.11h0l-.51-.27.06,0,.63.35.07.05-.79-.44-.19-.1-.83-.45,0,0,.36.2a4.16,4.16,0,0,0-.48-.22,2.68,2.68,0,0,1-.34-.17l-.6-.33c-.36-.18-.73-.33-1.1-.5l0,0,.82.42a3.26,3.26,0,0,1-.49-.23,4.92,4.92,0,0,1-.45-.24l-.32-.15v.07l1.13.57.27.14.23.12h0c-.62-.33-.84-.45-1.19-.6h0L159,9.53l-.07,0,.06,0c.46.25,1.36.78,1.37.79l0,0a5,5,0,0,1-.72-.35c-.1,0-.11,0-.11,0a4.43,4.43,0,0,0,1.42.76c.26.12.45.23.65.33v0a2.62,2.62,0,0,0-.38-.09h-.06a14.15,14.15,0,0,1,1.33.75l-1.82-.85a3.74,3.74,0,0,0,.49.32,15.27,15.27,0,0,1,1.74,1c-.15,0-.15,0-.88-.43.25.19.88.6.88.61.23.12.49.22.72.35l.26.15.21.15c-.14-.05-.14-.05-1.57-.78.32.22.58.38.83.53l.1.08-.13,0c.2.28.54.37.82.55l-.09.08a4,4,0,0,0,.41.31l0,0a3.1,3.1,0,0,0,.46.33l0,0,.24.18h.11c-.4-.44-.4-.44-.4-.48l-.23-.16,0-.07-.09-.11,0-.11a1.48,1.48,0,0,1,.55.29c.14.36,4.81,3.91,4.86,3.94l-.21-.15a7.77,7.77,0,0,0,1,1.13l.18-.05a23.73,23.73,0,0,1,1.78,1.92.82.82,0,0,1-.28-.07.42.42,0,0,0-.18,0l.39.33.5.37v.12l0,.07h0a15.62,15.62,0,0,0,1,1.39l-.1.05c.36.91,1.31,1.32,1.93,2l0,.06.18.21.42.41.19,0c1.13-.12.72,1.57,1.83,1.51.45.47.45.47.52.61a5.36,5.36,0,0,0,1.17-.2c-.15-.2-.29-.4-.45-.59l.11-.05,0-.11c-.14-.15-.28-.29-.43-.43.09,0,.33.06,1.3,1a7.39,7.39,0,0,0,1.31-.5,8.13,8.13,0,0,0-1.21-1.42l-.22-.22c-.55-.49-1.27-.77-1.8-1.28s-1.23-1.09-1.84-1.61a51.19,51.19,0,0,0-6.54-5.74l.08-.05h0l.76.49-.32-.27a7.14,7.14,0,0,1,.83.52l.82.58,0,0a17.92,17.92,0,0,1,1.76,1.36l-.12,0c.6.58.6.58,4.24,3.67l.23.19c.43.37,1.07.83,2.14,1.59h0c-.13-.16-.27-.31-.41-.47l.11,0a1.45,1.45,0,0,0-.34-.4l-.1-.1,0-.14-.19-.18-.05-.07.48.42,0,0,.22.19c.52.48,1,1,1.51,1.5a1.88,1.88,0,0,1-.41-.32,2.3,2.3,0,0,0,.25.43l-.11,0a7.66,7.66,0,0,0,.77.81c.21-.16.18-.37,0-.58l-.47-.45c-7-6.12-7.16-6.24-11.22-9l-1.42-1h0c-.54-.36-.54-.36-1.7-1.08.27.15.87.55.89.55h0m11.61,12.7h0l-1.14.27,0,0,.14.19c.08.08.17.13.24.21l.16.16.08,0h.06l.05,0h0l.13.1c.13.12.27.21.4.31l0-.15.08,0,.07,0c.06,0,.09.1.17.08s0-.22,0-.22l-.07-.1c-.06-.08-.08-.1-.07-.12s.1,0,0-.11a3.22,3.22,0,0,0-.44-.64m1.8-.62a10.43,10.43,0,0,1-1.32.48c.26.26.58.45.85.7l.1.11c.6.67.6.67.8.81a5.78,5.78,0,0,1,.64.48l.21.22.19.21a6.62,6.62,0,0,0,1,.87,5.8,5.8,0,0,1,.72.84l.09.12.42.43.34-.12c-.73-.86-.73-.86-.81-1h0l.07,0c.09,0,.14.12.23.13-.06-.15-.28-.22-.24-.43h0c-.18-.23-.38-.44-.59-.66l.15-.07-.51-.54-.07,0,0,.06,0,0c-.14,0-.18-.19-.32-.24a12.53,12.53,0,0,0-1.3-1.48,3.88,3.88,0,0,1-.73-.89m9.65,9c-2.63-3.13-6.28-7.18-9.14-10.11a.45.45,0,0,1,.1.64l-.08.09.07,0h0c.38.31.56.82,1,1.06-.09-.21-.09-.21-.45-.6.31.14.31.14,2.18,2.12l0,.09a4.47,4.47,0,0,1-.65-.59c-.12-.09-.13-.09-.13-.08l-.31-.32c-.12-.1-.13-.09-.15-.08,1.16,1.3,2.2,2.7,3.46,3.9l.18.24a.71.71,0,0,0-.38-.09,14.28,14.28,0,0,0,1,1.18l0,.08c-.34-.29-.68-.61-1-.89a10.45,10.45,0,0,0,.64,1.3l-.13.16.09.18-.2.07a5.26,5.26,0,0,1-.7-.76c-.12-.11-.16-.1-.19-.08l.09.19a1,1,0,0,1-.2.14c.06.23.06.23.49.77l-.12,0c-.26-.1-.26-.1-.72-.63l0,.07-.12,0-.33-.4-.27-.32c0-.17.06-.19.13-.21s.06,0,.57.31c0-.4-1.11-1.62-1.58-2.12-.14-.11-.17-.1-.21-.08-.06.21-.06.21.27.7l0,.07h0c-.22-.17-.22-.17-.7-.83-.19-.23-.29-.34-.39-.45h-.21A12,12,0,0,0,182,28.88c0,.5.71.71.58,1.27a2.91,2.91,0,0,0,.3.31l.22.24c.71.83,1.31,1.72,2.09,2.49l.21.26c.14.18.27.35.39.53s.55.54.82.83.28.37.41.52l-.11,0-.13.16-.12,0a1.08,1.08,0,0,0-.4,0,1.51,1.51,0,0,0,.07.37l-.09.2a5.44,5.44,0,0,1,.43.82h-.22l-.09,0h-.07a.6.6,0,0,0,.17.51l.34.2.56.78c-.21.24-.21.24,0,1.15,0,.15,0,.16-.07.17l-.19,0a9.69,9.69,0,0,0,.85,1.48,1.13,1.13,0,0,0-.38.19,2.56,2.56,0,0,0,.39.85l-.39.06-.16-.1a.94.94,0,0,1-.41,0c-.06-.08-.11-.16-.16-.24a.65.65,0,0,0-.37-.18,4.16,4.16,0,0,0,.42.78,1.58,1.58,0,0,1,.52.67l.21.24c.06.11.13.22.18.32a1.4,1.4,0,0,1-1.26-.28,1.41,1.41,0,0,1-.35.21c-.13.3-.2.46.22.9h.13c.46.5.72.44.85.42l.15,0c.46.36.89.75,1.35,1.12l.74,1.35c1.8,2.09,1.8,2.09,2.4,4.44,0,.13-.08.3-.11.43a.66.66,0,0,1-.27.14c-.47-.25-1.05-.29-1.46-.66a11.52,11.52,0,0,0-1.33.13c-.64,0-.64,0-.84-.23h-.11l-.08.18a1.7,1.7,0,0,1,.15.41,1.61,1.61,0,0,1-.7.2l0,.28c.73.85.77,2,1.57,2.87.26.62.47,1.15.68,1.69a9,9,0,0,0,.63,2.49c.07.09.16.23.23.33s.07.19.1.28l.09.29c0,.38,0,.52.32,1.32a.81.81,0,0,0,.48,0,.91.91,0,0,1,.4-.14c.15.13.26.32.45.4a1,1,0,0,0,.34-.26l.8.48a5.49,5.49,0,0,0,.7,1c0-.1,0-.24,0-.33l-.16-.06.1-.16c.9-.09.23-1.38,1.12-1.49.48-.61.39-1.53,1.17-2l-.35-.93a4.65,4.65,0,0,1-.92-2.4l-.1-.43a1.1,1.1,0,0,1,.29-.28c-.09-.54-.09-.54.29-1.16a.94.94,0,0,0,.38-.12,8.43,8.43,0,0,0-.33-.83c0-.08-.08-.18-.13-.27-.75-1.43-1.12-2.16-.2-1.86h.08a5.67,5.67,0,0,0,.54.37l.3,0,.11-.18a3.38,3.38,0,0,1-.34-1c.1-.12.12-.13.15-.13l.15-.14a3.6,3.6,0,0,0-.13-.8c1.32.3,1.27,1.7,2.09,2.41a1.64,1.64,0,0,1,.48.62,15.48,15.48,0,0,1,3.76,5.2c-.05.09-.05.09-.07.85a1.38,1.38,0,0,0-.65.16l.16.33c.36.34.42.89.89,1.15a.78.78,0,0,0,.45-.05l-.39-1a10.36,10.36,0,0,0-.7-3c0-.1-.08-.2-.13-.3l-.12.09a.81.81,0,0,1-.2-.32l-.17-.41.18-.09a1.55,1.55,0,0,1,.4.51c-.25-1.17-1.26-1.9-1.82-2.89-.48-.15-1.89-2.2-2-2.33l-.09-.05a8.34,8.34,0,0,1-.46-.84h-.21a1.87,1.87,0,0,1-.45-.63l-.09-.28,0-.21-.08-.13a8.18,8.18,0,0,1-.52-.86l.19-.08a34.27,34.27,0,0,1,3.05,3.52,28.22,28.22,0,0,1,1.73,2.62c1.27,2.58,1.27,2.58,1.48,2.72a12.16,12.16,0,0,1,.51,1.16l-.07,0-.08-.21c0,.17,0,.39.61,1.34,0-.12,0-.26-.08-.38l0-.19c.28.62.53,1.26.82,1.87.08.09.1.08.11.06a2.16,2.16,0,0,0-.21-.81,4.06,4.06,0,0,0-.16-.39,5.22,5.22,0,0,1-.22-.61l.12.15h0a8.32,8.32,0,0,0-.42-1.13,2.33,2.33,0,0,0-.32-.79,6.24,6.24,0,0,0,.24.66c-.3-.41-1.2-2.25-1.2-2.27s-.08-.18-.12-.27l-.08-.21.06,0c.06.1.14.25.21.35l0-.06h0a4.35,4.35,0,0,1-.45-1.18c.24.3.34.68.56,1l.22.47c.26.74.64,1.43.93,2.16l.16.38c.1.25.13.33.17.41s.19.46.28.7l.05.13,0,.06,0,.14.06.12,0,.09c.07.2.15.39.21.6l.06.14.06.19c.11.26.2.53.3.79l0,.14,0,.09-.17-.48c0-.11-.09-.26-.13-.36s-.14-.38-.21-.56-.11-.3-.15-.42v0l0,0c-1.47-3.47-3.55-8-5.26-11.41-4.55-7.52-5.25-8.68-7.84-11.88m-17.24-6.82,0-.05-.08.16c0,.11.08.21.06.32l-.06.07v0c0,.08.11.13.13.2s.06.27.12.39a3.25,3.25,0,0,0,.23.29l.21.1,0-.13-.06-.12c-.16-.3-.15-.32-.14-.34h.1c.08,0,.07-.06.07-.09s-.13-.13-.18-.19l0-.12a3,3,0,0,0-.34-.5m11.52,9a4.84,4.84,0,0,0-.4-.5c-.38-.27-.64-.66-1-.91l-.05.07c.08.11.35.46.26.67-.08,0-.08,0-1.12-1.31l-.29.05c-.44-.66-.91-1.33-1.21-1.24l-.23-.22A5.93,5.93,0,0,1,181,34c-.35-.24-.55-.61-.88-.85s-.75-.16-1.06-.42l-.27-.66L179,32c-.06-.08-.13-.15-.2-.25s-.22-.54-.4-.78l-.76-.89-1,.15c-.8-1.38-.89-1.53-1.06-1.57l-.08,0-.18.06c-.09.07-.18.07-.47.05.08.1.08.1.66.92.19.27.54.43.63.78-.29.16-.45-.19-.71-.15a1.36,1.36,0,0,0,1.1,1l.12.23c.07.07.13.15.19.22.15.23.4.41.5.68-.22.21-.22.21.21.72a.43.43,0,0,0,.24-.08V33l.58.42.23,0a1.72,1.72,0,0,1-.3-.46s.91.75,1,1.14l-.06,0,0,.15a2.89,2.89,0,0,0,.43.45l.55-.08-.07-.21c.74.25.86,1.1,1.53,1.4.25.42.85.64.79,1.24-.25,0-.47-.21-.73-.14h-.17a2.58,2.58,0,0,0,.08.26c0,.07.09.18.13.26h-.22c.25.36.27.38.41.4.34-.34.47-.06.68.37l-.12,0c0,.16.09.29.11.44l-.12.07h-.07c.1.18.42.74.65.71a1.69,1.69,0,0,1,.12-.28l1,.16s.62.58-.13.64c-.1.14,0,.28,0,.42H184l-.18.15c.49.76.49.76.33,1.19l.18.14a.76.76,0,0,0,.27-.23s0,0-.05-.39c.07,0,.07,0,.36.14l.34,0c-.33-.53-.33-.55-.36-.67a.4.4,0,0,0,.33-.06c.06,0,.15.06.45,0a.66.66,0,0,0-.09-.39l0-.07c.27,0,.42.29.66.36l.08,0c.1-.07.25-.05.35-.11s-.15-.28-.1-.45l.14,0,0-.14a7,7,0,0,0-.71-.82l-.08-.12c-.12-.19-.12-.19-.12-.29l.14-.06-.3-.48.19,0M178,35.38h0m1.79,0-1-1.1c-.21-.2-.29-.16-.33-.13s-.16-.11-.25-.16h-.08c-.09,0-.08.14-.16.19s.08.26.07.39c-.22-.13-.42-.29-.64-.42l-.25.09c.29.38.53.8.82,1.17l-.07,0,0,.11-.15,0-.11.18c-.1,0-.16-.12-.24-.16l-.11.08c.38.55.77,1.11,1.14,1.67a1,1,0,0,0,.44-.05c.17.24.33.49.49.74l-.28.1a2,2,0,0,0,.16.46c.08.19.24.33.32.52l-.06.11c.2.61.78.88.88.74s.16-.27.47-.06c.09,0,.09,0-.07-.88l1.06-.14-.23-.34a1,1,0,0,0-.21-.24c-.23-.24-.22-.28-.22-.31l.06,0a9,9,0,0,0-1.09-1.69l-.34-.48h.1c0-.05.08-.19-.06-.42M209,74.66l-1.5-6.87a15.91,15.91,0,0,0-1.07-1.94c-.21,1.43.67,2.66.76,4,0,0,0,0-.25-.11a5.63,5.63,0,0,0-.51-1c-.15.07-.31.15-.5.22l-4.67-8.75c-.31.67-1.05,1-1.43,1.58-.59-.82-.59-.82-1.17-.9-.14.46-.48.85-.47,1.36a3.59,3.59,0,0,0-1.13.35c.13,1.15.13,1.15,0,1.54l-.53,0-.32.36-.13,0-.51-.07-.11,0a1.14,1.14,0,0,1-1.36-.4l-.37-.16a11.09,11.09,0,0,0,.41,2.61,4,4,0,0,1-1,.14c.21.8.41,1.59.61,2.4a1.23,1.23,0,0,0-1.07.6c.2,1.28.31,2.57.53,3.86.07.34.14.69.2,1l-1,.11a8.34,8.34,0,0,1-.55,2.61c-2.44,1.54-.28,4.55-2.16,6.28l-.17.09-.49.14c0,.24,0,.24-.84,4.59q0,.52.06,1.08c.54.06,1.1,0,1.65.09.06.15.15.35.22.51-.32,1.08-.32,1.08-.3,5,0,.21,0,.42,0,1-.16.66-.16.66-.79,1.3,0,.7.22,1.38.29,2.08,0,.2,0,.41,0,.61,0,1.36.21,1.66,1.23,2.94l.51,0a10.48,10.48,0,0,1,.43,1.55l.52.06c-.3,2.52-.3,2.52,1.73,3.67-.05.51-.12,1-.17,1.53.75.65,1.1,1.69,2.19,2,.31-.44.49-.94.76-1.39.31,0,.71-.1,1-.16l.17,0a2.38,2.38,0,0,1,1,0c.06.14.14.35.2.5,1.4-.23,1.46-2.3,3.15-2.12,0,0,.08,0,.26-.23a3,3,0,0,1,.7-.8l.45.24c-.11,2.07-.11,2.07.19,2.46.54-.13,1-.25,1.5-.38-.13.6-.26,1.2-.5,2.14-3.71,14.37-3.71,14.37-4.4,15.73-.08.18-.16.36-.25.54-1.46,3.25-2.42,5.4-9.89,16.69-.61.8-1.24,1.57-1.87,2.34a63.8,63.8,0,0,1-6.79,7.59l-.39.35c-.73.64-.73.64-1.18,1.08v0c-.88.77-.88.77-1.17,1.06l.19-.14c2.75-2.52,6.27-6,8.84-8.72,3.2-3.6,3.2-3.6,8.61-11.34,2.59-4,2.59-4,6.72-12.57,1.92-4.43,1.92-4.43,4.63-13.59a99.88,99.88,0,0,0,2.64-21.89c0-5,0-5-1.33-14.76M166,130.1c.21-2.89-.19-3.1-.66-3.34a13.49,13.49,0,0,1-1.46,0c-1.39-.38-1.69-2.79-3.53-2.13l-1.79.07c-1.15-.59-2-1-2.2.1-.32.21-.65.42-1.5-.11.1-.29.1-.29.84-.81-2-1.27-2-1.27-3-1.4a1.44,1.44,0,0,1-.6-.14,1.82,1.82,0,0,0-1.59-.2c-.05.45-.11.89-.16,1.33l-1.19,0a3.93,3.93,0,0,1,.2-.88,5.5,5.5,0,0,0,.54-.54l.39-.27-.11-.37s-.65-.18-1.61-.5h-.31l-.33,0-.33.22c-.08.74-.13,1.23-1.31,1.08a4.92,4.92,0,0,1,.16-.83c1.93-2.09,1.93-2.09,1.46-3.06h-.8c0-.51.09-1,.13-1.55a13.65,13.65,0,0,0-.7-1.78s-3.1-1.42-3.91-1.87-1.52.16-2.28.14c-.17,0-.34,0-.58,0-2.85-.45-3-1.08-3.62-2.74-.21,0-.21,0-1.77-.82a.53.53,0,0,0-.06-.32c-1.09-.14-1-.78-1-1.39a2.7,2.7,0,0,0-.62.08c-1.27.37-1.27.37-1.6.33a7.54,7.54,0,0,1-.12-1.13,1.9,1.9,0,0,0,.71-.31c-.3-.41-.36-.49-1.4-.65l-.71.53-.24,0a1.58,1.58,0,0,0-1.23-.19c-.64,1.36-.64,1.36-1.14,1.46-.65-.41-1.1-1.12-2-1.24a10.55,10.55,0,0,1-1.94-.13l-.79-.15a1.08,1.08,0,0,0-.3-.9c-.94-.05-1.6-1.08-2.67-.67a1.11,1.11,0,0,1-.44,1.08,1.68,1.68,0,0,0-1.39.58c-.38.9.4,1.77,0,2.67-1.54-.83-.22-2.42-.94-3.48.14-.58,1.37-1.51,1.39-1.52l-.15-.31h-.69c-.94.21-1.09.28-1,1.31a20.42,20.42,0,0,0-2,.09,4.22,4.22,0,0,1-3.07,1.08,8.4,8.4,0,0,1-.12,1.88,1.38,1.38,0,0,1-1.19.39,3.21,3.21,0,0,0-.55,1.42c-1.17.8-1.43,1.46-1.48,1.78a2.59,2.59,0,0,0,.71.29c0,1.21,1.41,2.69-.09,3.64-.22,1.8-.22,1.8-.58,2.2-.26,0-.6,0-.85.06.06.3.14.7.18,1-.27.14-.63.34-.88.5,0,.17,0,.4,0,.58-.85.18-1.31.28-1.28,1.68a2.24,2.24,0,0,0-1.2.22,14.43,14.43,0,0,0,.12,2.37l.37.17a1.67,1.67,0,0,1,1.2-.1,2.4,2.4,0,0,1-.11.83,7.5,7.5,0,0,0-1.21.41c0,.62,0,.62-.85,1.18-.13.66-.13.66.48,1.4,0,.09,0,.18,0,.27.15,2.66,3.86,2.79,4.14,5.35a5.11,5.11,0,0,0,.06.63c4.67,6.66,4.67,6.66,5.26,6.72,0,0,2.17.4,4.55,3.11h.81c0,.82,0,1.62,0,2.42a2.68,2.68,0,0,0-.06.8l-.06.12a1.6,1.6,0,0,0,0,.37l.1.4a1.71,1.71,0,0,1-.14.43,1.66,1.66,0,0,0-.08.73l-.07.07a1.54,1.54,0,0,0,.1.44c0,.11,0,.26,0,.37v.12c0,.08,0,.15-.2.49a1.73,1.73,0,0,0,.18.75v.22a.7.7,0,0,1-.09.34c-.15.76-.79,1.35-.8,2.15a27.7,27.7,0,0,1-1,3,.92.92,0,0,0,0,.2c.53,2.87.65,3.47-.71,4.61a2.9,2.9,0,0,0,0,.45c0,.12,0,.27,0,.39l.05.11c-.25.59-.82,1-1.11,1.54.67,1.1.49,1.46,0,2.52a3.68,3.68,0,0,1,.15.35,1.1,1.1,0,0,1,.15.59l-.39.11c-.26.77-.26.77-.18,1.06l.35.16h.54l.09-1.3h.67a1.31,1.31,0,0,1-.11.57l-.32.23a4.58,4.58,0,0,1,0,.8c-.06.08-.06.08-.25,1.42a2,2,0,0,1-.47-.4,3.35,3.35,0,0,0-.07-.39s0,0-.23.06c0,.14,0,.27.33.6a2.19,2.19,0,0,1,.26.7c-.28-.13-.53-.32-.82-.44,0,.13,0,.25-.31.5,0,.12,0,.27,0,.38a1.89,1.89,0,0,1,.75.24c0,.11,0,.26-.06.37l.37.07c0,.1.09.25.12.35-.77.08-.77.08-1.12.3,0,0,0,0,.11.33a3.7,3.7,0,0,1,.28.28s0,0,0,.4a1.32,1.32,0,0,0,.41.6l-.24.1.2.1c.08,0,.16,0,.2.32l.39.09v.07l-.07.12c.26.44.76.65,1.09,1l.4,0s0,.05.22.22l.77.12a1.16,1.16,0,0,1,.32.08c.28,0,.56,0,1,0a2.66,2.66,0,0,1,.45-.29,6.33,6.33,0,0,0-.76-.12s0-.11-.32-.19c0-.23-.1-.52-.15-.74l0-.09a6,6,0,0,0-.12-.74s0-.07,0-.2a3.77,3.77,0,0,1,.12-.58,3.89,3.89,0,0,0,.68,0c0-.11,0-.26,0-.38a16.06,16.06,0,0,1,1.86-1.32c0-.09,0-.16-.25-.27l-.39-.06c-.58-.57-.58-.57-.66-.86a1,1,0,0,1,.1-.24,3.05,3.05,0,0,1,.74-.38h1a3,3,0,0,1,.35-.94c.26-.27.26-.27.61-1,.72,0,.72,0,1-.32,0,0,0-.1-.12-.29h-.07l-.09,0a1.29,1.29,0,0,1-.72.16c0-.23,0-.53,0-.77l.09-.46a2.73,2.73,0,0,1,.67.1l.33.22a1.72,1.72,0,0,0,1.16-.32s0-.1.1-.35l.31-.21a2.1,2.1,0,0,0,0-.75c0-.12.06-.25.08-.37a10.5,10.5,0,0,0,1.12-.06h.44a5.16,5.16,0,0,0,.78-.17,5.12,5.12,0,0,1,1.24.09s1.55-1.06,2.21-1.65l.32-.34c.06-.16.12-.34.18-.52a2.79,2.79,0,0,1-.39,0c0-.12.07-.23.17-.58a2.67,2.67,0,0,0-.89-.74c0-.11,0-.25-.06-.37l.83,0c3.09.49,3.09.49,4.35-.63,3.51-3.13,3.51-3.13,3.53-3.13a4.16,4.16,0,0,0-.43.66c.3,0,4.48-3,4.39-4.47,0-.8-.1-1.55,3.65-3.68l1.14-.05a7.85,7.85,0,0,0,1.35-.86,13.61,13.61,0,0,0,2.9-.34,1.8,1.8,0,0,1,.48-.58c.41-.11.41-.11,3.45-3.7.18-.05.18-.05,1.35-2.22a1.62,1.62,0,0,1,.25-.45,5.41,5.41,0,0,0,1-1.69,4,4,0,0,0,.15-.6c0-.11,0-.26,0-.37a4,4,0,0,0,.19-.78,3.76,3.76,0,0,1,.82-1.6s2.59-2.16,3.29-2.81l2.31-2.7c.65-.92.65-.92.8-1.49M126.65,95.23l.08,0c-.17-.16-.5,0-.63-.3s0-.6,0-.9a6.86,6.86,0,0,1-1.89.3h-.62c-.34-.06-.61-.27-1-.3h-.32c-.27.09-.37.4-.65.48,0,0-1,0-1.08,0-.44,0-.62-.46-1-.53s-.81-.58-1.34-.61L116,93.27a5.78,5.78,0,0,0-1.2.17c0,.62,0,1.25,0,1.87A5.3,5.3,0,0,0,116,96.4h.68c.8,0,1.23-.8,2-.81.37,0,.69.17,1.06.17s.7-.17,1.06-.16a9.48,9.48,0,0,0,2.4-.27.67.67,0,0,1,.63,0,10.72,10.72,0,0,0,1.58.22h.63a1.53,1.53,0,0,0,.55-.29M109.87,96,110,96c-.09-.2.06-.45-.16-.62s-.37-.06-.54-.12-.35-.24-.56-.32l-.18,0h-1.82c.12.18.2.39.33.57l.17.16c.14.1.16.09.5,0s.85.32.86.32.11.17.11.38a.48.48,0,0,0,0,.26c.21,0,.41.1.62,0s.13-.06.54-.55M108,92.44h4.79a5.31,5.31,0,0,0-2.51-1.94h-.68a5.6,5.6,0,0,1-2,0c-.45-.17-.63-.63-1-.89a16.59,16.59,0,0,0-1.83-.94c-.72-.36-.72-.36-.83-.61s-.15-.36-.56-.38-1,0-1.48,0c-.08,0-.08,0-.62.28-.28.14-.51-.1-.77-.12H99.06c-1.16-.06-1.16-.06-1.32.06-1.34,1,.78,2.83,2.38,2,.38-.18.62-.57,1-.69a5.69,5.69,0,0,1,1.14.06s1.29.41,1.45,1c.06.25.1.27.29.36a7.17,7.17,0,0,0,1.53.4c.41,0,.53.06.73.37a2.26,2.26,0,0,0,1.65,1m53.73-72-.79-.75a3.45,3.45,0,0,0-.5-.35c-.48-.18-.48-.18-.55-.15h-.08a5.59,5.59,0,0,1-.67-.71c-.18-.18-.39-.3-.58-.47l-.52.06c-.19,0-.13.18-.1.25s.13.33,0,.39l.07.15c-.3.05-.58-.14-.89-.11s-.44.24-.43.37,0,.15-.12.18l-.48,0-.37-.37-.36-.35c-.17-.14-.37-.22-.55-.35l-.16.11.37.36c-.51-.16-.51-.16-.55-.15s-.6.08-.63.28c0,.36.7,1,1,.86l0-.18c.58-.13,1.15.42,1.62.86a2,2,0,0,0-1.32.11l.59.56.18-.11.53-.05.16.09.69.76.47.38.28,0a1.79,1.79,0,0,1,.7-.17l.28,0c.46-.13.67.3,1,.44a1.3,1.3,0,0,0,1,0l-.08-.43c-.22-.38-.22-.38-.25-.5s0-.15,0-.21h.21c.05-.24-.28-.46,0-.68.07-.07.07-.07.91-.14M139.77,47.5l.06-.14c-.08-.15-.17-.36-.25-.52-.62,0-.62,0-.82-.11a5.17,5.17,0,0,1-1.12-.69.87.87,0,0,0-.39-.29,9.28,9.28,0,0,0-1.06-.1,5.89,5.89,0,0,1-.58-.24c.12-.85.12-.85.21-1s.26-.1.38-.17a.64.64,0,0,0,0-.86.61.61,0,0,1-.18-.24,1.88,1.88,0,0,1-.41,0c-.05,0-.49.14-.58.3s.07.29.09.44a4.28,4.28,0,0,1,0,.62.42.42,0,0,1,0,.23,12.2,12.2,0,0,1-1.51,2.13,2.84,2.84,0,0,0-.55.79,1.52,1.52,0,0,0-.09.76c0,.22.18.4.22.61l3.88-.09c.32,0,.47,0,1,.48a4.25,4.25,0,0,0,1.52,1c.06-.09.08-.1.28-.19s.38-.17,0-1.34a1.24,1.24,0,0,1,.06-1.36m-11-1.39,0,0c-.16-.06-.31-.17-.48-.23a.73.73,0,0,0-.29,0c-.27,0-.31,0-.44,0a1.49,1.49,0,0,1-.71-.46c-.19-.22-.29-.26-.43-.26a1.54,1.54,0,0,1-.37,0l-.51.26a2.73,2.73,0,0,1,.55.25c.16.12.23.31.38.45l.13.1.5.32c.14.11.25.24.39.34a1,1,0,0,0,.34.16c.16,0,.43.1.92-.87m-3-45.27c-.34-.08-.7-.07-1-.12h-.28a4.15,4.15,0,0,1,1,.34A3.21,3.21,0,0,0,125,1a3,3,0,0,1,.56.2h0l0,0c.35.14.71.26,1.06.41-.53-.12-1-.37-1.55-.51L124.47,1a7.11,7.11,0,0,0-1.28-.31l-.09,0-.17,0a8.22,8.22,0,0,1,1.12.3h-.16l.15.08c-.24-.06-.48-.13-.71-.21l0-.07a1.11,1.11,0,0,0-.48,0l-.34,0,.16.09h0l0,0h0l0,.07a3.85,3.85,0,0,1-.88-.32,1.45,1.45,0,0,0,.42-.06L122,.58a2.78,2.78,0,0,0,.39,0l-.35-.1L122,.37l-.52-.1h0s-.64-.1-1.09-.15l.14,0h-.15l-.39,0h-.2l0,0,.17,0h-.18l-.22,0h.08l-.35-.08.5,0c-.42-.08-.51-.08-.73-.11h-.07l-.36,0H118l.29.09h-.09l0,0a4.89,4.89,0,0,1,.73.21l-.17,0h-.13a2.92,2.92,0,0,0-.55-.09l.14.08H118l.06.05.17,0,.08,0,.05,0,.12,0,.09,0,.09,0,.4.15-.06,0-.08,0-.08,0h-.08l-.07,0h0l-.07,0h-.14l0,0,.06,0,.2.07.08,0,.29.08h.23l.06,0,.21.05.26.09.09,0,.08,0,.08,0,.21.1-.12,0-.06,0h0L120,1h-.09l-.13,0-.36-.08h0l-.09,0h0l-.08,0-.08,0-.17-.06h-.23a1,1,0,0,0-.35,0l.35.13h.07l.2.08.06,0,.09,0,.22.09.06,0,.23.1.08,0h-.14l-.08,0-.07,0-.07,0,0,0-.08,0-.08,0L118.9.93h-.05l0,0-.18-.07h0l-.1,0-.06,0-.08,0-.07,0-.09,0h-.13l.22.11.32.16.05,0,0,0,0,0,.21.16.05,0-.23-.05-.15-.1-.1-.11,0,0,0,0,0,0-.07,0-.09-.05-.06,0,0,0L118,.72l-.06,0-.06,0-.06,0-.12,0v0l0,0,0,0h0v0h0l0,0h-.16v0h-.18v0l0,0,0,0h.15l.05,0,.06,0,0,0,0,0,.06,0,.12,0h.1l.15.07h0l.14.06,0,0h-.17l-.13,0-.06,0-.06,0,0,0-.14,0h0l-.17-.06-.14,0,0,0-.06,0,0,0,0,0-.08,0V1h0v0h0l0,.06h0l.11.12,0,0,0,0,0,0,.24.29a.88.88,0,0,1-.24,0l0,0,0,0H117v.1l-.16.17,0,.11V2h-.19l0,0,0,0,0,0h0v0l0,0h0l0,0,0,.13v.17l.21,0,0,0,0,0h.11l.17,0h.16l.07.16,0,0,0,0,0,0,.1.23v.18l0,0-.14,0h0l-.22.06-.09,0h-.18l-.19,0a.64.64,0,0,0-.3,0v.06s0,0,0,.16l0,0a.66.66,0,0,0-.29.06,4.43,4.43,0,0,1-.51.06l0,0h-.05l0,0,0,.05V4l0,0,0,0h-.21c-.12.19-.12.19.15.52.28,0,.3,0,.44.2h.44l.18.1.07,0a.69.69,0,0,0,.32.12h.15l.13-.06,0,0h.27l.16,0h.17a1.11,1.11,0,0,1,0,.33l0,0-.16.15h-.09l-.07,0h0l-.06,0,0,0h-.14l-.1,0-.18.07h-.07l-.32-.07h-.07l0,.16h-.29l-.08.12.13.14.06.06a5.16,5.16,0,0,1,.78.28l-.08,0,0,0v.05l0,.06.15,0,.06.07,0,0,0,.06,0,0,.07,0,.06,0,.2.09.06,0,.08.06.25.06h.09l0,0,0-.06a.86.86,0,0,1-.13-.23h.16a.91.91,0,0,1,.33,0l.07,0h0l.07,0,0,0,0-.11h.21l.07,0a1,1,0,0,0,.35,0l0-.06,0,0,0,0,0,0h0l0,0,0-.06c.13-.1.2-.06.37,0l.06,0H120l.28.11.07.06.08,0h.48a1.59,1.59,0,0,1,.27.12l.23.05h.11l.24.17.19.06.18,0,.22.15.24.45.13.11.07.06.1.06.06,0H123l.1,0,.08,0,.1.05.19.19.05.06a1.44,1.44,0,0,1,.25.18l.11.06.1.1.08.06s0,0,.34.32c.09.08.2.2.3.28l.09,0,.28.19s0,0,.07.16,0,.12.36.41c.06.12.14.24.21.4a.5.5,0,0,0,.06.32h.32c.06.1.11.21,0,.3l-.14.1c.08.2.26.36.31.58h-.26a1.48,1.48,0,0,0,.17.33c.15.16.18.19.5.23l.3,0,.17,0a2.15,2.15,0,0,0,.68-.1l-.07-.17c.7-.46,1,.69,1.67.67h.09a2.13,2.13,0,0,1,.91.56l.05.16h-.31l-.19,0h-.33c-.68.06-1.27-.53-2-.18a6.05,6.05,0,0,0,.73.61l-.09.15-.17,0s-.46.24,0,.63.94.24,1.35.51l.21-.06a1.41,1.41,0,0,1,.17-.32,2.4,2.4,0,0,1,.54,0,1.74,1.74,0,0,0-.42-.57c-.17,0-.35,0-.53,0l-.12-.13-.35,0v-.17h.41a2.22,2.22,0,0,0,.85.24h.45a.63.63,0,0,1,.48.28l0,.08-.08.14.09.15-.07.17a.42.42,0,0,0,.08.14,2.46,2.46,0,0,1,.6.44l.27.5-.45,0-.2,0a1,1,0,0,0-.12.3H131l-.16-.07-.15.07a1.82,1.82,0,0,1,.24.83l-.38-.08c-.06.22-.06.22-.38.32l-.06.15.08.17.08.17c.4.43,1.2.38,1.42,1a.67.67,0,0,0-.33.21s.66,1.5,1.52,1.14l.06-.18h.17a1.41,1.41,0,0,1,.29,0c.18.13.18.13.23.43a.68.68,0,0,0-.19,0l-.13.11c.76,1.46.76,1.46,1,1.46.16-.17.16-.42.3-.6a2.22,2.22,0,0,1,.37,0,7.18,7.18,0,0,1,.33.83c-.08.16-.25.23-.36.37-.64.79,5,5,5.75,5a.65.65,0,0,0,.3-.07,1.35,1.35,0,0,1,.34-.11h.1c1.24.25,3.12,2.46,3.69.84l-.09-.17-.17-.33c-.28-.6.11-1.3-.3-1.87s-.9-.85-1.14-1.42l-.05-.17a1,1,0,0,1,.35-.14.8.8,0,0,0,.3-.06.82.82,0,0,0,.34-.12c-.33-.53-.33-.53-.16-.82h.17l.09-.16c-.2-.33-.4-.66-.59-1,.14-.7-.75-.73-.92-1.24.5-.09.5-.09.65-.28-.08-.23-.25-.41-.34-.63l1-.05a4.72,4.72,0,0,1-.49-.69l.54,0a5.28,5.28,0,0,0,.57.78,1.38,1.38,0,0,1,.55,0c.14-.27,0-.6.2-.87h.16a.46.46,0,0,0,.46-.2l-.13-.15c-.08-.29-.08-.29.07-.59,0-.1-.09-.24-.12-.34l.11-.1-.21-.5.15-.15-.16-.2,0-.17.12-.13a3.22,3.22,0,0,0-.52-.6l0,0h.18l0,0,.06,0h0l.13.06,0,0,.16.09c1.21.33,1.21.33,1.61.21.14-.28,0-.54,0-.8a1,1,0,0,1,.34-.1.66.66,0,0,1,.28-.17l0-.16.12-.09c0-.38-.41-.61-.35-1a2.63,2.63,0,0,0,.63-.1.87.87,0,0,0-.36-.62l-.17,0,.05.16,0,.21h-.15c-.34-.08-.58-.35-.93-.39h-.11a2,2,0,0,1-1.46-.48c-.12-.1-.25-.21-.23-.37h0a.78.78,0,0,0,.48-.12.85.85,0,0,0-.15-.35c.66.15,1,.72,1.62,1l.17-.1-.24-.29c.15-.1.33-.1.47-.2a22.57,22.57,0,0,0-3.91-2l0-.17c.61.29.61.29.75.31l.26,0-.76-.55L144,9.77c-.51-.4-.76-.6-1.13-.43l.07.15a1,1,0,0,1-.36,0,.62.62,0,0,1-.18-.3c-.07-.05-.07-.05-.66-.24l-.08-.11.37,0,.56.37a1.07,1.07,0,0,0,.37-.08l0-.17a.46.46,0,0,1,.2,0,.77.77,0,0,0,.37,0,2.63,2.63,0,0,0-1.37-.73l-.08.15c-.47-.12-.51-.18-.64-.36.3,0,.33,0,.52-.07l-.17-.2.17.06s.08,0,.16-.13c-.76-.39-1.61-.6-2.35-1l0-.07.17,0-.75-.39c-.85-.35-1.79-.49-2.62-.89a.47.47,0,0,1-.17-.12l-.16-.1.15-.07.27,0,.56.19.11.06a9.87,9.87,0,0,0,1.41.67l0-.07-1.86-.88-.32-.18-.16-.07-.54-.2-.16.08h-.25a7.36,7.36,0,0,1-.7-.33l.17,0,.07-.08s-.84-.35-1.2-.21a1.69,1.69,0,0,1,.32.19,9.5,9.5,0,0,1-1-.42c0-.07,0-.07-1.45-.63l.15,0c-.55-.2-.55-.2-.71-.32l0,0c-.86-.33-1.67-.78-2.55-1.05l-.3-.08-.33,0a4.24,4.24,0,0,1-.5-.18l.34.06,0-.07-.89-.27,0-.06c-.29-.08-.49-.13-.92-.22m-9-.09L116.59.6l-.09.06-.14,0L116.21.5,116,.37l-.06.06h-.15l-.12.08-.06-.12-.17,0s0,0-.11-.1l-.23-.07a1.1,1.1,0,0,1,0,.16l0,0L114.9.3l-.09,0c0,.11,0,.11,0,.14s-.12-.12-.19-.17l-.17,0s-.09.06-.14.27h-.06l-.08-.14H114l-.08.1h-.13s0,0-.39.09l-.21.16.19,0c0,.07,0,.07.19.15l-.06.18a.28.28,0,0,1-.16,0l-.05-.16h-.22l0,0c0-.07.06-.13.07-.2l-.16,0V.61h0l-.11,0a3.26,3.26,0,0,1-.36.29h-.13l-.06-.08h-.07l-.41.18h-.19l-.2.13-.17,0-.22.14.09,0,0,0-.28.19.11.07c-.1.11-.1.11-.09.19s.28.14.44.15l.33-.21.18-.13.27,0-.29.16-.31.21-.16.23c.66,0,.66,0,1-.24l.22,0h.33l.29-.18.19-.16.11-.12c.12,0,.13,0,.37-.12l.18,0-.13,0-.52.33.29,0,.11,0,.11,0-.13.15h-.52l-.18.08c-.19,0-.35.1-.53.13h-.16l-.2,0-.12.19.17,0,.07.13,0,.21.38.09-.2,0-.26,0c-.29-.52-.29-.52-.63-.56l-.38-.06-.21.22,0,.19,0,.25.2.36.2.16.45,0c-.1.13-.32.11-.42.25s-.09.19-.13.29L111,3.64l-.27-.08-.41,0-.3.07-.39.16-.19.27-.13.19.25.08H110l.39,0-.47.22,0,.28c.39.08.44.09,1.15-.37l-.27.33-.47.29-.4,0c-.15-.08-.41-.14-.48-.28a.47.47,0,0,0-.2-.21s0,0-.54,0c-.23.68-.23.68-.78.79l-.38.3,0,.43.3.2a4.57,4.57,0,0,1,.62-.22c.27,0,.46.21.73.2s.3-.21.49-.24c.1.13.1.13.78.09h.37c0,.07,0,.07-.15.3l0,0a.75.75,0,0,0,.53,0h.29c.86-.38.86-.38,1-.63l0-.31-.42.2V5.34l.4-.08.19-.37,0-.34h.24c.58,0,.58,0,.64,0,.19-.23-.09-.41-.1-.61h.42c.1,0,.1,0,.16,0s0-.15-.13-.36c-.19,0-.34-.17-.54-.16l-.26.16-.23.14V3.47l.31-.14c0-.06,0-.06.31-.25h.24l.09.18c.43.08.43.08.84-.23l-.27-.27.32,0,.12.2.27,0,.3-.13-.16-.29-.2-.1h.55l.09-.18.22-.09c.16-.21.45-.3.53-.58l.2,0,.06-.1-.19-.16a.72.72,0,0,1-.27.18c-.13-.09-.13-.09-.43-.06V1.22l.18-.07h.47c.09-.07.21-.07.28-.17l.19,0a1.25,1.25,0,0,0-.12-.19m-6.18,2.57.23-.34a1.9,1.9,0,0,1-.36-.22l.1-.2.14-.17-.06-.13c-.18.12-.21.13-.25.13s.14-.18.15-.3-.2-.07-.18-.19,0-.08.09-.16a2,2,0,0,0,.19-.36v0h-.08a1.19,1.19,0,0,0-.44.15h.16l0,0c-.2.19-.3.17-.35.15h-.22c-.22.06-.24.07-.23.18s0,.06-.22.19l-.18,0-.19,0-.33.24-.3.12-.34.25.17,0-.35.28,0,.18.28,0,.32-.09h.32l-.1.23a2.81,2.81,0,0,1-.38.1H108l-.35.14.07.21-.17.33.4.16.47-.07.29.13L109,4h.17s.09,0,.22-.24l.23-.26.16.14c.1-.06.16-.15.25-.2a.18.18,0,0,1,.14,0c.07,0,.12.07.2,0a1.07,1.07,0,0,0,.3-.19m-3.34,2a1.75,1.75,0,0,0,.48-.18,1.35,1.35,0,0,0,0-.4l-.55.09-.49.38.53.11m3.9,2.47h0l0-.5-.61-.21L110,6.91l-.62.21-.9.21-.55,0-.64-.16-.6,0-.19-.46.24-.44.12-.41h-.56l-.44.07a2.72,2.72,0,0,0-.44,1.16l-.58.5,0,.38.26.4.78-.06.52-.24c.34.54.34.54,1.06.46h.93l.48-.13.28-.23.19.26c1.44-.08,1.44-.08,1.48-.37,0-.13,0-.22.37-.32m-9.93.67h.37l.08-.3-.45.29m2.56-.3.45-.48-.17-.26.07-.34-.37,0-.71.24-.35.31,0,.42h.4l.23.2.43-.15M105,6.43l.51-.31.19-.26,0-.31h-.4l-.11-.14-.46.07-.4.36.14.29.16.27.42,0m1.56-1.52.24-.26H106l-.45.22-.21.21.52,0,.33-.07.4-.07m-.13-.55.28-.2V3.87l-.37-.06,0-.29-.37.16-.18.26-.41.45.25.08.38,0,.38-.07Zm.5-1.58.33-.1.35-.28,0-.09h-.17l-.39.24h.21l-.29.23m-2.5,1.89.36-.22.31-.3.05-.2.29-.28-.06-.16,0-.15-.26,0,.11-.18,0-.19-.25,0-.67.12-.26.22h.21V3.5l-.38.29h-.29l-.29.27.22,0-.1.18.36-.11.14,0,.36.06-.15.38.23.11m-1.18.13.39-.1,0-.23h-.38l-.32.28.27,0Zm.07,1.7a.67.67,0,0,0,.18-.3s0-.24-.14-.25a1.09,1.09,0,0,0-.45.19l-.06-.35h-.34c-.05.31-.21,1.12-.58.85l.13-.57h-.32l-.36.34-.33.38,0-.33.47-.58-.23-.27-.62.47c-.06.1-.2.2-.2.32a1.67,1.67,0,0,1-.06.53l.28.22.41-.11.3,0-.09.28-.37.56.41-.15.45,0,.34-.05.34-.34c.15-.17.29-.33.45-.49s.31-.16.44-.27m-3.85.92c.15-.13,0-.23-.07-.23l-.1,0a.45.45,0,0,1-.3.12l-.28.34a2,2,0,0,0,.35,0,3.58,3.58,0,0,0,.4-.25m1.93-2.1.39-.13.36-.45,0-.24a1.64,1.64,0,0,0-.8.82m11.29,13.07.41-.63-.31-.66a5.68,5.68,0,0,0-1.28.08,3.45,3.45,0,0,0-.66.72l.32.58.72.09.8-.18M104,9.85c.18-.15.45-.34.64-.49-.2-.23-.28-.25-.35-.26h-.5l-.38-.22c-.82,0-.82,0-.91.16-.28.45-.31.5-.79.64-.21.28-.4.58-.6.88l-.44.95.67-.1.6-.32.38-.51.52.16.56-.32.6-.56M99.29,12l.69-.59.08-.49-.09-.44-.19-.29c1-.38,1-.38.89-1l0-.27-.46,0-.37.37h-.19l-.23-.17-.53.12-.25.37v.43c-1,.88-1,.76-1.05.23l-.36,0-.4.39L97,11l.12.27.4.16a2.28,2.28,0,0,1-.18.54l-.05.13c0,.13.42.38.45.37a3.64,3.64,0,0,0,.77-.44l.75,0m-3-1.95.61-.52,0-.25-.65-.19-.53.29c0,.31,0,.38.06.4s.05.06-.09.54l.57-.27m-1.11-.55.5-.33-.35,0-.44.23.29.08Zm6.73-5.61c.35-.2.37-.23.37-.25a.18.18,0,0,1,0-.15h-.34l-.41.08-.76.27h.3l.38,0,.48,0h0m-1.11.52.5-.22h-.21l-.41,0-.42.09-.59.18-.6.48.09.06.37-.1H100l.42-.2.2-.24h.21m-1.67,0,.21,0,.55-.32,0-.16-.2,0-.4.25-.19.17Zm-.68,2.89.89-.63.11-.24h-.24l-.38.26-.12-.15.14-.4.38-.29.35-.33H99.3l-.4.18-.34.08L98.25,6c-.08.28-.08.28-.74.68l.24.08a.58.58,0,0,1-.61.25L96.7,7l0-.25.39-.48-.06-.19H96.8l0-.21-.1-.06L96.1,6l-.84.39-.67.28L93.86,7l-.53.37.43,0,.23.14.46,0L95,7.35l.4.15h.38a1.53,1.53,0,0,1-.69.17l-.44,0-.55.17-.34.29.06.18.59,0,1-.27.85-.36.49,0,.57,0,.57,0,.61-.33M97.38,5.53l.33.07.42-.27a3.66,3.66,0,0,1-.41,0l0-.06-.32.23M93.64,6.88,94.8,6.3l-.62.13-.77.34.23.11ZM97.56,5.1l.71-.34-.14-.15-.66.26-.4,0-.19,0c-.78.28-1.53.64-2.31.93l-.32,0-.65.18-.5.34v.23l.66-.28-.17.24.5-.15L94.53,6l.3,0,.65-.32.59-.22-.45.37.37-.1.59-.15,1-.5m-2.91,9.55.39-.36-.26-.42L94,13.4v-.69l.64-.64-.09-.43.68-.85.18-.55-.29-.34-.51,0-.62.6-.32.44-.32.6-.42.25-.2,0,0-.27.37-.44.23-.36.2-.59L93.23,10l-.32.39-.19.33-.46,0-.33.29-.47.06.43-.33.55-.39-.28-.05-.19-.2-.43,0L91,10.5l-.23-.09.37-.24.51-.49-.07-.11-.44,0-.73.33-.52.16-.58.12-.76.3L88,11l-.89.35-.34.3h.32l-.14.31.61-.16.6,0,0,.35-.73.17-.65.12-.56.3.22.38.63,0,.78-.05.62,0c.07.11.16.21.23.32a1.79,1.79,0,0,1-.45.37l-1-.09-.94-.05L85.18,14l-.43.84.73.08.65,0-.39.81.15.36.89,0h.88l.88-.36.79-.19.94-.4.54-.23,0,.3.44-.07.52.62.64.07.66-.07.62-.54-.16-.47.41,0,.67-.11m-4.41,1.62.45-.55L89.53,16l-1.33.52.56.2.83-.32.65-.11Zm.26-6.65.84-.22L91.86,9l.07-.56-.27-.09-.8.24-.15-.26L90.63,8l-.46-.11-.88,0-.5.32-.83.6-1.49.9L84.05,11l.33.43-.79,1,1.1-.51.55,0,.79-.35a14.6,14.6,0,0,1,3-1.54l1.51-.43M135.11,42l.41-.52-.67-.47.28-.51-.15-1-1.34-.15-.37-.6-1.41,0-1,.63-.66.51-.67-.23.14-.74,1.22-.45,1.47-.39.56-.62-1,0L130.84,37l-1.32-.32-.91-.69-1-.69-.45-.63.51-.13.1-.46-1-1.07-1.16-1.17-1.64-2-.57-.92-.83,1.21c0,.35.08.7.12,1.05l-1,.4-.62.74-1,0-.28-.67-.71-.5-1,.23.22-1.16-.09-1.52-.1-.8-1.16-.05L116,27.2l-.83-.84-1.43-.87-.52.42L112,25.85l-.48-.3h-1.37l-.6.57L110,27l-.3,1.11.1.76.4,1h-.75l0,1-.54.55.64.45,1,.73.22,1.31c0,.5-.06,1-.08,1.51l-.83,1.05-1.11.83-1.49.18.73,1.32c0,.56-.07,1.13-.11,1.7l.36,1-.3.8-.75,1-1.53.17L104.85,42l-.92-1.24c0-.34.07-.69.1-1l-.13-1.46.32-1.19-1.78-.25-1.33-.07-.62-.42-1.58-.43-.49-.7-1.23-.78L96,33.62,94,34l-.23-.75-.26-1.7-.74-.47-.36-.67.88-2L94.63,27l1.26-1.29,1.19-.44,1-.65-.1-.72-1.14-.32L95.65,23l1.52.28,1.22.37.65-.14.38-.74,1,.41.69-.14.22-.59.47-.24.44-.77-.73-.11-.95-.1-.21-.44-.91-.49.72.06,1.07.35.69.3.88-.28.73-.7-.41-.57h.77l.34.52-.54.55L103,21.62c-.11.43-.23.87-.34,1.32l-.91.29.08.6.88.06a1,1,0,0,0,0,.57,3.53,3.53,0,0,0,1.12-.11l.48-.7,1.13.06.61.1.57.3h.92l.2-.75-.87-.2-.27-.94-1-.1-.68-.73-.71-.2c0-.18.08-.35.13-.53l.67.15.4-.38V20h.84l.43-.6.89-.59.35-.5-.31-.54-.19-.89.72-.12.33-.65-.39-.64-.62-.34-.73-.5h1l.19-.33.69.09.5.36.8,0,.75-.17-.5-.61.43-.12.54.7.71.08.25.66.54.13.28.5.59.26.31.64.7.26.59.66.14.81-.89.87-.78.89.39.85-1.39.2-.73-.19H111l-1,.72c0,.26,0,.52-.07.78l1.17.2,1-.05.26-.45.44-.24.61.14,1.14.34,1.13,1.09.25.59.72.77h1l1.13,1,1.6,0,1.1.45,0-.62-1.82-1.26-.74-.55-.39-.6,1.13.54,2,.94,1,.55c0-.31-.09-.62-.13-.92l.41-.81-1-.49-.37-1.23-1.25-.42-1.57-1.5.42-.43.4-.38,2,1.39.8.89.83.13,0-1.05.89-.4,0-.42h.65l.15-.47-.22-.68-1.25,0c0-.12,0-.25-.07-.37l-.88-.57-.53-.08-.84-.34h-.6l-.25-.48-.27-.43h-1l-.42,0-.09-.73h.69l.31-.33-1-.25.08-.29.43-.09-.58-.48-.71-.2.21-.45-.75-.3-.77,0-.13-.35-.63,0-.26-.07.5-.36-.69-.22-.85.23-.55-.6-.05-.34-.51,0V11.2l-.78-.29h-1l-.2.33-.54.07-.48-.11-.24.41-.52,0,.09-.52.41-.47-.32-.65-.06-.55h-.84l-.54.42-.59,0-.51.28-.32.56.17.63-.42.41.27.8-.47.08-.37-.7.15-.89.18-.59.65-.59.76-.48h-.77l-.87.09-1.09.69-1,1-.65,1.31.7.17.53.05,0,.51-.58-.13-.75.19.3.65h.79l.46-.15.4.41.92.37-.7.2-.22.59.34.42-1.09,1.16-.62.83-.78.67-.46-.28-.06-1,.62-.61-.62-1-1,.71-.5-1.32-.29-.18.39-.65.22-.72-.4-.09.28-.58-.33-.67-.8-.06-.36.38-.38,0-.76.61-.11.52-.35.4.31.71.43.46-.55.63-.69-.19-.16.74.7,0,1-.5c-.13.25-.26.51-.38.77l-1.73.76-.45,1.16-.56-.65.64-.79h-.53l.36-.73h.49l.43-1.06-.76-.66-.71.74-.82.32.58.85-.8.46-.55.61-2.09,0-.69-.51-.64-.16-.46-.68-1,.45-1.39.49-.31.76-1,1.17.41-1.43-.55-.56-1.25.21-2-.36.32-.39L85,16.27l-.39-.78h-.69l-1.05-.8.15-.56L82.35,14h-.49l-.71.44-.55.09.79-1-1.33.86-.33-.16,1-1.18-.23-.23-1.12.72-.94.46-.64.08-1.11.3-1.3.48L76.94,14l.85-.19.71-.21.67-.38-.11-.09-1.1.29-1.39.45H76.1l-.35,0L74,14.53l-.5-.2.55-.81-.76-.19.3-.43-.18-.21-.84.16.31-.43-.45-.07,0-.39-.39-.07-.22-.05A92.72,92.72,0,0,0,54.48,25l.73-.19-.14.45-1.23.5-.85.69-.38.39-.61.68,1.74-.84.84-.16a4.8,4.8,0,0,1,1.22-1.24l.48.14-.27.85L56,27l.3.39.75-.18.12.42.43,0-.17.75.18.73c0,.33,0,.79.06,1.13l.54-.17.08.54-.27.81.51.41-.67.71.38.59-.61.67.29.32.43.17-.51.82-.17.9-.52,1-.36,1,.63.18-.48,1.16.15,1.16-.23.81.47.68.6.5.54.36-.18.63.51.89.36.74-.3,1.56c-.19.41-.36.82-.54,1.23l-.18-.82L58,46l.15-.65-.43-.69-.37-.28.41-1-.57,0-.22-.54-.3-.28-.32-.22-.56.08,0,.85.31.54.22.74.65,1.23L56.76,47l-.22,1.6L56,49.85l-.77,1.71q-.39,1-.75,1.95l-.6.43c-.16.44-.31.86-.46,1.3l.06,1.4-.61,1.3L52.66,59l.12.93-.44,1.33.25,1.17.52,1v2l.5.84-.07,1,.4,1.2,1,.06.57.84,1,.72.61,1.08v1.26l.2,1.28.23,2.11.58.93.77,1.09.15.77-.8.64.39.86.83.87,1.08,1,.6,1-.19.83.2.7.9.5.83,1,.59.8,0,.92.53-.28.18-1-.32-1.16-.8-.5,0-1-.88-.88-.27-1.31-.25-1.23-.72-1-.11-1.22L60,77.68l-.29-1.52L59,74.85l.11-1.64.72,0,1,.57.48.92-.13,1.42L62,78l1,1.56,1,1.11.68,1.09L64.79,83l1.11.8L66.67,85l.58,1.25L68.55,88l.48,1.5.72.72-.75.52-.22.92,1.52,1.46,1.27,1.21,1.57.6,1.66,1.16,2,1,2.19,1.23,1.79.59,1.14-.05.35-.62,1.29-.12,1.46.8,1.62,1.35.91,1.11,1.32,0h.51l.75.32.84,1.17,1.65.56.05-.78.91.48c2.73,3.69,2.73,3.69,2.51,4.45l.54.61.67-.29.92.45c1.84,1.66,1.84,1.66,2.68,1.6l2.31,1.13,1.23.53-.11-1.19.59-.75,2.14.15.24.75.69-.07.37-1-.78-.9H105.3l-1.45-.08-2.13-.16-1-.67-1.39-1.45,0-1.15c0-.51,0-1,0-1.53l.42-1.92c0-.44,0-.88,0-1.32l-.71-1-1.36-.72-2,.14-1.43-.33L92.64,99l-1-.71,1-.77V96.1l.37-.86.52-1.4c0-.52,0-1,0-1.57l.9-.6.16-1.17L93.84,90l-2.23.12-1.41.21-.62,1.08L89,93.08l-.66,1.47-1.18.14-1.68.44-1.74.2-.79-1.12-1.44-.81L81,92.14l-1-1.66-.5-2.79-.13-2,.78-1.53.44-1.74L80,80.58l1.37-1.7,1.06-.06L83.58,78l1.13-1,1.48.25,1,.4.87-.37.67,1,1.3,0,1-.06-.19-.75.43-1.2,1.6,0L94.05,76l2,.24.76,1.06h.66l.48-.59.59-.15.94.91.86,1.13c0,.42,0,.86,0,1.29l.5.75.22.84.66.61.35.91.83.46.07,1,.76.23.47-.69.38-1.07-.43-1.29-.42-2-1-1.73c0-.75,0-1.5.15-2.62l.47-1.18.88-1.64,1.26-.5,1.52-1.25,1.42-1,1.35-.51.23-.94,1-.59-.86-1.58-.65-.73.31-.85-.57-.78,1-.51.85,1.14.53-1.14.59-1,.64-.64.66-2.11h1.93l1.21-.7,1.43-.15-.37-.83-.11-1.72.94-1.3h1.12l.34-.76,1.46.06,1.29-.76.77-1c2.31-.09,2.31-.09,3.4.26l-.43.44c-.6,0-1.21,0-1.84,0l-1,.75a4.38,4.38,0,0,0,.15,1.07l.79.32.81-.69.59-.42,1.16-.35,1.2-.63,1.23-.29.85-1.16.87-.82,0-.92-1.26.35-.74,1.41-1.51.1-1.29-.58-1.38-1-.82-1.7,1.08-.86-.19-1.35-1.66-.11-1.76.54L120,48l-1.88,1.85-1.54,1.06.59-1,.92-1.06.59-.52-1.55-.38,1.93,0,.44-.91,1-.85,1.24-.07.46-1,1-.39,1.63,0,2.93-.11,1.54.22,1.16-.08,1.05-.86.85-1.15,1.82-.23.89-.39"/></g><path class="cls-6" d="M187.29,58.13l-12-13.59-5.65-6.4-5.22,4.6c-3.36,3-.87,11.29,5.57,18.58s14.37,10.79,17.73,7.82l5.22-4.6Z"/><path class="cls-7" d="M192.94,64.54c-3.36,3-11.3-.54-17.74-7.83s-8.92-15.61-5.56-18.57l38-33.56L231,31Z"/><path class="cls-6" d="M195.63,50.77l-12-13.59L178,30.77l-5.22,4.61c-3.36,3-.87,11.28,5.57,18.57s14.37,10.8,17.74,7.83l5.22-4.61Z"/><path class="cls-7" d="M201.29,57.17c-3.37,3-11.31-.53-17.74-7.82S174.62,33.74,178,30.77s11.31.54,17.74,7.83S204.65,54.21,201.29,57.17Z"/><path class="cls-6" d="M204,43.36l-12-13.6-5.65-6.4L181.16,28c-3.36,3-.87,11.28,5.56,18.57s14.38,10.8,17.74,7.83l5.22-4.61Z"/><path class="cls-7" d="M209.68,49.76c-3.36,3-11.3-.54-17.74-7.83s-8.92-15.6-5.56-18.57,11.31.54,17.74,7.83S213.05,46.79,209.68,49.76Z"/><path class="cls-6" d="M213.74,34.79l-12-13.59-5.65-6.41-5.22,4.61c-3.36,3-.87,11.28,5.56,18.57s14.38,10.8,17.74,7.83l5.22-4.61Z"/><path class="cls-7" d="M219.39,41.19c-3.36,3-11.3-.53-17.74-7.82s-8.93-15.61-5.56-18.58,11.3.54,17.74,7.83S222.75,38.23,219.39,41.19Z"/><path class="cls-7" d="M231,31c-3.36,3-10-1.7-16.43-9S204.3,7.55,207.66,4.58C215.17-2,237.87,1.4,237.87,1.4S238.48,24.35,231,31Z"/><path class="cls-7" d="M208.6,73c5.09-4.49,6.65-28.16,6.65-28.16L187.72,69.14l11.07,12.54Z"/><rect class="cls-6" x="192.49" y="65.03" width="6.1" height="16.72" transform="translate(0.37 147.77) rotate(-41.43)"/><path class="cls-7" d="M163.17,21.55c5.09-4.5,28.78-3.1,28.78-3.1L164.42,42.74,153.36,30.21Z"/><rect class="cls-6" x="158.13" y="26.1" width="6.1" height="16.72" transform="translate(17.54 115.29) rotate(-41.43)"/><path class="cls-3" d="M160.08,74.17a487.23,487.23,0,0,1-46.42,45.24c-8.19,7.08-16.68,13.81-25.31,20.36s-17.6,12.67-26.79,18.49q-6.91,4.31-14.1,8.23c-4.79,2.6-9.68,5.07-14.75,7.2a74.34,74.34,0,0,1-16,5,23,23,0,0,1-9,0,10.65,10.65,0,0,1-4.54-2.35,9.21,9.21,0,0,1-2.61-4.53,18,18,0,0,1,.55-9,44.21,44.21,0,0,1,3.06-7.83,109.16,109.16,0,0,1,8.44-14.07,228,228,0,0,1,20.64-25c-6.48,8.64-12.85,17.34-18.39,26.51a109.82,109.82,0,0,0-7.44,14.09A47.69,47.69,0,0,0,5,163.69a14.28,14.28,0,0,0-.25,6.95A4.8,4.8,0,0,0,6.18,173a6.18,6.18,0,0,0,2.64,1.19,19.06,19.06,0,0,0,7.1-.22,69.86,69.86,0,0,0,14.74-5,221.61,221.61,0,0,0,28-15.31c9.1-5.63,17.92-11.73,26.62-18s17.22-12.84,25.66-19.49Q136.2,96,160.08,74.17Z"/></svg>