<?xml version="1.0" encoding="utf-8"?>
<!-- Generator: Adobe Illustrator 23.0.6, SVG Export Plug-In . SVG Version: 6.00 Build 0)  -->
<svg version="1.1" id="Layer_1" xmlns="http://www.w3.org/2000/svg" xmlns:xlink="http://www.w3.org/1999/xlink" x="0px" y="0px"
	 viewBox="0 0 784 578" style="enable-background:new 0 0 784 578;" xml:space="preserve">
<style type="text/css">
	.st0{fill:#FFFFFF;stroke:#DAE1E5;stroke-miterlimit:10;}
	.st1{enable-background:new    ;}
	.st2{fill:#FF6E42;}
	.st3{fill:none;stroke:#333333;stroke-miterlimit:10;}
	.st4{fill:#DAE1E5;}
	.st5{fill:none;stroke:#CCCCCC;stroke-miterlimit:10;}
	.st6{clip-path:url(#SVGID_2_);fill:#FF7D55;}
	.st7{clip-path:url(#SVGID_4_);fill:#FFB7A1;}
	.st8{clip-path:url(#SVGID_6_);fill:none;}
	.st9{clip-path:url(#SVGID_8_);fill:#FF9A7B;}
	.st10{clip-path:url(#SVGID_10_);fill:#CC5835;}
	.st11{clip-path:url(#SVGID_12_);fill:#FF8B68;}
	.st12{clip-path:url(#SVGID_14_);fill:none;}
	.st13{clip-path:url(#SVGID_16_);fill:#FF6E42;}
	.st14{clip-path:url(#SVGID_18_);fill:#282151;}
	.st15{clip-path:url(#SVGID_20_);fill:#5B5484;}
	.st16{clip-path:url(#SVGID_22_);fill:none;}
	.st17{clip-path:url(#SVGID_24_);fill:#322965;}
	.st18{fill:none;stroke:#F75821;stroke-width:3;stroke-linecap:round;stroke-linejoin:round;stroke-miterlimit:10;}
	.st19{fill:#FFFFFF;}
	.st20{fill:none;stroke:#202951;stroke-width:3;stroke-linecap:round;stroke-linejoin:round;stroke-miterlimit:10;}
	.st21{fill:#322965;}
</style>
<g>
	<path class="st0" d="M767,576H17c-8.3,0-15-6.7-15-15V17C2,8.7,8.7,2,17,2h750c8.3,0,15,6.7,15,15V561C782,569.2,775.3,576,767,576
		z"/>
	<g class="st1">
		<path class="st2" d="M65.3,72.1c-1.3-1.2-1.9-3-1.9-5.4V56c0-0.2,0.1-0.3,0.2-0.5c0.1-0.1,0.3-0.2,0.5-0.2h2.4
			c0.2,0,0.3,0.1,0.5,0.2c0.1,0.1,0.2,0.3,0.2,0.5v10.6c0,1.4,0.3,2.4,1,3.1c0.6,0.7,1.6,1,2.8,1c1.2,0,2.1-0.3,2.8-1
			c0.7-0.7,1-1.7,1-3.1V56c0-0.2,0.1-0.3,0.2-0.5c0.1-0.1,0.3-0.2,0.5-0.2h2.4c0.2,0,0.3,0.1,0.5,0.2s0.2,0.3,0.2,0.5v10.6
			c0,2.4-0.6,4.2-1.9,5.4c-1.3,1.2-3.1,1.8-5.4,1.8C68.4,73.8,66.6,73.2,65.3,72.1z"/>
		<path class="st2" d="M82,78.3c-0.1-0.1-0.2-0.3-0.2-0.5V60.7c0-0.2,0.1-0.3,0.2-0.5c0.1-0.1,0.3-0.2,0.4-0.2h2.1
			c0.2,0,0.3,0.1,0.5,0.2c0.1,0.1,0.2,0.3,0.2,0.4v1c0.9-1.3,2.3-1.9,4.1-1.9c1.8,0,3.1,0.6,4,1.7c0.9,1.1,1.4,2.6,1.5,4.4
			c0,0.2,0,0.5,0,0.9s0,0.7,0,0.9c-0.1,1.8-0.6,3.3-1.5,4.4c-0.9,1.1-2.3,1.7-4,1.7s-3.1-0.6-4-1.8v5.9c0,0.2-0.1,0.3-0.2,0.5
			c-0.1,0.1-0.3,0.2-0.5,0.2h-2.3C82.2,78.6,82.1,78.4,82,78.3z M91.2,67.7c0-0.2,0-0.4,0-0.8c0-0.4,0-0.6,0-0.8
			c-0.1-2.3-1.1-3.4-3-3.4c-1,0-1.7,0.3-2.2,1c-0.5,0.6-0.7,1.4-0.8,2.3c0,0.2,0,0.5,0,1s0,0.8,0,1c0,0.9,0.3,1.6,0.8,2.2
			s1.2,0.9,2.2,0.9C90.1,71.1,91.1,69.9,91.2,67.7z"/>
		<path class="st2" d="M105.7,72.3c-0.8-0.8-1.2-2-1.2-3.6v-5.9h-2.1c-0.2,0-0.3-0.1-0.4-0.2c-0.1-0.1-0.2-0.3-0.2-0.4v-1.5
			c0-0.2,0.1-0.3,0.2-0.4c0.1-0.1,0.3-0.2,0.4-0.2h2.1v-4.3c0-0.2,0.1-0.3,0.2-0.5c0.1-0.1,0.3-0.2,0.4-0.2h2.2
			c0.2,0,0.3,0.1,0.5,0.2c0.1,0.1,0.2,0.3,0.2,0.5v4.3h3.2c0.2,0,0.3,0.1,0.4,0.2s0.2,0.3,0.2,0.4v1.5c0,0.2-0.1,0.3-0.2,0.4
			s-0.3,0.2-0.4,0.2H108v5.6c0,0.7,0.1,1.3,0.4,1.7s0.7,0.6,1.3,0.6h1.8c0.2,0,0.3,0.1,0.5,0.2c0.2,0.1,0.2,0.3,0.2,0.5v1.6
			c0,0.2-0.1,0.3-0.2,0.4c-0.1,0.1-0.3,0.2-0.5,0.2h-2.1C107.7,73.7,106.5,73.2,105.7,72.3z"/>
		<path class="st2" d="M115.6,72.3c-1.1-1-1.7-2.5-1.8-4.3v-1.1v-1.1c0.1-1.8,0.7-3.3,1.8-4.3c1.1-1,2.7-1.6,4.7-1.6
			s3.6,0.5,4.7,1.6c1.1,1,1.7,2.5,1.8,4.3c0,0.2,0,0.6,0,1.1s0,0.9,0,1.1c-0.1,1.8-0.7,3.3-1.8,4.3c-1.1,1-2.7,1.6-4.7,1.6
			C118.3,73.8,116.7,73.3,115.6,72.3z M122.5,70.3c0.5-0.6,0.8-1.4,0.8-2.5c0-0.2,0-0.5,0-1s0-0.8,0-1c0-1.1-0.3-2-0.8-2.5
			c-0.5-0.6-1.2-0.9-2.1-0.9s-1.6,0.3-2.1,0.9c-0.5,0.6-0.8,1.4-0.8,2.5v1v1c0,1.1,0.3,2,0.8,2.5c0.5,0.6,1.2,0.9,2.1,0.9
			S122,70.9,122.5,70.3z"/>
		<path class="st2" d="M135.3,73.4c-0.1-0.1-0.2-0.3-0.2-0.4v-1.4c0-0.5,0.2-0.9,0.6-1.2l4.1-4c1.2-1,2.2-1.8,2.8-2.4
			c0.7-0.6,1.2-1.2,1.5-1.7s0.5-1,0.5-1.5c0-0.8-0.2-1.5-0.6-1.9c-0.4-0.5-1.1-0.7-2-0.7s-1.5,0.3-2,0.8s-0.8,1.2-0.9,2
			c-0.1,0.2-0.2,0.4-0.3,0.5s-0.3,0.1-0.5,0.1H136c-0.2,0-0.3-0.1-0.4-0.2c-0.1-0.1-0.2-0.2-0.2-0.4c0-1,0.3-2,0.8-2.9
			c0.5-0.9,1.3-1.6,2.3-2.2c1-0.5,2.1-0.8,3.5-0.8s2.6,0.2,3.5,0.7c1,0.5,1.7,1.1,2.2,2s0.7,1.8,0.7,2.8c0,1.2-0.3,2.2-1,3.2
			c-0.7,0.9-1.7,2-3,3l-3.6,3.7h7.4c0.2,0,0.3,0.1,0.5,0.2c0.2,0.1,0.2,0.3,0.2,0.5v1.9c0,0.2-0.1,0.3-0.2,0.5
			c-0.1,0.1-0.3,0.2-0.5,0.2h-12.5C135.6,73.7,135.4,73.6,135.3,73.4z"/>
		<path class="st2" d="M151.8,73.4c-0.1-0.1-0.2-0.3-0.2-0.4v-2.6c0-0.2,0.1-0.3,0.2-0.4c0.1-0.1,0.3-0.2,0.4-0.2h2.6
			c0.2,0,0.3,0.1,0.4,0.2c0.1,0.1,0.2,0.3,0.2,0.4v2.6c0,0.2-0.1,0.3-0.2,0.4c-0.1,0.1-0.3,0.2-0.5,0.2h-2.6
			C152.1,73.7,151.9,73.6,151.8,73.4z"/>
		<path class="st2" d="M161.3,73.2c-1-0.5-1.8-1.1-2.4-1.9c-0.5-0.8-0.8-1.7-0.9-2.6v-0.1c0-0.1,0.1-0.3,0.2-0.4
			c0.1-0.1,0.2-0.1,0.4-0.1h2.5c0.4,0,0.7,0.2,0.8,0.5c0.2,0.8,0.6,1.3,1.2,1.7c0.6,0.4,1.2,0.5,2,0.5c1,0,1.8-0.3,2.4-0.9
			c0.6-0.6,0.9-1.4,0.9-2.4c0-0.9-0.3-1.7-0.9-2.3c-0.6-0.6-1.4-0.9-2.4-0.9c-0.5,0-0.9,0.1-1.3,0.2c-0.3,0.1-0.6,0.3-1,0.6
			c0,0-0.1,0.1-0.2,0.2c-0.1,0.1-0.2,0.1-0.3,0.2c-0.1,0-0.2,0.1-0.3,0.1h-2.4c-0.2,0-0.3-0.1-0.4-0.2c-0.1-0.1-0.2-0.2-0.2-0.4
			l0.9-8.9c0-0.2,0.1-0.4,0.2-0.5c0.1-0.1,0.3-0.2,0.5-0.2h9.8c0.2,0,0.3,0.1,0.5,0.2c0.1,0.1,0.2,0.3,0.2,0.5v1.8
			c0,0.2-0.1,0.3-0.2,0.4c-0.1,0.1-0.3,0.2-0.5,0.2h-7.5l-0.4,4.2c0.4-0.3,0.9-0.5,1.4-0.6c0.5-0.2,1.2-0.2,2-0.2
			c1.1,0,2.2,0.2,3.1,0.7s1.7,1.2,2.3,2.1c0.6,0.9,0.9,1.9,0.9,3.1c0,1.3-0.3,2.4-0.9,3.3c-0.6,0.9-1.4,1.7-2.5,2.2
			s-2.3,0.8-3.7,0.8C163.6,73.8,162.4,73.7,161.3,73.2z"/>
		<path class="st2" d="M181.4,73.4c-0.1-0.1-0.2-0.3-0.2-0.4V56.2c0-0.2,0.1-0.3,0.2-0.5s0.3-0.2,0.5-0.2h7.5c2,0,3.5,0.4,4.6,1.3
			c1,0.9,1.5,2.1,1.5,3.7c0,0.9-0.2,1.7-0.7,2.3c-0.4,0.6-1,1.1-1.5,1.4c0.7,0.3,1.3,0.9,1.8,1.6s0.8,1.6,0.8,2.5
			c0,1.6-0.5,2.9-1.6,3.9s-2.6,1.5-4.6,1.5h-7.8C181.6,73.7,181.5,73.6,181.4,73.4z M188.9,62.8c0.9,0,1.6-0.2,2-0.6
			c0.5-0.4,0.7-1,0.7-1.7s-0.2-1.3-0.7-1.7s-1.2-0.6-2.1-0.6h-4v4.7L188.9,62.8L188.9,62.8z M189.1,70.8c0.9,0,1.6-0.2,2.1-0.7
			s0.8-1.1,0.8-1.9s-0.3-1.4-0.8-1.9s-1.2-0.7-2.1-0.7h-4.3v5.3L189.1,70.8L189.1,70.8z"/>
		<path class="st2" d="M200,72.2c-1.1-1.1-1.7-2.7-1.8-4.7v-0.7c0-2.2,0.6-3.9,1.7-5.1c1.1-1.2,2.7-1.9,4.7-1.9
			c2.1,0,3.7,0.6,4.8,1.9c1.1,1.3,1.7,2.9,1.7,5v0.5c0,0.2-0.1,0.3-0.2,0.4c-0.1,0.1-0.3,0.2-0.5,0.2h-8.6v0.2c0,1,0.3,1.8,0.8,2.4
			c0.5,0.6,1.2,0.9,2,0.9c1,0,1.8-0.4,2.4-1.2c0.2-0.2,0.3-0.3,0.4-0.4c0.1,0,0.2-0.1,0.4-0.1h2.3c0.2,0,0.3,0,0.4,0.1
			c0.1,0.1,0.2,0.2,0.2,0.4c0,0.4-0.2,0.9-0.7,1.5c-0.5,0.6-1.2,1.1-2.1,1.5c-0.9,0.4-2,0.6-3.2,0.6C202.6,73.8,201.1,73.3,200,72.2
			z M207.4,65.7L207.4,65.7c0-1.1-0.3-1.9-0.8-2.5s-1.2-0.9-2.1-0.9c-0.9,0-1.6,0.3-2.1,0.9s-0.8,1.4-0.8,2.5v0.1L207.4,65.7
			L207.4,65.7z"/>
		<path class="st2" d="M216.3,72.3c-0.8-0.8-1.2-2-1.2-3.6v-5.9H213c-0.2,0-0.3-0.1-0.4-0.2c-0.1-0.1-0.2-0.3-0.2-0.4v-1.5
			c0-0.2,0.1-0.3,0.2-0.4c0.1-0.1,0.3-0.2,0.4-0.2h2.1v-4.3c0-0.2,0.1-0.3,0.2-0.5c0.1-0.1,0.3-0.2,0.4-0.2h2.2
			c0.2,0,0.3,0.1,0.5,0.2c0.1,0.1,0.2,0.3,0.2,0.5v4.3h3.2c0.2,0,0.3,0.1,0.4,0.2c0.1,0.1,0.2,0.3,0.2,0.4v1.5
			c0,0.2-0.1,0.3-0.2,0.4c-0.1,0.1-0.3,0.2-0.4,0.2h-3.2v5.6c0,0.7,0.1,1.3,0.4,1.7c0.3,0.4,0.7,0.6,1.3,0.6h1.8
			c0.2,0,0.3,0.1,0.5,0.2c0.2,0.1,0.2,0.3,0.2,0.5v1.6c0,0.2-0.1,0.3-0.2,0.4c-0.1,0.1-0.3,0.2-0.5,0.2H220
			C218.3,73.7,217.1,73.2,216.3,72.3z"/>
		<path class="st2" d="M227.5,72.3c-0.8-0.8-1.2-2-1.2-3.6v-5.9h-2.1c-0.2,0-0.3-0.1-0.4-0.2c-0.1-0.1-0.2-0.3-0.2-0.4v-1.5
			c0-0.2,0.1-0.3,0.2-0.4c0.1-0.1,0.3-0.2,0.4-0.2h2.1v-4.3c0-0.2,0.1-0.3,0.2-0.5c0.1-0.1,0.3-0.2,0.4-0.2h2.2
			c0.2,0,0.3,0.1,0.5,0.2c0.1,0.1,0.2,0.3,0.2,0.5v4.3h3.2c0.2,0,0.3,0.1,0.4,0.2c0.1,0.1,0.2,0.3,0.2,0.4v1.5
			c0,0.2-0.1,0.3-0.2,0.4c-0.1,0.1-0.3,0.2-0.4,0.2h-3.2v5.6c0,0.7,0.1,1.3,0.4,1.7c0.3,0.4,0.7,0.6,1.3,0.6h1.8
			c0.2,0,0.3,0.1,0.5,0.2c0.2,0.1,0.2,0.3,0.2,0.5v1.6c0,0.2-0.1,0.3-0.2,0.4c-0.1,0.1-0.3,0.2-0.5,0.2H231
			C229.5,73.7,228.3,73.2,227.5,72.3z"/>
		<path class="st2" d="M237.4,72.2c-1.1-1.1-1.7-2.7-1.8-4.7v-0.7c0-2.2,0.6-3.9,1.7-5.1c1.1-1.2,2.7-1.9,4.7-1.9
			c2.1,0,3.7,0.6,4.8,1.9c1.1,1.3,1.7,2.9,1.7,5v0.5c0,0.2-0.1,0.3-0.2,0.4c-0.1,0.1-0.3,0.2-0.5,0.2h-8.6v0.2c0,1,0.3,1.8,0.8,2.4
			c0.5,0.6,1.2,0.9,2,0.9c1,0,1.8-0.4,2.4-1.2c0.2-0.2,0.3-0.3,0.4-0.4c0.1,0,0.2-0.1,0.4-0.1h2.3c0.2,0,0.3,0,0.4,0.1
			c0.1,0.1,0.2,0.2,0.2,0.4c0,0.4-0.2,0.9-0.7,1.5c-0.5,0.6-1.2,1.1-2.1,1.5c-0.9,0.4-2,0.6-3.2,0.6C240,73.8,238.5,73.3,237.4,72.2
			z M244.8,65.7L244.8,65.7c0-1.1-0.3-1.9-0.8-2.5s-1.2-0.9-2.1-0.9c-0.9,0-1.6,0.3-2.1,0.9s-0.8,1.4-0.8,2.5v0.1L244.8,65.7
			L244.8,65.7z"/>
		<path class="st2" d="M251.3,73.4c-0.1-0.1-0.2-0.3-0.2-0.4V60.9c0-0.2,0.1-0.3,0.2-0.5c0.1-0.1,0.3-0.2,0.4-0.2h2.1
			c0.2,0,0.3,0.1,0.5,0.2c0.1,0.1,0.2,0.3,0.2,0.5V62c0.9-1.1,2.1-1.7,3.7-1.7h1.1c0.2,0,0.3,0.1,0.5,0.2c0.1,0.1,0.2,0.3,0.2,0.5
			v1.9c0,0.2-0.1,0.3-0.2,0.4c-0.1,0.1-0.3,0.2-0.5,0.2h-2.1c-0.8,0-1.5,0.2-1.9,0.7c-0.5,0.5-0.7,1.1-0.7,1.9v7.1
			c0,0.2-0.1,0.3-0.2,0.4c-0.1,0.1-0.3,0.2-0.4,0.2h-2.3C251.6,73.7,251.5,73.6,251.3,73.4z"/>
		<path class="st2" d="M267.9,73.4c-0.1-0.1-0.2-0.3-0.2-0.4V56.2c0-0.2,0.1-0.3,0.2-0.5s0.3-0.2,0.5-0.2h6.3c5.1,0,7.7,2.4,7.8,7.1
			c0,1,0.1,1.7,0.1,2c0,0.3,0,1-0.1,2c-0.1,2.4-0.7,4.2-2,5.4c-1.2,1.2-3.2,1.7-5.7,1.7h-6.5C268.2,73.7,268,73.6,267.9,73.4z
			 M274.7,70.6c1.4,0,2.5-0.3,3.1-1c0.6-0.6,1-1.7,1-3.2c0-1,0.1-1.7,0.1-2c0-0.3,0-0.9-0.1-1.9c0-1.4-0.4-2.5-1.1-3.1
			c-0.7-0.7-1.7-1-3.2-1h-3.2v12.2C271.3,70.6,274.7,70.6,274.7,70.6z"/>
		<path class="st2" d="M285.8,57.7c-0.1-0.1-0.2-0.3-0.2-0.4v-1.9c0-0.2,0.1-0.3,0.2-0.5c0.1-0.1,0.3-0.2,0.4-0.2h2.4
			c0.2,0,0.3,0.1,0.5,0.2c0.1,0.1,0.2,0.3,0.2,0.5v1.9c0,0.2-0.1,0.3-0.2,0.4s-0.3,0.2-0.5,0.2h-2.4C286,57.9,285.9,57.9,285.8,57.7
			z M285.9,73.4c-0.1-0.1-0.2-0.3-0.2-0.4V60.8c0-0.2,0.1-0.3,0.2-0.5c0.1-0.1,0.3-0.2,0.4-0.2h2.2c0.2,0,0.3,0.1,0.4,0.2
			s0.2,0.3,0.2,0.4v12.3c0,0.2-0.1,0.3-0.2,0.4s-0.3,0.2-0.4,0.2h-2.2C286.2,73.7,286,73.6,285.9,73.4z"/>
		<path class="st2" d="M294.4,73.2c-0.9-0.4-1.5-0.9-2-1.4c-0.4-0.5-0.6-1-0.6-1.4c0-0.2,0.1-0.3,0.2-0.4c0.1-0.1,0.2-0.2,0.4-0.2
			h2.1c0.1,0,0.3,0.1,0.4,0.2c0.1,0.1,0.3,0.2,0.6,0.5c0.3,0.3,0.6,0.5,1,0.6s0.8,0.2,1.3,0.2c0.7,0,1.3-0.1,1.7-0.4
			c0.4-0.3,0.7-0.7,0.7-1.2c0-0.3-0.1-0.6-0.3-0.8c-0.2-0.2-0.6-0.4-1.1-0.6c-0.5-0.2-1.3-0.4-2.3-0.6c-1.5-0.3-2.6-0.8-3.3-1.4
			c-0.7-0.6-1.1-1.5-1.1-2.5c0-0.7,0.2-1.3,0.6-2s1-1.1,1.9-1.5c0.8-0.4,1.8-0.6,3-0.6s2.2,0.2,3,0.6s1.5,0.8,1.9,1.3s0.7,1,0.7,1.4
			c0,0.2-0.1,0.3-0.2,0.4s-0.2,0.2-0.4,0.2h-2c-0.2,0-0.3-0.1-0.4-0.2s-0.3-0.2-0.6-0.5c-0.3-0.2-0.6-0.4-0.9-0.6
			c-0.3-0.1-0.7-0.2-1.2-0.2c-0.6,0-1.1,0.1-1.5,0.4s-0.5,0.6-0.5,1.1c0,0.3,0.1,0.6,0.2,0.8c0.2,0.2,0.5,0.4,1,0.6
			c0.5,0.2,1.3,0.4,2.3,0.6c3.1,0.6,4.7,2,4.7,4.1c0,1.2-0.5,2.2-1.6,3s-2.6,1.1-4.5,1.1C296.4,73.8,295.3,73.7,294.4,73.2z"/>
		<path class="st2" d="M309,72.3c-0.8-0.8-1.2-2-1.2-3.6v-5.9h-2.1c-0.2,0-0.3-0.1-0.4-0.2c-0.1-0.1-0.2-0.3-0.2-0.4v-1.5
			c0-0.2,0.1-0.3,0.2-0.4c0.1-0.1,0.3-0.2,0.4-0.2h2.1v-4.3c0-0.2,0.1-0.3,0.2-0.5c0.1-0.1,0.3-0.2,0.4-0.2h2.2
			c0.2,0,0.3,0.1,0.5,0.2c0.1,0.1,0.2,0.3,0.2,0.5v4.3h3.2c0.2,0,0.3,0.1,0.4,0.2s0.2,0.3,0.2,0.4v1.5c0,0.2-0.1,0.3-0.2,0.4
			s-0.3,0.2-0.4,0.2h-3.2v5.6c0,0.7,0.1,1.3,0.4,1.7s0.7,0.6,1.3,0.6h1.8c0.2,0,0.3,0.1,0.5,0.2c0.2,0.1,0.2,0.3,0.2,0.5v1.6
			c0,0.2-0.1,0.3-0.2,0.4c-0.1,0.1-0.3,0.2-0.5,0.2h-2.1C311,73.7,309.8,73.2,309,72.3z"/>
		<path class="st2" d="M317.8,73.4c-0.1-0.1-0.2-0.3-0.2-0.4V60.9c0-0.2,0.1-0.3,0.2-0.5c0.1-0.1,0.3-0.2,0.4-0.2h2.1
			c0.2,0,0.3,0.1,0.5,0.2c0.1,0.1,0.2,0.3,0.2,0.5V62c0.9-1.1,2.1-1.7,3.7-1.7h1.1c0.2,0,0.3,0.1,0.5,0.2c0.1,0.1,0.2,0.3,0.2,0.5
			v1.9c0,0.2-0.1,0.3-0.2,0.4c-0.1,0.1-0.3,0.2-0.5,0.2h-2.1c-0.8,0-1.5,0.2-1.9,0.7c-0.5,0.5-0.7,1.1-0.7,1.9v7.1
			c0,0.2-0.1,0.3-0.2,0.4s-0.3,0.2-0.4,0.2h-2.3C318.1,73.7,317.9,73.6,317.8,73.4z"/>
		<path class="st2" d="M328.6,57.7c-0.1-0.1-0.2-0.3-0.2-0.4v-1.9c0-0.2,0.1-0.3,0.2-0.5c0.1-0.1,0.3-0.2,0.4-0.2h2.4
			c0.2,0,0.3,0.1,0.5,0.2c0.1,0.1,0.2,0.3,0.2,0.5v1.9c0,0.2-0.1,0.3-0.2,0.4s-0.3,0.2-0.5,0.2H329
			C328.8,57.9,328.7,57.9,328.6,57.7z M328.7,73.4c-0.1-0.1-0.2-0.3-0.2-0.4V60.8c0-0.2,0.1-0.3,0.2-0.5c0.1-0.1,0.3-0.2,0.4-0.2
			h2.2c0.2,0,0.3,0.1,0.4,0.2s0.2,0.3,0.2,0.4v12.3c0,0.2-0.1,0.3-0.2,0.4s-0.3,0.2-0.4,0.2h-2.2C328.9,73.7,328.8,73.6,328.7,73.4z
			"/>
		<path class="st2" d="M338.8,72.1v1c0,0.2-0.1,0.3-0.2,0.4c-0.1,0.1-0.3,0.2-0.5,0.2H336c-0.2,0-0.3-0.1-0.4-0.2
			c-0.1-0.1-0.2-0.3-0.2-0.4V55.9c0-0.2,0.1-0.3,0.2-0.5c0.1-0.1,0.3-0.2,0.4-0.2h2.3c0.2,0,0.3,0.1,0.5,0.2
			c0.1,0.1,0.2,0.3,0.2,0.5v5.8c1-1.1,2.3-1.7,4-1.7c1.8,0,3.1,0.6,4,1.7s1.4,2.6,1.5,4.5c0,0.2,0,0.5,0,0.9c0,0.3,0,0.6,0,0.9
			c-0.1,1.9-0.6,3.4-1.5,4.5c-0.9,1.1-2.3,1.7-4,1.7C341.1,73.8,339.7,73.2,338.8,72.1z M344.9,67.7c0-0.2,0-0.4,0-0.8
			c0-0.4,0-0.6,0-0.8c-0.1-2.3-1.1-3.4-3-3.4c-1,0-1.7,0.3-2.2,0.9s-0.8,1.3-0.8,2.2c0,0.2,0,0.5,0,1s0,0.8,0,1
			c0,0.9,0.3,1.7,0.8,2.3s1.2,1,2.2,1C343.8,71.1,344.8,69.9,344.9,67.7z"/>
		<path class="st2" d="M352.6,72.3c-0.9-1-1.4-2.5-1.4-4.3v-7.3c0-0.2,0.1-0.3,0.2-0.5c0.1-0.1,0.3-0.2,0.4-0.2h2.3
			c0.2,0,0.3,0.1,0.4,0.2s0.2,0.3,0.2,0.4v7.2c0,2.1,0.9,3.2,2.8,3.2c0.9,0,1.6-0.3,2.1-0.9s0.8-1.4,0.8-2.3v-7.2
			c0-0.2,0.1-0.3,0.2-0.5c0.1-0.1,0.3-0.2,0.4-0.2h2.3c0.2,0,0.3,0.1,0.5,0.2c0.1,0.1,0.2,0.3,0.2,0.5v12.3c0,0.2-0.1,0.3-0.2,0.4
			s-0.3,0.2-0.5,0.2h-2.2c-0.2,0-0.3-0.1-0.4-0.2s-0.2-0.3-0.2-0.4v-1c-1,1.3-2.4,2-4.3,2C354.8,73.8,353.5,73.3,352.6,72.3z"/>
		<path class="st2" d="M370.1,72.3c-0.8-0.8-1.2-2-1.2-3.6v-5.9h-2.1c-0.2,0-0.3-0.1-0.4-0.2c-0.1-0.1-0.2-0.3-0.2-0.4v-1.5
			c0-0.2,0.1-0.3,0.2-0.4c0.1-0.1,0.3-0.2,0.4-0.2h2.1v-4.3c0-0.2,0.1-0.3,0.2-0.5c0.1-0.1,0.3-0.2,0.4-0.2h2.2
			c0.2,0,0.3,0.1,0.5,0.2c0.1,0.1,0.2,0.3,0.2,0.5v4.3h3.2c0.2,0,0.3,0.1,0.4,0.2s0.2,0.3,0.2,0.4v1.5c0,0.2-0.1,0.3-0.2,0.4
			s-0.3,0.2-0.4,0.2h-3.2v5.6c0,0.7,0.1,1.3,0.4,1.7s0.7,0.6,1.3,0.6h1.8c0.2,0,0.3,0.1,0.5,0.2c0.2,0.1,0.2,0.3,0.2,0.5v1.6
			c0,0.2-0.1,0.3-0.2,0.4c-0.1,0.1-0.3,0.2-0.5,0.2h-2.1C372.1,73.7,370.9,73.2,370.1,72.3z"/>
		<path class="st2" d="M380,72.2c-1.1-1.1-1.7-2.7-1.8-4.7v-0.7c0-2.2,0.6-3.9,1.7-5.1c1.1-1.2,2.7-1.9,4.7-1.9
			c2.1,0,3.7,0.6,4.8,1.9c1.1,1.3,1.7,2.9,1.7,5v0.5c0,0.2-0.1,0.3-0.2,0.4c-0.1,0.1-0.3,0.2-0.5,0.2h-8.6v0.2c0,1,0.3,1.8,0.8,2.4
			c0.5,0.6,1.2,0.9,2,0.9c1,0,1.8-0.4,2.4-1.2c0.2-0.2,0.3-0.3,0.4-0.4c0.1,0,0.2-0.1,0.4-0.1h2.3c0.2,0,0.3,0,0.4,0.1
			c0.1,0.1,0.2,0.2,0.2,0.4c0,0.4-0.2,0.9-0.7,1.5c-0.5,0.6-1.2,1.1-2.1,1.5c-0.9,0.4-2,0.6-3.2,0.6C382.6,73.8,381.1,73.3,380,72.2
			z M387.4,65.7L387.4,65.7c0-1.1-0.3-1.9-0.8-2.5s-1.2-0.9-2.1-0.9s-1.6,0.3-2.1,0.9s-0.8,1.4-0.8,2.5v0.1L387.4,65.7L387.4,65.7z"
			/>
		<path class="st2" d="M394.7,72.2c-0.9-1.1-1.4-2.6-1.5-4.5v-0.9v-0.9c0.1-1.8,0.6-3.3,1.5-4.5c0.9-1.1,2.3-1.7,4-1.7s3,0.6,4,1.7
			v-5.8c0-0.2,0.1-0.3,0.2-0.5c0.1-0.1,0.3-0.2,0.4-0.2h2.3c0.2,0,0.3,0.1,0.5,0.2c0.1,0.1,0.2,0.3,0.2,0.5v17.4
			c0,0.2-0.1,0.3-0.2,0.4s-0.3,0.2-0.5,0.2h-2.1c-0.2,0-0.3-0.1-0.4-0.2s-0.2-0.3-0.2-0.4v-1c-1,1.2-2.3,1.8-4.1,1.8
			C397,73.8,395.7,73.3,394.7,72.2z M402,70.2c0.5-0.6,0.7-1.4,0.8-2.4c0-0.2,0-0.5,0-1s0-0.8,0-1c0-0.9-0.3-1.6-0.8-2.2
			c-0.5-0.6-1.2-0.9-2.2-0.9c-1.9,0-2.8,1.1-3,3.4v0.8v0.8c0.1,2.3,1.1,3.4,3,3.4C400.7,71.1,401.5,70.8,402,70.2z"/>
		<path class="st2" d="M419.5,73.4c-0.1-0.1-0.2-0.3-0.2-0.4V58.8h-4.8c-0.2,0-0.3-0.1-0.4-0.2s-0.2-0.3-0.2-0.5v-2
			c0-0.2,0.1-0.3,0.2-0.5s0.3-0.2,0.5-0.2h13.3c0.2,0,0.3,0.1,0.5,0.2s0.2,0.3,0.2,0.5v2c0,0.2-0.1,0.3-0.2,0.5s-0.3,0.2-0.5,0.2
			H423v14.2c0,0.2-0.1,0.3-0.2,0.4s-0.3,0.2-0.5,0.2H420C419.8,73.7,419.6,73.6,419.5,73.4z"/>
		<path class="st2" d="M429.2,73.4c-0.1-0.1-0.2-0.3-0.2-0.4V60.9c0-0.2,0.1-0.3,0.2-0.5s0.3-0.2,0.4-0.2h2.1c0.2,0,0.3,0.1,0.5,0.2
			s0.2,0.3,0.2,0.5V62c0.9-1.1,2.1-1.7,3.7-1.7h1.1c0.2,0,0.3,0.1,0.5,0.2c0.1,0.1,0.2,0.3,0.2,0.5v1.9c0,0.2-0.1,0.3-0.2,0.4
			c-0.1,0.1-0.3,0.2-0.5,0.2h-2.1c-0.8,0-1.5,0.2-1.9,0.7c-0.5,0.5-0.7,1.1-0.7,1.9v7.1c0,0.2-0.1,0.3-0.2,0.4s-0.3,0.2-0.4,0.2
			h-2.3C429.5,73.7,429.4,73.6,429.2,73.4z"/>
		<path class="st2" d="M441.2,73.3c-0.7-0.4-1.3-0.8-1.7-1.4c-0.4-0.6-0.6-1.3-0.6-2c0-1.2,0.5-2.1,1.4-2.9c1-0.7,2.3-1.2,3.9-1.5
			l3.6-0.5v-0.5c0-0.7-0.2-1.3-0.6-1.7c-0.4-0.4-1-0.6-1.8-0.6c-0.6,0-1,0.1-1.4,0.3s-0.6,0.4-0.8,0.6c-0.2,0.2-0.4,0.4-0.4,0.4
			c-0.1,0.2-0.2,0.3-0.4,0.3h-2c-0.2,0-0.3-0.1-0.4-0.2s-0.2-0.2-0.2-0.4c0-0.4,0.2-0.9,0.6-1.5c0.4-0.5,1-1,1.9-1.4
			c0.8-0.4,1.9-0.6,3.1-0.6c2,0,3.5,0.5,4.5,1.4c0.9,0.9,1.4,2.1,1.4,3.6v8.2c0,0.2-0.1,0.3-0.2,0.4s-0.3,0.2-0.5,0.2h-2.2
			c-0.2,0-0.3-0.1-0.4-0.2s-0.2-0.3-0.2-0.4v-1c-0.4,0.6-0.9,1-1.6,1.4s-1.6,0.5-2.6,0.5C442.8,73.8,442,73.7,441.2,73.3z
			 M446.9,70.4c0.6-0.6,0.9-1.5,0.9-2.7v-0.5l-2.6,0.4c-2,0.3-3,1-3,2c0,0.6,0.2,1,0.7,1.3c0.5,0.3,1,0.5,1.7,0.5
			C445.5,71.3,446.3,71.1,446.9,70.4z"/>
		<path class="st2" d="M454.8,73.4c-0.1-0.1-0.2-0.3-0.2-0.4V60.8c0-0.2,0.1-0.3,0.2-0.5c0.1-0.1,0.3-0.2,0.4-0.2h2.2
			c0.2,0,0.3,0.1,0.5,0.2c0.1,0.1,0.2,0.3,0.2,0.5v1.1c1.1-1.3,2.5-2,4.3-2c1.6,0,2.9,0.5,3.8,1.6s1.4,2.5,1.4,4.3v7.3
			c0,0.2-0.1,0.3-0.2,0.4c-0.1,0.1-0.3,0.2-0.5,0.2h-2.3c-0.2,0-0.3-0.1-0.4-0.2c-0.1-0.1-0.2-0.3-0.2-0.5v-7.2c0-1-0.2-1.8-0.7-2.4
			c-0.5-0.6-1.2-0.8-2.1-0.8s-1.6,0.3-2.1,0.9s-0.8,1.4-0.8,2.3v7.2c0,0.2-0.1,0.3-0.2,0.4s-0.3,0.2-0.5,0.2h-2.3
			C455.1,73.7,454.9,73.6,454.8,73.4z"/>
		<path class="st2" d="M472.7,73.2c-0.9-0.4-1.5-0.9-2-1.4c-0.4-0.5-0.6-1-0.6-1.4c0-0.2,0.1-0.3,0.2-0.4c0.1-0.1,0.2-0.2,0.4-0.2
			h2.1c0.1,0,0.3,0.1,0.4,0.2c0.1,0.1,0.3,0.2,0.6,0.5c0.3,0.3,0.6,0.5,1,0.6s0.8,0.2,1.3,0.2c0.7,0,1.3-0.1,1.7-0.4
			c0.4-0.3,0.7-0.7,0.7-1.2c0-0.3-0.1-0.6-0.3-0.8c-0.2-0.2-0.6-0.4-1.1-0.6c-0.5-0.2-1.3-0.4-2.3-0.6c-1.5-0.3-2.6-0.8-3.3-1.4
			c-0.7-0.6-1.1-1.5-1.1-2.5c0-0.7,0.2-1.3,0.6-2s1-1.1,1.9-1.5c0.8-0.4,1.8-0.6,3-0.6s2.2,0.2,3,0.6s1.5,0.8,1.9,1.3s0.7,1,0.7,1.4
			c0,0.2-0.1,0.3-0.2,0.4s-0.2,0.2-0.4,0.2h-2c-0.2,0-0.3-0.1-0.4-0.2s-0.3-0.2-0.6-0.5c-0.3-0.2-0.6-0.4-0.9-0.6
			c-0.3-0.2-0.7-0.2-1.2-0.2c-0.6,0-1.1,0.1-1.5,0.4s-0.5,0.6-0.5,1.1c0,0.3,0.1,0.6,0.2,0.8s0.5,0.4,1,0.6c0.5,0.2,1.3,0.4,2.3,0.6
			c3.1,0.6,4.7,2,4.7,4.1c0,1.2-0.5,2.2-1.6,3s-2.6,1.1-4.5,1.1C474.7,73.8,473.6,73.7,472.7,73.2z"/>
		<path class="st2" d="M486.2,73.3c-0.7-0.4-1.3-0.8-1.7-1.4c-0.4-0.6-0.6-1.3-0.6-2c0-1.2,0.5-2.1,1.4-2.9c1-0.7,2.3-1.2,3.9-1.5
			l3.6-0.5v-0.5c0-0.7-0.2-1.3-0.6-1.7c-0.4-0.4-1-0.6-1.8-0.6c-0.6,0-1,0.1-1.4,0.3s-0.6,0.4-0.8,0.6c-0.2,0.2-0.4,0.4-0.4,0.4
			c-0.1,0.2-0.2,0.3-0.4,0.3h-2c-0.2,0-0.3-0.1-0.4-0.2s-0.2-0.2-0.2-0.4c0-0.4,0.2-0.9,0.6-1.5c0.4-0.5,1-1,1.9-1.4
			c0.8-0.4,1.9-0.6,3.1-0.6c2,0,3.5,0.5,4.5,1.4c0.9,0.9,1.4,2.1,1.4,3.6v8.2c0,0.2-0.1,0.3-0.2,0.4s-0.3,0.2-0.5,0.2h-2.2
			c-0.2,0-0.3-0.1-0.4-0.2s-0.2-0.3-0.2-0.4v-1c-0.4,0.6-0.9,1-1.6,1.4s-1.6,0.5-2.6,0.5C487.8,73.8,487,73.7,486.2,73.3z
			 M491.9,70.4c0.6-0.6,0.9-1.5,0.9-2.7v-0.5l-2.6,0.4c-2,0.3-3,1-3,2c0,0.6,0.2,1,0.7,1.3c0.5,0.3,1,0.5,1.7,0.5
			C490.5,71.3,491.3,71.1,491.9,70.4z"/>
		<path class="st2" d="M500.9,72.2c-1.1-1.1-1.7-2.5-1.8-4.4v-1v-1c0.1-1.9,0.7-3.3,1.8-4.4c1.1-1.1,2.7-1.6,4.6-1.6
			c1.4,0,2.5,0.2,3.5,0.7c0.9,0.5,1.6,1.1,2.1,1.8c0.5,0.7,0.7,1.4,0.7,2c0,0.2,0,0.3-0.2,0.4c-0.1,0.1-0.3,0.2-0.5,0.2h-2.3
			c-0.2,0-0.3,0-0.4-0.1s-0.2-0.2-0.3-0.4c-0.3-0.7-0.6-1.1-1-1.4c-0.4-0.3-1-0.4-1.6-0.4c-0.9,0-1.6,0.3-2.1,0.8s-0.8,1.4-0.8,2.5
			v1v0.9c0.1,2.3,1.1,3.4,2.9,3.4c0.7,0,1.2-0.1,1.6-0.4c0.4-0.3,0.8-0.8,1-1.4c0.1-0.2,0.2-0.3,0.2-0.4c0-0.1,0.2-0.1,0.4-0.1h2.3
			c0.2,0,0.3,0.1,0.5,0.2s0.2,0.3,0.2,0.4c0,0.6-0.3,1.3-0.7,2c-0.5,0.7-1.1,1.3-2.1,1.8c-0.9,0.5-2.1,0.8-3.5,0.8
			C503.5,73.8,502,73.3,500.9,72.2z"/>
		<path class="st2" d="M517,72.3c-0.8-0.8-1.2-2-1.2-3.6v-5.9h-2.1c-0.2,0-0.3-0.1-0.4-0.2c-0.1-0.1-0.2-0.3-0.2-0.4v-1.5
			c0-0.2,0.1-0.3,0.2-0.4c0.1-0.1,0.3-0.2,0.4-0.2h2.1v-4.3c0-0.2,0.1-0.3,0.2-0.5c0.1-0.1,0.3-0.2,0.4-0.2h2.2
			c0.2,0,0.3,0.1,0.5,0.2c0.1,0.1,0.2,0.3,0.2,0.5v4.3h3.2c0.2,0,0.3,0.1,0.4,0.2c0.1,0.1,0.2,0.3,0.2,0.4v1.5
			c0,0.2-0.1,0.3-0.2,0.4c-0.1,0.1-0.3,0.2-0.4,0.2h-3.2v5.6c0,0.7,0.1,1.3,0.4,1.7c0.3,0.4,0.7,0.6,1.3,0.6h1.8
			c0.2,0,0.3,0.1,0.5,0.2c0.1,0.1,0.2,0.3,0.2,0.5v1.6c0,0.2-0.1,0.3-0.2,0.4c-0.1,0.1-0.3,0.2-0.5,0.2h-2.1
			C519,73.7,517.8,73.2,517,72.3z"/>
		<path class="st2" d="M525.8,57.7c-0.1-0.1-0.2-0.3-0.2-0.4v-1.9c0-0.2,0.1-0.3,0.2-0.5s0.3-0.2,0.4-0.2h2.4c0.2,0,0.3,0.1,0.5,0.2
			c0.1,0.1,0.2,0.3,0.2,0.5v1.9c0,0.2-0.1,0.3-0.2,0.4s-0.3,0.2-0.5,0.2h-2.4C526,57.9,525.9,57.9,525.8,57.7z M525.9,73.4
			c-0.1-0.1-0.2-0.3-0.2-0.4V60.8c0-0.2,0.1-0.3,0.2-0.5c0.1-0.1,0.3-0.2,0.4-0.2h2.2c0.2,0,0.3,0.1,0.4,0.2s0.2,0.3,0.2,0.4v12.3
			c0,0.2-0.1,0.3-0.2,0.4s-0.3,0.2-0.4,0.2h-2.2C526.1,73.7,526,73.6,525.9,73.4z"/>
		<path class="st2" d="M533.8,72.3c-1.1-1-1.7-2.5-1.8-4.3v-1.1v-1.1c0.1-1.8,0.7-3.3,1.8-4.3s2.7-1.6,4.7-1.6s3.6,0.5,4.7,1.6
			s1.7,2.5,1.8,4.3c0,0.2,0,0.6,0,1.1s0,0.9,0,1.1c-0.1,1.8-0.7,3.3-1.8,4.3s-2.7,1.6-4.7,1.6C536.5,73.8,535,73.3,533.8,72.3z
			 M540.7,70.3c0.5-0.6,0.8-1.4,0.8-2.5c0-0.2,0-0.5,0-1s0-0.8,0-1c0-1.1-0.3-2-0.8-2.5c-0.5-0.6-1.2-0.9-2.1-0.9
			c-0.9,0-1.6,0.3-2.1,0.9c-0.5,0.6-0.8,1.4-0.8,2.5v1v1c0,1.1,0.3,2,0.8,2.5c0.5,0.6,1.2,0.9,2.1,0.9S540.2,70.9,540.7,70.3z"/>
		<path class="st2" d="M548.2,73.4c-0.1-0.1-0.2-0.3-0.2-0.4V60.8c0-0.2,0.1-0.3,0.2-0.5c0.1-0.1,0.3-0.2,0.4-0.2h2.2
			c0.2,0,0.3,0.1,0.5,0.2c0.1,0.1,0.2,0.3,0.2,0.5v1.1c1.1-1.3,2.5-2,4.3-2c1.6,0,2.9,0.5,3.8,1.6c0.9,1,1.4,2.5,1.4,4.3v7.3
			c0,0.2-0.1,0.3-0.2,0.4c-0.1,0.1-0.3,0.2-0.5,0.2H558c-0.2,0-0.3-0.1-0.4-0.2c-0.1-0.1-0.2-0.3-0.2-0.4v-7.2c0-1-0.2-1.8-0.7-2.4
			c-0.5-0.6-1.2-0.8-2.1-0.8c-0.9,0-1.6,0.3-2.1,0.9s-0.8,1.4-0.8,2.3v7.2c0,0.2-0.1,0.3-0.2,0.4c-0.1,0.1-0.3,0.2-0.5,0.2h-2.3
			C548.4,73.7,548.3,73.6,548.2,73.4z"/>
		<path class="st2" d="M574,73.4c-0.1-0.1-0.2-0.3-0.2-0.4V58.8H569c-0.2,0-0.3-0.1-0.4-0.2s-0.2-0.3-0.2-0.5v-2
			c0-0.2,0.1-0.3,0.2-0.5s0.3-0.2,0.5-0.2h13.3c0.2,0,0.3,0.1,0.5,0.2s0.2,0.3,0.2,0.5v2c0,0.2-0.1,0.3-0.2,0.5s-0.3,0.2-0.5,0.2
			h-4.8v14.2c0,0.2-0.1,0.3-0.2,0.4c-0.1,0.1-0.3,0.2-0.5,0.2h-2.4C574.3,73.7,574.2,73.6,574,73.4z"/>
		<path class="st2" d="M585,73.4c-0.1-0.1-0.2-0.3-0.2-0.4V55.9c0-0.2,0.1-0.3,0.2-0.5c0.1-0.1,0.3-0.2,0.4-0.2h2.4
			c0.2,0,0.3,0.1,0.5,0.2c0.1,0.1,0.2,0.3,0.2,0.5v5.9c1-1.2,2.4-1.9,4.2-1.9c1.6,0,2.9,0.5,3.8,1.6c0.9,1.1,1.4,2.5,1.4,4.3v7.3
			c0,0.2-0.1,0.3-0.2,0.4c-0.1,0.1-0.3,0.2-0.5,0.2h-2.4c-0.2,0-0.3-0.1-0.5-0.2c-0.1-0.1-0.2-0.3-0.2-0.4v-7.2c0-1-0.2-1.8-0.7-2.4
			c-0.5-0.6-1.2-0.8-2.1-0.8c-0.9,0-1.6,0.3-2.1,0.9s-0.8,1.4-0.8,2.3v7.2c0,0.2-0.1,0.3-0.2,0.4s-0.3,0.2-0.5,0.2h-2.4
			C585.3,73.7,585.2,73.6,585,73.4z"/>
		<path class="st2" d="M601.4,73.4c-0.1-0.1-0.2-0.3-0.2-0.4V60.9c0-0.2,0.1-0.3,0.2-0.5s0.3-0.2,0.4-0.2h2.1c0.2,0,0.3,0.1,0.5,0.2
			s0.2,0.3,0.2,0.5V62c0.9-1.1,2.1-1.7,3.7-1.7h1.1c0.2,0,0.3,0.1,0.5,0.2c0.1,0.1,0.2,0.3,0.2,0.5v1.9c0,0.2-0.1,0.3-0.2,0.4
			c-0.1,0.1-0.3,0.2-0.5,0.2h-2.1c-0.8,0-1.5,0.2-1.9,0.7c-0.5,0.5-0.7,1.1-0.7,1.9v7.1c0,0.2-0.1,0.3-0.2,0.4s-0.3,0.2-0.4,0.2
			h-2.3C601.7,73.7,601.5,73.6,601.4,73.4z"/>
		<path class="st2" d="M613.2,72.3c-1.1-1-1.7-2.5-1.8-4.3v-1.1v-1.1c0.1-1.8,0.7-3.3,1.8-4.3s2.7-1.6,4.7-1.6s3.6,0.5,4.7,1.6
			s1.7,2.5,1.8,4.3c0,0.2,0,0.6,0,1.1s0,0.9,0,1.1c-0.1,1.8-0.7,3.3-1.8,4.3s-2.7,1.6-4.7,1.6C615.9,73.8,614.3,73.3,613.2,72.3z
			 M620,70.3c0.5-0.6,0.8-1.4,0.8-2.5c0-0.2,0-0.5,0-1s0-0.8,0-1c0-1.1-0.3-2-0.8-2.5c-0.5-0.6-1.2-0.9-2.1-0.9
			c-0.9,0-1.6,0.3-2.1,0.9c-0.5,0.6-0.8,1.4-0.8,2.5v1v1c0,1.1,0.3,2,0.8,2.5c0.5,0.6,1.2,0.9,2.1,0.9S619.6,70.9,620,70.3z"/>
		<path class="st2" d="M628.6,72.3c-0.9-1-1.4-2.5-1.4-4.3v-7.3c0-0.2,0.1-0.3,0.2-0.5c0.1-0.1,0.3-0.2,0.4-0.2h2.3
			c0.2,0,0.3,0.1,0.4,0.2s0.2,0.3,0.2,0.4v7.2c0,2.1,0.9,3.2,2.8,3.2c0.9,0,1.6-0.3,2.1-0.9s0.8-1.4,0.8-2.3v-7.2
			c0-0.2,0.1-0.3,0.2-0.5c0.1-0.1,0.3-0.2,0.4-0.2h2.3c0.2,0,0.3,0.1,0.5,0.2c0.1,0.1,0.2,0.3,0.2,0.5v12.3c0,0.2-0.1,0.3-0.2,0.4
			c-0.1,0.1-0.3,0.2-0.5,0.2h-2.2c-0.2,0-0.3-0.1-0.4-0.2c-0.1-0.1-0.2-0.3-0.2-0.4v-1c-1,1.3-2.4,2-4.3,2
			C630.8,73.8,629.5,73.3,628.6,72.3z"/>
		<path class="st2" d="M645.9,78.6c-1-0.5-1.6-1.1-2-1.8s-0.6-1.2-0.6-1.7c0-0.2,0.1-0.3,0.2-0.4c0.1-0.1,0.3-0.2,0.4-0.2h2.3
			c0.2,0,0.3,0,0.4,0.1c0.1,0.1,0.2,0.2,0.3,0.4c0.2,0.5,0.5,0.8,0.9,1.2c0.4,0.3,1,0.5,1.8,0.5c1,0,1.8-0.2,2.3-0.7
			s0.7-1.3,0.7-2.4v-1.8c-0.9,1.1-2.3,1.7-4,1.7c-1.8,0-3.2-0.5-4.1-1.6c-0.9-1.1-1.4-2.6-1.5-4.5v-0.7v-0.7
			c0.1-1.9,0.6-3.3,1.5-4.5c0.9-1.1,2.3-1.7,4.1-1.7c0.9,0,1.7,0.2,2.4,0.5s1.3,0.8,1.7,1.4v-1c0-0.2,0.1-0.3,0.2-0.5
			c0.1-0.2,0.3-0.2,0.5-0.2h2.1c0.2,0,0.3,0.1,0.4,0.2c0.1,0.1,0.2,0.3,0.2,0.5v12.5c0,1.9-0.5,3.4-1.6,4.5s-2.7,1.6-4.9,1.6
			C648.1,79.3,646.8,79.1,645.9,78.6z M651.7,69.8c0.5-0.6,0.8-1.4,0.8-2.3c0-0.1,0-0.4,0-0.8c0-0.4,0-0.7,0-0.8
			c-0.1-0.9-0.3-1.7-0.8-2.3s-1.2-0.9-2.2-0.9c-1.9,0-2.9,1.1-3,3.4v0.6c0,2.7,1,4.1,3,4.1C650.5,70.8,651.2,70.4,651.7,69.8z"/>
		<path class="st2" d="M659.7,73.4c-0.1-0.1-0.2-0.3-0.2-0.4V55.9c0-0.2,0.1-0.3,0.2-0.5c0.1-0.1,0.3-0.2,0.4-0.2h2.4
			c0.2,0,0.3,0.1,0.5,0.2c0.1,0.1,0.2,0.3,0.2,0.5v5.9c1-1.2,2.4-1.9,4.2-1.9c1.6,0,2.9,0.5,3.8,1.6c0.9,1.1,1.4,2.5,1.4,4.3v7.3
			c0,0.2-0.1,0.3-0.2,0.4c-0.1,0.1-0.3,0.2-0.5,0.2h-2.4c-0.2,0-0.3-0.1-0.5-0.2c-0.1-0.1-0.2-0.3-0.2-0.4v-7.2c0-1-0.2-1.8-0.7-2.4
			c-0.5-0.6-1.2-0.8-2.1-0.8c-0.9,0-1.6,0.3-2.1,0.9s-0.8,1.4-0.8,2.3v7.2c0,0.2-0.1,0.3-0.2,0.4s-0.3,0.2-0.5,0.2H660
			C660,73.7,659.9,73.6,659.7,73.4z"/>
		<path class="st2" d="M676.1,78.3c-0.1-0.1-0.2-0.3-0.2-0.5V60.7c0-0.2,0.1-0.3,0.2-0.5c0.1-0.1,0.3-0.2,0.4-0.2h2.1
			c0.2,0,0.3,0.1,0.5,0.2c0.1,0.1,0.2,0.3,0.2,0.4v1c0.9-1.3,2.3-1.9,4.1-1.9s3.1,0.6,4,1.7c0.9,1.1,1.4,2.6,1.5,4.4
			c0,0.2,0,0.5,0,0.9s0,0.7,0,0.9c-0.1,1.8-0.5,3.3-1.5,4.4c-0.9,1.1-2.3,1.7-4,1.7s-3.1-0.6-4-1.8v5.9c0,0.2-0.1,0.3-0.2,0.5
			c-0.1,0.1-0.3,0.2-0.5,0.2h-2.3C676.4,78.6,676.2,78.4,676.1,78.3z M685.4,67.7c0-0.2,0-0.4,0-0.8c0-0.4,0-0.6,0-0.8
			c-0.1-2.3-1.1-3.4-3-3.4c-1,0-1.7,0.3-2.2,1c-0.5,0.6-0.7,1.4-0.8,2.3c0,0.2,0,0.5,0,1s0,0.8,0,1c0,0.9,0.3,1.6,0.8,2.2
			s1.2,0.9,2.2,0.9C684.3,71.1,685.3,69.9,685.4,67.7z"/>
		<path class="st2" d="M693.1,72.3c-0.9-1-1.4-2.5-1.4-4.3v-7.3c0-0.2,0.1-0.3,0.2-0.5c0.1-0.1,0.3-0.2,0.4-0.2h2.3
			c0.2,0,0.3,0.1,0.4,0.2c0.1,0.1,0.2,0.3,0.2,0.4v7.2c0,2.1,0.9,3.2,2.8,3.2c0.9,0,1.6-0.3,2.1-0.9s0.8-1.4,0.8-2.3v-7.2
			c0-0.2,0.1-0.3,0.2-0.5c0.1-0.1,0.3-0.2,0.4-0.2h2.3c0.2,0,0.3,0.1,0.5,0.2c0.1,0.1,0.2,0.3,0.2,0.5v12.3c0,0.2-0.1,0.3-0.2,0.4
			c-0.1,0.1-0.3,0.2-0.5,0.2h-2.2c-0.2,0-0.3-0.1-0.4-0.2s-0.2-0.3-0.2-0.4v-1c-1,1.3-2.4,2-4.3,2C695.3,73.8,694,73.3,693.1,72.3z"
			/>
		<path class="st2" d="M710.6,72.3c-0.8-0.8-1.2-2-1.2-3.6v-5.9h-2.1c-0.2,0-0.3-0.1-0.4-0.2c-0.1-0.1-0.2-0.3-0.2-0.4v-1.5
			c0-0.2,0.1-0.3,0.2-0.4c0.1-0.1,0.3-0.2,0.4-0.2h2.1v-4.3c0-0.2,0.1-0.3,0.2-0.5c0.1-0.1,0.3-0.2,0.4-0.2h2.2
			c0.2,0,0.3,0.1,0.5,0.2c0.1,0.1,0.2,0.3,0.2,0.5v4.3h3.2c0.2,0,0.3,0.1,0.4,0.2s0.2,0.3,0.2,0.4v1.5c0,0.2-0.1,0.3-0.2,0.4
			s-0.3,0.2-0.4,0.2h-3.2v5.6c0,0.7,0.1,1.3,0.4,1.7c0.3,0.4,0.7,0.6,1.3,0.6h1.8c0.2,0,0.3,0.1,0.5,0.2c0.1,0.1,0.2,0.3,0.2,0.5
			v1.6c0,0.2-0.1,0.3-0.2,0.4c-0.1,0.1-0.3,0.2-0.5,0.2h-2.1C712.6,73.7,711.4,73.2,710.6,72.3z"/>
	</g>
	<path class="st3" d="M102.4,490.5h650.8"/>
	<path class="st4" d="M63.6,529.2l38.7-37.8h650.8l-38.7,37.8H63.6z"/>
	<path class="st5" d="M102.4,407h650.8"/>
	<path class="st5" d="M102.4,322.6h650.8"/>
	<path class="st5" d="M102.4,238.1h650.8"/>
	<path class="st5" d="M101.5,153.4h655"/>
	<g>
		<g>
			<g>
				<defs>
					<rect id="SVGID_1_" x="63.4" y="154.1" width="689.9" height="375.3"/>
				</defs>
				<clipPath id="SVGID_2_">
					<use xlink:href="#SVGID_1_"  style="overflow:visible;"/>
				</clipPath>
				<path class="st6" d="M286.7,225.6V491l-33.8,33.8V259.5L286.7,225.6z"/>
			</g>
		</g>
	</g>
	<g>
		<g>
			<g>
				<defs>
					<rect id="SVGID_3_" x="63.4" y="154.1" width="689.9" height="375.3"/>
				</defs>
				<clipPath id="SVGID_4_">
					<use xlink:href="#SVGID_3_"  style="overflow:visible;"/>
				</clipPath>
				<path class="st7" d="M252.9,259.5H118.8l33.8-33.8h134.1L252.9,259.5z"/>
			</g>
		</g>
	</g>
	<g>
		<g>
			<g>
				<defs>
					<rect id="SVGID_5_" x="63.4" y="154.1" width="689.9" height="375.3"/>
				</defs>
				<clipPath id="SVGID_6_">
					<use xlink:href="#SVGID_5_"  style="overflow:visible;"/>
				</clipPath>
				<path class="st8" d="M252.9,524.8H118.8V259.5h134.1L252.9,524.8L252.9,524.8z"/>
			</g>
		</g>
	</g>
	<g>
		<g>
			<g>
				<defs>
					<rect id="SVGID_7_" x="63.4" y="154.1" width="689.9" height="375.3"/>
				</defs>
				<clipPath id="SVGID_8_">
					<use xlink:href="#SVGID_7_"  style="overflow:visible;"/>
				</clipPath>
				<path class="st9" d="M252.9,524.8H118.8V259.5h134.1L252.9,524.8L252.9,524.8z"/>
			</g>
		</g>
	</g>
	<g>
		<g>
			<g>
				<defs>
					<rect id="SVGID_9_" x="63.4" y="154.1" width="689.9" height="375.3"/>
				</defs>
				<clipPath id="SVGID_10_">
					<use xlink:href="#SVGID_9_"  style="overflow:visible;"/>
				</clipPath>
				<path class="st10" d="M493.3,229.6V491l-33.8,33.8V263.4L493.3,229.6z"/>
			</g>
		</g>
	</g>
	<g>
		<g>
			<g>
				<defs>
					<rect id="SVGID_11_" x="63.4" y="154.1" width="689.9" height="375.3"/>
				</defs>
				<clipPath id="SVGID_12_">
					<use xlink:href="#SVGID_11_"  style="overflow:visible;"/>
				</clipPath>
				<path class="st11" d="M459.6,263.2l-134.1,0.5l33.7-33.9l134.1-0.5L459.6,263.2z"/>
			</g>
		</g>
	</g>
	<g>
		<g>
			<g>
				<defs>
					<rect id="SVGID_13_" x="63.4" y="154.1" width="689.9" height="375.3"/>
				</defs>
				<clipPath id="SVGID_14_">
					<use xlink:href="#SVGID_13_"  style="overflow:visible;"/>
				</clipPath>
				<path class="st12" d="M459.6,524.8H325.4V263.4h134.1v261.4H459.6z"/>
			</g>
		</g>
	</g>
	<g>
		<g>
			<g>
				<defs>
					<rect id="SVGID_15_" x="63.4" y="154.1" width="689.9" height="375.3"/>
				</defs>
				<clipPath id="SVGID_16_">
					<use xlink:href="#SVGID_15_"  style="overflow:visible;"/>
				</clipPath>
				<path class="st13" d="M459.6,524.8H325.4V263.4h134.1v261.4H459.6z"/>
			</g>
		</g>
	</g>
	<g>
		<g>
			<g>
				<defs>
					<rect id="SVGID_17_" x="63.4" y="154.1" width="689.9" height="375.3"/>
				</defs>
				<clipPath id="SVGID_18_">
					<use xlink:href="#SVGID_17_"  style="overflow:visible;"/>
				</clipPath>
				<path class="st14" d="M699,385.7V491l-33.8,33.8V419.4L699,385.7z"/>
			</g>
		</g>
	</g>
	<g>
		<g>
			<g>
				<defs>
					<rect id="SVGID_19_" x="63.4" y="154.1" width="689.9" height="375.3"/>
				</defs>
				<clipPath id="SVGID_20_">
					<use xlink:href="#SVGID_19_"  style="overflow:visible;"/>
				</clipPath>
				<path class="st15" d="M665.2,419.4H531.1l33.8-33.8H699L665.2,419.4z"/>
			</g>
		</g>
	</g>
	<g>
		<g>
			<g>
				<defs>
					<rect id="SVGID_21_" x="63.4" y="154.1" width="689.9" height="375.3"/>
				</defs>
				<clipPath id="SVGID_22_">
					<use xlink:href="#SVGID_21_"  style="overflow:visible;"/>
				</clipPath>
				<path class="st16" d="M665.2,524.8H531.1V419.4h134.1L665.2,524.8L665.2,524.8z"/>
			</g>
		</g>
	</g>
	<g>
		<g>
			<g>
				<defs>
					<rect id="SVGID_23_" x="63.4" y="154.1" width="689.9" height="375.3"/>
				</defs>
				<clipPath id="SVGID_24_">
					<use xlink:href="#SVGID_23_"  style="overflow:visible;"/>
				</clipPath>
				<path class="st17" d="M665.2,524.8H531.1V419.4h134.1L665.2,524.8L665.2,524.8z"/>
			</g>
		</g>
	</g>
	<path class="st18" d="M175.4,267.6v0.9h-0.2c-0.8,0-1.5,0.3-2,0.8s-0.8,1.1-0.9,2c0.5-0.5,1.1-0.8,1.8-0.8s1.3,0.3,1.8,0.8
		c0.4,0.5,0.7,1.2,0.7,2c0,0.9-0.2,1.6-0.7,2.1s-1.1,0.8-1.9,0.8c-0.8,0-1.5-0.3-2-0.9s-0.7-1.4-0.7-2.4v-0.4c0-1.6,0.3-2.8,1-3.6
		C173,268.2,174,267.8,175.4,267.6L175.4,267.6L175.4,267.6z M173.9,271.5c-0.4,0-0.7,0.1-1,0.3c-0.3,0.2-0.5,0.5-0.7,0.8v0.4
		c0,0.7,0.2,1.3,0.5,1.7s0.7,0.6,1.2,0.6s0.9-0.2,1.1-0.5c0.3-0.4,0.4-0.8,0.4-1.4c0-0.6-0.1-1-0.4-1.4
		C174.8,271.6,174.4,271.5,173.9,271.5z M178.2,277.8l-0.6-0.4c0.4-0.5,0.6-1,0.6-1.6v-1h1.1v0.8c0,0.4-0.1,0.8-0.3,1.2
		C178.7,277.2,178.4,277.6,178.2,277.8z M181.6,271.4h0.8c0.5,0,0.9-0.1,1.2-0.4c0.3-0.3,0.4-0.6,0.4-1.1c0-1-0.5-1.5-1.5-1.5
		c-0.5,0-0.8,0.1-1.1,0.4s-0.4,0.6-0.4,1.1h-1c0-0.7,0.2-1.2,0.7-1.7c0.5-0.4,1.1-0.7,1.9-0.7c0.8,0,1.4,0.2,1.9,0.6
		c0.5,0.4,0.7,1,0.7,1.8c0,0.4-0.1,0.7-0.4,1.1c-0.2,0.3-0.6,0.6-1,0.8c0.5,0.1,0.8,0.4,1.1,0.7c0.3,0.3,0.4,0.8,0.4,1.3
		c0,0.8-0.2,1.4-0.7,1.8s-1.1,0.7-1.9,0.7c-0.8,0-1.4-0.2-1.9-0.7c-0.5-0.4-0.7-1-0.7-1.7h1.1c0,0.4,0.1,0.8,0.4,1.1
		c0.3,0.3,0.7,0.4,1.2,0.4s0.9-0.1,1.2-0.4c0.3-0.3,0.4-0.7,0.4-1.2s-0.2-0.9-0.5-1.1c-0.3-0.3-0.7-0.4-1.3-0.4h-0.8v-0.9
		L181.6,271.4L181.6,271.4z M192.3,272.5c0,1.3-0.2,2.2-0.7,2.8c-0.4,0.6-1.1,0.9-2,0.9s-1.6-0.3-2-0.9s-0.7-1.5-0.7-2.7v-1.4
		c0-1.3,0.2-2.2,0.6-2.8c0.4-0.6,1.1-0.9,2-0.9s1.6,0.3,2,0.9c0.4,0.6,0.7,1.5,0.7,2.7L192.3,272.5L192.3,272.5z M191.3,271
		c0-0.9-0.1-1.6-0.4-2c-0.2-0.4-0.7-0.6-1.2-0.6s-1,0.2-1.2,0.6c-0.2,0.4-0.4,1.1-0.4,1.9v1.7c0,0.9,0.1,1.6,0.4,2
		c0.3,0.4,0.7,0.7,1.2,0.7s0.9-0.2,1.2-0.6s0.4-1.1,0.4-1.9V271z M199.3,272.5c0,1.3-0.2,2.2-0.7,2.8c-0.4,0.6-1.1,0.9-2,0.9
		s-1.6-0.3-2-0.9s-0.7-1.5-0.7-2.7v-1.4c0-1.3,0.2-2.2,0.6-2.8c0.4-0.6,1.1-0.9,2-0.9s1.6,0.3,2,0.9c0.4,0.6,0.7,1.5,0.7,2.7
		L199.3,272.5L199.3,272.5z M198.2,271c0-0.9-0.1-1.6-0.4-2c-0.2-0.4-0.7-0.6-1.2-0.6s-1,0.2-1.2,0.6c-0.2,0.4-0.4,1.1-0.4,1.9v1.7
		c0,0.9,0.1,1.6,0.4,2c0.3,0.4,0.7,0.7,1.2,0.7s0.9-0.2,1.2-0.6s0.4-1.1,0.4-1.9V271z"/>
	<path class="st19" d="M175.4,267.6v0.9h-0.2c-0.8,0-1.5,0.3-2,0.8s-0.8,1.1-0.9,2c0.5-0.5,1.1-0.8,1.8-0.8s1.3,0.3,1.8,0.8
		c0.4,0.5,0.7,1.2,0.7,2c0,0.9-0.2,1.6-0.7,2.1s-1.1,0.8-1.9,0.8c-0.8,0-1.5-0.3-2-0.9s-0.7-1.4-0.7-2.4v-0.4c0-1.6,0.3-2.8,1-3.6
		C173,268.2,174,267.8,175.4,267.6L175.4,267.6L175.4,267.6z M173.9,271.5c-0.4,0-0.7,0.1-1,0.3c-0.3,0.2-0.5,0.5-0.7,0.8v0.4
		c0,0.7,0.2,1.3,0.5,1.7s0.7,0.6,1.2,0.6s0.9-0.2,1.1-0.5c0.3-0.4,0.4-0.8,0.4-1.4c0-0.6-0.1-1-0.4-1.4
		C174.8,271.6,174.4,271.5,173.9,271.5z M178.2,277.8l-0.6-0.4c0.4-0.5,0.6-1,0.6-1.6v-1h1.1v0.8c0,0.4-0.1,0.8-0.3,1.2
		C178.7,277.2,178.4,277.6,178.2,277.8z M181.6,271.4h0.8c0.5,0,0.9-0.1,1.2-0.4c0.3-0.3,0.4-0.6,0.4-1.1c0-1-0.5-1.5-1.5-1.5
		c-0.5,0-0.8,0.1-1.1,0.4s-0.4,0.6-0.4,1.1h-1c0-0.7,0.2-1.2,0.7-1.7c0.5-0.4,1.1-0.7,1.9-0.7c0.8,0,1.4,0.2,1.9,0.6
		c0.5,0.4,0.7,1,0.7,1.8c0,0.4-0.1,0.7-0.4,1.1c-0.2,0.3-0.6,0.6-1,0.8c0.5,0.1,0.8,0.4,1.1,0.7c0.3,0.3,0.4,0.8,0.4,1.3
		c0,0.8-0.2,1.4-0.7,1.8s-1.1,0.7-1.9,0.7c-0.8,0-1.4-0.2-1.9-0.7c-0.5-0.4-0.7-1-0.7-1.7h1.1c0,0.4,0.1,0.8,0.4,1.1
		c0.3,0.3,0.7,0.4,1.2,0.4s0.9-0.1,1.2-0.4c0.3-0.3,0.4-0.7,0.4-1.2s-0.2-0.9-0.5-1.1c-0.3-0.3-0.7-0.4-1.3-0.4h-0.8v-0.9
		L181.6,271.4L181.6,271.4z M192.3,272.5c0,1.3-0.2,2.2-0.7,2.8c-0.4,0.6-1.1,0.9-2,0.9s-1.6-0.3-2-0.9s-0.7-1.5-0.7-2.7v-1.4
		c0-1.3,0.2-2.2,0.6-2.8c0.4-0.6,1.1-0.9,2-0.9s1.6,0.3,2,0.9c0.4,0.6,0.7,1.5,0.7,2.7L192.3,272.5L192.3,272.5z M191.3,271
		c0-0.9-0.1-1.6-0.4-2c-0.2-0.4-0.7-0.6-1.2-0.6s-1,0.2-1.2,0.6c-0.2,0.4-0.4,1.1-0.4,1.9v1.7c0,0.9,0.1,1.6,0.4,2
		c0.3,0.4,0.7,0.7,1.2,0.7s0.9-0.2,1.2-0.6s0.4-1.1,0.4-1.9V271z M199.3,272.5c0,1.3-0.2,2.2-0.7,2.8c-0.4,0.6-1.1,0.9-2,0.9
		s-1.6-0.3-2-0.9s-0.7-1.5-0.7-2.7v-1.4c0-1.3,0.2-2.2,0.6-2.8c0.4-0.6,1.1-0.9,2-0.9s1.6,0.3,2,0.9c0.4,0.6,0.7,1.5,0.7,2.7
		L199.3,272.5L199.3,272.5z M198.2,271c0-0.9-0.1-1.6-0.4-2c-0.2-0.4-0.7-0.6-1.2-0.6s-1,0.2-1.2,0.6c-0.2,0.4-0.4,1.1-0.4,1.9v1.7
		c0,0.9,0.1,1.6,0.4,2c0.3,0.4,0.7,0.7,1.2,0.7s0.9-0.2,1.2-0.6s0.4-1.1,0.4-1.9V271z"/>
	<path class="st18" d="M382,271.9v0.9h-0.2c-0.8,0-1.5,0.3-2,0.8s-0.8,1.1-0.9,2c0.5-0.5,1.1-0.8,1.8-0.8c0.7,0,1.3,0.3,1.8,0.8
		c0.4,0.5,0.7,1.2,0.7,2c0,0.9-0.2,1.6-0.7,2.1s-1.1,0.8-1.9,0.8s-1.5-0.3-2-0.9c-0.5-0.6-0.7-1.4-0.7-2.4v-0.4c0-1.6,0.3-2.8,1-3.6
		c0.7-0.8,1.7-1.2,3-1.3H382L382,271.9z M380.6,275.6c-0.4,0-0.7,0.1-1,0.3c-0.3,0.2-0.5,0.5-0.7,0.8v0.4c0,0.7,0.2,1.3,0.5,1.7
		s0.7,0.6,1.2,0.6s0.9-0.2,1.1-0.5c0.3-0.4,0.4-0.8,0.4-1.4c0-0.6-0.1-1-0.4-1.4C381.4,275.9,381.1,275.6,380.6,275.6z M384.8,282
		l-0.6-0.4c0.4-0.5,0.6-1,0.6-1.6v-1h1.1v0.8c0,0.4-0.1,0.8-0.3,1.2C385.4,281.5,385.1,281.8,384.8,282z M392.3,280.2h-5.6v-0.8
		l2.9-3.3c0.4-0.5,0.7-0.9,0.9-1.2c0.2-0.3,0.2-0.6,0.2-1s-0.1-0.8-0.4-1.1c-0.3-0.3-0.6-0.4-1.1-0.4s-0.9,0.2-1.2,0.5
		c-0.3,0.3-0.5,0.7-0.5,1.3h-1.1c0-0.8,0.2-1.4,0.7-1.9s1.2-0.7,2-0.7s1.4,0.2,1.9,0.6c0.5,0.4,0.7,1,0.7,1.7c0,0.8-0.5,1.8-1.6,3
		l-2.3,2.5h4.3v0.8L392.3,280.2L392.3,280.2z M399,276.6c0,1.3-0.2,2.2-0.7,2.8c-0.4,0.6-1.1,0.9-2,0.9s-1.6-0.3-2-0.9
		c-0.4-0.6-0.7-1.5-0.7-2.7v-1.4c0-1.3,0.2-2.2,0.6-2.8s1.1-0.9,2-0.9s1.6,0.3,2,0.9s0.7,1.5,0.7,2.7v1.4H399z M397.9,275.2
		c0-0.9-0.1-1.6-0.4-2c-0.2-0.4-0.7-0.6-1.2-0.6s-1,0.2-1.2,0.6s-0.4,1.1-0.4,1.9v1.7c0,0.9,0.1,1.6,0.4,2s0.7,0.7,1.2,0.7
		s0.9-0.2,1.2-0.6c0.3-0.4,0.4-1.1,0.4-1.9V275.2z M406,276.6c0,1.3-0.2,2.2-0.7,2.8c-0.4,0.6-1.1,0.9-2,0.9s-1.6-0.3-2-0.9
		c-0.4-0.6-0.7-1.5-0.7-2.7v-1.4c0-1.3,0.2-2.2,0.6-2.8s1.1-0.9,2-0.9s1.6,0.3,2,0.9s0.7,1.5,0.7,2.7v1.4H406z M404.9,275.2
		c0-0.9-0.1-1.6-0.4-2c-0.2-0.4-0.7-0.6-1.2-0.6s-1,0.2-1.2,0.6s-0.4,1.1-0.4,1.9v1.7c0,0.9,0.1,1.6,0.4,2s0.7,0.7,1.2,0.7
		s0.9-0.2,1.2-0.6c0.3-0.4,0.4-1.1,0.4-1.9V275.2z"/>
	<path class="st19" d="M382,271.9v0.9h-0.2c-0.8,0-1.5,0.3-2,0.8s-0.8,1.1-0.9,2c0.5-0.5,1.1-0.8,1.8-0.8c0.7,0,1.3,0.3,1.8,0.8
		c0.4,0.5,0.7,1.2,0.7,2c0,0.9-0.2,1.6-0.7,2.1s-1.1,0.8-1.9,0.8s-1.5-0.3-2-0.9c-0.5-0.6-0.7-1.4-0.7-2.4v-0.4c0-1.6,0.3-2.8,1-3.6
		c0.7-0.8,1.7-1.2,3-1.3H382L382,271.9z M380.6,275.6c-0.4,0-0.7,0.1-1,0.3c-0.3,0.2-0.5,0.5-0.7,0.8v0.4c0,0.7,0.2,1.3,0.5,1.7
		s0.7,0.6,1.2,0.6s0.9-0.2,1.1-0.5c0.3-0.4,0.4-0.8,0.4-1.4c0-0.6-0.1-1-0.4-1.4C381.4,275.9,381.1,275.6,380.6,275.6z M384.8,282
		l-0.6-0.4c0.4-0.5,0.6-1,0.6-1.6v-1h1.1v0.8c0,0.4-0.1,0.8-0.3,1.2C385.4,281.5,385.1,281.8,384.8,282z M392.3,280.2h-5.6v-0.8
		l2.9-3.3c0.4-0.5,0.7-0.9,0.9-1.2c0.2-0.3,0.2-0.6,0.2-1s-0.1-0.8-0.4-1.1c-0.3-0.3-0.6-0.4-1.1-0.4s-0.9,0.2-1.2,0.5
		c-0.3,0.3-0.5,0.7-0.5,1.3h-1.1c0-0.8,0.2-1.4,0.7-1.9s1.2-0.7,2-0.7s1.4,0.2,1.9,0.6c0.5,0.4,0.7,1,0.7,1.7c0,0.8-0.5,1.8-1.6,3
		l-2.3,2.5h4.3v0.8L392.3,280.2L392.3,280.2z M399,276.6c0,1.3-0.2,2.2-0.7,2.8c-0.4,0.6-1.1,0.9-2,0.9s-1.6-0.3-2-0.9
		c-0.4-0.6-0.7-1.5-0.7-2.7v-1.4c0-1.3,0.2-2.2,0.6-2.8s1.1-0.9,2-0.9s1.6,0.3,2,0.9s0.7,1.5,0.7,2.7v1.4H399z M397.9,275.2
		c0-0.9-0.1-1.6-0.4-2c-0.2-0.4-0.7-0.6-1.2-0.6s-1,0.2-1.2,0.6s-0.4,1.1-0.4,1.9v1.7c0,0.9,0.1,1.6,0.4,2s0.7,0.7,1.2,0.7
		s0.9-0.2,1.2-0.6c0.3-0.4,0.4-1.1,0.4-1.9V275.2z M406,276.6c0,1.3-0.2,2.2-0.7,2.8c-0.4,0.6-1.1,0.9-2,0.9s-1.6-0.3-2-0.9
		c-0.4-0.6-0.7-1.5-0.7-2.7v-1.4c0-1.3,0.2-2.2,0.6-2.8s1.1-0.9,2-0.9s1.6,0.3,2,0.9s0.7,1.5,0.7,2.7v1.4H406z M404.9,275.2
		c0-0.9-0.1-1.6-0.4-2c-0.2-0.4-0.7-0.6-1.2-0.6s-1,0.2-1.2,0.6s-0.4,1.1-0.4,1.9v1.7c0,0.9,0.1,1.6,0.4,2s0.7,0.7,1.2,0.7
		s0.9-0.2,1.2-0.6c0.3-0.4,0.4-1.1,0.4-1.9V275.2z"/>
	<path class="st20" d="M589,436h-5.6v-0.8l2.9-3.3c0.4-0.5,0.7-0.9,0.9-1.2c0.2-0.3,0.2-0.6,0.2-1s-0.1-0.8-0.4-1.1
		c-0.3-0.3-0.6-0.4-1.1-0.4s-0.9,0.2-1.2,0.5s-0.5,0.7-0.5,1.3h-1.1c0-0.8,0.2-1.4,0.7-1.9s1.2-0.7,2-0.7s1.4,0.2,1.9,0.6
		s0.7,1,0.7,1.7c0,0.8-0.5,1.8-1.6,3l-2.3,2.5h4.3v0.8H589z M590.5,437.7l-0.6-0.4c0.4-0.5,0.6-1,0.6-1.6v-1h1.1v0.8
		c0,0.4-0.1,0.8-0.3,1.2S590.8,437.4,590.5,437.7z M592.9,431.7l0.4-4.2h4.3v1h-3.4l-0.3,2.3c0.4-0.2,0.9-0.4,1.4-0.4
		c0.8,0,1.4,0.3,1.8,0.8c0.5,0.5,0.7,1.2,0.7,2.1s-0.2,1.6-0.7,2.1s-1.1,0.8-2,0.8c-0.7,0-1.4-0.2-1.8-0.6c-0.5-0.4-0.7-1-0.8-1.7h1
		c0.1,0.5,0.2,0.9,0.5,1.1s0.6,0.4,1.1,0.4s0.9-0.2,1.2-0.5s0.4-0.8,0.4-1.4s-0.2-1-0.5-1.4c-0.3-0.3-0.7-0.5-1.2-0.5
		s-0.8,0.1-1.1,0.3l-0.3,0.2L592.9,431.7z M604.7,432.4c0,1.3-0.2,2.2-0.7,2.8c-0.4,0.6-1.1,0.9-2,0.9s-1.6-0.3-2-0.9
		s-0.7-1.5-0.7-2.7V431c0-1.3,0.2-2.2,0.6-2.8c0.4-0.6,1.1-0.9,2-0.9s1.6,0.3,2,0.9s0.7,1.5,0.7,2.7v1.4H604.7z M603.6,430.9
		c0-0.9-0.1-1.6-0.4-2c-0.2-0.4-0.7-0.6-1.2-0.6s-1,0.2-1.2,0.6s-0.4,1.1-0.4,1.9v1.7c0,0.9,0.1,1.6,0.4,2c0.3,0.4,0.7,0.7,1.2,0.7
		s0.9-0.2,1.2-0.6s0.4-1.1,0.4-1.9V430.9z M611.6,432.4c0,1.3-0.2,2.2-0.7,2.8c-0.4,0.6-1.1,0.9-2,0.9s-1.6-0.3-2-0.9
		s-0.7-1.5-0.7-2.7V431c0-1.3,0.2-2.2,0.6-2.8c0.4-0.6,1.1-0.9,2-0.9s1.6,0.3,2,0.9s0.7,1.5,0.7,2.7v1.4H611.6z M610.5,430.9
		c0-0.9-0.1-1.6-0.4-2c-0.2-0.4-0.7-0.6-1.2-0.6s-1,0.2-1.2,0.6s-0.4,1.1-0.4,1.9v1.7c0,0.9,0.1,1.6,0.4,2c0.3,0.4,0.7,0.7,1.2,0.7
		s0.9-0.2,1.2-0.6s0.4-1.1,0.4-1.9V430.9z"/>
	<path class="st19" d="M589,436h-5.6v-0.8l2.9-3.3c0.4-0.5,0.7-0.9,0.9-1.2c0.2-0.3,0.2-0.6,0.2-1s-0.1-0.8-0.4-1.1
		c-0.3-0.3-0.6-0.4-1.1-0.4s-0.9,0.2-1.2,0.5s-0.5,0.7-0.5,1.3h-1.1c0-0.8,0.2-1.4,0.7-1.9s1.2-0.7,2-0.7s1.4,0.2,1.9,0.6
		s0.7,1,0.7,1.7c0,0.8-0.5,1.8-1.6,3l-2.3,2.5h4.3v0.8H589z M590.5,437.7l-0.6-0.4c0.4-0.5,0.6-1,0.6-1.6v-1h1.1v0.8
		c0,0.4-0.1,0.8-0.3,1.2S590.8,437.4,590.5,437.7z M592.9,431.7l0.4-4.2h4.3v1h-3.4l-0.3,2.3c0.4-0.2,0.9-0.4,1.4-0.4
		c0.8,0,1.4,0.3,1.8,0.8c0.5,0.5,0.7,1.2,0.7,2.1s-0.2,1.6-0.7,2.1s-1.1,0.8-2,0.8c-0.7,0-1.4-0.2-1.8-0.6c-0.5-0.4-0.7-1-0.8-1.7h1
		c0.1,0.5,0.2,0.9,0.5,1.1s0.6,0.4,1.1,0.4s0.9-0.2,1.2-0.5s0.4-0.8,0.4-1.4s-0.2-1-0.5-1.4c-0.3-0.3-0.7-0.5-1.2-0.5
		s-0.8,0.1-1.1,0.3l-0.3,0.2L592.9,431.7z M604.7,432.4c0,1.3-0.2,2.2-0.7,2.8c-0.4,0.6-1.1,0.9-2,0.9s-1.6-0.3-2-0.9
		s-0.7-1.5-0.7-2.7V431c0-1.3,0.2-2.2,0.6-2.8c0.4-0.6,1.1-0.9,2-0.9s1.6,0.3,2,0.9s0.7,1.5,0.7,2.7v1.4H604.7z M603.6,430.9
		c0-0.9-0.1-1.6-0.4-2c-0.2-0.4-0.7-0.6-1.2-0.6s-1,0.2-1.2,0.6s-0.4,1.1-0.4,1.9v1.7c0,0.9,0.1,1.6,0.4,2c0.3,0.4,0.7,0.7,1.2,0.7
		s0.9-0.2,1.2-0.6s0.4-1.1,0.4-1.9V430.9z M611.6,432.4c0,1.3-0.2,2.2-0.7,2.8c-0.4,0.6-1.1,0.9-2,0.9s-1.6-0.3-2-0.9
		s-0.7-1.5-0.7-2.7V431c0-1.3,0.2-2.2,0.6-2.8c0.4-0.6,1.1-0.9,2-0.9s1.6,0.3,2,0.9s0.7,1.5,0.7,2.7v1.4H611.6z M610.5,430.9
		c0-0.9-0.1-1.6-0.4-2c-0.2-0.4-0.7-0.6-1.2-0.6s-1,0.2-1.2,0.6s-0.4,1.1-0.4,1.9v1.7c0,0.9,0.1,1.6,0.4,2c0.3,0.4,0.7,0.7,1.2,0.7
		s0.9-0.2,1.2-0.6s0.4-1.1,0.4-1.9V430.9z"/>
	<path class="st21" d="M56.5,491.5c0,1.3-0.2,2.2-0.7,2.8c-0.4,0.6-1.1,0.9-2,0.9s-1.6-0.3-2-0.9s-0.7-1.5-0.7-2.7v-1.4
		c0-1.3,0.2-2.2,0.6-2.8c0.4-0.6,1.1-0.9,2-0.9s1.6,0.3,2,0.9s0.7,1.5,0.7,2.7v1.4H56.5z M55.4,490.1c0-0.9-0.1-1.6-0.4-2
		c-0.2-0.4-0.7-0.6-1.2-0.6s-1,0.2-1.2,0.6s-0.4,1.1-0.4,1.9v1.7c0,0.9,0.1,1.6,0.4,2c0.3,0.4,0.7,0.7,1.2,0.7s0.9-0.2,1.2-0.6
		s0.4-1.1,0.4-1.9V490.1z"/>
	<path class="st21" d="M33.9,411h-5.6v-0.8l2.9-3.3c0.4-0.5,0.7-0.9,0.9-1.2c0.2-0.3,0.2-0.6,0.2-1s-0.1-0.8-0.4-1.1
		c-0.3-0.3-0.6-0.4-1.1-0.4s-0.9,0.2-1.2,0.5c-0.3,0.3-0.5,0.7-0.5,1.3H28c0-0.8,0.2-1.4,0.7-1.9s1.2-0.7,2-0.7s1.4,0.2,1.9,0.6
		s0.7,1,0.7,1.7c0,0.8-0.5,1.8-1.6,3l-2.3,2.5h4.3v0.8H33.9z M35.4,412.7l-0.6-0.4c0.4-0.5,0.6-1,0.6-1.6v-1h1.1v0.8
		c0,0.4-0.1,0.8-0.3,1.2C35.9,412.2,35.7,412.5,35.4,412.7z M42.6,407.4c0,1.3-0.2,2.2-0.7,2.8c-0.4,0.6-1.1,0.9-2,0.9
		s-1.6-0.3-2-0.9s-0.7-1.5-0.7-2.7V406c0-1.3,0.2-2.2,0.6-2.8c0.4-0.6,1.1-0.9,2-0.9s1.6,0.3,2,0.9s0.7,1.5,0.7,2.7v1.4H42.6z
		 M41.5,405.9c0-0.9-0.1-1.6-0.4-2c-0.2-0.4-0.7-0.6-1.2-0.6s-1,0.2-1.2,0.6s-0.4,1.1-0.4,1.9v1.7c0,0.9,0.1,1.6,0.4,2
		c0.3,0.4,0.7,0.7,1.2,0.7s0.9-0.2,1.2-0.6s0.4-1.1,0.4-1.9V405.9z M49.6,407.4c0,1.3-0.2,2.2-0.7,2.8c-0.4,0.6-1.1,0.9-2,0.9
		s-1.6-0.3-2-0.9s-0.7-1.5-0.7-2.7V406c0-1.3,0.2-2.2,0.6-2.8c0.4-0.6,1.1-0.9,2-0.9s1.6,0.3,2,0.9s0.7,1.5,0.7,2.7v1.4H49.6z
		 M48.5,405.9c0-0.9-0.1-1.6-0.4-2c-0.2-0.4-0.7-0.6-1.2-0.6s-1,0.2-1.2,0.6s-0.4,1.1-0.4,1.9v1.7c0,0.9,0.1,1.6,0.4,2
		c0.3,0.4,0.7,0.7,1.2,0.7s0.9-0.2,1.2-0.6s0.4-1.1,0.4-1.9V405.9z M56.5,407.4c0,1.3-0.2,2.2-0.7,2.8c-0.4,0.6-1.1,0.9-2,0.9
		s-1.6-0.3-2-0.9s-0.7-1.5-0.7-2.7V406c0-1.3,0.2-2.2,0.6-2.8c0.4-0.6,1.1-0.9,2-0.9s1.6,0.3,2,0.9s0.7,1.5,0.7,2.7v1.4H56.5z
		 M55.4,405.9c0-0.9-0.1-1.6-0.4-2c-0.2-0.4-0.7-0.6-1.2-0.6s-1,0.2-1.2,0.6s-0.4,1.1-0.4,1.9v1.7c0,0.9,0.1,1.6,0.4,2
		c0.3,0.4,0.7,0.7,1.2,0.7s0.9-0.2,1.2-0.6s0.4-1.1,0.4-1.9V405.9z"/>
	<path class="st21" d="M32.9,324h1.2v0.9h-1.2v2h-1.1v-2H28v-0.6l3.8-5.9h1.1V324z M29.2,324h2.6v-4.2l-0.1,0.2L29.2,324z
		 M35.4,328.6l-0.6-0.4c0.4-0.5,0.6-1,0.6-1.6v-1h1.1v0.8c0,0.4-0.1,0.8-0.3,1.2C35.9,328,35.7,328.2,35.4,328.6z M42.6,323.2
		c0,1.3-0.2,2.2-0.7,2.8c-0.4,0.6-1.1,0.9-2,0.9s-1.6-0.3-2-0.9c-0.4-0.6-0.7-1.5-0.7-2.7V322c0-1.3,0.2-2.2,0.6-2.8
		c0.4-0.6,1.1-0.9,2-0.9s1.6,0.3,2,0.9c0.4,0.6,0.7,1.5,0.7,2.7v1.4H42.6L42.6,323.2z M41.5,321.8c0-0.9-0.1-1.6-0.4-2
		c-0.2-0.4-0.7-0.6-1.2-0.6s-1,0.2-1.2,0.6s-0.4,1.1-0.4,1.9v1.7c0,0.9,0.1,1.6,0.4,2c0.3,0.4,0.7,0.7,1.2,0.7s0.9-0.2,1.2-0.6
		c0.3-0.4,0.4-1.1,0.4-1.9V321.8z M49.6,323.2c0,1.3-0.2,2.2-0.7,2.8c-0.4,0.6-1.1,0.9-2,0.9s-1.6-0.3-2-0.9
		c-0.4-0.6-0.7-1.5-0.7-2.7V322c0-1.3,0.2-2.2,0.6-2.8c0.4-0.6,1.1-0.9,2-0.9s1.6,0.3,2,0.9c0.4,0.6,0.7,1.5,0.7,2.7v1.4H49.6
		L49.6,323.2z M48.5,321.8c0-0.9-0.1-1.6-0.4-2c-0.2-0.4-0.7-0.6-1.2-0.6s-1,0.2-1.2,0.6s-0.4,1.1-0.4,1.9v1.7c0,0.9,0.1,1.6,0.4,2
		c0.3,0.4,0.7,0.7,1.2,0.7s0.9-0.2,1.2-0.6c0.3-0.4,0.4-1.1,0.4-1.9V321.8z M56.5,323.2c0,1.3-0.2,2.2-0.7,2.8
		c-0.4,0.6-1.1,0.9-2,0.9s-1.6-0.3-2-0.9c-0.4-0.6-0.7-1.5-0.7-2.7V322c0-1.3,0.2-2.2,0.6-2.8c0.4-0.6,1.1-0.9,2-0.9s1.6,0.3,2,0.9
		c0.4,0.6,0.7,1.5,0.7,2.7v1.4H56.5L56.5,323.2z M55.4,321.8c0-0.9-0.1-1.6-0.4-2c-0.2-0.4-0.7-0.6-1.2-0.6s-1,0.2-1.2,0.6
		s-0.4,1.1-0.4,1.9v1.7c0,0.9,0.1,1.6,0.4,2c0.3,0.4,0.7,0.7,1.2,0.7s0.9-0.2,1.2-0.6c0.3-0.4,0.4-1.1,0.4-1.9V321.8z"/>
	<path class="st21" d="M32.6,234.2v0.9h-0.2c-0.8,0-1.5,0.3-2,0.8s-0.8,1.1-0.9,2c0.5-0.5,1.1-0.8,1.8-0.8c0.7,0,1.3,0.3,1.8,0.8
		c0.4,0.5,0.7,1.2,0.7,2c0,0.9-0.2,1.6-0.7,2.1s-1.1,0.8-1.9,0.8s-1.5-0.3-2-0.9c-0.5-0.6-0.7-1.4-0.7-2.4v-0.4c0-1.6,0.3-2.8,1-3.6
		S31.2,234.4,32.6,234.2L32.6,234.2L32.6,234.2z M31.2,238.1c-0.4,0-0.7,0.1-1,0.3s-0.5,0.5-0.7,0.8v0.4c0,0.7,0.2,1.3,0.5,1.7
		s0.7,0.6,1.2,0.6s0.9-0.2,1.1-0.5c0.3-0.4,0.4-0.8,0.4-1.4c0-0.6-0.1-1-0.4-1.4C32,238.2,31.6,238.1,31.2,238.1z M35.4,244.4
		l-0.6-0.4c0.4-0.5,0.6-1,0.6-1.6v-1h1.1v0.8c0,0.4-0.1,0.8-0.3,1.2C35.9,243.8,35.7,244.1,35.4,244.4z M42.6,239.1
		c0,1.3-0.2,2.2-0.7,2.8c-0.4,0.6-1.1,0.9-2,0.9s-1.6-0.3-2-0.9c-0.4-0.6-0.7-1.5-0.7-2.7v-1.4c0-1.3,0.2-2.2,0.6-2.8
		c0.4-0.6,1.1-0.9,2-0.9s1.6,0.3,2,0.9c0.4,0.6,0.7,1.5,0.7,2.7v1.4H42.6z M41.5,237.6c0-0.9-0.1-1.6-0.4-2
		c-0.2-0.4-0.7-0.6-1.2-0.6s-1,0.2-1.2,0.6c-0.2,0.4-0.4,1.1-0.4,1.9v1.7c0,0.9,0.1,1.6,0.4,2c0.3,0.4,0.7,0.7,1.2,0.7
		s0.9-0.2,1.2-0.6c0.3-0.4,0.4-1.1,0.4-1.9V237.6z M49.6,239.1c0,1.3-0.2,2.2-0.7,2.8c-0.4,0.6-1.1,0.9-2,0.9s-1.6-0.3-2-0.9
		c-0.4-0.6-0.7-1.5-0.7-2.7v-1.4c0-1.3,0.2-2.2,0.6-2.8c0.4-0.6,1.1-0.9,2-0.9s1.6,0.3,2,0.9c0.4,0.6,0.7,1.5,0.7,2.7v1.4H49.6z
		 M48.5,237.6c0-0.9-0.1-1.6-0.4-2c-0.2-0.4-0.7-0.6-1.2-0.6s-1,0.2-1.2,0.6c-0.2,0.4-0.4,1.1-0.4,1.9v1.7c0,0.9,0.1,1.6,0.4,2
		c0.3,0.4,0.7,0.7,1.2,0.7s0.9-0.2,1.2-0.6c0.3-0.4,0.4-1.1,0.4-1.9V237.6z M56.5,239.1c0,1.3-0.2,2.2-0.7,2.8
		c-0.4,0.6-1.1,0.9-2,0.9s-1.6-0.3-2-0.9c-0.4-0.6-0.7-1.5-0.7-2.7v-1.4c0-1.3,0.2-2.2,0.6-2.8c0.4-0.6,1.1-0.9,2-0.9s1.6,0.3,2,0.9
		c0.4,0.6,0.7,1.5,0.7,2.7v1.4H56.5z M55.4,237.6c0-0.9-0.1-1.6-0.4-2c-0.2-0.4-0.7-0.6-1.2-0.6s-1,0.2-1.2,0.6
		c-0.2,0.4-0.4,1.1-0.4,1.9v1.7c0,0.9,0.1,1.6,0.4,2c0.3,0.4,0.7,0.7,1.2,0.7s0.9-0.2,1.2-0.6c0.3-0.4,0.4-1.1,0.4-1.9V237.6z"/>
	<path class="st21" d="M32.2,151.1c0,0.4-0.1,0.8-0.3,1.1c-0.2,0.3-0.5,0.6-0.9,0.8c0.4,0.2,0.8,0.5,1,0.8c0.3,0.4,0.4,0.8,0.4,1.2
		c0,0.7-0.3,1.3-0.8,1.8c-0.5,0.4-1.1,0.7-2,0.7c-0.8,0-1.5-0.2-2-0.7c-0.5-0.4-0.7-1-0.7-1.8c0-0.5,0.1-0.9,0.4-1.2
		c0.2-0.4,0.6-0.7,1-0.8c-0.4-0.2-0.7-0.4-0.9-0.8c-0.2-0.3-0.3-0.7-0.3-1.1c0-0.7,0.2-1.3,0.7-1.7c0.5-0.4,1.1-0.6,1.8-0.6
		c0.7,0,1.4,0.2,1.8,0.6C32,149.9,32.2,150.4,32.2,151.1z M31.3,155.1c0-0.5-0.2-0.9-0.5-1.2s-0.7-0.5-1.2-0.5s-0.9,0.2-1.2,0.5
		c-0.3,0.3-0.4,0.7-0.4,1.2s0.1,0.9,0.4,1.1c0.3,0.3,0.7,0.4,1.2,0.4s0.9-0.1,1.2-0.4C31.2,155.9,31.3,155.6,31.3,155.1z
		 M29.7,149.6c-0.4,0-0.8,0.1-1,0.4c-0.3,0.3-0.4,0.6-0.4,1.1c0,0.4,0.1,0.8,0.4,1c0.3,0.3,0.6,0.4,1,0.4s0.8-0.1,1-0.4
		c0.3-0.3,0.4-0.6,0.4-1c0-0.4-0.1-0.8-0.4-1.1C30.4,149.9,30.1,149.6,29.7,149.6z M34.1,159.1l-0.6-0.4c0.4-0.5,0.6-1,0.6-1.6v-1
		h1.1v0.8c0,0.4-0.1,0.8-0.3,1.2C34.6,158.6,34.4,158.9,34.1,159.1z M41.4,153.9c0,1.3-0.2,2.2-0.7,2.8c-0.4,0.6-1.1,0.9-2,0.9
		s-1.6-0.3-2-0.9c-0.4-0.6-0.7-1.5-0.7-2.7v-1.4c0-1.3,0.2-2.2,0.6-2.8c0.4-0.6,1.1-0.9,2-0.9s1.6,0.3,2,0.9s0.7,1.5,0.7,2.7v1.4
		H41.4z M40.3,152.4c0-0.9-0.1-1.6-0.4-2c-0.2-0.4-0.7-0.6-1.2-0.6c-0.6,0-1,0.2-1.2,0.6s-0.4,1.1-0.4,1.9v1.7c0,0.9,0.1,1.6,0.4,2
		c0.3,0.4,0.7,0.7,1.2,0.7s0.9-0.2,1.2-0.6c0.3-0.4,0.4-1.1,0.4-2V152.4z M48.4,153.9c0,1.3-0.2,2.2-0.7,2.8c-0.4,0.6-1.1,0.9-2,0.9
		s-1.6-0.3-2-0.9c-0.4-0.6-0.7-1.5-0.7-2.7v-1.4c0-1.3,0.2-2.2,0.6-2.8c0.4-0.6,1.1-0.9,2-0.9s1.6,0.3,2,0.9s0.7,1.5,0.7,2.7v1.4
		H48.4z M47.3,152.4c0-0.9-0.1-1.6-0.4-2c-0.2-0.4-0.7-0.6-1.2-0.6c-0.6,0-1,0.2-1.2,0.6s-0.4,1.1-0.4,1.9v1.7c0,0.9,0.1,1.6,0.4,2
		c0.3,0.4,0.7,0.7,1.2,0.7s0.9-0.2,1.2-0.6c0.3-0.4,0.4-1.1,0.4-2V152.4z M55.4,153.9c0,1.3-0.2,2.2-0.7,2.8c-0.4,0.6-1.1,0.9-2,0.9
		s-1.6-0.3-2-0.9c-0.4-0.6-0.7-1.5-0.7-2.7v-1.4c0-1.3,0.2-2.2,0.6-2.8c0.4-0.6,1.1-0.9,2-0.9s1.6,0.3,2,0.9s0.7,1.5,0.7,2.7v1.4
		H55.4z M54.3,152.4c0-0.9-0.1-1.6-0.4-2c-0.2-0.4-0.7-0.6-1.2-0.6c-0.6,0-1,0.2-1.2,0.6s-0.4,1.1-0.4,1.9v1.7c0,0.9,0.1,1.6,0.4,2
		c0.3,0.4,0.7,0.7,1.2,0.7s0.9-0.2,1.2-0.6c0.3-0.4,0.4-1.1,0.4-2V152.4z"/>
	<path class="st21" d="M96.3,544.5l2.2-4.3h1.3l-2.9,5.3v3.2h-1.1v-3.2l-2.9-5.3h1.3L96.3,544.5z M104.5,548c-0.4,0.5-1,0.8-1.9,0.8
		c-0.7,0-1.2-0.2-1.5-0.6c-0.4-0.4-0.5-1-0.5-1.8v-4.1h1.1v4.1c0,1,0.4,1.5,1.2,1.5c0.8,0,1.4-0.3,1.7-0.9v-4.6h1.1v6.3h-1
		L104.5,548z M107.3,545.5c0-1,0.2-1.8,0.7-2.4c0.5-0.6,1.1-0.9,1.8-0.9c0.8,0,1.4,0.3,1.8,0.8v-0.7h1v6.2c0,0.8-0.2,1.5-0.7,1.9
		c-0.5,0.5-1.1,0.7-2,0.7c-0.5,0-0.9-0.1-1.3-0.3s-0.8-0.5-1-0.8l0.6-0.7c0.5,0.6,1,0.9,1.7,0.9c0.5,0,0.9-0.2,1.2-0.5
		c0.3-0.3,0.5-0.7,0.5-1.2V548c-0.4,0.5-1,0.8-1.8,0.8c-0.7,0-1.3-0.3-1.8-0.9C107.5,547.2,107.3,546.5,107.3,545.5z M108.4,545.5
		c0,0.7,0.1,1.3,0.4,1.7s0.7,0.6,1.2,0.6c0.7,0,1.2-0.3,1.5-0.9v-2.9c-0.3-0.6-0.8-0.9-1.5-0.9c-0.5,0-0.9,0.2-1.2,0.6
		C108.5,544.2,108.4,544.8,108.4,545.5z M118.5,548.7c-0.1-0.1-0.1-0.3-0.2-0.7c-0.5,0.5-1.1,0.8-1.8,0.8c-0.6,0-1.1-0.2-1.5-0.5
		c-0.4-0.4-0.6-0.8-0.6-1.4c0-0.7,0.2-1.2,0.8-1.5c0.5-0.4,1.2-0.5,2.1-0.5h1v-0.5c0-0.4-0.1-0.7-0.3-0.9c-0.2-0.2-0.6-0.3-1-0.3
		s-0.7,0.1-1,0.3s-0.4,0.4-0.4,0.7h-1.1c0-0.3,0.1-0.6,0.3-0.9c0.2-0.3,0.5-0.5,0.9-0.7s0.8-0.3,1.3-0.3c0.7,0,1.3,0.2,1.7,0.5
		c0.4,0.4,0.6,0.9,0.7,1.5v2.9c0,0.6,0.1,1,0.2,1.4v0.1H118.5z M116.7,547.8c0.3,0,0.7-0.1,1-0.3s0.5-0.4,0.7-0.7v-1.3h-0.8
		c-1.3,0-2,0.4-2,1.2c0,0.3,0.1,0.6,0.3,0.8C116,547.8,116.3,547.8,116.7,547.8z M126.9,545.5c0,1-0.2,1.8-0.7,2.3
		c-0.4,0.6-1,0.9-1.8,0.9s-1.4-0.3-1.9-0.9l-0.1,0.7h-1v-9h1.1v3.4c0.4-0.5,1-0.8,1.8-0.8s1.4,0.3,1.8,0.9
		C126.7,543.7,126.9,544.5,126.9,545.5L126.9,545.5z M125.8,545.5c0-0.7-0.1-1.3-0.4-1.7s-0.7-0.6-1.2-0.6c-0.7,0-1.2,0.3-1.5,1v2.8
		c0.3,0.7,0.8,1,1.5,1c0.5,0,0.9-0.2,1.2-0.6C125.7,546.8,125.8,546.2,125.8,545.5z M130.6,547l1.5-4.8h1.2l-2.5,7.3
		c-0.4,1.1-1,1.6-1.9,1.6h-0.2l-0.4-0.1v-0.9h0.3c0.4,0,0.7-0.1,0.9-0.2c0.2-0.1,0.4-0.4,0.5-0.8l0.2-0.7l-2.3-6.3h1.2L130.6,547z
		 M136,540.8v1.5h1.2v0.8H136v3.9c0,0.3,0.1,0.5,0.2,0.6c0.1,0.1,0.3,0.2,0.5,0.2c0.1,0,0.3,0,0.5-0.1v0.9c-0.3,0.1-0.6,0.1-0.8,0.1
		c-0.5,0-0.8-0.1-1.1-0.4c-0.2-0.3-0.4-0.7-0.4-1.3V543h-1.2v-0.8h1.2v-1.5H136L136,540.8z M141.2,548.8c-0.9,0-1.6-0.3-2.1-0.8
		c-0.5-0.6-0.8-1.3-0.8-2.3v-0.2c0-0.6,0.1-1.2,0.4-1.7c0.2-0.5,0.6-0.9,1-1.2s0.9-0.4,1.4-0.4c0.8,0,1.5,0.3,1.9,0.8
		c0.5,0.5,0.7,1.3,0.7,2.3v0.5h-4.3c0,0.6,0.2,1.1,0.5,1.5c0.4,0.4,0.8,0.6,1.3,0.6c0.4,0,0.7-0.1,1-0.2c0.3-0.2,0.5-0.4,0.7-0.6
		l0.7,0.5C143,548.3,142.2,548.8,141.2,548.8z M141,543c-0.4,0-0.8,0.2-1.1,0.5s-0.5,0.8-0.5,1.3h3.2v-0.1c0-0.6-0.2-1-0.5-1.3
		C141.8,543.2,141.5,543,141,543z M147.7,548.7v-8.5h2.4c0.7,0,1.4,0.2,2,0.5s1,0.8,1.3,1.4c0.3,0.6,0.5,1.3,0.5,2.1v0.5
		c0,0.8-0.2,1.5-0.5,2.1c-0.3,0.6-0.7,1.1-1.3,1.4s-1.2,0.5-2,0.5H147.7z M148.8,541v6.7h1.2c0.9,0,1.5-0.3,2-0.8s0.7-1.3,0.7-2.3
		v-0.5c0-1-0.2-1.7-0.7-2.2c-0.4-0.5-1.1-0.8-1.9-0.8h-1.3V541z M155.7,548.7v-8.5h2.8c0.9,0,1.6,0.2,2.1,0.6
		c0.5,0.4,0.7,0.9,0.7,1.7c0,0.4-0.1,0.8-0.3,1.1c-0.2,0.3-0.5,0.5-0.9,0.7c0.5,0.1,0.8,0.4,1.1,0.7c0.3,0.4,0.4,0.8,0.4,1.3
		c0,0.8-0.2,1.4-0.8,1.8c-0.5,0.4-1.2,0.7-2.1,0.7h-3V548.7z M156.8,544.7v3.1h1.9c0.5,0,0.9-0.1,1.2-0.4s0.5-0.6,0.5-1.1
		c0-1-0.6-1.5-1.7-1.5L156.8,544.7L156.8,544.7z M156.8,543.8h1.7c0.5,0,0.9-0.1,1.2-0.4c0.3-0.2,0.5-0.6,0.5-1c0-0.5-0.1-0.8-0.4-1
		c-0.3-0.2-0.7-0.3-1.2-0.3h-1.7v2.7H156.8L156.8,543.8z M168.3,544.5l2.2-4.3h1.3l-2.9,5.3v3.2h-1.1v-3.2l-2.9-5.3h1.3L168.3,544.5
		z M179,546c-0.1,0.9-0.4,1.6-1,2.1s-1.3,0.7-2.2,0.7c-1,0-1.8-0.4-2.4-1.1c-0.6-0.7-0.9-1.7-0.9-2.9V544c0-0.8,0.1-1.5,0.4-2.1
		c0.3-0.6,0.7-1.1,1.2-1.4s1.1-0.5,1.8-0.5c0.9,0,1.6,0.3,2.2,0.8c0.6,0.5,0.9,1.2,1,2.1H178c-0.1-0.7-0.3-1.2-0.6-1.5
		s-0.8-0.5-1.4-0.5c-0.7,0-1.3,0.3-1.7,0.8s-0.6,1.3-0.6,2.3v0.8c0,0.9,0.2,1.7,0.6,2.2c0.4,0.5,0.9,0.8,1.6,0.8
		c0.6,0,1.1-0.1,1.4-0.4c0.3-0.3,0.6-0.8,0.7-1.5h1V546z M187.2,544.7c0,0.8-0.1,1.5-0.4,2.1c-0.3,0.6-0.6,1.1-1.1,1.4l1.5,1.2
		l-0.8,0.7l-1.8-1.4c-0.3,0.1-0.6,0.1-0.9,0.1c-0.7,0-1.3-0.2-1.8-0.5s-0.9-0.8-1.2-1.4c-0.3-0.6-0.4-1.3-0.4-2.1v-0.6
		c0-0.8,0.1-1.5,0.4-2.2c0.3-0.6,0.7-1.1,1.2-1.4s1.1-0.5,1.8-0.5s1.3,0.2,1.8,0.5s0.9,0.8,1.2,1.4c0.3,0.6,0.4,1.4,0.4,2.2v0.5
		H187.2L187.2,544.7z M186.1,544.2c0-1-0.2-1.8-0.6-2.3c-0.4-0.6-1-0.8-1.7-0.8s-1.3,0.3-1.7,0.8s-0.6,1.3-0.6,2.2v0.6
		c0,1,0.2,1.7,0.6,2.3c0.4,0.6,1,0.8,1.7,0.8s1.3-0.3,1.7-0.8s0.6-1.3,0.6-2.3V544.2z M189.8,547.8h4v0.9h-5.2v-8.5h1.1L189.8,547.8
		L189.8,547.8z M197.5,545.2c0-0.9,0.1-1.7,0.3-2.5s0.6-1.6,1.1-2.2c0.5-0.7,1-1.1,1.5-1.4l0.2,0.7c-0.6,0.4-1,1.1-1.4,2
		c-0.4,0.9-0.6,1.9-0.6,3v0.5c0,1.5,0.3,2.8,0.8,3.9c0.3,0.7,0.7,1.2,1.2,1.6l-0.2,0.7c-0.5-0.3-1-0.8-1.5-1.5
		C198,548.7,197.5,547,197.5,545.2z M203,543.8h0.8c0.5,0,0.9-0.1,1.2-0.4s0.4-0.6,0.4-1.1c0-1-0.5-1.5-1.5-1.5
		c-0.5,0-0.8,0.1-1.1,0.4s-0.4,0.6-0.4,1.1h-1.1c0-0.7,0.2-1.2,0.7-1.7c0.5-0.4,1.1-0.7,1.9-0.7c0.8,0,1.4,0.2,1.9,0.6
		c0.5,0.4,0.7,1,0.7,1.8c0,0.4-0.1,0.7-0.4,1.1c-0.2,0.3-0.6,0.6-1,0.8c0.5,0.1,0.8,0.4,1.1,0.7s0.4,0.8,0.4,1.3
		c0,0.8-0.2,1.4-0.8,1.8c-0.5,0.4-1.2,0.7-2,0.7s-1.4-0.2-2-0.7c-0.5-0.4-0.8-1-0.8-1.7h1.1c0,0.4,0.1,0.8,0.4,1.1
		c0.3,0.3,0.7,0.4,1.2,0.4s0.9-0.1,1.2-0.4s0.4-0.7,0.4-1.2s-0.2-0.9-0.5-1.1c-0.3-0.3-0.7-0.4-1.3-0.4H203V543.8z M212,548.7h-1.1
		v-7.2l-2.2,0.8v-1l3.1-1.2h0.2V548.7z M216.6,542.3v0.7c0.5-0.5,1.1-0.8,1.9-0.8c0.9,0,1.5,0.3,1.8,1c0.2-0.3,0.5-0.5,0.8-0.7
		s0.7-0.3,1.2-0.3c1.4,0,2.1,0.7,2.1,2.2v4.2h-1.1v-4.2c0-0.4-0.1-0.8-0.3-1s-0.6-0.3-1-0.3s-0.7,0.1-1,0.4c-0.3,0.2-0.4,0.6-0.5,1
		v4.2h-1.1v-4.2c0-0.9-0.5-1.4-1.4-1.4c-0.7,0-1.2,0.3-1.5,0.9v4.6h-1.1v-6.3L216.6,542.3L216.6,542.3z M230.2,547
		c0-0.3-0.1-0.5-0.3-0.7s-0.6-0.3-1.2-0.4c-0.5-0.1-1-0.3-1.3-0.4c-0.3-0.2-0.6-0.4-0.7-0.6c-0.1-0.2-0.2-0.5-0.2-0.8
		c0-0.5,0.2-1,0.7-1.3c0.4-0.4,1-0.5,1.7-0.5s1.3,0.2,1.7,0.6c0.4,0.4,0.7,0.8,0.7,1.4h-1.1c0-0.3-0.1-0.5-0.4-0.8
		c-0.2-0.2-0.6-0.3-0.9-0.3c-0.4,0-0.7,0.1-0.9,0.3c-0.2,0.2-0.3,0.4-0.3,0.7s0.1,0.5,0.3,0.6c0.2,0.1,0.6,0.3,1.1,0.4
		c0.5,0.1,1,0.3,1.3,0.4c0.3,0.2,0.6,0.4,0.7,0.6c0.2,0.2,0.2,0.5,0.2,0.9c0,0.6-0.2,1-0.7,1.4c-0.4,0.3-1,0.5-1.8,0.5
		c-0.5,0-1-0.1-1.4-0.3s-0.7-0.4-0.9-0.8c-0.2-0.3-0.3-0.7-0.3-1h1.1c0,0.4,0.2,0.7,0.4,0.9c0.3,0.2,0.6,0.3,1.1,0.3
		c0.4,0,0.7-0.1,1-0.2C230.1,547.5,230.2,547.2,230.2,547z M236.7,548.7h-1.1v-9h1.1V548.7z M242.5,548.7c-0.1-0.1-0.1-0.3-0.2-0.7
		c-0.5,0.5-1.1,0.8-1.8,0.8c-0.6,0-1.1-0.2-1.5-0.5c-0.4-0.4-0.6-0.8-0.6-1.4c0-0.7,0.2-1.2,0.8-1.5c0.5-0.4,1.2-0.5,2.1-0.5h1v-0.5
		c0-0.4-0.1-0.7-0.3-0.9c-0.2-0.2-0.6-0.3-1-0.3s-0.7,0.1-1,0.3s-0.4,0.4-0.4,0.7h-1.1c0-0.3,0.1-0.6,0.3-0.9s0.5-0.5,0.9-0.7
		s0.8-0.3,1.3-0.3c0.7,0,1.3,0.2,1.7,0.5c0.4,0.4,0.6,0.9,0.7,1.5v2.9c0,0.6,0.1,1,0.2,1.4v0.1H242.5z M240.7,547.8
		c0.3,0,0.7-0.1,1-0.3s0.5-0.4,0.7-0.7v-1.3h-0.8c-1.3,0-2,0.4-2,1.2c0,0.3,0.1,0.6,0.3,0.8C240,547.8,240.3,547.8,240.7,547.8z
		 M247,540.8v1.5h1.2v0.8H247v3.9c0,0.3,0.1,0.5,0.2,0.6c0.1,0.1,0.3,0.2,0.5,0.2c0.1,0,0.3,0,0.5-0.1v0.9c-0.3,0.1-0.6,0.1-0.8,0.1
		c-0.5,0-0.8-0.1-1.1-0.4c-0.2-0.3-0.4-0.7-0.4-1.3V543h-1.2v-0.8h1.2v-1.5H247L247,540.8z M252.2,548.8c-0.9,0-1.6-0.3-2.1-0.8
		c-0.5-0.6-0.8-1.3-0.8-2.3v-0.2c0-0.6,0.1-1.2,0.4-1.7c0.2-0.5,0.6-0.9,1-1.2s0.9-0.4,1.4-0.4c0.8,0,1.5,0.3,1.9,0.8
		c0.5,0.5,0.7,1.3,0.7,2.3v0.5h-4.3c0,0.6,0.2,1.1,0.5,1.5c0.4,0.4,0.8,0.6,1.3,0.6c0.4,0,0.7-0.1,1-0.2c0.3-0.2,0.5-0.4,0.7-0.6
		l0.7,0.5C254,548.3,253.2,548.8,252.2,548.8z M252,543c-0.4,0-0.8,0.2-1.1,0.5s-0.5,0.8-0.5,1.3h3.2v-0.1c0-0.6-0.2-1-0.5-1.3
		C252.8,543.2,252.5,543,252,543z M256.6,542.3v0.8c0.5-0.6,1.1-0.9,1.9-0.9c1.3,0,2,0.8,2,2.3v4.2h-1.1v-4.2c0-0.4-0.1-0.8-0.3-1
		c-0.2-0.2-0.5-0.3-1-0.3c-0.4,0-0.7,0.1-0.9,0.3c-0.3,0.2-0.5,0.4-0.6,0.7v4.5h-1.1v-6.3h1.1V542.3z M265.1,547.8
		c0.4,0,0.7-0.1,1-0.3s0.5-0.5,0.5-0.9h1c0,0.4-0.2,0.7-0.4,1c-0.2,0.3-0.5,0.6-0.9,0.8s-0.8,0.3-1.2,0.3c-0.9,0-1.6-0.3-2.1-0.9
		c-0.5-0.6-0.8-1.4-0.8-2.4v-0.2c0-0.6,0.1-1.2,0.3-1.6c0.2-0.5,0.6-0.8,1-1.1s0.9-0.4,1.5-0.4c0.7,0,1.3,0.2,1.8,0.6
		c0.5,0.4,0.7,1,0.8,1.7h-1c0-0.4-0.2-0.8-0.5-1c-0.3-0.3-0.6-0.4-1-0.4c-0.6,0-1,0.2-1.3,0.6c-0.3,0.4-0.5,1-0.5,1.7v0.2
		c0,0.7,0.2,1.3,0.5,1.7C264.1,547.7,264.5,547.8,265.1,547.8z M270.6,547l1.5-4.8h1.2l-2.5,7.3c-0.4,1.1-1,1.6-1.9,1.6h-0.2
		l-0.4-0.1v-0.9h0.3c0.4,0,0.7-0.1,0.9-0.2c0.2-0.1,0.4-0.4,0.5-0.8l0.2-0.7l-2.3-6.3h1.2L270.6,547z M277,545.2
		c0,0.9-0.1,1.7-0.3,2.5c-0.2,0.8-0.6,1.5-1.1,2.2s-1,1.2-1.5,1.4l-0.2-0.7c0.6-0.5,1.1-1.2,1.5-2.1c0.4-1,0.6-2.1,0.6-3.2v-0.2
		c0-0.8-0.1-1.6-0.3-2.3c-0.2-0.7-0.4-1.3-0.7-1.9c-0.3-0.6-0.6-1-1-1.3l0.2-0.7c0.5,0.3,1,0.8,1.5,1.4c0.5,0.7,0.8,1.4,1,2.2
		C276.9,543.5,277,544.3,277,545.2z"/>
	<path class="st21" d="M304.1,544.5l2.2-4.3h1.3l-2.9,5.3v3.2h-1.1v-3.2l-2.9-5.3h1.3L304.1,544.5z M312.2,548
		c-0.4,0.5-1,0.8-1.9,0.8c-0.7,0-1.2-0.2-1.5-0.6c-0.4-0.4-0.5-1-0.5-1.8v-4.1h1.1v4.1c0,1,0.4,1.5,1.2,1.5c0.8,0,1.4-0.3,1.7-0.9
		v-4.6h1.1v6.3h-1L312.2,548z M315.1,545.5c0-1,0.2-1.8,0.7-2.4c0.5-0.6,1.1-0.9,1.8-0.9c0.8,0,1.4,0.3,1.8,0.8v-0.7h1v6.2
		c0,0.8-0.2,1.5-0.7,1.9c-0.5,0.5-1.1,0.7-2,0.7c-0.5,0-0.9-0.1-1.3-0.3s-0.8-0.5-1-0.8l0.6-0.7c0.5,0.6,1,0.9,1.7,0.9
		c0.5,0,0.9-0.2,1.2-0.5c0.3-0.3,0.5-0.7,0.5-1.2V548c-0.4,0.5-1,0.8-1.8,0.8c-0.7,0-1.3-0.3-1.8-0.9
		C315.3,547.2,315.1,546.5,315.1,545.5z M316.2,545.5c0,0.7,0.1,1.3,0.4,1.7s0.7,0.6,1.2,0.6c0.7,0,1.2-0.3,1.5-0.9v-2.9
		c-0.3-0.6-0.8-0.9-1.5-0.9c-0.5,0-0.9,0.2-1.2,0.6C316.3,544.2,316.2,544.8,316.2,545.5z M326.2,548.7c-0.1-0.1-0.1-0.3-0.2-0.7
		c-0.5,0.5-1.1,0.8-1.8,0.8c-0.6,0-1.1-0.2-1.5-0.5c-0.4-0.4-0.6-0.8-0.6-1.4c0-0.7,0.2-1.2,0.8-1.5c0.5-0.4,1.2-0.5,2.1-0.5h1v-0.5
		c0-0.4-0.1-0.7-0.3-0.9c-0.2-0.2-0.6-0.3-1-0.3s-0.7,0.1-1,0.3s-0.4,0.4-0.4,0.7h-1.1c0-0.3,0.1-0.6,0.3-0.9
		c0.2-0.3,0.5-0.5,0.9-0.7s0.8-0.3,1.3-0.3c0.7,0,1.3,0.2,1.7,0.5c0.4,0.4,0.6,0.9,0.7,1.5v2.9c0,0.6,0.1,1,0.2,1.4v0.1H326.2z
		 M324.4,547.8c0.3,0,0.7-0.1,1-0.3s0.5-0.4,0.7-0.7v-1.3h-0.8c-1.3,0-2,0.4-2,1.2c0,0.3,0.1,0.6,0.3,0.8
		C323.8,547.8,324.1,547.8,324.4,547.8z M334.7,545.5c0,1-0.2,1.8-0.7,2.3c-0.4,0.6-1,0.9-1.8,0.9s-1.4-0.3-1.9-0.9l-0.1,0.7h-1v-9
		h1.1v3.4c0.4-0.5,1-0.8,1.8-0.8s1.4,0.3,1.8,0.9C334.5,543.7,334.7,544.5,334.7,545.5L334.7,545.5z M333.6,545.5
		c0-0.7-0.1-1.3-0.4-1.7s-0.7-0.6-1.2-0.6c-0.7,0-1.2,0.3-1.5,1v2.8c0.3,0.7,0.8,1,1.5,1c0.5,0,0.9-0.2,1.2-0.6
		C333.5,546.8,333.6,546.2,333.6,545.5z M338.4,547l1.5-4.8h1.2l-2.5,7.3c-0.4,1.1-1,1.6-1.9,1.6h-0.2l-0.4-0.1v-0.9h0.3
		c0.4,0,0.7-0.1,0.9-0.2c0.2-0.1,0.4-0.4,0.5-0.8l0.2-0.7l-2.3-6.3h1.2L338.4,547z M343.8,540.8v1.5h1.2v0.8h-1.2v3.9
		c0,0.3,0.1,0.5,0.2,0.6c0.1,0.1,0.3,0.2,0.5,0.2c0.1,0,0.3,0,0.5-0.1v0.9c-0.3,0.1-0.6,0.1-0.8,0.1c-0.5,0-0.8-0.1-1.1-0.4
		c-0.2-0.3-0.4-0.7-0.4-1.3V543h-1.2v-0.8h1.2v-1.5H343.8L343.8,540.8z M349,548.8c-0.9,0-1.6-0.3-2.1-0.8c-0.5-0.6-0.8-1.3-0.8-2.3
		v-0.2c0-0.6,0.1-1.2,0.4-1.7c0.2-0.5,0.6-0.9,1-1.2s0.9-0.4,1.4-0.4c0.8,0,1.5,0.3,1.9,0.8c0.5,0.5,0.7,1.3,0.7,2.3v0.5h-4.3
		c0,0.6,0.2,1.1,0.5,1.5c0.4,0.4,0.8,0.6,1.3,0.6c0.4,0,0.7-0.1,1-0.2c0.3-0.2,0.5-0.4,0.7-0.6l0.7,0.5
		C350.8,548.3,350,548.8,349,548.8z M348.8,543c-0.4,0-0.8,0.2-1.1,0.5c-0.3,0.3-0.5,0.8-0.5,1.3h3.2v-0.1c0-0.6-0.2-1-0.5-1.3
		C349.6,543.2,349.3,543,348.8,543z M355.5,548.7v-8.5h2.4c0.7,0,1.4,0.2,2,0.5s1,0.8,1.3,1.4c0.3,0.6,0.5,1.3,0.5,2.1v0.5
		c0,0.8-0.2,1.5-0.5,2.1c-0.3,0.6-0.7,1.1-1.3,1.4c-0.6,0.3-1.2,0.5-2,0.5H355.5z M356.6,541v6.7h1.2c0.9,0,1.5-0.3,2-0.8
		s0.7-1.3,0.7-2.3v-0.5c0-1-0.2-1.7-0.7-2.2c-0.4-0.5-1.1-0.8-1.9-0.8h-1.3L356.6,541L356.6,541z M363.5,548.7v-8.5h2.8
		c0.9,0,1.6,0.2,2.1,0.6c0.5,0.4,0.7,0.9,0.7,1.7c0,0.4-0.1,0.8-0.3,1.1c-0.2,0.3-0.5,0.5-0.9,0.7c0.5,0.1,0.8,0.4,1.1,0.7
		c0.3,0.4,0.4,0.8,0.4,1.3c0,0.8-0.2,1.4-0.8,1.8c-0.5,0.4-1.2,0.7-2.1,0.7h-3L363.5,548.7L363.5,548.7z M364.6,544.7v3.1h1.9
		c0.5,0,0.9-0.1,1.2-0.4c0.3-0.3,0.5-0.6,0.5-1.1c0-1-0.6-1.5-1.7-1.5L364.6,544.7L364.6,544.7z M364.6,543.8h1.7
		c0.5,0,0.9-0.1,1.2-0.4c0.3-0.2,0.5-0.6,0.5-1c0-0.5-0.1-0.8-0.4-1s-0.7-0.3-1.2-0.3h-1.7v2.7H364.6L364.6,543.8z M376.1,544.5
		l2.2-4.3h1.3l-2.9,5.3v3.2h-1.1v-3.2l-2.9-5.3h1.3L376.1,544.5z M383,544.8c-1-0.3-1.7-0.6-2.1-1c-0.4-0.4-0.7-0.9-0.7-1.5
		c0-0.7,0.3-1.2,0.8-1.7c0.5-0.4,1.2-0.7,2.1-0.7c0.6,0,1.1,0.1,1.6,0.3c0.5,0.2,0.8,0.5,1.1,0.9c0.3,0.4,0.4,0.8,0.4,1.3H385
		c0-0.5-0.2-0.9-0.5-1.2s-0.8-0.4-1.4-0.4s-1,0.1-1.3,0.4c-0.3,0.2-0.5,0.6-0.5,1c0,0.4,0.1,0.7,0.4,0.9c0.3,0.2,0.8,0.5,1.5,0.7
		s1.3,0.4,1.7,0.7c0.4,0.2,0.7,0.5,0.9,0.8c0.2,0.3,0.3,0.7,0.3,1.1c0,0.7-0.3,1.3-0.8,1.7c-0.5,0.4-1.3,0.6-2.2,0.6
		c-0.6,0-1.1-0.1-1.7-0.3c-0.5-0.2-0.9-0.5-1.2-0.9c-0.3-0.4-0.4-0.8-0.4-1.3h1.1c0,0.5,0.2,0.9,0.6,1.2c0.4,0.3,0.9,0.5,1.5,0.5
		s1-0.1,1.4-0.4c0.3-0.2,0.5-0.6,0.5-1c0-0.4-0.1-0.7-0.4-1C384.3,545.2,383.8,545,383,544.8z M394,544.7c0,0.8-0.1,1.5-0.4,2.1
		c-0.3,0.6-0.6,1.1-1.1,1.4l1.5,1.2l-0.8,0.7l-1.8-1.4c-0.3,0.1-0.6,0.1-0.9,0.1c-0.7,0-1.3-0.2-1.8-0.5s-0.9-0.8-1.2-1.4
		c-0.3-0.6-0.4-1.3-0.4-2.1v-0.6c0-0.8,0.1-1.5,0.4-2.2c0.3-0.6,0.7-1.1,1.2-1.4s1.1-0.5,1.8-0.5c0.7,0,1.3,0.2,1.8,0.5
		s0.9,0.8,1.2,1.4c0.3,0.6,0.4,1.4,0.4,2.2L394,544.7L394,544.7z M392.9,544.2c0-1-0.2-1.8-0.6-2.3c-0.4-0.6-1-0.8-1.7-0.8
		s-1.3,0.3-1.7,0.8c-0.4,0.5-0.6,1.3-0.6,2.2v0.6c0,1,0.2,1.7,0.6,2.3c0.4,0.6,1,0.8,1.7,0.8s1.3-0.3,1.7-0.8
		c0.4-0.5,0.6-1.3,0.6-2.3V544.2z M396.6,547.8h4v0.9h-5.2v-8.5h1.1v7.6H396.6z M404.3,545.2c0-0.9,0.1-1.7,0.3-2.5
		c0.2-0.8,0.6-1.6,1.1-2.2c0.5-0.7,1-1.1,1.5-1.4l0.2,0.7c-0.6,0.4-1,1.1-1.4,2c-0.4,0.9-0.6,1.9-0.6,3v0.5c0,1.5,0.3,2.8,0.8,3.9
		c0.3,0.7,0.7,1.2,1.2,1.6l-0.2,0.7c-0.5-0.3-1-0.8-1.5-1.5C404.7,548.7,404.3,547,404.3,545.2z M409.8,543.8h0.8
		c0.5,0,0.9-0.1,1.2-0.4c0.3-0.3,0.4-0.6,0.4-1.1c0-1-0.5-1.5-1.5-1.5c-0.5,0-0.8,0.1-1.1,0.4c-0.3,0.3-0.4,0.6-0.4,1.1h-1.1
		c0-0.7,0.2-1.2,0.7-1.7c0.5-0.4,1.1-0.7,1.9-0.7s1.4,0.2,1.9,0.6c0.5,0.4,0.7,1,0.7,1.8c0,0.4-0.1,0.7-0.4,1.1
		c-0.2,0.3-0.6,0.6-1,0.8c0.5,0.1,0.8,0.4,1.1,0.7c0.3,0.3,0.4,0.8,0.4,1.3c0,0.8-0.2,1.4-0.8,1.8c-0.5,0.4-1.2,0.7-2,0.7
		s-1.4-0.2-2-0.7c-0.5-0.4-0.8-1-0.8-1.7h1.1c0,0.4,0.1,0.8,0.4,1.1c0.3,0.3,0.7,0.4,1.2,0.4s0.9-0.1,1.2-0.4
		c0.3-0.3,0.4-0.7,0.4-1.2s-0.2-0.9-0.5-1.1c-0.3-0.3-0.7-0.4-1.3-0.4h-0.8v-0.9L409.8,543.8L409.8,543.8z M420.8,548.7h-5.6v-0.8
		l3-3.3c0.4-0.5,0.7-0.9,0.9-1.2c0.2-0.3,0.2-0.6,0.2-1c0-0.4-0.1-0.8-0.4-1.1c-0.3-0.3-0.6-0.4-1.1-0.4s-0.9,0.2-1.2,0.5
		c-0.3,0.3-0.5,0.7-0.5,1.3H415c0-0.8,0.2-1.4,0.8-1.9c0.5-0.5,1.2-0.7,2-0.7s1.4,0.2,1.9,0.6c0.5,0.4,0.7,1,0.7,1.7
		c0,0.8-0.5,1.8-1.6,3l-2.3,2.5h4.3V548.7z M423.3,542.3v0.7c0.5-0.5,1.1-0.8,1.9-0.8c0.9,0,1.5,0.3,1.8,1c0.2-0.3,0.5-0.5,0.8-0.7
		s0.7-0.3,1.2-0.3c1.4,0,2.1,0.7,2.1,2.2v4.2H430v-4.2c0-0.4-0.1-0.8-0.3-1c-0.2-0.2-0.6-0.3-1-0.3s-0.7,0.1-1,0.4
		c-0.3,0.2-0.4,0.6-0.5,1v4.2h-1.1v-4.2c0-0.9-0.5-1.4-1.4-1.4c-0.7,0-1.2,0.3-1.5,0.9v4.6h-1.1v-6.3L423.3,542.3L423.3,542.3z
		 M437,547c0-0.3-0.1-0.5-0.3-0.7c-0.2-0.2-0.6-0.3-1.2-0.4c-0.5-0.1-1-0.3-1.3-0.4c-0.3-0.2-0.6-0.4-0.7-0.6s-0.2-0.5-0.2-0.8
		c0-0.5,0.2-1,0.7-1.3c0.4-0.4,1-0.5,1.7-0.5s1.3,0.2,1.7,0.6c0.4,0.4,0.7,0.8,0.7,1.4H437c0-0.3-0.1-0.5-0.4-0.8
		c-0.2-0.2-0.6-0.3-0.9-0.3c-0.4,0-0.7,0.1-0.9,0.3c-0.2,0.2-0.3,0.4-0.3,0.7s0.1,0.5,0.3,0.6c0.2,0.1,0.6,0.3,1.1,0.4
		c0.5,0.1,1,0.3,1.3,0.4c0.3,0.2,0.6,0.4,0.7,0.6c0.2,0.2,0.2,0.5,0.2,0.9c0,0.6-0.2,1-0.7,1.4c-0.4,0.3-1,0.5-1.8,0.5
		c-0.5,0-1-0.1-1.4-0.3s-0.7-0.4-0.9-0.8c-0.2-0.3-0.3-0.7-0.3-1h1.1c0,0.4,0.2,0.7,0.4,0.9c0.3,0.2,0.6,0.3,1.1,0.3
		c0.4,0,0.7-0.1,1-0.2C436.9,547.5,437,547.2,437,547z M443.5,548.7h-1.1v-9h1.1V548.7z M449.2,548.7c-0.1-0.1-0.1-0.3-0.2-0.7
		c-0.5,0.5-1.1,0.8-1.8,0.8c-0.6,0-1.1-0.2-1.5-0.5c-0.4-0.4-0.6-0.8-0.6-1.4c0-0.7,0.2-1.2,0.8-1.5c0.5-0.4,1.2-0.5,2.1-0.5h1v-0.5
		c0-0.4-0.1-0.7-0.3-0.9c-0.2-0.2-0.6-0.3-1-0.3s-0.7,0.1-1,0.3s-0.4,0.4-0.4,0.7h-1.1c0-0.3,0.1-0.6,0.3-0.9
		c0.2-0.3,0.5-0.5,0.9-0.7s0.8-0.3,1.3-0.3c0.7,0,1.3,0.2,1.7,0.5c0.4,0.4,0.6,0.9,0.7,1.5v2.9c0,0.6,0.1,1,0.2,1.4v0.1H449.2z
		 M447.4,547.8c0.3,0,0.7-0.1,1-0.3s0.5-0.4,0.7-0.7v-1.3h-0.8c-1.3,0-2,0.4-2,1.2c0,0.3,0.1,0.6,0.3,0.8
		C446.8,547.8,447.1,547.8,447.4,547.8z M453.8,540.8v1.5h1.2v0.8h-1.2v3.9c0,0.3,0.1,0.5,0.2,0.6c0.1,0.1,0.3,0.2,0.5,0.2
		c0.1,0,0.3,0,0.5-0.1v0.9c-0.3,0.1-0.6,0.1-0.8,0.1c-0.5,0-0.8-0.1-1.1-0.4c-0.2-0.3-0.4-0.7-0.4-1.3V543h-1.2v-0.8h1.2v-1.5H453.8
		L453.8,540.8z M459,548.8c-0.9,0-1.6-0.3-2.1-0.8c-0.5-0.6-0.8-1.3-0.8-2.3v-0.2c0-0.6,0.1-1.2,0.4-1.7c0.2-0.5,0.6-0.9,1-1.2
		s0.9-0.4,1.4-0.4c0.8,0,1.5,0.3,1.9,0.8c0.5,0.5,0.7,1.3,0.7,2.3v0.5h-4.3c0,0.6,0.2,1.1,0.5,1.5c0.4,0.4,0.8,0.6,1.3,0.6
		c0.4,0,0.7-0.1,1-0.2c0.3-0.2,0.5-0.4,0.7-0.6l0.7,0.5C460.8,548.3,460,548.8,459,548.8z M458.8,543c-0.4,0-0.8,0.2-1.1,0.5
		c-0.3,0.3-0.5,0.8-0.5,1.3h3.2v-0.1c0-0.6-0.2-1-0.5-1.3C459.6,543.2,459.3,543,458.8,543z M463.3,542.3v0.8
		c0.5-0.6,1.1-0.9,1.9-0.9c1.3,0,2,0.8,2,2.3v4.2h-1.1v-4.2c0-0.4-0.1-0.8-0.3-1c-0.2-0.2-0.5-0.3-1-0.3c-0.4,0-0.7,0.1-0.9,0.3
		c-0.3,0.2-0.5,0.4-0.6,0.7v4.5h-1.1v-6.3h1.1V542.3z M471.9,547.8c0.4,0,0.7-0.1,1-0.3s0.5-0.5,0.5-0.9h1c0,0.4-0.2,0.7-0.4,1
		c-0.2,0.3-0.5,0.6-0.9,0.8s-0.8,0.3-1.2,0.3c-0.9,0-1.6-0.3-2.1-0.9c-0.5-0.6-0.8-1.4-0.8-2.4v-0.2c0-0.6,0.1-1.2,0.3-1.6
		c0.2-0.5,0.6-0.8,1-1.1s0.9-0.4,1.5-0.4c0.7,0,1.3,0.2,1.8,0.6c0.5,0.4,0.7,1,0.8,1.7h-1c0-0.4-0.2-0.8-0.5-1
		c-0.3-0.3-0.6-0.4-1-0.4c-0.6,0-1,0.2-1.3,0.6c-0.3,0.4-0.5,1-0.5,1.7v0.2c0,0.7,0.2,1.3,0.5,1.7
		C470.9,547.7,471.3,547.8,471.9,547.8z M477.4,547l1.5-4.8h1.2l-2.5,7.3c-0.4,1.1-1,1.6-1.9,1.6h-0.2l-0.4-0.1v-0.9h0.3
		c0.4,0,0.7-0.1,0.9-0.2c0.2-0.1,0.4-0.4,0.5-0.8l0.2-0.7l-2.3-6.3h1.2L477.4,547z M483.8,545.2c0,0.9-0.1,1.7-0.3,2.5
		c-0.2,0.8-0.6,1.5-1.1,2.2s-1,1.2-1.5,1.4l-0.2-0.7c0.6-0.5,1.1-1.2,1.5-2.1c0.4-1,0.6-2.1,0.6-3.2v-0.2c0-0.8-0.1-1.6-0.3-2.3
		c-0.2-0.7-0.4-1.3-0.7-1.9c-0.3-0.6-0.6-1-1-1.3l0.2-0.7c0.5,0.3,1,0.8,1.5,1.4c0.5,0.7,0.8,1.4,1,2.2
		C483.7,543.5,483.8,544.3,483.8,545.2z"/>
	<path class="st21" d="M528.5,546c-0.1,0.9-0.4,1.6-1,2.1s-1.3,0.7-2.2,0.7c-1,0-1.8-0.4-2.4-1.1c-0.6-0.7-0.9-1.7-0.9-2.9V544
		c0-0.8,0.1-1.5,0.4-2.1c0.3-0.6,0.7-1.1,1.2-1.4s1.1-0.5,1.8-0.5c0.9,0,1.6,0.3,2.2,0.8c0.6,0.5,0.9,1.2,1,2.1h-1.1
		c-0.1-0.7-0.3-1.2-0.6-1.5s-0.8-0.5-1.4-0.5c-0.7,0-1.3,0.3-1.7,0.8s-0.6,1.3-0.6,2.3v0.8c0,0.9,0.2,1.7,0.6,2.2
		c0.4,0.5,0.9,0.8,1.6,0.8c0.6,0,1.1-0.1,1.4-0.4c0.3-0.3,0.6-0.8,0.7-1.5h1V546z M529.8,545.5c0-0.6,0.1-1.2,0.4-1.7
		c0.2-0.5,0.6-0.9,1-1.1c0.4-0.3,0.9-0.4,1.5-0.4c0.9,0,1.6,0.3,2.1,0.9c0.5,0.6,0.8,1.4,0.8,2.4v0.1c0,0.6-0.1,1.2-0.4,1.7
		c-0.2,0.5-0.6,0.9-1,1.2s-0.9,0.4-1.5,0.4c-0.9,0-1.6-0.3-2.1-0.9C530.1,547.2,529.8,546.5,529.8,545.5L529.8,545.5z M530.9,545.5
		c0,0.7,0.2,1.3,0.5,1.7s0.8,0.6,1.3,0.6c0.6,0,1-0.2,1.3-0.6c0.3-0.4,0.5-1,0.5-1.8c0-0.7-0.2-1.2-0.5-1.7
		c-0.3-0.4-0.8-0.7-1.3-0.7s-1,0.2-1.3,0.6C531.1,544.2,530.9,544.8,530.9,545.5z M539.6,547.8c0.4,0,0.7-0.1,1-0.3s0.5-0.5,0.5-0.9
		h1c0,0.4-0.2,0.7-0.4,1s-0.5,0.6-0.9,0.8s-0.8,0.3-1.2,0.3c-0.9,0-1.6-0.3-2.1-0.9c-0.5-0.6-0.8-1.4-0.8-2.4v-0.2
		c0-0.6,0.1-1.2,0.3-1.6c0.2-0.5,0.6-0.8,1-1.1s0.9-0.4,1.5-0.4c0.7,0,1.3,0.2,1.8,0.6c0.5,0.4,0.7,1,0.8,1.7h-1
		c0-0.4-0.2-0.8-0.5-1c-0.3-0.3-0.6-0.4-1-0.4c-0.6,0-1,0.2-1.3,0.6c-0.3,0.4-0.5,1-0.5,1.7v0.2c0,0.7,0.2,1.3,0.5,1.7
		C538.7,547.7,539.1,547.8,539.6,547.8z M544.9,545.8l-0.7,0.7v2.2h-1.1v-9h1.1v5.4l0.6-0.7l2-2.1h1.3l-2.5,2.7l2.8,3.7h-1.3
		L544.9,545.8z M552.2,543.2c-0.2,0-0.3,0-0.5,0c-0.7,0-1.2,0.3-1.5,0.9v4.5h-1.1v-6.3h1v0.7c0.4-0.6,0.9-0.8,1.5-0.8
		c0.2,0,0.4,0,0.5,0.1L552.2,543.2L552.2,543.2z M552.8,545.5c0-0.6,0.1-1.2,0.4-1.7c0.2-0.5,0.6-0.9,1-1.1c0.4-0.3,0.9-0.4,1.5-0.4
		c0.9,0,1.6,0.3,2.1,0.9c0.5,0.6,0.8,1.4,0.8,2.4v0.1c0,0.6-0.1,1.2-0.4,1.7c-0.2,0.5-0.6,0.9-1,1.2s-0.9,0.4-1.5,0.4
		c-0.9,0-1.6-0.3-2.1-0.9C553.1,547.2,552.8,546.5,552.8,545.5L552.8,545.5z M553.9,545.5c0,0.7,0.2,1.3,0.5,1.7s0.8,0.6,1.3,0.6
		c0.6,0,1-0.2,1.3-0.6c0.3-0.4,0.5-1,0.5-1.8c0-0.7-0.2-1.2-0.5-1.7c-0.3-0.4-0.8-0.7-1.3-0.7s-1,0.2-1.3,0.6
		C554.1,544.2,553.9,544.8,553.9,545.5z M564,548.7c-0.1-0.1-0.1-0.3-0.2-0.7c-0.5,0.5-1.1,0.8-1.8,0.8c-0.6,0-1.1-0.2-1.5-0.5
		c-0.4-0.4-0.6-0.8-0.6-1.4c0-0.7,0.2-1.2,0.8-1.5c0.5-0.4,1.2-0.5,2.1-0.5h1v-0.5c0-0.4-0.1-0.7-0.3-0.9c-0.2-0.2-0.6-0.3-1-0.3
		s-0.7,0.1-1,0.3s-0.4,0.4-0.4,0.7H560c0-0.3,0.1-0.6,0.3-0.9s0.5-0.5,0.9-0.7s0.8-0.3,1.3-0.3c0.7,0,1.3,0.2,1.7,0.5
		c0.4,0.4,0.6,0.9,0.7,1.5v2.9c0,0.6,0.1,1,0.2,1.4v0.1H564z M562.2,547.8c0.3,0,0.7-0.1,1-0.3s0.5-0.4,0.7-0.7v-1.3H563
		c-1.3,0-2,0.4-2,1.2c0,0.3,0.1,0.6,0.3,0.8C561.6,547.8,561.9,547.8,562.2,547.8z M569.6,547.8c0.4,0,0.7-0.1,1-0.3
		s0.5-0.5,0.5-0.9h1c0,0.4-0.2,0.7-0.4,1s-0.5,0.6-0.9,0.8s-0.8,0.3-1.2,0.3c-0.9,0-1.6-0.3-2.1-0.9c-0.5-0.6-0.8-1.4-0.8-2.4v-0.2
		c0-0.6,0.1-1.2,0.3-1.6c0.2-0.5,0.6-0.8,1-1.1s0.9-0.4,1.5-0.4c0.7,0,1.3,0.2,1.8,0.6c0.5,0.4,0.7,1,0.8,1.7h-1
		c0-0.4-0.2-0.8-0.5-1c-0.3-0.3-0.6-0.4-1-0.4c-0.6,0-1,0.2-1.3,0.6c-0.3,0.4-0.5,1-0.5,1.7v0.2c0,0.7,0.2,1.3,0.5,1.7
		C568.7,547.7,569.1,547.8,569.6,547.8z M574.2,543c0.5-0.6,1.1-0.9,1.9-0.9c1.3,0,2,0.8,2,2.3v4.2H577v-4.2c0-0.4-0.1-0.8-0.3-1
		s-0.5-0.3-1-0.3c-0.4,0-0.7,0.1-0.9,0.3c-0.3,0.2-0.5,0.4-0.6,0.7v4.5h-1.1v-9h1.1V543z M580.3,548.7v-8.5h2.4c0.7,0,1.4,0.2,2,0.5
		s1,0.8,1.3,1.4c0.3,0.6,0.5,1.3,0.5,2.1v0.5c0,0.8-0.2,1.5-0.5,2.1c-0.3,0.6-0.7,1.1-1.3,1.4s-1.2,0.5-2,0.5H580.3z M581.4,541v6.7
		h1.2c0.9,0,1.5-0.3,2-0.8s0.7-1.3,0.7-2.3v-0.5c0-1-0.2-1.7-0.7-2.2c-0.4-0.5-1.1-0.8-1.9-0.8h-1.3V541z M588.3,548.7v-8.5h2.8
		c0.9,0,1.6,0.2,2.1,0.6c0.5,0.4,0.7,0.9,0.7,1.7c0,0.4-0.1,0.8-0.3,1.1c-0.2,0.3-0.5,0.5-0.9,0.7c0.5,0.1,0.8,0.4,1.1,0.7
		c0.3,0.4,0.4,0.8,0.4,1.3c0,0.8-0.2,1.4-0.8,1.8c-0.5,0.4-1.2,0.7-2.1,0.7h-3V548.7z M589.4,544.7v3.1h1.9c0.5,0,0.9-0.1,1.2-0.4
		s0.5-0.6,0.5-1.1c0-1-0.6-1.5-1.7-1.5L589.4,544.7L589.4,544.7z M589.4,543.8h1.7c0.5,0,0.9-0.1,1.2-0.4c0.3-0.2,0.5-0.6,0.5-1
		c0-0.5-0.1-0.8-0.4-1c-0.3-0.2-0.7-0.3-1.2-0.3h-1.7L589.4,543.8L589.4,543.8z M598.1,545.2c0-0.9,0.1-1.7,0.3-2.5s0.6-1.6,1.1-2.2
		c0.5-0.7,1-1.1,1.5-1.4l0.2,0.7c-0.6,0.4-1,1.1-1.4,2c-0.4,0.9-0.6,1.9-0.6,3v0.5c0,1.5,0.3,2.8,0.8,3.9c0.3,0.7,0.7,1.2,1.2,1.6
		l-0.2,0.7c-0.5-0.3-1-0.8-1.5-1.5C598.5,548.7,598.1,547,598.1,545.2z M607.5,540.8l-3.5,7.9h-1.1l3.5-7.6h-4.6v-0.9h5.8v0.6H607.5
		z M614.2,542.3c0,0.4-0.1,0.8-0.3,1.1c-0.2,0.3-0.5,0.6-0.9,0.8c0.4,0.2,0.8,0.5,1,0.8c0.3,0.4,0.4,0.8,0.4,1.2
		c0,0.7-0.2,1.3-0.8,1.8c-0.5,0.4-1.1,0.7-2,0.7c-0.8,0-1.5-0.2-2-0.7c-0.5-0.4-0.7-1-0.7-1.8c0-0.5,0.1-0.9,0.4-1.2
		c0.2-0.4,0.6-0.7,1-0.8c-0.4-0.2-0.7-0.4-0.9-0.8c-0.2-0.3-0.3-0.7-0.3-1.1c0-0.7,0.2-1.3,0.7-1.7c0.5-0.4,1.1-0.6,1.8-0.6
		c0.8,0,1.4,0.2,1.8,0.6C613.9,541,614.2,541.7,614.2,542.3z M613.3,546.3c0-0.5-0.2-0.9-0.5-1.2c-0.3-0.3-0.7-0.5-1.2-0.5
		s-0.9,0.2-1.2,0.5s-0.4,0.7-0.4,1.2s0.1,0.9,0.4,1.1c0.3,0.3,0.7,0.4,1.2,0.4s0.9-0.1,1.2-0.4S613.3,546.8,613.3,546.3z
		 M611.7,540.8c-0.4,0-0.8,0.1-1,0.4c-0.3,0.3-0.4,0.6-0.4,1.1c0,0.4,0.1,0.8,0.4,1c0.3,0.3,0.6,0.4,1,0.4s0.8-0.1,1-0.4
		c0.3-0.3,0.4-0.6,0.4-1c0-0.4-0.1-0.8-0.4-1.1C612.4,541,612.1,540.8,611.7,540.8z M617.1,542.3v0.7c0.5-0.5,1.1-0.8,1.9-0.8
		c0.9,0,1.5,0.3,1.8,1c0.2-0.3,0.5-0.5,0.8-0.7s0.7-0.3,1.2-0.3c1.4,0,2.1,0.7,2.1,2.2v4.2h-1.1v-4.2c0-0.4-0.1-0.8-0.3-1
		s-0.6-0.3-1-0.3s-0.7,0.1-1,0.4c-0.3,0.2-0.4,0.6-0.5,1v4.2h-1v-4.2c0-0.9-0.5-1.4-1.4-1.4c-0.7,0-1.2,0.3-1.5,0.9v4.6H616v-6.3
		L617.1,542.3L617.1,542.3z M630.8,547c0-0.3-0.1-0.5-0.3-0.7s-0.6-0.3-1.2-0.4c-0.5-0.1-1-0.3-1.3-0.4c-0.3-0.2-0.6-0.4-0.7-0.6
		c-0.1-0.2-0.2-0.5-0.2-0.8c0-0.5,0.2-1,0.7-1.3c0.4-0.4,1-0.5,1.7-0.5s1.3,0.2,1.7,0.6c0.4,0.4,0.7,0.8,0.7,1.4h-1.1
		c0-0.3-0.1-0.5-0.4-0.8c-0.2-0.2-0.6-0.3-0.9-0.3c-0.4,0-0.7,0.1-0.9,0.3c-0.2,0.2-0.3,0.4-0.3,0.7s0.1,0.5,0.3,0.6
		c0.2,0.1,0.6,0.3,1.1,0.4c0.5,0.1,1,0.3,1.3,0.4c0.3,0.2,0.6,0.4,0.7,0.6c0.2,0.2,0.2,0.5,0.2,0.9c0,0.6-0.2,1-0.7,1.4
		c-0.4,0.3-1,0.5-1.8,0.5c-0.5,0-1-0.1-1.4-0.3s-0.7-0.4-0.9-0.8c-0.2-0.3-0.3-0.7-0.3-1h1.1c0,0.4,0.2,0.7,0.4,0.9
		c0.3,0.2,0.6,0.3,1.1,0.3c0.4,0,0.7-0.1,1-0.2C630.7,547.5,630.8,547.2,630.8,547z M637.3,548.7h-1.1v-9h1.1V548.7z M643,548.7
		c-0.1-0.1-0.1-0.3-0.2-0.7c-0.5,0.5-1.1,0.8-1.8,0.8c-0.6,0-1.1-0.2-1.5-0.5c-0.4-0.4-0.6-0.8-0.6-1.4c0-0.7,0.2-1.2,0.8-1.5
		c0.5-0.4,1.2-0.5,2.1-0.5h1v-0.5c0-0.4-0.1-0.7-0.3-0.9c-0.2-0.2-0.6-0.3-1-0.3s-0.7,0.1-1,0.3s-0.4,0.4-0.4,0.7H639
		c0-0.3,0.1-0.6,0.3-0.9s0.5-0.5,0.9-0.7s0.8-0.3,1.3-0.3c0.7,0,1.3,0.2,1.7,0.5c0.4,0.4,0.6,0.9,0.7,1.5v2.9c0,0.6,0.1,1,0.2,1.4
		v0.1H643z M641.2,547.8c0.3,0,0.7-0.1,1-0.3s0.5-0.4,0.7-0.7v-1.3H642c-1.3,0-2,0.4-2,1.2c0,0.3,0.1,0.6,0.3,0.8
		C640.6,547.8,640.9,547.8,641.2,547.8z M647.6,540.8v1.5h1.2v0.8h-1.2v3.9c0,0.3,0.1,0.5,0.2,0.6c0.1,0.1,0.3,0.2,0.5,0.2
		c0.1,0,0.3,0,0.5-0.1v0.9c-0.3,0.1-0.6,0.1-0.8,0.1c-0.5,0-0.8-0.1-1.1-0.4c-0.2-0.3-0.4-0.7-0.4-1.3V543h-1.2v-0.8h1.2v-1.5H647.6
		L647.6,540.8z M652.7,548.8c-0.9,0-1.6-0.3-2.1-0.8c-0.5-0.6-0.8-1.3-0.8-2.3v-0.2c0-0.6,0.1-1.2,0.4-1.7c0.2-0.5,0.6-0.9,1-1.2
		s0.9-0.4,1.4-0.4c0.8,0,1.5,0.3,1.9,0.8c0.5,0.5,0.7,1.3,0.7,2.3v0.5h-4.3c0,0.6,0.2,1.1,0.5,1.5c0.4,0.4,0.8,0.6,1.3,0.6
		c0.4,0,0.7-0.1,1-0.2c0.3-0.2,0.5-0.4,0.7-0.6l0.7,0.5C654.6,548.3,653.8,548.8,652.7,548.8z M652.6,543c-0.4,0-0.8,0.2-1.1,0.5
		s-0.5,0.8-0.5,1.3h3.2v-0.1c0-0.6-0.2-1-0.5-1.3C653.4,543.2,653.1,543,652.6,543z M657.1,542.3v0.8c0.5-0.6,1.1-0.9,1.9-0.9
		c1.3,0,2,0.8,2,2.3v4.2h-1v-4.2c0-0.4-0.1-0.8-0.3-1s-0.5-0.3-1-0.3c-0.4,0-0.7,0.1-0.9,0.3c-0.3,0.2-0.5,0.4-0.6,0.7v4.5h-1.1
		v-6.3h1L657.1,542.3L657.1,542.3z M665.6,547.8c0.4,0,0.7-0.1,1-0.3s0.5-0.5,0.5-0.9h1c0,0.4-0.2,0.7-0.4,1s-0.5,0.6-0.9,0.8
		s-0.8,0.3-1.2,0.3c-0.9,0-1.6-0.3-2.1-0.9c-0.5-0.6-0.8-1.4-0.8-2.4v-0.2c0-0.6,0.1-1.2,0.3-1.6c0.2-0.5,0.6-0.8,1-1.1
		s0.9-0.4,1.5-0.4c0.7,0,1.3,0.2,1.8,0.6c0.5,0.4,0.7,1,0.8,1.7h-1c0-0.4-0.2-0.8-0.5-1c-0.3-0.3-0.6-0.4-1-0.4
		c-0.6,0-1,0.2-1.3,0.6c-0.3,0.4-0.5,1-0.5,1.7v0.2c0,0.7,0.2,1.3,0.5,1.7C664.7,547.7,665.1,547.8,665.6,547.8z M671.2,547l1.5-4.8
		h1.2l-2.5,7.3c-0.4,1.1-1,1.6-1.9,1.6h-0.2l-0.4-0.1v-0.9h0.3c0.4,0,0.7-0.1,0.9-0.2c0.2-0.1,0.4-0.4,0.5-0.8l0.2-0.7l-2.3-6.3h1.2
		L671.2,547z M677.6,545.2c0,0.9-0.1,1.7-0.3,2.5s-0.6,1.5-1.1,2.2s-1,1.2-1.5,1.4l-0.2-0.7c0.6-0.5,1.1-1.2,1.5-2.1
		c0.4-1,0.6-2.1,0.6-3.2v-0.2c0-0.8-0.1-1.6-0.3-2.3c-0.2-0.7-0.4-1.3-0.7-1.9c-0.3-0.6-0.6-1-1-1.3l0.2-0.7c0.5,0.3,1,0.8,1.5,1.4
		c0.5,0.7,0.8,1.4,1,2.2C677.5,543.5,677.6,544.3,677.6,545.2z"/>
	<path class="st21" d="M337.5,122.2c0,0.8-0.1,1.6-0.4,2.2c-0.3,0.6-0.7,1.1-1.2,1.4c-0.5,0.3-1.1,0.5-1.8,0.5
		c-0.7,0-1.3-0.2-1.8-0.5c-0.5-0.3-0.9-0.8-1.2-1.4c-0.3-0.6-0.4-1.3-0.4-2.1v-0.6c0-0.8,0.1-1.5,0.4-2.2c0.3-0.6,0.7-1.1,1.2-1.4
		s1.1-0.5,1.8-0.5c0.7,0,1.3,0.2,1.8,0.5s0.9,0.8,1.2,1.4c0.3,0.6,0.4,1.4,0.4,2.2V122.2z M336.4,121.8c0-1-0.2-1.8-0.6-2.3
		s-1-0.8-1.7-0.8s-1.3,0.3-1.7,0.8c-0.4,0.5-0.6,1.3-0.6,2.2v0.6c0,1,0.2,1.8,0.6,2.3c0.4,0.6,1,0.8,1.7,0.8s1.3-0.3,1.7-0.8
		c0.4-0.5,0.6-1.3,0.6-2.3V121.8z M344.2,123.2c0,1-0.2,1.7-0.7,2.3c-0.5,0.6-1,0.9-1.8,0.9s-1.4-0.2-1.8-0.7v3h-1.1v-8.7h1v0.7
		c0.4-0.5,1.1-0.8,1.8-0.8c0.8,0,1.4,0.3,1.8,0.9c0.4,0.6,0.7,1.4,0.7,2.4l0,0H344.2z M343.1,123.1c0-0.7-0.2-1.3-0.5-1.7
		s-0.7-0.6-1.2-0.6c-0.7,0-1.1,0.3-1.5,0.9v3c0.3,0.6,0.8,0.9,1.5,0.9c0.5,0,0.9-0.2,1.2-0.6C342.9,124.4,343.1,123.9,343.1,123.1z
		 M348.5,126.4c-0.9,0-1.6-0.3-2.1-0.8c-0.5-0.6-0.8-1.3-0.8-2.3v-0.2c0-0.6,0.1-1.2,0.4-1.7c0.2-0.5,0.6-0.9,1-1.2
		c0.4-0.3,0.9-0.4,1.4-0.4c0.8,0,1.5,0.3,1.9,0.8c0.5,0.5,0.7,1.3,0.7,2.3v0.5h-4.3c0,0.6,0.2,1.1,0.5,1.5c0.4,0.4,0.8,0.6,1.3,0.6
		c0.4,0,0.7-0.1,1-0.2c0.3-0.2,0.5-0.4,0.7-0.6l0.7,0.5C350.3,125.9,349.5,126.4,348.5,126.4z M348.3,120.7c-0.4,0-0.8,0.2-1.1,0.5
		c-0.3,0.3-0.5,0.8-0.5,1.3h3.2v-0.1c0-0.6-0.2-1-0.5-1.3C349.1,120.8,348.8,120.7,348.3,120.7z M354.9,120.8c-0.2,0-0.3,0-0.5,0
		c-0.7,0-1.2,0.3-1.5,0.9v4.5h-1.1v-6.3h1v0.7c0.4-0.6,0.9-0.8,1.5-0.8c0.2,0,0.4,0,0.5,0.1v0.9
		C354.8,120.9,354.9,120.9,354.9,120.8z M359.7,126.2c-0.1-0.1-0.1-0.3-0.2-0.7c-0.5,0.5-1.1,0.8-1.8,0.8c-0.6,0-1.1-0.2-1.5-0.5
		c-0.4-0.4-0.6-0.8-0.6-1.4c0-0.7,0.2-1.2,0.8-1.5c0.5-0.4,1.2-0.5,2.1-0.5h1v-0.5c0-0.4-0.1-0.7-0.3-0.9c-0.2-0.2-0.6-0.3-1-0.3
		s-0.7,0.1-1,0.3s-0.4,0.4-0.4,0.7h-1.1c0-0.3,0.1-0.6,0.3-0.9c0.2-0.3,0.5-0.5,0.9-0.7s0.8-0.3,1.3-0.3c0.7,0,1.3,0.2,1.7,0.5
		c0.4,0.4,0.6,0.9,0.7,1.5v2.9c0,0.6,0.1,1,0.2,1.4v0.1C360.8,126.2,359.7,126.2,359.7,126.2z M357.9,125.4c0.3,0,0.7-0.1,1-0.3
		s0.5-0.4,0.7-0.7v-1.3h-0.8c-1.3,0-2,0.4-2,1.2c0,0.3,0.1,0.6,0.3,0.8S357.6,125.4,357.9,125.4z M364.3,118.3v1.6h1.2v0.8h-1.2v3.9
		c0,0.3,0.1,0.5,0.2,0.6s0.3,0.2,0.5,0.2c0.1,0,0.3,0,0.5-0.1v0.9c-0.3,0.1-0.6,0.1-0.8,0.1c-0.5,0-0.8-0.1-1.1-0.4
		c-0.2-0.3-0.4-0.7-0.4-1.3v-3.9H362v-0.8h1.2v-1.5L364.3,118.3L364.3,118.3L364.3,118.3z M368,126.2h-1.1v-6.3h1.1V126.2z
		 M366.8,118.2c0-0.2,0.1-0.3,0.2-0.5c0.1-0.1,0.3-0.2,0.5-0.2s0.4,0.1,0.5,0.2s0.2,0.3,0.2,0.5s-0.1,0.3-0.2,0.4s-0.3,0.2-0.5,0.2
		s-0.4-0.1-0.5-0.2S366.8,118.4,366.8,118.2z M369.5,123.1c0-0.6,0.1-1.2,0.4-1.7c0.2-0.5,0.6-0.9,1-1.1c0.4-0.3,0.9-0.4,1.5-0.4
		c0.9,0,1.6,0.3,2.1,0.9c0.5,0.6,0.8,1.4,0.8,2.4v0.1c0,0.6-0.1,1.2-0.4,1.7c-0.2,0.5-0.6,0.9-1,1.2c-0.4,0.3-0.9,0.4-1.5,0.4
		c-0.9,0-1.6-0.3-2.1-0.9C369.8,124.9,369.5,124.1,369.5,123.1L369.5,123.1z M370.6,123.2c0,0.7,0.2,1.3,0.5,1.7
		c0.3,0.4,0.8,0.6,1.3,0.6c0.6,0,1-0.2,1.3-0.6c0.3-0.4,0.5-1,0.5-1.8c0-0.7-0.2-1.2-0.5-1.7c-0.3-0.4-0.8-0.7-1.3-0.7
		s-1,0.2-1.3,0.6C370.8,121.8,370.6,122.4,370.6,123.2z M377.8,119.9v0.8c0.5-0.6,1.1-0.9,1.9-0.9c1.3,0,2,0.8,2,2.3v4.2h-1.1v-4.2
		c0-0.4-0.1-0.8-0.3-1c-0.2-0.2-0.5-0.3-1-0.3c-0.4,0-0.7,0.1-0.9,0.3c-0.3,0.2-0.5,0.4-0.6,0.7v4.5h-1.1v-6.4H377.8z M387.5,124.6
		c0-0.3-0.1-0.5-0.3-0.7c-0.2-0.2-0.6-0.3-1.2-0.4c-0.5-0.1-1-0.3-1.3-0.4c-0.3-0.2-0.6-0.4-0.7-0.6s-0.2-0.5-0.2-0.8
		c0-0.5,0.2-1,0.7-1.3c0.4-0.4,1-0.5,1.7-0.5s1.3,0.2,1.7,0.6c0.4,0.4,0.7,0.8,0.7,1.4h-1.1c0-0.3-0.1-0.5-0.4-0.8
		c-0.2-0.2-0.6-0.3-0.9-0.3c-0.4,0-0.7,0.1-0.9,0.3c-0.2,0.2-0.3,0.4-0.3,0.7s0.1,0.5,0.3,0.6c0.2,0.1,0.6,0.3,1.1,0.4
		c0.5,0.1,1,0.3,1.3,0.4c0.3,0.2,0.6,0.4,0.7,0.6c0.2,0.2,0.2,0.5,0.2,0.9c0,0.6-0.2,1-0.7,1.4c-0.4,0.3-1,0.5-1.8,0.5
		c-0.5,0-1-0.1-1.4-0.3c-0.4-0.2-0.7-0.4-0.9-0.8c-0.2-0.3-0.3-0.7-0.3-1h1.1c0,0.4,0.2,0.7,0.4,0.9c0.3,0.2,0.6,0.3,1.1,0.3
		c0.4,0,0.7-0.1,1-0.2C387.4,125.1,387.5,124.9,387.5,124.6z M394.1,122.9v3.3H393v-8.5h3.2c0.9,0,1.7,0.2,2.2,0.7s0.8,1.1,0.8,1.9
		c0,0.8-0.3,1.5-0.8,1.9s-1.2,0.7-2.2,0.7H394.1z M394.1,121.9h2c0.6,0,1.1-0.1,1.4-0.4c0.3-0.3,0.5-0.7,0.5-1.2s-0.2-0.9-0.5-1.2
		c-0.3-0.3-0.8-0.5-1.3-0.5h-2.1V121.9z M403.5,126.4c-0.9,0-1.6-0.3-2.1-0.8c-0.5-0.6-0.8-1.3-0.8-2.3v-0.2c0-0.6,0.1-1.2,0.4-1.7
		c0.2-0.5,0.6-0.9,1-1.2c0.4-0.3,0.9-0.4,1.4-0.4c0.8,0,1.5,0.3,1.9,0.8c0.5,0.5,0.7,1.3,0.7,2.3v0.5h-4.3c0,0.6,0.2,1.1,0.5,1.5
		c0.4,0.4,0.8,0.6,1.3,0.6c0.4,0,0.7-0.1,1-0.2c0.3-0.2,0.5-0.4,0.7-0.6l0.7,0.5C405.3,125.9,404.5,126.4,403.5,126.4z M403.3,120.7
		c-0.4,0-0.8,0.2-1.1,0.5c-0.3,0.3-0.5,0.8-0.5,1.3h3.2v-0.1c0-0.6-0.2-1-0.5-1.3C404.1,120.8,403.8,120.7,403.3,120.7z
		 M409.9,120.8c-0.2,0-0.3,0-0.5,0c-0.7,0-1.2,0.3-1.5,0.9v4.5h-1.1v-6.3h1v0.7c0.4-0.6,0.9-0.8,1.5-0.8c0.2,0,0.4,0,0.5,0.1v0.9
		C409.8,120.9,409.9,120.9,409.9,120.8z M416.5,122.4c-1-0.3-1.7-0.6-2.1-1c-0.4-0.4-0.7-0.9-0.7-1.5c0-0.7,0.3-1.2,0.8-1.7
		c0.5-0.4,1.2-0.7,2.1-0.7c0.6,0,1.1,0.1,1.6,0.3c0.5,0.2,0.8,0.5,1.1,0.9c0.3,0.4,0.4,0.8,0.4,1.3h-1.1c0-0.5-0.2-0.9-0.5-1.2
		c-0.3-0.3-0.8-0.4-1.4-0.4s-1,0.1-1.3,0.4c-0.3,0.2-0.5,0.6-0.5,1s0.1,0.7,0.4,0.9c0.3,0.2,0.8,0.5,1.5,0.7s1.3,0.4,1.7,0.7
		c0.4,0.2,0.7,0.5,0.9,0.8c0.2,0.3,0.3,0.7,0.3,1.1c0,0.7-0.3,1.3-0.8,1.7c-0.5,0.4-1.3,0.6-2.2,0.6c-0.6,0-1.1-0.1-1.7-0.3
		c-0.5-0.2-0.9-0.5-1.2-0.9c-0.3-0.4-0.4-0.8-0.4-1.3h1.1c0,0.5,0.2,0.9,0.6,1.2s0.9,0.5,1.5,0.5s1-0.1,1.4-0.4
		c0.3-0.2,0.5-0.6,0.5-1s-0.1-0.7-0.4-1C417.8,122.9,417.3,122.7,416.5,122.4z M423.5,126.4c-0.9,0-1.6-0.3-2.1-0.8
		c-0.5-0.6-0.8-1.3-0.8-2.3v-0.2c0-0.6,0.1-1.2,0.4-1.7c0.2-0.5,0.6-0.9,1-1.2c0.4-0.3,0.9-0.4,1.4-0.4c0.8,0,1.5,0.3,1.9,0.8
		c0.5,0.5,0.7,1.3,0.7,2.3v0.5h-4.3c0,0.6,0.2,1.1,0.5,1.5c0.4,0.4,0.8,0.6,1.3,0.6c0.4,0,0.7-0.1,1-0.2c0.3-0.2,0.5-0.4,0.7-0.6
		l0.7,0.5C425.3,125.9,424.5,126.4,423.5,126.4z M423.3,120.7c-0.4,0-0.8,0.2-1.1,0.5c-0.3,0.3-0.5,0.8-0.5,1.3h3.2v-0.1
		c0-0.6-0.2-1-0.5-1.3C424.1,120.8,423.8,120.7,423.3,120.7z M429.4,125.4c0.4,0,0.7-0.1,1-0.3s0.5-0.5,0.5-0.9h1
		c0,0.4-0.2,0.7-0.4,1c-0.2,0.3-0.5,0.6-0.9,0.8c-0.4,0.2-0.8,0.3-1.2,0.3c-0.9,0-1.6-0.3-2.1-0.9c-0.5-0.6-0.8-1.4-0.8-2.4v-0.1
		c0-0.6,0.1-1.2,0.3-1.6c0.2-0.5,0.6-0.8,1-1.1s0.9-0.4,1.5-0.4c0.7,0,1.3,0.2,1.8,0.6c0.5,0.4,0.7,1,0.8,1.7h-1
		c0-0.4-0.2-0.8-0.5-1c-0.3-0.3-0.6-0.4-1-0.4c-0.6,0-1,0.2-1.3,0.6c-0.3,0.4-0.5,1-0.5,1.7v0.2c0,0.7,0.2,1.3,0.5,1.7
		C428.4,125.2,428.8,125.4,429.4,125.4z M432.5,123.1c0-0.6,0.1-1.2,0.4-1.7c0.2-0.5,0.6-0.9,1-1.1c0.4-0.3,0.9-0.4,1.5-0.4
		c0.9,0,1.6,0.3,2.1,0.9c0.5,0.6,0.8,1.4,0.8,2.4v0.1c0,0.6-0.1,1.2-0.4,1.7c-0.2,0.5-0.6,0.9-1,1.2c-0.4,0.3-0.9,0.4-1.5,0.4
		c-0.9,0-1.6-0.3-2.1-0.9C432.8,124.9,432.5,124.1,432.5,123.1L432.5,123.1z M433.6,123.2c0,0.7,0.2,1.3,0.5,1.7
		c0.3,0.4,0.8,0.6,1.3,0.6c0.6,0,1-0.2,1.3-0.6c0.3-0.4,0.5-1,0.5-1.8c0-0.7-0.2-1.2-0.5-1.7c-0.3-0.4-0.8-0.7-1.3-0.7
		s-1,0.2-1.3,0.6C433.8,121.8,433.6,122.4,433.6,123.2z M440.8,119.9v0.8c0.5-0.6,1.1-0.9,1.9-0.9c1.3,0,2,0.8,2,2.3v4.2h-1.1v-4.2
		c0-0.4-0.1-0.8-0.3-1c-0.2-0.2-0.5-0.3-1-0.3c-0.4,0-0.7,0.1-0.9,0.3c-0.3,0.2-0.5,0.4-0.6,0.7v4.5h-1.1v-6.4H440.8z M446.6,123.1
		c0-1,0.2-1.8,0.7-2.3c0.5-0.6,1.1-0.9,1.8-0.9c0.7,0,1.3,0.2,1.8,0.8v-3.3h1.1v9h-1v-0.7c-0.4,0.5-1,0.8-1.8,0.8
		c-0.7,0-1.3-0.3-1.8-0.9C446.8,124.9,446.6,124.1,446.6,123.1L446.6,123.1z M447.6,123.2c0,0.7,0.1,1.3,0.4,1.7
		c0.3,0.4,0.7,0.6,1.2,0.6c0.7,0,1.2-0.3,1.5-0.9v-2.9c-0.3-0.6-0.8-0.9-1.5-0.9c-0.5,0-0.9,0.2-1.2,0.6
		C447.8,121.8,447.6,122.4,447.6,123.2z"/>
</g>
</svg>
