<?xml version="1.0" encoding="utf-8"?>
<!-- Generator: Adobe Illustrator 23.0.6, SVG Export Plug-In . SVG Version: 6.00 Build 0)  -->
<svg version="1.1" id="Layer_1" xmlns="http://www.w3.org/2000/svg" xmlns:xlink="http://www.w3.org/1999/xlink" x="0px" y="0px"
	 viewBox="0 0 784 578" style="enable-background:new 0 0 784 578;" xml:space="preserve">
<style type="text/css">
	.st0{fill:#FFFFFF;stroke:#DAE1E5;stroke-miterlimit:10;}
	.st1{enable-background:new    ;}
	.st2{fill:#FF6E42;}
	.st3{fill:none;stroke:#CCCCCC;stroke-miterlimit:10;}
	.st4{fill:none;stroke:#333333;stroke-miterlimit:10;}
	.st5{fill:#DAE1E5;}
	.st6{clip-path:url(#SVGID_2_);fill:#FF7D55;}
	.st7{clip-path:url(#SVGID_4_);fill:#FFB7A1;}
	.st8{clip-path:url(#SVGID_6_);fill:none;}
	.st9{clip-path:url(#SVGID_8_);fill:#FF9A7B;}
	.st10{clip-path:url(#SVGID_10_);fill:#CC5835;}
	.st11{clip-path:url(#SVGID_12_);fill:#FF8B68;}
	.st12{clip-path:url(#SVGID_14_);fill:none;}
	.st13{clip-path:url(#SVGID_16_);fill:#FF6E42;}
	.st14{clip-path:url(#SVGID_18_);fill:#282151;}
	.st15{clip-path:url(#SVGID_20_);fill:#5B5484;}
	.st16{clip-path:url(#SVGID_22_);fill:none;}
	.st17{clip-path:url(#SVGID_24_);fill:#322965;}
	.st18{fill:none;stroke:#F75821;stroke-width:3;stroke-linecap:round;stroke-linejoin:round;stroke-miterlimit:10;}
	.st19{fill:#FFFFFF;}
	.st20{fill:none;stroke:#202951;stroke-width:3;stroke-linecap:round;stroke-linejoin:round;stroke-miterlimit:10;}
	.st21{fill:#322965;}
</style>
<g>
	<g>
		<path class="st0" d="M767,576H17c-8.3,0-15-6.7-15-15V17C2,8.8,8.7,2,17,2h750c8.3,0,15,6.7,15,15V561
			C782,569.2,775.3,576,767,576z"/>
		<g class="st1">
			<path class="st2" d="M131.4,67.1c-1.3-1.2-1.9-3-1.9-5.4V51c0-0.2,0.1-0.3,0.2-0.5c0.1-0.1,0.3-0.2,0.5-0.2h2.4
				c0.2,0,0.3,0.1,0.5,0.2s0.2,0.3,0.2,0.5v10.6c0,1.4,0.3,2.4,1,3.1s1.6,1,2.8,1s2.1-0.3,2.8-1s1-1.7,1-3.1V51
				c0-0.2,0.1-0.3,0.2-0.5c0.1-0.1,0.3-0.2,0.5-0.2h2.4c0.2,0,0.3,0.1,0.5,0.2c0.1,0.1,0.2,0.3,0.2,0.5v10.6c0,2.4-0.6,4.2-1.9,5.4
				c-1.3,1.2-3.1,1.8-5.4,1.8C134.5,68.9,132.7,68.2,131.4,67.1z"/>
			<path class="st2" d="M148,73.4c-0.1-0.1-0.2-0.3-0.2-0.5V55.8c0-0.2,0.1-0.3,0.2-0.5c0.1-0.1,0.3-0.2,0.4-0.2h2.1
				c0.2,0,0.3,0.1,0.5,0.2c0.1,0.1,0.2,0.3,0.2,0.4v1c0.9-1.3,2.3-1.9,4.1-1.9s3.1,0.6,4,1.7s1.4,2.6,1.5,4.4c0,0.2,0,0.5,0,0.9
				s0,0.7,0,0.9c-0.1,1.8-0.5,3.3-1.5,4.4c-0.9,1.1-2.3,1.7-4,1.7s-3.1-0.6-4-1.8v6c0,0.2-0.1,0.3-0.2,0.5c-0.1,0.1-0.3,0.2-0.5,0.2
				h-2.3C148.3,73.6,148.1,73.4,148,73.4z M157.3,62.6c0-0.2,0-0.4,0-0.8s0-0.6,0-0.8c-0.1-2.3-1.1-3.4-3-3.4c-1,0-1.7,0.3-2.2,1
				c-0.5,0.6-0.7,1.4-0.8,2.3c0,0.2,0,0.5,0,1s0,0.8,0,1c0,0.9,0.3,1.6,0.8,2.2c0.5,0.6,1.2,0.9,2.2,0.9
				C156.2,66.1,157.2,64.9,157.3,62.6z"/>
			<path class="st2" d="M171.8,67.4c-0.8-0.8-1.2-2-1.2-3.6v-5.9h-2.1c-0.2,0-0.3-0.1-0.4-0.2c-0.1-0.1-0.2-0.3-0.2-0.4v-1.5
				c0-0.2,0.1-0.3,0.2-0.4c0.1-0.1,0.3-0.2,0.4-0.2h2.1v-4.3c0-0.2,0.1-0.3,0.2-0.5c0.1-0.1,0.3-0.2,0.4-0.2h2.2
				c0.2,0,0.3,0.1,0.5,0.2c0.1,0.1,0.2,0.3,0.2,0.5v4.3h3.2c0.2,0,0.3,0.1,0.4,0.2c0.1,0.1,0.2,0.3,0.2,0.4v1.5
				c0,0.2-0.1,0.3-0.2,0.4c-0.1,0.1-0.3,0.2-0.4,0.2H174v5.6c0,0.7,0.1,1.3,0.4,1.7c0.3,0.4,0.7,0.6,1.3,0.6h1.8
				c0.2,0,0.3,0.1,0.5,0.2c0.1,0.1,0.2,0.3,0.2,0.5v1.5c0,0.2-0.1,0.3-0.2,0.4c-0.1,0.1-0.3,0.2-0.5,0.2h-2.1
				C173.7,68.6,172.6,68.1,171.8,67.4z"/>
			<path class="st2" d="M181.7,67.4c-1.1-1-1.7-2.5-1.8-4.3V62v-1.1c0.1-1.8,0.7-3.3,1.8-4.3s2.7-1.6,4.7-1.6s3.6,0.5,4.7,1.6
				c1.1,1,1.7,2.5,1.8,4.3c0,0.2,0,0.6,0,1.1s0,0.9,0,1.1c-0.1,1.8-0.7,3.3-1.8,4.3s-2.7,1.6-4.7,1.6
				C184.3,68.9,182.8,68.4,181.7,67.4z M188.5,65.4c0.5-0.6,0.8-1.4,0.8-2.5c0-0.2,0-0.5,0-1s0-0.8,0-1c0-1.1-0.3-2-0.8-2.5
				c-0.5-0.6-1.2-0.9-2.1-0.9c-0.9,0-1.6,0.3-2.1,0.9s-0.8,1.4-0.8,2.5v1v1c0,1.1,0.3,2,0.8,2.5c0.5,0.6,1.2,0.9,2.1,0.9
				S188,65.9,188.5,65.4z"/>
			<path class="st2" d="M201.4,68.4c-0.1-0.1-0.2-0.3-0.2-0.4v-1.4c0-0.5,0.2-0.9,0.6-1.2l4.1-4c1.2-1,2.2-1.8,2.8-2.4
				c0.7-0.6,1.2-1.2,1.5-1.7s0.5-1,0.5-1.5c0-0.8-0.2-1.5-0.7-1.9c-0.4-0.5-1.1-0.7-2-0.7s-1.5,0.3-2,0.8s-0.8,1.2-0.9,2
				c-0.1,0.2-0.2,0.4-0.3,0.5s-0.3,0.1-0.5,0.1H202c-0.2,0-0.3-0.1-0.4-0.2c-0.1-0.1-0.2-0.2-0.2-0.4c0-1,0.3-2,0.8-2.9
				s1.3-1.6,2.3-2.2c1-0.5,2.1-0.8,3.5-0.8s2.6,0.2,3.5,0.7s1.7,1.1,2.2,2s0.7,1.8,0.7,2.8c0,1.2-0.3,2.2-1,3.2c-0.7,0.9-1.7,2-3,3
				l-3.6,3.7h7.4c0.2,0,0.3,0.1,0.5,0.2c0.2,0.1,0.2,0.3,0.2,0.5v1.7c0,0.2-0.1,0.3-0.2,0.5c-0.1,0.1-0.3,0.2-0.5,0.2h-12.5
				C201.6,68.6,201.5,68.6,201.4,68.4z"/>
			<path class="st2" d="M217.9,68.4c-0.1-0.1-0.2-0.3-0.2-0.4v-2.6c0-0.2,0.1-0.3,0.2-0.4c0.1-0.1,0.3-0.2,0.4-0.2h2.6
				c0.2,0,0.3,0.1,0.4,0.2c0.1,0.1,0.2,0.3,0.2,0.4v2.5c0,0.2-0.1,0.3-0.2,0.4c-0.1,0.1-0.3,0.2-0.5,0.2h-2.6
				C218.1,68.6,218,68.6,217.9,68.4z"/>
			<path class="st2" d="M224.5,68.4c-0.1-0.1-0.2-0.3-0.2-0.4v-1.4c0-0.5,0.2-0.9,0.7-1.2l4.1-4c1.2-1,2.2-1.8,2.8-2.4
				c0.7-0.6,1.2-1.2,1.5-1.7s0.5-1,0.5-1.5c0-0.8-0.2-1.5-0.6-1.9c-0.4-0.5-1.1-0.7-2-0.7s-1.5,0.3-2,0.8s-0.8,1.2-0.9,2
				c-0.1,0.2-0.2,0.4-0.3,0.5s-0.3,0.1-0.5,0.1h-2.3c-0.2,0-0.3-0.1-0.4-0.2s-0.2-0.2-0.2-0.4c0-1,0.3-2,0.8-2.9s1.3-1.6,2.3-2.2
				s2.1-0.8,3.5-0.8s2.6,0.2,3.5,0.7c1,0.5,1.7,1.1,2.2,2s0.7,1.8,0.7,2.8c0,1.2-0.3,2.2-1,3.2s-1.7,2-3,3l-3.6,3.7h7.4
				c0.2,0,0.3,0.1,0.5,0.2c0.2,0.1,0.2,0.3,0.2,0.5v1.7c0,0.2-0.1,0.3-0.2,0.5c-0.1,0.1-0.3,0.2-0.5,0.2H225
				C224.8,68.6,224.6,68.6,224.5,68.4z"/>
			<path class="st2" d="M240,68.4c-0.1-0.1-0.2-0.2-0.2-0.4s0.1-0.3,0.2-0.4l4.4-5.9l-4.1-5.6c-0.1-0.1-0.2-0.3-0.2-0.4
				c0-0.2,0.1-0.3,0.2-0.4s0.2-0.2,0.4-0.2h2.3c0.2,0,0.3,0,0.4,0.1s0.2,0.2,0.3,0.3l2.9,3.9l2.9-3.9c0,0,0.1-0.1,0.2-0.2
				s0.3-0.2,0.5-0.2h2.2c0.2,0,0.3,0.1,0.4,0.2s0.2,0.2,0.2,0.4c0,0.2-0.1,0.3-0.2,0.5l-4.2,5.6l4.5,5.9c0.1,0.1,0.2,0.3,0.2,0.4
				c0,0.2-0.1,0.3-0.2,0.4c-0.1,0.1-0.2,0.2-0.4,0.2h-2.4c-0.3,0-0.5-0.1-0.7-0.4l-3.1-4.1l-3.1,4.1c-0.2,0.3-0.4,0.4-0.7,0.4h-2.3
				C240.2,68.6,240.1,68.6,240,68.4z"/>
			<path class="st2" d="M262.1,68.4c-0.1-0.1-0.2-0.3-0.2-0.4V51c0-0.2,0.1-0.3,0.2-0.5c0.1-0.1,0.3-0.2,0.5-0.2h2.1
				c0.3,0,0.6,0.2,0.8,0.5l5,9.3l5-9.3c0.2-0.3,0.5-0.5,0.8-0.5h2.1c0.2,0,0.3,0.1,0.5,0.2s0.2,0.3,0.2,0.5v16.9
				c0,0.2-0.1,0.3-0.2,0.5c-0.1,0.1-0.3,0.2-0.5,0.2h-2.2c-0.2,0-0.3-0.1-0.4-0.2c-0.1-0.1-0.2-0.3-0.2-0.4V56.9l-3.6,6.9
				c-0.2,0.4-0.5,0.6-0.9,0.6H270c-0.4,0-0.7-0.2-0.9-0.6l-3.6-6.9v11.1c0,0.2-0.1,0.3-0.2,0.4c-0.1,0.1-0.3,0.2-0.5,0.2h-2.2
				C262.3,68.6,262.2,68.6,262.1,68.4z"/>
			<path class="st2" d="M284,67.4c-1.1-1-1.7-2.5-1.8-4.3V62v-1.1c0.1-1.8,0.7-3.3,1.8-4.3c1.1-1,2.7-1.6,4.7-1.6s3.6,0.5,4.7,1.6
				c1.1,1,1.7,2.5,1.8,4.3c0,0.2,0,0.6,0,1.1s0,0.9,0,1.1c-0.1,1.8-0.7,3.3-1.8,4.3c-1.1,1-2.7,1.6-4.7,1.6
				C286.7,68.9,285.1,68.4,284,67.4z M290.8,65.4c0.5-0.6,0.8-1.4,0.8-2.5c0-0.2,0-0.5,0-1s0-0.8,0-1c0-1.1-0.3-2-0.8-2.5
				c-0.5-0.6-1.2-0.9-2.1-0.9s-1.6,0.3-2.1,0.9s-0.8,1.4-0.8,2.5v1v1c0,1.1,0.3,2,0.8,2.5c0.5,0.6,1.2,0.9,2.1,0.9
				C289.6,66.2,290.3,65.9,290.8,65.4z"/>
			<path class="st2" d="M298.3,68.4c-0.1-0.1-0.2-0.3-0.2-0.4V55.8c0-0.2,0.1-0.3,0.2-0.5s0.3-0.2,0.4-0.2h2.1
				c0.2,0,0.3,0.1,0.5,0.2s0.2,0.3,0.2,0.5v1.1c0.9-1.1,2.1-1.7,3.7-1.7h1.1c0.2,0,0.3,0.1,0.5,0.2c0.1,0.1,0.2,0.3,0.2,0.5v1.9
				c0,0.2-0.1,0.3-0.2,0.4s-0.3,0.2-0.5,0.2h-2.1c-0.8,0-1.5,0.2-1.9,0.7c-0.5,0.5-0.7,1.1-0.7,1.9v7c0,0.2-0.1,0.3-0.2,0.4
				c-0.1,0.1-0.3,0.2-0.4,0.2h-2.3C298.6,68.6,298.4,68.6,298.3,68.4z"/>
			<path class="st2" d="M310.1,67.2c-1.1-1.1-1.7-2.7-1.8-4.7v-0.7c0-2.2,0.6-3.9,1.7-5.1s2.7-1.9,4.7-1.9c2.1,0,3.7,0.6,4.8,1.9
				s1.7,2.9,1.7,5v0.5c0,0.2-0.1,0.3-0.2,0.4s-0.3,0.2-0.5,0.2h-8.6v0.2c0,1,0.3,1.8,0.8,2.4c0.5,0.6,1.2,0.9,2,0.9
				c1,0,1.8-0.4,2.4-1.2c0.2-0.2,0.3-0.3,0.4-0.4c0.1,0,0.2-0.1,0.4-0.1h2.3c0.2,0,0.3,0,0.4,0.1c0.1,0.1,0.2,0.2,0.2,0.4
				c0,0.4-0.2,0.9-0.7,1.5c-0.5,0.6-1.2,1.1-2.1,1.5c-0.9,0.4-2,0.6-3.2,0.6C312.7,68.9,311.2,68.4,310.1,67.2z M317.5,60.6
				L317.5,60.6c0-1.1-0.3-1.9-0.8-2.5s-1.2-0.9-2.1-0.9s-1.6,0.3-2.1,0.9s-0.8,1.4-0.8,2.5v0.1L317.5,60.6L317.5,60.6z"/>
			<path class="st2" d="M330.3,68.4c-0.1-0.1-0.2-0.3-0.2-0.4V51c0-0.2,0.1-0.3,0.2-0.5c0.1-0.1,0.3-0.2,0.5-0.2h6.7
				c2.1,0,3.8,0.5,5,1.5s1.8,2.4,1.8,4.2c0,1.3-0.3,2.3-0.9,3.2c-0.6,0.9-1.5,1.5-2.5,1.9l3.8,6.6c0.1,0.1,0.1,0.2,0.1,0.3
				c0,0.2-0.1,0.3-0.2,0.4c-0.1,0.1-0.2,0.2-0.4,0.2h-2.4c-0.3,0-0.5-0.1-0.6-0.2c-0.2-0.1-0.3-0.3-0.4-0.5l-3.3-6.2h-3.6v6.2
				c0,0.2-0.1,0.3-0.2,0.4c-0.1,0.1-0.3,0.2-0.5,0.2h-2.4C330.5,68.6,330.4,68.6,330.3,68.4z M337.4,58.8c1,0,1.8-0.2,2.3-0.7
				s0.8-1.1,0.8-2s-0.3-1.6-0.8-2c-0.5-0.5-1.3-0.7-2.3-0.7h-3.6v5.5h3.6V58.8z"/>
			<path class="st2" d="M348.4,67.2c-1.1-1.1-1.7-2.7-1.8-4.7v-0.7c0-2.2,0.6-3.9,1.7-5.1s2.7-1.9,4.7-1.9c2.1,0,3.7,0.6,4.8,1.9
				s1.7,2.9,1.7,5v0.5c0,0.2-0.1,0.3-0.2,0.4s-0.3,0.2-0.5,0.2h-8.6v0.2c0,1,0.3,1.8,0.8,2.4c0.5,0.6,1.2,0.9,2,0.9
				c1,0,1.8-0.4,2.4-1.2c0.2-0.2,0.3-0.3,0.4-0.4c0.1,0,0.2-0.1,0.4-0.1h2.3c0.2,0,0.3,0,0.4,0.1c0.1,0.1,0.2,0.2,0.2,0.4
				c0,0.4-0.2,0.9-0.7,1.5c-0.5,0.6-1.2,1.1-2.1,1.5c-0.9,0.4-2,0.6-3.2,0.6C351.1,68.9,349.5,68.4,348.4,67.2z M355.8,60.6
				L355.8,60.6c0-1.1-0.3-1.9-0.8-2.5s-1.2-0.9-2.1-0.9s-1.6,0.3-2.1,0.9s-0.8,1.4-0.8,2.5v0.1L355.8,60.6L355.8,60.6z"/>
			<path class="st2" d="M363.7,68.4c-0.7-0.4-1.3-0.8-1.7-1.4c-0.4-0.6-0.6-1.3-0.6-2c0-1.2,0.5-2.1,1.4-2.9c1-0.7,2.3-1.2,3.9-1.5
				l3.6-0.5v-0.5c0-0.7-0.2-1.3-0.6-1.7c-0.4-0.4-1-0.6-1.8-0.6c-0.6,0-1,0.1-1.4,0.3s-0.6,0.4-0.8,0.6c-0.2,0.2-0.4,0.4-0.4,0.4
				c-0.1,0.2-0.2,0.3-0.4,0.3h-2c-0.2,0-0.3-0.1-0.4-0.2s-0.2-0.2-0.2-0.4c0-0.4,0.2-0.9,0.6-1.5s1-1,1.9-1.4
				c0.8-0.4,1.9-0.6,3.1-0.6c2,0,3.5,0.5,4.5,1.4c0.9,0.9,1.4,2.1,1.4,3.6v8.2c0,0.2-0.1,0.3-0.2,0.4c-0.1,0.1-0.3,0.2-0.5,0.2h-2.2
				c-0.2,0-0.3-0.1-0.4-0.2c-0.1-0.1-0.2-0.3-0.2-0.4v-1c-0.4,0.6-0.9,1-1.6,1.4c-0.7,0.4-1.6,0.5-2.6,0.5
				C365.2,68.9,364.4,68.6,363.7,68.4z M369.3,65.4c0.6-0.6,0.9-1.5,0.9-2.7v-0.5l-2.6,0.4c-2,0.3-3,1-3,2c0,0.6,0.2,1,0.7,1.3
				s1,0.5,1.7,0.5C367.9,66.4,368.7,66.1,369.3,65.4z"/>
			<path class="st2" d="M378,67.1c-0.9-1.1-1.4-2.6-1.5-4.5v-0.9v-0.9c0.1-1.8,0.6-3.3,1.5-4.5c0.9-1.1,2.3-1.7,4-1.7s3,0.6,4,1.7
				v-5.8c0-0.2,0.1-0.3,0.2-0.5c0.1-0.1,0.3-0.2,0.4-0.2h2.3c0.2,0,0.3,0.1,0.5,0.2c0.1,0.1,0.2,0.3,0.2,0.5v17.4
				c0,0.2-0.1,0.3-0.2,0.4c-0.1,0.1-0.3,0.2-0.5,0.2h-2.1c-0.2,0-0.3-0.1-0.4-0.2c-0.1-0.1-0.2-0.3-0.2-0.4v-1
				c-1,1.2-2.3,1.8-4.1,1.8C380.3,68.9,379,68.4,378,67.1z M385.3,65.1c0.5-0.6,0.7-1.4,0.8-2.4c0-0.2,0-0.5,0-1s0-0.8,0-1
				c0-0.9-0.3-1.6-0.8-2.2s-1.2-0.9-2.2-0.9c-1.9,0-2.8,1.1-3,3.4v0.8v0.8c0.1,2.3,1.1,3.4,3,3.4C384,66.1,384.8,65.8,385.3,65.1z"
				/>
			<path class="st2" d="M394.9,68.2c-0.9-0.4-1.5-0.9-2-1.4c-0.4-0.5-0.6-1-0.6-1.4c0-0.2,0.1-0.3,0.2-0.4c0.1-0.1,0.2-0.2,0.4-0.2
				h2.1c0.1,0,0.3,0.1,0.4,0.2c0.1,0.1,0.3,0.2,0.6,0.5c0.3,0.3,0.6,0.5,1,0.6c0.4,0.1,0.8,0.2,1.3,0.2c0.7,0,1.3-0.1,1.7-0.4
				c0.4-0.3,0.7-0.7,0.7-1.2c0-0.3-0.1-0.6-0.3-0.8c-0.2-0.2-0.6-0.4-1.1-0.6s-1.3-0.4-2.3-0.6c-1.5-0.3-2.6-0.8-3.3-1.4
				s-1.1-1.5-1.1-2.5c0-0.7,0.2-1.3,0.6-2s1-1.1,1.9-1.5c0.8-0.4,1.8-0.6,3-0.6s2.2,0.2,3,0.6s1.5,0.8,1.9,1.3s0.7,1,0.7,1.4
				c0,0.2-0.1,0.3-0.2,0.4s-0.2,0.2-0.4,0.2h-2c-0.2,0-0.3-0.1-0.4-0.2s-0.3-0.2-0.6-0.5c-0.3-0.2-0.6-0.4-0.9-0.6s-0.7-0.2-1.2-0.2
				c-0.6,0-1.1,0.1-1.5,0.4s-0.5,0.6-0.5,1.1c0,0.3,0.1,0.6,0.2,0.8s0.5,0.4,1,0.6s1.3,0.4,2.3,0.6c3.1,0.6,4.7,2,4.7,4.1
				c0,1.2-0.5,2.2-1.6,3s-2.6,1.1-4.5,1.1C396.8,68.9,395.7,68.6,394.9,68.2z"/>
			<path class="st2" d="M412.9,52.6c-0.1-0.1-0.2-0.3-0.2-0.4v-1.9c0-0.2,0.1-0.3,0.2-0.5c0.1-0.1,0.3-0.2,0.4-0.2h2.4
				c0.2,0,0.3,0.1,0.5,0.2s0.2,0.3,0.2,0.5v1.9c0,0.2-0.1,0.3-0.2,0.4s-0.3,0.2-0.5,0.2h-2.4C413.1,52.9,413,52.9,412.9,52.6z
				 M413,68.4c-0.1-0.1-0.2-0.3-0.2-0.4V55.8c0-0.2,0.1-0.3,0.2-0.5c0.1-0.1,0.3-0.2,0.4-0.2h2.2c0.2,0,0.3,0.1,0.4,0.2
				s0.2,0.3,0.2,0.4v12.3c0,0.2-0.1,0.3-0.2,0.4c-0.1,0.1-0.3,0.2-0.4,0.2h-2.2C413.2,68.6,413.1,68.6,413,68.4z"/>
			<path class="st2" d="M419.9,68.4c-0.1-0.1-0.2-0.3-0.2-0.4V55.8c0-0.2,0.1-0.3,0.2-0.5c0.1-0.1,0.3-0.2,0.4-0.2h2.2
				c0.2,0,0.3,0.1,0.5,0.2c0.1,0.1,0.2,0.3,0.2,0.5v1.1c1.1-1.3,2.5-2,4.3-2c1.6,0,2.9,0.5,3.8,1.6c0.9,1,1.4,2.5,1.4,4.3v7.2
				c0,0.2-0.1,0.3-0.2,0.4c-0.1,0.1-0.3,0.2-0.5,0.2h-2.3c-0.2,0-0.3-0.1-0.4-0.2c-0.1-0.1-0.3-0.2-0.3-0.4v-7.2
				c0-1-0.2-1.8-0.7-2.4s-1.2-0.8-2.1-0.8s-1.6,0.3-2.1,0.9s-0.8,1.4-0.8,2.3v7.2c0,0.2-0.1,0.3-0.2,0.4c-0.1,0.1-0.3,0.2-0.5,0.2
				h-2.3C420.1,68.6,420,68.6,419.9,68.4z"/>
			<path class="st2" d="M443.4,68.4c-0.7-0.4-1.3-0.8-1.7-1.4c-0.4-0.6-0.6-1.3-0.6-2c0-1.2,0.5-2.1,1.4-2.9c1-0.7,2.3-1.2,3.9-1.5
				L450,60v-0.5c0-0.7-0.2-1.3-0.6-1.7c-0.4-0.4-1-0.6-1.8-0.6c-0.6,0-1,0.1-1.4,0.3s-0.6,0.4-0.8,0.6c-0.2,0.2-0.4,0.4-0.4,0.4
				c-0.1,0.2-0.2,0.3-0.4,0.3h-2c-0.2,0-0.3-0.1-0.4-0.2s-0.2-0.2-0.2-0.4c0-0.4,0.2-0.9,0.6-1.5s1-1,1.9-1.4
				c0.8-0.4,1.9-0.6,3.1-0.6c2,0,3.5,0.5,4.5,1.4c0.9,0.9,1.4,2.1,1.4,3.6v8.2c0,0.2-0.1,0.3-0.2,0.4c-0.1,0.1-0.3,0.2-0.5,0.2h-2.2
				c-0.2,0-0.3-0.1-0.4-0.2c-0.1-0.1-0.2-0.3-0.2-0.4v-1c-0.4,0.6-0.9,1-1.6,1.4c-0.7,0.4-1.6,0.5-2.6,0.5
				C444.9,68.9,444.1,68.6,443.4,68.4z M449,65.4c0.6-0.6,0.9-1.5,0.9-2.7v-0.5l-2.6,0.4c-2,0.3-3,1-3,2c0,0.6,0.2,1,0.7,1.3
				s1,0.5,1.7,0.5C447.6,66.4,448.4,66.1,449,65.4z"/>
			<path class="st2" d="M463.2,68.4c-0.1-0.1-0.2-0.3-0.2-0.4V51c0-0.2,0.1-0.3,0.2-0.5c0.1-0.1,0.3-0.2,0.5-0.2h2.1
				c0.3,0,0.6,0.2,0.8,0.5l5,9.3l5-9.3c0.2-0.3,0.5-0.5,0.8-0.5h2.1c0.2,0,0.3,0.1,0.5,0.2s0.2,0.3,0.2,0.5v16.9
				c0,0.2-0.1,0.3-0.2,0.5c-0.1,0.1-0.3,0.2-0.5,0.2h-2.2c-0.2,0-0.3-0.1-0.4-0.2c-0.1-0.1-0.2-0.3-0.2-0.4V56.9l-3.6,6.9
				c-0.2,0.4-0.5,0.6-0.9,0.6H471c-0.4,0-0.7-0.2-0.9-0.6l-3.6-6.9v11.1c0,0.2-0.1,0.3-0.2,0.4c-0.1,0.1-0.3,0.2-0.5,0.2h-2.2
				C463.4,68.6,463.3,68.6,463.2,68.4z"/>
			<path class="st2" d="M483.9,52.6c-0.1-0.1-0.2-0.3-0.2-0.4v-1.9c0-0.2,0.1-0.3,0.2-0.5c0.1-0.1,0.3-0.2,0.4-0.2h2.4
				c0.2,0,0.3,0.1,0.5,0.2s0.2,0.3,0.2,0.5v1.9c0,0.2-0.1,0.3-0.2,0.4s-0.3,0.2-0.5,0.2h-2.4C484.1,52.9,484,52.9,483.9,52.6z
				 M484,68.4c-0.1-0.1-0.2-0.3-0.2-0.4V55.8c0-0.2,0.1-0.3,0.2-0.5c0.1-0.1,0.3-0.2,0.4-0.2h2.2c0.2,0,0.3,0.1,0.4,0.2
				c0.1,0.1,0.2,0.3,0.2,0.4v12.3c0,0.2-0.1,0.3-0.2,0.4c-0.1,0.1-0.3,0.2-0.4,0.2h-2.2C484.2,68.6,484.1,68.6,484,68.4z"/>
			<path class="st2" d="M489.7,68.4c-0.1-0.1-0.2-0.2-0.2-0.4s0.1-0.3,0.2-0.4l4.4-5.9l-4.1-5.6c-0.1-0.1-0.2-0.3-0.2-0.4
				c0-0.2,0.1-0.3,0.2-0.4c0.1-0.1,0.2-0.2,0.4-0.2h2.3c0.2,0,0.3,0,0.4,0.1c0.1,0.1,0.2,0.2,0.3,0.3l2.9,3.9l2.9-3.9
				c0,0,0.1-0.1,0.2-0.2c0.1-0.1,0.3-0.2,0.5-0.2h2.2c0.2,0,0.3,0.1,0.4,0.2c0.1,0.1,0.2,0.2,0.2,0.4c0,0.2-0.1,0.3-0.2,0.5
				l-4.2,5.6l4.5,5.9c0.1,0.1,0.2,0.3,0.2,0.4c0,0.2-0.1,0.3-0.2,0.4c-0.1,0.1-0.2,0.2-0.4,0.2H500c-0.3,0-0.5-0.1-0.7-0.4l-3.1-4.1
				l-3.1,4.1c-0.2,0.3-0.4,0.4-0.7,0.4h-2.3C489.9,68.6,489.8,68.6,489.7,68.4z"/>
			<path class="st2" d="M506.2,67.2c-1.1-1.1-1.7-2.7-1.8-4.7v-0.7c0-2.2,0.6-3.9,1.7-5.1c1.1-1.2,2.7-1.9,4.7-1.9
				c2.1,0,3.7,0.6,4.8,1.9s1.7,2.9,1.7,5v0.5c0,0.2-0.1,0.3-0.2,0.4s-0.3,0.2-0.5,0.2H508v0.2c0,1,0.3,1.8,0.8,2.4
				c0.5,0.6,1.2,0.9,2,0.9c1,0,1.8-0.4,2.4-1.2c0.2-0.2,0.3-0.3,0.4-0.4c0.1,0,0.2-0.1,0.4-0.1h2.3c0.2,0,0.3,0,0.4,0.1
				c0.1,0.1,0.2,0.2,0.2,0.4c0,0.4-0.2,0.9-0.7,1.5c-0.5,0.6-1.2,1.1-2.1,1.5c-0.9,0.4-2,0.6-3.2,0.6
				C508.8,68.9,507.3,68.4,506.2,67.2z M513.6,60.6L513.6,60.6c0-1.1-0.3-1.9-0.8-2.5s-1.2-0.9-2.1-0.9c-0.9,0-1.6,0.3-2.1,0.9
				s-0.8,1.4-0.8,2.5v0.1L513.6,60.6L513.6,60.6z"/>
			<path class="st2" d="M520.9,67.1c-0.9-1.1-1.4-2.6-1.5-4.5v-0.9v-0.9c0.1-1.8,0.6-3.3,1.5-4.5c0.9-1.1,2.3-1.7,4-1.7s3,0.6,4,1.7
				v-5.8c0-0.2,0.1-0.3,0.2-0.5c0.1-0.1,0.3-0.2,0.4-0.2h2.3c0.2,0,0.3,0.1,0.5,0.2c0.1,0.1,0.2,0.3,0.2,0.5v17.4
				c0,0.2-0.1,0.3-0.2,0.4c-0.1,0.1-0.3,0.2-0.5,0.2h-2.1c-0.2,0-0.3-0.1-0.4-0.2c-0.1-0.1-0.2-0.3-0.2-0.4v-1
				c-1,1.2-2.3,1.8-4.1,1.8C523.2,68.9,521.9,68.4,520.9,67.1z M528.1,65.1c0.5-0.6,0.7-1.4,0.8-2.4c0-0.2,0-0.5,0-1s0-0.8,0-1
				c0-0.9-0.3-1.6-0.8-2.2s-1.2-0.9-2.2-0.9c-1.9,0-2.8,1.1-3,3.4v0.8v0.8c0.1,2.3,1.1,3.4,3,3.4C526.9,66.1,527.7,65.8,528.1,65.1z
				"/>
			<path class="st2" d="M543.9,67.9l-3.1-16.7V51c0-0.2,0.1-0.3,0.2-0.4c0.1-0.1,0.2-0.2,0.4-0.2h2.3c0.2,0,0.4,0,0.5,0.1
				s0.2,0.2,0.2,0.4l2.2,11.7l2.3-7.5c0.2-0.4,0.5-0.7,0.9-0.7h1.4c0.2,0,0.4,0.1,0.5,0.2s0.2,0.3,0.3,0.5l2.3,7.5l2.1-11.7
				c0.1-0.3,0.3-0.5,0.7-0.5h2.3c0.1,0,0.3,0.1,0.4,0.2c0.1,0.1,0.2,0.2,0.2,0.4c0,0.1,0,0.2,0,0.2l-3.1,16.7c0,0.2-0.1,0.4-0.3,0.6
				s-0.4,0.2-0.6,0.2h-1.8c-0.2,0-0.4-0.1-0.6-0.2c-0.2-0.1-0.3-0.3-0.3-0.5l-2.9-8.6l-2.9,8.6c-0.1,0.4-0.4,0.7-0.9,0.7h-1.8
				C544.3,68.6,544,68.4,543.9,67.9z"/>
			<path class="st2" d="M563.5,67.4c-1.1-1-1.7-2.5-1.8-4.3V62v-1.1c0.1-1.8,0.7-3.3,1.8-4.3s2.7-1.6,4.7-1.6s3.6,0.5,4.7,1.6
				c1.1,1,1.7,2.5,1.8,4.3c0,0.2,0,0.6,0,1.1s0,0.9,0,1.1c-0.1,1.8-0.7,3.3-1.8,4.3s-2.7,1.6-4.7,1.6
				C566.2,68.9,564.6,68.4,563.5,67.4z M570.3,65.4c0.5-0.6,0.8-1.4,0.8-2.5c0-0.2,0-0.5,0-1s0-0.8,0-1c0-1.1-0.3-2-0.8-2.5
				c-0.5-0.6-1.2-0.9-2.1-0.9c-0.9,0-1.6,0.3-2.1,0.9s-0.8,1.4-0.8,2.5v1v1c0,1.1,0.3,2,0.8,2.5c0.5,0.6,1.2,0.9,2.1,0.9
				S569.9,65.9,570.3,65.4z"/>
			<path class="st2" d="M577.8,68.4c-0.1-0.1-0.2-0.3-0.2-0.4V55.8c0-0.2,0.1-0.3,0.2-0.5s0.3-0.2,0.4-0.2h2.1
				c0.2,0,0.3,0.1,0.5,0.2s0.2,0.3,0.2,0.5v1.1c0.9-1.1,2.1-1.7,3.7-1.7h1.1c0.2,0,0.3,0.1,0.5,0.2c0.1,0.1,0.2,0.3,0.2,0.5v1.9
				c0,0.2-0.1,0.3-0.2,0.4c-0.1,0.1-0.3,0.2-0.5,0.2h-2.1c-0.8,0-1.5,0.2-1.9,0.7c-0.5,0.5-0.7,1.1-0.7,1.9v7c0,0.2-0.1,0.3-0.2,0.4
				c-0.1,0.1-0.3,0.2-0.4,0.2h-2.3C578.1,68.6,577.9,68.6,577.8,68.4z"/>
			<path class="st2" d="M588.7,68.4c-0.1-0.1-0.2-0.3-0.2-0.4V50.8c0-0.2,0.1-0.3,0.2-0.5c0.1-0.1,0.3-0.2,0.4-0.2h2.2
				c0.2,0,0.3,0.1,0.4,0.2c0.1,0.1,0.2,0.3,0.2,0.4v8.9l4.3-4.1c0.1,0,0.1-0.1,0.2-0.2c0.1-0.1,0.2-0.2,0.3-0.2s0.2-0.1,0.4-0.1h2.5
				c0.2,0,0.3,0.1,0.4,0.2c0.1,0.1,0.2,0.2,0.2,0.4c0,0.2-0.1,0.3-0.3,0.5l-5.3,5l6,6.4c0.2,0.2,0.2,0.3,0.2,0.4
				c0,0.2-0.1,0.3-0.2,0.4c-0.1,0.1-0.2,0.2-0.4,0.2h-2.5c-0.2,0-0.4,0-0.5-0.1c-0.1-0.1-0.3-0.2-0.4-0.4l-4.8-5v5
				c0,0.2-0.1,0.3-0.2,0.4c-0.1,0.1-0.3,0.2-0.4,0.2h-2.2C589,68.6,588.9,68.6,588.7,68.4z"/>
			<path class="st2" d="M603.1,68.4c-0.1-0.1-0.2-0.3-0.2-0.4V50.8c0-0.2,0.1-0.3,0.2-0.5c0.1-0.1,0.3-0.2,0.4-0.2h2.2
				c0.2,0,0.3,0.1,0.5,0.2c0.1,0.1,0.2,0.3,0.2,0.5v17.2c0,0.2-0.1,0.3-0.2,0.4c-0.1,0.1-0.3,0.2-0.5,0.2h-2.2
				C603.4,68.6,603.2,68.6,603.1,68.4z"/>
			<path class="st2" d="M611.1,67.4c-1.1-1-1.7-2.5-1.8-4.3V62v-1.1c0.1-1.8,0.7-3.3,1.8-4.3s2.7-1.6,4.7-1.6s3.6,0.5,4.7,1.6
				s1.7,2.5,1.8,4.3c0,0.2,0,0.6,0,1.1s0,0.9,0,1.1c-0.1,1.8-0.7,3.3-1.8,4.3s-2.7,1.6-4.7,1.6C613.8,68.9,612.2,68.4,611.1,67.4z
				 M617.9,65.4c0.5-0.6,0.8-1.4,0.8-2.5c0-0.2,0-0.5,0-1s0-0.8,0-1c0-1.1-0.3-2-0.8-2.5c-0.5-0.6-1.2-0.9-2.1-0.9
				c-0.9,0-1.6,0.3-2.1,0.9s-0.8,1.4-0.8,2.5v1v1c0,1.1,0.3,2,0.8,2.5c0.5,0.6,1.2,0.9,2.1,0.9S617.4,65.9,617.9,65.4z"/>
			<path class="st2" d="M626.7,68.4c-0.7-0.4-1.3-0.8-1.7-1.4c-0.4-0.6-0.6-1.3-0.6-2c0-1.2,0.5-2.1,1.4-2.9c1-0.7,2.3-1.2,3.9-1.5
				l3.6-0.5v-0.5c0-0.7-0.2-1.3-0.6-1.7c-0.4-0.4-1-0.6-1.8-0.6c-0.6,0-1,0.1-1.4,0.3s-0.6,0.4-0.8,0.6s-0.4,0.4-0.4,0.4
				c-0.1,0.2-0.2,0.3-0.4,0.3h-2c-0.2,0-0.3-0.1-0.4-0.2c-0.1-0.1-0.2-0.2-0.2-0.4c0-0.4,0.2-0.9,0.6-1.5s1-1,1.9-1.4
				c0.8-0.4,1.9-0.6,3.1-0.6c2,0,3.5,0.5,4.5,1.4c0.9,0.9,1.4,2.1,1.4,3.6v8.2c0,0.2-0.1,0.3-0.2,0.4c-0.1,0.1-0.3,0.2-0.5,0.2H634
				c-0.2,0-0.3-0.1-0.4-0.2c-0.1-0.1-0.2-0.3-0.2-0.4v-1c-0.4,0.6-0.9,1-1.6,1.4c-0.7,0.4-1.6,0.5-2.6,0.5
				C628.3,68.9,627.4,68.6,626.7,68.4z M632.4,65.4c0.6-0.6,0.9-1.5,0.9-2.7v-0.5l-2.6,0.4c-2,0.3-3,1-3,2c0,0.6,0.2,1,0.7,1.3
				s1,0.5,1.7,0.5C631,66.4,631.8,66.1,632.4,65.4z"/>
			<path class="st2" d="M641.1,67.1c-0.9-1.1-1.4-2.6-1.5-4.5v-0.9v-0.9c0.1-1.8,0.6-3.3,1.5-4.5c0.9-1.1,2.3-1.7,4-1.7s3,0.6,4,1.7
				v-5.8c0-0.2,0.1-0.3,0.2-0.5c0.1-0.1,0.3-0.2,0.4-0.2h2.3c0.2,0,0.3,0.1,0.5,0.2c0.1,0.1,0.2,0.3,0.2,0.5v17.4
				c0,0.2-0.1,0.3-0.2,0.4c-0.1,0.1-0.3,0.2-0.5,0.2h-2.1c-0.2,0-0.3-0.1-0.4-0.2c-0.1-0.1-0.2-0.3-0.2-0.4v-1
				c-1,1.2-2.3,1.8-4.1,1.8C643.4,68.9,642,68.4,641.1,67.1z M648.3,65.1c0.5-0.6,0.7-1.4,0.8-2.4c0-0.2,0-0.5,0-1s0-0.8,0-1
				c0-0.9-0.3-1.6-0.8-2.2s-1.2-0.9-2.2-0.9c-1.9,0-2.8,1.1-3,3.4v0.8v0.8c0.1,2.3,1.1,3.4,3,3.4C647.1,66.1,647.8,65.8,648.3,65.1z
				"/>
		</g>
	</g>
	<path class="st3" d="M138.1,155.8h581.2"/>
	<path class="st4" d="M138.1,498.4h581.8"/>
	<path class="st5" d="M103.9,532.5l34.2-33.4h581.8l-34.2,33.4H103.9z"/>
	<path class="st3" d="M138.1,466.6h581.8"/>
	<path class="st3" d="M138.1,435.6h581.8"/>
	<path class="st3" d="M138.1,404.6h581.8"/>
	<path class="st3" d="M138.1,373.6h581.8"/>
	<path class="st3" d="M138.1,342.6h581.8"/>
	<path class="st3" d="M138.1,311.6h581.8"/>
	<path class="st3" d="M138.1,279.8h581.8"/>
	<path class="st3" d="M138.1,248.7h581.8"/>
	<path class="st3" d="M138.1,217.8h581.8"/>
	<path class="st3" d="M138.1,186.8h581.8"/>
	<g>
		<g>
			<g>
				<defs>
					<rect id="SVGID_1_" x="104.2" y="155.6" width="615.4" height="376.6"/>
				</defs>
				<clipPath id="SVGID_2_">
					<use xlink:href="#SVGID_1_"  style="overflow:visible;"/>
				</clipPath>
				<path class="st6" d="M303,164.9v333l-30.2,30.2v-333L303,164.9z"/>
			</g>
		</g>
	</g>
	<g>
		<g>
			<g>
				<defs>
					<rect id="SVGID_3_" x="104.2" y="155.6" width="615.4" height="376.6"/>
				</defs>
				<clipPath id="SVGID_4_">
					<use xlink:href="#SVGID_3_"  style="overflow:visible;"/>
				</clipPath>
				<path class="st7" d="M272.8,195.1H153.6l30.2-30.2H303L272.8,195.1z"/>
			</g>
		</g>
	</g>
	<g>
		<g>
			<g>
				<defs>
					<rect id="SVGID_5_" x="104.2" y="155.6" width="615.4" height="376.6"/>
				</defs>
				<clipPath id="SVGID_6_">
					<use xlink:href="#SVGID_5_"  style="overflow:visible;"/>
				</clipPath>
				<path class="st8" d="M272.8,528.2H153.6v-333h119.2V528.2z"/>
			</g>
		</g>
	</g>
	<g>
		<g>
			<g>
				<defs>
					<rect id="SVGID_7_" x="104.2" y="155.6" width="615.4" height="376.6"/>
				</defs>
				<clipPath id="SVGID_8_">
					<use xlink:href="#SVGID_7_"  style="overflow:visible;"/>
				</clipPath>
				<path class="st9" d="M272.8,528.2H153.6v-333h119.2V528.2z"/>
			</g>
		</g>
	</g>
	<g>
		<g>
			<g>
				<defs>
					<rect id="SVGID_9_" x="104.2" y="155.6" width="615.4" height="376.6"/>
				</defs>
				<clipPath id="SVGID_10_">
					<use xlink:href="#SVGID_9_"  style="overflow:visible;"/>
				</clipPath>
				<path class="st10" d="M486.6,343.8V498l-30.2,30.2V374L486.6,343.8z"/>
			</g>
		</g>
	</g>
	<g>
		<g>
			<g>
				<defs>
					<rect id="SVGID_11_" x="104.2" y="155.6" width="615.4" height="376.6"/>
				</defs>
				<clipPath id="SVGID_12_">
					<use xlink:href="#SVGID_11_"  style="overflow:visible;"/>
				</clipPath>
				<path class="st11" d="M456.4,374H337.2l30.2-30.2h119.2L456.4,374z"/>
			</g>
		</g>
	</g>
	<g>
		<g>
			<g>
				<defs>
					<rect id="SVGID_13_" x="104.2" y="155.6" width="615.4" height="376.6"/>
				</defs>
				<clipPath id="SVGID_14_">
					<use xlink:href="#SVGID_13_"  style="overflow:visible;"/>
				</clipPath>
				<path class="st12" d="M456.4,528.2H337.2V374h119.2L456.4,528.2L456.4,528.2z"/>
			</g>
		</g>
	</g>
	<g>
		<g>
			<g>
				<defs>
					<rect id="SVGID_15_" x="104.2" y="155.6" width="615.4" height="376.6"/>
				</defs>
				<clipPath id="SVGID_16_">
					<use xlink:href="#SVGID_15_"  style="overflow:visible;"/>
				</clipPath>
				<path class="st13" d="M456.4,528.2H337.2V374h119.2L456.4,528.2L456.4,528.2z"/>
			</g>
		</g>
	</g>
	<g>
		<g>
			<g>
				<defs>
					<rect id="SVGID_17_" x="104.2" y="155.6" width="615.4" height="376.6"/>
				</defs>
				<clipPath id="SVGID_18_">
					<use xlink:href="#SVGID_17_"  style="overflow:visible;"/>
				</clipPath>
				<path class="st14" d="M670.2,351.7V498L640,528.2V381.9L670.2,351.7z"/>
			</g>
		</g>
	</g>
	<g>
		<g>
			<g>
				<defs>
					<rect id="SVGID_19_" x="104.2" y="155.6" width="615.4" height="376.6"/>
				</defs>
				<clipPath id="SVGID_20_">
					<use xlink:href="#SVGID_19_"  style="overflow:visible;"/>
				</clipPath>
				<path class="st15" d="M640,381.9H520.8l30.2-30.2h119.2L640,381.9z"/>
			</g>
		</g>
	</g>
	<g>
		<g>
			<g>
				<defs>
					<rect id="SVGID_21_" x="104.2" y="155.6" width="615.4" height="376.6"/>
				</defs>
				<clipPath id="SVGID_22_">
					<use xlink:href="#SVGID_21_"  style="overflow:visible;"/>
				</clipPath>
				<path class="st16" d="M640,528.2H520.8V381.9H640V528.2z"/>
			</g>
		</g>
	</g>
	<g>
		<g>
			<g>
				<defs>
					<rect id="SVGID_23_" x="104.2" y="155.6" width="615.4" height="376.6"/>
				</defs>
				<clipPath id="SVGID_24_">
					<use xlink:href="#SVGID_23_"  style="overflow:visible;"/>
				</clipPath>
				<path class="st17" d="M640,528.2H520.8V381.9H640V528.2z"/>
			</g>
		</g>
	</g>
	<path class="st18" d="M199.1,208.4h-0.9v-5.7l-1.7,0.6v-0.8l2.5-0.9h0.1L199.1,208.4L199.1,208.4z M206.1,205.6
		c0,1-0.2,1.8-0.5,2.3s-0.9,0.7-1.6,0.7c-0.7,0-1.3-0.2-1.6-0.7s-0.5-1.2-0.5-2.2v-1.1c0-1,0.2-1.7,0.5-2.2s0.9-0.7,1.6-0.7
		c0.7,0,1.3,0.2,1.6,0.7s0.5,1.2,0.5,2.2V205.6z M205.2,204.3c0-0.7-0.1-1.3-0.3-1.6s-0.5-0.5-1-0.5c-0.4,0-0.8,0.2-1,0.5
		s-0.3,0.8-0.3,1.5v1.4c0,0.7,0.1,1.3,0.3,1.6s0.5,0.5,1,0.5c0.4,0,0.7-0.2,0.9-0.5s0.3-0.8,0.3-1.6v-1.3L205.2,204.3L205.2,204.3z
		 M211.8,202.1l-2.8,6.3h-1l2.8-6.1h-3.7v-0.7h4.6v0.5H211.8z M213,209.8l-0.5-0.3c0.3-0.4,0.4-0.8,0.5-1.3v-0.8h0.8v0.7
		c0,0.3-0.1,0.6-0.2,0.9C213.4,209.3,213.2,209.6,213,209.8z M218.8,205.6c0,1-0.2,1.8-0.5,2.3s-0.9,0.7-1.6,0.7s-1.3-0.2-1.6-0.7
		c-0.3-0.5-0.5-1.2-0.5-2.2v-1.1c0-1,0.2-1.7,0.5-2.2s0.9-0.7,1.6-0.7s1.3,0.2,1.6,0.7c0.3,0.5,0.5,1.2,0.5,2.2V205.6z M217.9,204.3
		c0-0.7-0.1-1.3-0.3-1.6c-0.2-0.3-0.5-0.5-1-0.5c-0.4,0-0.8,0.2-1,0.5s-0.3,0.8-0.3,1.5v1.4c0,0.7,0.1,1.3,0.3,1.6
		c0.2,0.3,0.5,0.5,1,0.5c0.4,0,0.7-0.2,0.9-0.5c0.2-0.3,0.3-0.8,0.3-1.6v-1.3L217.9,204.3L217.9,204.3z M224.4,205.6
		c0,1-0.2,1.8-0.5,2.3s-0.9,0.7-1.6,0.7s-1.3-0.2-1.6-0.7c-0.3-0.5-0.5-1.2-0.5-2.2v-1.1c0-1,0.2-1.7,0.5-2.2s0.9-0.7,1.6-0.7
		s1.3,0.2,1.6,0.7c0.3,0.5,0.5,1.2,0.5,2.2V205.6z M223.5,204.3c0-0.7-0.1-1.3-0.3-1.6c-0.2-0.3-0.5-0.5-1-0.5c-0.4,0-0.8,0.2-1,0.5
		s-0.3,0.8-0.3,1.5v1.4c0,0.7,0.1,1.3,0.3,1.6c0.2,0.3,0.5,0.5,1,0.5c0.4,0,0.7-0.2,0.9-0.5c0.2-0.3,0.3-0.8,0.3-1.6v-1.3
		L223.5,204.3L223.5,204.3z M229.9,205.6c0,1-0.2,1.8-0.5,2.3s-0.9,0.7-1.6,0.7s-1.3-0.2-1.6-0.7c-0.3-0.5-0.5-1.2-0.5-2.2v-1.1
		c0-1,0.2-1.7,0.5-2.2s0.9-0.7,1.6-0.7s1.3,0.2,1.6,0.7c0.3,0.5,0.5,1.2,0.5,2.2V205.6z M229,204.3c0-0.7-0.1-1.3-0.3-1.6
		c-0.2-0.3-0.5-0.5-1-0.5c-0.4,0-0.8,0.2-1,0.5s-0.3,0.8-0.3,1.5v1.4c0,0.7,0.1,1.3,0.3,1.6c0.2,0.3,0.5,0.5,1,0.5
		c0.4,0,0.7-0.2,0.9-0.5c0.2-0.3,0.3-0.8,0.3-1.6v-1.3L229,204.3L229,204.3z"/>
	<path class="st19" d="M199.1,208.4h-0.9v-5.7l-1.7,0.6v-0.8l2.5-0.9h0.1L199.1,208.4L199.1,208.4z M206.1,205.6
		c0,1-0.2,1.8-0.5,2.3s-0.9,0.7-1.6,0.7c-0.7,0-1.3-0.2-1.6-0.7s-0.5-1.2-0.5-2.2v-1.1c0-1,0.2-1.7,0.5-2.2s0.9-0.7,1.6-0.7
		c0.7,0,1.3,0.2,1.6,0.7s0.5,1.2,0.5,2.2V205.6z M205.2,204.3c0-0.7-0.1-1.3-0.3-1.6s-0.5-0.5-1-0.5c-0.4,0-0.8,0.2-1,0.5
		s-0.3,0.8-0.3,1.5v1.4c0,0.7,0.1,1.3,0.3,1.6s0.5,0.5,1,0.5c0.4,0,0.7-0.2,0.9-0.5s0.3-0.8,0.3-1.6v-1.3L205.2,204.3L205.2,204.3z
		 M211.8,202.1l-2.8,6.3h-1l2.8-6.1h-3.7v-0.7h4.6v0.5H211.8z M213,209.8l-0.5-0.3c0.3-0.4,0.4-0.8,0.5-1.3v-0.8h0.8v0.7
		c0,0.3-0.1,0.6-0.2,0.9C213.4,209.3,213.2,209.6,213,209.8z M218.8,205.6c0,1-0.2,1.8-0.5,2.3s-0.9,0.7-1.6,0.7s-1.3-0.2-1.6-0.7
		c-0.3-0.5-0.5-1.2-0.5-2.2v-1.1c0-1,0.2-1.7,0.5-2.2s0.9-0.7,1.6-0.7s1.3,0.2,1.6,0.7c0.3,0.5,0.5,1.2,0.5,2.2V205.6z M217.9,204.3
		c0-0.7-0.1-1.3-0.3-1.6c-0.2-0.3-0.5-0.5-1-0.5c-0.4,0-0.8,0.2-1,0.5s-0.3,0.8-0.3,1.5v1.4c0,0.7,0.1,1.3,0.3,1.6
		c0.2,0.3,0.5,0.5,1,0.5c0.4,0,0.7-0.2,0.9-0.5c0.2-0.3,0.3-0.8,0.3-1.6v-1.3L217.9,204.3L217.9,204.3z M224.4,205.6
		c0,1-0.2,1.8-0.5,2.3s-0.9,0.7-1.6,0.7s-1.3-0.2-1.6-0.7c-0.3-0.5-0.5-1.2-0.5-2.2v-1.1c0-1,0.2-1.7,0.5-2.2s0.9-0.7,1.6-0.7
		s1.3,0.2,1.6,0.7c0.3,0.5,0.5,1.2,0.5,2.2V205.6z M223.5,204.3c0-0.7-0.1-1.3-0.3-1.6c-0.2-0.3-0.5-0.5-1-0.5c-0.4,0-0.8,0.2-1,0.5
		s-0.3,0.8-0.3,1.5v1.4c0,0.7,0.1,1.3,0.3,1.6c0.2,0.3,0.5,0.5,1,0.5c0.4,0,0.7-0.2,0.9-0.5c0.2-0.3,0.3-0.8,0.3-1.6v-1.3
		L223.5,204.3L223.5,204.3z M229.9,205.6c0,1-0.2,1.8-0.5,2.3s-0.9,0.7-1.6,0.7s-1.3-0.2-1.6-0.7c-0.3-0.5-0.5-1.2-0.5-2.2v-1.1
		c0-1,0.2-1.7,0.5-2.2s0.9-0.7,1.6-0.7s1.3,0.2,1.6,0.7c0.3,0.5,0.5,1.2,0.5,2.2V205.6z M229,204.3c0-0.7-0.1-1.3-0.3-1.6
		c-0.2-0.3-0.5-0.5-1-0.5c-0.4,0-0.8,0.2-1,0.5s-0.3,0.8-0.3,1.5v1.4c0,0.7,0.1,1.3,0.3,1.6c0.2,0.3,0.5,0.5,1,0.5
		c0.4,0,0.7-0.2,0.9-0.5c0.2-0.3,0.3-0.8,0.3-1.6v-1.3L229,204.3L229,204.3z"/>
	<path class="st18" d="M386.3,385.2h0.9v0.7h-0.9v1.6h-0.9V386h-3.1v-0.5l3-4.7h0.9v4.5H386.3z M383.3,385.2h2.1V382l-0.1,0.2
		L383.3,385.2z M391.5,384.5c-0.2,0.2-0.4,0.4-0.6,0.5s-0.5,0.2-0.8,0.2c-0.4,0-0.7-0.1-1-0.3s-0.5-0.5-0.7-0.8
		c-0.2-0.4-0.2-0.7-0.2-1.2c0-0.4,0.1-0.9,0.2-1.2c0.2-0.4,0.4-0.6,0.7-0.8c0.3-0.2,0.7-0.3,1.1-0.3c0.7,0,1.2,0.3,1.6,0.8
		s0.6,1.2,0.6,2v0.2c0,1.3-0.3,2.3-0.8,2.9s-1.3,0.9-2.4,0.9H389v-0.7h0.2c0.7,0,1.3-0.2,1.6-0.6
		C391.3,385.9,391.5,385.2,391.5,384.5z M390.2,384.5c0.3,0,0.6-0.1,0.8-0.3c0.2-0.2,0.4-0.4,0.5-0.7v-0.3c0-0.6-0.1-1-0.4-1.4
		c-0.2-0.4-0.6-0.5-0.9-0.5c-0.4,0-0.7,0.1-0.9,0.4c-0.2,0.3-0.3,0.7-0.3,1.2s0.1,0.8,0.3,1.1C389.5,384.4,389.8,384.5,390.2,384.5z
		 M393.8,388.9l-0.5-0.3c0.3-0.4,0.4-0.8,0.5-1.3v-0.8h0.8v0.7c0,0.3-0.1,0.6-0.2,0.9C394.2,388.4,394,388.7,393.8,388.9z
		 M395.7,384.1l0.3-3.4h3.5v0.8h-2.7l-0.2,1.9c0.3-0.2,0.7-0.3,1.1-0.3c0.6,0,1.1,0.2,1.5,0.6s0.5,1,0.5,1.7s-0.2,1.2-0.6,1.7
		c-0.4,0.4-0.9,0.6-1.6,0.6c-0.6,0-1.1-0.2-1.5-0.5s-0.6-0.8-0.6-1.4h0.8c0.1,0.4,0.2,0.7,0.4,0.9c0.2,0.2,0.5,0.3,0.9,0.3
		s0.7-0.1,0.9-0.4c0.2-0.3,0.3-0.6,0.3-1.1s-0.1-0.8-0.4-1.1c-0.2-0.3-0.6-0.4-1-0.4s-0.7,0.1-0.9,0.2l-0.2,0.2L395.7,384.1z
		 M405.2,384.6c0,1-0.2,1.8-0.5,2.3s-0.9,0.7-1.6,0.7s-1.3-0.2-1.6-0.7c-0.3-0.5-0.5-1.2-0.5-2.2v-1.1c0-1,0.2-1.7,0.5-2.2
		s0.9-0.7,1.6-0.7s1.3,0.2,1.6,0.7c0.3,0.5,0.5,1.2,0.5,2.2V384.6z M404.3,383.5c0-0.7-0.1-1.3-0.3-1.6c-0.2-0.3-0.5-0.5-1-0.5
		c-0.4,0-0.8,0.2-1,0.5s-0.3,0.8-0.3,1.5v1.4c0,0.7,0.1,1.3,0.3,1.6c0.2,0.3,0.5,0.5,1,0.5c0.4,0,0.7-0.2,0.9-0.5
		c0.2-0.3,0.3-0.8,0.3-1.6v-1.3H404.3z M410.7,384.6c0,1-0.2,1.8-0.5,2.3s-0.9,0.7-1.6,0.7s-1.3-0.2-1.6-0.7
		c-0.3-0.5-0.5-1.2-0.5-2.2v-1.1c0-1,0.2-1.7,0.5-2.2s0.9-0.7,1.6-0.7s1.3,0.2,1.6,0.7c0.3,0.5,0.5,1.2,0.5,2.2V384.6z M409.9,383.5
		c0-0.7-0.1-1.3-0.3-1.6c-0.2-0.3-0.5-0.5-1-0.5c-0.4,0-0.8,0.2-1,0.5s-0.3,0.8-0.3,1.5v1.4c0,0.7,0.1,1.3,0.3,1.6
		c0.2,0.3,0.5,0.5,1,0.5c0.4,0,0.7-0.2,0.9-0.5c0.2-0.3,0.3-0.8,0.3-1.6v-1.3H409.9z"/>
	<path class="st19" d="M386.3,385.2h0.9v0.7h-0.9v1.6h-0.9V386h-3.1v-0.5l3-4.7h0.9v4.5H386.3z M383.3,385.2h2.1V382l-0.1,0.2
		L383.3,385.2z M391.5,384.5c-0.2,0.2-0.4,0.4-0.6,0.5s-0.5,0.2-0.8,0.2c-0.4,0-0.7-0.1-1-0.3s-0.5-0.5-0.7-0.8
		c-0.2-0.4-0.2-0.7-0.2-1.2c0-0.4,0.1-0.9,0.2-1.2c0.2-0.4,0.4-0.6,0.7-0.8c0.3-0.2,0.7-0.3,1.1-0.3c0.7,0,1.2,0.3,1.6,0.8
		s0.6,1.2,0.6,2v0.2c0,1.3-0.3,2.3-0.8,2.9s-1.3,0.9-2.4,0.9H389v-0.7h0.2c0.7,0,1.3-0.2,1.6-0.6
		C391.3,385.9,391.5,385.2,391.5,384.5z M390.2,384.5c0.3,0,0.6-0.1,0.8-0.3c0.2-0.2,0.4-0.4,0.5-0.7v-0.3c0-0.6-0.1-1-0.4-1.4
		c-0.2-0.4-0.6-0.5-0.9-0.5c-0.4,0-0.7,0.1-0.9,0.4c-0.2,0.3-0.3,0.7-0.3,1.2s0.1,0.8,0.3,1.1C389.5,384.4,389.8,384.5,390.2,384.5z
		 M393.8,388.9l-0.5-0.3c0.3-0.4,0.4-0.8,0.5-1.3v-0.8h0.8v0.7c0,0.3-0.1,0.6-0.2,0.9C394.2,388.4,394,388.7,393.8,388.9z
		 M395.7,384.1l0.3-3.4h3.5v0.8h-2.7l-0.2,1.9c0.3-0.2,0.7-0.3,1.1-0.3c0.6,0,1.1,0.2,1.5,0.6s0.5,1,0.5,1.7s-0.2,1.2-0.6,1.7
		c-0.4,0.4-0.9,0.6-1.6,0.6c-0.6,0-1.1-0.2-1.5-0.5s-0.6-0.8-0.6-1.4h0.8c0.1,0.4,0.2,0.7,0.4,0.9c0.2,0.2,0.5,0.3,0.9,0.3
		s0.7-0.1,0.9-0.4c0.2-0.3,0.3-0.6,0.3-1.1s-0.1-0.8-0.4-1.1c-0.2-0.3-0.6-0.4-1-0.4s-0.7,0.1-0.9,0.2l-0.2,0.2L395.7,384.1z
		 M405.2,384.6c0,1-0.2,1.8-0.5,2.3s-0.9,0.7-1.6,0.7s-1.3-0.2-1.6-0.7c-0.3-0.5-0.5-1.2-0.5-2.2v-1.1c0-1,0.2-1.7,0.5-2.2
		s0.9-0.7,1.6-0.7s1.3,0.2,1.6,0.7c0.3,0.5,0.5,1.2,0.5,2.2V384.6z M404.3,383.5c0-0.7-0.1-1.3-0.3-1.6c-0.2-0.3-0.5-0.5-1-0.5
		c-0.4,0-0.8,0.2-1,0.5s-0.3,0.8-0.3,1.5v1.4c0,0.7,0.1,1.3,0.3,1.6c0.2,0.3,0.5,0.5,1,0.5c0.4,0,0.7-0.2,0.9-0.5
		c0.2-0.3,0.3-0.8,0.3-1.6v-1.3H404.3z M410.7,384.6c0,1-0.2,1.8-0.5,2.3s-0.9,0.7-1.6,0.7s-1.3-0.2-1.6-0.7
		c-0.3-0.5-0.5-1.2-0.5-2.2v-1.1c0-1,0.2-1.7,0.5-2.2s0.9-0.7,1.6-0.7s1.3,0.2,1.6,0.7c0.3,0.5,0.5,1.2,0.5,2.2V384.6z M409.9,383.5
		c0-0.7-0.1-1.3-0.3-1.6c-0.2-0.3-0.5-0.5-1-0.5c-0.4,0-0.8,0.2-1,0.5s-0.3,0.8-0.3,1.5v1.4c0,0.7,0.1,1.3,0.3,1.6
		c0.2,0.3,0.5,0.5,1,0.5c0.4,0,0.7-0.2,0.9-0.5c0.2-0.3,0.3-0.8,0.3-1.6v-1.3H409.9z"/>
	<path class="st20" d="M569.9,393h0.9v0.7h-0.9v1.6H569v-1.6h-3.1v-0.5l3-4.7h0.9L569.9,393L569.9,393z M566.9,393h2.1v-3.3
		l-0.1,0.2L566.9,393z M576.2,389l-2.8,6.3h-0.9l2.8-6.1h-3.7v-0.7h4.6L576.2,389L576.2,389z M577.4,396.7l-0.5-0.3
		c0.3-0.4,0.4-0.8,0.5-1.3v-0.8h0.8v0.7c0,0.3-0.1,0.6-0.2,0.9C577.8,396.2,577.6,396.5,577.4,396.7z M583.2,392.4
		c0,1-0.2,1.8-0.5,2.3s-0.9,0.7-1.6,0.7c-0.7,0-1.3-0.2-1.6-0.7s-0.5-1.2-0.5-2.2v-1.1c0-1,0.2-1.7,0.5-2.2s0.9-0.7,1.6-0.7
		c0.7,0,1.3,0.2,1.6,0.7s0.5,1.2,0.5,2.2V392.4z M582.3,391.2c0-0.7-0.1-1.3-0.3-1.6c-0.2-0.3-0.5-0.5-1-0.5c-0.4,0-0.8,0.2-1,0.5
		s-0.3,0.8-0.3,1.5v1.4c0,0.7,0.1,1.3,0.3,1.6c0.2,0.3,0.5,0.5,1,0.5c0.4,0,0.7-0.2,0.9-0.5s0.3-0.8,0.3-1.6L582.3,391.2
		L582.3,391.2z M588.8,392.4c0,1-0.2,1.8-0.5,2.3s-0.9,0.7-1.6,0.7c-0.7,0-1.3-0.2-1.6-0.7s-0.5-1.2-0.5-2.2v-1.1
		c0-1,0.2-1.7,0.5-2.2s0.9-0.7,1.6-0.7c0.7,0,1.3,0.2,1.6,0.7s0.5,1.2,0.5,2.2V392.4z M587.9,391.2c0-0.7-0.1-1.3-0.3-1.6
		c-0.2-0.3-0.5-0.5-1-0.5c-0.4,0-0.8,0.2-1,0.5s-0.3,0.8-0.3,1.5v1.4c0,0.7,0.1,1.3,0.3,1.6c0.2,0.3,0.5,0.5,1,0.5
		c0.4,0,0.7-0.2,0.9-0.5s0.3-0.8,0.3-1.6L587.9,391.2L587.9,391.2z M594.3,392.4c0,1-0.2,1.8-0.5,2.3s-0.9,0.7-1.6,0.7
		c-0.7,0-1.3-0.2-1.6-0.7s-0.5-1.2-0.5-2.2v-1.1c0-1,0.2-1.7,0.5-2.2s0.9-0.7,1.6-0.7c0.7,0,1.3,0.2,1.6,0.7s0.5,1.2,0.5,2.2V392.4z
		 M593.4,391.2c0-0.7-0.1-1.3-0.3-1.6c-0.2-0.3-0.5-0.5-1-0.5c-0.4,0-0.8,0.2-1,0.5s-0.3,0.8-0.3,1.5v1.4c0,0.7,0.1,1.3,0.3,1.6
		c0.2,0.3,0.5,0.5,1,0.5c0.4,0,0.7-0.2,0.9-0.5s0.3-0.8,0.3-1.6L593.4,391.2L593.4,391.2z"/>
	<path class="st19" d="M569.9,393h0.9v0.7h-0.9v1.6H569v-1.6h-3.1v-0.5l3-4.7h0.9L569.9,393L569.9,393z M566.9,393h2.1v-3.3
		l-0.1,0.2L566.9,393z M576.2,389l-2.8,6.3h-0.9l2.8-6.1h-3.7v-0.7h4.6L576.2,389L576.2,389z M577.4,396.7l-0.5-0.3
		c0.3-0.4,0.4-0.8,0.5-1.3v-0.8h0.8v0.7c0,0.3-0.1,0.6-0.2,0.9C577.8,396.2,577.6,396.5,577.4,396.7z M583.2,392.4
		c0,1-0.2,1.8-0.5,2.3s-0.9,0.7-1.6,0.7c-0.7,0-1.3-0.2-1.6-0.7s-0.5-1.2-0.5-2.2v-1.1c0-1,0.2-1.7,0.5-2.2s0.9-0.7,1.6-0.7
		c0.7,0,1.3,0.2,1.6,0.7s0.5,1.2,0.5,2.2V392.4z M582.3,391.2c0-0.7-0.1-1.3-0.3-1.6c-0.2-0.3-0.5-0.5-1-0.5c-0.4,0-0.8,0.2-1,0.5
		s-0.3,0.8-0.3,1.5v1.4c0,0.7,0.1,1.3,0.3,1.6c0.2,0.3,0.5,0.5,1,0.5c0.4,0,0.7-0.2,0.9-0.5s0.3-0.8,0.3-1.6L582.3,391.2
		L582.3,391.2z M588.8,392.4c0,1-0.2,1.8-0.5,2.3s-0.9,0.7-1.6,0.7c-0.7,0-1.3-0.2-1.6-0.7s-0.5-1.2-0.5-2.2v-1.1
		c0-1,0.2-1.7,0.5-2.2s0.9-0.7,1.6-0.7c0.7,0,1.3,0.2,1.6,0.7s0.5,1.2,0.5,2.2V392.4z M587.9,391.2c0-0.7-0.1-1.3-0.3-1.6
		c-0.2-0.3-0.5-0.5-1-0.5c-0.4,0-0.8,0.2-1,0.5s-0.3,0.8-0.3,1.5v1.4c0,0.7,0.1,1.3,0.3,1.6c0.2,0.3,0.5,0.5,1,0.5
		c0.4,0,0.7-0.2,0.9-0.5s0.3-0.8,0.3-1.6L587.9,391.2L587.9,391.2z M594.3,392.4c0,1-0.2,1.8-0.5,2.3s-0.9,0.7-1.6,0.7
		c-0.7,0-1.3-0.2-1.6-0.7s-0.5-1.2-0.5-2.2v-1.1c0-1,0.2-1.7,0.5-2.2s0.9-0.7,1.6-0.7c0.7,0,1.3,0.2,1.6,0.7s0.5,1.2,0.5,2.2V392.4z
		 M593.4,391.2c0-0.7-0.1-1.3-0.3-1.6c-0.2-0.3-0.5-0.5-1-0.5c-0.4,0-0.8,0.2-1,0.5s-0.3,0.8-0.3,1.5v1.4c0,0.7,0.1,1.3,0.3,1.6
		c0.2,0.3,0.5,0.5,1,0.5c0.4,0,0.7-0.2,0.9-0.5s0.3-0.8,0.3-1.6L593.4,391.2L593.4,391.2z"/>
	<path class="st21" d="M98.7,498.8c0,1-0.2,1.8-0.5,2.3s-0.9,0.7-1.6,0.7c-0.7,0-1.3-0.2-1.6-0.7s-0.5-1.2-0.5-2.2v-1.1
		c0-1,0.2-1.7,0.5-2.2s0.9-0.7,1.6-0.7c0.7,0,1.3,0.2,1.6,0.7s0.5,1.2,0.5,2.2V498.8z M97.8,497.5c0-0.7-0.1-1.3-0.3-1.6
		s-0.5-0.5-1-0.5c-0.4,0-0.8,0.2-1,0.5s-0.3,0.8-0.3,1.5v1.4c0,0.7,0.1,1.3,0.3,1.6s0.5,0.5,1,0.5c0.4,0,0.7-0.2,0.9-0.5
		s0.3-0.8,0.3-1.6v-1.3L97.8,497.5L97.8,497.5z"/>
	<path class="st21" d="M73.4,470.5h-0.9v-5.7l-1.7,0.6v-0.8l2.5-0.9h0.1V470.5z M80.4,467.6c0,1-0.2,1.8-0.5,2.3s-0.9,0.7-1.6,0.7
		c-0.7,0-1.3-0.2-1.6-0.7c-0.3-0.5-0.5-1.2-0.5-2.2v-1.1c0-1,0.2-1.7,0.5-2.2s0.9-0.7,1.6-0.7s1.3,0.2,1.6,0.7s0.5,1.2,0.5,2.2
		V467.6z M79.5,466.5c0-0.7-0.1-1.3-0.3-1.6c-0.2-0.3-0.5-0.5-1-0.5c-0.4,0-0.8,0.2-1,0.5s-0.3,0.8-0.3,1.5v1.4
		c0,0.7,0.1,1.3,0.3,1.6c0.2,0.3,0.5,0.5,1,0.5c0.4,0,0.7-0.2,0.9-0.5s0.3-0.8,0.3-1.6v-1.3H79.5z M81.7,471.9l-0.5-0.3
		c0.3-0.4,0.4-0.8,0.5-1.3v-0.8h0.8v0.7c0,0.3-0.1,0.6-0.2,0.9C82.2,471.4,82,471.7,81.7,471.9z M87.5,467.6c0,1-0.2,1.8-0.5,2.3
		s-0.9,0.7-1.6,0.7c-0.7,0-1.3-0.2-1.6-0.7s-0.5-1.2-0.5-2.2v-1.1c0-1,0.2-1.7,0.5-2.2s0.9-0.7,1.6-0.7c0.7,0,1.3,0.2,1.6,0.7
		s0.5,1.2,0.5,2.2V467.6z M86.7,466.5c0-0.7-0.1-1.3-0.3-1.6c-0.2-0.3-0.5-0.5-1-0.5c-0.4,0-0.8,0.2-1,0.5s-0.3,0.8-0.3,1.5v1.4
		c0,0.7,0.1,1.3,0.3,1.6c0.2,0.3,0.5,0.5,1,0.5c0.4,0,0.7-0.2,0.9-0.5s0.3-0.8,0.3-1.6v-1.3H86.7z M93.1,467.6c0,1-0.2,1.8-0.5,2.3
		s-0.9,0.7-1.6,0.7c-0.7,0-1.3-0.2-1.6-0.7s-0.5-1.2-0.5-2.2v-1.1c0-1,0.2-1.7,0.5-2.2s0.9-0.7,1.6-0.7c0.7,0,1.3,0.2,1.6,0.7
		s0.5,1.2,0.5,2.2V467.6z M92.2,466.5c0-0.7-0.1-1.3-0.3-1.6c-0.2-0.3-0.5-0.5-1-0.5c-0.4,0-0.8,0.2-1,0.5s-0.3,0.8-0.3,1.5v1.4
		c0,0.7,0.1,1.3,0.3,1.6c0.2,0.3,0.5,0.5,1,0.5c0.4,0,0.7-0.2,0.9-0.5s0.3-0.8,0.3-1.6v-1.3H92.2z M98.7,467.6c0,1-0.2,1.8-0.5,2.3
		s-0.9,0.7-1.6,0.7c-0.7,0-1.3-0.2-1.6-0.7s-0.5-1.2-0.5-2.2v-1.1c0-1,0.2-1.7,0.5-2.2s0.9-0.7,1.6-0.7c0.7,0,1.3,0.2,1.6,0.7
		s0.5,1.2,0.5,2.2V467.6z M97.8,466.5c0-0.7-0.1-1.3-0.3-1.6c-0.2-0.3-0.5-0.5-1-0.5c-0.4,0-0.8,0.2-1,0.5s-0.3,0.8-0.3,1.5v1.4
		c0,0.7,0.1,1.3,0.3,1.6c0.2,0.3,0.5,0.5,1,0.5c0.4,0,0.7-0.2,0.9-0.5s0.3-0.8,0.3-1.6v-1.3H97.8z"/>
	<path class="st21" d="M75,439.4h-4.4v-0.6l2.3-2.6c0.3-0.4,0.6-0.7,0.7-1c0.1-0.2,0.2-0.5,0.2-0.8c0-0.4-0.1-0.6-0.3-0.9
		c-0.2-0.2-0.5-0.3-0.9-0.3s-0.8,0.1-1,0.4c-0.2,0.2-0.4,0.6-0.4,1h-0.9c0-0.6,0.2-1.1,0.6-1.5s0.9-0.6,1.6-0.6
		c0.6,0,1.1,0.2,1.5,0.5s0.5,0.8,0.5,1.3c0,0.7-0.4,1.5-1.3,2.4l-1.8,2h3.4v0.7H75z M80.4,436.5c0,1-0.2,1.8-0.5,2.3
		s-0.9,0.7-1.6,0.7c-0.7,0-1.3-0.2-1.6-0.7c-0.3-0.5-0.5-1.2-0.5-2.2v-1.1c0-1,0.2-1.7,0.5-2.2s0.9-0.7,1.6-0.7s1.3,0.2,1.6,0.7
		s0.5,1.2,0.5,2.2V436.5z M79.5,435.2c0-0.7-0.1-1.3-0.3-1.6c-0.2-0.3-0.5-0.5-1-0.5c-0.4,0-0.8,0.2-1,0.5s-0.3,0.8-0.3,1.5v1.4
		c0,0.7,0.1,1.3,0.3,1.6c0.2,0.3,0.5,0.5,1,0.5c0.4,0,0.7-0.2,0.9-0.5s0.3-0.8,0.3-1.6v-1.3H79.5z M81.7,440.7l-0.5-0.3
		c0.3-0.4,0.4-0.8,0.5-1.3v-0.8h0.8v0.7c0,0.3-0.1,0.6-0.2,0.9C82.2,440.2,82,440.6,81.7,440.7z M87.5,436.5c0,1-0.2,1.8-0.5,2.3
		s-0.9,0.7-1.6,0.7c-0.7,0-1.3-0.2-1.6-0.7s-0.5-1.2-0.5-2.2v-1.1c0-1,0.2-1.7,0.5-2.2s0.9-0.7,1.6-0.7c0.7,0,1.3,0.2,1.6,0.7
		s0.5,1.2,0.5,2.2V436.5z M86.7,435.2c0-0.7-0.1-1.3-0.3-1.6c-0.2-0.3-0.5-0.5-1-0.5c-0.4,0-0.8,0.2-1,0.5s-0.3,0.8-0.3,1.5v1.4
		c0,0.7,0.1,1.3,0.3,1.6c0.2,0.3,0.5,0.5,1,0.5c0.4,0,0.7-0.2,0.9-0.5s0.3-0.8,0.3-1.6v-1.3H86.7z M93.1,436.5c0,1-0.2,1.8-0.5,2.3
		s-0.9,0.7-1.6,0.7c-0.7,0-1.3-0.2-1.6-0.7s-0.5-1.2-0.5-2.2v-1.1c0-1,0.2-1.7,0.5-2.2s0.9-0.7,1.6-0.7c0.7,0,1.3,0.2,1.6,0.7
		s0.5,1.2,0.5,2.2V436.5z M92.2,435.2c0-0.7-0.1-1.3-0.3-1.6c-0.2-0.3-0.5-0.5-1-0.5c-0.4,0-0.8,0.2-1,0.5s-0.3,0.8-0.3,1.5v1.4
		c0,0.7,0.1,1.3,0.3,1.6c0.2,0.3,0.5,0.5,1,0.5c0.4,0,0.7-0.2,0.9-0.5s0.3-0.8,0.3-1.6v-1.3H92.2z M98.7,436.5c0,1-0.2,1.8-0.5,2.3
		s-0.9,0.7-1.6,0.7c-0.7,0-1.3-0.2-1.6-0.7s-0.5-1.2-0.5-2.2v-1.1c0-1,0.2-1.7,0.5-2.2s0.9-0.7,1.6-0.7c0.7,0,1.3,0.2,1.6,0.7
		s0.5,1.2,0.5,2.2V436.5z M97.8,435.2c0-0.7-0.1-1.3-0.3-1.6c-0.2-0.3-0.5-0.5-1-0.5c-0.4,0-0.8,0.2-1,0.5s-0.3,0.8-0.3,1.5v1.4
		c0,0.7,0.1,1.3,0.3,1.6c0.2,0.3,0.5,0.5,1,0.5c0.4,0,0.7-0.2,0.9-0.5s0.3-0.8,0.3-1.6v-1.3H97.8z"/>
	<path class="st21" d="M71.8,404.4h0.6c0.4,0,0.7-0.1,1-0.3c0.2-0.2,0.3-0.5,0.3-0.8c0-0.8-0.4-1.2-1.2-1.2c-0.4,0-0.7,0.1-0.9,0.3
		c-0.2,0.2-0.3,0.5-0.3,0.8h-0.9c0-0.5,0.2-1,0.6-1.3c0.4-0.4,0.9-0.5,1.5-0.5s1.1,0.2,1.5,0.5s0.5,0.8,0.5,1.4
		c0,0.3-0.1,0.6-0.3,0.9s-0.5,0.5-0.8,0.6c0.4,0.1,0.7,0.3,0.9,0.6c0.2,0.3,0.3,0.6,0.3,1c0,0.6-0.2,1.1-0.6,1.5s-0.9,0.5-1.6,0.5
		c-0.6,0-1.1-0.2-1.6-0.5c-0.4-0.3-0.6-0.8-0.6-1.4h0.9c0,0.4,0.1,0.6,0.3,0.9c0.2,0.2,0.5,0.3,0.9,0.3s0.7-0.1,0.9-0.3
		c0.2-0.2,0.3-0.5,0.3-0.9s-0.1-0.7-0.4-0.9c-0.2-0.2-0.6-0.3-1.1-0.3h-0.6v-0.9L71.8,404.4L71.8,404.4z M80.4,405.4
		c0,1-0.2,1.8-0.5,2.3s-0.9,0.7-1.6,0.7c-0.7,0-1.3-0.2-1.6-0.7c-0.3-0.5-0.5-1.2-0.5-2.2v-1.1c0-1,0.2-1.7,0.5-2.2s0.9-0.7,1.6-0.7
		s1.3,0.2,1.6,0.7s0.5,1.2,0.5,2.2V405.4z M79.5,404.2c0-0.7-0.1-1.3-0.3-1.6c-0.2-0.3-0.5-0.5-1-0.5c-0.4,0-0.8,0.2-1,0.5
		s-0.3,0.8-0.3,1.5v1.4c0,0.7,0.1,1.3,0.3,1.6c0.2,0.3,0.5,0.5,1,0.5c0.4,0,0.7-0.2,0.9-0.5s0.3-0.8,0.3-1.6v-1.3H79.5z M81.7,409.6
		l-0.5-0.3c0.3-0.4,0.4-0.8,0.5-1.3v-0.8h0.8v0.7c0,0.3-0.1,0.6-0.2,0.9C82.2,409.2,82,409.4,81.7,409.6z M87.5,405.4
		c0,1-0.2,1.8-0.5,2.3s-0.9,0.7-1.6,0.7c-0.7,0-1.3-0.2-1.6-0.7s-0.5-1.2-0.5-2.2v-1.1c0-1,0.2-1.7,0.5-2.2s0.9-0.7,1.6-0.7
		c0.7,0,1.3,0.2,1.6,0.7s0.5,1.2,0.5,2.2V405.4z M86.7,404.2c0-0.7-0.1-1.3-0.3-1.6c-0.2-0.3-0.5-0.5-1-0.5c-0.4,0-0.8,0.2-1,0.5
		s-0.3,0.8-0.3,1.5v1.4c0,0.7,0.1,1.3,0.3,1.6c0.2,0.3,0.5,0.5,1,0.5c0.4,0,0.7-0.2,0.9-0.5s0.3-0.8,0.3-1.6v-1.3H86.7z M93.1,405.4
		c0,1-0.2,1.8-0.5,2.3s-0.9,0.7-1.6,0.7c-0.7,0-1.3-0.2-1.6-0.7s-0.5-1.2-0.5-2.2v-1.1c0-1,0.2-1.7,0.5-2.2s0.9-0.7,1.6-0.7
		c0.7,0,1.3,0.2,1.6,0.7s0.5,1.2,0.5,2.2V405.4z M92.2,404.2c0-0.7-0.1-1.3-0.3-1.6c-0.2-0.3-0.5-0.5-1-0.5c-0.4,0-0.8,0.2-1,0.5
		s-0.3,0.8-0.3,1.5v1.4c0,0.7,0.1,1.3,0.3,1.6c0.2,0.3,0.5,0.5,1,0.5c0.4,0,0.7-0.2,0.9-0.5s0.3-0.8,0.3-1.6v-1.3H92.2z M98.7,405.4
		c0,1-0.2,1.8-0.5,2.3s-0.9,0.7-1.6,0.7c-0.7,0-1.3-0.2-1.6-0.7s-0.5-1.2-0.5-2.2v-1.1c0-1,0.2-1.7,0.5-2.2s0.9-0.7,1.6-0.7
		c0.7,0,1.3,0.2,1.6,0.7s0.5,1.2,0.5,2.2V405.4z M97.8,404.2c0-0.7-0.1-1.3-0.3-1.6c-0.2-0.3-0.5-0.5-1-0.5c-0.4,0-0.8,0.2-1,0.5
		s-0.3,0.8-0.3,1.5v1.4c0,0.7,0.1,1.3,0.3,1.6c0.2,0.3,0.5,0.5,1,0.5c0.4,0,0.7-0.2,0.9-0.5s0.3-0.8,0.3-1.6v-1.3H97.8z"/>
	<path class="st21" d="M74.2,374.9h0.9v0.7h-0.9v1.6h-0.9v-1.6h-3.1V375l3-4.7h0.9L74.2,374.9L74.2,374.9z M71.2,374.9h2.1v-3.3
		l-0.1,0.2L71.2,374.9z M80.4,374.2c0,1-0.2,1.8-0.5,2.3s-0.9,0.7-1.6,0.7c-0.7,0-1.3-0.2-1.6-0.7c-0.3-0.5-0.5-1.2-0.5-2.2v-1.1
		c0-1,0.2-1.7,0.5-2.2s0.9-0.7,1.6-0.7s1.3,0.2,1.6,0.7s0.5,1.2,0.5,2.2V374.2z M79.5,373.1c0-0.7-0.1-1.3-0.3-1.6
		c-0.2-0.3-0.5-0.5-1-0.5c-0.4,0-0.8,0.2-1,0.5s-0.3,0.8-0.3,1.5v1.4c0,0.7,0.1,1.3,0.3,1.6c0.2,0.3,0.5,0.5,1,0.5
		c0.4,0,0.7-0.2,0.9-0.5s0.3-0.8,0.3-1.6v-1.3H79.5z M81.7,378.5l-0.5-0.3c0.3-0.4,0.4-0.8,0.5-1.3v-0.8h0.8v0.7
		c0,0.3-0.1,0.6-0.2,0.9C82.2,378,82,378.2,81.7,378.5z M87.5,374.2c0,1-0.2,1.8-0.5,2.3s-0.9,0.7-1.6,0.7c-0.7,0-1.3-0.2-1.6-0.7
		s-0.5-1.2-0.5-2.2v-1.1c0-1,0.2-1.7,0.5-2.2s0.9-0.7,1.6-0.7c0.7,0,1.3,0.2,1.6,0.7s0.5,1.2,0.5,2.2V374.2z M86.7,373.1
		c0-0.7-0.1-1.3-0.3-1.6c-0.2-0.3-0.5-0.5-1-0.5c-0.4,0-0.8,0.2-1,0.5s-0.3,0.8-0.3,1.5v1.4c0,0.7,0.1,1.3,0.3,1.6
		c0.2,0.3,0.5,0.5,1,0.5c0.4,0,0.7-0.2,0.9-0.5s0.3-0.8,0.3-1.6v-1.3H86.7z M93.1,374.2c0,1-0.2,1.8-0.5,2.3s-0.9,0.7-1.6,0.7
		c-0.7,0-1.3-0.2-1.6-0.7s-0.5-1.2-0.5-2.2v-1.1c0-1,0.2-1.7,0.5-2.2s0.9-0.7,1.6-0.7c0.7,0,1.3,0.2,1.6,0.7s0.5,1.2,0.5,2.2V374.2z
		 M92.2,373.1c0-0.7-0.1-1.3-0.3-1.6c-0.2-0.3-0.5-0.5-1-0.5c-0.4,0-0.8,0.2-1,0.5s-0.3,0.8-0.3,1.5v1.4c0,0.7,0.1,1.3,0.3,1.6
		c0.2,0.3,0.5,0.5,1,0.5c0.4,0,0.7-0.2,0.9-0.5s0.3-0.8,0.3-1.6v-1.3H92.2z M98.7,374.2c0,1-0.2,1.8-0.5,2.3s-0.9,0.7-1.6,0.7
		c-0.7,0-1.3-0.2-1.6-0.7s-0.5-1.2-0.5-2.2v-1.1c0-1,0.2-1.7,0.5-2.2s0.9-0.7,1.6-0.7c0.7,0,1.3,0.2,1.6,0.7s0.5,1.2,0.5,2.2V374.2z
		 M97.8,373.1c0-0.7-0.1-1.3-0.3-1.6c-0.2-0.3-0.5-0.5-1-0.5c-0.4,0-0.8,0.2-1,0.5s-0.3,0.8-0.3,1.5v1.4c0,0.7,0.1,1.3,0.3,1.6
		c0.2,0.3,0.5,0.5,1,0.5c0.4,0,0.7-0.2,0.9-0.5s0.3-0.8,0.3-1.6v-1.3H97.8z"/>
	<path class="st21" d="M71,342.6l0.3-3.4h3.5v0.8H72l-0.2,1.9c0.3-0.2,0.7-0.3,1.1-0.3c0.6,0,1.1,0.2,1.5,0.6s0.5,1,0.5,1.7
		s-0.2,1.2-0.6,1.7c-0.4,0.4-0.9,0.6-1.6,0.6c-0.6,0-1.1-0.2-1.5-0.5s-0.6-0.8-0.6-1.4h0.8c0.1,0.4,0.2,0.7,0.4,0.9s0.5,0.3,0.9,0.3
		s0.7-0.1,0.9-0.4c0.2-0.3,0.3-0.6,0.3-1.1s-0.1-0.8-0.4-1.1c-0.2-0.3-0.6-0.4-1-0.4s-0.7,0.1-0.9,0.2l-0.2,0.2L71,342.6z
		 M80.4,343.1c0,1-0.2,1.8-0.5,2.3s-0.9,0.7-1.6,0.7c-0.7,0-1.3-0.2-1.6-0.7c-0.3-0.5-0.5-1.2-0.5-2.2V342c0-1,0.2-1.7,0.5-2.2
		s0.9-0.7,1.6-0.7s1.3,0.2,1.6,0.7s0.5,1.2,0.5,2.2V343.1z M79.5,341.9c0-0.7-0.1-1.3-0.3-1.6c-0.2-0.3-0.5-0.5-1-0.5
		c-0.4,0-0.8,0.2-1,0.5s-0.3,0.8-0.3,1.5v1.4c0,0.7,0.1,1.3,0.3,1.6c0.2,0.3,0.5,0.5,1,0.5c0.4,0,0.7-0.2,0.9-0.5s0.3-0.8,0.3-1.6
		v-1.3H79.5z M81.7,347.2l-0.5-0.3c0.3-0.4,0.4-0.8,0.5-1.3V345h0.8v0.7c0,0.3-0.1,0.6-0.2,0.9C82.2,346.9,82,347.2,81.7,347.2z
		 M87.5,343.1c0,1-0.2,1.8-0.5,2.3s-0.9,0.7-1.6,0.7c-0.7,0-1.3-0.2-1.6-0.7s-0.5-1.2-0.5-2.2V342c0-1,0.2-1.7,0.5-2.2
		s0.9-0.7,1.6-0.7c0.7,0,1.3,0.2,1.6,0.7s0.5,1.2,0.5,2.2V343.1z M86.7,341.9c0-0.7-0.1-1.3-0.3-1.6c-0.2-0.3-0.5-0.5-1-0.5
		c-0.4,0-0.8,0.2-1,0.5s-0.3,0.8-0.3,1.5v1.4c0,0.7,0.1,1.3,0.3,1.6c0.2,0.3,0.5,0.5,1,0.5c0.4,0,0.7-0.2,0.9-0.5s0.3-0.8,0.3-1.6
		v-1.3H86.7z M93.1,343.1c0,1-0.2,1.8-0.5,2.3s-0.9,0.7-1.6,0.7c-0.7,0-1.3-0.2-1.6-0.7s-0.5-1.2-0.5-2.2V342c0-1,0.2-1.7,0.5-2.2
		s0.9-0.7,1.6-0.7c0.7,0,1.3,0.2,1.6,0.7s0.5,1.2,0.5,2.2V343.1z M92.2,341.9c0-0.7-0.1-1.3-0.3-1.6c-0.2-0.3-0.5-0.5-1-0.5
		c-0.4,0-0.8,0.2-1,0.5s-0.3,0.8-0.3,1.5v1.4c0,0.7,0.1,1.3,0.3,1.6c0.2,0.3,0.5,0.5,1,0.5c0.4,0,0.7-0.2,0.9-0.5s0.3-0.8,0.3-1.6
		v-1.3H92.2z M98.7,343.1c0,1-0.2,1.8-0.5,2.3s-0.9,0.7-1.6,0.7c-0.7,0-1.3-0.2-1.6-0.7s-0.5-1.2-0.5-2.2V342c0-1,0.2-1.7,0.5-2.2
		s0.9-0.7,1.6-0.7c0.7,0,1.3,0.2,1.6,0.7s0.5,1.2,0.5,2.2V343.1z M97.8,341.9c0-0.7-0.1-1.3-0.3-1.6c-0.2-0.3-0.5-0.5-1-0.5
		c-0.4,0-0.8,0.2-1,0.5s-0.3,0.8-0.3,1.5v1.4c0,0.7,0.1,1.3,0.3,1.6c0.2,0.3,0.5,0.5,1,0.5c0.4,0,0.7-0.2,0.9-0.5s0.3-0.8,0.3-1.6
		v-1.3H97.8z"/>
	<path class="st21" d="M73.9,308.1v0.7h-0.2c-0.7,0-1.2,0.2-1.6,0.6s-0.6,0.9-0.7,1.6c0.4-0.4,0.9-0.6,1.5-0.6s1.1,0.2,1.4,0.6
		c0.4,0.4,0.5,1,0.5,1.6c0,0.7-0.2,1.3-0.6,1.7c-0.4,0.4-0.9,0.6-1.5,0.6s-1.2-0.2-1.6-0.7s-0.6-1.2-0.6-1.9V312
		c0-1.3,0.3-2.2,0.8-2.9c0.5-0.7,1.3-1,2.4-1H73.9z M72.8,311.1c-0.3,0-0.6,0.1-0.8,0.3c-0.2,0.2-0.4,0.4-0.5,0.7v0.3
		c0,0.6,0.1,1,0.4,1.4c0.3,0.3,0.6,0.5,0.9,0.5c0.4,0,0.7-0.1,0.9-0.4c0.2-0.3,0.3-0.7,0.3-1.1s-0.1-0.8-0.3-1.1
		C73.5,311.2,73.2,311.1,72.8,311.1z M80.4,312c0,1-0.2,1.8-0.5,2.3S79,315,78.3,315c-0.7,0-1.3-0.2-1.6-0.7
		c-0.3-0.5-0.5-1.2-0.5-2.2V311c0-1,0.2-1.7,0.5-2.2s0.9-0.7,1.6-0.7s1.3,0.2,1.6,0.7s0.5,1.2,0.5,2.2V312z M79.5,310.8
		c0-0.7-0.1-1.3-0.3-1.6c-0.2-0.3-0.5-0.5-1-0.5c-0.4,0-0.8,0.2-1,0.5s-0.3,0.8-0.3,1.5v1.4c0,0.7,0.1,1.3,0.3,1.6
		c0.2,0.3,0.5,0.5,1,0.5c0.4,0,0.7-0.2,0.9-0.5s0.3-0.8,0.3-1.6v-1.3H79.5z M81.7,316.2l-0.5-0.3c0.3-0.4,0.4-0.8,0.5-1.3v-0.8h0.8
		v0.7c0,0.3-0.1,0.6-0.2,0.9C82.2,315.8,82,316,81.7,316.2z M87.5,312c0,1-0.2,1.8-0.5,2.3s-0.9,0.7-1.6,0.7c-0.7,0-1.3-0.2-1.6-0.7
		s-0.5-1.2-0.5-2.2V311c0-1,0.2-1.7,0.5-2.2s0.9-0.7,1.6-0.7c0.7,0,1.3,0.2,1.6,0.7s0.5,1.2,0.5,2.2V312z M86.7,310.8
		c0-0.7-0.1-1.3-0.3-1.6c-0.2-0.3-0.5-0.5-1-0.5c-0.4,0-0.8,0.2-1,0.5s-0.3,0.8-0.3,1.5v1.4c0,0.7,0.1,1.3,0.3,1.6
		c0.2,0.3,0.5,0.5,1,0.5c0.4,0,0.7-0.2,0.9-0.5s0.3-0.8,0.3-1.6v-1.3H86.7z M93.1,312c0,1-0.2,1.8-0.5,2.3S91.7,315,91,315
		c-0.7,0-1.3-0.2-1.6-0.7s-0.5-1.2-0.5-2.2V311c0-1,0.2-1.7,0.5-2.2s0.9-0.7,1.6-0.7c0.7,0,1.3,0.2,1.6,0.7s0.5,1.2,0.5,2.2V312z
		 M92.2,310.8c0-0.7-0.1-1.3-0.3-1.6c-0.2-0.3-0.5-0.5-1-0.5c-0.4,0-0.8,0.2-1,0.5s-0.3,0.8-0.3,1.5v1.4c0,0.7,0.1,1.3,0.3,1.6
		c0.2,0.3,0.5,0.5,1,0.5c0.4,0,0.7-0.2,0.9-0.5s0.3-0.8,0.3-1.6v-1.3H92.2z M98.7,312c0,1-0.2,1.8-0.5,2.3s-0.9,0.7-1.6,0.7
		c-0.7,0-1.3-0.2-1.6-0.7s-0.5-1.2-0.5-2.2V311c0-1,0.2-1.7,0.5-2.2s0.9-0.7,1.6-0.7c0.7,0,1.3,0.2,1.6,0.7s0.5,1.2,0.5,2.2V312z
		 M97.8,310.8c0-0.7-0.1-1.3-0.3-1.6c-0.2-0.3-0.5-0.5-1-0.5c-0.4,0-0.8,0.2-1,0.5s-0.3,0.8-0.3,1.5v1.4c0,0.7,0.1,1.3,0.3,1.6
		c0.2,0.3,0.5,0.5,1,0.5c0.4,0,0.7-0.2,0.9-0.5s0.3-0.8,0.3-1.6v-1.3H97.8z"/>
	<path class="st21" d="M74.9,277.4l-2.8,6.3h-0.9l2.8-6.1h-3.7v-0.7h4.6V277.4z M80.4,280.8c0,1-0.2,1.8-0.5,2.3s-0.9,0.7-1.6,0.7
		c-0.7,0-1.3-0.2-1.6-0.7c-0.3-0.5-0.5-1.2-0.5-2.2v-1.1c0-1,0.2-1.7,0.5-2.2s0.9-0.7,1.6-0.7s1.3,0.2,1.6,0.7s0.5,1.2,0.5,2.2
		V280.8z M79.5,279.7c0-0.7-0.1-1.3-0.3-1.6c-0.2-0.3-0.5-0.5-1-0.5c-0.4,0-0.8,0.2-1,0.5s-0.3,0.8-0.3,1.5v1.4
		c0,0.7,0.1,1.3,0.3,1.6c0.2,0.3,0.5,0.5,1,0.5c0.4,0,0.7-0.2,0.9-0.5s0.3-0.8,0.3-1.6v-1.3H79.5z M81.7,285.1l-0.5-0.3
		c0.3-0.4,0.4-0.8,0.5-1.3v-0.8h0.8v0.7c0,0.3-0.1,0.6-0.2,0.9C82.2,284.6,82,284.9,81.7,285.1z M87.5,280.8c0,1-0.2,1.8-0.5,2.3
		s-0.9,0.7-1.6,0.7c-0.7,0-1.3-0.2-1.6-0.7s-0.5-1.2-0.5-2.2v-1.1c0-1,0.2-1.7,0.5-2.2s0.9-0.7,1.6-0.7c0.7,0,1.3,0.2,1.6,0.7
		s0.5,1.2,0.5,2.2V280.8z M86.7,279.7c0-0.7-0.1-1.3-0.3-1.6c-0.2-0.3-0.5-0.5-1-0.5c-0.4,0-0.8,0.2-1,0.5s-0.3,0.8-0.3,1.5v1.4
		c0,0.7,0.1,1.3,0.3,1.6c0.2,0.3,0.5,0.5,1,0.5c0.4,0,0.7-0.2,0.9-0.5s0.3-0.8,0.3-1.6v-1.3H86.7z M93.1,280.8c0,1-0.2,1.8-0.5,2.3
		s-0.9,0.7-1.6,0.7c-0.7,0-1.3-0.2-1.6-0.7s-0.5-1.2-0.5-2.2v-1.1c0-1,0.2-1.7,0.5-2.2s0.9-0.7,1.6-0.7c0.7,0,1.3,0.2,1.6,0.7
		s0.5,1.2,0.5,2.2V280.8z M92.2,279.7c0-0.7-0.1-1.3-0.3-1.6c-0.2-0.3-0.5-0.5-1-0.5c-0.4,0-0.8,0.2-1,0.5s-0.3,0.8-0.3,1.5v1.4
		c0,0.7,0.1,1.3,0.3,1.6c0.2,0.3,0.5,0.5,1,0.5c0.4,0,0.7-0.2,0.9-0.5s0.3-0.8,0.3-1.6v-1.3H92.2z M98.7,280.8c0,1-0.2,1.8-0.5,2.3
		s-0.9,0.7-1.6,0.7c-0.7,0-1.3-0.2-1.6-0.7s-0.5-1.2-0.5-2.2v-1.1c0-1,0.2-1.7,0.5-2.2s0.9-0.7,1.6-0.7c0.7,0,1.3,0.2,1.6,0.7
		s0.5,1.2,0.5,2.2V280.8z M97.8,279.7c0-0.7-0.1-1.3-0.3-1.6c-0.2-0.3-0.5-0.5-1-0.5c-0.4,0-0.8,0.2-1,0.5s-0.3,0.8-0.3,1.5v1.4
		c0,0.7,0.1,1.3,0.3,1.6c0.2,0.3,0.5,0.5,1,0.5c0.4,0,0.7-0.2,0.9-0.5s0.3-0.8,0.3-1.6v-1.3H97.8z"/>
	<path class="st21" d="M74.7,247.6c0,0.3-0.1,0.6-0.3,0.9c-0.2,0.3-0.4,0.5-0.7,0.6c0.3,0.1,0.6,0.4,0.8,0.7c0.2,0.3,0.3,0.6,0.3,1
		c0,0.6-0.2,1-0.6,1.4c-0.4,0.3-0.9,0.5-1.6,0.5s-1.2-0.2-1.6-0.5c-0.4-0.4-0.6-0.8-0.6-1.4c0-0.4,0.1-0.7,0.3-1
		c0.2-0.3,0.5-0.5,0.8-0.7c-0.3-0.1-0.5-0.4-0.7-0.6c-0.2-0.3-0.3-0.6-0.3-0.9c0-0.6,0.2-1,0.5-1.4c0.4-0.3,0.8-0.5,1.5-0.5
		c0.6,0,1.1,0.2,1.4,0.5C74.5,246.6,74.7,246.9,74.7,247.6z M74,250.7c0-0.4-0.1-0.7-0.4-0.9c-0.2-0.2-0.6-0.4-0.9-0.4
		c-0.4,0-0.7,0.1-0.9,0.4c-0.2,0.2-0.3,0.5-0.3,0.9s0.1,0.7,0.3,0.9c0.2,0.2,0.6,0.3,1,0.3s0.7-0.1,0.9-0.3
		C73.9,251.3,74,251.1,74,250.7z M72.7,246.3c-0.3,0-0.6,0.1-0.8,0.3c-0.2,0.2-0.3,0.5-0.3,0.9c0,0.3,0.1,0.6,0.3,0.8
		c0.2,0.2,0.5,0.3,0.8,0.3s0.6-0.1,0.8-0.3s0.3-0.5,0.3-0.8s-0.1-0.6-0.3-0.8C73.3,246.4,73,246.3,72.7,246.3z M80.4,249.7
		c0,1-0.2,1.8-0.5,2.3s-0.9,0.7-1.6,0.7c-0.7,0-1.3-0.2-1.6-0.7c-0.3-0.5-0.5-1.2-0.5-2.2v-1.1c0-1,0.2-1.7,0.5-2.2s0.9-0.7,1.6-0.7
		s1.3,0.2,1.6,0.7s0.5,1.2,0.5,2.2V249.7z M79.5,248.4c0-0.7-0.1-1.3-0.3-1.6c-0.2-0.3-0.5-0.5-1-0.5c-0.4,0-0.8,0.2-1,0.5
		s-0.3,0.8-0.3,1.5v1.4c0,0.7,0.1,1.3,0.3,1.6c0.2,0.3,0.5,0.5,1,0.5c0.4,0,0.7-0.2,0.9-0.5s0.3-0.8,0.3-1.6v-1.3H79.5z M81.7,253.8
		l-0.5-0.3c0.3-0.4,0.4-0.8,0.5-1.3v-0.8h0.8v0.7c0,0.3-0.1,0.6-0.2,0.9C82.2,253.4,82,253.7,81.7,253.8z M87.5,249.7
		c0,1-0.2,1.8-0.5,2.3s-0.9,0.7-1.6,0.7c-0.7,0-1.3-0.2-1.6-0.7s-0.5-1.2-0.5-2.2v-1.1c0-1,0.2-1.7,0.5-2.2s0.9-0.7,1.6-0.7
		c0.7,0,1.3,0.2,1.6,0.7s0.5,1.2,0.5,2.2V249.7z M86.7,248.4c0-0.7-0.1-1.3-0.3-1.6c-0.2-0.3-0.5-0.5-1-0.5c-0.4,0-0.8,0.2-1,0.5
		s-0.3,0.8-0.3,1.5v1.4c0,0.7,0.1,1.3,0.3,1.6c0.2,0.3,0.5,0.5,1,0.5c0.4,0,0.7-0.2,0.9-0.5s0.3-0.8,0.3-1.6v-1.3H86.7z M93.1,249.7
		c0,1-0.2,1.8-0.5,2.3s-0.9,0.7-1.6,0.7c-0.7,0-1.3-0.2-1.6-0.7s-0.5-1.2-0.5-2.2v-1.1c0-1,0.2-1.7,0.5-2.2s0.9-0.7,1.6-0.7
		c0.7,0,1.3,0.2,1.6,0.7s0.5,1.2,0.5,2.2V249.7z M92.2,248.4c0-0.7-0.1-1.3-0.3-1.6c-0.2-0.3-0.5-0.5-1-0.5c-0.4,0-0.8,0.2-1,0.5
		s-0.3,0.8-0.3,1.5v1.4c0,0.7,0.1,1.3,0.3,1.6c0.2,0.3,0.5,0.5,1,0.5c0.4,0,0.7-0.2,0.9-0.5s0.3-0.8,0.3-1.6v-1.3H92.2z M98.7,249.7
		c0,1-0.2,1.8-0.5,2.3s-0.9,0.7-1.6,0.7c-0.7,0-1.3-0.2-1.6-0.7s-0.5-1.2-0.5-2.2v-1.1c0-1,0.2-1.7,0.5-2.2s0.9-0.7,1.6-0.7
		c0.7,0,1.3,0.2,1.6,0.7s0.5,1.2,0.5,2.2V249.7z M97.8,248.4c0-0.7-0.1-1.3-0.3-1.6c-0.2-0.3-0.5-0.5-1-0.5c-0.4,0-0.8,0.2-1,0.5
		s-0.3,0.8-0.3,1.5v1.4c0,0.7,0.1,1.3,0.3,1.6c0.2,0.3,0.5,0.5,1,0.5c0.4,0,0.7-0.2,0.9-0.5s0.3-0.8,0.3-1.6v-1.3H97.8z"/>
	<path class="st21" d="M73.9,218.4c-0.2,0.2-0.4,0.4-0.6,0.5s-0.5,0.2-0.8,0.2c-0.4,0-0.7-0.1-1-0.3s-0.5-0.5-0.7-0.8
		c-0.2-0.4-0.2-0.7-0.2-1.2c0-0.4,0.1-0.9,0.2-1.2c0.2-0.4,0.4-0.6,0.7-0.8c0.3-0.2,0.7-0.3,1.1-0.3c0.7,0,1.2,0.3,1.6,0.8
		s0.6,1.2,0.6,2v0.2c0,1.3-0.3,2.3-0.8,2.9c-0.5,0.6-1.3,0.9-2.4,0.9h-0.2v-0.7h0.2c0.7,0,1.3-0.2,1.6-0.6
		C73.6,219.8,73.8,219.2,73.9,218.4z M72.5,218.4c0.3,0,0.6-0.1,0.8-0.3c0.2-0.2,0.4-0.4,0.5-0.7v-0.3c0-0.6-0.1-1-0.4-1.4
		c-0.2-0.4-0.6-0.5-0.9-0.5c-0.4,0-0.7,0.1-0.9,0.4c-0.2,0.3-0.3,0.7-0.3,1.2s0.1,0.8,0.3,1.1C71.9,218.2,72.2,218.4,72.5,218.4z
		 M80.4,218.6c0,1-0.2,1.8-0.5,2.3s-0.9,0.7-1.6,0.7c-0.7,0-1.3-0.2-1.6-0.7c-0.3-0.5-0.5-1.2-0.5-2.2v-1.1c0-1,0.2-1.7,0.5-2.2
		s0.9-0.7,1.6-0.7s1.3,0.2,1.6,0.7s0.5,1.2,0.5,2.2V218.6z M79.5,217.3c0-0.7-0.1-1.3-0.3-1.6s-0.5-0.5-1-0.5c-0.4,0-0.8,0.2-1,0.5
		s-0.3,0.8-0.3,1.5v1.4c0,0.7,0.1,1.3,0.3,1.6c0.2,0.3,0.5,0.5,1,0.5c0.4,0,0.7-0.2,0.9-0.5s0.3-0.8,0.3-1.6v-1.3L79.5,217.3
		L79.5,217.3z M81.7,222.8l-0.5-0.3c0.3-0.4,0.4-0.8,0.5-1.3v-0.8h0.8v0.7c0,0.3-0.1,0.6-0.2,0.9C82.2,222.3,82,222.6,81.7,222.8z
		 M87.5,218.6c0,1-0.2,1.8-0.5,2.3s-0.9,0.7-1.6,0.7c-0.7,0-1.3-0.2-1.6-0.7s-0.5-1.2-0.5-2.2v-1.1c0-1,0.2-1.7,0.5-2.2
		s0.9-0.7,1.6-0.7c0.7,0,1.3,0.2,1.6,0.7s0.5,1.2,0.5,2.2V218.6z M86.7,217.3c0-0.7-0.1-1.3-0.3-1.6s-0.5-0.5-1-0.5
		c-0.4,0-0.8,0.2-1,0.5s-0.3,0.8-0.3,1.5v1.4c0,0.7,0.1,1.3,0.3,1.6s0.5,0.5,1,0.5c0.4,0,0.7-0.2,0.9-0.5s0.3-0.8,0.3-1.6v-1.3
		L86.7,217.3L86.7,217.3z M93.1,218.6c0,1-0.2,1.8-0.5,2.3s-0.9,0.7-1.6,0.7c-0.7,0-1.3-0.2-1.6-0.7s-0.5-1.2-0.5-2.2v-1.1
		c0-1,0.2-1.7,0.5-2.2s0.9-0.7,1.6-0.7c0.7,0,1.3,0.2,1.6,0.7s0.5,1.2,0.5,2.2V218.6z M92.2,217.3c0-0.7-0.1-1.3-0.3-1.6
		s-0.5-0.5-1-0.5c-0.4,0-0.8,0.2-1,0.5s-0.3,0.8-0.3,1.5v1.4c0,0.7,0.1,1.3,0.3,1.6s0.5,0.5,1,0.5c0.4,0,0.7-0.2,0.9-0.5
		s0.3-0.8,0.3-1.6v-1.3L92.2,217.3L92.2,217.3z M98.7,218.6c0,1-0.2,1.8-0.5,2.3s-0.9,0.7-1.6,0.7c-0.7,0-1.3-0.2-1.6-0.7
		s-0.5-1.2-0.5-2.2v-1.1c0-1,0.2-1.7,0.5-2.2s0.9-0.7,1.6-0.7c0.7,0,1.3,0.2,1.6,0.7s0.5,1.2,0.5,2.2V218.6z M97.8,217.3
		c0-0.7-0.1-1.3-0.3-1.6s-0.5-0.5-1-0.5c-0.4,0-0.8,0.2-1,0.5s-0.3,0.8-0.3,1.5v1.4c0,0.7,0.1,1.3,0.3,1.6s0.5,0.5,1,0.5
		c0.4,0,0.7-0.2,0.9-0.5s0.3-0.8,0.3-1.6v-1.3L97.8,217.3L97.8,217.3z"/>
	<path class="st21" d="M67.8,190.2H67v-5.7l-1.7,0.6v-0.8l2.5-0.9h0.1L67.8,190.2L67.8,190.2z M74.8,187.3c0,1-0.2,1.8-0.5,2.3
		s-0.9,0.7-1.6,0.7s-1.3-0.2-1.6-0.7c-0.3-0.5-0.5-1.2-0.5-2.2v-1.1c0-1,0.2-1.7,0.5-2.2s0.9-0.7,1.6-0.7s1.3,0.2,1.6,0.7
		c0.3,0.5,0.5,1.2,0.5,2.2V187.3z M73.9,186.2c0-0.7-0.1-1.3-0.3-1.6c-0.2-0.3-0.5-0.5-1-0.5c-0.4,0-0.8,0.2-1,0.5s-0.3,0.8-0.3,1.5
		v1.4c0,0.7,0.1,1.3,0.3,1.6c0.2,0.3,0.5,0.5,1,0.5c0.4,0,0.7-0.2,0.9-0.5c0.2-0.3,0.3-0.8,0.3-1.6L73.9,186.2L73.9,186.2z
		 M80.4,187.3c0,1-0.2,1.8-0.5,2.3s-0.9,0.7-1.6,0.7c-0.7,0-1.3-0.2-1.6-0.7c-0.3-0.5-0.5-1.2-0.5-2.2v-1.1c0-1,0.2-1.7,0.5-2.2
		s0.9-0.7,1.6-0.7s1.3,0.2,1.6,0.7s0.5,1.2,0.5,2.2V187.3z M79.5,186.2c0-0.7-0.1-1.3-0.3-1.6s-0.5-0.5-1-0.5c-0.4,0-0.8,0.2-1,0.5
		s-0.3,0.8-0.3,1.5v1.4c0,0.7,0.1,1.3,0.3,1.6c0.2,0.3,0.5,0.5,1,0.5c0.4,0,0.7-0.2,0.9-0.5s0.3-0.8,0.3-1.6v-1.3L79.5,186.2
		L79.5,186.2z M81.7,191.6l-0.5-0.3c0.3-0.4,0.4-0.8,0.5-1.3v-0.8h0.8v0.7c0,0.3-0.1,0.6-0.2,0.9C82.2,191.1,82,191.4,81.7,191.6z
		 M87.5,187.3c0,1-0.2,1.8-0.5,2.3s-0.9,0.7-1.6,0.7c-0.7,0-1.3-0.2-1.6-0.7s-0.5-1.2-0.5-2.2v-1.1c0-1,0.2-1.7,0.5-2.2
		s0.9-0.7,1.6-0.7c0.7,0,1.3,0.2,1.6,0.7s0.5,1.2,0.5,2.2V187.3z M86.7,186.2c0-0.7-0.1-1.3-0.3-1.6s-0.5-0.5-1-0.5
		c-0.4,0-0.8,0.2-1,0.5s-0.3,0.8-0.3,1.5v1.4c0,0.7,0.1,1.3,0.3,1.6s0.5,0.5,1,0.5c0.4,0,0.7-0.2,0.9-0.5s0.3-0.8,0.3-1.6v-1.3
		L86.7,186.2L86.7,186.2z M93.1,187.3c0,1-0.2,1.8-0.5,2.3s-0.9,0.7-1.6,0.7c-0.7,0-1.3-0.2-1.6-0.7s-0.5-1.2-0.5-2.2v-1.1
		c0-1,0.2-1.7,0.5-2.2s0.9-0.7,1.6-0.7c0.7,0,1.3,0.2,1.6,0.7s0.5,1.2,0.5,2.2V187.3z M92.2,186.2c0-0.7-0.1-1.3-0.3-1.6
		s-0.5-0.5-1-0.5c-0.4,0-0.8,0.2-1,0.5s-0.3,0.8-0.3,1.5v1.4c0,0.7,0.1,1.3,0.3,1.6s0.5,0.5,1,0.5c0.4,0,0.7-0.2,0.9-0.5
		s0.3-0.8,0.3-1.6v-1.3L92.2,186.2L92.2,186.2z M98.7,187.3c0,1-0.2,1.8-0.5,2.3s-0.9,0.7-1.6,0.7c-0.7,0-1.3-0.2-1.6-0.7
		s-0.5-1.2-0.5-2.2v-1.1c0-1,0.2-1.7,0.5-2.2s0.9-0.7,1.6-0.7c0.7,0,1.3,0.2,1.6,0.7s0.5,1.2,0.5,2.2V187.3z M97.8,186.2
		c0-0.7-0.1-1.3-0.3-1.6s-0.5-0.5-1-0.5c-0.4,0-0.8,0.2-1,0.5s-0.3,0.8-0.3,1.5v1.4c0,0.7,0.1,1.3,0.3,1.6s0.5,0.5,1,0.5
		c0.4,0,0.7-0.2,0.9-0.5s0.3-0.8,0.3-1.6v-1.3L97.8,186.2L97.8,186.2z"/>
	<path class="st21" d="M67.8,159.1H67v-5.7l-1.7,0.6v-0.8l2.5-0.9h0.1L67.8,159.1L67.8,159.1z M73.4,159.1h-0.9v-5.7l-1.7,0.6v-0.8
		l2.5-0.9h0.1V159.1z M80.4,156.2c0,1-0.2,1.8-0.5,2.3s-0.9,0.7-1.6,0.7c-0.7,0-1.3-0.2-1.6-0.7c-0.3-0.5-0.5-1.2-0.5-2.2v-1.1
		c0-1,0.2-1.7,0.5-2.2s0.9-0.7,1.6-0.7s1.3,0.2,1.6,0.7s0.5,1.2,0.5,2.2V156.2z M79.5,155.1c0-0.7-0.1-1.3-0.3-1.6s-0.5-0.5-1-0.5
		c-0.4,0-0.8,0.2-1,0.5s-0.3,0.8-0.3,1.5v1.4c0,0.7,0.1,1.3,0.3,1.6c0.2,0.3,0.5,0.5,1,0.5c0.4,0,0.7-0.2,0.9-0.5s0.3-0.8,0.3-1.6
		V155L79.5,155.1L79.5,155.1z M81.7,160.6l-0.5-0.3c0.3-0.4,0.4-0.8,0.5-1.3v-0.8h0.8v0.7c0,0.3-0.1,0.6-0.2,0.9
		C82.2,160.1,82,160.3,81.7,160.6z M87.5,156.2c0,1-0.2,1.8-0.5,2.3s-0.9,0.7-1.6,0.7c-0.7,0-1.3-0.2-1.6-0.7s-0.5-1.2-0.5-2.2v-1.1
		c0-1,0.2-1.7,0.5-2.2s0.9-0.7,1.6-0.7c0.7,0,1.3,0.2,1.6,0.7s0.5,1.2,0.5,2.2V156.2z M86.7,155.1c0-0.7-0.1-1.3-0.3-1.6
		s-0.5-0.5-1-0.5c-0.4,0-0.8,0.2-1,0.5s-0.3,0.8-0.3,1.5v1.4c0,0.7,0.1,1.3,0.3,1.6s0.5,0.5,1,0.5c0.4,0,0.7-0.2,0.9-0.5
		s0.3-0.8,0.3-1.6V155L86.7,155.1L86.7,155.1z M93.1,156.2c0,1-0.2,1.8-0.5,2.3s-0.9,0.7-1.6,0.7c-0.7,0-1.3-0.2-1.6-0.7
		s-0.5-1.2-0.5-2.2v-1.1c0-1,0.2-1.7,0.5-2.2s0.9-0.7,1.6-0.7c0.7,0,1.3,0.2,1.6,0.7s0.5,1.2,0.5,2.2V156.2z M92.2,155.1
		c0-0.7-0.1-1.3-0.3-1.6s-0.5-0.5-1-0.5c-0.4,0-0.8,0.2-1,0.5s-0.3,0.8-0.3,1.5v1.4c0,0.7,0.1,1.3,0.3,1.6s0.5,0.5,1,0.5
		c0.4,0,0.7-0.2,0.9-0.5s0.3-0.8,0.3-1.6V155L92.2,155.1L92.2,155.1z M98.7,156.2c0,1-0.2,1.8-0.5,2.3s-0.9,0.7-1.6,0.7
		c-0.7,0-1.3-0.2-1.6-0.7s-0.5-1.2-0.5-2.2v-1.1c0-1,0.2-1.7,0.5-2.2s0.9-0.7,1.6-0.7c0.7,0,1.3,0.2,1.6,0.7s0.5,1.2,0.5,2.2V156.2z
		 M97.8,155.1c0-0.7-0.1-1.3-0.3-1.6s-0.5-0.5-1-0.5c-0.4,0-0.8,0.2-1,0.5s-0.3,0.8-0.3,1.5v1.4c0,0.7,0.1,1.3,0.3,1.6
		s0.5,0.5,1,0.5c0.4,0,0.7-0.2,0.9-0.5s0.3-0.8,0.3-1.6V155L97.8,155.1L97.8,155.1z"/>
	<path class="st21" d="M130.9,543.2l1.8-3.4h1l-2.3,4.2v2.5h-0.9V544l-2.3-4.2h1L130.9,543.2z M137.4,546c-0.3,0.4-0.8,0.6-1.5,0.6
		c-0.5,0-0.9-0.2-1.2-0.5s-0.4-0.8-0.4-1.4v-3.3h0.9v3.3c0,0.8,0.3,1.2,0.9,1.2c0.7,0,1.1-0.2,1.3-0.7v-3.7h0.9v5h-0.8L137.4,546z
		 M139.6,544c0-0.8,0.2-1.4,0.5-1.9c0.4-0.5,0.8-0.7,1.4-0.7c0.6,0,1.1,0.2,1.4,0.6v-0.6h0.8v4.9c0,0.7-0.2,1.2-0.6,1.5
		c-0.4,0.4-0.9,0.6-1.6,0.6c-0.4,0-0.7-0.1-1.1-0.2c-0.3-0.2-0.6-0.4-0.8-0.6l0.4-0.5c0.4,0.5,0.8,0.7,1.4,0.7c0.4,0,0.7-0.1,1-0.4
		c0.2-0.2,0.4-0.6,0.4-1V546c-0.3,0.4-0.8,0.6-1.4,0.6c-0.6,0-1.1-0.2-1.4-0.7C139.8,545.5,139.6,544.8,139.6,544z M140.5,544
		c0,0.6,0.1,1,0.3,1.3s0.6,0.5,1,0.5c0.5,0,0.9-0.2,1.2-0.7v-2.3c-0.3-0.5-0.7-0.7-1.2-0.7c-0.4,0-0.7,0.2-1,0.5
		C140.6,543,140.5,543.5,140.5,544z M148.5,546.5c0-0.1-0.1-0.3-0.1-0.5c-0.4,0.4-0.9,0.6-1.4,0.6s-0.9-0.1-1.2-0.4
		c-0.3-0.3-0.5-0.6-0.5-1.1s0.2-0.9,0.6-1.2s1-0.4,1.7-0.4h0.8v-0.4c0-0.3-0.1-0.5-0.3-0.7s-0.4-0.3-0.8-0.3c-0.3,0-0.6,0.1-0.8,0.2
		c-0.2,0.1-0.3,0.3-0.3,0.6h-0.9c0-0.3,0.1-0.5,0.3-0.7s0.4-0.4,0.7-0.5s0.6-0.2,1-0.2c0.6,0,1,0.1,1.4,0.4c0.3,0.3,0.5,0.7,0.5,1.2
		v2.3c0,0.5,0.1,0.8,0.2,1.1v0.1L148.5,546.5L148.5,546.5z M147.1,545.9c0.3,0,0.5-0.1,0.8-0.2c0.2-0.1,0.4-0.3,0.5-0.5v-1h-0.7
		c-1.1,0-1.6,0.3-1.6,0.9c0,0.3,0.1,0.5,0.3,0.6C146.5,545.8,146.8,545.9,147.1,545.9z M155.2,544c0,0.8-0.2,1.4-0.5,1.9
		s-0.8,0.7-1.4,0.7c-0.6,0-1.1-0.2-1.5-0.7v0.6H151v-7.2h0.9v2.7c0.3-0.4,0.8-0.6,1.4-0.6s1.1,0.2,1.4,0.7
		C155,542.5,155.2,543.2,155.2,544L155.2,544z M154.3,544c0-0.6-0.1-1-0.3-1.4c-0.2-0.3-0.5-0.5-1-0.5c-0.6,0-1,0.3-1.2,0.8v2.2
		c0.3,0.5,0.7,0.8,1.2,0.8c0.4,0,0.7-0.2,1-0.5S154.3,544.5,154.3,544z M158.1,545.2l1.2-3.8h0.9l-2,5.8c-0.3,0.8-0.8,1.3-1.5,1.3
		h-0.2l-0.3-0.1v-0.7h0.2c0.3,0,0.5-0.1,0.7-0.2c0.2-0.1,0.3-0.3,0.4-0.6l0.2-0.5l-1.8-5h0.9L158.1,545.2z M162.4,540.2v1.2h0.9v0.7
		h-0.9v3.1c0,0.2,0,0.4,0.1,0.5s0.2,0.1,0.4,0.1c0.1,0,0.2,0,0.4,0v0.7c-0.2,0.1-0.4,0.1-0.7,0.1c-0.4,0-0.7-0.1-0.9-0.3
		s-0.3-0.6-0.3-1v-3.1h-0.9v-0.7h0.9v-1.2L162.4,540.2L162.4,540.2z M166.5,546.7c-0.7,0-1.2-0.2-1.7-0.7c-0.4-0.5-0.6-1.1-0.6-1.8
		V544c0-0.5,0.1-1,0.3-1.3c0.2-0.4,0.5-0.7,0.8-0.9s0.7-0.3,1.1-0.3c0.7,0,1.2,0.2,1.5,0.6c0.4,0.4,0.5,1,0.5,1.9v0.4H165
		c0,0.5,0.2,0.9,0.4,1.2c0.3,0.3,0.6,0.5,1.1,0.5c0.3,0,0.6-0.1,0.8-0.2c0.2-0.1,0.4-0.3,0.6-0.5l0.5,0.4
		C168,546.2,167.4,546.7,166.5,546.7z M166.4,542c-0.3,0-0.6,0.1-0.9,0.4c-0.2,0.2-0.4,0.6-0.4,1.1h2.5v-0.1c0-0.4-0.1-0.8-0.4-1
		C167.1,542.2,166.8,542,166.4,542z M171.7,546.5v-6.8h1.9c0.6,0,1.1,0.1,1.6,0.4c0.5,0.3,0.8,0.6,1.1,1.1c0.2,0.5,0.4,1,0.4,1.7
		v0.4c0,0.6-0.1,1.2-0.4,1.7c-0.2,0.5-0.6,0.8-1.1,1.1s-1,0.4-1.6,0.4L171.7,546.5L171.7,546.5z M172.6,540.5v5.3h0.9
		c0.7,0,1.2-0.2,1.6-0.6c0.4-0.4,0.6-1,0.6-1.8V543c0-0.8-0.2-1.4-0.5-1.8c-0.4-0.4-0.9-0.6-1.5-0.7H172.6z M178.1,546.5v-6.8h2.2
		c0.7,0,1.3,0.2,1.7,0.5s0.6,0.7,0.6,1.3c0,0.3-0.1,0.6-0.3,0.9c-0.2,0.2-0.4,0.4-0.7,0.6c0.4,0.1,0.7,0.3,0.9,0.6s0.3,0.6,0.3,1
		c0,0.6-0.2,1.1-0.6,1.4c-0.4,0.3-0.9,0.5-1.7,0.5H178.1z M179,543.4v2.4h1.5c0.4,0,0.8-0.1,1-0.3s0.4-0.5,0.4-0.9
		c0-0.8-0.4-1.2-1.3-1.2H179z M179,542.7h1.4c0.4,0,0.7-0.1,0.9-0.3s0.4-0.5,0.4-0.8c0-0.4-0.1-0.6-0.3-0.8s-0.5-0.3-1-0.3H179
		V542.7z M188.1,543.2l1.8-3.4h1l-2.3,4.2v2.5h-0.9V544l-2.3-4.2h1L188.1,543.2z M196.6,544.4c-0.1,0.7-0.3,1.3-0.8,1.7
		c-0.4,0.4-1,0.6-1.8,0.6s-1.4-0.3-1.9-0.9c-0.5-0.6-0.7-1.4-0.7-2.3v-0.6c0-0.6,0.1-1.2,0.3-1.7s0.5-0.8,1-1.1
		c0.4-0.3,0.9-0.4,1.4-0.4c0.7,0,1.3,0.2,1.7,0.6c0.4,0.4,0.7,1,0.8,1.7h-0.9c-0.1-0.5-0.3-0.9-0.5-1.2s-0.6-0.4-1.1-0.4
		c-0.6,0-1,0.2-1.3,0.6c-0.3,0.4-0.5,1-0.5,1.8v0.7c0,0.7,0.2,1.3,0.5,1.8c0.3,0.4,0.7,0.6,1.3,0.6c0.5,0,0.9-0.1,1.1-0.3
		c0.3-0.2,0.4-0.6,0.5-1.2L196.6,544.4L196.6,544.4z M203.1,543.4c0,0.7-0.1,1.2-0.3,1.7s-0.5,0.8-0.9,1.1l1.2,1l-0.6,0.6l-1.4-1.1
		c-0.2,0.1-0.5,0.1-0.7,0.1c-0.5,0-1-0.1-1.4-0.4c-0.4-0.3-0.7-0.6-1-1.1c-0.2-0.5-0.3-1.1-0.3-1.7V543c0-0.7,0.1-1.2,0.3-1.7
		s0.6-0.9,1-1.1c0.4-0.3,0.9-0.4,1.4-0.4s1,0.1,1.4,0.4c0.4,0.3,0.7,0.6,1,1.1c0.2,0.5,0.3,1.1,0.3,1.7V543.4z M202.2,543
		c0-0.8-0.2-1.4-0.5-1.8c-0.3-0.4-0.8-0.7-1.4-0.7c-0.6,0-1,0.2-1.3,0.6c-0.3,0.4-0.5,1-0.5,1.8v0.5c0,0.8,0.2,1.4,0.5,1.8
		s0.8,0.7,1.4,0.7c0.6,0,1-0.2,1.3-0.6c0.3-0.4,0.5-1,0.5-1.8V543z M205.2,545.8h3.2v0.7h-4.1v-6.8h0.9L205.2,545.8L205.2,545.8z
		 M214,543.8h-1.6v2.7h-0.9v-6.8h2.2c0.8,0,1.3,0.2,1.8,0.5c0.4,0.3,0.6,0.9,0.6,1.5c0,0.4-0.1,0.8-0.3,1.1
		c-0.2,0.3-0.5,0.6-0.9,0.7l1.6,2.9v0.1h-1L214,543.8z M212.4,543h1.4c0.4,0,0.8-0.1,1.1-0.3c0.3-0.2,0.4-0.5,0.4-0.9
		s-0.1-0.7-0.4-1c-0.2-0.2-0.6-0.3-1.1-0.3h-1.4V543z M219,546.7c-0.7,0-1.2-0.2-1.7-0.7c-0.4-0.5-0.6-1.1-0.6-1.8V544
		c0-0.5,0.1-1,0.3-1.3c0.2-0.4,0.5-0.7,0.8-0.9s0.7-0.3,1.1-0.3c0.7,0,1.2,0.2,1.5,0.6c0.4,0.4,0.5,1,0.5,1.9v0.4h-3.4
		c0,0.5,0.2,0.9,0.4,1.2c0.3,0.3,0.6,0.5,1.1,0.5c0.3,0,0.6-0.1,0.8-0.2c0.2-0.1,0.4-0.3,0.6-0.5l0.5,0.4
		C220.5,546.2,219.8,546.7,219,546.7z M218.9,542c-0.3,0-0.6,0.1-0.9,0.4c-0.2,0.2-0.4,0.6-0.4,1.1h2.5v-0.1c0-0.4-0.1-0.8-0.4-1
		C219.5,542.2,219.2,542,218.9,542z M224.8,546.5c0-0.1-0.1-0.3-0.1-0.5c-0.4,0.4-0.9,0.6-1.4,0.6s-0.9-0.1-1.2-0.4
		c-0.3-0.3-0.5-0.6-0.5-1.1s0.2-0.9,0.6-1.2s1-0.4,1.7-0.4h0.8v-0.4c0-0.3-0.1-0.5-0.3-0.7c-0.2-0.2-0.4-0.3-0.8-0.3
		c-0.3,0-0.6,0.1-0.8,0.2c-0.2,0.1-0.3,0.3-0.3,0.6h-0.9c0-0.3,0.1-0.5,0.3-0.7c0.2-0.2,0.4-0.4,0.7-0.5c0.3-0.1,0.6-0.2,1-0.2
		c0.6,0,1,0.1,1.4,0.4c0.3,0.3,0.5,0.7,0.5,1.2v2.3c0,0.5,0.1,0.8,0.2,1.1v0.1L224.8,546.5L224.8,546.5z M223.4,545.9
		c0.3,0,0.5-0.1,0.8-0.2c0.2-0.1,0.4-0.3,0.5-0.5v-1H224c-1.1,0-1.6,0.3-1.6,0.9c0,0.3,0.1,0.5,0.3,0.6
		C222.8,545.8,223.1,545.9,223.4,545.9z M227,544c0-0.8,0.2-1.4,0.5-1.9c0.4-0.5,0.8-0.7,1.4-0.7s1.1,0.2,1.4,0.6v-2.6h0.9v7.2h-0.8
		V546c-0.3,0.4-0.8,0.6-1.4,0.6s-1.1-0.2-1.4-0.7C227.2,545.5,227,544.8,227,544L227,544z M227.9,544c0,0.6,0.1,1,0.3,1.3
		c0.2,0.3,0.6,0.5,1,0.5c0.5,0,0.9-0.2,1.2-0.7v-2.3c-0.3-0.5-0.7-0.7-1.2-0.7c-0.4,0-0.8,0.2-1,0.5C228,543,227.9,543.5,227.9,544z
		 M235.7,545.2c0-0.2-0.1-0.4-0.3-0.5c-0.2-0.1-0.5-0.2-0.9-0.3s-0.8-0.2-1-0.3c-0.3-0.1-0.4-0.3-0.6-0.5c-0.1-0.2-0.2-0.4-0.2-0.6
		c0-0.4,0.2-0.8,0.5-1c0.3-0.3,0.8-0.4,1.3-0.4c0.6,0,1,0.1,1.4,0.4c0.4,0.3,0.5,0.7,0.5,1.1h-0.9c0-0.2-0.1-0.4-0.3-0.6
		c-0.2-0.2-0.4-0.3-0.7-0.3c-0.3,0-0.6,0.1-0.7,0.2c-0.2,0.1-0.3,0.3-0.3,0.5s0.1,0.4,0.2,0.5c0.2,0.1,0.5,0.2,0.9,0.3
		s0.8,0.2,1,0.3c0.3,0.1,0.5,0.3,0.6,0.5s0.2,0.4,0.2,0.7c0,0.5-0.2,0.8-0.5,1.1c-0.4,0.3-0.8,0.4-1.4,0.4c-0.4,0-0.8-0.1-1.1-0.2
		c-0.3-0.1-0.5-0.4-0.7-0.6s-0.3-0.5-0.3-0.8h0.9c0,0.3,0.1,0.5,0.3,0.7c0.2,0.2,0.5,0.2,0.9,0.2c0.3,0,0.6-0.1,0.8-0.2
		C235.6,545.5,235.7,545.4,235.7,545.2z M239.9,543.8c0-0.7,0.1-1.4,0.3-2c0.2-0.6,0.5-1.2,0.8-1.8c0.4-0.5,0.8-0.9,1.2-1.1l0.2,0.6
		c-0.5,0.3-0.8,0.9-1.1,1.6c-0.3,0.7-0.4,1.5-0.5,2.4v0.4c0,1.2,0.2,2.2,0.7,3.1c0.3,0.5,0.6,0.9,0.9,1.2l-0.2,0.5
		c-0.4-0.2-0.8-0.6-1.2-1.2C240.3,546.5,239.9,545.2,239.9,543.8z M245.9,546.5H245v-5.7l-1.7,0.6v-0.8l2.5-0.9h0.1V546.5z
		 M249.5,541.5v0.6c0.4-0.4,0.9-0.6,1.5-0.6c0.7,0,1.2,0.3,1.4,0.8c0.2-0.2,0.4-0.4,0.6-0.6c0.3-0.1,0.6-0.2,1-0.2
		c1.1,0,1.7,0.6,1.7,1.8v3.4h-0.9v-3.3c0-0.4-0.1-0.6-0.2-0.8c-0.2-0.2-0.4-0.3-0.8-0.3c-0.3,0-0.6,0.1-0.8,0.3
		c-0.2,0.2-0.3,0.4-0.4,0.8v3.3h-0.9v-3.3c0-0.7-0.4-1.1-1.1-1.1c-0.6,0-0.9,0.2-1.2,0.7v3.7h-0.9v-5h1L249.5,541.5L249.5,541.5z
		 M260.4,545.2c0-0.2-0.1-0.4-0.3-0.5c-0.2-0.1-0.5-0.2-0.9-0.3s-0.8-0.2-1-0.3c-0.3-0.1-0.4-0.3-0.6-0.5c-0.1-0.2-0.2-0.4-0.2-0.6
		c0-0.4,0.2-0.8,0.5-1c0.3-0.3,0.8-0.4,1.3-0.4c0.6,0,1,0.1,1.4,0.4c0.4,0.3,0.5,0.7,0.5,1.1h-0.9c0-0.2-0.1-0.4-0.3-0.6
		c-0.2-0.2-0.4-0.3-0.7-0.3c-0.3,0-0.6,0.1-0.7,0.2c-0.2,0.1-0.3,0.3-0.3,0.5s0.1,0.4,0.2,0.5c0.2,0.1,0.5,0.2,0.9,0.3
		s0.8,0.2,1,0.3c0.3,0.1,0.5,0.3,0.6,0.5s0.2,0.4,0.2,0.7c0,0.5-0.2,0.8-0.5,1.1c-0.4,0.3-0.8,0.4-1.4,0.4c-0.4,0-0.8-0.1-1.1-0.2
		c-0.3-0.1-0.5-0.4-0.7-0.6s-0.3-0.5-0.3-0.8h0.9c0,0.3,0.1,0.5,0.3,0.7c0.2,0.2,0.5,0.2,0.9,0.2c0.3,0,0.6-0.1,0.8-0.2
		C260.3,545.5,260.4,545.4,260.4,545.2z M265.5,546.5h-0.9v-7.2h0.9V546.5z M270.1,546.5c0-0.1-0.1-0.3-0.1-0.5
		c-0.4,0.4-0.9,0.6-1.4,0.6s-0.9-0.1-1.2-0.4c-0.3-0.3-0.5-0.6-0.5-1.1s0.2-0.9,0.6-1.2s1-0.4,1.7-0.4h0.8v-0.4
		c0-0.3-0.1-0.5-0.3-0.7c-0.2-0.2-0.4-0.3-0.8-0.3c-0.3,0-0.6,0.1-0.8,0.2c-0.2,0.1-0.3,0.3-0.3,0.6h-0.9c0-0.3,0.1-0.5,0.3-0.7
		c0.2-0.2,0.4-0.4,0.7-0.5c0.3-0.1,0.6-0.2,1-0.2c0.6,0,1,0.1,1.4,0.4c0.3,0.3,0.5,0.7,0.5,1.2v2.3c0,0.5,0.1,0.8,0.2,1.1v0.1
		L270.1,546.5L270.1,546.5z M268.7,545.9c0.3,0,0.5-0.1,0.8-0.2c0.2-0.1,0.4-0.3,0.5-0.5v-1h-0.7c-1.1,0-1.6,0.3-1.6,0.9
		c0,0.3,0.1,0.5,0.3,0.6C268.1,545.8,268.4,545.9,268.7,545.9z M273.7,540.2v1.2h0.9v0.7h-0.9v3.1c0,0.2,0,0.4,0.1,0.5
		s0.2,0.1,0.4,0.1c0.1,0,0.2,0,0.4,0v0.7c-0.2,0.1-0.4,0.1-0.7,0.1c-0.4,0-0.7-0.1-0.9-0.3c-0.2-0.2-0.3-0.6-0.3-1v-3.1h-0.9v-0.7
		h0.9v-1.2L273.7,540.2L273.7,540.2z M277.8,546.7c-0.7,0-1.2-0.2-1.7-0.7c-0.4-0.5-0.6-1.1-0.6-1.8V544c0-0.5,0.1-1,0.3-1.3
		c0.2-0.4,0.5-0.7,0.8-0.9s0.7-0.3,1.1-0.3c0.7,0,1.2,0.2,1.5,0.6c0.4,0.4,0.5,1,0.5,1.9v0.4h-3.4c0,0.5,0.2,0.9,0.4,1.2
		c0.3,0.3,0.6,0.5,1.1,0.5c0.3,0,0.6-0.1,0.8-0.2c0.2-0.1,0.4-0.3,0.6-0.5l0.5,0.4C279.3,546.2,278.7,546.7,277.8,546.7z M277.7,542
		c-0.3,0-0.6,0.1-0.9,0.4c-0.2,0.2-0.4,0.6-0.4,1.1h2.5v-0.1c0-0.4-0.1-0.8-0.4-1C278.3,542.2,278.1,542,277.7,542z M281.3,541.5
		v0.6c0.4-0.5,0.9-0.7,1.5-0.7c1.1,0,1.6,0.6,1.6,1.8v3.3h-0.9v-3.3c0-0.4-0.1-0.6-0.2-0.8c-0.2-0.2-0.4-0.3-0.8-0.3
		c-0.3,0-0.5,0.1-0.7,0.2c-0.2,0.1-0.4,0.3-0.5,0.6v3.6h-0.9v-5L281.3,541.5L281.3,541.5z M288.1,546c0.3,0,0.6-0.1,0.8-0.3
		c0.2-0.2,0.4-0.4,0.4-0.7h0.8c0,0.3-0.1,0.6-0.3,0.8c-0.2,0.3-0.4,0.5-0.7,0.6c-0.3,0.2-0.6,0.2-1,0.2c-0.7,0-1.2-0.2-1.6-0.7
		s-0.6-1.1-0.6-1.9v-0.1c0-0.5,0.1-0.9,0.3-1.3c0.2-0.4,0.4-0.7,0.8-0.9c0.3-0.2,0.7-0.3,1.2-0.3c0.6,0,1,0.2,1.4,0.5
		s0.6,0.8,0.6,1.3h-0.8c0-0.3-0.1-0.6-0.4-0.8c-0.2-0.2-0.5-0.3-0.8-0.3c-0.4,0-0.8,0.2-1,0.5s-0.4,0.8-0.4,1.4v0.2
		c0,0.6,0.1,1,0.4,1.3S287.6,546,288.1,546z M292.5,545.2l1.2-3.8h0.9l-2,5.8c-0.3,0.8-0.8,1.3-1.5,1.3h-0.2l-0.3-0.1v-0.7h0.2
		c0.3,0,0.5-0.1,0.7-0.2c0.2-0.1,0.3-0.3,0.4-0.6l0.2-0.5l-1.8-5h0.9L292.5,545.2z M297.6,543.9c0,0.7-0.1,1.4-0.3,2
		c-0.2,0.6-0.5,1.2-0.8,1.8c-0.4,0.5-0.8,0.9-1.2,1.1l-0.2-0.5c0.5-0.4,0.9-0.9,1.2-1.7c0.3-0.8,0.4-1.6,0.4-2.6v-0.1
		c0-0.7-0.1-1.3-0.2-1.8c-0.1-0.6-0.3-1.1-0.6-1.5c-0.2-0.4-0.5-0.8-0.8-1l0.2-0.5c0.4,0.2,0.8,0.6,1.2,1.1s0.6,1.1,0.8,1.8
		C297.5,542.4,297.6,543,297.6,543.9z"/>
	<path class="st21" d="M315,543.2l1.8-3.4h1l-2.3,4.2v2.5h-0.9V544l-2.3-4.2h1L315,543.2z M321.5,546c-0.3,0.4-0.8,0.6-1.5,0.6
		c-0.5,0-0.9-0.2-1.2-0.5c-0.3-0.3-0.4-0.8-0.4-1.4v-3.3h0.9v3.3c0,0.8,0.3,1.2,0.9,1.2c0.7,0,1.1-0.2,1.3-0.7v-3.7h0.9v5h-0.8
		L321.5,546z M323.7,544c0-0.8,0.2-1.4,0.5-1.9c0.4-0.5,0.8-0.7,1.4-0.7s1.1,0.2,1.4,0.6v-0.6h0.8v4.9c0,0.7-0.2,1.2-0.6,1.5
		c-0.4,0.4-0.9,0.6-1.6,0.6c-0.4,0-0.7-0.1-1.1-0.2c-0.3-0.2-0.6-0.4-0.8-0.6l0.4-0.5c0.4,0.5,0.8,0.7,1.4,0.7c0.4,0,0.7-0.1,1-0.4
		c0.2-0.2,0.4-0.6,0.4-1V546c-0.3,0.4-0.8,0.6-1.4,0.6s-1.1-0.2-1.4-0.7C323.9,545.5,323.7,544.8,323.7,544z M324.6,544
		c0,0.6,0.1,1,0.3,1.3c0.2,0.3,0.6,0.5,1,0.5c0.5,0,0.9-0.2,1.2-0.7v-2.3c-0.3-0.5-0.7-0.7-1.2-0.7c-0.4,0-0.7,0.2-1,0.5
		C324.7,543,324.6,543.5,324.6,544z M332.6,546.5c0-0.1-0.1-0.3-0.1-0.5c-0.4,0.4-0.9,0.6-1.4,0.6s-0.9-0.1-1.2-0.4
		c-0.3-0.3-0.5-0.6-0.5-1.1s0.2-0.9,0.6-1.2s1-0.4,1.7-0.4h0.8v-0.4c0-0.3-0.1-0.5-0.3-0.7c-0.2-0.2-0.4-0.3-0.8-0.3
		c-0.3,0-0.6,0.1-0.8,0.2c-0.2,0.1-0.3,0.3-0.3,0.6h-0.9c0-0.3,0.1-0.5,0.3-0.7c0.2-0.2,0.4-0.4,0.7-0.5c0.3-0.1,0.6-0.2,1-0.2
		c0.6,0,1,0.1,1.4,0.4c0.3,0.3,0.5,0.7,0.5,1.2v2.3c0,0.5,0.1,0.8,0.2,1.1v0.1L332.6,546.5L332.6,546.5z M331.2,545.9
		c0.3,0,0.5-0.1,0.8-0.2c0.2-0.1,0.4-0.3,0.5-0.5v-1h-0.7c-1.1,0-1.6,0.3-1.6,0.9c0,0.3,0.1,0.5,0.3,0.6
		C330.6,545.8,330.9,545.9,331.2,545.9z M339.3,544c0,0.8-0.2,1.4-0.5,1.9s-0.8,0.7-1.4,0.7s-1.1-0.2-1.5-0.7v0.6H335v-7.2h0.9v2.7
		c0.3-0.4,0.8-0.6,1.4-0.6s1.1,0.2,1.4,0.7C339.1,542.5,339.3,543.2,339.3,544L339.3,544z M338.4,544c0-0.6-0.1-1-0.3-1.4
		c-0.2-0.3-0.5-0.5-1-0.5c-0.6,0-1,0.3-1.2,0.8v2.2c0.3,0.5,0.7,0.8,1.2,0.8c0.4,0,0.7-0.2,1-0.5C338.3,545,338.4,544.5,338.4,544z
		 M342.2,545.2l1.2-3.8h0.9l-2,5.8c-0.3,0.8-0.8,1.3-1.5,1.3h-0.2l-0.3-0.1v-0.7h0.2c0.3,0,0.5-0.1,0.7-0.2c0.2-0.1,0.3-0.3,0.4-0.6
		l0.2-0.5l-1.8-5h0.9L342.2,545.2z M346.5,540.2v1.2h0.9v0.7h-0.9v3.1c0,0.2,0,0.4,0.1,0.5s0.2,0.1,0.4,0.1c0.1,0,0.2,0,0.4,0v0.7
		c-0.2,0.1-0.4,0.1-0.7,0.1c-0.4,0-0.7-0.1-0.9-0.3c-0.2-0.2-0.3-0.6-0.3-1v-3.1h-0.9v-0.7h0.9v-1.2L346.5,540.2L346.5,540.2z
		 M350.6,546.7c-0.7,0-1.2-0.2-1.7-0.7c-0.4-0.5-0.6-1.1-0.6-1.8V544c0-0.5,0.1-1,0.3-1.3c0.2-0.4,0.5-0.7,0.8-0.9s0.7-0.3,1.1-0.3
		c0.7,0,1.2,0.2,1.5,0.6c0.4,0.4,0.5,1,0.5,1.9v0.4h-3.4c0,0.5,0.2,0.9,0.4,1.2c0.3,0.3,0.6,0.5,1.1,0.5c0.3,0,0.6-0.1,0.8-0.2
		c0.2-0.1,0.4-0.3,0.6-0.5l0.5,0.4C352.1,546.2,351.5,546.7,350.6,546.7z M350.5,542c-0.3,0-0.6,0.1-0.9,0.4
		c-0.2,0.2-0.4,0.6-0.4,1.1h2.5v-0.1c0-0.4-0.1-0.8-0.4-1C351.2,542.2,350.9,542,350.5,542z M355.8,546.5v-6.8h1.9
		c0.6,0,1.1,0.1,1.6,0.4c0.5,0.3,0.8,0.6,1.1,1.1c0.2,0.5,0.4,1,0.4,1.7v0.4c0,0.6-0.1,1.2-0.4,1.7c-0.2,0.5-0.6,0.8-1.1,1.1
		s-1,0.4-1.6,0.4L355.8,546.5L355.8,546.5z M356.7,540.5v5.3h0.9c0.7,0,1.2-0.2,1.6-0.6c0.4-0.4,0.6-1,0.6-1.8V543
		c0-0.8-0.2-1.4-0.5-1.8c-0.4-0.4-0.9-0.6-1.5-0.7H356.7z M362.2,546.5v-6.8h2.2c0.7,0,1.3,0.2,1.7,0.5c0.4,0.3,0.6,0.7,0.6,1.3
		c0,0.3-0.1,0.6-0.3,0.9c-0.2,0.2-0.4,0.4-0.7,0.6c0.4,0.1,0.7,0.3,0.9,0.6c0.2,0.3,0.3,0.6,0.3,1c0,0.6-0.2,1.1-0.6,1.4
		c-0.4,0.3-0.9,0.5-1.7,0.5H362.2z M363.1,543.4v2.4h1.5c0.4,0,0.8-0.1,1-0.3s0.4-0.5,0.4-0.9c0-0.8-0.4-1.2-1.3-1.2H363.1z
		 M363.1,542.7h1.4c0.4,0,0.7-0.1,0.9-0.3c0.2-0.2,0.4-0.5,0.4-0.8c0-0.4-0.1-0.6-0.3-0.8c-0.2-0.2-0.5-0.3-1-0.3h-1.3v2.2
		L363.1,542.7L363.1,542.7z M372.2,543.2l1.8-3.4h1l-2.3,4.2v2.5h-0.9V544l-2.3-4.2h1L372.2,543.2z M377.7,543.5
		c-0.8-0.2-1.3-0.5-1.7-0.8c-0.3-0.3-0.5-0.7-0.5-1.2s0.2-1,0.6-1.3c0.4-0.4,1-0.5,1.7-0.5c0.5,0,0.9,0.1,1.2,0.3
		c0.4,0.2,0.6,0.4,0.8,0.7c0.2,0.3,0.3,0.7,0.3,1h-0.9c0-0.4-0.1-0.7-0.4-1c-0.3-0.2-0.6-0.3-1.1-0.3c-0.4,0-0.8,0.1-1,0.3
		s-0.4,0.5-0.4,0.8s0.1,0.5,0.3,0.7c0.2,0.2,0.6,0.4,1.2,0.5c0.6,0.2,1,0.3,1.3,0.5s0.6,0.4,0.7,0.7c0.2,0.3,0.2,0.6,0.2,0.9
		c0,0.6-0.2,1-0.6,1.3s-1,0.5-1.7,0.5c-0.5,0-0.9-0.1-1.3-0.3s-0.7-0.4-0.9-0.7c-0.2-0.3-0.3-0.7-0.3-1.1h0.9c0,0.4,0.2,0.7,0.5,1
		s0.7,0.4,1.2,0.4s0.8-0.1,1.1-0.3c0.2-0.2,0.4-0.5,0.4-0.8s-0.1-0.6-0.3-0.8C378.7,543.9,378.3,543.7,377.7,543.5z M386.4,543.4
		c0,0.7-0.1,1.2-0.3,1.7c-0.2,0.5-0.5,0.8-0.9,1.1l1.2,1l-0.6,0.6l-1.4-1.1c-0.2,0.1-0.5,0.1-0.7,0.1c-0.5,0-1-0.1-1.4-0.4
		c-0.4-0.3-0.7-0.6-1-1.1c-0.2-0.5-0.3-1.1-0.3-1.7V543c0-0.7,0.1-1.2,0.3-1.7c0.2-0.5,0.6-0.9,1-1.1c0.4-0.3,0.9-0.4,1.4-0.4
		s1,0.1,1.4,0.4c0.4,0.3,0.7,0.6,1,1.1c0.2,0.5,0.3,1.1,0.3,1.7V543.4z M385.5,543c0-0.8-0.2-1.4-0.5-1.8c-0.3-0.4-0.8-0.7-1.4-0.7
		s-1,0.2-1.3,0.6c-0.3,0.4-0.5,1-0.5,1.8v0.5c0,0.8,0.2,1.4,0.5,1.8s0.8,0.7,1.4,0.7s1-0.2,1.3-0.6c0.3-0.4,0.5-1,0.5-1.8V543z
		 M388.5,545.8h3.2v0.7h-4.1v-6.8h0.9V545.8z M397.3,543.8h-1.6v2.7h-0.9v-6.8h2.2c0.8,0,1.3,0.2,1.8,0.5c0.4,0.3,0.6,0.9,0.6,1.5
		c0,0.4-0.1,0.8-0.3,1.1c-0.2,0.3-0.5,0.6-0.9,0.7l1.6,2.9v0.1h-1L397.3,543.8z M395.7,543h1.4c0.4,0,0.8-0.1,1.1-0.3
		c0.3-0.2,0.4-0.5,0.4-0.9s-0.1-0.7-0.4-1c-0.2-0.2-0.6-0.3-1.1-0.3h-1.4V543z M402.3,546.7c-0.7,0-1.2-0.2-1.7-0.7
		c-0.4-0.5-0.6-1.1-0.6-1.8V544c0-0.5,0.1-1,0.3-1.3c0.2-0.4,0.5-0.7,0.8-0.9s0.7-0.3,1.1-0.3c0.7,0,1.2,0.2,1.5,0.6
		c0.4,0.4,0.5,1,0.5,1.9v0.4h-3.4c0,0.5,0.2,0.9,0.4,1.2c0.3,0.3,0.6,0.5,1.1,0.5c0.3,0,0.6-0.1,0.8-0.2c0.2-0.1,0.4-0.3,0.6-0.5
		l0.5,0.4C403.8,546.2,403.1,546.7,402.3,546.7z M402.2,542c-0.3,0-0.6,0.1-0.9,0.4c-0.2,0.2-0.4,0.6-0.4,1.1h2.5v-0.1
		c0-0.4-0.1-0.8-0.4-1C402.8,542.2,402.5,542,402.2,542z M408.1,546.5c0-0.1-0.1-0.3-0.1-0.5c-0.4,0.4-0.9,0.6-1.4,0.6
		s-0.9-0.1-1.2-0.4c-0.3-0.3-0.5-0.6-0.5-1.1s0.2-0.9,0.6-1.2s1-0.4,1.7-0.4h0.8v-0.4c0-0.3-0.1-0.5-0.3-0.7
		c-0.2-0.2-0.4-0.3-0.8-0.3c-0.3,0-0.6,0.1-0.8,0.2c-0.2,0.1-0.3,0.3-0.3,0.6h-0.9c0-0.3,0.1-0.5,0.3-0.7c0.2-0.2,0.4-0.4,0.7-0.5
		c0.3-0.1,0.6-0.2,1-0.2c0.6,0,1,0.1,1.4,0.4c0.3,0.3,0.5,0.7,0.5,1.2v2.3c0,0.5,0.1,0.8,0.2,1.1v0.1L408.1,546.5L408.1,546.5z
		 M406.7,545.9c0.3,0,0.5-0.1,0.8-0.2c0.2-0.1,0.4-0.3,0.5-0.5v-1h-0.7c-1.1,0-1.6,0.3-1.6,0.9c0,0.3,0.1,0.5,0.3,0.6
		C406.1,545.8,406.4,545.9,406.7,545.9z M410.3,544c0-0.8,0.2-1.4,0.5-1.9c0.4-0.5,0.8-0.7,1.4-0.7s1.1,0.2,1.4,0.6v-2.6h0.9v7.2
		h-0.8V546c-0.3,0.4-0.8,0.6-1.4,0.6s-1.1-0.2-1.4-0.7C410.5,545.5,410.3,544.8,410.3,544L410.3,544z M411.2,544
		c0,0.6,0.1,1,0.3,1.3c0.2,0.3,0.6,0.5,1,0.5c0.5,0,0.9-0.2,1.2-0.7v-2.3c-0.3-0.5-0.7-0.7-1.2-0.7c-0.4,0-0.8,0.2-1,0.5
		C411.3,543,411.2,543.5,411.2,544z M419,545.2c0-0.2-0.1-0.4-0.3-0.5c-0.2-0.1-0.5-0.2-0.9-0.3s-0.8-0.2-1-0.3
		c-0.3-0.1-0.4-0.3-0.6-0.5c-0.1-0.2-0.2-0.4-0.2-0.6c0-0.4,0.2-0.8,0.5-1c0.3-0.3,0.8-0.4,1.3-0.4c0.6,0,1,0.1,1.4,0.4
		c0.4,0.3,0.5,0.7,0.5,1.1H419c0-0.2-0.1-0.4-0.3-0.6c-0.2-0.2-0.4-0.3-0.7-0.3c-0.3,0-0.6,0.1-0.7,0.2c-0.2,0.1-0.3,0.3-0.3,0.5
		s0.1,0.4,0.2,0.5c0.2,0.1,0.5,0.2,0.9,0.3s0.8,0.2,1,0.3c0.3,0.1,0.5,0.3,0.6,0.5s0.2,0.4,0.2,0.7c0,0.5-0.2,0.8-0.5,1.1
		c-0.4,0.3-0.8,0.4-1.4,0.4c-0.4,0-0.8-0.1-1.1-0.2c-0.3-0.1-0.5-0.4-0.7-0.6s-0.3-0.5-0.3-0.8h0.9c0,0.3,0.1,0.5,0.3,0.7
		c0.2,0.2,0.5,0.2,0.9,0.2c0.3,0,0.6-0.1,0.8-0.2C418.9,545.5,419,545.4,419,545.2z M423.2,543.8c0-0.7,0.1-1.4,0.3-2
		c0.2-0.6,0.5-1.2,0.8-1.8s0.8-0.9,1.2-1.1l0.2,0.6c-0.5,0.3-0.8,0.9-1.1,1.6c-0.3,0.7-0.4,1.5-0.5,2.4v0.4c0,1.2,0.2,2.2,0.7,3.1
		c0.3,0.5,0.6,0.9,0.9,1.2l-0.2,0.5c-0.4-0.2-0.8-0.6-1.2-1.2C423.6,546.5,423.2,545.2,423.2,543.8z M427.6,542.8h0.6
		c0.4,0,0.7-0.1,1-0.3c0.2-0.2,0.3-0.5,0.3-0.8c0-0.8-0.4-1.2-1.2-1.2c-0.4,0-0.7,0.1-0.9,0.3c-0.2,0.2-0.3,0.5-0.3,0.8h-0.9
		c0-0.5,0.2-1,0.6-1.3c0.4-0.4,0.9-0.5,1.5-0.5s1.1,0.2,1.5,0.5s0.5,0.8,0.5,1.4c0,0.3-0.1,0.6-0.3,0.9c-0.2,0.3-0.5,0.5-0.8,0.6
		c0.4,0.1,0.7,0.3,0.9,0.6c0.2,0.3,0.3,0.6,0.3,1c0,0.6-0.2,1.1-0.6,1.5s-0.9,0.5-1.6,0.5c-0.6,0-1.1-0.2-1.6-0.5
		c-0.4-0.3-0.6-0.8-0.6-1.4h0.9c0,0.4,0.1,0.6,0.3,0.9c0.2,0.2,0.5,0.3,0.9,0.3s0.7-0.1,0.9-0.3c0.2-0.2,0.3-0.5,0.3-0.9
		s-0.1-0.7-0.4-0.9c-0.2-0.2-0.6-0.3-1.1-0.3h-0.6v-0.9L427.6,542.8L427.6,542.8z M432.8,541.5v0.6c0.4-0.4,0.9-0.6,1.5-0.6
		c0.7,0,1.2,0.3,1.4,0.8c0.2-0.2,0.4-0.4,0.6-0.6c0.3-0.1,0.6-0.2,1-0.2c1.1,0,1.7,0.6,1.7,1.8v3.4h-0.9v-3.3c0-0.4-0.1-0.6-0.2-0.8
		c-0.2-0.2-0.4-0.3-0.8-0.3c-0.3,0-0.6,0.1-0.8,0.3c-0.2,0.2-0.3,0.4-0.4,0.8v3.3H435v-3.3c0-0.7-0.4-1.1-1.1-1.1
		c-0.6,0-0.9,0.2-1.2,0.7v3.7H432v-5h0.8V541.5z M443.7,545.2c0-0.2-0.1-0.4-0.3-0.5c-0.2-0.1-0.5-0.2-0.9-0.3s-0.8-0.2-1-0.3
		c-0.3-0.1-0.4-0.3-0.6-0.5c-0.1-0.2-0.2-0.4-0.2-0.6c0-0.4,0.2-0.8,0.5-1c0.3-0.3,0.8-0.4,1.3-0.4c0.6,0,1,0.1,1.4,0.4
		c0.4,0.3,0.5,0.7,0.5,1.1h-0.9c0-0.2-0.1-0.4-0.3-0.6c-0.2-0.2-0.4-0.3-0.7-0.3c-0.3,0-0.6,0.1-0.7,0.2c-0.2,0.1-0.3,0.3-0.3,0.5
		s0.1,0.4,0.2,0.5c0.2,0.1,0.5,0.2,0.9,0.3s0.8,0.2,1,0.3c0.3,0.1,0.5,0.3,0.6,0.5s0.2,0.4,0.2,0.7c0,0.5-0.2,0.8-0.5,1.1
		c-0.4,0.3-0.8,0.4-1.4,0.4c-0.4,0-0.8-0.1-1.1-0.2c-0.3-0.1-0.5-0.4-0.7-0.6s-0.3-0.5-0.3-0.8h0.9c0,0.3,0.1,0.5,0.3,0.7
		c0.2,0.2,0.5,0.2,0.9,0.2c0.3,0,0.6-0.1,0.8-0.2C443.6,545.5,443.7,545.4,443.7,545.2z M448.8,546.5H448v-7.2h0.9v7.2H448.8z
		 M453.4,546.5c0-0.1-0.1-0.3-0.1-0.5c-0.4,0.4-0.9,0.6-1.4,0.6s-0.9-0.1-1.2-0.4c-0.3-0.3-0.5-0.6-0.5-1.1s0.2-0.9,0.6-1.2
		s1-0.4,1.7-0.4h0.8v-0.4c0-0.3-0.1-0.5-0.3-0.7c-0.2-0.2-0.4-0.3-0.8-0.3c-0.3,0-0.6,0.1-0.8,0.2c-0.2,0.1-0.3,0.3-0.3,0.6h-0.9
		c0-0.3,0.1-0.5,0.3-0.7c0.2-0.2,0.4-0.4,0.7-0.5c0.3-0.1,0.6-0.2,1-0.2c0.6,0,1,0.1,1.4,0.4c0.3,0.3,0.5,0.7,0.5,1.2v2.3
		c0,0.5,0.1,0.8,0.2,1.1v0.1L453.4,546.5L453.4,546.5z M452,545.9c0.3,0,0.5-0.1,0.8-0.2c0.2-0.1,0.4-0.3,0.5-0.5v-1h-0.7
		c-1.1,0-1.6,0.3-1.6,0.9c0,0.3,0.1,0.5,0.3,0.6C451.4,545.8,451.7,545.9,452,545.9z M457,540.2v1.2h0.9v0.7H457v3.1
		c0,0.2,0,0.4,0.1,0.5s0.2,0.1,0.4,0.1c0.1,0,0.2,0,0.4,0v0.7c-0.2,0.1-0.4,0.1-0.7,0.1c-0.4,0-0.7-0.1-0.9-0.3
		c-0.2-0.2-0.3-0.6-0.3-1v-3.1h-0.9v-0.7h0.9v-1.2L457,540.2L457,540.2z M461.1,546.7c-0.7,0-1.2-0.2-1.7-0.7
		c-0.4-0.5-0.6-1.1-0.6-1.8V544c0-0.5,0.1-1,0.3-1.3c0.2-0.4,0.5-0.7,0.8-0.9s0.7-0.3,1.1-0.3c0.7,0,1.2,0.2,1.5,0.6
		c0.4,0.4,0.5,1,0.5,1.9v0.4h-3.4c0,0.5,0.2,0.9,0.4,1.2c0.3,0.3,0.6,0.5,1.1,0.5c0.3,0,0.6-0.1,0.8-0.2c0.2-0.1,0.4-0.3,0.6-0.5
		l0.5,0.4C462.6,546.2,462,546.7,461.1,546.7z M461,542c-0.3,0-0.6,0.1-0.9,0.4c-0.2,0.2-0.4,0.6-0.4,1.1h2.5v-0.1
		c0-0.4-0.1-0.8-0.4-1C461.6,542.2,461.4,542,461,542z M464.6,541.5v0.6c0.4-0.5,0.9-0.7,1.5-0.7c1.1,0,1.6,0.6,1.6,1.8v3.3h-0.9
		v-3.3c0-0.4-0.1-0.6-0.2-0.8c-0.2-0.2-0.4-0.3-0.8-0.3c-0.3,0-0.5,0.1-0.7,0.2c-0.2,0.1-0.4,0.3-0.5,0.6v3.6h-0.9v-5L464.6,541.5
		L464.6,541.5z M471.4,546c0.3,0,0.6-0.1,0.8-0.3s0.4-0.4,0.4-0.7h0.8c0,0.3-0.1,0.6-0.3,0.8c-0.2,0.3-0.4,0.5-0.7,0.6
		c-0.3,0.2-0.6,0.2-1,0.2c-0.7,0-1.2-0.2-1.6-0.7c-0.4-0.5-0.6-1.1-0.6-1.9v-0.1c0-0.5,0.1-0.9,0.3-1.3c0.2-0.4,0.4-0.7,0.8-0.9
		c0.3-0.2,0.7-0.3,1.2-0.3c0.6,0,1,0.2,1.4,0.5s0.6,0.8,0.6,1.3h-0.8c0-0.3-0.1-0.6-0.4-0.8c-0.2-0.2-0.5-0.3-0.8-0.3
		c-0.4,0-0.8,0.2-1,0.5s-0.4,0.8-0.4,1.4v0.2c0,0.6,0.1,1,0.4,1.3C470.6,545.8,470.9,546,471.4,546z M475.8,545.2l1.2-3.8h0.9
		l-2,5.8c-0.3,0.8-0.8,1.3-1.5,1.3h-0.2l-0.3-0.1v-0.7h0.2c0.3,0,0.5-0.1,0.7-0.2c0.2-0.1,0.3-0.3,0.4-0.6l0.2-0.5l-1.8-5h0.9
		L475.8,545.2z M480.9,543.9c0,0.7-0.1,1.4-0.3,2s-0.5,1.2-0.8,1.8c-0.4,0.5-0.8,0.9-1.2,1.1l-0.2-0.5c0.5-0.4,0.9-0.9,1.2-1.7
		s0.4-1.6,0.4-2.6v-0.1c0-0.7-0.1-1.3-0.2-1.8c-0.1-0.6-0.3-1.1-0.6-1.5c-0.2-0.4-0.5-0.8-0.8-1l0.2-0.5c0.4,0.2,0.8,0.6,1.2,1.1
		s0.6,1.1,0.8,1.8C480.8,542.4,480.9,543,480.9,543.9z"/>
	<path class="st21" d="M522.7,544.4c-0.1,0.7-0.3,1.3-0.8,1.7c-0.4,0.4-1,0.6-1.8,0.6s-1.4-0.3-1.9-0.9c-0.5-0.6-0.7-1.4-0.7-2.3
		v-0.6c0-0.6,0.1-1.2,0.3-1.7s0.5-0.8,1-1.1s0.9-0.4,1.4-0.4c0.7,0,1.3,0.2,1.7,0.6c0.4,0.4,0.7,1,0.8,1.7h-0.9
		c-0.1-0.5-0.3-0.9-0.5-1.2c-0.3-0.2-0.6-0.4-1.1-0.4c-0.6,0-1,0.2-1.3,0.6s-0.5,1-0.5,1.8v0.7c0,0.7,0.2,1.3,0.5,1.8
		c0.3,0.4,0.7,0.6,1.3,0.6c0.5,0,0.9-0.1,1.1-0.3c0.3-0.2,0.4-0.6,0.5-1.2L522.7,544.4L522.7,544.4z M523.7,544
		c0-0.5,0.1-0.9,0.3-1.3c0.2-0.4,0.5-0.7,0.8-0.9s0.7-0.3,1.2-0.3c0.7,0,1.2,0.2,1.7,0.7c0.4,0.5,0.6,1.1,0.6,1.9v0.1
		c0,0.5-0.1,0.9-0.3,1.3c-0.2,0.4-0.5,0.7-0.8,0.9s-0.7,0.3-1.2,0.3c-0.7,0-1.2-0.2-1.7-0.7C523.9,545.5,523.7,544.8,523.7,544
		L523.7,544z M524.5,544c0,0.6,0.1,1,0.4,1.3c0.3,0.3,0.6,0.5,1,0.5s0.8-0.2,1-0.5c0.3-0.3,0.4-0.8,0.4-1.5c0-0.5-0.1-1-0.4-1.3
		c-0.3-0.3-0.6-0.5-1-0.5s-0.8,0.2-1,0.5C524.7,543,524.5,543.5,524.5,544z M531.5,546c0.3,0,0.6-0.1,0.8-0.3s0.4-0.4,0.4-0.7h0.8
		c0,0.3-0.1,0.6-0.3,0.8c-0.2,0.3-0.4,0.5-0.7,0.6c-0.3,0.2-0.6,0.2-1,0.2c-0.7,0-1.2-0.2-1.6-0.7c-0.4-0.5-0.6-1.1-0.6-1.9v-0.1
		c0-0.5,0.1-0.9,0.3-1.3c0.2-0.4,0.4-0.7,0.8-0.9c0.3-0.2,0.7-0.3,1.2-0.3c0.6,0,1,0.2,1.4,0.5s0.6,0.8,0.6,1.3h-0.8
		c0-0.3-0.1-0.6-0.4-0.8c-0.2-0.2-0.5-0.3-0.8-0.3c-0.4,0-0.8,0.2-1,0.5s-0.4,0.8-0.4,1.4v0.2c0,0.6,0.1,1,0.4,1.3
		C530.7,545.8,531,546,531.5,546z M535.6,544.2l-0.5,0.6v1.8h-0.9v-7.2h0.9v4.3l0.5-0.5l1.6-1.7h1l-2,2.1l2.2,2.9h-1L535.6,544.2z
		 M541.4,542.2c-0.1,0-0.3,0-0.4,0c-0.6,0-1,0.2-1.2,0.7v3.6H539v-5h0.8v0.6c0.3-0.4,0.7-0.7,1.2-0.7c0.2,0,0.3,0,0.4,0.1V542.2z
		 M541.9,544c0-0.5,0.1-0.9,0.3-1.3c0.2-0.4,0.5-0.7,0.8-0.9s0.7-0.3,1.2-0.3c0.7,0,1.2,0.2,1.7,0.7c0.4,0.5,0.6,1.1,0.6,1.9v0.1
		c0,0.5-0.1,0.9-0.3,1.3c-0.2,0.4-0.5,0.7-0.8,0.9s-0.7,0.3-1.2,0.3c-0.7,0-1.2-0.2-1.7-0.7C542.2,545.5,541.9,544.8,541.9,544
		L541.9,544z M542.8,544c0,0.6,0.1,1,0.4,1.3c0.3,0.3,0.6,0.5,1,0.5s0.8-0.2,1-0.5c0.3-0.3,0.4-0.8,0.4-1.5c0-0.5-0.1-1-0.4-1.3
		c-0.3-0.3-0.6-0.5-1-0.5s-0.8,0.2-1,0.5C542.9,543,542.8,543.5,542.8,544z M550.8,546.5c0-0.1-0.1-0.3-0.1-0.5
		c-0.4,0.4-0.9,0.6-1.4,0.6s-0.9-0.1-1.2-0.4c-0.3-0.3-0.5-0.6-0.5-1.1s0.2-0.9,0.6-1.2c0.4-0.3,1-0.4,1.7-0.4h0.8v-0.4
		c0-0.3-0.1-0.5-0.3-0.7s-0.4-0.3-0.8-0.3c-0.3,0-0.6,0.1-0.8,0.2c-0.2,0.1-0.3,0.3-0.3,0.6h-0.9c0-0.3,0.1-0.5,0.3-0.7
		s0.4-0.4,0.7-0.5s0.6-0.2,1-0.2c0.6,0,1,0.1,1.4,0.4c0.3,0.3,0.5,0.7,0.5,1.2v2.3c0,0.5,0.1,0.8,0.2,1.1v0.1L550.8,546.5
		L550.8,546.5z M549.4,545.9c0.3,0,0.5-0.1,0.8-0.2c0.2-0.1,0.4-0.3,0.5-0.5v-1H550c-1.1,0-1.6,0.3-1.6,0.9c0,0.3,0.1,0.5,0.3,0.6
		S549.1,545.9,549.4,545.9z M555.3,546c0.3,0,0.6-0.1,0.8-0.3s0.4-0.4,0.4-0.7h0.8c0,0.3-0.1,0.6-0.3,0.8c-0.2,0.3-0.4,0.5-0.7,0.6
		c-0.3,0.2-0.6,0.2-1,0.2c-0.7,0-1.2-0.2-1.6-0.7c-0.4-0.5-0.6-1.1-0.6-1.9v-0.1c0-0.5,0.1-0.9,0.3-1.3c0.2-0.4,0.4-0.7,0.8-0.9
		c0.3-0.2,0.7-0.3,1.2-0.3c0.6,0,1,0.2,1.4,0.5s0.6,0.8,0.6,1.3h-0.8c0-0.3-0.1-0.6-0.4-0.8c-0.2-0.2-0.5-0.3-0.8-0.3
		c-0.4,0-0.8,0.2-1,0.5s-0.4,0.8-0.4,1.4v0.2c0,0.6,0.1,1,0.4,1.3S554.9,546,555.3,546z M558.9,542c0.4-0.5,0.9-0.7,1.5-0.7
		c1.1,0,1.6,0.6,1.6,1.8v3.3h-0.9v-3.3c0-0.4-0.1-0.6-0.2-0.8c-0.2-0.2-0.4-0.3-0.8-0.3c-0.3,0-0.5,0.1-0.7,0.2
		c-0.2,0.1-0.4,0.3-0.5,0.6v3.6H558v-7.2h0.9V542L558.9,542z M563.8,546.5v-6.8h1.9c0.6,0,1.1,0.1,1.6,0.4c0.5,0.3,0.8,0.6,1.1,1.1
		c0.2,0.5,0.4,1,0.4,1.7v0.4c0,0.6-0.1,1.2-0.4,1.7c-0.2,0.5-0.6,0.8-1.1,1.1s-1,0.4-1.6,0.4L563.8,546.5L563.8,546.5z M564.7,540.5
		v5.3h0.9c0.7,0,1.2-0.2,1.6-0.6c0.4-0.4,0.6-1,0.6-1.8V543c0-0.8-0.2-1.4-0.5-1.8c-0.4-0.4-0.9-0.6-1.5-0.7H564.7z M570.1,546.5
		v-6.8h2.2c0.7,0,1.3,0.2,1.7,0.5s0.6,0.7,0.6,1.3c0,0.3-0.1,0.6-0.3,0.9c-0.2,0.2-0.4,0.4-0.7,0.6c0.4,0.1,0.7,0.3,0.9,0.6
		s0.3,0.6,0.3,1c0,0.6-0.2,1.1-0.6,1.4c-0.4,0.3-0.9,0.5-1.7,0.5H570.1z M571,543.4v2.4h1.5c0.4,0,0.8-0.1,1-0.3s0.4-0.5,0.4-0.9
		c0-0.8-0.4-1.2-1.3-1.2H571z M571,542.7h1.4c0.4,0,0.7-0.1,0.9-0.3s0.4-0.5,0.4-0.8c0-0.4-0.1-0.6-0.3-0.8s-0.5-0.3-1-0.3H571
		V542.7z M577.9,543.8c0-0.7,0.1-1.4,0.3-2s0.5-1.2,0.8-1.8c0.4-0.5,0.8-0.9,1.2-1.1l0.2,0.6c-0.5,0.3-0.8,0.9-1.1,1.6
		c-0.3,0.7-0.4,1.5-0.5,2.4v0.4c0,1.2,0.2,2.2,0.7,3.1c0.3,0.5,0.6,0.9,0.9,1.2l-0.2,0.5c-0.4-0.2-0.8-0.6-1.2-1.2
		C578.3,546.5,577.9,545.2,577.9,543.8z M582.3,542.8h0.6c0.4,0,0.7-0.1,1-0.3c0.2-0.2,0.3-0.5,0.3-0.8c0-0.8-0.4-1.2-1.2-1.2
		c-0.4,0-0.7,0.1-0.9,0.3s-0.3,0.5-0.3,0.8H581c0-0.5,0.2-1,0.6-1.3c0.4-0.4,0.9-0.5,1.5-0.5s1.1,0.2,1.5,0.5s0.5,0.8,0.5,1.4
		c0,0.3-0.1,0.6-0.3,0.9s-0.5,0.5-0.8,0.6c0.4,0.1,0.7,0.3,0.9,0.6s0.3,0.6,0.3,1c0,0.6-0.2,1.1-0.6,1.5c-0.4,0.4-0.9,0.5-1.6,0.5
		c-0.6,0-1.1-0.2-1.6-0.5c-0.4-0.3-0.6-0.8-0.6-1.4h0.9c0,0.4,0.1,0.6,0.3,0.9c0.2,0.2,0.5,0.3,0.9,0.3s0.7-0.1,0.9-0.3
		s0.3-0.5,0.3-0.9s-0.1-0.7-0.4-0.9c-0.2-0.2-0.6-0.3-1.1-0.3H582v-0.9L582.3,542.8L582.3,542.8z M586.7,546c0-0.1,0-0.3,0.1-0.4
		c0.1-0.1,0.2-0.1,0.4-0.1s0.3,0,0.4,0.1c0.1,0.1,0.1,0.2,0.1,0.4c0,0.1,0,0.3-0.1,0.4c-0.1,0.1-0.2,0.1-0.4,0.1s-0.3,0-0.4-0.1
		C586.7,546.4,586.7,546.2,586.7,546z M593.4,540.2l-2.8,6.3h-0.9l2.8-6.1h-3.7v-0.7h4.6L593.4,540.2L593.4,540.2z M595.4,541.5v0.6
		c0.4-0.4,0.9-0.6,1.5-0.6c0.7,0,1.2,0.3,1.4,0.8c0.2-0.2,0.4-0.4,0.6-0.6c0.3-0.1,0.6-0.2,1-0.2c1.1,0,1.7,0.6,1.7,1.8v3.4h-0.9
		v-3.3c0-0.4-0.1-0.6-0.2-0.8c-0.2-0.2-0.4-0.3-0.8-0.3c-0.3,0-0.6,0.1-0.8,0.3s-0.3,0.4-0.4,0.8v3.3h-0.9v-3.3
		c0-0.7-0.4-1.1-1.1-1.1c-0.6,0-0.9,0.2-1.2,0.7v3.7h-0.9v-5h1L595.4,541.5L595.4,541.5z M606.3,545.2c0-0.2-0.1-0.4-0.3-0.5
		s-0.5-0.2-0.9-0.3s-0.8-0.2-1-0.3c-0.3-0.1-0.4-0.3-0.6-0.5c-0.1-0.2-0.2-0.4-0.2-0.6c0-0.4,0.2-0.8,0.5-1c0.3-0.3,0.8-0.4,1.3-0.4
		c0.6,0,1,0.1,1.4,0.4c0.4,0.3,0.5,0.7,0.5,1.1h-0.9c0-0.2-0.1-0.4-0.3-0.6c-0.2-0.2-0.4-0.3-0.7-0.3s-0.6,0.1-0.7,0.2
		c-0.2,0.1-0.3,0.3-0.3,0.5s0.1,0.4,0.2,0.5c0.2,0.1,0.5,0.2,0.9,0.3s0.8,0.2,1,0.3c0.3,0.1,0.5,0.3,0.6,0.5s0.2,0.4,0.2,0.7
		c0,0.5-0.2,0.8-0.5,1.1c-0.4,0.3-0.8,0.4-1.4,0.4c-0.4,0-0.8-0.1-1.1-0.2c-0.3-0.1-0.5-0.4-0.7-0.6s-0.3-0.5-0.3-0.8h0.9
		c0,0.3,0.1,0.5,0.3,0.7s0.5,0.2,0.9,0.2c0.3,0,0.6-0.1,0.8-0.2C606.2,545.5,606.3,545.4,606.3,545.2z M611.5,546.5h-0.9v-7.2h0.9
		V546.5z M616,546.5c0-0.1-0.1-0.3-0.1-0.5c-0.4,0.4-0.9,0.6-1.4,0.6s-0.9-0.1-1.2-0.4c-0.3-0.3-0.5-0.6-0.5-1.1s0.2-0.9,0.6-1.2
		s1-0.4,1.7-0.4h0.8v-0.4c0-0.3-0.1-0.5-0.3-0.7s-0.4-0.3-0.8-0.3c-0.3,0-0.6,0.1-0.8,0.2c-0.2,0.1-0.3,0.3-0.3,0.6h-0.9
		c0-0.3,0.1-0.5,0.3-0.7s0.4-0.4,0.7-0.5s0.6-0.2,1-0.2c0.6,0,1,0.1,1.4,0.4c0.3,0.3,0.5,0.7,0.5,1.2v2.3c0,0.5,0.1,0.8,0.2,1.1v0.1
		L616,546.5L616,546.5z M614.6,545.9c0.3,0,0.5-0.1,0.8-0.2c0.2-0.1,0.4-0.3,0.5-0.5v-1h-0.7c-1.1,0-1.6,0.3-1.6,0.9
		c0,0.3,0.1,0.5,0.3,0.6S614.3,545.9,614.6,545.9z M619.6,540.2v1.2h0.9v0.7h-0.9v3.1c0,0.2,0,0.4,0.1,0.5s0.2,0.1,0.4,0.1
		c0.1,0,0.2,0,0.4,0v0.7c-0.2,0.1-0.4,0.1-0.7,0.1c-0.4,0-0.7-0.1-0.9-0.3s-0.3-0.6-0.3-1v-3.1h-0.9v-0.7h0.9v-1.2L619.6,540.2
		L619.6,540.2z M623.7,546.7c-0.7,0-1.2-0.2-1.7-0.7c-0.4-0.5-0.6-1.1-0.6-1.8V544c0-0.5,0.1-1,0.3-1.3c0.2-0.4,0.5-0.7,0.8-0.9
		s0.7-0.3,1.1-0.3c0.7,0,1.2,0.2,1.5,0.6c0.4,0.4,0.5,1,0.5,1.9v0.4h-3.4c0,0.5,0.2,0.9,0.4,1.2c0.3,0.3,0.6,0.5,1.1,0.5
		c0.3,0,0.6-0.1,0.8-0.2c0.2-0.1,0.4-0.3,0.6-0.5l0.5,0.4C625.2,546.2,624.6,546.7,623.7,546.7z M623.6,542c-0.3,0-0.6,0.1-0.9,0.4
		c-0.2,0.2-0.4,0.6-0.4,1.1h2.5v-0.1c0-0.4-0.1-0.8-0.4-1C624.3,542.2,624,542,623.6,542z M627.2,541.5v0.6c0.4-0.5,0.9-0.7,1.5-0.7
		c1.1,0,1.6,0.6,1.6,1.8v3.3h-0.9v-3.3c0-0.4-0.1-0.6-0.2-0.8c-0.2-0.2-0.4-0.3-0.8-0.3c-0.3,0-0.5,0.1-0.7,0.2
		c-0.2,0.1-0.4,0.3-0.5,0.6v3.6h-0.9v-5L627.2,541.5L627.2,541.5z M634,546c0.3,0,0.6-0.1,0.8-0.3s0.4-0.4,0.4-0.7h0.8
		c0,0.3-0.1,0.6-0.3,0.8c-0.2,0.3-0.4,0.5-0.7,0.6c-0.3,0.2-0.6,0.2-1,0.2c-0.7,0-1.2-0.2-1.6-0.7c-0.4-0.5-0.6-1.1-0.6-1.9v-0.1
		c0-0.5,0.1-0.9,0.3-1.3c0.2-0.4,0.4-0.7,0.8-0.9c0.3-0.2,0.7-0.3,1.2-0.3c0.6,0,1,0.2,1.4,0.5s0.6,0.8,0.6,1.3h-0.8
		c0-0.3-0.1-0.6-0.4-0.8c-0.2-0.2-0.5-0.3-0.8-0.3c-0.4,0-0.8,0.2-1,0.5s-0.4,0.8-0.4,1.4v0.2c0,0.6,0.1,1,0.4,1.3
		S633.6,546,634,546z M638.4,545.2l1.2-3.8h0.9l-2,5.8c-0.3,0.8-0.8,1.3-1.5,1.3h-0.2l-0.3-0.1v-0.7h0.2c0.3,0,0.5-0.1,0.7-0.2
		c0.2-0.1,0.3-0.3,0.4-0.6l0.2-0.5l-1.8-5h0.9L638.4,545.2z M643.5,543.9c0,0.7-0.1,1.4-0.3,2s-0.5,1.2-0.8,1.8
		c-0.4,0.5-0.8,0.9-1.2,1.1l-0.2-0.5c0.5-0.4,0.9-0.9,1.2-1.7s0.4-1.6,0.4-2.6v-0.1c0-0.7-0.1-1.3-0.2-1.8c-0.1-0.6-0.3-1.1-0.6-1.5
		c-0.2-0.4-0.5-0.8-0.8-1l0.2-0.5c0.4,0.2,0.8,0.6,1.2,1.1s0.6,1.1,0.8,1.8C643.4,542.4,643.5,543,643.5,543.9z"/>
	<path class="st21" d="M349.1,128.2c0,0.7-0.1,1.2-0.3,1.7c-0.2,0.5-0.5,0.9-1,1.1c-0.4,0.3-0.9,0.4-1.4,0.4s-1-0.1-1.4-0.4
		s-0.7-0.6-1-1.1c-0.2-0.5-0.3-1.1-0.3-1.7v-0.5c0-0.7,0.1-1.2,0.3-1.7c0.2-0.5,0.6-0.9,1-1.1c0.4-0.3,0.9-0.4,1.4-0.4
		s1,0.1,1.4,0.4c0.4,0.3,0.7,0.6,1,1.1c0.2,0.5,0.3,1.1,0.3,1.7V128.2z M348.2,127.8c0-0.8-0.2-1.4-0.5-1.9
		c-0.3-0.4-0.8-0.6-1.4-0.6s-1,0.2-1.3,0.6c-0.3,0.4-0.5,1-0.5,1.8v0.5c0,0.8,0.2,1.4,0.5,1.8c0.3,0.4,0.8,0.7,1.4,0.7
		s1-0.2,1.3-0.6c0.3-0.4,0.5-1,0.5-1.8V127.8z M354.4,128.9c0,0.8-0.2,1.4-0.5,1.9s-0.8,0.7-1.4,0.7s-1.1-0.2-1.4-0.6v2.4h-0.9v-7
		h0.8v0.6c0.4-0.4,0.8-0.6,1.5-0.6c0.6,0,1.1,0.2,1.4,0.7C354.2,127.4,354.4,128.1,354.4,128.9L354.4,128.9z M353.5,128.8
		c0-0.6-0.1-1-0.4-1.3c-0.2-0.3-0.6-0.5-1-0.5c-0.5,0-0.9,0.2-1.2,0.7v2.4c0.3,0.5,0.6,0.7,1.2,0.7c0.4,0,0.7-0.2,1-0.5
		C353.4,129.9,353.5,129.4,353.5,128.8z M357.8,131.6c-0.7,0-1.2-0.2-1.7-0.7c-0.4-0.5-0.6-1.1-0.6-1.8v-0.1c0-0.5,0.1-1,0.3-1.3
		c0.2-0.4,0.5-0.7,0.8-0.9s0.7-0.3,1.1-0.3c0.7,0,1.2,0.2,1.5,0.6c0.4,0.4,0.5,1,0.5,1.9v0.4h-3.4c0,0.5,0.2,0.9,0.4,1.2
		c0.3,0.3,0.6,0.5,1.1,0.5c0.3,0,0.6-0.1,0.8-0.2c0.2-0.1,0.4-0.3,0.6-0.5l0.5,0.4C359.3,131.1,358.6,131.6,357.8,131.6z
		 M357.7,126.9c-0.3,0-0.6,0.1-0.9,0.4c-0.2,0.2-0.4,0.6-0.4,1.1h2.5v-0.1c0-0.4-0.1-0.8-0.4-1C358.3,127.1,358,126.9,357.7,126.9z
		 M362.9,127.1c-0.1,0-0.3,0-0.4,0c-0.6,0-1,0.2-1.2,0.7v3.6h-0.9v-5h0.8v0.6c0.3-0.4,0.7-0.7,1.2-0.7c0.2,0,0.3,0,0.4,0.1v0.7
		L362.9,127.1L362.9,127.1z M366.8,131.4c0-0.1-0.1-0.3-0.1-0.5c-0.4,0.4-0.9,0.6-1.4,0.6s-0.9-0.1-1.2-0.4
		c-0.3-0.3-0.5-0.6-0.5-1.1s0.2-0.9,0.6-1.2s1-0.4,1.7-0.4h0.8v-0.5c0-0.3-0.1-0.5-0.3-0.7c-0.2-0.2-0.4-0.3-0.8-0.3
		c-0.3,0-0.6,0.1-0.8,0.2c-0.2,0.1-0.3,0.3-0.3,0.6h-0.9c0-0.3,0.1-0.5,0.3-0.7c0.2-0.2,0.4-0.4,0.7-0.5c0.3-0.1,0.6-0.2,1-0.2
		c0.6,0,1,0.1,1.4,0.4c0.3,0.3,0.5,0.7,0.5,1.2v2.3c0,0.5,0.1,0.8,0.2,1.1v0.1L366.8,131.4L366.8,131.4z M365.3,130.8
		c0.3,0,0.5-0.1,0.8-0.2c0.2-0.1,0.4-0.3,0.5-0.5v-1h-0.7c-1.1,0-1.6,0.3-1.6,0.9c0,0.3,0.1,0.5,0.3,0.6
		C364.8,130.6,365,130.8,365.3,130.8z M370.4,125.1v1.2h0.9v0.7h-0.9v3.1c0,0.2,0,0.4,0.1,0.5s0.2,0.1,0.4,0.1c0.1,0,0.2,0,0.4,0
		v0.7c-0.2,0.1-0.4,0.1-0.7,0.1c-0.4,0-0.7-0.1-0.9-0.3c-0.2-0.2-0.3-0.6-0.3-1v-3.1h-0.9v-0.7h0.9v-1.2h1V125.1z M373.3,131.4h-0.9
		v-5h0.9V131.4z M372.4,125.1c0-0.1,0-0.3,0.1-0.4c0.1-0.1,0.2-0.1,0.4-0.1c0.2,0,0.3,0,0.4,0.1s0.1,0.2,0.1,0.4
		c0,0.1,0,0.2-0.1,0.3s-0.2,0.1-0.4,0.1c-0.2,0-0.3,0-0.4-0.1S372.4,125.1,372.4,125.1z M374.5,128.8c0-0.5,0.1-0.9,0.3-1.3
		c0.2-0.4,0.5-0.7,0.8-0.9s0.7-0.3,1.2-0.3c0.7,0,1.2,0.2,1.7,0.7c0.4,0.5,0.6,1.1,0.6,1.9v0.1c0,0.5-0.1,0.9-0.3,1.3
		s-0.5,0.7-0.8,0.9s-0.7,0.3-1.2,0.3c-0.7,0-1.2-0.2-1.7-0.7C374.8,130.3,374.5,129.6,374.5,128.8L374.5,128.8z M375.4,128.9
		c0,0.6,0.1,1,0.4,1.3s0.6,0.5,1,0.5s0.8-0.2,1-0.5c0.3-0.3,0.4-0.8,0.4-1.5c0-0.5-0.1-1-0.4-1.3s-0.6-0.5-1-0.5s-0.8,0.2-1,0.5
		C375.5,127.8,375.4,128.3,375.4,128.9z M381.1,126.3v0.6c0.4-0.5,0.9-0.7,1.5-0.7c1.1,0,1.6,0.6,1.6,1.8v3.3h-0.9v-3.3
		c0-0.4-0.1-0.6-0.2-0.8c-0.2-0.2-0.4-0.3-0.8-0.3c-0.3,0-0.5,0.1-0.7,0.2c-0.2,0.1-0.4,0.3-0.5,0.6v3.6h-0.9v-5L381.1,126.3
		L381.1,126.3z M388.8,130.1c0-0.2-0.1-0.4-0.3-0.5c-0.2-0.1-0.5-0.2-0.9-0.3s-0.8-0.2-1-0.3c-0.3-0.1-0.4-0.3-0.6-0.5
		c-0.1-0.2-0.2-0.4-0.2-0.6c0-0.4,0.2-0.8,0.5-1c0.3-0.3,0.8-0.4,1.3-0.4c0.6,0,1,0.1,1.4,0.4c0.4,0.3,0.5,0.7,0.5,1.1h-0.9
		c0-0.2-0.1-0.4-0.3-0.6c-0.2-0.2-0.4-0.3-0.7-0.3c-0.3,0-0.6,0.1-0.7,0.2c-0.2,0.1-0.3,0.3-0.3,0.5s0.1,0.4,0.2,0.5
		c0.2,0.1,0.5,0.2,0.9,0.3s0.8,0.2,1,0.3s0.5,0.3,0.6,0.5s0.2,0.4,0.2,0.7c0,0.5-0.2,0.8-0.5,1.1c-0.4,0.3-0.8,0.4-1.4,0.4
		c-0.4,0-0.8-0.1-1.1-0.2c-0.3-0.1-0.5-0.4-0.7-0.6c-0.2-0.3-0.3-0.5-0.3-0.8h0.9c0,0.3,0.1,0.5,0.3,0.7c0.2,0.2,0.5,0.2,0.9,0.2
		c0.3,0,0.6-0.1,0.8-0.2C388.7,130.4,388.8,130.2,388.8,130.1z M394.1,128.8v2.7h-0.9v-6.8h2.5c0.7,0,1.3,0.2,1.7,0.6
		c0.4,0.4,0.6,0.9,0.6,1.5c0,0.7-0.2,1.2-0.6,1.5c-0.4,0.4-1,0.5-1.8,0.5H394.1z M394.1,128.1h1.6c0.5,0,0.8-0.1,1.1-0.3
		c0.3-0.2,0.4-0.5,0.4-1c0-0.4-0.1-0.7-0.4-1c-0.2-0.2-0.6-0.4-1-0.4h-1.7V128.1z M401.5,131.6c-0.7,0-1.2-0.2-1.7-0.7
		c-0.4-0.5-0.6-1.1-0.6-1.8v-0.1c0-0.5,0.1-1,0.3-1.3c0.2-0.4,0.5-0.7,0.8-0.9s0.7-0.3,1.1-0.3c0.7,0,1.2,0.2,1.5,0.6
		c0.4,0.4,0.5,1,0.5,1.9v0.4H400c0,0.5,0.2,0.9,0.4,1.2c0.3,0.3,0.6,0.5,1.1,0.5c0.3,0,0.6-0.1,0.8-0.2c0.2-0.1,0.4-0.3,0.6-0.5
		l0.5,0.4C403,131.1,402.3,131.6,401.5,131.6z M401.4,126.9c-0.3,0-0.6,0.1-0.9,0.4c-0.2,0.2-0.4,0.6-0.4,1.1h2.5v-0.1
		c0-0.4-0.1-0.8-0.4-1C402,127.1,401.8,126.9,401.4,126.9z M406.6,127.1c-0.1,0-0.3,0-0.4,0c-0.6,0-1,0.2-1.2,0.7v3.6h-0.9v-5h0.8
		v0.6c0.3-0.4,0.7-0.7,1.2-0.7c0.2,0,0.3,0,0.4,0.1v0.7L406.6,127.1L406.6,127.1z M411.9,128.3c-0.8-0.2-1.3-0.5-1.7-0.8
		c-0.3-0.3-0.5-0.7-0.5-1.2s0.2-1,0.6-1.3c0.4-0.4,1-0.5,1.7-0.5c0.5,0,0.9,0.1,1.2,0.3c0.4,0.2,0.6,0.4,0.8,0.7
		c0.2,0.3,0.3,0.7,0.3,1h-0.9c0-0.4-0.1-0.7-0.4-1c-0.3-0.2-0.6-0.3-1.1-0.3c-0.4,0-0.8,0.1-1,0.3s-0.4,0.5-0.4,0.8s0.1,0.5,0.3,0.7
		c0.2,0.2,0.6,0.4,1.2,0.5c0.6,0.2,1,0.3,1.3,0.5s0.6,0.4,0.7,0.7c0.2,0.3,0.2,0.6,0.2,0.9c0,0.6-0.2,1-0.6,1.3s-1,0.5-1.7,0.5
		c-0.5,0-0.9-0.1-1.3-0.3s-0.7-0.4-0.9-0.7c-0.2-0.3-0.3-0.7-0.3-1.1h0.9c0,0.4,0.2,0.7,0.5,1c0.3,0.2,0.7,0.4,1.2,0.4
		s0.8-0.1,1.1-0.3c0.2-0.2,0.4-0.5,0.4-0.8s-0.1-0.6-0.3-0.8C412.9,128.8,412.5,128.6,411.9,128.3z M417.4,131.6
		c-0.7,0-1.2-0.2-1.7-0.7c-0.4-0.5-0.6-1.1-0.6-1.8v-0.1c0-0.5,0.1-1,0.3-1.3c0.2-0.4,0.5-0.7,0.8-0.9s0.7-0.3,1.1-0.3
		c0.7,0,1.2,0.2,1.5,0.6c0.4,0.4,0.5,1,0.5,1.9v0.4h-3.4c0,0.5,0.2,0.9,0.4,1.2c0.3,0.3,0.6,0.5,1.1,0.5c0.3,0,0.6-0.1,0.8-0.2
		c0.2-0.1,0.4-0.3,0.6-0.5l0.5,0.4C418.9,131.1,418.2,131.6,417.4,131.6z M417.3,126.9c-0.3,0-0.6,0.1-0.9,0.4
		c-0.2,0.2-0.4,0.6-0.4,1.1h2.5v-0.1c0-0.4-0.1-0.8-0.4-1C417.9,127.1,417.6,126.9,417.3,126.9z M422.1,130.8c0.3,0,0.6-0.1,0.8-0.3
		c0.2-0.2,0.4-0.4,0.4-0.7h0.8c0,0.3-0.1,0.6-0.3,0.8c-0.2,0.3-0.4,0.5-0.7,0.6c-0.3,0.2-0.6,0.2-1,0.2c-0.7,0-1.2-0.2-1.6-0.7
		s-0.6-1.1-0.6-1.9v-0.1c0-0.5,0.1-0.9,0.3-1.3c0.2-0.4,0.4-0.7,0.8-0.9c0.3-0.2,0.7-0.3,1.2-0.3c0.6,0,1,0.2,1.4,0.5
		s0.6,0.8,0.6,1.3h-0.8c0-0.3-0.1-0.6-0.4-0.8c-0.2-0.2-0.5-0.3-0.8-0.3c-0.4,0-0.8,0.2-1,0.5s-0.4,0.8-0.4,1.4v0.2
		c0,0.6,0.1,1,0.4,1.3C421.3,130.6,421.7,130.8,422.1,130.8z M424.6,128.8c0-0.5,0.1-0.9,0.3-1.3c0.2-0.4,0.5-0.7,0.8-0.9
		s0.7-0.3,1.2-0.3c0.7,0,1.2,0.2,1.7,0.7c0.4,0.5,0.6,1.1,0.6,1.9v0.1c0,0.5-0.1,0.9-0.3,1.3c-0.2,0.4-0.5,0.7-0.8,0.9
		s-0.7,0.3-1.2,0.3c-0.7,0-1.2-0.2-1.7-0.7C424.8,130.3,424.6,129.6,424.6,128.8L424.6,128.8z M425.5,128.9c0,0.6,0.1,1,0.4,1.3
		s0.6,0.5,1,0.5s0.8-0.2,1-0.5c0.3-0.3,0.4-0.8,0.4-1.5c0-0.5-0.1-1-0.4-1.3s-0.6-0.5-1-0.5s-0.8,0.2-1,0.5
		C425.6,127.8,425.5,128.3,425.5,128.9z M431.2,126.3v0.6c0.4-0.5,0.9-0.7,1.5-0.7c1.1,0,1.6,0.6,1.6,1.8v3.3h-0.9v-3.3
		c0-0.4-0.1-0.6-0.2-0.8c-0.2-0.2-0.4-0.3-0.8-0.3c-0.3,0-0.5,0.1-0.7,0.2c-0.2,0.1-0.4,0.3-0.5,0.6v3.6h-0.9v-5L431.2,126.3
		L431.2,126.3z M435.8,128.8c0-0.8,0.2-1.4,0.5-1.9c0.4-0.5,0.8-0.7,1.4-0.7s1.1,0.2,1.4,0.6v-2.6h0.9v7.2h-0.8v-0.5
		c-0.3,0.4-0.8,0.6-1.4,0.6s-1.1-0.2-1.4-0.7C435.9,130.3,435.8,129.6,435.8,128.8L435.8,128.8z M436.6,128.9c0,0.6,0.1,1,0.3,1.3
		c0.2,0.3,0.6,0.5,1,0.5c0.5,0,0.9-0.2,1.2-0.7v-2.3c-0.3-0.5-0.7-0.7-1.2-0.7c-0.4,0-0.8,0.2-1,0.5
		C436.7,127.8,436.6,128.3,436.6,128.9z"/>
</g>
</svg>
