<?xml version="1.0" encoding="utf-8"?>
<!-- Generator: Adobe Illustrator 23.0.6, SVG Export Plug-In . SVG Version: 6.00 Build 0)  -->
<svg version="1.1" id="Layer_1" xmlns="http://www.w3.org/2000/svg" xmlns:xlink="http://www.w3.org/1999/xlink" x="0px" y="0px"
	 viewBox="0 0 784 578" style="enable-background:new 0 0 784 578;" xml:space="preserve">
<style type="text/css">
	.st0{fill:#FFFFFF;stroke:#DAE1E5;stroke-miterlimit:10;}
	.st1{enable-background:new    ;}
	.st2{fill:#FF6E42;}
	.st3{fill:none;stroke:#333333;stroke-miterlimit:10;}
	.st4{fill:#DAE1E5;}
	.st5{fill:none;stroke:#CCCCCC;stroke-miterlimit:10;}
	.st6{clip-path:url(#SVGID_2_);fill:#FF7D55;}
	.st7{clip-path:url(#SVGID_4_);fill:#FFB7A1;}
	.st8{clip-path:url(#SVGID_6_);fill:none;}
	.st9{clip-path:url(#SVGID_8_);fill:#FF9A7B;}
	.st10{clip-path:url(#SVGID_10_);fill:#CC5835;}
	.st11{clip-path:url(#SVGID_12_);fill:#FF8B68;}
	.st12{clip-path:url(#SVGID_14_);fill:none;}
	.st13{clip-path:url(#SVGID_16_);fill:#FF6E42;}
	.st14{clip-path:url(#SVGID_18_);fill:#282151;}
	.st15{clip-path:url(#SVGID_20_);fill:#5B5484;}
	.st16{clip-path:url(#SVGID_22_);fill:none;}
	.st17{clip-path:url(#SVGID_24_);fill:#322965;}
	.st18{fill:none;stroke:#F75821;stroke-width:3;stroke-linecap:round;stroke-linejoin:round;stroke-miterlimit:10;}
	.st19{fill:#FFFFFF;}
	.st20{fill:none;stroke:#202951;stroke-width:3;stroke-linecap:round;stroke-linejoin:round;stroke-miterlimit:10;}
	.st21{fill:#322965;}
</style>
<g>
	<path class="st0" d="M767,576H17c-8.3,0-15-6.7-15-15V17C2,8.7,8.7,2,17,2H767c8.3,0,15,6.7,15,15V561C782,569.2,775.2,576,767,576
		z"/>
	<g class="st1">
		<path class="st2" d="M65.6,72.1c-1.3-1.2-1.9-3-1.9-5.4V56.1c0-0.2,0.1-0.3,0.2-0.5c0.1-0.1,0.3-0.2,0.5-0.2h2.4
			c0.2,0,0.3,0.1,0.5,0.2c0.2,0.1,0.2,0.3,0.2,0.5v10.6c0,1.4,0.3,2.4,1,3.1c0.7,0.7,1.6,1,2.8,1c1.2,0,2.1-0.3,2.8-1
			c0.7-0.7,1-1.7,1-3.1V56.1c0-0.2,0.1-0.3,0.2-0.5c0.1-0.1,0.3-0.2,0.5-0.2h2.4c0.2,0,0.3,0.1,0.5,0.2c0.1,0.1,0.2,0.3,0.2,0.5
			v10.6c0,2.4-0.6,4.2-1.9,5.4c-1.3,1.2-3.1,1.8-5.4,1.8C68.8,73.8,66.9,73.2,65.6,72.1z"/>
		<path class="st2" d="M82.3,78.3c-0.1-0.1-0.2-0.3-0.2-0.5V60.7c0-0.2,0.1-0.3,0.2-0.5c0.1-0.1,0.3-0.2,0.4-0.2h2.1
			c0.2,0,0.3,0.1,0.5,0.2c0.1,0.1,0.2,0.3,0.2,0.4v1c0.9-1.3,2.3-1.9,4.1-1.9c1.8,0,3.1,0.6,4,1.7c0.9,1.1,1.4,2.6,1.5,4.4
			c0,0.2,0,0.5,0,0.9s0,0.7,0,0.9c-0.1,1.8-0.5,3.3-1.5,4.4c-0.9,1.1-2.3,1.7-4,1.7s-3.1-0.6-4-1.8v6.1c0,0.2-0.1,0.3-0.2,0.5
			c-0.1,0.1-0.3,0.2-0.5,0.2h-2.3C82.6,78.6,82.4,78.4,82.3,78.3z M91.6,67.7c0-0.2,0-0.4,0-0.8c0-0.4,0-0.6,0-0.8
			c-0.1-2.3-1.1-3.4-3-3.4c-1,0-1.7,0.3-2.2,1c-0.5,0.6-0.7,1.4-0.8,2.3c0,0.2,0,0.5,0,1s0,0.8,0,1c0,0.9,0.3,1.6,0.8,2.2
			s1.2,0.9,2.2,0.9C90.5,71.1,91.5,69.9,91.6,67.7z"/>
		<path class="st2" d="M106,72.3c-0.8-0.8-1.2-2-1.2-3.6v-5.9h-2.1c-0.2,0-0.3-0.1-0.4-0.2c-0.1-0.1-0.2-0.3-0.2-0.4v-1.5
			c0-0.2,0.1-0.3,0.2-0.4c0.1-0.1,0.3-0.2,0.4-0.2h2.1v-4.3c0-0.2,0.1-0.3,0.2-0.5c0.1-0.1,0.3-0.2,0.4-0.2h2.2
			c0.2,0,0.3,0.1,0.5,0.2c0.1,0.1,0.2,0.3,0.2,0.5v4.3h3.2c0.2,0,0.3,0.1,0.4,0.2s0.2,0.3,0.2,0.4v1.5c0,0.2-0.1,0.3-0.2,0.4
			s-0.3,0.2-0.4,0.2h-3.2v5.6c0,0.7,0.1,1.3,0.4,1.7c0.3,0.4,0.7,0.6,1.3,0.6h1.8c0.2,0,0.3,0.1,0.5,0.2c0.1,0.1,0.2,0.3,0.2,0.5
			v1.6c0,0.2-0.1,0.3-0.2,0.4c-0.1,0.1-0.3,0.2-0.5,0.2h-2.1C108,73.7,106.8,73.2,106,72.3z"/>
		<path class="st2" d="M115.9,72.3c-1.1-1-1.7-2.5-1.8-4.3v-1.1v-1.1c0.1-1.8,0.7-3.3,1.8-4.3c1.1-1,2.7-1.6,4.7-1.6
			c2,0,3.6,0.5,4.7,1.6c1.1,1,1.7,2.5,1.8,4.3c0,0.2,0,0.6,0,1.1s0,0.9,0,1.1c-0.1,1.8-0.7,3.3-1.8,4.3s-2.7,1.6-4.7,1.6
			C118.6,73.8,117,73.3,115.9,72.3z M122.8,70.3c0.5-0.6,0.8-1.4,0.8-2.5c0-0.2,0-0.5,0-1s0-0.8,0-1c0-1.1-0.3-2-0.8-2.5
			c-0.5-0.6-1.2-0.9-2.1-0.9s-1.6,0.3-2.1,0.9c-0.5,0.6-0.8,1.4-0.8,2.5v1v1c0,1.1,0.3,2,0.8,2.5c0.5,0.6,1.2,0.9,2.1,0.9
			S122.3,70.9,122.8,70.3z"/>
		<path class="st2" d="M141.1,73.4c-0.1-0.1-0.2-0.3-0.2-0.4V59.7l-3.9,3c-0.1,0.1-0.2,0.1-0.4,0.1s-0.4-0.1-0.5-0.3L135,61
			c-0.1-0.1-0.1-0.2-0.1-0.4c0-0.2,0.1-0.4,0.3-0.5l5.8-4.5c0.2-0.1,0.4-0.2,0.6-0.2h2.3c0.2,0,0.3,0.1,0.4,0.2s0.2,0.3,0.2,0.4v17
			c0,0.2-0.1,0.3-0.2,0.4c-0.1,0.1-0.3,0.2-0.4,0.2h-2.4C141.3,73.7,141.2,73.6,141.1,73.4z"/>
		<path class="st2" d="M148.1,73.4c-0.1-0.1-0.2-0.3-0.2-0.4v-2.6c0-0.2,0.1-0.3,0.2-0.4c0.1-0.1,0.3-0.2,0.4-0.2h2.6
			c0.2,0,0.3,0.1,0.4,0.2c0.1,0.1,0.2,0.3,0.2,0.4v2.6c0,0.2-0.1,0.3-0.2,0.4c-0.1,0.1-0.3,0.2-0.5,0.2h-2.5
			C148.4,73.7,148.2,73.6,148.1,73.4z"/>
		<path class="st2" d="M157.6,73.1c-1.1-0.6-2-1.3-2.5-2.3c-0.6-1-0.9-2.1-0.9-3.3c0-1.5,0.7-3.2,2-5l4.7-6.5
			c0.1-0.2,0.3-0.3,0.4-0.4c0.1-0.1,0.3-0.1,0.5-0.1h2.5c0.2,0,0.3,0.1,0.4,0.2c0.1,0.1,0.1,0.2,0.1,0.4c0,0.1,0,0.2-0.1,0.3l-3.6,5
			c0.3-0.1,0.6-0.1,1.1-0.1c1.2,0,2.2,0.3,3.2,0.8s1.8,1.3,2.3,2.2c0.6,0.9,0.9,2,0.9,3.1c0,1.2-0.3,2.3-0.9,3.2
			c-0.6,1-1.4,1.8-2.5,2.3c-1.1,0.6-2.3,0.9-3.8,0.9C160,73.8,158.7,73.6,157.6,73.1z M163.9,69.9c0.7-0.6,1-1.4,1-2.5
			c0-1-0.3-1.9-1-2.5c-0.7-0.6-1.5-0.9-2.5-0.9s-1.8,0.3-2.5,0.9c-0.7,0.6-1,1.4-1,2.5c0,1.1,0.3,1.9,1,2.5c0.7,0.6,1.5,0.9,2.5,0.9
			S163.2,70.6,163.9,69.9z"/>
		<path class="st2" d="M170.2,73.4c-0.1-0.1-0.2-0.2-0.2-0.4c0-0.2,0.1-0.3,0.2-0.4l4.4-5.9l-4.1-5.6c-0.1-0.1-0.2-0.3-0.2-0.4
			c0-0.2,0.1-0.3,0.2-0.4c0.1-0.1,0.2-0.2,0.4-0.2h2.3c0.2,0,0.3,0,0.4,0.1c0.1,0.1,0.2,0.2,0.3,0.3l2.9,3.9l2.9-3.9
			c0,0,0.1-0.1,0.2-0.2c0.1-0.1,0.3-0.2,0.5-0.2h2.2c0.2,0,0.3,0.1,0.4,0.2c0.1,0.1,0.2,0.2,0.2,0.4c0,0.2-0.1,0.3-0.2,0.5l-4.2,5.6
			l4.5,5.9c0.1,0.1,0.2,0.3,0.2,0.4c0,0.2-0.1,0.3-0.2,0.4c-0.1,0.1-0.2,0.2-0.4,0.2h-2.4c-0.3,0-0.5-0.1-0.7-0.4l-3.1-4.1l-3.1,4.1
			c-0.2,0.3-0.4,0.4-0.7,0.4h-2.3C170.5,73.7,170.3,73.6,170.2,73.4z"/>
		<path class="st2" d="M192.3,73.4c-0.1-0.1-0.2-0.3-0.2-0.4V56.2c0-0.2,0.1-0.3,0.2-0.5c0.1-0.1,0.3-0.2,0.5-0.2h7.5
			c2,0,3.5,0.4,4.5,1.3s1.5,2.1,1.5,3.7c0,0.9-0.2,1.7-0.7,2.3c-0.4,0.6-1,1.1-1.5,1.4c0.7,0.3,1.3,0.9,1.8,1.6s0.8,1.6,0.8,2.5
			c0,1.6-0.5,2.9-1.6,3.9s-2.6,1.5-4.6,1.5h-7.8C192.6,73.7,192.4,73.6,192.3,73.4z M199.8,62.8c0.9,0,1.6-0.2,2-0.6
			c0.5-0.4,0.7-1,0.7-1.7s-0.2-1.3-0.7-1.7s-1.2-0.6-2.1-0.6h-4v4.7L199.8,62.8L199.8,62.8z M200.1,70.8c0.9,0,1.6-0.2,2.1-0.7
			s0.8-1.1,0.8-1.9s-0.3-1.4-0.8-1.9s-1.2-0.7-2.1-0.7h-4.3v5.3L200.1,70.8L200.1,70.8z"/>
		<path class="st2" d="M210.9,72.2c-1.1-1.1-1.7-2.7-1.8-4.7v-0.7c0-2.2,0.6-3.9,1.7-5.1c1.1-1.2,2.7-1.9,4.7-1.9
			c2.1,0,3.7,0.6,4.8,1.9s1.7,2.9,1.7,5v0.5c0,0.2-0.1,0.3-0.2,0.4s-0.3,0.2-0.5,0.2h-8.6v0.2c0,1,0.3,1.8,0.8,2.4
			c0.5,0.6,1.2,0.9,2,0.9c1,0,1.8-0.4,2.4-1.2c0.2-0.2,0.3-0.3,0.4-0.4c0.1,0,0.2-0.1,0.4-0.1h2.3c0.2,0,0.3,0,0.4,0.1
			c0.1,0.1,0.2,0.2,0.2,0.4c0,0.4-0.2,0.9-0.7,1.5s-1.2,1.1-2.1,1.5s-2,0.6-3.2,0.6C213.6,73.8,212,73.3,210.9,72.2z M218.3,65.7
			L218.3,65.7c0-1.1-0.3-1.9-0.8-2.5s-1.2-0.9-2.1-0.9c-0.9,0-1.6,0.3-2.1,0.9s-0.8,1.4-0.8,2.5v0.1L218.3,65.7L218.3,65.7
			L218.3,65.7z"/>
		<path class="st2" d="M227.2,72.3c-0.8-0.8-1.2-2-1.2-3.6v-5.9h-2.1c-0.2,0-0.3-0.1-0.4-0.2c-0.1-0.1-0.2-0.3-0.2-0.4v-1.5
			c0-0.2,0.1-0.3,0.2-0.4c0.1-0.1,0.3-0.2,0.4-0.2h2.1v-4.3c0-0.2,0.1-0.3,0.2-0.5c0.1-0.1,0.3-0.2,0.4-0.2h2.2
			c0.2,0,0.3,0.1,0.5,0.2c0.1,0.1,0.2,0.3,0.2,0.5v4.3h3.2c0.2,0,0.3,0.1,0.4,0.2s0.2,0.3,0.2,0.4v1.5c0,0.2-0.1,0.3-0.2,0.4
			s-0.3,0.2-0.4,0.2h-3.2v5.6c0,0.7,0.1,1.3,0.4,1.7c0.3,0.4,0.7,0.6,1.3,0.6h1.8c0.2,0,0.3,0.1,0.5,0.2c0.1,0.1,0.2,0.3,0.2,0.5
			v1.6c0,0.2-0.1,0.3-0.2,0.4c-0.1,0.1-0.3,0.2-0.5,0.2h-2.1C229.2,73.7,228,73.2,227.2,72.3z"/>
		<path class="st2" d="M238.4,72.3c-0.8-0.8-1.2-2-1.2-3.6v-5.9h-2.1c-0.2,0-0.3-0.1-0.4-0.2c-0.1-0.1-0.2-0.3-0.2-0.4v-1.5
			c0-0.2,0.1-0.3,0.2-0.4c0.1-0.1,0.3-0.2,0.4-0.2h2.1v-4.3c0-0.2,0.1-0.3,0.2-0.5c0.1-0.1,0.3-0.2,0.4-0.2h2.2
			c0.2,0,0.3,0.1,0.5,0.2c0.1,0.1,0.2,0.3,0.2,0.5v4.3h3.2c0.2,0,0.3,0.1,0.4,0.2s0.2,0.3,0.2,0.4v1.5c0,0.2-0.1,0.3-0.2,0.4
			s-0.3,0.2-0.4,0.2h-3.2v5.6c0,0.7,0.1,1.3,0.4,1.7c0.3,0.4,0.7,0.6,1.3,0.6h1.8c0.2,0,0.3,0.1,0.5,0.2c0.1,0.1,0.2,0.3,0.2,0.5
			v1.6c0,0.2-0.1,0.3-0.2,0.4c-0.1,0.1-0.3,0.2-0.5,0.2H242C240.4,73.7,239.2,73.2,238.4,72.3z"/>
		<path class="st2" d="M248.3,72.2c-1.1-1.1-1.7-2.7-1.8-4.7v-0.7c0-2.2,0.6-3.9,1.7-5.1c1.1-1.2,2.7-1.9,4.7-1.9
			c2.1,0,3.7,0.6,4.8,1.9s1.7,2.9,1.7,5v0.5c0,0.2-0.1,0.3-0.2,0.4s-0.3,0.2-0.5,0.2H250v0.2c0,1,0.3,1.8,0.8,2.4
			c0.5,0.6,1.2,0.9,2,0.9c1,0,1.8-0.4,2.4-1.2c0.2-0.2,0.3-0.3,0.4-0.4c0.1,0,0.2-0.1,0.4-0.1h2.3c0.2,0,0.3,0,0.4,0.1
			s0.2,0.2,0.2,0.4c0,0.4-0.2,0.9-0.7,1.5s-1.2,1.1-2.1,1.5s-2,0.6-3.2,0.6C251,73.8,249.4,73.3,248.3,72.2z M255.7,65.7L255.7,65.7
			c0-1.1-0.3-1.9-0.8-2.5s-1.2-0.9-2.1-0.9s-1.6,0.3-2.1,0.9s-0.8,1.4-0.8,2.5v0.1L255.7,65.7L255.7,65.7z"/>
		<path class="st2" d="M262.2,73.4c-0.1-0.1-0.2-0.3-0.2-0.4V60.9c0-0.2,0.1-0.3,0.2-0.5c0.1-0.1,0.3-0.2,0.4-0.2h2.1
			c0.2,0,0.3,0.1,0.5,0.2c0.1,0.1,0.2,0.3,0.2,0.5V62c0.9-1.1,2.1-1.7,3.7-1.7h1.1c0.2,0,0.3,0.1,0.5,0.2c0.1,0.1,0.2,0.3,0.2,0.5
			v1.9c0,0.2-0.1,0.3-0.2,0.4c-0.1,0.1-0.3,0.2-0.5,0.2h-2.1c-0.8,0-1.5,0.2-1.9,0.7s-0.7,1.1-0.7,1.9v7.1c0,0.2-0.1,0.3-0.2,0.4
			s-0.3,0.2-0.4,0.2h-2.3C262.5,73.7,262.4,73.6,262.2,73.4z"/>
		<path class="st2" d="M281,73.2c-1.1-0.5-2-1.1-2.5-1.8c-0.6-0.8-0.9-1.6-0.9-2.5c0-0.1,0.1-0.3,0.2-0.4c0.1-0.1,0.2-0.2,0.4-0.2
			h2.4c0.2,0,0.3,0,0.5,0.1c0.1,0.1,0.2,0.2,0.3,0.4c0.2,0.6,0.6,1.1,1.2,1.5s1.5,0.6,2.5,0.6c1.2,0,2.1-0.2,2.7-0.6s0.9-1,0.9-1.7
			c0-0.5-0.2-0.9-0.5-1.2c-0.3-0.3-0.8-0.6-1.4-0.8c-0.6-0.2-1.6-0.5-2.8-0.8c-2-0.5-3.5-1.1-4.5-1.9s-1.4-1.9-1.4-3.4
			c0-1,0.3-1.9,0.8-2.7c0.5-0.8,1.3-1.4,2.4-1.9c1-0.5,2.2-0.7,3.6-0.7s2.7,0.3,3.7,0.8s1.8,1.1,2.4,1.9c0.6,0.8,0.8,1.5,0.9,2.2
			c0,0.1-0.1,0.3-0.2,0.4s-0.2,0.2-0.4,0.2h-2.5c-0.4,0-0.6-0.2-0.8-0.5c-0.1-0.6-0.4-1-1-1.4c-0.6-0.4-1.3-0.6-2.2-0.6
			c-1,0-1.7,0.2-2.2,0.5c-0.5,0.4-0.8,0.9-0.8,1.6c0,0.5,0.1,0.9,0.4,1.2c0.3,0.3,0.7,0.6,1.3,0.8c0.6,0.2,1.4,0.5,2.6,0.8
			c1.5,0.3,2.8,0.7,3.7,1.2c0.9,0.4,1.6,1,2,1.6c0.4,0.7,0.7,1.5,0.7,2.5c0,1.1-0.3,2.1-0.9,2.9c-0.6,0.8-1.5,1.5-2.6,1.9
			s-2.4,0.6-3.9,0.6C283.5,73.8,282.1,73.7,281,73.2z"/>
		<path class="st2" d="M296.2,72.2c-1.1-1.1-1.7-2.7-1.8-4.7v-0.7c0-2.2,0.6-3.9,1.7-5.1s2.7-1.9,4.7-1.9c2.1,0,3.7,0.6,4.8,1.9
			s1.7,2.9,1.7,5v0.5c0,0.2-0.1,0.3-0.2,0.4s-0.3,0.2-0.5,0.2h-8.6v0.2c0,1,0.3,1.8,0.8,2.4c0.5,0.6,1.2,0.9,2,0.9
			c1,0,1.8-0.4,2.4-1.2c0.2-0.2,0.3-0.3,0.4-0.4c0.1,0,0.2-0.1,0.4-0.1h2.3c0.2,0,0.3,0,0.4,0.1s0.2,0.2,0.2,0.4
			c0,0.4-0.2,0.9-0.7,1.5s-1.2,1.1-2.1,1.5s-2,0.6-3.2,0.6C299,73.8,297.4,73.3,296.2,72.2z M303.8,65.7L303.8,65.7
			c0-1.1-0.3-1.9-0.8-2.5s-1.2-0.9-2.1-0.9s-1.6,0.3-2.1,0.9s-0.8,1.4-0.8,2.5v0.1L303.8,65.7L303.8,65.7z"/>
		<path class="st2" d="M311.4,72.2c-1.1-1.1-1.7-2.5-1.8-4.4v-1v-1c0.1-1.9,0.7-3.3,1.8-4.4c1.1-1.1,2.7-1.6,4.6-1.6
			c1.4,0,2.5,0.2,3.5,0.7c0.9,0.5,1.6,1.1,2.1,1.8c0.5,0.7,0.7,1.4,0.7,2c0,0.2,0,0.3-0.2,0.4c-0.1,0.1-0.3,0.2-0.5,0.2h-2.3
			c-0.2,0-0.3,0-0.4-0.1s-0.2-0.2-0.3-0.4c-0.3-0.7-0.6-1.1-1-1.4c-0.4-0.3-1-0.4-1.6-0.4c-0.9,0-1.6,0.3-2.1,0.8s-0.8,1.4-0.8,2.5
			v1v0.9c0.1,2.3,1.1,3.4,2.9,3.4c0.7,0,1.2-0.1,1.6-0.4c0.4-0.3,0.8-0.8,1-1.4c0.1-0.2,0.2-0.3,0.2-0.4s0.2-0.1,0.4-0.1h2.3
			c0.2,0,0.3,0.1,0.5,0.2s0.2,0.3,0.2,0.4c0,0.6-0.3,1.3-0.7,2c-0.5,0.7-1.1,1.3-2.1,1.8c-0.9,0.5-2.1,0.8-3.5,0.8
			C314,73.8,312.5,73.3,311.4,72.2z"/>
		<path class="st2" d="M326.2,72.3c-1.1-1-1.7-2.5-1.8-4.3v-1.1v-1.1c0.1-1.8,0.7-3.3,1.8-4.3c1.1-1,2.7-1.6,4.7-1.6
			s3.6,0.5,4.7,1.6c1.1,1,1.7,2.5,1.8,4.3c0,0.2,0,0.6,0,1.1s0,0.9,0,1.1c-0.1,1.8-0.7,3.3-1.8,4.3c-1.1,1-2.7,1.6-4.7,1.6
			C328.9,73.8,327.4,73.3,326.2,72.3z M333.1,70.3c0.5-0.6,0.8-1.4,0.8-2.5c0-0.2,0-0.5,0-1s0-0.8,0-1c0-1.1-0.3-2-0.8-2.5
			c-0.5-0.6-1.2-0.9-2.1-0.9s-1.6,0.3-2.1,0.9c-0.5,0.6-0.8,1.4-0.8,2.5v1v1c0,1.1,0.3,2,0.8,2.5c0.5,0.6,1.2,0.9,2.1,0.9
			S332.6,70.9,333.1,70.3z"/>
		<path class="st2" d="M340.6,73.4c-0.1-0.1-0.2-0.3-0.2-0.4V60.8c0-0.2,0.1-0.3,0.2-0.5c0.1-0.1,0.3-0.2,0.4-0.2h2.2
			c0.2,0,0.3,0.1,0.5,0.2c0.1,0.1,0.2,0.3,0.2,0.5v1.1c1.1-1.3,2.5-2,4.3-2c1.6,0,2.9,0.5,3.8,1.6c0.9,1,1.4,2.5,1.4,4.3v7.3
			c0,0.2-0.1,0.3-0.2,0.4c-0.1,0.1-0.3,0.2-0.5,0.2h-2.3c-0.2,0-0.3-0.1-0.4-0.2c-0.1-0.1-0.2-0.3-0.2-0.4v-7.2c0-1-0.2-1.8-0.7-2.4
			s-1.2-0.8-2.1-0.8s-1.6,0.3-2.1,0.9c-0.5,0.6-0.8,1.4-0.8,2.3v7.2c0,0.2-0.1,0.3-0.2,0.4c-0.1,0.1-0.3,0.2-0.5,0.2H341
			C340.8,73.7,340.7,73.6,340.6,73.4z"/>
		<path class="st2" d="M357.6,72.2c-0.9-1.1-1.4-2.6-1.5-4.5v-0.9v-0.9c0.1-1.8,0.6-3.3,1.5-4.5c0.9-1.1,2.3-1.7,4-1.7s3,0.6,4,1.7
			v-5.8c0-0.2,0.1-0.3,0.2-0.5c0.1-0.1,0.3-0.2,0.4-0.2h2.3c0.2,0,0.3,0.1,0.5,0.2c0.1,0.1,0.2,0.3,0.2,0.5v17.4
			c0,0.2-0.1,0.3-0.2,0.4s-0.3,0.2-0.5,0.2h-2.1c-0.2,0-0.3-0.1-0.4-0.2s-0.2-0.3-0.2-0.4v-1c-1,1.2-2.3,1.8-4.1,1.8
			C359.9,73.8,358.6,73.3,357.6,72.2z M364.8,70.2c0.5-0.6,0.7-1.4,0.8-2.4c0-0.2,0-0.5,0-1s0-0.8,0-1c0-0.9-0.3-1.6-0.8-2.2
			s-1.2-0.9-2.2-0.9c-1.9,0-2.8,1.1-3,3.4v0.8v0.8c0.1,2.3,1.1,3.4,3,3.4C363.6,71.1,364.4,70.8,364.8,70.2z"/>
		<path class="st2" d="M374.1,73.3c-0.7-0.4-1.3-0.8-1.7-1.4c-0.4-0.6-0.6-1.3-0.6-2c0-1.2,0.5-2.1,1.4-2.9c1-0.7,2.3-1.2,3.9-1.5
			l3.6-0.5v-0.5c0-0.7-0.2-1.3-0.6-1.7c-0.4-0.4-1-0.6-1.8-0.6c-0.6,0-1,0.1-1.4,0.3s-0.6,0.4-0.8,0.6c-0.2,0.2-0.4,0.4-0.4,0.4
			c-0.1,0.2-0.2,0.3-0.4,0.3h-2c-0.2,0-0.3-0.1-0.4-0.2s-0.2-0.2-0.2-0.4c0-0.4,0.2-0.9,0.6-1.5c0.4-0.5,1-1,1.9-1.4
			c0.8-0.4,1.9-0.6,3.1-0.6c2,0,3.5,0.5,4.5,1.4c0.9,0.9,1.4,2.1,1.4,3.6v8.2c0,0.2-0.1,0.3-0.2,0.4s-0.3,0.2-0.5,0.2h-2.2
			c-0.2,0-0.3-0.1-0.4-0.2s-0.2-0.3-0.2-0.4v-1c-0.4,0.6-0.9,1-1.6,1.4s-1.6,0.5-2.6,0.5C375.6,73.8,374.8,73.7,374.1,73.3z
			 M379.8,70.4c0.6-0.6,0.9-1.5,0.9-2.7v-0.5l-2.6,0.4c-2,0.3-3,1-3,2c0,0.6,0.2,1,0.7,1.3c0.5,0.3,1,0.5,1.7,0.5
			C378.4,71.3,379.1,71.1,379.8,70.4z"/>
		<path class="st2" d="M387.7,73.4c-0.1-0.1-0.2-0.3-0.2-0.4V60.9c0-0.2,0.1-0.3,0.2-0.5s0.3-0.2,0.4-0.2h2.1c0.2,0,0.3,0.1,0.5,0.2
			s0.2,0.3,0.2,0.5V62c0.9-1.1,2.1-1.7,3.7-1.7h1.1c0.2,0,0.3,0.1,0.5,0.2c0.1,0.1,0.2,0.3,0.2,0.5v1.9c0,0.2-0.1,0.3-0.2,0.4
			c-0.1,0.1-0.3,0.2-0.5,0.2h-2.1c-0.8,0-1.5,0.2-1.9,0.7c-0.5,0.5-0.7,1.1-0.7,1.9v7.1c0,0.2-0.1,0.3-0.2,0.4s-0.3,0.2-0.4,0.2
			h-2.3C387.9,73.7,387.8,73.6,387.7,73.4z"/>
		<path class="st2" d="M400.4,78.3c-0.1-0.1-0.2-0.2-0.2-0.4c0-0.1,0-0.3,0.1-0.4l2.1-4.8l-5-11.8c-0.1-0.2-0.1-0.3-0.1-0.4
			c0-0.2,0.1-0.3,0.2-0.4s0.2-0.2,0.4-0.2h2.2c0.3,0,0.5,0.2,0.7,0.5l3.5,8.5l3.5-8.5c0.2-0.3,0.4-0.5,0.7-0.5h2.1
			c0.2,0,0.3,0.1,0.4,0.2s0.2,0.2,0.2,0.4c0,0.1,0,0.3-0.1,0.4l-7.4,17c-0.1,0.3-0.4,0.5-0.7,0.5h-2.1
			C400.7,78.6,400.5,78.4,400.4,78.3z"/>
		<path class="st2" d="M419.1,73.4c-0.1-0.1-0.2-0.3-0.2-0.4v-17c0-0.2,0.1-0.3,0.2-0.5c0.1-0.1,0.3-0.2,0.4-0.2h2.5
			c0.2,0,0.3,0.1,0.5,0.2c0.1,0.1,0.2,0.3,0.2,0.5v17c0,0.2-0.1,0.3-0.2,0.4c-0.1,0.1-0.3,0.2-0.5,0.2h-2.5
			C419.2,73.7,419.2,73.6,419.1,73.4z"/>
		<path class="st2" d="M426.6,73.4c-0.1-0.1-0.2-0.3-0.2-0.4V60.8c0-0.2,0.1-0.3,0.2-0.5c0.1-0.1,0.3-0.2,0.4-0.2h2.2
			c0.2,0,0.3,0.1,0.5,0.2c0.1,0.1,0.2,0.3,0.2,0.5v1.1c1.1-1.3,2.5-2,4.3-2c1.6,0,2.9,0.5,3.8,1.6c0.9,1,1.4,2.5,1.4,4.3v7.3
			c0,0.2-0.1,0.3-0.2,0.4c-0.1,0.1-0.3,0.2-0.5,0.2h-2.3c-0.2,0-0.3-0.1-0.4-0.2c-0.1-0.1-0.2-0.3-0.2-0.4v-7.2c0-1-0.2-1.8-0.7-2.4
			s-1.2-0.8-2.1-0.8s-1.6,0.3-2.1,0.9c-0.5,0.6-0.8,1.4-0.8,2.3v7.2c0,0.2-0.1,0.3-0.2,0.4c-0.1,0.1-0.3,0.2-0.5,0.2H427
			C426.8,73.7,426.7,73.6,426.6,73.4z"/>
		<path class="st2" d="M443.6,72.2c-0.9-1.1-1.4-2.6-1.5-4.5v-0.9v-0.9c0.1-1.8,0.6-3.3,1.5-4.5c0.9-1.1,2.3-1.7,4-1.7s3,0.6,4,1.7
			v-5.8c0-0.2,0.1-0.3,0.2-0.5c0.1-0.1,0.3-0.2,0.4-0.2h2.3c0.2,0,0.3,0.1,0.5,0.2c0.1,0.1,0.2,0.3,0.2,0.5v17.4
			c0,0.2-0.1,0.3-0.2,0.4s-0.3,0.2-0.5,0.2h-2.1c-0.2,0-0.3-0.1-0.4-0.2s-0.2-0.3-0.2-0.4v-1c-1,1.2-2.3,1.8-4.1,1.8
			C445.9,73.8,444.5,73.3,443.6,72.2z M450.8,70.2c0.5-0.6,0.7-1.4,0.8-2.4c0-0.2,0-0.5,0-1s0-0.8,0-1c0-0.9-0.3-1.6-0.8-2.2
			s-1.2-0.9-2.2-0.9c-1.9,0-2.8,1.1-3,3.4v0.8v0.8c0.1,2.3,1.1,3.4,3,3.4C449.6,71.1,450.2,70.8,450.8,70.2z"/>
		<path class="st2" d="M459.8,72.2c-1.1-1.1-1.7-2.7-1.8-4.7v-0.7c0-2.2,0.6-3.9,1.7-5.1s2.7-1.9,4.7-1.9c2.1,0,3.7,0.6,4.8,1.9
			s1.7,2.9,1.7,5v0.5c0,0.2-0.1,0.3-0.2,0.4s-0.3,0.2-0.5,0.2h-8.6v0.2c0,1,0.3,1.8,0.8,2.4c0.5,0.6,1.2,0.9,2,0.9
			c1,0,1.8-0.4,2.4-1.2c0.2-0.2,0.3-0.3,0.4-0.4c0.1,0,0.2-0.1,0.4-0.1h2.3c0.2,0,0.3,0,0.4,0.1s0.2,0.2,0.2,0.4
			c0,0.4-0.2,0.9-0.7,1.5s-1.2,1.1-2.1,1.5s-2,0.6-3.2,0.6C462.5,73.8,461,73.3,459.8,72.2z M467.2,65.7L467.2,65.7
			c0-1.1-0.3-1.9-0.8-2.5s-1.2-0.9-2.1-0.9s-1.6,0.3-2.1,0.9s-0.8,1.4-0.8,2.5v0.1L467.2,65.7L467.2,65.7z"/>
		<path class="st2" d="M472.2,73.4c-0.1-0.1-0.2-0.2-0.2-0.4c0-0.2,0.1-0.3,0.2-0.4l4.4-5.9l-4.1-5.6c-0.1-0.1-0.2-0.3-0.2-0.4
			c0-0.2,0.1-0.3,0.2-0.4s0.2-0.2,0.4-0.2h2.3c0.2,0,0.3,0,0.4,0.1c0.1,0.1,0.2,0.2,0.3,0.3l2.9,3.9l2.9-3.9c0,0,0.1-0.1,0.2-0.2
			c0.1-0.1,0.3-0.2,0.5-0.2h2.2c0.2,0,0.3,0.1,0.4,0.2c0.1,0.1,0.2,0.2,0.2,0.4c0,0.2-0.1,0.3-0.2,0.5l-4.2,5.6l4.5,5.9
			c0.1,0.1,0.2,0.3,0.2,0.4c0,0.2-0.1,0.3-0.2,0.4c-0.1,0.1-0.2,0.2-0.4,0.2h-2.4c-0.3,0-0.5-0.1-0.7-0.4l-3.1-4.1l-3.1,4.1
			c-0.2,0.3-0.4,0.4-0.7,0.4h-2.3C472.5,73.7,472.4,73.6,472.2,73.4z"/>
		<path class="st2" d="M494.4,73.4c-0.1-0.1-0.2-0.3-0.2-0.4v-17c0-0.2,0.1-0.3,0.2-0.5c0.1-0.1,0.3-0.2,0.4-0.2h2.5
			c0.2,0,0.3,0.1,0.5,0.2c0.1,0.1,0.2,0.3,0.2,0.5v17c0,0.2-0.1,0.3-0.2,0.4c-0.1,0.1-0.3,0.2-0.5,0.2h-2.5
			C494.6,73.7,494.5,73.6,494.4,73.4z"/>
		<path class="st2" d="M501.8,73.4c-0.1-0.1-0.2-0.3-0.2-0.4V60.8c0-0.2,0.1-0.3,0.2-0.5c0.1-0.1,0.3-0.2,0.4-0.2h2.2
			c0.2,0,0.3,0.1,0.5,0.2c0.1,0.1,0.2,0.3,0.2,0.5v1.1c1.1-1.3,2.5-2,4.3-2c1.6,0,2.9,0.5,3.8,1.6c0.9,1,1.4,2.5,1.4,4.3v7.3
			c0,0.2-0.1,0.3-0.2,0.4c-0.1,0.1-0.3,0.2-0.5,0.2h-2.3c-0.2,0-0.3-0.1-0.4-0.2c-0.1-0.1-0.2-0.3-0.2-0.4v-7.2c0-1-0.2-1.8-0.7-2.4
			s-1.2-0.8-2.1-0.8c-0.9,0-1.6,0.3-2.1,0.9c-0.5,0.6-0.8,1.4-0.8,2.3v7.2c0,0.2-0.1,0.3-0.2,0.4c-0.1,0.1-0.3,0.2-0.5,0.2h-2.3
			C502.1,73.7,502,73.6,501.8,73.4z"/>
		<path class="st2" d="M519.8,73.2c-0.9-0.4-1.5-0.9-2-1.4c-0.4-0.5-0.6-1-0.6-1.4c0-0.2,0.1-0.3,0.2-0.4c0.1-0.1,0.2-0.2,0.4-0.2
			h2.1c0.1,0,0.3,0.1,0.4,0.2c0.1,0.1,0.3,0.2,0.6,0.5s0.7,0.5,1,0.6s0.8,0.2,1.3,0.2c0.7,0,1.3-0.1,1.7-0.4
			c0.4-0.3,0.7-0.7,0.7-1.2c0-0.3-0.1-0.6-0.3-0.8c-0.2-0.2-0.6-0.4-1.1-0.6c-0.5-0.2-1.3-0.4-2.3-0.6c-1.5-0.3-2.6-0.8-3.3-1.4
			c-0.7-0.6-1.1-1.4-1.1-2.5c0-0.7,0.2-1.3,0.6-2c0.4-0.7,1-1.1,1.9-1.5c0.8-0.4,1.8-0.6,3-0.6s2.2,0.2,3,0.6
			c0.8,0.4,1.5,0.8,1.9,1.3s0.7,1,0.7,1.4c0,0.2-0.1,0.3-0.2,0.4c-0.1,0.1-0.2,0.2-0.4,0.2h-2c-0.2,0-0.3-0.1-0.4-0.2
			c-0.1-0.1-0.3-0.2-0.6-0.5c-0.3-0.3-0.6-0.4-0.9-0.6c-0.3-0.1-0.7-0.2-1.2-0.2c-0.6,0-1.1,0.1-1.5,0.4c-0.4,0.3-0.5,0.6-0.5,1.1
			c0,0.3,0.1,0.6,0.2,0.8c0.2,0.2,0.5,0.4,1,0.6c0.5,0.2,1.3,0.4,2.3,0.6c3.1,0.6,4.7,2,4.7,4.1c0,1.2-0.5,2.2-1.6,3
			c-1.1,0.8-2.6,1.1-4.5,1.1C521.7,73.8,520.5,73.7,519.8,73.2z"/>
		<path class="st2" d="M533,72.2c-1.1-1.1-1.7-2.7-1.8-4.7v-0.7c0-2.2,0.6-3.9,1.7-5.1c1.1-1.2,2.7-1.9,4.7-1.9
			c2.1,0,3.7,0.6,4.8,1.9s1.7,2.9,1.7,5v0.5c0,0.2-0.1,0.3-0.2,0.4s-0.3,0.2-0.5,0.2h-8.6v0.2c0,1,0.3,1.8,0.8,2.4
			c0.5,0.6,1.2,0.9,2,0.9c1,0,1.8-0.4,2.4-1.2c0.2-0.2,0.3-0.3,0.4-0.4c0.1,0,0.2-0.1,0.4-0.1h2.3c0.2,0,0.3,0,0.4,0.1
			c0.1,0.1,0.2,0.2,0.2,0.4c0,0.4-0.2,0.9-0.7,1.5s-1.2,1.1-2.1,1.5s-2,0.6-3.2,0.6C535.7,73.8,534,73.3,533,72.2z M540.5,65.7
			L540.5,65.7c0-1.1-0.3-1.9-0.8-2.5s-1.2-0.9-2.1-0.9c-0.9,0-1.6,0.3-2.1,0.9s-0.8,1.4-0.8,2.5v0.1L540.5,65.7L540.5,65.7
			L540.5,65.7z"/>
		<path class="st2" d="M547,73.4c-0.1-0.1-0.2-0.3-0.2-0.4V60.9c0-0.2,0.1-0.3,0.2-0.5s0.3-0.2,0.4-0.2h2.1c0.2,0,0.3,0.1,0.5,0.2
			s0.2,0.3,0.2,0.5V62c0.9-1.1,2.1-1.7,3.7-1.7h1.1c0.2,0,0.3,0.1,0.5,0.2c0.1,0.1,0.2,0.3,0.2,0.5v1.9c0,0.2-0.1,0.3-0.2,0.4
			c-0.1,0.1-0.3,0.2-0.5,0.2h-2.1c-0.8,0-1.5,0.2-1.9,0.7c-0.5,0.5-0.7,1.1-0.7,1.9v7.1c0,0.2-0.1,0.3-0.2,0.4s-0.3,0.2-0.4,0.2
			h-2.3C547.2,73.7,547,73.6,547,73.4z"/>
		<path class="st2" d="M560.2,72.3c-0.8-0.8-1.2-2-1.2-3.6v-5.9H557c-0.2,0-0.3-0.1-0.4-0.2c-0.1-0.1-0.2-0.3-0.2-0.4v-1.5
			c0-0.2,0.1-0.3,0.2-0.4c0.1-0.1,0.3-0.2,0.4-0.2h2.1v-4.3c0-0.2,0.1-0.3,0.2-0.5c0.1-0.1,0.3-0.2,0.4-0.2h2.2
			c0.2,0,0.3,0.1,0.5,0.2c0.1,0.1,0.2,0.3,0.2,0.5v4.3h3.2c0.2,0,0.3,0.1,0.4,0.2c0.1,0.1,0.2,0.3,0.2,0.4v1.5
			c0,0.2-0.1,0.3-0.2,0.4c-0.1,0.1-0.3,0.2-0.4,0.2h-3.3v5.6c0,0.7,0.1,1.3,0.4,1.7c0.3,0.4,0.7,0.6,1.3,0.6h1.8
			c0.2,0,0.3,0.1,0.5,0.2c0.1,0.1,0.2,0.3,0.2,0.5v1.6c0,0.2-0.1,0.3-0.2,0.4c-0.1,0.1-0.3,0.2-0.5,0.2h-2.1
			C562.2,73.7,561,73.2,560.2,72.3z"/>
		<path class="st2" d="M578.7,73.4c-0.1-0.1-0.2-0.3-0.2-0.4V58.8h-4.8c-0.2,0-0.3-0.1-0.4-0.2S573,58.2,573,58v-2
			c0-0.2,0.1-0.3,0.2-0.5s0.3-0.2,0.5-0.2H587c0.2,0,0.3,0.1,0.5,0.2s0.2,0.3,0.2,0.5v2c0,0.2-0.1,0.3-0.2,0.5s-0.3,0.2-0.5,0.2
			h-4.8v14.2c0,0.2-0.1,0.3-0.2,0.4c-0.1,0.1-0.3,0.2-0.5,0.2h-2.4C579,73.7,578.8,73.6,578.7,73.4z"/>
		<path class="st2" d="M589.7,73.4c-0.1-0.1-0.2-0.3-0.2-0.4V55.8c0-0.2,0.1-0.3,0.2-0.5c0.1-0.1,0.3-0.2,0.4-0.2h2.4
			c0.2,0,0.3,0.1,0.5,0.2c0.1,0.1,0.2,0.3,0.2,0.5v5.9c1-1.2,2.4-1.9,4.2-1.9c1.6,0,2.9,0.5,3.8,1.6s1.4,2.5,1.4,4.3v7.3
			c0,0.2-0.1,0.3-0.2,0.4c-0.1,0.1-0.3,0.2-0.5,0.2h-2.4c-0.2,0-0.3-0.1-0.5-0.2c-0.2-0.1-0.2-0.3-0.2-0.4v-7.2c0-1-0.2-1.8-0.7-2.4
			s-1.2-0.8-2.1-0.8c-0.9,0-1.6,0.3-2.1,0.9c-0.5,0.6-0.8,1.4-0.8,2.3v7.2c0,0.2-0.1,0.3-0.2,0.4c-0.1,0.1-0.3,0.2-0.5,0.2H590
			C590,73.7,589.8,73.6,589.7,73.4z"/>
		<path class="st2" d="M606,73.4c-0.1-0.1-0.2-0.3-0.2-0.4V60.9c0-0.2,0.1-0.3,0.2-0.5c0.1-0.1,0.3-0.2,0.4-0.2h2.1
			c0.2,0,0.3,0.1,0.5,0.2c0.1,0.1,0.2,0.3,0.2,0.5V62c0.9-1.1,2.1-1.7,3.7-1.7h1.1c0.2,0,0.3,0.1,0.5,0.2c0.1,0.1,0.2,0.3,0.2,0.5
			v1.9c0,0.2-0.1,0.3-0.2,0.4c-0.1,0.1-0.3,0.2-0.5,0.2H612c-0.8,0-1.5,0.2-1.9,0.7s-0.7,1.1-0.7,1.9v7.1c0,0.2-0.1,0.3-0.2,0.4
			c-0.1,0.1-0.3,0.2-0.4,0.2h-2.3C606.2,73.7,606.2,73.6,606,73.4z"/>
		<path class="st2" d="M617.9,72.3c-1.1-1-1.7-2.5-1.8-4.3v-1.1v-1.1c0.1-1.8,0.7-3.3,1.8-4.3c1.1-1,2.7-1.6,4.7-1.6
			s3.6,0.5,4.7,1.6c1.1,1,1.7,2.5,1.8,4.3c0,0.2,0,0.6,0,1.1s0,0.9,0,1.1c-0.1,1.8-0.7,3.3-1.8,4.3s-2.7,1.6-4.7,1.6
			C620.5,73.8,619,73.3,617.9,72.3z M624.7,70.3c0.5-0.6,0.8-1.4,0.8-2.5c0-0.2,0-0.5,0-1s0-0.8,0-1c0-1.1-0.3-2-0.8-2.5
			c-0.5-0.6-1.2-0.9-2.1-0.9c-0.9,0-1.6,0.3-2.1,0.9c-0.5,0.6-0.8,1.4-0.8,2.5v1v1c0,1.1,0.3,2,0.8,2.5c0.5,0.6,1.2,0.9,2.1,0.9
			S624.2,70.9,624.7,70.3z"/>
		<path class="st2" d="M633.2,72.3c-0.9-1-1.4-2.5-1.4-4.3v-7.3c0-0.2,0.1-0.3,0.2-0.5c0.1-0.1,0.3-0.2,0.4-0.2h2.3
			c0.2,0,0.3,0.1,0.4,0.2s0.2,0.3,0.2,0.4v7.2c0,2.1,0.9,3.2,2.8,3.2c0.9,0,1.6-0.3,2.1-0.9c0.5-0.6,0.8-1.4,0.8-2.3v-7.2
			c0-0.2,0.1-0.3,0.2-0.5c0.1-0.1,0.3-0.2,0.4-0.2h2.3c0.2,0,0.3,0.1,0.5,0.2c0.1,0.1,0.2,0.3,0.2,0.5v12.3c0,0.2-0.1,0.3-0.2,0.4
			c-0.1,0.1-0.3,0.2-0.5,0.2h-2.2c-0.2,0-0.3-0.1-0.4-0.2c-0.1-0.1-0.2-0.3-0.2-0.4v-1c-1,1.3-2.4,2-4.3,2
			C635.4,73.8,634.2,73.3,633.2,72.3z"/>
		<path class="st2" d="M650.5,78.6c-1-0.5-1.6-1.1-2-1.8s-0.6-1.2-0.6-1.7c0-0.2,0.1-0.3,0.2-0.4c0.1-0.1,0.3-0.2,0.4-0.2h2.3
			c0.2,0,0.3,0,0.4,0.1c0.1,0.1,0.2,0.2,0.3,0.4c0.2,0.5,0.5,0.8,0.9,1.2c0.4,0.3,1,0.5,1.8,0.5c1,0,1.8-0.2,2.3-0.7
			s0.7-1.3,0.7-2.4v-1.8c-0.9,1.1-2.3,1.7-4,1.7c-1.8,0-3.2-0.5-4.1-1.6s-1.4-2.6-1.5-4.5v-0.7v-0.7c0.1-1.9,0.6-3.3,1.5-4.5
			c0.9-1.1,2.3-1.7,4.1-1.7c0.9,0,1.7,0.2,2.4,0.5s1.3,0.8,1.7,1.4v-1c0-0.2,0.1-0.3,0.2-0.5c0.1-0.2,0.3-0.2,0.5-0.2h2.1
			c0.2,0,0.3,0.1,0.4,0.2c0.1,0.1,0.2,0.3,0.2,0.5v12.5c0,1.9-0.5,3.4-1.6,4.5s-2.7,1.6-4.9,1.6C652.7,79.3,651.5,79.1,650.5,78.6z
			 M656.4,69.8c0.5-0.6,0.8-1.4,0.8-2.3c0-0.1,0-0.4,0-0.8c0-0.4,0-0.7,0-0.8c-0.1-0.9-0.3-1.7-0.8-2.3s-1.2-0.9-2.2-0.9
			c-1.9,0-2.9,1.1-3,3.4v0.6c0,2.7,1,4.1,3,4.1C655.2,70.8,655.9,70.4,656.4,69.8z"/>
		<path class="st2" d="M664.4,73.4c-0.1-0.1-0.2-0.3-0.2-0.4V55.8c0-0.2,0.1-0.3,0.2-0.5c0.1-0.1,0.3-0.2,0.4-0.2h2.4
			c0.2,0,0.3,0.1,0.5,0.2c0.1,0.1,0.2,0.3,0.2,0.5v5.9c1-1.2,2.4-1.9,4.2-1.9c1.6,0,2.9,0.5,3.8,1.6s1.4,2.5,1.4,4.3v7.3
			c0,0.2-0.1,0.3-0.2,0.4c-0.1,0.1-0.3,0.2-0.5,0.2h-2.4c-0.2,0-0.3-0.1-0.5-0.2c-0.2-0.1-0.2-0.3-0.2-0.4v-7.2c0-1-0.2-1.8-0.7-2.4
			s-1.2-0.8-2.1-0.8c-0.9,0-1.6,0.3-2.1,0.9c-0.5,0.6-0.8,1.4-0.8,2.3v7.2c0,0.2-0.1,0.3-0.2,0.4c-0.1,0.1-0.3,0.2-0.5,0.2h-2.4
			C664.7,73.7,664.5,73.6,664.4,73.4z"/>
		<path class="st2" d="M680.8,78.3c-0.1-0.1-0.2-0.3-0.2-0.5V60.7c0-0.2,0.1-0.3,0.2-0.5c0.1-0.1,0.3-0.2,0.4-0.2h2.1
			c0.2,0,0.3,0.1,0.5,0.2c0.2,0.1,0.2,0.3,0.2,0.4v1c0.9-1.3,2.3-1.9,4.1-1.9s3.1,0.6,4,1.7c0.9,1.1,1.4,2.6,1.5,4.4
			c0,0.2,0,0.5,0,0.9s0,0.7,0,0.9c-0.1,1.8-0.6,3.3-1.5,4.4s-2.3,1.7-4,1.7s-3.1-0.6-4-1.8v6.1c0,0.2-0.1,0.3-0.2,0.5
			c-0.1,0.1-0.3,0.2-0.5,0.2H681C681,78.6,680.9,78.4,680.8,78.3z M690,67.7c0-0.2,0-0.4,0-0.8c0-0.4,0-0.6,0-0.8
			c-0.1-2.3-1.1-3.4-3-3.4c-1,0-1.7,0.3-2.2,1c-0.5,0.7-0.7,1.4-0.8,2.3c0,0.2,0,0.5,0,1s0,0.8,0,1c0,0.9,0.3,1.6,0.8,2.2
			s1.2,0.9,2.2,0.9C689,71.1,689.9,69.9,690,67.7z"/>
		<path class="st2" d="M697.8,72.3c-0.9-1-1.4-2.5-1.4-4.3v-7.3c0-0.2,0.1-0.3,0.2-0.5c0.1-0.1,0.3-0.2,0.4-0.2h2.3
			c0.2,0,0.3,0.1,0.4,0.2s0.2,0.3,0.2,0.4v7.2c0,2.1,0.9,3.2,2.8,3.2c0.9,0,1.6-0.3,2.1-0.9c0.5-0.6,0.8-1.4,0.8-2.3v-7.2
			c0-0.2,0.1-0.3,0.2-0.5c0.1-0.1,0.3-0.2,0.4-0.2h2.3c0.2,0,0.3,0.1,0.5,0.2c0.1,0.1,0.2,0.3,0.2,0.5v12.3c0,0.2-0.1,0.3-0.2,0.4
			c-0.1,0.1-0.3,0.2-0.5,0.2h-2c-0.2,0-0.3-0.1-0.4-0.2c-0.1-0.1-0.2-0.3-0.2-0.4v-1c-1,1.3-2.4,2-4.3,2
			C700,73.8,698.7,73.3,697.8,72.3z"/>
		<path class="st2" d="M715.2,72.3c-0.8-0.8-1.2-2-1.2-3.6v-5.9H712c-0.2,0-0.3-0.1-0.4-0.2c-0.1-0.1-0.2-0.3-0.2-0.4v-1.5
			c0-0.2,0.1-0.3,0.2-0.4c0.1-0.1,0.3-0.2,0.4-0.2h2.1v-4.3c0-0.2,0.1-0.3,0.2-0.5c0.1-0.1,0.3-0.2,0.4-0.2h2.2
			c0.2,0,0.3,0.1,0.5,0.2c0.1,0.1,0.2,0.3,0.2,0.5v4.3h3.2c0.2,0,0.3,0.1,0.4,0.2c0.1,0.1,0.2,0.3,0.2,0.4v1.5
			c0,0.2-0.1,0.3-0.2,0.4c-0.1,0.1-0.3,0.2-0.4,0.2h-3.3v5.6c0,0.7,0.1,1.3,0.4,1.7c0.3,0.4,0.7,0.6,1.3,0.6h1.8
			c0.2,0,0.3,0.1,0.5,0.2c0.1,0.1,0.2,0.3,0.2,0.5v1.6c0,0.2-0.1,0.3-0.2,0.4c-0.1,0.1-0.3,0.2-0.5,0.2h-2.1
			C717.2,73.7,716,73.2,715.2,72.3z"/>
	</g>
	<path class="st3" d="M104.2,496.4h649"/>
	<path class="st4" d="M65.6,535l38.6-37.7h649L714.5,535H65.6z"/>
	<path class="st5" d="M104.2,386.2h649"/>
	<path class="st5" d="M104.2,275.2h649"/>
	<path class="st5" d="M104.2,165.1h649"/>
	<g>
		<g>
			<g>
				<g>
					<defs>
						<rect id="SVGID_1_" x="65.7" y="165.1" width="687.4" height="369.8"/>
					</defs>
					<clipPath id="SVGID_2_">
						<use xlink:href="#SVGID_1_"  style="overflow:visible;"/>
					</clipPath>
					<path class="st6" d="M288.2,182.1V496l-33.8,33.8V215.8L288.2,182.1z"/>
				</g>
			</g>
		</g>
	</g>
	<g>
		<g>
			<g>
				<g>
					<defs>
						<rect id="SVGID_3_" x="65.7" y="165.1" width="687.4" height="369.8"/>
					</defs>
					<clipPath id="SVGID_4_">
						<use xlink:href="#SVGID_3_"  style="overflow:visible;"/>
					</clipPath>
					<path class="st7" d="M254.4,215.8H121.1l33.8-33.8h133.3L254.4,215.8z"/>
				</g>
			</g>
		</g>
	</g>
	<g>
		<g>
			<g>
				<g>
					<defs>
						<rect id="SVGID_5_" x="65.7" y="165.1" width="687.4" height="369.8"/>
					</defs>
					<clipPath id="SVGID_6_">
						<use xlink:href="#SVGID_5_"  style="overflow:visible;"/>
					</clipPath>
					<path class="st8" d="M254.4,529.7H121.1V215.8h133.3V529.7z"/>
				</g>
			</g>
		</g>
	</g>
	<g>
		<g>
			<g>
				<g>
					<defs>
						<rect id="SVGID_7_" x="65.7" y="165.1" width="687.4" height="369.8"/>
					</defs>
					<clipPath id="SVGID_8_">
						<use xlink:href="#SVGID_7_"  style="overflow:visible;"/>
					</clipPath>
					<path class="st9" d="M254.4,529.7H121.1V215.8h133.3V529.7z"/>
				</g>
			</g>
		</g>
	</g>
	<g>
		<g>
			<g>
				<g>
					<defs>
						<rect id="SVGID_9_" x="65.7" y="165.1" width="687.4" height="369.8"/>
					</defs>
					<clipPath id="SVGID_10_">
						<use xlink:href="#SVGID_9_"  style="overflow:visible;"/>
					</clipPath>
					<path class="st10" d="M492.9,204.2v291.6l-33.8,33.8V238.1L492.9,204.2z"/>
				</g>
			</g>
		</g>
	</g>
	<g>
		<g>
			<g>
				<g>
					<defs>
						<rect id="SVGID_11_" x="65.7" y="165.1" width="687.4" height="369.8"/>
					</defs>
					<clipPath id="SVGID_12_">
						<use xlink:href="#SVGID_11_"  style="overflow:visible;"/>
					</clipPath>
					<path class="st11" d="M459.1,238.1H325.8l33.8-33.8h133.3L459.1,238.1z"/>
				</g>
			</g>
		</g>
	</g>
	<g>
		<g>
			<g>
				<g>
					<defs>
						<rect id="SVGID_13_" x="65.7" y="165.1" width="687.4" height="369.8"/>
					</defs>
					<clipPath id="SVGID_14_">
						<use xlink:href="#SVGID_13_"  style="overflow:visible;"/>
					</clipPath>
					<path class="st12" d="M459.1,529.7H325.8V238.1H459L459.1,529.7L459.1,529.7z"/>
				</g>
			</g>
		</g>
	</g>
	<g>
		<g>
			<g>
				<g>
					<defs>
						<rect id="SVGID_15_" x="65.7" y="165.1" width="687.4" height="369.8"/>
					</defs>
					<clipPath id="SVGID_16_">
						<use xlink:href="#SVGID_15_"  style="overflow:visible;"/>
					</clipPath>
					<path class="st13" d="M459.1,529.7H325.8V238.1H459L459.1,529.7L459.1,529.7z"/>
				</g>
			</g>
		</g>
	</g>
	<g>
		<g>
			<g>
				<g>
					<defs>
						<rect id="SVGID_17_" x="65.7" y="165.1" width="687.4" height="369.8"/>
					</defs>
					<clipPath id="SVGID_18_">
						<use xlink:href="#SVGID_17_"  style="overflow:visible;"/>
					</clipPath>
					<path class="st14" d="M697.5,302.8v193.1l-33.8,33.8V336.6L697.5,302.8z"/>
				</g>
			</g>
		</g>
	</g>
	<g>
		<g>
			<g>
				<g>
					<defs>
						<rect id="SVGID_19_" x="65.7" y="165.1" width="687.4" height="369.8"/>
					</defs>
					<clipPath id="SVGID_20_">
						<use xlink:href="#SVGID_19_"  style="overflow:visible;"/>
					</clipPath>
					<path class="st15" d="M663.8,336.6H530.5l33.8-33.8h133.3L663.8,336.6z"/>
				</g>
			</g>
		</g>
	</g>
	<g>
		<g>
			<g>
				<g>
					<defs>
						<rect id="SVGID_21_" x="65.7" y="165.1" width="687.4" height="369.8"/>
					</defs>
					<clipPath id="SVGID_22_">
						<use xlink:href="#SVGID_21_"  style="overflow:visible;"/>
					</clipPath>
					<path class="st16" d="M663.8,529.7H530.5V336.6h133.3L663.8,529.7L663.8,529.7z"/>
				</g>
			</g>
		</g>
	</g>
	<g>
		<g>
			<g>
				<g>
					<defs>
						<rect id="SVGID_23_" x="65.7" y="165.1" width="687.4" height="369.8"/>
					</defs>
					<clipPath id="SVGID_24_">
						<use xlink:href="#SVGID_23_"  style="overflow:visible;"/>
					</clipPath>
					<path class="st17" d="M663.8,529.7H530.5V336.6h133.3L663.8,529.7L663.8,529.7z"/>
				</g>
			</g>
		</g>
	</g>
	<path class="st18" d="M174.4,227.6l0.4-4.1h4.2v1h-3.3l-0.3,2.2c0.4-0.2,0.9-0.4,1.4-0.4c0.7,0,1.3,0.3,1.8,0.8
		c0.4,0.5,0.7,1.2,0.7,2s-0.2,1.5-0.7,2s-1.1,0.7-1.9,0.7c-0.7,0-1.3-0.2-1.8-0.6c-0.5-0.4-0.7-1-0.8-1.7h1c0.1,0.5,0.2,0.8,0.5,1.1
		s0.6,0.4,1.1,0.4s0.9-0.2,1.1-0.5c0.3-0.3,0.4-0.8,0.4-1.4c0-0.6-0.2-1-0.5-1.3s-0.7-0.5-1.2-0.5s-0.8,0.1-1.1,0.3l-0.3,0.2
		L174.4,227.6z M180.8,233.3l-0.6-0.4c0.4-0.5,0.5-1,0.6-1.5v-0.9h1v0.8c0,0.4-0.1,0.8-0.3,1.1C181.3,232.8,181.1,233.1,180.8,233.3
		z M188,224.1l-3.4,7.7h-1.1l3.4-7.4h-4.5v-0.9h5.6V224.1z M194.6,228.2c0,1.2-0.2,2.1-0.6,2.7c-0.4,0.6-1.1,0.9-2,0.9
		s-1.5-0.3-1.9-0.9c-0.4-0.6-0.6-1.5-0.7-2.6v-1.4c0-1.2,0.2-2.1,0.6-2.7c0.4-0.6,1.1-0.9,2-0.9s1.5,0.3,2,0.9
		c0.4,0.6,0.6,1.4,0.6,2.6L194.6,228.2L194.6,228.2z M193.5,226.8c0-0.9-0.1-1.5-0.4-1.9c-0.2-0.4-0.6-0.6-1.2-0.6
		c-0.5,0-0.9,0.2-1.2,0.6c-0.2,0.4-0.4,1-0.4,1.9v1.7c0,0.9,0.1,1.5,0.4,2c0.3,0.4,0.7,0.6,1.2,0.6s0.9-0.2,1.1-0.6
		c0.3-0.4,0.4-1,0.4-1.9L193.5,226.8L193.5,226.8z M201.3,228.2c0,1.2-0.2,2.1-0.6,2.7c-0.4,0.6-1.1,0.9-2,0.9s-1.5-0.3-1.9-0.9
		c-0.4-0.6-0.6-1.5-0.7-2.6v-1.4c0-1.2,0.2-2.1,0.6-2.7c0.4-0.6,1.1-0.9,2-0.9s1.5,0.3,2,0.9c0.4,0.6,0.6,1.4,0.6,2.6L201.3,228.2
		L201.3,228.2z M200.3,226.8c0-0.9-0.1-1.5-0.4-1.9c-0.2-0.4-0.6-0.6-1.2-0.6c-0.5,0-0.9,0.2-1.2,0.6c-0.2,0.4-0.4,1-0.4,1.9v1.7
		c0,0.9,0.1,1.5,0.4,2c0.3,0.4,0.7,0.6,1.2,0.6s0.9-0.2,1.1-0.6c0.3-0.4,0.4-1,0.4-1.9L200.3,226.8L200.3,226.8z"/>
	<path class="st19" d="M174.4,227.6l0.4-4.1h4.2v1h-3.3l-0.3,2.2c0.4-0.2,0.9-0.4,1.4-0.4c0.7,0,1.3,0.3,1.8,0.8
		c0.4,0.5,0.7,1.2,0.7,2s-0.2,1.5-0.7,2s-1.1,0.7-1.9,0.7c-0.7,0-1.3-0.2-1.8-0.6c-0.5-0.4-0.7-1-0.8-1.7h1c0.1,0.5,0.2,0.8,0.5,1.1
		s0.6,0.4,1.1,0.4s0.9-0.2,1.1-0.5c0.3-0.3,0.4-0.8,0.4-1.4c0-0.6-0.2-1-0.5-1.3s-0.7-0.5-1.2-0.5s-0.8,0.1-1.1,0.3l-0.3,0.2
		L174.4,227.6z M180.8,233.3l-0.6-0.4c0.4-0.5,0.5-1,0.6-1.5v-0.9h1v0.8c0,0.4-0.1,0.8-0.3,1.1C181.3,232.8,181.1,233.1,180.8,233.3
		z M188,224.1l-3.4,7.7h-1.1l3.4-7.4h-4.5v-0.9h5.6V224.1z M194.6,228.2c0,1.2-0.2,2.1-0.6,2.7c-0.4,0.6-1.1,0.9-2,0.9
		s-1.5-0.3-1.9-0.9c-0.4-0.6-0.6-1.5-0.7-2.6v-1.4c0-1.2,0.2-2.1,0.6-2.7c0.4-0.6,1.1-0.9,2-0.9s1.5,0.3,2,0.9
		c0.4,0.6,0.6,1.4,0.6,2.6L194.6,228.2L194.6,228.2z M193.5,226.8c0-0.9-0.1-1.5-0.4-1.9c-0.2-0.4-0.6-0.6-1.2-0.6
		c-0.5,0-0.9,0.2-1.2,0.6c-0.2,0.4-0.4,1-0.4,1.9v1.7c0,0.9,0.1,1.5,0.4,2c0.3,0.4,0.7,0.6,1.2,0.6s0.9-0.2,1.1-0.6
		c0.3-0.4,0.4-1,0.4-1.9L193.5,226.8L193.5,226.8z M201.3,228.2c0,1.2-0.2,2.1-0.6,2.7c-0.4,0.6-1.1,0.9-2,0.9s-1.5-0.3-1.9-0.9
		c-0.4-0.6-0.6-1.5-0.7-2.6v-1.4c0-1.2,0.2-2.1,0.6-2.7c0.4-0.6,1.1-0.9,2-0.9s1.5,0.3,2,0.9c0.4,0.6,0.6,1.4,0.6,2.6L201.3,228.2
		L201.3,228.2z M200.3,226.8c0-0.9-0.1-1.5-0.4-1.9c-0.2-0.4-0.6-0.6-1.2-0.6c-0.5,0-0.9,0.2-1.2,0.6c-0.2,0.4-0.4,1-0.4,1.9v1.7
		c0,0.9,0.1,1.5,0.4,2c0.3,0.4,0.7,0.6,1.2,0.6s0.9-0.2,1.1-0.6c0.3-0.4,0.4-1,0.4-1.9L200.3,226.8L200.3,226.8z"/>
	<path class="st18" d="M379.2,249.6l0.4-4.1h4.2v1h-3.3l-0.3,2.2c0.4-0.2,0.9-0.4,1.4-0.4c0.7,0,1.3,0.3,1.8,0.8
		c0.4,0.5,0.7,1.2,0.7,2s-0.2,1.5-0.7,2s-1.1,0.7-1.9,0.7c-0.7,0-1.3-0.2-1.8-0.6c-0.5-0.4-0.7-1-0.8-1.7h1c0.1,0.5,0.2,0.8,0.5,1.1
		s0.6,0.4,1.1,0.4s0.9-0.2,1.1-0.5c0.3-0.3,0.4-0.8,0.4-1.4c0-0.6-0.2-1-0.5-1.3s-0.7-0.5-1.2-0.5s-0.8,0.1-1.1,0.3l-0.3,0.2
		L379.2,249.6z M385.5,255.4l-0.6-0.4c0.4-0.5,0.5-1,0.6-1.5v-0.9h1v0.8c0,0.4-0.1,0.8-0.3,1.1C386,254.9,385.8,255.2,385.5,255.4z
		 M388.9,249.1h0.8c0.5,0,0.9-0.1,1.2-0.4c0.3-0.3,0.4-0.6,0.4-1c0-1-0.5-1.4-1.4-1.4c-0.5,0-0.8,0.1-1.1,0.4
		c-0.3,0.3-0.4,0.6-0.4,1h-1.1c0-0.7,0.2-1.2,0.7-1.6c0.5-0.4,1.1-0.6,1.8-0.6c0.8,0,1.4,0.2,1.8,0.6s0.7,1,0.7,1.7
		c0,0.4-0.1,0.7-0.3,1s-0.5,0.6-1,0.8c0.5,0.1,0.8,0.4,1,0.7c0.3,0.3,0.4,0.7,0.4,1.2c0,0.7-0.2,1.3-0.7,1.8
		c-0.5,0.4-1.1,0.6-1.9,0.6s-1.4-0.2-1.9-0.6c-0.5-0.4-0.7-1-0.7-1.7h1.1c0,0.4,0.1,0.8,0.4,1c0.3,0.3,0.7,0.4,1.1,0.4
		c0.5,0,0.9-0.1,1.1-0.4c0.3-0.3,0.4-0.7,0.4-1.1c0-0.5-0.1-0.8-0.4-1.1s-0.7-0.4-1.3-0.4h-0.8L388.9,249.1L388.9,249.1z
		 M399.2,250.2c0,1.2-0.2,2.1-0.6,2.7c-0.4,0.6-1.1,0.9-2,0.9s-1.5-0.3-1.9-0.9c-0.4-0.6-0.6-1.5-0.7-2.6v-1.4
		c0-1.2,0.2-2.1,0.6-2.7c0.4-0.6,1.1-0.9,2-0.9s1.5,0.3,2,0.9c0.4,0.6,0.6,1.4,0.6,2.6V250.2z M398.2,248.8c0-0.9-0.1-1.5-0.4-1.9
		c-0.2-0.4-0.6-0.6-1.2-0.6c-0.5,0-0.9,0.2-1.2,0.6c-0.2,0.4-0.4,1-0.4,1.9v1.7c0,0.9,0.1,1.5,0.4,2c0.3,0.4,0.7,0.6,1.2,0.6
		s0.9-0.2,1.1-0.6c0.3-0.4,0.4-1,0.4-1.9v-1.8H398.2z M406.1,250.2c0,1.2-0.2,2.1-0.6,2.7c-0.4,0.6-1.1,0.9-2,0.9s-1.5-0.3-1.9-0.9
		c-0.4-0.6-0.6-1.5-0.7-2.6v-1.4c0-1.2,0.2-2.1,0.6-2.7c0.4-0.6,1.1-0.9,2-0.9s1.5,0.3,2,0.9c0.4,0.6,0.6,1.4,0.6,2.6V250.2z
		 M405,248.8c0-0.9-0.1-1.5-0.4-1.9c-0.2-0.4-0.6-0.6-1.2-0.6c-0.5,0-0.9,0.2-1.2,0.6c-0.2,0.4-0.4,1-0.4,1.9v1.7
		c0,0.9,0.1,1.5,0.4,2c0.3,0.4,0.7,0.6,1.2,0.6s0.9-0.2,1.1-0.6c0.3-0.4,0.4-1,0.4-1.9v-1.8H405z"/>
	<path class="st19" d="M379.2,249.6l0.4-4.1h4.2v1h-3.3l-0.3,2.2c0.4-0.2,0.9-0.4,1.4-0.4c0.7,0,1.3,0.3,1.8,0.8
		c0.4,0.5,0.7,1.2,0.7,2s-0.2,1.5-0.7,2s-1.1,0.7-1.9,0.7c-0.7,0-1.3-0.2-1.8-0.6c-0.5-0.4-0.7-1-0.8-1.7h1c0.1,0.5,0.2,0.8,0.5,1.1
		s0.6,0.4,1.1,0.4s0.9-0.2,1.1-0.5c0.3-0.3,0.4-0.8,0.4-1.4c0-0.6-0.2-1-0.5-1.3s-0.7-0.5-1.2-0.5s-0.8,0.1-1.1,0.3l-0.3,0.2
		L379.2,249.6z M385.5,255.4l-0.6-0.4c0.4-0.5,0.5-1,0.6-1.5v-0.9h1v0.8c0,0.4-0.1,0.8-0.3,1.1C386,254.9,385.8,255.2,385.5,255.4z
		 M388.9,249.1h0.8c0.5,0,0.9-0.1,1.2-0.4c0.3-0.3,0.4-0.6,0.4-1c0-1-0.5-1.4-1.4-1.4c-0.5,0-0.8,0.1-1.1,0.4
		c-0.3,0.3-0.4,0.6-0.4,1h-1.1c0-0.7,0.2-1.2,0.7-1.6c0.5-0.4,1.1-0.6,1.8-0.6c0.8,0,1.4,0.2,1.8,0.6s0.7,1,0.7,1.7
		c0,0.4-0.1,0.7-0.3,1s-0.5,0.6-1,0.8c0.5,0.1,0.8,0.4,1,0.7c0.3,0.3,0.4,0.7,0.4,1.2c0,0.7-0.2,1.3-0.7,1.8
		c-0.5,0.4-1.1,0.6-1.9,0.6s-1.4-0.2-1.9-0.6c-0.5-0.4-0.7-1-0.7-1.7h1.1c0,0.4,0.1,0.8,0.4,1c0.3,0.3,0.7,0.4,1.1,0.4
		c0.5,0,0.9-0.1,1.1-0.4c0.3-0.3,0.4-0.7,0.4-1.1c0-0.5-0.1-0.8-0.4-1.1s-0.7-0.4-1.3-0.4h-0.8L388.9,249.1L388.9,249.1z
		 M399.2,250.2c0,1.2-0.2,2.1-0.6,2.7c-0.4,0.6-1.1,0.9-2,0.9s-1.5-0.3-1.9-0.9c-0.4-0.6-0.6-1.5-0.7-2.6v-1.4
		c0-1.2,0.2-2.1,0.6-2.7c0.4-0.6,1.1-0.9,2-0.9s1.5,0.3,2,0.9c0.4,0.6,0.6,1.4,0.6,2.6V250.2z M398.2,248.8c0-0.9-0.1-1.5-0.4-1.9
		c-0.2-0.4-0.6-0.6-1.2-0.6c-0.5,0-0.9,0.2-1.2,0.6c-0.2,0.4-0.4,1-0.4,1.9v1.7c0,0.9,0.1,1.5,0.4,2c0.3,0.4,0.7,0.6,1.2,0.6
		s0.9-0.2,1.1-0.6c0.3-0.4,0.4-1,0.4-1.9v-1.8H398.2z M406.1,250.2c0,1.2-0.2,2.1-0.6,2.7c-0.4,0.6-1.1,0.9-2,0.9s-1.5-0.3-1.9-0.9
		c-0.4-0.6-0.6-1.5-0.7-2.6v-1.4c0-1.2,0.2-2.1,0.6-2.7c0.4-0.6,1.1-0.9,2-0.9s1.5,0.3,2,0.9c0.4,0.6,0.6,1.4,0.6,2.6V250.2z
		 M405,248.8c0-0.9-0.1-1.5-0.4-1.9c-0.2-0.4-0.6-0.6-1.2-0.6c-0.5,0-0.9,0.2-1.2,0.6c-0.2,0.4-0.4,1-0.4,1.9v1.7
		c0,0.9,0.1,1.5,0.4,2c0.3,0.4,0.7,0.6,1.2,0.6s0.9-0.2,1.1-0.6c0.3-0.4,0.4-1,0.4-1.9v-1.8H405z"/>
	<path class="st20" d="M584.9,348.6h0.8c0.5,0,0.9-0.1,1.2-0.4s0.4-0.6,0.4-1c0-1-0.5-1.4-1.4-1.4c-0.5,0-0.8,0.1-1.1,0.4
		s-0.4,0.6-0.4,1h-1.1c0-0.7,0.2-1.2,0.7-1.6s1.1-0.6,1.8-0.6c0.8,0,1.4,0.2,1.8,0.6c0.4,0.4,0.7,1,0.7,1.7c0,0.4-0.1,0.7-0.3,1
		s-0.5,0.6-1,0.8c0.5,0.1,0.8,0.4,1,0.7c0.3,0.3,0.4,0.7,0.4,1.2c0,0.7-0.2,1.3-0.7,1.8c-0.5,0.4-1.1,0.6-1.9,0.6
		c-0.8,0-1.4-0.2-1.9-0.6s-0.7-1-0.7-1.7h1.1c0,0.4,0.1,0.8,0.4,1c0.3,0.3,0.7,0.4,1.1,0.4c0.5,0,0.9-0.1,1.1-0.4
		c0.3-0.3,0.4-0.7,0.4-1.1c0-0.5-0.1-0.8-0.4-1.1c-0.3-0.3-0.7-0.4-1.3-0.4h-0.8v-0.9H584.9z M590.2,354.8l-0.6-0.4
		c0.4-0.5,0.5-1,0.6-1.5V352h1v0.8c0,0.4-0.1,0.8-0.3,1.1C590.8,354.2,590.5,354.6,590.2,354.8z M592.5,349.1l0.4-4.1h4.2v1h-3.3
		l-0.3,2.2c0.4-0.2,0.9-0.4,1.4-0.4c0.7,0,1.3,0.3,1.8,0.8c0.4,0.5,0.7,1.2,0.7,2s-0.2,1.5-0.7,2s-1.1,0.7-1.9,0.7
		c-0.7,0-1.3-0.2-1.8-0.6s-0.7-1-0.8-1.7h1c0.1,0.5,0.2,0.8,0.5,1.1s0.6,0.4,1.1,0.4s0.9-0.2,1.1-0.5c0.3-0.3,0.4-0.8,0.4-1.4
		s-0.2-1-0.5-1.3s-0.7-0.5-1.2-0.5s-0.8,0.1-1.1,0.3l-0.3,0.2L592.5,349.1z M604,349.7c0,1.2-0.2,2.1-0.6,2.7
		c-0.4,0.6-1.1,0.9-2,0.9s-1.5-0.3-1.9-0.9s-0.6-1.5-0.7-2.6v-1.4c0-1.2,0.2-2.1,0.6-2.7c0.4-0.6,1.1-0.9,2-0.9s1.5,0.3,2,0.9
		c0.4,0.6,0.6,1.4,0.6,2.6L604,349.7L604,349.7z M603,348.2c0-0.9-0.1-1.5-0.4-1.9c-0.2-0.4-0.6-0.6-1.2-0.6c-0.5,0-0.9,0.2-1.2,0.6
		c-0.2,0.4-0.4,1-0.4,1.9v1.7c0,0.9,0.1,1.5,0.4,2c0.3,0.4,0.7,0.6,1.2,0.6s0.9-0.2,1.1-0.6c0.3-0.4,0.4-1,0.4-1.9v-1.8L603,348.2
		L603,348.2z M610.8,349.7c0,1.2-0.2,2.1-0.6,2.7c-0.4,0.6-1.1,0.9-2,0.9s-1.5-0.3-1.9-0.9s-0.6-1.5-0.7-2.6v-1.4
		c0-1.2,0.2-2.1,0.6-2.7c0.4-0.6,1.1-0.9,2-0.9s1.5,0.3,2,0.9c0.4,0.6,0.6,1.4,0.6,2.6L610.8,349.7L610.8,349.7z M609.7,348.2
		c0-0.9-0.1-1.5-0.4-1.9c-0.2-0.4-0.6-0.6-1.2-0.6c-0.5,0-0.9,0.2-1.2,0.6c-0.2,0.4-0.4,1-0.4,1.9v1.7c0,0.9,0.1,1.5,0.4,2
		c0.3,0.4,0.7,0.6,1.2,0.6s0.9-0.2,1.1-0.6c0.3-0.4,0.4-1,0.4-1.9v-1.8L609.7,348.2L609.7,348.2z"/>
	<path class="st19" d="M584.9,348.6h0.8c0.5,0,0.9-0.1,1.2-0.4s0.4-0.6,0.4-1c0-1-0.5-1.4-1.4-1.4c-0.5,0-0.8,0.1-1.1,0.4
		s-0.4,0.6-0.4,1h-1.1c0-0.7,0.2-1.2,0.7-1.6s1.1-0.6,1.8-0.6c0.8,0,1.4,0.2,1.8,0.6c0.4,0.4,0.7,1,0.7,1.7c0,0.4-0.1,0.7-0.3,1
		s-0.5,0.6-1,0.8c0.5,0.1,0.8,0.4,1,0.7c0.3,0.3,0.4,0.7,0.4,1.2c0,0.7-0.2,1.3-0.7,1.8c-0.5,0.4-1.1,0.6-1.9,0.6
		c-0.8,0-1.4-0.2-1.9-0.6s-0.7-1-0.7-1.7h1.1c0,0.4,0.1,0.8,0.4,1c0.3,0.3,0.7,0.4,1.1,0.4c0.5,0,0.9-0.1,1.1-0.4
		c0.3-0.3,0.4-0.7,0.4-1.1c0-0.5-0.1-0.8-0.4-1.1c-0.3-0.3-0.7-0.4-1.3-0.4h-0.8v-0.9H584.9z M590.2,354.8l-0.6-0.4
		c0.4-0.5,0.5-1,0.6-1.5V352h1v0.8c0,0.4-0.1,0.8-0.3,1.1C590.8,354.2,590.5,354.6,590.2,354.8z M592.5,349.1l0.4-4.1h4.2v1h-3.3
		l-0.3,2.2c0.4-0.2,0.9-0.4,1.4-0.4c0.7,0,1.3,0.3,1.8,0.8c0.4,0.5,0.7,1.2,0.7,2s-0.2,1.5-0.7,2s-1.1,0.7-1.9,0.7
		c-0.7,0-1.3-0.2-1.8-0.6s-0.7-1-0.8-1.7h1c0.1,0.5,0.2,0.8,0.5,1.1s0.6,0.4,1.1,0.4s0.9-0.2,1.1-0.5c0.3-0.3,0.4-0.8,0.4-1.4
		s-0.2-1-0.5-1.3s-0.7-0.5-1.2-0.5s-0.8,0.1-1.1,0.3l-0.3,0.2L592.5,349.1z M604,349.7c0,1.2-0.2,2.1-0.6,2.7
		c-0.4,0.6-1.1,0.9-2,0.9s-1.5-0.3-1.9-0.9s-0.6-1.5-0.7-2.6v-1.4c0-1.2,0.2-2.1,0.6-2.7c0.4-0.6,1.1-0.9,2-0.9s1.5,0.3,2,0.9
		c0.4,0.6,0.6,1.4,0.6,2.6L604,349.7L604,349.7z M603,348.2c0-0.9-0.1-1.5-0.4-1.9c-0.2-0.4-0.6-0.6-1.2-0.6c-0.5,0-0.9,0.2-1.2,0.6
		c-0.2,0.4-0.4,1-0.4,1.9v1.7c0,0.9,0.1,1.5,0.4,2c0.3,0.4,0.7,0.6,1.2,0.6s0.9-0.2,1.1-0.6c0.3-0.4,0.4-1,0.4-1.9v-1.8L603,348.2
		L603,348.2z M610.8,349.7c0,1.2-0.2,2.1-0.6,2.7c-0.4,0.6-1.1,0.9-2,0.9s-1.5-0.3-1.9-0.9s-0.6-1.5-0.7-2.6v-1.4
		c0-1.2,0.2-2.1,0.6-2.7c0.4-0.6,1.1-0.9,2-0.9s1.5,0.3,2,0.9c0.4,0.6,0.6,1.4,0.6,2.6L610.8,349.7L610.8,349.7z M609.7,348.2
		c0-0.9-0.1-1.5-0.4-1.9c-0.2-0.4-0.6-0.6-1.2-0.6c-0.5,0-0.9,0.2-1.2,0.6c-0.2,0.4-0.4,1-0.4,1.9v1.7c0,0.9,0.1,1.5,0.4,2
		c0.3,0.4,0.7,0.6,1.2,0.6s0.9-0.2,1.1-0.6c0.3-0.4,0.4-1,0.4-1.9v-1.8L609.7,348.2L609.7,348.2z"/>
	<path class="st21" d="M59,497.2c0,1.2-0.2,2.1-0.6,2.7s-1.1,0.9-2,0.9s-1.5-0.3-1.9-0.9s-0.6-1.5-0.7-2.6v-1.4
		c0-1.2,0.2-2.1,0.6-2.7c0.4-0.6,1.1-0.9,2-0.9s1.5,0.3,2,0.9c0.4,0.6,0.6,1.4,0.6,2.6C59,495.8,59,497.2,59,497.2z M57.9,495.7
		c0-0.9-0.1-1.5-0.4-1.9c-0.2-0.4-0.6-0.6-1.2-0.6c-0.5,0-0.9,0.2-1.2,0.6c-0.2,0.4-0.4,1-0.4,1.9v1.7c0,0.9,0.1,1.5,0.4,2
		c0.3,0.4,0.7,0.6,1.2,0.6s0.9-0.2,1.1-0.6c0.3-0.4,0.4-1,0.4-1.9v-1.8L57.9,495.7L57.9,495.7z"/>
	<path class="st21" d="M37,390.2h-5.4v-0.8l2.9-3.2c0.4-0.5,0.7-0.9,0.9-1.2c0.2-0.3,0.2-0.6,0.2-0.9c0-0.4-0.1-0.8-0.4-1.1
		c-0.3-0.3-0.6-0.4-1-0.4c-0.5,0-0.9,0.2-1.2,0.5s-0.4,0.7-0.4,1.2h-1c0-0.8,0.2-1.4,0.7-1.8c0.5-0.5,1.1-0.7,2-0.7
		c0.8,0,1.4,0.2,1.8,0.6c0.4,0.4,0.7,0.9,0.7,1.6c0,0.8-0.5,1.8-1.6,2.9l-2.2,2.4h4.1L37,390.2L37,390.2z M38.4,391.9l-0.6-0.4
		c0.4-0.5,0.5-1,0.6-1.5v-0.9h1v0.8c0,0.4-0.1,0.8-0.3,1.1C39,391.4,38.7,391.7,38.4,391.9z M45.5,386.8c0,1.2-0.2,2.1-0.6,2.7
		c-0.4,0.6-1.1,0.9-2,0.9s-1.5-0.3-1.9-0.9s-0.6-1.5-0.7-2.6v-1.4c0-1.2,0.2-2.1,0.6-2.7c0.4-0.6,1.1-0.9,2-0.9s1.5,0.3,2,0.9
		c0.4,0.6,0.6,1.4,0.6,2.6C45.5,385.4,45.5,386.8,45.5,386.8z M44.4,385.4c0-0.9-0.1-1.5-0.4-1.9c-0.2-0.4-0.6-0.6-1.2-0.6
		c-0.5,0-0.9,0.2-1.2,0.6c-0.2,0.4-0.4,1-0.4,1.9v1.7c0,0.9,0.1,1.5,0.4,2c0.3,0.4,0.7,0.6,1.2,0.6s0.9-0.2,1.1-0.6
		c0.3-0.4,0.4-1,0.4-1.9v-1.8L44.4,385.4L44.4,385.4z M52.2,386.8c0,1.2-0.2,2.1-0.6,2.7c-0.4,0.6-1.1,0.9-2,0.9s-1.5-0.3-1.9-0.9
		s-0.6-1.5-0.7-2.6v-1.4c0-1.2,0.2-2.1,0.6-2.7c0.4-0.6,1.1-0.9,2-0.9s1.5,0.3,2,0.9c0.4,0.6,0.6,1.4,0.6,2.6
		C52.2,385.4,52.2,386.8,52.2,386.8z M51.2,385.4c0-0.9-0.1-1.5-0.4-1.9c-0.2-0.4-0.6-0.6-1.2-0.6c-0.5,0-0.9,0.2-1.2,0.6
		c-0.2,0.4-0.4,1-0.4,1.9v1.7c0,0.9,0.1,1.5,0.4,2c0.3,0.4,0.7,0.6,1.2,0.6s0.9-0.2,1.1-0.6c0.3-0.4,0.4-1,0.4-1.9v-1.8L51.2,385.4
		L51.2,385.4z M59,386.8c0,1.2-0.2,2.1-0.6,2.7s-1.1,0.9-2,0.9s-1.5-0.3-1.9-0.9s-0.6-1.5-0.7-2.6v-1.4c0-1.2,0.2-2.1,0.6-2.7
		c0.4-0.6,1.1-0.9,2-0.9s1.5,0.3,2,0.9c0.4,0.6,0.6,1.4,0.6,2.6C59,385.4,59,386.8,59,386.8z M57.9,385.4c0-0.9-0.1-1.5-0.4-1.9
		c-0.2-0.4-0.6-0.6-1.2-0.6c-0.5,0-0.9,0.2-1.2,0.6c-0.2,0.4-0.4,1-0.4,1.9v1.7c0,0.9,0.1,1.5,0.4,2c0.3,0.4,0.7,0.6,1.2,0.6
		s0.9-0.2,1.1-0.6c0.3-0.4,0.4-1,0.4-1.9v-1.8L57.9,385.4L57.9,385.4z"/>
	<path class="st21" d="M36,277.1h1.1v0.8H36v1.9h-1V278h-3.8v-0.6l3.7-5.7H36V277.1z M32.4,277.1H35v-4l-0.1,0.2L32.4,277.1z
		 M38.4,281.6l-0.6-0.4c0.4-0.5,0.5-1,0.6-1.5v-0.9h1v0.8c0,0.4-0.1,0.8-0.3,1.1C39,281,38.7,281.2,38.4,281.6z M45.5,276.4
		c0,1.2-0.2,2.1-0.6,2.7c-0.4,0.6-1.1,0.9-2,0.9s-1.5-0.3-1.9-0.9s-0.6-1.5-0.7-2.6V275c0-1.2,0.2-2.1,0.6-2.7
		c0.4-0.6,1.1-0.9,2-0.9s1.5,0.3,2,0.9c0.4,0.6,0.6,1.4,0.6,2.6C45.5,275,45.5,276.4,45.5,276.4z M44.4,275c0-0.9-0.1-1.5-0.4-1.9
		c-0.2-0.4-0.6-0.6-1.2-0.6c-0.5,0-0.9,0.2-1.2,0.6c-0.2,0.4-0.4,1-0.4,1.9v1.7c0,0.9,0.1,1.5,0.4,2c0.3,0.4,0.7,0.6,1.2,0.6
		s0.9-0.2,1.1-0.6c0.3-0.4,0.4-1,0.4-1.9V275H44.4z M52.2,276.4c0,1.2-0.2,2.1-0.6,2.7c-0.4,0.6-1.1,0.9-2,0.9s-1.5-0.3-1.9-0.9
		s-0.6-1.5-0.7-2.6V275c0-1.2,0.2-2.1,0.6-2.7c0.4-0.6,1.1-0.9,2-0.9s1.5,0.3,2,0.9c0.4,0.6,0.6,1.4,0.6,2.6
		C52.2,275,52.2,276.4,52.2,276.4z M51.2,275c0-0.9-0.1-1.5-0.4-1.9c-0.2-0.4-0.6-0.6-1.2-0.6c-0.5,0-0.9,0.2-1.2,0.6
		c-0.2,0.4-0.4,1-0.4,1.9v1.7c0,0.9,0.1,1.5,0.4,2c0.3,0.4,0.7,0.6,1.2,0.6s0.9-0.2,1.1-0.6c0.3-0.4,0.4-1,0.4-1.9V275H51.2z
		 M59,276.4c0,1.2-0.2,2.1-0.6,2.7c-0.4,0.6-1.1,0.9-2,0.9s-1.5-0.3-1.9-0.9s-0.6-1.5-0.7-2.6V275c0-1.2,0.2-2.1,0.6-2.7
		c0.4-0.6,1.1-0.9,2-0.9s1.5,0.3,2,0.9c0.4,0.6,0.6,1.4,0.6,2.6C59,275,59,276.4,59,276.4z M57.9,275c0-0.9-0.1-1.5-0.4-1.9
		c-0.2-0.4-0.6-0.6-1.2-0.6c-0.5,0-0.9,0.2-1.2,0.6c-0.2,0.4-0.4,1-0.4,1.9v1.7c0,0.9,0.1,1.5,0.4,2c0.3,0.4,0.7,0.6,1.2,0.6
		s0.9-0.2,1.1-0.6c0.3-0.4,0.4-1,0.4-1.9V275H57.9z"/>
	<path class="st21" d="M35.7,161.2v0.9h-0.2c-0.8,0-1.5,0.3-1.9,0.7c-0.5,0.5-0.8,1.1-0.8,2c0.4-0.5,1-0.7,1.8-0.7
		c0.7,0,1.3,0.3,1.7,0.8s0.6,1.2,0.6,2s-0.2,1.5-0.7,2s-1.1,0.8-1.9,0.8s-1.4-0.3-1.9-0.9c-0.5-0.6-0.7-1.4-0.7-2.4v-0.5
		c0-1.5,0.3-2.7,1-3.5c0.6-0.8,1.6-1.2,2.9-1.2H35.7z M34.3,164.9c-0.4,0-0.7,0.1-1,0.3s-0.5,0.5-0.6,0.8v0.4c0,0.7,0.2,1.2,0.5,1.6
		c0.3,0.4,0.7,0.6,1.1,0.6c0.5,0,0.8-0.2,1.1-0.5c0.3-0.4,0.4-0.8,0.4-1.4c0-0.6-0.1-1-0.4-1.4C35.2,165.1,34.8,164.9,34.3,164.9z
		 M38.4,171.1l-0.6-0.4c0.4-0.5,0.5-1,0.6-1.5v-0.9h1v0.8c0,0.4-0.1,0.8-0.3,1.1C39,170.6,38.7,170.9,38.4,171.1z M45.5,165.9
		c0,1.2-0.2,2.1-0.6,2.7c-0.4,0.6-1.1,0.9-2,0.9s-1.5-0.3-1.9-0.9c-0.4-0.6-0.6-1.5-0.7-2.6v-1.4c0-1.2,0.2-2.1,0.6-2.7
		c0.4-0.6,1.1-0.9,2-0.9s1.5,0.3,2,0.9c0.4,0.6,0.6,1.4,0.6,2.6C45.5,164.6,45.5,165.9,45.5,165.9z M44.4,164.6
		c0-0.9-0.1-1.5-0.4-1.9c-0.2-0.4-0.6-0.6-1.2-0.6c-0.5,0-0.9,0.2-1.2,0.6c-0.2,0.4-0.4,1-0.4,1.9v1.7c0,0.9,0.1,1.5,0.4,2
		c0.3,0.4,0.7,0.6,1.2,0.6s0.9-0.2,1.1-0.6c0.3-0.4,0.4-1,0.4-1.9v-1.8C44.3,164.6,44.4,164.6,44.4,164.6z M52.2,165.9
		c0,1.2-0.2,2.1-0.6,2.7c-0.4,0.6-1.1,0.9-2,0.9s-1.5-0.3-1.9-0.9c-0.4-0.6-0.6-1.5-0.7-2.6v-1.4c0-1.2,0.2-2.1,0.6-2.7
		c0.4-0.6,1.1-0.9,2-0.9s1.5,0.3,2,0.9c0.4,0.6,0.6,1.4,0.6,2.6C52.2,164.6,52.2,165.9,52.2,165.9z M51.2,164.6
		c0-0.9-0.1-1.5-0.4-1.9c-0.2-0.4-0.6-0.6-1.2-0.6c-0.5,0-0.9,0.2-1.2,0.6c-0.2,0.4-0.4,1-0.4,1.9v1.7c0,0.9,0.1,1.5,0.4,2
		c0.3,0.4,0.7,0.6,1.2,0.6s0.9-0.2,1.1-0.6c0.2-0.4,0.4-1,0.4-1.9v-1.8C51.1,164.6,51.2,164.6,51.2,164.6z M59,165.9
		c0,1.2-0.2,2.1-0.6,2.7c-0.4,0.6-1.1,0.9-2,0.9s-1.5-0.3-1.9-0.9c-0.4-0.6-0.6-1.5-0.7-2.6v-1.4c0-1.2,0.2-2.1,0.6-2.7
		c0.4-0.6,1.1-0.9,2-0.9s1.5,0.3,2,0.9c0.4,0.6,0.6,1.4,0.6,2.6C59,164.6,59,165.9,59,165.9z M57.9,164.6c0-0.9-0.1-1.5-0.4-1.9
		c-0.2-0.4-0.6-0.6-1.2-0.6c-0.5,0-0.9,0.2-1.2,0.6c-0.2,0.4-0.4,1-0.4,1.9v1.7c0,0.9,0.1,1.5,0.4,2c0.3,0.4,0.7,0.6,1.2,0.6
		s0.9-0.2,1.1-0.6c0.3-0.4,0.4-1,0.4-1.9v-1.8C57.8,164.6,57.9,164.6,57.9,164.6z"/>
	<path class="st21" d="M101.4,548.2l2.1-4.1h1.2l-2.8,5.2v3.1h-1.1v-3.1L98,544h1.2L101.4,548.2z M109.3,551.7
		c-0.4,0.5-1,0.7-1.8,0.7c-0.7,0-1.2-0.2-1.5-0.6c-0.3-0.4-0.5-0.9-0.5-1.7v-4h1v4c0,0.9,0.4,1.4,1.1,1.4c0.8,0,1.3-0.3,1.6-0.9V546
		h1.1v6.1h-1L109.3,551.7z M112,549.2c0-1,0.2-1.7,0.7-2.3c0.4-0.6,1-0.8,1.8-0.8c0.7,0,1.3,0.3,1.8,0.8v-0.7h1v6
		c0,0.8-0.2,1.4-0.7,1.9s-1.1,0.7-1.9,0.7c-0.4,0-0.9-0.1-1.3-0.3s-0.7-0.4-1-0.8l0.5-0.6c0.4,0.6,1,0.8,1.6,0.8
		c0.5,0,0.9-0.1,1.2-0.4c0.3-0.3,0.4-0.7,0.4-1.2v-0.5c-0.4,0.5-1,0.7-1.7,0.7s-1.3-0.3-1.7-0.9C112.2,551,112,550.2,112,549.2z
		 M113.1,549.3c0,0.7,0.1,1.2,0.4,1.6c0.3,0.4,0.7,0.6,1.2,0.6c0.7,0,1.1-0.3,1.4-0.9v-2.8c-0.3-0.6-0.8-0.9-1.4-0.9
		c-0.5,0-0.9,0.2-1.2,0.6C113.2,548,113.1,548.5,113.1,549.3z M122.8,552.2c-0.1-0.1-0.1-0.3-0.2-0.6c-0.5,0.5-1.1,0.8-1.7,0.8
		c-0.6,0-1.1-0.2-1.5-0.5s-0.6-0.8-0.6-1.3c0-0.6,0.2-1.1,0.7-1.5c0.5-0.4,1.2-0.5,2.1-0.5h1v-0.5c0-0.4-0.1-0.6-0.3-0.9
		c-0.2-0.2-0.5-0.3-1-0.3c-0.4,0-0.7,0.1-0.9,0.3c-0.3,0.2-0.4,0.4-0.4,0.7h-1.1c0-0.3,0.1-0.6,0.3-0.9c0.2-0.3,0.5-0.5,0.9-0.7
		s0.8-0.3,1.2-0.3c0.7,0,1.3,0.2,1.7,0.5c0.4,0.4,0.6,0.8,0.6,1.4v2.8c0,0.6,0.1,1,0.2,1.3v0.1h-1V552.2z M121.1,551.5
		c0.3,0,0.6-0.1,0.9-0.3c0.3-0.2,0.5-0.4,0.6-0.7v-1.3h-0.8c-1.3,0-1.9,0.4-1.9,1.1c0,0.3,0.1,0.6,0.3,0.8
		C120.5,551.5,120.7,551.5,121.1,551.5z M131,549.3c0,0.9-0.2,1.7-0.6,2.3c-0.4,0.6-1,0.8-1.7,0.8c-0.8,0-1.4-0.3-1.8-0.8l-0.1,0.7
		h-1v-8.7h1v3.2c0.4-0.5,1-0.8,1.8-0.8c0.7,0,1.3,0.3,1.8,0.8C130.8,547.5,131,548.2,131,549.3L131,549.3z M129.9,549.2
		c0-0.7-0.1-1.3-0.4-1.6c-0.3-0.4-0.7-0.6-1.2-0.6c-0.7,0-1.2,0.3-1.5,1v2.7c0.3,0.6,0.8,1,1.5,1c0.5,0,0.9-0.2,1.2-0.6
		C129.8,550.5,129.9,550,129.9,549.2z M134.6,550.8l1.4-4.6h1.1l-2.5,7.1c-0.4,1-1,1.5-1.8,1.5h-0.2l-0.4-0.1v-0.8h0.3
		c0.4,0,0.6-0.1,0.8-0.2c0.2-0.1,0.4-0.4,0.5-0.8l0.2-0.6l-2.2-6.1h1.1L134.6,550.8z M139.8,544.7v1.5h1.1v0.8h-1.1v3.8
		c0,0.3,0.1,0.4,0.2,0.6c0.1,0.1,0.3,0.2,0.5,0.2c0.1,0,0.3,0,0.5-0.1v0.8c-0.3,0.1-0.5,0.1-0.8,0.1c-0.5,0-0.8-0.1-1.1-0.4
		c-0.2-0.3-0.4-0.7-0.4-1.2V547h-1.1v-0.8h1.1v-1.5H139.8z M144.8,552.5c-0.8,0-1.5-0.3-2-0.8c-0.5-0.6-0.8-1.3-0.8-2.2v-0.2
		c0-0.6,0.1-1.2,0.3-1.6c0.2-0.5,0.6-0.9,1-1.1c0.4-0.3,0.9-0.4,1.4-0.4c0.8,0,1.4,0.3,1.9,0.8c0.4,0.5,0.7,1.3,0.7,2.2v0.4h-4.1
		c0,0.6,0.2,1.1,0.5,1.5c0.3,0.4,0.8,0.6,1.3,0.6c0.4,0,0.7-0.1,0.9-0.2c0.3-0.2,0.5-0.4,0.7-0.6l0.6,0.5
		C146.6,552,145.8,552.5,144.8,552.5z M144.6,547c-0.4,0-0.8,0.2-1.1,0.5s-0.5,0.7-0.5,1.3h3.1v-0.1c0-0.5-0.2-0.9-0.4-1.2
		C145.4,547,145.1,547,144.6,547z M151.1,552.2V544h2.3c0.7,0,1.3,0.2,1.9,0.5c0.6,0.3,1,0.8,1.3,1.3c0.3,0.6,0.5,1.3,0.5,2v0.5
		c0,0.8-0.2,1.5-0.5,2.1c-0.3,0.6-0.7,1-1.3,1.3s-1.2,0.5-1.9,0.5L151.1,552.2L151.1,552.2z M152.1,545v6.5h1.1
		c0.8,0,1.5-0.3,1.9-0.8c0.5-0.5,0.7-1.3,0.7-2.2V548c0-0.9-0.2-1.7-0.7-2.2c-0.4-0.5-1.1-0.8-1.9-0.8H152.1z M158.8,552.2V544h2.7
		c0.9,0,1.6,0.2,2,0.6c0.5,0.4,0.7,0.9,0.7,1.6c0,0.4-0.1,0.7-0.3,1s-0.5,0.5-0.9,0.7c0.5,0.1,0.8,0.4,1.1,0.7
		c0.3,0.3,0.4,0.8,0.4,1.2c0,0.7-0.2,1.3-0.7,1.8c-0.5,0.4-1.1,0.6-2,0.6H158.8L158.8,552.2z M159.9,548.5v3h1.8
		c0.5,0,0.9-0.1,1.2-0.4s0.4-0.6,0.4-1.1c0-1-0.5-1.5-1.6-1.5H159.9z M159.9,547.5h1.6c0.5,0,0.9-0.1,1.1-0.3c0.3-0.2,0.4-0.6,0.4-1
		c0-0.5-0.1-0.8-0.4-1c-0.3-0.2-0.7-0.3-1.2-0.3h-1.6L159.9,547.5L159.9,547.5z M171,548.2l2.1-4.1h1.2l-2.8,5.2v3.1h-1.1v-3.1
		l-2.8-5.2h1.2L171,548.2z M181.3,549.7c-0.1,0.9-0.4,1.5-1,2c-0.5,0.5-1.3,0.7-2.2,0.7c-1,0-1.8-0.3-2.3-1
		c-0.6-0.7-0.9-1.6-0.9-2.8v-0.8c0-0.8,0.1-1.4,0.4-2c0.3-0.6,0.7-1,1.2-1.3s1.1-0.5,1.7-0.5c0.9,0,1.6,0.2,2.1,0.7s0.8,1.2,0.9,2
		h-1.1c-0.1-0.7-0.3-1.1-0.6-1.4s-0.8-0.4-1.3-0.4c-0.7,0-1.2,0.3-1.6,0.8s-0.6,1.2-0.6,2.2v0.8c0,0.9,0.2,1.6,0.6,2.1
		c0.4,0.5,0.9,0.8,1.6,0.8c0.6,0,1.1-0.1,1.4-0.4c0.3-0.3,0.5-0.8,0.6-1.4h1.1L181.3,549.7L181.3,549.7z M189.2,548.5
		c0,0.8-0.1,1.5-0.4,2.1c-0.3,0.6-0.6,1-1.1,1.3l1.5,1.2l-0.7,0.7l-1.7-1.4c-0.3,0.1-0.6,0.1-0.9,0.1c-0.6,0-1.2-0.2-1.7-0.5
		s-0.9-0.8-1.2-1.4c-0.3-0.6-0.4-1.3-0.4-2.1V548c0-0.8,0.1-1.5,0.4-2.1c0.3-0.6,0.7-1.1,1.2-1.4s1.1-0.5,1.7-0.5
		c0.7,0,1.2,0.2,1.8,0.5s0.9,0.8,1.2,1.4c0.3,0.6,0.4,1.3,0.4,2.1v0.5H189.2z M188.1,548c0-1-0.2-1.7-0.6-2.2
		c-0.4-0.5-0.9-0.8-1.7-0.8c-0.7,0-1.2,0.3-1.6,0.8s-0.6,1.2-0.6,2.2v0.6c0,0.9,0.2,1.7,0.6,2.2c0.4,0.5,0.9,0.8,1.6,0.8
		c0.7,0,1.2-0.3,1.6-0.8c0.4-0.5,0.6-1.2,0.6-2.2L188.1,548L188.1,548z M191.8,551.5h3.9v0.9h-5v-8.2h1.1V551.5z M199.2,549
		c0-0.8,0.1-1.7,0.3-2.4c0.2-0.8,0.6-1.5,1-2.1c0.4-0.6,0.9-1.1,1.4-1.4l0.2,0.7c-0.6,0.4-1,1.1-1.4,1.9c-0.4,0.9-0.5,1.8-0.6,2.9
		v0.5c0,1.5,0.3,2.7,0.8,3.8c0.3,0.6,0.7,1.1,1.1,1.5l-0.2,0.6c-0.5-0.3-1-0.7-1.4-1.4C199.6,552.2,199.2,550.8,199.2,549z
		 M208.3,552.2h-5.4v-0.8l2.9-3.2c0.4-0.5,0.7-0.9,0.9-1.2s0.2-0.6,0.2-0.9c0-0.4-0.1-0.8-0.4-1.1c-0.3-0.3-0.6-0.4-1-0.4
		c-0.5,0-0.9,0.2-1.2,0.5s-0.4,0.7-0.4,1.2h-1c0-0.8,0.2-1.4,0.7-1.8c0.5-0.5,1.1-0.7,2-0.7c0.8,0,1.4,0.2,1.8,0.6
		c0.4,0.4,0.7,0.9,0.7,1.6c0,0.8-0.5,1.8-1.6,2.9l-2.2,2.4h4.1v0.9H208.3z M215.1,552.2h-5.4v-0.8l2.9-3.2c0.4-0.5,0.7-0.9,0.9-1.2
		s0.2-0.6,0.2-0.9c0-0.4-0.1-0.8-0.4-1.1c-0.3-0.3-0.6-0.4-1-0.4c-0.5,0-0.9,0.2-1.2,0.5s-0.4,0.7-0.4,1.2h-1c0-0.8,0.2-1.4,0.7-1.8
		c0.5-0.5,1.1-0.7,2-0.7c0.8,0,1.4,0.2,1.8,0.6c0.4,0.4,0.7,0.9,0.7,1.6c0,0.8-0.5,1.8-1.6,2.9l-2.2,2.4h4.1v0.9H215.1z
		 M217.6,546.2v0.7c0.4-0.5,1-0.8,1.8-0.8c0.9,0,1.4,0.3,1.8,1c0.2-0.3,0.5-0.5,0.8-0.7s0.7-0.3,1.2-0.3c1.3,0,2,0.7,2.1,2.1v4.1h-1
		v-4c0-0.4-0.1-0.8-0.3-1s-0.5-0.3-1-0.3c-0.4,0-0.7,0.1-1,0.3s-0.4,0.5-0.4,0.9v4.1h-1v-4c0-0.9-0.4-1.3-1.3-1.3
		c-0.7,0-1.2,0.3-1.4,0.9v4.5h-1.1v-6.1h0.8L217.6,546.2L217.6,546.2z M230.8,550.7c0-0.3-0.1-0.5-0.3-0.6c-0.2-0.2-0.6-0.3-1.1-0.4
		c-0.5-0.1-0.9-0.2-1.3-0.4c-0.3-0.2-0.5-0.3-0.7-0.6c-0.1-0.2-0.2-0.5-0.2-0.8c0-0.5,0.2-0.9,0.6-1.3c0.4-0.4,1-0.5,1.6-0.5
		c0.7,0,1.3,0.2,1.7,0.5c0.4,0.4,0.6,0.8,0.6,1.4h-1c0-0.3-0.1-0.5-0.4-0.7c-0.2-0.2-0.5-0.3-0.9-0.3s-0.7,0.1-0.9,0.3
		c-0.2,0.2-0.3,0.4-0.3,0.6c0,0.3,0.1,0.4,0.3,0.6c0.2,0.1,0.6,0.3,1.1,0.4c0.5,0.1,0.9,0.2,1.3,0.4c0.3,0.2,0.6,0.4,0.7,0.6
		c0.2,0.2,0.2,0.5,0.2,0.8c0,0.6-0.2,1-0.7,1.3c-0.4,0.3-1,0.5-1.7,0.5c-0.5,0-0.9-0.1-1.3-0.3c-0.4-0.2-0.7-0.4-0.9-0.7
		s-0.3-0.6-0.3-1h1c0,0.4,0.2,0.6,0.4,0.8c0.3,0.2,0.6,0.3,1,0.3s0.7-0.1,1-0.2C230.6,551.2,230.8,551,230.8,550.7z M237,552.2h-1
		v-8.7h1V552.2z M242.6,552.2c-0.1-0.1-0.1-0.3-0.2-0.6c-0.5,0.5-1.1,0.8-1.7,0.8c-0.6,0-1.1-0.2-1.5-0.5s-0.6-0.8-0.6-1.3
		c0-0.6,0.2-1.1,0.7-1.5c0.5-0.4,1.2-0.5,2.1-0.5h1v-0.5c0-0.4-0.1-0.6-0.3-0.9c-0.2-0.2-0.5-0.3-1-0.3c-0.4,0-0.7,0.1-0.9,0.3
		c-0.3,0.2-0.4,0.4-0.4,0.7h-1.1c0-0.3,0.1-0.6,0.3-0.9s0.5-0.5,0.9-0.7s0.8-0.3,1.2-0.3c0.7,0,1.3,0.2,1.7,0.5
		c0.4,0.4,0.6,0.8,0.6,1.4v2.8c0,0.6,0.1,1,0.2,1.3v0.1h-1V552.2z M240.8,551.5c0.3,0,0.6-0.1,0.9-0.3c0.3-0.2,0.5-0.4,0.6-0.7v-1.3
		h-0.8c-1.3,0-1.9,0.4-1.9,1.1c0,0.3,0.1,0.6,0.3,0.8C240.2,551.5,240.5,551.5,240.8,551.5z M247,544.7v1.5h1.1v0.8H247v3.8
		c0,0.3,0.1,0.4,0.2,0.6c0.1,0.1,0.3,0.2,0.5,0.2c0.1,0,0.3,0,0.5-0.1v0.8c-0.3,0.1-0.5,0.1-0.8,0.1c-0.5,0-0.8-0.1-1.1-0.4
		c-0.2-0.3-0.4-0.7-0.4-1.2V547h-1.1v-0.8h1.1v-1.5H247z M251.9,552.5c-0.8,0-1.5-0.3-2-0.8c-0.5-0.6-0.8-1.3-0.8-2.2v-0.2
		c0-0.6,0.1-1.2,0.3-1.6c0.2-0.5,0.6-0.9,1-1.1c0.4-0.3,0.9-0.4,1.4-0.4c0.8,0,1.4,0.3,1.9,0.8c0.4,0.5,0.7,1.3,0.7,2.2v0.4h-4.1
		c0,0.6,0.2,1.1,0.5,1.5c0.3,0.4,0.8,0.6,1.3,0.6c0.4,0,0.7-0.1,0.9-0.2c0.3-0.2,0.5-0.4,0.7-0.6l0.6,0.5
		C253.7,552,253,552.5,251.9,552.5z M251.8,547c-0.4,0-0.8,0.2-1.1,0.5c-0.3,0.3-0.5,0.7-0.5,1.3h3.1v-0.1c0-0.5-0.2-0.9-0.4-1.2
		C252.6,547,252.2,547,251.8,547z M256.2,546.2v0.8c0.5-0.6,1.1-0.9,1.8-0.9c1.3,0,2,0.7,2,2.2v4h-1.1v-4.1c0-0.4-0.1-0.8-0.3-1
		c-0.2-0.2-0.5-0.3-0.9-0.3c-0.3,0-0.6,0.1-0.9,0.3s-0.4,0.4-0.6,0.7v4.4h-1v-6.1H256.2z M264.4,551.5c0.4,0,0.7-0.1,1-0.3
		s0.4-0.5,0.5-0.9h1c0,0.4-0.1,0.7-0.4,1c-0.2,0.3-0.5,0.6-0.9,0.8s-0.8,0.3-1.2,0.3c-0.8,0-1.5-0.3-2-0.8c-0.5-0.6-0.7-1.3-0.7-2.3
		v-0.2c0-0.6,0.1-1.1,0.3-1.6c0.2-0.5,0.5-0.8,0.9-1.1s0.9-0.4,1.5-0.4c0.7,0,1.3,0.2,1.7,0.6c0.5,0.4,0.7,0.9,0.7,1.6h-1
		c0-0.4-0.2-0.7-0.5-1s-0.6-0.4-1-0.4c-0.5,0-0.9,0.2-1.2,0.6c-0.3,0.4-0.4,0.9-0.4,1.7v0.2c0,0.7,0.1,1.2,0.4,1.6
		C263.5,551.3,263.9,551.5,264.4,551.5z M269.8,550.8l1.4-4.6h1.1l-2.5,7.1c-0.4,1-1,1.5-1.8,1.5h-0.2l-0.4-0.1v-0.8h0.3
		c0.4,0,0.6-0.1,0.8-0.2c0.2-0.1,0.4-0.4,0.5-0.8l0.2-0.6l-2.2-6.1h1.1L269.8,550.8z M276,549c0,0.8-0.1,1.7-0.3,2.4
		c-0.2,0.8-0.6,1.5-1,2.1c-0.5,0.7-0.9,1.1-1.4,1.4l-0.2-0.6c0.6-0.4,1.1-1.1,1.4-2.1c0.4-0.9,0.5-2,0.5-3.1V549
		c0-0.8-0.1-1.5-0.3-2.2c-0.2-0.7-0.4-1.3-0.7-1.8c-0.3-0.5-0.6-1-1-1.3l0.2-0.6c0.5,0.3,1,0.7,1.4,1.4c0.5,0.6,0.8,1.4,1,2.1
		C275.9,547.2,276,548.2,276,549z"/>
	<path class="st21" d="M306.6,548.2l2.1-4.1h1.2l-2.8,5.2v3.1H306v-3.1l-2.8-5.2h1.2L306.6,548.2z M314.5,551.7
		c-0.4,0.5-1,0.7-1.8,0.7c-0.7,0-1.2-0.2-1.5-0.6c-0.3-0.4-0.5-0.9-0.5-1.7v-4h1v4c0,0.9,0.4,1.4,1.1,1.4c0.8,0,1.3-0.3,1.6-0.9V546
		h1.1v6.1h-1L314.5,551.7z M317.2,549.2c0-1,0.2-1.7,0.7-2.3c0.4-0.6,1-0.8,1.8-0.8c0.7,0,1.3,0.3,1.8,0.8v-0.7h1v6
		c0,0.8-0.2,1.4-0.7,1.9s-1.1,0.7-1.9,0.7c-0.4,0-0.9-0.1-1.3-0.3s-0.7-0.4-1-0.8l0.5-0.6c0.4,0.6,1,0.8,1.6,0.8
		c0.5,0,0.9-0.1,1.2-0.4c0.3-0.3,0.4-0.7,0.4-1.2v-0.5c-0.4,0.5-1,0.7-1.7,0.7s-1.3-0.3-1.7-0.9C317.4,551,317.2,550.2,317.2,549.2z
		 M318.2,549.3c0,0.7,0.1,1.2,0.4,1.6c0.3,0.4,0.7,0.6,1.2,0.6c0.7,0,1.1-0.3,1.4-0.9v-2.8c-0.3-0.6-0.8-0.9-1.4-0.9
		c-0.5,0-0.9,0.2-1.2,0.6C318.4,548,318.2,548.5,318.2,549.3z M328,552.2c-0.1-0.1-0.1-0.3-0.2-0.6c-0.5,0.5-1.1,0.8-1.7,0.8
		s-1.1-0.2-1.5-0.5s-0.6-0.8-0.6-1.3c0-0.6,0.2-1.1,0.7-1.5c0.5-0.4,1.2-0.5,2.1-0.5h1v-0.5c0-0.4-0.1-0.6-0.3-0.9
		c-0.2-0.2-0.5-0.3-1-0.3c-0.4,0-0.7,0.1-0.9,0.3c-0.3,0.2-0.4,0.4-0.4,0.7h-1.1c0-0.3,0.1-0.6,0.3-0.9c0.2-0.3,0.5-0.5,0.9-0.7
		s0.8-0.3,1.2-0.3c0.7,0,1.3,0.2,1.7,0.5c0.4,0.4,0.6,0.8,0.6,1.4v2.8c0,0.6,0.1,1,0.2,1.3v0.1h-1L328,552.2L328,552.2z
		 M326.2,551.5c0.3,0,0.6-0.1,0.9-0.3c0.3-0.2,0.5-0.4,0.6-0.7v-1.3H327c-1.3,0-1.9,0.4-1.9,1.1c0,0.3,0.1,0.6,0.3,0.8
		C325.6,551.5,325.9,551.5,326.2,551.5z M336.2,549.3c0,0.9-0.2,1.7-0.6,2.3c-0.4,0.6-1,0.8-1.7,0.8c-0.8,0-1.4-0.3-1.8-0.8
		l-0.1,0.7h-1v-8.7h1v3.2c0.4-0.5,1-0.8,1.8-0.8c0.7,0,1.3,0.3,1.8,0.8C336,547.5,336.2,548.2,336.2,549.3L336.2,549.3z
		 M335.1,549.2c0-0.7-0.1-1.3-0.4-1.6c-0.3-0.4-0.7-0.6-1.2-0.6c-0.7,0-1.2,0.3-1.5,1v2.7c0.3,0.6,0.8,1,1.5,1
		c0.5,0,0.9-0.2,1.2-0.6C335,550.5,335.1,550,335.1,549.2z M339.7,550.8l1.4-4.6h1.1l-2.5,7.1c-0.4,1-1,1.5-1.8,1.5h-0.2l-0.4-0.1
		v-0.8h0.3c0.4,0,0.6-0.1,0.8-0.2c0.2-0.1,0.4-0.4,0.5-0.8l0.2-0.6l-2.2-6.1h1.1L339.7,550.8z M345,544.7v1.5h1.1v0.8H345v3.8
		c0,0.3,0.1,0.4,0.2,0.6c0.1,0.1,0.3,0.2,0.5,0.2c0.1,0,0.3,0,0.5-0.1v0.8c-0.3,0.1-0.5,0.1-0.8,0.1c-0.5,0-0.8-0.1-1.1-0.4
		c-0.2-0.3-0.4-0.7-0.4-1.2V547h-1.1v-0.8h1.1v-1.5H345z M349.9,552.5c-0.8,0-1.5-0.3-2-0.8c-0.5-0.6-0.8-1.3-0.8-2.2v-0.2
		c0-0.6,0.1-1.2,0.3-1.6c0.2-0.5,0.6-0.9,1-1.1c0.4-0.3,0.9-0.4,1.4-0.4c0.8,0,1.4,0.3,1.9,0.8c0.4,0.5,0.7,1.3,0.7,2.2v0.4h-4.1
		c0,0.6,0.2,1.1,0.5,1.5c0.3,0.4,0.8,0.6,1.3,0.6c0.4,0,0.7-0.1,0.9-0.2c0.3-0.2,0.5-0.4,0.7-0.6l0.6,0.5
		C351.7,552,351,552.5,349.9,552.5z M349.8,547c-0.4,0-0.8,0.2-1.1,0.5c-0.3,0.3-0.5,0.7-0.5,1.3h3.1v-0.1c0-0.5-0.2-0.9-0.4-1.2
		C350.6,547,350.2,547,349.8,547z M356.2,552.2V544h2.3c0.7,0,1.3,0.2,1.9,0.5s1,0.8,1.3,1.3c0.3,0.6,0.5,1.3,0.5,2v0.5
		c0,0.8-0.2,1.5-0.5,2.1c-0.3,0.6-0.7,1-1.3,1.3c-0.6,0.3-1.2,0.5-1.9,0.5L356.2,552.2L356.2,552.2z M357.2,545v6.5h1.1
		c0.8,0,1.5-0.3,1.9-0.8c0.5-0.5,0.7-1.3,0.7-2.2V548c0-0.9-0.2-1.7-0.7-2.2c-0.4-0.5-1.1-0.8-1.9-0.8H357.2z M364,552.2V544h2.7
		c0.9,0,1.6,0.2,2,0.6c0.5,0.4,0.7,0.9,0.7,1.6c0,0.4-0.1,0.7-0.3,1c-0.2,0.3-0.5,0.5-0.9,0.7c0.5,0.1,0.8,0.4,1.1,0.7
		c0.3,0.3,0.4,0.8,0.4,1.2c0,0.7-0.2,1.3-0.7,1.8c-0.5,0.4-1.1,0.6-2,0.6H364L364,552.2z M365.1,548.5v3h1.8c0.5,0,0.9-0.1,1.2-0.4
		c0.3-0.3,0.4-0.6,0.4-1.1c0-1-0.5-1.5-1.6-1.5H365.1z M365.1,547.5h1.6c0.5,0,0.9-0.1,1.1-0.3c0.3-0.2,0.4-0.6,0.4-1
		c0-0.5-0.1-0.8-0.4-1s-0.7-0.3-1.2-0.3H365v2.6L365.1,547.5L365.1,547.5z M376.2,548.2l2.1-4.1h1.2l-2.8,5.2v3.1h-1.1v-3.1
		l-2.8-5.2h1.2L376.2,548.2z M386.5,549.7c-0.1,0.9-0.4,1.5-1,2c-0.5,0.5-1.3,0.7-2.2,0.7c-1,0-1.8-0.3-2.3-1
		c-0.6-0.7-0.9-1.6-0.9-2.8v-0.8c0-0.8,0.1-1.4,0.4-2c0.3-0.6,0.7-1,1.2-1.3s1.1-0.5,1.7-0.5c0.9,0,1.6,0.2,2.1,0.7s0.8,1.2,0.9,2
		h-1.1c-0.1-0.7-0.3-1.1-0.6-1.4s-0.8-0.4-1.3-0.4c-0.7,0-1.2,0.3-1.6,0.8s-0.6,1.2-0.6,2.2v0.8c0,0.9,0.2,1.6,0.6,2.1
		s0.9,0.8,1.6,0.8c0.6,0,1.1-0.1,1.4-0.4s0.5-0.8,0.6-1.4h1.1L386.5,549.7L386.5,549.7z M394.4,548.5c0,0.8-0.1,1.5-0.4,2.1
		c-0.3,0.6-0.6,1-1.1,1.3l1.5,1.2l-0.7,0.7l-1.7-1.4c-0.3,0.1-0.6,0.1-0.9,0.1c-0.6,0-1.2-0.2-1.7-0.5s-0.9-0.8-1.2-1.4
		c-0.3-0.6-0.4-1.3-0.4-2.1V548c0-0.8,0.1-1.5,0.4-2.1c0.3-0.6,0.7-1.1,1.2-1.4s1.1-0.5,1.7-0.5c0.7,0,1.2,0.2,1.8,0.5
		c0.5,0.3,0.9,0.8,1.2,1.4c0.3,0.6,0.4,1.3,0.4,2.1L394.4,548.5L394.4,548.5z M393.2,548c0-1-0.2-1.7-0.6-2.2s-0.9-0.8-1.7-0.8
		c-0.7,0-1.2,0.3-1.6,0.8s-0.6,1.2-0.6,2.2v0.6c0,0.9,0.2,1.7,0.6,2.2s0.9,0.8,1.6,0.8s1.2-0.3,1.6-0.8s0.6-1.2,0.6-2.2V548H393.2z
		 M396.9,551.5h3.9v0.9h-5v-8.2h1.1V551.5z M404.2,549c0-0.8,0.1-1.7,0.3-2.4c0.2-0.8,0.6-1.5,1-2.1c0.5-0.6,0.9-1.1,1.4-1.4
		l0.2,0.7c-0.6,0.4-1,1.1-1.4,1.9c-0.4,0.9-0.5,1.8-0.6,2.9v0.5c0,1.5,0.3,2.7,0.8,3.8c0.3,0.6,0.7,1.1,1.1,1.5l-0.2,0.6
		c-0.5-0.3-1-0.7-1.4-1.4C404.8,552.2,404.2,550.8,404.2,549z M413.5,552.2h-5.4v-0.8l2.9-3.2c0.4-0.5,0.7-0.9,0.9-1.2
		c0.2-0.3,0.2-0.6,0.2-0.9c0-0.4-0.1-0.8-0.4-1.1s-0.6-0.4-1-0.4c-0.5,0-0.9,0.2-1.2,0.5c-0.3,0.3-0.4,0.7-0.4,1.2h-1
		c0-0.8,0.2-1.4,0.7-1.8c0.5-0.5,1.1-0.7,2-0.7c0.8,0,1.4,0.2,1.8,0.6c0.4,0.4,0.7,0.9,0.7,1.6c0,0.8-0.5,1.8-1.6,2.9l-2.2,2.4h4.1
		v0.9H413.5z M419.2,549.5h1.1v0.8h-1.1v1.9h-1v-1.9h-3.8v-0.6l3.7-5.7h1.1L419.2,549.5L419.2,549.5z M415.7,549.5h2.6v-4l-0.1,0.2
		L415.7,549.5z M422.8,546.2v0.7c0.4-0.5,1-0.8,1.8-0.8c0.9,0,1.4,0.3,1.8,1c0.2-0.3,0.5-0.5,0.8-0.7s0.7-0.3,1.2-0.3
		c1.3,0,2,0.7,2.1,2.1v4.1h-1v-4c0-0.4-0.1-0.8-0.3-1c-0.2-0.2-0.5-0.3-1-0.3c-0.4,0-0.7,0.1-1,0.3s-0.4,0.5-0.4,0.9v4.1h-1v-4
		c0-0.9-0.4-1.3-1.3-1.3c-0.7,0-1.2,0.3-1.4,0.9v4.5H422v-6.1h0.8V546.2z M436,550.7c0-0.3-0.1-0.5-0.3-0.6
		c-0.2-0.2-0.6-0.3-1.1-0.4c-0.5-0.1-0.9-0.2-1.3-0.4c-0.3-0.2-0.5-0.3-0.7-0.6c-0.1-0.2-0.2-0.5-0.2-0.8c0-0.5,0.2-0.9,0.6-1.3
		c0.4-0.4,1-0.5,1.6-0.5c0.7,0,1.3,0.2,1.7,0.5c0.4,0.4,0.6,0.8,0.6,1.4h-1c0-0.3-0.1-0.5-0.4-0.7c-0.2-0.2-0.5-0.3-0.9-0.3
		s-0.7,0.1-0.9,0.3c-0.2,0.2-0.3,0.4-0.3,0.6c0,0.3,0.1,0.4,0.3,0.6c0.2,0.1,0.6,0.3,1.1,0.4c0.5,0.1,0.9,0.2,1.3,0.4
		c0.3,0.2,0.6,0.4,0.7,0.6c0.2,0.2,0.2,0.5,0.2,0.8c0,0.6-0.2,1-0.7,1.3c-0.4,0.3-1,0.5-1.7,0.5c-0.5,0-0.9-0.1-1.3-0.3
		c-0.4-0.2-0.7-0.4-0.9-0.7c-0.2-0.3-0.3-0.6-0.3-1h1c0,0.4,0.2,0.6,0.4,0.8c0.3,0.2,0.6,0.3,1,0.3s0.7-0.1,1-0.2
		C435.8,551.2,436,551,436,550.7z M442.2,552.2h-1v-8.7h1V552.2z M447.8,552.2c-0.1-0.1-0.1-0.3-0.2-0.6c-0.5,0.5-1.1,0.8-1.7,0.8
		s-1.1-0.2-1.5-0.5s-0.6-0.8-0.6-1.3c0-0.6,0.2-1.1,0.7-1.5c0.5-0.4,1.2-0.5,2.1-0.5h1v-0.5c0-0.4-0.1-0.6-0.3-0.9
		c-0.2-0.2-0.5-0.3-1-0.3c-0.4,0-0.7,0.1-0.9,0.3c-0.3,0.2-0.4,0.4-0.4,0.7h-1.1c0-0.3,0.1-0.6,0.3-0.9c0.2-0.3,0.5-0.5,0.9-0.7
		s0.8-0.3,1.2-0.3c0.7,0,1.3,0.2,1.7,0.5c0.4,0.4,0.6,0.8,0.6,1.4v2.8c0,0.6,0.1,1,0.2,1.3v0.1h-1L447.8,552.2L447.8,552.2z
		 M446,551.5c0.3,0,0.6-0.1,0.9-0.3c0.3-0.2,0.5-0.4,0.6-0.7v-1.3h-0.8c-1.3,0-1.9,0.4-1.9,1.1c0,0.3,0.1,0.6,0.3,0.8
		C445.4,551.5,445.7,551.5,446,551.5z M452.2,544.7v1.5h1.1v0.8h-1.1v3.8c0,0.3,0.1,0.4,0.2,0.6c0.1,0.1,0.3,0.2,0.5,0.2
		c0.1,0,0.3,0,0.5-0.1v0.8c-0.3,0.1-0.5,0.1-0.8,0.1c-0.5,0-0.8-0.1-1.1-0.4c-0.2-0.3-0.4-0.7-0.4-1.2V547H450v-0.8h1.1v-1.5H452.2z
		 M457.1,552.5c-0.8,0-1.5-0.3-2-0.8c-0.5-0.6-0.8-1.3-0.8-2.2v-0.2c0-0.6,0.1-1.2,0.3-1.6c0.2-0.5,0.6-0.9,1-1.1
		c0.4-0.3,0.9-0.4,1.4-0.4c0.8,0,1.4,0.3,1.9,0.8c0.4,0.5,0.7,1.3,0.7,2.2v0.4h-4.1c0,0.6,0.2,1.1,0.5,1.5c0.3,0.4,0.8,0.6,1.3,0.6
		c0.4,0,0.7-0.1,0.9-0.2c0.3-0.2,0.5-0.4,0.7-0.6l0.6,0.5C458.9,552,458.2,552.5,457.1,552.5z M457,547c-0.4,0-0.8,0.2-1.1,0.5
		c-0.3,0.3-0.5,0.7-0.5,1.3h3.1v-0.1c0-0.5-0.2-0.9-0.4-1.2C457.8,547,457.4,547,457,547z M461.4,546.2v0.8c0.5-0.6,1.1-0.9,1.8-0.9
		c1.3,0,2,0.7,2,2.2v4H464v-4.1c0-0.4-0.1-0.8-0.3-1c-0.2-0.2-0.5-0.3-0.9-0.3c-0.3,0-0.6,0.1-0.9,0.3s-0.4,0.4-0.6,0.7v4.4h-1v-6.1
		H461.4z M469.6,551.5c0.4,0,0.7-0.1,1-0.3s0.4-0.5,0.5-0.9h1c0,0.4-0.1,0.7-0.4,1c-0.2,0.3-0.5,0.6-0.9,0.8s-0.8,0.3-1.2,0.3
		c-0.8,0-1.5-0.3-2-0.8c-0.5-0.6-0.7-1.3-0.7-2.3v-0.2c0-0.6,0.1-1.1,0.3-1.6c0.2-0.5,0.5-0.8,0.9-1.1s0.9-0.4,1.5-0.4
		c0.7,0,1.3,0.2,1.7,0.6c0.5,0.4,0.7,0.9,0.7,1.6h-1c0-0.4-0.2-0.7-0.5-1s-0.6-0.4-1-0.4c-0.5,0-0.9,0.2-1.2,0.6
		c-0.3,0.4-0.4,0.9-0.4,1.7v0.2c0,0.7,0.1,1.2,0.4,1.6C468.7,551.3,469.1,551.5,469.6,551.5z M474.9,550.8l1.4-4.6h1.1l-2.5,7.1
		c-0.4,1-1,1.5-1.8,1.5h-0.2l-0.4-0.1v-0.8h0.3c0.4,0,0.6-0.1,0.8-0.2c0.2-0.1,0.4-0.4,0.5-0.8l0.2-0.6l-2.2-6.1h1.1L474.9,550.8z
		 M481.2,549c0,0.8-0.1,1.7-0.3,2.4c-0.2,0.8-0.6,1.5-1,2.1c-0.5,0.7-0.9,1.1-1.4,1.4l-0.2-0.6c0.6-0.4,1.1-1.1,1.4-2.1
		c0.4-0.9,0.5-2,0.5-3.1V549c0-0.8-0.1-1.5-0.3-2.2c-0.2-0.7-0.4-1.3-0.7-1.8c-0.3-0.5-0.6-1-1-1.3l0.2-0.6c0.5,0.3,1,0.7,1.4,1.4
		c0.5,0.6,0.8,1.4,1,2.1C481,547.2,481.2,548.2,481.2,549z"/>
	<path class="st21" d="M528.9,549.7c-0.1,0.9-0.4,1.5-1,2c-0.5,0.5-1.3,0.7-2.2,0.7c-1,0-1.8-0.3-2.3-1c-0.6-0.7-0.9-1.6-0.9-2.8
		v-0.8c0-0.8,0.1-1.4,0.4-2c0.3-0.6,0.7-1,1.2-1.3s1.1-0.5,1.7-0.5c0.9,0,1.6,0.2,2.1,0.7s0.8,1.2,0.9,2h-1.1
		c-0.1-0.7-0.3-1.1-0.6-1.4s-0.8-0.4-1.3-0.4c-0.7,0-1.2,0.3-1.6,0.8s-0.6,1.2-0.6,2.2v0.8c0,0.9,0.2,1.6,0.6,2.1
		c0.4,0.5,0.9,0.8,1.6,0.8c0.6,0,1.1-0.1,1.4-0.4c0.3-0.3,0.5-0.8,0.6-1.4h1.1L528.9,549.7L528.9,549.7z M530,549.2
		c0-0.6,0.1-1.1,0.3-1.6s0.6-0.9,1-1.1c0.4-0.3,0.9-0.4,1.4-0.4c0.8,0,1.5,0.3,2,0.9c0.5,0.6,0.8,1.3,0.8,2.3v0.1
		c0,0.6-0.1,1.1-0.3,1.6s-0.6,0.8-1,1.1s-0.9,0.4-1.5,0.4c-0.8,0-1.5-0.3-2-0.9C530.4,551,530,550.2,530,549.2L530,549.2z
		 M531.2,549.3c0,0.7,0.2,1.2,0.5,1.6c0.3,0.4,0.7,0.6,1.3,0.6c0.5,0,1-0.2,1.3-0.6c0.3-0.4,0.5-1,0.5-1.8c0-0.7-0.2-1.2-0.5-1.6
		c-0.3-0.4-0.7-0.6-1.3-0.6c-0.5,0-0.9,0.2-1.3,0.6C531.2,548,531.2,548.5,531.2,549.3z M539.5,551.5c0.4,0,0.7-0.1,1-0.3
		s0.4-0.5,0.5-0.9h1c0,0.4-0.1,0.7-0.4,1c-0.2,0.3-0.5,0.6-0.9,0.8s-0.8,0.3-1.2,0.3c-0.8,0-1.5-0.3-2-0.8c-0.5-0.6-0.7-1.3-0.7-2.3
		v-0.2c0-0.6,0.1-1.1,0.3-1.6s0.5-0.8,0.9-1.1s0.9-0.4,1.5-0.4c0.7,0,1.3,0.2,1.7,0.6c0.5,0.4,0.7,0.9,0.7,1.6h-1
		c0-0.4-0.2-0.7-0.5-1s-0.6-0.4-1-0.4c-0.5,0-0.9,0.2-1.2,0.6c-0.3,0.4-0.4,0.9-0.4,1.7v0.2c0,0.7,0.1,1.2,0.4,1.6
		C538.5,551.3,539,551.5,539.5,551.5z M544.7,549.5l-0.7,0.7v2.2h-1v-8.7h1v5.3l0.6-0.7l1.9-2h1.3l-2.4,2.6l2.7,3.6h-1.2
		L544.7,549.5z M551.7,547.2c-0.2,0-0.3,0-0.5,0c-0.7,0-1.2,0.3-1.4,0.9v4.3h-1v-6.1h1v0.7c0.3-0.5,0.8-0.8,1.5-0.8
		c0.2,0,0.4,0,0.5,0.1L551.7,547.2L551.7,547.2z M552.2,549.2c0-0.6,0.1-1.1,0.3-1.6s0.6-0.9,1-1.1c0.4-0.3,0.9-0.4,1.4-0.4
		c0.8,0,1.5,0.3,2,0.9c0.5,0.6,0.8,1.3,0.8,2.3v0.1c0,0.6-0.1,1.1-0.3,1.6s-0.6,0.8-1,1.1s-0.9,0.4-1.5,0.4c-0.8,0-1.5-0.3-2-0.9
		C552.5,551,552.2,550.2,552.2,549.2L552.2,549.2z M553.4,549.3c0,0.7,0.2,1.2,0.5,1.6c0.3,0.4,0.7,0.6,1.3,0.6c0.5,0,1-0.2,1.3-0.6
		c0.3-0.4,0.5-1,0.5-1.8c0-0.7-0.2-1.2-0.5-1.6c-0.3-0.4-0.7-0.6-1.3-0.6c-0.5,0-0.9,0.2-1.3,0.6C553.5,548,553.4,548.5,553.4,549.3
		z M563,552.2c-0.1-0.1-0.1-0.3-0.2-0.6c-0.5,0.5-1.1,0.8-1.7,0.8c-0.6,0-1.1-0.2-1.5-0.5s-0.6-0.8-0.6-1.3c0-0.6,0.2-1.1,0.7-1.5
		c0.5-0.4,1.2-0.5,2.1-0.5h1v-0.5c0-0.4-0.1-0.6-0.3-0.9c-0.2-0.2-0.5-0.3-1-0.3c-0.4,0-0.7,0.1-0.9,0.3c-0.3,0.2-0.4,0.4-0.4,0.7
		h-1.1c0-0.3,0.1-0.6,0.3-0.9s0.5-0.5,0.9-0.7s0.8-0.3,1.2-0.3c0.7,0,1.3,0.2,1.7,0.5c0.4,0.4,0.6,0.8,0.6,1.4v2.8
		c0,0.6,0.1,1,0.2,1.3v0.1h-1V552.2z M561.4,551.5c0.3,0,0.6-0.1,0.9-0.3c0.3-0.2,0.5-0.4,0.6-0.7v-1.3h-0.8c-1.3,0-1.9,0.4-1.9,1.1
		c0,0.3,0.1,0.6,0.3,0.8C560.8,551.5,561,551.5,561.4,551.5z M568.5,551.5c0.4,0,0.7-0.1,1-0.3s0.4-0.5,0.5-0.9h1
		c0,0.4-0.1,0.7-0.4,1c-0.2,0.3-0.5,0.6-0.9,0.8s-0.8,0.3-1.2,0.3c-0.8,0-1.5-0.3-2-0.8c-0.5-0.6-0.7-1.3-0.7-2.3v-0.2
		c0-0.6,0.1-1.1,0.3-1.6s0.5-0.8,0.9-1.1s0.9-0.4,1.5-0.4c0.7,0,1.3,0.2,1.7,0.6c0.5,0.4,0.7,0.9,0.7,1.6h-1c0-0.4-0.2-0.7-0.5-1
		s-0.6-0.4-1-0.4c-0.5,0-0.9,0.2-1.2,0.6c-0.3,0.4-0.4,0.9-0.4,1.7v0.2c0,0.7,0.1,1.2,0.4,1.6C567.5,551.3,568,551.5,568.5,551.5z
		 M573,547c0.5-0.6,1.1-0.8,1.8-0.8c1.3,0,2,0.7,2,2.2v4h-1.1v-4.1c0-0.4-0.1-0.8-0.3-1s-0.5-0.3-0.9-0.3c-0.3,0-0.6,0.1-0.9,0.3
		c-0.3,0.2-0.4,0.4-0.6,0.7v4.4h-1v-8.7h1V547z M578.8,552.2V544h2.3c0.7,0,1.3,0.2,1.9,0.5c0.6,0.3,1,0.8,1.3,1.3
		c0.3,0.6,0.5,1.3,0.5,2v0.5c0,0.8-0.2,1.5-0.5,2.1c-0.3,0.6-0.7,1-1.3,1.3s-1.2,0.5-1.9,0.5L578.8,552.2L578.8,552.2z M579.9,545
		v6.5h1.1c0.8,0,1.5-0.3,1.9-0.8c0.5-0.5,0.7-1.3,0.7-2.2V548c0-0.9-0.2-1.7-0.7-2.2c-0.4-0.5-1.1-0.8-1.9-0.8H579.9z M586.5,552.2
		V544h2.7c0.9,0,1.6,0.2,2,0.6c0.5,0.4,0.7,0.9,0.7,1.6c0,0.4-0.1,0.7-0.3,1s-0.5,0.5-0.9,0.7c0.5,0.1,0.8,0.4,1.1,0.7
		c0.3,0.3,0.4,0.8,0.4,1.2c0,0.7-0.2,1.3-0.7,1.8c-0.5,0.4-1.1,0.6-2,0.6H586.5L586.5,552.2z M587.5,548.5v3h1.8
		c0.5,0,0.9-0.1,1.2-0.4s0.4-0.6,0.4-1.1c0-1-0.5-1.5-1.6-1.5H587.5z M587.5,547.5h1.6c0.5,0,0.9-0.1,1.1-0.3c0.3-0.2,0.4-0.6,0.4-1
		c0-0.5-0.1-0.8-0.4-1c-0.3-0.2-0.7-0.3-1.2-0.3h-1.6L587.5,547.5L587.5,547.5L587.5,547.5z M596,549c0-0.8,0.1-1.7,0.3-2.4
		c0.2-0.8,0.6-1.5,1-2.1c0.5-0.6,0.9-1.1,1.4-1.4l0.2,0.7c-0.6,0.4-1,1.1-1.4,1.9c-0.4,0.9-0.5,1.8-0.6,2.9v0.5
		c0,1.5,0.3,2.7,0.8,3.8c0.3,0.6,0.7,1.1,1.1,1.5l-0.2,0.6c-0.5-0.3-1-0.7-1.4-1.4C596.5,552.2,596,550.8,596,549z M605,544.7
		l-3.4,7.7h-1.1l3.4-7.4h-4.5v-0.9h5.6V544.7z M608,547.7h0.8c0.5,0,0.9-0.1,1.2-0.4s0.4-0.6,0.4-1c0-1-0.5-1.4-1.4-1.4
		c-0.5,0-0.8,0.1-1.1,0.4s-0.4,0.6-0.4,1h-1.1c0-0.7,0.2-1.2,0.7-1.6c0.5-0.4,1.1-0.6,1.8-0.6c0.8,0,1.4,0.2,1.8,0.6
		c0.4,0.4,0.7,1,0.7,1.7c0,0.4-0.1,0.7-0.3,1s-0.5,0.6-1,0.8c0.5,0.1,0.8,0.4,1,0.7c0.3,0.3,0.4,0.7,0.4,1.2c0,0.7-0.2,1.3-0.7,1.8
		c-0.5,0.4-1.1,0.6-1.9,0.6c-0.8,0-1.4-0.2-1.9-0.6c-0.5-0.4-0.7-1-0.7-1.7h1.1c0,0.4,0.1,0.8,0.4,1c0.3,0.3,0.7,0.4,1.1,0.4
		c0.5,0,0.9-0.1,1.1-0.4c0.3-0.3,0.4-0.7,0.4-1.1c0-0.5-0.1-0.8-0.4-1.1c-0.3-0.3-0.7-0.4-1.3-0.4h-0.8v-0.9H608z M614.4,546.2v0.7
		c0.4-0.5,1-0.8,1.8-0.8c0.9,0,1.4,0.3,1.8,1c0.2-0.3,0.5-0.5,0.8-0.7s0.7-0.3,1.2-0.3c1.3,0,2,0.7,2.1,2.1v4.1h-1v-4
		c0-0.4-0.1-0.8-0.3-1s-0.5-0.3-1-0.3c-0.4,0-0.7,0.1-1,0.3s-0.4,0.5-0.4,0.9v4.1h-1v-4c0-0.9-0.4-1.3-1.3-1.3
		c-0.7,0-1.2,0.3-1.4,0.9v4.5h-1.1v-6.1h0.8L614.4,546.2L614.4,546.2z M627.5,550.7c0-0.3-0.1-0.5-0.3-0.6c-0.2-0.2-0.6-0.3-1.1-0.4
		c-0.5-0.1-0.9-0.2-1.3-0.4c-0.3-0.2-0.5-0.3-0.7-0.6c-0.1-0.2-0.2-0.5-0.2-0.8c0-0.5,0.2-0.9,0.6-1.3c0.4-0.4,1-0.5,1.6-0.5
		c0.7,0,1.3,0.2,1.7,0.5c0.4,0.4,0.6,0.8,0.6,1.4h-1c0-0.3-0.1-0.5-0.4-0.7c-0.2-0.2-0.5-0.3-0.9-0.3s-0.7,0.1-0.9,0.3
		c-0.2,0.2-0.3,0.4-0.3,0.6c0,0.3,0.1,0.4,0.3,0.6c0.2,0.1,0.6,0.3,1.1,0.4c0.5,0.1,0.9,0.2,1.3,0.4c0.3,0.2,0.6,0.4,0.7,0.6
		c0.2,0.2,0.2,0.5,0.2,0.8c0,0.6-0.2,1-0.7,1.3c-0.4,0.3-1,0.5-1.7,0.5c-0.5,0-0.9-0.1-1.3-0.3c-0.4-0.2-0.7-0.4-0.9-0.7
		s-0.3-0.6-0.3-1h1c0,0.4,0.2,0.6,0.4,0.8c0.3,0.2,0.6,0.3,1,0.3s0.7-0.1,1-0.2C627.5,551.2,627.5,551,627.5,550.7z M633.9,552.2h-1
		v-8.7h1V552.2z M639.4,552.2c-0.1-0.1-0.1-0.3-0.2-0.6c-0.5,0.5-1.1,0.8-1.7,0.8c-0.6,0-1.1-0.2-1.5-0.5s-0.6-0.8-0.6-1.3
		c0-0.6,0.2-1.1,0.7-1.5c0.5-0.4,1.2-0.5,2.1-0.5h1v-0.5c0-0.4-0.1-0.6-0.3-0.9c-0.2-0.2-0.5-0.3-1-0.3c-0.4,0-0.7,0.1-0.9,0.3
		c-0.3,0.2-0.4,0.4-0.4,0.7h-1.1c0-0.3,0.1-0.6,0.3-0.9s0.5-0.5,0.9-0.7s0.8-0.3,1.2-0.3c0.7,0,1.3,0.2,1.7,0.5
		c0.4,0.4,0.6,0.8,0.6,1.4v2.8c0,0.6,0.1,1,0.2,1.3v0.1h-1V552.2z M637.7,551.5c0.3,0,0.6-0.1,0.9-0.3c0.3-0.2,0.5-0.4,0.6-0.7v-1.3
		h-0.8c-1.3,0-1.9,0.4-1.9,1.1c0,0.3,0.1,0.6,0.3,0.8C637,551.5,637.2,551.5,637.7,551.5z M643.8,544.7v1.5h1.1v0.8h-1.1v3.8
		c0,0.3,0.1,0.4,0.2,0.6c0.1,0.1,0.3,0.2,0.5,0.2c0.1,0,0.3,0,0.5-0.1v0.8c-0.3,0.1-0.5,0.1-0.8,0.1c-0.5,0-0.8-0.1-1.1-0.4
		c-0.2-0.3-0.4-0.7-0.4-1.2V547h-1.1v-0.8h1.1v-1.5H643.8z M648.8,552.5c-0.8,0-1.5-0.3-2-0.8c-0.5-0.6-0.8-1.3-0.8-2.2v-0.2
		c0-0.6,0.1-1.2,0.3-1.6c0.2-0.5,0.6-0.9,1-1.1c0.4-0.3,0.9-0.4,1.4-0.4c0.8,0,1.4,0.3,1.9,0.8c0.4,0.5,0.7,1.3,0.7,2.2v0.4h-4.1
		c0,0.6,0.2,1.1,0.5,1.5c0.3,0.4,0.8,0.6,1.3,0.6c0.4,0,0.7-0.1,0.9-0.2c0.3-0.2,0.5-0.4,0.7-0.6l0.6,0.5
		C650.5,552,649.8,552.5,648.8,552.5z M648.7,547c-0.4,0-0.8,0.2-1.1,0.5s-0.5,0.7-0.5,1.3h3.1v-0.1c0-0.5-0.2-0.9-0.4-1.2
		C649.5,547,649,547,648.7,547z M653,546.2v0.8c0.5-0.6,1.1-0.9,1.8-0.9c1.3,0,2,0.7,2,2.2v4h-1.1v-4.1c0-0.4-0.1-0.8-0.3-1
		s-0.5-0.3-0.9-0.3c-0.3,0-0.6,0.1-0.9,0.3c-0.3,0.2-0.4,0.4-0.6,0.7v4.4h-1v-6.1H653z M661.2,551.5c0.4,0,0.7-0.1,1-0.3
		s0.4-0.5,0.5-0.9h1c0,0.4-0.1,0.7-0.4,1c-0.2,0.3-0.5,0.6-0.9,0.8s-0.8,0.3-1.2,0.3c-0.8,0-1.5-0.3-2-0.8c-0.5-0.6-0.7-1.3-0.7-2.3
		v-0.2c0-0.6,0.1-1.1,0.3-1.6s0.5-0.8,0.9-1.1s0.9-0.4,1.5-0.4c0.7,0,1.3,0.2,1.7,0.6c0.5,0.4,0.7,0.9,0.7,1.6h-1
		c0-0.4-0.2-0.7-0.5-1s-0.6-0.4-1-0.4c-0.5,0-0.9,0.2-1.2,0.6c-0.3,0.4-0.4,0.9-0.4,1.7v0.2c0,0.7,0.1,1.2,0.4,1.6
		C660.2,551.3,660.7,551.5,661.2,551.5z M666.5,550.8l1.4-4.6h1.1l-2.5,7.1c-0.4,1-1,1.5-1.8,1.5h-0.2l-0.4-0.1v-0.8h0.3
		c0.4,0,0.6-0.1,0.8-0.2c0.2-0.1,0.4-0.4,0.5-0.8l0.2-0.6l-2.2-6.1h1.1L666.5,550.8z M672.8,549c0,0.8-0.1,1.7-0.3,2.4
		c-0.2,0.8-0.6,1.5-1,2.1c-0.5,0.7-0.9,1.1-1.4,1.4l-0.2-0.6c0.6-0.4,1.1-1.1,1.4-2.1c0.4-0.9,0.5-2,0.5-3.1V549
		c0-0.8-0.1-1.5-0.3-2.2s-0.4-1.3-0.7-1.8s-0.6-1-1-1.3l0.2-0.6c0.5,0.3,1,0.7,1.4,1.4c0.5,0.6,0.8,1.4,1,2.1
		C672.7,547.2,672.8,548.2,672.8,549z"/>
	<path class="st21" d="M339.9,135.4c0,0.8-0.1,1.5-0.4,2.1c-0.3,0.6-0.7,1.1-1.2,1.4c-0.5,0.3-1.1,0.5-1.7,0.5s-1.2-0.2-1.7-0.5
		c-0.5-0.3-0.9-0.8-1.2-1.4c-0.3-0.6-0.4-1.3-0.4-2.1v-0.6c0-0.8,0.1-1.5,0.4-2.1c0.3-0.6,0.7-1.1,1.2-1.4c0.5-0.3,1.1-0.5,1.7-0.5
		s1.2,0.2,1.7,0.5c0.5,0.3,0.9,0.8,1.2,1.4c0.3,0.6,0.4,1.3,0.4,2.1V135.4z M338.8,134.8c0-1-0.2-1.7-0.6-2.2s-0.9-0.8-1.6-0.8
		s-1.2,0.3-1.6,0.8s-0.6,1.2-0.6,2.2v0.6c0,0.9,0.2,1.7,0.6,2.2s1,0.8,1.6,0.8c0.7,0,1.2-0.3,1.6-0.8s0.6-1.2,0.6-2.2V134.8z
		 M346.2,136.1c0,0.9-0.2,1.7-0.6,2.2c-0.4,0.6-1,0.9-1.7,0.9s-1.3-0.2-1.8-0.7v2.9h-1v-8.5h1v0.7c0.4-0.5,1-0.8,1.8-0.8
		c0.7,0,1.3,0.3,1.7,0.8c0.4,0.6,0.6,1.3,0.6,2.3V136.1z M345.2,136.1c0-0.7-0.2-1.2-0.5-1.6c-0.3-0.4-0.7-0.6-1.2-0.6
		c-0.6,0-1.1,0.3-1.4,0.8v2.9c0.3,0.6,0.8,0.8,1.4,0.8c0.5,0,0.9-0.2,1.2-0.6C345.1,137.4,345.2,136.9,345.2,136.1z M350.4,139.2
		c-0.8,0-1.5-0.3-2-0.8c-0.5-0.6-0.8-1.3-0.8-2.2v-0.2c0-0.6,0.1-1.2,0.3-1.6c0.2-0.5,0.6-0.9,1-1.1c0.4-0.3,0.9-0.4,1.4-0.4
		c0.8,0,1.4,0.3,1.9,0.8c0.4,0.5,0.7,1.3,0.7,2.2v0.4h-4.1c0,0.6,0.2,1.1,0.5,1.5c0.3,0.4,0.8,0.6,1.3,0.6c0.4,0,0.7-0.1,0.9-0.2
		c0.3-0.2,0.5-0.4,0.7-0.6l0.6,0.5C352.2,138.9,351.5,139.2,350.4,139.2z M350.2,133.8c-0.4,0-0.8,0.2-1.1,0.5
		c-0.3,0.3-0.5,0.7-0.5,1.3h3.1v-0.1c0-0.5-0.2-0.9-0.4-1.2C351.1,133.9,350.7,133.8,350.2,133.8z M356.6,133.9c-0.2,0-0.3,0-0.5,0
		c-0.7,0-1.2,0.3-1.4,0.9v4.3h-1v-6.1h1v0.7c0.3-0.5,0.8-0.8,1.5-0.8c0.2,0,0.4,0,0.5,0.1v0.9H356.6z M361.2,139.1
		c-0.1-0.1-0.1-0.3-0.2-0.6c-0.5,0.5-1.1,0.8-1.7,0.8s-1.1-0.2-1.5-0.5c-0.4-0.3-0.6-0.8-0.6-1.3c0-0.6,0.2-1.1,0.7-1.5
		s1.2-0.5,2.1-0.5h1v-0.6c0-0.4-0.1-0.6-0.3-0.9c-0.2-0.2-0.5-0.3-1-0.3c-0.4,0-0.7,0.1-0.9,0.3c-0.3,0.2-0.4,0.4-0.4,0.7h-1
		c0-0.3,0.1-0.6,0.3-0.9c0.2-0.3,0.5-0.5,0.9-0.7c0.4-0.2,0.8-0.3,1.2-0.3c0.7,0,1.3,0.2,1.7,0.5c0.4,0.4,0.6,0.8,0.6,1.4v2.8
		c0,0.6,0.1,1,0.2,1.3v0.1h-1.1L361.2,139.1L361.2,139.1z M359.6,138.4c0.3,0,0.6-0.1,0.9-0.3s0.5-0.4,0.6-0.7v-1.3h-0.8
		c-1.3,0-1.9,0.4-1.9,1.1c0,0.3,0.1,0.6,0.3,0.8C359,138.2,359.2,138.4,359.6,138.4z M365.7,131.6v1.5h1.1v0.8h-1.1v3.8
		c0,0.3,0.1,0.4,0.2,0.6s0.3,0.2,0.5,0.2c0.1,0,0.3,0,0.5-0.1v0.8c-0.3,0.1-0.5,0.1-0.8,0.1c-0.5,0-0.8-0.1-1.1-0.4
		c-0.2-0.3-0.4-0.7-0.4-1.2v-3.8h-1.1V133h1.1v-1.5C364.6,131.6,365.7,131.6,365.7,131.6z M369.2,139.1h-1v-6.1h1V139.1z
		 M368.2,131.4c0-0.2,0.1-0.3,0.2-0.4c0.1-0.1,0.3-0.2,0.5-0.2s0.4,0.1,0.5,0.2c0.1,0.1,0.2,0.3,0.2,0.4c0,0.2-0.1,0.3-0.2,0.4
		c-0.1,0.1-0.3,0.2-0.5,0.2s-0.4-0.1-0.5-0.2C368.2,131.8,368.2,131.6,368.2,131.4z M370.8,136.1c0-0.6,0.1-1.1,0.3-1.6
		c0.2-0.5,0.6-0.9,1-1.1c0.4-0.3,0.9-0.4,1.4-0.4c0.8,0,1.5,0.3,2,0.9c0.5,0.6,0.8,1.3,0.8,2.3v0.1c0,0.6-0.1,1.1-0.3,1.6
		c-0.2,0.5-0.6,0.8-1,1.1s-0.9,0.4-1.5,0.4c-0.8,0-1.5-0.3-2-0.9C371,137.9,370.8,137.1,370.8,136.1L370.8,136.1z M371.8,136.1
		c0,0.7,0.2,1.2,0.5,1.6s0.7,0.6,1.3,0.6c0.5,0,1-0.2,1.3-0.6s0.5-1,0.5-1.8c0-0.7-0.2-1.2-0.5-1.6c-0.3-0.4-0.7-0.6-1.3-0.6
		c-0.5,0-0.9,0.2-1.3,0.6C372,134.9,371.8,135.4,371.8,136.1z M378.8,133.1v0.8c0.5-0.6,1.1-0.9,1.8-0.9c1.3,0,2,0.7,2,2.2v4h-1.1
		v-4.1c0-0.4-0.1-0.8-0.3-1c-0.2-0.2-0.5-0.3-0.9-0.3c-0.3,0-0.6,0.1-0.9,0.3s-0.4,0.4-0.6,0.7v4.4h-1v-6.1
		C377.8,133.1,378.8,133.1,378.8,133.1z M388.2,137.6c0-0.3-0.1-0.5-0.3-0.6c-0.2-0.2-0.6-0.3-1.1-0.4c-0.5-0.1-0.9-0.2-1.3-0.4
		c-0.3-0.2-0.5-0.3-0.7-0.6c-0.1-0.2-0.2-0.5-0.2-0.8c0-0.5,0.2-0.9,0.6-1.3c0.4-0.4,1-0.5,1.6-0.5c0.7,0,1.3,0.2,1.7,0.5
		c0.4,0.4,0.6,0.8,0.6,1.4h-1c0-0.3-0.1-0.5-0.4-0.7c-0.2-0.2-0.5-0.3-0.9-0.3s-0.7,0.1-0.9,0.3c-0.2,0.2-0.3,0.4-0.3,0.6
		c0,0.3,0.1,0.4,0.3,0.6c0.2,0.1,0.6,0.3,1.1,0.4s0.9,0.2,1.3,0.4c0.3,0.2,0.6,0.4,0.7,0.6c0.2,0.2,0.2,0.5,0.2,0.8
		c0,0.6-0.2,1-0.7,1.3c-0.4,0.3-1,0.5-1.7,0.5c-0.5,0-0.9-0.1-1.3-0.3s-0.7-0.4-0.9-0.7c-0.2-0.3-0.3-0.6-0.3-1h1
		c0,0.4,0.2,0.6,0.4,0.8c0.3,0.2,0.6,0.3,1,0.3s0.7-0.1,1-0.2C388,138.1,388.2,137.9,388.2,137.6z M394.5,135.9v3.2h-1.1v-8.2h3
		c0.9,0,1.6,0.2,2.1,0.7s0.8,1.1,0.8,1.8c0,0.8-0.3,1.4-0.8,1.8s-1.2,0.6-2.1,0.6L394.5,135.9L394.5,135.9z M394.5,135.1h2
		c0.6,0,1-0.1,1.3-0.4c0.3-0.3,0.5-0.7,0.5-1.2s-0.2-0.9-0.5-1.2c-0.3-0.3-0.7-0.5-1.3-0.5h-2V135.1z M403.5,139.2
		c-0.8,0-1.5-0.3-2-0.8c-0.5-0.6-0.8-1.3-0.8-2.2v-0.2c0-0.6,0.1-1.2,0.3-1.6c0.2-0.5,0.6-0.9,1-1.1c0.4-0.3,0.9-0.4,1.4-0.4
		c0.8,0,1.4,0.3,1.9,0.8c0.4,0.5,0.7,1.3,0.7,2.2v0.4h-4.1c0,0.6,0.2,1.1,0.5,1.5c0.3,0.4,0.8,0.6,1.3,0.6c0.4,0,0.7-0.1,0.9-0.2
		c0.3-0.2,0.5-0.4,0.7-0.6l0.6,0.5C405.2,138.9,404.6,139.2,403.5,139.2z M403.4,133.8c-0.4,0-0.8,0.2-1.1,0.5
		c-0.3,0.3-0.5,0.7-0.5,1.3h3.1v-0.1c0-0.5-0.2-0.9-0.4-1.2C404.2,133.9,403.9,133.8,403.4,133.8z M409.8,133.9c-0.2,0-0.3,0-0.5,0
		c-0.7,0-1.2,0.3-1.4,0.9v4.3h-1v-6.1h1v0.7c0.3-0.5,0.8-0.8,1.5-0.8c0.2,0,0.4,0,0.5,0.1v0.9H409.8z M416.1,135.6
		c-0.9-0.3-1.6-0.6-2-1c-0.4-0.4-0.6-0.9-0.6-1.4c0-0.6,0.3-1.2,0.8-1.6c0.5-0.4,1.2-0.6,2-0.6c0.6,0,1.1,0.1,1.5,0.3s0.8,0.5,1,0.9
		c0.3,0.4,0.4,0.8,0.4,1.3H418c0-0.5-0.2-0.9-0.5-1.2s-0.8-0.4-1.3-0.4s-1,0.1-1.3,0.4c-0.3,0.2-0.5,0.6-0.5,1
		c0,0.3,0.1,0.6,0.4,0.9c0.3,0.2,0.8,0.4,1.5,0.6s1.2,0.4,1.6,0.6c0.4,0.2,0.7,0.5,0.9,0.8c0.2,0.3,0.3,0.7,0.3,1.1
		c0,0.7-0.3,1.2-0.8,1.6c-0.5,0.4-1.2,0.6-2.1,0.6c-0.6,0-1.1-0.1-1.6-0.3s-0.9-0.5-1.1-0.9c-0.3-0.4-0.4-0.8-0.4-1.3h1.1
		c0,0.5,0.2,0.9,0.6,1.2s0.9,0.4,1.5,0.4s1-0.1,1.3-0.3c0.3-0.2,0.5-0.6,0.5-1c0-0.4-0.1-0.7-0.4-0.9S416.9,135.8,416.1,135.6z
		 M422.9,139.2c-0.8,0-1.5-0.3-2-0.8c-0.5-0.6-0.8-1.3-0.8-2.2v-0.2c0-0.6,0.1-1.2,0.3-1.6c0.2-0.5,0.6-0.9,1-1.1
		c0.4-0.3,0.9-0.4,1.4-0.4c0.8,0,1.4,0.3,1.9,0.8c0.4,0.5,0.7,1.3,0.7,2.2v0.4h-4.1c0,0.6,0.2,1.1,0.5,1.5c0.3,0.4,0.8,0.6,1.3,0.6
		c0.4,0,0.7-0.1,0.9-0.2c0.3-0.2,0.5-0.4,0.7-0.6l0.6,0.5C424.7,138.9,423.9,139.2,422.9,139.2z M422.7,133.8
		c-0.4,0-0.8,0.2-1.1,0.5c-0.3,0.3-0.5,0.7-0.5,1.3h3.1v-0.1c0-0.5-0.2-0.9-0.4-1.2C423.5,133.9,423.2,133.8,422.7,133.8z
		 M428.6,138.4c0.4,0,0.7-0.1,1-0.3c0.3-0.2,0.4-0.5,0.5-0.9h1c0,0.4-0.1,0.7-0.4,1c-0.2,0.3-0.5,0.6-0.9,0.8s-0.8,0.3-1.2,0.3
		c-0.8,0-1.5-0.3-2-0.8c-0.5-0.6-0.7-1.3-0.7-2.3v-0.3c0-0.6,0.1-1.1,0.3-1.6c0.2-0.5,0.5-0.8,0.9-1.1c0.4-0.3,0.9-0.4,1.5-0.4
		c0.7,0,1.3,0.2,1.7,0.6c0.5,0.4,0.7,0.9,0.7,1.6h-1c0-0.4-0.2-0.7-0.5-1s-0.6-0.4-1-0.4c-0.5,0-0.9,0.2-1.2,0.6
		c-0.3,0.4-0.4,0.9-0.4,1.7v0.2c0,0.7,0.1,1.2,0.4,1.6C427.6,138.2,428,138.4,428.6,138.4z M431.6,136.1c0-0.6,0.1-1.1,0.3-1.6
		c0.2-0.5,0.6-0.9,1-1.1c0.4-0.3,0.9-0.4,1.4-0.4c0.8,0,1.5,0.3,2,0.9c0.5,0.6,0.8,1.3,0.8,2.3v0.1c0,0.6-0.1,1.1-0.3,1.6
		c-0.2,0.5-0.6,0.8-1,1.1s-0.9,0.4-1.5,0.4c-0.8,0-1.5-0.3-2-0.9C431.9,137.9,431.6,137.1,431.6,136.1L431.6,136.1z M432.7,136.1
		c0,0.7,0.2,1.2,0.5,1.6s0.7,0.6,1.3,0.6c0.5,0,1-0.2,1.3-0.6s0.5-1,0.5-1.8c0-0.7-0.2-1.2-0.5-1.6c-0.3-0.4-0.7-0.6-1.3-0.6
		c-0.5,0-0.9,0.2-1.3,0.6C432.8,134.9,432.7,135.4,432.7,136.1z M439.7,133.1v0.8c0.5-0.6,1.1-0.9,1.8-0.9c1.3,0,2,0.7,2,2.2v4h-1.1
		v-4.1c0-0.4-0.1-0.8-0.3-1c-0.2-0.2-0.5-0.3-0.9-0.3c-0.3,0-0.6,0.1-0.9,0.3s-0.4,0.4-0.6,0.7v4.4h-1v-6.1
		C438.7,133.1,439.7,133.1,439.7,133.1z M445.2,136.1c0-0.9,0.2-1.7,0.7-2.3c0.4-0.6,1-0.9,1.8-0.9c0.7,0,1.3,0.2,1.7,0.7v-3.2h1
		v8.7h-1v-0.7c-0.4,0.5-1,0.8-1.8,0.8c-0.7,0-1.3-0.3-1.7-0.9C445.4,137.9,445.2,137.1,445.2,136.1L445.2,136.1z M446.2,136.1
		c0,0.7,0.1,1.2,0.4,1.6s0.7,0.6,1.2,0.6c0.7,0,1.2-0.3,1.5-0.9v-2.8c-0.3-0.6-0.8-0.9-1.4-0.9c-0.5,0-0.9,0.2-1.2,0.6
		C446.4,134.9,446.2,135.4,446.2,136.1z"/>
</g>
</svg>
