<?xml version="1.0" encoding="utf-8"?>
<!-- Generator: Adobe Illustrator 23.0.6, SVG Export Plug-In . SVG Version: 6.00 Build 0)  -->
<svg version="1.1" id="Layer_1" xmlns="http://www.w3.org/2000/svg" xmlns:xlink="http://www.w3.org/1999/xlink" x="0px" y="0px"
	 viewBox="0 0 784 578" style="enable-background:new 0 0 784 578;" xml:space="preserve">
<style type="text/css">
	.st0{fill:#FFFFFF;stroke:#DAE1E5;stroke-miterlimit:10;}
	.st1{fill:#FF6E42;}
	.st2{fill:none;stroke:#333333;stroke-miterlimit:10;}
	.st3{fill:#DAE1E5;}
	.st4{fill:none;stroke:#CCCCCC;stroke-miterlimit:10;}
	.st5{clip-path:url(#SVGID_2_);fill:#FF7D55;}
	.st6{clip-path:url(#SVGID_4_);fill:#FFB7A1;}
	.st7{clip-path:url(#SVGID_6_);fill:none;}
	.st8{clip-path:url(#SVGID_8_);fill:#FF9A7B;}
	.st9{clip-path:url(#SVGID_10_);fill:#CC5835;}
	.st10{clip-path:url(#SVGID_12_);fill:#FF8B68;}
	.st11{clip-path:url(#SVGID_14_);fill:none;}
	.st12{clip-path:url(#SVGID_16_);fill:#FF6E42;}
	.st13{clip-path:url(#SVGID_18_);fill:#282151;}
	.st14{clip-path:url(#SVGID_20_);fill:#5B5484;}
	.st15{clip-path:url(#SVGID_22_);fill:none;}
	.st16{clip-path:url(#SVGID_24_);fill:#322965;}
	.st17{fill:none;stroke:#F75821;stroke-width:3;stroke-linecap:round;stroke-linejoin:round;stroke-miterlimit:10;}
	.st18{fill:#FFFFFF;}
	.st19{fill:none;stroke:#202951;stroke-width:3;stroke-linecap:round;stroke-linejoin:round;stroke-miterlimit:10;}
	.st20{fill:#322965;}
</style>
<g>
	<path class="st0" d="M767,576H17c-8.3,0-15-6.7-15-15V17C2,8.7,8.7,2,17,2h750c8.3,0,15,6.7,15,15V561C782,569.2,775.3,576,767,576
		z"/>
	<g>
		<path class="st1" d="M131.6,82.1c-1.3-1.2-1.9-3-1.9-5.4V66.1c0-0.2,0.1-0.3,0.2-0.5c0.1-0.1,0.3-0.2,0.5-0.2h2.4
			c0.2,0,0.3,0.1,0.5,0.2c0.1,0.1,0.2,0.3,0.2,0.5v10.6c0,1.4,0.3,2.4,1,3.1s1.6,1,2.8,1s2.1-0.3,2.8-1c0.7-0.7,1-1.7,1-3.1V66.1
			c0-0.2,0.1-0.3,0.2-0.5c0.1-0.1,0.3-0.2,0.5-0.2h2.4c0.2,0,0.3,0.1,0.5,0.2c0.1,0.1,0.2,0.3,0.2,0.5v10.6c0,2.4-0.6,4.2-1.9,5.4
			c-1.3,1.2-3.1,1.8-5.4,1.8C134.8,83.8,132.9,83.2,131.6,82.1z"/>
		<path class="st1" d="M148.3,88.3c-0.1-0.1-0.2-0.3-0.2-0.5V70.6c0-0.2,0.1-0.3,0.2-0.5c0.1-0.1,0.3-0.2,0.4-0.2h2.1
			c0.2,0,0.3,0.1,0.5,0.2c0.1,0.1,0.2,0.3,0.2,0.4v1c0.9-1.3,2.3-1.9,4.1-1.9s3.1,0.6,4,1.7s1.4,2.6,1.5,4.4c0,0.2,0,0.5,0,0.9
			s0,0.7,0,0.9c-0.1,1.8-0.5,3.3-1.5,4.4c-0.9,1.1-2.3,1.7-4,1.7s-3.1-0.6-4-1.8v5.9c0,0.2-0.1,0.3-0.2,0.5
			c-0.1,0.1-0.3,0.2-0.5,0.2h-2.3C148.6,88.6,148.4,88.4,148.3,88.3z M157.6,77.7c0-0.2,0-0.4,0-0.8c0-0.4,0-0.6,0-0.8
			c-0.1-2.3-1.1-3.4-3-3.4c-1,0-1.7,0.3-2.2,1c-0.5,0.6-0.7,1.4-0.8,2.3c0,0.2,0,0.5,0,1s0,0.8,0,1c0,0.9,0.3,1.6,0.8,2.2
			s1.2,0.9,2.2,0.9C156.5,81.1,157.5,79.9,157.6,77.7z"/>
		<path class="st1" d="M172,82.3c-0.8-0.8-1.2-2-1.2-3.6v-5.9h-2.1c-0.2,0-0.3-0.1-0.4-0.2c-0.1-0.1-0.2-0.3-0.2-0.4v-1.5
			c0-0.2,0.1-0.3,0.2-0.4c0.1-0.1,0.3-0.2,0.4-0.2h2.1v-4.3c0-0.2,0.1-0.3,0.2-0.5c0.1-0.1,0.3-0.2,0.4-0.2h2.2
			c0.2,0,0.3,0.1,0.5,0.2c0.1,0.1,0.2,0.3,0.2,0.5v4.3h3.2c0.2,0,0.3,0.1,0.4,0.2c0.1,0.1,0.2,0.3,0.2,0.4v1.5
			c0,0.2-0.1,0.3-0.2,0.4c-0.1,0.1-0.3,0.2-0.4,0.2h-3.2v5.6c0,0.7,0.1,1.3,0.4,1.7c0.3,0.4,0.7,0.6,1.3,0.6h1.8
			c0.2,0,0.3,0.1,0.5,0.2c0.1,0.1,0.2,0.3,0.2,0.5v1.6c0,0.2-0.1,0.3-0.2,0.4c-0.1,0.1-0.3,0.2-0.5,0.2h-2.1
			C174,83.7,172.8,83.2,172,82.3z"/>
		<path class="st1" d="M181.9,82.3c-1.1-1-1.7-2.5-1.8-4.3v-1.1v-1.1c0.1-1.8,0.7-3.3,1.8-4.3s2.7-1.6,4.7-1.6s3.6,0.5,4.7,1.6
			c1.1,1,1.7,2.5,1.8,4.3c0,0.2,0,0.6,0,1.1s0,0.9,0,1.1c-0.1,1.8-0.7,3.3-1.8,4.3s-2.7,1.6-4.7,1.6
			C184.6,83.8,183.1,83.3,181.9,82.3z M188.8,80.3c0.5-0.6,0.8-1.4,0.8-2.5c0-0.2,0-0.5,0-1s0-0.8,0-1c0-1.1-0.3-2-0.8-2.5
			c-0.5-0.6-1.2-0.9-2.1-0.9c-0.9,0-1.6,0.3-2.1,0.9c-0.5,0.6-0.8,1.4-0.8,2.5v1v1c0,1.1,0.3,2,0.8,2.5c0.5,0.6,1.2,0.9,2.1,0.9
			S188.3,80.9,188.8,80.3z"/>
		<path class="st1" d="M204.6,83.2c-1-0.5-1.8-1.1-2.4-1.9c-0.5-0.8-0.8-1.7-0.9-2.6v-0.1c0-0.1,0.1-0.3,0.2-0.4
			c0.1-0.1,0.2-0.1,0.4-0.1h2.5c0.4,0,0.7,0.2,0.8,0.5c0.2,0.8,0.6,1.3,1.2,1.7c0.6,0.4,1.2,0.5,2,0.5c1,0,1.8-0.3,2.4-0.9
			c0.6-0.6,0.9-1.4,0.9-2.4c0-0.9-0.3-1.7-0.9-2.3c-0.6-0.6-1.4-0.9-2.4-0.9c-0.5,0-0.9,0.1-1.3,0.2c-0.3,0.1-0.7,0.3-1,0.6
			c0,0-0.1,0.1-0.2,0.2c-0.1,0.1-0.2,0.1-0.3,0.2c-0.1,0.1-0.2,0.1-0.3,0.1h-2.4c-0.2,0-0.3-0.1-0.4-0.2c-0.1-0.1-0.2-0.2-0.2-0.4
			l0.9-8.9c0-0.2,0.1-0.4,0.2-0.5c0.1-0.1,0.3-0.2,0.5-0.2h9.8c0.2,0,0.3,0.1,0.5,0.2c0.2,0.1,0.2,0.3,0.2,0.5v1.8
			c0,0.2-0.1,0.3-0.2,0.4c-0.1,0.1-0.3,0.2-0.5,0.2h-7.5l-0.4,4.2c0.4-0.3,0.9-0.5,1.4-0.6c0.5-0.2,1.2-0.2,2-0.2
			c1.1,0,2.2,0.2,3.1,0.7c1,0.5,1.7,1.2,2.3,2.1c0.6,0.9,0.9,1.9,0.9,3.1c0,1.3-0.3,2.4-0.9,3.3c-0.6,0.9-1.4,1.7-2.5,2.2
			s-2.3,0.8-3.7,0.8C206.8,83.8,205.6,83.7,204.6,83.2z"/>
		<path class="st1" d="M218,83.4c-0.1-0.1-0.2-0.3-0.2-0.4v-2.6c0-0.2,0.1-0.3,0.2-0.4c0.1-0.1,0.3-0.2,0.4-0.2h2.6
			c0.2,0,0.3,0.1,0.4,0.2s0.2,0.3,0.2,0.4v2.6c0,0.2-0.1,0.3-0.2,0.4s-0.3,0.2-0.5,0.2h-2.6C218.3,83.7,218.2,83.6,218,83.4z"/>
		<path class="st1" d="M227.5,83.2c-1.1-0.5-1.9-1.1-2.4-1.8c-0.5-0.7-0.8-1.5-0.8-2.3c0-0.2,0.1-0.3,0.2-0.4s0.2-0.2,0.4-0.2h2.4
			c0.4,0,0.6,0.2,0.8,0.5c0.4,1.2,1.5,1.8,3.4,1.8c1.1,0,1.9-0.2,2.5-0.7s0.9-1.2,0.9-2.1c0-0.9-0.3-1.6-0.8-2
			c-0.5-0.4-1.3-0.6-2.4-0.6H229c-0.2,0-0.3-0.1-0.4-0.2s-0.2-0.3-0.2-0.4v-1.1c0-0.3,0.1-0.6,0.3-0.8l4.6-4.5h-7.4
			c-0.2,0-0.3-0.1-0.5-0.2c-0.1-0.1-0.2-0.3-0.2-0.4v-1.7c0-0.2,0.1-0.3,0.2-0.5c0.1-0.1,0.3-0.2,0.5-0.2H237c0.2,0,0.3,0.1,0.5,0.2
			c0.1,0.1,0.2,0.3,0.2,0.5v1.6c0,0.3-0.1,0.5-0.3,0.7l-4.5,4.6h0.3c1.7,0.1,3,0.6,4,1.5s1.5,2.1,1.5,3.7c0,1.1-0.3,2.1-0.9,3
			c-0.6,0.8-1.5,1.5-2.5,2c-1.1,0.5-2.3,0.7-3.7,0.7C229.9,83.8,228.6,83.7,227.5,83.2z"/>
		<path class="st1" d="M240.4,83.4c-0.1-0.1-0.2-0.2-0.2-0.4c0-0.2,0.1-0.3,0.2-0.4l4.4-5.9l-4.1-5.6c-0.1-0.1-0.2-0.3-0.2-0.4
			c0-0.2,0.1-0.3,0.2-0.4s0.2-0.2,0.4-0.2h2.3c0.2,0,0.3,0,0.4,0.1c0.1,0.1,0.2,0.2,0.3,0.3l2.9,3.9l2.9-3.9c0,0,0.1-0.1,0.2-0.2
			c0.1-0.1,0.3-0.2,0.5-0.2h2.2c0.2,0,0.3,0.1,0.4,0.2c0.1,0.1,0.2,0.2,0.2,0.4c0,0.2-0.1,0.3-0.2,0.5l-4.2,5.6l4.5,5.9
			c0.1,0.1,0.2,0.3,0.2,0.4c0,0.2-0.1,0.3-0.2,0.4s-0.2,0.2-0.4,0.2h-2.4c-0.3,0-0.5-0.1-0.7-0.4l-3.1-4.1l-3.1,4.1
			c-0.2,0.3-0.4,0.4-0.7,0.4h-2.3C240.7,83.7,240.5,83.6,240.4,83.4z"/>
		<path class="st1" d="M262.5,83.4c-0.1-0.1-0.2-0.3-0.2-0.4V66.2c0-0.2,0.1-0.3,0.2-0.5c0.1-0.1,0.3-0.2,0.5-0.2h2.1
			c0.3,0,0.6,0.2,0.8,0.5l5,9.3l5-9.3c0.2-0.3,0.5-0.5,0.8-0.5h2.1c0.2,0,0.3,0.1,0.5,0.2c0.1,0.1,0.2,0.3,0.2,0.5v16.8
			c0,0.2-0.1,0.3-0.2,0.5c-0.1,0.2-0.3,0.2-0.5,0.2h-2.2c-0.2,0-0.3-0.1-0.4-0.2c-0.1-0.1-0.2-0.3-0.2-0.4V71.9l-3.6,6.9
			c-0.2,0.4-0.5,0.6-0.9,0.6h-1.1c-0.4,0-0.7-0.2-0.9-0.6l-3.6-6.9v11.1c0,0.2-0.1,0.3-0.2,0.4s-0.3,0.2-0.5,0.2H263
			C262.8,83.7,262.6,83.6,262.5,83.4z"/>
		<path class="st1" d="M284.4,82.3c-1.1-1-1.7-2.5-1.8-4.3v-1.1v-1.1c0.1-1.8,0.7-3.3,1.8-4.3c1.1-1,2.7-1.6,4.7-1.6
			s3.6,0.5,4.7,1.6c1.1,1,1.7,2.5,1.8,4.3c0,0.2,0,0.6,0,1.1s0,0.9,0,1.1c-0.1,1.8-0.7,3.3-1.8,4.3s-2.7,1.6-4.7,1.6
			C287.1,83.8,285.5,83.3,284.4,82.3z M291.3,80.3c0.5-0.6,0.8-1.4,0.8-2.5c0-0.2,0-0.5,0-1s0-0.8,0-1c0-1.1-0.3-2-0.8-2.5
			c-0.5-0.6-1.2-0.9-2.1-0.9s-1.6,0.3-2.1,0.9c-0.5,0.6-0.8,1.4-0.8,2.5v1v1c0,1.1,0.3,2,0.8,2.5c0.5,0.6,1.2,0.9,2.1,0.9
			S290.8,80.9,291.3,80.3z"/>
		<path class="st1" d="M298.7,83.4c-0.1-0.1-0.2-0.3-0.2-0.4V70.9c0-0.2,0.1-0.3,0.2-0.5c0.1-0.1,0.3-0.2,0.4-0.2h2.1
			c0.2,0,0.3,0.1,0.5,0.2c0.1,0.1,0.2,0.3,0.2,0.5v1.1c0.9-1.1,2.1-1.7,3.7-1.7h1.1c0.2,0,0.3,0.1,0.5,0.2c0.1,0.1,0.2,0.3,0.2,0.5
			v1.9c0,0.2-0.1,0.3-0.2,0.4c-0.1,0.1-0.3,0.2-0.5,0.2h-2.1c-0.8,0-1.5,0.2-1.9,0.7c-0.5,0.5-0.7,1.1-0.7,1.9v7.1
			c0,0.2-0.1,0.3-0.2,0.4c-0.1,0.1-0.3,0.2-0.4,0.2h-2.3C299,83.7,298.9,83.6,298.7,83.4z"/>
		<path class="st1" d="M310.5,82.2c-1.1-1.1-1.7-2.7-1.8-4.7v-0.6c0-2.2,0.6-3.9,1.7-5.1c1.1-1.2,2.7-1.9,4.7-1.9
			c2.1,0,3.7,0.6,4.8,1.9c1.1,1.2,1.7,2.9,1.7,5v0.5c0,0.2-0.1,0.3-0.2,0.4c-0.1,0.1-0.3,0.2-0.5,0.2h-8.6v0.2c0,1,0.3,1.8,0.8,2.4
			c0.5,0.6,1.2,0.9,2,0.9c1,0,1.8-0.4,2.4-1.2c0.2-0.2,0.3-0.3,0.4-0.4c0.1,0,0.2-0.1,0.4-0.1h2.3c0.2,0,0.3,0,0.4,0.1
			c0.1,0.1,0.2,0.2,0.2,0.4c0,0.4-0.2,0.9-0.7,1.5c-0.5,0.6-1.2,1.1-2.1,1.5c-0.9,0.4-2,0.6-3.2,0.6
			C313.2,83.8,311.6,83.3,310.5,82.2z M318,75.7L318,75.7c0-1.1-0.3-1.9-0.8-2.5s-1.2-0.9-2.1-0.9s-1.6,0.3-2.1,0.9
			s-0.8,1.4-0.8,2.5v0.1L318,75.7L318,75.7z"/>
		<path class="st1" d="M332.3,82.8l-3.1-16.7v-0.2c0-0.2,0.1-0.3,0.2-0.4s0.2-0.2,0.4-0.2h2.3c0.2,0,0.4,0,0.5,0.1
			c0.1,0.1,0.2,0.2,0.2,0.4l2.2,11.7l2.3-7.5c0.2-0.4,0.5-0.6,0.9-0.6h1.4c0.2,0,0.4,0.1,0.5,0.2c0.1,0.1,0.2,0.3,0.3,0.5l2.3,7.5
			l2.1-11.7c0.1-0.3,0.3-0.5,0.7-0.5h2.3c0.1,0,0.3,0.1,0.4,0.2c0.1,0.1,0.2,0.2,0.2,0.4c0,0.1,0,0.2,0,0.2l-3.1,16.7
			c0,0.2-0.1,0.4-0.3,0.6c-0.2,0.1-0.4,0.2-0.6,0.2h-1.8c-0.2,0-0.4-0.1-0.6-0.2c-0.2-0.1-0.3-0.3-0.3-0.5l-2.9-8.6l-2.9,8.6
			c-0.1,0.4-0.4,0.6-0.9,0.6h-1.8C332.7,83.7,332.4,83.3,332.3,82.8z"/>
		<path class="st1" d="M351,83.4c-0.1-0.1-0.2-0.3-0.2-0.4V70.9c0-0.2,0.1-0.3,0.2-0.5c0.1-0.1,0.3-0.2,0.4-0.2h2.1
			c0.2,0,0.3,0.1,0.5,0.2c0.1,0.1,0.2,0.3,0.2,0.5v1.1c0.9-1.1,2.1-1.7,3.7-1.7h1.1c0.2,0,0.3,0.1,0.5,0.2c0.1,0.1,0.2,0.3,0.2,0.5
			v1.9c0,0.2-0.1,0.3-0.2,0.4c-0.1,0.1-0.3,0.2-0.5,0.2h-2c-0.8,0-1.5,0.2-1.9,0.7c-0.5,0.5-0.7,1.1-0.7,1.9v7.1
			c0,0.2-0.1,0.3-0.2,0.4c-0.1,0.1-0.3,0.2-0.4,0.2h-2.3C351.3,83.7,351.1,83.6,351,83.4z"/>
		<path class="st1" d="M361.8,67.7c-0.1-0.1-0.2-0.3-0.2-0.4v-1.9c0-0.2,0.1-0.3,0.2-0.5c0.1-0.1,0.3-0.2,0.4-0.2h2.4
			c0.2,0,0.3,0.1,0.5,0.2c0.1,0.1,0.2,0.3,0.2,0.5v1.9c0,0.2-0.1,0.3-0.2,0.4s-0.3,0.2-0.5,0.2h-2.4
			C362.1,67.9,361.9,67.9,361.8,67.7z M361.9,83.4c-0.1-0.1-0.2-0.3-0.2-0.4V70.8c0-0.2,0.1-0.3,0.2-0.5c0.1-0.1,0.3-0.2,0.4-0.2
			h2.2c0.2,0,0.3,0.1,0.4,0.2c0.1,0.1,0.2,0.3,0.2,0.4v12.3c0,0.2-0.1,0.3-0.2,0.4s-0.3,0.2-0.4,0.2h-2.2
			C362.2,83.7,362,83.6,361.9,83.4z"/>
		<path class="st1" d="M371.2,82.3c-0.8-0.8-1.2-2-1.2-3.6v-5.9h-2c-0.2,0-0.3-0.1-0.4-0.2c-0.1-0.1-0.2-0.3-0.2-0.4v-1.5
			c0-0.2,0.1-0.3,0.2-0.4c0.1-0.1,0.3-0.2,0.4-0.2h2.1v-4.3c0-0.2,0.1-0.3,0.2-0.5c0.1-0.1,0.3-0.2,0.4-0.2h2.2
			c0.2,0,0.3,0.1,0.5,0.2c0.1,0.1,0.2,0.3,0.2,0.5v4.3h3.2c0.2,0,0.3,0.1,0.4,0.2c0.1,0.1,0.2,0.3,0.2,0.4v1.5
			c0,0.2-0.1,0.3-0.2,0.4c-0.1,0.1-0.3,0.2-0.4,0.2h-3.2v5.6c0,0.7,0.1,1.3,0.4,1.7c0.3,0.4,0.7,0.6,1.3,0.6h1.8
			c0.2,0,0.3,0.1,0.5,0.2c0.1,0.1,0.2,0.3,0.2,0.5v1.6c0,0.2-0.1,0.3-0.2,0.4c-0.1,0.1-0.3,0.2-0.5,0.2H375
			C373.2,83.7,372,83.2,371.2,82.3z"/>
		<path class="st1" d="M381.1,82.2c-1.1-1.1-1.7-2.7-1.8-4.7v-0.6c0-2.2,0.6-3.9,1.7-5.1c1.1-1.2,2.7-1.9,4.7-1.9
			c2.1,0,3.7,0.6,4.8,1.9c1.1,1.2,1.7,2.9,1.7,5v0.5c0,0.2-0.1,0.3-0.2,0.4c-0.1,0.1-0.3,0.2-0.5,0.2h-8.6v0.2c0,1,0.3,1.8,0.8,2.4
			c0.5,0.6,1.2,0.9,2,0.9c1,0,1.8-0.4,2.4-1.2c0.2-0.2,0.3-0.3,0.4-0.4c0.1,0,0.2-0.1,0.4-0.1h2.3c0.2,0,0.3,0,0.4,0.1
			c0.1,0.1,0.2,0.2,0.2,0.4c0,0.4-0.2,0.9-0.7,1.5c-0.5,0.6-1.2,1.1-2.1,1.5c-0.9,0.4-2,0.6-3.2,0.6
			C383.7,83.8,382.2,83.3,381.1,82.2z M388.5,75.7L388.5,75.7c0-1.1-0.3-1.9-0.8-2.5s-1.2-0.9-2.1-0.9s-1.6,0.3-2.1,0.9
			s-0.8,1.4-0.8,2.5v0.1L388.5,75.7L388.5,75.7z"/>
		<path class="st1" d="M396.7,83.2c-0.9-0.4-1.5-0.9-2-1.4c-0.4-0.5-0.6-1-0.6-1.4c0-0.2,0.1-0.3,0.2-0.4c0.1-0.1,0.2-0.2,0.4-0.2
			h2.1c0.1,0,0.3,0.1,0.4,0.2s0.3,0.2,0.6,0.5c0.3,0.3,0.7,0.5,1,0.6c0.4,0.1,0.8,0.2,1.3,0.2c0.7,0,1.3-0.1,1.7-0.4
			c0.4-0.3,0.7-0.7,0.7-1.2c0-0.3-0.1-0.6-0.3-0.8c-0.2-0.2-0.6-0.4-1.1-0.6s-1.3-0.4-2.3-0.6c-1.5-0.3-2.6-0.8-3.3-1.4
			s-1.1-1.5-1.1-2.5c0-0.7,0.2-1.3,0.6-2c0.4-0.6,1-1.1,1.9-1.5c0.8-0.4,1.8-0.6,3-0.6s2.2,0.2,3,0.6c0.8,0.4,1.5,0.8,1.9,1.3
			s0.7,1,0.7,1.4c0,0.2-0.1,0.3-0.2,0.4c-0.1,0.1-0.2,0.2-0.4,0.2h-2c-0.2,0-0.3-0.1-0.4-0.2c-0.1-0.1-0.3-0.2-0.6-0.5
			c-0.3-0.3-0.6-0.4-0.9-0.6c-0.3-0.1-0.7-0.2-1.2-0.2c-0.6,0-1.1,0.1-1.5,0.4c-0.3,0.3-0.5,0.6-0.5,1.1c0,0.3,0.1,0.6,0.2,0.8
			c0.2,0.2,0.5,0.4,1,0.6c0.5,0.2,1.3,0.4,2.3,0.6c3.1,0.6,4.7,2,4.7,4.1c0,1.2-0.5,2.2-1.6,3c-1.1,0.8-2.6,1.1-4.5,1.1
			C398.7,83.8,397.6,83.7,396.7,83.2z"/>
		<path class="st1" d="M414.7,67.7c-0.1-0.1-0.2-0.3-0.2-0.4v-1.9c0-0.2,0.1-0.3,0.2-0.5c0.1-0.1,0.3-0.2,0.4-0.2h2.4
			c0.2,0,0.3,0.1,0.5,0.2c0.1,0.1,0.2,0.3,0.2,0.5v1.9c0,0.2-0.1,0.3-0.2,0.4s-0.3,0.2-0.5,0.2h-2.4C415,67.9,414.8,67.9,414.7,67.7
			z M414.8,83.4c-0.1-0.1-0.2-0.3-0.2-0.4V70.8c0-0.2,0.1-0.3,0.2-0.5c0.1-0.1,0.3-0.2,0.4-0.2h2.2c0.2,0,0.3,0.1,0.4,0.2
			c0.1,0.1,0.2,0.3,0.2,0.4v12.3c0,0.2-0.1,0.3-0.2,0.4s-0.3,0.2-0.4,0.2h-2.2C415.1,83.7,414.9,83.6,414.8,83.4z"/>
		<path class="st1" d="M421.7,83.4c-0.1-0.1-0.2-0.3-0.2-0.4V70.8c0-0.2,0.1-0.3,0.2-0.5c0.1-0.1,0.3-0.2,0.4-0.2h2.2
			c0.2,0,0.3,0.1,0.5,0.2c0.1,0.1,0.2,0.3,0.2,0.5v1.1c1.1-1.3,2.5-1.9,4.3-1.9c1.6,0,2.9,0.5,3.8,1.6c0.9,1,1.4,2.5,1.4,4.3v7.3
			c0,0.2-0.1,0.3-0.2,0.4s-0.3,0.2-0.5,0.2h-2.3c-0.2,0-0.3-0.1-0.4-0.2s-0.2-0.3-0.2-0.4V76c0-1-0.2-1.8-0.7-2.4
			c-0.5-0.6-1.2-0.8-2.1-0.8s-1.6,0.3-2.1,0.9c-0.5,0.6-0.8,1.4-0.8,2.3v7.1c0,0.2-0.1,0.3-0.2,0.4s-0.3,0.2-0.5,0.2h-2.3
			C422,83.7,421.8,83.6,421.7,83.4z"/>
		<path class="st1" d="M445.2,83.3c-0.7-0.4-1.3-0.8-1.7-1.4c-0.4-0.6-0.6-1.3-0.6-2c0-1.2,0.5-2.1,1.4-2.9c1-0.7,2.3-1.2,3.9-1.5
			l3.6-0.5v-0.5c0-0.7-0.2-1.3-0.6-1.7s-1-0.6-1.8-0.6c-0.6,0-1,0.1-1.4,0.3c-0.4,0.2-0.6,0.4-0.8,0.6s-0.4,0.4-0.4,0.4
			c-0.1,0.2-0.2,0.3-0.4,0.3h-2c-0.2,0-0.3-0.1-0.4-0.2c-0.1-0.1-0.2-0.2-0.2-0.4c0-0.4,0.2-0.9,0.6-1.5c0.4-0.5,1-1,1.9-1.4
			c0.8-0.4,1.9-0.6,3.1-0.6c2,0,3.5,0.5,4.5,1.4c0.9,0.9,1.4,2.1,1.4,3.6v8.2c0,0.2-0.1,0.3-0.2,0.4s-0.3,0.2-0.5,0.2h-2.2
			c-0.2,0-0.3-0.1-0.4-0.2s-0.2-0.3-0.2-0.4v-1c-0.4,0.6-0.9,1-1.6,1.4s-1.6,0.5-2.6,0.5C446.8,83.8,445.9,83.7,445.2,83.3z
			 M450.9,80.4c0.6-0.6,0.9-1.5,0.9-2.7v-0.5l-2.6,0.4c-2,0.3-3,1-3,2c0,0.6,0.2,1,0.7,1.3c0.5,0.3,1,0.5,1.7,0.5
			C449.5,81.3,450.3,81.1,450.9,80.4z"/>
		<path class="st1" d="M465,83.4c-0.1-0.1-0.2-0.3-0.2-0.4V66.2c0-0.2,0.1-0.3,0.2-0.5c0.1-0.1,0.3-0.2,0.5-0.2h2.1
			c0.3,0,0.6,0.2,0.8,0.5l5,9.3l5-9.3c0.2-0.3,0.5-0.5,0.8-0.5h2.1c0.2,0,0.3,0.1,0.5,0.2c0.1,0.1,0.2,0.3,0.2,0.5v16.8
			c0,0.2-0.1,0.3-0.2,0.5c-0.1,0.2-0.3,0.2-0.5,0.2H479c-0.2,0-0.3-0.1-0.4-0.2c-0.1-0.1-0.2-0.3-0.2-0.4V71.9l-3.6,6.9
			c-0.2,0.4-0.5,0.6-0.9,0.6h-1.1c-0.4,0-0.7-0.2-0.9-0.6l-3.6-6.9v11.1c0,0.2-0.1,0.3-0.2,0.4s-0.3,0.2-0.5,0.2h-2.2
			C465.3,83.7,465.1,83.6,465,83.4z"/>
		<path class="st1" d="M485.7,67.7c-0.1-0.1-0.2-0.3-0.2-0.4v-1.9c0-0.2,0.1-0.3,0.2-0.5c0.1-0.1,0.3-0.2,0.4-0.2h2.4
			c0.2,0,0.3,0.1,0.5,0.2c0.1,0.1,0.2,0.3,0.2,0.5v1.9c0,0.2-0.1,0.3-0.2,0.4c-0.1,0.1-0.3,0.2-0.5,0.2h-2.4
			C486,67.9,485.8,67.9,485.7,67.7z M485.8,83.4c-0.1-0.1-0.2-0.3-0.2-0.4V70.8c0-0.2,0.1-0.3,0.2-0.5c0.1-0.1,0.3-0.2,0.4-0.2h2.2
			c0.2,0,0.3,0.1,0.4,0.2c0.1,0.1,0.2,0.3,0.2,0.4v12.3c0,0.2-0.1,0.3-0.2,0.4c-0.1,0.1-0.3,0.2-0.4,0.2h-2.2
			C486.1,83.7,485.9,83.6,485.8,83.4z"/>
		<path class="st1" d="M491.5,83.4c-0.1-0.1-0.2-0.2-0.2-0.4c0-0.2,0.1-0.3,0.2-0.4l4.4-5.9l-4.1-5.6c-0.1-0.1-0.2-0.3-0.2-0.4
			c0-0.2,0.1-0.3,0.2-0.4c0.1-0.1,0.2-0.2,0.4-0.2h2.3c0.2,0,0.3,0,0.4,0.1c0.1,0.1,0.2,0.2,0.3,0.3l2.9,3.9l2.9-3.9
			c0,0,0.1-0.1,0.2-0.2c0.1-0.1,0.3-0.2,0.5-0.2h2.2c0.2,0,0.3,0.1,0.4,0.2c0.1,0.1,0.2,0.2,0.2,0.4c0,0.2-0.1,0.3-0.2,0.5l-4.2,5.6
			l4.5,5.9c0.1,0.1,0.2,0.3,0.2,0.4c0,0.2-0.1,0.3-0.2,0.4s-0.2,0.2-0.4,0.2h-2.4c-0.3,0-0.5-0.1-0.7-0.4l-3.1-4.1l-3.1,4.1
			c-0.2,0.3-0.4,0.4-0.7,0.4h-2.3C491.8,83.7,491.7,83.6,491.5,83.4z"/>
		<path class="st1" d="M508,82.2c-1.1-1.1-1.7-2.7-1.8-4.7v-0.6c0-2.2,0.6-3.9,1.7-5.1c1.1-1.2,2.7-1.9,4.7-1.9
			c2.1,0,3.7,0.6,4.8,1.9c1.1,1.2,1.7,2.9,1.7,5v0.5c0,0.2-0.1,0.3-0.2,0.4c-0.1,0.1-0.3,0.2-0.5,0.2h-8.6v0.2c0,1,0.3,1.8,0.8,2.4
			c0.5,0.6,1.2,0.9,2,0.9c1,0,1.8-0.4,2.4-1.2c0.2-0.2,0.3-0.3,0.4-0.4c0.1,0,0.2-0.1,0.4-0.1h2.3c0.2,0,0.3,0,0.4,0.1
			c0.1,0.1,0.2,0.2,0.2,0.4c0,0.4-0.2,0.9-0.7,1.5c-0.5,0.6-1.2,1.1-2.1,1.5c-0.9,0.4-2,0.6-3.2,0.6C510.7,83.8,509.1,83.3,508,82.2
			z M515.4,75.7L515.4,75.7c0-1.1-0.3-1.9-0.8-2.5s-1.2-0.9-2.1-0.9s-1.6,0.3-2.1,0.9s-0.8,1.4-0.8,2.5v0.1L515.4,75.7L515.4,75.7z"
			/>
		<path class="st1" d="M522.8,82.2c-0.9-1.1-1.4-2.6-1.5-4.5v-0.9v-0.9c0.1-1.8,0.6-3.3,1.5-4.5c0.9-1.1,2.3-1.7,4-1.7s3,0.6,4,1.7
			v-5.8c0-0.2,0.1-0.3,0.2-0.5c0.1-0.1,0.3-0.2,0.4-0.2h2.3c0.2,0,0.3,0.1,0.5,0.2c0.1,0.1,0.2,0.3,0.2,0.5v17.4
			c0,0.2-0.1,0.3-0.2,0.4c-0.1,0.1-0.3,0.2-0.5,0.2h-2.1c-0.2,0-0.3-0.1-0.4-0.2c-0.1-0.1-0.2-0.3-0.2-0.4v-1
			c-1,1.2-2.3,1.8-4.1,1.8C525.1,83.8,523.7,83.3,522.8,82.2z M530,80.2c0.5-0.6,0.7-1.4,0.8-2.4c0-0.2,0-0.5,0-1s0-0.8,0-1
			c0-0.9-0.3-1.6-0.8-2.2c-0.5-0.6-1.2-0.9-2.2-0.9c-1.9,0-2.8,1.1-3,3.4v0.8v0.8c0.1,2.3,1.1,3.4,3,3.4
			C528.8,81.1,529.5,80.8,530,80.2z"/>
		<path class="st1" d="M545.7,82.8l-3.1-16.7v-0.2c0-0.2,0.1-0.3,0.2-0.4c0.1-0.1,0.2-0.2,0.4-0.2h2.3c0.2,0,0.4,0,0.5,0.1
			c0.1,0.1,0.2,0.2,0.2,0.4l2.2,11.7l2.3-7.5c0.2-0.4,0.5-0.6,0.9-0.6h1.4c0.2,0,0.4,0.1,0.5,0.2c0.1,0.1,0.2,0.3,0.3,0.5l2.3,7.5
			l2.1-11.7c0.1-0.3,0.3-0.5,0.7-0.5h2.3c0.1,0,0.3,0.1,0.4,0.2c0.1,0.1,0.2,0.2,0.2,0.4c0,0.1,0,0.2,0,0.2l-3.1,16.7
			c0,0.2-0.1,0.4-0.3,0.6c-0.2,0.1-0.4,0.2-0.6,0.2H556c-0.2,0-0.4-0.1-0.6-0.2c-0.2-0.1-0.3-0.3-0.3-0.5l-2.9-8.6l-2.9,8.6
			c-0.1,0.4-0.4,0.6-0.9,0.6h-1.8C546.2,83.7,545.9,83.3,545.7,82.8z"/>
		<path class="st1" d="M565.3,82.3c-1.1-1-1.7-2.5-1.8-4.3v-1.1v-1.1c0.1-1.8,0.7-3.3,1.8-4.3S568,70,570,70s3.6,0.5,4.7,1.6
			c1.1,1,1.7,2.5,1.8,4.3c0,0.2,0,0.6,0,1.1s0,0.9,0,1.1c-0.1,1.8-0.7,3.3-1.8,4.3s-2.7,1.6-4.7,1.6C568,83.8,566.4,83.3,565.3,82.3
			z M572.2,80.3c0.5-0.6,0.8-1.4,0.8-2.5c0-0.2,0-0.5,0-1s0-0.8,0-1c0-1.1-0.3-2-0.8-2.5c-0.5-0.6-1.2-0.9-2.1-0.9
			c-0.9,0-1.6,0.3-2.1,0.9c-0.5,0.6-0.8,1.4-0.8,2.5v1v1c0,1.1,0.3,2,0.8,2.5c0.5,0.6,1.2,0.9,2.1,0.9S571.7,80.9,572.2,80.3z"/>
		<path class="st1" d="M579.7,83.4c-0.1-0.1-0.2-0.3-0.2-0.4V70.9c0-0.2,0.1-0.3,0.2-0.5c0.1-0.1,0.3-0.2,0.4-0.2h2.1
			c0.2,0,0.3,0.1,0.5,0.2c0.1,0.1,0.2,0.3,0.2,0.5v1.1c0.9-1.1,2.1-1.7,3.7-1.7h1.1c0.2,0,0.3,0.1,0.5,0.2c0.1,0.1,0.2,0.3,0.2,0.5
			v1.9c0,0.2-0.1,0.3-0.2,0.4c-0.1,0.1-0.3,0.2-0.5,0.2h-2.1c-0.8,0-1.5,0.2-1.9,0.7c-0.5,0.5-0.7,1.1-0.7,1.9v7.1
			c0,0.2-0.1,0.3-0.2,0.4c-0.1,0.1-0.3,0.2-0.4,0.2h-2.3C579.9,83.7,579.8,83.6,579.7,83.4z"/>
		<path class="st1" d="M590.6,83.4c-0.1-0.1-0.2-0.3-0.2-0.4V65.9c0-0.2,0.1-0.3,0.2-0.5c0.1-0.1,0.3-0.2,0.4-0.2h2.2
			c0.2,0,0.3,0.1,0.4,0.2c0.1,0.1,0.2,0.3,0.2,0.4v8.9l4.3-4.1c0.1,0,0.1-0.1,0.2-0.2c0.1-0.1,0.2-0.2,0.3-0.2s0.2-0.1,0.4-0.1h2.5
			c0.2,0,0.3,0.1,0.4,0.2c0.1,0.1,0.2,0.2,0.2,0.4s-0.1,0.3-0.3,0.5l-5.3,5l6,6.4c0.2,0.2,0.2,0.3,0.2,0.4c0,0.2-0.1,0.3-0.2,0.4
			c-0.1,0.1-0.2,0.2-0.4,0.2h-2.5c-0.2,0-0.4,0-0.5-0.1c-0.1-0.1-0.3-0.2-0.4-0.4l-4.9-5.2v5c0,0.2-0.1,0.3-0.2,0.4
			c-0.1,0.1-0.3,0.2-0.4,0.2H591C590.9,83.7,590.7,83.6,590.6,83.4z"/>
		<path class="st1" d="M604.9,83.4c-0.1-0.1-0.2-0.3-0.2-0.4V65.9c0-0.2,0.1-0.3,0.2-0.5c0.1-0.1,0.3-0.2,0.4-0.2h2.2
			c0.2,0,0.3,0.1,0.5,0.2c0.1,0.1,0.2,0.3,0.2,0.5v17.1c0,0.2-0.1,0.3-0.2,0.4c-0.1,0.1-0.3,0.2-0.5,0.2h-2.2
			C605.2,83.7,605.1,83.6,604.9,83.4z"/>
		<path class="st1" d="M612.9,82.3c-1.1-1-1.7-2.5-1.8-4.3v-1.1v-1.1c0.1-1.8,0.7-3.3,1.8-4.3s2.7-1.6,4.7-1.6s3.6,0.5,4.7,1.6
			c1.1,1,1.7,2.5,1.8,4.3c0,0.2,0,0.6,0,1.1s0,0.9,0,1.1c-0.1,1.8-0.7,3.3-1.8,4.3s-2.7,1.6-4.7,1.6C615.6,83.8,614,83.3,612.9,82.3
			z M619.8,80.3c0.5-0.6,0.8-1.4,0.8-2.5c0-0.2,0-0.5,0-1s0-0.8,0-1c0-1.1-0.3-2-0.8-2.5c-0.5-0.6-1.2-0.9-2.1-0.9
			c-0.9,0-1.6,0.3-2.1,0.9c-0.5,0.6-0.8,1.4-0.8,2.5v1v1c0,1.1,0.3,2,0.8,2.5c0.5,0.6,1.2,0.9,2.1,0.9S619.3,80.9,619.8,80.3z"/>
		<path class="st1" d="M628.6,83.3c-0.7-0.4-1.3-0.8-1.7-1.4c-0.4-0.6-0.6-1.3-0.6-2c0-1.2,0.5-2.1,1.4-2.9s2.3-1.2,3.9-1.5l3.6-0.5
			v-0.5c0-0.7-0.2-1.3-0.6-1.7s-1-0.6-1.8-0.6c-0.6,0-1,0.1-1.4,0.3c-0.3,0.2-0.6,0.4-0.8,0.6s-0.4,0.4-0.4,0.4
			c-0.1,0.2-0.2,0.3-0.4,0.3h-2c-0.2,0-0.3-0.1-0.4-0.2c-0.1-0.1-0.2-0.2-0.2-0.4c0-0.4,0.2-0.9,0.6-1.5c0.4-0.5,1-1,1.9-1.4
			c0.8-0.4,1.9-0.6,3.1-0.6c2,0,3.5,0.5,4.5,1.4c0.9,0.9,1.4,2.1,1.4,3.6v8.2c0,0.2-0.1,0.3-0.2,0.4c-0.1,0.1-0.3,0.2-0.5,0.2h-2.2
			c-0.2,0-0.3-0.1-0.4-0.2c-0.1-0.1-0.2-0.3-0.2-0.4v-1c-0.4,0.6-0.9,1-1.6,1.4s-1.6,0.5-2.6,0.5C630.1,83.8,629.3,83.7,628.6,83.3z
			 M634.2,80.4c0.6-0.6,0.9-1.5,0.9-2.7v-0.5l-2.6,0.4c-2,0.3-3,1-3,2c0,0.6,0.2,1,0.7,1.3c0.5,0.3,1,0.5,1.7,0.5
			C632.8,81.3,633.6,81.1,634.2,80.4z"/>
		<path class="st1" d="M642.9,82.2c-0.9-1.1-1.4-2.6-1.5-4.5v-0.9v-0.9c0.1-1.8,0.6-3.3,1.5-4.5c0.9-1.1,2.3-1.7,4-1.7s3,0.6,4,1.7
			v-5.8c0-0.2,0.1-0.3,0.2-0.5c0.1-0.1,0.3-0.2,0.4-0.2h2.3c0.2,0,0.3,0.1,0.5,0.2c0.1,0.1,0.2,0.3,0.2,0.5v17.4
			c0,0.2-0.1,0.3-0.2,0.4c-0.1,0.1-0.3,0.2-0.5,0.2h-2.1c-0.2,0-0.3-0.1-0.4-0.2c-0.1-0.1-0.2-0.3-0.2-0.4v-1
			c-1,1.2-2.3,1.8-4.1,1.8C645.2,83.8,643.9,83.3,642.9,82.2z M650.1,80.2c0.5-0.6,0.7-1.4,0.8-2.4c0-0.2,0-0.5,0-1s0-0.8,0-1
			c0-0.9-0.3-1.6-0.8-2.2c-0.5-0.6-1.2-0.9-2.2-0.9c-1.9,0-2.8,1.1-3,3.4v0.8v0.8c0.1,2.3,1.1,3.4,3,3.4
			C648.9,81.1,649.7,80.8,650.1,80.2z"/>
	</g>
	<path class="st2" d="M107.5,471.2h644.8"/>
	<path class="st3" d="M69.7,509.1l37.8-36.9h644.8l-37.8,36.9H69.7z"/>
	<path class="st4" d="M107.5,378.9h644.8"/>
	<path class="st4" d="M107.5,286.5h644.8"/>
	<path class="st4" d="M107.5,194.1h644.8"/>
	<g>
		<g>
			<defs>
				<rect id="SVGID_1_" x="69.4" y="193.9" width="683.1" height="315.5"/>
			</defs>
			<clipPath id="SVGID_2_">
				<use xlink:href="#SVGID_1_"  style="overflow:visible;"/>
			</clipPath>
			<path class="st5" d="M290.9,223.6v248.1l-33.4,33.4V257.1L290.9,223.6z"/>
		</g>
	</g>
	<g>
		<g>
			<defs>
				<rect id="SVGID_3_" x="69.4" y="193.9" width="683.1" height="315.5"/>
			</defs>
			<clipPath id="SVGID_4_">
				<use xlink:href="#SVGID_3_"  style="overflow:visible;"/>
			</clipPath>
			<path class="st6" d="M257.5,257.1H124.7l33.4-33.4h132.8L257.5,257.1z"/>
		</g>
	</g>
	<g>
		<g>
			<defs>
				<rect id="SVGID_5_" x="69.4" y="193.9" width="683.1" height="315.5"/>
			</defs>
			<clipPath id="SVGID_6_">
				<use xlink:href="#SVGID_5_"  style="overflow:visible;"/>
			</clipPath>
			<path class="st7" d="M257.5,505.1H124.7v-248h132.8V505.1z"/>
		</g>
	</g>
	<g>
		<g>
			<defs>
				<rect id="SVGID_7_" x="69.4" y="193.9" width="683.1" height="315.5"/>
			</defs>
			<clipPath id="SVGID_8_">
				<use xlink:href="#SVGID_7_"  style="overflow:visible;"/>
			</clipPath>
			<path class="st8" d="M257.5,505.1H124.7v-248h132.8V505.1z"/>
		</g>
	</g>
	<g>
		<g>
			<defs>
				<rect id="SVGID_9_" x="69.4" y="193.9" width="683.1" height="315.5"/>
			</defs>
			<clipPath id="SVGID_10_">
				<use xlink:href="#SVGID_9_"  style="overflow:visible;"/>
			</clipPath>
			<path class="st9" d="M495,262.4v209.4l-33.4,33.4V295.8L495,262.4z"/>
		</g>
	</g>
	<g>
		<g>
			<defs>
				<rect id="SVGID_11_" x="69.4" y="193.9" width="683.1" height="315.5"/>
			</defs>
			<clipPath id="SVGID_12_">
				<use xlink:href="#SVGID_11_"  style="overflow:visible;"/>
			</clipPath>
			<path class="st10" d="M461.6,295.8H328.7l33.4-33.4H495L461.6,295.8z"/>
		</g>
	</g>
	<g>
		<g>
			<defs>
				<rect id="SVGID_13_" x="69.4" y="193.9" width="683.1" height="315.5"/>
			</defs>
			<clipPath id="SVGID_14_">
				<use xlink:href="#SVGID_13_"  style="overflow:visible;"/>
			</clipPath>
			<path class="st11" d="M461.6,505.1H328.7V295.8h132.8v209.3H461.6z"/>
		</g>
	</g>
	<g>
		<g>
			<defs>
				<rect id="SVGID_15_" x="69.4" y="193.9" width="683.1" height="315.5"/>
			</defs>
			<clipPath id="SVGID_16_">
				<use xlink:href="#SVGID_15_"  style="overflow:visible;"/>
			</clipPath>
			<path class="st12" d="M461.6,505.1H328.7V295.8h132.8v209.3H461.6z"/>
		</g>
	</g>
	<g>
		<g>
			<defs>
				<rect id="SVGID_17_" x="69.4" y="193.9" width="683.1" height="315.5"/>
			</defs>
			<clipPath id="SVGID_18_">
				<use xlink:href="#SVGID_17_"  style="overflow:visible;"/>
			</clipPath>
			<path class="st13" d="M698.2,425.1v46.6l-33.4,33.4v-46.6L698.2,425.1z"/>
		</g>
	</g>
	<g>
		<g>
			<defs>
				<rect id="SVGID_19_" x="69.4" y="193.9" width="683.1" height="315.5"/>
			</defs>
			<clipPath id="SVGID_20_">
				<use xlink:href="#SVGID_19_"  style="overflow:visible;"/>
			</clipPath>
			<path class="st14" d="M664.7,458.5H531.9l33.4-33.4h132.8L664.7,458.5z"/>
		</g>
	</g>
	<g>
		<g>
			<defs>
				<rect id="SVGID_21_" x="69.4" y="193.9" width="683.1" height="315.5"/>
			</defs>
			<clipPath id="SVGID_22_">
				<use xlink:href="#SVGID_21_"  style="overflow:visible;"/>
			</clipPath>
			<path class="st15" d="M664.7,505.1H531.9v-46.6h132.8V505.1z"/>
		</g>
	</g>
	<g>
		<g>
			<defs>
				<rect id="SVGID_23_" x="69.4" y="193.9" width="683.1" height="315.5"/>
			</defs>
			<clipPath id="SVGID_24_">
				<use xlink:href="#SVGID_23_"  style="overflow:visible;"/>
			</clipPath>
			<path class="st16" d="M664.7,505.1H531.9v-46.6h132.8V505.1z"/>
		</g>
	</g>
	<path class="st17" d="M178.1,271.6h-0.9v-6.3l-1.9,0.7v-0.9l2.7-1h0.1L178.1,271.6L178.1,271.6z M182.5,267.5h0.7
		c0.5,0,0.8-0.1,1.1-0.4c0.3-0.2,0.4-0.5,0.4-0.9c0-0.9-0.4-1.3-1.3-1.3c-0.4,0-0.7,0.1-1,0.4c-0.2,0.2-0.4,0.5-0.4,0.9h-1
		c0-0.6,0.2-1.1,0.6-1.5c0.4-0.4,1-0.6,1.7-0.6s1.3,0.2,1.7,0.6s0.6,0.9,0.6,1.6c0,0.3-0.1,0.6-0.3,0.9c-0.2,0.3-0.5,0.5-0.9,0.7
		c0.4,0.1,0.7,0.3,0.9,0.6c0.2,0.3,0.3,0.7,0.3,1.1c0,0.7-0.2,1.2-0.7,1.6c-0.4,0.4-1,0.6-1.7,0.6s-1.3-0.2-1.7-0.6
		s-0.7-0.9-0.7-1.5h1c0,0.4,0.1,0.7,0.4,0.9c0.3,0.2,0.6,0.4,1,0.4c0.5,0,0.8-0.1,1-0.4c0.2-0.2,0.4-0.6,0.4-1s-0.1-0.8-0.4-1
		c-0.3-0.2-0.7-0.4-1.2-0.4h-0.7v-0.7H182.5z M187.4,273.1l-0.5-0.4c0.3-0.4,0.5-0.9,0.5-1.4v-0.9h0.9v0.7c0,0.3-0.1,0.7-0.3,1
		C187.8,272.6,187.6,273,187.4,273.1z M193.1,269.1h1v0.8h-1v1.7h-0.9V270h-3.4v-0.6l3.4-5.2h1v5H193.1z M189.8,269.1h2.3v-3.7
		l-0.1,0.2L189.8,269.1z M199.9,268.5c0,1.1-0.2,2-0.6,2.5c-0.4,0.5-1,0.8-1.8,0.8s-1.4-0.3-1.8-0.8s-0.6-1.3-0.6-2.4v-1.3
		c0-1.1,0.2-1.9,0.6-2.5c0.4-0.5,1-0.8,1.8-0.8s1.4,0.3,1.8,0.8c0.4,0.5,0.6,1.3,0.6,2.4V268.5z M199,267.1c0-0.8-0.1-1.4-0.3-1.8
		s-0.6-0.6-1.1-0.6s-0.8,0.2-1.1,0.6c-0.2,0.4-0.3,0.9-0.3,1.7v1.5c0,0.8,0.1,1.4,0.3,1.8c0.2,0.4,0.6,0.6,1.1,0.6s0.8-0.2,1-0.5
		c0.2-0.3,0.3-0.9,0.4-1.7L199,267.1L199,267.1z M206.1,268.5c0,1.1-0.2,2-0.6,2.5c-0.4,0.5-1,0.8-1.8,0.8s-1.4-0.3-1.8-0.8
		s-0.6-1.3-0.6-2.4v-1.3c0-1.1,0.2-1.9,0.6-2.5c0.4-0.5,1-0.8,1.8-0.8s1.4,0.3,1.8,0.8c0.4,0.5,0.6,1.3,0.6,2.4V268.5z M205.1,267.1
		c0-0.8-0.1-1.4-0.3-1.8s-0.6-0.6-1.1-0.6s-0.8,0.2-1.1,0.6c-0.2,0.4-0.3,0.9-0.3,1.7v1.5c0,0.8,0.1,1.4,0.3,1.8
		c0.2,0.4,0.6,0.6,1.1,0.6s0.8-0.2,1-0.5c0.2-0.4,0.3-0.9,0.4-1.7L205.1,267.1L205.1,267.1z"/>
	<path class="st18" d="M178.1,271.6h-0.9v-6.3l-1.9,0.7v-0.9l2.7-1h0.1L178.1,271.6L178.1,271.6z M182.5,267.5h0.7
		c0.5,0,0.8-0.1,1.1-0.4c0.3-0.2,0.4-0.5,0.4-0.9c0-0.9-0.4-1.3-1.3-1.3c-0.4,0-0.7,0.1-1,0.4c-0.2,0.2-0.4,0.5-0.4,0.9h-1
		c0-0.6,0.2-1.1,0.6-1.5c0.4-0.4,1-0.6,1.7-0.6s1.3,0.2,1.7,0.6s0.6,0.9,0.6,1.6c0,0.3-0.1,0.6-0.3,0.9c-0.2,0.3-0.5,0.5-0.9,0.7
		c0.4,0.1,0.7,0.3,0.9,0.6c0.2,0.3,0.3,0.7,0.3,1.1c0,0.7-0.2,1.2-0.7,1.6c-0.4,0.4-1,0.6-1.7,0.6s-1.3-0.2-1.7-0.6
		s-0.7-0.9-0.7-1.5h1c0,0.4,0.1,0.7,0.4,0.9c0.3,0.2,0.6,0.4,1,0.4c0.5,0,0.8-0.1,1-0.4c0.2-0.2,0.4-0.6,0.4-1s-0.1-0.8-0.4-1
		c-0.3-0.2-0.7-0.4-1.2-0.4h-0.7v-0.7H182.5z M187.4,273.1l-0.5-0.4c0.3-0.4,0.5-0.9,0.5-1.4v-0.9h0.9v0.7c0,0.3-0.1,0.7-0.3,1
		C187.8,272.6,187.6,273,187.4,273.1z M193.1,269.1h1v0.8h-1v1.7h-0.9V270h-3.4v-0.6l3.4-5.2h1v5H193.1z M189.8,269.1h2.3v-3.7
		l-0.1,0.2L189.8,269.1z M199.9,268.5c0,1.1-0.2,2-0.6,2.5c-0.4,0.5-1,0.8-1.8,0.8s-1.4-0.3-1.8-0.8s-0.6-1.3-0.6-2.4v-1.3
		c0-1.1,0.2-1.9,0.6-2.5c0.4-0.5,1-0.8,1.8-0.8s1.4,0.3,1.8,0.8c0.4,0.5,0.6,1.3,0.6,2.4V268.5z M199,267.1c0-0.8-0.1-1.4-0.3-1.8
		s-0.6-0.6-1.1-0.6s-0.8,0.2-1.1,0.6c-0.2,0.4-0.3,0.9-0.3,1.7v1.5c0,0.8,0.1,1.4,0.3,1.8c0.2,0.4,0.6,0.6,1.1,0.6s0.8-0.2,1-0.5
		c0.2-0.3,0.3-0.9,0.4-1.7L199,267.1L199,267.1z M206.1,268.5c0,1.1-0.2,2-0.6,2.5c-0.4,0.5-1,0.8-1.8,0.8s-1.4-0.3-1.8-0.8
		s-0.6-1.3-0.6-2.4v-1.3c0-1.1,0.2-1.9,0.6-2.5c0.4-0.5,1-0.8,1.8-0.8s1.4,0.3,1.8,0.8c0.4,0.5,0.6,1.3,0.6,2.4V268.5z M205.1,267.1
		c0-0.8-0.1-1.4-0.3-1.8s-0.6-0.6-1.1-0.6s-0.8,0.2-1.1,0.6c-0.2,0.4-0.3,0.9-0.3,1.7v1.5c0,0.8,0.1,1.4,0.3,1.8
		c0.2,0.4,0.6,0.6,1.1,0.6s0.8-0.2,1-0.5c0.2-0.4,0.3-0.9,0.4-1.7L205.1,267.1L205.1,267.1z"/>
	<path class="st17" d="M382.2,310.6h-0.9v-6.3l-1.9,0.7v-0.9l2.7-1h0.1L382.2,310.6L382.2,310.6z M388.3,310.6h-0.9v-6.3l-1.9,0.7
		v-0.9l2.7-1h0.1L388.3,310.6L388.3,310.6z M391.4,312.1l-0.5-0.4c0.3-0.4,0.5-0.9,0.5-1.4v-0.9h0.9v0.7c0,0.3-0.1,0.7-0.3,1
		C391.9,311.6,391.7,311.9,391.4,312.1z M394.5,306.4h0.7c0.5,0,0.8-0.1,1.1-0.4c0.3-0.2,0.4-0.5,0.4-0.9c0-0.9-0.4-1.3-1.3-1.3
		c-0.4,0-0.7,0.1-1,0.4c-0.2,0.2-0.4,0.5-0.4,0.9h-1c0-0.6,0.2-1.1,0.6-1.5s1-0.6,1.7-0.6s1.3,0.2,1.7,0.6c0.4,0.4,0.6,0.9,0.6,1.6
		c0,0.3-0.1,0.6-0.3,0.9c-0.2,0.3-0.5,0.5-0.9,0.7c0.4,0.1,0.7,0.3,0.9,0.6c0.2,0.3,0.3,0.7,0.3,1.1c0,0.7-0.2,1.2-0.7,1.6
		c-0.4,0.4-1,0.6-1.7,0.6s-1.3-0.2-1.7-0.6c-0.4-0.4-0.7-0.9-0.7-1.5h1c0,0.4,0.1,0.7,0.4,0.9c0.3,0.2,0.6,0.4,1,0.4
		c0.5,0,0.8-0.1,1-0.4c0.2-0.2,0.4-0.6,0.4-1s-0.1-0.8-0.4-1c-0.3-0.2-0.7-0.4-1.2-0.4h-0.7v-0.7H394.5z M404,307.4
		c0,1.1-0.2,2-0.6,2.5s-1,0.8-1.8,0.8s-1.4-0.3-1.8-0.8s-0.6-1.3-0.6-2.4v-1.3c0-1.1,0.2-1.9,0.6-2.5c0.4-0.5,1-0.8,1.8-0.8
		s1.4,0.3,1.8,0.8s0.6,1.3,0.6,2.4V307.4z M403,306.1c0-0.8-0.1-1.4-0.3-1.8c-0.2-0.4-0.6-0.6-1.1-0.6s-0.8,0.2-1.1,0.6
		c-0.2,0.4-0.3,0.9-0.3,1.7v1.5c0,0.8,0.1,1.4,0.3,1.8c0.2,0.4,0.6,0.6,1.1,0.6s0.8-0.2,1-0.5c0.2-0.3,0.3-0.9,0.4-1.7V306.1z
		 M410.1,307.4c0,1.1-0.2,2-0.6,2.5s-1,0.8-1.8,0.8s-1.4-0.3-1.8-0.8s-0.6-1.3-0.6-2.4v-1.3c0-1.1,0.2-1.9,0.6-2.5
		c0.4-0.5,1-0.8,1.8-0.8s1.4,0.3,1.8,0.8s0.6,1.3,0.6,2.4V307.4z M409.2,306.1c0-0.8-0.1-1.4-0.3-1.8c-0.2-0.4-0.6-0.6-1.1-0.6
		s-0.8,0.2-1.1,0.6c-0.2,0.4-0.3,0.9-0.3,1.7v1.5c0,0.8,0.1,1.4,0.3,1.8c0.2,0.4,0.6,0.6,1.1,0.6s0.8-0.2,1-0.5
		c0.2-0.3,0.3-0.9,0.4-1.7V306.1z"/>
	<path class="st18" d="M382.2,310.6h-0.9v-6.3l-1.9,0.7v-0.9l2.7-1h0.1L382.2,310.6L382.2,310.6z M388.3,310.6h-0.9v-6.3l-1.9,0.7
		v-0.9l2.7-1h0.1L388.3,310.6L388.3,310.6z M391.4,312.1l-0.5-0.4c0.3-0.4,0.5-0.9,0.5-1.4v-0.9h0.9v0.7c0,0.3-0.1,0.7-0.3,1
		C391.9,311.6,391.7,311.9,391.4,312.1z M394.5,306.4h0.7c0.5,0,0.8-0.1,1.1-0.4c0.3-0.2,0.4-0.5,0.4-0.9c0-0.9-0.4-1.3-1.3-1.3
		c-0.4,0-0.7,0.1-1,0.4c-0.2,0.2-0.4,0.5-0.4,0.9h-1c0-0.6,0.2-1.1,0.6-1.5s1-0.6,1.7-0.6s1.3,0.2,1.7,0.6c0.4,0.4,0.6,0.9,0.6,1.6
		c0,0.3-0.1,0.6-0.3,0.9c-0.2,0.3-0.5,0.5-0.9,0.7c0.4,0.1,0.7,0.3,0.9,0.6c0.2,0.3,0.3,0.7,0.3,1.1c0,0.7-0.2,1.2-0.7,1.6
		c-0.4,0.4-1,0.6-1.7,0.6s-1.3-0.2-1.7-0.6c-0.4-0.4-0.7-0.9-0.7-1.5h1c0,0.4,0.1,0.7,0.4,0.9c0.3,0.2,0.6,0.4,1,0.4
		c0.5,0,0.8-0.1,1-0.4c0.2-0.2,0.4-0.6,0.4-1s-0.1-0.8-0.4-1c-0.3-0.2-0.7-0.4-1.2-0.4h-0.7v-0.7H394.5z M404,307.4
		c0,1.1-0.2,2-0.6,2.5s-1,0.8-1.8,0.8s-1.4-0.3-1.8-0.8s-0.6-1.3-0.6-2.4v-1.3c0-1.1,0.2-1.9,0.6-2.5c0.4-0.5,1-0.8,1.8-0.8
		s1.4,0.3,1.8,0.8s0.6,1.3,0.6,2.4V307.4z M403,306.1c0-0.8-0.1-1.4-0.3-1.8c-0.2-0.4-0.6-0.6-1.1-0.6s-0.8,0.2-1.1,0.6
		c-0.2,0.4-0.3,0.9-0.3,1.7v1.5c0,0.8,0.1,1.4,0.3,1.8c0.2,0.4,0.6,0.6,1.1,0.6s0.8-0.2,1-0.5c0.2-0.3,0.3-0.9,0.4-1.7V306.1z
		 M410.1,307.4c0,1.1-0.2,2-0.6,2.5s-1,0.8-1.8,0.8s-1.4-0.3-1.8-0.8s-0.6-1.3-0.6-2.4v-1.3c0-1.1,0.2-1.9,0.6-2.5
		c0.4-0.5,1-0.8,1.8-0.8s1.4,0.3,1.8,0.8s0.6,1.3,0.6,2.4V307.4z M409.2,306.1c0-0.8-0.1-1.4-0.3-1.8c-0.2-0.4-0.6-0.6-1.1-0.6
		s-0.8,0.2-1.1,0.6c-0.2,0.4-0.3,0.9-0.3,1.7v1.5c0,0.8,0.1,1.4,0.3,1.8c0.2,0.4,0.6,0.6,1.1,0.6s0.8-0.2,1-0.5
		c0.2-0.3,0.3-0.9,0.4-1.7V306.1z"/>
	<path class="st19" d="M590.2,473.5h-4.9v-0.7l2.6-2.9c0.4-0.4,0.7-0.8,0.8-1.1c0.1-0.3,0.2-0.6,0.2-0.9c0-0.4-0.1-0.7-0.4-1
		c-0.2-0.3-0.5-0.4-0.9-0.4c-0.5,0-0.8,0.1-1.1,0.4s-0.4,0.6-0.4,1.1h-0.9c0-0.7,0.2-1.3,0.7-1.7c0.4-0.4,1-0.6,1.8-0.6
		c0.7,0,1.3,0.2,1.7,0.5s0.6,0.9,0.6,1.5c0,0.7-0.5,1.6-1.4,2.6l-2,2.2h3.8v1H590.2z M591.5,475l-0.5-0.4c0.3-0.4,0.5-0.9,0.5-1.4
		v-0.9h0.9v0.7c0,0.3-0.1,0.7-0.3,1C592,474.5,591.8,474.8,591.5,475z M593.7,469.7l0.4-3.7h3.8v0.9h-3l-0.2,2
		c0.4-0.2,0.8-0.3,1.3-0.3c0.7,0,1.2,0.2,1.6,0.7c0.4,0.4,0.6,1.1,0.6,1.8c0,0.8-0.2,1.4-0.6,1.8c-0.4,0.4-1,0.7-1.7,0.7
		s-1.2-0.2-1.6-0.5c-0.4-0.4-0.7-0.9-0.7-1.5h0.9c0.1,0.4,0.2,0.8,0.5,1c0.2,0.2,0.6,0.3,1,0.3s0.8-0.2,1-0.5
		c0.3-0.3,0.4-0.7,0.4-1.3c0-0.5-0.1-0.9-0.4-1.2c-0.3-0.3-0.6-0.5-1.1-0.5c-0.4,0-0.7,0.1-1,0.3l-0.2,0.2L593.7,469.7z
		 M604.1,470.2c0,1.1-0.2,2-0.6,2.5c-0.4,0.5-1,0.8-1.8,0.8s-1.4-0.3-1.8-0.8c-0.4-0.5-0.6-1.3-0.6-2.4v-1.3c0-1.1,0.2-1.9,0.6-2.5
		c0.4-0.5,1-0.8,1.8-0.8s1.4,0.3,1.8,0.8c0.4,0.5,0.6,1.3,0.6,2.4V470.2z M603.1,469c0-0.8-0.1-1.4-0.3-1.8s-0.6-0.6-1.1-0.6
		s-0.8,0.2-1.1,0.6c-0.2,0.4-0.3,0.9-0.3,1.7v1.5c0,0.8,0.1,1.4,0.3,1.8s0.6,0.6,1.1,0.6s0.8-0.2,1-0.5c0.2-0.4,0.3-0.9,0.4-1.7
		L603.1,469L603.1,469z M610.3,470.2c0,1.1-0.2,2-0.6,2.5c-0.4,0.5-1,0.8-1.8,0.8s-1.4-0.3-1.8-0.8c-0.4-0.5-0.6-1.3-0.6-2.4v-1.3
		c0-1.1,0.2-1.9,0.6-2.5c0.4-0.5,1-0.8,1.8-0.8s1.4,0.3,1.8,0.8c0.4,0.5,0.6,1.3,0.6,2.4V470.2z M609.3,469c0-0.8-0.1-1.4-0.3-1.8
		s-0.6-0.6-1.1-0.6s-0.8,0.2-1.1,0.6c-0.2,0.4-0.3,0.9-0.3,1.7v1.5c0,0.8,0.1,1.4,0.3,1.8s0.6,0.6,1.1,0.6s0.8-0.2,1-0.5
		c0.2-0.4,0.3-0.9,0.4-1.7L609.3,469L609.3,469z"/>
	<path class="st18" d="M590.2,473.5h-4.9v-0.7l2.6-2.9c0.4-0.4,0.7-0.8,0.8-1.1c0.1-0.3,0.2-0.6,0.2-0.9c0-0.4-0.1-0.7-0.4-1
		c-0.2-0.3-0.5-0.4-0.9-0.4c-0.5,0-0.8,0.1-1.1,0.4s-0.4,0.6-0.4,1.1h-0.9c0-0.7,0.2-1.3,0.7-1.7c0.4-0.4,1-0.6,1.8-0.6
		c0.7,0,1.3,0.2,1.7,0.5s0.6,0.9,0.6,1.5c0,0.7-0.5,1.6-1.4,2.6l-2,2.2h3.8v1H590.2z M591.5,475l-0.5-0.4c0.3-0.4,0.5-0.9,0.5-1.4
		v-0.9h0.9v0.7c0,0.3-0.1,0.7-0.3,1C592,474.5,591.8,474.8,591.5,475z M593.7,469.7l0.4-3.7h3.8v0.9h-3l-0.2,2
		c0.4-0.2,0.8-0.3,1.3-0.3c0.7,0,1.2,0.2,1.6,0.7c0.4,0.4,0.6,1.1,0.6,1.8c0,0.8-0.2,1.4-0.6,1.8c-0.4,0.4-1,0.7-1.7,0.7
		s-1.2-0.2-1.6-0.5c-0.4-0.4-0.7-0.9-0.7-1.5h0.9c0.1,0.4,0.2,0.8,0.5,1c0.2,0.2,0.6,0.3,1,0.3s0.8-0.2,1-0.5
		c0.3-0.3,0.4-0.7,0.4-1.3c0-0.5-0.1-0.9-0.4-1.2c-0.3-0.3-0.6-0.5-1.1-0.5c-0.4,0-0.7,0.1-1,0.3l-0.2,0.2L593.7,469.7z
		 M604.1,470.2c0,1.1-0.2,2-0.6,2.5c-0.4,0.5-1,0.8-1.8,0.8s-1.4-0.3-1.8-0.8c-0.4-0.5-0.6-1.3-0.6-2.4v-1.3c0-1.1,0.2-1.9,0.6-2.5
		c0.4-0.5,1-0.8,1.8-0.8s1.4,0.3,1.8,0.8c0.4,0.5,0.6,1.3,0.6,2.4V470.2z M603.1,469c0-0.8-0.1-1.4-0.3-1.8s-0.6-0.6-1.1-0.6
		s-0.8,0.2-1.1,0.6c-0.2,0.4-0.3,0.9-0.3,1.7v1.5c0,0.8,0.1,1.4,0.3,1.8s0.6,0.6,1.1,0.6s0.8-0.2,1-0.5c0.2-0.4,0.3-0.9,0.4-1.7
		L603.1,469L603.1,469z M610.3,470.2c0,1.1-0.2,2-0.6,2.5c-0.4,0.5-1,0.8-1.8,0.8s-1.4-0.3-1.8-0.8c-0.4-0.5-0.6-1.3-0.6-2.4v-1.3
		c0-1.1,0.2-1.9,0.6-2.5c0.4-0.5,1-0.8,1.8-0.8s1.4,0.3,1.8,0.8c0.4,0.5,0.6,1.3,0.6,2.4V470.2z M609.3,469c0-0.8-0.1-1.4-0.3-1.8
		s-0.6-0.6-1.1-0.6s-0.8,0.2-1.1,0.6c-0.2,0.4-0.3,0.9-0.3,1.7v1.5c0,0.8,0.1,1.4,0.3,1.8s0.6,0.6,1.1,0.6s0.8-0.2,1-0.5
		c0.2-0.4,0.3-0.9,0.4-1.7L609.3,469L609.3,469z"/>
	<path class="st20" d="M63.3,472.2c0,1.1-0.2,2-0.6,2.5s-1,0.8-1.8,0.8s-1.4-0.3-1.8-0.8s-0.6-1.3-0.6-2.4v-1.3
		c0-1.1,0.2-1.9,0.6-2.5c0.4-0.5,1-0.8,1.8-0.8s1.4,0.3,1.8,0.8s0.6,1.3,0.6,2.4V472.2z M62.3,471c0-0.8-0.1-1.4-0.3-1.8
		c-0.2-0.4-0.6-0.6-1.1-0.6s-0.8,0.2-1.1,0.6c-0.2,0.4-0.3,0.9-0.3,1.7v1.5c0,0.8,0.1,1.4,0.3,1.8c0.2,0.4,0.6,0.6,1.1,0.6
		s0.8-0.2,1-0.5c0.2-0.4,0.3-0.9,0.4-1.7V471z"/>
	<path class="st20" d="M38.8,379.2l0.4-3.7H43v0.9h-3l-0.2,2c0.4-0.2,0.8-0.3,1.3-0.3c0.7,0,1.2,0.2,1.6,0.7
		c0.4,0.4,0.6,1.1,0.6,1.8c0,0.8-0.2,1.4-0.6,1.8s-1,0.7-1.7,0.7s-1.2-0.2-1.6-0.5c-0.4-0.4-0.7-0.9-0.7-1.5h0.9
		c0.1,0.4,0.2,0.8,0.5,1c0.2,0.2,0.6,0.3,1,0.3s0.8-0.2,1-0.5s0.4-0.7,0.4-1.3c0-0.5-0.1-0.9-0.4-1.2s-0.6-0.5-1.1-0.5
		c-0.4,0-0.7,0.1-1,0.3l-0.2,0.2L38.8,379.2z M44.6,384.4l-0.5-0.4c0.3-0.4,0.5-0.9,0.5-1.4v-0.9h0.9v0.7c0,0.3-0.1,0.7-0.3,1
		C45.1,384,44.8,384.2,44.6,384.4z M51,379.7c0,1.1-0.2,2-0.6,2.5s-1,0.8-1.8,0.8s-1.4-0.3-1.8-0.8s-0.6-1.3-0.6-2.4v-1.3
		c0-1.1,0.2-1.9,0.6-2.5c0.4-0.5,1-0.8,1.8-0.8s1.4,0.3,1.8,0.8s0.6,1.3,0.6,2.4V379.7z M50,378.4c0-0.8-0.1-1.4-0.3-1.8
		c-0.2-0.4-0.6-0.6-1.1-0.6s-0.8,0.2-1.1,0.6c-0.2,0.4-0.3,0.9-0.3,1.7v1.5c0,0.8,0.1,1.4,0.3,1.8c0.2,0.4,0.6,0.6,1.1,0.6
		s0.8-0.2,1-0.5c0.2-0.4,0.3-0.9,0.4-1.7V378.4z M57.2,379.7c0,1.1-0.2,2-0.6,2.5s-1,0.8-1.8,0.8s-1.4-0.3-1.8-0.8s-0.6-1.3-0.6-2.4
		v-1.3c0-1.1,0.2-1.9,0.6-2.5c0.4-0.5,1-0.8,1.8-0.8s1.4,0.3,1.8,0.8s0.6,1.3,0.6,2.4V379.7z M56.2,378.4c0-0.8-0.1-1.4-0.3-1.8
		c-0.2-0.4-0.6-0.6-1.1-0.6s-0.8,0.2-1.1,0.6c-0.2,0.4-0.3,0.9-0.3,1.7v1.5c0,0.8,0.1,1.4,0.3,1.8c0.2,0.4,0.6,0.6,1.1,0.6
		s0.8-0.2,1-0.5c0.2-0.4,0.3-0.9,0.4-1.7V378.4z M63.3,379.7c0,1.1-0.2,2-0.6,2.5s-1,0.8-1.8,0.8s-1.4-0.3-1.8-0.8s-0.6-1.3-0.6-2.4
		v-1.3c0-1.1,0.2-1.9,0.6-2.5c0.4-0.5,1-0.8,1.8-0.8s1.4,0.3,1.8,0.8s0.6,1.3,0.6,2.4V379.7z M62.3,378.4c0-0.8-0.1-1.4-0.3-1.8
		c-0.2-0.4-0.6-0.6-1.1-0.6s-0.8,0.2-1.1,0.6c-0.2,0.4-0.3,0.9-0.3,1.7v1.5c0,0.8,0.1,1.4,0.3,1.8c0.2,0.4,0.6,0.6,1.1,0.6
		s0.8-0.2,1-0.5c0.2-0.4,0.3-0.9,0.4-1.7V378.4z"/>
	<path class="st20" d="M35.3,290.4h-0.9V284l-1.9,0.7v-0.9l2.7-1h0.1C35.3,282.9,35.3,290.4,35.3,290.4z M43.1,287.1
		c0,1.1-0.2,2-0.6,2.5s-1,0.8-1.8,0.8s-1.4-0.3-1.8-0.8s-0.6-1.3-0.6-2.4V286c0-1.1,0.2-1.9,0.6-2.5c0.4-0.5,1-0.8,1.8-0.8
		s1.4,0.3,1.8,0.8s0.6,1.3,0.6,2.4V287.1z M42.1,285.9c0-0.8-0.1-1.4-0.3-1.8c-0.2-0.4-0.6-0.6-1.1-0.6s-0.8,0.2-1.1,0.6
		c-0.2,0.4-0.3,0.9-0.3,1.7v1.5c0,0.8,0.1,1.4,0.3,1.8c0.2,0.4,0.6,0.6,1.1,0.6s0.8-0.2,1-0.5c0.2-0.3,0.3-0.9,0.4-1.7V285.9z
		 M44.6,291.9l-0.5-0.4c0.3-0.4,0.5-0.9,0.5-1.4v-0.9h0.9v0.7c0,0.3-0.1,0.7-0.3,1C45,291.2,44.8,291.6,44.6,291.9z M51,287.1
		c0,1.1-0.2,2-0.6,2.5s-1,0.8-1.8,0.8s-1.4-0.3-1.8-0.8s-0.6-1.3-0.6-2.4V286c0-1.1,0.2-1.9,0.6-2.5c0.4-0.5,1-0.8,1.8-0.8
		s1.4,0.3,1.8,0.8s0.6,1.3,0.6,2.4V287.1z M50,285.9c0-0.8-0.1-1.4-0.3-1.8c-0.2-0.4-0.6-0.6-1.1-0.6s-0.8,0.2-1.1,0.6
		c-0.2,0.4-0.3,0.9-0.3,1.7v1.5c0,0.8,0.1,1.4,0.3,1.8c0.2,0.4,0.6,0.6,1.1,0.6s0.8-0.2,1-0.5c0.2-0.3,0.3-0.9,0.4-1.7V285.9z
		 M57.2,287.1c0,1.1-0.2,2-0.6,2.5s-1,0.8-1.8,0.8s-1.4-0.3-1.8-0.8s-0.6-1.3-0.6-2.4V286c0-1.1,0.2-1.9,0.6-2.5
		c0.4-0.5,1-0.8,1.8-0.8s1.4,0.3,1.8,0.8s0.6,1.3,0.6,2.4V287.1z M56.2,285.9c0-0.8-0.1-1.4-0.3-1.8c-0.2-0.4-0.6-0.6-1.1-0.6
		s-0.8,0.2-1.1,0.6c-0.2,0.4-0.3,0.9-0.3,1.7v1.5c0,0.8,0.1,1.4,0.3,1.8c0.2,0.4,0.6,0.6,1.1,0.6s0.8-0.2,1-0.5
		c0.2-0.3,0.3-0.9,0.4-1.7V285.9z M63.3,287.1c0,1.1-0.2,2-0.6,2.5s-1,0.8-1.8,0.8s-1.4-0.3-1.8-0.8s-0.6-1.3-0.6-2.4V286
		c0-1.1,0.2-1.9,0.6-2.5c0.4-0.5,1-0.8,1.8-0.8s1.4,0.3,1.8,0.8s0.6,1.3,0.6,2.4V287.1z M62.3,285.9c0-0.8-0.1-1.4-0.3-1.8
		c-0.2-0.4-0.6-0.6-1.1-0.6s-0.8,0.2-1.1,0.6c-0.2,0.4-0.3,0.9-0.3,1.7v1.5c0,0.8,0.1,1.4,0.3,1.8c0.2,0.4,0.6,0.6,1.1,0.6
		s0.8-0.2,1-0.5c0.2-0.3,0.3-0.9,0.4-1.7V285.9z"/>
	<path class="st20" d="M35.3,197.9h-0.9v-6.3l-1.9,0.7v-0.9l2.7-1h0.1C35.3,190.3,35.3,197.9,35.3,197.9z M38.8,194.1l0.4-3.7H43
		v0.9h-3l-0.2,2c0.4-0.2,0.8-0.3,1.3-0.3c0.7,0,1.2,0.2,1.6,0.7c0.4,0.4,0.6,1.1,0.6,1.8c0,0.8-0.2,1.4-0.6,1.8
		c-0.4,0.4-1,0.7-1.7,0.7s-1.2-0.2-1.6-0.5c-0.4-0.4-0.7-0.9-0.7-1.5h0.9c0.1,0.4,0.2,0.8,0.5,1c0.2,0.2,0.6,0.3,1,0.3
		s0.8-0.2,1-0.5s0.4-0.7,0.4-1.3c0-0.5-0.1-0.9-0.4-1.2s-0.6-0.5-1.1-0.5c-0.4,0-0.7,0.1-1,0.3l-0.2,0.2L38.8,194.1z M44.6,199.4
		l-0.5-0.4c0.3-0.4,0.5-0.9,0.5-1.4v-0.9h0.9v0.7c0,0.3-0.1,0.7-0.3,1C45.1,198.9,44.8,199.1,44.6,199.4z M51,194.6
		c0,1.1-0.2,2-0.6,2.5s-1,0.8-1.8,0.8s-1.4-0.3-1.8-0.8s-0.6-1.3-0.6-2.4v-1.3c0-1.1,0.2-1.9,0.6-2.5c0.4-0.5,1-0.8,1.8-0.8
		s1.4,0.3,1.8,0.8s0.6,1.3,0.6,2.4V194.6z M50,193.2c0-0.8-0.1-1.4-0.3-1.8c-0.2-0.4-0.6-0.6-1.1-0.6s-0.8,0.2-1.1,0.6
		c-0.2,0.4-0.3,0.9-0.3,1.7v1.5c0,0.8,0.1,1.4,0.3,1.8c0.2,0.4,0.6,0.6,1.1,0.6s0.8-0.2,1-0.5s0.3-0.9,0.4-1.7V193.2z M57.2,194.6
		c0,1.1-0.2,2-0.6,2.5s-1,0.8-1.8,0.8s-1.4-0.3-1.8-0.8s-0.6-1.3-0.6-2.4v-1.3c0-1.1,0.2-1.9,0.6-2.5c0.4-0.5,1-0.8,1.8-0.8
		s1.4,0.3,1.8,0.8s0.6,1.3,0.6,2.4V194.6z M56.2,193.2c0-0.8-0.1-1.4-0.3-1.8c-0.2-0.4-0.6-0.6-1.1-0.6s-0.8,0.2-1.1,0.6
		c-0.2,0.4-0.3,0.9-0.3,1.7v1.5c0,0.8,0.1,1.4,0.3,1.8c0.2,0.4,0.6,0.6,1.1,0.6s0.8-0.2,1-0.5s0.3-0.9,0.4-1.7V193.2z M63.3,194.6
		c0,1.1-0.2,2-0.6,2.5s-1,0.8-1.8,0.8s-1.4-0.3-1.8-0.8s-0.6-1.3-0.6-2.4v-1.3c0-1.1,0.2-1.9,0.6-2.5c0.4-0.5,1-0.8,1.8-0.8
		s1.4,0.3,1.8,0.8s0.6,1.3,0.6,2.4V194.6z M62.3,193.2c0-0.8-0.1-1.4-0.3-1.8c-0.2-0.4-0.6-0.6-1.1-0.6s-0.8,0.2-1.1,0.6
		c-0.2,0.4-0.3,0.9-0.3,1.7v1.5c0,0.8,0.1,1.4,0.3,1.8c0.2,0.4,0.6,0.6,1.1,0.6s0.8-0.2,1-0.5s0.3-0.9,0.4-1.7V193.2z"/>
	<path class="st20" d="M98.9,521.5l2-3.8h1.1l-2.6,4.7v2.8h-1v-2.8l-2.6-4.7h1.1L98.9,521.5z M106.1,524.5c-0.4,0.4-0.9,0.7-1.6,0.7
		c-0.6,0-1-0.2-1.4-0.5c-0.3-0.3-0.5-0.9-0.5-1.5v-3.6h0.9v3.6c0,0.9,0.3,1.3,1,1.3s1.2-0.3,1.5-0.8v-4.1h1v5.6h-0.9V524.5z
		 M108.6,522.3c0-0.9,0.2-1.6,0.6-2.1s0.9-0.8,1.6-0.8c0.7,0,1.2,0.2,1.6,0.7v-0.6h0.9v5.4c0,0.7-0.2,1.3-0.6,1.7
		c-0.4,0.4-1,0.6-1.7,0.6c-0.4,0-0.8-0.1-1.2-0.3c-0.4-0.2-0.7-0.4-0.9-0.7l0.5-0.6c0.4,0.5,0.9,0.8,1.5,0.8c0.5,0,0.8-0.1,1.1-0.4
		s0.4-0.6,0.4-1.1v-0.5c-0.4,0.4-0.9,0.7-1.6,0.7c-0.7,0-1.2-0.3-1.6-0.8C108.8,524,108.6,523.2,108.6,522.3z M109.6,522.5
		c0,0.6,0.1,1.1,0.4,1.5c0.3,0.4,0.6,0.5,1.1,0.5c0.6,0,1-0.3,1.3-0.8v-2.5c-0.3-0.5-0.7-0.8-1.3-0.8c-0.5,0-0.8,0.2-1.1,0.5
		S109.6,521.8,109.6,522.5z M118.4,525.2c-0.1-0.1-0.1-0.3-0.1-0.6c-0.4,0.5-1,0.7-1.6,0.7c-0.5,0-1-0.2-1.4-0.5
		c-0.3-0.3-0.5-0.7-0.5-1.2c0-0.6,0.2-1,0.7-1.3c0.4-0.3,1.1-0.5,1.9-0.5h0.9v-0.4c0-0.3-0.1-0.6-0.3-0.8c-0.2-0.2-0.5-0.3-0.9-0.3
		c-0.3,0-0.6,0.1-0.9,0.3c-0.2,0.2-0.3,0.4-0.3,0.6h-1c0-0.3,0.1-0.6,0.3-0.8c0.2-0.3,0.5-0.5,0.8-0.6c0.3-0.2,0.7-0.2,1.1-0.2
		c0.7,0,1.2,0.2,1.5,0.5c0.4,0.3,0.6,0.8,0.6,1.3v2.6c0,0.5,0.1,0.9,0.2,1.2v0.1h-1V525.2z M116.8,524.5c0.3,0,0.6-0.1,0.9-0.2
		c0.3-0.2,0.5-0.4,0.6-0.6v-1.1h-0.7c-1.2,0-1.8,0.3-1.8,1c0,0.3,0.1,0.5,0.3,0.7C116.3,524.3,116.5,524.5,116.8,524.5z
		 M125.9,522.5c0,0.9-0.2,1.5-0.6,2.1c-0.4,0.5-0.9,0.8-1.6,0.8c-0.7,0-1.3-0.3-1.6-0.8l-0.1,0.6h-0.9v-7.9h0.9v3
		c0.4-0.5,0.9-0.7,1.6-0.7c0.7,0,1.2,0.3,1.6,0.8C125.7,520.8,125.9,521.5,125.9,522.5L125.9,522.5z M124.9,522.3
		c0-0.7-0.1-1.1-0.4-1.5c-0.2-0.4-0.6-0.5-1.1-0.5c-0.6,0-1.1,0.3-1.4,0.9v2.4c0.3,0.6,0.7,0.9,1.4,0.9c0.5,0,0.8-0.2,1.1-0.5
		C124.8,523.5,124.9,523,124.9,522.3z M129.1,523.8l1.3-4.2h1l-2.2,6.4c-0.3,0.9-0.9,1.4-1.6,1.4h-0.2l-0.3-0.1v-0.8h0.2
		c0.3,0,0.6-0.1,0.8-0.2c0.2-0.1,0.3-0.4,0.5-0.7l0.2-0.6l-2-5.5h1L129.1,523.8z M133.9,518.2v1.3h1v0.7h-1v3.4c0,0.2,0,0.4,0.1,0.5
		c0.1,0.1,0.2,0.2,0.5,0.2c0.1,0,0.3,0,0.5-0.1v0.8c-0.2,0.1-0.5,0.1-0.7,0.1c-0.4,0-0.7-0.1-1-0.4c-0.2-0.3-0.3-0.6-0.3-1.1v-3.4
		h-1v-0.7h1v-1.3H133.9z M138.4,525.2c-0.8,0-1.4-0.2-1.9-0.7s-0.7-1.2-0.7-2v-0.2c0-0.6,0.1-1.1,0.3-1.5c0.2-0.4,0.5-0.8,0.9-1
		s0.8-0.4,1.2-0.4c0.7,0,1.3,0.2,1.7,0.7s0.6,1.2,0.6,2v0.4h-3.8c0,0.5,0.2,1,0.5,1.3s0.7,0.5,1.2,0.5c0.3,0,0.6-0.1,0.8-0.2
		c0.2-0.1,0.4-0.3,0.6-0.5l0.6,0.5C140,524.8,139.3,525.2,138.4,525.2z M138.3,520.2c-0.4,0-0.7,0.1-1,0.4s-0.4,0.7-0.5,1.2h2.8
		v-0.1c0-0.5-0.2-0.9-0.4-1.1C139,520.3,138.7,520.2,138.3,520.2z M144.1,525.2v-7.5h2.1c0.7,0,1.2,0.1,1.7,0.4s0.9,0.7,1.2,1.2
		s0.4,1.1,0.4,1.8v0.5c0,0.7-0.1,1.3-0.4,1.9c-0.3,0.5-0.7,0.9-1.2,1.2c-0.5,0.3-1.1,0.4-1.8,0.4h-2V525.2z M145.1,518.5v5.9h1
		c0.8,0,1.4-0.2,1.8-0.7c0.4-0.5,0.6-1.2,0.6-2v-0.4c0-0.9-0.2-1.5-0.6-2c-0.4-0.5-1-0.7-1.7-0.7L145.1,518.5L145.1,518.5z
		 M151.2,525.2v-7.5h2.5c0.8,0,1.4,0.2,1.8,0.5c0.4,0.3,0.6,0.8,0.6,1.5c0,0.4-0.1,0.7-0.3,0.9c-0.2,0.3-0.5,0.5-0.8,0.6
		c0.4,0.1,0.7,0.3,1,0.6c0.2,0.3,0.4,0.7,0.4,1.1c0,0.7-0.2,1.2-0.7,1.6c-0.4,0.4-1,0.6-1.8,0.6L151.2,525.2L151.2,525.2z
		 M152.2,521.7v2.7h1.6c0.5,0,0.8-0.1,1.1-0.4c0.3-0.2,0.4-0.6,0.4-1c0-0.9-0.5-1.3-1.5-1.3H152.2L152.2,521.7z M152.2,520.8h1.5
		c0.4,0,0.8-0.1,1-0.3c0.3-0.2,0.4-0.5,0.4-0.9c0-0.4-0.1-0.7-0.4-0.9c-0.2-0.2-0.6-0.3-1.1-0.3h-1.5v2.4H152.2z M162.3,521.5l2-3.8
		h1.1l-2.6,4.7v2.8h-1v-2.8l-2.6-4.7h1.1L162.3,521.5z M171.7,522.8c-0.1,0.8-0.4,1.4-0.9,1.8c-0.5,0.4-1.1,0.6-2,0.6
		s-1.6-0.3-2.1-0.9c-0.5-0.6-0.8-1.5-0.8-2.6v-0.7c0-0.7,0.1-1.3,0.4-1.8c0.2-0.5,0.6-0.9,1.1-1.2c0.5-0.3,1-0.4,1.6-0.4
		c0.8,0,1.4,0.2,1.9,0.7c0.5,0.4,0.8,1.1,0.9,1.8h-1c-0.1-0.6-0.3-1-0.6-1.3s-0.7-0.4-1.2-0.4c-0.6,0-1.1,0.2-1.5,0.7
		s-0.5,1.1-0.5,2v0.7c0,0.8,0.2,1.5,0.5,2s0.8,0.7,1.4,0.7c0.5,0,1-0.1,1.3-0.4s0.5-0.7,0.6-1.3L171.7,522.8L171.7,522.8z
		 M178.9,521.7c0,0.7-0.1,1.3-0.3,1.9c-0.2,0.5-0.5,0.9-1,1.2l1.3,1.1l-0.7,0.6l-1.6-1.3c-0.2,0.1-0.5,0.1-0.8,0.1
		c-0.6,0-1.1-0.1-1.6-0.4s-0.8-0.7-1.1-1.2c-0.2-0.5-0.4-1.2-0.4-1.9v-0.5c0-0.7,0.1-1.4,0.4-1.9c0.3-0.5,0.6-1,1.1-1.3
		s1-0.5,1.6-0.5s1.1,0.1,1.6,0.4s0.8,0.7,1.1,1.3c0.2,0.5,0.4,1.2,0.4,1.9V521.7z M177.9,521.2c0-0.9-0.2-1.6-0.5-2
		c-0.3-0.5-0.9-0.7-1.5-0.7s-1.1,0.2-1.5,0.7s-0.5,1.1-0.5,2v0.6c0,0.9,0.2,1.5,0.5,2c0.4,0.5,0.9,0.7,1.5,0.7s1.1-0.2,1.5-0.7
		c0.3-0.5,0.5-1.1,0.5-2V521.2z M181.2,524.3h3.6v0.8h-4.6v-7.5h1V524.3z M189.8,522.8l0.2,1l0.2-0.9l1.5-5.2h0.8l1.4,5.2l0.2,0.9
		l0.2-1l1.2-5.1h1l-1.8,7.5h-0.9l-1.6-5.5l-0.1-0.6l-0.1,0.6l-1.6,5.5h-0.9l-1.8-7.5h1L189.8,522.8z M200.4,520.5
		c-0.1,0-0.3,0-0.5,0c-0.6,0-1.1,0.3-1.3,0.8v4h-0.9v-5.6h0.9v0.6c0.3-0.5,0.8-0.7,1.3-0.7c0.2,0,0.3,0,0.4,0.1v0.8H200.4z
		 M202.2,525.2h-0.9v-5.6h0.9V525.2z M201.2,518c0-0.2,0-0.3,0.1-0.4c0.1-0.1,0.2-0.2,0.4-0.2s0.3,0.1,0.4,0.2
		c0.1,0.1,0.2,0.2,0.2,0.4c0,0.1-0.1,0.3-0.2,0.4c-0.1,0.1-0.2,0.2-0.4,0.2s-0.3-0.1-0.4-0.2C201.2,518.3,201.2,518.2,201.2,518z
		 M205.1,518.2v1.3h1v0.7h-1v3.4c0,0.2,0,0.4,0.1,0.5c0.1,0.1,0.2,0.2,0.5,0.2c0.1,0,0.3,0,0.5-0.1v0.8c-0.2,0.1-0.5,0.1-0.7,0.1
		c-0.4,0-0.7-0.1-1-0.4c-0.2-0.3-0.3-0.6-0.3-1.1v-3.4h-1v-0.7h1v-1.3H205.1z M209.7,525.2c-0.8,0-1.4-0.2-1.9-0.7s-0.7-1.2-0.7-2
		v-0.2c0-0.6,0.1-1.1,0.3-1.5c0.2-0.4,0.5-0.8,0.9-1s0.8-0.4,1.2-0.4c0.7,0,1.3,0.2,1.7,0.7s0.6,1.2,0.6,2v0.4H208
		c0,0.5,0.2,1,0.5,1.3s0.7,0.5,1.2,0.5c0.3,0,0.6-0.1,0.8-0.2c0.2-0.1,0.4-0.3,0.6-0.5l0.6,0.5C211.3,524.8,210.6,525.2,209.7,525.2
		z M209.5,520.2c-0.4,0-0.7,0.1-1,0.4s-0.4,0.7-0.5,1.2h2.8v-0.1c0-0.5-0.2-0.9-0.4-1.1C210.2,520.3,209.9,520.2,209.5,520.2z
		 M215.9,523.7c0-0.3-0.1-0.5-0.3-0.6c-0.2-0.1-0.5-0.3-1-0.4c-0.5-0.1-0.9-0.2-1.1-0.4c-0.3-0.1-0.5-0.3-0.6-0.5s-0.2-0.4-0.2-0.7
		c0-0.5,0.2-0.8,0.6-1.2c0.4-0.3,0.9-0.5,1.5-0.5c0.6,0,1.1,0.2,1.5,0.5s0.6,0.7,0.6,1.2H216c0-0.3-0.1-0.5-0.3-0.7
		c-0.2-0.2-0.5-0.3-0.8-0.3s-0.6,0.1-0.8,0.2c-0.2,0.1-0.3,0.3-0.3,0.6c0,0.2,0.1,0.4,0.3,0.5c0.2,0.1,0.5,0.2,1,0.3
		s0.9,0.2,1.2,0.4c0.3,0.2,0.5,0.3,0.6,0.5s0.2,0.5,0.2,0.8c0,0.5-0.2,0.9-0.6,1.2s-0.9,0.5-1.5,0.5c-0.4,0-0.8-0.1-1.2-0.2
		c-0.3-0.2-0.6-0.4-0.8-0.7c-0.2-0.3-0.3-0.6-0.3-0.9h0.9c0,0.3,0.1,0.6,0.4,0.8c0.2,0.2,0.6,0.3,0.9,0.3c0.4,0,0.6-0.1,0.9-0.2
		C216.1,524,215.9,524,215.9,523.7z M220.5,522c0-0.8,0.1-1.5,0.3-2.2c0.2-0.7,0.5-1.4,0.9-2c0.4-0.6,0.8-1,1.3-1.2l0.2,0.6
		c-0.5,0.4-0.9,1-1.2,1.8c-0.3,0.8-0.5,1.7-0.5,2.7v0.4c0,1.3,0.2,2.5,0.7,3.4c0.3,0.6,0.6,1,1,1.4l-0.2,0.6
		c-0.5-0.2-0.9-0.7-1.3-1.3C220.9,525.2,220.5,523.8,220.5,522z M228,522.7h1v0.8h-1v1.7h-1v-1.7h-3.4v-0.6l3.4-5.2h1V522.7z
		 M224.7,522.7h2.3V519l-0.1,0.2L224.7,522.7z M231.1,519.5v0.6c0.4-0.5,1-0.7,1.6-0.7c0.8,0,1.3,0.3,1.6,0.9
		c0.2-0.3,0.4-0.5,0.7-0.6c0.3-0.2,0.7-0.2,1.1-0.2c1.2,0,1.9,0.6,1.9,1.9v3.7h-0.9v-3.7c0-0.4-0.1-0.7-0.3-0.9
		c-0.2-0.2-0.5-0.3-0.9-0.3s-0.7,0.1-0.9,0.3c-0.2,0.2-0.4,0.5-0.4,0.9v3.7h-0.9v-3.7c0-0.8-0.4-1.2-1.2-1.2c-0.6,0-1,0.3-1.3,0.8
		v4.1h-1v-5.6L231.1,519.5L231.1,519.5z M243.1,523.7c0-0.3-0.1-0.5-0.3-0.6c-0.2-0.1-0.5-0.3-1-0.4c-0.5-0.1-0.9-0.2-1.1-0.4
		c-0.3-0.1-0.5-0.3-0.6-0.5s-0.2-0.4-0.2-0.7c0-0.5,0.2-0.8,0.6-1.2c0.4-0.3,0.9-0.5,1.5-0.5s1.1,0.2,1.5,0.5s0.6,0.7,0.6,1.2h-0.9
		c0-0.3-0.1-0.5-0.3-0.7c-0.2-0.2-0.5-0.3-0.8-0.3s-0.6,0.1-0.8,0.2c-0.2,0.1-0.3,0.3-0.3,0.6c0,0.2,0.1,0.4,0.3,0.5
		c0.2,0.1,0.5,0.2,1,0.3s0.9,0.2,1.2,0.4c0.3,0.1,0.5,0.3,0.6,0.5s0.2,0.5,0.2,0.8c0,0.5-0.2,0.9-0.6,1.2s-0.9,0.5-1.5,0.5
		c-0.4,0-0.8-0.1-1.2-0.2c-0.3-0.2-0.6-0.4-0.8-0.7c-0.2-0.3-0.3-0.6-0.3-0.9h0.9c0,0.3,0.1,0.6,0.4,0.8c0.2,0.2,0.6,0.3,0.9,0.3
		c0.4,0,0.6-0.1,0.9-0.2C243.3,524,243.1,524,243.1,523.7z M248.8,525.2h-0.9v-7.9h0.9V525.2z M253.9,525.2
		c-0.1-0.1-0.1-0.3-0.1-0.6c-0.4,0.5-1,0.7-1.6,0.7c-0.5,0-1-0.2-1.4-0.5c-0.3-0.3-0.5-0.7-0.5-1.2c0-0.6,0.2-1,0.7-1.3
		c0.4-0.3,1.1-0.5,1.9-0.5h0.9v-0.4c0-0.3-0.1-0.6-0.3-0.8c-0.2-0.2-0.5-0.3-0.9-0.3c-0.3,0-0.6,0.1-0.9,0.3
		c-0.2,0.2-0.3,0.4-0.3,0.6h-1c0-0.3,0.1-0.6,0.3-0.8c0.2-0.3,0.5-0.5,0.8-0.6c0.3-0.2,0.7-0.2,1.1-0.2c0.7,0,1.2,0.2,1.5,0.5
		c0.4,0.3,0.6,0.8,0.6,1.3v2.6c0,0.5,0.1,0.9,0.2,1.2v0.1h-1V525.2z M252.3,524.5c0.3,0,0.6-0.1,0.9-0.2c0.3-0.2,0.5-0.4,0.6-0.6
		v-1.1H253c-1.2,0-1.8,0.3-1.8,1c0,0.3,0.1,0.5,0.3,0.7C251.7,524.3,252,524.5,252.3,524.5z M257.9,518.2v1.3h1v0.7h-1v3.4
		c0,0.2,0,0.4,0.1,0.5c0.1,0.1,0.2,0.2,0.5,0.2c0.1,0,0.3,0,0.5-0.1v0.8c-0.2,0.1-0.5,0.1-0.7,0.1c-0.4,0-0.7-0.1-1-0.4
		c-0.2-0.3-0.3-0.6-0.3-1.1v-3.4h-1v-0.7h1v-1.3H257.9z M262.4,525.2c-0.8,0-1.4-0.2-1.9-0.7s-0.7-1.2-0.7-2v-0.2
		c0-0.6,0.1-1.1,0.3-1.5c0.2-0.4,0.5-0.8,0.9-1s0.8-0.4,1.2-0.4c0.7,0,1.3,0.2,1.7,0.7c0.4,0.5,0.6,1.2,0.6,2v0.4h-3.8
		c0,0.5,0.2,1,0.5,1.3s0.7,0.5,1.2,0.5c0.3,0,0.6-0.1,0.8-0.2c0.2-0.1,0.4-0.3,0.6-0.5l0.6,0.5C264.1,524.8,263.4,525.2,262.4,525.2
		z M262.3,520.2c-0.4,0-0.7,0.1-1,0.4s-0.4,0.7-0.5,1.2h2.8v-0.1c0-0.5-0.2-0.9-0.4-1.1C263,520.3,262.7,520.2,262.3,520.2z
		 M266.3,519.5v0.7c0.4-0.5,1-0.8,1.7-0.8c1.2,0,1.8,0.7,1.8,2v3.7h-1v-3.7c0-0.4-0.1-0.7-0.3-0.9c-0.2-0.2-0.5-0.3-0.8-0.3
		s-0.6,0.1-0.8,0.2c-0.2,0.2-0.4,0.4-0.5,0.6v4h-0.9v-5.6L266.3,519.5L266.3,519.5z M273.8,524.5c0.3,0,0.6-0.1,0.9-0.3
		c0.3-0.2,0.4-0.5,0.4-0.8h0.9c0,0.3-0.1,0.6-0.3,0.9c-0.2,0.3-0.5,0.5-0.8,0.7s-0.7,0.3-1.1,0.3c-0.8,0-1.4-0.3-1.8-0.8
		s-0.7-1.2-0.7-2.1v-0.2c0-0.5,0.1-1,0.3-1.4c0.2-0.4,0.5-0.7,0.9-1c0.4-0.2,0.8-0.4,1.3-0.4c0.6,0,1.1,0.2,1.6,0.6
		c0.4,0.4,0.6,0.9,0.7,1.5h-0.9c0-0.4-0.2-0.7-0.4-0.9c-0.2-0.2-0.5-0.3-0.9-0.3c-0.5,0-0.9,0.2-1.1,0.5c-0.3,0.3-0.4,0.9-0.4,1.5
		v0.2c0,0.6,0.1,1.1,0.4,1.5C272.9,524.2,273.3,524.5,273.8,524.5z M278.6,523.8l1.3-4.2h1l-2.2,6.4c-0.3,0.9-0.9,1.4-1.6,1.4h-0.2
		l-0.3-0.1v-0.8h0.2c0.3,0,0.6-0.1,0.8-0.2c0.2-0.1,0.3-0.4,0.5-0.7l0.2-0.6l-2-5.5h1L278.6,523.8z M284.3,522.2
		c0,0.8-0.1,1.5-0.3,2.2c-0.2,0.7-0.5,1.3-0.9,1.9c-0.4,0.6-0.8,1-1.3,1.3l-0.2-0.6c0.5-0.4,1-1,1.3-1.9c0.3-0.9,0.5-1.8,0.5-2.8
		V522c0-0.7-0.1-1.4-0.2-2c-0.1-0.6-0.4-1.2-0.6-1.7c-0.3-0.5-0.6-0.9-0.9-1.2l0.2-0.6c0.4,0.2,0.9,0.7,1.3,1.3s0.7,1.2,0.9,2
		C284.2,520.5,284.3,521.3,284.3,522.2z"/>
	<path class="st20" d="M303.3,521.5l2-3.8h1.1l-2.6,4.7v2.8h-1v-2.8l-2.6-4.7h1.1L303.3,521.5z M310.5,524.5
		c-0.4,0.4-0.9,0.7-1.6,0.7c-0.6,0-1-0.2-1.4-0.5s-0.5-0.9-0.5-1.5v-3.6h0.9v3.6c0,0.9,0.3,1.3,1,1.3s1.2-0.3,1.5-0.8v-4.1h1v5.6
		h-0.9V524.5z M312.9,522.3c0-0.9,0.2-1.6,0.6-2.1s0.9-0.8,1.6-0.8s1.2,0.2,1.6,0.7v-0.6h0.9v5.4c0,0.7-0.2,1.3-0.6,1.7
		c-0.4,0.4-1,0.6-1.7,0.6c-0.4,0-0.8-0.1-1.2-0.3c-0.4-0.2-0.7-0.4-0.9-0.7l0.5-0.6c0.4,0.5,0.9,0.8,1.5,0.8c0.5,0,0.8-0.1,1.1-0.4
		c0.3-0.3,0.4-0.6,0.4-1.1v-0.5c-0.4,0.4-0.9,0.7-1.6,0.7s-1.2-0.3-1.6-0.8C313.1,524,312.9,523.2,312.9,522.3z M313.9,522.5
		c0,0.6,0.1,1.1,0.4,1.5c0.3,0.4,0.6,0.5,1.1,0.5c0.6,0,1-0.3,1.3-0.8v-2.5c-0.3-0.5-0.7-0.8-1.3-0.8c-0.5,0-0.8,0.2-1.1,0.5
		C314,521.2,313.9,521.8,313.9,522.5z M322.8,525.2c-0.1-0.1-0.1-0.3-0.1-0.6c-0.4,0.5-1,0.7-1.6,0.7c-0.5,0-1-0.2-1.4-0.5
		c-0.3-0.3-0.5-0.7-0.5-1.2c0-0.6,0.2-1,0.7-1.3c0.4-0.3,1.1-0.5,1.9-0.5h0.9v-0.4c0-0.3-0.1-0.6-0.3-0.8c-0.2-0.2-0.5-0.3-0.9-0.3
		c-0.3,0-0.6,0.1-0.9,0.3c-0.2,0.2-0.3,0.4-0.3,0.6h-1c0-0.3,0.1-0.6,0.3-0.8c0.2-0.3,0.5-0.5,0.8-0.6c0.3-0.2,0.7-0.2,1.1-0.2
		c0.7,0,1.2,0.2,1.5,0.5c0.4,0.3,0.6,0.8,0.6,1.3v2.6c0,0.5,0.1,0.9,0.2,1.2v0.1h-1V525.2z M321.2,524.5c0.3,0,0.6-0.1,0.9-0.2
		c0.3-0.2,0.5-0.4,0.6-0.6v-1.1H322c-1.2,0-1.8,0.3-1.8,1c0,0.3,0.1,0.5,0.3,0.7C320.6,524.3,320.9,524.5,321.2,524.5z M330.2,522.5
		c0,0.9-0.2,1.5-0.6,2.1c-0.4,0.5-0.9,0.8-1.6,0.8s-1.3-0.3-1.6-0.8l-0.1,0.6h-0.9v-7.9h0.9v3c0.4-0.5,0.9-0.7,1.6-0.7
		s1.2,0.3,1.6,0.8C330,520.8,330.2,521.5,330.2,522.5L330.2,522.5z M329.3,522.3c0-0.7-0.1-1.1-0.4-1.5c-0.2-0.4-0.6-0.5-1.1-0.5
		c-0.6,0-1.1,0.3-1.4,0.9v2.4c0.3,0.6,0.7,0.9,1.4,0.9c0.5,0,0.8-0.2,1.1-0.5C329.1,523.5,329.3,523,329.3,522.3z M333.5,523.8
		l1.3-4.2h1l-2.2,6.4c-0.3,0.9-0.9,1.4-1.6,1.4h-0.2l-0.3-0.1v-0.8h0.2c0.3,0,0.6-0.1,0.8-0.2c0.2-0.1,0.3-0.4,0.5-0.7l0.2-0.6
		l-2-5.5h1L333.5,523.8z M338.2,518.2v1.3h1v0.7h-1v3.4c0,0.2,0,0.4,0.1,0.5c0.1,0.1,0.2,0.2,0.5,0.2c0.1,0,0.3,0,0.5-0.1v0.8
		c-0.2,0.1-0.5,0.1-0.7,0.1c-0.4,0-0.7-0.1-1-0.4c-0.2-0.3-0.3-0.6-0.3-1.1v-3.4h-1v-0.7h1v-1.3H338.2z M342.8,525.2
		c-0.8,0-1.4-0.2-1.9-0.7s-0.7-1.2-0.7-2v-0.2c0-0.6,0.1-1.1,0.3-1.5c0.2-0.4,0.5-0.8,0.9-1s0.8-0.4,1.2-0.4c0.7,0,1.3,0.2,1.7,0.7
		c0.4,0.5,0.6,1.2,0.6,2v0.4h-3.8c0,0.5,0.2,1,0.5,1.3s0.7,0.5,1.2,0.5c0.3,0,0.6-0.1,0.8-0.2c0.2-0.1,0.4-0.3,0.6-0.5l0.6,0.5
		C344.4,524.8,343.7,525.2,342.8,525.2z M342.6,520.2c-0.4,0-0.7,0.1-1,0.4s-0.4,0.7-0.5,1.2h2.8v-0.1c0-0.5-0.2-0.9-0.4-1.1
		C343.4,520.3,343,520.2,342.6,520.2z M348.5,525.2v-7.5h2.1c0.7,0,1.2,0.1,1.7,0.4s0.9,0.7,1.2,1.2c0.3,0.5,0.4,1.1,0.4,1.8v0.5
		c0,0.7-0.1,1.3-0.4,1.9c-0.3,0.5-0.7,0.9-1.2,1.2c-0.5,0.3-1.1,0.4-1.8,0.4h-2V525.2z M349.5,518.5v5.9h1c0.8,0,1.4-0.2,1.8-0.7
		s0.6-1.2,0.6-2v-0.4c0-0.9-0.2-1.5-0.6-2s-1-0.7-1.7-0.7L349.5,518.5L349.5,518.5z M355.5,525.2v-7.5h2.5c0.8,0,1.4,0.2,1.8,0.5
		s0.6,0.8,0.6,1.5c0,0.4-0.1,0.7-0.3,0.9c-0.2,0.3-0.5,0.5-0.8,0.6c0.4,0.1,0.7,0.3,1,0.6c0.2,0.3,0.4,0.7,0.4,1.1
		c0,0.7-0.2,1.2-0.7,1.6c-0.4,0.4-1,0.6-1.8,0.6L355.5,525.2L355.5,525.2z M356.5,521.7v2.7h1.6c0.5,0,0.8-0.1,1.1-0.4
		c0.3-0.2,0.4-0.6,0.4-1c0-0.9-0.5-1.3-1.5-1.3H356.5L356.5,521.7z M356.5,520.8h1.5c0.4,0,0.8-0.1,1-0.3c0.3-0.2,0.4-0.5,0.4-0.9
		c0-0.4-0.1-0.7-0.4-0.9c-0.2-0.2-0.6-0.3-1.1-0.3h-1.5v2.4H356.5z M366.6,521.5l2-3.8h1.1l-2.6,4.7v2.8h-1v-2.8l-2.6-4.7h1.1
		L366.6,521.5z M372.7,521.8c-0.8-0.2-1.5-0.5-1.9-0.9c-0.4-0.4-0.6-0.8-0.6-1.3c0-0.6,0.2-1.1,0.7-1.5c0.5-0.4,1.1-0.6,1.9-0.6
		c0.5,0,1,0.1,1.4,0.3c0.4,0.2,0.7,0.5,0.9,0.8c0.2,0.3,0.3,0.7,0.3,1.2h-1c0-0.5-0.1-0.8-0.4-1.1s-0.7-0.4-1.2-0.4
		s-0.9,0.1-1.1,0.3c-0.3,0.2-0.4,0.5-0.4,0.9c0,0.3,0.1,0.6,0.4,0.8s0.7,0.4,1.3,0.6c0.6,0.2,1.1,0.4,1.5,0.6s0.6,0.5,0.8,0.7
		c0.2,0.3,0.3,0.6,0.3,1c0,0.6-0.2,1.1-0.7,1.5c-0.5,0.4-1.1,0.5-1.9,0.5c-0.5,0-1-0.1-1.5-0.3c-0.4-0.2-0.8-0.5-1-0.8
		s-0.4-0.7-0.4-1.2h1c0,0.4,0.2,0.8,0.5,1.1s0.8,0.4,1.3,0.4s0.9-0.1,1.2-0.3c0.3-0.2,0.4-0.5,0.4-0.9c0-0.4-0.1-0.7-0.4-0.9
		C373.9,522.2,373.4,522,372.7,521.8z M382.4,521.7c0,0.7-0.1,1.3-0.3,1.9c-0.2,0.5-0.5,0.9-1,1.2l1.3,1.1l-0.7,0.6l-1.6-1.3
		c-0.2,0.1-0.5,0.1-0.8,0.1c-0.6,0-1.1-0.1-1.6-0.4s-0.8-0.7-1.1-1.2c-0.2-0.5-0.4-1.2-0.4-1.9v-0.5c0-0.7,0.1-1.4,0.4-1.9
		s0.6-1,1.1-1.3s1-0.5,1.6-0.5s1.1,0.1,1.6,0.4s0.8,0.7,1.1,1.3c0.2,0.5,0.4,1.2,0.4,1.9V521.7z M381.4,521.2c0-0.9-0.2-1.6-0.5-2
		c-0.3-0.5-0.9-0.7-1.5-0.7s-1.1,0.2-1.5,0.7s-0.5,1.1-0.5,2v0.6c0,0.9,0.2,1.5,0.5,2c0.4,0.5,0.9,0.7,1.5,0.7s1.1-0.2,1.5-0.7
		c0.3-0.5,0.5-1.1,0.5-2V521.2z M384.7,524.3h3.6v0.8h-4.6v-7.5h1V524.3z M393.2,522.8l0.2,1l0.2-0.9l1.5-5.2h0.8l1.4,5.2l0.2,0.9
		l0.2-1l1.2-5.1h1l-1.8,7.5h-0.9l-1.6-5.5l-0.1-0.6l-0.1,0.6l-1.6,5.5h-0.9l-1.8-7.5h1L393.2,522.8z M403.8,520.5
		c-0.1,0-0.3,0-0.5,0c-0.6,0-1.1,0.3-1.3,0.8v4h-0.9v-5.6h0.9v0.6c0.3-0.5,0.8-0.7,1.3-0.7c0.2,0,0.3,0,0.4,0.1v0.8H403.8z
		 M405.7,525.2h-0.9v-5.6h0.9V525.2z M404.7,518c0-0.2,0-0.3,0.1-0.4c0.1-0.1,0.2-0.2,0.4-0.2c0.2,0,0.3,0.1,0.4,0.2
		c0.1,0.1,0.2,0.2,0.2,0.4c0,0.1-0.1,0.3-0.2,0.4c-0.1,0.1-0.2,0.2-0.4,0.2c-0.2,0-0.3-0.1-0.4-0.2
		C404.7,518.3,404.7,518.2,404.7,518z M408.6,518.2v1.3h1v0.7h-1v3.4c0,0.2,0,0.4,0.1,0.5c0.1,0.1,0.2,0.2,0.5,0.2
		c0.1,0,0.3,0,0.5-0.1v0.8c-0.2,0.1-0.5,0.1-0.7,0.1c-0.4,0-0.7-0.1-1-0.4c-0.2-0.3-0.3-0.6-0.3-1.1v-3.4h-1v-0.7h1v-1.3H408.6z
		 M413.1,525.2c-0.8,0-1.4-0.2-1.9-0.7s-0.7-1.2-0.7-2v-0.2c0-0.6,0.1-1.1,0.3-1.5c0.2-0.4,0.5-0.8,0.9-1s0.8-0.4,1.2-0.4
		c0.7,0,1.3,0.2,1.7,0.7c0.4,0.5,0.6,1.2,0.6,2v0.4h-3.8c0,0.5,0.2,1,0.5,1.3s0.7,0.5,1.2,0.5c0.3,0,0.6-0.1,0.8-0.2
		c0.2-0.1,0.4-0.3,0.6-0.5l0.6,0.5C414.8,524.8,414.1,525.2,413.1,525.2z M413,520.2c-0.4,0-0.7,0.1-1,0.4s-0.4,0.7-0.5,1.2h2.8
		v-0.1c0-0.5-0.2-0.9-0.4-1.1C413.7,520.3,413.4,520.2,413,520.2z M419.3,523.7c0-0.3-0.1-0.5-0.3-0.6c-0.2-0.1-0.5-0.3-1-0.4
		c-0.5-0.1-0.9-0.2-1.1-0.4c-0.3-0.1-0.5-0.3-0.6-0.5s-0.2-0.4-0.2-0.7c0-0.5,0.2-0.8,0.6-1.2c0.4-0.3,0.9-0.5,1.5-0.5
		s1.1,0.2,1.5,0.5s0.6,0.7,0.6,1.2h-0.9c0-0.3-0.1-0.5-0.3-0.7c-0.2-0.2-0.5-0.3-0.8-0.3s-0.6,0.1-0.8,0.2c-0.2,0.1-0.3,0.3-0.3,0.6
		c0,0.2,0.1,0.4,0.3,0.5c0.2,0.1,0.5,0.2,1,0.3s0.9,0.2,1.2,0.4c0.3,0.2,0.5,0.3,0.6,0.5s0.2,0.5,0.2,0.8c0,0.5-0.2,0.9-0.6,1.2
		s-0.9,0.5-1.5,0.5c-0.4,0-0.8-0.1-1.2-0.2c-0.3-0.2-0.6-0.4-0.8-0.7c-0.2-0.3-0.3-0.6-0.3-0.9h0.9c0,0.3,0.1,0.6,0.4,0.8
		c0.2,0.2,0.6,0.3,0.9,0.3c0.4,0,0.6-0.1,0.9-0.2C419.5,524,419.3,524,419.3,523.7z M424,522c0-0.8,0.1-1.5,0.3-2.2
		c0.2-0.7,0.5-1.4,0.9-2c0.4-0.6,0.8-1,1.3-1.2l0.2,0.6c-0.5,0.4-0.9,1-1.2,1.8c-0.3,0.8-0.5,1.7-0.5,2.7v0.4c0,1.3,0.2,2.5,0.7,3.4
		c0.3,0.6,0.6,1,1,1.4l-0.2,0.6c-0.5-0.2-0.9-0.7-1.3-1.3C424.4,525.2,424,523.8,424,522z M427.9,521.3l0.4-3.7h3.8v0.9h-3l-0.2,2
		c0.4-0.2,0.8-0.3,1.3-0.3c0.7,0,1.2,0.2,1.6,0.7c0.4,0.4,0.6,1.1,0.6,1.8c0,0.8-0.2,1.4-0.6,1.8c-0.4,0.4-1,0.7-1.7,0.7
		s-1.2-0.2-1.6-0.5c-0.4-0.4-0.7-0.9-0.7-1.5h0.9c0.1,0.4,0.2,0.8,0.5,1s0.6,0.3,1,0.3s0.8-0.2,1-0.5c0.3-0.3,0.4-0.7,0.4-1.3
		c0-0.5-0.1-0.9-0.4-1.2s-0.6-0.5-1.1-0.5c-0.4,0-0.7,0.1-1,0.3l-0.2,0.2L427.9,521.3z M434.6,519.5v0.6c0.4-0.5,1-0.7,1.6-0.7
		c0.8,0,1.3,0.3,1.6,0.9c0.2-0.3,0.4-0.5,0.7-0.6c0.3-0.2,0.7-0.2,1.1-0.2c1.2,0,1.9,0.6,1.9,1.9v3.7h-0.9v-3.7
		c0-0.4-0.1-0.7-0.3-0.9c-0.2-0.2-0.5-0.3-0.9-0.3s-0.7,0.1-0.9,0.3c-0.2,0.2-0.4,0.5-0.4,0.9v3.7h-0.9v-3.7c0-0.8-0.4-1.2-1.2-1.2
		c-0.6,0-1,0.3-1.3,0.8v4.1h-1v-5.6L434.6,519.5L434.6,519.5z M446.6,523.7c0-0.3-0.1-0.5-0.3-0.6c-0.2-0.1-0.5-0.3-1-0.4
		c-0.5-0.1-0.9-0.2-1.1-0.4c-0.3-0.1-0.5-0.3-0.6-0.5s-0.2-0.4-0.2-0.7c0-0.5,0.2-0.8,0.6-1.2c0.4-0.3,0.9-0.5,1.5-0.5
		s1.1,0.2,1.5,0.5s0.6,0.7,0.6,1.2h-0.9c0-0.3-0.1-0.5-0.3-0.7c-0.2-0.2-0.5-0.3-0.8-0.3s-0.6,0.1-0.8,0.2c-0.2,0.1-0.3,0.3-0.3,0.6
		c0,0.2,0.1,0.4,0.3,0.5c0.2,0.1,0.5,0.2,1,0.3s0.9,0.2,1.2,0.4c0.3,0.1,0.5,0.3,0.6,0.5s0.2,0.5,0.2,0.8c0,0.5-0.2,0.9-0.6,1.2
		s-0.9,0.5-1.5,0.5c-0.4,0-0.8-0.1-1.2-0.2c-0.3-0.2-0.6-0.4-0.8-0.7c-0.2-0.3-0.3-0.6-0.3-0.9h0.9c0,0.3,0.1,0.6,0.4,0.8
		c0.2,0.2,0.6,0.3,0.9,0.3c0.4,0,0.6-0.1,0.9-0.2C446.8,524,446.6,524,446.6,523.7z M452.3,525.2h-0.9v-7.9h0.9V525.2z M457.4,525.2
		c-0.1-0.1-0.1-0.3-0.1-0.6c-0.4,0.5-1,0.7-1.6,0.7c-0.5,0-1-0.2-1.4-0.5c-0.3-0.3-0.5-0.7-0.5-1.2c0-0.6,0.2-1,0.7-1.3
		c0.4-0.3,1.1-0.5,1.9-0.5h0.9v-0.4c0-0.3-0.1-0.6-0.3-0.8c-0.2-0.2-0.5-0.3-0.9-0.3c-0.3,0-0.6,0.1-0.9,0.3
		c-0.2,0.2-0.3,0.4-0.3,0.6h-1c0-0.3,0.1-0.6,0.3-0.8c0.2-0.3,0.5-0.5,0.8-0.6c0.3-0.2,0.7-0.2,1.1-0.2c0.7,0,1.2,0.2,1.5,0.5
		c0.4,0.3,0.6,0.8,0.6,1.3v2.6c0,0.5,0.1,0.9,0.2,1.2v0.1h-1V525.2z M455.8,524.5c0.3,0,0.6-0.1,0.9-0.2c0.3-0.2,0.5-0.4,0.6-0.6
		v-1.1h-0.7c-1.2,0-1.8,0.3-1.8,1c0,0.3,0.1,0.5,0.3,0.7C455.2,524.3,455.5,524.5,455.8,524.5z M461.4,518.2v1.3h1v0.7h-1v3.4
		c0,0.2,0,0.4,0.1,0.5c0.1,0.1,0.2,0.2,0.5,0.2c0.1,0,0.3,0,0.5-0.1v0.8c-0.2,0.1-0.5,0.1-0.7,0.1c-0.4,0-0.7-0.1-1-0.4
		c-0.2-0.3-0.3-0.6-0.3-1.1v-3.4h-1v-0.7h1v-1.3H461.4z M465.9,525.2c-0.8,0-1.4-0.2-1.9-0.7s-0.7-1.2-0.7-2v-0.2
		c0-0.6,0.1-1.1,0.3-1.5c0.2-0.4,0.5-0.8,0.9-1s0.8-0.4,1.2-0.4c0.7,0,1.3,0.2,1.7,0.7c0.4,0.5,0.6,1.2,0.6,2v0.4h-3.8
		c0,0.5,0.2,1,0.5,1.3s0.7,0.5,1.2,0.5c0.3,0,0.6-0.1,0.8-0.2c0.2-0.1,0.4-0.3,0.6-0.5l0.6,0.5C467.5,524.8,466.8,525.2,465.9,525.2
		z M465.8,520.2c-0.4,0-0.7,0.1-1,0.4s-0.4,0.7-0.5,1.2h2.8v-0.1c0-0.5-0.2-0.9-0.4-1.1C466.5,520.3,466.2,520.2,465.8,520.2z
		 M469.8,519.5v0.7c0.4-0.5,1-0.8,1.7-0.8c1.2,0,1.8,0.7,1.8,2v3.7h-1v-3.7c0-0.4-0.1-0.7-0.3-0.9c-0.2-0.2-0.5-0.3-0.8-0.3
		s-0.6,0.1-0.8,0.2c-0.2,0.2-0.4,0.4-0.5,0.6v4H469v-5.6L469.8,519.5L469.8,519.5z M477.3,524.5c0.3,0,0.6-0.1,0.9-0.3
		c0.3-0.2,0.4-0.5,0.4-0.8h0.9c0,0.3-0.1,0.6-0.3,0.9s-0.5,0.5-0.8,0.7s-0.7,0.3-1.1,0.3c-0.8,0-1.4-0.3-1.8-0.8
		c-0.4-0.5-0.7-1.2-0.7-2.1v-0.2c0-0.5,0.1-1,0.3-1.4c0.2-0.4,0.5-0.7,0.9-1c0.4-0.2,0.8-0.4,1.3-0.4c0.6,0,1.1,0.2,1.6,0.6
		c0.4,0.4,0.6,0.9,0.7,1.5h-0.9c0-0.4-0.2-0.7-0.4-0.9c-0.2-0.2-0.5-0.3-0.9-0.3c-0.5,0-0.9,0.2-1.1,0.5c-0.3,0.3-0.4,0.9-0.4,1.5
		v0.2c0,0.6,0.1,1.1,0.4,1.5C476.4,524.2,476.8,524.5,477.3,524.5z M482.1,523.8l1.3-4.2h1l-2.2,6.4c-0.3,0.9-0.9,1.4-1.6,1.4h-0.2
		l-0.3-0.1v-0.8h0.2c0.3,0,0.6-0.1,0.8-0.2c0.2-0.1,0.3-0.4,0.5-0.7l0.2-0.6l-2-5.5h1L482.1,523.8z M487.8,522.2
		c0,0.8-0.1,1.5-0.3,2.2s-0.5,1.3-0.9,1.9c-0.4,0.6-0.8,1-1.3,1.3l-0.2-0.6c0.5-0.4,1-1,1.3-1.9c0.3-0.9,0.5-1.8,0.5-2.8V522
		c0-0.7-0.1-1.4-0.2-2c-0.1-0.6-0.4-1.2-0.6-1.7c-0.3-0.5-0.6-0.9-0.9-1.2l0.2-0.6c0.4,0.2,0.9,0.7,1.3,1.3c0.4,0.6,0.7,1.2,0.9,2
		C487.7,520.5,487.8,521.3,487.8,522.2z"/>
	<path class="st20" d="M519.2,522.8c-0.1,0.8-0.4,1.4-0.9,1.8c-0.5,0.4-1.1,0.6-2,0.6s-1.6-0.3-2.1-0.9c-0.5-0.6-0.8-1.5-0.8-2.6
		v-0.7c0-0.7,0.1-1.3,0.4-1.8c0.2-0.5,0.6-0.9,1.1-1.2c0.5-0.3,1-0.4,1.6-0.4c0.8,0,1.4,0.2,1.9,0.7c0.5,0.4,0.8,1.1,0.9,1.8h-1
		c-0.1-0.6-0.3-1-0.6-1.3s-0.7-0.4-1.2-0.4c-0.6,0-1.1,0.2-1.5,0.7s-0.5,1.1-0.5,2v0.7c0,0.8,0.2,1.5,0.5,2s0.8,0.7,1.4,0.7
		c0.5,0,1-0.1,1.3-0.4s0.5-0.7,0.6-1.3L519.2,522.8L519.2,522.8z M520.4,522.2c0-0.5,0.1-1,0.3-1.5c0.2-0.4,0.5-0.8,0.9-1
		s0.8-0.4,1.3-0.4c0.8,0,1.4,0.3,1.8,0.8c0.5,0.5,0.7,1.2,0.7,2.1v0.1c0,0.5-0.1,1-0.3,1.5c-0.2,0.4-0.5,0.8-0.9,1s-0.8,0.4-1.3,0.4
		c-0.8,0-1.4-0.3-1.8-0.8C520.6,524,520.4,523.2,520.4,522.2L520.4,522.2z M521.3,522.5c0,0.6,0.1,1.1,0.4,1.5
		c0.3,0.4,0.7,0.6,1.2,0.6s0.9-0.2,1.2-0.6c0.3-0.4,0.4-0.9,0.4-1.6c0-0.6-0.1-1.1-0.4-1.5c-0.3-0.4-0.7-0.6-1.2-0.6
		s-0.8,0.2-1.1,0.6C521.5,521.2,521.3,521.8,521.3,522.5z M529,524.5c0.3,0,0.6-0.1,0.9-0.3c0.3-0.2,0.4-0.5,0.4-0.8h0.9
		c0,0.3-0.1,0.6-0.3,0.9s-0.5,0.5-0.8,0.7s-0.7,0.3-1.1,0.3c-0.8,0-1.4-0.3-1.8-0.8c-0.4-0.5-0.7-1.2-0.7-2.1v-0.2
		c0-0.5,0.1-1,0.3-1.4c0.2-0.4,0.5-0.7,0.9-1c0.4-0.2,0.8-0.4,1.3-0.4c0.6,0,1.1,0.2,1.6,0.6c0.4,0.4,0.6,0.9,0.7,1.5h-0.9
		c0-0.4-0.2-0.7-0.4-0.9c-0.2-0.2-0.5-0.3-0.9-0.3c-0.5,0-0.9,0.2-1.1,0.5c-0.3,0.3-0.4,0.9-0.4,1.5v0.2c0,0.6,0.1,1.1,0.4,1.5
		C528.1,524.2,528.5,524.5,529,524.5z M533.6,522.5l-0.6,0.6v2h-0.9v-7.9h0.9v4.8l0.5-0.6l1.7-1.8h1.2l-2.2,2.3l2.4,3.2h-1.1
		L533.6,522.5z M540,520.5c-0.1,0-0.3,0-0.5,0c-0.6,0-1.1,0.3-1.3,0.8v4h-0.9v-5.6h0.9v0.6c0.3-0.5,0.8-0.7,1.3-0.7
		c0.2,0,0.3,0,0.4,0.1L540,520.5L540,520.5z M540.6,522.2c0-0.5,0.1-1,0.3-1.5c0.2-0.4,0.5-0.8,0.9-1s0.8-0.4,1.3-0.4
		c0.8,0,1.4,0.3,1.8,0.8c0.5,0.5,0.7,1.2,0.7,2.1v0.1c0,0.5-0.1,1-0.3,1.5c-0.2,0.4-0.5,0.8-0.9,1s-0.8,0.4-1.3,0.4
		c-0.8,0-1.4-0.3-1.8-0.8C540.8,524,540.6,523.2,540.6,522.2L540.6,522.2z M541.6,522.5c0,0.6,0.1,1.1,0.4,1.5
		c0.3,0.4,0.7,0.6,1.2,0.6s0.9-0.2,1.2-0.6c0.3-0.4,0.4-0.9,0.4-1.6c0-0.6-0.1-1.1-0.4-1.5c-0.3-0.4-0.7-0.6-1.2-0.6
		s-0.8,0.2-1.1,0.6C541.7,521.2,541.6,521.8,541.6,522.5z M550.4,525.2c-0.1-0.1-0.1-0.3-0.1-0.6c-0.4,0.5-1,0.7-1.6,0.7
		c-0.5,0-1-0.2-1.4-0.5c-0.3-0.3-0.5-0.7-0.5-1.2c0-0.6,0.2-1,0.7-1.3c0.4-0.3,1.1-0.5,1.9-0.5h0.9v-0.4c0-0.3-0.1-0.6-0.3-0.8
		c-0.2-0.2-0.5-0.3-0.9-0.3c-0.3,0-0.6,0.1-0.9,0.3c-0.2,0.2-0.3,0.4-0.3,0.6h-1c0-0.3,0.1-0.6,0.3-0.8c0.2-0.3,0.5-0.5,0.8-0.6
		c0.3-0.2,0.7-0.2,1.1-0.2c0.7,0,1.2,0.2,1.5,0.5c0.4,0.3,0.6,0.8,0.6,1.3v2.6c0,0.5,0.1,0.9,0.2,1.2v0.1h-1V525.2z M548.9,524.5
		c0.3,0,0.6-0.1,0.9-0.2c0.3-0.2,0.5-0.4,0.6-0.6v-1.1h-0.7c-1.2,0-1.8,0.3-1.8,1c0,0.3,0.1,0.5,0.3,0.7
		C548.3,524.3,548.6,524.5,548.9,524.5z M555.4,524.5c0.3,0,0.6-0.1,0.9-0.3c0.3-0.2,0.4-0.5,0.4-0.8h0.9c0,0.3-0.1,0.6-0.3,0.9
		s-0.5,0.5-0.8,0.7s-0.7,0.3-1.1,0.3c-0.8,0-1.4-0.3-1.8-0.8c-0.4-0.5-0.7-1.2-0.7-2.1v-0.2c0-0.5,0.1-1,0.3-1.4
		c0.2-0.4,0.5-0.7,0.9-1c0.4-0.2,0.8-0.4,1.3-0.4c0.6,0,1.1,0.2,1.6,0.6c0.4,0.4,0.6,0.9,0.7,1.5h-0.9c0-0.4-0.2-0.7-0.4-0.9
		c-0.2-0.2-0.5-0.3-0.9-0.3c-0.5,0-0.9,0.2-1.1,0.5c-0.3,0.3-0.4,0.9-0.4,1.5v0.2c0,0.6,0.1,1.1,0.4,1.5
		C554.5,524.2,554.9,524.5,555.4,524.5z M559.4,520.2c0.4-0.5,1-0.8,1.6-0.8c1.2,0,1.8,0.7,1.8,2v3.7h-1v-3.7c0-0.4-0.1-0.7-0.3-0.9
		s-0.5-0.3-0.8-0.3s-0.6,0.1-0.8,0.2c-0.2,0.2-0.4,0.4-0.5,0.6v4h-0.9v-7.9h0.9V520.2z M564.7,525.2v-7.5h2.1c0.7,0,1.2,0.1,1.7,0.4
		s0.9,0.7,1.2,1.2s0.4,1.1,0.4,1.8v0.5c0,0.7-0.1,1.3-0.4,1.9c-0.3,0.5-0.7,0.9-1.2,1.2c-0.5,0.3-1.1,0.4-1.8,0.4h-2V525.2z
		 M565.7,518.5v5.9h1c0.8,0,1.4-0.2,1.8-0.7c0.4-0.5,0.6-1.2,0.6-2v-0.4c0-0.9-0.2-1.5-0.6-2c-0.4-0.5-1-0.7-1.7-0.7L565.7,518.5
		L565.7,518.5z M571.8,525.2v-7.5h2.5c0.8,0,1.4,0.2,1.8,0.5c0.4,0.3,0.6,0.8,0.6,1.5c0,0.4-0.1,0.7-0.3,0.9
		c-0.2,0.3-0.5,0.5-0.8,0.6c0.4,0.1,0.7,0.3,1,0.6c0.2,0.3,0.4,0.7,0.4,1.1c0,0.7-0.2,1.2-0.7,1.6c-0.4,0.4-1,0.6-1.8,0.6
		L571.8,525.2L571.8,525.2z M572.8,521.7v2.7h1.6c0.5,0,0.8-0.1,1.1-0.4c0.3-0.2,0.4-0.6,0.4-1c0-0.9-0.5-1.3-1.5-1.3H572.8
		L572.8,521.7z M572.8,520.8h1.5c0.4,0,0.8-0.1,1-0.3c0.3-0.2,0.4-0.5,0.4-0.9c0-0.4-0.1-0.7-0.4-0.9c-0.2-0.2-0.6-0.3-1.1-0.3h-1.5
		L572.8,520.8L572.8,520.8z M582.2,522.8l0.2,1l0.2-0.9l1.5-5.2h0.8l1.4,5.2l0.2,0.9l0.2-1l1.2-5.1h1l-1.8,7.5h-0.9l-1.6-5.5
		l-0.1-0.6l-0.1,0.6l-1.6,5.5h-0.9l-1.8-7.5h1L582.2,522.8z M592.8,520.5c-0.1,0-0.3,0-0.5,0c-0.6,0-1.1,0.3-1.3,0.8v4h-0.9v-5.6
		h0.9v0.6c0.3-0.5,0.8-0.7,1.3-0.7c0.2,0,0.3,0,0.4,0.1L592.8,520.5L592.8,520.5z M594.7,525.2h-0.9v-5.6h0.9V525.2z M593.6,518
		c0-0.2,0-0.3,0.1-0.4c0.1-0.1,0.2-0.2,0.4-0.2s0.3,0.1,0.4,0.2c0.1,0.1,0.2,0.2,0.2,0.4c0,0.1-0.1,0.3-0.2,0.4
		c-0.1,0.1-0.2,0.2-0.4,0.2s-0.3-0.1-0.4-0.2C593.7,518.3,593.6,518.2,593.6,518z M597.6,518.2v1.3h1v0.7h-1v3.4
		c0,0.2,0,0.4,0.1,0.5c0.1,0.1,0.2,0.2,0.5,0.2c0.1,0,0.3,0,0.5-0.1v0.8c-0.2,0.1-0.5,0.1-0.7,0.1c-0.4,0-0.7-0.1-1-0.4
		c-0.2-0.3-0.3-0.6-0.3-1.1v-3.4h-1v-0.7h1v-1.3H597.6z M602.1,525.2c-0.8,0-1.4-0.2-1.9-0.7s-0.7-1.2-0.7-2v-0.2
		c0-0.6,0.1-1.1,0.3-1.5c0.2-0.4,0.5-0.8,0.9-1s0.8-0.4,1.2-0.4c0.7,0,1.3,0.2,1.7,0.7s0.6,1.2,0.6,2v0.4h-3.8c0,0.5,0.2,1,0.5,1.3
		s0.7,0.5,1.2,0.5c0.3,0,0.6-0.1,0.8-0.2c0.2-0.1,0.4-0.3,0.6-0.5l0.6,0.5C603.7,524.8,603,525.2,602.1,525.2z M602,520.2
		c-0.4,0-0.7,0.1-1,0.4s-0.4,0.7-0.5,1.2h2.8v-0.1c0-0.5-0.2-0.9-0.4-1.1C602.7,520.3,602.4,520.2,602,520.2z M608.3,523.7
		c0-0.3-0.1-0.5-0.3-0.6c-0.2-0.1-0.5-0.3-1-0.4c-0.5-0.1-0.9-0.2-1.1-0.4c-0.2-0.2-0.5-0.3-0.6-0.5s-0.2-0.4-0.2-0.7
		c0-0.5,0.2-0.8,0.6-1.2c0.4-0.3,0.9-0.5,1.5-0.5s1.1,0.2,1.5,0.5s0.6,0.7,0.6,1.2h-0.9c0-0.3-0.1-0.5-0.3-0.7s-0.5-0.3-0.8-0.3
		s-0.6,0.1-0.8,0.2c-0.2,0.1-0.3,0.3-0.3,0.6c0,0.2,0.1,0.4,0.3,0.5c0.2,0.1,0.5,0.2,1,0.3s0.9,0.2,1.2,0.4c0.3,0.1,0.5,0.3,0.6,0.5
		s0.2,0.5,0.2,0.8c0,0.5-0.2,0.9-0.6,1.2c-0.4,0.3-0.9,0.5-1.5,0.5c-0.4,0-0.8-0.1-1.2-0.2c-0.3-0.2-0.6-0.4-0.8-0.7
		c-0.2-0.3-0.3-0.6-0.3-0.9h0.9c0,0.3,0.1,0.6,0.4,0.8c0.2,0.2,0.6,0.3,0.9,0.3c0.4,0,0.6-0.1,0.9-0.2
		C608.5,524,608.3,524,608.3,523.7z M612.9,522c0-0.8,0.1-1.5,0.3-2.2s0.5-1.4,0.9-2c0.4-0.6,0.8-1,1.3-1.2l0.2,0.6
		c-0.5,0.4-0.9,1-1.2,1.8s-0.5,1.7-0.5,2.7v0.4c0,1.3,0.2,2.5,0.7,3.4c0.3,0.6,0.6,1,1,1.4l-0.2,0.6c-0.5-0.2-0.9-0.7-1.3-1.3
		C613.3,525.2,612.9,523.8,612.9,522z M619.5,525.2h-0.9v-6.3l-1.9,0.7v-0.9l2.7-1h0.1L619.5,525.2L619.5,525.2z M627.1,519.5
		c0,0.4-0.1,0.7-0.3,1s-0.5,0.5-0.8,0.7c0.4,0.2,0.7,0.4,0.9,0.7s0.3,0.7,0.3,1.1c0,0.6-0.2,1.2-0.7,1.6c-0.4,0.4-1,0.6-1.7,0.6
		s-1.3-0.2-1.7-0.6c-0.4-0.4-0.6-0.9-0.6-1.6c0-0.4,0.1-0.8,0.3-1.1c0.2-0.3,0.5-0.6,0.9-0.7c-0.3-0.2-0.6-0.4-0.8-0.7
		c-0.2-0.3-0.3-0.6-0.3-1c0-0.6,0.2-1.1,0.6-1.5c0.4-0.4,0.9-0.6,1.6-0.6c0.7,0,1.2,0.2,1.6,0.6C626.9,518.5,627.1,519,627.1,519.5z
		 M626.3,523c0-0.4-0.1-0.8-0.4-1c-0.3-0.3-0.6-0.4-1-0.4s-0.8,0.1-1,0.4c-0.3,0.3-0.4,0.6-0.4,1c0,0.4,0.1,0.8,0.4,1
		c0.3,0.2,0.6,0.4,1.1,0.4c0.4,0,0.8-0.1,1-0.4C626.2,523.8,626.3,523.5,626.3,523z M624.9,518.3c-0.4,0-0.7,0.1-0.9,0.4
		c-0.2,0.2-0.3,0.5-0.3,0.9c0,0.4,0.1,0.7,0.3,0.9s0.5,0.4,0.9,0.4s0.7-0.1,0.9-0.4c0.2-0.2,0.3-0.5,0.3-0.9c0-0.4-0.1-0.7-0.4-0.9
		C625.6,518.5,625.3,518.3,624.9,518.3z M629.7,519.5v0.6c0.4-0.5,1-0.7,1.6-0.7c0.8,0,1.3,0.3,1.6,0.9c0.2-0.3,0.4-0.5,0.7-0.6
		c0.3-0.2,0.7-0.2,1.1-0.2c1.2,0,1.9,0.6,1.9,1.9v3.7h-0.9v-3.7c0-0.4-0.1-0.7-0.3-0.9c-0.2-0.2-0.5-0.3-0.9-0.3s-0.7,0.1-0.9,0.3
		s-0.4,0.5-0.4,0.9v3.7h-0.9v-3.7c0-0.8-0.4-1.2-1.2-1.2c-0.6,0-1,0.3-1.3,0.8v4.1h-1v-5.6L629.7,519.5L629.7,519.5z M641.7,523.7
		c0-0.3-0.1-0.5-0.3-0.6c-0.2-0.1-0.5-0.3-1-0.4c-0.5-0.1-0.9-0.2-1.1-0.4c-0.3-0.1-0.5-0.3-0.6-0.5s-0.2-0.4-0.2-0.7
		c0-0.5,0.2-0.8,0.6-1.2c0.4-0.3,0.9-0.5,1.5-0.5s1.1,0.2,1.5,0.5s0.6,0.7,0.6,1.2h-0.9c0-0.3-0.1-0.5-0.3-0.7s-0.5-0.3-0.8-0.3
		s-0.6,0.1-0.8,0.2c-0.2,0.1-0.3,0.3-0.3,0.6c0,0.2,0.1,0.4,0.3,0.5c0.2,0.1,0.5,0.2,1,0.3s0.9,0.2,1.2,0.4c0.3,0.1,0.5,0.3,0.6,0.5
		s0.2,0.5,0.2,0.8c0,0.5-0.2,0.9-0.6,1.2c-0.4,0.3-0.9,0.5-1.5,0.5c-0.4,0-0.8-0.1-1.2-0.2c-0.3-0.2-0.6-0.4-0.8-0.7
		c-0.2-0.3-0.3-0.6-0.3-0.9h0.9c0,0.3,0.1,0.6,0.4,0.8c0.2,0.2,0.6,0.3,0.9,0.3c0.4,0,0.6-0.1,0.9-0.2
		C641.6,524.2,641.7,524,641.7,523.7z M647.4,525.2h-0.9v-7.9h0.9V525.2z M652.5,525.2c-0.1-0.1-0.1-0.3-0.1-0.6
		c-0.4,0.5-1,0.7-1.6,0.7c-0.5,0-1-0.2-1.4-0.5c-0.3-0.3-0.5-0.7-0.5-1.2c0-0.6,0.2-1,0.7-1.3c0.4-0.3,1.1-0.5,1.9-0.5h0.9v-0.4
		c0-0.3-0.1-0.6-0.3-0.8c-0.2-0.2-0.5-0.3-0.9-0.3c-0.3,0-0.6,0.1-0.9,0.3c-0.2,0.2-0.3,0.4-0.3,0.6h-1c0-0.3,0.1-0.6,0.3-0.8
		c0.2-0.3,0.5-0.5,0.8-0.6c0.3-0.2,0.7-0.2,1.1-0.2c0.7,0,1.2,0.2,1.5,0.5c0.4,0.3,0.6,0.8,0.6,1.3v2.6c0,0.5,0.1,0.9,0.2,1.2v0.1
		h-1V525.2z M650.9,524.5c0.3,0,0.6-0.1,0.9-0.2c0.3-0.2,0.5-0.4,0.6-0.6v-1.1h-0.7c-1.2,0-1.8,0.3-1.8,1c0,0.3,0.1,0.5,0.3,0.7
		C650.3,524.3,650.6,524.5,650.9,524.5z M656.5,518.2v1.3h1v0.7h-1v3.4c0,0.2,0,0.4,0.1,0.5c0.1,0.1,0.2,0.2,0.5,0.2
		c0.1,0,0.3,0,0.5-0.1v0.8c-0.2,0.1-0.5,0.1-0.7,0.1c-0.4,0-0.7-0.1-1-0.4c-0.2-0.3-0.3-0.6-0.3-1.1v-3.4h-1v-0.7h1v-1.3H656.5z
		 M661,525.2c-0.8,0-1.4-0.2-1.9-0.7s-0.7-1.2-0.7-2v-0.2c0-0.6,0.1-1.1,0.3-1.5c0.2-0.4,0.5-0.8,0.9-1s0.8-0.4,1.2-0.4
		c0.7,0,1.3,0.2,1.7,0.7s0.6,1.2,0.6,2v0.4h-3.8c0,0.5,0.2,1,0.5,1.3s0.7,0.5,1.2,0.5c0.3,0,0.6-0.1,0.8-0.2
		c0.2-0.1,0.4-0.3,0.6-0.5l0.6,0.5C662.7,524.8,662,525.2,661,525.2z M660.9,520.2c-0.4,0-0.7,0.1-1,0.4s-0.4,0.7-0.5,1.2h2.8v-0.1
		c0-0.5-0.2-0.9-0.4-1.1C661.6,520.3,661.3,520.2,660.9,520.2z M664.9,519.5v0.7c0.4-0.5,1-0.8,1.7-0.8c1.2,0,1.8,0.7,1.8,2v3.7h-1
		v-3.7c0-0.4-0.1-0.7-0.3-0.9c-0.2-0.2-0.5-0.3-0.8-0.3s-0.6,0.1-0.8,0.2c-0.2,0.2-0.4,0.4-0.5,0.6v4h-1v-5.6L664.9,519.5
		L664.9,519.5z M672.4,524.5c0.3,0,0.6-0.1,0.9-0.3c0.3-0.2,0.4-0.5,0.4-0.8h0.9c0,0.3-0.1,0.6-0.3,0.9s-0.5,0.5-0.8,0.7
		s-0.7,0.3-1.1,0.3c-0.8,0-1.4-0.3-1.8-0.8c-0.4-0.5-0.7-1.2-0.7-2.1v-0.2c0-0.5,0.1-1,0.3-1.4c0.2-0.4,0.5-0.7,0.9-1
		c0.4-0.2,0.8-0.4,1.3-0.4c0.6,0,1.1,0.2,1.6,0.6c0.4,0.4,0.6,0.9,0.7,1.5h-0.9c0-0.4-0.2-0.7-0.4-0.9c-0.2-0.2-0.5-0.3-0.9-0.3
		c-0.5,0-0.9,0.2-1.1,0.5c-0.3,0.3-0.4,0.9-0.4,1.5v0.2c0,0.6,0.1,1.1,0.4,1.5C671.5,524.2,671.9,524.5,672.4,524.5z M677.2,523.8
		l1.3-4.2h1l-2.2,6.4c-0.3,0.9-0.9,1.4-1.6,1.4h-0.2l-0.3-0.1v-0.8h0.2c0.3,0,0.6-0.1,0.8-0.2c0.2-0.1,0.3-0.4,0.5-0.7l0.2-0.6
		l-2-5.5h1L677.2,523.8z M682.9,522.2c0,0.8-0.1,1.5-0.3,2.2s-0.5,1.3-0.9,1.9c-0.4,0.6-0.8,1-1.3,1.3l-0.2-0.6c0.5-0.4,1-1,1.3-1.9
		c0.3-0.9,0.5-1.8,0.5-2.8V522c0-0.7-0.1-1.4-0.2-2c-0.1-0.6-0.4-1.2-0.6-1.7c-0.3-0.5-0.6-0.9-0.9-1.2l0.2-0.6
		c0.4,0.2,0.9,0.7,1.3,1.3c0.4,0.6,0.7,1.2,0.9,2C682.8,520.5,682.9,521.3,682.9,522.2z"/>
	<path class="st20" d="M344.6,167.4c0,0.7-0.1,1.4-0.4,1.9c-0.2,0.5-0.6,1-1.1,1.3c-0.4,0.3-1,0.4-1.6,0.4s-1.1-0.1-1.6-0.4
		c-0.5-0.3-0.8-0.7-1.1-1.2c-0.2-0.5-0.4-1.2-0.4-1.9v-0.5c0-0.7,0.1-1.4,0.4-1.9s0.6-1,1.1-1.3c0.5-0.3,1-0.5,1.6-0.5
		s1.1,0.1,1.6,0.4s0.8,0.7,1.1,1.3c0.2,0.5,0.4,1.2,0.4,1.9V167.4z M343.6,167.1c0-0.9-0.2-1.6-0.5-2c-0.4-0.5-0.9-0.7-1.5-0.7
		s-1.1,0.2-1.5,0.7s-0.5,1.1-0.5,2v0.6c0,0.9,0.2,1.5,0.5,2c0.4,0.5,0.9,0.7,1.5,0.7s1.1-0.2,1.5-0.7s0.5-1.1,0.5-2V167.1z
		 M350.4,168.2c0,0.8-0.2,1.5-0.6,2s-0.9,0.8-1.6,0.8s-1.2-0.2-1.6-0.6v2.7h-0.9v-7.7h0.9v0.6c0.4-0.5,0.9-0.7,1.6-0.7
		s1.2,0.3,1.6,0.8C350.2,166.6,350.4,167.2,350.4,168.2L350.4,168.2z M349.5,168.1c0-0.6-0.1-1.1-0.4-1.5c-0.3-0.4-0.6-0.5-1.1-0.5
		c-0.6,0-1,0.3-1.3,0.8v2.7c0.3,0.5,0.7,0.8,1.3,0.8c0.5,0,0.8-0.2,1.1-0.5C349.3,169.4,349.5,168.9,349.5,168.1z M354.2,171.1
		c-0.8,0-1.4-0.2-1.9-0.7s-0.7-1.2-0.7-2v-0.2c0-0.6,0.1-1.1,0.3-1.5c0.2-0.4,0.5-0.8,0.9-1s0.8-0.4,1.2-0.4c0.7,0,1.3,0.2,1.7,0.7
		c0.4,0.5,0.6,1.2,0.6,2v0.4h-3.8c0,0.5,0.2,1,0.5,1.3s0.7,0.5,1.2,0.5c0.3,0,0.6-0.1,0.8-0.2c0.2-0.1,0.4-0.3,0.6-0.5l0.6,0.5
		C355.8,170.8,355.1,171.1,354.2,171.1z M354.1,166.1c-0.4,0-0.7,0.1-1,0.4s-0.4,0.7-0.5,1.2h2.8v-0.1c0-0.5-0.2-0.9-0.4-1.1
		C354.8,166.2,354.5,166.1,354.1,166.1z M359.9,166.2c-0.1,0-0.3,0-0.5,0c-0.6,0-1.1,0.3-1.3,0.8v4h-0.9v-5.6h0.9v0.6
		c0.3-0.5,0.8-0.7,1.3-0.7c0.2,0,0.3,0,0.4,0.1v0.8H359.9z M364.1,171.1c-0.1-0.1-0.1-0.3-0.1-0.6c-0.4,0.5-1,0.7-1.6,0.7
		c-0.5,0-1-0.2-1.4-0.5c-0.3-0.3-0.5-0.7-0.5-1.2c0-0.6,0.2-1,0.7-1.3c0.4-0.3,1.1-0.5,1.9-0.5h0.9v-0.4c0-0.3-0.1-0.6-0.3-0.8
		c-0.2-0.2-0.5-0.3-0.9-0.3c-0.3,0-0.6,0.1-0.9,0.3c-0.2,0.2-0.3,0.4-0.3,0.6h-1c0-0.3,0.1-0.6,0.3-0.8c0.2-0.3,0.5-0.5,0.8-0.6
		c0.3-0.2,0.7-0.2,1.1-0.2c0.7,0,1.2,0.2,1.5,0.5c0.4,0.3,0.6,0.8,0.6,1.3v2.6c0,0.5,0.1,0.9,0.2,1.2v0.1L364.1,171.1L364.1,171.1z
		 M362.5,170.2c0.3,0,0.6-0.1,0.9-0.2c0.3-0.2,0.5-0.4,0.6-0.6v-1.1h-0.7c-1.2,0-1.8,0.3-1.8,1c0,0.3,0.1,0.5,0.3,0.7
		C362,170.1,362.2,170.2,362.5,170.2z M368.1,164.1v1.3h1v0.7h-1v3.4c0,0.2,0,0.4,0.1,0.5c0.1,0.1,0.2,0.2,0.5,0.2
		c0.1,0,0.3,0,0.5-0.1v0.8c-0.2,0.1-0.5,0.1-0.7,0.1c-0.4,0-0.7-0.1-1-0.4c-0.2-0.3-0.3-0.6-0.3-1.1v-3.4h-1v-0.7h1v-1.3H368.1z
		 M371.4,171.1h-0.9v-5.6h0.9V171.1z M370.4,163.9c0-0.2,0-0.3,0.1-0.4c0.1-0.1,0.2-0.2,0.4-0.2s0.3,0.1,0.4,0.2
		c0.1,0.1,0.2,0.2,0.2,0.4c0,0.1-0.1,0.3-0.2,0.4c-0.1,0.1-0.2,0.2-0.4,0.2s-0.3-0.1-0.4-0.2S370.4,164.1,370.4,163.9z M372.7,168.1
		c0-0.5,0.1-1,0.3-1.5c0.2-0.4,0.5-0.8,0.9-1c0.4-0.2,0.8-0.4,1.3-0.4c0.8,0,1.4,0.3,1.8,0.8c0.5,0.5,0.7,1.2,0.7,2.1v0.1
		c0,0.5-0.1,1-0.3,1.5c-0.2,0.4-0.5,0.8-0.9,1c-0.4,0.2-0.8,0.4-1.3,0.4c-0.8,0-1.4-0.3-1.8-0.8C373,169.8,372.7,169.1,372.7,168.1
		L372.7,168.1z M373.7,168.2c0,0.6,0.1,1.1,0.4,1.5s0.7,0.6,1.2,0.6s0.9-0.2,1.2-0.6c0.3-0.4,0.4-0.9,0.4-1.6c0-0.6-0.1-1.1-0.4-1.5
		c-0.3-0.4-0.7-0.6-1.2-0.6s-0.8,0.2-1.1,0.6C373.8,167.1,373.7,167.6,373.7,168.2z M380,165.4v0.7c0.4-0.5,1-0.8,1.7-0.8
		c1.2,0,1.8,0.7,1.8,2v3.7h-1v-3.7c0-0.4-0.1-0.7-0.3-0.9c-0.2-0.2-0.5-0.3-0.8-0.3s-0.6,0.1-0.8,0.2c-0.2,0.2-0.4,0.4-0.5,0.6v4
		h-0.9v-5.6L380,165.4L380,165.4z M388.6,169.6c0-0.3-0.1-0.5-0.3-0.6c-0.2-0.1-0.5-0.3-1-0.4c-0.5-0.1-0.9-0.2-1.1-0.4
		c-0.2-0.2-0.5-0.3-0.6-0.5c-0.1-0.2-0.2-0.4-0.2-0.7c0-0.5,0.2-0.8,0.6-1.2c0.4-0.3,0.9-0.5,1.5-0.5s1.1,0.2,1.5,0.5
		c0.4,0.3,0.6,0.7,0.6,1.2h-0.9c0-0.3-0.1-0.5-0.3-0.7c-0.2-0.2-0.5-0.3-0.8-0.3s-0.6,0.1-0.8,0.2c-0.2,0.1-0.3,0.3-0.3,0.6
		c0,0.2,0.1,0.4,0.3,0.5c0.2,0.1,0.5,0.2,1,0.3c0.5,0.1,0.9,0.2,1.2,0.4s0.5,0.3,0.6,0.5s0.2,0.5,0.2,0.8c0,0.5-0.2,0.9-0.6,1.2
		s-0.9,0.5-1.5,0.5c-0.4,0-0.8-0.1-1.2-0.2c-0.3-0.2-0.6-0.4-0.8-0.7c-0.2-0.3-0.3-0.6-0.3-0.9h0.9c0,0.3,0.1,0.6,0.4,0.8
		c0.2,0.2,0.6,0.3,0.9,0.3c0.4,0,0.6-0.1,0.9-0.2C388.4,169.9,388.6,169.8,388.6,169.6z M394.4,168.1v2.9h-1v-7.5h2.8
		c0.8,0,1.5,0.2,1.9,0.6c0.5,0.4,0.7,1,0.7,1.7s-0.2,1.3-0.7,1.7c-0.4,0.4-1.1,0.6-2,0.6H394.4z M394.4,167.2h1.8
		c0.5,0,0.9-0.1,1.2-0.4c0.3-0.2,0.4-0.6,0.4-1.1c0-0.4-0.1-0.8-0.4-1.1c-0.3-0.3-0.7-0.4-1.2-0.4h-1.8V167.2z M402.6,171.1
		c-0.8,0-1.4-0.2-1.9-0.7s-0.7-1.2-0.7-2v-0.2c0-0.6,0.1-1.1,0.3-1.5c0.2-0.4,0.5-0.8,0.9-1s0.8-0.4,1.2-0.4c0.7,0,1.3,0.2,1.7,0.7
		c0.4,0.5,0.6,1.2,0.6,2v0.4H401c0,0.5,0.2,1,0.5,1.3s0.7,0.5,1.2,0.5c0.3,0,0.6-0.1,0.8-0.2c0.2-0.1,0.4-0.3,0.6-0.5l0.6,0.5
		C404.2,170.8,403.5,171.1,402.6,171.1z M402.5,166.1c-0.4,0-0.7,0.1-1,0.4s-0.4,0.7-0.5,1.2h2.8v-0.1c0-0.5-0.2-0.9-0.4-1.1
		C403.2,166.2,402.9,166.1,402.5,166.1z M408.2,166.2c-0.1,0-0.3,0-0.5,0c-0.6,0-1.1,0.3-1.3,0.8v4h-0.9v-5.6h0.9v0.6
		c0.3-0.5,0.8-0.7,1.3-0.7c0.2,0,0.3,0,0.4,0.1v0.8H408.2z M414.1,167.6c-0.8-0.2-1.5-0.5-1.9-0.9s-0.6-0.8-0.6-1.3
		c0-0.6,0.2-1.1,0.7-1.5c0.5-0.4,1.1-0.6,1.9-0.6c0.5,0,1,0.1,1.4,0.3c0.4,0.2,0.7,0.5,0.9,0.8c0.2,0.3,0.3,0.7,0.3,1.2h-1
		c0-0.5-0.1-0.8-0.4-1.1s-0.7-0.4-1.2-0.4s-0.9,0.1-1.1,0.3c-0.3,0.2-0.4,0.5-0.4,0.9c0,0.3,0.1,0.6,0.4,0.8
		c0.3,0.2,0.7,0.4,1.3,0.6c0.6,0.2,1.1,0.4,1.5,0.6c0.4,0.2,0.6,0.5,0.8,0.7c0.2,0.3,0.3,0.6,0.3,1c0,0.6-0.2,1.1-0.7,1.5
		c-0.5,0.4-1.1,0.5-1.9,0.5c-0.5,0-1-0.1-1.5-0.3c-0.4-0.2-0.8-0.5-1-0.8s-0.4-0.7-0.4-1.2h1c0,0.4,0.2,0.8,0.5,1.1
		c0.3,0.3,0.8,0.4,1.3,0.4s0.9-0.1,1.2-0.3c0.3-0.2,0.4-0.5,0.4-0.9c0-0.4-0.1-0.7-0.4-0.9C415.2,168.1,414.7,167.9,414.1,167.6z
		 M420.2,171.1c-0.8,0-1.4-0.2-1.9-0.7s-0.7-1.2-0.7-2v-0.2c0-0.6,0.1-1.1,0.3-1.5c0.2-0.4,0.5-0.8,0.9-1s0.8-0.4,1.2-0.4
		c0.7,0,1.3,0.2,1.7,0.7c0.4,0.5,0.6,1.2,0.6,2v0.4h-3.8c0,0.5,0.2,1,0.5,1.3s0.7,0.5,1.2,0.5c0.3,0,0.6-0.1,0.8-0.2
		c0.2-0.1,0.4-0.3,0.6-0.5l0.6,0.5C421.8,170.8,421.1,171.1,420.2,171.1z M420,166.1c-0.4,0-0.7,0.1-1,0.4s-0.4,0.7-0.5,1.2h2.8
		v-0.1c0-0.5-0.2-0.9-0.4-1.1C420.8,166.2,420.4,166.1,420,166.1z M425.4,170.4c0.3,0,0.6-0.1,0.9-0.3s0.4-0.5,0.4-0.8h0.9
		c0,0.3-0.1,0.6-0.3,0.9c-0.2,0.3-0.5,0.5-0.8,0.7s-0.7,0.3-1.1,0.3c-0.8,0-1.4-0.3-1.8-0.8s-0.7-1.2-0.7-2.1v-0.2
		c0-0.5,0.1-1,0.3-1.4c0.2-0.4,0.5-0.7,0.9-1c0.4-0.2,0.8-0.4,1.3-0.4c0.6,0,1.1,0.2,1.6,0.6c0.4,0.4,0.6,0.9,0.7,1.5h-0.9
		c0-0.4-0.2-0.7-0.4-0.9s-0.5-0.3-0.9-0.3c-0.5,0-0.9,0.2-1.1,0.5c-0.3,0.3-0.4,0.9-0.4,1.5v0.2c0,0.6,0.1,1.1,0.4,1.5
		C424.5,170.1,424.9,170.4,425.4,170.4z M428.2,168.1c0-0.5,0.1-1,0.3-1.5c0.2-0.4,0.5-0.8,0.9-1c0.4-0.2,0.8-0.4,1.3-0.4
		c0.8,0,1.4,0.3,1.8,0.8c0.5,0.5,0.7,1.2,0.7,2.1v0.1c0,0.5-0.1,1-0.3,1.5c-0.2,0.4-0.5,0.8-0.9,1c-0.4,0.2-0.8,0.4-1.3,0.4
		c-0.8,0-1.4-0.3-1.8-0.8C428.4,169.8,428.2,169.1,428.2,168.1L428.2,168.1z M429.1,168.2c0,0.6,0.1,1.1,0.4,1.5s0.7,0.6,1.2,0.6
		s0.9-0.2,1.2-0.6c0.3-0.4,0.4-0.9,0.4-1.6c0-0.6-0.1-1.1-0.4-1.5c-0.3-0.4-0.7-0.6-1.2-0.6s-0.8,0.2-1.1,0.6
		C429.3,167.1,429.1,167.6,429.1,168.2z M435.5,165.4v0.7c0.4-0.5,1-0.8,1.7-0.8c1.2,0,1.8,0.7,1.8,2v3.7h-1v-3.7
		c0-0.4-0.1-0.7-0.3-0.9c-0.2-0.2-0.5-0.3-0.8-0.3s-0.6,0.1-0.8,0.2c-0.2,0.2-0.4,0.4-0.5,0.6v4h-0.9v-5.6L435.5,165.4L435.5,165.4z
		 M440.5,168.1c0-0.9,0.2-1.5,0.6-2.1c0.4-0.5,0.9-0.8,1.6-0.8s1.2,0.2,1.6,0.7v-2.9h0.9v7.9h-0.9v-0.6c-0.4,0.5-0.9,0.7-1.6,0.7
		c-0.6,0-1.2-0.3-1.6-0.8S440.5,169.1,440.5,168.1L440.5,168.1z M441.4,168.2c0,0.6,0.1,1.1,0.4,1.5s0.6,0.5,1.1,0.5
		c0.6,0,1-0.3,1.3-0.8v-2.5c-0.3-0.5-0.7-0.8-1.3-0.8c-0.5,0-0.8,0.2-1.1,0.5C441.6,167.1,441.4,167.6,441.4,168.2z"/>
</g>
</svg>
