<?xml version="1.0" encoding="utf-8"?>
<!-- Generator: Adobe Illustrator 23.0.6, SVG Export Plug-In . SVG Version: 6.00 Build 0)  -->
<svg version="1.1" id="Layer_1" xmlns="http://www.w3.org/2000/svg" xmlns:xlink="http://www.w3.org/1999/xlink" x="0px" y="0px"
	 viewBox="0 0 784 578" style="enable-background:new 0 0 784 578;" xml:space="preserve">
<style type="text/css">
	.st0{fill:#FFFFFF;stroke:#DAE1E5;stroke-miterlimit:10;}
	.st1{fill:#FF6E42;}
	.st2{fill:none;stroke:#333333;stroke-miterlimit:10;}
	.st3{fill:#DAE1E5;}
	.st4{fill:none;stroke:#CCCCCC;stroke-miterlimit:10;}
	.st5{clip-path:url(#SVGID_2_);fill:#FF7D55;}
	.st6{clip-path:url(#SVGID_4_);fill:#FFB7A1;}
	.st7{clip-path:url(#SVGID_6_);fill:none;}
	.st8{clip-path:url(#SVGID_8_);fill:#FF9A7B;}
	.st9{clip-path:url(#SVGID_10_);fill:#CC5835;}
	.st10{clip-path:url(#SVGID_12_);fill:#FF8B68;}
	.st11{clip-path:url(#SVGID_14_);fill:none;}
	.st12{clip-path:url(#SVGID_16_);fill:#FF6E42;}
	.st13{clip-path:url(#SVGID_18_);fill:#45BA75;}
	.st14{clip-path:url(#SVGID_20_);fill:#8ADBAB;}
	.st15{clip-path:url(#SVGID_22_);fill:none;}
	.st16{clip-path:url(#SVGID_24_);fill:#65D193;}
	.st17{clip-path:url(#SVGID_26_);fill:#282151;}
	.st18{clip-path:url(#SVGID_28_);fill:#5B5484;}
	.st19{clip-path:url(#SVGID_30_);fill:none;}
	.st20{clip-path:url(#SVGID_32_);fill:#322965;}
	.st21{fill:none;stroke:#F75821;stroke-width:3;stroke-linecap:round;stroke-linejoin:round;stroke-miterlimit:10;}
	.st22{fill:#FFFFFF;}
	.st23{fill:none;stroke:#6AA84F;stroke-width:3;stroke-linecap:round;stroke-linejoin:round;stroke-miterlimit:10;}
	.st24{fill:none;stroke:#202951;stroke-width:3;stroke-linecap:round;stroke-linejoin:round;stroke-miterlimit:10;}
	.st25{fill:#757575;}
	.st26{fill:#322965;}
</style>
<g>
	<path class="st0" d="M767,576H17c-8.3,0-15-6.7-15-15V17C2,8.7,8.7,2,17,2h750c8.3,0,15,6.7,15,15V561C782,569.2,775.3,576,767,576
		z"/>
	<g>
		<path class="st1" d="M67.4,81.1c-1.3-1.2-1.9-3-1.9-5.4V65.1c0-0.2,0.1-0.3,0.2-0.5c0.1-0.1,0.3-0.2,0.5-0.2h2.4
			c0.2,0,0.3,0.1,0.5,0.2c0.1,0.1,0.2,0.3,0.2,0.5v10.6c0,1.4,0.3,2.4,1,3.1c0.7,0.7,1.6,1,2.8,1s2.1-0.3,2.8-1c0.7-0.7,1-1.7,1-3.1
			V65.1c0-0.2,0.1-0.3,0.2-0.5c0.1-0.1,0.3-0.2,0.5-0.2H80c0.2,0,0.3,0.1,0.5,0.2c0.1,0.1,0.2,0.3,0.2,0.5v10.6
			c0,2.4-0.6,4.2-1.9,5.4c-1.3,1.2-3.1,1.8-5.4,1.8C70.6,82.8,68.7,82.2,67.4,81.1z"/>
		<path class="st1" d="M84.1,87.3c-0.1-0.1-0.2-0.3-0.2-0.5V69.7c0-0.2,0.1-0.3,0.2-0.5c0.1-0.1,0.3-0.2,0.4-0.2h2.1
			c0.2,0,0.3,0.1,0.5,0.2c0.1,0.1,0.2,0.3,0.2,0.4v1c0.9-1.3,2.3-1.9,4.1-1.9s3.1,0.6,4,1.7s1.4,2.6,1.5,4.4c0,0.2,0,0.5,0,0.9
			s0,0.7,0,0.9c-0.1,1.8-0.5,3.3-1.5,4.4c-0.9,1.1-2.3,1.7-4,1.7s-3.1-0.6-4-1.8v6.1c0,0.2-0.1,0.3-0.2,0.5
			c-0.1,0.1-0.3,0.2-0.5,0.2h-2.3C84.4,87.6,84.2,87.4,84.1,87.3z M93.4,76.7c0-0.2,0-0.4,0-0.8c0-0.4,0-0.6,0-0.8
			c-0.1-2.3-1.1-3.4-3-3.4c-1,0-1.7,0.3-2.2,1c-0.5,0.6-0.7,1.4-0.8,2.3c0,0.2,0,0.5,0,1s0,0.8,0,1c0,0.9,0.3,1.6,0.8,2.2
			s1.2,0.9,2.2,0.9C92.3,80.1,93.3,78.9,93.4,76.7z"/>
		<path class="st1" d="M107.8,81.3c-0.8-0.8-1.2-2-1.2-3.6v-5.9h-2.1c-0.2,0-0.3-0.1-0.4-0.2c-0.1-0.1-0.2-0.3-0.2-0.4v-1.5
			c0-0.2,0.1-0.3,0.2-0.4c0.1-0.1,0.3-0.2,0.4-0.2h2.1v-4.3c0-0.2,0.1-0.3,0.2-0.5c0.1-0.1,0.3-0.2,0.4-0.2h2.2
			c0.2,0,0.3,0.1,0.5,0.2c0.1,0.1,0.2,0.3,0.2,0.5v4.3h3.2c0.2,0,0.3,0.1,0.4,0.2c0.1,0.1,0.2,0.3,0.2,0.4v1.5
			c0,0.2-0.1,0.3-0.2,0.4c-0.1,0.1-0.3,0.2-0.4,0.2H110v5.6c0,0.7,0.1,1.3,0.4,1.7c0.3,0.4,0.7,0.6,1.3,0.6h1.8
			c0.2,0,0.3,0.1,0.5,0.2c0.1,0.1,0.2,0.3,0.2,0.5v1.6c0,0.2-0.1,0.3-0.2,0.4c-0.1,0.1-0.3,0.2-0.5,0.2h-2.1
			C109.8,82.7,108.6,82.2,107.8,81.3z"/>
		<path class="st1" d="M117.7,81.3c-1.1-1-1.7-2.5-1.8-4.3v-1.1v-1.1c0.1-1.8,0.7-3.3,1.8-4.3c1.1-1,2.7-1.6,4.7-1.6
			s3.6,0.5,4.7,1.6c1.1,1,1.7,2.5,1.8,4.3c0,0.2,0,0.6,0,1.1s0,0.9,0,1.1c-0.1,1.8-0.7,3.3-1.8,4.3s-2.7,1.6-4.7,1.6
			C120.4,82.8,118.9,82.3,117.7,81.3z M124.6,79.3c0.5-0.6,0.8-1.4,0.8-2.5c0-0.2,0-0.5,0-1s0-0.8,0-1c0-1.1-0.3-2-0.8-2.5
			c-0.5-0.6-1.2-0.9-2.1-0.9c-0.9,0-1.6,0.3-2.1,0.9s-0.8,1.4-0.8,2.5v1v1c0,1.1,0.3,2,0.8,2.5c0.5,0.6,1.2,0.9,2.1,0.9
			C123.4,80.2,124.1,79.9,124.6,79.3z"/>
		<path class="st1" d="M140.3,82.2c-1.1-0.5-1.9-1.1-2.4-1.8c-0.5-0.7-0.8-1.5-0.8-2.3c0-0.2,0.1-0.3,0.2-0.4
			c0.1-0.1,0.2-0.2,0.4-0.2h2.4c0.4,0,0.6,0.2,0.8,0.5c0.4,1.2,1.5,1.8,3.4,1.8c1.1,0,1.9-0.2,2.5-0.7s0.9-1.2,0.9-2.1
			c0-0.9-0.3-1.6-0.8-2c-0.5-0.4-1.3-0.6-2.4-0.6h-2.7c-0.2,0-0.3-0.1-0.4-0.2c-0.1-0.1-0.2-0.3-0.2-0.4v-1.1c0-0.3,0.1-0.6,0.3-0.8
			l4.6-4.5h-7.4c-0.2,0-0.3-0.1-0.5-0.2c-0.1-0.1-0.2-0.3-0.2-0.4V65c0-0.2,0.1-0.3,0.2-0.5c0.1-0.1,0.3-0.2,0.5-0.2h11.2
			c0.2,0,0.3,0.1,0.5,0.2c0.1,0.1,0.2,0.3,0.2,0.5v1.6c0,0.3-0.1,0.5-0.3,0.7l-4.5,4.6h0.3c1.7,0.1,3,0.6,4,1.5
			c1,0.9,1.5,2.1,1.5,3.7c0,1.1-0.3,2.1-0.9,3c-0.6,0.8-1.5,1.5-2.5,2c-1.1,0.5-2.3,0.7-3.7,0.7C142.7,82.8,141.4,82.7,140.3,82.2z"
			/>
		<path class="st1" d="M153.2,82.4c-0.1-0.1-0.2-0.2-0.2-0.4c0-0.2,0.1-0.3,0.2-0.4l4.4-5.9l-4.1-5.6c-0.1-0.1-0.2-0.3-0.2-0.4
			c0-0.2,0.1-0.3,0.2-0.4c0.1-0.1,0.2-0.2,0.4-0.2h2.3c0.2,0,0.3,0,0.4,0.1c0.1,0.1,0.2,0.2,0.3,0.3l2.9,3.9l2.9-3.9
			c0,0,0.1-0.1,0.2-0.2c0.1-0.1,0.3-0.2,0.5-0.2h2.2c0.2,0,0.3,0.1,0.4,0.2c0.1,0.1,0.2,0.2,0.2,0.4s-0.1,0.3-0.2,0.5l-4.2,5.6
			l4.5,5.9c0.1,0.1,0.2,0.3,0.2,0.4c0,0.2-0.1,0.3-0.2,0.4c-0.1,0.1-0.2,0.2-0.4,0.2h-2.4c-0.3,0-0.5-0.1-0.7-0.4l-3.1-4.1l-3.1,4.1
			c-0.2,0.3-0.4,0.4-0.7,0.4h-2.3C153.5,82.7,153.4,82.6,153.2,82.4z"/>
		<path class="st1" d="M175.3,82.4c-0.1-0.1-0.2-0.3-0.2-0.4V65.2c0-0.2,0.1-0.3,0.2-0.5c0.1-0.1,0.3-0.2,0.5-0.2h7.5
			c2,0,3.5,0.4,4.6,1.3c1,0.9,1.5,2.1,1.5,3.7c0,0.9-0.2,1.7-0.7,2.3c-0.4,0.6-1,1.1-1.5,1.4c0.7,0.3,1.3,0.9,1.8,1.6
			s0.8,1.6,0.8,2.5c0,1.6-0.5,2.9-1.6,3.9s-2.6,1.5-4.6,1.5h-7.8C175.6,82.7,175.5,82.6,175.3,82.4z M182.8,71.8
			c0.9,0,1.6-0.2,2-0.7c0.5-0.4,0.7-1,0.7-1.7c0-0.7-0.2-1.3-0.7-1.7s-1.2-0.6-2.1-0.6h-4v4.7C178.7,71.8,182.8,71.8,182.8,71.8z
			 M183.1,79.8c0.9,0,1.6-0.2,2.1-0.7s0.8-1.1,0.8-1.9s-0.3-1.4-0.8-1.9s-1.2-0.7-2.1-0.7h-4.3v5.3L183.1,79.8L183.1,79.8z"/>
		<path class="st1" d="M193.9,81.2c-1.1-1.1-1.7-2.7-1.8-4.7v-0.6c0-2.2,0.6-3.9,1.7-5.1c1.1-1.2,2.7-1.9,4.7-1.9
			c2.1,0,3.7,0.6,4.8,1.9c1.1,1.2,1.7,2.9,1.7,5v0.5c0,0.2-0.1,0.3-0.2,0.4s-0.3,0.2-0.5,0.2h-8.6v0.2c0,1,0.3,1.8,0.8,2.4
			s1.2,0.9,2,0.9c1,0,1.8-0.4,2.4-1.2c0.2-0.2,0.3-0.3,0.4-0.4c0.1,0,0.2-0.1,0.4-0.1h2.3c0.2,0,0.3,0,0.4,0.1
			c0.1,0.1,0.2,0.2,0.2,0.4c0,0.4-0.2,0.9-0.7,1.5s-1.2,1.1-2.1,1.5s-2,0.6-3.2,0.6C196.6,82.8,195.1,82.3,193.9,81.2z M201.4,74.7
			L201.4,74.7c0-1.1-0.3-1.9-0.8-2.5s-1.2-0.9-2.1-0.9s-1.6,0.3-2.1,0.9s-0.8,1.4-0.8,2.5v0.1L201.4,74.7L201.4,74.7z"/>
		<path class="st1" d="M210.2,81.3c-0.8-0.8-1.2-2-1.2-3.6v-5.9h-2c-0.2,0-0.3-0.1-0.4-0.2s-0.2-0.3-0.2-0.4v-1.5
			c0-0.2,0.1-0.3,0.2-0.4s0.3-0.2,0.4-0.2h2.1v-4.3c0-0.2,0.1-0.3,0.2-0.5c0.1-0.1,0.3-0.2,0.4-0.2h2.2c0.2,0,0.3,0.1,0.5,0.2
			c0.1,0.1,0.2,0.3,0.2,0.5v4.3h3.2c0.2,0,0.3,0.1,0.4,0.2s0.2,0.3,0.2,0.4v1.5c0,0.2-0.1,0.3-0.2,0.4c-0.1,0.1-0.3,0.2-0.4,0.2
			h-3.2v5.6c0,0.7,0.1,1.3,0.4,1.7c0.3,0.4,0.7,0.6,1.3,0.6h1.8c0.2,0,0.3,0.1,0.5,0.2c0.1,0.1,0.2,0.3,0.2,0.5v1.6
			c0,0.2-0.1,0.3-0.2,0.4c-0.1,0.1-0.3,0.2-0.5,0.2H214C212.2,82.7,211,82.2,210.2,81.3z"/>
		<path class="st1" d="M221.5,81.3c-0.8-0.8-1.2-2-1.2-3.6v-5.9h-2.1c-0.2,0-0.3-0.1-0.4-0.2s-0.2-0.3-0.2-0.4v-1.5
			c0-0.2,0.1-0.3,0.2-0.4s0.3-0.2,0.4-0.2h2.1v-4.3c0-0.2,0.1-0.3,0.2-0.5c0.1-0.1,0.3-0.2,0.4-0.2h2.2c0.2,0,0.3,0.1,0.5,0.2
			c0.1,0.1,0.2,0.3,0.2,0.5v4.3h3.2c0.2,0,0.3,0.1,0.4,0.2s0.2,0.3,0.2,0.4v1.5c0,0.2-0.1,0.3-0.2,0.4c-0.1,0.1-0.3,0.2-0.4,0.2
			h-3.2v5.6c0,0.7,0.1,1.3,0.4,1.7c0.3,0.4,0.7,0.6,1.3,0.6h1.8c0.2,0,0.3,0.1,0.5,0.2c0.1,0.1,0.2,0.3,0.2,0.5v1.6
			c0,0.2-0.1,0.3-0.2,0.4c-0.1,0.1-0.3,0.2-0.5,0.2H225C223.4,82.7,222.3,82.2,221.5,81.3z"/>
		<path class="st1" d="M231.3,81.2c-1.1-1.1-1.7-2.7-1.8-4.7v-0.6c0-2.2,0.6-3.9,1.7-5.1c1.1-1.2,2.7-1.9,4.7-1.9
			c2.1,0,3.7,0.6,4.8,1.9c1.1,1.2,1.7,2.9,1.7,5v0.5c0,0.2-0.1,0.3-0.2,0.4s-0.3,0.2-0.5,0.2h-8.6v0.2c0,1,0.3,1.8,0.8,2.4
			s1.2,0.9,2,0.9c1,0,1.8-0.4,2.4-1.2c0.2-0.2,0.3-0.3,0.4-0.4c0.1,0,0.2-0.1,0.4-0.1h2.3c0.2,0,0.3,0,0.4,0.1
			c0.1,0.1,0.2,0.2,0.2,0.4c0,0.4-0.2,0.9-0.7,1.5s-1.2,1.1-2.1,1.5s-2,0.6-3.2,0.6C234,82.8,232.5,82.3,231.3,81.2z M238.8,74.7
			L238.8,74.7c0-1.1-0.3-1.9-0.8-2.5s-1.2-0.9-2.1-0.9s-1.6,0.3-2.1,0.9s-0.8,1.4-0.8,2.5v0.1L238.8,74.7L238.8,74.7z"/>
		<path class="st1" d="M245.3,82.4c-0.1-0.1-0.2-0.3-0.2-0.4V69.9c0-0.2,0.1-0.3,0.2-0.5c0.1-0.1,0.3-0.2,0.4-0.2h2.1
			c0.2,0,0.3,0.1,0.5,0.2c0.1,0.1,0.2,0.3,0.2,0.5V71c0.9-1.1,2.1-1.7,3.7-1.7h1.1c0.2,0,0.3,0.1,0.5,0.2c0.1,0.1,0.2,0.3,0.2,0.5
			v1.9c0,0.2-0.1,0.3-0.2,0.4c-0.1,0.1-0.3,0.2-0.5,0.2h-2.1c-0.8,0-1.5,0.2-1.9,0.7c-0.5,0.5-0.7,1.1-0.7,1.9v7.1
			c0,0.2-0.1,0.3-0.2,0.4s-0.3,0.2-0.4,0.2h-2.3C245.6,82.7,245.4,82.6,245.3,82.4z"/>
		<path class="st1" d="M261.9,82.4c-0.1-0.1-0.2-0.3-0.2-0.4v-17c0-0.2,0.1-0.3,0.2-0.5c0.1-0.2,0.3-0.2,0.4-0.2h2.5
			c0.2,0,0.3,0.1,0.5,0.2c0.1,0.1,0.2,0.3,0.2,0.5v17c0,0.2-0.1,0.3-0.2,0.4c-0.1,0.1-0.3,0.2-0.5,0.2h-2.5
			C262.2,82.7,262,82.6,261.9,82.4z"/>
		<path class="st1" d="M269.4,82.4c-0.1-0.1-0.2-0.3-0.2-0.4V69.8c0-0.2,0.1-0.3,0.2-0.5c0.1-0.1,0.3-0.2,0.4-0.2h2.2
			c0.2,0,0.3,0.1,0.5,0.2c0.1,0.1,0.2,0.3,0.2,0.5v1.1c1.1-1.3,2.5-1.9,4.3-1.9c1.6,0,2.9,0.5,3.8,1.6c0.9,1,1.4,2.5,1.4,4.3v7.3
			c0,0.2-0.1,0.3-0.2,0.4s-0.3,0.2-0.5,0.2h-2.3c-0.2,0-0.3-0.1-0.4-0.2s-0.2-0.3-0.2-0.4v-7.1c0-1-0.2-1.8-0.7-2.4
			s-1.2-0.8-2.1-0.8s-1.6,0.3-2.1,0.9c-0.5,0.6-0.8,1.4-0.8,2.3v7.1c0,0.2-0.1,0.3-0.2,0.4s-0.3,0.2-0.5,0.2h-2.3
			C269.6,82.7,269.5,82.6,269.4,82.4z"/>
		<path class="st1" d="M287.3,82.2c-0.9-0.4-1.5-0.9-2-1.4c-0.4-0.5-0.6-1-0.6-1.4c0-0.2,0.1-0.3,0.2-0.4s0.2-0.2,0.4-0.2h2.1
			c0.1,0,0.3,0.1,0.4,0.2s0.3,0.2,0.6,0.5c0.3,0.3,0.7,0.5,1,0.6c0.4,0.1,0.8,0.2,1.3,0.2c0.7,0,1.3-0.1,1.7-0.4
			c0.4-0.3,0.7-0.7,0.7-1.2c0-0.3-0.1-0.6-0.3-0.8c-0.2-0.2-0.6-0.4-1.1-0.6c-0.5-0.2-1.3-0.4-2.3-0.6c-1.5-0.3-2.6-0.8-3.3-1.4
			c-0.7-0.6-1.1-1.4-1.1-2.5c0-0.7,0.2-1.3,0.6-2c0.4-0.6,1-1.1,1.9-1.5c0.8-0.4,1.8-0.6,3-0.6s2.2,0.2,3,0.6s1.5,0.8,1.9,1.3
			s0.7,1,0.7,1.4c0,0.2-0.1,0.3-0.2,0.4c-0.1,0.1-0.2,0.2-0.4,0.2h-2c-0.2,0-0.3-0.1-0.4-0.2c-0.1-0.1-0.3-0.2-0.6-0.5
			c-0.3-0.3-0.6-0.4-0.9-0.6c-0.3-0.1-0.7-0.2-1.2-0.2c-0.6,0-1.1,0.1-1.5,0.4c-0.3,0.3-0.5,0.6-0.5,1.1c0,0.3,0.1,0.6,0.2,0.8
			c0.2,0.2,0.5,0.4,1,0.6c0.5,0.2,1.3,0.4,2.3,0.6c3.1,0.6,4.7,2,4.7,4.1c0,1.2-0.5,2.2-1.6,3c-1.1,0.8-2.6,1.1-4.5,1.1
			C289.3,82.8,288.2,82.7,287.3,82.2z"/>
		<path class="st1" d="M300.5,81.2c-1.1-1.1-1.7-2.7-1.8-4.7v-0.6c0-2.2,0.6-3.9,1.7-5.1c1.1-1.2,2.7-1.9,4.7-1.9
			c2.1,0,3.7,0.6,4.8,1.9c1.1,1.2,1.7,2.9,1.7,5v0.5c0,0.2-0.1,0.3-0.2,0.4s-0.3,0.2-0.5,0.2h-8.6v0.2c0,1,0.3,1.8,0.8,2.4
			s1.2,0.9,2,0.9c1,0,1.8-0.4,2.4-1.2c0.2-0.2,0.3-0.3,0.4-0.4c0.1,0,0.2-0.1,0.4-0.1h2.3c0.2,0,0.3,0,0.4,0.1
			c0.1,0.1,0.2,0.2,0.2,0.4c0,0.4-0.2,0.9-0.7,1.5s-1.2,1.1-2.1,1.5s-2,0.6-3.2,0.6C303.2,82.8,301.7,82.3,300.5,81.2z M308,74.7
			L308,74.7c0-1.1-0.3-1.9-0.8-2.5s-1.2-0.9-2.1-0.9s-1.6,0.3-2.1,0.9s-0.8,1.4-0.8,2.5v0.1L308,74.7L308,74.7z"/>
		<path class="st1" d="M314.5,82.4c-0.1-0.1-0.2-0.3-0.2-0.4V69.9c0-0.2,0.1-0.3,0.2-0.5c0.1-0.1,0.3-0.2,0.4-0.2h2.1
			c0.2,0,0.3,0.1,0.5,0.2c0.1,0.1,0.2,0.3,0.2,0.5V71c0.9-1.1,2.1-1.7,3.7-1.7h1.1c0.2,0,0.3,0.1,0.5,0.2c0.1,0.1,0.2,0.3,0.2,0.5
			v1.9c0,0.2-0.1,0.3-0.2,0.4c-0.1,0.1-0.3,0.2-0.5,0.2h-2.1c-0.8,0-1.5,0.2-1.9,0.7c-0.5,0.5-0.7,1.1-0.7,1.9v7.1
			c0,0.2-0.1,0.3-0.2,0.4s-0.3,0.2-0.4,0.2h-2.3C314.8,82.7,314.6,82.6,314.5,82.4z"/>
		<path class="st1" d="M327.8,81.3c-0.8-0.8-1.2-2-1.2-3.6v-5.9h-2.1c-0.2,0-0.3-0.1-0.4-0.2s-0.2-0.3-0.2-0.4v-1.5
			c0-0.2,0.1-0.3,0.2-0.4s0.3-0.2,0.4-0.2h2.1v-4.3c0-0.2,0.1-0.3,0.2-0.5c0.1-0.1,0.3-0.2,0.4-0.2h2.2c0.2,0,0.3,0.1,0.5,0.2
			c0.1,0.1,0.2,0.3,0.2,0.5v4.3h3.2c0.2,0,0.3,0.1,0.4,0.2s0.2,0.3,0.2,0.4v1.5c0,0.2-0.1,0.3-0.2,0.4c-0.1,0.1-0.3,0.2-0.4,0.2H330
			v5.6c0,0.7,0.1,1.3,0.4,1.7c0.3,0.4,0.7,0.6,1.3,0.6h1.8c0.2,0,0.3,0.1,0.5,0.2c0.1,0.1,0.2,0.3,0.2,0.5v1.6
			c0,0.2-0.1,0.3-0.2,0.4c-0.1,0.1-0.3,0.2-0.5,0.2h-2.1C329.8,82.7,328.6,82.2,327.8,81.3z"/>
		<path class="st1" d="M342.8,82.4c-0.1-0.1-0.2-0.3-0.2-0.4V65.2c0-0.2,0.1-0.3,0.2-0.5c0.1-0.1,0.3-0.2,0.5-0.2h7
			c2.1,0,3.7,0.5,4.9,1.5c1.2,1,1.8,2.4,1.8,4.3s-0.6,3.3-1.8,4.3c-1.2,1-2.8,1.4-4.9,1.4h-3.8v6.1c0,0.2-0.1,0.3-0.2,0.5
			c-0.1,0.2-0.3,0.2-0.5,0.2h-2.5C343.1,82.7,343,82.6,342.8,82.4z M350.1,72.9c1,0,1.8-0.2,2.3-0.7s0.8-1.2,0.8-2.1
			s-0.3-1.6-0.8-2.1s-1.3-0.8-2.3-0.8h-3.7v5.7H350.1z"/>
		<path class="st1" d="M360.6,81.2c-1.1-1.1-1.7-2.7-1.8-4.7v-0.6c0-2.2,0.6-3.9,1.7-5.1c1.1-1.2,2.7-1.9,4.7-1.9
			c2.1,0,3.7,0.6,4.8,1.9c1.1,1.2,1.7,2.9,1.7,5v0.5c0,0.2-0.1,0.3-0.2,0.4s-0.3,0.2-0.5,0.2h-8.6v0.2c0,1,0.3,1.8,0.8,2.4
			s1.2,0.9,2,0.9c1,0,1.8-0.4,2.4-1.2c0.2-0.2,0.3-0.3,0.4-0.4c0.1,0,0.2-0.1,0.4-0.1h2.3c0.2,0,0.3,0,0.4,0.1
			c0.1,0.1,0.2,0.2,0.2,0.4c0,0.4-0.2,0.9-0.7,1.5s-1.2,1.1-2.1,1.5s-2,0.6-3.2,0.6C363.2,82.8,361.7,82.3,360.6,81.2z M368,74.7
			L368,74.7c0-1.1-0.3-1.9-0.8-2.5s-1.2-0.9-2.1-0.9s-1.6,0.3-2.1,0.9s-0.8,1.4-0.8,2.5v0.1L368,74.7L368,74.7z"/>
		<path class="st1" d="M374.5,82.4c-0.1-0.1-0.2-0.3-0.2-0.4V69.9c0-0.2,0.1-0.3,0.2-0.5c0.1-0.1,0.3-0.2,0.4-0.2h2.1
			c0.2,0,0.3,0.1,0.5,0.2c0.1,0.1,0.2,0.3,0.2,0.5V71c0.9-1.1,2.1-1.7,3.7-1.7h1.1c0.2,0,0.3,0.1,0.5,0.2c0.1,0.1,0.2,0.3,0.2,0.5
			v1.9c0,0.2-0.1,0.3-0.2,0.4c-0.1,0.1-0.3,0.2-0.5,0.2h-2.1c-0.8,0-1.5,0.2-1.9,0.7c-0.5,0.5-0.7,1.1-0.7,1.9v7.1
			c0,0.2-0.1,0.3-0.2,0.4s-0.3,0.2-0.4,0.2H375C374.8,82.7,374.7,82.6,374.5,82.4z"/>
		<path class="st1" d="M386.9,82.4c-0.1-0.1-0.2-0.3-0.2-0.4V71.9h-2.1c-0.2,0-0.3-0.1-0.4-0.2s-0.2-0.3-0.2-0.4v-1.5
			c0-0.2,0.1-0.3,0.2-0.4c0.1-0.1,0.3-0.2,0.4-0.2h2.1v-1c0-1.6,0.4-2.8,1.3-3.5c0.8-0.8,2.1-1.2,3.8-1.2h1.8c0.2,0,0.3,0.1,0.4,0.2
			s0.2,0.3,0.2,0.4v1.5c0,0.2-0.1,0.3-0.2,0.4c-0.1,0.1-0.3,0.2-0.4,0.2H392c-0.7,0-1.2,0.2-1.4,0.5s-0.4,0.8-0.4,1.5v0.9h3.2
			c0.2,0,0.3,0.1,0.4,0.2s0.2,0.3,0.2,0.4v1.5c0,0.2-0.1,0.3-0.2,0.4s-0.3,0.2-0.4,0.2h-3.2v10.1c0,0.2-0.1,0.3-0.2,0.4
			s-0.3,0.2-0.5,0.2h-2.2C387.2,82.7,387,82.6,386.9,82.4z"/>
		<path class="st1" d="M397.1,81.3c-1.1-1-1.7-2.5-1.8-4.3v-1.1v-1.1c0.1-1.8,0.7-3.3,1.8-4.3c1.1-1,2.7-1.6,4.7-1.6
			s3.6,0.5,4.7,1.6c1.1,1,1.7,2.5,1.8,4.3c0,0.2,0,0.6,0,1.1s0,0.9,0,1.1c-0.1,1.8-0.7,3.3-1.8,4.3c-1.1,1-2.7,1.6-4.7,1.6
			C399.8,82.8,398.2,82.3,397.1,81.3z M404,79.3c0.5-0.6,0.8-1.4,0.8-2.5c0-0.2,0-0.5,0-1s0-0.8,0-1c0-1.1-0.3-2-0.8-2.5
			c-0.5-0.6-1.2-0.9-2.1-0.9s-1.6,0.3-2.1,0.9s-0.8,1.4-0.8,2.5v1v1c0,1.1,0.3,2,0.8,2.5c0.5,0.6,1.2,0.9,2.1,0.9
			S403.5,79.9,404,79.3z"/>
		<path class="st1" d="M411.4,82.4c-0.1-0.1-0.2-0.3-0.2-0.4V69.9c0-0.2,0.1-0.3,0.2-0.5c0.1-0.1,0.3-0.2,0.4-0.2h2.1
			c0.2,0,0.3,0.1,0.5,0.2c0.1,0.1,0.2,0.3,0.2,0.5V71c0.9-1.1,2.1-1.7,3.7-1.7h1.1c0.2,0,0.3,0.1,0.5,0.2c0.1,0.1,0.2,0.3,0.2,0.5
			v1.9c0,0.2-0.1,0.3-0.2,0.4c-0.1,0.1-0.3,0.2-0.5,0.2h-2.1c-0.8,0-1.5,0.2-1.9,0.7c-0.5,0.5-0.7,1.1-0.7,1.9v7.1
			c0,0.2-0.1,0.3-0.2,0.4s-0.3,0.2-0.4,0.2h-2.3C411.7,82.7,411.6,82.6,411.4,82.4z"/>
		<path class="st1" d="M422.3,82.4c-0.1-0.1-0.2-0.3-0.2-0.4V69.8c0-0.2,0.1-0.3,0.2-0.5c0.1-0.1,0.3-0.2,0.4-0.2h2.1
			c0.2,0,0.3,0.1,0.5,0.2c0.1,0.1,0.2,0.3,0.2,0.5v0.9c0.9-1.2,2.2-1.8,3.8-1.8c1.9,0,3.3,0.8,4,2.3c0.4-0.7,1-1.3,1.8-1.7
			c0.8-0.4,1.6-0.6,2.5-0.6c1.4,0,2.6,0.5,3.5,1.5s1.4,2.4,1.4,4.2v7.5c0,0.2-0.1,0.3-0.2,0.4c-0.1,0.1-0.3,0.2-0.5,0.2h-2.2
			c-0.2,0-0.3-0.1-0.4-0.2s-0.2-0.3-0.2-0.4v-7.3c0-1.1-0.2-1.9-0.7-2.4s-1.1-0.7-1.8-0.7c-0.7,0-1.3,0.2-1.7,0.7
			c-0.5,0.5-0.7,1.3-0.7,2.4v7.3c0,0.2-0.1,0.3-0.2,0.4c-0.1,0.1-0.3,0.2-0.5,0.2h-2.2c-0.2,0-0.3-0.1-0.4-0.2
			c-0.1-0.1-0.2-0.3-0.2-0.4v-7.3c0-1.1-0.2-1.9-0.7-2.4s-1.1-0.7-1.8-0.7c-0.7,0-1.3,0.2-1.7,0.7c-0.5,0.5-0.7,1.3-0.7,2.4v7.3
			c0,0.2-0.1,0.3-0.2,0.4c-0.1,0.1-0.3,0.2-0.5,0.2h-2.2C422.6,82.7,422.4,82.6,422.3,82.4z"/>
		<path class="st1" d="M447.1,82.3c-0.7-0.4-1.3-0.8-1.7-1.4c-0.4-0.6-0.6-1.3-0.6-2c0-1.2,0.5-2.1,1.4-2.9c0.9-0.8,2.3-1.2,3.9-1.5
			l3.6-0.5v-0.5c0-0.7-0.2-1.3-0.6-1.7c-0.4-0.4-1-0.6-1.8-0.6c-0.6,0-1,0.1-1.4,0.3c-0.4,0.2-0.6,0.4-0.8,0.6
			c-0.2,0.2-0.4,0.4-0.4,0.4c-0.1,0.2-0.2,0.3-0.4,0.3h-2c-0.2,0-0.3-0.1-0.4-0.2c-0.1-0.1-0.2-0.2-0.2-0.4c0-0.4,0.2-0.9,0.6-1.5
			c0.4-0.5,1-1,1.9-1.4c0.8-0.4,1.9-0.6,3.1-0.6c2,0,3.5,0.5,4.5,1.4c0.9,0.9,1.4,2.1,1.4,3.6v8.2c0,0.2-0.1,0.3-0.2,0.4
			c-0.1,0.1-0.3,0.2-0.5,0.2h-2.2c-0.2,0-0.3-0.1-0.4-0.2c-0.1-0.1-0.2-0.3-0.2-0.4v-1c-0.4,0.6-0.9,1-1.6,1.4
			c-0.7,0.4-1.6,0.5-2.6,0.5C448.7,82.8,447.9,82.7,447.1,82.3z M452.8,79.4c0.6-0.6,0.9-1.5,0.9-2.7v-0.5l-2.6,0.4c-2,0.3-3,1-3,2
			c0,0.6,0.2,1,0.7,1.3c0.5,0.3,1,0.5,1.7,0.5C451.4,80.3,452.2,80.1,452.8,79.4z"/>
		<path class="st1" d="M460.7,82.4c-0.1-0.1-0.2-0.3-0.2-0.4V69.8c0-0.2,0.1-0.3,0.2-0.5c0.1-0.1,0.3-0.2,0.4-0.2h2.2
			c0.2,0,0.3,0.1,0.5,0.2c0.1,0.1,0.2,0.3,0.2,0.5v1.1c1.1-1.3,2.5-1.9,4.3-1.9c1.6,0,2.9,0.5,3.8,1.6c0.9,1,1.4,2.5,1.4,4.3v7.3
			c0,0.2-0.1,0.3-0.2,0.4c-0.1,0.1-0.3,0.2-0.5,0.2h-2.3c-0.2,0-0.3-0.1-0.4-0.2c-0.1-0.1-0.2-0.3-0.2-0.4v-7.1c0-1-0.2-1.8-0.7-2.4
			s-1.2-0.8-2.1-0.8c-0.9,0-1.6,0.3-2.1,0.9c-0.5,0.6-0.8,1.4-0.8,2.3v7.1c0,0.2-0.1,0.3-0.2,0.4c-0.1,0.1-0.3,0.2-0.5,0.2h-2.3
			C460.9,82.7,460.8,82.6,460.7,82.4z"/>
		<path class="st1" d="M478,81.2c-1.1-1.1-1.7-2.5-1.8-4.4v-1v-1c0.1-1.9,0.7-3.3,1.8-4.4c1.1-1.1,2.7-1.6,4.6-1.6
			c1.4,0,2.5,0.2,3.5,0.7s1.6,1.1,2.1,1.8c0.5,0.7,0.7,1.4,0.7,2c0,0.2,0,0.3-0.2,0.4c-0.1,0.1-0.3,0.2-0.5,0.2H486
			c-0.2,0-0.3,0-0.4-0.1c-0.1-0.1-0.2-0.2-0.3-0.4c-0.3-0.7-0.6-1.1-1-1.4c-0.4-0.3-1-0.4-1.6-0.4c-0.9,0-1.6,0.3-2.1,0.8
			s-0.8,1.4-0.8,2.5v1v0.9c0.1,2.3,1.1,3.4,2.9,3.4c0.7,0,1.2-0.1,1.6-0.4c0.4-0.3,0.8-0.8,1-1.4c0.1-0.2,0.2-0.3,0.2-0.4
			s0.2-0.1,0.4-0.1h2.3c0.2,0,0.3,0.1,0.5,0.2c0.1,0.1,0.2,0.3,0.2,0.4c0,0.6-0.3,1.3-0.7,2c-0.5,0.7-1.1,1.3-2.1,1.8
			s-2.1,0.8-3.5,0.8C480.7,82.8,479.2,82.3,478,81.2z"/>
		<path class="st1" d="M492.9,81.2c-1.1-1.1-1.7-2.7-1.8-4.7v-0.6c0-2.2,0.6-3.9,1.7-5.1c1.1-1.2,2.7-1.9,4.7-1.9
			c2.1,0,3.7,0.6,4.8,1.9c1.1,1.2,1.7,2.9,1.7,5v0.5c0,0.2-0.1,0.3-0.2,0.4c-0.1,0.1-0.3,0.2-0.5,0.2h-8.6v0.2c0,1,0.3,1.8,0.8,2.4
			s1.2,0.9,2,0.9c1,0,1.8-0.4,2.4-1.2c0.2-0.2,0.3-0.3,0.4-0.4c0.1,0,0.2-0.1,0.4-0.1h2.3c0.2,0,0.3,0,0.4,0.1
			c0.1,0.1,0.2,0.2,0.2,0.4c0,0.4-0.2,0.9-0.7,1.5s-1.2,1.1-2.1,1.5c-0.9,0.4-2,0.6-3.2,0.6C495.5,82.8,494,82.3,492.9,81.2z
			 M500.3,74.7L500.3,74.7c0-1.1-0.3-1.9-0.8-2.5s-1.2-0.9-2.1-0.9s-1.6,0.3-2.1,0.9s-0.8,1.4-0.8,2.5v0.1L500.3,74.7L500.3,74.7
			L500.3,74.7z"/>
		<path class="st1" d="M514.6,81.3c-0.8-0.8-1.2-2-1.2-3.6v-5.9h-2.1c-0.2,0-0.3-0.1-0.4-0.2c-0.1-0.1-0.2-0.3-0.2-0.4v-1.5
			c0-0.2,0.1-0.3,0.2-0.4c0.1-0.1,0.3-0.2,0.4-0.2h2.1v-4.3c0-0.2,0.1-0.3,0.2-0.5c0.1-0.1,0.3-0.2,0.4-0.2h2.2
			c0.2,0,0.3,0.1,0.5,0.2c0.1,0.1,0.2,0.3,0.2,0.5v4.3h3.2c0.2,0,0.3,0.1,0.4,0.2c0.1,0.1,0.2,0.3,0.2,0.4v1.5
			c0,0.2-0.1,0.3-0.2,0.4c-0.1,0.1-0.3,0.2-0.4,0.2h-3.2v5.6c0,0.7,0.1,1.3,0.4,1.7c0.3,0.4,0.7,0.6,1.3,0.6h1.8
			c0.2,0,0.3,0.1,0.5,0.2c0.1,0.1,0.2,0.3,0.2,0.5v1.6c0,0.2-0.1,0.3-0.2,0.4c-0.1,0.1-0.3,0.2-0.5,0.2h-2.1
			C516.6,82.7,515.4,82.2,514.6,81.3z"/>
		<path class="st1" d="M523.5,82.4c-0.1-0.1-0.2-0.3-0.2-0.4V64.8c0-0.2,0.1-0.3,0.2-0.5c0.1-0.1,0.3-0.2,0.4-0.2h2.4
			c0.2,0,0.3,0.1,0.5,0.2c0.1,0.1,0.2,0.3,0.2,0.5v5.9c1-1.2,2.4-1.9,4.2-1.9c1.6,0,2.9,0.5,3.8,1.6c1,1,1.4,2.5,1.4,4.3v7.3
			c0,0.2-0.1,0.3-0.2,0.4c-0.1,0.1-0.3,0.2-0.5,0.2h-2.4c-0.2,0-0.3-0.1-0.5-0.2c-0.1-0.1-0.2-0.3-0.2-0.4v-7.1c0-1-0.2-1.8-0.7-2.4
			c-0.5-0.6-1.2-0.8-2.1-0.8c-0.9,0-1.6,0.3-2.1,0.9s-0.8,1.4-0.8,2.3v7.1c0,0.2-0.1,0.3-0.2,0.4c-0.1,0.1-0.3,0.2-0.5,0.2h-2.4
			C523.7,82.7,523.6,82.6,523.5,82.4z"/>
		<path class="st1" d="M541.1,82.3c-0.7-0.4-1.3-0.8-1.7-1.4c-0.4-0.6-0.6-1.3-0.6-2c0-1.2,0.5-2.1,1.4-2.9c0.9-0.8,2.3-1.2,3.9-1.5
			l3.6-0.5v-0.5c0-0.7-0.2-1.3-0.6-1.7s-1-0.6-1.8-0.6c-0.6,0-1,0.1-1.4,0.3c-0.3,0.2-0.6,0.4-0.8,0.6c-0.2,0.2-0.4,0.4-0.4,0.4
			c-0.1,0.2-0.2,0.3-0.4,0.3h-2c-0.2,0-0.3-0.1-0.4-0.2c-0.1-0.1-0.2-0.2-0.2-0.4c0-0.4,0.2-0.9,0.6-1.5c0.4-0.5,1-1,1.9-1.4
			c0.8-0.4,1.9-0.6,3.1-0.6c2,0,3.5,0.5,4.5,1.4c0.9,0.9,1.4,2.1,1.4,3.6v8.2c0,0.2-0.1,0.3-0.2,0.4c-0.1,0.1-0.3,0.2-0.5,0.2h-2.2
			c-0.2,0-0.3-0.1-0.4-0.2c-0.1-0.1-0.2-0.3-0.2-0.4v-1c-0.4,0.6-0.9,1-1.6,1.4s-1.6,0.5-2.6,0.5C542.7,82.8,541.9,82.7,541.1,82.3z
			 M546.8,79.4c0.6-0.6,0.9-1.5,0.9-2.7v-0.5l-2.6,0.4c-2,0.3-3,1-3,2c0,0.6,0.2,1,0.7,1.3c0.5,0.3,1,0.5,1.7,0.5
			C545.4,80.3,546.2,80.1,546.8,79.4z"/>
		<path class="st1" d="M554.7,82.4c-0.1-0.1-0.2-0.3-0.2-0.4V69.8c0-0.2,0.1-0.3,0.2-0.5c0.1-0.1,0.3-0.2,0.4-0.2h2.2
			c0.2,0,0.3,0.1,0.5,0.2c0.1,0.1,0.2,0.3,0.2,0.5v1.1c1.1-1.3,2.5-1.9,4.3-1.9c1.6,0,2.9,0.5,3.8,1.6c0.9,1,1.4,2.5,1.4,4.3v7.3
			c0,0.2-0.1,0.3-0.2,0.4c-0.1,0.1-0.3,0.2-0.5,0.2h-2.3c-0.2,0-0.3-0.1-0.4-0.2c-0.1-0.1-0.2-0.3-0.2-0.4v-7.1c0-1-0.2-1.8-0.7-2.4
			s-1.2-0.8-2.1-0.8c-0.9,0-1.6,0.3-2.1,0.9c-0.5,0.6-0.8,1.4-0.8,2.3v7.1c0,0.2-0.1,0.3-0.2,0.4c-0.1,0.1-0.3,0.2-0.5,0.2h-2.3
			C555,82.7,554.8,82.6,554.7,82.4z"/>
		<path class="st1" d="M574.8,82.4c-0.1-0.1-0.2-0.2-0.2-0.4l0.1-0.2l6.2-16.8c0.2-0.4,0.5-0.7,0.9-0.7h2.9c0.5,0,0.8,0.2,0.9,0.7
			l6.2,16.8l0.1,0.2c0,0.2-0.1,0.3-0.2,0.4s-0.2,0.2-0.4,0.2H589c-0.4,0-0.6-0.2-0.8-0.5l-1.2-3.1h-7.7l-1.2,3.1
			c-0.1,0.3-0.4,0.5-0.8,0.5H575C575.1,82.7,574.9,82.6,574.8,82.4z M580.4,75.9h5.9l-2.9-8L580.4,75.9z"/>
		<path class="st1" d="M595.7,81.8l-3.1-16.7v-0.2c0-0.2,0.1-0.3,0.2-0.4c0.1-0.1,0.2-0.2,0.4-0.2h2.3c0.2,0,0.4,0,0.5,0.1
			c0.1,0.1,0.2,0.2,0.2,0.4l2.2,11.7l2.3-7.5c0.2-0.4,0.5-0.6,0.9-0.6h1.4c0.2,0,0.4,0.1,0.5,0.2s0.2,0.3,0.3,0.5l2.3,7.5l2.1-11.7
			c0.1-0.3,0.3-0.5,0.7-0.5h2.3c0.1,0,0.3,0.1,0.4,0.2c0.1,0.1,0.2,0.2,0.2,0.4c0,0.1,0,0.2,0,0.2l-3.1,16.7c0,0.2-0.1,0.4-0.3,0.6
			c-0.2,0.1-0.4,0.2-0.6,0.2H606c-0.2,0-0.4-0.1-0.6-0.2c-0.2-0.1-0.3-0.3-0.3-0.5l-2.9-8.6l-2.9,8.6c-0.1,0.4-0.4,0.6-0.9,0.6h-1.8
			C596.1,82.7,595.8,82.3,595.7,81.8z"/>
		<path class="st1" d="M617,82.2c-1.1-0.5-2-1.1-2.5-1.8c-0.6-0.8-0.9-1.6-0.9-2.5c0-0.1,0.1-0.3,0.2-0.4c0.1-0.1,0.2-0.2,0.4-0.2
			h2.4c0.2,0,0.3,0,0.5,0.1c0.1,0.1,0.2,0.2,0.3,0.4c0.2,0.6,0.6,1.1,1.2,1.5c0.6,0.4,1.5,0.6,2.5,0.6c1.2,0,2.1-0.2,2.7-0.6
			c0.6-0.4,0.9-1,0.9-1.7c0-0.5-0.2-0.9-0.5-1.2c-0.3-0.3-0.8-0.6-1.4-0.8c-0.6-0.2-1.6-0.5-2.8-0.8c-2-0.5-3.5-1.1-4.5-1.9
			c-1-0.8-1.4-1.9-1.4-3.4c0-1,0.3-1.9,0.8-2.7c0.6-0.8,1.3-1.4,2.4-1.9c1-0.5,2.2-0.7,3.6-0.7c1.4,0,2.7,0.3,3.7,0.8
			s1.8,1.1,2.4,1.9c0.5,0.8,0.8,1.5,0.9,2.2c0,0.1-0.1,0.3-0.2,0.4c-0.1,0.1-0.2,0.2-0.4,0.2h-2.5c-0.4,0-0.6-0.2-0.8-0.5
			c-0.1-0.6-0.4-1-1-1.4s-1.3-0.6-2.2-0.6c-1,0-1.7,0.2-2.2,0.5c-0.5,0.4-0.8,0.9-0.8,1.6c0,0.5,0.1,0.9,0.4,1.2
			c0.3,0.3,0.7,0.6,1.3,0.8s1.4,0.5,2.6,0.8c1.5,0.3,2.8,0.7,3.7,1.2s1.6,1,2,1.6c0.4,0.7,0.7,1.5,0.7,2.5c0,1.1-0.3,2.1-0.9,2.9
			c-0.6,0.8-1.5,1.5-2.6,1.9s-2.4,0.6-3.9,0.6C619.5,82.8,618.2,82.7,617,82.2z"/>
		<path class="st1" d="M635.2,82.4c-0.1-0.1-0.2-0.2-0.2-0.4l0.1-0.2l6.2-16.8c0.2-0.4,0.5-0.7,0.9-0.7h2.9c0.5,0,0.8,0.2,0.9,0.7
			l6.2,16.8l0.1,0.2c0,0.2-0.1,0.3-0.2,0.4s-0.2,0.2-0.4,0.2h-2.3c-0.4,0-0.6-0.2-0.8-0.5l-1.2-3.1h-7.7l-1.2,3.1
			c-0.1,0.3-0.4,0.5-0.8,0.5h-2.3C635.4,82.7,635.3,82.6,635.2,82.4z M640.7,75.9h5.9l-2.9-8L640.7,75.9z"/>
		<path class="st1" d="M655.5,81.3c-0.9-1-1.4-2.5-1.4-4.3v-7.3c0-0.2,0.1-0.3,0.2-0.5c0.1-0.1,0.3-0.2,0.4-0.2h2.3
			c0.2,0,0.3,0.1,0.4,0.2c0.1,0.1,0.2,0.3,0.2,0.4v7.1c0,2.1,0.9,3.2,2.8,3.2c0.9,0,1.6-0.3,2.1-0.9c0.5-0.6,0.8-1.4,0.8-2.3v-7.1
			c0-0.2,0.1-0.3,0.2-0.5c0.1-0.1,0.3-0.2,0.4-0.2h2.3c0.2,0,0.3,0.1,0.5,0.2c0.1,0.1,0.2,0.3,0.2,0.5v12.3c0,0.2-0.1,0.3-0.2,0.4
			c-0.1,0.1-0.3,0.2-0.5,0.2H664c-0.2,0-0.3-0.1-0.4-0.2c-0.1-0.1-0.2-0.3-0.2-0.4v-1c-1,1.3-2.4,1.9-4.3,1.9
			C657.7,82.8,656.4,82.3,655.5,81.3z"/>
		<path class="st1" d="M670.6,82.4c-0.1-0.1-0.2-0.3-0.2-0.4V69.9c0-0.2,0.1-0.3,0.2-0.5c0.1-0.1,0.3-0.2,0.4-0.2h2.1
			c0.2,0,0.3,0.1,0.5,0.2c0.1,0.1,0.2,0.3,0.2,0.5V71c0.9-1.1,2.1-1.7,3.7-1.7h1.1c0.2,0,0.3,0.1,0.5,0.2c0.1,0.1,0.2,0.3,0.2,0.5
			v1.9c0,0.2-0.1,0.3-0.2,0.4c-0.1,0.1-0.3,0.2-0.5,0.2h-2.1c-0.8,0-1.5,0.2-1.9,0.7c-0.5,0.5-0.7,1.1-0.7,1.9v7.1
			c0,0.2-0.1,0.3-0.2,0.4c-0.1,0.1-0.3,0.2-0.4,0.2H671C670.9,82.7,670.7,82.6,670.6,82.4z"/>
		<path class="st1" d="M682.4,81.3c-1.1-1-1.7-2.5-1.8-4.3v-1.1v-1.1c0.1-1.8,0.7-3.3,1.8-4.3c1.1-1,2.7-1.6,4.7-1.6
			s3.6,0.5,4.7,1.6c1.1,1,1.7,2.5,1.8,4.3c0,0.2,0,0.6,0,1.1s0,0.9,0,1.1c-0.1,1.8-0.7,3.3-1.8,4.3s-2.7,1.6-4.7,1.6
			C685.1,82.8,683.5,82.3,682.4,81.3z M689.3,79.3c0.5-0.6,0.8-1.4,0.8-2.5c0-0.2,0-0.5,0-1s0-0.8,0-1c0-1.1-0.3-2-0.8-2.5
			c-0.5-0.6-1.2-0.9-2.1-0.9c-0.9,0-1.6,0.3-2.1,0.9s-0.8,1.4-0.8,2.5v1v1c0,1.1,0.3,2,0.8,2.5c0.5,0.6,1.2,0.9,2.1,0.9
			S688.8,79.9,689.3,79.3z"/>
		<path class="st1" d="M696.7,82.4c-0.1-0.1-0.2-0.3-0.2-0.4V69.9c0-0.2,0.1-0.3,0.2-0.5c0.1-0.1,0.3-0.2,0.4-0.2h2.1
			c0.2,0,0.3,0.1,0.5,0.2c0.1,0.1,0.2,0.3,0.2,0.5V71c0.9-1.1,2.1-1.7,3.7-1.7h1.1c0.2,0,0.3,0.1,0.5,0.2c0.1,0.1,0.2,0.3,0.2,0.5
			v1.9c0,0.2-0.1,0.3-0.2,0.4c-0.1,0.1-0.3,0.2-0.5,0.2h-2.1c-0.8,0-1.5,0.2-1.9,0.7c-0.5,0.5-0.7,1.1-0.7,1.9v7.1
			c0,0.2-0.1,0.3-0.2,0.4c-0.1,0.1-0.3,0.2-0.4,0.2h-2.3C697,82.7,696.9,82.6,696.7,82.4z"/>
		<path class="st1" d="M708.7,82.3c-0.7-0.4-1.3-0.8-1.7-1.4c-0.4-0.6-0.6-1.3-0.6-2c0-1.2,0.5-2.1,1.4-2.9c0.9-0.8,2.3-1.2,3.9-1.5
			l3.6-0.5v-0.5c0-0.7-0.2-1.3-0.6-1.7s-1-0.6-1.8-0.6c-0.6,0-1,0.1-1.4,0.3c-0.3,0.2-0.6,0.4-0.8,0.6c-0.2,0.2-0.4,0.4-0.4,0.4
			c-0.1,0.2-0.2,0.3-0.4,0.3h-2c-0.2,0-0.3-0.1-0.4-0.2c-0.1-0.1-0.2-0.2-0.2-0.4c0-0.4,0.2-0.9,0.6-1.5c0.4-0.5,1-1,1.9-1.4
			c0.8-0.4,1.9-0.6,3.1-0.6c2,0,3.5,0.5,4.5,1.4c0.9,0.9,1.4,2.1,1.4,3.6v8.2c0,0.2-0.1,0.3-0.2,0.4c-0.1,0.1-0.3,0.2-0.5,0.2H716
			c-0.2,0-0.3-0.1-0.4-0.2c-0.1-0.1-0.2-0.3-0.2-0.4v-1c-0.4,0.6-0.9,1-1.6,1.4s-1.6,0.5-2.6,0.5C710.3,82.8,709.5,82.7,708.7,82.3z
			 M714.4,79.4c0.6-0.6,0.9-1.5,0.9-2.7v-0.5l-2.6,0.4c-2,0.3-3,1-3,2c0,0.6,0.2,1,0.7,1.3c0.5,0.3,1,0.5,1.7,0.5
			C713,80.3,713.8,80.1,714.4,79.4z"/>
	</g>
	<path class="st2" d="M101.7,468.5h652.6"/>
	<path class="st3" d="M71.6,498.6l30.1-29.2h652.6l-30.1,29.2H71.6z"/>
	<path class="st4" d="M101.7,398.2h652.6"/>
	<path class="st4" d="M101.7,327.2h652.6"/>
	<path class="st4" d="M101.7,257.1h652.6"/>
	<path class="st4" d="M101.7,186.1h652.6"/>
	<g>
		<g>
			<g>
				<defs>
					<rect id="SVGID_1_" x="71.3" y="186.1" width="683.3" height="312.7"/>
				</defs>
				<clipPath id="SVGID_2_">
					<use xlink:href="#SVGID_1_"  style="overflow:visible;"/>
				</clipPath>
				<path class="st5" d="M241.7,228.2v240.6l-25.9,25.9V254.1L241.7,228.2z"/>
			</g>
		</g>
	</g>
	<g>
		<g>
			<g>
				<defs>
					<rect id="SVGID_3_" x="71.3" y="186.1" width="683.3" height="312.7"/>
				</defs>
				<clipPath id="SVGID_4_">
					<use xlink:href="#SVGID_3_"  style="overflow:visible;"/>
				</clipPath>
				<path class="st6" d="M215.8,254.1h-102l25.9-25.9h101.9L215.8,254.1z"/>
			</g>
		</g>
	</g>
	<g>
		<g>
			<g>
				<defs>
					<rect id="SVGID_5_" x="71.3" y="186.1" width="683.3" height="312.7"/>
				</defs>
				<clipPath id="SVGID_6_">
					<use xlink:href="#SVGID_5_"  style="overflow:visible;"/>
				</clipPath>
				<path class="st7" d="M215.8,494.8h-102V254.1h101.9L215.8,494.8L215.8,494.8z"/>
			</g>
		</g>
	</g>
	<g>
		<g>
			<g>
				<defs>
					<rect id="SVGID_7_" x="71.3" y="186.1" width="683.3" height="312.7"/>
				</defs>
				<clipPath id="SVGID_8_">
					<use xlink:href="#SVGID_7_"  style="overflow:visible;"/>
				</clipPath>
				<path class="st8" d="M215.8,494.8h-102V254.1h101.9L215.8,494.8L215.8,494.8z"/>
			</g>
		</g>
	</g>
	<g>
		<g>
			<g>
				<defs>
					<rect id="SVGID_9_" x="71.3" y="186.1" width="683.3" height="312.7"/>
				</defs>
				<clipPath id="SVGID_10_">
					<use xlink:href="#SVGID_9_"  style="overflow:visible;"/>
				</clipPath>
				<path class="st9" d="M398.8,341.9v127l-25.9,25.9v-127L398.8,341.9z"/>
			</g>
		</g>
	</g>
	<g>
		<g>
			<g>
				<defs>
					<rect id="SVGID_11_" x="71.3" y="186.1" width="683.3" height="312.7"/>
				</defs>
				<clipPath id="SVGID_12_">
					<use xlink:href="#SVGID_11_"  style="overflow:visible;"/>
				</clipPath>
				<path class="st10" d="M372.9,367.8h-102l25.9-25.9h101.9L372.9,367.8z"/>
			</g>
		</g>
	</g>
	<g>
		<g>
			<g>
				<defs>
					<rect id="SVGID_13_" x="71.3" y="186.1" width="683.3" height="312.7"/>
				</defs>
				<clipPath id="SVGID_14_">
					<use xlink:href="#SVGID_13_"  style="overflow:visible;"/>
				</clipPath>
				<path class="st11" d="M372.9,494.8h-102v-127h101.9v127H372.9z"/>
			</g>
		</g>
	</g>
	<g>
		<g>
			<g>
				<defs>
					<rect id="SVGID_15_" x="71.3" y="186.1" width="683.3" height="312.7"/>
				</defs>
				<clipPath id="SVGID_16_">
					<use xlink:href="#SVGID_15_"  style="overflow:visible;"/>
				</clipPath>
				<path class="st12" d="M372.9,494.8h-102v-127h101.9v127H372.9z"/>
			</g>
		</g>
	</g>
	<g>
		<g>
			<g>
				<defs>
					<rect id="SVGID_17_" x="71.3" y="186.1" width="683.3" height="312.7"/>
				</defs>
				<clipPath id="SVGID_18_">
					<use xlink:href="#SVGID_17_"  style="overflow:visible;"/>
				</clipPath>
				<path class="st13" d="M555.9,389.5v79.4L530,494.8v-79.4L555.9,389.5z"/>
			</g>
		</g>
	</g>
	<g>
		<g>
			<g>
				<defs>
					<rect id="SVGID_19_" x="71.3" y="186.1" width="683.3" height="312.7"/>
				</defs>
				<clipPath id="SVGID_20_">
					<use xlink:href="#SVGID_19_"  style="overflow:visible;"/>
				</clipPath>
				<path class="st14" d="M529.9,415.4H428l25.9-25.9h101.9L529.9,415.4z"/>
			</g>
		</g>
	</g>
	<g>
		<g>
			<g>
				<defs>
					<rect id="SVGID_21_" x="71.3" y="186.1" width="683.3" height="312.7"/>
				</defs>
				<clipPath id="SVGID_22_">
					<use xlink:href="#SVGID_21_"  style="overflow:visible;"/>
				</clipPath>
				<path class="st15" d="M529.9,494.8H428v-79.4h101.9V494.8z"/>
			</g>
		</g>
	</g>
	<g>
		<g>
			<g>
				<defs>
					<rect id="SVGID_23_" x="71.3" y="186.1" width="683.3" height="312.7"/>
				</defs>
				<clipPath id="SVGID_24_">
					<use xlink:href="#SVGID_23_"  style="overflow:visible;"/>
				</clipPath>
				<path class="st16" d="M529.9,494.8H428v-79.4h101.9V494.8z"/>
			</g>
		</g>
	</g>
	<g>
		<g>
			<g>
				<defs>
					<rect id="SVGID_25_" x="71.3" y="186.1" width="683.3" height="312.7"/>
				</defs>
				<clipPath id="SVGID_26_">
					<use xlink:href="#SVGID_25_"  style="overflow:visible;"/>
				</clipPath>
				<path class="st17" d="M712.9,441.2v27.6L687,494.8v-27.6L712.9,441.2z"/>
			</g>
		</g>
	</g>
	<g>
		<g>
			<g>
				<defs>
					<rect id="SVGID_27_" x="71.3" y="186.1" width="683.3" height="312.7"/>
				</defs>
				<clipPath id="SVGID_28_">
					<use xlink:href="#SVGID_27_"  style="overflow:visible;"/>
				</clipPath>
				<path class="st18" d="M687,467.2H585.1l25.9-25.9h101.9L687,467.2z"/>
			</g>
		</g>
	</g>
	<g>
		<g>
			<g>
				<defs>
					<rect id="SVGID_29_" x="71.3" y="186.1" width="683.3" height="312.7"/>
				</defs>
				<clipPath id="SVGID_30_">
					<use xlink:href="#SVGID_29_"  style="overflow:visible;"/>
				</clipPath>
				<path class="st19" d="M687,494.8H585.1v-27.6H687V494.8z"/>
			</g>
		</g>
	</g>
	<g>
		<g>
			<g>
				<defs>
					<rect id="SVGID_31_" x="71.3" y="186.1" width="683.3" height="312.7"/>
				</defs>
				<clipPath id="SVGID_32_">
					<use xlink:href="#SVGID_31_"  style="overflow:visible;"/>
				</clipPath>
				<path class="st20" d="M687,494.8H585.1v-27.6H687V494.8z"/>
			</g>
		</g>
	</g>
	<path class="st21" d="M154.3,263.2c0,0.4-0.1,0.7-0.3,1c-0.2,0.3-0.4,0.5-0.8,0.7c0.4,0.2,0.7,0.4,0.9,0.7c0.2,0.3,0.3,0.7,0.3,1
		c0,0.6-0.2,1.1-0.6,1.5c-0.4,0.4-1,0.5-1.6,0.5c-0.7,0-1.2-0.2-1.7-0.5c-0.4-0.4-0.6-0.9-0.6-1.5c0-0.4,0.1-0.7,0.3-1
		c0.2-0.3,0.5-0.5,0.9-0.7c-0.3-0.2-0.6-0.4-0.7-0.7c-0.2-0.3-0.3-0.6-0.3-1c0-0.6,0.2-1.1,0.6-1.4c0.4-0.4,0.9-0.5,1.5-0.5
		s1.1,0.2,1.5,0.5C154.1,262.1,154.3,262.6,154.3,263.2z M153.5,266.6c0-0.4-0.1-0.7-0.4-1c-0.3-0.3-0.6-0.4-1-0.4s-0.7,0.1-1,0.4
		c-0.2,0.2-0.4,0.6-0.4,1s0.1,0.7,0.4,1c0.2,0.2,0.6,0.3,1,0.3s0.7-0.1,1-0.4C153.4,267.2,153.5,267,153.5,266.6z M152.2,262.1
		c-0.4,0-0.6,0.1-0.9,0.3c-0.2,0.2-0.3,0.5-0.3,0.9s0.1,0.6,0.3,0.9c0.2,0.2,0.5,0.3,0.9,0.3s0.7-0.1,0.9-0.3
		c0.2-0.2,0.3-0.5,0.3-0.9s-0.1-0.7-0.3-0.9C152.8,262.1,152.5,262.1,152.2,262.1z M156.2,265l0.4-3.6h3.7v0.8h-2.9l-0.2,1.9
		c0.4-0.2,0.8-0.3,1.2-0.3c0.6,0,1.2,0.2,1.5,0.7c0.4,0.4,0.6,1,0.6,1.7c0,0.7-0.2,1.3-0.6,1.7c-0.4,0.4-0.9,0.6-1.7,0.6
		c-0.6,0-1.1-0.2-1.5-0.5c-0.4-0.4-0.6-0.8-0.7-1.5h0.8c0.1,0.4,0.2,0.7,0.4,0.9c0.2,0.2,0.5,0.3,0.9,0.3s0.7-0.1,1-0.4
		c0.2-0.3,0.4-0.7,0.4-1.2s-0.1-0.9-0.4-1.1c-0.3-0.3-0.6-0.4-1-0.4s-0.7,0.1-0.9,0.2L157,265H156.2z M161.7,270l-0.5-0.4
		c0.3-0.4,0.5-0.9,0.5-1.3v-0.8h0.9v0.7c0,0.3-0.1,0.7-0.2,1C162.3,269.5,161.9,269.8,161.7,270z M167.8,265.5
		c0,1.1-0.2,1.9-0.5,2.4c-0.4,0.5-0.9,0.8-1.7,0.8s-1.3-0.3-1.7-0.8s-0.6-1.3-0.6-2.3v-1.2c0-1.1,0.2-1.8,0.5-2.3
		c0.4-0.5,0.9-0.8,1.7-0.8s1.3,0.2,1.7,0.7s0.6,1.2,0.6,2.3V265.5z M166.9,264.2c0-0.8-0.1-1.3-0.3-1.7s-0.5-0.5-1-0.5
		s-0.8,0.2-1,0.5c-0.2,0.3-0.3,0.9-0.3,1.6v1.4c0,0.8,0.1,1.3,0.3,1.7s0.6,0.5,1,0.5s0.8-0.2,1-0.5c0.2-0.3,0.3-0.9,0.3-1.6V264.2z
		 M173.6,265.5c0,1.1-0.2,1.9-0.5,2.4c-0.4,0.5-0.9,0.8-1.7,0.8s-1.3-0.3-1.7-0.8s-0.6-1.3-0.6-2.3v-1.2c0-1.1,0.2-1.8,0.5-2.3
		c0.4-0.5,0.9-0.8,1.7-0.8s1.3,0.2,1.7,0.7s0.6,1.2,0.6,2.3V265.5z M172.7,264.2c0-0.8-0.1-1.3-0.3-1.7s-0.5-0.5-1-0.5
		s-0.8,0.2-1,0.5c-0.2,0.3-0.3,0.9-0.3,1.6v1.4c0,0.8,0.1,1.3,0.3,1.7s0.6,0.5,1,0.5s0.8-0.2,1-0.5c0.2-0.3,0.3-0.9,0.3-1.6V264.2z
		 M179.5,265.5c0,1.1-0.2,1.9-0.5,2.4c-0.4,0.5-0.9,0.8-1.7,0.8s-1.3-0.3-1.7-0.8s-0.6-1.3-0.6-2.3v-1.2c0-1.1,0.2-1.8,0.5-2.3
		c0.4-0.5,0.9-0.8,1.7-0.8s1.3,0.2,1.7,0.7s0.6,1.2,0.6,2.3V265.5z M178.6,264.2c0-0.8-0.1-1.3-0.3-1.7s-0.5-0.5-1-0.5
		s-0.8,0.2-1,0.5c-0.2,0.3-0.3,0.9-0.3,1.6v1.4c0,0.8,0.1,1.3,0.3,1.7s0.6,0.5,1,0.5s0.8-0.2,1-0.5c0.2-0.3,0.3-0.9,0.3-1.6V264.2z"
		/>
	<path class="st22" d="M154.3,263.2c0,0.4-0.1,0.7-0.3,1c-0.2,0.3-0.4,0.5-0.8,0.7c0.4,0.2,0.7,0.4,0.9,0.7c0.2,0.3,0.3,0.7,0.3,1
		c0,0.6-0.2,1.1-0.6,1.5c-0.4,0.4-1,0.5-1.6,0.5c-0.7,0-1.2-0.2-1.7-0.5c-0.4-0.4-0.6-0.9-0.6-1.5c0-0.4,0.1-0.7,0.3-1
		c0.2-0.3,0.5-0.5,0.9-0.7c-0.3-0.2-0.6-0.4-0.7-0.7c-0.2-0.3-0.3-0.6-0.3-1c0-0.6,0.2-1.1,0.6-1.4c0.4-0.4,0.9-0.5,1.5-0.5
		s1.1,0.2,1.5,0.5C154.1,262.1,154.3,262.6,154.3,263.2z M153.5,266.6c0-0.4-0.1-0.7-0.4-1c-0.3-0.3-0.6-0.4-1-0.4s-0.7,0.1-1,0.4
		c-0.2,0.2-0.4,0.6-0.4,1s0.1,0.7,0.4,1c0.2,0.2,0.6,0.3,1,0.3s0.7-0.1,1-0.4C153.4,267.2,153.5,267,153.5,266.6z M152.2,262.1
		c-0.4,0-0.6,0.1-0.9,0.3c-0.2,0.2-0.3,0.5-0.3,0.9s0.1,0.6,0.3,0.9c0.2,0.2,0.5,0.3,0.9,0.3s0.7-0.1,0.9-0.3
		c0.2-0.2,0.3-0.5,0.3-0.9s-0.1-0.7-0.3-0.9C152.8,262.1,152.5,262.1,152.2,262.1z M156.2,265l0.4-3.6h3.7v0.8h-2.9l-0.2,1.9
		c0.4-0.2,0.8-0.3,1.2-0.3c0.6,0,1.2,0.2,1.5,0.7c0.4,0.4,0.6,1,0.6,1.7c0,0.7-0.2,1.3-0.6,1.7c-0.4,0.4-0.9,0.6-1.7,0.6
		c-0.6,0-1.1-0.2-1.5-0.5c-0.4-0.4-0.6-0.8-0.7-1.5h0.8c0.1,0.4,0.2,0.7,0.4,0.9c0.2,0.2,0.5,0.3,0.9,0.3s0.7-0.1,1-0.4
		c0.2-0.3,0.4-0.7,0.4-1.2s-0.1-0.9-0.4-1.1c-0.3-0.3-0.6-0.4-1-0.4s-0.7,0.1-0.9,0.2L157,265H156.2z M161.7,270l-0.5-0.4
		c0.3-0.4,0.5-0.9,0.5-1.3v-0.8h0.9v0.7c0,0.3-0.1,0.7-0.2,1C162.3,269.5,161.9,269.8,161.7,270z M167.8,265.5
		c0,1.1-0.2,1.9-0.5,2.4c-0.4,0.5-0.9,0.8-1.7,0.8s-1.3-0.3-1.7-0.8s-0.6-1.3-0.6-2.3v-1.2c0-1.1,0.2-1.8,0.5-2.3
		c0.4-0.5,0.9-0.8,1.7-0.8s1.3,0.2,1.7,0.7s0.6,1.2,0.6,2.3V265.5z M166.9,264.2c0-0.8-0.1-1.3-0.3-1.7s-0.5-0.5-1-0.5
		s-0.8,0.2-1,0.5c-0.2,0.3-0.3,0.9-0.3,1.6v1.4c0,0.8,0.1,1.3,0.3,1.7s0.6,0.5,1,0.5s0.8-0.2,1-0.5c0.2-0.3,0.3-0.9,0.3-1.6V264.2z
		 M173.6,265.5c0,1.1-0.2,1.9-0.5,2.4c-0.4,0.5-0.9,0.8-1.7,0.8s-1.3-0.3-1.7-0.8s-0.6-1.3-0.6-2.3v-1.2c0-1.1,0.2-1.8,0.5-2.3
		c0.4-0.5,0.9-0.8,1.7-0.8s1.3,0.2,1.7,0.7s0.6,1.2,0.6,2.3V265.5z M172.7,264.2c0-0.8-0.1-1.3-0.3-1.7s-0.5-0.5-1-0.5
		s-0.8,0.2-1,0.5c-0.2,0.3-0.3,0.9-0.3,1.6v1.4c0,0.8,0.1,1.3,0.3,1.7s0.6,0.5,1,0.5s0.8-0.2,1-0.5c0.2-0.3,0.3-0.9,0.3-1.6V264.2z
		 M179.5,265.5c0,1.1-0.2,1.9-0.5,2.4c-0.4,0.5-0.9,0.8-1.7,0.8s-1.3-0.3-1.7-0.8s-0.6-1.3-0.6-2.3v-1.2c0-1.1,0.2-1.8,0.5-2.3
		c0.4-0.5,0.9-0.8,1.7-0.8s1.3,0.2,1.7,0.7s0.6,1.2,0.6,2.3V265.5z M178.6,264.2c0-0.8-0.1-1.3-0.3-1.7s-0.5-0.5-1-0.5
		s-0.8,0.2-1,0.5c-0.2,0.3-0.3,0.9-0.3,1.6v1.4c0,0.8,0.1,1.3,0.3,1.7s0.6,0.5,1,0.5s0.8-0.2,1-0.5c0.2-0.3,0.3-0.9,0.3-1.6V264.2z"
		/>
	<path class="st21" d="M310.9,379.2h1v0.7h-1v1.7H310v-1.7h-3.3v-0.5l3.2-4.9h1L310.9,379.2L310.9,379.2z M307.7,379.2h2.2v-3.5
		l-0.1,0.2L307.7,379.2z M313.3,378l0.4-3.6h3.7v0.8h-2.9l-0.2,1.9c0.4-0.2,0.8-0.3,1.2-0.3c0.6,0,1.2,0.2,1.5,0.7
		c0.4,0.4,0.6,1,0.6,1.7s-0.2,1.3-0.6,1.7c-0.4,0.4-0.9,0.6-1.7,0.6c-0.6,0-1.1-0.2-1.5-0.5c-0.4-0.4-0.6-0.8-0.7-1.5h0.8
		c0.1,0.4,0.2,0.7,0.4,0.9c0.2,0.2,0.5,0.3,0.9,0.3s0.7-0.1,1-0.4c0.2-0.3,0.4-0.7,0.4-1.2s-0.1-0.9-0.4-1.1c-0.3-0.3-0.6-0.4-1-0.4
		s-0.7,0.1-0.9,0.2l-0.2,0.2L313.3,378z M318.8,383l-0.5-0.4c0.3-0.4,0.5-0.9,0.5-1.3v-0.8h0.9v0.7c0,0.3-0.1,0.7-0.2,1
		C319.2,382.6,319,382.8,318.8,383z M324.9,378.6c0,1.1-0.2,1.9-0.5,2.4c-0.4,0.5-0.9,0.8-1.7,0.8c-0.8,0-1.3-0.3-1.7-0.8
		c-0.4-0.5-0.6-1.3-0.6-2.3v-1.2c0-1.1,0.2-1.8,0.5-2.3c0.4-0.5,0.9-0.8,1.7-0.8c0.8,0,1.3,0.2,1.7,0.7c0.4,0.5,0.6,1.2,0.6,2.3
		V378.6z M324,377.2c0-0.8-0.1-1.3-0.3-1.7c-0.2-0.4-0.5-0.5-1-0.5s-0.8,0.2-1,0.5s-0.3,0.9-0.3,1.6v1.4c0,0.8,0.1,1.3,0.3,1.7
		c0.2,0.4,0.6,0.5,1,0.5s0.8-0.2,1-0.5s0.3-0.9,0.3-1.6V377.2z M330.7,378.6c0,1.1-0.2,1.9-0.5,2.4c-0.4,0.5-0.9,0.8-1.7,0.8
		c-0.8,0-1.3-0.3-1.7-0.8c-0.4-0.5-0.6-1.3-0.6-2.3v-1.2c0-1.1,0.2-1.8,0.5-2.3c0.4-0.5,0.9-0.8,1.7-0.8c0.8,0,1.3,0.2,1.7,0.7
		c0.4,0.5,0.6,1.2,0.6,2.3V378.6z M329.8,377.2c0-0.8-0.1-1.3-0.3-1.7c-0.2-0.4-0.5-0.5-1-0.5s-0.8,0.2-1,0.5s-0.3,0.9-0.3,1.6v1.4
		c0,0.8,0.1,1.3,0.3,1.7c0.2,0.4,0.6,0.5,1,0.5s0.8-0.2,1-0.5s0.3-0.9,0.3-1.6V377.2z M336.6,378.6c0,1.1-0.2,1.9-0.5,2.4
		c-0.4,0.5-0.9,0.8-1.7,0.8c-0.8,0-1.3-0.3-1.7-0.8c-0.4-0.5-0.6-1.3-0.6-2.3v-1.2c0-1.1,0.2-1.8,0.5-2.3c0.4-0.5,0.9-0.8,1.7-0.8
		c0.8,0,1.3,0.2,1.7,0.7c0.4,0.5,0.6,1.2,0.6,2.3V378.6z M335.7,377.2c0-0.8-0.1-1.3-0.3-1.7c-0.2-0.4-0.5-0.5-1-0.5s-0.8,0.2-1,0.5
		s-0.3,0.9-0.3,1.6v1.4c0,0.8,0.1,1.3,0.3,1.7c0.2,0.4,0.6,0.5,1,0.5s0.8-0.2,1-0.5s0.3-0.9,0.3-1.6V377.2z"/>
	<path class="st22" d="M310.9,379.2h1v0.7h-1v1.7H310v-1.7h-3.3v-0.5l3.2-4.9h1L310.9,379.2L310.9,379.2z M307.7,379.2h2.2v-3.5
		l-0.1,0.2L307.7,379.2z M313.3,378l0.4-3.6h3.7v0.8h-2.9l-0.2,1.9c0.4-0.2,0.8-0.3,1.2-0.3c0.6,0,1.2,0.2,1.5,0.7
		c0.4,0.4,0.6,1,0.6,1.7s-0.2,1.3-0.6,1.7c-0.4,0.4-0.9,0.6-1.7,0.6c-0.6,0-1.1-0.2-1.5-0.5c-0.4-0.4-0.6-0.8-0.7-1.5h0.8
		c0.1,0.4,0.2,0.7,0.4,0.9c0.2,0.2,0.5,0.3,0.9,0.3s0.7-0.1,1-0.4c0.2-0.3,0.4-0.7,0.4-1.2s-0.1-0.9-0.4-1.1c-0.3-0.3-0.6-0.4-1-0.4
		s-0.7,0.1-0.9,0.2l-0.2,0.2L313.3,378z M318.8,383l-0.5-0.4c0.3-0.4,0.5-0.9,0.5-1.3v-0.8h0.9v0.7c0,0.3-0.1,0.7-0.2,1
		C319.2,382.6,319,382.8,318.8,383z M324.9,378.6c0,1.1-0.2,1.9-0.5,2.4c-0.4,0.5-0.9,0.8-1.7,0.8c-0.8,0-1.3-0.3-1.7-0.8
		c-0.4-0.5-0.6-1.3-0.6-2.3v-1.2c0-1.1,0.2-1.8,0.5-2.3c0.4-0.5,0.9-0.8,1.7-0.8c0.8,0,1.3,0.2,1.7,0.7c0.4,0.5,0.6,1.2,0.6,2.3
		V378.6z M324,377.2c0-0.8-0.1-1.3-0.3-1.7c-0.2-0.4-0.5-0.5-1-0.5s-0.8,0.2-1,0.5s-0.3,0.9-0.3,1.6v1.4c0,0.8,0.1,1.3,0.3,1.7
		c0.2,0.4,0.6,0.5,1,0.5s0.8-0.2,1-0.5s0.3-0.9,0.3-1.6V377.2z M330.7,378.6c0,1.1-0.2,1.9-0.5,2.4c-0.4,0.5-0.9,0.8-1.7,0.8
		c-0.8,0-1.3-0.3-1.7-0.8c-0.4-0.5-0.6-1.3-0.6-2.3v-1.2c0-1.1,0.2-1.8,0.5-2.3c0.4-0.5,0.9-0.8,1.7-0.8c0.8,0,1.3,0.2,1.7,0.7
		c0.4,0.5,0.6,1.2,0.6,2.3V378.6z M329.8,377.2c0-0.8-0.1-1.3-0.3-1.7c-0.2-0.4-0.5-0.5-1-0.5s-0.8,0.2-1,0.5s-0.3,0.9-0.3,1.6v1.4
		c0,0.8,0.1,1.3,0.3,1.7c0.2,0.4,0.6,0.5,1,0.5s0.8-0.2,1-0.5s0.3-0.9,0.3-1.6V377.2z M336.6,378.6c0,1.1-0.2,1.9-0.5,2.4
		c-0.4,0.5-0.9,0.8-1.7,0.8c-0.8,0-1.3-0.3-1.7-0.8c-0.4-0.5-0.6-1.3-0.6-2.3v-1.2c0-1.1,0.2-1.8,0.5-2.3c0.4-0.5,0.9-0.8,1.7-0.8
		c0.8,0,1.3,0.2,1.7,0.7c0.4,0.5,0.6,1.2,0.6,2.3V378.6z M335.7,377.2c0-0.8-0.1-1.3-0.3-1.7c-0.2-0.4-0.5-0.5-1-0.5s-0.8,0.2-1,0.5
		s-0.3,0.9-0.3,1.6v1.4c0,0.8,0.1,1.3,0.3,1.7c0.2,0.4,0.6,0.5,1,0.5s0.8-0.2,1-0.5s0.3-0.9,0.3-1.6V377.2z"/>
	<path class="st23" d="M468.8,429.6h-4.7V429l2.5-2.7c0.4-0.4,0.6-0.8,0.8-1c0.1-0.3,0.2-0.5,0.2-0.8c0-0.4-0.1-0.7-0.3-0.9
		c-0.2-0.2-0.5-0.4-0.9-0.4s-0.8,0.1-1,0.4c-0.3,0.3-0.4,0.6-0.4,1.1h-1c0-0.7,0.2-1.2,0.6-1.6c0.4-0.4,1-0.6,1.7-0.6
		s1.2,0.2,1.6,0.5c0.4,0.3,0.6,0.8,0.6,1.4c0,0.7-0.4,1.5-1.3,2.5l-1.9,2.1h3.6L468.8,429.6L468.8,429.6z M474.3,424.4
		c0,0.4-0.1,0.7-0.3,1s-0.4,0.5-0.8,0.7c0.4,0.2,0.7,0.4,0.9,0.7c0.2,0.3,0.3,0.7,0.3,1c0,0.6-0.2,1.1-0.6,1.5
		c-0.4,0.4-1,0.5-1.6,0.5c-0.7,0-1.2-0.2-1.7-0.5c-0.4-0.4-0.6-0.9-0.6-1.5c0-0.4,0.1-0.7,0.3-1s0.5-0.5,0.9-0.7
		c-0.3-0.2-0.6-0.4-0.7-0.7c-0.2-0.3-0.3-0.6-0.3-1c0-0.6,0.2-1.1,0.6-1.4c0.4-0.4,0.9-0.5,1.5-0.5s1.1,0.2,1.5,0.5
		C474.1,423.2,474.3,423.8,474.3,424.4z M473.5,427.7c0-0.4-0.1-0.7-0.4-1c-0.3-0.3-0.6-0.4-1-0.4s-0.7,0.1-1,0.4
		c-0.2,0.2-0.4,0.6-0.4,1s0.1,0.7,0.4,1c0.2,0.2,0.6,0.3,1,0.3s0.7-0.1,1-0.4C473.4,428.4,473.5,428.1,473.5,427.7z M472.2,423.2
		c-0.4,0-0.6,0.1-0.9,0.3c-0.2,0.2-0.3,0.5-0.3,0.9s0.1,0.6,0.3,0.9c0.2,0.2,0.5,0.3,0.9,0.3s0.7-0.1,0.9-0.3
		c0.2-0.2,0.3-0.5,0.3-0.9s-0.1-0.7-0.3-0.9C472.8,423.2,472.5,423.2,472.2,423.2z M475.9,431.1l-0.5-0.4c0.3-0.4,0.5-0.9,0.5-1.3
		v-0.8h0.9v0.7c0,0.3-0.1,0.7-0.2,1S476.1,430.9,475.9,431.1z M482,426.6c0,1.1-0.2,1.9-0.5,2.4c-0.4,0.5-0.9,0.8-1.7,0.8
		s-1.3-0.3-1.7-0.8s-0.6-1.3-0.6-2.3v-1.2c0-1.1,0.2-1.8,0.5-2.3c0.4-0.5,0.9-0.8,1.7-0.8s1.3,0.2,1.7,0.7s0.6,1.2,0.6,2.3V426.6z
		 M481,425.4c0-0.8-0.1-1.3-0.3-1.7c-0.2-0.4-0.5-0.5-1-0.5s-0.8,0.2-1,0.5s-0.3,0.9-0.3,1.6v1.4c0,0.8,0.1,1.3,0.3,1.7
		c0.2,0.4,0.6,0.5,1,0.5s0.8-0.2,1-0.5s0.3-0.9,0.3-1.6V425.4z M487.8,426.6c0,1.1-0.2,1.9-0.5,2.4c-0.4,0.5-0.9,0.8-1.7,0.8
		s-1.3-0.3-1.7-0.8s-0.6-1.3-0.6-2.3v-1.2c0-1.1,0.2-1.8,0.5-2.3c0.4-0.5,0.9-0.8,1.7-0.8s1.3,0.2,1.7,0.7s0.6,1.2,0.6,2.3V426.6z
		 M486.9,425.4c0-0.8-0.1-1.3-0.3-1.7c-0.2-0.4-0.5-0.5-1-0.5s-0.8,0.2-1,0.5s-0.3,0.9-0.3,1.6v1.4c0,0.8,0.1,1.3,0.3,1.7
		c0.2,0.4,0.6,0.5,1,0.5s0.8-0.2,1-0.5s0.3-0.9,0.3-1.6V425.4z M493.7,426.6c0,1.1-0.2,1.9-0.5,2.4c-0.4,0.5-0.9,0.8-1.7,0.8
		s-1.3-0.3-1.7-0.8s-0.6-1.3-0.6-2.3v-1.2c0-1.1,0.2-1.8,0.5-2.3c0.4-0.5,0.9-0.8,1.7-0.8s1.3,0.2,1.7,0.7s0.6,1.2,0.6,2.3V426.6z
		 M492.7,425.4c0-0.8-0.1-1.3-0.3-1.7c-0.2-0.4-0.5-0.5-1-0.5s-0.8,0.2-1,0.5s-0.3,0.9-0.3,1.6v1.4c0,0.8,0.1,1.3,0.3,1.7
		c0.2,0.4,0.6,0.5,1,0.5s0.8-0.2,1-0.5s0.3-0.9,0.3-1.6V425.4z"/>
	<path class="st22" d="M468.8,429.6h-4.7V429l2.5-2.7c0.4-0.4,0.6-0.8,0.8-1c0.1-0.3,0.2-0.5,0.2-0.8c0-0.4-0.1-0.7-0.3-0.9
		c-0.2-0.2-0.5-0.4-0.9-0.4s-0.8,0.1-1,0.4c-0.3,0.3-0.4,0.6-0.4,1.1h-1c0-0.7,0.2-1.2,0.6-1.6c0.4-0.4,1-0.6,1.7-0.6
		s1.2,0.2,1.6,0.5c0.4,0.3,0.6,0.8,0.6,1.4c0,0.7-0.4,1.5-1.3,2.5l-1.9,2.1h3.6L468.8,429.6L468.8,429.6z M474.3,424.4
		c0,0.4-0.1,0.7-0.3,1s-0.4,0.5-0.8,0.7c0.4,0.2,0.7,0.4,0.9,0.7c0.2,0.3,0.3,0.7,0.3,1c0,0.6-0.2,1.1-0.6,1.5
		c-0.4,0.4-1,0.5-1.6,0.5c-0.7,0-1.2-0.2-1.7-0.5c-0.4-0.4-0.6-0.9-0.6-1.5c0-0.4,0.1-0.7,0.3-1s0.5-0.5,0.9-0.7
		c-0.3-0.2-0.6-0.4-0.7-0.7c-0.2-0.3-0.3-0.6-0.3-1c0-0.6,0.2-1.1,0.6-1.4c0.4-0.4,0.9-0.5,1.5-0.5s1.1,0.2,1.5,0.5
		C474.1,423.2,474.3,423.8,474.3,424.4z M473.5,427.7c0-0.4-0.1-0.7-0.4-1c-0.3-0.3-0.6-0.4-1-0.4s-0.7,0.1-1,0.4
		c-0.2,0.2-0.4,0.6-0.4,1s0.1,0.7,0.4,1c0.2,0.2,0.6,0.3,1,0.3s0.7-0.1,1-0.4C473.4,428.4,473.5,428.1,473.5,427.7z M472.2,423.2
		c-0.4,0-0.6,0.1-0.9,0.3c-0.2,0.2-0.3,0.5-0.3,0.9s0.1,0.6,0.3,0.9c0.2,0.2,0.5,0.3,0.9,0.3s0.7-0.1,0.9-0.3
		c0.2-0.2,0.3-0.5,0.3-0.9s-0.1-0.7-0.3-0.9C472.8,423.2,472.5,423.2,472.2,423.2z M475.9,431.1l-0.5-0.4c0.3-0.4,0.5-0.9,0.5-1.3
		v-0.8h0.9v0.7c0,0.3-0.1,0.7-0.2,1S476.1,430.9,475.9,431.1z M482,426.6c0,1.1-0.2,1.9-0.5,2.4c-0.4,0.5-0.9,0.8-1.7,0.8
		s-1.3-0.3-1.7-0.8s-0.6-1.3-0.6-2.3v-1.2c0-1.1,0.2-1.8,0.5-2.3c0.4-0.5,0.9-0.8,1.7-0.8s1.3,0.2,1.7,0.7s0.6,1.2,0.6,2.3V426.6z
		 M481,425.4c0-0.8-0.1-1.3-0.3-1.7c-0.2-0.4-0.5-0.5-1-0.5s-0.8,0.2-1,0.5s-0.3,0.9-0.3,1.6v1.4c0,0.8,0.1,1.3,0.3,1.7
		c0.2,0.4,0.6,0.5,1,0.5s0.8-0.2,1-0.5s0.3-0.9,0.3-1.6V425.4z M487.8,426.6c0,1.1-0.2,1.9-0.5,2.4c-0.4,0.5-0.9,0.8-1.7,0.8
		s-1.3-0.3-1.7-0.8s-0.6-1.3-0.6-2.3v-1.2c0-1.1,0.2-1.8,0.5-2.3c0.4-0.5,0.9-0.8,1.7-0.8s1.3,0.2,1.7,0.7s0.6,1.2,0.6,2.3V426.6z
		 M486.9,425.4c0-0.8-0.1-1.3-0.3-1.7c-0.2-0.4-0.5-0.5-1-0.5s-0.8,0.2-1,0.5s-0.3,0.9-0.3,1.6v1.4c0,0.8,0.1,1.3,0.3,1.7
		c0.2,0.4,0.6,0.5,1,0.5s0.8-0.2,1-0.5s0.3-0.9,0.3-1.6V425.4z M493.7,426.6c0,1.1-0.2,1.9-0.5,2.4c-0.4,0.5-0.9,0.8-1.7,0.8
		s-1.3-0.3-1.7-0.8s-0.6-1.3-0.6-2.3v-1.2c0-1.1,0.2-1.8,0.5-2.3c0.4-0.5,0.9-0.8,1.7-0.8s1.3,0.2,1.7,0.7s0.6,1.2,0.6,2.3V426.6z
		 M492.7,425.4c0-0.8-0.1-1.3-0.3-1.7c-0.2-0.4-0.5-0.5-1-0.5s-0.8,0.2-1,0.5s-0.3,0.9-0.3,1.6v1.4c0,0.8,0.1,1.3,0.3,1.7
		c0.2,0.4,0.6,0.5,1,0.5s0.8-0.2,1-0.5s0.3-0.9,0.3-1.6V425.4z"/>
	<path class="st24" d="M627.6,477.9c-0.2,0.2-0.4,0.4-0.7,0.5s-0.5,0.2-0.9,0.2s-0.8-0.1-1.1-0.3c-0.3-0.2-0.5-0.5-0.7-0.8
		c-0.2-0.4-0.2-0.8-0.2-1.2c0-0.5,0.1-0.9,0.3-1.3s0.4-0.7,0.8-0.9c0.3-0.2,0.7-0.3,1.2-0.3c0.7,0,1.3,0.3,1.7,0.8s0.6,1.2,0.6,2.2
		v0.3c0,1.4-0.3,2.4-0.8,3s-1.4,1-2.5,1H625v-0.8h0.2c0.7,0,1.3-0.2,1.7-0.6C627.3,479.4,627.6,478.8,627.6,477.9z M626.2,477.9
		c0.3,0,0.6-0.1,0.8-0.3c0.3-0.2,0.5-0.4,0.6-0.7v-0.4c0-0.6-0.1-1.1-0.4-1.4c-0.3-0.4-0.6-0.6-1-0.6s-0.7,0.2-1,0.5
		c-0.2,0.3-0.4,0.7-0.4,1.2s0.1,0.9,0.3,1.2C625.5,477.8,625.8,477.9,626.2,477.9z M630,482.5l-0.5-0.4c0.3-0.4,0.5-0.9,0.5-1.3V480
		h0.9v0.7c0,0.3-0.1,0.7-0.2,1C630.5,482,630.3,482.2,630,482.5z M636,475.8c0,0.4-0.1,0.7-0.3,1s-0.4,0.5-0.8,0.7
		c0.4,0.2,0.7,0.4,0.9,0.7c0.2,0.3,0.3,0.7,0.3,1c0,0.6-0.2,1.1-0.6,1.5c-0.4,0.4-1,0.5-1.6,0.5c-0.7,0-1.2-0.2-1.7-0.5
		c-0.4-0.4-0.6-0.9-0.6-1.5c0-0.4,0.1-0.7,0.3-1s0.5-0.5,0.9-0.7c-0.3-0.2-0.6-0.4-0.7-0.7c-0.2-0.3-0.3-0.6-0.3-1
		c0-0.6,0.2-1.1,0.6-1.4c0.4-0.4,0.9-0.5,1.5-0.5s1.1,0.2,1.5,0.5C635.8,474.7,636,475.2,636,475.8z M635.2,479.1
		c0-0.4-0.1-0.7-0.4-1c-0.3-0.3-0.6-0.4-1-0.4s-0.7,0.1-1,0.4c-0.2,0.2-0.4,0.6-0.4,1s0.1,0.7,0.4,1c0.2,0.2,0.6,0.3,1,0.3
		s0.7-0.1,1-0.4C635.1,479.8,635.2,479.5,635.2,479.1z M633.9,474.6c-0.4,0-0.6,0.1-0.9,0.3c-0.2,0.2-0.3,0.5-0.3,0.9
		s0.1,0.6,0.3,0.9c0.2,0.2,0.5,0.3,0.9,0.3s0.7-0.1,0.9-0.3c0.2-0.2,0.3-0.5,0.3-0.9s-0.1-0.7-0.3-0.9
		C634.5,474.7,634.2,474.6,633.9,474.6z M642,478c0,1.1-0.2,1.9-0.5,2.4c-0.4,0.5-0.9,0.8-1.7,0.8s-1.3-0.3-1.7-0.8
		s-0.6-1.3-0.6-2.3V477c0-1.1,0.2-1.8,0.5-2.3c0.4-0.5,0.9-0.8,1.7-0.8s1.3,0.2,1.7,0.7s0.6,1.2,0.6,2.3V478z M641.1,476.8
		c0-0.8-0.1-1.3-0.3-1.7c-0.2-0.4-0.5-0.5-1-0.5s-0.8,0.2-1,0.5s-0.3,0.9-0.3,1.6v1.4c0,0.8,0.1,1.3,0.3,1.7c0.2,0.4,0.6,0.5,1,0.5
		s0.8-0.2,1-0.5s0.3-0.9,0.3-1.6V476.8z M647.8,478c0,1.1-0.2,1.9-0.5,2.4c-0.4,0.5-0.9,0.8-1.7,0.8s-1.3-0.3-1.7-0.8
		s-0.6-1.3-0.6-2.3V477c0-1.1,0.2-1.8,0.5-2.3c0.4-0.5,0.9-0.8,1.7-0.8s1.3,0.2,1.7,0.7s0.6,1.2,0.6,2.3V478z M646.9,476.8
		c0-0.8-0.1-1.3-0.3-1.7c-0.2-0.4-0.5-0.5-1-0.5s-0.8,0.2-1,0.5s-0.3,0.9-0.3,1.6v1.4c0,0.8,0.1,1.3,0.3,1.7c0.2,0.4,0.6,0.5,1,0.5
		s0.8-0.2,1-0.5s0.3-0.9,0.3-1.6V476.8z"/>
	<path class="st22" d="M627.6,477.9c-0.2,0.2-0.4,0.4-0.7,0.5s-0.5,0.2-0.9,0.2s-0.8-0.1-1.1-0.3c-0.3-0.2-0.5-0.5-0.7-0.8
		c-0.2-0.4-0.2-0.8-0.2-1.2c0-0.5,0.1-0.9,0.3-1.3s0.4-0.7,0.8-0.9c0.3-0.2,0.7-0.3,1.2-0.3c0.7,0,1.3,0.3,1.7,0.8s0.6,1.2,0.6,2.2
		v0.3c0,1.4-0.3,2.4-0.8,3s-1.4,1-2.5,1H625v-0.8h0.2c0.7,0,1.3-0.2,1.7-0.6C627.3,479.4,627.6,478.8,627.6,477.9z M626.2,477.9
		c0.3,0,0.6-0.1,0.8-0.3c0.3-0.2,0.5-0.4,0.6-0.7v-0.4c0-0.6-0.1-1.1-0.4-1.4c-0.3-0.4-0.6-0.6-1-0.6s-0.7,0.2-1,0.5
		c-0.2,0.3-0.4,0.7-0.4,1.2s0.1,0.9,0.3,1.2C625.5,477.8,625.8,477.9,626.2,477.9z M630,482.5l-0.5-0.4c0.3-0.4,0.5-0.9,0.5-1.3V480
		h0.9v0.7c0,0.3-0.1,0.7-0.2,1C630.5,482,630.3,482.2,630,482.5z M636,475.8c0,0.4-0.1,0.7-0.3,1s-0.4,0.5-0.8,0.7
		c0.4,0.2,0.7,0.4,0.9,0.7c0.2,0.3,0.3,0.7,0.3,1c0,0.6-0.2,1.1-0.6,1.5c-0.4,0.4-1,0.5-1.6,0.5c-0.7,0-1.2-0.2-1.7-0.5
		c-0.4-0.4-0.6-0.9-0.6-1.5c0-0.4,0.1-0.7,0.3-1s0.5-0.5,0.9-0.7c-0.3-0.2-0.6-0.4-0.7-0.7c-0.2-0.3-0.3-0.6-0.3-1
		c0-0.6,0.2-1.1,0.6-1.4c0.4-0.4,0.9-0.5,1.5-0.5s1.1,0.2,1.5,0.5C635.8,474.7,636,475.2,636,475.8z M635.2,479.1
		c0-0.4-0.1-0.7-0.4-1c-0.3-0.3-0.6-0.4-1-0.4s-0.7,0.1-1,0.4c-0.2,0.2-0.4,0.6-0.4,1s0.1,0.7,0.4,1c0.2,0.2,0.6,0.3,1,0.3
		s0.7-0.1,1-0.4C635.1,479.8,635.2,479.5,635.2,479.1z M633.9,474.6c-0.4,0-0.6,0.1-0.9,0.3c-0.2,0.2-0.3,0.5-0.3,0.9
		s0.1,0.6,0.3,0.9c0.2,0.2,0.5,0.3,0.9,0.3s0.7-0.1,0.9-0.3c0.2-0.2,0.3-0.5,0.3-0.9s-0.1-0.7-0.3-0.9
		C634.5,474.7,634.2,474.6,633.9,474.6z M642,478c0,1.1-0.2,1.9-0.5,2.4c-0.4,0.5-0.9,0.8-1.7,0.8s-1.3-0.3-1.7-0.8
		s-0.6-1.3-0.6-2.3V477c0-1.1,0.2-1.8,0.5-2.3c0.4-0.5,0.9-0.8,1.7-0.8s1.3,0.2,1.7,0.7s0.6,1.2,0.6,2.3V478z M641.1,476.8
		c0-0.8-0.1-1.3-0.3-1.7c-0.2-0.4-0.5-0.5-1-0.5s-0.8,0.2-1,0.5s-0.3,0.9-0.3,1.6v1.4c0,0.8,0.1,1.3,0.3,1.7c0.2,0.4,0.6,0.5,1,0.5
		s0.8-0.2,1-0.5s0.3-0.9,0.3-1.6V476.8z M647.8,478c0,1.1-0.2,1.9-0.5,2.4c-0.4,0.5-0.9,0.8-1.7,0.8s-1.3-0.3-1.7-0.8
		s-0.6-1.3-0.6-2.3V477c0-1.1,0.2-1.8,0.5-2.3c0.4-0.5,0.9-0.8,1.7-0.8s1.3,0.2,1.7,0.7s0.6,1.2,0.6,2.3V478z M646.9,476.8
		c0-0.8-0.1-1.3-0.3-1.7c-0.2-0.4-0.5-0.5-1-0.5s-0.8,0.2-1,0.5s-0.3,0.9-0.3,1.6v1.4c0,0.8,0.1,1.3,0.3,1.7c0.2,0.4,0.6,0.5,1,0.5
		s0.8-0.2,1-0.5s0.3-0.9,0.3-1.6V476.8z"/>
	<path class="st25" d="M65.5,469.6c0,1.1-0.2,1.9-0.5,2.4c-0.4,0.5-0.9,0.8-1.7,0.8s-1.3-0.3-1.7-0.8s-0.6-1.3-0.6-2.3v-1.2
		c0-1.1,0.2-1.8,0.5-2.3c0.4-0.5,0.9-0.8,1.7-0.8s1.3,0.2,1.7,0.7s0.6,1.2,0.6,2.3L65.5,469.6L65.5,469.6z M64.6,468.2
		c0-0.8-0.1-1.3-0.3-1.7c-0.2-0.4-0.5-0.5-1-0.5s-0.8,0.2-1,0.5s-0.3,0.9-0.3,1.6v1.4c0,0.8,0.1,1.3,0.3,1.7c0.2,0.4,0.6,0.5,1,0.5
		s0.8-0.2,1-0.5s0.3-0.9,0.3-1.6V468.2z"/>
	<path class="st26" d="M40.6,401.9H36v-0.7l2.5-2.7c0.4-0.4,0.6-0.8,0.8-1c0.1-0.3,0.2-0.5,0.2-0.8c0-0.4-0.1-0.7-0.3-0.9
		c-0.2-0.2-0.5-0.4-0.9-0.4s-0.8,0.1-1,0.4c-0.3,0.3-0.4,0.6-0.4,1.1H36c0-0.7,0.2-1.2,0.6-1.6s1-0.6,1.7-0.6s1.2,0.2,1.6,0.5
		s0.6,0.8,0.6,1.4c0,0.7-0.4,1.5-1.3,2.5l-1.9,2.1h3.6v0.7H40.6z M42.2,398.4l0.4-3.6h3.7v0.8h-2.9l-0.2,1.9
		c0.4-0.2,0.8-0.3,1.2-0.3c0.6,0,1.2,0.2,1.5,0.7c0.4,0.4,0.6,1,0.6,1.7s-0.2,1.3-0.6,1.7c-0.4,0.4-0.9,0.6-1.7,0.6
		c-0.6,0-1.1-0.2-1.5-0.5c-0.4-0.4-0.6-0.8-0.7-1.5h0.8c0.1,0.4,0.2,0.7,0.4,0.9c0.2,0.2,0.5,0.3,0.9,0.3s0.7-0.1,1-0.4
		s0.4-0.7,0.4-1.2s-0.1-0.9-0.4-1.1c-0.3-0.3-0.6-0.4-1-0.4s-0.7,0.1-0.9,0.2l-0.2,0.2L42.2,398.4z M47.7,403.4l-0.5-0.4
		c0.3-0.4,0.5-0.9,0.5-1.3v-0.8h0.9v0.7c0,0.3-0.1,0.7-0.2,1S48,403.2,47.7,403.4z M53.8,398.9c0,1.1-0.2,1.9-0.5,2.4
		c-0.4,0.5-0.9,0.8-1.7,0.8c-0.8,0-1.3-0.3-1.7-0.8c-0.4-0.5-0.6-1.3-0.6-2.3v-1.2c0-1.1,0.2-1.8,0.5-2.3c0.4-0.5,0.9-0.8,1.7-0.8
		c0.8,0,1.3,0.2,1.7,0.7c0.4,0.5,0.6,1.2,0.6,2.3V398.9z M52.9,397.7c0-0.8-0.1-1.3-0.3-1.7c-0.2-0.4-0.5-0.5-1-0.5s-0.8,0.2-1,0.5
		s-0.3,0.9-0.3,1.6v1.4c0,0.8,0.1,1.3,0.3,1.7c0.2,0.4,0.6,0.5,1,0.5s0.8-0.2,1-0.5s0.3-0.9,0.3-1.6V397.7z M59.7,398.9
		c0,1.1-0.2,1.9-0.5,2.4c-0.4,0.5-0.9,0.8-1.7,0.8c-0.8,0-1.3-0.3-1.7-0.8c-0.4-0.5-0.6-1.3-0.6-2.3v-1.2c0-1.1,0.2-1.8,0.5-2.3
		c0.4-0.5,0.9-0.8,1.7-0.8c0.8,0,1.3,0.2,1.7,0.7c0.4,0.5,0.6,1.2,0.6,2.3V398.9z M58.8,397.7c0-0.8-0.1-1.3-0.3-1.7
		c-0.2-0.4-0.5-0.5-1-0.5s-0.8,0.2-1,0.5s-0.3,0.9-0.3,1.6v1.4c0,0.8,0.1,1.3,0.3,1.7c0.2,0.4,0.6,0.5,1,0.5s0.8-0.2,1-0.5
		s0.3-0.9,0.3-1.6V397.7z M65.5,398.9c0,1.1-0.2,1.9-0.5,2.4c-0.4,0.5-0.9,0.8-1.7,0.8s-1.3-0.3-1.7-0.8S61,400,61,399v-1.2
		c0-1.1,0.2-1.8,0.5-2.3c0.4-0.5,0.9-0.8,1.7-0.8s1.3,0.2,1.7,0.7s0.6,1.2,0.6,2.3V398.9z M64.6,397.7c0-0.8-0.1-1.3-0.3-1.7
		c-0.2-0.4-0.5-0.5-1-0.5s-0.8,0.2-1,0.5s-0.3,0.9-0.3,1.6v1.4c0,0.8,0.1,1.3,0.3,1.7c0.2,0.4,0.6,0.5,1,0.5s0.8-0.2,1-0.5
		s0.3-0.9,0.3-1.6V397.7z"/>
	<path class="st26" d="M36.4,327.6l0.4-3.6h3.7v0.8h-2.9l-0.2,1.9c0.4-0.2,0.8-0.3,1.2-0.3c0.6,0,1.2,0.2,1.5,0.7
		c0.4,0.4,0.6,1,0.6,1.7c0,0.7-0.2,1.3-0.6,1.7s-0.9,0.6-1.7,0.6c-0.6,0-1.1-0.2-1.5-0.5c-0.4-0.4-0.6-0.8-0.7-1.5H37
		c0.1,0.4,0.2,0.7,0.4,0.9c0.2,0.2,0.5,0.3,0.9,0.3s0.7-0.1,1-0.4c0.2-0.3,0.4-0.7,0.4-1.2s-0.1-0.9-0.4-1.1c-0.3-0.3-0.6-0.4-1-0.4
		s-0.7,0.1-0.9,0.2l-0.2,0.2H36.4z M46.3,328.1c0,1.1-0.2,1.9-0.5,2.4c-0.4,0.5-0.9,0.8-1.7,0.8c-0.8,0-1.3-0.3-1.7-0.8
		c-0.4-0.5-0.6-1.3-0.6-2.3V327c0-1.1,0.2-1.8,0.5-2.3c0.4-0.5,0.9-0.8,1.7-0.8c0.8,0,1.3,0.2,1.7,0.7c0.4,0.5,0.6,1.2,0.6,2.3
		V328.1z M45.4,327c0-0.8-0.1-1.3-0.3-1.7c-0.2-0.4-0.5-0.5-1-0.5s-0.8,0.2-1,0.5c-0.2,0.3-0.3,0.9-0.3,1.6v1.4
		c0,0.8,0.1,1.3,0.3,1.7c0.2,0.4,0.6,0.5,1,0.5s0.8-0.2,1-0.5c0.2-0.3,0.3-0.9,0.3-1.6V327z M47.7,332.6l-0.5-0.4
		c0.3-0.4,0.5-0.9,0.5-1.3v-0.8h0.9v0.7c0,0.3-0.1,0.7-0.2,1C48.2,332.1,48,332.5,47.7,332.6z M53.8,328.1c0,1.1-0.2,1.9-0.5,2.4
		c-0.4,0.5-0.9,0.8-1.7,0.8c-0.8,0-1.3-0.3-1.7-0.8c-0.4-0.5-0.6-1.3-0.6-2.3V327c0-1.1,0.2-1.8,0.5-2.3c0.4-0.5,0.9-0.8,1.7-0.8
		c0.8,0,1.3,0.2,1.7,0.7c0.4,0.5,0.6,1.2,0.6,2.3V328.1z M52.9,327c0-0.8-0.1-1.3-0.3-1.7c-0.2-0.4-0.5-0.5-1-0.5s-0.8,0.2-1,0.5
		c-0.2,0.3-0.3,0.9-0.3,1.6v1.4c0,0.8,0.1,1.3,0.3,1.7c0.2,0.4,0.6,0.5,1,0.5s0.8-0.2,1-0.5c0.2-0.3,0.3-0.9,0.3-1.6V327z
		 M59.7,328.1c0,1.1-0.2,1.9-0.5,2.4c-0.4,0.5-0.9,0.8-1.7,0.8c-0.8,0-1.3-0.3-1.7-0.8c-0.4-0.5-0.6-1.3-0.6-2.3V327
		c0-1.1,0.2-1.8,0.5-2.3c0.4-0.5,0.9-0.8,1.7-0.8c0.8,0,1.3,0.2,1.7,0.7c0.4,0.5,0.6,1.2,0.6,2.3V328.1z M58.8,327
		c0-0.8-0.1-1.3-0.3-1.7c-0.2-0.4-0.5-0.5-1-0.5s-0.8,0.2-1,0.5c-0.2,0.3-0.3,0.9-0.3,1.6v1.4c0,0.8,0.1,1.3,0.3,1.7
		c0.2,0.4,0.6,0.5,1,0.5s0.8-0.2,1-0.5c0.2-0.3,0.3-0.9,0.3-1.6V327z M65.5,328.1c0,1.1-0.2,1.9-0.5,2.4c-0.4,0.5-0.9,0.8-1.7,0.8
		s-1.3-0.3-1.7-0.8c-0.4-0.5-0.6-1.3-0.6-2.3V327c0-1.1,0.2-1.8,0.5-2.3c0.4-0.5,0.9-0.8,1.7-0.8s1.3,0.2,1.7,0.7s0.6,1.2,0.6,2.3
		L65.5,328.1L65.5,328.1z M64.6,327c0-0.8-0.1-1.3-0.3-1.7s-0.5-0.5-1-0.5s-0.8,0.2-1,0.5c-0.2,0.3-0.3,0.9-0.3,1.6v1.4
		c0,0.8,0.1,1.3,0.3,1.7s0.6,0.5,1,0.5s0.8-0.2,1-0.5c0.2-0.3,0.3-0.9,0.3-1.6V327z"/>
	<path class="st26" d="M40.6,253.9l-3,6.6h-1l2.9-6.4h-3.9v-0.7h4.8v0.5L40.6,253.9L40.6,253.9z M42.2,257.1l0.4-3.6h3.7v0.8h-2.9
		l-0.2,1.9c0.4-0.2,0.8-0.3,1.2-0.3c0.6,0,1.2,0.2,1.5,0.7c0.4,0.4,0.6,1,0.6,1.7c0,0.7-0.2,1.3-0.6,1.7s-0.9,0.6-1.7,0.6
		c-0.6,0-1.1-0.2-1.5-0.5c-0.4-0.4-0.6-0.8-0.7-1.5h0.8c0.1,0.4,0.2,0.7,0.4,0.9c0.2,0.2,0.5,0.3,0.9,0.3s0.7-0.1,1-0.4
		c0.2-0.3,0.4-0.7,0.4-1.2s-0.1-0.9-0.4-1.1c-0.3-0.3-0.6-0.4-1-0.4s-0.7,0.1-0.9,0.2L43,257L42.2,257.1z M47.7,262.1l-0.5-0.4
		c0.3-0.4,0.5-0.9,0.5-1.3v-0.8h0.9v0.7c0,0.3-0.1,0.7-0.2,1C48.3,261.6,48,261.9,47.7,262.1z M53.8,257.6c0,1.1-0.2,1.9-0.5,2.4
		c-0.4,0.5-0.9,0.8-1.7,0.8c-0.8,0-1.3-0.3-1.7-0.8c-0.4-0.5-0.6-1.3-0.6-2.3v-1.2c0-1.1,0.2-1.8,0.5-2.3c0.4-0.5,0.9-0.8,1.7-0.8
		c0.8,0,1.3,0.2,1.7,0.7c0.4,0.5,0.6,1.2,0.6,2.3V257.6z M52.9,256.2c0-0.8-0.1-1.3-0.3-1.7c-0.2-0.4-0.5-0.5-1-0.5s-0.8,0.2-1,0.5
		s-0.3,0.9-0.3,1.6v1.4c0,0.8,0.1,1.3,0.3,1.7c0.2,0.4,0.6,0.5,1,0.5s0.8-0.2,1-0.5c0.2-0.3,0.3-0.9,0.3-1.6V256.2z M59.7,257.6
		c0,1.1-0.2,1.9-0.5,2.4c-0.4,0.5-0.9,0.8-1.7,0.8c-0.8,0-1.3-0.3-1.7-0.8c-0.4-0.5-0.6-1.3-0.6-2.3v-1.2c0-1.1,0.2-1.8,0.5-2.3
		c0.4-0.5,0.9-0.8,1.7-0.8c0.8,0,1.3,0.2,1.7,0.7c0.4,0.5,0.6,1.2,0.6,2.3V257.6z M58.8,256.2c0-0.8-0.1-1.3-0.3-1.7
		c-0.2-0.4-0.5-0.5-1-0.5s-0.8,0.2-1,0.5s-0.3,0.9-0.3,1.6v1.4c0,0.8,0.1,1.3,0.3,1.7c0.2,0.4,0.6,0.5,1,0.5s0.8-0.2,1-0.5
		c0.2-0.3,0.3-0.9,0.3-1.6V256.2z M65.5,257.6c0,1.1-0.2,1.9-0.5,2.4c-0.4,0.5-0.9,0.8-1.7,0.8s-1.3-0.3-1.7-0.8s-0.6-1.3-0.6-2.3
		v-1.2c0-1.1,0.2-1.8,0.5-2.3c0.4-0.5,0.9-0.8,1.7-0.8s1.3,0.2,1.7,0.7s0.6,1.2,0.6,2.3L65.5,257.6L65.5,257.6z M64.6,256.2
		c0-0.8-0.1-1.3-0.3-1.7s-0.5-0.5-1-0.5s-0.8,0.2-1,0.5s-0.3,0.9-0.3,1.6v1.4c0,0.8,0.1,1.3,0.3,1.7s0.6,0.5,1,0.5s0.8-0.2,1-0.5
		c0.2-0.3,0.3-0.9,0.3-1.6V256.2z"/>
	<path class="st26" d="M33.1,189.9h-0.9v-6l-1.8,0.7v-0.8l2.6-1h0.1C33.1,182.9,33.1,189.9,33.1,189.9z M40.4,186.9
		c0,1.1-0.2,1.9-0.5,2.4c-0.4,0.5-0.9,0.8-1.7,0.8c-0.8,0-1.3-0.3-1.7-0.8c-0.4-0.5-0.6-1.3-0.6-2.3v-1.2c0-1.1,0.2-1.8,0.5-2.3
		c0.4-0.5,0.9-0.8,1.7-0.8c0.8,0,1.3,0.2,1.7,0.7c0.4,0.5,0.6,1.2,0.6,2.3V186.9z M39.5,185.6c0-0.8-0.1-1.3-0.3-1.7
		c-0.2-0.4-0.5-0.5-1-0.5s-0.8,0.2-1,0.5s-0.3,0.9-0.3,1.6v1.4c0,0.8,0.1,1.3,0.3,1.7c0.2,0.4,0.6,0.5,1,0.5s0.8-0.2,1-0.5
		s0.3-0.9,0.3-1.6V185.6z M46.3,186.9c0,1.1-0.2,1.9-0.5,2.4c-0.4,0.5-0.9,0.8-1.7,0.8c-0.8,0-1.3-0.3-1.7-0.8
		c-0.4-0.5-0.6-1.3-0.6-2.3v-1.2c0-1.1,0.2-1.8,0.5-2.3c0.4-0.5,0.9-0.8,1.7-0.8c0.8,0,1.3,0.2,1.7,0.7c0.4,0.5,0.6,1.2,0.6,2.3
		V186.9z M45.4,185.6c0-0.8-0.1-1.3-0.3-1.7c-0.2-0.4-0.5-0.5-1-0.5s-0.8,0.2-1,0.5s-0.3,0.9-0.3,1.6v1.4c0,0.8,0.1,1.3,0.3,1.7
		c0.2,0.4,0.6,0.5,1,0.5s0.8-0.2,1-0.5s0.3-0.9,0.3-1.6V185.6z M47.7,191.4l-0.5-0.4c0.3-0.4,0.5-0.9,0.5-1.3v-0.8h0.9v0.7
		c0,0.3-0.1,0.7-0.2,1C48.2,190.9,48,191.1,47.7,191.4z M53.8,186.9c0,1.1-0.2,1.9-0.5,2.4c-0.4,0.5-0.9,0.8-1.7,0.8
		c-0.8,0-1.3-0.3-1.7-0.8c-0.4-0.5-0.6-1.3-0.6-2.3v-1.2c0-1.1,0.2-1.8,0.5-2.3c0.4-0.5,0.9-0.8,1.7-0.8c0.8,0,1.3,0.2,1.7,0.7
		c0.4,0.5,0.6,1.2,0.6,2.3V186.9z M52.9,185.6c0-0.8-0.1-1.3-0.3-1.7c-0.2-0.4-0.5-0.5-1-0.5s-0.8,0.2-1,0.5s-0.3,0.9-0.3,1.6v1.4
		c0,0.8,0.1,1.3,0.3,1.7c0.2,0.4,0.6,0.5,1,0.5s0.8-0.2,1-0.5s0.3-0.9,0.3-1.6V185.6z M59.7,186.9c0,1.1-0.2,1.9-0.5,2.4
		c-0.4,0.5-0.9,0.8-1.7,0.8c-0.8,0-1.3-0.3-1.7-0.8c-0.4-0.5-0.6-1.3-0.6-2.3v-1.2c0-1.1,0.2-1.8,0.5-2.3c0.4-0.5,0.9-0.8,1.7-0.8
		c0.8,0,1.3,0.2,1.7,0.7c0.4,0.5,0.6,1.2,0.6,2.3V186.9z M58.8,185.6c0-0.8-0.1-1.3-0.3-1.7c-0.2-0.4-0.5-0.5-1-0.5s-0.8,0.2-1,0.5
		s-0.3,0.9-0.3,1.6v1.4c0,0.8,0.1,1.3,0.3,1.7c0.2,0.4,0.6,0.5,1,0.5s0.8-0.2,1-0.5s0.3-0.9,0.3-1.6V185.6z M65.5,186.9
		c0,1.1-0.2,1.9-0.5,2.4c-0.4,0.5-0.9,0.8-1.7,0.8s-1.3-0.3-1.7-0.8c-0.4-0.5-0.6-1.3-0.6-2.3v-1.2c0-1.1,0.2-1.8,0.5-2.3
		c0.4-0.5,0.9-0.8,1.7-0.8s1.3,0.2,1.7,0.7s0.6,1.2,0.6,2.3L65.5,186.9L65.5,186.9z M64.6,185.6c0-0.8-0.1-1.3-0.3-1.7
		s-0.5-0.5-1-0.5s-0.8,0.2-1,0.5s-0.3,0.9-0.3,1.6v1.4c0,0.8,0.1,1.3,0.3,1.7c0.2,0.4,0.6,0.5,1,0.5s0.8-0.2,1-0.5s0.3-0.9,0.3-1.6
		V185.6z"/>
	<path class="st26" d="M93,510.4l1.9-3.6H96l-2.5,4.5v2.7h-0.9v-2.7l-2.5-4.5h1.1L93,510.4z M99.8,513.3c-0.3,0.4-0.9,0.6-1.6,0.6
		c-0.6,0-1-0.2-1.3-0.5s-0.4-0.8-0.4-1.5v-3.4h0.9v3.4c0,0.8,0.3,1.2,1,1.2s1.2-0.3,1.4-0.8v-3.9h0.9v5.3h-0.9L99.8,513.3z
		 M102.2,511.2c0-0.8,0.2-1.5,0.6-2c0.4-0.5,0.9-0.7,1.5-0.7s1.1,0.2,1.5,0.7v-0.6h0.8v5.2c0,0.7-0.2,1.2-0.6,1.6
		c-0.4,0.4-1,0.6-1.6,0.6c-0.4,0-0.8-0.1-1.1-0.2c-0.4-0.2-0.6-0.4-0.8-0.7l0.5-0.5c0.4,0.5,0.9,0.7,1.4,0.7c0.4,0,0.8-0.1,1-0.4
		c0.3-0.2,0.4-0.6,0.4-1v-0.5c-0.4,0.4-0.9,0.6-1.5,0.6s-1.1-0.2-1.5-0.7C102.4,512.8,102.2,512,102.2,511.2z M103.1,511.4
		c0,0.6,0.1,1.1,0.4,1.4c0.2,0.3,0.6,0.5,1,0.5c0.6,0,1-0.3,1.3-0.8v-2.4c-0.3-0.5-0.7-0.8-1.3-0.8c-0.4,0-0.8,0.2-1,0.5
		C103.2,510.2,103.1,510.7,103.1,511.4z M111.5,514c-0.1-0.1-0.1-0.3-0.1-0.6c-0.4,0.4-0.9,0.7-1.5,0.7c-0.5,0-1-0.1-1.3-0.4
		s-0.5-0.7-0.5-1.1c0-0.5,0.2-1,0.6-1.3c0.4-0.3,1-0.5,1.8-0.5h0.9v-0.4c0-0.3-0.1-0.6-0.3-0.7c-0.2-0.2-0.5-0.3-0.8-0.3
		s-0.6,0.1-0.8,0.2c-0.2,0.2-0.3,0.4-0.3,0.6h-0.9c0-0.3,0.1-0.5,0.3-0.8c0.2-0.2,0.4-0.4,0.8-0.6c0.3-0.1,0.7-0.2,1.1-0.2
		c0.6,0,1.1,0.2,1.4,0.5c0.3,0.3,0.5,0.7,0.5,1.3v2.4c0,0.5,0.1,0.9,0.2,1.2v0.1h-1.1L111.5,514L111.5,514z M110,513.2
		c0.3,0,0.6-0.1,0.8-0.2c0.2-0.1,0.4-0.3,0.5-0.6v-1.1h-0.7c-1.1,0-1.7,0.3-1.7,1c0,0.3,0.1,0.5,0.3,0.7
		C109.5,513.2,109.7,513.2,110,513.2z M118.6,511.4c0,0.8-0.2,1.5-0.6,2c-0.4,0.5-0.9,0.7-1.5,0.7c-0.7,0-1.2-0.2-1.6-0.7l-0.1,0.6
		H114v-7.5h0.9v2.8c0.4-0.5,0.9-0.7,1.5-0.7s1.1,0.2,1.5,0.7C118.4,509.8,118.6,510.4,118.6,511.4L118.6,511.4z M117.7,511.2
		c0-0.6-0.1-1.1-0.4-1.4c-0.2-0.3-0.6-0.5-1-0.5c-0.6,0-1,0.3-1.3,0.8v2.3c0.3,0.6,0.7,0.8,1.3,0.8c0.4,0,0.8-0.2,1-0.5
		S117.7,511.9,117.7,511.2z M121.7,512.5l1.2-4h1l-2.1,6.1c-0.3,0.9-0.9,1.3-1.6,1.3H120l-0.3-0.1v-0.7h0.2c0.3,0,0.6-0.1,0.7-0.2
		c0.2-0.1,0.3-0.3,0.4-0.7l0.2-0.5l-1.9-5.2h1L121.7,512.5z M126.2,507.4v1.3h1v0.7h-1v3.3c0,0.2,0,0.4,0.1,0.5
		c0.1,0.1,0.2,0.2,0.4,0.2c0.1,0,0.2,0,0.4-0.1v0.7c-0.2,0.1-0.5,0.1-0.7,0.1c-0.4,0-0.7-0.1-0.9-0.4s-0.3-0.6-0.3-1.1v-3.3h-1v-0.7
		h1v-1.3L126.2,507.4L126.2,507.4z M130.5,514c-0.7,0-1.3-0.2-1.8-0.7c-0.4-0.5-0.7-1.1-0.7-1.9v-0.2c0-0.5,0.1-1,0.3-1.4
		s0.5-0.7,0.8-1c0.4-0.2,0.8-0.4,1.2-0.4c0.7,0,1.2,0.2,1.6,0.7c0.4,0.5,0.6,1.1,0.6,1.9v0.4H129c0,0.5,0.2,0.9,0.5,1.3
		c0.3,0.3,0.7,0.5,1.1,0.5c0.3,0,0.6-0.1,0.8-0.2c0.2-0.1,0.4-0.3,0.6-0.5l0.5,0.4C132.1,513.7,131.4,514,130.5,514z M130.4,509.2
		c-0.4,0-0.7,0.1-0.9,0.4s-0.4,0.6-0.4,1.1h2.7v-0.1c0-0.5-0.2-0.8-0.4-1.1C131.1,509.4,130.8,509.2,130.4,509.2z M136,514v-7.1h2
		c0.6,0,1.2,0.1,1.6,0.4c0.5,0.3,0.8,0.7,1.1,1.2s0.4,1.1,0.4,1.7v0.4c0,0.7-0.1,1.3-0.4,1.8c-0.3,0.5-0.6,0.9-1.1,1.2
		s-1,0.4-1.7,0.4H136z M136.9,507.6v5.6h1c0.7,0,1.3-0.2,1.7-0.7s0.6-1.1,0.6-1.9v-0.4c0-0.8-0.2-1.4-0.6-1.9
		c-0.4-0.5-0.9-0.7-1.6-0.7H136.9z M142.7,514v-7.1h2.3c0.8,0,1.4,0.2,1.7,0.5c0.4,0.3,0.6,0.8,0.6,1.4c0,0.3-0.1,0.6-0.3,0.9
		s-0.4,0.4-0.8,0.6c0.4,0.1,0.7,0.3,0.9,0.6c0.2,0.3,0.3,0.7,0.3,1.1c0,0.6-0.2,1.1-0.6,1.5c-0.4,0.4-1,0.5-1.7,0.5H142.7z
		 M143.6,510.6v2.6h1.6c0.4,0,0.8-0.1,1-0.3c0.3-0.2,0.4-0.5,0.4-0.9c0-0.9-0.5-1.3-1.4-1.3h-1.6V510.6z M143.6,509.9h1.4
		c0.4,0,0.7-0.1,1-0.3c0.3-0.2,0.4-0.5,0.4-0.8c0-0.4-0.1-0.7-0.3-0.8c-0.2-0.2-0.6-0.3-1-0.3h-1.4L143.6,509.9L143.6,509.9z
		 M153.2,510.4l1.9-3.6h1.1l-2.5,4.5v2.7h-0.9v-2.7l-2.5-4.5h1.1L153.2,510.4z M162.1,511.7c-0.1,0.7-0.4,1.3-0.8,1.7
		c-0.5,0.4-1.1,0.6-1.9,0.6c-0.8,0-1.5-0.3-2-0.9c-0.5-0.6-0.8-1.4-0.8-2.4V510c0-0.7,0.1-1.2,0.4-1.7c0.2-0.5,0.6-0.9,1-1.2
		c0.4-0.3,0.9-0.4,1.5-0.4c0.8,0,1.4,0.2,1.8,0.6c0.5,0.4,0.7,1,0.8,1.7h-0.9c-0.1-0.6-0.3-1-0.5-1.2c-0.3-0.3-0.7-0.4-1.1-0.4
		c-0.6,0-1.1,0.2-1.4,0.7c-0.3,0.4-0.5,1.1-0.5,1.9v0.7c0,0.8,0.2,1.4,0.5,1.9s0.8,0.7,1.4,0.7c0.5,0,0.9-0.1,1.2-0.4
		c0.3-0.2,0.5-0.7,0.6-1.2H162.1z M169,510.6c0,0.7-0.1,1.3-0.3,1.8c-0.2,0.5-0.5,0.9-0.9,1.2l1.3,1l-0.6,0.6L167,514
		c-0.2,0.1-0.5,0.1-0.7,0.1c-0.6,0-1.1-0.1-1.5-0.4s-0.8-0.7-1-1.2s-0.4-1.1-0.4-1.8v-0.5c0-0.7,0.1-1.3,0.4-1.8
		c0.2-0.5,0.6-0.9,1-1.2c0.4-0.3,0.9-0.4,1.5-0.4s1.1,0.1,1.5,0.4s0.8,0.7,1,1.2s0.4,1.1,0.4,1.8v0.4H169z M168,510.2
		c0-0.8-0.2-1.5-0.5-1.9c-0.3-0.5-0.8-0.7-1.4-0.7c-0.6,0-1.1,0.2-1.4,0.7c-0.3,0.5-0.5,1.1-0.5,1.9v0.5c0,0.8,0.2,1.4,0.5,1.9
		s0.8,0.7,1.4,0.7c0.6,0,1.1-0.2,1.4-0.7c0.3-0.4,0.5-1.1,0.5-1.9V510.2z M171.2,513.2h3.4v0.8h-4.3v-7.1h1L171.2,513.2L171.2,513.2
		z M177.6,511.1c0-0.7,0.1-1.4,0.3-2.1s0.5-1.3,0.9-1.9s0.8-0.9,1.2-1.2l0.2,0.6c-0.5,0.4-0.9,0.9-1.2,1.7s-0.5,1.6-0.5,2.5v0.4
		c0,1.3,0.2,2.4,0.7,3.3c0.3,0.6,0.6,1,1,1.3l-0.2,0.5c-0.4-0.2-0.9-0.6-1.3-1.2C178,513.8,177.6,512.5,177.6,511.1z M182.2,509.9
		h0.7c0.4,0,0.8-0.1,1-0.3s0.4-0.5,0.4-0.9c0-0.8-0.4-1.3-1.3-1.3c-0.4,0-0.7,0.1-0.9,0.3c-0.2,0.2-0.3,0.5-0.3,0.9h-0.9
		c0-0.6,0.2-1,0.6-1.4c0.4-0.4,0.9-0.6,1.6-0.6c0.7,0,1.2,0.2,1.6,0.5c0.4,0.4,0.6,0.9,0.6,1.5c0,0.3-0.1,0.6-0.3,0.9
		s-0.5,0.5-0.8,0.7c0.4,0.1,0.7,0.3,0.9,0.6c0.2,0.3,0.3,0.6,0.3,1.1c0,0.6-0.2,1.1-0.6,1.5c-0.4,0.4-1,0.6-1.6,0.6
		c-0.7,0-1.2-0.2-1.6-0.5c-0.4-0.4-0.6-0.8-0.6-1.4h0.9c0,0.4,0.1,0.7,0.4,0.9c0.2,0.2,0.6,0.3,1,0.3s0.8-0.1,1-0.3s0.4-0.6,0.4-1
		s-0.1-0.7-0.4-0.9c-0.3-0.2-0.6-0.3-1.1-0.4h-0.7v-0.8L182.2,509.9L182.2,509.9z M187.7,508.7v0.6c0.4-0.5,0.9-0.7,1.6-0.7
		c0.7,0,1.2,0.3,1.5,0.8c0.2-0.3,0.4-0.5,0.7-0.6c0.3-0.2,0.6-0.2,1-0.2c1.2,0,1.8,0.6,1.8,1.8v3.6h-0.9v-3.5c0-0.4-0.1-0.7-0.3-0.8
		c-0.2-0.2-0.5-0.3-0.9-0.3c-0.3,0-0.6,0.1-0.8,0.3c-0.2,0.2-0.3,0.5-0.4,0.8v3.5h-0.9v-3.5c0-0.8-0.4-1.1-1.1-1.1
		c-0.6,0-1,0.3-1.2,0.8v3.9h-0.9v-5.3L187.7,508.7L187.7,508.7z M199.1,512.5c0-0.2-0.1-0.4-0.3-0.6c-0.2-0.1-0.5-0.3-1-0.4
		s-0.8-0.2-1.1-0.4c-0.3-0.1-0.5-0.3-0.6-0.5s-0.2-0.4-0.2-0.7c0-0.4,0.2-0.8,0.5-1.1c0.4-0.3,0.8-0.5,1.4-0.5s1.1,0.2,1.4,0.5
		c0.4,0.3,0.6,0.7,0.6,1.2H199c0-0.2-0.1-0.5-0.3-0.6c-0.2-0.2-0.5-0.3-0.8-0.3s-0.6,0.1-0.8,0.2c-0.2,0.1-0.3,0.3-0.3,0.5
		s0.1,0.4,0.3,0.5c0.2,0.1,0.5,0.2,0.9,0.3c0.5,0.1,0.8,0.2,1.1,0.4c0.3,0.1,0.5,0.3,0.6,0.5s0.2,0.4,0.2,0.7c0,0.5-0.2,0.9-0.6,1.1
		c-0.4,0.3-0.9,0.4-1.5,0.4c-0.4,0-0.8-0.1-1.1-0.2c-0.3-0.2-0.6-0.4-0.8-0.6c-0.2-0.3-0.3-0.6-0.3-0.9h0.9c0,0.3,0.1,0.5,0.4,0.7
		c0.2,0.2,0.5,0.3,0.9,0.3c0.3,0,0.6-0.1,0.8-0.2C199,513,199.1,512.8,199.1,512.5z M204.5,514h-0.9v-7.5h0.9V514z M209.3,514
		c-0.1-0.1-0.1-0.3-0.1-0.6c-0.4,0.4-0.9,0.7-1.5,0.7c-0.5,0-1-0.1-1.3-0.4s-0.5-0.7-0.5-1.1c0-0.5,0.2-1,0.6-1.3s1-0.5,1.8-0.5h0.9
		v-0.4c0-0.3-0.1-0.6-0.3-0.7c-0.2-0.2-0.5-0.3-0.8-0.3s-0.6,0.1-0.8,0.2c-0.2,0.2-0.3,0.4-0.3,0.6h-1c0-0.3,0.1-0.5,0.3-0.8
		c0.2-0.2,0.4-0.4,0.8-0.6c0.3-0.1,0.7-0.2,1.1-0.2c0.6,0,1.1,0.2,1.4,0.5s0.5,0.7,0.5,1.3v2.4c0,0.5,0.1,0.9,0.2,1.2v0.1h-1
		L209.3,514L209.3,514z M207.8,513.2c0.3,0,0.6-0.1,0.8-0.2c0.3-0.1,0.4-0.3,0.5-0.6v-1.1h-0.7c-1.1,0-1.7,0.3-1.7,1
		c0,0.3,0.1,0.5,0.3,0.7C207.2,513.2,207.5,513.2,207.8,513.2z M213.1,507.4v1.3h1v0.7h-1v3.3c0,0.2,0,0.4,0.1,0.5
		c0.1,0.1,0.2,0.2,0.4,0.2c0.1,0,0.2,0,0.4-0.1v0.7c-0.2,0.1-0.5,0.1-0.7,0.1c-0.4,0-0.7-0.1-0.9-0.4c-0.2-0.3-0.3-0.6-0.3-1.1v-3.3
		h-1v-0.7h1v-1.3L213.1,507.4L213.1,507.4z M217.4,514c-0.7,0-1.3-0.2-1.8-0.7c-0.4-0.5-0.7-1.1-0.7-1.9v-0.2c0-0.5,0.1-1,0.3-1.4
		c0.2-0.4,0.5-0.7,0.8-1c0.4-0.2,0.8-0.4,1.2-0.4c0.7,0,1.2,0.2,1.6,0.7s0.6,1.1,0.6,1.9v0.4h-3.6c0,0.5,0.2,0.9,0.5,1.3
		c0.3,0.3,0.7,0.5,1.1,0.5c0.3,0,0.6-0.1,0.8-0.2c0.2-0.1,0.4-0.3,0.6-0.5l0.5,0.4C219,513.7,218.3,514,217.4,514z M217.3,509.2
		c-0.4,0-0.7,0.1-0.9,0.4c-0.2,0.3-0.4,0.6-0.4,1.1h2.7v-0.1c0-0.5-0.2-0.8-0.4-1.1C218,509.4,217.7,509.2,217.3,509.2z
		 M221.1,508.7v0.7c0.4-0.5,0.9-0.8,1.6-0.8c1.1,0,1.7,0.6,1.7,1.9v3.5h-0.9v-3.5c0-0.4-0.1-0.7-0.3-0.8c-0.2-0.2-0.4-0.3-0.8-0.3
		c-0.3,0-0.6,0.1-0.8,0.2c-0.2,0.2-0.4,0.4-0.5,0.6v3.8h-0.9v-5.3L221.1,508.7L221.1,508.7z M228.2,513.2c0.3,0,0.6-0.1,0.8-0.3
		c0.2-0.2,0.4-0.4,0.4-0.7h0.9c0,0.3-0.1,0.6-0.3,0.9c-0.2,0.3-0.4,0.5-0.8,0.7c-0.3,0.2-0.7,0.2-1,0.2c-0.7,0-1.3-0.2-1.7-0.7
		c-0.4-0.5-0.6-1.1-0.6-2v-0.2c0-0.5,0.1-1,0.3-1.4c0.2-0.4,0.5-0.7,0.8-0.9c0.4-0.2,0.8-0.3,1.3-0.3c0.6,0,1.1,0.2,1.5,0.5
		s0.6,0.8,0.6,1.4h-0.9c0-0.3-0.2-0.6-0.4-0.8c-0.2-0.2-0.5-0.3-0.9-0.3c-0.5,0-0.8,0.2-1.1,0.5s-0.4,0.8-0.4,1.4v0.2
		c0,0.6,0.1,1.1,0.4,1.4C227.4,513,227.7,513.2,228.2,513.2z M232.8,512.5l1.2-4h1l-2.1,6.1c-0.3,0.9-0.9,1.3-1.6,1.3h-0.2l-0.3-0.1
		v-0.7h0.2c0.3,0,0.6-0.1,0.7-0.2c0.2-0.1,0.3-0.3,0.4-0.7l0.2-0.5l-1.9-5.2h1L232.8,512.5z M238.2,511.1c0,0.7-0.1,1.4-0.3,2.1
		c-0.2,0.7-0.5,1.3-0.9,1.8c-0.4,0.6-0.8,1-1.2,1.2l-0.2-0.5c0.5-0.4,0.9-1,1.2-1.8c0.3-0.8,0.5-1.7,0.5-2.7V511
		c0-0.7-0.1-1.3-0.2-1.9s-0.3-1.1-0.6-1.6c-0.3-0.5-0.5-0.8-0.9-1.1l0.2-0.5c0.4,0.2,0.8,0.6,1.2,1.2c0.4,0.6,0.7,1.2,0.9,1.9
		C238.1,509.6,238.2,510.2,238.2,511.1z"/>
	<path class="st26" d="M246.4,510.4l1.9-3.6h1.1l-2.5,4.5v2.7H246v-2.7l-2.5-4.5h1.1L246.4,510.4z M253.2,513.3
		c-0.3,0.4-0.9,0.6-1.6,0.6c-0.6,0-1-0.2-1.3-0.5s-0.4-0.8-0.4-1.5v-3.4h0.9v3.4c0,0.8,0.3,1.2,1,1.2s1.2-0.3,1.4-0.8v-3.9h0.9v5.3
		h-0.9V513.3z M255.5,511.2c0-0.8,0.2-1.5,0.6-2s0.9-0.7,1.5-0.7s1.1,0.2,1.5,0.7v-0.6h0.8v5.2c0,0.7-0.2,1.2-0.6,1.6
		c-0.4,0.4-1,0.6-1.6,0.6c-0.4,0-0.8-0.1-1.1-0.2c-0.4-0.2-0.6-0.4-0.8-0.7l0.5-0.5c0.4,0.5,0.9,0.7,1.4,0.7c0.4,0,0.8-0.1,1-0.4
		c0.3-0.2,0.4-0.6,0.4-1v-0.5c-0.4,0.4-0.9,0.6-1.5,0.6s-1.1-0.2-1.5-0.7C255.7,512.8,255.5,512,255.5,511.2z M256.4,511.4
		c0,0.6,0.1,1.1,0.4,1.4c0.2,0.3,0.6,0.5,1,0.5c0.6,0,1-0.3,1.3-0.8v-2.4c-0.3-0.5-0.7-0.8-1.3-0.8c-0.4,0-0.8,0.2-1,0.5
		C256.6,510.2,256.4,510.7,256.4,511.4z M264.9,514c-0.1-0.1-0.1-0.3-0.1-0.6c-0.4,0.4-0.9,0.7-1.5,0.7c-0.5,0-1-0.1-1.3-0.4
		s-0.5-0.7-0.5-1.1c0-0.5,0.2-1,0.6-1.3s1-0.5,1.8-0.5h0.9v-0.4c0-0.3-0.1-0.6-0.3-0.7c-0.2-0.2-0.5-0.3-0.8-0.3s-0.6,0.1-0.8,0.2
		c-0.2,0.2-0.3,0.4-0.3,0.6h-0.9c0-0.3,0.1-0.5,0.3-0.8c0.2-0.2,0.4-0.4,0.8-0.6c0.3-0.1,0.7-0.2,1.1-0.2c0.6,0,1.1,0.2,1.4,0.5
		s0.5,0.7,0.5,1.3v2.4c0,0.5,0.1,0.9,0.2,1.2v0.1h-1.1L264.9,514L264.9,514z M263.4,513.2c0.3,0,0.6-0.1,0.8-0.2
		c0.2-0.1,0.4-0.3,0.5-0.6v-1.1H264c-1.1,0-1.7,0.3-1.7,1c0,0.3,0.1,0.5,0.3,0.7C262.8,513.2,263.1,513.2,263.4,513.2z M271.9,511.4
		c0,0.8-0.2,1.5-0.6,2s-0.9,0.7-1.5,0.7c-0.7,0-1.2-0.2-1.6-0.7l-0.1,0.6h-0.8v-7.5h0.9v2.8c0.4-0.5,0.9-0.7,1.5-0.7
		s1.1,0.2,1.5,0.7C271.7,509.8,271.9,510.4,271.9,511.4L271.9,511.4z M271,511.2c0-0.6-0.1-1.1-0.4-1.4c-0.2-0.3-0.6-0.5-1-0.5
		c-0.6,0-1,0.3-1.3,0.8v2.3c0.3,0.6,0.7,0.8,1.3,0.8c0.4,0,0.8-0.2,1-0.5S271,511.9,271,511.2z M275,512.5l1.2-4h1l-2.1,6.1
		c-0.3,0.9-0.9,1.3-1.6,1.3h-0.2H273v-0.7h0.2c0.3,0,0.6-0.1,0.7-0.2c0.2-0.1,0.3-0.3,0.4-0.7l0.2-0.5l-1.9-5.2h1L275,512.5z
		 M279.5,507.4v1.3h1v0.7h-1v3.3c0,0.2,0,0.4,0.1,0.5c0.1,0.1,0.2,0.2,0.4,0.2c0.1,0,0.2,0,0.4-0.1v0.7c-0.2,0.1-0.5,0.1-0.7,0.1
		c-0.4,0-0.7-0.1-0.9-0.4c-0.2-0.3-0.3-0.6-0.3-1.1v-3.3h-1v-0.7h1v-1.3L279.5,507.4L279.5,507.4z M283.8,514
		c-0.7,0-1.3-0.2-1.8-0.7c-0.4-0.5-0.7-1.1-0.7-1.9v-0.2c0-0.5,0.1-1,0.3-1.4c0.2-0.4,0.5-0.7,0.8-1c0.4-0.2,0.8-0.4,1.2-0.4
		c0.7,0,1.2,0.2,1.6,0.7s0.6,1.1,0.6,1.9v0.4h-3.6c0,0.5,0.2,0.9,0.5,1.3c0.3,0.3,0.7,0.5,1.1,0.5c0.3,0,0.6-0.1,0.8-0.2
		c0.2-0.1,0.4-0.3,0.6-0.5l0.5,0.4C285.4,513.7,284.7,514,283.8,514z M283.7,509.2c-0.4,0-0.7,0.1-0.9,0.4c-0.2,0.3-0.4,0.6-0.4,1.1
		h2.7v-0.1c0-0.5-0.2-0.8-0.4-1.1C284.4,509.4,284.1,509.2,283.7,509.2z M289.3,514v-7.1h2c0.6,0,1.2,0.1,1.6,0.4
		c0.5,0.3,0.8,0.7,1.1,1.2s0.4,1.1,0.4,1.7v0.4c0,0.7-0.1,1.3-0.4,1.8c-0.3,0.5-0.6,0.9-1.1,1.2s-1,0.4-1.7,0.4H289.3z M290.2,507.6
		v5.6h1c0.7,0,1.3-0.2,1.7-0.7c0.4-0.5,0.6-1.1,0.6-1.9v-0.4c0-0.8-0.2-1.4-0.6-1.9s-0.9-0.7-1.6-0.7H290.2z M296,514v-7.1h2.3
		c0.8,0,1.4,0.2,1.7,0.5c0.4,0.3,0.6,0.8,0.6,1.4c0,0.3-0.1,0.6-0.3,0.9c-0.2,0.3-0.4,0.4-0.8,0.6c0.4,0.1,0.7,0.3,0.9,0.6
		c0.2,0.3,0.3,0.7,0.3,1.1c0,0.6-0.2,1.1-0.6,1.5c-0.4,0.4-1,0.5-1.7,0.5H296z M296.9,510.6v2.6h1.6c0.4,0,0.8-0.1,1-0.3
		c0.3-0.2,0.4-0.5,0.4-0.9c0-0.9-0.5-1.3-1.4-1.3h-1.6V510.6z M296.9,509.9h1.4c0.4,0,0.7-0.1,1-0.3c0.3-0.2,0.4-0.5,0.4-0.8
		c0-0.4-0.1-0.7-0.3-0.8c-0.2-0.2-0.6-0.3-1-0.3H297v2.2L296.9,509.9L296.9,509.9z M306.5,510.4l1.9-3.6h1.1l-2.5,4.5v2.7h-1v-2.7
		l-2.5-4.5h1.1L306.5,510.4z M312.3,510.8c-0.8-0.2-1.4-0.5-1.8-0.9c-0.4-0.3-0.5-0.8-0.5-1.3c0-0.6,0.2-1,0.7-1.4s1-0.6,1.8-0.6
		c0.5,0,0.9,0.1,1.3,0.3c0.4,0.2,0.7,0.5,0.9,0.8c0.2,0.3,0.3,0.7,0.3,1.1h-1c0-0.4-0.1-0.8-0.4-1s-0.7-0.4-1.1-0.4
		c-0.5,0-0.8,0.1-1.1,0.3c-0.3,0.2-0.4,0.5-0.4,0.8s0.1,0.5,0.4,0.7s0.7,0.4,1.3,0.5s1.1,0.3,1.4,0.5s0.6,0.4,0.7,0.7
		c0.2,0.3,0.2,0.6,0.2,0.9c0,0.6-0.2,1-0.7,1.4c-0.5,0.3-1.1,0.5-1.8,0.5c-0.5,0-1-0.1-1.4-0.3s-0.7-0.4-1-0.8
		c-0.2-0.3-0.3-0.7-0.3-1.1h0.9c0,0.4,0.2,0.8,0.5,1c0.3,0.3,0.7,0.4,1.3,0.4c0.5,0,0.9-0.1,1.1-0.3c0.3-0.2,0.4-0.5,0.4-0.8
		c0-0.3-0.1-0.6-0.4-0.8C313.4,511.1,312.9,511,312.3,510.8z M321.5,510.6c0,0.7-0.1,1.3-0.3,1.8c-0.2,0.5-0.5,0.9-0.9,1.2l1.3,1
		l-0.6,0.6l-1.5-1.2c-0.2,0.1-0.5,0.1-0.7,0.1c-0.6,0-1.1-0.1-1.5-0.4s-0.8-0.7-1-1.2s-0.4-1.1-0.4-1.8v-0.5c0-0.7,0.1-1.3,0.4-1.8
		c0.2-0.5,0.6-0.9,1-1.2c0.4-0.3,0.9-0.4,1.5-0.4s1.1,0.1,1.5,0.4s0.8,0.7,1,1.2s0.4,1.1,0.4,1.8v0.4H321.5z M320.5,510.2
		c0-0.8-0.2-1.5-0.5-1.9c-0.3-0.5-0.8-0.7-1.4-0.7s-1.1,0.2-1.4,0.7s-0.5,1.1-0.5,1.9v0.5c0,0.8,0.2,1.4,0.5,1.9s0.8,0.7,1.4,0.7
		s1.1-0.2,1.4-0.7c0.3-0.4,0.5-1.1,0.5-1.9V510.2z M323.7,513.2h3.4v0.8h-4.3v-7.1h1v6.3L323.7,513.2L323.7,513.2z M330.1,511.1
		c0-0.7,0.1-1.4,0.3-2.1c0.2-0.7,0.5-1.3,0.9-1.9s0.8-0.9,1.2-1.2l0.2,0.6c-0.5,0.4-0.9,0.9-1.2,1.7c-0.3,0.7-0.5,1.6-0.5,2.5v0.4
		c0,1.3,0.2,2.4,0.7,3.3c0.3,0.6,0.6,1,1,1.3l-0.2,0.5c-0.4-0.2-0.9-0.6-1.3-1.2C330.5,513.8,330.1,512.5,330.1,511.1z M337.2,511.6
		h1v0.7h-1v1.7h-0.9v-1.7H333v-0.5l3.2-4.9h1V511.6z M334.1,511.6h2.2v-3.5l-0.1,0.2L334.1,511.6z M339.3,513.5c0-0.2,0-0.3,0.1-0.4
		c0.1-0.1,0.2-0.2,0.4-0.2c0.2,0,0.3,0.1,0.4,0.2c0.1,0.1,0.1,0.2,0.1,0.4c0,0.1,0,0.3-0.1,0.4c-0.1,0.1-0.2,0.1-0.4,0.1
		c-0.2,0-0.3,0-0.4-0.1C339.4,513.8,339.3,513.5,339.3,513.5z M342.1,510.4l0.4-3.6h3.7v0.8h-2.9l-0.2,1.9c0.4-0.2,0.8-0.3,1.2-0.3
		c0.6,0,1.2,0.2,1.5,0.7c0.4,0.4,0.6,1,0.6,1.7c0,0.7-0.2,1.3-0.6,1.7s-0.9,0.6-1.7,0.6c-0.6,0-1.1-0.2-1.5-0.5
		c-0.4-0.4-0.6-0.8-0.7-1.5h0.8c0.1,0.4,0.2,0.7,0.4,0.9c0.2,0.2,0.5,0.3,0.9,0.3s0.7-0.1,1-0.4c0.2-0.3,0.4-0.7,0.4-1.2
		s-0.1-0.9-0.4-1.1c-0.3-0.3-0.6-0.4-1-0.4s-0.7,0.1-0.9,0.2l-0.2,0.2L342.1,510.4z M348.5,508.7v0.6c0.4-0.5,0.9-0.7,1.6-0.7
		s1.2,0.3,1.5,0.8c0.2-0.3,0.4-0.5,0.7-0.6c0.3-0.2,0.6-0.2,1-0.2c1.2,0,1.8,0.6,1.8,1.8v3.6h-0.9v-3.5c0-0.4-0.1-0.7-0.3-0.8
		c-0.2-0.2-0.5-0.3-0.9-0.3c-0.3,0-0.6,0.1-0.8,0.3c-0.2,0.2-0.3,0.5-0.4,0.8v3.5h-0.9v-3.5c0-0.8-0.4-1.1-1.1-1.1
		c-0.6,0-1,0.3-1.2,0.8v3.9h-0.9v-5.3L348.5,508.7L348.5,508.7z M359.9,512.5c0-0.2-0.1-0.4-0.3-0.6c-0.2-0.1-0.5-0.3-1-0.4
		s-0.8-0.2-1.1-0.4c-0.3-0.1-0.5-0.3-0.6-0.5s-0.2-0.4-0.2-0.7c0-0.4,0.2-0.8,0.5-1.1c0.4-0.3,0.8-0.5,1.4-0.5s1.1,0.2,1.4,0.5
		c0.4,0.3,0.6,0.7,0.6,1.2h-0.9c0-0.2-0.1-0.5-0.3-0.6c-0.2-0.2-0.5-0.3-0.8-0.3s-0.6,0.1-0.8,0.2c-0.2,0.1-0.3,0.3-0.3,0.5
		s0.1,0.4,0.3,0.5c0.2,0.1,0.5,0.2,0.9,0.3c0.5,0.1,0.8,0.2,1.1,0.4c0.3,0.1,0.5,0.3,0.6,0.5s0.2,0.4,0.2,0.7c0,0.5-0.2,0.9-0.6,1.1
		c-0.4,0.3-0.9,0.4-1.5,0.4c-0.4,0-0.8-0.1-1.1-0.2c-0.3-0.2-0.6-0.4-0.8-0.6c-0.2-0.3-0.3-0.6-0.3-0.9h0.9c0,0.3,0.1,0.5,0.4,0.7
		c0.2,0.2,0.5,0.3,0.9,0.3c0.3,0,0.6-0.1,0.8-0.2C359.5,512.6,359.9,512.8,359.9,512.5z M365.3,514h-0.9v-7.5h0.9V514z M370.1,514
		c-0.1-0.1-0.1-0.3-0.1-0.6c-0.4,0.4-0.9,0.7-1.5,0.7c-0.5,0-1-0.1-1.3-0.4s-0.5-0.7-0.5-1.1c0-0.5,0.2-1,0.6-1.3s1-0.5,1.8-0.5h0.9
		v-0.4c0-0.3-0.1-0.6-0.3-0.7c-0.2-0.2-0.5-0.3-0.8-0.3s-0.6,0.1-0.8,0.2c-0.2,0.2-0.3,0.4-0.3,0.6h-0.9c0-0.3,0.1-0.5,0.3-0.8
		c0.2-0.2,0.4-0.4,0.8-0.6c0.3-0.1,0.7-0.2,1.1-0.2c0.6,0,1.1,0.2,1.4,0.5s0.5,0.7,0.5,1.3v2.4c0,0.5,0.1,0.9,0.2,1.2v0.1h-1.1
		L370.1,514L370.1,514z M368.6,513.2c0.3,0,0.6-0.1,0.8-0.2c0.2-0.1,0.4-0.3,0.5-0.6v-1.1h-0.7c-1.1,0-1.7,0.3-1.7,1
		c0,0.3,0.1,0.5,0.3,0.7C368.1,513.2,368.3,513.2,368.6,513.2z M373.9,507.4v1.3h1v0.7h-1v3.3c0,0.2,0,0.4,0.1,0.5
		c0.1,0.1,0.2,0.2,0.4,0.2c0.1,0,0.2,0,0.4-0.1v0.7c-0.2,0.1-0.5,0.1-0.7,0.1c-0.4,0-0.7-0.1-0.9-0.4c-0.2-0.3-0.3-0.6-0.3-1.1v-3.3
		h-1v-0.7h1v-1.3L373.9,507.4L373.9,507.4z M378.3,514c-0.7,0-1.3-0.2-1.8-0.7c-0.4-0.5-0.7-1.1-0.7-1.9v-0.2c0-0.5,0.1-1,0.3-1.4
		c0.2-0.4,0.5-0.7,0.8-1c0.4-0.2,0.8-0.4,1.2-0.4c0.7,0,1.2,0.2,1.6,0.7s0.6,1.1,0.6,1.9v0.4h-3.6c0,0.5,0.2,0.9,0.5,1.3
		c0.3,0.3,0.7,0.5,1.1,0.5c0.3,0,0.6-0.1,0.8-0.2c0.2-0.1,0.4-0.3,0.6-0.5l0.5,0.4C379.8,513.7,379.1,514,378.3,514z M378.1,509.2
		c-0.4,0-0.7,0.1-0.9,0.4c-0.2,0.3-0.4,0.6-0.4,1.1h2.7v-0.1c0-0.5-0.2-0.8-0.4-1.1C378.8,509.4,378.5,509.2,378.1,509.2z
		 M381.9,508.7v0.7c0.4-0.5,0.9-0.8,1.6-0.8c1.1,0,1.7,0.6,1.7,1.9v3.5h-0.9v-3.5c0-0.4-0.1-0.7-0.3-0.8c-0.2-0.2-0.4-0.3-0.8-0.3
		c-0.3,0-0.6,0.1-0.8,0.2c-0.2,0.2-0.4,0.4-0.5,0.6v3.8H381v-5.3L381.9,508.7L381.9,508.7z M389,513.2c0.3,0,0.6-0.1,0.8-0.3
		c0.2-0.2,0.4-0.4,0.4-0.7h0.9c0,0.3-0.1,0.6-0.3,0.9c-0.2,0.3-0.4,0.5-0.8,0.7c-0.3,0.2-0.7,0.2-1,0.2c-0.7,0-1.3-0.2-1.7-0.7
		c-0.4-0.5-0.6-1.1-0.6-2v-0.2c0-0.5,0.1-1,0.3-1.4c0.2-0.4,0.5-0.7,0.8-0.9c0.4-0.2,0.8-0.3,1.3-0.3c0.6,0,1.1,0.2,1.5,0.5
		s0.6,0.8,0.6,1.4h-0.9c0-0.3-0.2-0.6-0.4-0.8c-0.2-0.2-0.5-0.3-0.9-0.3c-0.5,0-0.8,0.2-1.1,0.5s-0.4,0.8-0.4,1.4v0.2
		c0,0.6,0.1,1.1,0.4,1.4C388.2,513,388.6,513.2,389,513.2z M393.7,512.5l1.2-4h1l-2.1,6.1c-0.3,0.9-0.9,1.3-1.6,1.3H392l-0.3-0.1
		v-0.7h0.2c0.3,0,0.6-0.1,0.7-0.2c0.2-0.1,0.3-0.3,0.4-0.7l0.2-0.5l-1.9-5.2h1L393.7,512.5z M399,511.1c0,0.7-0.1,1.4-0.3,2.1
		c-0.2,0.7-0.5,1.3-0.9,1.8c-0.4,0.6-0.8,1-1.2,1.2l-0.2-0.5c0.5-0.4,0.9-1,1.2-1.8c0.3-0.8,0.5-1.7,0.5-2.7V511
		c0-0.7-0.1-1.3-0.2-1.9s-0.3-1.1-0.6-1.6c-0.3-0.5-0.5-0.8-0.9-1.1l0.2-0.5c0.4,0.2,0.8,0.6,1.2,1.2c0.4,0.6,0.7,1.2,0.9,1.9
		C398.9,509.6,399,510.2,399,511.1z"/>
	<path class="st26" d="M423.6,512h-3l-0.7,1.9h-1l2.7-7.1h0.8l2.7,7.1h-1L423.6,512z M420.9,511.2h2.4l-1.2-3.3L420.9,511.2z
		 M427.9,511.7l0.1,0.9l0.2-0.8l1.4-5h0.8l1.4,5l0.2,0.9l0.2-1l1.1-4.9h0.9l-1.7,7.1h-0.9l-1.5-5.2l-0.1-0.5l-0.1,0.5l-1.5,5.2h-0.9
		l-1.7-7.1h0.9L427.9,511.7z M437.6,510.8c-0.8-0.2-1.4-0.5-1.8-0.9c-0.4-0.3-0.5-0.8-0.5-1.3c0-0.6,0.2-1,0.7-1.4s1-0.6,1.8-0.6
		c0.5,0,0.9,0.1,1.3,0.3c0.4,0.2,0.7,0.5,0.9,0.8c0.2,0.3,0.3,0.7,0.3,1.1h-1c0-0.4-0.1-0.8-0.4-1s-0.7-0.4-1.1-0.4
		c-0.5,0-0.8,0.1-1.1,0.3c-0.3,0.2-0.4,0.5-0.4,0.8s0.1,0.5,0.4,0.7s0.7,0.4,1.3,0.5c0.6,0.2,1.1,0.3,1.4,0.5s0.6,0.4,0.7,0.7
		c0.2,0.3,0.2,0.6,0.2,0.9c0,0.6-0.2,1-0.7,1.4c-0.5,0.3-1.1,0.5-1.8,0.5c-0.5,0-1-0.1-1.4-0.3s-0.7-0.4-1-0.8
		c-0.2-0.3-0.3-0.7-0.3-1.1h0.9c0,0.4,0.2,0.8,0.5,1s0.7,0.4,1.3,0.4c0.5,0,0.9-0.1,1.1-0.3c0.3-0.2,0.4-0.5,0.4-0.8
		c0-0.3-0.1-0.6-0.4-0.8C438.7,511.1,438.3,511,437.6,510.8z M447.8,512h-3l-0.7,1.9h-1l2.7-7.1h0.8l2.7,7.1h-1L447.8,512z
		 M445.1,511.2h2.4l-1.2-3.3L445.1,511.2z M453.7,513.3c-0.3,0.4-0.9,0.6-1.6,0.6c-0.6,0-1-0.2-1.3-0.5s-0.4-0.8-0.4-1.5v-3.4h0.9
		v3.4c0,0.8,0.3,1.2,1,1.2s1.2-0.3,1.4-0.8v-3.9h0.9v5.3h-0.9L453.7,513.3z M458.8,509.5c-0.1,0-0.3,0-0.4,0c-0.6,0-1,0.3-1.2,0.8
		v3.8h-0.9v-5.3h0.9v0.6c0.3-0.5,0.7-0.7,1.3-0.7c0.2,0,0.3,0,0.4,0.1L458.8,509.5L458.8,509.5z M459.4,511.2c0-0.5,0.1-1,0.3-1.4
		s0.5-0.7,0.9-1c0.4-0.2,0.8-0.3,1.2-0.3c0.7,0,1.3,0.2,1.7,0.7c0.5,0.5,0.7,1.2,0.7,2v0.1c0,0.5-0.1,1-0.3,1.4
		c-0.2,0.4-0.5,0.7-0.8,1c-0.4,0.2-0.8,0.3-1.3,0.3c-0.7,0-1.3-0.2-1.7-0.7C459.6,512.8,459.4,512,459.4,511.2L459.4,511.2z
		 M460.3,511.4c0,0.6,0.1,1.1,0.4,1.4c0.3,0.4,0.6,0.5,1.1,0.5s0.8-0.2,1.1-0.5c0.3-0.4,0.4-0.9,0.4-1.5s-0.1-1-0.4-1.4
		c-0.3-0.4-0.6-0.5-1.1-0.5c-0.4,0-0.8,0.2-1.1,0.5C460.4,510.2,460.3,510.7,460.3,511.4z M468,509.5c-0.1,0-0.3,0-0.4,0
		c-0.6,0-1,0.3-1.2,0.8v3.8h-0.9v-5.3h0.9v0.6c0.3-0.5,0.7-0.7,1.3-0.7c0.2,0,0.3,0,0.4,0.1L468,509.5L468,509.5z M472.1,514
		c-0.1-0.1-0.1-0.3-0.1-0.6c-0.4,0.4-0.9,0.7-1.5,0.7c-0.5,0-1-0.1-1.3-0.4s-0.5-0.7-0.5-1.1c0-0.5,0.2-1,0.6-1.3
		c0.4-0.3,1-0.5,1.8-0.5h0.9v-0.4c0-0.3-0.1-0.6-0.3-0.7c-0.2-0.2-0.5-0.3-0.8-0.3s-0.6,0.1-0.8,0.2c-0.2,0.2-0.3,0.4-0.3,0.6h-0.9
		c0-0.3,0.1-0.5,0.3-0.8c0.2-0.2,0.4-0.4,0.8-0.6c0.3-0.1,0.7-0.2,1.1-0.2c0.6,0,1.1,0.2,1.4,0.5c0.3,0.3,0.5,0.7,0.5,1.3v2.4
		c0,0.5,0.1,0.9,0.2,1.2v0.1h-1.1L472.1,514L472.1,514z M470.6,513.2c0.3,0,0.6-0.1,0.8-0.2c0.2-0.1,0.4-0.3,0.5-0.6v-1.1h-0.7
		c-1.1,0-1.7,0.3-1.7,1c0,0.3,0.1,0.5,0.3,0.7C470,513.2,470.3,513.2,470.6,513.2z M477.1,511.1c0-0.7,0.1-1.4,0.3-2.1
		s0.5-1.3,0.9-1.9s0.8-0.9,1.2-1.2l0.2,0.6c-0.5,0.4-0.9,0.9-1.2,1.7s-0.5,1.6-0.5,2.5v0.4c0,1.3,0.2,2.4,0.7,3.3
		c0.3,0.6,0.6,1,1,1.3l-0.2,0.5c-0.4-0.2-0.9-0.6-1.3-1.2C477.5,513.8,477.1,512.5,477.1,511.1z M483.9,510.8
		c-0.2,0.2-0.4,0.4-0.7,0.5s-0.5,0.2-0.9,0.2s-0.8-0.1-1.1-0.3c-0.3-0.2-0.5-0.5-0.7-0.8c-0.2-0.4-0.2-0.8-0.2-1.2
		c0-0.5,0.1-0.9,0.3-1.3s0.4-0.7,0.8-0.9c0.3-0.2,0.7-0.3,1.2-0.3c0.7,0,1.3,0.3,1.7,0.8s0.6,1.2,0.6,2.2v0.3c0,1.4-0.3,2.4-0.8,3
		c-0.5,0.6-1.4,1-2.5,1h-0.2v-0.8h0.2c0.7,0,1.3-0.2,1.7-0.6C483.6,512.2,483.8,511.6,483.9,510.8z M482.5,510.8
		c0.3,0,0.6-0.1,0.8-0.3c0.3-0.2,0.5-0.4,0.6-0.7v-0.4c0-0.6-0.1-1.1-0.4-1.4c-0.3-0.4-0.6-0.6-1-0.6s-0.7,0.2-1,0.5
		c-0.2,0.3-0.4,0.7-0.4,1.2s0.1,0.9,0.3,1.2C481.8,510.7,482.1,510.8,482.5,510.8z M487.2,508.7v0.6c0.4-0.5,0.9-0.7,1.6-0.7
		c0.7,0,1.2,0.3,1.5,0.8c0.2-0.3,0.4-0.5,0.7-0.6c0.3-0.2,0.6-0.2,1-0.2c1.2,0,1.8,0.6,1.8,1.8v3.6h-0.9v-3.5c0-0.4-0.1-0.7-0.3-0.8
		c-0.2-0.2-0.5-0.3-0.9-0.3c-0.3,0-0.6,0.1-0.8,0.3c-0.2,0.2-0.3,0.5-0.4,0.8v3.5h-0.9v-3.5c0-0.8-0.4-1.1-1.1-1.1
		c-0.6,0-1,0.3-1.2,0.8v3.9h-0.9v-5.3L487.2,508.7L487.2,508.7z M498.6,512.5c0-0.2-0.1-0.4-0.3-0.6c-0.2-0.1-0.5-0.3-1-0.4
		s-0.8-0.2-1.1-0.4c-0.3-0.1-0.5-0.3-0.6-0.5s-0.2-0.4-0.2-0.7c0-0.4,0.2-0.8,0.5-1.1c0.4-0.3,0.8-0.5,1.4-0.5
		c0.6,0,1.1,0.2,1.4,0.5c0.4,0.3,0.6,0.7,0.6,1.2h-0.9c0-0.2-0.1-0.5-0.3-0.6c-0.2-0.2-0.5-0.3-0.8-0.3s-0.6,0.1-0.8,0.2
		s-0.3,0.3-0.3,0.5s0.1,0.4,0.3,0.5s0.5,0.2,0.9,0.3c0.5,0.1,0.8,0.2,1.1,0.4c0.3,0.1,0.5,0.3,0.6,0.5s0.2,0.4,0.2,0.7
		c0,0.5-0.2,0.9-0.6,1.1c-0.4,0.3-0.9,0.4-1.5,0.4c-0.4,0-0.8-0.1-1.1-0.2c-0.3-0.2-0.6-0.4-0.8-0.6c-0.2-0.3-0.3-0.6-0.3-0.9h0.9
		c0,0.3,0.1,0.5,0.4,0.7c0.2,0.2,0.5,0.3,0.9,0.3c0.3,0,0.6-0.1,0.8-0.2C498.2,512.6,498.6,512.8,498.6,512.5z M504,514h-0.9v-7.5
		h0.9V514z M508.8,514c-0.1-0.1-0.1-0.3-0.1-0.6c-0.4,0.4-0.9,0.7-1.5,0.7c-0.5,0-1-0.1-1.3-0.4s-0.5-0.7-0.5-1.1
		c0-0.5,0.2-1,0.6-1.3c0.4-0.3,1-0.5,1.8-0.5h0.9v-0.4c0-0.3-0.1-0.6-0.3-0.7c-0.2-0.2-0.5-0.3-0.8-0.3s-0.6,0.1-0.8,0.2
		c-0.2,0.2-0.3,0.4-0.3,0.6h-0.9c0-0.3,0.1-0.5,0.3-0.8c0.2-0.2,0.4-0.4,0.8-0.6c0.3-0.1,0.7-0.2,1.1-0.2c0.6,0,1.1,0.2,1.4,0.5
		c0.3,0.3,0.5,0.7,0.5,1.3v2.4c0,0.5,0.1,0.9,0.2,1.2v0.1h-1.1L508.8,514L508.8,514z M507.3,513.2c0.3,0,0.6-0.1,0.8-0.2
		c0.2-0.1,0.4-0.3,0.5-0.6v-1.1H508c-1.1,0-1.7,0.3-1.7,1c0,0.3,0.1,0.5,0.3,0.7C506.8,513.2,507,513.2,507.3,513.2z M512.7,507.4
		v1.3h1v0.7h-1v3.3c0,0.2,0,0.4,0.1,0.5c0.1,0.1,0.2,0.2,0.4,0.2c0.1,0,0.2,0,0.4-0.1v0.7c-0.2,0.1-0.5,0.1-0.7,0.1
		c-0.4,0-0.7-0.1-0.9-0.4s-0.3-0.6-0.3-1.1v-3.3h-1v-0.7h1v-1.3L512.7,507.4L512.7,507.4z M517,514c-0.7,0-1.3-0.2-1.8-0.7
		c-0.4-0.5-0.7-1.1-0.7-1.9v-0.2c0-0.5,0.1-1,0.3-1.4s0.5-0.7,0.8-1c0.4-0.2,0.8-0.4,1.2-0.4c0.7,0,1.2,0.2,1.6,0.7
		c0.4,0.5,0.6,1.1,0.6,1.9v0.4h-3.6c0,0.5,0.2,0.9,0.5,1.3c0.3,0.3,0.7,0.5,1.1,0.5c0.3,0,0.6-0.1,0.8-0.2c0.2-0.1,0.4-0.3,0.6-0.5
		l0.5,0.4C518.5,513.7,517.8,514,517,514z M516.8,509.2c-0.4,0-0.7,0.1-0.9,0.4s-0.4,0.6-0.4,1.1h2.7v-0.1c0-0.5-0.2-0.8-0.4-1.1
		C517.5,509.4,517.2,509.2,516.8,509.2z M520.6,508.7v0.7c0.4-0.5,0.9-0.8,1.6-0.8c1.1,0,1.7,0.6,1.7,1.9v3.5H523v-3.5
		c0-0.4-0.1-0.7-0.3-0.8c-0.2-0.2-0.4-0.3-0.8-0.3c-0.3,0-0.6,0.1-0.8,0.2c-0.2,0.2-0.4,0.4-0.5,0.6v3.8h-0.9v-5.3L520.6,508.7
		L520.6,508.7z M527.7,513.2c0.3,0,0.6-0.1,0.8-0.3c0.2-0.2,0.4-0.4,0.4-0.7h0.9c0,0.3-0.1,0.6-0.3,0.9s-0.4,0.5-0.8,0.7
		c-0.3,0.2-0.7,0.2-1,0.2c-0.7,0-1.3-0.2-1.7-0.7s-0.6-1.1-0.6-2v-0.2c0-0.5,0.1-1,0.3-1.4s0.5-0.7,0.8-0.9c0.4-0.2,0.8-0.3,1.3-0.3
		c0.6,0,1.1,0.2,1.5,0.5s0.6,0.8,0.6,1.4H529c0-0.3-0.2-0.6-0.4-0.8c-0.2-0.2-0.5-0.3-0.9-0.3c-0.5,0-0.8,0.2-1.1,0.5
		s-0.4,0.8-0.4,1.4v0.2c0,0.6,0.1,1.1,0.4,1.4C526.9,513,527.3,513.2,527.7,513.2z M532.4,512.5l1.2-4h1l-2.1,6.1
		c-0.3,0.9-0.9,1.3-1.6,1.3h-0.2l-0.3-0.1v-0.7h0.2c0.3,0,0.6-0.1,0.7-0.2c0.2-0.1,0.3-0.3,0.4-0.7l0.2-0.5l-1.9-5.2h1L532.4,512.5z
		 M537.7,511.1c0,0.7-0.1,1.4-0.3,2.1s-0.5,1.3-0.9,1.8c-0.4,0.6-0.8,1-1.2,1.2l-0.2-0.5c0.5-0.4,0.9-1,1.2-1.8s0.5-1.7,0.5-2.7V511
		c0-0.7-0.1-1.3-0.2-1.9c-0.1-0.6-0.3-1.1-0.6-1.6s-0.5-0.8-0.9-1.1l0.2-0.5c0.4,0.2,0.8,0.6,1.2,1.2s0.7,1.2,0.9,1.9
		C537.6,509.6,537.7,510.2,537.7,511.1z"/>
	<path class="st26" d="M576.1,511.7c-0.1,0.7-0.4,1.3-0.8,1.7c-0.5,0.4-1.1,0.6-1.9,0.6c-0.8,0-1.5-0.3-2-0.9
		c-0.5-0.6-0.8-1.4-0.8-2.4V510c0-0.7,0.1-1.2,0.4-1.7c0.2-0.5,0.6-0.9,1-1.2c0.4-0.3,0.9-0.4,1.5-0.4c0.8,0,1.4,0.2,1.8,0.6
		c0.5,0.4,0.7,1,0.8,1.7h-0.9c-0.1-0.6-0.3-1-0.5-1.2c-0.3-0.3-0.7-0.4-1.1-0.4c-0.6,0-1.1,0.2-1.4,0.7c-0.3,0.4-0.5,1.1-0.5,1.9
		v0.7c0,0.8,0.2,1.4,0.5,1.9s0.8,0.7,1.4,0.7c0.5,0,0.9-0.1,1.2-0.4c0.3-0.2,0.5-0.7,0.6-1.2H576.1z M577.2,511.2
		c0-0.5,0.1-1,0.3-1.4s0.5-0.7,0.9-1c0.4-0.2,0.8-0.3,1.2-0.3c0.7,0,1.3,0.2,1.7,0.7c0.5,0.5,0.7,1.2,0.7,2v0.1c0,0.5-0.1,1-0.3,1.4
		c-0.2,0.4-0.5,0.7-0.8,1c-0.4,0.2-0.8,0.3-1.3,0.3c-0.7,0-1.3-0.2-1.7-0.7C577.4,512.8,577.2,512,577.2,511.2L577.2,511.2z
		 M578.1,511.4c0,0.6,0.1,1.1,0.4,1.4c0.3,0.4,0.6,0.5,1.1,0.5s0.8-0.2,1.1-0.5c0.3-0.4,0.4-0.9,0.4-1.5s-0.1-1-0.4-1.4
		c-0.3-0.4-0.6-0.5-1.1-0.5c-0.4,0-0.8,0.2-1.1,0.5C578.2,510.2,578.1,510.7,578.1,511.4z M585.4,513.2c0.3,0,0.6-0.1,0.8-0.3
		c0.2-0.2,0.4-0.4,0.4-0.7h0.9c0,0.3-0.1,0.6-0.3,0.9s-0.4,0.5-0.8,0.7c-0.3,0.2-0.7,0.2-1,0.2c-0.7,0-1.3-0.2-1.7-0.7
		s-0.6-1.1-0.6-2v-0.2c0-0.5,0.1-1,0.3-1.4s0.5-0.7,0.8-0.9c0.4-0.2,0.8-0.3,1.3-0.3c0.6,0,1.1,0.2,1.5,0.5s0.6,0.8,0.6,1.4h-0.9
		c0-0.3-0.2-0.6-0.4-0.8c-0.2-0.2-0.5-0.3-0.9-0.3c-0.5,0-0.8,0.2-1.1,0.5s-0.4,0.8-0.4,1.4v0.2c0,0.6,0.1,1.1,0.4,1.4
		C584.6,513,584.9,513.2,585.4,513.2z M589.8,511.5l-0.6,0.6v1.9h-0.9v-7.5h0.9v4.5l0.5-0.6l1.7-1.7h1.1l-2.1,2.2l2.3,3.1h-1.1
		L589.8,511.5z M595.9,509.5c-0.1,0-0.3,0-0.4,0c-0.6,0-1,0.3-1.2,0.8v3.8h-0.9v-5.3h0.9v0.6c0.3-0.5,0.7-0.7,1.3-0.7
		c0.2,0,0.3,0,0.4,0.1L595.9,509.5L595.9,509.5z M596.4,511.2c0-0.5,0.1-1,0.3-1.4s0.5-0.7,0.9-1c0.4-0.2,0.8-0.3,1.2-0.3
		c0.7,0,1.3,0.2,1.7,0.7c0.5,0.5,0.7,1.2,0.7,2v0.1c0,0.5-0.1,1-0.3,1.4c-0.2,0.4-0.5,0.7-0.8,1c-0.4,0.2-0.8,0.3-1.3,0.3
		c-0.7,0-1.3-0.2-1.7-0.7C596.6,512.8,596.4,512,596.4,511.2L596.4,511.2z M597.3,511.4c0,0.6,0.1,1.1,0.4,1.4
		c0.3,0.4,0.6,0.5,1.1,0.5s0.8-0.2,1.1-0.5c0.3-0.4,0.4-0.9,0.4-1.5s-0.1-1-0.4-1.4c-0.3-0.4-0.6-0.5-1.1-0.5
		c-0.4,0-0.8,0.2-1.1,0.5C597.5,510.2,597.3,510.7,597.3,511.4z M605.8,514c-0.1-0.1-0.1-0.3-0.1-0.6c-0.4,0.4-0.9,0.7-1.5,0.7
		c-0.5,0-1-0.1-1.3-0.4s-0.5-0.7-0.5-1.1c0-0.5,0.2-1,0.6-1.3c0.4-0.3,1-0.5,1.8-0.5h0.9v-0.4c0-0.3-0.1-0.6-0.3-0.7
		c-0.2-0.2-0.5-0.3-0.8-0.3s-0.6,0.1-0.8,0.2c-0.2,0.2-0.3,0.4-0.3,0.6h-0.9c0-0.3,0.1-0.5,0.3-0.8c0.2-0.2,0.4-0.4,0.8-0.6
		c0.3-0.1,0.7-0.2,1.1-0.2c0.6,0,1.1,0.2,1.4,0.5c0.3,0.3,0.5,0.7,0.5,1.3v2.4c0,0.5,0.1,0.9,0.2,1.2v0.1h-1.1L605.8,514L605.8,514z
		 M604.3,513.2c0.3,0,0.6-0.1,0.8-0.2c0.2-0.1,0.4-0.3,0.5-0.6v-1.1h-0.7c-1.1,0-1.7,0.3-1.7,1c0,0.3,0.1,0.5,0.3,0.7
		C603.7,513.2,604,513.2,604.3,513.2z M610.5,513.2c0.3,0,0.6-0.1,0.8-0.3c0.2-0.2,0.4-0.4,0.4-0.7h0.9c0,0.3-0.1,0.6-0.3,0.9
		s-0.4,0.5-0.8,0.7c-0.3,0.2-0.7,0.2-1,0.2c-0.7,0-1.3-0.2-1.7-0.7s-0.6-1.1-0.6-2v-0.2c0-0.5,0.1-1,0.3-1.4s0.5-0.7,0.8-0.9
		c0.4-0.2,0.8-0.3,1.3-0.3c0.6,0,1.1,0.2,1.5,0.5s0.6,0.8,0.6,1.4h-0.9c0-0.3-0.2-0.6-0.4-0.8c-0.2-0.2-0.5-0.3-0.9-0.3
		c-0.5,0-0.8,0.2-1.1,0.5s-0.4,0.8-0.4,1.4v0.2c0,0.6,0.1,1.1,0.4,1.4C609.6,513,610,513.2,610.5,513.2z M614.3,509.2
		c0.4-0.5,0.9-0.7,1.6-0.7c1.1,0,1.7,0.6,1.7,1.9v3.5h-0.9v-3.5c0-0.4-0.1-0.7-0.3-0.8c-0.2-0.2-0.4-0.3-0.8-0.3
		c-0.3,0-0.6,0.1-0.8,0.2c-0.2,0.2-0.4,0.4-0.5,0.6v3.8h-0.9v-7.5h0.9V509.2z M619.3,514v-7.1h2c0.6,0,1.2,0.1,1.6,0.4
		c0.5,0.3,0.8,0.7,1.1,1.2s0.4,1.1,0.4,1.7v0.4c0,0.7-0.1,1.3-0.4,1.8c-0.3,0.5-0.6,0.9-1.1,1.2s-1,0.4-1.7,0.4H619.3z M620.3,507.6
		v5.6h1c0.7,0,1.3-0.2,1.7-0.7s0.6-1.1,0.6-1.9v-0.4c0-0.8-0.2-1.4-0.6-1.9c-0.4-0.5-0.9-0.7-1.6-0.7H620.3z M626,514v-7.1h2.3
		c0.8,0,1.4,0.2,1.7,0.5c0.4,0.3,0.6,0.8,0.6,1.4c0,0.3-0.1,0.6-0.3,0.9s-0.4,0.4-0.8,0.6c0.4,0.1,0.7,0.3,0.9,0.6
		c0.2,0.3,0.3,0.7,0.3,1.1c0,0.6-0.2,1.1-0.6,1.5c-0.4,0.4-1,0.5-1.7,0.5H626z M627,510.6v2.6h1.6c0.4,0,0.8-0.1,1-0.3
		c0.3-0.2,0.4-0.5,0.4-0.9c0-0.9-0.5-1.3-1.4-1.3H627V510.6z M627,509.9h1.4c0.4,0,0.7-0.1,1-0.3c0.3-0.2,0.4-0.5,0.4-0.8
		c0-0.4-0.1-0.7-0.3-0.8c-0.2-0.2-0.6-0.3-1-0.3H627V509.9z M634.2,511.1c0-0.7,0.1-1.4,0.3-2.1s0.5-1.3,0.9-1.9s0.8-0.9,1.2-1.2
		l0.2,0.6c-0.5,0.4-0.9,0.9-1.2,1.7c-0.3,0.7-0.5,1.6-0.5,2.5v0.4c0,1.3,0.2,2.4,0.7,3.3c0.3,0.6,0.6,1,1,1.3l-0.2,0.5
		c-0.4-0.2-0.9-0.6-1.3-1.2C634.6,513.8,634.2,512.5,634.2,511.1z M638.8,509.9h0.7c0.4,0,0.8-0.1,1-0.3s0.4-0.5,0.4-0.9
		c0-0.8-0.4-1.3-1.3-1.3c-0.4,0-0.7,0.1-0.9,0.3c-0.2,0.2-0.3,0.5-0.3,0.9h-0.9c0-0.6,0.2-1,0.6-1.4c0.4-0.4,0.9-0.6,1.6-0.6
		c0.7,0,1.2,0.2,1.6,0.5s0.6,0.9,0.6,1.5c0,0.3-0.1,0.6-0.3,0.9s-0.5,0.5-0.8,0.7c0.4,0.1,0.7,0.3,0.9,0.6c0.2,0.3,0.3,0.6,0.3,1.1
		c0,0.6-0.2,1.1-0.6,1.5c-0.4,0.4-1,0.6-1.6,0.6c-0.7,0-1.2-0.2-1.6-0.5c-0.4-0.4-0.6-0.8-0.6-1.4h0.9c0,0.4,0.1,0.7,0.4,0.9
		c0.3,0.2,0.6,0.3,1,0.3s0.8-0.1,1-0.3s0.4-0.6,0.4-1s-0.1-0.7-0.4-0.9c-0.3-0.2-0.6-0.3-1.1-0.4h-0.7v-0.8L638.8,509.9L638.8,509.9
		z M643.8,510.4l0.4-3.6h3.7v0.8H645l-0.2,1.9c0.4-0.2,0.8-0.3,1.2-0.3c0.6,0,1.2,0.2,1.5,0.7c0.4,0.4,0.6,1,0.6,1.7
		c0,0.7-0.2,1.3-0.6,1.7c-0.4,0.4-0.9,0.6-1.7,0.6c-0.6,0-1.1-0.2-1.5-0.5c-0.4-0.4-0.6-0.8-0.7-1.5h0.8c0.1,0.4,0.2,0.7,0.4,0.9
		c0.2,0.2,0.5,0.3,0.9,0.3s0.7-0.1,1-0.4c0.2-0.3,0.4-0.7,0.4-1.2s-0.1-0.9-0.4-1.1c-0.3-0.3-0.6-0.4-1-0.4s-0.7,0.1-0.9,0.2
		l-0.2,0.2L643.8,510.4z M650.1,508.7v0.6c0.4-0.5,0.9-0.7,1.6-0.7c0.7,0,1.2,0.3,1.5,0.8c0.2-0.3,0.4-0.5,0.7-0.6
		c0.3-0.2,0.6-0.2,1-0.2c1.2,0,1.8,0.6,1.8,1.8v3.6h-0.9v-3.5c0-0.4-0.1-0.7-0.3-0.8c-0.2-0.2-0.5-0.3-0.9-0.3
		c-0.3,0-0.6,0.1-0.8,0.3c-0.2,0.2-0.3,0.5-0.4,0.8v3.5h-0.9v-3.5c0-0.8-0.4-1.1-1.1-1.1c-0.6,0-1,0.3-1.2,0.8v3.9h-0.9v-5.3
		L650.1,508.7L650.1,508.7z M661.6,512.5c0-0.2-0.1-0.4-0.3-0.6c-0.2-0.1-0.5-0.3-1-0.4s-0.8-0.2-1.1-0.4c-0.3-0.1-0.5-0.3-0.6-0.5
		s-0.2-0.4-0.2-0.7c0-0.4,0.2-0.8,0.5-1.1c0.4-0.3,0.8-0.5,1.4-0.5c0.6,0,1.1,0.2,1.4,0.5c0.4,0.3,0.6,0.7,0.6,1.2h-0.9
		c0-0.2-0.1-0.5-0.3-0.6c-0.2-0.2-0.5-0.3-0.8-0.3s-0.6,0.1-0.8,0.2s-0.3,0.3-0.3,0.5s0.1,0.4,0.3,0.5s0.5,0.2,0.9,0.3
		c0.5,0.1,0.8,0.2,1.1,0.4c0.3,0.1,0.5,0.3,0.6,0.5s0.2,0.4,0.2,0.7c0,0.5-0.2,0.9-0.6,1.1c-0.4,0.3-0.9,0.4-1.5,0.4
		c-0.4,0-0.8-0.1-1.1-0.2c-0.3-0.2-0.6-0.4-0.8-0.6c-0.2-0.3-0.3-0.6-0.3-0.9h0.9c0,0.3,0.1,0.5,0.4,0.7c0.2,0.2,0.5,0.3,0.9,0.3
		c0.3,0,0.6-0.1,0.8-0.2C661.5,513,661.6,512.8,661.6,512.5z M667,514h-0.9v-7.5h0.9V514z M671.8,514c-0.1-0.1-0.1-0.3-0.1-0.6
		c-0.4,0.4-0.9,0.7-1.5,0.7c-0.5,0-1-0.1-1.3-0.4s-0.5-0.7-0.5-1.1c0-0.5,0.2-1,0.6-1.3c0.4-0.3,1-0.5,1.8-0.5h0.9v-0.4
		c0-0.3-0.1-0.6-0.3-0.7c-0.2-0.2-0.5-0.3-0.8-0.3s-0.6,0.1-0.8,0.2c-0.2,0.2-0.3,0.4-0.3,0.6h-0.9c0-0.3,0.1-0.5,0.3-0.8
		c0.2-0.2,0.4-0.4,0.8-0.6c0.3-0.1,0.7-0.2,1.1-0.2c0.6,0,1.1,0.2,1.4,0.5c0.3,0.3,0.5,0.7,0.5,1.3v2.4c0,0.5,0.1,0.9,0.2,1.2v0.1
		h-1.1L671.8,514L671.8,514z M670.3,513.2c0.3,0,0.6-0.1,0.8-0.2c0.3-0.1,0.4-0.3,0.5-0.6v-1.1h-0.7c-1.1,0-1.7,0.3-1.7,1
		c0,0.3,0.1,0.5,0.3,0.7C669.7,513.2,670,513.2,670.3,513.2z M675.6,507.4v1.3h1v0.7h-1v3.3c0,0.2,0,0.4,0.1,0.5
		c0.1,0.1,0.2,0.2,0.4,0.2c0.1,0,0.2,0,0.4-0.1v0.7c-0.2,0.1-0.5,0.1-0.7,0.1c-0.4,0-0.7-0.1-0.9-0.4s-0.3-0.6-0.3-1.1v-3.3h-1v-0.7
		h1v-1.3L675.6,507.4L675.6,507.4z M679.9,514c-0.7,0-1.3-0.2-1.8-0.7c-0.4-0.5-0.7-1.1-0.7-1.9v-0.2c0-0.5,0.1-1,0.3-1.4
		s0.5-0.7,0.8-1c0.4-0.2,0.8-0.4,1.2-0.4c0.7,0,1.2,0.2,1.6,0.7c0.4,0.5,0.6,1.1,0.6,1.9v0.4h-3.6c0,0.5,0.2,0.9,0.5,1.3
		c0.3,0.3,0.7,0.5,1.1,0.5c0.3,0,0.6-0.1,0.8-0.2c0.2-0.1,0.4-0.3,0.6-0.5l0.5,0.4C681.4,513.7,680.8,514,679.9,514z M679.8,509.2
		c-0.4,0-0.7,0.1-0.9,0.4s-0.4,0.6-0.4,1.1h2.7v-0.1c0-0.5-0.2-0.8-0.4-1.1C680.5,509.4,680.2,509.2,679.8,509.2z M683.6,508.7v0.7
		c0.4-0.5,0.9-0.8,1.6-0.8c1.1,0,1.7,0.6,1.7,1.9v3.5H686v-3.5c0-0.4-0.1-0.7-0.3-0.8c-0.2-0.2-0.4-0.3-0.8-0.3
		c-0.3,0-0.6,0.1-0.8,0.2c-0.2,0.2-0.4,0.4-0.5,0.6v3.8h-0.9v-5.3L683.6,508.7L683.6,508.7z M690.7,513.2c0.3,0,0.6-0.1,0.8-0.3
		c0.2-0.2,0.4-0.4,0.4-0.7h0.9c0,0.3-0.1,0.6-0.3,0.9s-0.4,0.5-0.8,0.7c-0.3,0.2-0.7,0.2-1,0.2c-0.7,0-1.3-0.2-1.7-0.7
		s-0.6-1.1-0.6-2v-0.2c0-0.5,0.1-1,0.3-1.4s0.5-0.7,0.8-0.9c0.4-0.2,0.8-0.3,1.3-0.3c0.6,0,1.1,0.2,1.5,0.5s0.6,0.8,0.6,1.4H692
		c0-0.3-0.2-0.6-0.4-0.8c-0.2-0.2-0.5-0.3-0.9-0.3c-0.5,0-0.8,0.2-1.1,0.5s-0.4,0.8-0.4,1.4v0.2c0,0.6,0.1,1.1,0.4,1.4
		C689.9,513,690.2,513.2,690.7,513.2z M695.3,512.5l1.2-4h1l-2.1,6.1c-0.3,0.9-0.9,1.3-1.6,1.3h-0.2l-0.3-0.1v-0.7h0.2
		c0.3,0,0.6-0.1,0.7-0.2c0.2-0.1,0.3-0.3,0.4-0.7l0.2-0.5l-1.9-5.2h1L695.3,512.5z M700.7,511.1c0,0.7-0.1,1.4-0.3,2.1
		s-0.5,1.3-0.9,1.8c-0.4,0.6-0.8,1-1.2,1.2l-0.2-0.5c0.5-0.4,0.9-1,1.2-1.8s0.5-1.7,0.5-2.7V511c0-0.7-0.1-1.3-0.2-1.9
		c-0.1-0.6-0.3-1.1-0.6-1.6s-0.5-0.8-0.9-1.1l0.2-0.5c0.4,0.2,0.8,0.6,1.2,1.2s0.7,1.2,0.9,1.9C700.6,509.6,700.7,510.2,700.7,511.1
		z"/>
	<path class="st26" d="M353.5,161.8l0.1,0.9l0.2-0.8l1.4-5h0.8l1.4,5l0.2,0.9l0.2-1l1.1-4.9h0.9l-1.7,7.1h-0.9l-1.5-5.2l-0.1-0.5
		l-0.1,0.5l-1.5,5.2h-0.9l-1.7-7.1h0.9L353.5,161.8z M363.6,159.4c-0.1,0-0.3,0-0.4,0c-0.6,0-1,0.3-1.2,0.8v3.7h-1v-5.3h0.9v0.6
		c0.3-0.5,0.7-0.7,1.3-0.7c0.2,0,0.3,0,0.4,0.1L363.6,159.4L363.6,159.4z M365.3,163.9h-0.9v-5.3h0.9V163.9z M364.4,157.2
		c0-0.1,0-0.3,0.1-0.4c0.1-0.1,0.2-0.2,0.4-0.2c0.2,0,0.3,0.1,0.4,0.2c0.1,0.1,0.1,0.2,0.1,0.4c0,0.1,0,0.3-0.1,0.4
		c-0.1,0.1-0.2,0.1-0.4,0.1c-0.2,0-0.3,0-0.4-0.1C364.4,157.6,364.4,157.4,364.4,157.2z M368.1,157.4v1.3h1v0.7h-1v3.3
		c0,0.2,0,0.4,0.1,0.5c0.1,0.1,0.2,0.2,0.4,0.2c0.1,0,0.2,0,0.4-0.1v0.7c-0.2,0.1-0.5,0.1-0.7,0.1c-0.4,0-0.7-0.1-0.9-0.4
		c-0.2-0.3-0.3-0.6-0.3-1.1v-3.3h-1v-0.7h1v-1.3h1V157.4z M372.4,164.1c-0.7,0-1.3-0.2-1.8-0.7c-0.4-0.5-0.7-1.1-0.7-1.9v-0.2
		c0-0.5,0.1-1,0.3-1.4c0.2-0.4,0.5-0.7,0.8-1c0.4-0.2,0.8-0.4,1.2-0.4c0.7,0,1.2,0.2,1.6,0.7s0.6,1.1,0.6,1.9v0.4h-3.6
		c0,0.5,0.2,0.9,0.5,1.3c0.3,0.3,0.7,0.5,1.1,0.5c0.3,0,0.6-0.1,0.8-0.2c0.2-0.1,0.4-0.3,0.6-0.5l0.5,0.4
		C374,163.8,373.3,164.1,372.4,164.1z M372.3,159.4c-0.4,0-0.7,0.1-0.9,0.4c-0.2,0.3-0.4,0.6-0.4,1.1h2.7v-0.1
		c0-0.5-0.2-0.8-0.4-1.1C373,159.4,372.7,159.4,372.3,159.4z M378.3,162.6c0-0.2-0.1-0.4-0.3-0.6c-0.2-0.1-0.5-0.3-1-0.4
		c-0.5-0.1-0.8-0.2-1.1-0.4c-0.3-0.1-0.5-0.3-0.6-0.5s-0.2-0.4-0.2-0.7c0-0.4,0.2-0.8,0.5-1.1c0.4-0.3,0.8-0.5,1.4-0.5
		s1.1,0.2,1.4,0.5c0.4,0.3,0.6,0.7,0.6,1.2h-0.9c0-0.2-0.1-0.5-0.3-0.6c-0.2-0.2-0.5-0.3-0.8-0.3s-0.6,0.1-0.8,0.2
		c-0.2,0.1-0.3,0.3-0.3,0.5s0.1,0.4,0.3,0.5c0.2,0.1,0.5,0.2,0.9,0.3c0.5,0.1,0.8,0.2,1.1,0.4c0.3,0.1,0.5,0.3,0.6,0.5
		s0.2,0.4,0.2,0.7c0,0.5-0.2,0.9-0.6,1.1c-0.4,0.3-0.9,0.4-1.5,0.4c-0.4,0-0.8-0.1-1.1-0.2c-0.3-0.2-0.6-0.4-0.8-0.6
		c-0.2-0.3-0.3-0.6-0.3-0.9h0.9c0,0.3,0.1,0.5,0.4,0.7c0.2,0.2,0.5,0.3,0.9,0.3c0.3,0,0.6-0.1,0.8-0.2
		C377.9,162.8,378.3,162.8,378.3,162.6z M383.8,161.1v2.8h-0.9v-7.1h2.6c0.8,0,1.4,0.2,1.8,0.6c0.4,0.4,0.7,0.9,0.7,1.6
		s-0.2,1.2-0.7,1.6c-0.4,0.4-1,0.6-1.9,0.6L383.8,161.1L383.8,161.1z M383.8,160.4h1.7c0.5,0,0.9-0.1,1.1-0.4c0.3-0.2,0.4-0.6,0.4-1
		c0-0.4-0.1-0.8-0.4-1c-0.3-0.3-0.6-0.4-1.1-0.4h-1.7V160.4z M391.6,164.1c-0.7,0-1.3-0.2-1.8-0.7c-0.4-0.5-0.7-1.1-0.7-1.9v-0.2
		c0-0.5,0.1-1,0.3-1.4c0.2-0.4,0.5-0.7,0.8-1c0.4-0.2,0.8-0.4,1.2-0.4c0.7,0,1.2,0.2,1.6,0.7s0.6,1.1,0.6,1.9v0.4H390
		c0,0.5,0.2,0.9,0.5,1.3c0.3,0.3,0.7,0.5,1.1,0.5c0.3,0,0.6-0.1,0.8-0.2c0.2-0.1,0.4-0.3,0.6-0.5l0.5,0.4
		C393.2,163.8,392.5,164.1,391.6,164.1z M391.5,159.4c-0.4,0-0.7,0.1-0.9,0.4c-0.2,0.3-0.4,0.6-0.4,1.1h2.7v-0.1
		c0-0.5-0.2-0.8-0.4-1.1C392.2,159.4,391.9,159.4,391.5,159.4z M397,159.4c-0.1,0-0.3,0-0.4,0c-0.6,0-1,0.3-1.2,0.8v3.7h-0.9v-5.3
		h0.9v0.6c0.3-0.5,0.7-0.7,1.3-0.7c0.2,0,0.3,0,0.4,0.1L397,159.4L397,159.4z M402.5,160.8c-0.8-0.2-1.4-0.5-1.8-0.9
		c-0.4-0.3-0.5-0.8-0.5-1.3c0-0.6,0.2-1,0.7-1.4c0.5-0.4,1-0.6,1.8-0.6c0.5,0,0.9,0.1,1.3,0.3c0.4,0.2,0.7,0.5,0.9,0.8
		c0.2,0.3,0.3,0.7,0.3,1.1h-1c0-0.4-0.1-0.8-0.4-1c-0.3-0.2-0.7-0.4-1.1-0.4c-0.5,0-0.8,0.1-1.1,0.3c-0.3,0.2-0.4,0.5-0.4,0.8
		s0.1,0.5,0.4,0.7s0.7,0.4,1.3,0.5c0.6,0.2,1.1,0.3,1.4,0.5s0.6,0.4,0.7,0.7c0.2,0.3,0.2,0.6,0.2,0.9c0,0.6-0.2,1-0.7,1.4
		c-0.5,0.3-1.1,0.5-1.8,0.5c-0.5,0-1-0.1-1.4-0.3s-0.7-0.4-1-0.8c-0.2-0.3-0.3-0.7-0.3-1.1h0.9c0,0.4,0.2,0.8,0.5,1
		c0.3,0.3,0.7,0.4,1.3,0.4c0.5,0,0.9-0.1,1.1-0.3c0.3-0.2,0.4-0.5,0.4-0.8s-0.1-0.6-0.4-0.8C403.6,161.1,403.2,160.9,402.5,160.8z
		 M408.3,164.1c-0.7,0-1.3-0.2-1.8-0.7c-0.4-0.5-0.7-1.1-0.7-1.9v-0.2c0-0.5,0.1-1,0.3-1.4c0.2-0.4,0.5-0.7,0.8-1
		c0.4-0.2,0.8-0.4,1.2-0.4c0.7,0,1.2,0.2,1.6,0.7s0.6,1.1,0.6,1.9v0.4h-3.6c0,0.5,0.2,0.9,0.5,1.3c0.3,0.3,0.7,0.5,1.1,0.5
		c0.3,0,0.6-0.1,0.8-0.2c0.2-0.1,0.4-0.3,0.6-0.5l0.5,0.4C409.9,163.8,409.2,164.1,408.3,164.1z M408.2,159.4
		c-0.4,0-0.7,0.1-0.9,0.4c-0.2,0.3-0.4,0.6-0.4,1.1h2.7v-0.1c0-0.5-0.2-0.8-0.4-1.1C408.9,159.4,408.6,159.4,408.2,159.4z
		 M413.3,163.4c0.3,0,0.6-0.1,0.8-0.3c0.2-0.2,0.4-0.4,0.4-0.7h0.9c0,0.3-0.1,0.6-0.3,0.9c-0.2,0.3-0.4,0.5-0.8,0.7
		c-0.3,0.2-0.7,0.2-1,0.2c-0.7,0-1.3-0.2-1.7-0.7c-0.4-0.5-0.6-1.1-0.6-2v-0.2c0-0.5,0.1-1,0.3-1.4c0.2-0.4,0.5-0.7,0.8-0.9
		c0.4-0.2,0.8-0.3,1.3-0.3c0.6,0,1.1,0.2,1.5,0.5s0.6,0.8,0.6,1.4h-0.9c0-0.3-0.2-0.6-0.4-0.8c-0.2-0.2-0.5-0.3-0.9-0.3
		c-0.5,0-0.8,0.2-1.1,0.5s-0.4,0.8-0.4,1.4v0.2c0,0.6,0.1,1.1,0.4,1.4S412.8,163.4,413.3,163.4z M415.9,161.2c0-0.5,0.1-1,0.3-1.4
		c0.2-0.4,0.5-0.7,0.9-1c0.4-0.2,0.8-0.3,1.2-0.3c0.7,0,1.3,0.2,1.7,0.7c0.5,0.5,0.7,1.2,0.7,2v0.1c0,0.5-0.1,1-0.3,1.4
		c-0.2,0.4-0.5,0.7-0.8,1c-0.4,0.2-0.8,0.3-1.3,0.3c-0.7,0-1.3-0.2-1.7-0.7C416.1,162.9,415.9,162.1,415.9,161.2L415.9,161.2z
		 M416.8,161.4c0,0.6,0.1,1.1,0.4,1.4c0.3,0.4,0.6,0.5,1.1,0.5s0.8-0.2,1.1-0.5c0.3-0.4,0.4-0.9,0.4-1.5c0-0.6-0.1-1-0.4-1.4
		c-0.3-0.4-0.6-0.5-1.1-0.5c-0.4,0-0.8,0.2-1.1,0.5C417,160.2,416.8,160.8,416.8,161.4z M422.9,158.6v0.7c0.4-0.5,0.9-0.8,1.6-0.8
		c1.1,0,1.7,0.6,1.7,1.9v3.5h-0.9v-3.5c0-0.4-0.1-0.7-0.3-0.8c-0.2-0.2-0.4-0.3-0.8-0.3c-0.3,0-0.6,0.1-0.8,0.2
		c-0.2,0.2-0.4,0.4-0.5,0.6v3.8H422v-5.3H422.9z M427.6,161.2c0-0.8,0.2-1.5,0.6-2s0.9-0.7,1.5-0.7s1.1,0.2,1.5,0.6v-2.8h0.9v7.6
		h-0.8v-0.6c-0.4,0.5-0.9,0.7-1.5,0.7s-1.1-0.3-1.5-0.8C427.8,162.9,427.6,162.1,427.6,161.2L427.6,161.2z M428.5,161.4
		c0,0.6,0.1,1.1,0.4,1.4s0.6,0.5,1,0.5c0.6,0,1-0.3,1.3-0.8v-2.4c-0.3-0.5-0.7-0.7-1.3-0.7c-0.4,0-0.8,0.2-1,0.5
		C428.7,160.1,428.5,160.8,428.5,161.4z"/>
</g>
</svg>
