<?xml version="1.0" encoding="UTF-8"?>
<svg width="21px" height="16px" viewBox="0 0 21 16" version="1.1" xmlns="http://www.w3.org/2000/svg" xmlns:xlink="http://www.w3.org/1999/xlink">
    <!-- Generator: Sketch 53 (72520) - https://sketchapp.com -->
    <title>Fill 113</title>
    <desc>Created with Sketch.</desc>
    <g id="YugaWeb-v2" stroke="none" stroke-width="1" fill="none" fill-rule="evenodd">
        <g id="02-enterprise-desktop-download" transform="translate(-170.000000, -614.000000)" fill="#F75821">
            <path d="M170.23684,623.94032 C169.920394,623.623025 169.921243,623.103351 170.238255,622.786621 L172.275627,620.748967 C172.592639,620.431671 173.111747,620.431671 173.429043,620.748401 L176.737861,624.049859 C177.055156,624.366589 177.573698,624.366023 177.890427,624.048727 L186.958117,614.959526 C187.274846,614.642231 187.793954,614.640815 188.112099,614.956979 L190.13928,616.969725 C190.457708,617.285888 190.45884,617.803864 190.142111,618.12116 L179.146023,629.143571 C178.829294,629.460866 178.20376,629.720703 177.755131,629.720703 L176.805509,629.720703 C176.357163,629.720703 175.731629,629.4603 175.415183,629.143004 L170.23684,623.94032 Z" id="Fill-113"></path>
        </g>
    </g>
</svg>