<?xml version="1.0" encoding="UTF-8"?>
<svg width="71px" height="53px" viewBox="0 0 71 53" version="1.1" xmlns="http://www.w3.org/2000/svg" xmlns:xlink="http://www.w3.org/1999/xlink">
    <!-- Generator: Sketch 50.2 (55047) - http://www.bohemiancoding.com/sketch -->
    <title>AC</title>
    <desc>Created with Sketch.</desc>
    <defs></defs>
    <g id="v2" stroke="none" stroke-width="1" fill="none" fill-rule="evenodd">
        <g id="03-community-desktop" transform="translate(-267.000000, -3186.000000)">
            <g id="OTHER-DBs" transform="translate(120.000000, 3036.000000)">
                <g id="WHY" transform="translate(4.000000, 0.000000)">
                    <g id="tile-1" transform="translate(0.000000, 89.000000)">
                        <g id="AC" transform="translate(143.000000, 60.000000)">
                            <path d="M11.0432,42.1673 L35.5002,9.1493" id="Stroke-1" stroke="#F75821"></path>
                            <path d="M59.8518,42.1673 L35.3948,9.1493" id="Stroke-2" stroke="#F75821"></path>
                            <path d="M59.8518,42.1741 L11.0428,42.1741" id="Stroke-3" stroke="#F75821"></path>
                            <g id="Group-47" transform="translate(0.000000, 0.894500)">
                                <path d="M21.2541,49.4407 C21.2541,49.4407 20.6431,52.5007 10.8571,52.5007 C1.0711,52.5007 0.5001,49.4407 0.5001,49.4407 L0.5001,31.4077 C0.5001,31.4077 1.4181,28.3477 10.8571,28.3477 C20.2961,28.3477 21.2541,31.4077 21.2541,31.4077 L21.2541,49.4407 Z" id="Fill-4" fill="#F75821"></path>
                                <path d="M21.2141,31.6175 C21.2141,33.4235 16.5761,34.8875 10.8571,34.8875 C5.1371,34.8875 0.5001,33.4235 0.5001,31.6175 C0.5001,29.8115 5.1371,28.3475 10.8571,28.3475 C16.5761,28.3475 21.2141,29.8115 21.2141,31.6175 Z" id="Stroke-6" stroke="#202951" stroke-linecap="round"></path>
                                <path d="M21.2141,49.4407 L21.2141,31.6177" id="Stroke-8" stroke="#202951" stroke-linecap="round"></path>
                                <path d="M0.5002,31.4075 L0.5002,49.2305" id="Stroke-10" stroke="#202951" stroke-linecap="round"></path>
                                <path d="M0.5002,36.7161 C0.5002,36.7161 0.7322,39.9861 10.8562,39.9861 C20.9812,39.9861 21.2142,36.7161 21.2142,36.7161" id="Stroke-12" stroke="#202951" stroke-linecap="round"></path>
                                <path d="M0.5002,42.8353 C0.5002,42.8353 0.7322,46.1053 10.8562,46.1053 C20.9812,46.1053 21.2142,42.8353 21.2142,42.8353" id="Stroke-14" stroke="#202951" stroke-linecap="round"></path>
                                <path d="M0.5002,49.2308 C0.5002,49.2308 0.7322,52.5008 10.8562,52.5008 C20.9812,52.5008 21.2142,49.2308 21.2142,49.2308" id="Stroke-16" stroke="#202951" stroke-linecap="round"></path>
                                <path d="M70.5002,49.4407 C70.5002,49.4407 69.8892,52.5007 60.1032,52.5007 C50.3162,52.5007 49.7462,49.4407 49.7462,49.4407 L49.7462,31.4077 C49.7462,31.4077 50.6642,28.3477 60.1032,28.3477 C69.5422,28.3477 70.5002,31.4077 70.5002,31.4077 L70.5002,49.4407 Z" id="Fill-18" fill="#F75821"></path>
                                <path d="M70.4592,31.6175 C70.4592,33.4235 65.8222,34.8875 60.1032,34.8875 C54.3832,34.8875 49.7462,33.4235 49.7462,31.6175 C49.7462,29.8115 54.3832,28.3475 60.1032,28.3475 C65.8222,28.3475 70.4592,29.8115 70.4592,31.6175 Z" id="Stroke-20" stroke="#202951" stroke-linecap="round"></path>
                                <path d="M70.4592,49.4407 L70.4592,31.6177" id="Stroke-22" stroke="#202951" stroke-linecap="round"></path>
                                <path d="M49.7463,31.4075 L49.7463,49.2305" id="Stroke-25" stroke="#202951" stroke-linecap="round"></path>
                                <path d="M49.7463,36.7161 C49.7463,36.7161 49.9783,39.9861 60.1023,39.9861 C70.2263,39.9861 70.4593,36.7161 70.4593,36.7161" id="Stroke-27" stroke="#202951" stroke-linecap="round"></path>
                                <path d="M49.7463,42.8353 C49.7463,42.8353 49.9783,46.1053 60.1023,46.1053 C70.2263,46.1053 70.4593,42.8353 70.4593,42.8353" id="Stroke-29" stroke="#202951" stroke-linecap="round"></path>
                                <path d="M49.7463,49.2308 C49.7463,49.2308 49.9783,52.5008 60.1023,52.5008 C70.2263,52.5008 70.4593,49.2308 70.4593,49.2308" id="Stroke-31" stroke="#202951" stroke-linecap="round"></path>
                                <path d="M45.8772,21.6976 C45.8772,21.6976 45.2662,24.7576 35.4802,24.7576 C25.6932,24.7576 25.1232,21.6976 25.1232,21.6976 L25.1232,3.6656 C25.1232,3.6656 26.0412,0.6056 35.4802,0.6056 C44.9192,0.6056 45.8772,3.6656 45.8772,3.6656 L45.8772,21.6976 Z" id="Fill-33" fill="#F75821"></path>
                                <path d="M45.8371,3.8753 C45.8371,5.6813 41.1991,7.1443 35.4801,7.1443 C29.7601,7.1443 25.1231,5.6813 25.1231,3.8753 C25.1231,2.0693 29.7601,0.6053 35.4801,0.6053 C41.1991,0.6053 45.8371,2.0693 45.8371,3.8753 Z" id="Stroke-35" stroke="#202951" stroke-linecap="round"></path>
                                <path d="M45.8371,21.6976 L45.8371,3.8756" id="Stroke-37" stroke="#202951" stroke-linecap="round"></path>
                                <path d="M25.1232,3.6653 L25.1232,21.4873" id="Stroke-39" stroke="#202951" stroke-linecap="round"></path>
                                <path d="M25.1232,8.9739 C25.1232,8.9739 25.3552,12.2439 35.4792,12.2439 C45.6032,12.2439 45.8372,8.9739 45.8372,8.9739" id="Stroke-41" stroke="#202951" stroke-linecap="round"></path>
                                <path d="M25.1232,15.0931 C25.1232,15.0931 25.3552,18.3621 35.4792,18.3621 C45.6032,18.3621 45.8372,15.0931 45.8372,15.0931" id="Stroke-43" stroke="#202951" stroke-linecap="round"></path>
                                <path d="M25.1232,21.4876 C25.1232,21.4876 25.3552,24.7576 35.4792,24.7576 C45.6032,24.7576 45.8372,21.4876 45.8372,21.4876" id="Stroke-45" stroke="#202951" stroke-linecap="round"></path>
                            </g>
                        </g>
                    </g>
                </g>
            </g>
        </g>
    </g>
</svg>