<?xml version="1.0" encoding="UTF-8"?>
<svg width="73px" height="52px" viewBox="0 0 73 52" version="1.1" xmlns="http://www.w3.org/2000/svg" xmlns:xlink="http://www.w3.org/1999/xlink">
    <!-- Generator: Sketch 50.2 (55047) - http://www.bohemiancoding.com/sketch -->
    <title>DY</title>
    <desc>Created with Sketch.</desc>
    <defs></defs>
    <g id="v2" stroke="none" stroke-width="1" fill="none" fill-rule="evenodd">
        <g id="03-community-desktop" transform="translate(-683.000000, -3187.000000)">
            <g id="OTHER-DBs" transform="translate(120.000000, 3036.000000)">
                <g id="WHY" transform="translate(4.000000, 0.000000)">
                    <g id="tile-2" transform="translate(416.000000, 89.000000)">
                        <g id="DY" transform="translate(144.000000, 61.000000)">
                            <path d="M21.762937,39.0848548 L36.0001973,19.8648" id="Stroke-1" stroke="#F75821"></path>
                            <path d="M50.1750247,39.0848548 L35.9377644,19.8648" id="Stroke-2" stroke="#F75821"></path>
                            <path d="M50.1750247,39.0887014 L21.7626411,39.0887014" id="Stroke-3" stroke="#F75821"></path>
                            <g id="Group-50" transform="translate(0.000000, 0.824844)">
                                <path d="M27.7067836,43.0152658 C27.7067836,43.0152658 27.3517151,44.7955397 21.6548384,44.7955397 C15.9589479,44.7955397 15.6255781,43.0152658 15.6255781,43.0152658 L15.6255781,32.517074 C15.6255781,32.517074 16.1601534,30.7368 21.6548384,30.7368 C27.1495233,30.7368 27.7067836,32.517074 27.7067836,32.517074 L27.7067836,43.0152658 Z" id="Fill-4" fill="#F75821"></path>
                                <path d="M27.6837041,32.6398685 C27.6837041,33.6902795 24.9851836,34.5434301 21.6554301,34.5434301 C18.3256767,34.5434301 15.6251836,33.6902795 15.6251836,32.6398685 C15.6251836,31.5894575 18.3256767,30.7363068 21.6554301,30.7363068 C24.9851836,30.7363068 27.6837041,31.5894575 27.6837041,32.6398685 Z" id="Stroke-6" stroke="#202951" stroke-linecap="round"></path>
                                <path d="M27.6837041,43.0152658 L27.6837041,32.6393753" id="Stroke-8" stroke="#202951" stroke-linecap="round"></path>
                                <path d="M15.6255781,32.5174685 L15.6255781,42.8933589" id="Stroke-10" stroke="#202951" stroke-linecap="round"></path>
                                <path d="M15.6255781,35.6083397 C15.6255781,35.6083397 15.7616877,37.5109151 21.6548384,37.5109151 C27.5489753,37.5109151 27.6840986,35.6083397 27.6840986,35.6083397" id="Stroke-12" stroke="#202951" stroke-linecap="round"></path>
                                <path d="M15.6255781,39.1702685 C15.6255781,39.1702685 15.7616877,41.0728438 21.6548384,41.0728438 C27.5489753,41.0728438 27.6840986,39.1702685 27.6840986,39.1702685" id="Stroke-14" stroke="#202951" stroke-linecap="round"></path>
                                <path d="M15.6255781,42.8929644 C15.6255781,42.8929644 15.7616877,44.7955397 21.6548384,44.7955397 C27.5489753,44.7955397 27.6840986,42.8929644 27.6840986,42.8929644" id="Stroke-16" stroke="#202951" stroke-linecap="round"></path>
                                <path d="M56.3740274,43.0152658 C56.3740274,43.0152658 56.0189589,44.7955397 50.3210959,44.7955397 C44.6252055,44.7955397 44.2928219,43.0152658 44.2928219,43.0152658 L44.2928219,32.517074 C44.2928219,32.517074 44.8273973,30.7368 50.3210959,30.7368 C55.8167671,30.7368 56.3740274,32.517074 56.3740274,32.517074 L56.3740274,43.0152658 Z" id="Fill-18" fill="#F75821"></path>
                                <path d="M56.3509479,32.6398685 C56.3509479,33.6902795 53.6514411,34.5434301 50.3216877,34.5434301 C46.9919342,34.5434301 44.2924274,33.6902795 44.2924274,32.6398685 C44.2924274,31.5894575 46.9919342,30.7363068 50.3216877,30.7363068 C53.6514411,30.7363068 56.3509479,31.5894575 56.3509479,32.6398685 Z" id="Stroke-20" stroke="#202951" stroke-linecap="round"></path>
                                <path d="M56.3509479,43.0152658 L56.3509479,32.6393753" id="Stroke-22" stroke="#202951" stroke-linecap="round"></path>
                                <path d="M44.2928219,32.5174685 L44.2928219,42.8933589" id="Stroke-24" stroke="#202951" stroke-linecap="round"></path>
                                <path d="M44.2928219,35.6083397 C44.2928219,35.6083397 44.4279452,37.5109151 50.3210959,37.5109151 C56.2152329,37.5109151 56.3513425,35.6083397 56.3513425,35.6083397" id="Stroke-26" stroke="#202951" stroke-linecap="round"></path>
                                <path d="M44.2928219,39.1702685 C44.2928219,39.1702685 44.4279452,41.0728438 50.3210959,41.0728438 C56.2152329,41.0728438 56.3513425,39.1702685 56.3513425,39.1702685" id="Stroke-28" stroke="#202951" stroke-linecap="round"></path>
                                <path d="M44.2928219,42.8929644 C44.2928219,42.8929644 44.4279452,44.7955397 50.3210959,44.7955397 C56.2152329,44.7955397 56.3513425,42.8929644 56.3513425,42.8929644" id="Stroke-30" stroke="#202951" stroke-linecap="round"></path>
                                <path d="M42.0408986,26.8655671 C42.0408986,26.8655671 41.6848438,28.6468274 35.9879671,28.6468274 C30.2920767,28.6468274 29.9596932,26.8655671 29.9596932,26.8655671 L29.9596932,16.3673753 C29.9596932,16.3673753 30.4932822,14.5871014 35.9879671,14.5871014 C41.4836384,14.5871014 42.0408986,16.3673753 42.0408986,16.3673753 L42.0408986,26.8655671 Z" id="Fill-32" fill="#F75821"></path>
                                <path d="M42.0168329,16.4900712 C42.0168329,17.5404822 39.3183123,18.3936329 35.9885589,18.3936329 C32.6588055,18.3936329 29.9592986,17.5404822 29.9592986,16.4900712 C29.9592986,15.4396603 32.6588055,14.5865096 35.9885589,14.5865096 C39.3183123,14.5865096 42.0168329,15.4396603 42.0168329,16.4900712 Z" id="Stroke-34" stroke="#202951" stroke-linecap="round"></path>
                                <path d="M42.0168329,26.8655671 L42.0168329,16.4896767" id="Stroke-36" stroke="#202951" stroke-linecap="round"></path>
                                <path d="M29.9596932,16.3677699 L29.9596932,26.7436603" id="Stroke-38" stroke="#202951" stroke-linecap="round"></path>
                                <path d="M29.9596932,19.4586411 C29.9596932,19.4586411 30.0948164,21.3622027 35.9879671,21.3622027 C41.8821041,21.3622027 42.0172274,19.4586411 42.0172274,19.4586411" id="Stroke-40" stroke="#202951" stroke-linecap="round"></path>
                                <path d="M29.9596932,23.0204712 C29.9596932,23.0204712 30.0948164,24.9240329 35.9879671,24.9240329 C41.8821041,24.9240329 42.0172274,23.0204712 42.0172274,23.0204712" id="Stroke-42" stroke="#202951" stroke-linecap="round"></path>
                                <path d="M29.9596932,26.7432658 C29.9596932,26.7432658 30.0948164,28.6468274 35.9879671,28.6468274 C41.8821041,28.6468274 42.0172274,26.7432658 42.0172274,26.7432658" id="Stroke-44" stroke="#202951" stroke-linecap="round"></path>
                                <path d="M58.3659616,50.7322849 L13.2939616,50.7944219 C13.2939616,50.7944219 2.36081096,48.7586959 0.680153425,35.8716822 C-1.00050411,22.9836822 9.21955068,20.315737 9.21955068,20.315737 C9.21955068,20.315737 7.03883836,12.2645589 14.2151671,7.81633973 C21.3924822,3.36910685 26.4798247,8.50970959 26.4798247,8.50970959 C26.4798247,8.50970959 36.8409205,-3.61982466 48.1439342,2.26642192 C59.4469479,8.15365479 60.2428932,18.7366685 60.2428932,18.7366685 C60.2428932,18.7366685 74.0747836,22.2449425 71.0833315,36.9832438 C68.0918795,51.7205589 58.3659616,50.7322849 58.3659616,50.7322849 Z" id="Stroke-46" stroke="#202951"></path>
                                <path d="M52.5049644,19.2746959 C56.7174575,18.1601753 60.2434849,18.7361753 60.2434849,18.7361753" id="Stroke-48" stroke="#202951"></path>
                            </g>
                        </g>
                    </g>
                </g>
            </g>
        </g>
    </g>
</svg>