<?xml version="1.0" encoding="UTF-8"?>
<svg width="160px" height="37px" viewBox="0 0 160 37" version="1.1" xmlns="http://www.w3.org/2000/svg" xmlns:xlink="http://www.w3.org/1999/xlink">
    <!-- Generator: sketchtool 59.1 (101010) - https://sketch.com -->
    <title>0A54AEAB-C0EA-4982-83CA-39591C1B40A7</title>
    <desc>Created with sketchtool.</desc>
    <g id="yugaweb" stroke="none" stroke-width="1" fill="none" fill-rule="evenodd">
        <g id="01-HOME" transform="translate(-1195.000000, -994.000000)" fill="#322965">
            <g id="CLIENTS" transform="translate(142.000000, 981.000000)">
                <g id="admiral" transform="translate(1053.217460, 13.000000)">
                    <path d="M60.6303409,21.3963712 L57.0732726,11.996617 L53.4506977,21.3963712 L60.6306373,21.3963712 L60.6303409,21.3963712 Z M55.3988525,7.09814526 L58.9535495,7.09814526 L68.9003283,30.2244986 L64.2041563,30.2244986 L62.0517751,24.932839 L52.0397861,24.932839 L49.952615,30.2244986 L45.3544065,30.2244986 L55.3987043,7.09814526 L55.3988525,7.09814526 Z" id="Fill-1"></path>
                    <path d="M73.4865469,22.3374878 C73.4865469,22.9479442 73.5790268,23.5581042 73.7642831,24.1678196 C73.9492429,24.7778314 74.2269791,25.3226329 74.5976398,25.8017797 C74.9678559,26.2812229 75.4360355,26.6733733 76.0030679,26.9780828 C76.5693592,27.2835333 77.233614,27.4355917 77.9964252,27.4355917 C78.7153677,27.4355917 79.3576881,27.2884241 79.9244241,26.9945336 C80.4907154,26.7003467 80.9753458,26.3139762 81.3787598,25.8343848 C81.7817292,25.355238 82.0862905,24.8162164 82.2937775,24.2168754 C82.5005234,23.6175344 82.6042669,23.0133026 82.6042669,22.4028462 C82.6042669,21.7934272 82.5005234,21.1829708 82.2937775,20.5731072 C82.0862905,19.9630954 81.7817292,19.4182938 81.3787598,18.9389988 C80.9751975,18.4598521 80.4907154,18.0678498 79.9244241,17.7623993 C79.3576881,17.4575416 78.7153677,17.3048905 77.9964252,17.3048905 C77.233614,17.3048905 76.5693592,17.4519098 76.0030679,17.7460968 C75.4360355,18.0401355 74.9680041,18.4270987 74.5976398,18.9062455 C74.2269791,19.3856887 73.9492429,19.9247103 73.7642831,20.5239031 C73.5790268,21.1232442 73.4865469,21.7277724 73.4865469,22.3374878 Z M86.3949063,30.2460032 L82.6693289,30.2460032 L82.6693289,27.8931005 L82.6041187,27.8931005 C82.0593171,28.8081182 81.3018414,29.5057192 80.3327289,29.9848659 C79.3630235,30.4635681 78.3229208,30.7036602 77.2119761,30.7036602 C76.0134422,30.7036602 74.9407344,30.4797225 73.9929634,30.0336254 C73.0450442,29.5873801 72.238809,28.9878909 71.5745542,28.2363433 C70.9098547,27.4846475 70.3981029,26.6022349 70.0387057,25.5892537 C69.6791604,24.5761243 69.4993877,23.4925976 69.4993877,22.3374878 C69.4993877,21.1828226 69.6843476,20.1046312 70.0551565,19.1021725 C70.4252244,18.1004549 70.9480916,17.2287131 71.62361,16.4879845 C72.2986838,15.7477005 73.1050672,15.1643656 74.0420193,14.7394619 C74.9782303,14.3147063 76.0029197,14.1021803 77.1138644,14.1021803 C77.8328069,14.1021803 78.4751273,14.1838413 79.0418633,14.3474596 C79.6081546,14.5107815 80.1039003,14.7124885 80.5289523,14.9519878 C80.9537078,15.1919317 81.3182921,15.4533654 81.6235944,15.7361405 C81.9284521,16.0196567 82.1790668,16.2917611 82.3752902,16.5531947 L82.4734019,16.5531947 L82.4734019,5.54008088 L86.3949063,5.54008088 L86.3949063,30.2457068 L86.3949063,30.2460032 Z" id="Fill-2"></path>
                    <path d="M111.878742,14.6464484 C112.608355,15.0052527 113.2074,15.4783231 113.675876,16.0658077 C114.144204,16.6528477 114.487298,17.3274769 114.705011,18.0885096 C114.922873,18.8499869 115.031507,19.6329539 115.031507,20.4374107 L115.031507,30.2247209 L111.11104,30.2247209 L111.11104,21.5464287 C111.11104,21.0898091 111.078435,20.6116998 111.012928,20.1110633 C110.94757,19.6108714 110.806034,19.1595872 110.588173,18.7569142 C110.370311,18.3546858 110.070493,18.023003 109.69005,17.7618658 C109.308274,17.5008768 108.802154,17.3706046 108.170504,17.3706046 C107.560641,17.3706046 107.037774,17.5008768 106.602051,17.7618658 C106.166328,18.023003 105.806783,18.3603176 105.524156,18.7733649 C105.240492,19.1867087 105.033894,19.6491083 104.903177,20.1601191 C104.772608,20.67113 104.70725,21.1768055 104.70725,21.6769973 L104.70725,30.2247209 L100.786338,30.2247209 L100.786338,20.7633135 C100.786338,19.7845677 100.552174,18.9749237 100.083995,18.3327514 C99.6153706,17.6916166 98.8802738,17.3704564 97.8785562,17.3704564 C97.2904787,17.3704564 96.7784305,17.495986 96.3430042,17.7455632 C95.906985,17.9958815 95.5533679,18.3164489 95.2812635,18.7080065 C95.0085663,19.0994159 94.8016721,19.5509966 94.6601363,20.0620074 C94.5183041,20.5733147 94.448055,21.0896609 94.448055,21.6116389 L94.448055,30.2247209 L90.5272916,30.2247209 L90.5272916,14.5646392 L94.2518316,14.5646392 L94.2518316,17.0765658 C94.491479,16.6850082 94.7257912,16.3155331 95.0196817,15.9675478 C95.3137204,15.6197106 95.6620022,15.3043304 96.065268,15.0212588 C96.4680892,14.7387801 96.9310816,14.5155834 97.4538007,14.3525579 C97.9765197,14.1893842 98.55363,14.1078714 99.1855761,14.1078714 C100.405007,14.1078714 101.418136,14.3799758 102.224075,14.9234435 C103.029717,15.4672077 103.650252,16.1851127 104.086271,17.0765658 C104.609286,16.1200507 105.305998,15.3858432 106.177444,14.8746841 C107.048444,14.3638215 108.072689,14.1078714 109.248844,14.1078714 C110.272348,14.1078714 111.14898,14.2873477 111.87889,14.646152 L111.878742,14.6464484 Z" id="Fill-4"></path>
                    <path d="M119.060786,30.2249284 L122.982439,30.2249284 L122.982439,14.5384662 L119.060786,14.5384662 L119.060786,30.2249284 Z M118.505314,9.21153379 C118.505314,8.57988406 118.739033,8.0300435 119.207657,7.56112287 C119.676133,7.09309147 120.269842,6.85848295 120.988933,6.85848295 C121.707727,6.85848295 122.312404,7.0822725 122.802666,7.52851777 C123.292632,7.97535585 123.537911,8.53631179 123.537911,9.21153379 C123.537911,9.88705219 123.292632,10.4481563 122.802666,10.8944016 C122.312404,11.3412397 121.707727,11.5645846 120.988933,11.5645846 C120.269842,11.5645846 119.676133,11.3307171 119.207657,10.8617965 C118.739033,10.3937651 118.505314,9.84362813 118.505314,9.21153379 L118.505314,9.21153379 Z" id="Fill-6"></path>
                    <path d="M127.132712,14.505046 L130.890746,14.505046 L130.890746,17.1149361 L130.956253,17.1149361 C131.391679,16.2014005 132.001839,15.4621539 132.78614,14.8964554 C133.570589,14.3312015 134.485459,14.0482782 135.531193,14.0482782 C135.6834,14.0482782 135.846722,14.05391 136.021455,14.0645807 C136.195448,14.0758443 136.348248,14.1028176 136.478964,14.1459453 L136.478964,17.7348776 C136.217531,17.6698156 135.993889,17.6263916 135.80893,17.6044572 C135.623821,17.5829675 135.444049,17.5718521 135.26976,17.5718521 C134.376232,17.5718521 133.657141,17.7348776 133.112932,18.0612251 C132.568279,18.3874243 132.143523,18.7788337 131.838517,19.2356015 C131.533215,19.6923693 131.326469,20.1604007 131.217538,20.6382137 C131.108311,21.1169158 131.054217,21.4979509 131.054217,21.7801332 L131.054217,30.1651277 L127.132712,30.1651277 L127.132712,14.505046 Z" id="Fill-8"></path>
                    <path d="M147.677334,23.0347182 L146.795515,23.0347182 C146.163865,23.0347182 145.500203,23.0624325 144.803491,23.1163792 C144.106631,23.1709186 143.464755,23.2909647 142.876974,23.4759245 C142.289341,23.6611808 141.799376,23.9227626 141.407522,24.2602254 C141.015668,24.598281 140.819741,25.0608288 140.819741,25.6490545 C140.819741,26.0198634 140.901253,26.3303529 141.064724,26.5805229 C141.227897,26.8311376 141.440275,27.0329928 141.701412,27.1849029 C141.962549,27.3377023 142.256736,27.446633 142.583232,27.5118432 C142.909579,27.5772016 143.236223,27.6098067 143.562719,27.6098067 C144.912274,27.6098067 145.935185,27.2502613 146.632341,26.5314671 C147.328904,25.8126728 147.677334,24.8321485 147.677334,23.5903388 L147.677334,23.0347182 Z M147.742693,28.1981805 L147.644581,28.1981805 C147.252727,28.8953369 146.621226,29.4675564 145.750818,29.9139499 C144.879817,30.3601951 143.889363,30.5838365 142.778863,30.5838365 C142.147361,30.5838365 141.489034,30.5020273 140.803438,30.3388536 C140.117397,30.1752353 139.485896,29.9032791 138.90923,29.5217994 C138.332268,29.1407643 137.853121,28.6393868 137.472531,28.0182597 C137.091347,27.3975771 136.901052,26.6295788 136.901052,25.7145611 C136.901052,24.5381098 137.232587,23.6014541 137.897138,22.9041496 C138.560948,22.2071415 139.415498,21.6734552 140.460344,21.3027945 C141.505189,20.9325784 142.664745,20.6872992 143.93827,20.5675495 C145.211796,20.4479481 146.457755,20.3877768 147.677186,20.3877768 L147.677186,19.9956264 C147.677186,19.0151021 147.323124,18.2911207 146.61589,17.8223482 C145.908359,17.3541686 145.064777,17.1197083 144.085142,17.1197083 C143.257417,17.1197083 142.463038,17.294442 141.701264,17.6427238 C140.939046,17.9914501 140.307692,18.4162057 139.807352,18.9172868 L137.782724,16.5316309 C138.675066,15.7039059 139.703609,15.0829269 140.8685,14.6688422 C142.032947,14.2550538 143.214289,14.0478632 144.411637,14.0478632 C145.804616,14.0478632 146.953205,14.2439384 147.856811,14.6360889 C148.759972,15.0282393 149.473283,15.5404358 149.995853,16.1719373 C150.518276,16.8041799 150.882564,17.5118587 151.089606,18.2961596 C151.296352,19.0804605 151.399948,19.8647614 151.399948,20.6490623 L151.399948,30.1913896 L147.742545,30.1913896 L147.742545,28.1980323 L147.742693,28.1981805 Z" id="Fill-9"></path>
                    <polygon id="Fill-10" points="155.41162 30.2244838 159.305855 30.2244838 159.305855 5.54049585 155.41162 5.54049585"></polygon>
                    <path d="M6.91008793,32.2537512 L6.36736121,29.6841728 L3.79763465,29.1414461 C3.20763053,28.385897 2.67705662,27.582033 2.21198932,26.7366717 L13.9406369,22.1111935 L9.31515872,33.8396929 C8.46964918,33.3747738 7.66578524,32.8441999 6.91038434,32.2540476 L6.91008793,32.2537512 Z M27.2744928,8.77689297 L19.7015136,7.17731637 L28.6190086,3.66041164 C30.0557079,4.72363433 31.3278997,5.99582608 32.3911224,7.43252539 L28.8740694,16.3500204 L27.2744928,8.77704118 L27.2744928,8.77689297 Z M20.7883009,33.9080154 L27.2744928,18.97399 L31.8362428,29.4780197 C31.2628377,30.1771027 30.6374126,30.8318724 29.9661921,31.4369934 L27.2744928,29.6838764 L20.7883009,33.907719 L20.7883009,33.9080154 Z M2.1432222,15.2630849 L6.367213,8.77748579 L4.61439242,6.08563831 C5.21921704,5.41441785 5.87413495,4.78899274 6.57321796,4.21543938 L17.0770994,8.77748579 L2.1432222,15.2630849 L2.1432222,15.2630849 Z" id="Fill-11"></path>
                    <path d="M14.1219064,35.6400428 L16.8199785,29.4277337 L19.6612166,35.9696508 C19.0980376,36.0228564 18.527893,36.0511635 17.9510791,36.0511635 C16.6367971,36.0511635 15.3558613,35.9085903 14.1219064,35.6404874 L14.1219064,35.6400428 Z M0.0812608034,16.3893985 L6.62302966,19.2304884 L0.410720526,21.9287087 C0.142617675,20.6946057 4.4461501e-05,19.413818 4.4461501e-05,18.0993878 C4.4461501e-05,17.522574 0.0283516172,16.9524293 0.0817054184,16.3893985 L0.0812608034,16.3893985 Z M35.73894,20.5255038 L31.2416592,23.454331 L35.4017736,13.8755452 C35.7284175,15.2302872 35.9027066,16.6443111 35.9027066,18.0993878 C35.9027066,18.922222 35.8462404,19.731866 35.73894,20.5252073 L35.73894,20.5255038 Z M22.1753663,0.64928612 L12.5964323,4.80954877 L15.5254078,0.311971532 C16.3187492,0.204819315 17.1285413,0.148205003 17.9513755,0.148205003 C19.406304,0.148205003 20.8204762,0.322642293 22.1752181,0.64928612 L22.1753663,0.64928612 Z" id="Fill-12"></path>
                    <polygon id="Fill-13" points="18.4199997 26.803527 24.3939952 11.6575684 9.24788847 17.6314157 16.8208677 19.2305477"></polygon>
                </g>
            </g>
        </g>
    </g>
</svg>