<?xml version="1.0" encoding="UTF-8"?>
<svg width="63px" height="72px" viewBox="0 0 63 72" version="1.1" xmlns="http://www.w3.org/2000/svg" xmlns:xlink="http://www.w3.org/1999/xlink">
    <!-- Generator: Sketch 50.2 (55047) - http://www.bohemiancoding.com/sketch -->
    <title>backups</title>
    <desc>Created with Sketch.</desc>
    <defs></defs>
    <g id="v2" stroke="none" stroke-width="1" fill="none" fill-rule="evenodd">
        <g id="02-enterprise-desktop" transform="translate(-839.000000, -2865.000000)">
            <g id="B" transform="translate(0.000000, 2515.000000)">
                <g id="tile-3" transform="translate(725.333333, 299.000000)">
                    <g id="backups" transform="translate(114.000000, 51.000000)">
                        <path d="M61.4313,10.1111 C61.4313,15.4191 47.7913,19.7221 30.9653,19.7221 C14.1403,19.7221 0.4993,15.4191 0.4993,10.1111 C0.4993,4.8031 14.1403,0.5001 30.9653,0.5001 C47.7913,0.5001 61.4313,4.8031 61.4313,10.1111 Z" id="Stroke-1" stroke="#202951" stroke-linecap="round"></path>
                        <path d="M61.4313,62.5066 L61.4313,10.1106" id="Stroke-3" stroke="#202951" stroke-linecap="round"></path>
                        <path d="M0.4996,9.4939 L0.4996,61.8889" id="Stroke-6" stroke="#202951" stroke-linecap="round"></path>
                        <path d="M0.4996,25.1003 C0.4996,25.1003 1.1846,34.7113 30.9656,34.7113 C60.7466,34.7113 61.4316,25.1003 61.4316,25.1003" id="Stroke-8" stroke="#202951" stroke-linecap="round"></path>
                        <path d="M0.4996,43.0886 C0.4996,43.0886 1.1846,52.6996 30.9656,52.6996 C60.7466,52.6996 61.4316,43.0886 61.4316,43.0886" id="Stroke-10" stroke="#202951" stroke-linecap="round"></path>
                        <path d="M0.4996,61.8884 C0.4996,61.8884 1.1846,71.4994 30.9656,71.4994 C60.7466,71.4994 61.4316,61.8884 61.4316,61.8884" id="Stroke-12" stroke="#202951" stroke-linecap="round"></path>
                        <path d="M13.4909,44.9998 C13.4909,35.3498 21.3149,27.5248 30.9659,27.5248 C40.6169,27.5248 48.4399,35.3498 48.4399,44.9998 C48.4399,54.6508 40.6169,62.4748 30.9659,62.4748 C21.3149,62.4748 13.4909,54.6508 13.4909,44.9998" id="Fill-14" fill="#F75821"></path>
                        <path d="M13.4909,44.9998 C13.4909,35.3498 21.3149,27.5248 30.9659,27.5248 C40.6169,27.5248 48.4399,35.3498 48.4399,44.9998 C48.4399,54.6508 40.6169,62.4748 30.9659,62.4748 C21.3149,62.4748 13.4909,54.6508 13.4909,44.9998 Z" id="Stroke-16" stroke="#202951" stroke-linecap="round"></path>
                        <path d="M20.53286,45.5779 C20.5289,41.6139 20.8199,39.7559 23.8339,39.7559 L39.7299,39.7559" id="Stroke-18" stroke="#202951" stroke-linecap="round" stroke-linejoin="round"></path>
                        <polygon id="Fill-20" fill="#FFFFFF" points="33.9342 37.1765 41.0682 39.7555 33.9342 42.3345"></polygon>
                        <path d="M33.4342,36.4646 L33.4342,43.0476 L42.5382,39.7556 L33.4342,36.4646 Z M34.4342,37.8896 L39.5972,39.7556 L34.4342,41.6226 L34.4342,37.8896 Z" id="Fill-22" fill="#202951"></path>
                        <path d="M42.53874,44.6023 C42.5427,48.5663 42.2517,50.4243 39.2377,50.4243 L23.3417,50.4243" id="Stroke-24" stroke="#202951" stroke-linecap="round" stroke-linejoin="round"></path>
                        <polygon id="Fill-26" fill="#FFFFFF" points="22.0036 50.4246 29.1376 47.8456 29.1376 53.0036"></polygon>
                        <path d="M29.6373,47.1335 L20.5333,50.4245 L29.6373,53.7155 L29.6373,47.1335 Z M28.6373,48.5585 L28.6373,52.2905 L23.4743,50.4245 L28.6373,48.5585 Z" id="Fill-28" fill="#202951"></path>
                    </g>
                </g>
            </g>
        </g>
    </g>
</svg>