<?xml version="1.0" encoding="UTF-8"?>
<svg width="71px" height="67px" viewBox="0 0 71 67" version="1.1" xmlns="http://www.w3.org/2000/svg" xmlns:xlink="http://www.w3.org/1999/xlink">
    <!-- Generator: Sketch 50.2 (55047) - http://www.bohemiancoding.com/sketch -->
    <title>c-ceo</title>
    <desc>Created with Sketch.</desc>
    <defs>
        <polygon id="path-1" points="0.5084 0.697 28.4874 0.697 28.4874 18.4937 0.5084 18.4937"></polygon>
        <polygon id="path-3" points="0 68 71 68 71 0.697 0 0.697"></polygon>
    </defs>
    <g id="c-ceo" stroke="none" stroke-width="1" fill="none" fill-rule="evenodd">
        <polygon id="Fill-1" fill="#F75821" points="26.6229 47.9494 24.9759 58.0994 26.3879 66.8034 31.0309 66.8034 32.4419 58.0994 30.7949 47.9494"></polygon>
        <g id="Group-33" transform="translate(0.000000, -0.697000)">
            <polygon id="Stroke-2" stroke="#202951" points="31.031 67.5005 26.388 67.5005 24.976 58.7965 26.623 48.6465 30.796 48.6465 32.442 58.7965"></polygon>
            <g id="Group-6" transform="translate(14.000000, 0.000000)">
                <mask id="mask-2" fill="white">
                    <use xlink:href="#path-1"></use>
                </mask>
                <g id="Clip-5"></g>
                <path d="M17.9734,0.6967 L11.0224,0.6967 C5.2164,0.6967 0.5084,6.1817 0.5084,12.9507 L1.7804,18.4937 L18.1504,17.8477 L20.5274,15.2647 L22.7324,9.2197 L27.6114,18.4937 L28.4874,18.4937 L28.4874,12.9507 C28.4874,6.1817 23.7804,0.6967 17.9734,0.6967" id="Fill-4" fill="#F75821" mask="url(#mask-2)"></path>
            </g>
            <path d="M33.5466,38.0005 C33.5466,38.0005 31.6256,39.2715 28.6906,39.2715 C25.7556,39.2715 23.8346,38.0005 23.8346,38.0005 C19.9396,38.0005 15.9766,26.8195 15.9766,26.8195 L14.7046,11.1115 C14.7046,6.3415 20.4046,1.2025 24.3006,1.2025 L33.0806,1.2025 C36.9766,1.2025 42.6766,6.3415 42.6766,11.1115 L41.4046,26.8195 C41.4046,26.8195 37.4426,38.0005 33.5466,38.0005 Z" id="Stroke-7" stroke="#202951"></path>
            <path d="M15.78,18.4936 L31.749,18.4936 C31.749,18.4936 32.754,18.4016 34.527,15.2646 C36.301,12.1286 36.732,9.2206 36.732,9.2206 L40.795,18.4936 L42.079,18.4936" id="Stroke-9" stroke="#202951"></path>
            <path d="M53.0369,46.4057 C49.7499,42.0717 44.5449,39.2717 38.6849,39.2717 L18.4999,39.2717 C8.5589,39.2717 0.4999,47.3307 0.4999,57.2717 L0.4999,67.5007 L56.6849,67.5007" id="Stroke-11" stroke="#202951"></path>
            <path d="M28.6902,39.2719 L28.6902,46.1879" id="Stroke-13" stroke="#202951" stroke-linecap="round" stroke-linejoin="round"></path>
            <path d="M28.6902,54.7993 L28.6902,61.7153" id="Stroke-15" stroke="#202951" stroke-linecap="round" stroke-linejoin="round"></path>
            <polyline id="Stroke-17" stroke="#202951" stroke-linecap="round" stroke-linejoin="round" points="28.6902 46.188 34.9412 48.936 31.9352 39.272"></polyline>
            <polyline id="Stroke-19" stroke="#202951" stroke-linecap="round" stroke-linejoin="round" points="25.6843 39.2719 22.6783 48.9359 28.6903 46.1879"></polyline>
            <polygon id="Fill-21" fill="#F75821" points="28.6902 50.7133 25.5852 47.6083 28.6902 46.1883 31.8342 47.5693"></polygon>
            <polygon id="Stroke-23" stroke="#202951" points="28.6902 50.7133 25.5852 47.6083 28.6902 46.1883 31.8342 47.5693"></polygon>
            <path d="M67.4998,67.5005 L41.6858,67.5005 C40.0288,67.5005 38.6858,66.1565 38.6858,64.5005 L38.6858,49.3755 C38.6858,47.7195 40.0288,46.3755 41.6858,46.3755 L67.4998,46.3755 C69.1568,46.3755 70.4998,47.7195 70.4998,49.3755 L70.4998,64.5005 C70.4998,66.1565 69.1568,67.5005 67.4998,67.5005 Z" id="Stroke-25" stroke="#202951"></path>
            <path d="M67.4998,56.938 L41.6858,56.938 C40.0288,56.938 38.6858,55.594 38.6858,53.938 L38.6858,49.376 C38.6858,47.719 40.0288,46.375 41.6858,46.375 L67.4998,46.375 C69.1568,46.375 70.4998,47.719 70.4998,49.376 L70.4998,53.938 C70.4998,55.594 69.1568,56.938 67.4998,56.938 Z" id="Stroke-27" stroke="#202951"></path>
            <mask id="mask-4" fill="white">
                <use xlink:href="#path-3"></use>
            </mask>
            <g id="Clip-30"></g>
            <polygon id="Fill-29" fill="#F75821" mask="url(#mask-4)" points="53.077 58.453 56.109 58.453 56.109 55.422 53.077 55.422"></polygon>
            <polygon id="Stroke-31" stroke="#202951" mask="url(#mask-4)" points="53.077 58.453 56.109 58.453 56.109 55.422 53.077 55.422"></polygon>
            <path d="M57.0867,42.9272 L52.0987,42.9272 C50.9937,42.9272 50.0987,43.8232 50.0987,44.9272 L50.0987,46.3752 L59.0867,46.3752 L59.0867,44.9272 C59.0867,43.8232 58.1907,42.9272 57.0867,42.9272 Z" id="Stroke-32" stroke="#202951" mask="url(#mask-4)"></path>
        </g>
    </g>
</svg>