<?xml version="1.0" encoding="UTF-8"?>
<svg width="72px" height="67px" viewBox="0 0 72 67" version="1.1" xmlns="http://www.w3.org/2000/svg" xmlns:xlink="http://www.w3.org/1999/xlink">
    <!-- Generator: Sketch 50.2 (55047) - http://www.bohemiancoding.com/sketch -->
    <title>c-dba</title>
    <desc>Created with Sketch.</desc>
    <defs>
        <polygon id="path-1" points="0.5091 0.697 28.4871 0.697 28.4871 18.4938 0.5091 18.4938"></polygon>
        <polygon id="path-3" points="0.5004 0.6485 1 0.6485 1 26.1265 0.5004 26.1265"></polygon>
    </defs>
    <g id="c-dba" stroke="none" stroke-width="1" fill="none" fill-rule="evenodd">
        <g id="Group-3" transform="translate(14.000000, -0.697000)">
            <mask id="mask-2" fill="white">
                <use xlink:href="#path-1"></use>
            </mask>
            <g id="Clip-2"></g>
            <path d="M17.9731,0.6968 L11.0231,0.6968 C5.2161,0.6968 0.5091,6.1818 0.5091,12.9508 L1.7811,18.4938 L18.1511,17.8478 L20.5281,15.2648 L22.7331,9.2198 L27.6111,18.4938 L28.4871,18.4938 L28.4871,12.9508 C28.4871,6.1818 23.7801,0.6968 17.9731,0.6968" id="Fill-1" fill="#F75821" mask="url(#mask-2)"></path>
        </g>
        <path d="M33.5473,37.3035 C33.5473,37.3035 31.6263,38.5745 28.6913,38.5745 C25.7553,38.5745 23.8343,37.3035 23.8343,37.3035 C19.9393,37.3035 15.9763,26.1225 15.9763,26.1225 L14.7043,10.4145 C14.7043,5.6445 20.4053,0.5055 24.3013,0.5055 L33.0803,0.5055 C36.9763,0.5055 42.6773,5.6445 42.6773,10.4145 L41.4053,26.1225 C41.4053,26.1225 37.4433,37.3035 33.5473,37.3035 Z" id="Stroke-4" stroke="#202951"></path>
        <path d="M15.7807,17.7966 L31.7487,17.7966 C31.7487,17.7966 32.7537,17.7046 34.5277,14.5676 C36.3017,11.4316 36.7327,8.5236 36.7327,8.5236 L40.7957,17.7966 L42.0797,17.7966" id="Stroke-6" stroke="#202951"></path>
        <path d="M41.8715,39.5467 C39.8645,38.9147 37.7275,38.5747 35.5125,38.5747 L21.6735,38.5747 C9.9795,38.5747 0.5005,48.0547 0.5005,59.7477 L0.5005,66.8037 L56.6855,66.8037" id="Stroke-8" stroke="#202951"></path>
        <polyline id="Stroke-10" stroke="#202951" points="23.8344 38.575 28.6904 48.763 33.5474 38.575"></polyline>
        <path d="M71.5004,36.9519 C71.5004,39.5329 64.8674,41.6249 56.6864,41.6249 C48.5044,41.6249 41.8714,39.5329 41.8714,36.9519 C41.8714,34.3709 48.5044,32.2779 56.6864,32.2779 C64.8674,32.2779 71.5004,34.3709 71.5004,36.9519 Z" id="Stroke-12" stroke="#202951" stroke-linecap="round"></path>
        <g id="Group-16" transform="translate(71.000000, 36.303000)">
            <mask id="mask-4" fill="white">
                <use xlink:href="#path-3"></use>
            </mask>
            <g id="Clip-15"></g>
            <path d="M0.5004,26.1265 L0.5004,0.6485" id="Stroke-14" stroke="#202951" stroke-linecap="round" mask="url(#mask-4)"></path>
        </g>
        <path d="M41.8715,36.6511 L41.8715,62.1301" id="Stroke-17" stroke="#202951" stroke-linecap="round"></path>
        <path d="M41.8715,44.241 C41.8715,44.241 42.2035,48.914 56.6855,48.914 C71.1675,48.914 71.5005,44.241 71.5005,44.241" id="Stroke-19" stroke="#202951" stroke-linecap="round"></path>
        <path d="M41.8715,52.9871 C41.8715,52.9871 42.2035,57.6611 56.6855,57.6611 C71.1675,57.6611 71.5005,52.9871 71.5005,52.9871" id="Stroke-21" stroke="#202951" stroke-linecap="round"></path>
        <path d="M41.8715,62.1297 C41.8715,62.1297 42.2035,66.8037 56.6855,66.8037 C71.1675,66.8037 71.5005,62.1297 71.5005,62.1297" id="Stroke-23" stroke="#202951" stroke-linecap="round"></path>
        <polygon id="Fill-25" fill="#F75821" points="61.5287 52.8269 58.0477 52.8269 58.0477 45.2319 51.8417 55.9789 55.3247 55.9789 55.3247 63.5739"></polygon>
        <polygon id="Stroke-27" stroke="#202951" points="61.5287 52.8269 58.0477 52.8269 58.0477 45.2319 51.8417 55.9789 55.3247 55.9789 55.3247 63.5739"></polygon>
    </g>
</svg>