<?xml version="1.0" encoding="UTF-8"?>
<svg width="60px" height="22px" viewBox="0 0 60 22" version="1.1" xmlns="http://www.w3.org/2000/svg" xmlns:xlink="http://www.w3.org/1999/xlink">
    <!-- Generator: sketchtool 61.2 (101010) - https://sketch.com -->
    <title>1B15F397-FD7E-4FD6-A779-B92D7C858228</title>
    <desc>Created with sketchtool.</desc>
    <defs>
        <polygon id="path-1" points="0 0.0382015498 5.51850381 0.0382015498 5.51850381 6.03398483 0 6.03398483"></polygon>
        <polygon id="path-3" points="0 21.8490194 59.8924143 21.8490194 59.8924143 0.131055324 0 0.131055324"></polygon>
    </defs>
    <g id="yugaweb" stroke="none" stroke-width="1" fill="none" fill-rule="evenodd">
        <g id="01-HOME" transform="translate(-1102.000000, -1669.000000)">
            <g id="OSS---ENTERPRISE" transform="translate(140.000000, 1144.000000)">
                <g id="Group-23" transform="translate(136.000000, 525.000000)">
                    <g id="Group-20" transform="translate(661.000000, 0.000000)">
                        <g id="Group-18" transform="translate(15.000000, 0.000000)">
                            <g id="ciphertrace2" transform="translate(150.000000, 0.000000)">
                                <polygon id="Fill-1" fill="#546371" points="47.6262126 13.531187 48.8821157 13.531187 46.078056 7.66423332 45.4873897 7.66423332 42.6902759 13.531187 43.9473585 13.531187 44.2106487 12.9367201 44.9062904 11.3505575 44.8964612 11.3505575 45.1997232 10.6854517 45.1997232 10.6841412 45.7780704 9.41238029 46.6687224 11.3505575 46.6590243 11.3505575 47.2486422 12.6882392"></polygon>
                                <g id="Group-4" transform="translate(0.000000, 7.563989)">
                                    <mask id="mask-2" fill="white">
                                        <use xlink:href="#path-1"></use>
                                    </mask>
                                    <g id="Clip-3"></g>
                                    <path d="M3.09542192,4.90979114 C2.84798946,4.91083959 2.60278495,4.864446 2.37304497,4.77336255 C1.92339415,4.59643786 1.56456467,4.24481643 1.37885928,3.79857305 C1.28043673,3.55900391 1.23024254,3.30252865 1.23142204,3.04356332 C1.22945621,2.78053529 1.27951934,2.51960414 1.37885928,2.27610335 C1.47086012,2.05370246 1.60728871,1.85266359 1.77988857,1.68530594 C1.95026049,1.52017623 2.15182358,1.39069357 2.37304497,1.30511445 C2.60330917,1.21534155 2.84825157,1.1697343 3.09542192,1.16999641 C3.69159259,1.16829269 4.25054354,1.45766284 4.59390849,1.94466443 L5.51719325,1.16265731 C5.32480404,0.933965769 5.1010926,0.733844289 4.85313593,0.56674875 C4.60019915,0.397818437 4.32354136,0.267287334 4.03207432,0.179349211 C3.72868124,0.0855135991 3.41310002,0.0379405164 3.09542192,0.0382015498 C2.76450722,0.038988959 2.43582047,0.0910179227 2.12076347,0.192978965 C1.81658406,0.289959905 1.52891762,0.433596541 1.26824858,0.618122437 C1.01321492,0.798323508 0.787275544,1.01653062 0.598162711,1.26488046 C0.408918823,1.51467191 0.26043314,1.79329553 0.158341043,2.08961162 C-0.0527890846,2.70373687 -0.0527890846,3.37080847 0.158341043,3.98506477 C0.26043314,4.28059453 0.408918823,4.55816971 0.598162711,4.80717482 C0.787013434,5.05722838 1.01321492,5.27622183 1.26916597,5.45694712 C1.52996607,5.64147302 1.8176325,5.78419227 2.12207402,5.88078004 C2.43726208,5.98195475 2.76568672,6.0337216 3.09647036,6.03398483 C3.41401741,6.03424583 3.72959863,5.98824541 4.03338487,5.89637562 C4.61278046,5.72325154 5.12926949,5.38447353 5.51850381,4.92211034 L4.59390849,4.13984111 C4.48290463,4.2971075 4.34804871,4.43668142 4.19432081,4.55279644 C4.03915131,4.6676009 3.86681356,4.75724275 3.68359821,4.81818347 C3.49409221,4.88109003 3.29515023,4.91188803 3.09542192,4.90979114" id="Fill-2" fill="#546371" mask="url(#mask-2)"></path>
                                </g>
                                <mask id="mask-4" fill="white">
                                    <use xlink:href="#path-3"></use>
                                </mask>
                                <g id="Clip-6"></g>
                                <polygon id="Fill-5" fill="#546371" mask="url(#mask-4)" points="6.43219532 13.5312001 7.63082731 13.5312001 7.63082731 7.66424642 6.43219532 7.66424642"></polygon>
                                <path d="M10.0524938,11.0349894 L10.0524938,8.69604499 L11.0856029,8.69604499 C11.284676,8.691327 11.4832248,8.72435294 11.6702407,8.79368121 C11.8164985,8.84964183 11.9474227,8.93954578 12.0526602,9.05552974 C12.1476753,9.16430566 12.2191004,9.29156038 12.2622176,9.42929953 C12.305728,9.57228089 12.32709,9.72102868 12.3256484,9.87043175 C12.3307596,10.0833967 12.2784685,10.2936094 12.1745416,10.4795769 C12.0661589,10.6603022 11.9045677,10.8027593 11.7117853,10.8875521 C11.4639597,10.9927895 11.1963447,11.043508 10.9272881,11.0362999 L10.0524938,11.0349894 Z M8.86224935,7.66424642 L8.86224935,13.5312001 L10.0524938,13.5312001 L10.0524938,12.0256366 L11.0428789,12.0256366 C11.3880786,12.0304856 11.7328852,11.9895963 12.0672073,11.9036241 C12.3584122,11.8281362 12.6304831,11.692756 12.8665137,11.5066575 C13.0961227,11.3223937 13.2750132,11.0830867 13.3866723,10.8110158 C13.5169413,10.4837707 13.580241,10.1337219 13.573164,9.7817073 C13.5752609,9.56494179 13.5498362,9.34948684 13.4974141,9.13953621 C13.4478752,8.93535201 13.3655724,8.74034169 13.2539133,8.56197539 C13.1404194,8.38098799 12.9935063,8.22267316 12.8214307,8.09554949 C12.6245856,7.95283025 12.4038884,7.84641332 12.1695615,7.78127883 C11.8771771,7.70199036 11.5750946,7.66398431 11.2720947,7.66804703 L8.86224935,7.66424642 Z" id="Fill-7" fill="#546371" mask="url(#mask-4)"></path>
                                <polygon id="Fill-8" fill="#546371" mask="url(#mask-4)" points="18.2753242 7.66428574 18.2753242 10.5185396 15.5696871 10.5185396 15.5696871 7.66428574 14.413517 7.66428574 14.413517 13.5311084 15.5696871 13.5311084 15.5696871 11.5419507 18.2753242 11.5419507 18.2753242 13.5311084 19.4398818 13.5311084 19.4398818 7.66428574"></polygon>
                                <polygon id="Fill-9" fill="#546371" mask="url(#mask-4)" points="21.8116425 12.4992574 21.8116425 11.1837241 24.4661681 11.1837241 24.4661681 10.1861309 21.8116425 10.1861309 21.8116425 8.69603188 24.9813465 8.69603188 24.9813465 7.66436437 20.654424 7.66436437 20.654424 13.531187 25.1566986 13.531187 25.1566986 12.4992574"></polygon>
                                <path d="M29.750594,13.531187 L31.1733306,13.531187 L29.8091757,11.7842195 C30.1784896,11.635996 30.4901392,11.3729679 30.6983861,11.0339278 C30.9133168,10.6508531 31.0190784,10.2165358 31.003876,9.77776253 C31.0054487,9.5616523 30.9805482,9.34593524 30.9283882,9.13585355 C30.878325,8.93166936 30.7962844,8.73692115 30.6848874,8.55855485 C30.5713935,8.37730534 30.4248736,8.2189905 30.2526669,8.09186684 C30.0560839,7.94914759 29.8356489,7.84299278 29.6018462,7.77772723 C29.3094617,7.69870087 29.0073792,7.66069482 28.7041172,7.66423332 L26.1143329,7.66423332 L26.1143329,13.531187 L27.3044463,13.531187 L27.3044463,8.69603188 L28.5055684,8.69603188 C28.7049035,8.691576 28.9031902,8.724733 29.0902062,8.79379916 C29.2392161,8.8491045 29.3727615,8.93874635 29.4800958,9.05577875 C29.575373,9.16429256 29.6466671,9.29154728 29.6896532,9.42954853 C29.7334257,9.57226778 29.7547877,9.72101558 29.752953,9.87041865 C29.7581952,10.0853494 29.7060351,10.2977901 29.6018462,10.4858544 C29.4935945,10.6665797 29.3318722,10.8091679 29.1392209,10.8948781 C28.8920505,11.0027366 28.6240424,11.0547656 28.3545926,11.0472955 L27.8965543,11.0472955 L29.750594,13.531187 Z" id="Fill-10" fill="#546371" mask="url(#mask-4)"></path>
                                <polygon id="Fill-11" fill="#546371" mask="url(#mask-4)" points="36.5833861 7.66428574 31.6474494 7.66428574 31.6474494 8.69595325 33.5123667 8.69595325 33.5123667 13.5311084 34.7099502 13.5311084 34.7099502 8.69595325 36.5833861 8.69595325"></polygon>
                                <path d="M41.093275,13.531187 L42.5148321,13.531187 L41.1505462,11.7842195 C41.5180253,11.6354718 41.8281022,11.3724437 42.0349075,11.0339278 C42.2497072,10.6508531 42.3554688,10.2165358 42.3406596,9.77776253 C42.3421012,9.5616523 42.3166765,9.34593524 42.2650407,9.13585355 C42.2156328,8.93140725 42.133199,8.73665904 42.0214088,8.55855485 C41.9079149,8.37730534 41.7610019,8.2189905 41.5887952,8.09186684 C41.3919501,7.94914759 41.171515,7.84299278 40.9370571,7.77772723 C40.6446726,7.69843876 40.3424591,7.66043271 40.0394591,7.66423332 L37.4567519,7.66423332 L37.4567519,13.531187 L38.6468653,13.531187 L38.6468653,8.69603188 L39.8529674,8.69603188 C40.0520405,8.691576 40.2500651,8.724733 40.4368189,8.79379916 C40.5830766,8.84962872 40.7146562,8.93953268 40.8204178,9.05577875 C40.9158261,9.16403045 40.9872513,9.29128517 41.0298442,9.42954853 C41.0736167,9.57226778 41.0948477,9.72101558 41.093275,9.87041865 C41.0972067,10.0831214 41.0451777,10.2933342 40.9422993,10.4795638 C40.8337855,10.6602891 40.6719321,10.8032704 40.4792808,10.8888496 C40.2325036,10.996446 39.9650197,11.048606 39.6959631,11.0410048 L39.2339931,11.0410048 L41.093275,13.531187 Z" id="Fill-12" fill="#546371" mask="url(#mask-4)"></path>
                                <path d="M52.0787648,12.4737802 C51.8310702,12.4745666 51.5854725,12.428173 51.3552083,12.3373516 C50.9054265,12.160427 50.5468591,11.8088055 50.3611537,11.3625621 C50.2631243,11.122993 50.2131922,10.8662556 50.2138475,10.6075524 C50.2121438,10.3445244 50.2622069,10.0835932 50.3611537,9.84009244 C50.5447622,9.39240746 50.904247,9.04013074 51.3552083,8.865434 C51.5857346,8.77579216 51.8313323,8.73005385 52.0787648,8.73031596 C52.2786241,8.72979174 52.4769109,8.76203135 52.6658926,8.82637951 C53.0341581,8.94917835 53.3534089,9.18704376 53.5760719,9.50498398 L54.4994877,8.72297686 C54.3072295,8.49441637 54.0835181,8.29363962 53.8352993,8.12719935 C53.5826246,7.95787588 53.3057047,7.82747583 53.0143687,7.73966876 C52.3906765,7.54727954 51.7226875,7.55160437 51.1017473,7.75316746 C50.4960096,7.94647406 49.9644492,8.32194757 49.580195,8.82886956 C49.3916064,9.07918523 49.2428586,9.35728463 49.1406355,9.65360072 C48.9295053,10.267726 48.9295053,10.9347976 49.1406355,11.5490539 C49.2428586,11.8445836 49.3916064,12.1218967 49.580195,12.3711639 C49.9649735,12.8771685 50.4962717,13.2518557 51.1017473,13.4447691 C51.4168043,13.546206 51.7456221,13.5977107 52.0762747,13.5979739 C52.3932976,13.5982349 52.7086167,13.5522345 53.0120097,13.4603647 C53.5914053,13.2872406 54.1075012,12.9484626 54.4967355,12.4860994 L53.5760719,11.7038302 C53.465068,11.8616208 53.3304742,12.0011947 53.1766152,12.1167855 C52.8597235,12.3532093 52.474945,12.4811193 52.0800753,12.4820367 L52.0787648,12.4737802 Z" id="Fill-13" fill="#546371" mask="url(#mask-4)"></path>
                                <polygon id="Fill-14" fill="#546371" mask="url(#mask-4)" points="56.5473189 12.4992574 56.5473189 11.1837241 59.2015823 11.1837241 59.2015823 10.1861309 56.5473189 10.1861309 56.5473189 8.69603188 59.7180714 8.69603188 59.7180714 7.66436437 55.3901003 7.66436437 55.3901003 13.531187 59.892375 13.531187 59.892375 12.4992574"></polygon>
                                <path d="M31.6387342,14.1232426 C34.6697818,17.6437817 38.4180951,20.1397304 40.6172034,20.1397304 C42.8156565,20.1397304 43.0932317,17.6851952 41.6121755,14.2122291 C43.6966104,18.6354774 43.5002895,21.8489539 40.8373764,21.8489539 C38.1745943,21.8489539 33.805734,18.5927533 30.2111486,14.1232426 L31.6387342,14.1232426 Z" id="Fill-15" fill="#546371" mask="url(#mask-4)"></path>
                                <path d="M26.9220269,0.131029113 C29.1355513,0.131029113 32.4879465,2.35058209 35.613616,5.63954651 C32.9981449,3.02538595 30.2538464,1.29322773 28.4180234,1.29322773 C26.2603286,1.29322773 25.951038,3.67725513 27.3615865,7.07237437 L25.8389857,7.07237437 C24.0968673,3.01188725 24.4052404,0.131029113 26.9220269,0.131029113" id="Fill-16" fill="#546371" mask="url(#mask-4)"></path>
                            </g>
                        </g>
                    </g>
                </g>
            </g>
        </g>
    </g>
</svg>