<?xml version="1.0" encoding="UTF-8"?>
<svg width="153px" height="56px" viewBox="0 0 153 56" version="1.1" xmlns="http://www.w3.org/2000/svg" xmlns:xlink="http://www.w3.org/1999/xlink">
    <!-- Generator: sketchtool 59.1 (101010) - https://sketch.com -->
    <title>0138A790-0119-460B-93E6-C8FFB42F58F4</title>
    <desc>Created with sketchtool.</desc>
    <defs>
        <polygon id="path-1" points="0 0.0974139521 14.0721847 0.0974139521 14.0721847 15.3866613 0 15.3866613"></polygon>
        <polygon id="path-3" points="0 55.4757188 152.725656 55.4757188 152.725656 0.0949102659 0 0.0949102659"></polygon>
    </defs>
    <g id="yugaweb" stroke="none" stroke-width="1" fill="none" fill-rule="evenodd">
        <g id="01-HOME" transform="translate(-984.000000, -984.000000)">
            <g id="CLIENTS" transform="translate(142.000000, 981.000000)">
                <g id="ciphertrace" transform="translate(842.067460, 3.000000)">
                    <polygon id="Fill-1" fill="#322965" points="121.446842 34.5045269 124.649395 34.5045269 117.499043 19.543795 115.992844 19.543795 108.860203 34.5045269 112.065764 34.5045269 112.737154 32.9886362 114.51104 28.9439216 114.485976 28.9439216 115.259294 27.2479019 115.259294 27.2445599 116.734079 24.0015697 119.005242 28.9439216 118.980512 28.9439216 120.484038 32.3550099"></polygon>
                    <g id="Group-17" transform="translate(0.000000, 0.239281)">
                        <g id="Group-4" transform="translate(0.000000, 19.048891)">
                            <mask id="mask-2" fill="white">
                                <use xlink:href="#path-1"></use>
                            </mask>
                            <g id="Clip-3"></g>
                            <path d="M7.89332589,12.5199674 C7.26237313,12.5226409 6.63710163,12.4043373 6.05126467,12.1720745 C4.90465508,11.7209165 3.98963992,10.8242819 3.51609116,9.68636127 C3.26511366,9.07545998 3.13711848,8.42144805 3.1401262,7.76108648 C3.13511333,7.09036499 3.26277432,6.42499055 3.51609116,5.80406353 C3.7506933,5.23694127 4.09858621,4.72429216 4.53871586,4.29753016 C4.97316426,3.8764494 5.48715013,3.54626861 6.05126467,3.32804184 C6.63843839,3.09912095 7.26304152,2.98282246 7.89332589,2.98349084 C9.4135611,2.97914636 10.838886,3.71704025 11.7144667,4.9588943 L14.0688428,2.96477614 C13.5782503,2.38161271 13.0077861,1.87130294 12.3754966,1.44520931 C11.7305078,1.01443701 11.0250305,0.681582702 10.2817895,0.457340489 C9.50813717,0.218059678 8.70340506,0.0967483168 7.89332589,0.0974139521 C7.04949342,0.0994218454 6.2113422,0.232095703 5.40794685,0.492096361 C4.63228936,0.739397758 3.89873994,1.10567118 3.23403389,1.57621221 C2.58369805,2.03572495 2.00755264,2.59215309 1.52531491,3.22544518 C1.042743,3.86241337 0.664104508,4.5729036 0.403769659,5.32850963 C-0.134612166,6.89452901 -0.134612166,8.5955616 0.403769659,10.1619152 C0.664104508,10.9155161 1.042743,11.6233328 1.52531491,12.2582958 C2.00688426,12.8959324 2.58369805,13.4543657 3.23637323,13.9152152 C3.90141347,14.3857562 4.63496289,14.7496903 5.41128876,14.9959891 C6.2150183,15.2539846 7.05250114,15.3859901 7.89599942,15.3866613 C8.70574439,15.3873269 9.51047651,15.2700258 10.2851314,15.0357578 C11.7625902,14.5942914 13.0796372,13.7304075 14.0721847,12.5513814 L11.7144667,10.5565948 C11.4314068,10.9576241 11.0875242,11.3135376 10.6955181,11.6096309 C10.2998358,11.9023823 9.86037457,12.130969 9.39317544,12.2863679 C8.90993514,12.4467796 8.40263309,12.5253145 7.89332589,12.5199674" id="Fill-2" fill="#322965" mask="url(#mask-2)"></path>
                        </g>
                        <mask id="mask-4" fill="white">
                            <use xlink:href="#path-3"></use>
                        </mask>
                        <g id="Clip-6"></g>
                        <polygon id="Fill-5" fill="#322965" mask="url(#mask-4)" points="16.4020981 34.2652795 19.4586097 34.2652795 19.4586097 19.3045476 16.4020981 19.3045476"></polygon>
                        <path d="M25.6338592,27.8999421 L25.6338592,21.9356339 L28.2682875,21.9356339 C28.7759237,21.923603 29.2822232,22.0078192 29.7591139,22.1846063 C30.1320711,22.3273059 30.465928,22.5565609 30.7342834,22.85232 C30.976572,23.1296986 31.1587061,23.4541982 31.268655,23.805433 C31.3796064,24.1700355 31.4340795,24.5493423 31.4304034,24.9303202 C31.4434369,25.4733807 31.3100947,26.0094231 31.0450811,26.4836403 C30.7687051,26.9444898 30.3566475,27.3077555 29.8650524,27.5239771 C29.2330971,27.7923325 28.5506789,27.9216645 27.8645846,27.903284 L25.6338592,27.8999421 Z M22.5987358,19.3045476 L22.5987358,34.2652795 L25.6338592,34.2652795 L25.6338592,30.4260924 L28.1593412,30.4260924 C29.0396005,30.4384575 29.9188572,30.3341899 30.7713786,30.1149605 C31.5139512,29.9224665 32.2077319,29.5772471 32.80961,29.1026958 C33.3951128,28.6328231 33.8512836,28.0225902 34.1360144,27.3288095 C34.4682003,26.4943344 34.6296146,25.60171 34.6115683,24.7040728 C34.6169154,24.1513208 34.5520823,23.6019106 34.4184059,23.0665365 C34.2920816,22.5458668 34.0822096,22.0485905 33.7974788,21.5937564 C33.5080694,21.1322386 33.1334412,20.7285357 32.6946483,20.4043704 C32.1926933,20.0404363 31.6299155,19.7690732 31.0323819,19.6029802 C30.2868016,19.4007946 29.5164911,19.3038792 28.7438414,19.3142391 L22.5987358,19.3045476 Z" id="Fill-7" fill="#322965" mask="url(#mask-4)"></path>
                        <polygon id="Fill-8" fill="#322965" mask="url(#mask-4)" points="46.6020768 19.3046478 46.6020768 26.5829953 39.702702 26.5829953 39.702702 19.3046478 36.7544683 19.3046478 36.7544683 34.2650456 39.702702 34.2650456 39.702702 29.1926934 46.6020768 29.1926934 46.6020768 34.2650456 49.5716987 34.2650456 49.5716987 19.3046478"></polygon>
                        <polygon id="Fill-9" fill="#322965" mask="url(#mask-4)" points="55.6196883 31.6338255 55.6196883 28.2792155 62.3887286 28.2792155 62.3887286 25.735353 55.6196883 25.735353 55.6196883 21.9356005 63.7024337 21.9356005 63.7024337 19.3048483 52.6687811 19.3048483 52.6687811 34.2652461 64.1495814 34.2652461 64.1495814 31.6338255"></polygon>
                        <path d="M75.8640146,34.2652461 L79.4919929,34.2652461 L76.013398,29.810479 C76.9551485,29.4325089 77.7498548,28.7617874 78.2808845,27.8972351 C78.8289578,26.9203946 79.09865,25.8128854 79.0598839,24.6940136 C79.0638942,24.1429326 79.0003979,23.592854 78.8673898,23.0571457 C78.7397288,22.5364761 78.5305252,22.0398681 78.2464628,21.5850341 C77.9570533,21.1228478 77.5834277,20.719145 77.1443006,20.3949796 C76.643014,20.0310455 76.0809046,19.7603508 75.4847077,19.5939236 C74.7391274,19.3924064 73.968817,19.295491 73.1954988,19.3045141 L66.591549,19.3045141 L66.591549,34.2652461 L69.6263381,34.2652461 L69.6263381,21.9356005 L72.6891994,21.9356005 C73.197504,21.924238 73.7031351,22.0087883 74.1800258,22.184907 C74.560001,22.3259357 74.9005417,22.5545224 75.1742442,22.852955 C75.4172011,23.1296652 75.5990011,23.4541647 75.7086157,23.806068 C75.8202356,24.170002 75.8747087,24.5493089 75.87003,24.9302867 C75.8833977,25.4783601 75.7503896,26.0200838 75.4847077,26.499648 C75.2086659,26.9604975 74.7962741,27.3240974 74.3050132,27.5426584 C73.6747288,27.8176976 72.9913081,27.9503715 72.3042112,27.9313226 L71.1362134,27.9313226 L75.8640146,34.2652461 Z" id="Fill-10" fill="#322965" mask="url(#mask-4)"></path>
                        <polygon id="Fill-11" fill="#322965" mask="url(#mask-4)" points="93.2876345 19.3046478 80.700996 19.3046478 80.700996 21.9354 85.456535 21.9354 85.456535 34.2650456 88.5103731 34.2650456 88.5103731 21.9354 93.2876345 21.9354"></polygon>
                        <path d="M104.787851,34.2652461 L108.412822,34.2652461 L104.933893,29.810479 C105.870965,29.4311722 106.661661,28.7604507 107.189014,27.8972351 C107.736753,26.9203946 108.006446,25.8128854 107.968682,24.6940136 C107.972358,24.1429326 107.907525,23.592854 107.775854,23.0571457 C107.649864,22.5358077 107.439657,22.0391997 107.154592,21.5850341 C106.865183,21.1228478 106.490555,20.719145 106.051428,20.3949796 C105.549473,20.0310455 104.987363,19.7603508 104.389496,19.5939236 C103.643915,19.391738 102.873271,19.2948226 102.100621,19.3045141 L95.5147173,19.3045141 L95.5147173,34.2652461 L98.5495064,34.2652461 L98.5495064,21.9356005 L101.625067,21.9356005 C102.132703,21.924238 102.637666,22.0087883 103.113888,22.184907 C103.486845,22.3272724 103.822373,22.5565275 104.092065,22.852955 C104.335357,23.1289968 104.517491,23.4534964 104.626103,23.806068 C104.737723,24.170002 104.791862,24.5493089 104.787851,24.9302867 C104.797877,25.4726789 104.665203,26.0087213 104.402863,26.4836069 C104.126153,26.9444564 103.713427,27.3090588 103.222166,27.5272856 C102.592884,27.8016565 101.9108,27.9346645 101.224706,27.9152814 L100.046682,27.9152814 L104.787851,34.2652461 Z" id="Fill-12" fill="#322965" mask="url(#mask-4)"></path>
                        <path d="M132.80085,31.5688588 C132.169229,31.570864 131.542955,31.4525603 130.955781,31.2209659 C129.808837,30.7698079 128.894491,29.8731733 128.420942,28.7352527 C128.170967,28.1243514 128.04364,27.4696711 128.045311,26.8099779 C128.040967,26.1392564 128.168628,25.4738819 128.420942,24.8529549 C128.889144,23.7113582 129.80583,22.8130526 130.955781,22.3675759 C131.543623,22.1389892 132.169897,22.0223565 132.80085,22.0230249 C133.310492,22.0216881 133.816123,22.1038991 134.298026,22.2679869 C135.237103,22.581124 136.051193,23.1876808 136.618983,23.9984283 L138.973694,22.0043102 C138.483435,21.4214809 137.912971,20.9095002 137.280013,20.4850775 C136.635693,20.0533027 135.929547,19.7207826 135.18664,19.4968745 C133.596225,19.006282 131.892853,19.0173103 130.309456,19.5312962 C128.764825,20.024228 127.409346,20.9816855 126.429497,22.2743366 C125.948596,22.9126415 125.569289,23.621795 125.30862,24.377401 C124.770239,25.9434204 124.770239,27.644453 125.30862,29.2108066 C125.569289,29.9644074 125.948596,30.6715558 126.429497,31.3071872 C127.410682,32.5974989 128.765493,33.5529512 130.309456,34.0448805 C131.112851,34.3035444 131.951336,34.4348815 132.794501,34.4355527 C133.602909,34.4362182 134.406973,34.3189172 135.180625,34.0846492 C136.658084,33.6431828 137.974128,32.7792989 138.966676,31.6002728 L136.618983,29.6054862 C136.335923,30.0078523 135.992709,30.3637658 135.600369,30.6585223 C134.792295,31.261403 133.81111,31.5875735 132.804192,31.5899128 L132.80085,31.5688588 Z" id="Fill-13" fill="#322965" mask="url(#mask-4)"></path>
                        <polygon id="Fill-14" fill="#322965" mask="url(#mask-4)" points="144.195663 31.6338255 144.195663 28.2792155 150.964035 28.2792155 150.964035 25.735353 144.195663 25.735353 144.195663 21.9356005 152.281082 21.9356005 152.281082 19.3048483 141.244756 19.3048483 141.244756 34.2652461 152.725556 34.2652461 152.725556 31.6338255"></polygon>
                        <path d="M80.6787723,35.7749877 C88.4079435,44.7523626 97.9661425,51.1170317 103.573869,51.1170317 C109.179924,51.1170317 109.887741,44.857967 106.111047,36.0019034 C111.426357,47.2811865 110.925738,55.4755517 104.13531,55.4755517 C97.3452155,55.4755517 86.2046217,47.1722402 77.0384289,35.7749877 L80.6787723,35.7749877 Z" id="Fill-15" fill="#322965" mask="url(#mask-4)"></path>
                        <path d="M68.6511686,0.0948434277 C74.2956559,0.0948434277 82.8442636,5.75470351 90.8147208,14.1415628 C84.1452695,7.47545336 77.1473083,3.0584499 72.4659597,3.0584499 C66.9638378,3.0584499 66.1751469,9.13771978 69.7720455,17.7952738 L65.8894135,17.7952738 C61.4470115,7.44103168 62.2333631,0.0948434277 68.6511686,0.0948434277" id="Fill-16" fill="#322965" mask="url(#mask-4)"></path>
                    </g>
                </g>
            </g>
        </g>
    </g>
</svg>