<?xml version="1.0" encoding="UTF-8"?>
<svg width="72px" height="72px" viewBox="0 0 72 72" version="1.1" xmlns="http://www.w3.org/2000/svg" xmlns:xlink="http://www.w3.org/1999/xlink">
    <!-- Generator: Sketch 50.2 (55047) - http://www.bohemiancoding.com/sketch -->
    <title>ico1</title>
    <desc>Created with Sketch.</desc>
    <defs>
        <polygon id="path-1" points="0.551297887 0.5394 31 0.5394 31 20 0.551297887 20"></polygon>
    </defs>
    <g id="v2" stroke="none" stroke-width="1" fill="none" fill-rule="evenodd">
        <g id="02-enterprise-desktop" transform="translate(-124.000000, -1078.000000)">
            <g id="tile-1" transform="translate(120.000000, 969.000000)">
                <g id="ico1" transform="translate(4.000000, 109.000000)">
                    <path d="M50.5734,54.8774 L36.4304,37.7464 C36.2344,37.5084 35.8824,37.4754 35.6444,37.6714 C35.4074,37.8674 35.3734,38.2194 35.5694,38.4574 L49.7134,55.5884 C49.9094,55.8254 50.2614,55.8594 50.4984,55.6634 C50.7364,55.4674 50.7694,55.1154 50.5734,54.8774" id="Fill-2" fill="#202951"></path>
                    <path d="M28.6125,68.1684 C28.2645,68.7054 27.8315,69.1174 27.3685,69.4374 C26.6775,69.9154 25.9225,70.1804 25.3415,70.3224 C25.0515,70.3934 24.8055,70.4334 24.6345,70.4554 L24.4385,70.4774 L24.3895,70.4804 L24.3835,70.4814 L5.6885,70.4814 C5.4915,70.4394 4.4025,70.1754 3.3415,69.4854 C2.7585,69.1074 2.1865,68.6054 1.7635,67.9484 C1.3415,67.2904 1.0595,66.4814 1.0585,65.4474 C1.0595,64.3844 1.2755,63.5614 1.5915,62.9134 C2.0645,61.9444 2.7715,61.3594 3.3665,61.0114 C3.6635,60.8384 3.9305,60.7254 4.1225,60.6574 L4.3415,60.5854 L4.3975,60.5704 L4.4095,60.5674 L4.4115,60.5674 L4.7945,60.4834 L4.7075,60.1014 C4.7065,60.0974 4.6275,59.7374 4.6285,59.2224 C4.6275,58.7654 4.6895,58.1894 4.9115,57.6294 C5.1335,57.0674 5.5065,56.5224 6.1515,56.0854 C6.9935,55.5204 7.7475,55.3314 8.4095,55.3294 C9.2285,55.3294 9.9225,55.6284 10.4155,55.9354 C10.6605,56.0874 10.8535,56.2404 10.9835,56.3544 L11.1295,56.4874 L11.1645,56.5224 L11.1715,56.5294 L11.1725,56.5314 L11.5275,56.9184 L11.7945,56.4644 C11.8105,56.4364 12.3255,55.5904 13.3185,54.7664 C13.8155,54.3534 14.4295,53.9454 15.1625,53.6424 C15.8955,53.3384 16.7455,53.1384 17.7205,53.1384 C18.4905,53.1384 19.3405,53.2634 20.2745,53.5664 C21.3655,53.9224 22.1755,54.4534 22.7885,55.0574 C23.7065,55.9624 24.1835,57.0414 24.4295,57.9354 C24.5815,58.4824 24.6445,58.9554 24.6715,59.2704 L24.5495,59.2694 C24.0245,59.2694 23.1775,59.3114 22.1845,59.5244 L22.3495,60.2864 C23.2725,60.0874 24.0675,60.0484 24.5495,60.0484 L24.6805,60.0494 L24.6805,60.0524 L25.0645,60.0654 C25.0815,60.0664 25.3695,60.0814 25.7865,60.1814 C26.4115,60.3304 27.3175,60.6704 28.0535,61.4194 C28.4245,61.7944 28.7545,62.2714 28.9965,62.8914 C29.2385,63.5114 29.3905,64.2764 29.3905,65.2284 C29.3895,66.5094 29.0745,67.4514 28.6125,68.1684 M29.3835,61.8974 C29.0265,61.2704 28.5765,60.7894 28.1065,60.4264 C27.4005,59.8824 26.6545,59.6004 26.0835,59.4514 C25.8355,59.3874 25.6225,59.3494 25.4555,59.3234 C25.4235,58.8084 25.2965,57.7974 24.8145,56.6834 C24.4995,55.9564 24.0305,55.1884 23.3355,54.5024 C22.6395,53.8164 21.7175,53.2164 20.5155,52.8254 C19.5085,52.4974 18.5755,52.3574 17.7205,52.3574 C16.6205,52.3574 15.6505,52.5904 14.8255,52.9384 C13.5855,53.4614 12.6665,54.2384 12.0535,54.8854 C11.7625,55.1924 11.5435,55.4674 11.3895,55.6764 C11.2435,55.5574 11.0545,55.4144 10.8265,55.2724 C10.2525,54.9154 9.4215,54.5514 8.4095,54.5504 C7.5935,54.5494 6.6715,54.7934 5.7165,55.4394 C4.9295,55.9694 4.4535,56.6624 4.1865,57.3434 C3.9175,58.0254 3.8485,58.6954 3.8465,59.2224 C3.8485,59.4994 3.8685,59.7334 3.8895,59.9124 C3.5125,60.0444 2.8865,60.3164 2.2495,60.8444 C1.7565,61.2524 1.2605,61.8144 0.8905,62.5714 C0.5205,63.3294 0.2795,64.2784 0.2795,65.4474 C0.2785,66.6354 0.6155,67.6144 1.1215,68.3894 C1.8805,69.5544 2.9955,70.2614 3.9095,70.6854 C4.8275,71.1074 5.5545,71.2484 5.5755,71.2534 L5.6115,71.2614 L24.4055,71.2614 L24.4145,71.2604 C24.4475,71.2564 25.8415,71.1924 27.2755,70.4094 C27.9925,70.0174 28.7205,69.4384 29.2665,68.5914 C29.8145,67.7464 30.1715,66.6384 30.1705,65.2284 C30.1715,63.8264 29.8625,62.7334 29.3835,61.8974" id="Fill-4" fill="#202951"></path>
                    <path d="M28.6125,68.1684 L28.3785,68.0174 C28.0525,68.5204 27.6465,68.9054 27.2105,69.2074 C26.5575,69.6594 25.8325,69.9154 25.2755,70.0514 C24.9975,70.1194 24.7605,70.1574 24.5995,70.1784 L24.6345,70.4554 L24.6035,70.1784 L24.4135,70.1984 L24.3705,70.2014 L24.3525,70.2034 L24.3295,70.2074 L24.3835,70.4814 L24.3835,70.2024 L5.6885,70.2024 L5.6885,70.4814 L5.7475,70.2084 C5.5715,70.1714 4.5075,69.9124 3.4935,69.2524 C2.9345,68.8904 2.3945,68.4124 1.9985,67.7984 C1.6025,67.1794 1.3405,66.4314 1.3385,65.4464 L1.3385,65.4474 C1.3395,64.4224 1.5465,63.6454 1.8415,63.0354 L1.8415,63.0364 C2.2865,62.1274 2.9465,61.5804 3.5075,61.2524 C3.7865,61.0894 4.0395,60.9824 4.2155,60.9204 L4.1225,60.6574 L4.2085,60.9224 L4.4215,60.8534 L4.4665,60.8414 L4.4685,60.8414 L4.4835,60.8374 L4.4095,60.5674 L4.4095,60.8474 L4.4115,60.8474 L4.4405,60.8474 L4.8535,60.7564 L5.1295,60.6964 L4.9795,60.0394 L4.9775,60.0334 L4.7585,60.0884 L4.9795,60.0394 L4.9775,60.0334 L4.7585,60.0884 L4.9795,60.0394 C4.9765,60.0304 4.9065,59.6974 4.9065,59.2314 L4.9065,59.2274 L4.6945,59.2274 L4.9055,59.2434 L4.9065,59.2274 L4.6945,59.2274 L4.9055,59.2434 L4.9075,59.2284 L4.9065,59.2114 L4.9065,59.2104 C4.9065,58.7804 4.9675,58.2434 5.1715,57.7314 C5.3785,57.2124 5.7125,56.7224 6.3075,56.3164 C7.1095,55.7784 7.8005,55.6104 8.4095,55.6084 C9.1605,55.6084 9.8045,55.8844 10.2675,56.1724 C10.4985,56.3144 10.6795,56.4584 10.7995,56.5644 L10.9835,56.3544 L10.7945,56.5594 L10.9335,56.6874 L10.9605,56.7134 L10.9595,56.7114 L10.9665,56.7204 L10.9705,56.7264 L11.3215,57.1064 L11.5765,57.3844 L12.0345,56.6054 L12.0355,56.6044 C12.0355,56.6034 12.5405,55.7724 13.4965,54.9804 C13.9755,54.5824 14.5675,54.1904 15.2695,53.8994 C15.9715,53.6084 16.7835,53.4174 17.7205,53.4164 C18.4605,53.4164 19.2795,53.5364 20.1875,53.8324 C21.2395,54.1754 22.0085,54.6814 22.5915,55.2564 C23.4655,56.1154 23.9235,57.1474 24.1605,58.0094 C24.3065,58.5364 24.3675,58.9924 24.3925,59.2924 L24.6715,59.2704 L24.6735,58.9904 L24.5505,58.9894 C24.0085,58.9894 23.1435,59.0324 22.1265,59.2514 L21.8535,59.3114 L22.0775,60.3454 L22.1355,60.6184 L22.4085,60.5594 C23.3065,60.3654 24.0835,60.3264 24.5495,60.3264 L24.6775,60.3284 L24.6805,60.0494 L24.4015,60.0494 L24.4015,60.0524 L24.4015,60.3214 L25.0545,60.3444 L25.0645,60.0654 L25.0475,60.3444 C25.0585,60.3454 25.3245,60.3574 25.7205,60.4524 C26.3135,60.5934 27.1715,60.9174 27.8555,61.6144 C28.2005,61.9654 28.5085,62.4074 28.7365,62.9924 C28.9645,63.5774 29.1115,64.3064 29.1115,65.2284 C29.1095,66.4634 28.8095,67.3464 28.3785,68.0174 L28.6125,68.1684 L28.8465,68.3194 C29.3395,67.5584 29.6705,66.5544 29.6705,65.2284 C29.6705,64.2464 29.5115,63.4454 29.2565,62.7894 C29.0015,62.1344 28.6475,61.6234 28.2535,61.2234 C27.4645,60.4234 26.5085,60.0664 25.8505,59.9094 C25.4145,59.8054 25.1045,59.7884 25.0815,59.7864 L25.0775,59.7864 L24.6895,59.7734 L24.6805,60.0524 L24.9595,60.0524 L24.9595,60.0494 L24.9595,59.7724 L24.5505,59.7694 C24.0525,59.7694 23.2395,59.8094 22.2915,60.0144 L22.3495,60.2864 L22.6225,60.2284 L22.4585,59.4664 L22.1845,59.5244 L22.2435,59.7974 C23.2125,59.5894 24.0395,59.5474 24.5495,59.5474 L24.6685,59.5484 L24.9735,59.5514 L24.9485,59.2464 C24.9215,58.9184 24.8555,58.4294 24.6985,57.8604 C24.4435,56.9354 23.9465,55.8084 22.9835,54.8584 C22.3415,54.2254 21.4915,53.6694 20.3605,53.3024 C19.4005,52.9894 18.5205,52.8584 17.7205,52.8584 C16.7075,52.8584 15.8185,53.0674 15.0555,53.3844 C14.2925,53.7004 13.6545,54.1244 13.1395,54.5524 C12.1105,55.4084 11.5855,56.2704 11.5525,56.3254 L11.4775,56.4514 L11.3775,56.3424 L11.3735,56.3374 L11.3685,56.3324 L11.1715,56.5294 L11.3825,56.3484 L11.3765,56.3414 L11.3685,56.3324 L11.3265,56.2904 L11.3235,56.2864 L11.1725,56.1474 L11.1695,56.1464 L11.1675,56.1434 C11.0275,56.0224 10.8225,55.8594 10.5625,55.6974 C10.0405,55.3734 9.2985,55.0514 8.4095,55.0514 C7.6935,55.0514 6.8775,55.2604 5.9965,55.8544 L5.9955,55.8544 C5.3005,56.3234 4.8885,56.9234 4.6515,57.5254 C4.4155,58.1254 4.3485,58.7294 4.3485,59.2104 L4.3485,59.2314 L4.6285,59.2224 L4.3495,59.1994 L4.3485,59.2314 C4.3495,59.7744 4.4285,60.1354 4.4365,60.1694 L4.7075,60.1014 L4.4355,60.1634 L4.4605,60.2724 L4.3505,60.2954 L4.4115,60.5674 L4.4115,60.2884 L4.4095,60.2884 L4.3725,60.2884 L4.3285,60.3014 L4.2735,60.3144 L4.2635,60.3164 L4.0355,60.3924 L4.0325,60.3934 L4.0285,60.3944 C3.8235,60.4674 3.5405,60.5874 3.2255,60.7714 C2.5965,61.1384 1.8425,61.7624 1.3405,62.7914 C1.0055,63.4784 0.7805,64.3474 0.7795,65.4464 L0.7795,65.4474 C0.7795,66.5324 1.0795,67.4014 1.5295,68.1004 C1.9795,68.7984 2.5825,69.3254 3.1895,69.7204 C4.2975,70.4384 5.4105,70.7064 5.6305,70.7544 L5.6585,70.7604 L24.4115,70.7604 L24.4255,70.7574 L24.4575,70.7554 L24.4635,70.7554 L24.6655,70.7324 L24.6675,70.7324 L24.6705,70.7314 C24.8505,70.7094 25.1065,70.6674 25.4085,70.5934 C26.0115,70.4454 26.7975,70.1714 27.5275,69.6664 C28.0145,69.3304 28.4765,68.8924 28.8465,68.3194 L28.6125,68.1684 Z M29.3835,61.8974 L29.6265,61.7584 C29.2495,61.0974 28.7735,60.5884 28.2775,60.2054 C27.5315,59.6314 26.7505,59.3364 26.1535,59.1814 C25.8935,59.1144 25.6705,59.0744 25.4975,59.0484 L25.4555,59.3234 L25.7335,59.3064 C25.6995,58.7694 25.5695,57.7274 25.0705,56.5714 C24.7445,55.8184 24.2565,55.0194 23.5315,54.3044 C22.8055,53.5884 21.8435,52.9634 20.6025,52.5614 C19.5695,52.2244 18.6065,52.0794 17.7205,52.0794 C16.5805,52.0794 15.5735,52.3194 14.7165,52.6814 C13.4305,53.2244 12.4825,54.0264 11.8505,54.6924 C11.5505,55.0104 11.3245,55.2944 11.1655,55.5114 L11.3895,55.6764 L11.5665,55.4614 C11.4135,55.3344 11.2145,55.1854 10.9725,55.0354 C10.3695,54.6604 9.4895,54.2724 8.4095,54.2724 C7.5345,54.2714 6.5535,54.5344 5.5595,55.2074 C4.7225,55.7714 4.2105,56.5164 3.9265,57.2414 L3.9265,57.2404 C3.6405,57.9664 3.5695,58.6724 3.5685,59.2214 L3.5685,59.2234 C3.5695,59.5134 3.5905,59.7584 3.6125,59.9464 L3.8895,59.9124 L3.7985,59.6484 C3.3985,59.7894 2.7425,60.0744 2.0715,60.6284 C1.5525,61.0594 1.0285,61.6514 0.6395,62.4494 C0.2505,63.2464 0.0005,64.2404 0.0005,65.4474 L0.2795,65.4474 L0.0015,65.4274 L0.0005,65.4524 C-0.0005,66.6914 0.3535,67.7264 0.8865,68.5424 C1.6875,69.7684 2.8495,70.5014 3.7925,70.9394 C4.7375,71.3744 5.4925,71.5214 5.5175,71.5264 L5.5525,71.5334 L5.5825,71.5394 L24.4235,71.5394 L24.4495,71.5364 L24.4145,71.2604 L24.4425,71.5374 L24.4345,71.4654 L24.4395,71.5374 L24.4425,71.5374 L24.4345,71.4654 L24.4395,71.5374 C24.5685,71.5284 25.9625,71.4444 27.4095,70.6544 C28.1575,70.2444 28.9245,69.6364 29.5015,68.7424 L29.5005,68.7424 C30.0795,67.8524 30.4495,66.6884 30.4495,65.2344 L30.3735,65.2344 L30.4495,65.2354 L30.4495,65.2344 L30.3735,65.2344 L30.4495,65.2354 L30.1885,65.2314 L30.4445,65.2804 L30.4495,65.2354 L30.1885,65.2314 L30.4445,65.2804 L30.4495,65.2544 L30.4495,65.2284 L30.4495,65.2174 L30.3045,65.2214 L30.4495,65.2214 L30.4495,65.2174 L30.3045,65.2214 L30.4495,65.2214 C30.4495,63.7814 30.1305,62.6404 29.6265,61.7584 L29.3835,61.8974 L29.1415,62.0354 C29.5925,62.8244 29.8905,63.8624 29.8905,65.2214 L29.8905,65.2314 L30.0355,65.2284 L29.8905,65.2284 L29.8905,65.2314 L30.0355,65.2284 L29.8905,65.2284 L30.1705,65.2284 L29.8965,65.1754 L29.8905,65.2274 L29.8905,65.2344 C29.8895,66.5944 29.5485,67.6434 29.0325,68.4394 L29.0125,68.4684 L29.0325,68.4394 C28.5155,69.2394 27.8275,69.7894 27.1415,70.1644 C26.4555,70.5394 25.7735,70.7444 25.2605,70.8554 C25.0055,70.9094 24.7915,70.9404 24.6405,70.9584 C24.4845,70.9774 24.4175,70.9794 24.3865,70.9814 L24.3835,70.9824 L24.3715,70.9834 L24.4055,71.2614 L24.4055,70.9814 L5.6395,70.9814 L5.6335,70.9804 C5.6165,70.9774 4.9175,70.8424 4.0265,70.4324 C3.1395,70.0214 2.0715,69.3394 1.3545,68.2364 C0.8775,67.5054 0.5585,66.5854 0.5575,65.4524 L0.3595,65.4524 L0.5575,65.4674 L0.5575,65.4524 L0.3595,65.4524 L0.5575,65.4674 L0.5575,65.4574 L0.5575,65.4474 C0.5585,64.3164 0.7905,63.4114 1.1415,62.6934 C1.4915,61.9764 1.9605,61.4454 2.4265,61.0584 C3.0315,60.5594 3.6275,60.3004 3.9815,60.1764 L4.1935,60.1024 L4.1675,59.8794 C4.1455,59.7094 4.1275,59.4854 4.1265,59.2204 L4.1265,59.2224 C4.1275,58.7204 4.1935,58.0844 4.4455,57.4454 L4.4465,57.4444 C4.6965,56.8084 5.1365,56.1664 5.8715,55.6704 C6.7825,55.0554 7.6455,54.8304 8.4095,54.8294 C9.3525,54.8304 10.1335,55.1714 10.6785,55.5104 C10.8955,55.6454 11.0745,55.7784 11.2135,55.8924 L11.4395,56.0794 L11.6145,55.8424 C11.7625,55.6414 11.9735,55.3754 12.2565,55.0764 C12.8495,54.4504 13.7395,53.6984 14.9335,53.1954 C15.7285,52.8604 16.6595,52.6374 17.7205,52.6374 C18.5455,52.6374 19.4485,52.7724 20.4295,53.0914 C21.5915,53.4694 22.4735,54.0454 23.1385,54.7014 C23.8045,55.3574 24.2555,56.0944 24.5585,56.7934 C25.0225,57.8674 25.1455,58.8484 25.1765,59.3424 L25.1915,59.5664 L25.4145,59.6004 C25.5745,59.6244 25.7765,59.6604 26.0135,59.7224 C26.5585,59.8624 27.2685,60.1334 27.9365,60.6474 C28.3805,60.9894 28.8035,61.4424 29.1415,62.0344 L29.3835,61.8974 Z" id="Fill-6" fill="#202951"></path>
                    <path d="M49.3869,16.3784 C49.0399,16.9164 48.6069,17.3284 48.1439,17.6474 C47.4529,18.1264 46.6979,18.3914 46.1159,18.5324 C45.8259,18.6034 45.5809,18.6434 45.4099,18.6654 L45.2139,18.6874 L45.1649,18.6914 L45.1589,18.6914 L26.4639,18.6914 C26.2669,18.6494 25.1769,18.3854 24.1159,17.6964 C23.5329,17.3184 22.9619,16.8154 22.5389,16.1584 C22.1159,15.5014 21.8349,14.6914 21.8339,13.6574 C21.8339,12.5944 22.0499,11.7724 22.3659,11.1244 C22.8389,10.1554 23.5469,9.5694 24.1419,9.2214 C24.4389,9.0484 24.7059,8.9354 24.8969,8.8674 L25.1169,8.7954 L25.1729,8.7814 L25.1849,8.7784 L25.1869,8.7774 L25.5699,8.6934 L25.4829,8.3114 C25.4819,8.3074 25.4029,7.9474 25.4029,7.4314 C25.4029,6.9754 25.4649,6.3994 25.6869,5.8394 C25.9089,5.2774 26.2819,4.7324 26.9269,4.2954 C27.7689,3.7294 28.5219,3.5414 29.1849,3.5404 C30.0029,3.5394 30.6979,3.8384 31.1899,4.1444 C31.4359,4.2974 31.6289,4.4504 31.7589,4.5644 L31.9049,4.6984 L31.9389,4.7324 L31.9469,4.7404 L31.9469,4.7414 L32.3029,5.1284 L32.5699,4.6754 C32.5859,4.6464 33.1009,3.8004 34.0939,2.9764 C34.5909,2.5634 35.2049,2.1554 35.9379,1.8524 C36.6709,1.5484 37.5209,1.3484 38.4959,1.3474 C39.2659,1.3474 40.1159,1.4734 41.0499,1.7764 C42.1409,2.1324 42.9499,2.6644 43.5639,3.2674 C44.4819,4.1724 44.9589,5.2514 45.2049,6.1454 C45.3569,6.6924 45.4189,7.1664 45.4449,7.4804 L45.3249,7.4784 C44.7999,7.4784 43.9519,7.5214 42.9599,7.7344 L43.1239,8.4974 C44.0479,8.2974 44.8419,8.2574 45.3249,8.2574 L45.4559,8.2594 L45.4559,8.2624 L45.8399,8.2764 C45.8559,8.2764 46.1449,8.2914 46.5619,8.3904 C47.1869,8.5404 48.0929,8.8804 48.8289,9.6284 C49.1989,10.0034 49.5299,10.4804 49.7719,11.1004 C50.0139,11.7214 50.1659,12.4864 50.1659,13.4384 C50.1649,14.7184 49.8489,15.6614 49.3869,16.3784 M50.1589,10.1074 C49.8019,9.4804 49.3519,8.9994 48.8819,8.6364 C48.1759,8.0924 47.4289,7.8114 46.8589,7.6624 C46.6109,7.5974 46.3979,7.5594 46.2309,7.5354 C46.1989,7.0194 46.0719,6.0074 45.5899,4.8924 C45.2749,4.1664 44.8059,3.3984 44.1109,2.7124 C43.4149,2.0264 42.4929,1.4264 41.2909,1.0354 C40.2839,0.7074 39.3509,0.5674 38.4959,0.5674 C37.3959,0.5674 36.4259,0.8004 35.6009,1.1484 C34.3609,1.6714 33.4409,2.4494 32.8279,3.0954 C32.5379,3.4024 32.3189,3.6774 32.1649,3.8864 C32.0179,3.7664 31.8299,3.6254 31.6019,3.4824 C31.0279,3.1254 30.1969,2.7614 29.1849,2.7604 C28.3689,2.7594 27.4469,3.0034 26.4909,3.6494 C25.7039,4.1784 25.2289,4.8724 24.9619,5.5534 C24.6929,6.2354 24.6239,6.9064 24.6219,7.4314 C24.6219,7.7094 24.6429,7.9434 24.6639,8.1224 C24.2879,8.2544 23.6619,8.5274 23.0249,9.0544 C22.5319,9.4624 22.0359,10.0244 21.6649,10.7814 C21.2959,11.5394 21.0539,12.4894 21.0549,13.6574 C21.0539,14.8454 21.3909,15.8244 21.8959,16.5994 C22.6559,17.7634 23.7689,18.4714 24.6849,18.8954 C25.6019,19.3184 26.3279,19.4604 26.3509,19.4634 L26.3869,19.4704 L45.1799,19.4704 L45.1899,19.4704 C45.2229,19.4664 46.6159,19.4034 48.0509,18.6194 C48.7679,18.2274 49.4939,17.6484 50.0419,16.8014 C50.5889,15.9564 50.9469,14.8484 50.9459,13.4384 C50.9469,12.0364 50.6379,10.9434 50.1589,10.1074" id="Fill-8" fill="#202951"></path>
                    <path d="M49.3869,16.3784 L49.1529,16.2274 C48.8279,16.7304 48.4219,17.1154 47.9859,17.4184 C47.3329,17.8704 46.6079,18.1264 46.0509,18.2604 C45.7719,18.3294 45.5359,18.3674 45.3739,18.3884 L45.4099,18.6654 L45.3789,18.3884 L45.1879,18.4094 L45.1429,18.4134 L45.1649,18.6914 L45.1649,18.4124 L45.1589,18.4124 L26.4639,18.4124 L26.4639,18.6914 L26.5229,18.4184 C26.3469,18.3814 25.2819,18.1224 24.2689,17.4624 C23.7099,17.1004 23.1699,16.6224 22.7739,16.0074 C22.3779,15.3894 22.1159,14.6404 22.1139,13.6564 L22.1139,13.6574 C22.1139,12.6324 22.3209,11.8554 22.6159,11.2464 C23.0609,10.3374 23.7209,9.7914 24.2829,9.4624 C24.5619,9.2994 24.8149,9.1924 24.9909,9.1294 L24.8969,8.8674 L24.9819,9.1324 L25.1959,9.0634 L25.2409,9.0514 L25.2469,9.0504 L25.2799,9.0434 L25.6289,8.9664 L25.9049,8.9064 L25.7549,8.2494 L25.7519,8.2394 L25.7509,8.2344 L25.4909,8.3084 L25.7539,8.2474 L25.7509,8.2344 L25.4909,8.3084 L25.7539,8.2474 L25.7519,8.2344 C25.7379,8.1634 25.6809,7.8504 25.6809,7.4314 C25.6809,7.0014 25.7409,6.4584 25.9469,5.9414 C26.1539,5.4224 26.4879,4.9314 27.0829,4.5264 L27.1049,4.5124 L27.0829,4.5274 C27.8849,3.9884 28.5749,3.8214 29.1849,3.8194 C29.9349,3.8184 30.5799,4.0944 31.0419,4.3814 C31.2739,4.5244 31.4539,4.6694 31.5749,4.7744 L31.7589,4.5644 L31.5699,4.7694 L31.7089,4.8984 L31.7389,4.9274 L31.7409,4.9304 L31.7479,4.9384 L31.9469,4.7404 L31.6669,4.7404 L31.6669,4.7414 L31.6669,4.8504 L32.0969,5.3164 L32.3519,5.5934 L32.8099,4.8164 L32.8139,4.8104 L32.8129,4.8124 L32.7719,4.7894 L32.8119,4.8134 L32.8129,4.8124 L32.7719,4.7894 L32.8119,4.8134 C32.8449,4.7574 33.3449,3.9594 34.2719,3.1904 C34.7509,2.7934 35.3429,2.4004 36.0449,2.1094 C36.7469,1.8194 37.5599,1.6274 38.4959,1.6264 C39.2359,1.6264 40.0549,1.7464 40.9629,2.0424 C42.0149,2.3854 42.7829,2.8914 43.3669,3.4664 C44.2409,4.3264 44.6989,5.3574 44.9359,6.2194 C45.0819,6.7464 45.1419,7.2024 45.1669,7.5034 L45.4449,7.4804 L45.4489,7.2014 L45.3269,7.1994 L45.3249,7.1994 C44.7839,7.1994 43.9179,7.2424 42.9019,7.4624 L42.6289,7.5214 L42.8509,8.5554 L42.9089,8.8284 L43.1829,8.7704 C44.0819,8.5754 44.8579,8.5364 45.3249,8.5364 L45.3249,8.2574 L45.3209,8.5364 L45.4519,8.5384 L45.4559,8.2594 L45.1769,8.2594 L45.1769,8.2624 L45.1769,8.5314 L45.8289,8.5554 C45.8309,8.5554 46.1039,8.5684 46.4959,8.6624 C47.0889,8.8034 47.9469,9.1284 48.6309,9.8244 C48.9749,10.1754 49.2829,10.6174 49.5119,11.2024 C49.7399,11.7874 49.8869,12.5164 49.8869,13.4384 C49.8849,14.6734 49.5839,15.5554 49.1529,16.2274 L49.3869,16.3784 L49.6209,16.5294 C50.1139,15.7684 50.4459,14.7644 50.4459,13.4384 C50.4459,12.4564 50.2869,11.6554 50.0319,10.9994 C49.7759,10.3434 49.4209,9.8334 49.0289,9.4334 C48.2399,8.6334 47.2839,8.2764 46.6259,8.1194 C46.1859,8.0144 45.8859,7.9994 45.8489,7.9974 L45.4659,7.9834 L45.4559,8.2624 L45.7349,8.2624 L45.7349,8.2594 L45.7349,7.9834 L45.3269,7.9784 L45.3249,7.9784 C44.8259,7.9794 44.0139,8.0194 43.0649,8.2244 L43.1239,8.4974 L43.3969,8.4384 L43.2339,7.6764 L42.9599,7.7344 L43.0199,8.0074 C43.9869,7.7984 44.8149,7.7574 45.3249,7.7574 L45.3249,7.4784 L45.3209,7.7574 L45.4419,7.7584 L45.7479,7.7634 L45.7229,7.4574 C45.6959,7.1294 45.6309,6.6384 45.4739,6.0704 C45.2189,5.1444 44.7219,4.0184 43.7589,3.0684 C43.1159,2.4364 42.2669,1.8794 41.1359,1.5114 C40.1759,1.1994 39.2959,1.0684 38.4959,1.0684 C37.4829,1.0684 36.5939,1.2784 35.8309,1.5944 C35.0679,1.9104 34.4299,2.3344 33.9149,2.7614 C32.8849,3.6194 32.3619,4.4784 32.3259,4.5374 L32.5699,4.6754 L32.3289,4.5334 L32.2529,4.6624 L32.1519,4.5514 L31.9469,4.7414 L32.2249,4.7414 L32.2249,4.7404 L32.2249,4.6254 L32.1359,4.5354 L31.9389,4.7324 L32.1389,4.5384 L32.1049,4.5034 L32.0989,4.4984 L31.9479,4.3584 L31.9429,4.3544 C31.8029,4.2324 31.5979,4.0694 31.3359,3.9074 C30.8159,3.5844 30.0739,3.2614 29.1849,3.2614 C28.4689,3.2614 27.6529,3.4704 26.7719,4.0644 L26.7519,4.0774 L26.7709,4.0644 C26.0759,4.5334 25.6639,5.1334 25.4269,5.7364 C25.1889,6.3414 25.1229,6.9494 25.1229,7.4314 C25.1229,7.7034 25.1439,7.9344 25.1649,8.0994 L25.1949,8.2944 L25.2049,8.3494 L25.2089,8.3654 L25.2139,8.3874 L25.4829,8.3114 L25.2109,8.3734 L25.2359,8.4814 L25.1259,8.5054 L25.0919,8.5124 L25.0609,8.5284 L25.1849,8.7784 L25.1229,8.5064 L25.1119,8.5084 L25.1059,8.5104 L25.0459,8.5254 L25.0389,8.5274 L24.8109,8.6014 L24.8049,8.6034 L24.8019,8.6044 C24.5989,8.6774 24.3159,8.7964 24.0009,8.9804 C23.3719,9.3484 22.6169,9.9724 22.1159,11.0024 C21.7799,11.6884 21.5549,12.5574 21.5549,13.6574 C21.5549,14.7424 21.8549,15.6124 22.3049,16.3104 C22.7549,17.0084 23.3579,17.5364 23.9649,17.9304 C25.0719,18.6484 26.1859,18.9164 26.4059,18.9634 L26.4339,18.9704 L45.1589,18.9704 L45.1649,18.9704 L45.1749,18.9704 L45.2359,18.9654 L45.2409,18.9654 L45.4409,18.9424 L45.4449,18.9424 L45.4469,18.9424 C45.6259,18.9194 45.8809,18.8774 46.1829,18.8034 C46.7869,18.6564 47.5729,18.3814 48.3029,17.8774 C48.7899,17.5404 49.2519,17.1024 49.6209,16.5294 L49.3869,16.3784 Z M50.1589,10.1074 L50.4029,9.9684 C50.0249,9.3074 49.5479,8.7984 49.0519,8.4154 C48.3069,7.8414 47.5249,7.5474 46.9289,7.3924 C46.6689,7.3244 46.4459,7.2844 46.2709,7.2584 L46.2309,7.5354 L46.5089,7.5174 C46.4749,6.9794 46.3449,5.9374 45.8459,4.7814 C45.5199,4.0284 45.0319,3.2294 44.3069,2.5134 C43.5809,1.7984 42.6189,1.1734 41.3779,0.7704 C40.3449,0.4334 39.3819,0.2894 38.4959,0.2894 C37.3559,0.2894 36.3489,0.5294 35.4919,0.8914 C34.2059,1.4334 33.2569,2.2374 32.6249,2.9034 C32.3259,3.2204 32.0999,3.5044 31.9409,3.7214 L32.1649,3.8864 L32.3419,3.6704 C32.1879,3.5444 31.9909,3.3964 31.7489,3.2464 C31.1449,2.8704 30.2649,2.4824 29.1849,2.4824 C28.3099,2.4814 27.3289,2.7444 26.3349,3.4184 C25.4969,3.9814 24.9859,4.7254 24.7019,5.4514 L24.7019,5.4504 C24.4159,6.1764 24.3449,6.8814 24.3439,7.4304 L24.3439,7.4314 C24.3439,7.7224 24.3649,7.9684 24.3869,8.1564 L24.6639,8.1224 L24.5719,7.8594 C24.1729,7.9994 23.5179,8.2854 22.8469,8.8384 L22.8469,8.8394 C22.3279,9.2684 21.8049,9.8614 21.4139,10.6594 C21.0269,11.4554 20.7759,12.4464 20.7759,13.6494 L20.7759,13.6534 L20.7769,13.6864 L21.0549,13.6574 L20.7769,13.6374 L20.7759,13.6634 C20.7749,14.9014 21.1289,15.9364 21.6609,16.7514 C22.4629,17.9784 23.6239,18.7114 24.5679,19.1484 C25.5169,19.5864 26.2559,19.7304 26.3019,19.7384 L26.3509,19.4634 L26.2959,19.7374 L26.3319,19.7444 L26.3599,19.7494 L45.1799,19.7494 L45.1899,19.7494 L45.2059,19.7494 L45.2219,19.7484 L45.1979,19.5344 L45.2139,19.7484 L45.2219,19.7484 L45.1979,19.5344 L45.2139,19.7484 C45.2939,19.7414 46.7149,19.6674 48.1849,18.8644 C48.9329,18.4544 49.6989,17.8464 50.2769,16.9534 C50.8539,16.0624 51.2249,14.8984 51.2249,13.4444 L51.1479,13.4444 L51.2249,13.4454 L51.2249,13.4444 L51.1479,13.4444 L51.2249,13.4454 L50.9639,13.4414 L51.2199,13.4904 L51.2249,13.4454 L50.9639,13.4414 L51.2199,13.4904 L51.2249,13.4644 L51.2249,13.4384 L51.2249,13.4264 L51.0789,13.4304 L51.2249,13.4304 L51.2249,13.4264 L51.0789,13.4304 L51.2249,13.4304 C51.2249,11.9924 50.9059,10.8504 50.4019,9.9684 L50.4029,9.9684 L50.1589,10.1074 L49.9169,10.2454 C50.3679,11.0344 50.6659,12.0734 50.6659,13.4304 L50.6659,13.4414 L50.8109,13.4384 L50.6659,13.4384 L50.6659,13.4414 L50.8109,13.4384 L50.6659,13.4384 L50.9459,13.4384 L50.6709,13.3854 L50.6659,13.4364 L50.6659,13.4444 C50.6649,14.8044 50.3239,15.8524 49.8079,16.6494 C49.2899,17.4494 48.6029,17.9994 47.9169,18.3744 C47.2309,18.7494 46.5479,18.9544 46.0349,19.0644 C45.7799,19.1194 45.5659,19.1514 45.4159,19.1694 L45.2409,19.1874 L45.1579,19.1934 L45.1899,19.4704 L45.1899,19.1914 L45.1799,19.1914 L26.4129,19.1914 L26.4049,19.1904 L26.4009,19.1894 L26.3989,19.1884 C26.3969,19.1894 25.6869,19.0514 24.8019,18.6414 C23.9139,18.2314 22.8469,17.5484 22.1289,16.4464 C21.6529,15.7154 21.3339,14.7954 21.3329,13.6634 L21.1349,13.6634 L21.3329,13.6764 L21.3329,13.6634 L21.1349,13.6634 L21.3329,13.6764 L21.3349,13.6514 L21.3319,13.6284 L21.0929,13.6534 L21.3329,13.6534 L21.3319,13.6284 L21.0929,13.6534 L21.3329,13.6534 L21.3329,13.6494 C21.3339,12.5234 21.5669,11.6214 21.9159,10.9044 C22.2669,10.1864 22.7359,9.6554 23.2019,9.2694 C23.8069,8.7694 24.4029,8.5094 24.7559,8.3854 L24.9679,8.3114 L24.9409,8.0884 C24.9199,7.9194 24.9019,7.6964 24.9019,7.4314 L24.9019,7.4324 C24.9029,6.9304 24.9689,6.2954 25.2209,5.6554 L25.2219,5.6554 C25.4719,5.0184 25.9109,4.3764 26.6469,3.8804 L26.6679,3.8664 L26.6479,3.8804 C27.5579,3.2654 28.4199,3.0404 29.1849,3.0404 C30.1279,3.0404 30.9089,3.3804 31.4539,3.7204 C31.6709,3.8554 31.8489,3.9884 31.9889,4.1034 L32.2159,4.2894 L32.3899,4.0524 C32.5379,3.8504 32.7499,3.5844 33.0309,3.2874 C33.6239,2.6604 34.5149,1.9084 35.7089,1.4054 C36.5039,1.0704 37.4349,0.8474 38.4959,0.8474 C39.3209,0.8474 40.2239,0.9814 41.2049,1.3014 C42.3659,1.6794 43.2489,2.2544 43.9139,2.9114 C44.5799,3.5674 45.0309,4.3044 45.3339,5.0034 L45.3709,5.0884 L45.3339,5.0034 C45.7979,6.0774 45.9209,7.0584 45.9519,7.5524 L45.9669,7.7784 L46.1919,7.8114 C46.3499,7.8344 46.5509,7.8704 46.7879,7.9324 C47.3329,8.0744 48.0439,8.3434 48.7119,8.8574 C49.1559,9.2004 49.5789,9.6524 49.9169,10.2454 L50.1589,10.1074 Z" id="Fill-10" fill="#202951"></path>
                    <path d="M70.1623,68.6294 C69.8153,69.1664 69.3813,69.5784 68.9193,69.8984 C68.2273,70.3764 67.4733,70.6424 66.8913,70.7824 C66.6013,70.8534 66.3563,70.8944 66.1853,70.9154 L65.9893,70.9374 L65.9403,70.9424 L65.9343,70.9424 L47.2393,70.9424 C47.0423,70.8994 45.9523,70.6354 44.8913,69.9454 C44.3083,69.5674 43.7363,69.0664 43.3133,68.4094 C42.8913,67.7514 42.6103,66.9424 42.6093,65.9074 C42.6093,64.8454 42.8253,64.0214 43.1413,63.3754 C43.6143,62.4044 44.3223,61.8204 44.9173,61.4724 C45.2143,61.2984 45.4813,61.1864 45.6723,61.1174 L45.8923,61.0454 L45.9483,61.0314 L45.9603,61.0274 L45.9623,61.0274 L46.3453,60.9434 L46.2583,60.5614 C46.2573,60.5574 46.1783,60.1974 46.1783,59.6824 C46.1783,59.2264 46.2393,58.6494 46.4623,58.0894 C46.6843,57.5284 47.0563,56.9834 47.7023,56.5454 C48.5443,55.9804 49.2973,55.7924 49.9603,55.7914 C50.7783,55.7894 51.4733,56.0884 51.9653,56.3954 C52.2103,56.5474 52.4043,56.7014 52.5343,56.8154 L52.6803,56.9484 L52.7143,56.9834 L52.7223,56.9914 L53.0773,57.3784 L53.3453,56.9264 C53.3613,56.8974 53.8763,56.0504 54.8693,55.2264 C55.3653,54.8144 55.9803,54.4064 56.7133,54.1024 C57.4463,53.7994 58.2953,53.5984 59.2713,53.5984 C60.0413,53.5984 60.8913,53.7234 61.8253,54.0264 C62.9163,54.3824 63.7253,54.9144 64.3393,55.5174 C65.2573,56.4224 65.7343,57.5014 65.9803,58.3954 C66.1323,58.9424 66.1943,59.4164 66.2203,59.7304 L66.1003,59.7294 C65.5753,59.7294 64.7273,59.7714 63.7353,59.9844 L63.8993,60.7474 C64.8243,60.5484 65.6173,60.5084 66.1003,60.5084 L66.2313,60.5104 L66.2313,60.5124 L66.6153,60.5264 C66.6313,60.5264 66.9203,60.5414 67.3353,60.6414 C67.9623,60.7904 68.8683,61.1304 69.6033,61.8794 C69.9743,62.2544 70.3053,62.7314 70.5473,63.3514 C70.7883,63.9714 70.9413,64.7364 70.9413,65.6884 C70.9403,66.9694 70.6243,67.9114 70.1623,68.6294 M70.9343,62.3584 C70.5773,61.7304 70.1273,61.2494 69.6563,60.8874 C68.9513,60.3424 68.2043,60.0614 67.6343,59.9114 C67.3863,59.8474 67.1723,59.8094 67.0063,59.7854 C66.9733,59.2704 66.8473,58.2574 66.3643,57.1434 C66.0503,56.4164 65.5813,55.6484 64.8863,54.9624 C64.1903,54.2764 63.2683,53.6774 62.0653,53.2854 C61.0593,52.9574 60.1263,52.8184 59.2713,52.8184 C58.1713,52.8184 57.2013,53.0504 56.3753,53.3994 C55.1363,53.9214 54.2163,54.6994 53.6033,55.3464 C53.3133,55.6524 53.0943,55.9284 52.9393,56.1384 C52.7933,56.0174 52.6053,55.8764 52.3773,55.7334 C51.8033,55.3754 50.9723,55.0114 49.9603,55.0104 C49.1443,55.0094 48.2223,55.2534 47.2663,55.9004 C46.4793,56.4294 46.0043,57.1224 45.7353,57.8034 C45.4683,58.4854 45.3973,59.1564 45.3973,59.6824 C45.3973,59.9594 45.4183,60.1934 45.4393,60.3724 C45.0633,60.5044 44.4373,60.7764 43.8003,61.3044 C43.3063,61.7124 42.8093,62.2754 42.4403,63.0324 C42.0713,63.7894 41.8293,64.7384 41.8303,65.9074 C41.8293,67.0954 42.1663,68.0744 42.6713,68.8494 C43.4313,70.0144 44.5443,70.7214 45.4603,71.1454 C46.3773,71.5674 47.1033,71.7104 47.1253,71.7144 L47.1623,71.7214 L65.9553,71.7214 L65.9653,71.7214 C65.9973,71.7174 67.3913,71.6534 68.8253,70.8694 C69.5423,70.4774 70.2693,69.8984 70.8173,69.0524 C71.3643,68.2064 71.7223,67.0984 71.7213,65.6884 C71.7223,64.2874 71.4123,63.1934 70.9343,62.3584" id="Fill-12" fill="#202951"></path>
                    <g id="Group-16" transform="translate(41.000000, 52.000000)">
                        <mask id="mask-2" fill="white">
                            <use xlink:href="#path-1"></use>
                        </mask>
                        <g id="Clip-15"></g>
                        <path d="M29.1623,16.6294 L28.9283,16.4784 C28.6033,16.9814 28.1963,17.3664 27.7613,17.6684 C27.1073,18.1204 26.3833,18.3764 25.8263,18.5114 C25.5473,18.5794 25.3113,18.6174 25.1503,18.6384 L25.1853,18.9154 L25.1543,18.6384 L24.9613,18.6594 L24.9153,18.6634 L24.9403,18.9424 L24.9403,18.6624 L24.9343,18.6624 L6.2393,18.6624 L6.2393,18.9424 L6.2983,18.6684 C6.1223,18.6314 5.0573,18.3724 4.0443,17.7124 C3.4853,17.3504 2.9433,16.8724 2.5483,16.2584 C2.1533,15.6414 1.8913,14.8914 1.8893,13.9064 C1.8893,12.8834 2.0963,12.1054 2.3913,11.4974 C2.8363,10.5874 3.4963,10.0424 4.0583,9.7124 C4.3373,9.5494 4.5893,9.4434 4.7663,9.3794 L4.6723,9.1174 L4.7583,9.3824 L4.9713,9.3134 L5.0173,9.3014 L5.0213,9.3004 L5.0343,9.2974 L4.9603,9.0274 L4.9603,9.3074 L4.9623,9.3074 L4.9913,9.3074 L5.4043,9.2164 L5.6803,9.1564 L5.5303,8.4994 L5.5283,8.4924 L5.5283,8.4934 L5.3123,8.5474 L5.5303,8.4994 L5.5283,8.4934 L5.3123,8.5474 L5.5303,8.4994 C5.5273,8.4894 5.4563,8.1524 5.4563,7.6824 C5.4563,7.2514 5.5163,6.7074 5.7213,6.1914 C5.9293,5.6734 6.2623,5.1824 6.8583,4.7764 C7.6603,4.2384 8.3503,4.0724 8.9603,4.0694 C9.7123,4.0694 10.3553,4.3444 10.8173,4.6324 C11.0473,4.7754 11.2303,4.9194 11.3503,5.0254 L11.5343,4.8154 L11.3453,5.0204 L11.4853,5.1494 L11.5143,5.1784 L11.5163,5.1814 L11.5203,5.1854 L11.8713,5.5664 L12.1253,5.8434 L12.5853,5.0674 L12.5873,5.0644 L12.5893,5.0614 L12.5163,5.0214 L12.5883,5.0644 L12.5893,5.0614 L12.5163,5.0214 L12.5883,5.0644 C12.6193,5.0094 13.1203,4.2094 14.0473,3.4414 C14.5253,3.0434 15.1183,2.6514 15.8203,2.3594 C16.5223,2.0694 17.3333,1.8774 18.2713,1.8764 C19.0113,1.8764 19.8303,1.9964 20.7383,2.2924 C21.7903,2.6354 22.5583,3.1424 23.1423,3.7164 C24.0163,4.5754 24.4743,5.6084 24.7113,6.4694 C24.8573,6.9954 24.9173,7.4534 24.9423,7.7534 L25.2203,7.7304 L25.2233,7.4504 L25.1013,7.4494 C24.5593,7.4494 23.6933,7.4924 22.6773,7.7124 L22.4043,7.7714 L22.6263,8.8064 L22.6843,9.0794 L22.9583,9.0214 C23.8583,8.8264 24.6333,8.7864 25.1003,8.7864 L25.1003,8.5084 L25.0953,8.7864 L25.2263,8.7894 L25.2313,8.5104 L24.9523,8.5104 L24.9523,8.5124 L24.9523,8.7814 L25.6043,8.8054 L25.6093,8.8054 L25.6153,8.8054 L25.6173,8.8064 C25.6743,8.8094 25.9273,8.8304 26.2703,8.9124 C26.8653,9.0534 27.7223,9.3784 28.4053,10.0744 C28.7503,10.4254 29.0583,10.8674 29.2873,11.4524 C29.5143,12.0374 29.6623,12.7664 29.6623,13.6884 C29.6603,14.9234 29.3593,15.8064 28.9283,16.4784 L29.1623,16.6294 L29.3963,16.7804 C29.8893,16.0184 30.2213,15.0144 30.2213,13.6894 C30.2213,12.7064 30.0613,11.9054 29.8073,11.2504 C29.5513,10.5944 29.1963,10.0834 28.8033,9.6834 C28.0153,8.8834 27.0593,8.5264 26.4003,8.3694 C25.9563,8.2654 25.6713,8.2484 25.6153,8.2474 L25.6153,8.5264 L25.6253,8.2474 L25.2413,8.2334 L25.2313,8.5124 L25.5103,8.5124 L25.5103,8.5104 L25.5103,8.2354 L25.1033,8.2294 L25.1003,8.2294 C24.6013,8.2294 23.7893,8.2704 22.8403,8.4754 L22.8993,8.7474 L23.1723,8.6894 L23.0093,7.9264 L22.7353,7.9844 L22.7953,8.2574 C23.7623,8.0494 24.5903,8.0074 25.1003,8.0074 L25.2183,8.0084 L25.5233,8.0114 L25.4983,7.7064 C25.4713,7.3804 25.4063,6.8894 25.2493,6.3204 C24.9943,5.3954 24.4973,4.2684 23.5343,3.3184 C22.8913,2.6874 22.0423,2.1294 20.9113,1.7624 C19.9513,1.4494 19.0713,1.3184 18.2713,1.3184 C17.2573,1.3184 16.3693,1.5284 15.6063,1.8444 C14.8433,2.1614 14.2043,2.5854 13.6903,3.0124 C13.1763,3.4394 12.7873,3.8694 12.5223,4.1994 C12.2563,4.5334 12.1243,4.7504 12.1003,4.7904 L12.3453,4.9264 L12.1043,4.7834 L12.0283,4.9124 L11.9273,4.8024 L11.9223,4.7974 L11.9113,4.7864 L11.7143,4.9834 L11.9143,4.7894 L11.8803,4.7544 L11.8753,4.7494 L11.7233,4.6084 L11.7203,4.6074 L11.7183,4.6054 C11.5783,4.4834 11.3733,4.3194 11.1123,4.1574 C10.5913,3.8334 9.8503,3.5124 8.9603,3.5124 C8.2443,3.5124 7.4283,3.7204 6.5473,4.3144 C5.8503,4.7834 5.4393,5.3844 5.2023,5.9854 C4.9633,6.5914 4.8983,7.2004 4.8983,7.6824 C4.8993,8.2304 4.9793,8.5954 4.9873,8.6294 L5.2583,8.5614 L4.9863,8.6234 L5.0113,8.7324 L4.9013,8.7554 L4.9623,9.0274 L4.9623,8.7484 L4.9603,8.7484 L4.9233,8.7484 L4.8803,8.7614 L4.8243,8.7754 L4.8143,8.7774 L4.5853,8.8524 L4.5813,8.8534 L4.5763,8.8554 C4.3743,8.9284 4.0913,9.0474 3.7763,9.2314 C3.1473,9.5994 2.3923,10.2224 1.8913,11.2524 C1.5553,11.9384 1.3303,12.8084 1.3303,13.9074 C1.3303,14.9924 1.6303,15.8624 2.0793,16.5604 C2.5293,17.2584 3.1333,17.7864 3.7403,18.1804 C4.8473,18.8984 5.9613,19.1664 6.1813,19.2144 L6.2093,19.2204 L24.9343,19.2204 L24.9403,19.2204 L24.9523,19.2204 L25.0143,19.2154 L25.0163,19.2154 L25.2163,19.1924 L25.2213,19.1924 C25.4013,19.1694 25.6563,19.1274 25.9583,19.0534 C26.5623,18.9064 27.3473,18.6324 28.0783,18.1274 C28.5633,17.7914 29.0273,17.3534 29.3963,16.7804 L29.1623,16.6294 Z M29.9343,10.3584 L30.1783,10.2204 C29.8003,9.5574 29.3233,9.0484 28.8263,8.6664 L28.8273,8.6664 C28.0823,8.0914 27.3003,7.7974 26.7053,7.6424 C26.4433,7.5744 26.2203,7.5344 26.0463,7.5094 L26.0063,7.7854 L26.2843,7.7674 C26.2493,7.2304 26.1203,6.1874 25.6203,5.0314 C25.2953,4.2784 24.8073,3.4794 24.0823,2.7644 C23.3563,2.0484 22.3943,1.4244 21.1523,1.0214 C20.1203,0.6844 19.1573,0.5394 18.2713,0.5394 C17.1313,0.5394 16.1243,0.7794 15.2663,1.1424 C13.9813,1.6844 13.0323,2.4874 12.4003,3.1544 C12.1013,3.4704 11.8753,3.7554 11.7153,3.9724 L11.9393,4.1384 L12.1173,3.9234 C11.9633,3.7944 11.7663,3.6474 11.5243,3.4964 C10.9203,3.1204 10.0403,2.7334 8.9603,2.7324 C8.0853,2.7314 7.1033,2.9944 6.1093,3.6694 L6.1103,3.6684 C5.2723,4.2314 4.7613,4.9764 4.4763,5.7014 C4.1913,6.4264 4.1193,7.1314 4.1193,7.6824 C4.1193,7.9734 4.1403,8.2184 4.1623,8.4064 L4.4393,8.3724 L4.3473,8.1094 C3.9493,8.2494 3.2933,8.5344 2.6223,9.0884 C2.1013,9.5194 1.5783,10.1124 1.1893,10.9104 C0.8023,11.7044 0.5513,12.6954 0.5513,13.9004 L0.5513,13.9034 L0.5523,13.9364 L0.8303,13.9074 L0.5523,13.8874 L0.5513,13.9134 C0.5503,15.1514 0.9043,16.1864 1.4363,17.0024 C2.2383,18.2284 3.3993,18.9614 4.3433,19.3994 C5.2873,19.8344 6.0413,19.9824 6.0673,19.9874 L6.0713,19.9884 L6.1133,19.9954 L6.1373,20.0004 L24.9553,20.0004 L24.9653,20.0004 L24.9793,20.0004 L24.9943,19.9984 L24.9733,19.8004 L24.9873,19.9994 L24.9943,19.9984 L24.9733,19.8004 L24.9873,19.9994 C25.0703,19.9924 26.4893,19.9174 27.9593,19.1144 C28.7073,18.7044 29.4743,18.0964 30.0523,17.2034 C30.6293,16.3124 31.0003,15.1484 31.0003,13.6944 L30.9233,13.6944 L31.0003,13.6954 L31.0003,13.6944 L30.9233,13.6944 L31.0003,13.6954 L30.7393,13.6914 L30.9953,13.7404 L31.0003,13.6954 L30.7393,13.6914 L30.9953,13.7404 L31.0003,13.7154 L31.0003,13.6884 L31.0003,13.6774 L30.8543,13.6814 L31.0003,13.6814 L31.0003,13.6774 L30.8543,13.6814 L31.0003,13.6814 C31.0003,12.2424 30.6803,11.1004 30.1773,10.2194 L29.9343,10.3584 L29.6923,10.4964 C30.1423,11.2844 30.4413,12.3244 30.4413,13.6814 L30.4413,13.6914 L30.5873,13.6884 L30.4413,13.6884 L30.4413,13.6914 L30.5873,13.6884 L30.4413,13.6884 L30.7213,13.6884 L30.4463,13.6354 L30.4413,13.6874 L30.4413,13.6944 C30.4403,15.0544 30.0993,16.1034 29.5833,16.9004 C29.0653,17.6994 28.3773,18.2494 27.6913,18.6244 C27.0053,18.9994 26.3233,19.2044 25.8103,19.3154 C25.5553,19.3704 25.3413,19.4014 25.1903,19.4194 C25.0343,19.4384 24.9683,19.4414 24.9363,19.4424 L24.9653,19.7214 L24.9653,19.4424 L24.9553,19.4424 L6.1853,19.4424 L6.1733,19.4404 L6.1253,19.7144 L6.1823,19.4414 C6.1663,19.4384 5.4673,19.3024 4.5773,18.8924 C3.6893,18.4824 2.6223,17.7994 1.9043,16.6964 C1.4283,15.9654 1.1093,15.0454 1.1083,13.9134 L0.9103,13.9134 L1.1083,13.9274 L1.1083,13.9134 L0.9103,13.9134 L1.1083,13.9274 L1.1093,13.9024 L1.1073,13.8784 L0.8683,13.9034 L1.1083,13.9034 L1.1073,13.8784 L0.8683,13.9034 L1.1083,13.9034 L1.1083,13.9004 C1.1093,12.7734 1.3423,11.8704 1.6913,11.1544 C2.0413,10.4374 2.5103,9.9054 2.9773,9.5194 C3.5823,9.0194 4.1783,8.7604 4.5313,8.6364 L4.7433,8.5624 L4.7163,8.3394 C4.6953,8.1694 4.6773,7.9464 4.6773,7.6824 C4.6773,7.1814 4.7443,6.5454 4.9953,5.9054 C5.2473,5.2684 5.6863,4.6264 6.4223,4.1314 L6.4233,4.1314 C7.3343,3.5154 8.1963,3.2904 8.9603,3.2894 C9.9033,3.2904 10.6843,3.6314 11.2293,3.9704 C11.4463,4.1064 11.6243,4.2384 11.7613,4.3534 L11.9883,4.5404 L12.1643,4.3034 C12.3133,4.1014 12.5253,3.8344 12.8063,3.5384 C13.3993,2.9114 14.2903,2.1584 15.4833,1.6564 C16.2793,1.3204 17.2103,1.0974 18.2713,1.0974 C19.0963,1.0974 19.9993,1.2324 20.9793,1.5514 C22.1413,1.9304 23.0243,2.5054 23.6893,3.1614 C24.3553,3.8174 24.8063,4.5544 25.1073,5.2534 C25.5733,6.3274 25.6953,7.3094 25.7273,7.8034 L25.7423,8.0284 L25.9663,8.0614 C26.1243,8.0844 26.3273,8.1204 26.5643,8.1824 C27.1083,8.3244 27.8193,8.5934 28.4853,9.1084 L28.4863,9.1084 C28.9313,9.4504 29.3543,9.9024 29.6923,10.4954 L29.9343,10.3584 Z" id="Fill-14" fill="#202951" mask="url(#mask-2)"></path>
                    </g>
                    <polyline id="Fill-1" fill="#202951" points="22.4943 54.3598 36.4203 38.4688 35.5803 37.7338 21.6553 53.6248"></polyline>
                    <path d="M46.2863,29.6362 C46.2863,27.8842 41.5633,26.4632 35.7393,26.4632 C29.9143,26.4632 25.1923,27.8842 25.1923,29.6362 C25.1923,31.3892 29.9143,32.8102 35.7393,32.8102 C41.5633,32.8102 46.2863,31.3892 46.2863,29.6362" id="Fill-17" fill="#F75821"></path>
                    <path d="M46.2863,47.4966 C46.2863,45.7436 41.5633,44.3226 35.7393,44.3226 C29.9143,44.3226 25.1923,45.7436 25.1923,47.4966 C25.1923,49.2496 29.9143,50.6706 35.7393,50.6706 C41.5633,50.6706 46.2863,49.2496 46.2863,47.4966" id="Fill-19" fill="#F75821"></path>
                    <polygon id="Fill-21" fill="#F75821" points="25.193 47.893 46.812 47.893 46.812 29.461 25.193 29.461"></polygon>
                    <path d="M36.0002,50.1811 C30.1202,50.1811 26.5932,48.8751 25.8482,47.9441 L25.8352,42.6701 C27.3842,43.8911 31.3662,44.7601 35.9992,44.7601 C40.6202,44.7601 44.5952,43.8961 46.1522,42.6811 L46.1522,47.9451 C45.4042,48.8771 41.8762,50.1811 36.0002,50.1811 Z M36.0002,26.8611 C42.6902,26.8611 46.1882,28.5541 46.1882,29.4611 C46.1882,30.3691 42.6902,32.0611 36.0002,32.0611 C29.3102,32.0611 25.8112,30.3691 25.8112,29.4611 C25.8112,28.5541 29.3102,26.8611 36.0002,26.8611 Z M25.8172,35.8271 L25.8042,30.5211 C27.2782,31.7771 31.2802,32.6791 36.0002,32.6791 C40.6762,32.6791 44.6462,31.7931 46.1522,30.5561 L46.1522,35.8641 C45.4042,36.7971 41.8762,38.1021 36.0002,38.1021 C30.0492,38.1021 26.5032,36.7631 25.8172,35.8271 Z M36.0002,38.7201 C40.6202,38.7201 44.5942,37.8571 46.1522,36.6411 L46.1522,41.9031 C45.4062,42.8361 41.8772,44.1411 35.9992,44.1411 C30.0852,44.1411 26.5502,42.8201 25.8332,41.8851 L25.8192,36.6171 C27.3562,37.8441 31.3502,38.7201 36.0002,38.7201 Z M46.8112,41.8521 L46.8092,35.8181 L46.8122,35.8131 L46.8092,35.8131 L46.8082,29.4611 C46.8082,27.6831 41.9692,26.2431 36.0002,26.2431 C30.0302,26.2431 25.1922,27.6831 25.1922,29.4611 L25.1912,35.8131 L25.1892,35.8131 L25.1912,35.8171 L25.1902,41.8521 L25.1882,41.8521 L25.1902,41.8561 L25.1892,47.8931 C25.7142,49.5241 30.3832,50.8001 36.0002,50.8001 C41.6162,50.8001 46.2862,49.5241 46.8122,47.8931 L46.8112,41.8541 L46.8112,41.8521 Z" id="Fill-23" fill="#202951"></path>
                    <path d="M36.0002,50.1811 L36.0002,50.0411 C33.0702,50.0411 30.7292,49.7161 29.0332,49.2771 C27.3392,48.8411 26.2822,48.2731 25.9572,47.8561 L25.8482,47.9441 L25.9872,47.9431 L25.9742,42.6701 L25.8352,42.6701 L25.7482,42.7801 C27.3582,44.0391 31.3452,44.8951 35.9992,44.9001 C40.6412,44.8951 44.6202,44.0441 46.2382,42.7911 L46.1522,42.6811 L46.0132,42.6811 L46.0132,47.9451 L46.1522,47.9451 L46.0432,47.8571 C45.7162,48.2751 44.6592,48.8431 42.9642,49.2781 C41.2682,49.7171 38.9282,50.0411 36.0002,50.0411 L36.0002,50.1811 L36.0002,50.3211 C38.9482,50.3211 41.3112,49.9941 43.0342,49.5481 C44.7602,49.0971 45.8412,48.5471 46.2612,48.0321 L46.2922,47.9931 L46.2922,42.3961 L46.0662,42.5721 C44.5692,43.7471 40.6002,44.6251 35.9992,44.6201 C31.3872,44.6251 27.4092,43.7431 25.9212,42.5611 L25.6942,42.3821 L25.7082,47.9931 L25.7382,48.0311 C26.1572,48.5451 27.2372,49.0961 28.9632,49.5471 C30.6872,49.9941 33.0502,50.3211 36.0002,50.3211 L36.0002,50.1811 Z M36.0002,26.8611 L36.0002,27.0001 C39.3332,27.0001 41.8682,27.4231 43.5622,27.9541 C44.4072,28.2191 45.0442,28.5131 45.4602,28.7881 C45.8812,29.0621 46.0582,29.3271 46.0492,29.4611 C46.0582,29.5951 45.8812,29.8611 45.4602,30.1341 C44.2072,30.9671 40.9982,31.9241 36.0002,31.9221 C32.6672,31.9221 30.1322,31.4991 28.4382,30.9681 C27.5922,30.7031 26.9552,30.4101 26.5392,30.1341 C26.1172,29.8611 25.9402,29.5951 25.9502,29.4611 C25.9402,29.3271 26.1172,29.0621 26.5392,28.7881 C27.7922,27.9551 31.0022,26.9981 36.0002,27.0001 L36.0002,26.8611 L36.0002,26.7221 C32.6432,26.7221 30.0832,27.1461 28.3542,27.6871 C27.4902,27.9591 26.8342,28.2591 26.3852,28.5561 C25.9412,28.8551 25.6812,29.1411 25.6712,29.4611 C25.6812,29.7821 25.9412,30.0681 26.3852,30.3671 C27.7282,31.2511 30.9632,32.1991 36.0002,32.2011 C39.3562,32.2011 41.9162,31.7771 43.6452,31.2351 C44.5092,30.9631 45.1652,30.6631 45.6142,30.3671 C46.0582,30.0681 46.3182,29.7821 46.3272,29.4611 C46.3182,29.1411 46.0582,28.8551 45.6142,28.5561 C44.2712,27.6711 41.0372,26.7241 36.0002,26.7221 L36.0002,26.8611 Z M25.8172,35.8271 L25.9572,35.8271 L25.9432,30.5211 L25.8042,30.5211 L25.7142,30.6271 C27.2532,31.9271 31.2592,32.8141 36.0002,32.8191 C40.6962,32.8141 44.6722,31.9431 46.2412,30.6631 L46.1522,30.5561 L46.0132,30.5561 L46.0132,35.8641 L46.1522,35.8641 L46.0432,35.7771 C45.7162,36.1951 44.6592,36.7631 42.9642,37.1981 C41.2682,37.6371 38.9282,37.9621 36.0002,37.9621 C33.0352,37.9621 30.6722,37.6281 28.9702,37.1801 C27.2702,36.7381 26.2242,36.1581 25.9302,35.7451 L25.8172,35.8271 L25.9572,35.8271 L25.8172,35.8271 L25.7052,35.9101 C26.0972,36.4331 27.1672,36.9901 28.8982,37.4511 C30.6292,37.9061 33.0142,38.2421 36.0002,38.2421 C38.9482,38.2421 41.3112,37.9141 43.0342,37.4681 C44.7602,37.0171 45.8412,36.4661 46.2612,35.9511 L46.2922,35.9121 L46.2922,30.2601 L46.0632,30.4491 C44.6212,31.6441 40.6542,32.5451 36.0002,32.5401 C31.3012,32.5451 27.3042,31.6261 25.8952,30.4141 L25.6642,30.2181 L25.6782,35.8731 L25.7052,35.9101 L25.8172,35.8271 Z M36.0002,38.7201 L36.0002,38.8601 C40.6412,38.8551 44.6182,38.0041 46.2382,36.7511 L46.1522,36.6411 L46.0132,36.6411 L46.0132,41.9031 L46.1522,41.9031 L46.0432,41.8161 C45.7172,42.2341 44.6602,42.8021 42.9652,43.2371 C41.2692,43.6761 38.9282,44.0011 35.9992,44.0011 C33.0532,44.0011 30.7012,43.6721 29.0022,43.2291 C27.3052,42.7891 26.2542,42.2161 25.9432,41.8001 L25.8332,41.8851 L25.9722,41.8851 L25.9592,36.6171 L25.8192,36.6171 L25.7322,36.7261 C27.3312,37.9931 31.3282,38.8551 36.0002,38.8601 L36.0002,38.7201 L36.0002,38.5801 C31.3702,38.5851 27.3822,37.6961 25.9062,36.5081 L25.6792,36.3271 L25.6932,41.9331 L25.7222,41.9701 C26.1282,42.4901 27.2032,43.0431 28.9322,43.4981 C30.6582,43.9501 33.0312,44.2811 35.9992,44.2811 C38.9482,44.2811 41.3112,43.9531 43.0352,43.5071 C44.7612,43.0561 45.8422,42.5051 46.2612,41.9901 L46.2922,41.9521 L46.2922,36.3551 L46.0662,36.5311 C44.5682,37.7081 40.6002,38.5851 36.0002,38.5801 L36.0002,38.7201 Z M46.8112,41.8521 L46.9502,41.8521 L46.9482,35.8181 L46.8092,35.8181 L46.9282,35.8901 L46.9322,35.8841 L47.0582,35.6731 L46.9472,35.6731 L46.9472,29.4611 C46.9452,28.9481 46.6022,28.4911 46.0382,28.0941 C44.3432,26.9071 40.4962,26.1061 36.0002,26.1031 C33.0042,26.1031 30.2922,26.4641 28.3172,27.0521 C27.3312,27.3461 26.5272,27.6961 25.9622,28.0941 C25.3982,28.4911 25.0552,28.9481 25.0532,29.4611 L25.0522,35.8131 L25.1912,35.8131 L25.1912,35.6731 L25.1892,35.6731 L24.9642,35.6731 L25.0522,35.8501 L25.0512,41.8521 L25.1902,41.8521 L25.1902,41.7121 L25.1882,41.7121 L24.9632,41.7121 L25.0512,41.8891 L25.0502,47.9141 L25.0572,47.9361 C25.3672,48.8511 26.7012,49.5581 28.6482,50.0931 C30.6002,50.6201 33.1812,50.9401 36.0002,50.9401 C38.8182,50.9401 41.4002,50.6201 43.3522,50.0931 C45.2992,49.5581 46.6332,48.8511 46.9442,47.9361 L46.9512,47.9151 L46.9502,41.8541 L46.9502,41.8521 L46.8112,41.8521 L46.6712,41.8521 L46.6712,41.8541 L46.6722,47.8931 L46.8122,47.8931 L46.6792,47.8501 C46.4652,48.5671 45.2012,49.3121 43.2782,49.8241 C41.3592,50.3421 38.7982,50.6611 36.0002,50.6601 C33.2022,50.6611 30.6402,50.3421 28.7222,49.8241 C26.7992,49.3121 25.5352,48.5671 25.3222,47.8501 L25.1892,47.8931 L25.3292,47.8931 L25.3302,41.8231 L25.3122,41.7891 L25.1882,41.8521 L25.1882,41.9921 L25.1902,41.9921 L25.3292,41.9921 L25.3312,35.7841 L25.3142,35.7501 L25.1892,35.8131 L25.1892,35.9521 L25.1912,35.9521 L25.3312,35.9521 L25.3322,29.4611 C25.3302,29.0861 25.5922,28.6961 26.1222,28.3231 C27.7082,27.1991 31.5422,26.3781 36.0002,26.3821 C38.9732,26.3821 41.6642,26.7421 43.6022,27.3191 C44.5702,27.6071 45.3512,27.9511 45.8782,28.3231 C46.4082,28.6961 46.6702,29.0861 46.6682,29.4611 L46.6692,35.9521 L46.8122,35.9521 L46.8122,35.8131 L46.6922,35.7411 L46.6882,35.7461 L46.6692,35.7791 L46.6712,41.8521 L46.8112,41.8521 Z" id="Fill-24" fill="#202951"></path>
                    <polygon id="Fill-25" fill="#202951" points="35.7394 22.771 35.1814 22.771 35.1814 26.463 36.2984 26.463 36.2984 22.771 36.2984 19.08 35.1814 19.08 35.1814 22.771 35.7394 22.771 36.2984 22.771 36.2984 19.08 35.1814 19.08 35.1814 22.771 35.1814 26.463 36.2984 26.463 36.2984 22.771"></polygon>
                    <rect id="Rectangle" fill="#202951" x="36" y="19" width="1" height="8"></rect>
                </g>
            </g>
        </g>
    </g>
</svg>