<?xml version="1.0" encoding="UTF-8"?>
<svg width="12px" height="15px" viewBox="0 0 12 15" version="1.1" xmlns="http://www.w3.org/2000/svg" xmlns:xlink="http://www.w3.org/1999/xlink">
    <!-- Generator: Sketch 51.3 (57544) - http://www.bohemiancoding.com/sketch -->
    <title>icn-download</title>
    <desc>Created with Sketch.</desc>
    <defs></defs>
    <g id="Page-1" stroke="none" stroke-width="1" fill="#FF6E42" fill-rule="evenodd">
        <g id="Desktop-HD" transform="translate(-295.000000, -770.000000)" fill="#FF6E42">
            <g id="03-MEET" transform="translate(-827.000000, 171.000000)">
                <g id="03-Get-Updates" transform="translate(1120.000000, 453.000000)">
                    <g id="icons" transform="translate(0.000000, 145.000000)">
                        <path d="M9.92161786,1.50713343 L9.92161786,6.96050488 L11.9474645,6.96050488 C13.0416535,6.96050488 13.3306987,7.61760265 12.5871002,8.42817383 L8.66911402,12.6990363 C8.30240033,13.0987784 7.70049642,13.1018611 7.33104058,12.6990363 L3.41396488,8.42817383 C2.66932304,7.61627659 2.957054,6.96050488 4.05391349,6.96050488 L5.96640766,6.96050488 L5.96640766,1.50713343 C5.96640766,1.22705137 6.17905694,1 6.45139406,1 L9.43663146,1 C9.70448205,1 9.92161786,1.22652889 9.92161786,1.50713343 Z M3,14 L13,14 C13.5522847,14 14,14.4477153 14,15 C14,15.5522847 13.5522847,16 13,16 L3,16 C2.44771525,16 2,15.5522847 2,15 C2,14.4477153 2.44771525,14 3,14 Z" id="icn-download"></path>
                    </g>
                </g>
            </g>
        </g>
    </g>
</svg>