<?xml version="1.0" encoding="UTF-8"?>
<svg width="61px" height="72px" viewBox="0 0 61 72" version="1.1" xmlns="http://www.w3.org/2000/svg" xmlns:xlink="http://www.w3.org/1999/xlink">
    <!-- Generator: Sketch 55.2 (78181) - https://sketchapp.com -->
    <title>EnterpriseGrade-light</title>
    <desc>Created with Sketch.</desc>
    <g id="YugaWeb-v2" stroke="none" stroke-width="1" fill="none" fill-rule="evenodd">
        <g id="02-enterprise-desktop-subhover1" transform="translate(-540.000000, -530.000000)">
            <g id="subm" transform="translate(-2.000000, 510.000000)">
                <g id="CONTENT2" transform="translate(541.000000, 20.000000)">
                    <g id="EnterpriseGrade-light" transform="translate(0.500000, 0.000000)">
                        <path d="M31.0595979,1.14698899 C21.773389,10.1501866 10.2210817,11.7975892 2.05870056,11.8596336 L2.05870056,11.863266 L2.04908723,11.863266 C2.01727081,13.8128578 1.9994,15.6988891 1.9994,17.5245 C1.9974,32.6535 3.1984,43.5615 7.4074,51.8815 C11.6134,60.1985 18.6024,65.9405 30.8594,70.9475 L30.9104,70.9235 C43.1664,65.9175 50.3764,60.0855 54.5824,51.7685 C58.7914,43.4485 59.9924,32.5405 59.9894,17.4115 C59.9894,15.5860426 59.972383,13.700175 59.9414885,11.7499731 L59.9373932,11.7480316 L59.9369361,11.7466707 C51.8079676,11.6855081 40.3162228,10.0529225 31.0485035,1.14817004 C31.0522124,1.14781275 31.0559106,1.14741895 31.0595979,1.14698899 Z M30.5980017,0.207913921 C30.6710935,0.133202541 30.7651226,0.0790580999 30.8705985,0.0549710035 C31.0569556,-0.0405559926 31.2916506,-0.0110463271 31.4494,0.1435 C40.6804,9.2225 52.3054,10.7475 60.4334,10.7485 C60.7064,10.7485 60.9284,10.9665 60.9334,11.2395 C60.9694,13.3705 60.9894,15.4255 60.9894,17.4115 C60.9874,32.5855 59.8054,43.6405 55.4754,52.2195 C51.1434,60.8015 43.6574,66.8065 31.2884,71.8495 L31.3384,71.8265 L31.1304,71.9395 C30.9984,72.0105 30.8414,72.0195 30.7024,71.9625 C18.3324,66.9195 10.8474,60.9165 6.5144,52.3335 C2.1844,43.7535 1.0024,32.6985 0.9994,17.5245 C0.9994,15.5395 1.0204,13.4835 1.0574,11.3525 C1.0614,11.0805 1.2844,10.8615 1.5574,10.8615 C9.6844,10.8605 21.3104,9.3355 30.5404,0.2565 C30.5586367,0.238633566 30.5779018,0.222438206 30.5980017,0.207913921 Z" id="Combined-Shape" fill="#8F94A8"></path>
                        <polygon id="Fill-4" fill="#D6DDE4" points="18.138 49.6609 43.852 49.6609 43.852 30.5409 18.138 30.5409"></polygon>
                        <polygon id="Fill-6" fill="#8F94A8" points="43.8519 49.6612 43.8519 49.1612 18.6379 49.1612 18.6379 31.0412 43.3519 31.0412 43.3519 49.6612 43.8519 49.6612 43.8519 49.1612 43.8519 49.6612 44.3519 49.6612 44.3519 30.0412 17.6379 30.0412 17.6379 50.1612 44.3519 50.1612 44.3519 49.6612"></polygon>
                        <path d="M42.8519,52.959 L42.8519,52.459 L19.1379,52.459 C18.8629,52.458 18.6389,52.234 18.6379,51.959 L18.6379,50.161 L43.3519,50.161 L43.3519,51.959 C43.3519,52.234 43.1269,52.458 42.8519,52.459 L42.8519,52.959 L42.8519,53.459 C43.6809,53.458 44.3519,52.787 44.3519,51.959 L44.3519,49.161 L17.6379,49.161 L17.6379,51.959 C17.6389,52.787 18.3089,53.458 19.1379,53.459 L42.8519,53.459 L42.8519,52.959 Z" id="Fill-7" fill="#8F94A8"></path>
                        <polygon id="Fill-8" fill="#8F94A8" points="37.9369 30.541 37.9369 28.137 37.9369 25.253 36.9369 25.253 36.9369 30.541"></polygon>
                        <path d="M37.9369,25.253 C37.9369,21.546 34.9319,18.541 31.2249,18.541 C27.5179,18.541 24.5129,21.546 24.5129,25.253 L24.5129,26.434 C24.5129,26.71 24.7359,26.934 25.0129,26.934 C25.2889,26.934 25.5129,26.71 25.5129,26.434 L25.5129,25.253 C25.5129,23.674 26.1509,22.249 27.1859,21.214 C28.2209,20.18 29.6459,19.541 31.2249,19.541 C32.8039,19.541 34.2289,20.18 35.2639,21.214 C36.2979,22.249 36.9369,23.674 36.9369,25.253 C36.9369,25.529 37.1609,25.753 37.4369,25.753 C37.7129,25.753 37.9369,25.529 37.9369,25.253" id="Fill-9" fill="#8F94A8"></path>
                        <path d="M33.43,40.1016 C33.43,42.3156 32.34,44.1116 30.995,44.1116 C29.65,44.1116 28.56,42.3156 28.56,40.1016 C28.56,37.8866 29.65,36.0906 30.995,36.0906 C32.34,36.0906 33.43,37.8866 33.43,40.1016" id="Fill-10" fill="#D6DDE4"></path>
                        <path d="M33.43,40.1016 L32.93,40.1016 C32.931,41.1256 32.673,42.0476 32.289,42.6766 C32.098,42.9926 31.878,43.2326 31.657,43.3856 C31.434,43.5396 31.218,43.6106 30.995,43.6116 C30.771,43.6106 30.555,43.5396 30.333,43.3856 C30,43.1576 29.672,42.7276 29.438,42.1536 C29.203,41.5806 29.059,40.8706 29.06,40.1016 C29.058,39.0766 29.317,38.1546 29.701,37.5256 C29.891,37.2096 30.112,36.9696 30.333,36.8166 C30.555,36.6626 30.771,36.5916 30.995,36.5905952 C31.218,36.5916 31.434,36.6626 31.657,36.8166 C31.989,37.0456 32.317,37.4746 32.552,38.0486 C32.787,38.6226 32.93,39.3326 32.93,40.1016 L33.43,40.1016 L33.93,40.1016 C33.929,38.9126 33.641,37.8286 33.144,37.0056 C32.894,36.5956 32.59,36.2476 32.228,35.9966 C31.868,35.7446 31.444,35.5896 30.995,35.5905952 C30.546,35.5896 30.121,35.7446 29.761,35.9966 C29.22,36.3756 28.804,36.9636 28.513,37.6686 C28.223,38.3766 28.06,39.2086 28.06,40.1016 C28.061,41.2906 28.348,42.3736 28.846,43.1966 C29.095,43.6066 29.4,43.9546 29.761,44.2056 C30.121,44.4576 30.546,44.6126 30.995,44.6116048 C31.444,44.6126 31.868,44.4576 32.228,44.2056 C32.77,43.8266 33.186,43.2396 33.477,42.5336 C33.766,41.8256 33.93,40.9936 33.93,40.1016 L33.43,40.1016 Z" id="Fill-11" fill="#8F94A8"></path>
                    </g>
                </g>
            </g>
        </g>
    </g>
</svg>