<svg xmlns="http://www.w3.org/2000/svg" viewBox="0 0 35.88 46"><defs><style>.cls-1{fill:#ff6e42;}.cls-2{fill:#b1ddf1;}.cls-3{fill:#322965;}.cls-4{fill:#fff;}</style></defs><title>f2</title><g id="Layer_2" data-name="Layer 2"><g id="Layer_1-2" data-name="Layer 1"><path class="cls-1" d="M35.38,6.31h-.5a1.71,1.71,0,0,1-.28.9,5.18,5.18,0,0,1-2,1.67c-2.92,1.61-8.41,2.74-14.67,2.73A40.12,40.12,0,0,1,5.77,9.94,11.73,11.73,0,0,1,2.18,8.17a3.6,3.6,0,0,1-.9-1A1.71,1.71,0,0,1,1,6.31a1.72,1.72,0,0,1,.28-.91,5.3,5.3,0,0,1,2-1.67C6.19,2.12,11.68,1,17.94,1A40.09,40.09,0,0,1,30.11,2.68,12,12,0,0,1,33.7,4.44a3.6,3.6,0,0,1,.9,1,1.72,1.72,0,0,1,.28.91h1a2.78,2.78,0,0,0-.43-1.44,6.14,6.14,0,0,0-2.36-2C29.9,1.12,24.32,0,17.94,0A40.91,40.91,0,0,0,5.45,1.73,13.05,13.05,0,0,0,1.56,3.65,4.94,4.94,0,0,0,.43,4.87,2.78,2.78,0,0,0,0,6.31,2.75,2.75,0,0,0,.43,7.74a6.28,6.28,0,0,0,2.35,2c3.2,1.74,8.78,2.85,15.16,2.85a41.25,41.25,0,0,0,12.49-1.72A13.05,13.05,0,0,0,34.32,9a4.94,4.94,0,0,0,1.13-1.22,2.75,2.75,0,0,0,.43-1.43Z"/><path class="cls-1" d="M28.84,33.61a16.88,16.88,0,0,0,5-2.05,5.7,5.7,0,0,0,1.47-1.36,2.85,2.85,0,0,0,.56-1.64.5.5,0,1,0-1,0,1.81,1.81,0,0,1-.38,1.06,5.92,5.92,0,0,1-2.12,1.64,19.48,19.48,0,0,1-3.79,1.39.5.5,0,0,0-.36.61.5.5,0,0,0,.61.35Z"/><path class="cls-1" d="M8.67,21.84a19.17,19.17,0,0,1-5.7-2,5.45,5.45,0,0,1-1.5-1.23A1.84,1.84,0,0,1,1,17.44a.49.49,0,0,0-.15-.36.5.5,0,0,0-.35-.14.5.5,0,0,0-.35.14.49.49,0,0,0-.15.36V28.56A2.85,2.85,0,0,0,.56,30.2,6.94,6.94,0,0,0,3,32.15a19.23,19.23,0,0,0,4,1.46.5.5,0,0,0,.61-.35.5.5,0,0,0-.36-.61,15.86,15.86,0,0,1-4.7-1.92,4.58,4.58,0,0,1-1.21-1.11A1.81,1.81,0,0,1,1,28.56V17.44a.49.49,0,0,0-.15-.36.5.5,0,0,0-.35-.14.5.5,0,0,0-.35.14.49.49,0,0,0-.15.36,2.86,2.86,0,0,0,.69,1.79,8,8,0,0,0,3,2.1,23.49,23.49,0,0,0,4.78,1.49.5.5,0,0,0,.6-.38.52.52,0,0,0-.39-.6Z"/><path class="cls-1" d="M0,6.31V39.69a2.78,2.78,0,0,0,.43,1.44,6.18,6.18,0,0,0,2.35,2C6,44.88,11.56,46,17.94,46a40.91,40.91,0,0,0,12.49-1.73,13.05,13.05,0,0,0,3.89-1.92,4.94,4.94,0,0,0,1.13-1.22,2.78,2.78,0,0,0,.43-1.44V6.31A.49.49,0,0,0,35.73,6,.51.51,0,0,0,35,6a.49.49,0,0,0-.15.36V17.44a1.89,1.89,0,0,1-.47,1.17,7,7,0,0,1-2.63,1.81,22.7,22.7,0,0,1-4.59,1.43.5.5,0,0,0-.39.59.51.51,0,0,0,.59.39,20.53,20.53,0,0,0,6-2.13,6.33,6.33,0,0,0,1.78-1.46,2.91,2.91,0,0,0,.69-1.8V6.31A.49.49,0,0,0,35.73,6,.51.51,0,0,0,35,6a.49.49,0,0,0-.15.36V39.69a1.72,1.72,0,0,1-.28.91,5.26,5.26,0,0,1-2,1.67C29.69,43.88,24.2,45,17.94,45A40.09,40.09,0,0,1,5.77,43.32a12,12,0,0,1-3.59-1.76,3.6,3.6,0,0,1-.9-1A1.72,1.72,0,0,1,1,39.69V6.31a.5.5,0,0,0-.5-.5.5.5,0,0,0-.5.5Z"/><path class="cls-2" d="M31,29.05a13,13,0,1,1-13-13A13,13,0,0,1,31,29.05Z"/><path class="cls-3" d="M29.15,29.05A11.21,11.21,0,1,1,17.94,17.84,11.21,11.21,0,0,1,29.15,29.05Z"/><path class="cls-4" d="M24.15,24.43s-1.18-.19-1.58.15l-.73.63-.06.06,0,0s-.37,0-.75,0a4.82,4.82,0,0,0-3.06-1.09,4.85,4.85,0,0,0-4.85,4.85,4.74,4.74,0,0,0,.35,1.81,11.82,11.82,0,0,0-1,1,6.72,6.72,0,0,0-.48.67,2.15,2.15,0,0,0-.19.37l-.06.21a.7.7,0,0,0,0,.25l0,.07.05.06.11.09.25.05a2,2,0,0,0,.43-.08,4.24,4.24,0,0,0,.77-.3,12.73,12.73,0,0,0,1.25-.69,4.85,4.85,0,0,0,6.73-.12,4.87,4.87,0,0,0,1.42-3.43,4.62,4.62,0,0,0-.11-1A4.81,4.81,0,0,0,23,26.69l.07-.06.06-.05.7-.61C24.17,25.63,24.15,24.43,24.15,24.43ZM13.26,33.05a4.07,4.07,0,0,1-.72.3,1.68,1.68,0,0,1-.36.08l-.15,0L12,33.34v-.15L12,33a1.58,1.58,0,0,1,.16-.35,5.79,5.79,0,0,1,.42-.67c.27-.38.56-.75.86-1.11a4.78,4.78,0,0,0,1,1.52C14,32.63,13.66,32.85,13.26,33.05Zm7.89-.77a4.56,4.56,0,0,1-6.27.16c.43-.27.85-.56,1.26-.86s.86-.65,1.28-1,.83-.69,1.23-1,.79-.73,1.17-1.11l-1.26,1-1.28,1c-.43.32-.86.64-1.3.95s-.87.6-1.32.88a4.55,4.55,0,0,1,0-6.41,4.57,4.57,0,0,1,5.87-.5.94.94,0,0,0-.34.12l-.27.24-.1.09-.11.1,0,0,.57.66c-.18.16-.05.59.29,1s.74.57.92.41l.58.66h0l.23-.19.11-.1a4.57,4.57,0,0,1-1.28,4Z"/></g></g></svg>