<?xml version="1.0" encoding="UTF-8"?>
<svg width="62px" height="61px" viewBox="0 0 62 61" version="1.1" xmlns="http://www.w3.org/2000/svg" xmlns:xlink="http://www.w3.org/1999/xlink">
    <!-- Generator: sketchtool 59.1 (101010) - https://sketch.com -->
    <title>60C139C8-F4D0-4295-A1F3-F4858DF53FDF</title>
    <desc>Created with sketchtool.</desc>
    <g id="yugaweb" stroke="none" stroke-width="1" fill="none" fill-rule="evenodd">
        <g id="01-HOME" transform="translate(-1027.000000, -2370.000000)" fill-rule="nonzero">
            <g id="icons" transform="translate(140.000000, 2236.000000)">
                <g id="i_100%-Open-Source-under-Apache-v2" transform="translate(886.000000, 134.000000)">
                    <rect id="Rectangle" fill="#B1DDF1" x="1.98" y="34.56" width="12.16" height="24.82" rx="2"></rect>
                    <path d="M10.16,59.38 L10.16,58.38 L6,58.38 C4.35215175,58.3584568 3.02154325,57.0278483 3,55.38 L3,38.56 C3.01090673,36.9076846 4.34768455,35.5709067 6,35.56 L10.16,35.56 C11.8123154,35.5709067 13.1490933,36.9076846 13.16,38.56 L13.16,55.38 C13.1384568,57.0278483 11.8078483,58.3584568 10.16,58.38 L10.16,60.38 C12.9168704,60.3690382 15.1490382,58.1368704 15.16,55.38 L15.16,38.56 C15.16,35.7985763 12.9214237,33.56 10.16,33.56 L6,33.56 C3.24312956,33.5709618 1.01096184,35.8031296 1,38.56 L1,55.38 C1.03239503,58.1278934 3.25210657,60.347605 6,60.38 L10.16,60.38 L10.16,59.38 Z" id="Path" fill="#322965"></path>
                    <path d="M14.72,39.2 L14.72,39.2 C17.4968772,37.4204033 20.7034966,36.4252456 24,36.32 C27.6867159,36.3930992 31.3096539,37.2954158 34.6,38.96 C36.0155735,39.6381631 37.3016187,40.5587008 38.4,41.68 C39.1803624,42.3968907 39.6593232,43.3834069 39.74,44.44 C39.74,44.66 39.74,44.72 39.74,44.76 L39.48,44.92 L39.32,44.92 L39.32,44.92 L39.32,44.92 L39.32,44.92 L39.32,44.92 L27.08,44.92 C26.5321831,44.9306402 26.0906402,45.3721831 26.08,45.92 C26.08,46.4722847 26.5277153,46.92 27.08,46.92 L39.26,46.92 C39.6773627,46.9107074 40.0873659,46.8082066 40.46,46.62 C40.8265824,46.4485755 41.1382127,46.1784958 41.36,45.84 C41.6384281,45.4116852 41.7845086,44.910838 41.7801013,44.4 C41.720909,42.858679 41.0857239,41.3956121 40,40.3 C37.9646837,38.3495811 35.5180317,36.880223 32.84,36 C30.026637,34.9326788 27.0486934,34.3641623 24.04,34.32 C20.3198123,34.4058813 16.6973568,35.5279421 13.58,37.56 C13.1594663,37.8859941 13.0678547,38.4842081 13.3715568,38.9211129 C13.675259,39.3580177 14.2679046,39.4805896 14.72,39.2 L14.72,39.2 Z" id="Path" fill="#322965"></path>
                    <path d="M14,56.5 C14,56.5 18.74,57.28 23.88,58.04 C26.46,58.44 29.12,58.82 31.34,59.12 C33.56,59.42 35.34,59.6 36.22,59.62 C36.9893305,59.5521792 37.7442748,59.3701837 38.46,59.08 C43.1746241,57.2409284 47.7760347,55.1238788 52.24,52.74 C54.72,51.46 57.02,50.2 58.76,49.18 C59.62,48.66 60.36,48.22 60.9,47.84 C61.1468689,47.6782635 61.3808962,47.4977282 61.6,47.3 C61.8283328,47.1326437 62.013455,46.9132397 62.14,46.66 L62.14,46.66 C62.7182504,45.4056924 63.0184431,44.0411801 63.020498,42.66 C63.0285297,41.9159165 62.9274454,41.1746323 62.72,40.46 C62.5201852,39.6923038 62.0041103,39.045393 61.3,38.68 C60.6311534,38.3652603 59.8991012,38.2079033 59.16,38.22 C56.8330047,38.3992487 54.5536419,38.9741621 52.42,39.92 C51.1650752,40.4084248 49.9367114,40.9625237 48.74,41.58 L49.2,42.46 L48.96,41.5 L40.54,43.5 C40.1827344,43.5857437 39.8983511,43.8555731 39.7939746,44.2078461 C39.6895981,44.560119 39.7810855,44.9413169 40.0339746,45.2078461 C40.2868636,45.4743753 40.6627344,45.5857437 41.02,45.5 L49.44,43.5 L49.66,43.5 L49.92,43.36 C50.52,43.06 52.1,42.3 53.92,41.62 C55.5896061,40.9272635 57.3579756,40.5020448 59.16,40.36 C59.5802697,40.3376915 59.9994967,40.4201624 60.38,40.6 C60.589175,40.7037381 60.742591,40.8936817 60.8,41.12 C60.9456486,41.6681352 61.0195986,42.2328443 61.02,42.8 C61.0189412,43.9088606 60.7873754,45.0053926 60.34,46.02 L60.34,46.02 L60.88,46.28 L60.4,45.92 L60.4,45.92 L60.94,46.18 L60.46,45.82 L60.46,45.82 C60.0535907,46.1630426 59.6186835,46.4708231 59.16,46.74 C56.68,48.34 51.46,51.12 46.6,53.48 C44.16,54.66 41.82,55.74 39.92,56.52 C38.98,56.92 38.16,57.22 37.5,57.44 C37.1022844,57.5734112 36.6942312,57.6737521 36.28,57.74 C35.64,57.74 33.86,57.54 31.66,57.26 C28.36,56.82 24.04,56.16 20.54,55.62 L14.38,54.64 C13.835263,54.554902 13.3214998,54.9180795 13.22,55.46 C13.1358121,56.0112809 13.5099725,56.5279785 14.06,56.62 L14,56.5 Z" id="Path" fill="#322965"></path>
                    <path d="M22.24,20.32 L13.5,14.32 C13.254207,14.173265 13.0427773,13.9754759 12.88,13.74 C12.7576732,13.5345912 12.6953184,13.2990287 12.7,13.06 L12.7,12.56 C12.6931032,12.3207103 12.7556189,12.0845397 12.88,11.88 C13.0442103,11.6348404 13.2548404,11.4242103 13.5,11.26 L22.24,5.26 L22.52,5.12 L22.92,4.98 L23.34,5.14 L23.5,5.54 L23.5,6.7 C23.5060407,6.8801473 23.4495033,7.05682676 23.34,7.2 C23.2075836,7.36870063 23.0447851,7.51114927 22.86,7.62 L15.3,12.78 L22.86,18 C23.0469615,18.1218552 23.2153631,18.2700486 23.36,18.44 C23.4567523,18.5809326 23.5058161,18.7491516 23.5,18.92 L23.5,20 C23.5052821,20.155814 23.4476136,20.3071939 23.34,20.42 L22.92,20.58 C22.6761848,20.547447 22.4433377,20.4584172 22.24,20.32 L22.24,20.32 Z" id="Path" fill="#322965"></path>
                    <path d="M26.3,24.82 L26.14,24.42 L26.14,24.1 L35.8,1.1 C35.9165931,0.805649721 36.2034486,0.614412731 36.52,0.619880776 L37.56,0.619880776 L38,0.8 L38.18,1.18 L38.18,1.52 L28.56,24.52 L28.34,24.84 C28.1928983,24.939595 28.0174316,24.9887257 27.84,24.98 L26.84,24.98 L26.3,24.82 Z" id="Path" fill="#322965"></path>
                    <path d="M40.88,20.46 L40.72,20 L40.72,18.84 C40.7141839,18.6691516 40.7632477,18.5009326 40.86,18.36 C41.0046369,18.1900486 41.1730385,18.0418552 41.36,17.92 L48.92,12.74 L41.36,7.6 C41.1752149,7.49114927 41.0124164,7.34870063 40.88,7.18 C40.7704967,7.03682676 40.7139593,6.8601473 40.72,6.68 L40.72,5.52 L40.88,5.12 L41.28,4.96 L41.68,5.1 L41.98,5.24 L50.72,11.24 C50.9651596,11.4042103 51.1757897,11.6148404 51.34,11.86 C51.4643811,12.0645397 51.5268968,12.3007103 51.52,12.54 L51.52,13.02 C51.5246816,13.2590287 51.4623268,13.4945912 51.34,13.7 C51.1772227,13.9354759 50.965793,14.133265 50.72,14.28 L41.98,20.28 C41.7773164,20.4401673 41.535765,20.5436894 41.28,20.58 L40.88,20.46 Z" id="Path" fill="#322965"></path>
                </g>
            </g>
        </g>
    </g>
</svg>