<?xml version="1.0" encoding="UTF-8"?>
<svg width="63px" height="62px" viewBox="0 0 63 62" version="1.1" xmlns="http://www.w3.org/2000/svg" xmlns:xlink="http://www.w3.org/1999/xlink">
    <!-- Generator: sketchtool 59.1 (101010) - https://sketch.com -->
    <title>E3141F05-8D9A-4BD9-BCFB-C8368E1710B3</title>
    <desc>Created with sketchtool.</desc>
    <g id="yugaweb" stroke="none" stroke-width="1" fill="none" fill-rule="evenodd">
        <g id="01-HOME" transform="translate(-141.000000, -2238.000000)" fill-rule="nonzero">
            <g id="icons" transform="translate(140.000000, 2236.000000)">
                <g id="i_Developer-Agility-with-SQL" transform="translate(1.000000, 2.000000)">
                    <path d="M33,1 L33,-2.23536907e-05 L9,-2.23536907e-05 C6.61142291,-0.00532572131 4.31914204,0.941175525 2.63015878,2.63015878 C0.941175525,4.31914204 -0.00532572131,6.61142291 -0.000200882623,9 L-0.000200882623,33 C-0.0160119419,35.3954933 0.925769369,37.6980875 2.61591673,39.3957466 C4.30606409,41.0934057 6.60445923,42.0453888 9,42.0400228 L33,42.0400228 C35.3885771,42.0453257 37.680858,41.0988245 39.3698412,39.4098412 C41.0588245,37.720858 42.0053257,35.4285771 42.0000224,33.04 L42.0000224,9 C42.0053257,6.61142291 41.0588245,4.31914204 39.3698412,2.63015878 C37.680858,0.941175525 35.3885771,-0.00532572131 33,-2.23536907e-05 L33,2 C34.8634363,1.98935162 36.654207,2.72214598 37.9756256,4.03605655 C39.2970442,5.34996711 40.0400304,7.1365333 40.04,9 L40.04,33 C40.04,36.8659932 36.9059932,40 33.04,40 L9,40 C5.13400675,40 2,36.8659932 2,33 L2,9 C2,5.13400675 5.13400675,2 9,2 L33,2 L33,1 Z" id="Path" fill="#322965"></path>
                    <path d="M10.22,26.36 L10.08,26.04 L10.08,24.26 C10.0799057,24.1023635 10.128831,23.9485982 10.22,23.82 C10.349375,23.6745933 10.4973099,23.5468313 10.66,23.44 L16.16,19.76 L10.66,16.08 C10.4973099,15.9731687 10.349375,15.8454067 10.22,15.7 C10.1234295,15.5665256 10.0741608,15.4046425 10.08,15.24 L10.08,13.5 L10.22,13.14 L10.54,13 L11,13.2 L18.7,18.46 C18.8950481,18.5947444 19.0701071,18.7563374 19.22,18.94 C19.3084386,19.106503 19.3564012,19.2915015 19.36,19.48 L19.36,20.04 C19.3595034,20.2316116 19.3039672,20.4190464 19.2,20.58 C19.0607878,20.7607272 18.8916816,20.9163048 18.7,21.04 L11,26.3 L10.54,26.48 L10.22,26.36 Z" id="Path" fill="#322965"></path>
                    <polygon id="Path" fill="#322965" points="21.44 28.88 21.28 28.48 21.28 26.96 21.44 26.56 21.84 26.42 31.38 26.42 31.8 26.58 31.96 26.96 31.96 28.48 31.8 28.88 31.38 29.04 21.84 29.04"></polygon>
                    <path d="M34.74,31.5 C34.74,29.08 40.62,27.12 47.88,27.12 C55.14,27.12 61,29 61,31.5" id="Path" fill="#B1DDF1"></path>
                    <path d="M34.74,31 L34.74,56.5457627 C34.74,58.9661017 40.62,61 47.88,61 C55.14,61 61,58.9661017 61,56.5457627 L61,31" id="Path" fill="#B1DDF1"></path>
                    <path d="M61,31.5 L60,31.5 L59.88,31.86 C59.5483846,32.2966188 59.1160977,32.6465652 58.62,32.88 C55.2371759,34.3498371 51.5651479,35.0336412 47.88,34.88 C44.8745965,34.9138282 41.8811722,34.4958275 39,33.64 C38.1039075,33.3675618 37.259138,32.9485561 36.5,32.4 C36.2904174,32.2522365 36.1077635,32.0695826 35.96,31.86 L35.84,31.5 L35.96,31.14 C36.2892292,30.6960769 36.7217145,30.3391049 37.22,30.1 C40.6151236,28.6474469 44.2896886,27.9644423 47.98,28.1 C51.0128666,28.0467213 54.0355943,28.4650452 56.94,29.34 C57.8381854,29.597549 58.6843078,30.0104568 59.44,30.56 C59.654919,30.7095223 59.8383892,30.8997877 59.98,31.12 L60.1,31.48 L62.1,31.48 C62.0961418,30.9766151 61.9505849,30.4844939 61.68,30.06 C61.1793176,29.3179742 60.4886124,28.7239677 59.68,28.34 C56.0018064,26.7110144 51.9997786,25.9448142 47.98,26.1 C44.7297922,26.0448056 41.4908633,26.4969061 38.38,27.44 C37.260337,27.7730532 36.2053463,28.2937858 35.26,28.98 C34.8710944,29.2842479 34.5334775,29.6488742 34.26,30.06 C33.7008332,30.9168438 33.7008332,32.0231562 34.26,32.88 C34.7651459,33.6230469 35.4542042,34.2225276 36.26,34.62 C39.9435731,36.2526891 43.9545001,37.012438 47.98,36.84 C51.2283215,36.8877068 54.4651024,36.4426494 57.58,35.52 C58.6963555,35.184648 59.7454839,34.6566996 60.68,33.96 C61.0734712,33.6607479 61.4118542,33.2952942 61.68,32.88 C61.9479831,32.4617077 62.0934764,31.9767301 62.1,31.48 L61,31.5 Z" id="Path" fill="#322965"></path>
                    <path d="M33.74,31.5 L33.74,56.62 C33.7438582,57.1233849 33.8894151,57.6155061 34.16,58.04 C34.6651459,58.7830469 35.3542042,59.3825276 36.16,59.78 C39.849673,61.393035 43.8560106,62.1519146 47.88,62 C51.1300091,62.0519479 54.3684387,61.5999171 57.48,60.66 C58.5919654,60.3230899 59.6397526,59.8025763 60.58,59.12 C60.9689056,58.8157521 61.3065225,58.4511258 61.58,58.04 C61.8505849,57.6155061 61.9961418,57.1233849 62,56.62 L62,31.5 C61.9993379,31.2297328 61.8914395,30.9707766 61.7,30.78 C61.3069957,30.409186 60.6930043,30.409186 60.3,30.78 C60.1085605,30.9707766 60.0006621,31.2297328 60,31.5 L60,39.88 L59.88,40.24 C59.5483846,40.6766188 59.1160977,41.0265652 58.62,41.26 C55.2371759,42.7298371 51.5651479,43.4136412 47.88,43.26 C44.8745965,43.2938282 41.8811722,42.8758275 39,42.02 C38.1039075,41.7475618 37.259138,41.3285561 36.5,40.78 C36.2904174,40.6322365 36.1077635,40.4495826 35.96,40.24 L35.84,39.88 C35.8439323,39.6088284 35.7353168,39.3481512 35.54,39.16 C35.1469957,38.789186 34.5330043,38.789186 34.14,39.16 C33.9446832,39.3481512 33.8360677,39.6088284 33.84,39.88 L33.84,48.24 C33.8438582,48.7433849 33.9894151,49.2355061 34.26,49.66 C34.7651459,50.4030469 35.4542042,51.0025276 36.26,51.4 C39.9465591,53.0230901 43.9552315,53.782412 47.98,53.62 C51.2300091,53.6719479 54.4684387,53.2199171 57.58,52.28 C58.6919654,51.9430899 59.7397526,51.4225763 60.68,50.74 C61.0689056,50.4357521 61.4065225,50.0711258 61.68,49.66 C61.9505849,49.2355061 62.0961418,48.7433849 62.1,48.24 C62.1,47.6877153 61.6522847,47.24 61.1,47.24 C60.5477153,47.24 60.1,47.6877153 60.1,48.24 L59.98,48.6 C59.6563929,49.0492238 59.2224243,49.4074202 58.72,49.64 C55.3341538,51.0999381 51.6644041,51.783318 47.98,51.64 C44.9411371,51.6839168 41.9132434,51.2658112 39,50.4 C38.1039075,50.1275618 37.259138,49.7085561 36.5,49.16 C36.285081,49.0104777 36.1016108,48.8202123 35.96,48.6 L35.84,48.24 L35.84,39.88 C35.8439323,39.6088284 35.7353168,39.3481512 35.54,39.16 C35.1469957,38.789186 34.5330043,38.789186 34.14,39.16 C33.9446832,39.3481512 33.8360677,39.6088284 33.84,39.88 C33.8465236,40.3767301 33.9920169,40.8617077 34.26,41.28 C34.7651459,42.0230469 35.4542042,42.6225276 36.26,43.02 C39.9465591,44.6430901 43.9552315,45.402412 47.98,45.24 C51.2283215,45.2877068 54.4651024,44.8426494 57.58,43.92 C58.6931293,43.576591 59.7409359,43.0493077 60.68,42.36 C61.0734712,42.0607479 61.4118542,41.6952942 61.68,41.28 C61.9479831,40.8617077 62.0934764,40.3767301 62.1,39.88 L62.1,31.5 C62.0993379,31.2297328 61.9914395,30.9707766 61.8,30.78 C61.4069957,30.409186 60.7930043,30.409186 60.4,30.78 C60.2085605,30.9707766 60.1006621,31.2297328 60.1,31.5 L60.1,56.62 L59.98,56.98 C59.6563929,57.4292238 59.2224243,57.7874202 58.72,58.02 C55.3341538,59.4799381 51.6644041,60.163318 47.98,60.02 C44.9411371,60.0639168 41.9132434,59.6458112 39,58.78 C38.1039075,58.5075618 37.259138,58.0885561 36.5,57.54 C36.285081,57.3904777 36.1016108,57.2002123 35.96,56.98 L35.84,56.62 L35.84,31.5 C35.84,30.9477153 35.3922847,30.5 34.84,30.5 C34.6086876,30.5 34.2330642,30.3642661 34.0029541,30.6273916 C33.9121768,30.7311934 33.8245254,31.0220628 33.74,31.5 Z" id="Path" fill="#322965"></path>
                </g>
            </g>
        </g>
    </g>
</svg>