<?xml version="1.0" encoding="UTF-8"?>
<svg width="58px" height="62px" viewBox="0 0 58 62" version="1.1" xmlns="http://www.w3.org/2000/svg" xmlns:xlink="http://www.w3.org/1999/xlink">
    <!-- Generator: sketchtool 59.1 (101010) - https://sketch.com -->
    <title>CFD7C7FB-5071-4FB0-AB0C-08811E4CF0CB</title>
    <desc>Created with sketchtool.</desc>
    <g id="yugaweb" stroke="none" stroke-width="1" fill="none" fill-rule="evenodd">
        <g id="01-HOME" transform="translate(-141.000000, -2371.000000)" fill-rule="nonzero">
            <g id="icons" transform="translate(140.000000, 2236.000000)">
                <g id="i_Geo-Distribution-For-Modern-Apps" transform="translate(1.000000, 134.000000)">
                    <path d="M45.32,12.46 L44.76,13.28 L45.28,12.52 L44.52,13.02 L44.76,13.28 L45.28,12.52 L44.52,13.02 L45.24,12.54 L44.36,12.54 L44.52,13.02 L45.24,12.54 L45.12,12.54 L44.44,12.2 L44.44,12.54 L45.2,12.54 L44.52,12.2 L44.88,12.38 L44.58,12.12 L44.58,12.12 L44.94,12.3 L44.64,12.04 L44.44,12.18 C43.2384916,12.9400525 41.9490306,13.5512032 40.6,14 L40.6,14 C39.2116365,14.4111245 37.9651148,15.2005882 37,16.28 C36.7915941,16.573418 36.6296908,16.8972245 36.52,17.24 L36.52,17.36 L36.52,17.36 L37.26,17.62 L36.64,17.16 L36.52,17.36 L37.26,17.62 L36.64,17.16 L37.4,17.72 L36.92,16.92 L36.64,17.16 L37.4,17.72 L36.92,16.92 L37.4,17.74 L37.4,16.8 L36.92,16.94 L37.4,17.76 L37.4,17.66 L37.96,16.98 C37.7995056,16.8575426 37.6017873,16.7939903 37.4,16.8 L37.4,17.66 L37.96,16.98 L37.8,17.18 L37.98,17 L37.98,17 L37.82,17.2 L38,17.02 C38,17.02 37.78,16.78 37.46,16.46 C36.879814,15.8326381 36.2584352,15.2446668 35.6,14.7 C34.9282913,14.1232073 34.0841979,13.7855699 33.2,13.74 C32.3657284,13.7613649 31.5684535,14.0888171 30.96,14.66 L30.96,14.66 C29.8813147,15.6161948 28.9689042,16.7448804 28.26,18 C27.5402797,19.2197206 27.1092751,20.5879892 27,22 C27.0006474,22.2973674 27.0410041,22.5933165 27.12,22.88 L27.12,22.88 C27.2235662,23.3089323 27.4794373,23.6856314 27.84,23.94 C28.3571049,24.2838761 28.9593941,24.4777163 29.58,24.5 C30.42,24.5 31.28,24.5 31.78,24.64 C31.9205831,24.6625666 32.0560282,24.7099724 32.18,24.78 L32.18,24.78 L32.18,24.9 L32.18,24.9 L32.18,24.9 C32.0998582,25.4461477 31.894509,25.9663657 31.58,26.42 C30.8714381,27.518654 30.0466887,28.5378565 29.12,29.46 C28.7,29.92 28.3,30.3 27.98,30.6 L27.6,30.92 L27.48,30.92 L27.48,30.92 L27.7,31.24 L27.5,30.92 L27.5,30.92 L27.72,31.24 L27.52,30.92 L27.52,30.92 C27.2525528,31.0658795 27.0518888,31.309543 26.96,31.6 C26.9326828,31.772257 26.9326828,31.947743 26.96,32.12 C26.9792713,32.5395965 27.0463722,32.9556223 27.16,33.36 C27.48,34.64 28.1,36.2 28.1,36.22 C28.251474,36.6040222 28.6273564,36.8519446 29.04,36.84 L32.88,36.84 C33.3036529,36.8415088 33.7168417,36.708448 34.06,36.46 C34.5559233,36.0608091 34.9643945,35.5638357 35.26,35 C35.8689027,33.7764265 36.3385105,32.4883595 36.66,31.16 L35.7,30.94 L36.22,31.78 L35.94,31.32 L36.2,31.8 L36.2,31.8 L35.92,31.34 L36.18,31.82 L36.28,31.82 L36.46,31.82 L36.72,31.92 C36.9731434,32.2025889 37.1458149,32.547932 37.22,32.92 L37.22,32.92 C37.2990646,33.2645179 37.4564722,33.5861769 37.68,33.86 C37.9359792,34.1987065 38.3354473,34.3984406 38.76,34.4 C39.1180217,34.3945118 39.4635624,34.2675785 39.74,34.04 C40.0942484,33.734246 40.3920982,33.3687031 40.62,32.96 C41.1227168,32.070277 41.5508482,31.1404292 41.9,30.18 L41,30 L41,31 L46.54,30.62 L46.54,29.62 L45.66,30.1 L45.96,29.92 L45.6,30 L45.6,30 L45.9,29.82 L45.6,30 C45.8667695,30.5836135 46.0032644,31.2183147 46,31.86 C45.9968314,32.6854977 45.7686486,33.4945094 45.34,34.2 C44.5858244,35.3477983 43.5447561,36.2785547 42.32,36.9 C39.9249211,38.1708699 37.4134092,39.2089615 34.82,40 C33.8827503,40.3187041 32.9730659,40.7133467 32.1,41.18 C31.2875472,41.621976 30.5996717,42.2617002 30.1,43.04 C28.9631456,44.7936705 28.3396423,46.8304482 28.3,48.92 C28.2532513,50.1449606 28.4929373,51.3639349 29,52.48 C29.6643338,53.615149 30.683258,54.5005589 31.9,55 C33.1506527,55.5912949 34.5166128,55.8986359 35.9,55.9 C37.1658881,55.974312 38.4118767,55.5589824 39.38,54.74 L39.38,54.74 C40.1859265,53.8484126 41.3188703,53.3216298 42.52,53.28 C43.5814593,53.3171379 44.6009307,53.703834 45.42,54.38 C45.7348889,54.6294305 46.0353717,54.8965264 46.32,55.18 L46.56,55.44 L46.56,55.44 L46.56,55.44 C46.7355725,55.6594929 46.9939376,55.7968078 47.2740927,55.8195231 C47.5542478,55.8422384 47.8313599,55.7483406 48.04,55.56 C49.8394431,53.7332569 51.4416035,51.7221769 52.82,49.56 C55.7624831,45.3244439 57.4283526,40.3337767 57.62,35.18 C57.6149163,34.1960847 57.5414056,33.2137143 57.4,32.24 C56.6745247,27.854679 55.1852821,23.6306455 53,19.76 C51.3275004,16.4879533 48.8668669,13.6836559 45.84,11.6 C45.3749655,11.3197846 44.7712955,11.4618246 44.48,11.92 C44.2027487,12.3767025 44.32489,12.9699601 44.76,13.28 L45.32,12.46 L44.82,13.32 C47.5377786,15.2415714 49.7478625,17.7948361 51.26,20.76 C53.3675092,24.4761227 54.7901144,28.540709 55.46,32.76 C55.596126,33.6266377 55.6630042,34.5027417 55.66,35.38 C55.4590053,40.1424547 53.9049859,44.7490122 51.18,48.66 C50.2488315,50.1073096 49.2127162,51.4843403 48.08,52.78 L47.08,53.9 L46.8,54.18 L46.8,54.18 L47.5,54.9 L48.28,54.3 C47.8223713,53.7389397 47.2985684,53.2352831 46.72,52.8 C45.5503199,51.8555745 44.1027861,51.3215329 42.6,51.28 C40.8863027,51.314497 39.2580584,52.0349591 38.08,53.28 L38.08,53.28 C37.5075136,53.7146623 36.797211,53.9277531 36.08,53.88 C35.0085984,53.8701745 33.9516658,53.6315123 32.98,53.18 C32.1530641,52.8750869 31.4499852,52.305593 30.98,51.56 C30.5842098,50.7583737 30.3853726,49.8738907 30.4,48.98 C30.4439701,47.2654226 30.9632675,45.5967468 31.9,44.16 C32.2355427,43.6583278 32.6887137,43.2463542 33.22,42.96 C35.06,41.9 38.68,41.28 43.44,38.6 C44.8979172,37.7986772 46.1241786,36.6344178 47,35.22 C47.6232762,34.202412 47.955335,33.0332882 47.96,31.84 C47.9718748,30.8777753 47.7596072,29.9259949 47.34,29.06 C47.1568966,28.7041069 46.7792294,28.4916691 46.38,28.52 L40.84,28.92 C40.4461152,28.9411045 40.1014369,29.1917796 39.96,29.56 L39.76,30.08 C39.5209489,30.6820377 39.2471551,31.2696926 38.94,31.84 C38.8188193,32.0636211 38.6710837,32.271794 38.5,32.46 L38.5,32.46 L38.5,32.46 L38.76,32.84 L38.76,32.38 C38.6760293,32.3494286 38.5839707,32.3494286 38.5,32.38 L38.76,32.76 L38.76,32.88 L39.22,32.5 C39.1032257,32.3693638 38.935181,32.2963009 38.76,32.3 L38.76,32.88 L39.22,32.5 L39.22,32.5 L39.32,32.5 L39.32,32.5 L39.32,32.5 L39.42,32.5 L39.32,32.26 L39.32,32.26 C39.1633351,31.4976872 38.7799004,30.8005332 38.22,30.26 C37.7844726,29.8734392 37.2223344,29.659969 36.64,29.66 C36.1754876,29.6580194 35.7191898,29.7824642 35.32,30.02 C35.0974288,30.1606803 34.9393228,30.383466 34.88,30.64 L34.88,30.84 C34.6695364,31.7105851 34.381726,32.5606297 34.02,33.38 C33.8474878,33.7959641 33.6186849,34.186275 33.34,34.54 L33.1,34.78 L33.1,34.78 L33.1,34.9 L33.1,35 L33.1,35 L33.1,35.12 L33.1,35 L29,35 L29,36 L29.92,35.64 L29.76,35.22 C29.62,34.82 29.4,34.2 29.22,33.6 C29.070527,33.1727254 28.9698867,32.7299079 28.92,32.28 L28.92,32.28 L28.36,32.28 L28.86,32.52 L28.86,32.36 L28.3,32.36 L28.8,32.6 L28.12,32 L28.52,32.74 C28.6708368,32.6526846 28.78993,32.5195805 28.86,32.36 L28.12,32 L28.52,32.74 L28.52,32.74 C28.7058999,32.6314915 28.8801496,32.5041552 29.04,32.36 C30.125888,31.40614 31.1294407,30.3624453 32.04,29.24 C32.5997472,28.5892459 33.0953784,27.8859854 33.52,27.14 C33.9256537,26.4585089 34.1654357,25.6912065 34.22,24.9 L34.22,24.78 L34.22,24.78 C34.2086655,24.324329 34.0547854,23.8836723 33.78,23.52 C33.3368895,23.0079477 32.7139602,22.6857429 32.04,22.62 C31.18,22.48 30.3,22.62 29.68,22.46 C29.4719236,22.459847 29.2666568,22.4119514 29.08,22.32 L29.08,22.32 L29.08,22.32 L29.08,22.32 L29.08,22.32 L29.08,22.32 L29.08,22.32 L29.08,22.32 L29.08,22.32 L29.08,22.32 L29.08,22.32 L29.08,22.32 L29,22 C29.1141527,20.9335388 29.4551145,19.9038344 30,18.98 C30.5769103,17.9218866 31.319661,16.9630629 32.2,16.14 L32.2,16.14 C32.4387475,15.8834147 32.7697361,15.7323112 33.12,15.72 C33.5624196,15.7638437 33.9776188,15.9538501 34.3,16.26 C34.8844592,16.752966 35.4387901,17.2805821 35.96,17.84 L36.44,18.34 L36.64,18.54 C36.8390361,18.700157 37.0846736,18.7913938 37.34,18.8 C37.6493422,18.7961443 37.9415627,18.6573396 38.14,18.42 C38.2531662,18.3017507 38.3355773,18.1575313 38.38,18 C38.4579514,17.7346402 38.602542,17.4936559 38.8,17.3 C39.5222354,16.6533856 40.3747341,16.1691664 41.3,15.88 L41.3,15.88 C42.634842,15.4134132 43.9264102,14.8312037 45.16,14.14 C45.4589147,13.9616409 45.7343804,13.7466433 45.98,13.5 C46.2183731,13.252371 46.3541418,12.9236677 46.36,12.58 C46.3507221,12.3744312 46.2887372,12.1747021 46.18,12 L45.88,11.7 L45.32,12.54 L44.82,13.4 L45.32,12.46 Z" id="Path" fill="#322965"></path>
                    <path d="M56.44,34.52 L55.44,34.52 C55.4400408,47.1447176 46.5211589,58.0109953 34.1387,60.4723381 C21.7562412,62.933681 9.35965572,56.304419 4.53147039,44.6394235 C-0.296714932,32.9744279 3.78851427,19.5232812 14.2883764,12.5135457 C24.7882384,5.50381031 38.7777287,6.888227 47.7,15.82 C52.6635674,20.776392 55.4487841,27.5055331 55.44,34.52 L57.440007,34.52 C57.440007,22.9972777 50.4967234,12.6099146 39.8495652,8.20410574 C29.202407,3.79829687 16.9495191,6.24226513 8.80745177,14.395784 C0.665384469,22.5493029 -1.76136017,34.8056136 2.65940871,45.4465691 C7.0801776,56.0875245 17.477289,63.0161836 29,63.0000283 C36.5480619,62.9946975 43.7848682,59.9911554 49.1184032,54.6501189 C54.4519382,49.3090825 57.4453062,42.0680619 57.440007,34.52 L56.44,34.52 Z" id="Path" fill="#322965"></path>
                    <path d="M18.54,60.16 C19.1347243,59.2900833 19.6821832,58.388779 20.18,57.46 C20.6078778,56.6630479 20.9885344,55.8416309 21.32,55 C21.6392636,54.1820817 21.8217029,53.3171846 21.86,52.44 C21.8797935,52.2471733 21.8797935,52.0528267 21.86,51.86 C21.595796,50.8394836 21.0145697,49.9291291 20.2,49.26 C18.8350374,48.0411852 17.3313593,46.987268 15.72,46.12 C15.0185798,45.7239808 14.2976674,45.3635246 13.56,45.04 C13.0306886,44.7931556 12.4732364,44.6118157 11.9,44.5 L11.9,44.5 C11.4103693,44.4064238 10.9381335,44.2377682 10.5,44 C9.36266251,43.3618715 8.29663276,42.6042529 7.32,41.74 C6.86030104,41.3533902 6.44447266,40.9174411 6.08,40.44 C5.83765226,40.1549064 5.6602173,39.8205097 5.56,39.46 L5.56,39.46 C5.5373939,39.2405807 5.5373939,39.0194193 5.56,38.8 C5.60132829,37.7644234 5.81772064,36.743322 6.2,35.78 C6.38,35.3 6.54,34.9 6.68,34.62 L6.82,34.3 L6.82,34.2 L5.92,33.74 L6.12,34.72 L9.48,34 L9.28,33.02 L9,34 L11,34.54 C12.1398542,34.8354692 13.3049957,35.0229633 14.48,35.1 C14.8133457,35.1022306 15.1446734,35.0481363 15.46,34.94 C15.6806529,34.8514187 15.8787895,34.7147728 16.04,34.54 C16.2301245,34.3086124 16.3359153,34.019451 16.34,33.72 L16.34,33.72 L16.34,33.4 C16.3071714,32.5320667 16.429072,31.6652175 16.7,30.84 C16.8215731,30.356284 17.1617642,29.9569292 17.62,29.76 C17.8090424,29.6921815 18.002924,29.6386969 18.2,29.6 C18.5162486,29.5584605 18.8179754,29.4418842 19.08,29.26 L19.08,29.26 C19.4571219,28.9963504 19.6753534,28.5598873 19.66,28.1 C19.6527017,27.6925581 19.5426324,27.2935567 19.34,26.94 C19.08,26.46 18.78,26 18.56,25.6 C18.3950565,25.3583437 18.2795086,25.0864661 18.22,24.8 L18.22,24.8 L18.02,24.8 L18.18,24.92 L18.18,24.92 L17.98,24.92 L18.14,25.04 L18.14,25.04 L18.14,25.04 L18.14,25.04 L18.14,25.04 L18.14,25.04 L18.14,25.04 C19.6497477,24.0912924 20.8733378,22.7501825 21.68,21.16 C22.1102258,20.356104 22.4779772,19.5203053 22.78,18.66 C22.9136222,18.264368 22.7761641,17.8277363 22.44,17.58 L19.14,14.72 C18.8709652,14.5003109 18.5057429,14.4394405 18.18,14.56 L18.02,14.56 C15.9846583,15.2777952 13.8556732,15.6955075 11.7,15.8 C10.0957305,15.8341337 8.50794778,16.1314207 7,16.68 L7.34,17.62 L8.06,16.92 L8.06,16.92 C7.86094048,16.7163453 7.58449367,16.6072215 7.3,16.62 C7.01833359,16.6435634 6.75839033,16.7807556 6.58,17 C1.18941388,23.8904865 -0.732554031,32.8773604 1.36814475,41.3699624 C3.46884353,49.8625643 9.35876024,56.9171191 17.34,60.5 C17.6690986,60.6734267 18.0672641,60.6498414 18.3735872,60.4387755 C18.6799104,60.2277096 18.843756,59.8640522 18.7989097,59.4947671 C18.7540634,59.125482 18.5079382,58.8116118 18.16,58.68 C10.7412897,55.3479352 5.26696482,48.7893902 3.3147265,40.8945385 C1.36248818,32.9996867 3.14922529,24.6456269 8.16,18.24 L7.36,17.62 L6.66,18.32 L6.66,18.32 C6.94430675,18.5859498 7.35333993,18.6708435 7.72,18.54 L7.72,18.54 C9.00603079,18.0916528 10.3580576,17.8618083 11.72,17.86 C14.1704273,17.7446744 16.5901481,17.2661223 18.9,16.44 L18.54,15.5 L17.92,16.28 L21.3,18.98 L21.92,18.2 L21,18 L21,18 C20.7226511,18.8122379 20.3676772,19.5958595 19.94,20.34 C19.335689,21.5087676 18.4314616,22.4958249 17.32,23.2 L17.32,23.2 C17.0119444,23.3747052 16.7510896,23.6218307 16.56,23.92 C16.3938798,24.2130018 16.3044479,24.5432119 16.3,24.88 C16.3158059,25.3179836 16.4249023,25.7475508 16.62,26.14 C16.8672915,26.6343687 17.141021,27.1150644 17.44,27.58 C17.54,27.78 17.64,27.94 17.7,28.08 L17.7,28.2 L17.7,28.2 L17.94,28.2 L17.68,28.2 L17.68,28.2 L17.92,28.2 L18.24,28.2 L17.9,27.74 L17.66,28.2 L18.24,28.2 L17.9,27.74 L17.9,27.74 L18.16,28.1 L18,27.68 L18,27.68 L18.26,28.04 L18.1,27.62 L17.9,27.62 C17.0475491,27.7500534 16.2646796,28.1661733 15.68,28.8 C14.7414024,30.1335638 14.3023941,31.7550624 14.44,33.38 L14.44,33.68 L15.18,33.68 L14.62,33.2 L14.44,33.68 L15.18,33.68 L14.62,33.2 L15.08,33.6 L14.8,33.06 L14.62,33.2 L15.08,33.6 L14.8,33.06 L14.92,33.28 L14.92,33.04 L14.92,33.04 L15.04,33.26 L15.04,33.02 L14.52,33.02 C13.4997941,32.949148 12.4886032,32.7817323 11.5,32.52 L10.14,32.16 L9.58,32 L9,32 L5.64,32.68 C5.34919831,32.7476862 5.10151418,32.9370917 4.96,33.2 C4.6752048,33.7862247 4.42151928,34.3870588 4.2,35 C3.73329559,36.1875051 3.46961862,37.4450414 3.42,38.72 C3.3795083,39.0721733 3.3795083,39.4278267 3.42,39.78 L3.42,39.78 C3.71456741,40.6994448 4.26213895,41.5173365 5,42.14 C6.46189485,43.7227241 8.19607056,45.03013 10.12,46 C10.588329,46.2498236 11.0954427,46.4188614 11.62,46.5 L11.62,46.5 L12.2,46.68 C13.8866274,47.3517158 15.4959253,48.2033026 17,49.22 C17.755328,49.7306085 18.4646825,50.3061226 19.12,50.94 C19.499322,51.2725506 19.7824952,51.7007638 19.94,52.18 L19.94,52.44 C19.914042,53.0803514 19.7717216,53.7106275 19.52,54.3 C19.0740929,55.4046751 18.5459443,56.4743432 17.94,57.5 C17.66,57.96 17.42,58.34 17.24,58.6 C17.06,58.86 16.98,59.02 16.98,59.02 C16.7535118,59.3121707 16.7066869,59.7054584 16.8582443,60.0426393 C17.0098017,60.3798201 17.3350146,60.6058828 17.7038734,60.6304546 C18.0727322,60.6550264 18.4250571,60.4740985 18.62,60.16 L18.54,60.16 Z" id="Path" fill="#322965"></path>
                    <path d="M45,2 C56.08,2 45,20 45,20 C45,20 33.94,2 45,2 Z" id="Path" fill="#B1DDF1"></path>
                    <path d="M45,2 L45,3 C46.135075,2.87258519 47.270476,3.23649578 48.12,4 C48.7487883,4.73809622 49.0645413,5.69253158 49,6.66 C48.7571151,9.54045021 47.9555243,12.3460182 46.64,14.92 C46.04,16.22 45.44,17.36 44.98,18.18 L44.44,19.14 L44.24,19.48 L45,20 L45.86,19.48 L45.66,19.14 C44.6663237,17.4841985 43.7778991,15.7674683 43,14 C41.8788796,11.7358526 41.2000749,9.27857982 41,6.76 C40.9138275,5.75607884 41.2385889,4.76014389 41.9,4 C42.7446732,3.24197428 43.8715933,2.87845167 45,3 L45,1 C43.3140636,0.886542369 41.658439,1.48924781 40.44,2.66 C39.5018127,3.77491772 39.0227635,5.20491531 39.1,6.66 C39.3353552,9.83166615 40.1987483,12.9249248 41.64,15.76 C42.3902507,17.39258 43.2315748,18.9817477 44.16,20.52 C44.3423393,20.8142169 44.6638624,20.9932173 45.01,20.9932173 C45.3561376,20.9932173 45.6776607,20.8142169 45.86,20.52 C46.7884252,18.9817477 47.6297493,17.39258 48.38,15.76 C49.8490348,12.9307757 50.7397027,9.83723443 51,6.66 C51.0772365,5.20491531 50.5981873,3.77491772 49.66,2.66 C48.4176618,1.46227757 46.7197741,0.857450634 45,1 L45,2 Z" id="Path" fill="#322965"></path>
                    <path d="M6.26,11 C17.32,11 6.26,29 6.26,29 C6.26,29 -4.8,11 6.26,11 Z" id="Path" fill="#B1DDF1"></path>
                    <path d="M6.26,11 L6.26,12 C7.38840674,11.8784517 8.51532683,12.2419743 9.36,13 C9.95814661,13.7519818 10.2509354,14.7017599 10.18,15.66 C9.94739122,18.5677794 9.14552657,21.4014875 7.82,24 C7.2,25.3 6.6,26.44 6.16,27.26 C5.92,27.66 5.74,28 5.6,28.22 L5.4,28.56 L6.26,29.08 L7.12,28.56 L7,28.14 C6.01292584,26.4461454 5.12477238,24.6965498 4.34,22.9 C3.2278924,20.6324221 2.54957069,18.1768975 2.34,15.66 C2.26906464,14.7017599 2.56185339,13.7519818 3.16,13 C4.00467317,12.2419743 5.13159326,11.8784517 6.26,12 L6.26,10 C4.56728223,9.88078334 2.90323913,10.4839081 1.68,11.66 C0.740025201,12.7739138 0.260731964,14.2046399 0.34,15.66 C0.610047649,18.8341863 1.51458561,21.9218572 3,24.74 C3.71355101,26.3752901 4.51471276,27.9709373 5.4,29.52 C5.58531255,29.816968 5.90996091,29.9981671 6.26,30 C6.60905953,29.9944818 6.932065,29.8141997 7.12,29.52 C8.03931932,27.9731371 8.87388356,26.3774502 9.62,24.74 C11.0706579,21.9144729 11.9410884,18.8271649 12.18,15.66 C12.259268,14.2046399 11.7799748,12.7739138 10.84,11.66 C9.61676087,10.4839081 7.95271777,9.88078334 6.26,10 L6.26,11 Z" id="Path" fill="#322965"></path>
                    <path d="M20.3,38.52 C31.36,38.52 20.3,56.52 20.3,56.52 C20.3,56.52 9.22,38.52 20.3,38.52 Z" id="Path" fill="#B1DDF1"></path>
                    <path d="M20.18,39.52 C21.3113504,39.4038361 22.5586607,39.7747576 23.4,40.54 C23.9945882,41.2930045 24.2805828,42.2439366 24.2,43.2 C23.9540602,46.0735235 23.1525645,48.8719661 21.84,51.44 C21.24,52.74 20.64,53.9 20.18,54.7 C19.96,55.12 19.76,55.44 19.64,55.66 L19.44,56 L20.28,56.52 L21.14,56 L20.94,55.66 C19.9524685,53.9765033 19.0707612,52.2331276 18.3,50.44 C17.1820756,48.1746339 16.5034434,45.7179852 16.3,43.2 C16.2194172,42.2439366 16.5054118,41.2930045 17.1,40.54 C17.9461714,39.769281 19.0819662,39.3979635 20.22,39.52 L20.22,37.52 C18.5272822,37.4007833 16.8632391,38.0039081 15.64,39.18 C14.7070955,40.2978753 14.2287618,41.725737 14.3,43.18 C14.5819963,46.363446 15.5001312,49.4579008 17,52.28 C17.758208,53.9151302 18.5993001,55.510535 19.52,57.06 C19.70898,57.3448981 20.0281223,57.5161738 20.37,57.5161738 C20.7118777,57.5161738 21.03102,57.3448981 21.22,57.06 C22.1406999,55.510535 22.981792,53.9151302 23.74,52.28 C25.1539515,49.4463879 25.9901748,46.3598402 26.2,43.2 C26.2712382,41.745737 25.7929045,40.3178753 24.86,39.2 C23.641561,38.0292478 21.9059364,37.4065424 20.22,37.52 L20.18,39.52 Z" id="Path" fill="#322965"></path>
                </g>
            </g>
        </g>
    </g>
</svg>