<?xml version="1.0" encoding="UTF-8"?>
<svg width="56px" height="62px" viewBox="0 0 56 62" version="1.1" xmlns="http://www.w3.org/2000/svg" xmlns:xlink="http://www.w3.org/1999/xlink">
    <!-- Generator: sketchtool 59.1 (101010) - https://sketch.com -->
    <title>5498D735-C89A-4456-A010-AC2AF389E212</title>
    <desc>Created with sketchtool.</desc>
    <g id="yugaweb" stroke="none" stroke-width="1" fill="none" fill-rule="evenodd">
        <g id="01-HOME" transform="translate(-588.000000, -2237.000000)" fill-rule="nonzero">
            <g id="icons" transform="translate(140.000000, 2236.000000)">
                <g id="i_High-Availability-Despite-Outages" transform="translate(448.000000, 0.000000)">
                    <polygon id="Path" fill="#B1DDF1" points="34.68 18 25.14 18 21.32 33.12 25.14 33.12 21.9 46 23.04 46 34.1 30.88 28.5 30.88"></polygon>
                    <path d="M34.68,17.999998 L34.68,16.999998 L25.14,16.999998 C24.6791528,17.0028516 24.2774643,17.3143651 24.16,17.76 L20.36,32.88 C20.2775963,33.1789138 20.3446378,33.4992232 20.54,33.74 C20.7267107,33.9811315 21.0150365,34.1215979 21.32,34.12 L23.86,34.12 L20.92,45.76 C20.8471285,46.0591411 20.9132788,46.3751922 21.1,46.62 C21.2948949,46.8618714 21.5893833,47.0017534 21.9,47.0000163 L23.04,47.0000163 C23.3540243,46.9969287 23.6491284,46.8493767 23.84,46.6 L34.92,31.48 C35.1093508,31.1520349 35.1093508,30.7479651 34.92,30.42 C34.7394894,30.0907183 34.3954888,29.884318 34.02,29.88 L30,29.88 L35.5,18.44 C35.6520218,18.1297399 35.6331175,17.7629846 35.4500015,17.4699991 C35.2668855,17.1770135 34.9455018,16.9993079 34.6,16.999998 L34.6,17.999998 L33.7,17.56 L27.6,30.44 C27.4479782,30.7502601 27.4668825,31.1170154 27.6499985,31.4100009 C27.8331145,31.7029865 28.1544982,31.8806921 28.5,31.88 L32.14,31.88 L22.54,44.999998 L22,44.999998 L22,45.999998 L22.96,46.24 L26.22,33.36 C26.2845899,33.0607783 26.2191672,32.7482028 26.04,32.499998 C25.8451051,32.2581286 25.5506167,32.1182466 25.24,32.12 L22.6,32.12 L26,18.999998 L34.76,18.999998 L34.76,17.999998 L33.86,17.56 L34.68,17.999998 Z" id="Path" fill="#322965"></path>
                    <path d="M14.54,53.36 C5.0218054,47.3681367 0.616691117,35.8013997 3.7377465,24.9959628 C6.85880189,14.1905259 16.7528485,6.75397572 28,6.75999268 C28.5522847,6.75999268 29,6.31228475 29,5.75999268 C29,5.20771525 28.5522847,4.75999268 28,4.75999268 C15.8580618,4.75114155 5.17622286,12.7795265 1.80873113,24.4451486 C-1.55876059,36.1107708 3.20124608,48.5967223 13.48,55.06 C13.9511337,55.3422551 14.5611684,55.2007978 14.86,54.74 C15.0065959,54.5162154 15.0553329,54.2422278 14.9949014,53.9816171 C14.9344699,53.7210063 14.7701238,53.4964294 14.54,53.36 L14.54,53.36 Z" id="Path" fill="#322965"></path>
                    <path d="M41.44,10.62 C50.974871,16.6025452 55.3957402,28.1758373 52.2776627,38.9916685 C49.1595853,49.8074998 39.2563087,57.2513084 28,57.24 C27.4477153,57.24 27,57.6877153 27,58.24 C27,58.7922847 27.4477153,59.24 28,59.24 C40.138231,59.24 50.8118471,51.2085292 54.1740287,39.5452369 C57.5362104,27.8819447 52.7756096,15.4013078 42.5,8.94 C42.0359327,8.64258836 41.4187099,8.77676723 41.12,9.24 C40.9734041,9.46378463 40.9246671,9.73777222 40.9850986,9.99838293 C41.0455301,10.2589937 41.2098762,10.4835706 41.44,10.62 L41.44,10.62 Z" id="Path" fill="#322965"></path>
                    <polygon id="Path" fill="#322965" points="24.36 2 31.86 5.76 24.36 9.5"></polygon>
                    <path d="M24.36,2 L24,2.9 L29.7,5.76 L25.36,8 L25.36,2 L24.36,2 L24,2.9 L24.36,2 L23.36,2 L23.36,9.52 C23.3610049,9.86496612 23.5433086,10.1839976 23.84,10.36 C24.1442787,10.5310368 24.5157213,10.5310368 24.82,10.36 L32.3,6.6 C32.6402346,6.43861969 32.8579078,6.09656181 32.86,5.72 C32.8561103,5.33894521 32.640132,4.99183734 32.3,4.82 L24.82,1.1 C24.5129425,0.939929076 24.1470575,0.939929076 23.84,1.1 C23.5458003,1.287935 23.3655182,1.61094047 23.36,1.96 L24.36,2 Z" id="Path" fill="#322965"></path>
                    <polygon id="Path" fill="#322965" points="31.86 54.5 24.36 58.24 31.86 62"></polygon>
                    <path d="M31.86,54.5 L31.4,53.6 L24,57.36 C23.6597654,57.5213803 23.4420922,57.8634382 23.44,58.24 C23.4438897,58.6210548 23.659868,58.9681627 24,59.14 L31.48,62.9 C31.7870575,63.0600709 32.1529425,63.0600709 32.46,62.9 C32.7541997,62.712065 32.9344818,62.3890595 32.940017,62.04 L32.940017,54.5 C32.9420443,54.1489527 32.7598614,53.8225417 32.46,53.64 C32.1557213,53.4689632 31.7842787,53.4689632 31.48,53.64 L31.94,54.54 L30.94,54.54 L30.94,60.42 L26.6,58.24 L32.3,55.38 L31.86,54.5 L31.86,54.5 L31.86,54.5 Z" id="Path" fill="#322965"></path>
                </g>
            </g>
        </g>
    </g>
</svg>