<?xml version="1.0" encoding="UTF-8"?>
<svg width="46px" height="63px" viewBox="0 0 46 63" version="1.1" xmlns="http://www.w3.org/2000/svg" xmlns:xlink="http://www.w3.org/1999/xlink">
    <!-- Generator: sketchtool 59.1 (101010) - https://sketch.com -->
    <title>9AF9069C-84D3-4CC8-B314-1AFADB421C4C</title>
    <desc>Created with sketchtool.</desc>
    <g id="yugaweb" stroke="none" stroke-width="1" fill="none" fill-rule="evenodd">
        <g id="01-HOME" transform="translate(-1027.000000, -2236.000000)" fill-rule="nonzero">
            <g id="icons" transform="translate(140.000000, 2236.000000)">
                <g id="i_Horizontal-Scalability" transform="translate(886.000000, 0.000000)">
                    <path d="M17.02,25.46 C17.02,24.2 20.08,23.18 23.84,23.18 C27.6,23.18 30.66,24.2 30.66,25.46" id="Path" fill="#B1DDF1"></path>
                    <path d="M17.02,25.46 L17.02,38.5 C17.02,39.76 20.08,40.78 23.84,40.78 C27.6,40.78 30.66,39.76 30.66,38.5 L30.66,25.46" id="Path" fill="#B1DDF1"></path>
                    <path d="M30.66,25.46 L29.86,25.46 L29.66,25.46 L29.66,25.46 L29.86,25.46 L29.66,25.46 L29.76,25.46 L29.66,25.46 L29.76,25.46 L29.66,25.46 L29.66,25.46 C29.0713583,25.9018916 28.385655,26.196744 27.66,26.32 C26.4255486,26.5933995 25.1643418,26.7275704 23.9,26.72 C22.3766449,26.752714 20.857751,26.5434442 19.4,26.1 C18.9815223,25.9880374 18.5879573,25.7980405 18.24,25.54 L18,25.38 L18,25.38 L17.84,25.38 L18,25.38 L18,25.38 L17.84,25.38 L17.84,25.38 L18.02,25.38 L18.02,25.38 L17.82,25.38 L18,25.38 L18,25.38 L18,25.38 L18,25.38 L18,25.38 L18,25.38 C18.5886417,24.9381084 19.274345,24.643256 20,24.52 C21.2414308,24.2479076 22.5091161,24.113761 23.78,24.12 C25.3031604,24.0906237 26.8215338,24.2998218 28.28,24.74 C28.6967321,24.8566221 29.0894799,25.0462245 29.44,25.3 L29.6,25.46 L29.6,25.46 L29.76,25.46 L29.6,25.46 L29.6,25.46 L29.76,25.46 L31.6,25.46 C31.598649,25.1046929 31.4944541,24.7573762 31.3,24.46 C30.9987397,24.0010316 30.576545,23.6342067 30.08,23.4 C28.1027806,22.511049 25.9461332,22.0934126 23.78,22.18 C22.0395939,22.1503348 20.3052697,22.3932751 18.64,22.9 C18.0042225,23.0826397 17.4075782,23.3809618 16.88,23.78 C16.6367503,23.9765231 16.4214336,24.2052971 16.24,24.46 C15.8607326,25.0727253 15.8607326,25.8472747 16.24,26.46 C16.5465056,26.9143557 16.9672898,27.2799552 17.46,27.52 C19.4433203,28.4120034 21.607172,28.8297089 23.78,28.74 C25.5415365,28.7694998 27.2966242,28.5197373 28.98,28 C29.6141638,27.8132409 30.2100945,27.5152756 30.74,27.12 C30.9820164,26.9282851 31.1913927,26.6986467 31.36,26.44 C31.5518117,26.1488154 31.655941,25.8086599 31.66,25.46 L30.66,25.46 Z" id="Path" fill="#322965"></path>
                    <path d="M16,25.46 L16,38.5 C16.0071345,38.8453658 16.1036002,39.1829957 16.28,39.48 C16.5912751,39.9351933 17.0104129,40.3062333 17.5,40.56 C19.4872111,41.4396526 21.6481577,41.8567974 23.82,41.78 C25.5604061,41.8096652 27.2947303,41.5667249 28.96,41.06 C29.5910971,40.8655216 30.185759,40.5681907 30.72,40.18 C30.9672725,39.9860535 31.1773358,39.7488852 31.34,39.48 C31.5339154,39.1898095 31.6382407,38.8490138 31.64,38.5 L31.64,25.46 C31.6393379,25.1897328 31.5314395,24.9307766 31.34,24.74 C31.1521334,24.5589149 30.9009276,24.4584325 30.64,24.4599819 C30.3736863,24.4613686 30.1172685,24.5610866 29.92,24.74 C29.7358757,24.9340056 29.6353223,25.1925714 29.64,25.46 L29.64,29.8 L29.84,29.8 L29.64,29.8 L29.64,29.8 L29.84,29.8 L29.64,29.8 L29.74,29.8 L29.64,29.8 L29.74,29.8 L29.64,29.8 L29.64,29.9 C29.0438031,30.324722 28.3606684,30.6116386 27.64,30.74 C26.4081124,31.030669 25.1456614,31.1716874 23.88,31.16 C22.3572423,31.1826632 20.8398939,30.9736063 19.38,30.54 C18.9648325,30.4192691 18.5727642,30.2299948 18.22,29.98 L18,29.74 L18,29.74 L17.84,29.74 L18,29.74 L18,29.74 L17.84,29.74 L18,29.74 C18,29.1877153 17.5522847,28.74 17,28.74 C16.4477153,28.74 16,29.1877153 16,29.74 L16,34.1 C16.0071345,34.4453658 16.1036002,34.7829957 16.28,35.08 C16.5865056,35.5343557 17.0072898,35.8999552 17.5,36.14 C19.4810499,37.0391517 21.6466185,37.4571887 23.82,37.36 C25.5604061,37.3896652 27.2947303,37.1467249 28.96,36.64 C29.5941638,36.4532409 30.1900945,36.1552756 30.72,35.76 C30.9711146,35.5782521 31.1821553,35.3467881 31.34,35.08 C31.5318117,34.7888154 31.635941,34.4486599 31.64,34.1 C31.64,33.5477153 31.1922847,33.1 30.64,33.1 C30.0877153,33.1 29.64,33.5477153 29.64,34.1 L29.84,34.1 L29.64,34.1 L29.64,34.1 L29.84,34.1 L29.64,34.1 L29.74,34.1 L29.64,34.1 L29.74,34.1 L29.64,34.1 L29.64,34.2 C29.0438031,34.624722 28.3606684,34.9116386 27.64,35.04 C26.4055486,35.3133995 25.1443418,35.4475704 23.88,35.44 C22.3566449,35.472714 20.837751,35.2634442 19.38,34.82 C18.9668624,34.7034108 18.5751857,34.5210785 18.22,34.28 L18,34 L18,34 L17.84,34 L18,34 L18,34 L17.84,34 L18,34 L18,29.8 C18,29.2477153 17.5522847,28.8 17,28.8 C16.4477153,28.8 16,29.2477153 16,29.8 C16.0071345,30.1453658 16.1036002,30.4829957 16.28,30.78 C16.5912751,31.2351933 17.0104129,31.6062333 17.5,31.86 C19.4872111,32.7396526 21.6481577,33.1567974 23.82,33.08 C25.5597913,33.0998368 27.2926209,32.8571058 28.96,32.36 C29.5874588,32.1565416 30.180758,31.859892 30.72,31.48 C30.9672725,31.2860535 31.1773358,31.0488852 31.34,30.78 C31.5318117,30.4888154 31.635941,30.1486599 31.64,29.8 L31.64,25.46 C31.6393379,25.1897328 31.5314395,24.9307766 31.34,24.74 C31.1521334,24.5589149 30.9009276,24.4584325 30.64,24.4599819 C30.3736863,24.4613686 30.1172685,24.5610866 29.92,24.74 C29.7358757,24.9340056 29.6353223,25.1925714 29.64,25.46 L29.64,38.5 L29.84,38.5 L29.64,38.5 L29.64,38.5 L29.84,38.5 L29.64,38.5 L29.74,38.5 L29.64,38.5 L29.64,38.5 L29.74,38.5 L29.64,38.5 L29.64,38.5 C29.0483213,38.9327723 28.3632534,39.2205008 27.64,39.34 C26.4081124,39.630669 25.1456614,39.7716874 23.88,39.76 C22.3572423,39.7826632 20.8398939,39.5736063 19.38,39.14 C18.9648325,39.0192691 18.5727642,38.8299948 18.22,38.58 L18,38.44 L18,38.44 L17.84,38.44 L18,38.44 L18,38.44 L17.84,38.44 L18,38.44 L18,25.46 C18,24.9077153 17.5522847,24.4599819 17,24.4599819 C16.4477153,24.4599819 16,24.9077153 16,25.46 Z" id="Path" fill="#322965"></path>
                    <path d="M12.88,19.48 L6,12.62 C5.61115649,12.2388571 4.98884351,12.2388571 4.6,12.62 C4.41068735,12.8077666 4.30420168,13.0633625 4.30420168,13.33 C4.30420168,13.5966375 4.41068735,13.8522334 4.6,14.04 L11.44,20.9 C11.8321222,21.2921221 12.4678778,21.2921221 12.86,20.9 C13.2521221,20.5078778 13.2521221,19.8721222 12.86,19.48" id="Path" fill="#322965"></path>
                    <polygon id="Path" fill="#322965" points="4.62 16.52 2.68 10.7 8.52 12.64"></polygon>
                    <path d="M4.62,16.52 L5.58,16.22 L4.26,12.22 L6.66,13.02 L4,15.82 L4.7,16.52 L5.66,16.22 L4.7,16.52 L5.42,17.24 L9.22,13.34 C9.45684325,13.0921452 9.55333549,12.7418897 9.47683698,12.407712 C9.40033847,12.0735343 9.16108234,11.8001369 8.84,11.68 L3,9.68 C2.63269985,9.57878372 2.24030315,9.70435067 2,10 C1.73400874,10.2675128 1.64120044,10.6619481 1.76,11.02 L3.76,16.84 C3.86178508,17.1747746 4.1376545,17.4276549 4.48,17.5 C4.81715239,17.5784531 5.17108442,17.480557 5.42,17.24 L4.62,16.52 Z" id="Path" fill="#322965"></path>
                    <path d="M34.92,44.34 L41.78,51.2 C42.1688435,51.5811429 42.7911565,51.5811429 43.18,51.2 C43.3693127,51.0122334 43.4757983,50.7566375 43.4757983,50.49 C43.4757983,50.2233625 43.3693127,49.9677666 43.18,49.78 L36.34,42.94 C36.1522334,42.7506873 35.8966375,42.6442017 35.63,42.6442017 C35.3633625,42.6442017 35.1077666,42.7506873 34.92,42.94 C34.5388571,43.3288435 34.5388571,43.9511565 34.92,44.34" id="Path" fill="#322965"></path>
                    <polygon id="Path" fill="#322965" points="43.18 47.3 45.12 53.12 39.28 51.18"></polygon>
                    <path d="M43.18,47.3 L42.22,47.62 L43.54,51.62 L41.14,50.84 L43.88,48 L43.18,47.3 L42.22,47.62 L43.18,47.3 L42.46,46.58 L38.58,50.48 C38.3431567,50.7278548 38.2466645,51.0781103 38.323163,51.412288 C38.3996615,51.7464657 38.6389177,52.0198631 38.96,52.14 L44.8,54.14 C45.1580519,54.2587996 45.5524872,54.1659913 45.82,53.9 C46.0834993,53.597021 46.1531851,53.1711637 46,52.8 L44,46.98 C43.89107,46.6497835 43.6184247,46.3998586 43.28,46.32 C42.9428476,46.2415469 42.5889156,46.339443 42.34,46.58 L43.18,47.3 Z" id="Path" fill="#322965"></path>
                    <path d="M24.9,15.32 L24.9,5.64 C24.9,5.08771525 24.4522847,4.64 23.9,4.64 C23.3477153,4.64 22.9,5.08771525 22.9,5.64 L22.9,15.32 C22.9,15.8722847 23.3477153,16.32 23.9,16.32 C24.4522847,16.32 24.9,15.8722847 24.9,15.32" id="Path" fill="#322965"></path>
                    <polygon id="Path" fill="#322965" points="21.14 7.4 23.9 1.92 26.66 7.4"></polygon>
                    <path d="M21.14,7.4 L22.04,7.86 L24,4.14 L25.14,6.4 L21.14,6.4 L21.14,7.4 L22.04,7.86 L21.14,7.4 L21.14,8.4 L26.66,8.4 C26.9894777,8.41654815 27.3051725,8.2662173 27.5,8 C27.6714875,7.70297497 27.6714875,7.33702503 27.5,7.04 L24.8,1.46 C24.6227303,1.12761924 24.2766982,0.92 23.9,0.92 C23.5233018,0.92 23.1772697,1.12761924 23,1.46 L20.26,6.96 C20.0885125,7.25702503 20.0885125,7.62297497 20.26,7.92 C20.4360024,8.2166914 20.7550339,8.3989951 21.1,8.4 L21.14,7.4 Z" id="Path" fill="#322965"></path>
                    <path d="M22.9,48.5 L22.9,58.18 C22.9,58.7322847 23.3477153,59.18 23.9,59.18 C24.4522847,59.18 24.9,58.7322847 24.9,58.18 L24.9,48.5 C24.9,47.9477153 24.4522847,47.5 23.9,47.5 C23.3477153,47.5 22.9,47.9477153 22.9,48.5" id="Path" fill="#322965"></path>
                    <polygon id="Path" fill="#322965" points="26.66 56.42 23.9 61.92 21.14 56.42"></polygon>
                    <path d="M26.66,56.42 L25.76,56 L24,59.68 L22.86,57.42 L26.76,57.42 L26.76,56.42 L25.76,56 L26.66,56.44 L26.66,55.44 L21.14,55.44 C20.7950339,55.4410049 20.4760024,55.6233086 20.3,55.92 C20.1289632,56.2242787 20.1289632,56.5957213 20.3,56.9 L23.04,62.38 C23.2070864,62.7249903 23.5566774,62.9441101 23.94,62.9441101 C24.3233226,62.9441101 24.6729136,62.7249903 24.84,62.38 L27.58,56.88 C27.7514875,56.582975 27.7514875,56.217025 27.58,55.92 C27.4039976,55.6233086 27.0849661,55.4410049 26.74,55.44 L26.66,56.42 Z" id="Path" fill="#322965"></path>
                    <path d="M36.34,20.9 L43.18,14 C43.3693127,13.8122334 43.4757983,13.5566375 43.4757983,13.29 C43.4757983,13.0233625 43.3693127,12.7677666 43.18,12.58 C42.7911565,12.1988571 42.1688435,12.1988571 41.78,12.58 L34.92,19.48 C34.5278779,19.8721222 34.5278779,20.5078778 34.92,20.9 C35.3121222,21.2921221 35.9478778,21.2921221 36.34,20.9" id="Path" fill="#322965"></path>
                    <polygon id="Path" fill="#322965" points="43.18 16.52 45.12 10.7 39.28 12.64"></polygon>
                    <path d="M43.18,16.52 L44.12,16.84 L46.12,11.02 C46.2240014,10.6506017 46.1074333,10.2542704 45.82,10 C45.5574891,9.72513501 45.1575315,9.63102733 44.8,9.76 L38.96,11.76 C38.6389177,11.8801369 38.3996615,12.1535343 38.323163,12.487712 C38.2466645,12.8218897 38.3431567,13.1721452 38.58,13.42 L42.46,17.32 C42.7089156,17.560557 43.0628476,17.6584531 43.4,17.58 C43.7423455,17.5076549 44.0182149,17.2547746 44.12,16.92 L43.18,16.6 L43.88,15.9 L41.14,13.08 L43.54,12.28 L42.22,16.28 L43.18,16.58 L43.88,15.88 L43.18,16.52 Z" id="Path" fill="#322965"></path>
                    <path d="M11.46,42.94 L4.62,49.78 C4.43068735,49.9677666 4.32420168,50.2233625 4.32420168,50.49 C4.32420168,50.7566375 4.43068735,51.0122334 4.62,51.2 C5.00884351,51.5811429 5.63115649,51.5811429 6.02,51.2 L12.88,44.34 C13.2611429,43.9511565 13.2611429,43.3288435 12.88,42.94 C12.6922334,42.7506873 12.4366375,42.6442017 12.17,42.6442017 C11.9033625,42.6442017 11.6477666,42.7506873 11.46,42.94" id="Path" fill="#322965"></path>
                    <polygon id="Path" fill="#322965" points="4.62 47.3 2.68 53.12 8.52 51.18"></polygon>
                    <path d="M4.62,47.3 L3.68,46.98 L1.68,52.8 C1.57997157,53.1632799 1.69263761,53.5519457 1.97144673,53.8054086 C2.25025586,54.0588714 2.64786891,54.1340956 3,54 L8.84,52 C9.16108234,51.8798631 9.40033847,51.6064657 9.47683698,51.272288 C9.55333549,50.9381103 9.45684325,50.5878548 9.22,50.34 L5.34,46.58 C5.09108442,46.339443 4.73715239,46.2415469 4.4,46.32 C4.06157532,46.3998586 3.78892998,46.6497835 3.68,46.98 L4.62,47.3 L4,48 L6.74,50.76 L4.34,51.54 L5.66,47.54 L4.7,47.22 L4,48 L4.62,47.3 Z" id="Path" fill="#322965"></path>
                </g>
            </g>
        </g>
    </g>
</svg>