<?xml version="1.0" encoding="UTF-8"?>
<svg width="63px" height="57px" viewBox="0 0 63 57" version="1.1" xmlns="http://www.w3.org/2000/svg" xmlns:xlink="http://www.w3.org/1999/xlink">
    <!-- Generator: sketchtool 59.1 (101010) - https://sketch.com -->
    <title>0E26EC47-C91E-4E23-8F1C-D04BA94DBD94</title>
    <desc>Created with sketchtool.</desc>
    <g id="yugaweb" stroke="none" stroke-width="1" fill="none" fill-rule="evenodd">
        <g id="01-HOME" transform="translate(-584.000000, -2370.000000)" fill-rule="nonzero">
            <g id="icons" transform="translate(140.000000, 2236.000000)">
                <g id="i_Kubernetes-Native-&amp;-Cloud-Neutral" transform="translate(444.000000, 134.000000)">
                    <path d="M43.26,38 L50.58,38 C58.0915179,38.18 62.6977053,31.62 62.6977053,25.39 C62.6977053,19.16 57.3490546,13.0496321 50.58,12.78 L46.16,12.78 L46.16,13.78 L47.16,13.78 L47.16,13.42 C47.1653098,10.0748083 45.8401581,6.86480859 43.476624,4.49752282 C41.1130898,2.13023705 37.9051959,0.8 34.56,0.8 L29.8,0.8 C22.8301665,0.8 17.18,6.45016646 17.18,13.42 L17.18,13.86 L18.18,13.86 L18.18,12.8 L13.8,12.8 C9.12904539,12.5367171 4.69570863,14.8790232 2.28089728,18.8859947 C-0.133914074,22.8929663 -0.133914074,27.9070337 2.28089728,31.9140053 C4.69570863,35.9209768 9.12904539,38.2632829 13.8,38 L20.6,38 C21.1522847,38 21.6,37.5522847 21.6,37 C21.6,36.4477153 21.1522847,36 20.6,36 L13.8,36 C8.19828781,35.6557273 2.8314599,32.4861111 2.8314599,25.4 C2.8314599,18.3138889 8.19828781,15.1442727 13.8,14.8 L18.2,14.8 C18.4759705,14.8124952 18.743948,14.7054993 18.9354216,14.5063669 C19.1268951,14.3072344 19.2233038,14.0352685 19.2,13.76 L19.2,13.36 L18.2,13.36 L19.2,13.36 C19.2545547,7.53504121 23.9748766,2.83253186 29.8,2.8 L34.58,2.8 C40.437452,2.811031 45.1800104,7.56253757 45.18,13.42 L46.18,13.42 L45.18,13.42 L45.18,13.82 C45.1819977,14.0921837 45.2813169,14.3546702 45.46,14.56 C45.6507766,14.7514395 45.9097328,14.8593379 46.18,14.86 L50.6,14.86 C54.5004764,14.6906141 57.1793896,16.6750058 59.1801728,20.0275085 C61.180956,23.3800112 61.180956,27.5599888 59.1801728,30.9124915 C57.1793896,34.2649942 54.5004764,36.2493859 50.6,36.08 L43.26,36.08 C42.7077153,36.08 42.26,36.5277153 42.26,37.08 C42.26,37.6322847 42.7077153,38.08 43.26,38.08 L43.26,38 Z" id="Path" fill="#322965"></path>
                    <path d="M40.9,18.96 C40.9682328,17.8676083 41.4993799,16.8562459 42.36,16.18 C43.4183281,15.2759852 44.7682031,14.7857674 46.16,14.8 L46.16,14.8 L46.16,14.8 L46.16,14.8 C46.7045676,14.8001089 47.1491087,14.3644587 47.16,13.82 C47.1708978,13.553229 47.0724793,13.2935603 46.8874993,13.1010301 C46.7025192,12.9084998 46.4469934,12.7998418 46.18,12.8 L46.18,12.8 C44.3058753,12.7880991 42.4894892,13.4479581 41.06,14.66 C39.762982,15.7200846 38.9836231,17.2860863 38.92,18.96 C38.92,19.5122847 39.3677153,19.96 39.92,19.96 C40.4722847,19.96 40.92,19.5122847 40.92,18.96 L40.9,18.96 Z" id="Path" fill="#322965"></path>
                    <path d="M38.72,55.2000318 C37.9552098,55.2015305 37.2565068,54.766782 36.92,54.08 L36.92,54.08 C36.7907996,53.869818 36.696258,53.6402171 36.64,53.4 L36.48,52.88 C36.353463,52.5186432 36.2065611,52.1647431 36.04,51.82 L35.84,51.72 L34.88,51.96 C33.9638257,52.1839254 33.0230732,52.29144 32.08,52.28 C30.7978764,52.2794955 29.523292,52.0839244 28.3,51.7 L28.08,51.82 L28.08,51.82 C27.9336168,52.1294763 27.8132026,52.450581 27.72,52.78 L27.54,53.24 C27.4882001,53.4511706 27.4213629,53.6583659 27.34,53.86 L27.22,54.06 L27.22,54.06 C26.8843808,54.7261975 26.2058983,55.1502491 25.46,55.16 C25.1806516,55.1625581 24.9052801,55.0937152 24.66,54.96 C24.1880016,54.8022505 23.8035965,54.45411 23.6,54 C23.3888396,53.5014369 23.3888396,52.9385631 23.6,52.44 L23.6,52.34 L24,52 L24.26,51.6 L24.26,51.6 L24.26,51.4 C24.4778033,51.0707912 24.6780818,50.7303177 24.86,50.38 L24.86,50.06 L24.14,49.54 C22.3545183,48.1400733 20.9739084,46.290056 20.14,44.18 L20,44 L20,44 C19.6038171,44.0955253 19.2159127,44.2225974 18.84,44.38 L18.68,44.38 L18.46,44.48 C18.2740991,44.5716025 18.0798867,44.6452692 17.88,44.7 L17.88,44.7 L17.66,44.7 C17.5144328,44.7253973 17.3655672,44.7253973 17.22,44.7 C16.2902624,44.7318471 15.4613283,44.1184358 15.22,43.22 C15.0401052,42.1960482 15.6747117,41.2050188 16.68,40.94 L17.06,40.94 L17.06,40.94 L17.24,40.94 L17.68,40.94 L18.1,40.94 C18.4832654,40.9133084 18.8641947,40.8598446 19.24,40.78 L19.4,40.56 C19.195948,37.9888519 19.7746361,35.4161304 21.06,33.18 L21.06,32.9 C20.82,32.72 20.5,32.52 20.12,32.28 L20.4,31.28 L19.92,32.16 L19.24,31.78 L19.1,31.66 L18.94,31.54 C18.1309601,30.8734207 17.9738731,29.6952683 18.58,28.84 C18.9325171,28.3804407 19.4808427,28.1136877 20.06,28.12 C20.536689,28.1199633 20.9977163,28.2901888 21.36,28.6 L21.5,28.74 C21.6821347,28.8972645 21.8557166,29.0641702 22.02,29.24 L22.22,29.44 C22.5075496,29.7719483 22.8219453,30.0796547 23.16,30.36 L23.26,30.36 C24.9300046,28.7730705 27.0066743,27.6793578 29.26,27.2 L30.26,27.04 L30.42,26.84 L30.42,26.84 C30.4458444,26.5605964 30.4458444,26.2794036 30.42,26 L30.42,25.62 C30.3286765,25.3012856 30.2815695,24.9715364 30.28,24.64 L30.28,24.4 C30.2766554,23.8878246 30.4699361,23.3938851 30.82,23.02 C31.1843512,22.6479765 31.6794317,22.4327241 32.2,22.42 C33.3045695,22.42 34.2,23.3154305 34.2,24.42 L34.2,24.68 L34.1,25.42 L34.1,25.62 C34.1,26.18 34,26.58 34,26.94 L34.12,27.1 C36.3108688,27.4343318 38.3779009,28.3300458 40.12,29.7 C40.38,29.94 40.66,30.16 40.9,30.4 L41.16,30.4 C41.4744275,30.1502183 41.7686725,29.8760354 42.04,29.58 L42.2,29.44 C42.3423128,29.263521 42.4959716,29.0965007 42.66,28.94 L42.98,28.66 C43.3318785,28.3776788 43.7688715,28.2226168 44.22,28.22 C44.8140755,28.2133217 45.3740157,28.4970247 45.72,28.98 C46.2846542,29.7961048 46.1654682,30.9028314 45.44,31.58 L45.28,31.72 L45.12,31.84 C44.9051484,31.9982833 44.6777254,32.1387505 44.44,32.26 L44.24,32.26 C43.8877335,32.4677044 43.5472143,32.6947172 43.22,32.94 L43.22,33.18 C43.8620246,34.306413 44.3401692,35.5186105 44.64,36.78 C44.920029,38.0259808 45.0210447,39.3055134 44.94,40.58 L45.12,40.8 C45.5143979,40.8927494 45.9157469,40.9529517 46.32,40.98 L46.54,40.98 L47.16,40.98 L47.44,40.98 C47.619697,40.9770994 47.7953704,41.0333149 47.94,41.14 C48.7104205,41.4277217 49.2261818,42.1577223 49.24,42.98 L49.24,43.28 C48.9612106,44.138677 48.1417221,44.704124 47.24,44.66 C47.0545577,44.6902353 46.8654423,44.6902353 46.68,44.66 L46.68,44.66 C46.3887036,44.5950101 46.1065623,44.4942454 45.84,44.36 L45.64,44.36 C45.1101922,44.1731043 44.5593766,44.0521936 44,44 L43.8,44.1 C42.8838165,46.5393176 41.2350257,48.6352382 39.08,50.1 L39.08,50.38 C39.2613815,50.7048354 39.461728,51.0187117 39.68,51.32 L39.68,51.46 L39.8,51.62 C39.9379657,51.8056899 40.0648529,51.9993599 40.18,52.2 L40.32,52.42 C40.5209907,52.8727981 40.5632725,53.38018 40.44,53.86 C40.2930127,54.3501175 39.963764,54.7652571 39.52,55.02 C39.2704977,55.1400742 38.9968872,55.2016366 38.72,55.2000318 L38.72,55.2000318 Z M30.4,47.86 C30.928717,47.9494901 31.4637757,47.9963078 32,48.00002 C32.4834516,48.0011315 32.9658201,47.9542346 33.44,47.86 L31.98,45.22 L30.4,47.86 Z M37.36,45.86 C37.9703683,45.3238162 38.5022496,44.7044101 38.94,44.02 L39.24,43.5 L36.14,42.98 L37.36,45.86 Z M24.58,43.6 C25.0423331,44.5052047 25.6658664,45.318509 26.42,46 L27.6,43.16 L24.58,43.6 Z M32,40.22 L32.44,40 L32.44,39.56 L32.14,39.18 L31.64,39.18 L31.36,39.54 L31.46,40 L32,40.22 Z M40.3,39.3 C40.2740841,38.8086152 40.207185,38.3202521 40.1,37.84 C39.9890331,37.3474822 39.8351108,36.8656384 39.64,36.4 L37.38,38.4 L40.3,39.3 Z M24.3,36.38 C23.9112768,37.3003662 23.6878574,38.2820574 23.64,39.28 L26.58,38.42 L24.3,36.38 Z M29.56,34.72 L29.74,31.62 C28.7661499,31.8793979 27.8500817,32.3204678 27.04,32.92 L29.56,34.72 Z M34.36,34.72 L36.86,32.94 C36.0560597,32.3592952 35.1554224,31.9259059 34.2,31.66 L34.36,34.72 Z" id="Shape" fill="#B1DDF1"></path>
                    <path d="M32,23.4 C32.5223553,23.4216605 32.9313407,23.8573188 32.92,24.38 L32.92,24.64 C32.92,24.86 32.92,25.04 32.82,25.22 L32.82,25.5 L32.82,25.5 C32.7730226,26.0322989 32.7730226,26.5677011 32.82,27.1 C32.8404935,27.2610459 32.9275447,27.4061312 33.06,27.5 L33.06,27.5 L33.06,28 C35.3266764,28.2051379 37.4861963,29.0592246 39.28,30.46 C39.7060162,30.8187493 40.1132249,31.1992559 40.5,31.6 L40.86,31.36 L41.1,31.36 L41.36,31.36 C41.7884275,31.040327 42.1837364,30.6785188 42.54,30.28 L42.76,30.08 L43.14,29.66 L43.28,29.54 L43.28,29.54 C43.4624346,29.3940673 43.6865935,29.3100078 43.92,29.3 C44.1894778,29.2915077 44.4451071,29.4193224 44.6,29.64 C44.9025418,30.0682467 44.8144055,30.6587604 44.4,30.98 L44.4,30.98 L44.26,31.08 L43.74,31.38 L43.48,31.54 C43.0010744,31.7968081 42.5517268,32.1053154 42.14,32.46 L42,32.9 L42,32.9 L41.7,33.16 C42.4762868,34.3533788 43.038069,35.6732287 43.36,37.06 C43.6860484,38.4355537 43.7538643,39.8596885 43.56,41.26 L43.96,41.38 L43.96,41.38 C44.0189792,41.5326825 44.1440265,41.650374 44.3,41.7 C44.8236521,41.8382903 45.3595037,41.9253662 45.9,41.96 L45.9,41.96 L46.2,41.96 L46.76,41.96 L46.94,41.96 L46.94,41.96 L46.94,41.96 C47.4036192,42.0743167 47.7468676,42.4654602 47.8,42.94 C47.6612757,43.350831 47.2735861,43.6254445 46.84,43.62 L46.6,43.62 L46.6,43.62 L46.42,43.62 C46.2322086,43.5674723 46.0510337,43.4936603 45.88,43.4 L45.62,43.28 L45.62,43.28 C45.1235969,43.0795018 44.6073979,42.9320164 44.08,42.84 L44.08,42.84 L43.7,42.98 L43.7,42.98 L43.34,42.98 C43.0098785,43.9584592 42.5597825,44.8922407 42,45.76 C40.9941831,47.3372325 39.6218412,48.6478191 38,49.58 L38.16,49.94 L38.16,49.94 C38.1193547,50.0974187 38.1193547,50.2625813 38.16,50.42 C38.3548873,50.9200778 38.6173243,51.3911186 38.94,51.82 L38.94,51.82 L39.1,52.06 L39.44,52.54 L39.44,52.68 L39.44,52.68 C39.5307243,52.9183245 39.5307243,53.1816755 39.44,53.42 C39.3688212,53.651554 39.2011413,53.8411052 38.98,53.94 L38.64,54.04 C38.2602446,54.0316966 37.9152228,53.8170164 37.74,53.48 L37.74,53.48 L37.74,53.32 L37.56,52.78 L37.56,52.52 L37.56,52.52 C37.3844228,52.0047199 37.1704908,51.5033169 36.92,51.02 L36.54,50.76 L36.54,50.76 L36.36,50.44 C35.8557984,50.6169255 35.3415657,50.7638491 34.82,50.88 C33.9762591,51.089321 33.109259,51.190135 32.24,51.18 C30.7941782,51.2059147 29.3562212,50.9617333 28,50.46 L27.78,50.84 L27.78,50.84 L27.4,51.12 C27.1280003,51.5833484 26.9194693,52.0811321 26.78,52.6 L26.68,52.86 C26.6351095,53.044689 26.574901,53.2253145 26.5,53.4 L26.5,53.56 L26.5,53.56 C26.3222269,53.8853347 25.9900071,54.0967473 25.62,54.12 L25.26,54.02 C24.8039723,53.7805277 24.6256002,53.2186556 24.86,52.76 L24.86,52.76 L24.86,52.62 L25.2,52.14 L25.38,51.9 L25.38,51.9 C25.6744882,51.4568783 25.928831,50.9883521 26.14,50.5 C26.1687306,50.3208777 26.1175692,50.1381583 26,50 L26,50 L26.18,49.62 C25.7367169,49.3588743 25.3093008,49.0717041 24.9,48.76 C23.0424945,47.3297016 21.6505507,45.3809803 20.9,43.16 L20.48,43.16 L20.48,43.16 L20,43 L20,43 C19.4684055,43.0729285 18.9498821,43.221078 18.46,43.44 L18.46,43.44 L18.2,43.56 C18.026017,43.6419064 17.8453616,43.7088158 17.66,43.76 L17.48,43.76 L17.48,43.76 L17.24,43.76 C16.7993513,43.7822542 16.4049452,43.4885476 16.3,43.06 C16.2348269,42.5995746 16.5021975,42.156742 16.94,42 L16.94,42 L17.12,42 L17.68,42 L18,42 C18.5472474,41.96692 19.0898853,41.8798299 19.62,41.74 L19.94,41.4 L19.94,41.4 L20.32,41.28 C19.927931,38.5525619 20.5161484,35.7744753 21.98,33.44 L22.14,33.2 L22,32.8 L22,32.8 L21.84,32.34 C21.4183158,31.9984463 20.9702489,31.6908183 20.5,31.42 L20.24,31.28 L19.74,30.98 L19.58,30.86 L19.58,30.86 C19.1655945,30.5387604 19.0774582,29.9482467 19.38,29.52 C19.5372605,29.3020884 19.7913144,29.1750615 20.06,29.18 C20.3003138,29.1857363 20.5321332,29.2700343 20.72,29.42 L20.72,29.42 L20.86,29.54 L21.26,29.96 L21.46,30.16 C21.8112482,30.5693638 22.2070242,30.9383075 22.64,31.26 L22.92,31.36 L23.1,31.36 L23.1,31.36 L23.4,31.58 C24.9698656,29.88845 27.0231501,28.7221285 29.28,28.24 C29.8085302,28.1307286 30.3426702,28.0506076 30.88,28 L30.88,27.62 L30.88,27.62 C31.0002989,27.5270592 31.0792998,27.3906032 31.1,27.24 C31.1569632,26.7015022 31.1569632,26.1584978 31.1,25.62 L31.1,25.62 L31.1,25.32 C31.0694084,25.1345867 31.0694084,24.9454133 31.1,24.76 L31.1,24.52 C31.091811,24.2676115 31.185514,24.0225422 31.36,23.84 C31.5018333,23.6097329 31.7342134,23.4499715 32,23.4 M29.68,36 C30.1099497,35.9900169 30.4591371,35.6495592 30.48,35.22 L30.74,30.46 L29.8,30.64 C28.1172885,31.0124588 26.5765039,31.8591963 25.36,33.08 L29.36,35.9 L29.72,36 M34.14,36 L34.56,35.88 L38.46,33.12 C37.0183385,31.6760199 35.1278954,30.7660679 33.1,30.54 L33.38,35.38 L33.52,35.7 C33.6708351,35.8884009 33.8986615,35.9986394 34.14,36 M22.6,40.62 L27.2,39.28 L27.56,39.04 C27.862557,38.7357475 27.862557,38.2442525 27.56,37.94 L24,34.78 C22.9364051,36.5316991 22.4664533,38.5798472 22.66,40.62 M41.24,40.62 C41.3337775,39.6090952 41.2662685,38.5897097 41.04,37.6 L41.04,37.6 C40.8087708,36.6064963 40.424158,35.6550857 39.9,34.78 L36.24,38 L36.06,38.34 C35.9816655,38.7560814 36.2329837,39.1633903 36.64,39.28 L41.18,40.6 M32,41.32 L33.32,40.7 L33.6,39.3 L32.72,38.18 L31.26,38.18 L30.36,39.3 L30.7,40.7 L32,41.32 M37.02,47.5 C38.1771331,46.7664825 39.1545639,45.7822166 39.88,44.62 C40.261643,44.0701774 40.5520438,43.4623618 40.74,42.82 L35.88,42 L35.48,42.1 C35.1332237,42.2620679 34.9552933,42.6518203 35.06,43.02 L36.92,47.5 M23.14,42.84 L23.14,42.84 C23.8257644,44.7588173 25.1265754,46.3971361 26.84,47.5 L28.66,43.14 L28.66,42.66 C28.598884,42.3240369 28.3359631,42.061116 28,42 L28,42 L23.28,42.8 M32,49 C32.6729524,48.9861856 33.3428851,48.9057937 34,48.76 L34.86,48.52 L32.58,44.38 L32.2,44 L31.86,44 C31.6241546,44.0064467 31.4007756,44.1073275 31.24,44.28 L28.9,48.54 C29.8697163,48.8518606 30.8813894,49.0137283 31.9,49.02 M31.9,21.42 C31.1167564,21.4252556 30.367989,21.7428348 29.8198003,22.3022876 C29.2716117,22.8617404 28.9693258,23.6168115 28.98,24.4 L28.98,24.64 C28.9745267,24.9982815 29.0216966,25.3554248 29.12,25.7 L29.12,25.7 L29.12,26.02 L29.12,26.02 L28.78,26.02 C26.6692241,26.4778276 24.7001352,27.4383588 23.04,28.82 L22.8,28.56 L22.54,28.3 L22.16,27.88 L22,28 L22,27.8 C21.4329636,27.3448832 20.727088,27.0978267 20,27.1 C19.0857036,27.0935949 18.2234538,27.5247199 17.68,28.26 C16.7774197,29.5233553 17.0044065,31.2694073 18.2,32.26 L18.42,32.42 L18.66,32.6 L19.32,32.98 L19.32,32.98 L19.32,32.98 L19.7,33.2 C18.6628299,35.2345714 18.1538935,37.4972752 18.22,39.78 L18,40 C17.847177,39.982308 17.692823,39.982308 17.54,40 C17.36,40 17.2,40 17,40 L16.76,40 C16.5746625,40.0229052 16.3931204,40.0699716 16.22,40.14 C14.8177467,40.6038619 13.9668415,42.0248736 14.22,43.48 C14.4997735,44.8520573 15.7199938,45.8282335 17.12,45.8 C17.4157575,45.8271125 17.7139801,45.8000014 18,45.72 L18.18,45.72 C18.4529575,45.6376534 18.7202013,45.5374369 18.98,45.42 L18.98,45.42 L18.98,45.42 L19.42,45.26 C20.3315113,47.2522494 21.7023245,49.0000362 23.42,50.36 L23.62,50.52 L23.4,50.9 L23.4,51 L23.4,51 L23.1,51.44 L23.1,51.44 L22.86,51.88 L22.86,51.88 L22.86,51.88 C22.5032081,52.6040685 22.4598159,53.4429845 22.74,54.2 C22.9943982,54.9176599 23.5281927,55.5019485 24.22,55.82 C24.5917847,56.0081415 25.0033423,56.1041717 25.42,56.1 C26.4849984,56.073621 27.4607464,55.4987617 28,54.58 L28,54.58 L28.16,54.28 C28.2446372,54.0864456 28.3115771,53.8856259 28.36,53.68 L28.36,53.68 L28.36,53.42 L28.36,53.24 L28.36,52.96 C29.471866,53.23866 30.6137464,53.3797158 31.76,53.38 C32.7909657,53.3870604 33.8188221,53.2661361 34.82,53.02 L35.08,53.02 L35.2,53.34 L35.2,53.48 L35.2,53.74 C35.2711515,54.0166125 35.3717251,54.2848088 35.5,54.54 L35.62,54.76 C36.134231,55.7694816 37.1671402,56.4092686 38.3,56.42 C38.8972338,56.4682412 39.4939456,56.3208183 40,56 L40.1,56 C40.7901494,55.6227312 41.2959732,54.9796124 41.5,54.22 C41.6943747,53.4735498 41.601593,52.6813369 41.24,52 L41.24,52 L41.24,52 L41.06,51.68 C40.9306922,51.4615465 40.783523,51.2541717 40.62,51.06 L40.62,51.06 L40.62,51.06 L40.62,51.06 L40.44,50.8 C41.7500315,49.803009 42.8681643,48.5764512 43.74,47.18 C44.0871888,46.6465888 44.3882786,46.0845544 44.64,45.5 L45.02,45.64 L45.02,45.64 L45.14,45.64 C45.3970919,45.7638789 45.664846,45.8642867 45.94,45.94 L46.18,45.94 L46.18,45.94 C46.4406589,46.0106783 46.7099637,46.0443414 46.98,46.04 C48.2915942,46.0456723 49.4526922,45.1931178 49.84,43.94 C49.9039041,43.7531992 49.9376599,43.5574153 49.94,43.36 C49.8905187,42.0072432 48.9796782,40.8384654 47.68,40.46 L47.68,40.46 L47.26,40.36 L47,40.36 C46.7335163,40.3460288 46.4664837,40.3460288 46.2,40.36 L46,40 L45.62,40 C45.6393587,38.8562151 45.5184574,37.7143691 45.26,36.6 C44.9754768,35.4848375 44.5521713,34.409776 44,33.4 L44.32,33.2 L44.32,33.2 L44.52,33.2 L45.16,32.82 L45.3,32.72 L45.5,32.56 L45.7,32.36 C46.8353789,31.3199068 46.991421,29.5861052 46.06,28.36 C45.522815,27.6435649 44.6753687,27.2272755 43.78,27.24 C43.1236608,27.2526058 42.48754,27.4693063 41.96,27.86 L41.76,28.02 L41.76,28.02 L41.58,28.16 C41.4,28.36 41.24,28.52 41.1,28.7 L40.94,28.84 L40.66,29.12 L40.44,28.92 C38.7351574,27.581618 36.742847,26.6573502 34.62,26.22 L34.62,25.86 L34.62,25.74 L34.62,25.74 L34.62,25.54 C34.62,25.34 34.62,25.16 34.72,24.94 L34.72,24.38 C34.7356021,22.8268822 33.5480887,21.5258565 32,21.4 L31.9,21.42 Z" id="Shape" fill="#322965"></path>
                </g>
            </g>
        </g>
    </g>
</svg>