<?xml version="1.0" encoding="UTF-8"?>
<svg width="71px" height="72px" viewBox="0 0 71 72" version="1.1" xmlns="http://www.w3.org/2000/svg" xmlns:xlink="http://www.w3.org/1999/xlink">
    <!-- Generator: Sketch 50.2 (55047) - http://www.bohemiancoding.com/sketch -->
    <title>ico1</title>
    <desc>Created with Sketch.</desc>
    <defs></defs>
    <g id="v2" stroke="none" stroke-width="1" fill="none" fill-rule="evenodd">
        <g id="06-usecasestmplt-desktop" transform="translate(-211.000000, -529.000000)">
            <g id="subm" transform="translate(-2.000000, 510.000000)">
                <g id="CONTENT1" transform="translate(213.000000, 19.000000)">
                    <g id="ico1">
                        <path d="M46.6836,31.8482 C46.6836,31.8482 42.0106,41.9672 41.0796,42.8752 C40.1476,43.7842 37.6256,44.1882 36.2896,42.7972 C34.9546,41.4072 34.5486,38.5732 35.8536,37.5932 C37.1596,36.6142 46.6836,31.8482 46.6836,31.8482" id="Fill-1" fill="#D6DDE4"></path>
                        <path d="M46.6836,31.8482 C46.6836,31.8482 42.0106,41.9672 41.0796,42.8752 C40.1476,43.7842 37.6256,44.1882 36.2896,42.7972 C34.9546,41.4072 34.5486,38.5732 35.8536,37.5932 C37.1596,36.6142 46.6836,31.8482 46.6836,31.8482 Z" id="Stroke-3" stroke="#8F94A8" stroke-linecap="round"></path>
                        <path d="M31.0576,20.4204 L20.0256,20.4204" id="Stroke-5" stroke="#8F94A8" stroke-linecap="round"></path>
                        <path d="M38.2051,5.023 L38.2051,16.056" id="Stroke-7" stroke="#8F94A8" stroke-linecap="round"></path>
                        <path d="M38.2051,63.5982 L38.2261,70.0692" id="Stroke-9" stroke="#8F94A8" stroke-linecap="round"></path>
                        <path d="M50.9434,20.4224 L54.0194,15.2824" id="Stroke-11" stroke="#8F94A8" stroke-linecap="round"></path>
                        <path d="M62.9795,41.2134 L68.9685,41.3084" id="Stroke-13" stroke="#8F94A8" stroke-linecap="round"></path>
                        <path d="M59.8535,52.147 L64.9935,55.224" id="Stroke-15" stroke="#8F94A8" stroke-linecap="round"></path>
                        <path d="M50.3174,61.7183 L53.2304,66.9523" id="Stroke-17" stroke="#8F94A8" stroke-linecap="round"></path>
                        <path d="M60.0898,29.1831 L65.3238,26.2701" id="Stroke-19" stroke="#8F94A8" stroke-linecap="round"></path>
                        <path d="M61.0957,18.9927 L65.3977,14.8247" id="Stroke-21" stroke="#8F94A8" stroke-linecap="round"></path>
                        <path d="M31.0576,28.5855 L12.9246,28.5855" id="Stroke-23" stroke="#8F94A8" stroke-linecap="round"></path>
                        <path d="M31.0576,36.7505 L0.4996,36.7505" id="Stroke-25" stroke="#8F94A8" stroke-linecap="round"></path>
                        <path d="M31.0576,44.9156 L7.5996,44.9156" id="Stroke-27" stroke="#8F94A8" stroke-linecap="round"></path>
                        <path d="M31.0576,53.0806 L14.7006,53.0806" id="Stroke-29" stroke="#8F94A8" stroke-linecap="round"></path>
                        <path d="M31.0576,61.2456 L25.3496,61.2456" id="Stroke-31" stroke="#8F94A8" stroke-linecap="round"></path>
                        <path d="M32.6689,7.0806 C31.2899,7.0806 30.1689,5.9596 30.1689,4.5806 L30.1689,2.9996 C30.1689,1.6206 31.2899,0.4996 32.6689,0.4996 L43.6839,0.4996 C45.0629,0.4996 46.1839,1.6206 46.1839,2.9996 L46.1839,4.5806 C46.1839,5.9596 45.0629,7.0806 43.6839,7.0806 L32.6689,7.0806 Z" id="Fill-33" fill="#D6DDE4"></path>
                        <path d="M43.6836,0.000500000002 L32.6686,0.000500000002 C31.0116,0.000500000002 29.6686,1.3435 29.6686,3.0005 L29.6686,4.5805 C29.6686,6.2365 31.0116,7.5805 32.6686,7.5805 L43.6836,7.5805 C45.3396,7.5805 46.6836,6.2365 46.6836,4.5805 L46.6836,3.0005 C46.6836,1.3435 45.3396,0.000500000002 43.6836,0.000500000002 M43.6836,1.0005 C44.7866,1.0005 45.6836,1.8965 45.6836,3.0005 L45.6836,4.5805 C45.6836,5.6835 44.7866,6.5805 43.6836,6.5805 L32.6686,6.5805 C31.5666,6.5805 30.6686,5.6835 30.6686,4.5805 L30.6686,3.0005 C30.6686,1.8965 31.5666,1.0005 32.6686,1.0005 L43.6836,1.0005" id="Fill-35" fill="#8F94A8"></path>
                        <path d="M66.2959,19.3404 C65.6279,19.3404 64.9999,19.0804 64.5269,18.6084 L61.6139,15.6944 C60.6399,14.7204 60.6399,13.1334 61.6139,12.1584 L62.7319,11.0414 C63.2039,10.5694 63.8319,10.3094 64.4989,10.3094 C65.1669,10.3094 65.7949,10.5694 66.2679,11.0414 L69.1809,13.9554 C69.6529,14.4274 69.9129,15.0554 69.9129,15.7234 C69.9129,16.3904 69.6529,17.0184 69.1809,17.4904 L68.0639,18.6084 C67.5909,19.0804 66.9629,19.3404 66.2959,19.3404" id="Fill-37" fill="#D6DDE4"></path>
                        <path d="M64.5,9.8091 C63.731,9.8091 62.964,10.1021 62.378,10.6881 L61.261,11.8051 C60.089,12.9771 60.089,14.8761 61.261,16.0481 L64.174,18.9611 C64.76,19.5471 65.527,19.8401 66.296,19.8401 C67.063,19.8401 67.831,19.5471 68.417,18.9611 L69.534,17.8441 C70.706,16.6721 70.706,14.7731 69.534,13.6021 L66.621,10.6881 C66.035,10.1021 65.268,9.8091 64.5,9.8091 M64.5,10.8091 C65.034,10.8091 65.536,11.0171 65.914,11.3951 L68.827,14.3091 C69.607,15.0881 69.607,16.3571 68.827,17.1371 L67.71,18.2541 C67.332,18.6321 66.83,18.8401 66.296,18.8401 C65.762,18.8401 65.259,18.6321 64.881,18.2541 L61.968,15.3411 C61.59,14.9631 61.382,14.4611 61.382,13.9271 C61.382,13.3931 61.59,12.8901 61.968,12.5131 L63.086,11.3951 C63.463,11.0171 63.965,10.8091 64.5,10.8091" id="Fill-39" fill="#8F94A8"></path>
                        <path d="M39.1025,10.1148 C36.3175,10.1148 33.6235,10.4928 31.0575,11.1868 L31.0575,12.2308 C33.6185,11.5098 36.3145,11.1148 39.1025,11.1148 C55.4745,11.1148 68.7945,24.4348 68.7945,40.8068 C68.7945,57.1798 55.4745,70.4998 39.1025,70.4998 C36.3145,70.4998 33.6185,70.1048 31.0575,69.3838 L31.0575,70.4278 C33.6235,71.1228 36.3175,71.4998 39.1025,71.4998 C56.0535,71.4998 69.7945,57.7588 69.7945,40.8068 C69.7945,23.8558 56.0535,10.1148 39.1025,10.1148" id="Fill-42" fill="#8F94A8"></path>
                    </g>
                </g>
            </g>
        </g>
    </g>
</svg>