<?xml version="1.0" encoding="UTF-8"?>
<svg width="73px" height="64px" viewBox="0 0 73 64" version="1.1" xmlns="http://www.w3.org/2000/svg" xmlns:xlink="http://www.w3.org/1999/xlink">
    <!-- Generator: Sketch 50.2 (55047) - http://www.bohemiancoding.com/sketch -->
    <title>ico3</title>
    <desc>Created with Sketch.</desc>
    <defs></defs>
    <g id="v2" stroke="none" stroke-width="1" fill="none" fill-rule="evenodd">
        <g id="09-VSpage-desktop" transform="translate(-1099.000000, -3716.000000)">
            <g id="S5" transform="translate(124.000000, 3597.000000)">
                <g id="tile-3" transform="translate(832.000000, 89.000000)">
                    <g id="ico3" transform="translate(143.000000, 30.000000)">
                        <path d="M59.1766,45.2226 L13.4786,45.2796 C13.4786,45.2796 2.3936,43.4606 0.6896,31.9516 C-1.0144,20.4416 9.3476,18.0586 9.3476,18.0586 C9.3476,18.0586 7.1366,10.8686 14.4126,6.8966 C21.6896,2.9246 26.8476,7.5156 26.8476,7.5156 C26.8476,7.5156 37.3526,-3.3184 48.8126,1.9396 C60.2726,7.1986 61.0796,16.6486 61.0796,16.6486 C61.0796,16.6486 75.1036,19.7826 72.0706,32.9446 C69.0376,46.1056 59.1766,45.2226 59.1766,45.2226 Z" id="Stroke-1" stroke="#202951"></path>
                        <path d="M53.2342,17.1289 C57.5052,16.1339 61.0802,16.6489 61.0802,16.6489" id="Stroke-3" stroke="#202951"></path>
                        <path d="M40.4451,51.0137 L32.5541,51.0137 C29.5021,51.0137 27.0261,48.5377 27.0261,45.4857 L27.0261,40.5137 C27.0261,39.4947 27.8511,38.6707 28.8691,38.6707 L44.1311,38.6707 C45.1491,38.6707 45.9731,39.4947 45.9731,40.5137 L45.9731,45.4857 C45.9731,48.5377 43.4991,51.0137 40.4451,51.0137" id="Fill-5" fill="#F75821"></path>
                        <path d="M40.4451,51.0137 L32.5541,51.0137 C29.5021,51.0137 27.0261,48.5377 27.0261,45.4857 L27.0261,40.5137 C27.0261,39.4947 27.8511,38.6707 28.8691,38.6707 L44.1311,38.6707 C45.1491,38.6707 45.9731,39.4947 45.9731,40.5137 L45.9731,45.4857 C45.9731,48.5377 43.4991,51.0137 40.4451,51.0137 Z" id="Stroke-7" stroke="#202951"></path>
                        <path d="M32.702,38.6709 L32.702,31.6299" id="Stroke-9" stroke="#202951" stroke-linecap="round" stroke-linejoin="round"></path>
                        <path d="M40.2977,38.6709 L40.2977,31.6299" id="Stroke-11" stroke="#202951" stroke-linecap="round" stroke-linejoin="round"></path>
                        <path d="M36.4998,51.0137 L36.4998,54.8927 C36.4998,54.8927 36.2598,58.0067 38.3838,60.2327 C40.5088,62.4577 44.6218,62.9787 44.6218,62.9787 L58.3798,62.9787" id="Stroke-13" stroke="#202951" stroke-linecap="round"></path>
                    </g>
                </g>
            </g>
        </g>
    </g>
</svg>