<?xml version="1.0" encoding="UTF-8"?>
<svg width="72px" height="72px" viewBox="0 0 72 72" version="1.1" xmlns="http://www.w3.org/2000/svg" xmlns:xlink="http://www.w3.org/1999/xlink">
    <!-- Generator: Sketch 50.2 (55047) - http://www.bohemiancoding.com/sketch -->
    <title>ico3</title>
    <desc>Created with Sketch.</desc>
    <defs>
        <polygon id="path-1" points="0 0 71.999493 0 71.999493 71.9996958 0 71.9996958"></polygon>
    </defs>
    <g id="v2" stroke="none" stroke-width="1" fill="none" fill-rule="evenodd">
        <g id="06-usecasestmplt-desktop" transform="translate(-1018.000000, -530.000000)">
            <g id="subm" transform="translate(-2.000000, 510.000000)">
                <g id="CONTENT3" transform="translate(1020.000000, 20.000000)">
                    <g id="ico3">
                        <g id="Group-3">
                            <mask id="mask-2" fill="white">
                                <use xlink:href="#path-1"></use>
                            </mask>
                            <g id="Clip-2"></g>
                            <path d="M35.999493,-0.000304225352 C16.1183662,-0.000304225352 -0.000507042254,16.118569 -0.000507042254,35.9996958 C-0.000507042254,55.8818366 16.1183662,71.9996958 35.999493,71.9996958 C55.8816338,71.9996958 71.999493,55.8818366 71.999493,35.9996958 C71.999493,16.118569 55.8816338,-0.000304225352 35.999493,-0.000304225352 M35.999493,1.01378028 C55.2904225,1.01378028 70.9854085,16.7087662 70.9854085,35.9996958 C70.9854085,55.2906254 55.2904225,70.9856113 35.999493,70.9856113 C16.7095775,70.9856113 1.01357746,55.2906254 1.01357746,35.9996958 C1.01357746,16.7087662 16.7095775,1.01378028 35.999493,1.01378028" id="Fill-1" fill="#8F94A8" mask="url(#mask-2)"></path>
                        </g>
                        <path d="M6.76242254,55.3504563 C6.76242254,55.3504563 6.55250704,52.886231 10.5540845,51.2008225 C14.5576901,49.5154141 22.1055211,46.4133296 22.680507,44.5971042 C23.255493,42.7798648 26.4316056,37.0918648 24.5616338,32.9594704 C22.6896338,28.826062 22.1491268,25.9034704 18.7235493,26.0525408 C15.2979718,26.2036394 11.8328451,27.1771606 11.8328451,27.1771606 C11.8328451,27.1771606 9.89898592,31.7476394 8.58980282,30.8146817 C7.2816338,29.8817239 6.16715493,29.2560338 6.16715493,29.2560338 C6.16715493,29.2560338 6.27769014,27.1538366 8.22574648,26.0474704 C10.1738028,24.9421183 10.2346479,26.1052732 10.4526761,23.7566535 C10.6696901,21.4070197 3.93414085,21.8116394 3.93414085,21.8116394" id="Stroke-4" stroke="#8F94A8"></path>
                        <path d="M6.39197746,17.5540056 C6.39197746,17.5540056 12.7158085,13.8708507 17.0956394,14.1000338 C21.4744563,14.3282028 23.4194704,14.7733859 25.5541183,13.742062 C27.6897803,12.710738 28.9269634,8.75986479 30.9774423,8.21428732 C33.0289352,7.66870986 35.8541746,6.05935775 35.0500056,4.30701972 C34.2458366,2.55468169 28.6125972,1.80020282 28.6125972,1.80020282" id="Stroke-6" stroke="#8F94A8" stroke-linecap="round"></path>
                        <path d="M70.598231,40.3699944 C70.598231,40.3699944 69.3002028,43.0015437 67.0499493,42.2004169 C64.7996958,41.4003042 62.486569,37.5751775 62.486569,37.5751775 C62.486569,37.5751775 64.7996958,42.2997972 64.7996958,44.9992901 C64.7996958,47.7008113 61.4998648,53.5115155 60.6003718,54.5438535 C59.6998648,55.5751775 61.1996958,60.2997972 58.9504563,62.1008113 C56.7002028,63.8997972 56.2824,65.7890366 52.0404845,65.1876845 C47.7995831,64.5863324 44.3800901,65.6115718 44.0596394,62.5510648 C43.7412169,59.4905577 47.7184563,54.8683606 47.7002028,51.6587831 C47.6809352,48.4481915 45.4965972,47.8803042 46.5999211,46.1401352 C47.7032451,44.4019944 46.2318085,40.3730366 43.934907,39.537431 C41.6380056,38.7008113 40.1919211,41.6102197 36.1944,37.9574873 C32.197893,34.305769 32.546738,28.641093 35.9996958,26.3583887 C39.4536676,24.0756845 46.1354704,21.6733183 48.9678085,22.7056563 C51.8001465,23.7379944 56.1313014,30.1246986 59.2922028,28.3490366 C62.4531042,26.5743887 65.6150197,26.5317972 64.9071887,24.4306141 C64.1973296,22.3304451 62.7127099,21.7118535 62.7127099,21.7118535 C62.7127099,21.7118535 64.1354704,24.8443606 59.8540056,23.3303324 C55.5725408,21.8163042 52.0404845,18.4039099 52.0404845,18.4039099 L51.950231,20.4351211 C51.950231,20.4351211 49.1878648,22.4693746 47.1830197,20.5699944 C45.1781746,18.6716282 41.2283155,16.4933746 40.4677521,18.9545577 C39.7082028,21.4167549 40.4079211,22.5058817 37.3504563,21.7848676 C34.2909634,21.0638535 32.4818366,19.5204169 35.0494986,17.554107 C37.6171606,15.5888113 40.9403155,16.9497127 41.1177803,15.3352901 C41.294231,13.7198535 38.8076958,10.5041915 41.9036958,9.30148732 C44.9996958,8.10081127 52.1804282,14.3526423 49.5154141,9.84503662 C46.8493859,5.33945915 47.0795831,4.26858592 44.2624563,5.03117746 C41.4463437,5.79376901 41.9807662,8.39590986 40.2284282,7.2347831 C38.4750761,6.07568451 41.6430761,1.6187831 41.6430761,1.6187831" id="Stroke-8" stroke="#8F94A8" stroke-linecap="round"></path>
                        <path d="M57.9538141,17.6976 C57.9538141,17.6976 51.9362366,8.82030423 51.9504338,6.81647324 C51.964631,4.81162817 54.2544338,1.61320563 57.2236732,1.65681127 C60.1929127,1.70143099 63.7361239,4.32588169 63.3943775,6.81647324 C63.052631,9.3060507 57.9538141,17.6976 57.9538141,17.6976" id="Fill-10" fill="#D6DDE4"></path>
                        <path d="M57.9538141,17.6976 C57.9538141,17.6976 51.9362366,8.82030423 51.9504338,6.81647324 C51.964631,4.81162817 54.2544338,1.61320563 57.2236732,1.65681127 C60.1929127,1.70143099 63.7361239,4.32588169 63.3943775,6.81647324 C63.052631,9.3060507 57.9538141,17.6976 57.9538141,17.6976 Z" id="Stroke-12" stroke="#8F94A8" stroke-linecap="round"></path>
                        <path d="M6.66233239,24.1278085 C6.66233239,24.1278085 0.643740845,15.2505127 0.657938028,13.2466817 C0.673149296,11.2418366 2.96295211,8.04341408 5.93117746,8.08701972 C8.90143099,8.13163944 12.4436282,10.7560901 12.1028958,13.2466817 C11.7611493,15.7372732 6.66233239,24.1278085 6.66233239,24.1278085" id="Fill-14" fill="#D6DDE4"></path>
                        <path d="M6.66233239,24.1278085 C6.66233239,24.1278085 0.643740845,15.2505127 0.657938028,13.2466817 C0.673149296,11.2418366 2.96295211,8.04341408 5.93117746,8.08701972 C8.90143099,8.13163944 12.4436282,10.7560901 12.1028958,13.2466817 C11.7611493,15.7372732 6.66233239,24.1278085 6.66233239,24.1278085 Z" id="Stroke-16" stroke="#8F94A8" stroke-linecap="round"></path>
                        <path d="M46.0293972,60.0495211 C46.0293972,60.0495211 40.0118197,51.1712113 40.0260169,49.1683944 C40.0402141,47.1635493 42.3300169,43.9641127 45.2992563,44.0087324 C48.2695099,44.0533521 51.811707,46.6767887 51.4699606,49.1683944 C51.1292282,51.6579718 46.0293972,60.0495211 46.0293972,60.0495211" id="Fill-18" fill="#D6DDE4"></path>
                        <path d="M46.0293972,60.0495211 C46.0293972,60.0495211 40.0118197,51.1712113 40.0260169,49.1683944 C40.0402141,47.1635493 42.3300169,43.9641127 45.2992563,44.0087324 C48.2695099,44.0533521 51.811707,46.6767887 51.4699606,49.1683944 C51.1292282,51.6579718 46.0293972,60.0495211 46.0293972,60.0495211 Z" id="Stroke-20" stroke="#8F94A8" stroke-linecap="round"></path>
                    </g>
                </g>
            </g>
        </g>
    </g>
</svg>