<?xml version="1.0" encoding="UTF-8"?>
<svg width="47px" height="56px" viewBox="0 0 47 56" version="1.1" xmlns="http://www.w3.org/2000/svg" xmlns:xlink="http://www.w3.org/1999/xlink">
    <!-- Generator: sketchtool 59.1 (101010) - https://sketch.com -->
    <title>26011966-02C7-4153-9AF4-9047342D611C</title>
    <desc>Created with sketchtool.</desc>
    <defs>
        <polygon id="path-1" points="0.193682413 0.0395531817 0.435433345 0.0395531817 0.435433345 0.409207572 0.193682413 0.409207572"></polygon>
        <polygon id="path-3" points="0.217716672 0.0360200805 0.423175896 0.0360200805 0.423175896 0.435395245 0.217716672 0.435395245"></polygon>
        <polygon id="path-5" points="0.013084772 0.0483427776 0.217716672 0.0483427776 0.217716672 0.40341962 0.013084772 0.40341962"></polygon>
        <polygon id="path-7" points="0.0133024887 0.0522846589 0.217716672 0.0522846589 0.217716672 0.399232231 0.0133024887 0.399232231"></polygon>
        <polygon id="path-9" points="0.0134984337 0.0538953167 0.217716672 0.0538953167 0.217716672 0.435420904 0.0134984337 0.435420904"></polygon>
        <polygon id="path-11" points="0.217716672 0.0541575458 0.42530952 0.0541575458 0.42530952 0.398663961 0.217716672 0.398663961"></polygon>
        <polygon id="path-13" points="0.217716672 -1.86614291e-05 0.419213453 -1.86614291e-05 0.419213453 0.377937482 0.217716672 0.377937482"></polygon>
        <polygon id="path-15" points="0.0515444222 0.0165900104 0.400958968 0.0165900104 0.400958968 0.217716672 0.0515444222 0.217716672"></polygon>
        <polygon id="path-17" points="0.0500748347 0.0104939436 0.381737538 0.0104939436 0.381737538 0.217716672 0.0500748347 0.217716672"></polygon>
        <polygon id="path-19" points="0.053651876 0.0106028019 0.400365341 0.0106028019 0.400365341 0.217716672 0.053651876 0.217716672"></polygon>
        <polygon id="path-21" points="0 0.0165900104 0.376525434 0.0165900104 0.376525434 0.217716672 0 0.217716672"></polygon>
        <polygon id="path-23" points="0.217716672 0.0594615335 0.423175896 0.0594615335 0.423175896 0.373408975 0.217716672 0.373408975"></polygon>
        <polygon id="path-25" points="0.0139120954 0.0621612202 0.217716672 0.0621612202 0.217716672 0.379156695 0.0139120954 0.379156695"></polygon>
        <polygon id="path-27" points="0 2.67188247e-06 45.8494977 2.67188247e-06 45.8494977 55.7087493 0 55.7087493"></polygon>
    </defs>
    <g id="yugaweb" stroke="none" stroke-width="1" fill="none" fill-rule="evenodd">
        <g id="01-HOME" transform="translate(-1413.000000, -984.000000)">
            <g id="CLIENTS" transform="translate(142.000000, 981.000000)">
                <g id="ink" transform="translate(1271.367460, 3.000000)">
                    <path d="M0.0267188246,33.3183663 C0.203551347,33.3947554 0.0875021774,33.4798281 0.108758261,33.5608129 C0.0783665842,33.5712332 0.0511407074,33.5700576 0.0267188246,33.5588357 L0.0267188246,33.3183663 Z" id="Fill-1" fill="#404041"></path>
                    <g id="Group-5" transform="translate(45.822784, 33.318374)">
                        <mask id="mask-2" fill="white">
                            <use xlink:href="#path-1"></use>
                        </mask>
                        <g id="Clip-4"></g>
                        <path d="M0.243864445,0.399894067 C0.277828246,0.279239446 0.0152619387,0.153399209 0.435455117,0.0395531817 L0.435455117,0.395816828 C0.381461382,0.412561219 0.317017247,0.413234161 0.243864445,0.399894067" id="Fill-3" fill="#3D3D3E" mask="url(#mask-2)"></path>
                    </g>
                    <path d="M22.1479097,55.6978109 C22.2288143,55.7222256 22.3140741,55.5988909 22.390383,55.7790731 L22.1499136,55.7790731 C22.1416575,55.7633071 22.1386116,55.7458294 22.1407491,55.7270905 C22.1429934,55.7075407 22.1453714,55.6978109 22.1479097,55.6978109" id="Fill-6" fill="#414143"></path>
                    <path d="M23.5125657,55.7790815 C23.5888479,55.5988231 23.6741344,55.7223285 23.7550123,55.6978256 C23.7624134,55.7180044 23.7645776,55.7367419 23.761505,55.7542182 C23.7586193,55.7707937 23.7557871,55.7790815 23.7530351,55.7790815 L23.5125657,55.7790815 Z" id="Fill-8" fill="#414143"></path>
                    <path d="M0.10466848,32.0062743 C0.0831324216,32.0786289 0.207933429,32.1556058 0.0267241684,32.2228838 L0.0267241684,32.0091332 C0.0486206628,31.9984724 0.0743918456,31.9970028 0.10466848,32.0062743" id="Fill-10" fill="#404041"></path>
                    <path d="M45.946622,32.2496133 C45.7653665,32.1824689 45.8905664,32.1055187 45.8675484,32.0332977 C45.8976072,32.0241599 45.9241456,32.0245072 45.946622,32.0358627 L45.946622,32.2496133 Z" id="Fill-12" fill="#404042"></path>
                    <g id="Group-16" transform="translate(0.000000, 31.795401)">
                        <mask id="mask-4" fill="white">
                            <use xlink:href="#path-3"></use>
                        </mask>
                        <g id="Clip-15"></g>
                        <path d="M0.406085137,0.429571324 C0.342729586,0.430714336 0.280027184,0.432673786 0.217760216,0.435395245 L0.217760216,0.0543910677 C0.276979151,0.0308776671 0.341423286,0.029897942 0.410874904,0.0516696093 C0.409350888,0.177618704 0.407609154,0.303622229 0.406085137,0.429571324" id="Fill-14" fill="#838384" mask="url(#mask-4)"></path>
                    </g>
                    <g id="Group-19" transform="translate(45.849503, 33.558844)">
                        <mask id="mask-6" fill="white">
                            <use xlink:href="#path-5"></use>
                        </mask>
                        <g id="Clip-18"></g>
                        <path d="M0.0261477724,0.0533260703 C0.0899387574,0.0515843369 0.153729742,0.0499393665 0.217738444,0.0483427776 L0.217738444,0.387013157 C0.160478959,0.408446154 0.0969056909,0.408349391 0.0278895057,0.389819283 C0.0272363557,0.277671006 0.0265832057,0.165474347 0.0261477724,0.0533260703" id="Fill-17" fill="#818082" mask="url(#mask-6)"></path>
                    </g>
                    <g id="Group-22" transform="translate(45.849503, 31.688526)">
                        <mask id="mask-8" fill="white">
                            <use xlink:href="#path-7"></use>
                        </mask>
                        <g id="Clip-21"></g>
                        <path d="M0.0265832057,0.0522846589 C0.0901564741,0.0535365298 0.153947459,0.0542441089 0.217738444,0.0544073964 L0.217738444,0.380982405 C0.146980526,0.40683626 0.0879793073,0.405203385 0.0407347894,0.376192638 C0.0359450226,0.268259598 0.0311552558,0.160217699 0.0265832057,0.0522846589" id="Fill-20" fill="#C1C1C2" mask="url(#mask-8)"></path>
                    </g>
                    <g id="Group-25" transform="translate(45.849503, 31.848839)">
                        <mask id="mask-10" fill="white">
                            <use xlink:href="#path-9"></use>
                        </mask>
                        <g id="Clip-24"></g>
                        <path d="M0.0408218761,0.0567183034 C0.102435694,0.0516175128 0.161436913,0.0534214509 0.217607814,0.0621923226 L0.217607814,0.435420904 C0.154252262,0.433554761 0.0904612774,0.431502004 0.0271057257,0.429449247 C0.0316777758,0.305226334 0.036249826,0.181003421 0.0408218761,0.0567183034" id="Fill-23" fill="#7F7E80" mask="url(#mask-10)"></path>
                    </g>
                    <g id="Group-28" transform="translate(0.000000, 33.532125)">
                        <mask id="mask-12" fill="white">
                            <use xlink:href="#path-11"></use>
                        </mask>
                        <g id="Clip-27"></g>
                        <path d="M0.217716672,0.0544128394 C0.284337974,0.0535419727 0.350088409,0.0549027019 0.415185694,0.0584405978 C0.406477027,0.16757108 0.397550644,0.276701562 0.38862426,0.385777615 C0.322656109,0.40444682 0.26561434,0.402813944 0.217716672,0.380987848 L0.217716672,0.0544128394 Z" id="Fill-26" fill="#7E7E80" mask="url(#mask-12)"></path>
                    </g>
                    <g id="Group-31" transform="translate(0.000000, 33.719157)">
                        <mask id="mask-14" fill="white">
                            <use xlink:href="#path-13"></use>
                        </mask>
                        <g id="Clip-30"></g>
                        <path d="M0.217716672,-1.86614291e-05 C0.271492691,0.0101829198 0.328316742,0.0119868579 0.38862426,0.00545535776 C0.393414027,0.129180632 0.398203794,0.252905907 0.402993561,0.376631182 L0.309593108,0.377937482 L0.217716672,0.37320992 L0.217716672,-1.86614291e-05 Z" id="Fill-29" fill="#B9B9BA" mask="url(#mask-14)"></path>
                    </g>
                    <g id="Group-34" transform="translate(21.802561, 55.682031)">
                        <mask id="mask-16" fill="white">
                            <use xlink:href="#path-15"></use>
                        </mask>
                        <g id="Clip-33"></g>
                        <path d="M0.0544291681,0.217651357 C0.0545380265,0.156037539 0.0535583014,0.0946414375 0.0515444222,0.0332453359 C0.159912896,0.0352047859 0.26828137,0.0373819527 0.376649843,0.0393414027 C0.397278498,0.0713457536 0.404735294,0.108357588 0.399183519,0.150594622 C0.393359598,0.19522654 0.38731796,0.217651357 0.381004177,0.217651357 L0.0544291681,0.217651357 Z" id="Fill-32" fill="#BCBCBE" mask="url(#mask-16)"></path>
                    </g>
                    <g id="Group-37" transform="translate(21.962874, 55.682031)">
                        <mask id="mask-18" fill="white">
                            <use xlink:href="#path-17"></use>
                        </mask>
                        <g id="Clip-36"></g>
                        <path d="M0.0544291681,0.217651357 C0.0520887139,0.158650139 0.0506191263,0.098995771 0.0500748347,0.0393414027 C0.159042029,0.0330276192 0.268009224,0.0271492691 0.376921989,0.0210532022 C0.381385181,0.085715054 0.38274591,0.151030056 0.381004177,0.217651357 L0.0544291681,0.217651357 Z" id="Fill-35" fill="#7F7E80" mask="url(#mask-18)"></path>
                    </g>
                    <g id="Group-40" transform="translate(23.726316, 55.682031)">
                        <mask id="mask-20" fill="white">
                            <use xlink:href="#path-19"></use>
                        </mask>
                        <g id="Clip-39"></g>
                        <path d="M0.0544291681,0.217651357 C0.0526330056,0.151030056 0.0539393056,0.085715054 0.0584569266,0.0212709189 C0.167369692,0.0271492691 0.276282457,0.0330276192 0.385140794,0.0389059694 C0.399564523,0.0844087539 0.40370114,0.125992638 0.397713931,0.163875339 C0.391998869,0.19979859 0.386501523,0.217651357 0.381004177,0.217651357 L0.0544291681,0.217651357 Z" id="Fill-38" fill="#7F7F80" mask="url(#mask-20)"></path>
                    </g>
                    <g id="Group-43" transform="translate(23.913348, 55.682031)">
                        <mask id="mask-22" fill="white">
                            <use xlink:href="#path-21"></use>
                        </mask>
                        <g id="Clip-42"></g>
                        <path d="M0,0.217651357 C0.00255039531,0.158432423 0.0041055144,0.0987780543 0.00472756203,0.0389059694 C0.128701656,0.0369465193 0.252613545,0.0352047859 0.376525434,0.0332453359 C0.374223858,0.0946414375 0.373104172,0.156037539 0.373228581,0.217651357 L0,0.217651357 Z" id="Fill-41" fill="#BCBCBD" mask="url(#mask-22)"></path>
                    </g>
                    <g id="Group-46" transform="translate(0.000000, 31.661807)">
                        <mask id="mask-24" fill="white">
                            <use xlink:href="#path-23"></use>
                        </mask>
                        <g id="Clip-45"></g>
                        <path d="M0.410983763,0.370049918 L0.314752993,0.373408975 L0.217651357,0.373222361 L0.217651357,0.0621985431 L0.404887696,0.0594615335 C0.406847146,0.16297026 0.409024313,0.266478987 0.410983763,0.370049918" id="Fill-44" fill="#C1C1C2" mask="url(#mask-24)"></path>
                    </g>
                    <g id="Group-49" transform="translate(45.849503, 33.745875)">
                        <mask id="mask-26" fill="white">
                            <use xlink:href="#path-25"></use>
                        </mask>
                        <g id="Clip-48"></g>
                        <path d="M0.0278459624,0.0657690965 C0.0909837974,0.0639029536 0.154339349,0.0626588583 0.217694901,0.0621612202 L0.217694901,0.373185038 L0.129737365,0.379156695 L0.0396026627,0.376979529 C0.0356837626,0.273221983 0.0317648625,0.169526642 0.0278459624,0.0657690965" id="Fill-47" fill="#BEBEBF" mask="url(#mask-26)"></path>
                    </g>
                    <g id="Group-52" transform="translate(0.026719, 0.000000)">
                        <mask id="mask-28" fill="white">
                            <use xlink:href="#path-27"></use>
                        </mask>
                        <g id="Clip-51"></g>
                        <path d="M39.2473563,41.79113 C38.2054824,41.7923858 37.1635819,41.7910766 36.1217348,41.7942173 C36.0363681,41.7944699 35.9827434,41.7608576 35.9265003,41.7045877 C34.0825541,39.8586376 32.2379131,38.0133821 30.3920698,36.169329 C29.8915995,35.6693663 29.3869611,35.1735718 28.8842464,34.6758536 C28.8823761,34.7291042 28.8788492,34.7824082 28.8788492,34.8356589 C28.878582,37.0931056 28.8775133,39.3505524 28.8815211,41.6079992 C28.8817348,41.7311195 28.8497791,41.7609377 28.7285291,41.7600026 C27.9761003,41.7541779 27.2235913,41.7545252 26.4711358,41.759869 C26.3623634,41.7606438 26.3426182,41.7275659 26.3426449,41.6268627 C26.3449695,34.8812412 26.3450496,28.1356197 26.3422174,21.3899982 C26.3422174,21.2836305 26.3711272,21.2607325 26.4731664,21.2613203 C27.2300573,21.2657557 27.9870283,21.2661832 28.7439191,21.2610126 C28.8555237,21.2602783 28.8813073,21.2898026 28.8812272,21.4001781 C28.8781545,25.7547587 28.878582,30.109366 28.8788225,34.4639733 C28.8788225,34.521686 28.8820822,34.5793986 28.8838189,34.6371113 C28.9232292,34.6014951 28.9642426,34.5674553 29.0017825,34.5299154 C31.2562368,32.275942 33.5107178,30.021942 35.7633819,27.7661251 C35.8345875,27.6948125 35.9049115,27.6613338 36.0076988,27.6617079 C37.0228538,27.6652615 38.0380089,27.6638988 39.0531639,27.6638988 L39.195121,27.6638988 C39.1801317,27.7290928 39.1371411,27.7553574 39.1053992,27.7871528 C38.1646026,28.7290982 37.2227374,29.6699482 36.2817538,30.6117066 C34.9663326,31.9282232 33.6523008,33.246156 32.3344482,34.5602679 C32.2544521,34.6399969 32.2582461,34.6776437 32.3360781,34.7552619 C34.3659339,36.7804954 36.39253,38.8090153 38.420943,40.8356916 C38.729492,41.1439734 39.0442398,41.4460297 39.3518269,41.7467768 C39.3185887,41.8117569 39.2781097,41.7910766 39.2473563,41.79113 L39.2473563,41.79113 Z M23.8731041,41.7343964 C23.1251374,41.7258826 22.377037,41.7287416 21.6289901,41.7323219 C21.5312259,41.7327761 21.4923233,41.7170387 21.4924301,41.6048998 C21.4957166,38.1539498 21.4941134,34.7029732 21.4977472,31.2520232 C21.4979342,31.0595675 21.5017283,30.869757 21.4447103,30.6846223 C21.3055854,30.2328337 20.9208611,29.958939 20.3944468,29.9577099 C18.6890109,29.9537823 16.9835483,29.9577634 15.2781392,29.9531677 C15.1518126,29.9528738 15.1717448,30.0206595 15.1717448,30.0944836 C15.1718517,33.790365 15.1718517,37.4862197 15.1718517,41.1820744 C15.1718517,41.3290279 15.166214,41.4762754 15.1738823,41.6228014 C15.1786917,41.7142867 15.1448924,41.7327227 15.0602472,41.7321081 C14.2857753,41.7262567 13.5112768,41.7225962 12.7367782,41.724039 C12.6367964,41.7242261 12.6212994,41.6881557 12.6226621,41.6008118 C12.6273646,41.3025229 12.6244523,41.0041537 12.6244523,40.7058114 L12.6244523,34.6677578 C12.6244523,32.3700457 12.6255477,30.0723871 12.6214585,27.7747285 C12.6212193,27.6510738 12.6545109,27.6243817 12.7739441,27.6245413 C15.4768204,27.6280956 18.1796967,27.6252901 20.8825997,27.6282292 C21.9899347,27.6294316 22.8469944,28.1212182 23.4833566,29.0074282 C23.8619891,29.5346708 24.0357416,30.1320235 24.0352072,30.7844972 C24.032188,34.3779654 24.0330697,37.9714068 24.0365972,41.5648483 C24.0367302,41.6938735 24.0140994,41.7359556 23.8731041,41.7343964 L23.8731041,41.7343964 Z M9.87831818,41.7339328 C9.13930221,41.7265239 8.40015265,41.7270583 7.66110996,41.7335509 C7.53526429,41.7346731 7.5000756,41.7087024 7.5002092,41.5767114 C7.50429718,37.7743822 7.50352233,33.972053 7.50352233,30.1697505 C7.50352233,29.9829859 7.50352233,29.9829859 7.31098648,29.9829859 C6.70102243,29.9829859 6.09100495,29.9808484 5.48106762,29.985257 C5.38843345,29.985925 5.36307729,29.9642026 5.36363839,29.8693508 C5.36799355,29.1525649 5.36863481,28.4356721 5.36314165,27.7188862 C5.36232916,27.6143354 5.39393753,27.598224 5.48897639,27.5983843 C6.95824456,27.6014837 8.42753944,27.601831 9.89680761,27.5979273 C10.0061143,27.5976361 10.0360407,27.6210953 10.0358791,27.7344098 C10.0321385,30.0452141 10.0330736,32.3559916 10.0330736,34.6667425 C10.0331003,36.9686494 10.0320049,39.2705028 10.0360407,41.5723563 C10.0362532,41.6980683 10.0106565,41.7352342 9.87831818,41.7339328 L9.87831818,41.7339328 Z M45.8494977,32.249624 C45.8205612,32.1787657 45.8427646,32.1047278 45.8357375,32.0325068 C45.8357642,31.9812601 45.8357375,31.9300401 45.8357375,31.8787667 C45.8357642,31.8292834 45.8357375,31.7798803 45.8357375,31.7303703 C45.8439669,31.4142065 45.8239545,31.0982297 45.7954722,30.7847644 C45.7491952,30.2757975 45.6795393,29.7690483 45.5971384,29.2638488 C45.4060988,28.0927627 45.1325248,26.9417692 44.7750002,25.8111888 C44.4297662,24.7194042 44.0224378,23.6512658 43.5543774,22.6051971 C43.0208826,21.4129497 42.4198961,20.2565589 41.7593533,19.1308414 C41.2138618,18.2012133 40.631712,17.2947238 40.0151752,16.4103574 C39.4268534,15.5664166 38.8150457,14.7399232 38.1755039,13.9342171 C37.4615769,13.0347813 36.7193814,12.1592855 35.9530855,11.3036419 C35.4662418,10.7600741 34.9768331,10.2184034 34.4663967,9.69797413 C33.7495841,8.96718756 33.0322638,8.23632083 32.2871025,7.53334855 C31.7920027,7.06622334 31.2936966,6.60299908 30.7905544,6.14461093 C30.1425427,5.55423178 29.4805304,4.97988392 28.8100215,4.41571594 C27.7267335,3.5042834 26.6184634,2.62371109 25.4868677,1.77268981 C24.767971,1.23203439 24.0346729,0.711524971 23.2957371,0.198870884 C23.1868311,0.123310047 23.0819063,0.0390923123 22.951465,2.67188247e-06 L22.8980274,2.67188247e-06 C22.8221459,0.0258664941 22.7529976,0.0636736309 22.6862539,0.108587975 C22.0546477,0.533737912 21.4352519,0.976361961 20.823177,1.42879182 C19.502038,2.40536486 18.2141105,3.42399333 16.9576044,4.48283363 C16.0866241,5.21679974 15.2338928,5.97115232 14.3929713,6.73881087 C13.7917443,7.28761552 13.2085792,7.85605852 12.6254676,8.42412745 C12.2813024,8.75942198 11.9453132,9.10305278 11.6152021,9.4528022 C11.2793732,9.80856335 10.9380669,10.1591678 10.604803,10.5176542 C10.0716556,11.0911738 9.55173399,11.6759954 9.04030897,12.2688594 C8.37137647,13.0442932 7.72667795,13.839098 7.10482403,14.6524191 C6.26614684,15.7494138 5.47746058,16.8810897 4.73962024,18.0487557 C4.1566422,18.9713567 3.6125935,19.9161077 3.10990553,20.8840238 C2.57411294,21.9155842 2.0954452,22.9737832 1.67828419,24.0596363 C1.29468202,25.0581187 0.963502191,26.0731936 0.696901759,27.1088153 C0.470352845,27.9887463 0.289760309,28.8780289 0.172384513,29.779816 C0.0891286552,30.4192242 0.00608654825,31.0582583 0.0137548509,31.7048806 C0.0137281321,31.7470429 0.0137548509,31.7892586 0.0137548509,31.8314477 C0.0137281321,31.8898817 0.0137815697,31.9483158 0.0137548509,32.0067766 C0.00667436239,32.0786502 0.0289845809,32.1524209 -5.34376492e-06,32.2229052 L-5.34376492e-06,33.318377 C0.029438801,33.3978655 0.00622014237,33.4803465 0.0137548509,33.5611175 C0.0137281321,33.6131925 0.0137815697,33.6652942 0.0137548509,33.7174493 C0.0137281321,33.7682685 0.0137815697,33.819061 0.0137815697,33.8699337 C0.0143426651,34.0166735 0.0211826842,34.1632529 0.0245492561,34.3097255 C0.0371071036,34.8578355 0.105373701,35.4002276 0.1790375,35.9421121 C0.315944757,36.9493049 0.519702514,37.9431116 0.794291874,38.9218221 C1.09175255,39.9820785 1.45547591,41.0189025 1.90111918,42.0266297 C2.22732931,42.7642563 2.58883501,43.4837408 2.99041895,44.1831595 C3.36755515,44.8400418 3.77670052,45.47603 4.21529002,46.0938761 C4.88921894,47.0432494 5.63397945,47.9332 6.44059405,48.7715298 C7.00882329,49.3620426 7.61339014,49.9143741 8.24232455,50.4396395 C9.02254095,51.091178 9.84398449,51.6867139 10.7035825,52.229106 C11.6351076,52.8168667 12.6064438,53.329788 13.6125678,53.7785841 C14.5207941,54.1837216 15.4506894,54.5286082 16.4042842,54.8093696 C17.3191902,55.0787756 18.2472151,55.2911101 19.1887598,55.4453311 C20.0588316,55.5878493 20.9317089,55.6960606 21.8151668,55.6949918 C21.8658524,55.6950185 21.9166182,55.6949651 21.9673305,55.6949918 C22.0191918,55.6950185 22.071053,55.6949651 22.1229143,55.6949918 C22.2029906,55.70258 22.2848303,55.6792811 22.3636509,55.708752 L23.4858415,55.708752 C23.5653567,55.6793079 23.6478377,55.7025265 23.7285553,55.6949918 C23.780657,55.6950185 23.8327587,55.6949651 23.8848871,55.6949651 C23.9357063,55.6950452 23.9864721,55.6949918 24.037318,55.6949651 C24.1840311,55.6943773 24.3306373,55.6866288 24.477003,55.6843043 C25.1282476,55.6739107 25.7712094,55.5815437 26.4127284,55.4857567 C27.5458471,55.3165731 28.6586327,55.0553431 29.7534632,54.715453 C30.7500487,54.4060757 31.721465,54.0324129 32.6645326,53.5877315 C33.8502606,53.0286401 34.9849022,52.3791857 36.0595333,51.6264362 C36.9979252,50.9691264 37.8863795,50.2497755 38.7163731,49.4609289 C39.2580705,48.9460839 39.7755073,48.4065774 40.2661451,47.8412071 C40.8679866,47.1476665 41.4283338,46.4228917 41.9436865,45.6638633 C42.7330942,44.5012471 43.4102293,43.2759218 43.9722865,41.9870324 C44.4644473,40.8584827 44.8655503,39.6993399 45.17108,38.5065047 C45.4087974,37.5783729 45.5852218,36.6394467 45.7063382,35.6889512 C45.7822999,35.0928543 45.8369666,34.4963298 45.8357642,33.8952631 C45.8357642,33.8518717 45.8357375,33.8084269 45.8357642,33.7650088 C45.8357642,33.7056129 45.8357375,33.6461635 45.8357375,33.5867141 C45.8433257,33.5063439 45.8200803,33.424237 45.8494977,33.3450958 L45.8494977,32.249624 Z" id="Fill-50" fill="#322965" mask="url(#mask-28)"></path>
                    </g>
                </g>
            </g>
        </g>
    </g>
</svg>