<?xml version="1.0" encoding="UTF-8"?>
<svg width="76px" height="63px" viewBox="0 0 76 63" version="1.1" xmlns="http://www.w3.org/2000/svg" xmlns:xlink="http://www.w3.org/1999/xlink">
    <!-- Generator: sketchtool 59.1 (101010) - https://sketch.com -->
    <title>6DD17A5F-79EE-4042-9801-CF2B909F3A2D</title>
    <desc>Created with sketchtool.</desc>
    <g id="yugaweb" stroke="none" stroke-width="1" fill="none" fill-rule="evenodd">
        <g id="01-HOME" transform="translate(-542.000000, -981.000000)" fill="#322965">
            <g id="CLIENTS" transform="translate(142.000000, 981.000000)">
                <g id="kroger" transform="translate(400.300000, 0.000000)">
                    <path d="M62.557514,51.1761667 C56.2040236,56.3059104 47.4497398,59.465708 37.7888188,59.4664612 C28.1276467,59.465708 19.3733629,56.3059104 13.0198724,51.1761667 C6.66763736,46.0491849 2.71142518,38.9314176 2.71142518,31.0561526 C2.71142518,23.1806365 6.66763736,16.0631203 13.0198724,10.9361385 C19.3733629,5.8063948 28.1276467,2.64609508 37.7888188,2.64609508 C47.4497398,2.64609508 56.2040236,5.8063948 62.557514,10.9361385 C68.909498,16.0631203 72.8662124,23.1806365 72.8662124,31.0561526 C72.8662124,38.9314176 68.909498,46.0491849 62.557514,51.1761667 M37.7888188,0 C16.9188392,0 5.0215297e-05,13.9043647 5.0215297e-05,31.0561526 C5.0215297e-05,48.2081916 16.9188392,62.1125563 37.7888188,62.1125563 C58.6587984,62.1125563 75.5773363,48.2081916 75.5773363,31.0561526 C75.5773363,13.9043647 58.6587984,0 37.7888188,0" id="Fill-1"></path>
                    <path d="M35.160751,32.7720595 C35.160751,30.2961943 34.5526437,28.5369014 32.9891905,28.5153088 C31.4473298,28.5153088 30.8392225,30.2961943 30.8392225,32.7720595 C30.8392225,35.22583 31.4473298,37.0067155 32.9891905,37.0067155 C34.5526437,37.0067155 35.160751,35.22583 35.160751,32.7720595" id="Fill-3"></path>
                    <path d="M55.3802667,28.5368763 C54.3377972,28.5368763 53.7296899,29.340321 53.4253852,30.6218154 L57.3346461,30.6218154 C57.0524361,29.340321 56.4224852,28.5368763 55.3802667,28.5368763" id="Fill-5"></path>
                    <path d="M44.3039774,28.4934651 C42.740273,28.4934651 42.1326679,30.2961943 42.1326679,32.7502159 C42.1326679,35.2044885 42.740273,37.0067155 44.3039774,37.0067155 C45.8676817,37.0067155 46.4539453,35.22583 46.4539453,32.7502159 C46.4539453,30.2743506 45.8676817,28.4934651 44.3039774,28.4934651" id="Fill-7"></path>
                    <path d="M64.7838594,31.2952778 L64.7838594,39.6129397 L61.5695783,39.6129397 L61.5695783,25.8875925 L64.1541596,25.8875925 L64.5016495,26.7779097 C65.543868,25.8654978 66.9988562,25.6920039 67.9328607,26.1045226 L67.9328607,29.1234663 C66.2390988,29.2100876 64.805452,29.8400385 64.7838594,31.2952778 M60.8748496,32.9021674 L53.4475051,32.9021674 C53.4690976,35.2911601 54.0769538,37.0067657 55.5972219,37.0067657 C56.8571237,37.0067657 57.4868236,35.8558311 57.6821611,34.1183818 L60.7877261,34.1183818 C60.4402363,37.2676342 58.7462232,39.656627 55.5972219,39.656627 C51.9269859,39.656627 50.3200964,36.5726545 50.3200964,32.7721097 C50.3200964,28.9713139 52.1876033,25.9091851 55.5972219,25.9091851 C58.3768897,25.9091851 60.0927464,27.8856592 60.6571663,30.6216396 C60.6571663,30.6216396 60.8964422,31.6643603 60.8748496,32.9021674 M52.4901504,42.647199 C52.2408315,42.8975222 51.9395397,43.0228094 51.586024,43.0228094 C51.2322572,43.0228094 50.9314676,42.8975222 50.683404,42.647199 C50.4363448,42.39788 50.3128151,42.0960861 50.3128151,41.7410639 C50.3128151,41.3898079 50.4373491,41.0895205 50.6869191,40.8402015 C50.9349827,40.5921379 51.2345169,40.4681062 51.586024,40.4681062 C51.9395397,40.4681062 52.2408315,40.5921379 52.4901504,40.8402015 C52.7394694,41.0882651 52.8640033,41.3885526 52.8640033,41.7410639 C52.8640033,42.0948307 52.7394694,42.3968757 52.4901504,42.647199 M40.1776107,53.1432004 C30.8825081,53.1432004 31.3603067,41.5022902 31.3603067,41.4806976 L34.8352052,41.4806976 C34.8786414,41.741315 34.1836617,50.9713888 40.5687878,50.8410801 C46.4540206,50.6454915 46.3453045,41.7845002 46.1934033,39.0919559 C45.6289833,39.3307297 44.9987813,39.6347833 44.2824601,39.6129397 C40.6122241,39.6129397 38.9832398,36.5726545 38.9832398,32.7502661 C38.9832398,28.9276266 40.8728415,25.800469 44.2824601,25.8875925 C44.8905674,25.9091851 45.7374484,26.1913951 46.149967,26.6257574 L46.149967,25.8654978 L49.5598368,25.8654978 L49.5598368,40.0691456 C49.5598368,41.068179 50.2548165,53.1432004 40.1776107,53.1432004 M27.7119143,32.7721097 C27.7119143,28.9713139 29.5794212,25.9091851 32.9890398,25.9091851 C36.4639384,25.9091851 38.2666675,28.9713139 38.2666675,32.7721097 C38.2666675,36.5726545 36.5726545,39.6347833 32.9890398,39.6347833 C29.3188038,39.6347833 27.7119143,36.5726545 27.7119143,32.7721097 M24.6063492,31.2952778 L24.6063492,39.6129397 L21.391817,39.6129397 L21.391817,25.8875925 L23.9763983,25.8875925 L24.3238882,26.7779097 C25.3663577,25.8654978 26.821346,25.6920039 27.7550994,26.1045226 L27.7550994,29.1234663 C26.0610864,29.2100876 24.6276907,29.8400385 24.6063492,31.2952778 M20.4362199,22.3474141 C20.5665286,28.9713139 16.1141892,29.9921909 16.8528563,29.9921909 C21.3702244,30.0788123 20.544936,39.0701123 20.6315574,39.6347833 L17.0266012,39.6347833 L17.0266012,35.0302916 C16.8096711,31.1865617 13.7907275,30.8609155 13.7907275,31.2081543 L13.7907275,39.6347833 L10.3811088,39.6129397 L10.3811088,19.4371865 L13.7907275,19.4371865 L13.7907275,28.059153 C13.7907275,28.059153 17.3306548,27.6029471 17.1137247,20.2192898 C17.1137247,20.0671374 17.2435313,18.0037909 18.1559432,16.3750577 C19.5639802,13.2699948 22.7205137,11.3349484 26.1263662,11.4886072 C35.4433125,11.4886072 34.8352052,24.041176 34.8352052,24.041176 L31.3603067,24.0627686 C31.2734342,23.8892748 31.9902576,13.7254476 25.7354402,13.81232 C22.9771139,13.8341637 21.6308418,15.9841316 20.8924258,18.3512807 C20.5665286,19.524059 20.3927836,20.8489896 20.4362199,22.3474141 M62.0077067,11.6171583 C55.823944,6.62274488 47.2584697,3.52069491 37.7886179,3.521448 C28.3190172,3.52069491 19.7532918,6.62274488 13.5695291,11.6171583 C7.38451094,16.6143336 3.58672802,23.4827819 3.58672802,31.056253 C3.58672802,38.6297241 7.38451094,45.4979214 13.5695291,50.4953477 C19.7532918,55.4895101 28.3190172,58.5910579 37.7886179,58.5910579 C47.2584697,58.5910579 55.823944,55.4895101 62.0077067,50.4953477 C68.1927249,45.4979214 71.9907589,38.6297241 71.9907589,31.056253 C71.9907589,23.4827819 68.1927249,16.6143336 62.0077067,11.6171583" id="Fill-9"></path>
                    <path d="M51.9215877,41.4628963 C51.9215877,41.3609592 51.8904542,41.2924154 51.8281873,41.2577668 C51.7659203,41.2228672 51.6662429,41.2055429 51.5291552,41.2055429 L51.3182509,41.2055429 L51.3182509,41.7132196 L51.5412068,41.7132196 C51.6459057,41.7132196 51.7244927,41.7029254 51.7767166,41.681835 C51.873381,41.6436714 51.9215877,41.5706081 51.9215877,41.4628963" id="Fill-11"></path>
                    <path d="M51.9318819,42.4385042 C51.9308776,42.4337337 51.9296222,42.4292144 51.9283668,42.4244439 C51.9271114,42.4199245 51.9263582,42.4146519 51.9251028,42.4091283 L51.9198302,42.3639345 L51.9198302,42.2529587 C51.9198302,42.0910143 51.8756407,41.9840558 51.787764,41.9320829 C51.73554,41.9022048 51.6438971,41.8871402 51.5128352,41.8871402 L51.3182509,41.8871402 L51.3182509,42.4385042 L51.0709406,42.4385042 L51.0709406,41.0367442 L51.561544,41.0367442 C51.73554,41.0367442 51.8630869,41.0535663 51.9441846,41.0872106 C52.0890557,41.1474689 52.1616168,41.265977 52.1616168,41.4422327 C52.1616168,41.5675199 52.1159209,41.659916 52.0247802,41.7191701 C51.9763224,41.7505546 51.9087828,41.7731515 51.8221614,41.7869607 C51.9318819,41.8045361 52.0119753,41.8499809 52.0626927,41.9242996 C52.1136612,41.9983671 52.1387689,42.0706771 52.1387689,42.1412296 L52.1387689,42.2439199 C52.1387689,42.2763088 52.1400243,42.3109573 52.142535,42.3481167 C52.1447947,42.385276 52.1488119,42.4096304 52.1545867,42.4211799 L52.1633744,42.4385042 L51.9318819,42.4385042 Z M51.5858985,40.6420519 C51.2833513,40.6420519 51.0247425,40.7497638 50.8103232,40.9654385 C50.5969082,41.1798578 50.4902007,41.4392198 50.4902007,41.7427713 C50.4902007,42.0488335 50.596406,42.309702 50.8083146,42.5253767 C51.0217296,42.7410514 51.2808405,42.8490143 51.5858985,42.8490143 C51.8907053,42.8490143 52.1498162,42.7410514 52.3632313,42.5253767 C52.5763952,42.309702 52.6833538,42.0488335 52.6833538,41.7427713 C52.6833538,41.4392198 52.5763952,41.1798578 52.3632313,40.9654385 C52.1488119,40.7497638 51.889701,40.6420519 51.5858985,40.6420519 L51.5858985,40.6420519 Z" id="Fill-13"></path>
                </g>
            </g>
        </g>
    </g>
</svg>