<?xml version="1.0" encoding="UTF-8"?>
<svg width="150px" height="38px" viewBox="0 0 150 38" version="1.1" xmlns="http://www.w3.org/2000/svg" xmlns:xlink="http://www.w3.org/1999/xlink">
    <!-- Generator: sketchtool 59.1 (101010) - https://sketch.com -->
    <title>DB779E63-930E-4E27-9F5D-DF27C669E66B</title>
    <desc>Created with sketchtool.</desc>
    <g id="yugaweb" stroke="none" stroke-width="1" fill="none" fill-rule="evenodd">
        <g id="01-HOME" transform="translate(-142.000000, -993.000000)" fill="#322965">
            <g id="CLIENTS" transform="translate(142.000000, 981.000000)">
                <g id="narvar" transform="translate(-0.000000, 12.500000)">
                    <path d="M31.3306646,18.5331806 C31.3306646,22.721759 27.9418251,26.1107872 23.7532467,26.1107872 L19.3961135,26.1107872 C18.9121553,26.1107872 18.5227616,25.7212047 18.5227616,25.2372466 L18.5227616,18.5331806 C18.5227616,15.9967417 16.4598994,13.9340683 13.9234605,13.9340683 C11.3872103,13.9340683 9.32453694,15.9967417 9.32453694,18.5331806 L9.32453694,25.2372466 C9.32453694,25.7212047 8.93514316,26.1107872 8.45099627,26.1107872 L7.23015336,26.1107872 C6.74600647,26.1107872 6.3566127,25.7212047 6.3566127,25.2372466 L6.3566127,18.5331806 C6.3566127,14.3446022 9.74545216,10.955574 13.9340306,10.955574 C18.122609,10.955574 21.5116372,14.3446022 21.5116372,18.5331806 L21.5116372,23.1322929 L23.7532467,23.1322929 C26.2894969,23.1322929 28.352359,21.0696196 28.352359,18.5331806 L28.352359,11.8291147 C28.352359,11.3451565 28.7417528,10.955574 29.2258997,10.955574 L30.467694,10.955574 C30.9518409,10.955574 31.3412346,11.3451565 31.3412346,11.8291147 L31.3412346,11.881965 L31.3306646,18.5331806 Z M18.554283,7.55004893e-05 C8.30358157,7.55004893e-05 3.77502447e-05,8.30361932 3.77502447e-05,18.554132 C3.77502447e-05,28.8048334 8.30358157,37.1083773 18.554283,37.1083773 C28.8047957,37.1083773 37.1085283,28.8048334 37.1085283,18.554132 C37.1085283,8.30361932 28.8047957,7.55004893e-05 18.554283,7.55004893e-05 L18.554283,7.55004893e-05 Z" id="Fill-1"></path>
                    <path d="M137.004604,10.9556684 C132.816025,10.9556684 129.426997,14.3445078 129.426997,18.533275 L129.426997,25.6686375 C129.426997,25.9106166 129.627073,26.1106929 129.869052,26.1106929 L130.511184,26.1106929 C130.753352,26.1106929 130.953051,25.9106166 130.953051,25.6686375 L130.953051,18.533275 C130.953051,15.1970971 133.658044,12.481722 137.004604,12.481722 C140.193556,12.481722 142.813989,14.9549293 143.035016,18.0912196 C143.035016,18.3331987 143.234904,18.533275 143.477072,18.533275 L144.119015,18.533275 C144.361183,18.533275 144.560881,18.3331987 144.560881,18.0912196 C144.339854,14.1130988 141.035197,10.9556684 137.004604,10.9556684 L137.004604,10.9556684 Z M87.8669976,10.9556684 C83.6782305,10.9556684 80.289391,14.3445078 80.289391,18.533275 L80.289391,25.6686375 C80.289391,25.9106166 80.4894673,26.1106929 80.7314464,26.1106929 L81.373578,26.1106929 C81.6155571,26.1106929 81.8154447,25.9106166 81.8154447,25.6686375 L81.8154447,18.533275 C81.8154447,15.1970971 84.5202497,12.481722 87.8669976,12.481722 C91.0557608,12.481722 93.676194,14.9549293 93.8972217,18.0912196 C93.8972217,18.3331987 94.097298,18.533275 94.3394658,18.533275 L94.98122,18.533275 C95.2233878,18.533275 95.4232753,18.3331987 95.4232753,18.0912196 C95.2022477,14.1130988 91.8975912,10.9556684 87.8669976,10.9556684 L87.8669976,10.9556684 Z M110.599251,11.3977237 C110.599251,11.1557447 110.399364,10.9556684 110.157196,10.9556684 L109.515253,10.9556684 C109.273085,10.9556684 109.073386,11.1557447 109.073386,11.3977237 L109.073386,18.533275 C109.073386,21.8692641 106.368393,24.5846392 103.021833,24.5846392 L98.8017335,24.5846392 L98.8017335,11.3977237 C98.8017335,11.1557447 98.6016572,10.9556684 98.3596781,10.9556684 L97.7175465,10.9556684 C97.4755674,10.9556684 97.2756799,11.1557447 97.2756799,11.3977237 L97.2756799,26.1106929 L103.337614,26.1106929 L103.337614,26.1001228 C107.378778,25.9317567 110.599251,22.6061489 110.599251,18.533275 L110.599251,11.3977237 Z M120.007933,24.5740691 C116.671756,24.5740691 113.956569,21.8692641 113.956569,18.5227049 C113.956569,15.1865271 116.661186,12.471152 120.007933,12.471152 C123.344111,12.471152 126.059486,15.175957 126.059486,18.5227049 C126.059486,21.8692641 123.344111,24.5740691 120.007933,24.5740691 L120.007933,24.5740691 Z M127.585351,18.533275 C127.585351,14.3445078 124.196701,10.9556684 120.007933,10.9556684 C115.819355,10.9556684 112.430516,14.3445078 112.430516,18.533275 C112.430516,22.7218534 115.819355,26.1106929 120.007933,26.1106929 C122.481141,26.1106929 124.670089,24.9319415 126.059486,23.1006771 L126.059486,25.6686375 C126.059486,25.9106166 126.259185,26.1106929 126.501353,26.1106929 L127.143296,26.1106929 C127.385464,26.1106929 127.585351,25.9106166 127.585351,25.6686375 L127.585351,18.533275 Z M70.8701387,24.5740691 C67.5339608,24.5740691 64.8187745,21.8692641 64.8187745,18.5227049 C64.8187745,15.1865271 67.5235795,12.471152 70.8701387,12.471152 C74.2170754,12.471152 76.9218804,15.175957 76.9218804,18.5227049 C76.9218804,21.8692641 74.2170754,24.5740691 70.8701387,24.5740691 L70.8701387,24.5740691 Z M78.4479341,25.6582562 L78.4479341,18.5227049 C78.4479341,14.3339378 75.0589059,10.9450983 70.8701387,10.9450983 C66.6815603,10.9450983 63.2929096,14.3339378 63.2929096,18.5227049 C63.2929096,22.7112833 66.6815603,26.1001228 70.8701387,26.1001228 C73.3435347,26.1001228 75.5324827,24.9213714 76.9218804,23.090107 L76.9218804,25.6582562 C76.9218804,25.9002352 77.1215792,26.1001228 77.3635583,26.1001228 L78.00569,26.1001228 C78.247669,26.1106929 78.4479341,25.9106166 78.4479341,25.6582562 L78.4479341,25.6582562 Z M53.8840386,10.9556684 C49.6954602,10.9556684 46.3066208,14.3445078 46.3066208,18.533275 L46.3066208,25.6686375 C46.3066208,25.9106166 46.5065083,26.1106929 46.7486761,26.1106929 L47.3908078,26.1106929 C47.6327869,26.1106929 47.8326744,25.9106166 47.8326744,25.6686375 L47.8326744,18.533275 C47.8326744,15.1970971 50.5372907,12.481722 53.8840386,12.481722 C57.2307866,12.481722 59.9354028,15.1865271 59.9354028,18.533275 L59.9354028,25.6686375 C59.9354028,25.9106166 60.1354791,26.1106929 60.3774582,26.1106929 L61.0195899,26.1106929 C61.2615689,26.1106929 61.4614565,25.9106166 61.4614565,25.6686375 L61.4614565,18.533275 C61.4614565,14.3445078 58.072617,10.9556684 53.8840386,10.9556684 L53.8840386,10.9556684 Z" id="Fill-3"></path>
                    <path d="M149.212787,11.4081994 L148.381527,13.3026955 L148.076127,13.3026955 L147.255248,11.4081994 L147.255248,13.3026955 L146.918516,13.3026955 L146.918516,10.8715797 L147.370953,10.8715797 L148.223542,12.85007 L149.086324,10.8715797 L149.539138,10.8715797 L149.539138,13.3026955 L149.202029,13.3026955 L149.202029,11.4081994 L149.212787,11.4081994 Z M145.676533,13.3026955 L145.339612,13.3026955 L145.339612,11.1871718 L144.529492,11.1871718 L144.529492,10.8715797 L146.487031,10.8715797 L146.487031,11.1871718 L145.676533,11.1871718 L145.676533,13.3026955 Z" id="Fill-5"></path>
                </g>
            </g>
        </g>
    </g>
</svg>