<?xml version="1.0" encoding="UTF-8"?>
<svg width="60px" height="15px" viewBox="0 0 60 15" version="1.1" xmlns="http://www.w3.org/2000/svg" xmlns:xlink="http://www.w3.org/1999/xlink">
    <!-- Generator: sketchtool 61.2 (101010) - https://sketch.com -->
    <title>867845C9-ED82-4E53-965E-476163A2D47C</title>
    <desc>Created with sketchtool.</desc>
    <g id="yugaweb" stroke="none" stroke-width="1" fill="none" fill-rule="evenodd">
        <g id="01-HOME" transform="translate(-1252.000000, -1673.000000)" fill="#546371">
            <g id="OSS---ENTERPRISE" transform="translate(140.000000, 1144.000000)">
                <g id="Group-23" transform="translate(136.000000, 525.000000)">
                    <g id="Group-20" transform="translate(661.000000, 0.000000)">
                        <g id="Group-18" transform="translate(15.000000, 0.000000)">
                            <g id="narvar2" transform="translate(300.000000, 4.000000)">
                                <path d="M12.5322658,7.41327225 C12.5322658,9.08870361 11.17673,10.4443149 9.50129868,10.4443149 L7.75844539,10.4443149 C7.56486213,10.4443149 7.40910462,10.2884819 7.40910462,10.0948986 L7.40910462,7.41327225 C7.40910462,6.39869667 6.58395977,5.57362732 5.5693842,5.57362732 C4.55488412,5.57362732 3.72981477,6.39869667 3.72981477,7.41327225 L3.72981477,10.0948986 C3.72981477,10.2884819 3.57405726,10.4443149 3.38039851,10.4443149 L2.89206134,10.4443149 C2.69840259,10.4443149 2.54264508,10.2884819 2.54264508,10.0948986 L2.54264508,7.41327225 C2.54264508,5.73784089 3.89818087,4.3822296 5.57361222,4.3822296 C7.24904358,4.3822296 8.60465487,5.73784089 8.60465487,7.41327225 L8.60465487,9.25291717 L9.50129868,9.25291717 C10.5157988,9.25291717 11.3409436,8.42784782 11.3409436,7.41327225 L11.3409436,4.73164587 C11.3409436,4.53806261 11.4967011,4.3822296 11.6903599,4.3822296 L12.1870776,4.3822296 C12.3807363,4.3822296 12.5364939,4.53806261 12.5364939,4.73164587 L12.5364939,4.752786 L12.5322658,7.41327225 Z M7.4217132,3.02001957e-05 C3.32143263,3.02001957e-05 1.51000979e-05,3.32144773 1.51000979e-05,7.4216528 C1.51000979e-05,11.5219334 3.32143263,14.8433509 7.4217132,14.8433509 C11.5219183,14.8433509 14.8434113,11.5219334 14.8434113,7.4216528 C14.8434113,3.32144773 11.5219183,3.02001957e-05 7.4217132,3.02001957e-05 L7.4217132,3.02001957e-05 Z" id="Fill-1"></path>
                                <path d="M54.8018414,4.38226735 C53.1264101,4.38226735 51.7707988,5.73780314 51.7707988,7.41331 L51.7707988,10.267455 C51.7707988,10.3642466 51.8508293,10.4442771 51.9476209,10.4442771 L52.2044736,10.4442771 C52.3013407,10.4442771 52.3812203,10.3642466 52.3812203,10.267455 L52.3812203,7.41331 C52.3812203,6.07883885 53.4632178,4.99268881 54.8018414,4.99268881 C56.0774222,4.99268881 57.1255955,5.98197172 57.2140066,7.23648785 C57.2140066,7.33327948 57.2939616,7.41331 57.3908287,7.41331 L57.6476059,7.41331 C57.744473,7.41331 57.8243525,7.33327948 57.8243525,7.23648785 C57.7359415,5.64523954 56.4140789,4.38226735 54.8018414,4.38226735 L54.8018414,4.38226735 Z M35.146799,4.38226735 C33.4712922,4.38226735 32.1157564,5.73780314 32.1157564,7.41331 L32.1157564,10.267455 C32.1157564,10.3642466 32.1957869,10.4442771 32.2925786,10.4442771 L32.5494312,10.4442771 C32.6462228,10.4442771 32.7261779,10.3642466 32.7261779,10.267455 L32.7261779,7.41331 C32.7261779,6.07883885 33.8080999,4.99268881 35.146799,4.99268881 C36.4223043,4.99268881 37.4704776,5.98197172 37.5588887,7.23648785 C37.5588887,7.33327948 37.6389192,7.41331 37.7357863,7.41331 L37.992488,7.41331 C38.0893551,7.41331 38.1693101,7.33327948 38.1693101,7.23648785 C38.0808991,5.64523954 36.7590365,4.38226735 35.146799,4.38226735 L35.146799,4.38226735 Z M44.2397005,4.5590895 C44.2397005,4.46229787 44.1597455,4.38226735 44.0628783,4.38226735 L43.8061012,4.38226735 C43.709234,4.38226735 43.6293545,4.46229787 43.6293545,4.5590895 L43.6293545,7.41331 C43.6293545,8.74770565 42.547357,9.83385569 41.2087333,9.83385569 L39.5206934,9.83385569 L39.5206934,4.5590895 C39.5206934,4.46229787 39.4406629,4.38226735 39.3438713,4.38226735 L39.0870186,4.38226735 C38.990227,4.38226735 38.9102719,4.46229787 38.9102719,4.5590895 L38.9102719,10.4442771 L41.3350457,10.4442771 L41.3350457,10.4400491 C42.9515111,10.3727027 44.2397005,9.04245956 44.2397005,7.41331 L44.2397005,4.5590895 Z M48.0031734,9.82962766 C46.6687022,9.82962766 45.5826277,8.74770565 45.5826277,7.40908197 C45.5826277,6.07461082 46.6644742,4.98846078 48.0031734,4.98846078 C49.3376445,4.98846078 50.4237946,6.07038279 50.4237946,7.40908197 C50.4237946,8.74770565 49.3376445,9.82962766 48.0031734,9.82962766 L48.0031734,9.82962766 Z M51.0341405,7.41331 C51.0341405,5.73780314 49.6786802,4.38226735 48.0031734,4.38226735 C46.327742,4.38226735 44.9722062,5.73780314 44.9722062,7.41331 C44.9722062,9.08874136 46.327742,10.4442771 48.0031734,10.4442771 C48.9924563,10.4442771 49.8680355,9.97277659 50.4237946,9.24027084 L50.4237946,10.267455 C50.4237946,10.3642466 50.5036741,10.4442771 50.6005412,10.4442771 L50.8573184,10.4442771 C50.9541855,10.4442771 51.0341405,10.3642466 51.0341405,10.267455 L51.0341405,7.41331 Z M28.3480555,9.82962766 C27.0135843,9.82962766 25.9275098,8.74770565 25.9275098,7.40908197 C25.9275098,6.07461082 27.0094318,4.98846078 28.3480555,4.98846078 C29.6868302,4.98846078 30.7687522,6.07038279 30.7687522,7.40908197 C30.7687522,8.74770565 29.6868302,9.82962766 28.3480555,9.82962766 L28.3480555,9.82962766 Z M31.3791736,10.2633025 L31.3791736,7.40908197 C31.3791736,5.73357511 30.0235623,4.37803933 28.3480555,4.37803933 C26.6726241,4.37803933 25.3171638,5.73357511 25.3171638,7.40908197 C25.3171638,9.08451333 26.6726241,10.4400491 28.3480555,10.4400491 C29.3374139,10.4400491 30.2129931,9.96854856 30.7687522,9.23604281 L30.7687522,10.2633025 C30.7687522,10.3600941 30.8486317,10.4400491 30.9454233,10.4400491 L31.202276,10.4400491 C31.2990676,10.4442771 31.3791736,10.3642466 31.3791736,10.2633025 L31.3791736,10.2633025 Z M21.5536154,4.38226735 C19.8781841,4.38226735 18.5226483,5.73780314 18.5226483,7.41331 L18.5226483,10.267455 C18.5226483,10.3642466 18.6026033,10.4442771 18.6994704,10.4442771 L18.9563231,10.4442771 C19.0531147,10.4442771 19.1330698,10.3642466 19.1330698,10.267455 L19.1330698,7.41331 C19.1330698,6.07883885 20.2149163,4.99268881 21.5536154,4.99268881 C22.8923146,4.99268881 23.9741611,6.07461082 23.9741611,7.41331 L23.9741611,10.267455 C23.9741611,10.3642466 24.0541917,10.4442771 24.1509833,10.4442771 L24.4078359,10.4442771 C24.5046276,10.4442771 24.5845826,10.3642466 24.5845826,10.267455 L24.5845826,7.41331 C24.5845826,5.73780314 23.2290468,4.38226735 21.5536154,4.38226735 L21.5536154,4.38226735 Z" id="Fill-3"></path>
                                <path d="M59.6851149,4.5693617 L59.3526108,5.34863189 L59.230451,5.34863189 L58.9020994,4.5693617 L58.9020994,5.34863189 L58.7674065,5.34863189 L58.7674065,4.34863189 L58.9483812,4.34863189 L59.2894169,5.16245176 L59.6345296,4.34863189 L59.8156553,4.34863189 L59.8156553,5.34863189 L59.6808114,5.34863189 L59.6808114,4.5693617 L59.6851149,4.5693617 Z M58.2706133,5.34863189 L58.1358449,5.34863189 L58.1358449,4.47844555 L57.8117968,4.47844555 L57.8117968,4.34863189 L58.5948124,4.34863189 L58.5948124,4.47844555 L58.2706133,4.47844555 L58.2706133,5.34863189 Z" id="Fill-5"></path>
                            </g>
                        </g>
                    </g>
                </g>
            </g>
        </g>
    </g>
</svg>