<?xml version="1.0" encoding="UTF-8"?>
<svg width="72px" height="64px" viewBox="0 0 72 64" version="1.1" xmlns="http://www.w3.org/2000/svg" xmlns:xlink="http://www.w3.org/1999/xlink">
    <!-- Generator: sketchtool 50.2 (55047) - http://www.bohemiancoding.com/sketch -->
    <title>C4E443EF-2C0F-48C2-8331-41D8BA1E6E0D</title>
    <desc>Created with sketchtool.</desc>
    <defs></defs>
    <g id="v2" stroke="none" stroke-width="1" fill="none" fill-rule="evenodd">
        <g id="03-community-desktop" transform="translate(-684.000000, -2560.000000)">
            <g id="CORE-FEATURES" transform="translate(-10.000000, 1510.000000)">
                <g id="tile-2" transform="translate(550.000000, 996.000000)">
                    <g id="open-src" transform="translate(144.000000, 54.000000)">
                        <path d="M2.0001,63.2123 C1.1731,63.2123 0.5001,62.5393 0.5001,61.7123 L0.5001,38.7123 C0.5001,37.8853 1.1731,37.2123 2.0001,37.2123 L12.4001,37.2123 C13.2281,37.2123 13.9001,37.8853 13.9001,38.7123 L13.9001,61.7123 C13.9001,62.5393 13.2281,63.2123 12.4001,63.2123 L2.0001,63.2123 Z" id="Fill-1" fill="#F75821"></path>
                        <path d="M12.3995,36.7123 L2.0005,36.7123 C0.8995,36.7123 0.0005,37.6113 0.0005,38.7123 L0.0005,61.7123 C0.0005,62.8123 0.8995,63.7123 2.0005,63.7123 L12.3995,63.7123 C13.5005,63.7123 14.3995,62.8123 14.3995,61.7123 L14.3995,38.7123 C14.3995,37.6113 13.5005,36.7123 12.3995,36.7123 M12.3995,37.7123 C12.9515,37.7123 13.3995,38.1603 13.3995,38.7123 L13.3995,61.7123 C13.3995,62.2643 12.9515,62.7123 12.3995,62.7123 L2.0005,62.7123 C1.4485,62.7123 1.0005,62.2643 1.0005,61.7123 L1.0005,38.7123 C1.0005,38.1603 1.4485,37.7123 2.0005,37.7123 L12.3995,37.7123" id="Fill-3" fill="#202951"></path>
                        <path d="M13.5001,41.2123 C13.5001,41.2123 20.7001,37.6113 26.1001,37.6113 C31.5001,37.6113 45.9001,46.6123 45.9001,46.6123 L45.9001,48.4123 C45.9001,50.2123 44.1011,50.2123 44.1011,50.2123 L29.7001,50.2123" id="Stroke-5" stroke="#202951"></path>
                        <path d="M14.4005,59.141 C14.4005,59.141 36.8775,62.812 40.5005,62.812 C44.1235,62.812 70.1225,48.165 70.1225,48.165 C70.1225,48.165 71.5805,46.105 70.7375,43.912 C69.8945,41.72 66.9295,42.036 66.9295,42.036 L59.4095,46.288 L45.9005,48.412" id="Stroke-7" stroke="#202951"></path>
                        <polygon id="Fill-9" fill="#202951" points="22.5089 7.978 22.5089 9.534 11.9669 14.228 22.5089 18.922 22.5089 20.478 10.5859 15.149 10.5859 13.334"></polygon>
                        <polygon id="Fill-11" fill="#202951" points="40.2208 0.0004 41.9488 0.0004 32.9628 27.2164 31.2348 27.2164"></polygon>
                        <polygon id="Fill-13" fill="#202951" points="49.4933 20.4194 49.4933 18.8644 60.0353 14.1704 49.4933 9.4764 49.4933 7.9204 61.4163 13.2484 61.4163 15.0634"></polygon>
                    </g>
                </g>
            </g>
        </g>
    </g>
</svg>