<?xml version="1.0" encoding="UTF-8"?>
<svg width="54px" height="59px" viewBox="0 0 54 59" version="1.1" xmlns="http://www.w3.org/2000/svg" xmlns:xlink="http://www.w3.org/1999/xlink">
    <!-- Generator: sketchtool 59.1 (101010) - https://sketch.com -->
    <title>6FD14D0C-EDDE-4E9F-BD3E-019E38FC65D2</title>
    <desc>Created with sketchtool.</desc>
    <defs>
        <polygon id="path-1" points="0.0938610814 0.0456609846 7.86715956 0.0456609846 7.86715956 9.25587268 0.0938610814 9.25587268"></polygon>
    </defs>
    <g id="yugaweb" stroke="none" stroke-width="1" fill="none" fill-rule="evenodd">
        <g id="01-HOME" transform="translate(-676.000000, -983.000000)">
            <g id="CLIENTS" transform="translate(142.000000, 981.000000)">
                <g id="plume" transform="translate(534.450000, 2.000000)">
                    <path d="M6.31776314,44.2050404 L0.404859296,44.2050404 C0.198072273,44.2050404 0.0119424347,44.3601845 0.00118348452,44.5674019 C-0.0104361817,44.7881755 0.165149885,44.9710777 0.383771753,44.9710777 L0.384202111,44.9710777 L1.32109149,44.9708625 C1.43707298,44.9708625 1.5311062,45.0646805 1.5311062,45.180662 L1.5311062,56.985167 C1.5311062,57.1011485 1.43707298,57.1949665 1.32130667,57.1949665 L0.39302445,57.1951817 C0.210122297,57.1951817 0.0442192853,57.3189096 0.00806921264,57.4979386 C-0.0416371372,57.7447489 0.145353417,57.961219 0.383126216,57.961219 L0.384202111,57.9610038 L4.35081187,57.961219 C4.53371402,57.961219 4.69940185,57.8372758 4.73555193,57.6580317 C4.78568863,57.4114366 4.59869808,57.1951817 4.36092528,57.1951817 L3.42274482,57.1949665 C3.30697852,57.1949665 3.21294529,57.1011485 3.21294529,56.985167 L3.21294529,45.180662 C3.21294529,45.0646805 3.30697852,44.9708625 3.42274482,44.9708625 L5.89278461,44.9708625 C7.47800833,44.9708625 8.27998048,46.2916312 8.27998048,48.0233918 C8.27998048,49.8584384 7.68931411,51.2297742 5.89278461,51.2297742 C5.8159657,51.2297742 4.51262648,51.2336474 4.43602275,51.2357992 C4.22428661,51.2357992 4.0532193,51.4072969 4.0532193,51.6186026 C4.0532193,51.8290477 4.22256518,51.9994695 4.43236471,52.0009757 L4.43236471,52.0016213 L5.89278461,52.0014061 L6.31776314,52.0014061 C8.27847422,52.0014061 10.0595108,50.6664355 10.0595108,48.093325 C10.0595108,45.5202145 8.27847422,44.2050404 6.31776314,44.2050404" id="Fill-1" fill="#322965"></path>
                    <path d="M22.8514507,56.256743 C22.8514507,56.256743 21.8028834,56.7725271 21.4174979,56.8837746 C20.4698495,57.157052 19.9355601,56.5569177 19.9355601,55.5094263 L19.9314717,49.4159873 C19.931902,49.1838092 19.7438356,48.9953124 19.5116574,48.9953124 L17.123816,48.9953124 C16.9163835,48.9953124 16.7304688,49.1508868 16.7197098,49.3576738 C16.7083054,49.5788778 16.8841066,49.7611344 17.1020829,49.7611344 L18.0406937,49.7611344 C18.1566752,49.7611344 18.2502781,49.8549525 18.2502781,49.970934 L18.2507085,55.0670183 C18.2507085,56.8183602 18.2569486,57.6915566 19.5028351,58.067044 L19.5034806,58.0629556 C19.5047717,58.0633859 19.5056324,58.0633859 19.5056324,58.0633859 C20.3151358,58.3771169 21.31787,58.0967387 21.9705079,57.7098468 C22.6231458,57.3227398 23.2456587,56.9095961 23.2456587,56.9095961 C23.4556734,56.7654262 23.4950511,56.5326025 23.3584125,56.3486245 C23.2286595,56.1728232 23.0472636,56.148508 22.8514507,56.256743" id="Fill-3" fill="#322965"></path>
                    <path d="M26.5199945,57.1952032 L26.2043269,57.194988 L26.170759,57.194988 C26.0549927,57.194988 25.9609595,57.10117 25.9609595,56.9847582 L25.9609595,49.4151912 C25.9609595,49.1834434 25.772893,48.9953769 25.5411452,48.9953769 L23.1526583,48.9953769 C22.9452257,48.9953769 22.7590959,49.150521 22.7485521,49.3579535 C22.7371476,49.5787272 22.9127337,49.7607686 23.1309252,49.7607686 L24.0693209,49.7607686 C24.1853023,49.7607686 24.2793356,49.855017 24.2793356,49.9709985 L24.2793356,57.5409959 C24.2793356,57.773174 24.467402,57.9612405 24.6991498,57.9612405 L26.5417276,57.9612405 L26.5417276,57.9608101 C26.7597039,57.9605949 26.93529,57.777908 26.9236703,57.5571343 C26.9129114,57.3503473 26.7272119,57.1952032 26.5199945,57.1952032" id="Fill-5" fill="#322965"></path>
                    <path d="M15.5841242,57.1952032 C15.5841242,57.1952032 14.9777497,57.1952032 14.6465892,57.194988 C14.5306078,57.194988 14.4372201,57.10117 14.4372201,56.9847582 L14.4352835,44.6248762 C14.4350683,44.3931284 14.247217,44.2052771 14.0154692,44.2052771 L11.6248305,44.2050619 C11.4369792,44.2050619 11.2628994,44.3315872 11.2295467,44.516426 C11.1856502,44.7593631 11.3711345,44.9706688 11.6061099,44.9706688 L11.6067555,44.9706688 L12.5436448,44.9704537 C12.6596263,44.9704537 12.7536596,45.0647021 12.7536596,45.1806835 L12.7536596,56.9847582 C12.7536596,57.10117 12.6596263,57.1952032 12.5436448,57.1952032 L11.6129957,57.194988 C11.4464471,57.194988 11.2908727,57.2965525 11.2413815,57.4549243 C11.158968,57.7189489 11.353705,57.9610253 11.6052492,57.9610253 L15.5651884,57.9612405 C15.7530397,57.9612405 15.9273347,57.8345 15.9606874,57.6492309 C16.0043688,57.4062938 15.8190996,57.1952032 15.5841242,57.1952032" id="Fill-7" fill="#322965"></path>
                    <g id="Group-11" transform="translate(45.187591, 48.730728)">
                        <mask id="mask-2" fill="white">
                            <use xlink:href="#path-1"></use>
                        </mask>
                        <g id="Clip-10"></g>
                        <path d="M5.97083003,3.27097907 L3.00996694,3.27119425 C2.81931834,3.27119425 2.6424412,3.40116237 2.61188578,3.589444 C2.57293838,3.82979894 2.75670125,4.0372315 2.98974011,4.0372315 L7.44717318,4.03680115 C7.67870579,4.03680115 7.86720259,3.84938023 7.86720259,3.61741727 C7.86720259,3.50466347 7.86698741,3.37361946 7.86677223,3.22987988 C7.86375973,1.20612135 6.26799224,0.0456609846 4.21174168,0.0456609846 C2.1557063,0.0456609846 0.0938610814,1.78323144 0.0938610814,4.66168097 C0.0938610814,4.80197768 0.0983798405,5.00015755 0.106771822,5.13507478 C0.309040085,8.38126523 3.54081354,10.1780099 6.4743489,8.7731062 C6.86812648,8.58460939 7.23952544,8.30358561 7.54615552,8.06323066 C7.68860402,7.95198312 7.82352125,7.7492845 7.67569328,7.52356172 C7.52765012,7.29783895 7.30988897,7.32774883 7.11730376,7.43103475 C6.43583186,7.79705424 5.68851518,8.07097711 5.00596738,8.07097711 C2.89183367,8.07097711 1.77613053,6.71965297 1.77613053,4.42455371 L1.77871268,4.03680115 C1.78107965,3.67099684 1.81486275,3.30433182 1.9086808,2.95143825 C2.25016988,1.66789549 3.13971988,0.810837522 4.21389347,0.810837522 C5.41932625,0.810837522 6.12769553,1.6186195 6.1812751,3.05709114 C6.18557868,3.17457888 6.08831777,3.27097907 5.97083003,3.27097907" id="Fill-9" fill="#322965" mask="url(#mask-2)"></path>
                    </g>
                    <path d="M32.2672105,57.1952032 L32.2407435,57.1952032 L32.2394525,57.194988 L31.3281694,57.194988 C31.2124031,57.1947729 31.1188002,57.10117 31.1188002,56.9847582 L31.1188002,49.414976 C31.1188002,49.183013 30.9309489,48.9951617 30.698986,48.9951617 L28.856193,48.9949466 L28.856193,48.9955921 C28.8075625,48.9955921 28.7615142,49.0054903 28.7184784,49.0227047 C28.7184784,49.0227047 28.7126686,49.0239957 28.7100864,49.0250716 C28.6692024,49.0420708 28.6328372,49.0670315 28.6007755,49.0958655 C28.5971175,49.0993084 28.5936746,49.1021057 28.5902317,49.104903 C28.5598915,49.1348129 28.5353611,49.1694567 28.515995,49.2077586 C28.5134128,49.2127077 28.5108307,49.217872 28.5084637,49.2228211 C28.4912494,49.2617685 28.4807056,49.3032981 28.4772628,49.347625 C28.4768324,49.351283 28.4748958,49.3538651 28.4746806,49.3570928 C28.4744654,49.3613964 28.4759717,49.3648393 28.4759717,49.3689277 C28.4757565,49.3790411 28.4738199,49.3887241 28.4744654,49.3990527 C28.4850092,49.5968022 28.6558613,49.7463516 28.8521046,49.7584017 L28.8570537,49.761199 L29.2207062,49.761199 C29.3366877,49.761199 29.4305057,49.8552322 29.4305057,49.9712137 L29.4305057,56.9847582 C29.4305057,57.10117 29.3366877,57.194988 29.2207062,57.194988 L28.8628635,57.194988 C28.8602814,57.194988 28.8579144,57.1943425 28.8557626,57.1943425 C28.6440265,57.1943425 28.4725288,57.3658402 28.4725288,57.5769308 C28.4725288,57.7886669 28.6440265,57.9601646 28.8555474,57.9603798 L28.8570537,57.9612405 L32.2452623,57.9610253 L32.2465534,57.9605949 L32.26054,57.9605949 C32.3578009,57.9605949 32.4453788,57.9231538 32.512945,57.8631188 C32.5176789,57.8592456 32.522628,57.8551572 32.5271468,57.8510688 C32.5340325,57.8441831 32.5407031,57.836867 32.5473736,57.8295509 C32.6059023,57.7675794 32.6450649,57.6883935 32.6495836,57.5982335 C32.6609881,57.3774598 32.4854021,57.1952032 32.2672105,57.1952032" id="Fill-12" fill="#322965"></path>
                    <path d="M37.7185554,57.194364 C37.7159733,57.194364 37.7140367,57.1950096 37.7114545,57.1950096 L37.3551181,57.1950096 C37.2389214,57.1950096 37.1448882,57.1007612 37.1448882,56.9847797 L37.1448882,51.9136561 L37.1440275,51.9080614 C37.1440275,50.1562892 37.0725881,49.365076 35.8919009,48.9073902 C35.0834733,48.5940896 34.0807392,48.8751134 33.4281013,49.2620052 C32.775033,49.6491123 32.1529505,50.0620408 32.1529505,50.0620408 C31.9429358,50.2057803 31.903558,50.438604 32.0397663,50.6232276 C32.1697345,50.7983833 32.3425232,50.8282932 32.5383361,50.7200582 C32.5383361,50.7200582 33.578081,50.1898571 33.9808961,50.0880774 C34.9367213,49.8449251 35.4630491,50.4149343 35.4630491,51.4617802 L35.4630491,57.0551432 C35.4630491,57.1323925 35.4002168,57.1950096 35.3229676,57.1950096 C35.3229676,57.1950096 34.8898122,57.194364 34.8876605,57.194364 C34.6761395,57.194364 34.5044266,57.3658617 34.5044266,57.5769523 C34.5044266,57.7886884 34.6778609,57.9610468 34.8893819,57.9610468 L37.7189858,57.9610468 L37.7189858,57.9608316 C37.7979565,57.9606165 37.8709022,57.9358709 37.9315826,57.8954172 C37.9341648,57.8936958 37.9358862,57.891544 37.9382532,57.8900377 C37.9556827,57.8779877 37.9724667,57.8644314 37.9875292,57.8495841 C37.9911872,57.8457109 37.9937694,57.8420528 37.9974274,57.8379644 C38.010123,57.8244081 38.0228185,57.809776 38.0337927,57.7942831 C38.0374507,57.7889036 38.0404632,57.7824482 38.0439061,57.7768536 C38.0531588,57.7622214 38.0617659,57.7469437 38.0686517,57.7310205 C38.0720945,57.7237044 38.0740311,57.7157427 38.0770436,57.7079963 C38.0824231,57.6925034 38.0880178,57.6776561 38.0914606,57.6615176 C38.0933973,57.6522649 38.094258,57.6425819 38.0957642,57.633114 C38.0974857,57.6214943 38.1000678,57.6107354 38.1009285,57.5989005 C38.1011437,57.5961032 38.0998526,57.5933059 38.0998526,57.5909389 C38.0998526,57.5859898 38.1013589,57.5819014 38.1013589,57.5769523 C38.1013589,57.3658617 37.9298612,57.194364 37.7185554,57.194364" id="Fill-14" fill="#322965"></path>
                    <path d="M43.7423195,57.194364 C43.7397373,57.194364 43.7378007,57.1950096 43.7354338,57.1950096 L43.3799581,57.1950096 C43.2639766,57.1950096 43.1701585,57.1007612 43.1701585,56.9847797 L43.1692978,51.9080614 C43.1692978,50.1562892 43.0978584,49.365076 41.916956,48.9073902 C41.1085285,48.5940896 40.1057943,48.8751134 39.4529412,49.2620052 C38.8003033,49.6491123 38.1780056,50.0620408 38.1780056,50.0620408 C37.9682061,50.2057803 37.928398,50.438604 38.0648215,50.6232276 C38.1950048,50.7983833 38.3764007,50.8231289 38.5722136,50.715109 C38.5722136,50.715109 39.6207809,50.1986794 40.0061665,50.0880774 C40.9538148,49.8148001 41.4878891,50.4149343 41.4878891,51.4617802 L41.4878891,56.9847797 C41.4878891,57.1007612 41.3938558,57.1950096 41.2780895,57.1950096 L40.9208924,57.1950096 C40.9185254,57.1950096 40.9161585,57.194364 40.9161585,57.194364 C40.7620903,57.194364 40.6325525,57.2830178 40.570581,57.4106189 C40.5692899,57.4129859 40.5679988,57.4144921 40.5667078,57.4170743 C40.5587461,57.4340734 40.5529363,57.4523636 40.5473416,57.4710842 C40.5460506,57.4766789 40.5436836,57.4820583 40.5423925,57.4874378 C40.5385193,57.5037914 40.5365827,57.5210057 40.5348613,57.5380049 C40.5340005,57.5444603 40.5322791,57.5504853 40.5318488,57.557371 C40.5316336,57.559738 40.5320639,57.5625353 40.5318488,57.5651174 C40.5318488,57.5689907 40.5305577,57.5730791 40.5305577,57.5769523 C40.5305577,57.5844836 40.5327095,57.5920148 40.5331398,57.5995461 C40.533355,57.6027738 40.5335702,57.606647 40.5340005,57.6105202 C40.5512149,57.8056876 40.7125991,57.9593254 40.9122852,57.9601861 L40.9142218,57.9610468 L41.4883194,57.9610468 L41.4885346,57.9610468 L43.1699433,57.9610468 L43.7440409,57.9610468 L43.7440409,57.9608316 C43.9482458,57.9606165 44.1150095,57.8000929 44.1259837,57.5989005 C44.1274899,57.5748005 44.1246926,57.5509156 44.120389,57.5281067 C44.0960738,57.3402554 43.9368413,57.194364 43.7423195,57.194364" id="Fill-16" fill="#322965"></path>
                    <path d="M46.2628833,35.2536799 C46.3102227,35.2536799 46.3549799,35.2521737 46.3973702,35.2491612 C46.4395453,35.2459335 46.4769864,35.2373263 46.5096936,35.222479 C46.5428312,35.2084923 46.5692982,35.1863289 46.5888795,35.1562038 C46.6080304,35.126294 46.6181438,35.0847644 46.6181438,35.0311848 C46.6181438,34.9859973 46.6091063,34.9498472 46.5916768,34.9229498 C46.5742473,34.8962676 46.5518687,34.8756104 46.5241106,34.8611934 C46.4961373,34.8463461 46.4640757,34.8368782 46.4281408,34.8317139 C46.3919907,34.8267648 46.3564862,34.8241826 46.3211968,34.8241826 L46.0431855,34.8241826 L46.0431855,35.2536799 L46.2628833,35.2536799 Z M46.3554103,34.6541912 C46.5163642,34.6541912 46.6349278,34.6858225 46.7126074,34.7499459 C46.7896415,34.8138541 46.8281586,34.9102542 46.8281586,35.0404375 C46.8281586,35.1615833 46.7943754,35.2508826 46.7261637,35.307905 C46.6585975,35.3644971 46.5740321,35.3978499 46.4731132,35.4083936 L46.8591443,36.0044395 L46.6338519,36.0044395 L46.2658958,35.4236714 L46.0431855,35.4236714 L46.0431855,36.0044395 L45.8331708,36.0044395 L45.8331708,34.6541912 L46.3554103,34.6541912 Z M45.4019521,35.7186818 C45.4503674,35.8393972 45.5172881,35.9439742 45.6029293,36.0324128 C45.6883554,36.1208513 45.7892743,36.1905693 45.9056862,36.2411364 C46.022098,36.2912731 46.1484081,36.3166642 46.2844012,36.3166642 C46.4184577,36.3166642 46.5428312,36.2912731 46.6585975,36.2411364 C46.7739334,36.1905693 46.8742069,36.1208513 46.9596329,36.0324128 C47.0452742,35.9439742 47.1121948,35.8393972 47.1606101,35.7186818 C47.2088102,35.5983967 47.2333406,35.4667072 47.2333406,35.324689 C47.2333406,35.1865441 47.2088102,35.0580822 47.1606101,34.9384427 C47.1121948,34.8188032 47.0452742,34.7155172 46.9596329,34.6277242 C46.8742069,34.5403615 46.7739334,34.4710739 46.6585975,34.4209372 C46.5428312,34.3703701 46.4184577,34.3447638 46.2844012,34.3447638 C46.1484081,34.3447638 46.022098,34.3703701 45.9056862,34.4209372 C45.7892743,34.4710739 45.6883554,34.5403615 45.6029293,34.6277242 C45.5172881,34.7155172 45.4503674,34.8188032 45.4019521,34.9384427 C45.3533217,35.0580822 45.3294368,35.1865441 45.3294368,35.324689 C45.3294368,35.4667072 45.3533217,35.5983967 45.4019521,35.7186818 L45.4019521,35.7186818 Z M45.2117339,34.8704461 C45.2737054,34.7301494 45.3576252,34.6087885 45.4639237,34.5052874 C45.5700069,34.402647 45.6935197,34.3219549 45.8346771,34.2629958 C45.9758345,34.2044671 46.1255991,34.1747724 46.2844012,34.1747724 C46.4429881,34.1747724 46.5923224,34.2044671 46.7326191,34.2629958 C46.8724854,34.3219549 46.9951375,34.402647 47.1001448,34.5052874 C47.2055825,34.6087885 47.289072,34.7301494 47.3508284,34.8704461 C47.4123695,35.0105277 47.4431401,35.1615833 47.4431401,35.324689 C47.4431401,35.4912376 47.4123695,35.6453057 47.3508284,35.7868935 C47.289072,35.9278358 47.2055825,36.0504878 47.1001448,36.1546344 C46.9951375,36.2587811 46.8724854,36.3394732 46.7326191,36.396926 C46.5923224,36.4548091 46.4429881,36.4838583 46.2844012,36.4838583 C46.1255991,36.4838583 45.9758345,36.4548091 45.8346771,36.396926 C45.6935197,36.3394732 45.5700069,36.2587811 45.4639237,36.1546344 C45.3576252,36.0504878 45.2737054,35.9278358 45.2117339,35.7868935 C45.1501927,35.6453057 45.1194221,35.4912376 45.1194221,35.324689 C45.1194221,35.1615833 45.1501927,35.0105277 45.2117339,34.8704461 L45.2117339,34.8704461 Z" id="Fill-18" fill="#322965"></path>
                    <path d="M39.0003768,24.3677957 C39.3274488,23.798432 39.4937822,23.1610718 39.4933527,22.5228509 C39.4937822,21.8889335 39.3306765,21.2541555 39.0048955,20.6856525 L39.0033893,20.6828552 L34.7611352,13.3301887 C34.6535457,13.1434133 34.4538596,13.0280773 34.2382502,13.0280773 L32.9082288,13.0280773 C32.7920321,13.0280773 32.7195168,13.1539571 32.7774,13.2546608 L37.5507158,21.5214078 L37.5489944,21.519256 C37.7271626,21.8299745 37.8156012,22.175552 37.8160315,22.5228509 C37.8156012,22.870365 37.7254412,23.218955 37.5453363,23.5326859 L37.5466274,23.5307493 L32.4451636,32.3668599 C31.5743342,33.8739737 29.9660863,34.8022559 28.2246426,34.8026863 L16.7411847,34.7990282 C16.3233071,34.798813 15.9362001,35.0841404 15.8692794,35.4966386 C15.7836381,36.0221057 16.1866684,36.4761334 16.6966427,36.4761334 L28.2242122,36.4802218 C30.5651446,36.4802218 32.7274784,35.2317532 33.897837,33.2054125 L38.9993009,24.3697323 L39.0003768,24.3677957 Z" id="Fill-20" fill="#322965"></path>
                    <path d="M27.4549043,32.1060415 L27.4572712,32.1062567 C28.1139976,32.1041049 28.7487756,31.9298099 29.3013553,31.6100539 C29.8502769,31.2939559 30.3185065,30.8354095 30.6483759,30.2688431 L30.6498821,30.2658306 L34.8964398,22.9159614 C35.0042444,22.729186 35.0042444,22.4989445 34.8964398,22.3115236 L34.2315366,21.1603159 C34.1734383,21.059397 34.0281925,21.059397 33.969879,21.1603159 L29.1969935,29.4274932 L29.1984997,29.4246959 C29.0181797,29.7345537 28.7629774,29.9839461 28.4628027,30.1575956 C28.1615521,30.331245 27.8144684,30.4272149 27.4527525,30.4282908 L27.4549043,30.428506 L17.2521918,30.428506 C15.5113937,30.4280756 13.9031458,29.499363 13.0325315,27.9911734 L7.29521376,18.0473213 C7.07637672,17.6668848 6.60319809,17.478388 6.20318032,17.658708 C5.74312761,17.8663557 5.57270584,18.4182899 5.81865544,18.8445595 L11.5794277,28.8292956 C12.7497863,30.8569274 14.9121201,32.1053959 17.2521918,32.1060415 L27.4549043,32.1060415 Z" id="Fill-22" fill="#322965"></path>
                    <path d="M14.982914,25.9763878 L14.9839899,25.9783244 C15.3138593,26.5459666 15.7825192,27.0088167 16.3355292,27.3272816 C16.8838054,27.6446706 17.5151405,27.8206871 18.1705758,27.8234844 L18.1738035,27.8232692 L26.6624,27.8258514 C26.8780094,27.8258514 27.0776955,27.7109458 27.1855002,27.5235249 L27.8506185,26.372102 C27.9085016,26.2716134 27.8357711,26.1457337 27.7197896,26.1457337 L18.1735883,26.1457337 L18.176816,26.1455185 C17.8183278,26.1442274 17.4749021,26.0482576 17.1740818,25.8748233 C16.8730464,25.7009587 16.6163378,25.4487689 16.4347268,25.1356834 L16.4355875,25.1378352 L11.3343388,16.3019398 C10.4643701,14.7937502 10.4643701,12.9365402 11.3351996,11.4287809 L17.0800486,1.4857895 C17.2892026,1.1240736 17.2354078,0.645730672 16.9117786,0.381921214 C16.4994957,0.0445205359 15.9045257,0.166527031 15.6497538,0.607859168 L9.88252611,10.5895828 C8.71173715,12.6169994 8.71173715,15.1137213 9.88145021,17.1404924 L14.982914,25.9763878 Z" id="Fill-24" fill="#322965"></path>
                    <path d="M14.0541154,12.1122755 C13.7270433,12.6816391 13.5609251,13.3189993 13.5613546,13.9572203 C13.5609251,14.5911376 13.7240308,15.2257005 14.0495966,15.7944186 L14.0511029,15.7972159 L18.2933569,23.1498825 C18.4011616,23.336873 18.6006326,23.4517786 18.8164571,23.4517786 L20.1462633,23.4517786 C20.2626752,23.4517786 20.3349753,23.3261141 20.2770922,23.2254103 L15.5037763,14.9586634 L15.5054978,14.9608151 C15.3273295,14.6503118 15.2391062,14.3045192 15.2386758,13.9572203 C15.2391062,13.6097062 15.329051,13.2613314 15.509371,12.9476004 L15.5080799,12.949537 L20.6093286,4.11321121 C21.480158,2.60588229 23.0884059,1.67781525 24.8300647,1.67781525 L36.3133074,1.68104293 C36.731185,1.68125811 37.1182921,1.39593075 37.1852127,0.98364778 C37.2710692,0.458180653 36.8676085,0.00393777577 36.3580647,0.00393777577 L24.8304951,6.45537011e-05 C22.4893475,6.45537011e-05 20.3272289,1.24831795 19.1566551,3.27465863 L14.0551913,12.1103389 L14.0541154,12.1122755 Z" id="Fill-26" fill="#322965"></path>
                    <path d="M47.2358152,17.6356838 L41.4752581,7.65073251 C40.3046843,5.62310076 38.1425657,4.37463218 35.802494,4.37420182 L25.5995663,4.37420182 L25.5974146,4.37420182 C24.9406882,4.37592326 24.305695,4.55021825 23.7533305,4.86997425 C23.2044089,5.18628738 22.7361793,5.64461866 22.4060947,6.2109698 L22.4048037,6.21419749 L18.158246,13.5642819 C18.0502262,13.7508421 18.0502262,13.981514 18.158246,14.1682894 L18.8231492,15.3197122 C18.8812475,15.4206312 19.0264933,15.4206312 19.0845916,15.3197122 L23.8574771,7.05253488 L23.8564012,7.05554739 C24.0365061,6.7459048 24.2914932,6.49608198 24.5918831,6.32243252 C24.8931337,6.14899825 25.2400022,6.05281323 25.6017181,6.05195252 L25.5995663,6.05173734 L35.8022788,6.05173734 C37.5430769,6.0521677 39.15154,6.98044992 40.0221543,8.48906991 L45.7590417,18.4331372 C45.9780939,18.8131433 46.4512725,19.001425 46.8515055,18.821105 C47.3117734,18.6136724 47.48198,18.0617383 47.2358152,17.6356838" id="Fill-28" fill="#322965"></path>
                    <path d="M38.0715781,10.503877 L38.0707174,10.50151 C37.740848,9.934083 37.2721881,9.47101778 36.7191781,9.15276803 C36.1706868,8.835379 35.5393516,8.65936258 34.8839163,8.65678043 L34.8809038,8.65678043 L26.3923073,8.6539831 C26.1764828,8.6539831 25.9770118,8.76910387 25.868992,8.95652478 L25.2040889,10.1077325 C25.1459905,10.2086514 25.2185058,10.3345311 25.3349177,10.3345311 L34.8809038,10.3345311 L34.8778913,10.3345311 C35.2361644,10.3358222 35.5798052,10.4320072 35.8804103,10.6052263 C36.1814457,10.7788758 36.4381543,11.0317111 36.6199805,11.344151 L36.6189046,11.3422144 L41.7203685,20.178325 C42.5903372,21.6860843 42.590122,23.5432943 41.7195078,25.0512687 L35.9744435,34.994045 C35.7655047,35.3561912 35.8190843,35.8341038 36.1427135,36.0981284 C36.5552117,36.4355291 37.1499664,36.3133074 37.4049535,35.8719753 L43.171966,25.890682 C44.342755,23.8632654 44.3429702,21.3663283 43.1732571,19.3397724 L38.0715781,10.503877 Z" id="Fill-30" fill="#322965"></path>
                </g>
            </g>
        </g>
    </g>
</svg>