<?xml version="1.0" encoding="UTF-8"?>
<svg width="63px" height="72px" viewBox="0 0 63 72" version="1.1" xmlns="http://www.w3.org/2000/svg" xmlns:xlink="http://www.w3.org/1999/xlink">
    <!-- Generator: Sketch 50.2 (55047) - http://www.bohemiancoding.com/sketch -->
    <title>sec-compl</title>
    <desc>Created with Sketch.</desc>
    <defs>
        <polygon id="path-1" points="0 0.503 51.5113 0.503 51.5113 63.424 0 63.424"></polygon>
        <polygon id="path-3" points="0.8695 0.927 22.6415 0.927 22.6415 11.4378 0.8695 11.4378"></polygon>
        <polygon id="path-5" points="0.2817 0.4893 22.792 0.4893 22.792 23 0.2817 23"></polygon>
    </defs>
    <g id="v2" stroke="none" stroke-width="1" fill="none" fill-rule="evenodd">
        <g id="02-enterprise-desktop" transform="translate(-538.000000, -2861.000000)">
            <g id="B" transform="translate(0.000000, 2515.000000)">
                <g id="tile-2" transform="translate(424.666667, 299.000000)">
                    <g id="sec-compl" transform="translate(114.000000, 46.000000)">
                        <g id="Group-3" transform="translate(0.000000, 5.073000)">
                            <mask id="mask-2" fill="white">
                                <use xlink:href="#path-1"></use>
                            </mask>
                            <g id="Clip-2"></g>
                            <path d="M46.5963,0.503 L4.9143,0.503 C2.2003,0.503 -0.0007,2.704 -0.0007,5.418 L-0.0007,58.509 C-0.0007,61.223 2.2003,63.424 4.9143,63.424 L46.5963,63.424 C49.3103,63.424 51.5113,61.223 51.5113,58.509 L51.5113,5.418 C51.5113,2.704 49.3103,0.503 46.5963,0.503 M46.5963,1.503 C48.7553,1.503 50.5113,3.26 50.5113,5.418 L50.5113,58.509 C50.5113,60.667 48.7553,62.424 46.5963,62.424 L4.9143,62.424 C2.7563,62.424 0.9993,60.667 0.9993,58.509 L0.9993,5.418 C0.9993,3.26 2.7563,1.503 4.9143,1.503 L46.5963,1.503" id="Fill-1" fill="#202951" mask="url(#mask-2)"></path>
                        </g>
                        <path d="M17.1315,11.0105 C16.1595,11.0105 15.3695,10.2195 15.3695,9.2475 L15.3695,3.2625 C15.3695,2.2905 16.1595,1.4995 17.1315,1.4995 L34.3795,1.4995 C35.3515,1.4995 36.1415,2.2905 36.1415,3.2625 L36.1415,9.2475 C36.1415,10.2195 35.3515,11.0105 34.3795,11.0105 L17.1315,11.0105 Z" id="Fill-4" fill="#F75821"></path>
                        <g id="Group-8" transform="translate(14.000000, 0.073000)">
                            <mask id="mask-4" fill="white">
                                <use xlink:href="#path-3"></use>
                            </mask>
                            <g id="Clip-7"></g>
                            <path d="M20.3795,0.9268 L3.1325,0.9268 C1.8825,0.9268 0.8695,1.9398 0.8695,3.1898 L0.8695,9.1748 C0.8695,10.4248 1.8825,11.4378 3.1325,11.4378 L20.3795,11.4378 C21.6285,11.4378 22.6415,10.4248 22.6415,9.1748 L22.6415,3.1898 C22.6415,1.9398 21.6285,0.9268 20.3795,0.9268 M20.3795,1.9268 C21.0755,1.9268 21.6415,2.4928 21.6415,3.1898 L21.6415,9.1748 C21.6415,9.8708 21.0755,10.4378 20.3795,10.4378 L3.1325,10.4378 C2.4365,10.4378 1.8695,9.8708 1.8695,9.1748 L1.8695,3.1898 C1.8695,2.4928 2.4365,1.9268 3.1325,1.9268 L20.3795,1.9268" id="Fill-6" fill="#202951" mask="url(#mask-4)"></path>
                        </g>
                        <path d="M50.5367,72.573 C44.6057,72.573 39.7817,67.749 39.7817,61.818 C39.7817,55.887 44.6057,51.062 50.5367,51.062 C56.4677,51.062 61.2917,55.887 61.2917,61.818 C61.2917,67.749 56.4677,72.573 50.5367,72.573" id="Fill-9" fill="#F75821"></path>
                        <g id="Group-13" transform="translate(39.000000, 50.073000)">
                            <mask id="mask-6" fill="white">
                                <use xlink:href="#path-5"></use>
                            </mask>
                            <g id="Clip-12"></g>
                            <path d="M11.5367,0.4893 C5.3207,0.4893 0.2817,5.5283 0.2817,11.7453 C0.2817,17.9613 5.3207,23.0003 11.5367,23.0003 C17.7527,23.0003 22.7927,17.9613 22.7927,11.7453 C22.7927,5.5283 17.7527,0.4893 11.5367,0.4893 M11.5367,1.4893 C17.1917,1.4893 21.7927,6.0903 21.7927,11.7453 C21.7927,17.3993 17.1917,22.0003 11.5367,22.0003 C5.8827,22.0003 1.2817,17.3993 1.2817,11.7453 C1.2817,6.0903 5.8827,1.4893 11.5367,1.4893" id="Fill-11" fill="#202951" mask="url(#mask-6)"></path>
                        </g>
                        <path d="M55.0455,57.533 L54.0775,56.974 C53.6225,56.712 53.0415,56.868 52.7785,57.322 L49.4935,63.012 L47.5375,61.884 C47.0825,61.621 46.5015,61.777 46.2385,62.231 L45.6805,63.199 C45.4175,63.654 45.5735,64.235 46.0275,64.498 L48.8075,66.102 L49.7745,66.661 C50.2305,66.924 50.8115,66.768 51.0735,66.313 L51.6325,65.345 L55.3935,58.832 C55.6555,58.377 55.5005,57.796 55.0455,57.533" id="Fill-14" fill="#FFFFFF"></path>
                        <path d="M55.0455,57.533 L54.0775,56.974 C53.6225,56.712 53.0415,56.868 52.7785,57.322 L49.4935,63.012 L47.5375,61.884 C47.0825,61.621 46.5015,61.777 46.2385,62.231 L45.6805,63.199 C45.4175,63.654 45.5735,64.235 46.0275,64.498 L48.8075,66.102 L49.7745,66.661 C50.2305,66.924 50.8115,66.768 51.0735,66.313 L51.6325,65.345 L55.3935,58.832 C55.6555,58.377 55.5005,57.796 55.0455,57.533 Z" id="Stroke-16" stroke="#202951"></path>
                        <polygon id="Fill-18" fill="#F75821" points="14.87 46.241 36.641 46.241 36.641 30.052 14.87 30.052"></polygon>
                        <polygon id="Stroke-20" stroke="#202951" points="14.87 46.241 36.641 46.241 36.641 30.052 14.87 30.052"></polygon>
                        <path d="M35.6412,49.033 L15.8702,49.033 C15.3172,49.033 14.8702,48.585 14.8702,48.033 L14.8702,46.241 L36.6412,46.241 L36.6412,48.033 C36.6412,48.585 36.1942,49.033 35.6412,49.033 Z" id="Stroke-21" stroke="#202951"></path>
                        <path d="M31.2096,30.0515 L31.2096,25.5735" id="Stroke-22" stroke="#202951"></path>
                        <path d="M31.2096,25.574 C31.2096,22.669 28.8556,20.314 25.9496,20.314 C23.0456,20.314 20.6896,22.669 20.6896,25.574 L20.6896,26.574" id="Stroke-23" stroke="#202951" stroke-linecap="round" stroke-linejoin="round"></path>
                        <path d="M27.818,38.1463 C27.818,40.0213 26.894,41.5413 25.755,41.5413 C24.617,41.5413 23.694,40.0213 23.694,38.1463 C23.694,36.2713 24.617,34.7503 25.755,34.7503 C26.894,34.7503 27.818,36.2713 27.818,38.1463" id="Fill-24" fill="#F75821"></path>
                        <path d="M27.818,38.1463 C27.818,40.0213 26.894,41.5413 25.755,41.5413 C24.617,41.5413 23.694,40.0213 23.694,38.1463 C23.694,36.2713 24.617,34.7503 25.755,34.7503 C26.894,34.7503 27.818,36.2713 27.818,38.1463 Z" id="Stroke-25" stroke="#202951"></path>
                    </g>
                </g>
            </g>
        </g>
    </g>
</svg>