<?xml version="1.0" encoding="UTF-8"?>
<svg width="134px" height="36px" viewBox="0 0 134 36" version="1.1" xmlns="http://www.w3.org/2000/svg" xmlns:xlink="http://www.w3.org/1999/xlink">
    <!-- Generator: sketchtool 59.1 (101010) - https://sketch.com -->
    <title>D55AF805-E461-4F5F-BAB7-AC9DC6CBF569</title>
    <desc>Created with sketchtool.</desc>
    <defs>
        <polygon id="path-1" points="7.47598582e-05 0.149395117 34.7387381 0.149395117 34.7387381 34.8879338 7.47598582e-05 34.8879338"></polygon>
    </defs>
    <g id="yugaweb" stroke="none" stroke-width="1" fill="none" fill-rule="evenodd">
        <g id="01-HOME" transform="translate(-350.000000, -994.000000)">
            <g id="CLIENTS" transform="translate(142.000000, 981.000000)">
                <g id="turvo" transform="translate(208.150000, 13.500000)">
                    <g id="Group-11" transform="translate(0.000000, 0.099929)">
                        <mask id="mask-2" fill="white">
                            <use xlink:href="#path-1"></use>
                        </mask>
                        <g id="Clip-10"></g>
                        <path d="M27.4070388,25.5211466 C26.3728608,25.6305452 25.4642793,25.2405479 24.5768798,24.7912412 C22.9124761,23.9486976 21.6704657,22.6501189 20.6507412,21.1157974 C19.391536,19.2216318 18.4722389,17.1572629 17.6147434,15.0614948 C17.5596703,14.9271763 17.4998624,14.7943529 17.4108981,14.5872681 C17.1243187,15.2710716 16.87487,15.8858469 16.6104693,16.4938937 C15.778392,18.4072477 14.854111,20.2700142 13.5844394,21.9406478 C12.4132016,23.4814485 10.948656,24.6292615 9.11479668,25.2854039 C8.53391258,25.4932363 7.9425621,25.5894273 7.31433009,25.4787827 C8.34452094,25.0583831 9.19379293,24.3930203 9.97976824,23.6324634 C11.5228117,22.1397582 12.5667085,20.3039053 13.5592702,18.4346596 C15.0985757,15.5342263 15.9361353,12.3987979 16.6139581,9.21228353 C16.859918,8.05699452 17.0944147,6.89921352 17.3358891,5.73445493 C17.5853378,5.84385352 17.5624115,6.06040791 17.599293,6.24107757 C18.1759407,9.07372859 18.7254257,11.9121112 19.6579303,14.6580408 C20.5607802,17.3165014 21.8316978,19.7870655 23.4799034,22.0547812 C24.4938963,23.4495509 25.6952872,24.6566734 27.3180746,25.3591669 C27.3731477,25.399288 27.4621119,25.4207192 27.4070388,25.5211466 M17.3692818,0.149395117 C7.77659521,0.149395117 7.47598582e-05,7.92591557 7.47598582e-05,17.5186022 C7.47598582e-05,27.111538 7.77659521,34.8880584 17.3692818,34.8880584 C26.9622176,34.8880584 34.7387381,27.111538 34.7387381,17.5186022 C34.7387381,7.92591557 26.9622176,0.149395117 17.3692818,0.149395117" id="Fill-9" fill="#322965" mask="url(#mask-2)"></path>
                    </g>
                    <path d="M87.062814,18.8515705 C89.0118035,21.4731495 90.9388634,24.0645754 92.9269773,26.7384863 C91.9585879,26.7384863 91.0829008,26.7379879 90.2072136,26.7389847 C90.0631763,26.7389847 90.005362,26.6303337 89.934091,26.5346411 C87.5716794,23.3585931 85.2087695,20.1825451 82.8466072,17.0059988 C82.8296616,16.9828232 82.8241792,16.9511749 82.8022497,16.8948558 C83.0469636,16.8029011 83.2986551,16.8584726 83.5418739,16.851495 C84.3355744,16.8283195 85.1360032,16.9205233 85.9214802,16.7710036 C88.0905128,16.3578308 89.5301385,14.4412372 89.3532069,12.230339 C89.182256,10.0897151 87.4077061,8.44674258 85.1412364,8.40188667 C83.1919977,8.36350994 81.2412638,8.40462786 79.2912775,8.3851903 C78.8721239,8.38095391 78.9728005,8.63588503 78.9728005,8.85493141 C78.9708069,14.4798631 78.9713053,20.1047949 78.9713053,25.7299758 C78.9713053,26.7412275 78.9713053,26.7412275 77.9411145,26.7412275 C77.6408291,26.7412275 77.3387992,26.7197963 77.0415042,26.7472083 C76.7457044,26.774371 76.7023436,26.6502697 76.7025928,26.3886102 C76.709072,19.7586567 76.7093212,13.1287033 76.7018445,6.49874988 C76.701596,6.21142282 76.7656403,6.11423501 77.0719065,6.1157302 C79.8317913,6.12769178 82.5924237,6.09704024 85.35181,6.12943618 C88.4030091,6.16557011 91.0201025,8.46318975 91.5606163,11.5178776 C92.0946509,14.5369298 90.3846437,17.5657009 87.5146127,18.6816164 C87.3795466,18.7344467 87.2432345,18.7840374 87.062814,18.8515705" id="Fill-1" fill="#322965"></path>
                    <path d="M70.8271408,12.9579019 C70.8271408,10.8127924 70.832374,8.66768288 70.8206616,6.52307175 C70.8189172,6.21805153 70.8854535,6.09718976 71.2143969,6.11513212 C71.7227639,6.14329167 72.2346198,6.13830768 72.7434852,6.11662732 C73.0335534,6.10416735 73.1309905,6.18366199 73.1257573,6.48818382 C73.1068181,7.5530134 73.1200257,8.61809218 73.1177829,9.68292176 C73.1125497,12.8779089 73.1708624,16.0743912 73.0823965,19.2666372 C72.9722504,23.2408713 69.8146431,26.4779731 65.9622676,26.7107255 C61.8387631,26.959925 58.3589409,24.2401614 57.6878465,20.2263046 C57.6043647,19.7259119 57.5791955,19.2113149 57.5781987,18.7031971 C57.5694768,14.6681583 57.5806907,10.6331196 57.562474,6.59808081 C57.5605056,6.18515719 57.6763834,6.08398218 58.0626426,6.11488293 C58.495253,6.14927246 58.9355886,6.15674845 59.3662054,6.11313853 C59.8065409,6.06853181 59.87532,6.25019827 59.8700868,6.63944793 C59.8501508,8.21413974 59.8618632,9.78908076 59.8618632,11.3640218 C59.8618632,13.8692246 59.860368,16.3741783 59.8623616,18.8791319 C59.8646044,21.811712 61.9970048,24.1830947 64.8637961,24.4440066 C67.6760128,24.6999345 70.20165,22.7649002 70.7426622,19.9267667 C70.8064573,19.5905966 70.8219076,19.2412188 70.8234028,18.8978219 C70.8308788,16.9179316 70.8271408,14.9377922 70.8271408,12.9579019" id="Fill-3" fill="#322965"></path>
                    <path d="M102.675264,22.2466648 C103.529769,20.237369 104.350134,18.3120535 105.167758,16.3852427 C106.560036,13.1047802 107.955802,9.82556357 109.334374,6.5391202 C109.47268,6.20893083 109.640142,6.08981345 109.995251,6.11398581 C110.502621,6.14812614 111.016471,6.15011974 111.523342,6.11448421 C111.983116,6.08208827 111.95695,6.24456636 111.811666,6.58297932 C110.731137,9.10114054 109.663317,11.6247842 108.592258,14.1471818 C106.871784,18.1996645 105.149068,22.2511504 103.438562,26.3073711 C103.305988,26.6218609 103.166436,26.7982942 102.790145,26.7497003 C102.438026,26.7040968 102.114814,26.8132462 101.906733,26.3183359 C99.1326436,19.7197816 96.3303949,13.1331889 93.5246574,6.54784218 C93.3803709,6.20942923 93.3778789,6.09105945 93.7950389,6.11498261 C94.3480127,6.14638175 94.9049736,6.14164695 95.4584458,6.11498261 C95.7520028,6.10102743 95.8743598,6.21939721 95.9812664,6.47233473 C97.8697004,10.9414791 99.7666072,15.4071346 101.662268,19.8732885 C101.987972,20.6408231 102.316915,21.4071116 102.675264,22.2466648" id="Fill-5" fill="#322965"></path>
                    <path d="M45.3766672,17.5763666 C45.3766672,14.6672113 45.368942,11.7580561 45.3858876,8.84914998 C45.3881304,8.46588111 45.2769874,8.38140247 44.9104149,8.38489126 C43.0962423,8.40383043 41.2813222,8.38239927 39.4671496,8.40283363 C39.1010755,8.40707002 39.0083733,8.29767143 39.0295552,7.95153328 C39.0584624,7.47331939 39.0569672,6.9911183 39.0298044,6.51290441 C39.0116129,6.19044022 39.1225067,6.11468357 39.4332585,6.11591453 C42.5073838,6.12714354 45.58126,6.12265795 48.6553854,6.12265795 C50.3048371,6.12265795 51.9545379,6.12814034 53.6039896,6.11742476 C53.8828439,6.11543116 54.0084404,6.16676627 53.9904981,6.48349887 C53.9623385,6.9918659 53.9620893,7.50397093 53.9904981,8.01208877 C54.009188,8.34103214 53.8873295,8.40258443 53.5850504,8.40034163 C51.7708779,8.38688486 49.9562069,8.40557482 48.1420344,8.38414366 C47.7532831,8.37940887 47.6461273,8.46662871 47.6471241,8.87182714 C47.6625745,14.6599846 47.6533541,20.448142 47.6673093,26.2365486 C47.6683061,26.644239 47.5731118,26.7847876 47.156201,26.7501488 C46.6944343,26.7115229 46.2259392,26.7202449 45.7629265,26.7486536 C45.4407115,26.7680912 45.3681944,26.659191 45.3696896,26.3486884 C45.3816512,23.4245811 45.3766672,20.5004739 45.3766672,17.5763666" id="Fill-7" fill="#322965"></path>
                    <path d="M27.4070388,25.6210756 L27.3180746,25.4590959 C27.4399331,25.4513707 27.5508269,25.4842651 27.6016636,25.5979001 C27.609638,25.6155932 27.4803035,25.6509796 27.4070388,25.6210756" id="Fill-12" fill="#322965"></path>
                    <path d="M122.597595,24.4605036 C118.238597,24.4330916 114.631185,20.754159 114.682769,16.3891801 C114.73535,11.9459525 118.330552,8.37193289 122.725684,8.39351513 C127.179876,8.4155428 130.747915,12.0369103 130.729792,16.5170194 C130.712279,20.9248607 127.0635,24.4889123 122.597595,24.4605036 M132.918941,15.0746526 C132.179317,9.45570163 127.067487,5.5156079 121.395457,6.2021526 C115.820863,6.87723412 111.780342,12.087747 112.482088,17.6957332 C113.128511,22.8576522 117.445395,26.6888458 122.669614,26.7364429 C127.828792,26.7835416 132.238128,22.9219457 132.918443,17.7687487 C132.937133,17.6274525 132.865363,17.4300865 133.072448,17.3493459 L133.072448,17.1691746 C132.917446,16.9590994 132.916449,16.7492734 133.072448,16.5391982 L133.072448,16.3592761 C132.919439,16.1492009 132.912462,15.9393749 133.072448,15.7292997 L133.072448,15.6393387 C132.857887,15.497295 132.943612,15.2618014 132.918941,15.0746526" id="Fill-14" fill="#322965"></path>
                </g>
            </g>
        </g>
    </g>
</svg>