<?xml version="1.0" encoding="UTF-8"?>
<svg width="138px" height="36px" viewBox="0 0 138 36" version="1.1" xmlns="http://www.w3.org/2000/svg" xmlns:xlink="http://www.w3.org/1999/xlink">
    <!-- Generator: sketchtool 59.1 (101010) - https://sketch.com -->
    <title>A0955A35-18E0-4278-B886-B762AC73D1BE</title>
    <desc>Created with sketchtool.</desc>
    <defs>
        <polygon id="path-1" points="0.282966071 0.261779206 20.4397974 0.261779206 20.4397974 27.6350409 0.282966071 27.6350409"></polygon>
        <polygon id="path-3" points="0 34.7661376 136.500354 34.7661376 136.500354 0.418712741 0 0.418712741"></polygon>
    </defs>
    <g id="yugaweb" stroke="none" stroke-width="1" fill="none" fill-rule="evenodd">
        <g id="01-HOME" transform="translate(-788.000000, -994.000000)">
            <g id="CLIENTS" transform="translate(142.000000, 981.000000)">
                <g id="xignite" transform="translate(646.917460, 13.500000)">
                    <polygon id="Fill-1" fill="#322965" points="15.4832854 7.93653253 11.405442 13.6578234 7.34518452 7.93653253 0.123645873 7.93653253 7.61986008 17.6669979 0.000125613822 27.4271919 7.08181421 27.4271919 11.3204433 21.5920112 15.4460199 27.4271919 22.6750954 27.4271919 15.0729469 17.5363596 22.5871657 7.93653253"></polygon>
                    <g id="Group-4" transform="translate(36.428009, 7.131097)">
                        <mask id="mask-2" fill="white">
                            <use xlink:href="#path-1"></use>
                        </mask>
                        <g id="Clip-3"></g>
                        <path d="M14.4233141,0.805687057 L14.204746,1.66781659 C13.5004712,1.23235534 12.7271087,0.891104456 11.8658166,0.639458099 C11.0158298,0.393673719 10.0678641,0.261779206 9.02778167,0.261779206 C7.86794738,0.261779206 6.73700427,0.491652501 5.63369619,0.945955825 C4.52996941,1.3952346 3.59582128,2.02790955 2.83795122,2.83644385 C2.0289982,3.70276051 1.40260394,4.72190733 0.949975468,5.8876036 C0.504883824,7.05623086 0.282966071,8.44635716 0.282966071,10.0563077 C0.282966071,13.4131277 1.01278238,15.9099118 2.48330153,17.5533593 C3.95005226,19.1972255 6.03063587,20.0204148 8.73133305,20.0204148 C9.83966568,20.0204148 10.8512757,19.8432993 11.754439,19.4815315 C12.6613708,19.1206011 13.4824665,18.6361504 14.235312,18.0181304 L14.235312,18.3840854 C14.235312,19.1972255 14.1545005,19.8885202 13.9891089,20.470531 C13.8312542,21.0429113 13.5737459,21.5227561 13.2199336,21.8937356 C12.8380676,22.2835571 12.2895539,22.5900549 11.5785797,22.8048545 C10.8629996,23.0179793 9.92801407,23.1255885 8.78576571,23.1255885 C7.92656717,23.1255885 6.95515361,23.0012308 5.86859404,22.7541902 C4.77575379,22.5004503 3.85500447,22.2253561 3.10006539,21.925139 L2.34387018,21.925139 L2.34387018,26.8043986 C3.29769781,27.0317596 4.42529122,27.232323 5.72623171,27.39269 C7.02884705,27.5555693 8.34904832,27.6351247 9.69060394,27.6351247 C11.3445193,27.6351247 12.8263437,27.4747577 14.1369145,27.1598857 C15.4499977,26.8395705 16.5713104,26.3245538 17.4987591,25.605624 C18.4299763,24.9013492 19.1543493,23.9207239 19.6647602,22.6704477 C20.1827078,21.4272896 20.4397974,19.8855893 20.4397974,18.0570707 L20.4397974,0.805687057 L14.4233141,0.805687057 Z M14.235312,14.1529931 C13.7370439,14.4779142 13.1998354,14.7370974 12.6014949,14.933055 C12.0069228,15.1281751 11.3981145,15.2295036 10.7863752,15.2295036 C9.4196968,15.2295036 8.39510672,14.8601989 7.70464941,14.1220084 C7.0074927,13.3771184 6.66624181,12.0690598 6.66624181,10.192808 C6.66624181,8.50078982 7.06611248,7.18980023 7.87925263,6.24937141 C8.69783603,5.30391804 9.91126556,4.83244749 11.5367084,4.83244749 C11.9508153,4.83244749 12.4122368,4.87348134 12.9310219,4.96392329 C13.4464572,5.05227168 13.8794062,5.16741768 14.235312,5.31606071 L14.235312,14.1529931 Z" id="Fill-2" fill="#322965" mask="url(#mask-2)"></path>
                    </g>
                    <path d="M75.9127875,27.4269826 L75.9127875,17.7559744 C75.9127875,16.9750751 75.8746846,16.1899887 75.7892672,15.4107643 C75.7118054,14.6256779 75.5719553,14.0524602 75.3826972,13.6831555 C75.1494742,13.2502066 74.8132478,12.939103 74.3723433,12.7427267 C73.9335324,12.5450943 73.3130001,12.447953 72.5224704,12.447953 C71.9618141,12.447953 71.3923647,12.5400698 70.8124476,12.7234659 C70.2295995,12.914399 69.6040426,13.2083353 68.9311713,13.6107182 L68.9311713,27.4269826 L62.7174742,27.4269826 L62.7174742,7.93590446 L68.9311713,7.93590446 L68.9311713,10.0859944 C70.0261051,9.21967772 71.0846109,8.55685545 72.0962209,8.09417788 C73.1099244,7.62605703 74.2362617,7.39283403 75.4702081,7.39283403 C77.5604221,7.39283403 79.188796,8.01127275 80.3637039,9.23684495 C81.5335873,10.4645107 82.124391,12.2988912 82.124391,14.7399865 L82.124391,27.4269826 L75.9127875,27.4269826 Z" id="Fill-5" fill="#322965"></path>
                    <mask id="mask-4" fill="white">
                        <use xlink:href="#path-3"></use>
                    </mask>
                    <g id="Clip-8"></g>
                    <polygon id="Fill-7" fill="#322965" mask="url(#mask-4)" points="87.6399265 5.16063454 94.1990616 5.16063454 94.1990616 0.418712741 87.6399265 0.418712741"></polygon>
                    <polygon id="Fill-9" fill="#322965" mask="url(#mask-4)" points="87.817042 27.4281968 94.0265519 27.4281968 94.0265519 7.9362813 87.817042 7.9362813"></polygon>
                    <path d="M106.448126,20.8776454 C106.454407,21.3880562 106.549873,21.8494776 106.720289,22.2547916 C106.880656,22.6575932 107.161194,22.980002 107.569439,23.2178309 C107.969728,23.4569158 108.564719,23.5754115 109.345199,23.5754115 C109.661746,23.5754115 110.084646,23.5025555 110.602175,23.36773 C111.122216,23.2224367 111.483565,23.1018474 111.690828,22.980002 L112.204589,22.980002 L112.204589,27.256734 C111.544279,27.4271501 110.834142,27.5615568 110.087996,27.6607918 C109.345199,27.7617015 108.437012,27.8111096 107.355895,27.8111096 C104.948297,27.8111096 103.155369,27.3128415 101.979205,26.3355659 C100.804297,25.3474039 100.22103,23.6675284 100.22103,21.2829593 L100.22103,12.1713513 L97.6693946,12.1713513 L97.6693946,7.9377468 L100.22103,7.9377468 L100.22103,2.36509892 L106.430959,2.36509892 L106.430959,7.9377468 L112.204589,7.9377468 L112.204589,12.1713513 L106.430959,12.1713513 L106.430959,19.0884858 C106.430959,19.7768496 106.430959,20.3689094 106.448126,20.8776454" id="Fill-10" fill="#322965" mask="url(#mask-4)"></path>
                    <path d="M134.929176,16.650824 C134.929176,13.6390232 134.133622,11.3361031 132.554656,9.73368949 C130.973178,8.13085711 128.612057,7.33404676 125.469199,7.33404676 C122.062552,7.33404676 119.376929,8.27154459 117.431589,10.1465402 C115.469083,12.0240482 114.494319,14.5828017 114.494319,17.7947472 C114.494319,21.0464703 115.52854,23.5491164 117.591956,25.308966 C119.654535,27.0717467 122.623209,27.9489499 126.497139,27.9489499 C128.000736,27.9489499 129.37537,27.8170554 130.610992,27.5637342 C131.849544,27.3120878 133.168908,26.8967248 134.563221,26.3323 L134.563221,21.3148652 L133.881138,21.3148652 C133.168908,21.8629602 132.197913,22.3708587 130.973178,22.845679 C129.745094,23.3209179 128.475557,23.5591655 127.175453,23.5591655 C125.1112,23.5591655 123.547726,23.1509206 122.490058,22.3448985 C121.426946,21.5275713 120.847448,20.3597814 120.754075,18.8352483 L134.929176,18.8352483 L134.929176,16.650824 Z M120.735652,15.172768 C120.831537,13.7981341 121.25653,12.7961545 122.026543,12.1710164 C122.794462,11.543366 123.775506,11.2339372 124.968,11.2339372 C126.257635,11.2339372 127.199739,11.5638829 127.805197,12.222518 C128.41903,12.8807345 128.738089,13.8659655 128.765724,15.172768 L120.735652,15.172768 Z" id="Fill-11" fill="#322965" mask="url(#mask-4)"></path>
                    <polygon id="Fill-12" fill="#322965" mask="url(#mask-4)" points="25.8680732 5.16063454 32.4267895 5.16063454 32.4267895 0.418712741 25.8680732 0.418712741"></polygon>
                    <polygon id="Fill-13" fill="#322965" mask="url(#mask-4)" points="26.0430951 27.4281968 32.2563735 27.4281968 32.2563735 7.9362813 26.0430951 7.9362813"></polygon>
                    <path d="M134.090118,6.14419077 C134.224106,6.12325513 134.416295,6.10860018 134.598435,6.10860018 C134.880647,6.10860018 135.068231,6.15758958 135.192588,6.25473093 C135.294335,6.33177408 135.354211,6.4540382 135.354211,6.59053855 C135.354211,6.82418026 135.182539,6.97868526 134.972764,7.04484187 L134.972764,7.04735415 C135.12685,7.0950874 135.219805,7.22488835 135.272144,7.40577226 C135.337882,7.65239406 135.380172,7.81820431 135.431254,7.89482874 L135.152392,7.89482874 C135.119313,7.83913994 135.073674,7.69049692 135.01966,7.46816046 C134.95769,7.22488835 134.847988,7.13025927 134.610577,7.12607215 L134.360606,7.12607215 L134.360606,7.89482874 L134.090118,7.89482874 L134.090118,6.14419077 Z M134.360606,6.95146893 L134.627745,6.95146893 C134.912888,6.95146893 135.089585,6.82418026 135.089585,6.61984844 C135.089585,6.38620673 134.900745,6.28906538 134.614346,6.28906538 C134.495013,6.28906538 134.409595,6.29618349 134.360606,6.30497646 L134.360606,6.95146893 Z" id="Fill-14" fill="#322965" mask="url(#mask-4)"></path>
                    <path d="M134.76278,5.54187249 C133.978949,5.54187249 133.34125,6.19548308 133.34125,6.99857412 C133.34125,7.80292129 133.978949,8.45820673 134.76278,8.45820673 C135.54661,8.45820673 136.184728,7.80292129 136.184728,6.99857412 C136.184728,6.19548308 135.54661,5.54187249 134.76278,5.54187249 M134.76278,8.77349743 C133.805184,8.77349743 133.025959,7.97710579 133.025959,6.99857412 C133.025959,6.02129858 133.805184,5.22658179 134.76278,5.22658179 C135.720794,5.22658179 136.500437,6.02129858 136.500437,6.99857412 C136.500437,7.97710579 135.720794,8.77349743 134.76278,8.77349743" id="Fill-15" fill="#322965" mask="url(#mask-4)"></path>
                </g>
            </g>
        </g>
    </g>
</svg>