<?xml version="1.0" encoding="UTF-8"?>
<svg width="22px" height="22px" viewBox="0 0 22 22" version="1.1" xmlns="http://www.w3.org/2000/svg" xmlns:xlink="http://www.w3.org/1999/xlink">
    <g id="info-tip-icon" fill-rule="nonzero">
        <path d="M9.1,14.6 C9.1,14.4 9.2,14.2 9.3,14 L10.2,10.6 C10.2,10.6 10.2,10.5 10.2,10.5 C10.2,10.5 10.2,10.4 10.2,10.4 C10.2,10.2 10.1,10.1 10,10 C9.9,10 9.6,9.9 9.3,9.9 L9.3,9.5 C9.6,9.5 10,9.4 10.5,9.4 C11,9.3 11.4,9.3 11.6,9.2 L12.2,9.1 L11,13.4 C11.1,13.8 11,14 11,14.2 C10.9,14.6 10.9,14.8 10.9,14.9 C10.9,15 10.9,15.1 11,15.1 C11,15.1 11.1,15.1 11.2,15.1 C11.4,15.1 11.5,15 11.8,14.7 C12,14.4 12.2,14.2 12.4,13.9 L12.7,14.1 C12.2,14.8 11.8,15.3 11.6,15.6 C11.2,16 10.7,16.2 10.2,16.2 C9.9,16.2 9.7,16.1 9.5,15.9 C9.3,15.7 9.2,15.5 9.2,15.1 C9,15.1 9.1,14.9 9.1,14.6 Z M12.7,6.1 C12.9,6.3 13,6.5 13,6.8 C13,7.1 12.9,7.3 12.7,7.5 C12.5,7.7 12.3,7.8 12,7.8 C11.7,7.8 11.5,7.7 11.3,7.5 C11.1,7.3 11,7.1 11,6.8 C11,6.5 11.1,6.3 11.3,6.1 C11.5,5.9 11.7,5.8 12,5.8 C12.3,5.8 12.5,5.9 12.7,6.1 Z" class="outline" fill="#141920"></path>
        <path d="M11,0 C4.9,0 0,4.9 0,11 C0,17.1 4.9,22 11,22 C17.1,22 22,17.1 22,11 C22,4.9 17.1,0 11,0 Z M11,21.5 C5.2,21.5 0.5,16.8 0.5,11 C0.5,5.2 5.2,0.5 11,0.5 C16.8,0.5 21.5,5.2 21.5,11 C21.5,16.8 16.8,21.5 11,21.5 Z" class="icon" fill="#707070"></path>
    </g>
</svg>