<?xml version="1.0" encoding="utf-8"?>
<!-- Generator: Adobe Illustrator 24.2.1, SVG Export Plug-In . SVG Version: 6.00 Build 0)  -->
<svg version="1.1" id="Layer_1" xmlns="http://www.w3.org/2000/svg" xmlns:xlink="http://www.w3.org/1999/xlink" x="0px" y="0px"
	 viewBox="0 0 1084 186" style="enable-background:new 0 0 1084 186;" xml:space="preserve">
<style type="text/css">
	.st0{fill:#FFFFFF;}
	.st1{clip-path:url(#SVGID_2_);}
	.st2{fill:#B2B3BA;}
	.st3{fill:#F26E46;}
	.st4{fill:#F4896A;}
	.st5{fill:#EC5735;}
	.st6{fill:#FF6E42;}
	.st7{fill:#FFFFFF;stroke:#FFFFFF;stroke-width:2;stroke-miterlimit:10;}
	.st8{fill:#ED5735;}
	.st9{fill:#322965;}
	.st10{stroke:#000000;stroke-width:4;stroke-linejoin:round;stroke-miterlimit:10;}
	.st11{fill:#322965;stroke:#322965;stroke-width:4;stroke-linecap:round;stroke-linejoin:round;stroke-miterlimit:10;}
	.st12{fill:#312965;}
	.st13{clip-path:url(#SVGID_4_);}
	.st14{fill:#5B5480;}
	.st15{clip-path:url(#SVGID_6_);}
	.st16{clip-path:url(#SVGID_8_);}
	.st17{clip-path:url(#SVGID_10_);}
	.st18{clip-path:url(#SVGID_12_);}
	.st19{clip-path:url(#SVGID_14_);}
	.st20{clip-path:url(#SVGID_16_);}
	.st21{clip-path:url(#SVGID_18_);}
	.st22{fill:#322965;stroke:#322965;stroke-width:4;stroke-linejoin:round;stroke-miterlimit:10;}
</style>
<g>
	<path class="st0" d="M323.9,149c-0.6-0.5-0.8-1.1-0.8-1.8c0-0.6,0.2-1.3,0.5-2.1l10.3-24.1l-25-59.1c-0.3-0.8-0.5-1.4-0.5-1.8
		c0.1-0.8,0.4-1.5,0.9-2c0.5-0.6,1.2-0.8,2-0.8H322c1.6,0,2.7,0.8,3.4,2.5l17.4,42.5l17.6-42.5c0.9-1.7,2.1-2.5,3.7-2.5h10.6
		c0.8,0,1.4,0.3,2,0.8c0.5,0.5,0.8,1.1,0.8,1.8c0,0.6-0.2,1.3-0.5,2.1l-36.9,85.4c-0.7,1.7-1.9,2.5-3.7,2.5h-10.4
		C325.1,149.7,324.4,149.5,323.9,149z"/>
	<path class="st0" d="M394.8,118.4c-4.6-5.2-6.9-12.4-6.9-21.5V60.3c0-1,0.3-1.7,0.9-2.3c0.6-0.6,1.3-0.8,2.2-0.8h11.7
		c0.9,0,1.6,0.3,2.2,0.9c0.6,0.6,0.9,1.3,0.9,2.2v35.9c0,10.7,4.7,16,14,16c4.5,0,8.1-1.4,10.8-4.3c2.7-2.9,4-6.8,4-11.7V60.3
		c0-1,0.3-1.7,0.9-2.3c0.6-0.6,1.3-0.8,2.2-0.8h11.6c1,0,1.7,0.3,2.3,0.8c0.6,0.6,0.8,1.3,0.8,2.3v61.6c0,0.9-0.3,1.6-0.8,2.2
		c-0.6,0.6-1.3,0.9-2.3,0.9h-10.8c-0.9,0-1.6-0.3-2.2-0.9c-0.6-0.6-0.9-1.3-0.9-2.2v-5.3c-4.8,6.5-12,9.8-21.7,9.8
		C405.7,126.3,399.4,123.7,394.8,118.4z"/>
	<path class="st0" d="M481.5,149.8c-4.8-2.6-8.2-5.5-10.2-8.8c-2-3.3-3-6.1-3-8.5c0-0.9,0.3-1.6,0.9-2.2c0.6-0.6,1.3-0.8,2.2-0.8
		h11.6c0.8,0,1.5,0.2,2,0.6c0.6,0.4,1,1.1,1.4,2.2c1,2.3,2.4,4.2,4.3,5.8c1.9,1.6,4.9,2.4,8.9,2.4c5.2,0,9-1.2,11.5-3.5
		c2.4-2.3,3.7-6.3,3.7-12.1v-8.9c-4.7,5.6-11.3,8.3-20,8.3c-9,0-15.9-2.7-20.4-8.2c-4.6-5.5-7-13-7.4-22.4l-0.1-3.5l0.1-3.5
		c0.3-9.3,2.8-16.8,7.4-22.4c4.6-5.7,11.4-8.5,20.4-8.5c4.6,0,8.7,0.9,12.1,2.6c3.5,1.7,6.3,4.1,8.6,7v-5.1c0-1,0.3-1.7,1-2.3
		c0.7-0.6,1.4-0.9,2.3-0.9h10.7c0.9,0,1.6,0.3,2.2,0.9c0.6,0.6,0.9,1.4,0.9,2.3l0.1,62.9c0,9.7-2.7,17.1-8.1,22.4
		c-5.4,5.3-13.5,8-24.4,8C492.6,153.7,486.3,152.4,481.5,149.8z M510.8,105.9c2.4-3.1,3.8-7,4-11.5c0.1-0.7,0.1-2.1,0.1-4.2
		c0-2.1,0-3.5-0.1-4.2c-0.3-4.5-1.6-8.3-4-11.5c-2.4-3.1-6.1-4.7-11-4.7c-9.4,0-14.4,5.7-14.9,17.2l-0.1,3.1c0,13.6,5,20.4,15,20.4
		C504.7,110.6,508.3,109,510.8,105.9z"/>
	<path class="st0" d="M557.5,123.6c-3.7-1.8-6.6-4.2-8.7-7.2c-2.1-3-3.2-6.4-3.2-10c0-5.9,2.4-10.7,7.2-14.4
		c4.8-3.7,11.3-6.1,19.7-7.4l17.9-2.6v-2.7c0-3.7-1-6.6-2.9-8.5c-1.9-1.9-5-2.9-9.1-2.9c-2.9,0-5.2,0.5-6.9,1.6
		c-1.7,1-3.2,2.1-4.2,3.2c-1.1,1.1-1.8,1.8-2.2,2.2c-0.3,1-1,1.6-2,1.6h-10.2c-0.8,0-1.5-0.3-2-0.8c-0.6-0.5-0.8-1.2-0.8-2.1
		c0.1-2.2,1.2-4.6,3.2-7.4c2-2.7,5.2-5.1,9.5-7.2c4.3-2,9.5-3.1,15.8-3.1c10.3,0,17.7,2.3,22.4,6.9c4.7,4.6,7,10.7,7,18.1v41
		c0,0.9-0.3,1.6-0.8,2.2c-0.6,0.6-1.3,0.9-2.3,0.9H594c-0.9,0-1.6-0.3-2.2-0.9c-0.6-0.6-0.9-1.3-0.9-2.2v-5.1
		c-1.9,2.8-4.6,5.1-8.1,6.8c-3.5,1.8-7.8,2.7-13,2.7C565.3,126.3,561.2,125.4,557.5,123.6z M585.9,109c3-3.1,4.6-7.7,4.6-13.6v-2.6
		l-13,2.1c-10,1.6-15,4.9-15,10c0,2.8,1.2,4.9,3.5,6.5c2.3,1.5,5.1,2.3,8.3,2.3C578.9,113.7,582.8,112.2,585.9,109z"/>
	<path class="st0" d="M641.6,117v4.8c0,0.9-0.3,1.6-0.9,2.2c-0.6,0.6-1.4,0.9-2.3,0.9h-10.4c-0.9,0-1.6-0.3-2.2-0.9
		c-0.6-0.6-0.9-1.3-0.9-2.2V35.5c0-1,0.3-1.7,0.9-2.3c0.6-0.6,1.3-0.8,2.2-0.8h11.3c1,0,1.7,0.3,2.3,0.8c0.6,0.6,0.8,1.3,0.8,2.3v29
		c4.9-5.7,11.5-8.6,20-8.6c8.8,0,15.5,2.8,20.3,8.5c4.7,5.7,7.2,13.2,7.5,22.4c0.1,1,0.1,2.5,0.1,4.3c0,1.7,0,3.2-0.1,4.3
		c-0.3,9.4-2.9,16.9-7.6,22.5c-4.7,5.6-11.4,8.4-20.2,8.4C653.3,126.3,646.4,123.2,641.6,117z M672.3,95c0.1-0.9,0.1-2.2,0.1-3.9
		c0-1.7,0-3-0.1-3.9c-0.6-11.5-5.6-17.2-14.9-17.2c-4.8,0-8.4,1.5-11,4.6c-2.5,3-3.9,6.7-4,11.1c-0.1,1-0.1,2.7-0.1,5.1
		c0,2.3,0,3.9,0.1,5c0.2,4.6,1.5,8.5,3.9,11.7c2.4,3.2,6.1,4.8,11.1,4.8C666.7,112.2,671.6,106.4,672.3,95z"/>
	<path class="st0" d="M712.5,149c-0.6-0.5-0.8-1.1-0.8-1.8c0-0.6,0.2-1.3,0.5-2.1l10.3-24.1l-25-59.1c-0.3-0.8-0.5-1.4-0.5-1.8
		c0.1-0.8,0.4-1.5,0.9-2c0.5-0.6,1.2-0.8,2-0.8h10.8c1.6,0,2.7,0.8,3.4,2.5l17.4,42.5L749,59.6c0.9-1.7,2.1-2.5,3.7-2.5h10.6
		c0.8,0,1.4,0.3,2,0.8c0.5,0.5,0.8,1.1,0.8,1.8c0,0.6-0.2,1.3-0.5,2.1l-36.9,85.4c-0.7,1.7-1.9,2.5-3.7,2.5h-10.4
		C713.7,149.7,713.1,149.5,712.5,149z"/>
	<path class="st0" d="M790.1,118.8c-4-4.1-6-10.2-6-18.2V71.1h-10.3c-0.9,0-1.6-0.3-2.2-0.9c-0.6-0.6-0.9-1.3-0.9-2.2v-7.7
		c0-0.9,0.3-1.6,0.9-2.2c0.6-0.6,1.3-0.9,2.2-0.9h10.3V35.5c0-1,0.3-1.7,0.9-2.3c0.6-0.6,1.3-0.8,2.2-0.8H798c1,0,1.7,0.3,2.3,0.8
		c0.6,0.6,0.8,1.3,0.8,2.3v21.7h16.3c0.9,0,1.6,0.3,2.2,0.9c0.6,0.6,0.9,1.3,0.9,2.2V68c0,0.9-0.3,1.6-0.9,2.2
		c-0.6,0.6-1.3,0.9-2.2,0.9h-16.3v28c0,3.7,0.7,6.6,2,8.5c1.3,1.9,3.4,2.9,6.4,2.9h9.1c1,0,1.7,0.3,2.3,0.8c0.6,0.6,0.8,1.3,0.8,2.3
		v8.2c0,0.9-0.3,1.6-0.8,2.2c-0.6,0.6-1.3,0.9-2.3,0.9h-10.7C800,125,794.1,122.9,790.1,118.8z"/>
	<path class="st0" d="M839.6,117.9c-5.7-5.6-8.7-13.5-9.1-23.7l-0.1-3.3c0-10.9,2.8-19.4,8.5-25.7c5.7-6.3,13.6-9.4,23.7-9.4
		c10.3,0,18.3,3.1,23.9,9.4c5.6,6.3,8.4,14.6,8.4,25V93c0,0.9-0.3,1.6-0.9,2.2c-0.6,0.6-1.4,0.9-2.3,0.9h-43.3v1
		c0.2,4.9,1.5,8.9,4,12.1c2.5,3.2,5.9,4.8,10.2,4.8c5,0,9-2,12.1-6c0.8-1,1.4-1.5,1.8-1.8c0.4-0.2,1.2-0.3,2.2-0.3h11.5
		c0.8,0,1.5,0.2,2,0.7c0.6,0.4,0.8,1,0.8,1.8c0,2.1-1.2,4.5-3.7,7.4c-2.5,2.8-6,5.3-10.6,7.4c-4.6,2.1-10,3.1-16,3.1
		C853,126.3,845.3,123.5,839.6,117.9z M876.9,85v-0.3c0-5.1-1.3-9.2-3.8-12.3c-2.6-3.1-6.1-4.6-10.5-4.6c-4.4,0-7.9,1.5-10.4,4.6
		c-2.5,3.1-3.8,7.2-3.8,12.3V85H876.9z"/>
	<g>
		<path class="st6" d="M912.9,124c-0.7-0.7-1-1.4-1-2.3V37c0-1,0.3-1.8,0.9-2.4c0.6-0.7,1.4-1,2.3-1h34.3c12.9,0,22.9,3.1,30,9.2
			c7.1,6.1,10.9,14.9,11.2,26.4c0.1,2.5,0.1,5.9,0.1,10c0,4.2,0,7.5-0.1,9.9c-0.9,23.8-14.4,35.7-40.6,35.7h-35
			C914.3,125,913.6,124.6,912.9,124z M949.5,105.4c5.5,0,9.5-1.3,12.1-3.9s4-6.8,4.2-12.5c0.2-2.5,0.3-5.8,0.3-9.8
			c0-4-0.1-7.2-0.3-9.7c-0.2-5.6-1.7-9.7-4.5-12.3c-2.8-2.7-7-4-12.5-4h-12.4v52.2H949.5z"/>
		<path class="st6" d="M1006.7,124c-0.7-0.7-1-1.4-1-2.3V37c0-1,0.3-1.8,0.9-2.4c0.6-0.7,1.4-1,2.3-1h40.3c11,0,19.3,2.3,24.7,6.8
			c5.4,4.5,8.1,11,8.1,19.3c0,4.2-1.1,7.8-3.3,10.8c-2.2,3-4.7,5.3-7.4,6.7c3.6,1.6,6.6,4.2,9,7.8c2.4,3.6,3.7,7.7,3.7,12.2
			c0,8.8-2.9,15.6-8.7,20.5c-5.8,4.9-14.1,7.3-24.9,7.3H1009C1008.1,125,1007.4,124.6,1006.7,124z M1046.6,69.8
			c3.2,0,5.7-0.9,7.4-2.6c1.7-1.7,2.6-4,2.6-6.8c0-2.7-0.8-4.9-2.5-6.6c-1.7-1.7-4.2-2.5-7.5-2.5h-16.3v18.5H1046.6z M1047.7,107.4
			c3.4,0,6-1,7.9-2.9c1.9-2,2.8-4.4,2.8-7.2c0-3-1-5.4-2.9-7.4c-1.9-2-4.5-2.9-7.8-2.9h-17.5v20.5H1047.7z"/>
	</g>
	<path class="st7" d="M183.9,27.1c-16.8-16.7-40.1-27-65.7-26.9C92.6,0.4,69.4,10.9,52.7,27.7C36,44.6,25.8,67.8,25.9,93.4
		c0.1,12.2,2.5,23.8,6.8,34.5c-6.4,6.4-12.5,13-18.2,20.1c-3.2,4.1-6.3,8.2-9.1,12.8c-1.4,2.3-2.6,4.6-3.6,7.2
		c-0.5,1.3-0.9,2.6-1.2,4.1c-0.3,1.4-0.4,3,0.1,4.8c0.1,0.4,0.3,0.9,0.5,1.3c0.3,0.4,0.5,0.8,0.8,1.2c0.6,0.8,1.5,1.3,2.3,1.7
		c1.6,0.7,3.2,0.9,4.7,0.9c3,0,5.6-0.7,8.2-1.4c5.2-1.5,10-3.6,14.7-5.8c8.2-4,16.1-8.5,23.7-13.3c16.6,15.3,38.9,24.7,63.3,24.6
		c25.6-0.1,48.8-10.6,65.5-27.4c16.7-16.8,27-40.1,26.9-65.7h0C211.2,67,200.7,43.8,183.9,27.1z M29.7,169.8
		c-4.5,2.3-9.1,4.4-13.8,5.9c-2.3,0.7-4.7,1.3-6.9,1.4c-1.1,0.1-2.1-0.1-2.8-0.3c-0.7-0.3-1.1-0.7-1.4-1.4c-0.3-0.7-0.3-1.8-0.1-2.8
		c0.2-1.1,0.4-2.2,0.9-3.4c0.8-2.3,1.9-4.5,3-6.8c2.4-4.4,5.2-8.7,8.1-12.9c5.1-7.3,10.6-14.3,16.2-21.2
		c4.5,10.8,10.9,20.6,18.9,28.9C44.6,161.8,37.2,166,29.7,169.8z M180.6,154.4c-15.7,15.9-37.5,25.7-61.6,25.8
		c-22.5,0.1-42.9-8.3-58.5-22.1c8.2-5.3,16.2-10.9,24.1-16.7c8.3-6.2,16.5-12.5,24.4-19.1c8-6.5,15.8-13.3,23.4-20.2
		c7.5-7.1,15-14.2,22.3-21.4c-8.1,6.3-16.1,12.9-24.1,19.4c-8,6.4-16.2,12.7-24.3,18.9c-8.2,6.2-16.4,12.3-24.8,18.2
		c-8.3,5.9-16.6,11.6-25.1,17c-15.4-15.7-25-37.1-25.1-60.9c-0.1-24.1,9.6-45.9,25.3-61.8C72.4,15.7,94.1,5.8,118.2,5.7
		c24.1-0.1,45.9,9.6,61.8,25.3c15.9,15.7,25.7,37.5,25.8,61.6C206,116.7,196.3,138.6,180.6,154.4z"/>
	<path class="st8" d="M237.3,4c0,0-22.7-3.5-30.3,3.1c0,0-6.3,5.5-13.8,12.1l-1.3,1.1c-0.2,0.2-0.4,0.4-0.7,0.6c0,0-23.7-1.5-28.8,3
		c-1.9,1.6-3.7,3.2-5.3,4.6l0,0l-1.9,1.7c-0.9,0.8-1.6,1.4-2.1,1.8l-0.5,0.5l11,12.6c-3.4,3-0.9,11.3,5.5,18.6
		c6.4,7.3,14.4,10.9,17.7,7.9l11,12.6c0,0,0.1-0.1,0.3-0.3l4.3-3.7h0c1.6-1.4,3.4-3,5.3-4.6c5.1-4.5,6.7-28.2,6.7-28.2
		c0.4-0.4,0.9-0.8,1.3-1.1l1.1-0.9c7.3-6.4,13.4-11.8,13.4-11.8C237.8,27,237.3,4,237.3,4z M169.1,40.4l0.8-0.7
		C169.6,40,169.3,40.2,169.1,40.4z M211.5,50.1l-0.7,0.7C211,50.5,211.3,50.3,211.5,50.1z"/>
</g>
</svg>
