<?xml version="1.0" encoding="UTF-8"?>
<svg width="27px" height="26px" viewBox="0 0 27 26" version="1.1" xmlns="http://www.w3.org/2000/svg" xmlns:xlink="http://www.w3.org/1999/xlink">
    <g id="search-mag-glass" fill="#000000" fill-rule="nonzero">
        <path d="M26.2,24.6 L17.5,16 C18.9,14.3 19.8,12.2 19.8,9.9 C19.8,4.7 15.5,0.4 10.3,0.4 C5.1,0.4 0.8,4.7 0.8,9.9 C0.8,15.1 5.1,19.4 10.3,19.4 C12.7,19.4 14.8,18.5 16.5,17.1 L25.2,25.8 L26.2,24.6 Z M10.3,17.8 C5.9,17.8 2.3,14.2 2.3,9.8 C2.3,5.4 5.9,1.8 10.3,1.8 C14.7,1.8 18.3,5.4 18.3,9.8 C18.3,14.2 14.7,17.8 10.3,17.8 Z" id="Shape"></path>
    </g>
</svg>