<?xml version="1.0" encoding="UTF-8"?>
<svg width="32px" height="33px" viewBox="0 0 32 33" version="1.1" xmlns="http://www.w3.org/2000/svg" xmlns:xlink="http://www.w3.org/1999/xlink">
    <!-- Generator: Sketch 53 (72520) - https://sketchapp.com -->
    <title>yb-SLACK</title>
    <desc>Created with Sketch.</desc>
    <g id="Symbols" stroke="none" stroke-width="1" fill="none" fill-rule="evenodd">
        <g id="FOOTER---desktop" transform="translate(-434.000000, -621.000000)" fill="#F75821" fill-rule="nonzero">
            <g id="yb-SLACK" transform="translate(434.000000, 621.000000)">
                <path d="M3,0.5 L29,0.5 C30.656854,0.5 32,1.84314575 32,3.5 L32,29.5 C32,31.1568542 30.656854,32.5 29,32.5 L3,32.5 C1.343146,32.5 0,31.1568542 0,29.5 L0,3.5 C0,1.84314575 1.343146,0.5 3,0.5 Z M13.331699,6.5 C12.226307,6.50081349 11.331699,7.39402227 11.332516,8.49467026 C11.331699,9.5953182 12.227124,10.488527 13.332516,10.4893405 L15.332517,10.4893405 L15.332516,8.49548374 C15.333333,7.39483576 14.437908,6.50162697 13.331699,6.5 C13.332516,6.5 13.332516,6.5 13.331699,6.5 Z M13.331699,11.8202053 L8,11.8202053 C6.894608,11.8210188 5.999183,12.7142276 6,13.8148756 C5.998366,14.9155236 6.893791,15.8087324 7.999183,15.8103593 L13.331699,15.8103593 C14.437092,15.8095458 15.332516,14.9163371 15.331699,13.8156891 C15.332516,12.7142276 14.437092,11.8210188 13.331699,11.8202053 Z M25.996732,13.8148756 C25.997549,12.7142276 25.102124,11.8210188 23.996732,11.8202053 C22.89134,11.8210188 21.995915,12.7142276 21.996732,13.8148756 L21.996731,15.8103593 L23.996732,15.8103593 C25.102124,15.8095458 25.997549,14.9163371 25.996732,13.8148756 Z M20.664216,13.8148756 L20.664216,8.49467026 C20.665033,7.39483576 19.770425,6.50162697 18.665033,6.5 C17.559641,6.50081349 16.664216,7.39402227 16.665033,8.49467026 L16.665033,13.8148756 C16.663399,14.9155236 17.558824,15.8087324 18.664216,15.8103593 C19.769608,15.8095458 20.665033,14.9163371 20.664216,13.8148756 Z M18.664216,26.45077 C19.769608,26.4499565 20.665033,25.5567477 20.664216,24.4560998 C20.665033,23.3554518 19.769608,22.462243 18.664216,22.4614295 L16.664215,22.4614295 L16.664216,24.4560998 C16.663399,25.5559342 17.558824,26.449143 18.664216,26.45077 Z M18.664216,21.1297512 L23.996732,21.1297512 C25.102124,21.1289377 25.997549,20.2357289 25.996732,19.1350809 C25.998366,18.0344329 25.102941,17.1412242 23.997549,17.1395972 L18.665033,17.1395972 C17.559641,17.1404107 16.664216,18.0336195 16.665033,19.1342674 C16.664216,20.2357289 17.558824,21.1289377 18.664216,21.1297512 Z M6,19.1350809 C5.999183,20.2357289 6.894608,21.1289377 8,21.1297512 C9.105392,21.1289377 10.000817,20.2357289 10,19.1350809 L10.000001,17.1404107 L8,17.1404107 C6.894608,17.1412242 5.999183,18.0344329 6,19.1350809 Z M11.332516,19.1350809 L11.332516,24.4552863 C11.330882,25.5559342 12.226307,26.449143 13.331699,26.45077 C14.437092,26.4499565 15.332516,25.5567477 15.331699,24.4560998 L15.331699,19.1367079 C15.333333,18.0360599 14.437908,17.1428511 13.332516,17.1412242 C12.226307,17.1412242 11.331699,18.0344329 11.332516,19.1350809 C11.332516,19.1350809 11.332516,19.1358944 11.332516,19.1350809 Z"></path>
            </g>
        </g>
    </g>
</svg>