<?xml version="1.0" encoding="utf-8"?>
<!-- Generator: Adobe Illustrator 23.0.1, SVG Export Plug-In . SVG Version: 6.00 Build 0)  -->
<svg version="1.1" id="Layer_1" xmlns="http://www.w3.org/2000/svg" xmlns:xlink="http://www.w3.org/1999/xlink" x="0px" y="0px"
	 viewBox="0 0 517 565.7" style="enable-background:new 0 0 517 565.7;" xml:space="preserve">
<style type="text/css">
	.st0{fill:#FFFFFF;}
	.st1{fill:#E8E8E8;}
	.st2{enable-background:new    ;}
	.st3{fill:#F75821;}
	.st4{fill:none;stroke:#333333;stroke-miterlimit:10;}
	.st5{fill:#EEEEEE;}
	.st6{fill:none;stroke:#CCCCCC;stroke-miterlimit:10;}
	.st7{clip-path:url(#SVGID_2_);fill:#A13915;}
	.st8{clip-path:url(#SVGID_4_);fill:#F9794D;}
	.st9{clip-path:url(#SVGID_6_);fill:none;}
	.st10{clip-path:url(#SVGID_8_);fill:#F75821;}
	.st11{clip-path:url(#SVGID_10_);fill:#151B35;}
	.st12{clip-path:url(#SVGID_12_);fill:#4D5474;}
	.st13{clip-path:url(#SVGID_14_);fill:none;}
	.st14{clip-path:url(#SVGID_16_);fill:#202951;}
	.st15{fill:none;stroke:#F75821;stroke-width:3;stroke-linecap:round;stroke-linejoin:round;stroke-miterlimit:10;}
	.st16{fill:none;stroke:#202951;stroke-width:3;stroke-linecap:round;stroke-linejoin:round;stroke-miterlimit:10;}
	.st17{fill:#757575;}
	.st18{fill:#202951;}
</style>
<g>
	<path class="st0" d="M10,565.2c-5.2,0-9.5-4.3-9.5-9.5V10c0-5.2,4.3-9.5,9.5-9.5h497c5.2,0,9.5,4.3,9.5,9.5v545.7
		c0,5.2-4.3,9.5-9.5,9.5H10z"/>
	<path class="st1" d="M507,1c5,0,9,4,9,9v545.7c0,5-4,9-9,9H10c-5,0-9-4-9-9V10c0-5,4-9,9-9H507 M507,0H10C4.5,0,0,4.5,0,10v545.7
		c0,5.5,4.5,10,10,10h497c5.5,0,10-4.5,10-10V10C517,4.5,512.5,0,507,0L507,0z"/>
</g>
<g class="st2">
	<path class="st3" d="M116.6,46.2c0.9,0.4,1.6,0.9,2.1,1.7c0.5,0.7,0.7,1.5,0.7,2.4c0,1.1-0.3,2-0.8,2.8c-0.5,0.8-1.2,1.4-2.2,1.8
		c-0.9,0.4-2,0.6-3.2,0.6c-1,0-2-0.2-3.1-0.5c-1.1-0.3-2-0.8-2.8-1.4l1.3-2.6c0.6,0.5,1.3,0.9,2.1,1.2c0.7,0.3,1.5,0.4,2.2,0.4
		c0.9,0,1.5-0.2,2-0.6c0.5-0.4,0.7-0.9,0.7-1.6c0-0.7-0.2-1.2-0.7-1.6s-1.2-0.5-2.2-0.5c-0.5,0-1.3,0-2.1,0c-0.9,0-1.6,0.1-2,0.1V40
		h10.1v2.9h-6.9v2.7h1.7C114.6,45.6,115.7,45.8,116.6,46.2z"/>
	<path class="st3" d="M120.6,43.6h3.9l2.2,3.6l2.3-3.6h3.7l-3.8,5.8l4,6.1H129l-2.4-3.9l-2.6,3.9h-3.7l4.1-6L120.6,43.6z"/>
	<path class="st3" d="M151.1,41c1,0.7,1.5,1.6,1.5,2.8c0,0.8-0.2,1.5-0.7,2.1c-0.5,0.6-1.1,1-1.9,1.2c1,0.2,1.8,0.6,2.4,1.3
		c0.6,0.7,0.9,1.6,0.9,2.6c0,1.3-0.5,2.4-1.6,3.1c-1,0.8-2.5,1.1-4.2,1.1H140V40h7.1C148.8,40,150.1,40.3,151.1,41z M148.4,45.8
		c0.4-0.3,0.6-0.7,0.6-1.3c0-0.5-0.2-0.9-0.6-1.2c-0.4-0.3-0.9-0.4-1.6-0.4h-3.4v3.4h3.4C147.5,46.2,148.1,46.1,148.4,45.8z
		 M148.8,52.1c0.5-0.3,0.7-0.8,0.7-1.4c0-0.6-0.2-1-0.7-1.3c-0.5-0.3-1.1-0.5-1.9-0.5h-3.4v3.7h3.4
		C147.7,52.6,148.3,52.4,148.8,52.1z"/>
	<path class="st3" d="M165,45.1c1,1.1,1.5,2.6,1.5,4.6c0,0.4,0,0.6,0,0.8H158c0.2,0.7,0.6,1.3,1.1,1.7c0.5,0.4,1.2,0.6,2,0.6
		c0.6,0,1.1-0.1,1.6-0.3c0.5-0.2,1-0.5,1.4-0.9l1.8,1.8c-0.6,0.7-1.3,1.2-2.2,1.6c-0.9,0.4-1.8,0.5-2.9,0.5c-1.2,0-2.3-0.2-3.3-0.7
		c-0.9-0.5-1.6-1.2-2.2-2.1c-0.5-0.9-0.8-2-0.8-3.1c0-1.2,0.3-2.3,0.8-3.2s1.2-1.6,2.2-2.1c0.9-0.5,2-0.8,3.2-0.8
		C162.6,43.5,164,44,165,45.1z M163.3,48.5c0-0.8-0.3-1.4-0.7-1.9s-1.1-0.7-1.9-0.7c-0.7,0-1.3,0.2-1.8,0.7s-0.8,1.1-0.9,1.9H163.3z
		"/>
	<path class="st3" d="M176,54.7c-0.4,0.3-0.9,0.5-1.5,0.6c-0.5,0.1-1.1,0.2-1.6,0.2c-1.1,0-2-0.3-2.7-0.9s-1-1.5-1-2.7v-5.5h-1.6
		v-2.3h1.6v-3.3h3.4v3.3h3.2v2.4h-3.2v4.9c0,0.9,0.4,1.4,1.1,1.4c0.5,0,1-0.1,1.7-0.4L176,54.7z"/>
	<path class="st3" d="M185.4,54.7c-0.4,0.3-0.9,0.5-1.5,0.6c-0.5,0.1-1.1,0.2-1.6,0.2c-1.1,0-2-0.3-2.7-0.9s-1-1.5-1-2.7v-5.5H177
		v-2.3h1.7v-3.3h3.4v3.3h3.2v2.4H182v4.9c0,0.9,0.4,1.4,1.1,1.4c0.5,0,1-0.1,1.6-0.4L185.4,54.7z"/>
	<path class="st3" d="M196.8,45.1c1,1.1,1.5,2.6,1.5,4.6c0,0.4,0,0.6,0,0.8h-8.5c0.2,0.7,0.6,1.3,1.1,1.7s1.2,0.6,2,0.6
		c0.6,0,1.1-0.1,1.6-0.3c0.5-0.2,1-0.5,1.4-0.9l1.8,1.8c-0.6,0.7-1.3,1.2-2.2,1.6c-0.9,0.4-1.8,0.5-2.9,0.5c-1.2,0-2.3-0.2-3.3-0.7
		c-0.9-0.5-1.7-1.2-2.2-2.1c-0.5-0.9-0.8-2-0.8-3.1c0-1.2,0.3-2.3,0.8-3.2c0.5-0.9,1.2-1.6,2.2-2.1c0.9-0.5,2-0.8,3.2-0.8
		C194.3,43.5,195.8,44,196.8,45.1z M195.1,48.5c0-0.8-0.3-1.4-0.7-1.9c-0.5-0.5-1.1-0.7-1.9-0.7c-0.7,0-1.3,0.2-1.8,0.7
		c-0.5,0.5-0.8,1.1-0.9,1.9H195.1z"/>
	<path class="st3" d="M205.5,44c0.7-0.4,1.4-0.6,2.3-0.6v3.2c-0.1,0-0.3,0-0.5,0c-1,0-1.9,0.3-2.5,0.8c-0.6,0.6-0.9,1.3-0.9,2.3v5.7
		h-3.4V43.6h3.4v2.1C204.3,45,204.8,44.4,205.5,44z"/>
	<path class="st3" d="M214.9,40h3.5v15.4h-3.5V40z"/>
	<path class="st3" d="M232.3,44.7c0.8,0.8,1.2,1.9,1.2,3.3v7.4h-3.4V49c0-0.7-0.2-1.3-0.6-1.8s-1-0.6-1.7-0.6c-0.8,0-1.5,0.3-2,0.9
		c-0.5,0.6-0.7,1.3-0.7,2.2v5.8h-3.4V43.6h3.4v2.1c0.8-1.4,2.2-2.2,4.1-2.2C230.5,43.4,231.5,43.8,232.3,44.7z"/>
	<path class="st3" d="M242,46.2c-0.6-0.2-1.2-0.3-1.7-0.3c-0.4,0-0.7,0.1-1,0.2c-0.2,0.1-0.4,0.4-0.4,0.7c0,0.3,0.2,0.6,0.5,0.7
		c0.3,0.2,0.9,0.4,1.7,0.6c0.8,0.2,1.5,0.5,2.1,0.7c0.5,0.2,1,0.6,1.4,1.1c0.4,0.5,0.6,1.1,0.6,1.9c0,1.2-0.5,2.1-1.4,2.7
		s-2.1,1-3.5,1c-1,0-1.9-0.1-2.8-0.4c-0.9-0.3-1.7-0.7-2.3-1.2l1.1-2.3c0.6,0.5,1.3,0.8,2,1.1c0.7,0.3,1.4,0.4,2.1,0.4
		c0.5,0,0.8-0.1,1.1-0.2c0.3-0.2,0.4-0.4,0.4-0.7c0-0.3-0.2-0.6-0.5-0.8s-0.9-0.4-1.7-0.6c-0.8-0.2-1.5-0.5-2-0.7
		c-0.5-0.2-1-0.6-1.4-1.1s-0.6-1.1-0.6-1.9c0-1.2,0.4-2.1,1.3-2.7c0.9-0.6,2-1,3.3-1c0.8,0,1.6,0.1,2.4,0.3c0.8,0.2,1.5,0.6,2.2,1
		l-1.2,2.3C243.2,46.7,242.6,46.4,242,46.2z"/>
	<path class="st3" d="M256.8,45.1c1,1.1,1.5,2.6,1.5,4.6c0,0.4,0,0.6,0,0.8h-8.5c0.2,0.7,0.6,1.3,1.1,1.7c0.5,0.4,1.2,0.6,2,0.6
		c0.6,0,1.1-0.1,1.6-0.3c0.5-0.2,1-0.5,1.4-0.9l1.8,1.8c-0.6,0.7-1.3,1.2-2.2,1.6c-0.9,0.4-1.8,0.5-2.9,0.5c-1.2,0-2.3-0.2-3.3-0.7
		c-0.9-0.5-1.6-1.2-2.2-2.1c-0.5-0.9-0.8-2-0.8-3.1c0-1.2,0.3-2.3,0.8-3.2s1.2-1.6,2.2-2.1c0.9-0.5,2-0.8,3.2-0.8
		C254.4,43.5,255.8,44,256.8,45.1z M255.1,48.5c0-0.8-0.3-1.4-0.7-1.9s-1.1-0.7-1.9-0.7c-0.7,0-1.3,0.2-1.8,0.7s-0.8,1.1-0.9,1.9
		H255.1z"/>
	<path class="st3" d="M265.5,44c0.7-0.4,1.4-0.6,2.3-0.6v3.2c-0.1,0-0.3,0-0.5,0c-1,0-1.9,0.3-2.5,0.8s-0.9,1.3-0.9,2.3v5.7h-3.4
		V43.6h3.4v2.1C264.3,45,264.9,44.4,265.5,44z"/>
	<path class="st3" d="M277,54.7c-0.4,0.3-0.9,0.5-1.5,0.6c-0.5,0.1-1.1,0.2-1.6,0.2c-1.1,0-2-0.3-2.7-0.9s-1-1.5-1-2.7v-5.5h-1.7
		v-2.3h1.7v-3.3h3.4v3.3h3.2v2.4h-3.2v4.9c0,0.9,0.4,1.4,1.1,1.4c0.5,0,1-0.1,1.6-0.4L277,54.7z"/>
	<path class="st3" d="M295.4,41.4c1.1,0.9,1.6,2.2,1.6,3.9c0,1.8-0.5,3.2-1.6,4.2s-2.6,1.5-4.5,1.5h-3.1v4.4h-3.5V40h6.5
		C292.8,40,294.3,40.5,295.4,41.4z M292.9,47.4c0.5-0.4,0.8-1.1,0.8-2c0-0.9-0.3-1.5-0.8-1.9c-0.5-0.4-1.3-0.6-2.3-0.6h-2.9v5.2h2.9
		C291.6,48.1,292.4,47.9,292.9,47.4z"/>
	<path class="st3" d="M308.5,45.1c1,1.1,1.5,2.6,1.5,4.6c0,0.4,0,0.6,0,0.8h-8.5c0.2,0.7,0.6,1.3,1.1,1.7s1.2,0.6,2,0.6
		c0.6,0,1.1-0.1,1.6-0.3c0.5-0.2,1-0.5,1.4-0.9l1.8,1.8c-0.6,0.7-1.3,1.2-2.2,1.6c-0.9,0.4-1.8,0.5-2.9,0.5c-1.2,0-2.3-0.2-3.3-0.7
		c-0.9-0.5-1.7-1.2-2.2-2.1c-0.5-0.9-0.8-2-0.8-3.1c0-1.2,0.3-2.3,0.8-3.2c0.5-0.9,1.2-1.6,2.2-2.1c0.9-0.5,2-0.8,3.2-0.8
		C306.1,43.5,307.6,44,308.5,45.1z M306.8,48.5c0-0.8-0.3-1.4-0.7-1.9c-0.5-0.5-1.1-0.7-1.9-0.7c-0.7,0-1.3,0.2-1.8,0.7
		c-0.5,0.5-0.8,1.1-0.9,1.9H306.8z"/>
	<path class="st3" d="M317.2,44c0.7-0.4,1.4-0.6,2.3-0.6v3.2c-0.1,0-0.3,0-0.5,0c-1,0-1.9,0.3-2.5,0.8s-0.9,1.3-0.9,2.3v5.7h-3.4
		V43.6h3.4v2.1C316,45,316.6,44.4,317.2,44z"/>
	<path class="st3" d="M325.8,42.1c-0.3,0.2-0.4,0.6-0.4,1v1h2.8v2.4h-2.8v9H322v-9h-1.6v-2.4h1.6V43c0-0.9,0.2-1.6,0.6-2.2
		c0.4-0.6,0.9-1.1,1.6-1.4c0.7-0.3,1.4-0.5,2.2-0.5c0.8,0,1.5,0.2,2.3,0.5l-0.5,2.6c-0.2-0.1-0.5-0.2-0.7-0.2s-0.5-0.1-0.7-0.1
		C326.4,41.7,326.1,41.8,325.8,42.1z"/>
	<path class="st3" d="M338.2,44.2c1,0.5,1.7,1.2,2.2,2.1c0.5,0.9,0.8,2,0.8,3.2c0,1.2-0.3,2.2-0.8,3.2c-0.5,0.9-1.3,1.6-2.2,2.1
		s-2.1,0.8-3.3,0.8c-1.3,0-2.4-0.3-3.3-0.8c-1-0.5-1.7-1.2-2.2-2.1s-0.8-2-0.8-3.2c0-1.2,0.3-2.3,0.8-3.2s1.3-1.6,2.2-2.1
		c1-0.5,2.1-0.7,3.3-0.7C336.1,43.5,337.2,43.7,338.2,44.2z M332.7,47.2c-0.5,0.6-0.8,1.4-0.8,2.4s0.3,1.8,0.8,2.4s1.3,0.9,2.1,0.9
		c0.9,0,1.6-0.3,2.1-0.9c0.5-0.6,0.8-1.4,0.8-2.4s-0.3-1.8-0.8-2.4c-0.6-0.6-1.3-0.9-2.1-0.9C334,46.3,333.3,46.6,332.7,47.2z"/>
	<path class="st3" d="M348.5,44c0.7-0.4,1.4-0.6,2.3-0.6v3.2c-0.1,0-0.3,0-0.5,0c-1,0-1.9,0.3-2.5,0.8s-0.9,1.3-0.9,2.3v5.7h-3.4
		V43.6h3.4v2.1C347.3,45,347.8,44.4,348.5,44z"/>
	<path class="st3" d="M371.4,44.7c0.8,0.8,1.2,1.9,1.2,3.3v7.4h-3.4V49c0-0.8-0.2-1.4-0.6-1.8c-0.4-0.4-1-0.6-1.7-0.6
		c-0.8,0-1.4,0.3-1.9,0.9c-0.5,0.6-0.7,1.3-0.7,2.2v5.9h-3.4V49c0-0.7-0.2-1.3-0.6-1.8s-1-0.6-1.7-0.6c-0.8,0-1.4,0.3-1.9,0.9
		s-0.7,1.3-0.7,2.2v5.9h-3.4V43.6h3.4v2c0.8-1.4,2.2-2.1,4-2.2c1,0,1.8,0.2,2.5,0.7s1.2,1.1,1.5,2c0.4-0.9,0.9-1.6,1.7-2
		c0.7-0.5,1.6-0.7,2.6-0.7C369.6,43.4,370.6,43.8,371.4,44.7z"/>
	<path class="st3" d="M382.3,55.4V54c-0.4,0.5-0.9,0.9-1.5,1.1c-0.6,0.3-1.4,0.4-2.2,0.4c-1.2,0-2.2-0.3-3-1
		c-0.7-0.7-1.1-1.6-1.1-2.7c0-1.1,0.4-2,1.2-2.6c0.8-0.6,1.9-0.9,3.3-1h3.3v-0.2c0-0.6-0.2-1.1-0.6-1.5c-0.4-0.3-1-0.5-1.8-0.5
		c-1.1,0-2.3,0.3-3.5,1l-1.1-2.3c0.9-0.5,1.8-0.8,2.6-1c0.8-0.2,1.7-0.3,2.7-0.3c1.6,0,2.8,0.4,3.7,1.1c0.9,0.7,1.3,1.8,1.3,3.1
		l0,7.7H382.3z M381.4,52.6c0.5-0.3,0.8-0.8,0.9-1.3v-1.1h-2.7c-0.7,0-1.1,0.1-1.5,0.3c-0.3,0.2-0.5,0.6-0.5,1
		c0,0.5,0.2,0.8,0.5,1.1s0.8,0.4,1.4,0.4C380.3,53.1,380.9,53,381.4,52.6z"/>
	<path class="st3" d="M399.2,44.7c0.8,0.8,1.2,1.9,1.2,3.3v7.4H397V49c0-0.7-0.2-1.3-0.6-1.8s-1-0.6-1.7-0.6c-0.8,0-1.5,0.3-2,0.9
		c-0.5,0.6-0.7,1.3-0.7,2.2v5.8h-3.4V43.6h3.4v2.1c0.8-1.4,2.2-2.2,4.1-2.2C397.4,43.4,398.4,43.8,399.2,44.7z"/>
	<path class="st3" d="M408.6,46.3c-0.9,0-1.5,0.3-2.1,0.9c-0.5,0.6-0.8,1.3-0.8,2.3c0,1,0.3,1.7,0.8,2.3c0.5,0.6,1.2,0.9,2,0.9
		c1.2,0,2.1-0.5,2.8-1.4l2.3,1.6c-0.5,0.8-1.2,1.5-2.1,1.9c-0.9,0.5-2,0.7-3.2,0.7c-1.2,0-2.2-0.2-3.1-0.7c-0.9-0.5-1.6-1.2-2.1-2.1
		c-0.5-0.9-0.8-2-0.8-3.1c0-1.2,0.3-2.3,0.8-3.2s1.2-1.6,2.1-2.1c0.9-0.5,2-0.8,3.2-0.8c1.1,0,2.1,0.2,3,0.6s1.6,1,2.1,1.8l-2.3,1.7
		C410.6,46.8,409.7,46.3,408.6,46.3z"/>
	<path class="st3" d="M424.8,45.1c1,1.1,1.5,2.6,1.5,4.6c0,0.4,0,0.6,0,0.8h-8.5c0.2,0.7,0.6,1.3,1.1,1.7c0.5,0.4,1.2,0.6,2,0.6
		c0.6,0,1.1-0.1,1.6-0.3c0.5-0.2,1-0.5,1.4-0.9l1.8,1.8c-0.6,0.7-1.3,1.2-2.2,1.6c-0.9,0.4-1.8,0.5-2.9,0.5c-1.2,0-2.3-0.2-3.3-0.7
		c-0.9-0.5-1.6-1.2-2.2-2.1c-0.5-0.9-0.8-2-0.8-3.1c0-1.2,0.3-2.3,0.8-3.2s1.2-1.6,2.2-2.1c0.9-0.5,2-0.8,3.2-0.8
		C422.3,43.5,423.8,44,424.8,45.1z M423.1,48.5c0-0.8-0.3-1.4-0.7-1.9s-1.1-0.7-1.9-0.7c-0.7,0-1.3,0.2-1.8,0.7s-0.8,1.1-0.9,1.9
		H423.1z"/>
</g>
<path class="st4" d="M104.5,472.2h388"/>
<path class="st5" d="M74.5,502.2l30-29h388l-30,29H74.5z"/>
<path class="st6" d="M104.5,390.2h388"/>
<path class="st6" d="M104.5,307.2h388"/>
<path class="st6" d="M104.5,224.2h388"/>
<path class="st6" d="M104.5,142.2h388"/>
<g>
	<g>
		<defs>
			<rect id="SVGID_1_" x="74.3" y="141.8" width="418.3" height="360.8"/>
		</defs>
		<clipPath id="SVGID_2_">
			<use xlink:href="#SVGID_1_"  style="overflow:visible;"/>
		</clipPath>
		<path class="st7" d="M295,181.7v291l-25,25v-291L295,181.7z"/>
	</g>
</g>
<g>
	<g>
		<defs>
			<rect id="SVGID_3_" x="74.3" y="141.8" width="418.3" height="360.8"/>
		</defs>
		<clipPath id="SVGID_4_">
			<use xlink:href="#SVGID_3_"  style="overflow:visible;"/>
		</clipPath>
		<path class="st8" d="M270,206.7H170l25-25h100L270,206.7z"/>
	</g>
</g>
<g>
	<g>
		<defs>
			<rect id="SVGID_5_" x="74.3" y="141.8" width="418.3" height="360.8"/>
		</defs>
		<clipPath id="SVGID_6_">
			<use xlink:href="#SVGID_5_"  style="overflow:visible;"/>
		</clipPath>
		<path class="st9" d="M270,497.7H170v-291h100V497.7z"/>
	</g>
</g>
<g>
	<g>
		<defs>
			<rect id="SVGID_7_" x="74.3" y="141.8" width="418.3" height="360.8"/>
		</defs>
		<clipPath id="SVGID_8_">
			<use xlink:href="#SVGID_7_"  style="overflow:visible;"/>
		</clipPath>
		<path class="st10" d="M270,497.7H170v-291h100V497.7z"/>
	</g>
</g>
<g>
	<g>
		<defs>
			<rect id="SVGID_9_" x="74.3" y="141.8" width="418.3" height="360.8"/>
		</defs>
		<clipPath id="SVGID_10_">
			<use xlink:href="#SVGID_9_"  style="overflow:visible;"/>
		</clipPath>
		<path class="st11" d="M396,417.7v55l-25,25v-55L396,417.7z"/>
	</g>
</g>
<g>
	<g>
		<defs>
			<rect id="SVGID_11_" x="74.3" y="141.8" width="418.3" height="360.8"/>
		</defs>
		<clipPath id="SVGID_12_">
			<use xlink:href="#SVGID_11_"  style="overflow:visible;"/>
		</clipPath>
		<path class="st12" d="M371,442.7H271l25-25h100L371,442.7z"/>
	</g>
</g>
<g>
	<g>
		<defs>
			<rect id="SVGID_13_" x="74.3" y="141.8" width="418.3" height="360.8"/>
		</defs>
		<clipPath id="SVGID_14_">
			<use xlink:href="#SVGID_13_"  style="overflow:visible;"/>
		</clipPath>
		<path class="st13" d="M371,497.7H271v-55h100V497.7z"/>
	</g>
</g>
<g>
	<g>
		<defs>
			<rect id="SVGID_15_" x="74.3" y="141.8" width="418.3" height="360.8"/>
		</defs>
		<clipPath id="SVGID_16_">
			<use xlink:href="#SVGID_15_"  style="overflow:visible;"/>
		</clipPath>
		<path class="st14" d="M371,497.7H271v-55h100V497.7z"/>
	</g>
</g>
<path class="st15" d="M207.9,217c0,0.4-0.1,0.8-0.3,1.1s-0.5,0.6-0.9,0.8c0.4,0.2,0.8,0.5,1,0.8c0.3,0.4,0.4,0.8,0.4,1.2
	c0,0.7-0.2,1.3-0.8,1.8c-0.5,0.4-1.1,0.7-2,0.7c-0.8,0-1.5-0.2-2-0.7c-0.5-0.4-0.7-1-0.7-1.8c0-0.5,0.1-0.9,0.4-1.2
	c0.2-0.4,0.6-0.7,1-0.8c-0.4-0.2-0.7-0.4-0.9-0.8c-0.2-0.3-0.3-0.7-0.3-1.1c0-0.7,0.2-1.3,0.7-1.7s1.1-0.6,1.8-0.6
	c0.8,0,1.4,0.2,1.8,0.6C207.7,215.7,207.9,216.3,207.9,217z M207,221c0-0.5-0.2-0.9-0.5-1.2s-0.7-0.5-1.2-0.5s-0.9,0.2-1.2,0.5
	s-0.4,0.7-0.4,1.2s0.1,0.9,0.4,1.1c0.3,0.3,0.7,0.4,1.2,0.4s0.9-0.1,1.2-0.4S207,221.4,207,221z M205.4,215.5c-0.4,0-0.8,0.1-1,0.4
	c-0.3,0.3-0.4,0.6-0.4,1.1c0,0.4,0.1,0.8,0.4,1c0.3,0.3,0.6,0.4,1,0.4s0.8-0.1,1-0.4c0.3-0.3,0.4-0.6,0.4-1s-0.1-0.8-0.4-1.1
	C206.1,215.7,205.8,215.5,205.4,215.5z M214.9,217c0,0.4-0.1,0.8-0.3,1.1s-0.5,0.6-0.9,0.8c0.4,0.2,0.8,0.5,1,0.8
	c0.3,0.4,0.4,0.8,0.4,1.2c0,0.7-0.2,1.3-0.8,1.8c-0.5,0.4-1.1,0.7-2,0.7c-0.8,0-1.5-0.2-2-0.7c-0.5-0.4-0.7-1-0.7-1.8
	c0-0.5,0.1-0.9,0.4-1.2c0.2-0.4,0.6-0.7,1-0.8c-0.4-0.2-0.7-0.4-0.9-0.8c-0.2-0.3-0.3-0.7-0.3-1.1c0-0.7,0.2-1.3,0.7-1.7
	s1.1-0.6,1.8-0.6c0.8,0,1.4,0.2,1.8,0.6C214.7,215.7,214.9,216.3,214.9,217z M214,221c0-0.5-0.2-0.9-0.5-1.2s-0.7-0.5-1.2-0.5
	s-0.9,0.2-1.2,0.5s-0.4,0.7-0.4,1.2s0.1,0.9,0.4,1.1c0.3,0.3,0.7,0.4,1.2,0.4s0.9-0.1,1.2-0.4S214,221.4,214,221z M212.4,215.5
	c-0.4,0-0.8,0.1-1,0.4c-0.3,0.3-0.4,0.6-0.4,1.1c0,0.4,0.1,0.8,0.4,1c0.3,0.3,0.6,0.4,1,0.4s0.8-0.1,1-0.4c0.3-0.3,0.4-0.6,0.4-1
	s-0.1-0.8-0.4-1.1C213.1,215.7,212.8,215.5,212.4,215.5z M216.8,225l-0.6-0.4c0.4-0.5,0.6-1,0.6-1.6v-1h1.1v0.8
	c0,0.4-0.1,0.8-0.3,1.2C217.3,224.4,217.1,224.7,216.8,225z M224.1,219.6c0,1.3-0.2,2.2-0.7,2.8c-0.4,0.6-1.1,0.9-2,0.9
	s-1.6-0.3-2-0.9c-0.4-0.6-0.7-1.5-0.7-2.7v-1.4c0-1.3,0.2-2.2,0.6-2.8c0.4-0.6,1.1-0.9,2-0.9s1.6,0.3,2,0.9c0.4,0.6,0.7,1.5,0.7,2.7
	L224.1,219.6L224.1,219.6z M223,218.2c0-0.9-0.1-1.6-0.4-2c-0.2-0.4-0.7-0.6-1.2-0.6c-0.6,0-1,0.2-1.2,0.6c-0.2,0.4-0.4,1.1-0.4,1.9
	v1.7c0,0.9,0.1,1.6,0.4,2c0.3,0.4,0.7,0.7,1.2,0.7s0.9-0.2,1.2-0.6c0.3-0.4,0.4-1.1,0.4-2V218.2z M231.1,219.6
	c0,1.3-0.2,2.2-0.7,2.8c-0.4,0.6-1.1,0.9-2,0.9s-1.6-0.3-2-0.9c-0.4-0.6-0.7-1.5-0.7-2.7v-1.4c0-1.3,0.2-2.2,0.6-2.8
	c0.4-0.6,1.1-0.9,2-0.9s1.6,0.3,2,0.9c0.4,0.6,0.7,1.5,0.7,2.7L231.1,219.6L231.1,219.6z M230,218.2c0-0.9-0.1-1.6-0.4-2
	c-0.2-0.4-0.7-0.6-1.2-0.6c-0.6,0-1,0.2-1.2,0.6c-0.2,0.4-0.4,1.1-0.4,1.9v1.7c0,0.9,0.1,1.6,0.4,2c0.3,0.4,0.7,0.7,1.2,0.7
	s0.9-0.2,1.2-0.6c0.3-0.4,0.4-1.1,0.4-2V218.2z M238.1,219.6c0,1.3-0.2,2.2-0.7,2.8c-0.4,0.6-1.1,0.9-2,0.9s-1.6-0.3-2-0.9
	c-0.4-0.6-0.7-1.5-0.7-2.7v-1.4c0-1.3,0.2-2.2,0.6-2.8c0.4-0.6,1.1-0.9,2-0.9s1.6,0.3,2,0.9c0.4,0.6,0.7,1.5,0.7,2.7L238.1,219.6
	L238.1,219.6z M237,218.2c0-0.9-0.1-1.6-0.4-2c-0.2-0.4-0.7-0.6-1.2-0.6c-0.6,0-1,0.2-1.2,0.6c-0.2,0.4-0.4,1.1-0.4,1.9v1.7
	c0,0.9,0.1,1.6,0.4,2c0.3,0.4,0.7,0.7,1.2,0.7s0.9-0.2,1.2-0.6c0.3-0.4,0.4-1.1,0.4-2V218.2z"/>
<path class="st0" d="M207.9,217c0,0.4-0.1,0.8-0.3,1.1s-0.5,0.6-0.9,0.8c0.4,0.2,0.8,0.5,1,0.8c0.3,0.4,0.4,0.8,0.4,1.2
	c0,0.7-0.2,1.3-0.8,1.8c-0.5,0.4-1.1,0.7-2,0.7c-0.8,0-1.5-0.2-2-0.7c-0.5-0.4-0.7-1-0.7-1.8c0-0.5,0.1-0.9,0.4-1.2
	c0.2-0.4,0.6-0.7,1-0.8c-0.4-0.2-0.7-0.4-0.9-0.8c-0.2-0.3-0.3-0.7-0.3-1.1c0-0.7,0.2-1.3,0.7-1.7s1.1-0.6,1.8-0.6
	c0.8,0,1.4,0.2,1.8,0.6C207.7,215.7,207.9,216.3,207.9,217z M207,221c0-0.5-0.2-0.9-0.5-1.2s-0.7-0.5-1.2-0.5s-0.9,0.2-1.2,0.5
	s-0.4,0.7-0.4,1.2s0.1,0.9,0.4,1.1c0.3,0.3,0.7,0.4,1.2,0.4s0.9-0.1,1.2-0.4S207,221.4,207,221z M205.4,215.5c-0.4,0-0.8,0.1-1,0.4
	c-0.3,0.3-0.4,0.6-0.4,1.1c0,0.4,0.1,0.8,0.4,1c0.3,0.3,0.6,0.4,1,0.4s0.8-0.1,1-0.4c0.3-0.3,0.4-0.6,0.4-1s-0.1-0.8-0.4-1.1
	C206.1,215.7,205.8,215.5,205.4,215.5z M214.9,217c0,0.4-0.1,0.8-0.3,1.1s-0.5,0.6-0.9,0.8c0.4,0.2,0.8,0.5,1,0.8
	c0.3,0.4,0.4,0.8,0.4,1.2c0,0.7-0.2,1.3-0.8,1.8c-0.5,0.4-1.1,0.7-2,0.7c-0.8,0-1.5-0.2-2-0.7c-0.5-0.4-0.7-1-0.7-1.8
	c0-0.5,0.1-0.9,0.4-1.2c0.2-0.4,0.6-0.7,1-0.8c-0.4-0.2-0.7-0.4-0.9-0.8c-0.2-0.3-0.3-0.7-0.3-1.1c0-0.7,0.2-1.3,0.7-1.7
	s1.1-0.6,1.8-0.6c0.8,0,1.4,0.2,1.8,0.6C214.7,215.7,214.9,216.3,214.9,217z M214,221c0-0.5-0.2-0.9-0.5-1.2s-0.7-0.5-1.2-0.5
	s-0.9,0.2-1.2,0.5s-0.4,0.7-0.4,1.2s0.1,0.9,0.4,1.1c0.3,0.3,0.7,0.4,1.2,0.4s0.9-0.1,1.2-0.4S214,221.4,214,221z M212.4,215.5
	c-0.4,0-0.8,0.1-1,0.4c-0.3,0.3-0.4,0.6-0.4,1.1c0,0.4,0.1,0.8,0.4,1c0.3,0.3,0.6,0.4,1,0.4s0.8-0.1,1-0.4c0.3-0.3,0.4-0.6,0.4-1
	s-0.1-0.8-0.4-1.1C213.1,215.7,212.8,215.5,212.4,215.5z M216.8,225l-0.6-0.4c0.4-0.5,0.6-1,0.6-1.6v-1h1.1v0.8
	c0,0.4-0.1,0.8-0.3,1.2C217.3,224.4,217.1,224.7,216.8,225z M224.1,219.6c0,1.3-0.2,2.2-0.7,2.8c-0.4,0.6-1.1,0.9-2,0.9
	s-1.6-0.3-2-0.9c-0.4-0.6-0.7-1.5-0.7-2.7v-1.4c0-1.3,0.2-2.2,0.6-2.8c0.4-0.6,1.1-0.9,2-0.9s1.6,0.3,2,0.9c0.4,0.6,0.7,1.5,0.7,2.7
	L224.1,219.6L224.1,219.6z M223,218.2c0-0.9-0.1-1.6-0.4-2c-0.2-0.4-0.7-0.6-1.2-0.6c-0.6,0-1,0.2-1.2,0.6c-0.2,0.4-0.4,1.1-0.4,1.9
	v1.7c0,0.9,0.1,1.6,0.4,2c0.3,0.4,0.7,0.7,1.2,0.7s0.9-0.2,1.2-0.6c0.3-0.4,0.4-1.1,0.4-2V218.2z M231.1,219.6
	c0,1.3-0.2,2.2-0.7,2.8c-0.4,0.6-1.1,0.9-2,0.9s-1.6-0.3-2-0.9c-0.4-0.6-0.7-1.5-0.7-2.7v-1.4c0-1.3,0.2-2.2,0.6-2.8
	c0.4-0.6,1.1-0.9,2-0.9s1.6,0.3,2,0.9c0.4,0.6,0.7,1.5,0.7,2.7L231.1,219.6L231.1,219.6z M230,218.2c0-0.9-0.1-1.6-0.4-2
	c-0.2-0.4-0.7-0.6-1.2-0.6c-0.6,0-1,0.2-1.2,0.6c-0.2,0.4-0.4,1.1-0.4,1.9v1.7c0,0.9,0.1,1.6,0.4,2c0.3,0.4,0.7,0.7,1.2,0.7
	s0.9-0.2,1.2-0.6c0.3-0.4,0.4-1.1,0.4-2V218.2z M238.1,219.6c0,1.3-0.2,2.2-0.7,2.8c-0.4,0.6-1.1,0.9-2,0.9s-1.6-0.3-2-0.9
	c-0.4-0.6-0.7-1.5-0.7-2.7v-1.4c0-1.3,0.2-2.2,0.6-2.8c0.4-0.6,1.1-0.9,2-0.9s1.6,0.3,2,0.9c0.4,0.6,0.7,1.5,0.7,2.7L238.1,219.6
	L238.1,219.6z M237,218.2c0-0.9-0.1-1.6-0.4-2c-0.2-0.4-0.7-0.6-1.2-0.6c-0.6,0-1,0.2-1.2,0.6c-0.2,0.4-0.4,1.1-0.4,1.9v1.7
	c0,0.9,0.1,1.6,0.4,2c0.3,0.4,0.7,0.7,1.2,0.7s0.9-0.2,1.2-0.6c0.3-0.4,0.4-1.1,0.4-2V218.2z"/>
<path class="st16" d="M307.3,459.8h-1.1v-7.2l-2.2,0.8v-1l3.1-1.2h0.2V459.8z M315,451.3v0.9h-0.2c-0.8,0-1.5,0.3-2,0.8
	s-0.8,1.2-0.9,2c0.5-0.5,1.1-0.8,1.8-0.8c0.7,0,1.3,0.3,1.8,0.8c0.4,0.5,0.7,1.2,0.7,2c0,0.9-0.2,1.6-0.7,2.1s-1.1,0.8-1.9,0.8
	s-1.5-0.3-2-0.9s-0.8-1.4-0.8-2.4v-0.4c0-1.6,0.3-2.8,1-3.6c0.7-0.8,1.7-1.3,3-1.3H315z M313.5,455.1c-0.4,0-0.7,0.1-1,0.3
	s-0.5,0.5-0.7,0.8v0.4c0,0.7,0.2,1.3,0.5,1.7c0.3,0.4,0.7,0.6,1.2,0.6s0.9-0.2,1.2-0.5c0.3-0.4,0.4-0.8,0.4-1.4s-0.1-1.1-0.4-1.4
	C314.4,455.3,314,455.1,313.5,455.1z M317.8,461.5l-0.6-0.4c0.4-0.5,0.6-1,0.6-1.6v-1h1.1v0.8c0,0.4-0.1,0.8-0.3,1.2
	C318.3,461,318.1,461.3,317.8,461.5z M320.2,455.5l0.4-4.2h4.4v1h-3.5l-0.3,2.3c0.4-0.2,0.9-0.4,1.4-0.4c0.8,0,1.4,0.3,1.8,0.8
	c0.5,0.5,0.7,1.2,0.7,2.1s-0.2,1.6-0.7,2.1s-1.1,0.8-2,0.8c-0.8,0-1.4-0.2-1.8-0.6c-0.5-0.4-0.8-1-0.8-1.8h1
	c0.1,0.5,0.2,0.9,0.5,1.1s0.7,0.4,1.1,0.4c0.5,0,0.9-0.2,1.2-0.5s0.4-0.8,0.4-1.4s-0.2-1-0.5-1.4s-0.7-0.5-1.2-0.5s-0.8,0.1-1.1,0.3
	l-0.3,0.2L320.2,455.5z M332.1,456.2c0,1.3-0.2,2.2-0.7,2.8c-0.4,0.6-1.1,0.9-2,0.9s-1.6-0.3-2-0.9s-0.7-1.5-0.7-2.7v-1.4
	c0-1.3,0.2-2.2,0.6-2.8c0.4-0.6,1.1-0.9,2-0.9s1.6,0.3,2,0.9s0.7,1.5,0.7,2.7v1.4H332.1z M331,454.7c0-0.9-0.1-1.6-0.4-2
	c-0.2-0.4-0.7-0.6-1.2-0.6c-0.6,0-1,0.2-1.2,0.6s-0.4,1.1-0.4,1.9v1.7c0,0.9,0.1,1.6,0.4,2s0.7,0.7,1.2,0.7s0.9-0.2,1.2-0.6
	c0.3-0.4,0.4-1.1,0.4-2V454.7z M339.1,456.2c0,1.3-0.2,2.2-0.7,2.8c-0.4,0.6-1.1,0.9-2,0.9s-1.6-0.3-2-0.9s-0.7-1.5-0.7-2.7v-1.4
	c0-1.3,0.2-2.2,0.6-2.8c0.4-0.6,1.1-0.9,2-0.9s1.6,0.3,2,0.9s0.7,1.5,0.7,2.7v1.4H339.1z M338,454.7c0-0.9-0.1-1.6-0.4-2
	c-0.2-0.4-0.7-0.6-1.2-0.6c-0.6,0-1,0.2-1.2,0.6s-0.4,1.1-0.4,1.9v1.7c0,0.9,0.1,1.6,0.4,2s0.7,0.7,1.2,0.7s0.9-0.2,1.2-0.6
	c0.3-0.4,0.4-1.1,0.4-2V454.7z"/>
<path class="st0" d="M307.3,459.8h-1.1v-7.2l-2.2,0.8v-1l3.1-1.2h0.2V459.8z M315,451.3v0.9h-0.2c-0.8,0-1.5,0.3-2,0.8
	s-0.8,1.2-0.9,2c0.5-0.5,1.1-0.8,1.8-0.8c0.7,0,1.3,0.3,1.8,0.8c0.4,0.5,0.7,1.2,0.7,2c0,0.9-0.2,1.6-0.7,2.1s-1.1,0.8-1.9,0.8
	s-1.5-0.3-2-0.9s-0.8-1.4-0.8-2.4v-0.4c0-1.6,0.3-2.8,1-3.6c0.7-0.8,1.7-1.3,3-1.3H315z M313.5,455.1c-0.4,0-0.7,0.1-1,0.3
	s-0.5,0.5-0.7,0.8v0.4c0,0.7,0.2,1.3,0.5,1.7c0.3,0.4,0.7,0.6,1.2,0.6s0.9-0.2,1.2-0.5c0.3-0.4,0.4-0.8,0.4-1.4s-0.1-1.1-0.4-1.4
	C314.4,455.3,314,455.1,313.5,455.1z M317.8,461.5l-0.6-0.4c0.4-0.5,0.6-1,0.6-1.6v-1h1.1v0.8c0,0.4-0.1,0.8-0.3,1.2
	C318.3,461,318.1,461.3,317.8,461.5z M320.2,455.5l0.4-4.2h4.4v1h-3.5l-0.3,2.3c0.4-0.2,0.9-0.4,1.4-0.4c0.8,0,1.4,0.3,1.8,0.8
	c0.5,0.5,0.7,1.2,0.7,2.1s-0.2,1.6-0.7,2.1s-1.1,0.8-2,0.8c-0.8,0-1.4-0.2-1.8-0.6c-0.5-0.4-0.8-1-0.8-1.8h1
	c0.1,0.5,0.2,0.9,0.5,1.1s0.7,0.4,1.1,0.4c0.5,0,0.9-0.2,1.2-0.5s0.4-0.8,0.4-1.4s-0.2-1-0.5-1.4s-0.7-0.5-1.2-0.5s-0.8,0.1-1.1,0.3
	l-0.3,0.2L320.2,455.5z M332.1,456.2c0,1.3-0.2,2.2-0.7,2.8c-0.4,0.6-1.1,0.9-2,0.9s-1.6-0.3-2-0.9s-0.7-1.5-0.7-2.7v-1.4
	c0-1.3,0.2-2.2,0.6-2.8c0.4-0.6,1.1-0.9,2-0.9s1.6,0.3,2,0.9s0.7,1.5,0.7,2.7v1.4H332.1z M331,454.7c0-0.9-0.1-1.6-0.4-2
	c-0.2-0.4-0.7-0.6-1.2-0.6c-0.6,0-1,0.2-1.2,0.6s-0.4,1.1-0.4,1.9v1.7c0,0.9,0.1,1.6,0.4,2s0.7,0.7,1.2,0.7s0.9-0.2,1.2-0.6
	c0.3-0.4,0.4-1.1,0.4-2V454.7z M339.1,456.2c0,1.3-0.2,2.2-0.7,2.8c-0.4,0.6-1.1,0.9-2,0.9s-1.6-0.3-2-0.9s-0.7-1.5-0.7-2.7v-1.4
	c0-1.3,0.2-2.2,0.6-2.8c0.4-0.6,1.1-0.9,2-0.9s1.6,0.3,2,0.9s0.7,1.5,0.7,2.7v1.4H339.1z M338,454.7c0-0.9-0.1-1.6-0.4-2
	c-0.2-0.4-0.7-0.6-1.2-0.6c-0.6,0-1,0.2-1.2,0.6s-0.4,1.1-0.4,1.9v1.7c0,0.9,0.1,1.6,0.4,2s0.7,0.7,1.2,0.7s0.9-0.2,1.2-0.6
	c0.3-0.4,0.4-1.1,0.4-2V454.7z"/>
<path class="st17" d="M67.4,473.5c0,1.3-0.2,2.2-0.7,2.8c-0.4,0.6-1.1,0.9-2,0.9s-1.6-0.3-2-0.9s-0.7-1.5-0.7-2.7v-1.4
	c0-1.3,0.2-2.2,0.6-2.8c0.4-0.6,1.1-0.9,2-0.9c0.9,0,1.6,0.3,2,0.9s0.7,1.5,0.7,2.7L67.4,473.5L67.4,473.5z M66.3,472
	c0-0.9-0.1-1.6-0.4-2c-0.2-0.4-0.7-0.6-1.2-0.6c-0.6,0-1,0.2-1.2,0.6c-0.3,0.4-0.4,1.1-0.4,1.9v1.7c0,0.9,0.1,1.6,0.4,2
	c0.3,0.4,0.7,0.7,1.2,0.7s0.9-0.2,1.2-0.6c0.3-0.4,0.4-1.1,0.4-2V472z"/>
<path class="st17" d="M37.6,394.4H32v-0.8l3-3.3c0.4-0.5,0.7-0.9,0.9-1.2c0.2-0.3,0.2-0.6,0.2-1s-0.1-0.8-0.4-1.1
	c-0.3-0.3-0.6-0.4-1.1-0.4s-0.9,0.2-1.2,0.5s-0.5,0.7-0.5,1.3h-1.1c0-0.8,0.3-1.4,0.7-1.9c0.5-0.5,1.2-0.7,2-0.7s1.4,0.2,1.9,0.6
	s0.7,1,0.7,1.7c0,0.8-0.5,1.8-1.6,3l-2.3,2.5h4.3L37.6,394.4L37.6,394.4z M39.6,390.1l0.4-4.2h4.4v1h-3.5l-0.3,2.3
	c0.4-0.2,0.9-0.4,1.4-0.4c0.8,0,1.4,0.3,1.8,0.8c0.5,0.5,0.7,1.2,0.7,2.1s-0.2,1.6-0.7,2.1s-1.1,0.8-2,0.8c-0.8,0-1.4-0.2-1.8-0.6
	c-0.5-0.4-0.8-1-0.8-1.8h1c0.1,0.5,0.2,0.9,0.5,1.1s0.7,0.4,1.1,0.4c0.5,0,0.9-0.2,1.2-0.5s0.4-0.8,0.4-1.4s-0.2-1-0.5-1.4
	c-0.3-0.3-0.7-0.5-1.2-0.5s-0.8,0.1-1.1,0.3l-0.3,0.2L39.6,390.1z M46.1,396.1l-0.6-0.4c0.4-0.5,0.6-1,0.6-1.6v-1h1.1v0.8
	c0,0.4-0.1,0.8-0.3,1.2C46.7,395.6,46.4,395.9,46.1,396.1z M53.4,390.8c0,1.3-0.2,2.2-0.7,2.8c-0.4,0.6-1.1,0.9-2,0.9
	s-1.6-0.3-2-0.9s-0.7-1.5-0.7-2.7v-1.4c0-1.3,0.2-2.2,0.6-2.8c0.4-0.6,1.1-0.9,2-0.9s1.6,0.3,2,0.9s0.7,1.5,0.7,2.7v1.4H53.4z
	 M52.3,389.3c0-0.9-0.1-1.6-0.4-2c-0.3-0.4-0.7-0.6-1.2-0.6c-0.6,0-1,0.2-1.2,0.6c-0.3,0.4-0.4,1.1-0.4,1.9v1.7c0,0.9,0.1,1.6,0.4,2
	c0.3,0.4,0.7,0.7,1.2,0.7s0.9-0.2,1.2-0.6s0.4-1.1,0.4-2V389.3z M60.4,390.8c0,1.3-0.2,2.2-0.7,2.8c-0.4,0.6-1.1,0.9-2,0.9
	s-1.6-0.3-2-0.9s-0.7-1.5-0.7-2.7v-1.4c0-1.3,0.2-2.2,0.6-2.8c0.4-0.6,1.1-0.9,2-0.9s1.6,0.3,2,0.9s0.7,1.5,0.7,2.7v1.4H60.4z
	 M59.3,389.3c0-0.9-0.1-1.6-0.4-2c-0.3-0.4-0.7-0.6-1.2-0.6c-0.6,0-1,0.2-1.2,0.6c-0.3,0.4-0.4,1.1-0.4,1.9v1.7c0,0.9,0.1,1.6,0.4,2
	c0.3,0.4,0.7,0.7,1.2,0.7s0.9-0.2,1.2-0.6s0.4-1.1,0.4-2V389.3z M67.4,390.8c0,1.3-0.2,2.2-0.7,2.8c-0.4,0.6-1.1,0.9-2,0.9
	s-1.6-0.3-2-0.9s-0.7-1.5-0.7-2.7v-1.4c0-1.3,0.2-2.2,0.6-2.8c0.4-0.6,1.1-0.9,2-0.9c0.9,0,1.6,0.3,2,0.9s0.7,1.5,0.7,2.7
	L67.4,390.8L67.4,390.8z M66.3,389.3c0-0.9-0.1-1.6-0.4-2c-0.2-0.4-0.7-0.6-1.2-0.6c-0.6,0-1,0.2-1.2,0.6c-0.3,0.4-0.4,1.1-0.4,1.9
	v1.7c0,0.9,0.1,1.6,0.4,2c0.3,0.4,0.7,0.7,1.2,0.7s0.9-0.2,1.2-0.6c0.3-0.4,0.4-1.1,0.4-2V389.3z"/>
<path class="st17" d="M32.6,307.4l0.4-4.2h4.4v1h-3.5l-0.3,2.3c0.4-0.2,0.9-0.4,1.4-0.4c0.8,0,1.4,0.3,1.8,0.8
	c0.5,0.5,0.7,1.2,0.7,2.1s-0.2,1.6-0.7,2.1s-1.1,0.8-2,0.8c-0.8,0-1.4-0.2-1.8-0.6c-0.5-0.4-0.8-1-0.8-1.8h1
	c0.1,0.5,0.2,0.9,0.5,1.1s0.7,0.4,1.1,0.4c0.5,0,0.9-0.2,1.2-0.5s0.4-0.8,0.4-1.4s-0.2-1-0.5-1.4s-0.7-0.5-1.2-0.5s-0.8,0.1-1.1,0.3
	l-0.3,0.2L32.6,307.4z M44.4,308.1c0,1.3-0.2,2.2-0.7,2.8c-0.4,0.6-1.1,0.9-2,0.9s-1.6-0.3-2-0.9s-0.7-1.5-0.7-2.7v-1.4
	c0-1.3,0.2-2.2,0.6-2.8c0.4-0.6,1.1-0.9,2-0.9s1.6,0.3,2,0.9s0.7,1.5,0.7,2.7v1.4H44.4z M43.3,306.6c0-0.9-0.1-1.6-0.4-2
	c-0.3-0.4-0.7-0.6-1.2-0.6c-0.6,0-1,0.2-1.2,0.6s-0.4,1.1-0.4,1.9v1.7c0,0.9,0.1,1.6,0.4,2c0.3,0.4,0.7,0.7,1.2,0.7s0.9-0.2,1.2-0.6
	s0.4-1.1,0.4-2V306.6z M46.1,313.4l-0.6-0.4c0.4-0.5,0.6-1,0.6-1.6v-1h1.1v0.8c0,0.4-0.1,0.8-0.3,1.2
	C46.7,312.8,46.4,313.2,46.1,313.4z M53.4,308.1c0,1.3-0.2,2.2-0.7,2.8c-0.4,0.6-1.1,0.9-2,0.9s-1.6-0.3-2-0.9s-0.7-1.5-0.7-2.7
	v-1.4c0-1.3,0.2-2.2,0.6-2.8c0.4-0.6,1.1-0.9,2-0.9s1.6,0.3,2,0.9s0.7,1.5,0.7,2.7v1.4H53.4z M52.3,306.6c0-0.9-0.1-1.6-0.4-2
	c-0.3-0.4-0.7-0.6-1.2-0.6c-0.6,0-1,0.2-1.2,0.6c-0.3,0.4-0.4,1.1-0.4,1.9v1.7c0,0.9,0.1,1.6,0.4,2c0.3,0.4,0.7,0.7,1.2,0.7
	s0.9-0.2,1.2-0.6s0.4-1.1,0.4-2V306.6z M60.4,308.1c0,1.3-0.2,2.2-0.7,2.8c-0.4,0.6-1.1,0.9-2,0.9s-1.6-0.3-2-0.9s-0.7-1.5-0.7-2.7
	v-1.4c0-1.3,0.2-2.2,0.6-2.8c0.4-0.6,1.1-0.9,2-0.9s1.6,0.3,2,0.9s0.7,1.5,0.7,2.7v1.4H60.4z M59.3,306.6c0-0.9-0.1-1.6-0.4-2
	c-0.3-0.4-0.7-0.6-1.2-0.6c-0.6,0-1,0.2-1.2,0.6c-0.3,0.4-0.4,1.1-0.4,1.9v1.7c0,0.9,0.1,1.6,0.4,2c0.3,0.4,0.7,0.7,1.2,0.7
	s0.9-0.2,1.2-0.6s0.4-1.1,0.4-2V306.6z M67.4,308.1c0,1.3-0.2,2.2-0.7,2.8c-0.4,0.6-1.1,0.9-2,0.9s-1.6-0.3-2-0.9s-0.7-1.5-0.7-2.7
	v-1.4c0-1.3,0.2-2.2,0.6-2.8c0.4-0.6,1.1-0.9,2-0.9c0.9,0,1.6,0.3,2,0.9s0.7,1.5,0.7,2.7L67.4,308.1L67.4,308.1z M66.3,306.6
	c0-0.9-0.1-1.6-0.4-2c-0.2-0.4-0.7-0.6-1.2-0.6c-0.6,0-1,0.2-1.2,0.6c-0.3,0.4-0.4,1.1-0.4,1.9v1.7c0,0.9,0.1,1.6,0.4,2
	c0.3,0.4,0.7,0.7,1.2,0.7s0.9-0.2,1.2-0.6c0.3-0.4,0.4-1.1,0.4-2V306.6z"/>
<path class="st17" d="M37.6,221.1L34,229h-1.1l3.5-7.6h-4.6v-0.9h5.8C37.6,220.5,37.6,221.1,37.6,221.1z M39.6,224.7l0.4-4.2h4.4v1
	h-3.5l-0.3,2.3c0.4-0.2,0.9-0.4,1.4-0.4c0.8,0,1.4,0.3,1.8,0.8c0.5,0.5,0.7,1.2,0.7,2.1c0,0.9-0.2,1.6-0.7,2.1s-1.1,0.8-2,0.8
	c-0.8,0-1.4-0.2-1.8-0.6c-0.5-0.4-0.8-1-0.8-1.8h1c0.1,0.5,0.2,0.9,0.5,1.1s0.7,0.4,1.1,0.4c0.5,0,0.9-0.2,1.2-0.5s0.4-0.8,0.4-1.4
	c0-0.6-0.2-1-0.5-1.4c-0.3-0.3-0.7-0.5-1.2-0.5s-0.8,0.1-1.1,0.3l-0.3,0.2L39.6,224.7z M46.1,230.7l-0.6-0.4c0.4-0.5,0.6-1,0.6-1.6
	v-1h1.1v0.8c0,0.4-0.1,0.8-0.3,1.2C46.7,230.1,46.4,230.5,46.1,230.7z M53.4,225.4c0,1.3-0.2,2.2-0.7,2.8c-0.4,0.6-1.1,0.9-2,0.9
	s-1.6-0.3-2-0.9c-0.4-0.6-0.7-1.5-0.7-2.7v-1.4c0-1.3,0.2-2.2,0.6-2.8c0.4-0.6,1.1-0.9,2-0.9s1.6,0.3,2,0.9c0.4,0.6,0.7,1.5,0.7,2.7
	v1.4H53.4z M52.3,223.9c0-0.9-0.1-1.6-0.4-2c-0.3-0.4-0.7-0.6-1.2-0.6c-0.6,0-1,0.2-1.2,0.6c-0.3,0.4-0.4,1.1-0.4,1.9v1.7
	c0,0.9,0.1,1.6,0.4,2c0.3,0.4,0.7,0.7,1.2,0.7s0.9-0.2,1.2-0.6c0.3-0.4,0.4-1.1,0.4-2V223.9z M60.4,225.4c0,1.3-0.2,2.2-0.7,2.8
	c-0.4,0.6-1.1,0.9-2,0.9s-1.6-0.3-2-0.9c-0.4-0.6-0.7-1.5-0.7-2.7v-1.4c0-1.3,0.2-2.2,0.6-2.8c0.4-0.6,1.1-0.9,2-0.9s1.6,0.3,2,0.9
	c0.4,0.6,0.7,1.5,0.7,2.7v1.4H60.4z M59.3,223.9c0-0.9-0.1-1.6-0.4-2c-0.3-0.4-0.7-0.6-1.2-0.6c-0.6,0-1,0.2-1.2,0.6
	c-0.3,0.4-0.4,1.1-0.4,1.9v1.7c0,0.9,0.1,1.6,0.4,2c0.3,0.4,0.7,0.7,1.2,0.7s0.9-0.2,1.2-0.6c0.3-0.4,0.4-1.1,0.4-2V223.9z
	 M67.4,225.4c0,1.3-0.2,2.2-0.7,2.8c-0.4,0.6-1.1,0.9-2,0.9s-1.6-0.3-2-0.9c-0.4-0.6-0.7-1.5-0.7-2.7v-1.4c0-1.3,0.2-2.2,0.6-2.8
	c0.4-0.6,1.1-0.9,2-0.9c0.9,0,1.6,0.3,2,0.9c0.4,0.6,0.7,1.5,0.7,2.7L67.4,225.4L67.4,225.4z M66.3,223.9c0-0.9-0.1-1.6-0.4-2
	c-0.2-0.4-0.7-0.6-1.2-0.6c-0.6,0-1,0.2-1.2,0.6c-0.3,0.4-0.4,1.1-0.4,1.9v1.7c0,0.9,0.1,1.6,0.4,2c0.3,0.4,0.7,0.7,1.2,0.7
	s0.9-0.2,1.2-0.6c0.3-0.4,0.4-1.1,0.4-2V223.9z"/>
<path class="st17" d="M28.6,146.3h-1.1v-7.2l-2.2,0.8v-1l3.1-1.2h0.2V146.3z M37.4,142.6c0,1.3-0.2,2.2-0.7,2.8
	c-0.4,0.6-1.1,0.9-2,0.9s-1.6-0.3-2-0.9S32,144,32,142.8v-1.4c0-1.3,0.2-2.2,0.6-2.8c0.4-0.6,1.1-0.9,2-0.9s1.6,0.3,2,0.9
	c0.4,0.6,0.7,1.5,0.7,2.7v1.3H37.4z M36.3,141.2c0-0.9-0.1-1.6-0.4-2c-0.2-0.4-0.7-0.6-1.2-0.6c-0.6,0-1,0.2-1.2,0.6
	c-0.2,0.4-0.4,1.1-0.4,1.9v1.7c0,0.9,0.1,1.6,0.4,2c0.3,0.4,0.7,0.7,1.2,0.7s0.9-0.2,1.2-0.6s0.4-1.1,0.4-2V141.2z M44.4,142.6
	c0,1.3-0.2,2.2-0.7,2.8c-0.4,0.6-1.1,0.9-2,0.9s-1.6-0.3-2-0.9S39,144,39,142.8v-1.4c0-1.3,0.2-2.2,0.6-2.8c0.4-0.6,1.1-0.9,2-0.9
	s1.6,0.3,2,0.9c0.4,0.6,0.7,1.5,0.7,2.7v1.3H44.4z M43.3,141.2c0-0.9-0.1-1.6-0.4-2c-0.3-0.4-0.7-0.6-1.2-0.6c-0.6,0-1,0.2-1.2,0.6
	c-0.2,0.4-0.4,1.1-0.4,1.9v1.7c0,0.9,0.1,1.6,0.4,2c0.3,0.4,0.7,0.7,1.2,0.7s0.9-0.2,1.2-0.6c0.3-0.4,0.4-1.1,0.4-2V141.2z
	 M46.1,148l-0.6-0.4c0.4-0.5,0.6-1,0.6-1.6v-1h1.1v0.8c0,0.4-0.1,0.8-0.3,1.2C46.7,147.4,46.4,147.7,46.1,148z M53.4,142.6
	c0,1.3-0.2,2.2-0.7,2.8c-0.4,0.6-1.1,0.9-2,0.9s-1.6-0.3-2-0.9c-0.4-0.6-0.7-1.5-0.7-2.7v-1.4c0-1.3,0.2-2.2,0.6-2.8
	c0.4-0.6,1.1-0.9,2-0.9s1.6,0.3,2,0.9c0.4,0.6,0.7,1.5,0.7,2.7v1.4H53.4z M52.3,141.2c0-0.9-0.1-1.6-0.4-2c-0.3-0.4-0.7-0.6-1.2-0.6
	c-0.6,0-1,0.2-1.2,0.6c-0.3,0.4-0.4,1.1-0.4,1.9v1.7c0,0.9,0.1,1.6,0.4,2c0.3,0.4,0.7,0.7,1.2,0.7s0.9-0.2,1.2-0.6
	c0.3-0.4,0.4-1.1,0.4-2V141.2z M60.4,142.6c0,1.3-0.2,2.2-0.7,2.8c-0.4,0.6-1.1,0.9-2,0.9s-1.6-0.3-2-0.9c-0.4-0.6-0.7-1.5-0.7-2.7
	v-1.4c0-1.3,0.2-2.2,0.6-2.8c0.4-0.6,1.1-0.9,2-0.9s1.6,0.3,2,0.9c0.4,0.6,0.7,1.5,0.7,2.7v1.4H60.4z M59.3,141.2
	c0-0.9-0.1-1.6-0.4-2c-0.3-0.4-0.7-0.6-1.2-0.6c-0.6,0-1,0.2-1.2,0.6c-0.3,0.4-0.4,1.1-0.4,1.9v1.7c0,0.9,0.1,1.6,0.4,2
	c0.3,0.4,0.7,0.7,1.2,0.7s0.9-0.2,1.2-0.6c0.3-0.4,0.4-1.1,0.4-2V141.2z M67.4,142.6c0,1.3-0.2,2.2-0.7,2.8c-0.4,0.6-1.1,0.9-2,0.9
	s-1.6-0.3-2-0.9c-0.4-0.6-0.7-1.5-0.7-2.7v-1.4c0-1.3,0.2-2.2,0.6-2.8c0.4-0.6,1.1-0.9,2-0.9c0.9,0,1.6,0.3,2,0.9
	c0.4,0.6,0.7,1.5,0.7,2.7L67.4,142.6L67.4,142.6z M66.3,141.2c0-0.9-0.1-1.6-0.4-2c-0.2-0.4-0.7-0.6-1.2-0.6c-0.6,0-1,0.2-1.2,0.6
	c-0.3,0.4-0.4,1.1-0.4,1.9v1.7c0,0.9,0.1,1.6,0.4,2c0.3,0.4,0.7,0.7,1.2,0.7s0.9-0.2,1.2-0.6c0.3-0.4,0.4-1.1,0.4-2V141.2z"/>
<path class="st3" d="M74,528.9c0-0.6,0.4-1,1-1h10c0.6,0,1,0.4,1,1v10c0,0.6-0.4,1-1,1H75c-0.6,0-1-0.4-1-1V528.9z"/>
<path class="st17" d="M97.6,534.1l2.2-4.3h1.3l-2.9,5.3v3.2H97v-3.2l-2.9-5.3h1.3L97.6,534.1z M105.7,537.7c-0.4,0.5-1,0.8-1.9,0.8
	c-0.7,0-1.2-0.2-1.5-0.6c-0.4-0.4-0.5-1-0.5-1.8V532h1.1v4.1c0,1,0.4,1.5,1.2,1.5c0.8,0,1.4-0.3,1.7-0.9V532h1.1v6.3h-1L105.7,537.7
	z M108.6,535.1c0-1,0.2-1.8,0.7-2.4c0.5-0.6,1.1-0.9,1.8-0.9c0.8,0,1.4,0.3,1.8,0.8v-0.7h1v6.2c0,0.8-0.2,1.5-0.7,1.9
	c-0.5,0.5-1.1,0.7-2,0.7c-0.5,0-0.9-0.1-1.3-0.3s-0.8-0.5-1-0.8l0.6-0.7c0.5,0.6,1,0.9,1.7,0.9c0.5,0,0.9-0.2,1.2-0.5
	c0.3-0.3,0.5-0.7,0.5-1.2v-0.5c-0.4,0.5-1,0.8-1.8,0.8c-0.7,0-1.3-0.3-1.8-0.9C108.8,537,108.6,536.2,108.6,535.1z M109.7,535.3
	c0,0.7,0.1,1.3,0.4,1.7s0.7,0.6,1.2,0.6c0.7,0,1.2-0.3,1.5-0.9v-2.9c-0.3-0.6-0.8-0.9-1.5-0.9c-0.5,0-0.9,0.2-1.2,0.6
	C109.8,533.8,109.7,534.4,109.7,535.3z M119.7,538.4c-0.1-0.1-0.1-0.3-0.2-0.7c-0.5,0.5-1.1,0.8-1.8,0.8c-0.6,0-1.1-0.2-1.5-0.5
	c-0.4-0.4-0.6-0.8-0.6-1.4c0-0.7,0.2-1.2,0.8-1.5c0.5-0.4,1.2-0.5,2.1-0.5h1V534c0-0.4-0.1-0.7-0.3-0.9c-0.2-0.2-0.6-0.3-1-0.3
	s-0.7,0.1-1,0.3s-0.4,0.4-0.4,0.7h-1.1c0-0.3,0.1-0.6,0.3-0.9c0.2-0.3,0.5-0.5,0.9-0.7s0.8-0.3,1.3-0.3c0.7,0,1.3,0.2,1.7,0.5
	c0.4,0.4,0.6,0.9,0.7,1.5v2.9c0,0.6,0.1,1,0.2,1.4v0.1h-1.1V538.4z M117.9,537.5c0.3,0,0.7-0.1,1-0.3s0.5-0.4,0.7-0.7v-1.3h-0.8
	c-1.3,0-2,0.4-2,1.2c0,0.3,0.1,0.6,0.3,0.8S117.6,537.5,117.9,537.5z M123,538.4v-8.5h2.8c0.9,0,1.6,0.2,2.1,0.6
	c0.5,0.4,0.7,0.9,0.7,1.7c0,0.4-0.1,0.8-0.3,1.1s-0.5,0.5-0.9,0.7c0.5,0.1,0.8,0.4,1.1,0.7c0.3,0.4,0.4,0.8,0.4,1.3
	c0,0.8-0.2,1.4-0.8,1.8c-0.5,0.4-1.2,0.7-2.1,0.7L123,538.4L123,538.4z M124.1,534.4v3.1h1.9c0.5,0,0.9-0.1,1.2-0.4
	c0.3-0.3,0.5-0.6,0.5-1.1c0-1-0.6-1.5-1.7-1.5L124.1,534.4L124.1,534.4z M124.1,533.5h1.7c0.5,0,0.9-0.1,1.2-0.4
	c0.3-0.2,0.5-0.6,0.5-1c0-0.5-0.1-0.8-0.4-1s-0.7-0.3-1.2-0.3h-1.7L124.1,533.5L124.1,533.5z M131.9,536.8l1.5-4.8h1.2l-2.5,7.3
	c-0.4,1.1-1,1.6-1.9,1.6H130l-0.4-0.1v-0.9h0.3c0.4,0,0.7-0.1,0.9-0.2c0.2-0.1,0.4-0.4,0.5-0.8l0.2-0.7l-2.3-6.3h1.2L131.9,536.8z
	 M137.3,530.5v1.5h1.2v0.8h-1.2v3.9c0,0.3,0.1,0.5,0.2,0.6s0.3,0.2,0.5,0.2c0.1,0,0.3,0,0.5-0.1v0.9c-0.3,0.1-0.6,0.1-0.8,0.1
	c-0.5,0-0.8-0.1-1.1-0.4c-0.2-0.3-0.4-0.7-0.4-1.3v-3.9H135V532h1.2v-1.5H137.3z M142.5,538.5c-0.9,0-1.6-0.3-2.1-0.8
	c-0.5-0.6-0.8-1.3-0.8-2.3v-0.2c0-0.6,0.1-1.2,0.4-1.7c0.2-0.5,0.6-0.9,1-1.2s0.9-0.4,1.4-0.4c0.8,0,1.5,0.3,1.9,0.8
	c0.5,0.5,0.7,1.3,0.7,2.3v0.5h-4.3c0,0.6,0.2,1.1,0.5,1.5c0.4,0.4,0.8,0.6,1.3,0.6c0.4,0,0.7-0.1,1-0.2c0.3-0.2,0.5-0.4,0.7-0.6
	l0.7,0.5C144.3,538.1,143.5,538.5,142.5,538.5z M142.3,532.8c-0.4,0-0.8,0.2-1.1,0.5s-0.5,0.8-0.5,1.3h3.2v-0.1c0-0.6-0.2-1-0.5-1.3
	C143.1,532.9,142.8,532.8,142.3,532.8z M149,538.4v-8.5h2.4c0.7,0,1.4,0.2,2,0.5s1,0.8,1.3,1.4c0.3,0.6,0.5,1.3,0.5,2.1v0.5
	c0,0.8-0.2,1.5-0.5,2.1s-0.7,1.1-1.3,1.4c-0.6,0.3-1.2,0.5-2,0.5H149z M150.1,530.7v6.7h1.2c0.9,0,1.5-0.3,2-0.8s0.7-1.3,0.7-2.3
	v-0.5c0-1-0.2-1.7-0.7-2.2c-0.4-0.5-1.1-0.8-1.9-0.8h-1.3V530.7z M157,538.4v-8.5h2.8c0.9,0,1.6,0.2,2.1,0.6
	c0.5,0.4,0.7,0.9,0.7,1.7c0,0.4-0.1,0.8-0.3,1.1s-0.5,0.5-0.9,0.7c0.5,0.1,0.8,0.4,1.1,0.7c0.3,0.4,0.4,0.8,0.4,1.3
	c0,0.8-0.2,1.4-0.8,1.8c-0.5,0.4-1.2,0.7-2.1,0.7L157,538.4L157,538.4z M158.1,534.4v3.1h1.9c0.5,0,0.9-0.1,1.2-0.4
	c0.3-0.3,0.5-0.6,0.5-1.1c0-1-0.6-1.5-1.7-1.5L158.1,534.4L158.1,534.4z M158.1,533.5h1.7c0.5,0,0.9-0.1,1.2-0.4
	c0.3-0.2,0.5-0.6,0.5-1c0-0.5-0.1-0.8-0.4-1c-0.3-0.2-0.7-0.3-1.2-0.3h-1.7v2.7H158.1z M166.8,534.9c0-0.9,0.1-1.7,0.3-2.5
	s0.6-1.6,1.1-2.2c0.5-0.7,1-1.1,1.5-1.4l0.2,0.7c-0.6,0.4-1,1.1-1.4,2s-0.6,1.9-0.6,3v0.5c0,1.5,0.3,2.8,0.8,3.9
	c0.3,0.7,0.7,1.2,1.2,1.6l-0.2,0.7c-0.5-0.3-1-0.8-1.5-1.5C167.2,538.3,166.8,536.7,166.8,534.9z M175.3,535.5h1.2v0.9h-1.2v2h-1.1
	v-2h-3.9v-0.6l3.8-5.9h1.2V535.5z M171.5,535.5h2.7v-4.2l-0.1,0.2L171.5,535.5z M178.8,532v0.7c0.5-0.5,1.1-0.8,1.9-0.8
	c0.9,0,1.5,0.3,1.8,1c0.2-0.3,0.5-0.5,0.8-0.7s0.7-0.3,1.2-0.3c1.4,0,2.1,0.7,2.1,2.2v4.2h-1.1v-4.2c0-0.4-0.1-0.8-0.3-1
	s-0.6-0.3-1-0.3s-0.7,0.1-1,0.4c-0.3,0.2-0.4,0.6-0.5,1v4.2h-1.1v-4.2c0-0.9-0.5-1.4-1.4-1.4c-0.7,0-1.2,0.3-1.5,0.9v4.6h-1.1V532
	H178.8z M192.5,536.7c0-0.3-0.1-0.5-0.3-0.7s-0.6-0.3-1.2-0.4c-0.5-0.1-1-0.3-1.3-0.4c-0.3-0.2-0.6-0.4-0.7-0.6
	c-0.1-0.2-0.2-0.5-0.2-0.8c0-0.5,0.2-1,0.7-1.3c0.4-0.4,1-0.5,1.7-0.5s1.3,0.2,1.7,0.6c0.4,0.4,0.7,0.8,0.7,1.4h-1.1
	c0-0.3-0.1-0.5-0.4-0.8c-0.2-0.2-0.6-0.3-0.9-0.3c-0.4,0-0.7,0.1-0.9,0.3s-0.3,0.4-0.3,0.7s0.1,0.5,0.3,0.6s0.6,0.3,1.1,0.4
	c0.5,0.1,1,0.3,1.3,0.4c0.3,0.2,0.6,0.4,0.7,0.6c0.2,0.2,0.2,0.5,0.2,0.9c0,0.6-0.2,1-0.7,1.4c-0.4,0.3-1,0.5-1.8,0.5
	c-0.5,0-1-0.1-1.4-0.3s-0.7-0.4-0.9-0.8c-0.2-0.3-0.3-0.7-0.3-1h1.1c0,0.4,0.2,0.7,0.4,0.9c0.3,0.2,0.6,0.3,1.1,0.3
	c0.4,0,0.7-0.1,1-0.2C192.4,537.2,192.5,536.9,192.5,536.7z M199,538.4h-1.1v-9h1.1V538.4z M204.7,538.4c-0.1-0.1-0.1-0.3-0.2-0.7
	c-0.5,0.5-1.1,0.8-1.8,0.8c-0.6,0-1.1-0.2-1.5-0.5c-0.4-0.4-0.6-0.8-0.6-1.4c0-0.7,0.2-1.2,0.8-1.5c0.5-0.4,1.2-0.5,2.1-0.5h1V534
	c0-0.4-0.1-0.7-0.3-0.9s-0.6-0.3-1-0.3s-0.7,0.1-1,0.3s-0.4,0.4-0.4,0.7h-1.1c0-0.3,0.1-0.6,0.3-0.9c0.2-0.3,0.5-0.5,0.9-0.7
	s0.8-0.3,1.3-0.3c0.7,0,1.3,0.2,1.7,0.5c0.4,0.4,0.6,0.9,0.7,1.5v2.9c0,0.6,0.1,1,0.2,1.4v0.1h-1.1V538.4z M202.9,537.5
	c0.3,0,0.7-0.1,1-0.3s0.5-0.4,0.7-0.7v-1.3h-0.8c-1.3,0-2,0.4-2,1.2c0,0.3,0.1,0.6,0.3,0.8C202.3,537.4,202.6,537.5,202.9,537.5z
	 M209.3,530.5v1.5h1.2v0.8h-1.2v3.9c0,0.3,0.1,0.5,0.2,0.6s0.3,0.2,0.5,0.2c0.1,0,0.3,0,0.5-0.1v0.9c-0.3,0.1-0.6,0.1-0.8,0.1
	c-0.5,0-0.8-0.1-1.1-0.4c-0.2-0.3-0.4-0.7-0.4-1.3v-3.9H207V532h1.2v-1.5H209.3z M214.5,538.5c-0.9,0-1.6-0.3-2.1-0.8
	c-0.5-0.6-0.8-1.3-0.8-2.3v-0.2c0-0.6,0.1-1.2,0.4-1.7c0.2-0.5,0.6-0.9,1-1.2s0.9-0.4,1.4-0.4c0.8,0,1.5,0.3,1.9,0.8
	c0.5,0.5,0.7,1.3,0.7,2.3v0.5h-4.3c0,0.6,0.2,1.1,0.5,1.5c0.4,0.4,0.8,0.6,1.3,0.6c0.4,0,0.7-0.1,1-0.2c0.3-0.2,0.5-0.4,0.7-0.6
	l0.7,0.5C216.3,538.1,215.5,538.5,214.5,538.5z M214.3,532.8c-0.4,0-0.8,0.2-1.1,0.5s-0.5,0.8-0.5,1.3h3.2v-0.1c0-0.6-0.2-1-0.5-1.3
	C215.1,532.9,214.8,532.8,214.3,532.8z M218.8,532v0.8c0.5-0.6,1.1-0.9,1.9-0.9c1.3,0,2,0.8,2,2.3v4.2h-1.1v-4.2
	c0-0.4-0.1-0.8-0.3-1s-0.5-0.3-1-0.3c-0.4,0-0.7,0.1-0.9,0.3c-0.3,0.2-0.5,0.4-0.6,0.7v4.5h-1.1V532H218.8z M227.4,537.6
	c0.4,0,0.7-0.1,1-0.3s0.5-0.5,0.5-0.9h1c0,0.4-0.2,0.7-0.4,1s-0.5,0.6-0.9,0.8s-0.8,0.3-1.2,0.3c-0.9,0-1.6-0.3-2.1-0.9
	c-0.5-0.6-0.8-1.4-0.8-2.4V535c0-0.6,0.1-1.2,0.3-1.6c0.2-0.5,0.6-0.8,1-1.1s0.9-0.4,1.5-0.4c0.7,0,1.3,0.2,1.8,0.6
	c0.5,0.4,0.7,1,0.8,1.7h-1c0-0.4-0.2-0.8-0.5-1c-0.3-0.3-0.6-0.4-1-0.4c-0.6,0-1,0.2-1.3,0.6c-0.3,0.4-0.5,1-0.5,1.7v0.2
	c0,0.7,0.2,1.3,0.5,1.7C226.4,537.4,226.8,537.6,227.4,537.6z M232.9,536.8l1.5-4.8h1.2l-2.5,7.3c-0.4,1.1-1,1.6-1.9,1.6H231
	l-0.4-0.1v-0.9h0.3c0.4,0,0.7-0.1,0.9-0.2c0.2-0.1,0.4-0.4,0.5-0.8l0.2-0.7l-2.3-6.3h1.2L232.9,536.8z M239.3,534.9
	c0,0.9-0.1,1.7-0.3,2.5s-0.6,1.5-1.1,2.2s-1,1.2-1.5,1.4l-0.2-0.7c0.6-0.5,1.1-1.2,1.5-2.1c0.4-1,0.6-2.1,0.6-3.2v-0.2
	c0-0.8-0.1-1.6-0.3-2.3s-0.4-1.3-0.7-1.9c-0.3-0.6-0.6-1-1-1.3l0.2-0.7c0.5,0.3,1,0.8,1.5,1.4c0.5,0.7,0.8,1.4,1,2.2
	C239.2,533.2,239.3,534,239.3,534.9z"/>
<path class="st18" d="M256,528.9c0-0.6,0.4-1,1-1h10c0.6,0,1,0.4,1,1v10c0,0.6-0.4,1-1,1h-10c-0.6,0-1-0.4-1-1V528.9z"/>
<path class="st17" d="M283.3,535.6c-0.1,0.9-0.4,1.6-1,2.1s-1.3,0.7-2.2,0.7c-1,0-1.8-0.4-2.4-1.1c-0.6-0.7-0.9-1.7-0.9-2.9v-0.8
	c0-0.8,0.1-1.5,0.4-2.1s0.7-1.1,1.2-1.4c0.5-0.3,1.1-0.5,1.8-0.5c0.9,0,1.6,0.3,2.2,0.8s0.9,1.2,1,2.1h-1.1
	c-0.1-0.7-0.3-1.2-0.6-1.5c-0.3-0.3-0.8-0.5-1.4-0.5c-0.7,0-1.3,0.3-1.7,0.8s-0.6,1.3-0.6,2.3v0.8c0,0.9,0.2,1.7,0.6,2.2
	s0.9,0.8,1.6,0.8c0.6,0,1.1-0.1,1.4-0.4c0.3-0.3,0.6-0.8,0.7-1.5h1V535.6z M284.5,535.1c0-0.6,0.1-1.2,0.4-1.7
	c0.2-0.5,0.6-0.9,1-1.1c0.4-0.3,0.9-0.4,1.5-0.4c0.9,0,1.6,0.3,2.1,0.9c0.5,0.6,0.8,1.4,0.8,2.4v0.1c0,0.6-0.1,1.2-0.4,1.7
	c-0.2,0.5-0.6,0.9-1,1.2s-0.9,0.4-1.5,0.4c-0.9,0-1.6-0.3-2.1-0.9C284.8,537,284.5,536.2,284.5,535.1L284.5,535.1z M285.6,535.3
	c0,0.7,0.2,1.3,0.5,1.7s0.8,0.6,1.3,0.6c0.6,0,1-0.2,1.3-0.6c0.3-0.4,0.5-1,0.5-1.8c0-0.7-0.2-1.2-0.5-1.7c-0.3-0.4-0.8-0.7-1.3-0.7
	s-1,0.2-1.3,0.6C285.8,533.8,285.6,534.5,285.6,535.3z M294.4,537.6c0.4,0,0.7-0.1,1-0.3s0.5-0.5,0.5-0.9h1c0,0.4-0.2,0.7-0.4,1
	c-0.2,0.3-0.5,0.6-0.9,0.8s-0.8,0.3-1.2,0.3c-0.9,0-1.6-0.3-2.1-0.9c-0.5-0.6-0.8-1.4-0.8-2.4V535c0-0.6,0.1-1.2,0.3-1.6
	c0.2-0.5,0.6-0.8,1-1.1s0.9-0.4,1.5-0.4c0.7,0,1.3,0.2,1.8,0.6c0.5,0.4,0.7,1,0.8,1.7h-1c0-0.4-0.2-0.8-0.5-1
	c-0.3-0.3-0.6-0.4-1-0.4c-0.6,0-1,0.2-1.3,0.6c-0.3,0.4-0.5,1-0.5,1.7v0.2c0,0.7,0.2,1.3,0.5,1.7
	C293.4,537.4,293.8,537.6,294.4,537.6z M299.6,535.4l-0.7,0.7v2.2h-1.1v-9h1.1v5.4l0.6-0.7l2-2.1h1.3l-2.5,2.7l2.8,3.7h-1.3
	L299.6,535.4z M306.9,533c-0.2,0-0.3,0-0.5,0c-0.7,0-1.2,0.3-1.5,0.9v4.5h-1.1V532h1v0.7c0.4-0.6,0.9-0.8,1.5-0.8
	c0.2,0,0.4,0,0.5,0.1v1H306.9z M307.5,535.1c0-0.6,0.1-1.2,0.4-1.7c0.2-0.5,0.6-0.9,1-1.1c0.4-0.3,0.9-0.4,1.5-0.4
	c0.9,0,1.6,0.3,2.1,0.9c0.5,0.6,0.8,1.4,0.8,2.4v0.1c0,0.6-0.1,1.2-0.4,1.7c-0.2,0.5-0.6,0.9-1,1.2s-0.9,0.4-1.5,0.4
	c-0.9,0-1.6-0.3-2.1-0.9C307.8,537,307.5,536.2,307.5,535.1L307.5,535.1z M308.6,535.3c0,0.7,0.2,1.3,0.5,1.7s0.8,0.6,1.3,0.6
	c0.6,0,1-0.2,1.3-0.6c0.3-0.4,0.5-1,0.5-1.8c0-0.7-0.2-1.2-0.5-1.7c-0.3-0.4-0.8-0.7-1.3-0.7s-1,0.2-1.3,0.6
	C308.8,533.8,308.6,534.5,308.6,535.3z M318.7,538.4c-0.1-0.1-0.1-0.3-0.2-0.7c-0.5,0.5-1.1,0.8-1.8,0.8c-0.6,0-1.1-0.2-1.5-0.5
	c-0.4-0.4-0.6-0.8-0.6-1.4c0-0.7,0.2-1.2,0.8-1.5c0.5-0.4,1.2-0.5,2.1-0.5h1V534c0-0.4-0.1-0.7-0.3-0.9c-0.2-0.2-0.6-0.3-1-0.3
	s-0.7,0.1-1,0.3s-0.4,0.4-0.4,0.7h-1.1c0-0.3,0.1-0.6,0.3-0.9c0.2-0.3,0.5-0.5,0.9-0.7s0.8-0.3,1.3-0.3c0.7,0,1.3,0.2,1.7,0.5
	c0.4,0.4,0.6,0.9,0.7,1.5v2.9c0,0.6,0.1,1,0.2,1.4v0.1h-1.1V538.4z M316.9,537.5c0.3,0,0.7-0.1,1-0.3s0.5-0.4,0.7-0.7v-1.3h-0.8
	c-1.3,0-2,0.4-2,1.2c0,0.3,0.1,0.6,0.3,0.8S316.6,537.5,316.9,537.5z M324.4,537.6c0.4,0,0.7-0.1,1-0.3s0.5-0.5,0.5-0.9h1
	c0,0.4-0.2,0.7-0.4,1c-0.2,0.3-0.5,0.6-0.9,0.8s-0.8,0.3-1.2,0.3c-0.9,0-1.6-0.3-2.1-0.9c-0.5-0.6-0.8-1.4-0.8-2.4V535
	c0-0.6,0.1-1.2,0.3-1.6c0.2-0.5,0.6-0.8,1-1.1s0.9-0.4,1.5-0.4c0.7,0,1.3,0.2,1.8,0.6c0.5,0.4,0.7,1,0.8,1.7h-1c0-0.4-0.2-0.8-0.5-1
	c-0.3-0.3-0.6-0.4-1-0.4c-0.6,0-1,0.2-1.3,0.6c-0.3,0.4-0.5,1-0.5,1.7v0.2c0,0.7,0.2,1.3,0.5,1.7
	C323.4,537.4,323.8,537.6,324.4,537.6z M328.9,532.8c0.5-0.6,1.1-0.9,1.9-0.9c1.3,0,2,0.8,2,2.3v4.2h-1.1v-4.2c0-0.4-0.1-0.8-0.3-1
	c-0.2-0.2-0.5-0.3-1-0.3c-0.4,0-0.7,0.1-0.9,0.3c-0.3,0.2-0.5,0.4-0.6,0.7v4.5h-1.1v-9h1.1V532.8z M335,538.4v-8.5h2.4
	c0.7,0,1.4,0.2,2,0.5s1,0.8,1.3,1.4c0.3,0.6,0.5,1.3,0.5,2.1v0.5c0,0.8-0.2,1.5-0.5,2.1s-0.7,1.1-1.3,1.4c-0.6,0.3-1.2,0.5-2,0.5
	H335z M336.1,530.7v6.7h1.2c0.9,0,1.5-0.3,2-0.8s0.7-1.3,0.7-2.3v-0.5c0-1-0.2-1.7-0.7-2.2c-0.4-0.5-1.1-0.8-1.9-0.8h-1.3V530.7z
	 M343,538.4v-8.5h2.8c0.9,0,1.6,0.2,2.1,0.6c0.5,0.4,0.7,0.9,0.7,1.7c0,0.4-0.1,0.8-0.3,1.1c-0.2,0.3-0.5,0.5-0.9,0.7
	c0.5,0.1,0.8,0.4,1.1,0.7c0.3,0.4,0.4,0.8,0.4,1.3c0,0.8-0.2,1.4-0.8,1.8c-0.5,0.4-1.2,0.7-2.1,0.7L343,538.4L343,538.4z
	 M344.1,534.4v3.1h1.9c0.5,0,0.9-0.1,1.2-0.4c0.3-0.3,0.5-0.6,0.5-1.1c0-1-0.6-1.5-1.7-1.5L344.1,534.4L344.1,534.4z M344.1,533.5
	h1.7c0.5,0,0.9-0.1,1.2-0.4c0.3-0.2,0.5-0.6,0.5-1c0-0.5-0.1-0.8-0.4-1s-0.7-0.3-1.2-0.3h-1.7v2.7H344.1z M352.8,534.9
	c0-0.9,0.1-1.7,0.3-2.5c0.2-0.8,0.6-1.6,1.1-2.2c0.5-0.7,1-1.1,1.5-1.4l0.2,0.7c-0.6,0.4-1,1.1-1.4,2s-0.6,1.9-0.6,3v0.5
	c0,1.5,0.3,2.8,0.8,3.9c0.3,0.7,0.7,1.2,1.2,1.6l-0.2,0.7c-0.5-0.3-1-0.8-1.5-1.5C353.2,538.3,352.8,536.7,352.8,534.9z
	 M358.3,533.6h0.8c0.5,0,0.9-0.1,1.2-0.4c0.3-0.3,0.4-0.6,0.4-1.1c0-1-0.5-1.5-1.5-1.5c-0.5,0-0.8,0.1-1.1,0.4
	c-0.3,0.3-0.4,0.6-0.4,1.1h-1.1c0-0.7,0.2-1.2,0.7-1.7c0.5-0.4,1.1-0.7,1.9-0.7s1.4,0.2,1.9,0.6c0.5,0.4,0.7,1,0.7,1.8
	c0,0.4-0.1,0.7-0.4,1.1s-0.6,0.6-1,0.8c0.5,0.1,0.8,0.4,1.1,0.7c0.3,0.3,0.4,0.8,0.4,1.3c0,0.8-0.2,1.4-0.8,1.8
	c-0.5,0.4-1.2,0.7-2,0.7s-1.4-0.2-2-0.7c-0.5-0.4-0.8-1-0.8-1.7h1.1c0,0.4,0.1,0.8,0.4,1.1s0.7,0.4,1.2,0.4s0.9-0.1,1.2-0.4
	c0.3-0.3,0.4-0.7,0.4-1.2s-0.2-0.9-0.5-1.1c-0.3-0.3-0.7-0.4-1.3-0.4H358v-0.9H358.3z M364.2,534.1l0.4-4.2h4.4v1h-3.5l-0.3,2.3
	c0.4-0.2,0.9-0.4,1.4-0.4c0.8,0,1.4,0.3,1.8,0.8c0.5,0.5,0.7,1.2,0.7,2.1s-0.2,1.6-0.7,2.1s-1.1,0.8-2,0.8c-0.8,0-1.4-0.2-1.8-0.6
	c-0.5-0.4-0.8-1-0.8-1.8h1c0.1,0.5,0.2,0.9,0.5,1.1s0.7,0.4,1.1,0.4c0.5,0,0.9-0.2,1.2-0.5s0.4-0.8,0.4-1.4c0-0.6-0.2-1-0.5-1.4
	s-0.7-0.5-1.2-0.5s-0.8,0.1-1.1,0.3l-0.3,0.2L364.2,534.1z M370.8,537.8c0-0.2,0.1-0.3,0.2-0.5c0.1-0.1,0.3-0.2,0.5-0.2
	s0.4,0.1,0.5,0.2s0.2,0.3,0.2,0.5s-0.1,0.3-0.2,0.5c-0.1,0.1-0.3,0.2-0.5,0.2s-0.4-0.1-0.5-0.2C370.9,538.1,370.8,538,370.8,537.8z
	 M378,529.8v0.9h-0.2c-0.8,0-1.5,0.3-2,0.8s-0.8,1.2-0.9,2c0.5-0.5,1.1-0.8,1.8-0.8c0.7,0,1.3,0.3,1.8,0.8c0.4,0.5,0.7,1.2,0.7,2
	c0,0.9-0.2,1.6-0.7,2.1s-1.1,0.8-1.9,0.8s-1.5-0.3-2-0.9c-0.5-0.6-0.8-1.4-0.8-2.4v-0.4c0-1.6,0.3-2.8,1-3.6s1.7-1.3,3-1.3
	L378,529.8L378,529.8z M376.5,533.7c-0.4,0-0.7,0.1-1,0.3s-0.5,0.5-0.7,0.8v0.4c0,0.7,0.2,1.3,0.5,1.7s0.7,0.6,1.2,0.6
	s0.9-0.2,1.2-0.5c0.3-0.4,0.4-0.8,0.4-1.4c0-0.6-0.1-1.1-0.4-1.4C377.4,533.8,377,533.7,376.5,533.7z M381.8,532v0.7
	c0.5-0.5,1.1-0.8,1.9-0.8c0.9,0,1.5,0.3,1.8,1c0.2-0.3,0.5-0.5,0.8-0.7s0.7-0.3,1.2-0.3c1.4,0,2.1,0.7,2.1,2.2v4.2h-1.1v-4.2
	c0-0.4-0.1-0.8-0.3-1c-0.2-0.2-0.6-0.3-1-0.3s-0.7,0.1-1,0.4c-0.3,0.2-0.4,0.6-0.5,1v4.2h-1.1v-4.2c0-0.9-0.5-1.4-1.4-1.4
	c-0.7,0-1.2,0.3-1.5,0.9v4.6h-1.1V532H381.8z M395.5,536.7c0-0.3-0.1-0.5-0.3-0.7c-0.2-0.2-0.6-0.3-1.2-0.4c-0.5-0.1-1-0.3-1.3-0.4
	c-0.3-0.2-0.6-0.4-0.7-0.6c-0.1-0.2-0.2-0.5-0.2-0.8c0-0.5,0.2-1,0.7-1.3c0.4-0.4,1-0.5,1.7-0.5s1.3,0.2,1.7,0.6
	c0.4,0.4,0.7,0.8,0.7,1.4h-1.1c0-0.3-0.1-0.5-0.4-0.8c-0.2-0.2-0.6-0.3-0.9-0.3c-0.4,0-0.7,0.1-0.9,0.3c-0.2,0.2-0.3,0.4-0.3,0.7
	s0.1,0.5,0.3,0.6c0.2,0.1,0.6,0.3,1.1,0.4c0.5,0.1,1,0.3,1.3,0.4c0.3,0.2,0.6,0.4,0.7,0.6c0.2,0.2,0.2,0.5,0.2,0.9
	c0,0.6-0.2,1-0.7,1.4c-0.4,0.3-1,0.5-1.8,0.5c-0.5,0-1-0.1-1.4-0.3s-0.7-0.4-0.9-0.8c-0.2-0.3-0.3-0.7-0.3-1h1.1
	c0,0.4,0.2,0.7,0.4,0.9c0.3,0.2,0.6,0.3,1.1,0.3c0.4,0,0.7-0.1,1-0.2C395.4,537.2,395.5,536.9,395.5,536.7z M402,538.4h-1.1v-9h1.1
	V538.4z M407.7,538.4c-0.1-0.1-0.1-0.3-0.2-0.7c-0.5,0.5-1.1,0.8-1.8,0.8c-0.6,0-1.1-0.2-1.5-0.5c-0.4-0.4-0.6-0.8-0.6-1.4
	c0-0.7,0.2-1.2,0.8-1.5c0.5-0.4,1.2-0.5,2.1-0.5h1V534c0-0.4-0.1-0.7-0.3-0.9c-0.2-0.2-0.6-0.3-1-0.3s-0.7,0.1-1,0.3
	s-0.4,0.4-0.4,0.7h-1.1c0-0.3,0.1-0.6,0.3-0.9c0.2-0.3,0.5-0.5,0.9-0.7s0.8-0.3,1.3-0.3c0.7,0,1.3,0.2,1.7,0.5
	c0.4,0.4,0.6,0.9,0.7,1.5v2.9c0,0.6,0.1,1,0.2,1.4v0.1h-1.1V538.4z M405.9,537.5c0.3,0,0.7-0.1,1-0.3s0.5-0.4,0.7-0.7v-1.3h-0.8
	c-1.3,0-2,0.4-2,1.2c0,0.3,0.1,0.6,0.3,0.8S405.6,537.5,405.9,537.5z M412.3,530.5v1.5h1.2v0.8h-1.2v3.9c0,0.3,0.1,0.5,0.2,0.6
	s0.3,0.2,0.5,0.2c0.1,0,0.3,0,0.5-0.1v0.9c-0.3,0.1-0.6,0.1-0.8,0.1c-0.5,0-0.8-0.1-1.1-0.4c-0.2-0.3-0.4-0.7-0.4-1.3v-3.9H410V532
	h1.2v-1.5H412.3z M417.5,538.5c-0.9,0-1.6-0.3-2.1-0.8c-0.5-0.6-0.8-1.3-0.8-2.3v-0.2c0-0.6,0.1-1.2,0.4-1.7c0.2-0.5,0.6-0.9,1-1.2
	s0.9-0.4,1.4-0.4c0.8,0,1.5,0.3,1.9,0.8c0.5,0.5,0.7,1.3,0.7,2.3v0.5h-4.3c0,0.6,0.2,1.1,0.5,1.5c0.4,0.4,0.8,0.6,1.3,0.6
	c0.4,0,0.7-0.1,1-0.2c0.3-0.2,0.5-0.4,0.7-0.6l0.7,0.5C419.3,538.1,418.5,538.5,417.5,538.5z M417.3,532.8c-0.4,0-0.8,0.2-1.1,0.5
	c-0.3,0.3-0.5,0.8-0.5,1.3h3.2v-0.1c0-0.6-0.2-1-0.5-1.3S417.8,532.8,417.3,532.8z M421.8,532v0.8c0.5-0.6,1.1-0.9,1.9-0.9
	c1.3,0,2,0.8,2,2.3v4.2h-1.1v-4.2c0-0.4-0.1-0.8-0.3-1c-0.2-0.2-0.5-0.3-1-0.3c-0.4,0-0.7,0.1-0.9,0.3c-0.3,0.2-0.5,0.4-0.6,0.7v4.5
	h-1.1V532H421.8z M430.4,537.6c0.4,0,0.7-0.1,1-0.3s0.5-0.5,0.5-0.9h1c0,0.4-0.2,0.7-0.4,1c-0.2,0.3-0.5,0.6-0.9,0.8
	s-0.8,0.3-1.2,0.3c-0.9,0-1.6-0.3-2.1-0.9c-0.5-0.6-0.8-1.4-0.8-2.4V535c0-0.6,0.1-1.2,0.3-1.6c0.2-0.5,0.6-0.8,1-1.1
	s0.9-0.4,1.5-0.4c0.7,0,1.3,0.2,1.8,0.6c0.5,0.4,0.7,1,0.8,1.7h-1c0-0.4-0.2-0.8-0.5-1c-0.3-0.3-0.6-0.4-1-0.4c-0.6,0-1,0.2-1.3,0.6
	c-0.3,0.4-0.5,1-0.5,1.7v0.2c0,0.7,0.2,1.3,0.5,1.7C429.4,537.4,429.8,537.6,430.4,537.6z M435.9,536.8l1.5-4.8h1.2l-2.5,7.3
	c-0.4,1.1-1,1.6-1.9,1.6H434l-0.4-0.1v-0.9h0.3c0.4,0,0.7-0.1,0.9-0.2c0.2-0.1,0.4-0.4,0.5-0.8l0.2-0.7l-2.3-6.3h1.2L435.9,536.8z
	 M442.3,534.9c0,0.9-0.1,1.7-0.3,2.5c-0.2,0.8-0.6,1.5-1.1,2.2s-1,1.2-1.5,1.4l-0.2-0.7c0.6-0.5,1.1-1.2,1.5-2.1
	c0.4-1,0.6-2.1,0.6-3.2v-0.2c0-0.8-0.1-1.6-0.3-2.3c-0.2-0.7-0.4-1.3-0.7-1.9c-0.3-0.6-0.6-1-1-1.3l0.2-0.7c0.5,0.3,1,0.8,1.5,1.4
	c0.5,0.7,0.8,1.4,1,2.2C442.2,533.2,442.3,534,442.3,534.9z"/>
<path d="M210.7,115.1h-1.1v-8.5h1.1V115.1z M213.3,108.7v0.8c0.5-0.6,1.1-0.9,1.9-0.9c1.3,0,2,0.8,2,2.3v4.2h-1.1v-4.2
	c0-0.4-0.1-0.8-0.3-1s-0.5-0.3-1-0.3c-0.4,0-0.7,0.1-0.9,0.3c-0.3,0.2-0.5,0.4-0.6,0.7v4.5h-1.1v-6.3L213.3,108.7L213.3,108.7z
	 M223,113.4c0-0.3-0.1-0.5-0.3-0.7s-0.6-0.3-1.2-0.4c-0.5-0.1-1-0.3-1.3-0.4c-0.3-0.2-0.6-0.4-0.7-0.6c-0.1-0.2-0.2-0.5-0.2-0.8
	c0-0.5,0.2-1,0.7-1.3c0.4-0.4,1-0.5,1.7-0.5s1.3,0.2,1.7,0.6s0.7,0.8,0.7,1.4H223c0-0.3-0.1-0.5-0.4-0.8c-0.2-0.2-0.6-0.3-0.9-0.3
	c-0.4,0-0.7,0.1-0.9,0.3c-0.2,0.2-0.3,0.4-0.3,0.7c0,0.3,0.1,0.5,0.3,0.6s0.6,0.3,1.1,0.4s1,0.3,1.3,0.4c0.3,0.2,0.6,0.4,0.7,0.6
	c0.2,0.2,0.2,0.5,0.2,0.9c0,0.6-0.2,1-0.7,1.4c-0.4,0.3-1,0.5-1.8,0.5c-0.5,0-1-0.1-1.4-0.3c-0.4-0.2-0.7-0.4-0.9-0.8
	c-0.2-0.3-0.3-0.7-0.3-1h1.1c0,0.4,0.2,0.7,0.4,0.9c0.3,0.2,0.6,0.3,1.1,0.3c0.4,0,0.7-0.1,1-0.2C222.9,113.9,223,113.6,223,113.4z
	 M228,115.2c-0.9,0-1.6-0.3-2.1-0.8c-0.5-0.6-0.8-1.3-0.8-2.3v-0.2c0-0.6,0.1-1.2,0.4-1.7c0.2-0.5,0.6-0.9,1-1.2
	c0.4-0.3,0.9-0.4,1.4-0.4c0.8,0,1.5,0.3,1.9,0.8c0.5,0.5,0.7,1.3,0.7,2.3v0.5h-4.3c0,0.6,0.2,1.1,0.5,1.5c0.4,0.4,0.8,0.6,1.3,0.6
	c0.4,0,0.7-0.1,1-0.2c0.3-0.2,0.5-0.4,0.7-0.6l0.7,0.5C229.8,114.8,229,115.2,228,115.2z M227.8,109.5c-0.4,0-0.8,0.2-1.1,0.5
	s-0.5,0.8-0.5,1.3h3.2v-0.1c0-0.6-0.2-1-0.5-1.3C228.6,109.6,228.3,109.5,227.8,109.5z M234.4,109.7c-0.2,0-0.3,0-0.5,0
	c-0.7,0-1.2,0.3-1.5,0.9v4.5h-1.1v-6.3h1v0.7c0.4-0.6,0.9-0.8,1.5-0.8c0.2,0,0.4,0,0.5,0.1v0.9H234.4z M237.1,107.2v1.5h1.2v0.8
	h-1.2v3.9c0,0.3,0.1,0.5,0.2,0.6s0.3,0.2,0.5,0.2c0.1,0,0.3,0,0.5-0.1v0.9c-0.3,0.1-0.6,0.1-0.8,0.1c-0.5,0-0.8-0.1-1.1-0.4
	c-0.2-0.3-0.4-0.7-0.4-1.3v-3.9h-1.2v-0.8h1.2v-1.5C236,107.2,237.1,107.2,237.1,107.2z M243,113.4c0-0.3-0.1-0.5-0.3-0.7
	s-0.6-0.3-1.2-0.4c-0.5-0.1-1-0.3-1.3-0.4c-0.3-0.2-0.6-0.4-0.7-0.6c-0.1-0.2-0.2-0.5-0.2-0.8c0-0.5,0.2-1,0.7-1.3
	c0.4-0.4,1-0.5,1.7-0.5s1.3,0.2,1.7,0.6s0.7,0.8,0.7,1.4H243c0-0.3-0.1-0.5-0.4-0.8c-0.2-0.2-0.6-0.3-0.9-0.3
	c-0.4,0-0.7,0.1-0.9,0.3c-0.2,0.2-0.3,0.4-0.3,0.7c0,0.3,0.1,0.5,0.3,0.6s0.6,0.3,1.1,0.4s1,0.3,1.3,0.4c0.3,0.2,0.6,0.4,0.7,0.6
	c0.2,0.2,0.2,0.5,0.2,0.9c0,0.6-0.2,1-0.7,1.4c-0.4,0.3-1,0.5-1.8,0.5c-0.5,0-1-0.1-1.4-0.3c-0.4-0.2-0.7-0.4-0.9-0.8
	c-0.2-0.3-0.3-0.7-0.3-1h1.1c0,0.4,0.2,0.7,0.4,0.9c0.3,0.2,0.6,0.3,1.1,0.3c0.4,0,0.7-0.1,1-0.2C242.9,113.9,243,113.6,243,113.4z
	 M249.6,111.7v3.3h-1.1v-8.5h3.2c0.9,0,1.7,0.2,2.2,0.7s0.8,1.1,0.8,1.9s-0.3,1.5-0.8,1.9s-1.2,0.7-2.2,0.7H249.6z M249.6,110.8h2
	c0.6,0,1.1-0.1,1.4-0.4c0.3-0.3,0.5-0.7,0.5-1.2s-0.2-0.9-0.5-1.2c-0.3-0.3-0.8-0.5-1.3-0.5h-2.1L249.6,110.8L249.6,110.8z
	 M259,115.2c-0.9,0-1.6-0.3-2.1-0.8c-0.5-0.6-0.8-1.3-0.8-2.3v-0.2c0-0.6,0.1-1.2,0.4-1.7c0.2-0.5,0.6-0.9,1-1.2
	c0.4-0.3,0.9-0.4,1.4-0.4c0.8,0,1.5,0.3,1.9,0.8c0.5,0.5,0.7,1.3,0.7,2.3v0.5h-4.3c0,0.6,0.2,1.1,0.5,1.5c0.4,0.4,0.8,0.6,1.3,0.6
	c0.4,0,0.7-0.1,1-0.2c0.3-0.2,0.5-0.4,0.7-0.6l0.7,0.5C260.8,114.8,260,115.2,259,115.2z M258.8,109.5c-0.4,0-0.8,0.2-1.1,0.5
	c-0.3,0.3-0.5,0.8-0.5,1.3h3.2v-0.1c0-0.6-0.2-1-0.5-1.3S259.3,109.5,258.8,109.5z M265.4,109.7c-0.2,0-0.3,0-0.5,0
	c-0.7,0-1.2,0.3-1.5,0.9v4.5h-1.1v-6.3h1v0.7c0.4-0.6,0.9-0.8,1.5-0.8c0.2,0,0.4,0,0.5,0.1v0.9H265.4z M272,111.3
	c-1-0.3-1.7-0.6-2.1-1s-0.7-0.9-0.7-1.5c0-0.7,0.3-1.2,0.8-1.7c0.5-0.4,1.2-0.7,2.1-0.7c0.6,0,1.1,0.1,1.6,0.3
	c0.5,0.2,0.8,0.5,1.1,0.9c0.3,0.4,0.4,0.8,0.4,1.3H274c0-0.5-0.2-0.9-0.5-1.2c-0.3-0.3-0.8-0.4-1.4-0.4s-1,0.1-1.3,0.4
	c-0.3,0.2-0.5,0.6-0.5,1s0.1,0.7,0.4,0.9c0.3,0.2,0.8,0.5,1.5,0.7s1.3,0.4,1.7,0.7c0.4,0.2,0.7,0.5,0.9,0.8c0.2,0.3,0.3,0.7,0.3,1.1
	c0,0.7-0.3,1.3-0.8,1.7c-0.5,0.4-1.3,0.6-2.2,0.6c-0.6,0-1.1-0.1-1.7-0.3c-0.5-0.2-0.9-0.5-1.2-0.9c-0.3-0.4-0.4-0.8-0.4-1.3h1.1
	c0,0.5,0.2,0.9,0.6,1.2c0.4,0.3,0.9,0.5,1.5,0.5s1-0.1,1.4-0.4c0.3-0.2,0.5-0.6,0.5-1s-0.1-0.7-0.4-1
	C273.3,111.7,272.8,111.5,272,111.3z M279,115.2c-0.9,0-1.6-0.3-2.1-0.8c-0.5-0.6-0.8-1.3-0.8-2.3v-0.2c0-0.6,0.1-1.2,0.4-1.7
	c0.2-0.5,0.6-0.9,1-1.2c0.4-0.3,0.9-0.4,1.4-0.4c0.8,0,1.5,0.3,1.9,0.8c0.5,0.5,0.7,1.3,0.7,2.3v0.5h-4.3c0,0.6,0.2,1.1,0.5,1.5
	c0.4,0.4,0.8,0.6,1.3,0.6c0.4,0,0.7-0.1,1-0.2c0.3-0.2,0.5-0.4,0.7-0.6l0.7,0.5C280.8,114.8,280,115.2,279,115.2z M278.8,109.5
	c-0.4,0-0.8,0.2-1.1,0.5c-0.3,0.3-0.5,0.8-0.5,1.3h3.2v-0.1c0-0.6-0.2-1-0.5-1.3S279.3,109.5,278.8,109.5z M284.9,114.3
	c0.4,0,0.7-0.1,1-0.3c0.3-0.2,0.5-0.5,0.5-0.9h1c0,0.4-0.2,0.7-0.4,1c-0.2,0.3-0.5,0.6-0.9,0.8c-0.4,0.2-0.8,0.3-1.2,0.3
	c-0.9,0-1.6-0.3-2.1-0.9s-0.8-1.4-0.8-2.4v-0.2c0-0.6,0.1-1.2,0.3-1.6c0.2-0.5,0.6-0.8,1-1.1c0.4-0.3,0.9-0.4,1.5-0.4
	c0.7,0,1.3,0.2,1.8,0.6s0.7,1,0.8,1.7h-1c0-0.4-0.2-0.8-0.5-1c-0.3-0.3-0.6-0.4-1-0.4c-0.6,0-1,0.2-1.3,0.6s-0.5,1-0.5,1.7v0.2
	c0,0.7,0.2,1.3,0.5,1.7C283.9,114.1,284.3,114.3,284.9,114.3z M288,111.8c0-0.6,0.1-1.2,0.4-1.7c0.2-0.5,0.6-0.9,1-1.1
	c0.4-0.3,0.9-0.4,1.5-0.4c0.9,0,1.6,0.3,2.1,0.9s0.8,1.4,0.8,2.4v0.1c0,0.6-0.1,1.2-0.4,1.7c-0.2,0.5-0.6,0.9-1,1.2
	c-0.4,0.3-0.9,0.4-1.5,0.4c-0.9,0-1.6-0.3-2.1-0.9C288.3,113.7,288,112.9,288,111.8L288,111.8z M289.1,112c0,0.7,0.2,1.3,0.5,1.7
	c0.3,0.4,0.8,0.6,1.3,0.6c0.6,0,1-0.2,1.3-0.6s0.5-1,0.5-1.8c0-0.7-0.2-1.2-0.5-1.7c-0.3-0.4-0.8-0.7-1.3-0.7s-1,0.2-1.3,0.6
	C289.3,110.5,289.1,111.2,289.1,112z M296.3,108.7v0.8c0.5-0.6,1.1-0.9,1.9-0.9c1.3,0,2,0.8,2,2.3v4.2h-1.1v-4.2
	c0-0.4-0.1-0.8-0.3-1c-0.2-0.2-0.5-0.3-1-0.3c-0.4,0-0.7,0.1-0.9,0.3c-0.3,0.2-0.5,0.4-0.6,0.7v4.5h-1.1v-6.3L296.3,108.7
	L296.3,108.7z M302.1,111.8c0-1,0.2-1.8,0.7-2.3c0.5-0.6,1.1-0.9,1.8-0.9c0.7,0,1.3,0.2,1.8,0.8v-3.3h1.1v9h-1v-0.7
	c-0.4,0.5-1,0.8-1.8,0.8c-0.7,0-1.3-0.3-1.8-0.9C302.3,113.7,302.1,112.9,302.1,111.8L302.1,111.8z M303.1,112
	c0,0.7,0.1,1.3,0.4,1.7c0.3,0.4,0.7,0.6,1.2,0.6c0.7,0,1.2-0.3,1.5-0.9v-2.9c-0.3-0.6-0.8-0.9-1.5-0.9c-0.5,0-0.9,0.2-1.2,0.6
	C303.3,110.5,303.1,111.1,303.1,112z"/>
</svg>
