<?xml version="1.0" encoding="utf-8"?>
<!-- Generator: Adobe Illustrator 23.0.1, SVG Export Plug-In . SVG Version: 6.00 Build 0)  -->
<svg version="1.1" id="Layer_1" xmlns="http://www.w3.org/2000/svg" xmlns:xlink="http://www.w3.org/1999/xlink" x="0px" y="0px"
	 viewBox="0 0 517 565.7" style="enable-background:new 0 0 517 565.7;" xml:space="preserve">
<style type="text/css">
	.st0{fill:#FFFFFF;}
	.st1{fill:#E8E8E8;}
	.st2{enable-background:new    ;}
	.st3{fill:#F75821;}
	.st4{fill:none;stroke:#333333;stroke-miterlimit:10;}
	.st5{fill:#EEEEEE;}
	.st6{fill:none;stroke:#CCCCCC;stroke-miterlimit:10;}
	.st7{clip-path:url(#SVGID_2_);fill:#A13915;}
	.st8{clip-path:url(#SVGID_4_);fill:#F9794D;}
	.st9{clip-path:url(#SVGID_6_);fill:none;}
	.st10{clip-path:url(#SVGID_8_);fill:#F75821;}
	.st11{clip-path:url(#SVGID_10_);fill:#151B35;}
	.st12{clip-path:url(#SVGID_12_);fill:#4D5474;}
	.st13{clip-path:url(#SVGID_14_);fill:none;}
	.st14{clip-path:url(#SVGID_16_);fill:#202951;}
	.st15{fill:none;stroke:#F75821;stroke-width:3;stroke-linecap:round;stroke-linejoin:round;stroke-miterlimit:10;}
	.st16{fill:none;stroke:#202951;stroke-width:3;stroke-linecap:round;stroke-linejoin:round;stroke-miterlimit:10;}
	.st17{fill:#757575;}
	.st18{fill:#202951;}
</style>
<g>
	<path class="st0" d="M10,565.2c-5.2,0-9.5-4.3-9.5-9.5V10c0-5.2,4.3-9.5,9.5-9.5h497c5.2,0,9.5,4.3,9.5,9.5v545.7
		c0,5.2-4.3,9.5-9.5,9.5H10z"/>
	<path class="st1" d="M507,1c5,0,9,4,9,9v545.7c0,5-4,9-9,9H10c-5,0-9-4-9-9V10c0-5,4-9,9-9H507 M507,0H10C4.5,0,0,4.5,0,10v545.7
		c0,5.5,4.5,10,10,10h497c5.5,0,10-4.5,10-10V10C517,4.5,512.5,0,507,0L507,0z"/>
</g>
<g class="st2">
	<path class="st3" d="M119,49.1v2.8h-2.1v3.5h-3.2v-3.5h-7.2v-2.4l4.7-9.5h3.3l-4.4,9.1h3.6v-3.4h3.2v3.4H119z"/>
	<path class="st3" d="M120.2,43.6h3.9l2.2,3.6l2.3-3.6h3.7l-3.8,5.8l4,6.1h-3.9l-2.4-3.9l-2.6,3.9h-3.7l4.1-6L120.2,43.6z"/>
	<path class="st3" d="M150.6,41c1,0.7,1.5,1.6,1.5,2.8c0,0.8-0.2,1.5-0.7,2.1c-0.5,0.6-1.1,1-1.9,1.2c1,0.2,1.8,0.6,2.4,1.3
		c0.6,0.7,0.9,1.6,0.9,2.6c0,1.3-0.5,2.4-1.6,3.1s-2.5,1.1-4.2,1.1h-7.3V40h7.1C148.3,40,149.7,40.3,150.6,41z M148,45.8
		c0.4-0.3,0.6-0.7,0.6-1.3c0-0.5-0.2-0.9-0.6-1.2c-0.4-0.3-0.9-0.4-1.6-0.4H143v3.4h3.4C147.1,46.2,147.6,46.1,148,45.8z
		 M148.4,52.1c0.5-0.3,0.7-0.8,0.7-1.4c0-0.6-0.2-1-0.7-1.3c-0.5-0.3-1.1-0.5-1.9-0.5H143v3.7h3.4C147.3,52.6,147.9,52.4,148.4,52.1
		z"/>
	<path class="st3" d="M164.6,45.1c1,1.1,1.5,2.6,1.5,4.6c0,0.4,0,0.6,0,0.8h-8.5c0.2,0.7,0.6,1.3,1.1,1.7s1.2,0.6,2,0.6
		c0.6,0,1.1-0.1,1.6-0.3c0.5-0.2,1-0.5,1.4-0.9l1.8,1.8c-0.6,0.7-1.3,1.2-2.2,1.6c-0.9,0.4-1.8,0.5-2.9,0.5c-1.2,0-2.3-0.2-3.3-0.7
		c-0.9-0.5-1.7-1.2-2.2-2.1c-0.5-0.9-0.8-2-0.8-3.1c0-1.2,0.3-2.3,0.8-3.2c0.5-0.9,1.2-1.6,2.2-2.1c0.9-0.5,2-0.8,3.2-0.8
		C162.1,43.5,163.6,44,164.6,45.1z M162.9,48.5c0-0.8-0.3-1.4-0.7-1.9c-0.5-0.5-1.1-0.7-1.9-0.7c-0.7,0-1.3,0.2-1.8,0.7
		c-0.5,0.5-0.8,1.1-0.9,1.9H162.9z"/>
	<path class="st3" d="M175.6,54.7c-0.4,0.3-0.9,0.5-1.5,0.6c-0.5,0.1-1.1,0.2-1.6,0.2c-1.1,0-2-0.3-2.7-0.9s-1-1.5-1-2.7v-5.5h-1.7
		v-2.3h1.7v-3.3h3.4v3.3h3.2v2.4h-3.2v4.9c0,0.9,0.4,1.4,1.1,1.4c0.5,0,1-0.1,1.6-0.4L175.6,54.7z"/>
	<path class="st3" d="M185,54.7c-0.4,0.3-0.9,0.5-1.5,0.6c-0.5,0.1-1.1,0.2-1.6,0.2c-1.1,0-2-0.3-2.7-0.9s-1-1.5-1-2.7v-5.5h-1.7
		v-2.3h1.7v-3.3h3.4v3.3h3.2v2.4h-3.2v4.9c0,0.9,0.4,1.4,1.1,1.4c0.5,0,1-0.1,1.6-0.4L185,54.7z"/>
	<path class="st3" d="M196.3,45.1c1,1.1,1.5,2.6,1.5,4.6c0,0.4,0,0.6,0,0.8h-8.5c0.2,0.7,0.6,1.3,1.1,1.7c0.5,0.4,1.2,0.6,2,0.6
		c0.6,0,1.1-0.1,1.6-0.3c0.5-0.2,1-0.5,1.4-0.9l1.8,1.8c-0.6,0.7-1.3,1.2-2.2,1.6c-0.9,0.4-1.8,0.5-2.9,0.5c-1.2,0-2.3-0.2-3.3-0.7
		c-0.9-0.5-1.6-1.2-2.2-2.1c-0.5-0.9-0.8-2-0.8-3.1c0-1.2,0.3-2.3,0.8-3.2s1.2-1.6,2.2-2.1c0.9-0.5,2-0.8,3.2-0.8
		C193.9,43.5,195.4,44,196.3,45.1z M194.6,48.5c0-0.8-0.3-1.4-0.7-1.9s-1.1-0.7-1.9-0.7c-0.7,0-1.3,0.2-1.8,0.7s-0.8,1.1-0.9,1.9
		H194.6z"/>
	<path class="st3" d="M205,44c0.7-0.4,1.4-0.6,2.3-0.6v3.2c-0.1,0-0.3,0-0.5,0c-1,0-1.9,0.3-2.5,0.8s-0.9,1.3-0.9,2.3v5.7h-3.4V43.6
		h3.4v2.1C203.9,45,204.4,44.4,205,44z"/>
	<path class="st3" d="M230.7,57.3c-0.6,0.5-1.3,0.9-2.1,1.2c-0.8,0.3-1.6,0.5-2.3,0.5c-1,0-2-0.3-2.8-0.9c-0.8-0.6-1.5-1.4-2.1-2.5
		c-1.5,0-2.9-0.4-4.1-1.1c-1.2-0.7-2.2-1.7-2.9-2.9c-0.7-1.2-1.1-2.5-1.1-4c0-1.5,0.4-2.8,1.1-4c0.7-1.2,1.7-2.2,3-2.8
		c1.3-0.7,2.7-1,4.2-1c1.5,0,2.9,0.3,4.2,1c1.3,0.7,2.3,1.6,3,2.8c0.7,1.2,1.1,2.6,1.1,4c0,1.7-0.5,3.2-1.4,4.6
		c-0.9,1.3-2.2,2.3-3.8,2.9c0.7,0.7,1.3,1.1,2,1.1c0.4,0,0.8-0.1,1.3-0.3c0.5-0.2,1-0.5,1.5-0.9L230.7,57.3z M217.5,50.2
		c0.4,0.7,1,1.3,1.7,1.8c0.7,0.4,1.5,0.7,2.4,0.7s1.6-0.2,2.3-0.6c0.7-0.4,1.3-1,1.7-1.8c0.4-0.8,0.6-1.6,0.6-2.5
		c0-0.9-0.2-1.7-0.6-2.5c-0.4-0.7-1-1.3-1.7-1.8c-0.7-0.4-1.5-0.6-2.3-0.6s-1.6,0.2-2.4,0.6s-1.3,1-1.7,1.8
		c-0.4,0.7-0.6,1.6-0.6,2.5C216.9,48.6,217.1,49.4,217.5,50.2z"/>
	<path class="st3" d="M243.5,43.6v11.8h-3.4v-2.1c-0.8,1.5-2.1,2.2-4,2.2c-1.3,0-2.3-0.4-3.1-1.2c-0.8-0.8-1.2-1.9-1.2-3.3v-7.4h3.4
		V50c0,0.7,0.2,1.3,0.6,1.8c0.4,0.4,0.9,0.6,1.6,0.6c0.8,0,1.4-0.3,1.9-0.9c0.5-0.6,0.7-1.3,0.7-2.2v-5.9H243.5z"/>
	<path class="st3" d="M256.2,45.1c1,1.1,1.5,2.6,1.5,4.6c0,0.4,0,0.6,0,0.8h-8.5c0.2,0.7,0.6,1.3,1.1,1.7s1.2,0.6,2,0.6
		c0.6,0,1.1-0.1,1.6-0.3c0.5-0.2,1-0.5,1.4-0.9l1.8,1.8c-0.6,0.7-1.3,1.2-2.2,1.6c-0.9,0.4-1.8,0.5-2.9,0.5c-1.2,0-2.3-0.2-3.3-0.7
		c-0.9-0.5-1.7-1.2-2.2-2.1c-0.5-0.9-0.8-2-0.8-3.1c0-1.2,0.3-2.3,0.8-3.2c0.5-0.9,1.2-1.6,2.2-2.1c0.9-0.5,2-0.8,3.2-0.8
		C253.7,43.5,255.2,44,256.2,45.1z M254.5,48.5c0-0.8-0.3-1.4-0.7-1.9c-0.5-0.5-1.1-0.7-1.9-0.7c-0.7,0-1.3,0.2-1.8,0.7
		c-0.5,0.5-0.8,1.1-0.9,1.9H254.5z"/>
	<path class="st3" d="M264.9,44c0.7-0.4,1.4-0.6,2.3-0.6v3.2c-0.1,0-0.3,0-0.5,0c-1,0-1.9,0.3-2.5,0.8c-0.6,0.6-0.9,1.3-0.9,2.3v5.7
		h-3.4V43.6h3.4v2.1C263.7,45,264.2,44.4,264.9,44z"/>
	<path class="st3" d="M271,59.8c-0.6,0-1.2-0.1-1.7-0.3c-0.5-0.2-1-0.5-1.5-0.9l1.4-2.4c0.5,0.4,1,0.6,1.5,0.6
		c0.7,0,1.2-0.4,1.6-1.1l0.3-0.7l-4.9-11.6h3.5l3.1,8.1l2.8-8.1h3.4l-5.2,13.2C274.5,58.8,273,59.8,271,59.8z"/>
	<path class="st3" d="M298.3,41.4c1.1,0.9,1.6,2.2,1.6,3.9c0,1.8-0.5,3.2-1.6,4.2s-2.6,1.5-4.5,1.5h-3.1v4.4h-3.5V40h6.5
		C295.7,40,297.2,40.5,298.3,41.4z M295.8,47.4c0.5-0.4,0.8-1.1,0.8-2c0-0.9-0.3-1.5-0.8-1.9c-0.5-0.4-1.3-0.6-2.3-0.6h-2.9v5.2h2.9
		C294.5,48.1,295.3,47.9,295.8,47.4z"/>
	<path class="st3" d="M311.4,45.1c1,1.1,1.5,2.6,1.5,4.6c0,0.4,0,0.6,0,0.8h-8.5c0.2,0.7,0.6,1.3,1.1,1.7c0.5,0.4,1.2,0.6,2,0.6
		c0.6,0,1.1-0.1,1.6-0.3c0.5-0.2,1-0.5,1.4-0.9l1.8,1.8c-0.6,0.7-1.3,1.2-2.2,1.6c-0.9,0.4-1.8,0.5-2.9,0.5c-1.2,0-2.3-0.2-3.3-0.7
		c-0.9-0.5-1.6-1.2-2.2-2.1c-0.5-0.9-0.8-2-0.8-3.1c0-1.2,0.3-2.3,0.8-3.2s1.2-1.6,2.2-2.1c0.9-0.5,2-0.8,3.2-0.8
		C309,43.5,310.5,44,311.4,45.1z M309.7,48.5c0-0.8-0.3-1.4-0.7-1.9s-1.1-0.7-1.9-0.7c-0.7,0-1.3,0.2-1.8,0.7s-0.8,1.1-0.9,1.9
		H309.7z"/>
	<path class="st3" d="M320.2,44c0.7-0.4,1.4-0.6,2.3-0.6v3.2c-0.1,0-0.3,0-0.5,0c-1,0-1.9,0.3-2.5,0.8s-0.9,1.3-0.9,2.3v5.7h-3.4
		V43.6h3.4v2.1C319,45,319.5,44.4,320.2,44z"/>
	<path class="st3" d="M328.7,42.1c-0.3,0.2-0.4,0.6-0.4,1v1h2.8v2.4h-2.8v9h-3.4v-9h-1.6v-2.4h1.6V43c0-0.9,0.2-1.6,0.6-2.2
		c0.4-0.6,0.9-1.1,1.6-1.4c0.7-0.3,1.4-0.5,2.2-0.5c0.8,0,1.5,0.2,2.3,0.5l-0.5,2.6c-0.2-0.1-0.5-0.2-0.7-0.2s-0.5-0.1-0.7-0.1
		C329.3,41.7,329,41.8,328.7,42.1z"/>
	<path class="st3" d="M341.1,44.2c1,0.5,1.7,1.2,2.2,2.1c0.5,0.9,0.8,2,0.8,3.2c0,1.2-0.3,2.2-0.8,3.2c-0.5,0.9-1.3,1.6-2.2,2.1
		s-2.1,0.8-3.3,0.8c-1.3,0-2.4-0.3-3.3-0.8c-1-0.5-1.7-1.2-2.2-2.1s-0.8-2-0.8-3.2c0-1.2,0.3-2.3,0.8-3.2s1.3-1.6,2.2-2.1
		c1-0.5,2.1-0.7,3.3-0.7C339,43.5,340.1,43.7,341.1,44.2z M335.6,47.2c-0.5,0.6-0.8,1.4-0.8,2.4s0.3,1.8,0.8,2.4s1.3,0.9,2.1,0.9
		c0.9,0,1.6-0.3,2.1-0.9c0.5-0.6,0.8-1.4,0.8-2.4s-0.3-1.8-0.8-2.4c-0.6-0.6-1.3-0.9-2.1-0.9C336.9,46.3,336.2,46.6,335.6,47.2z"/>
	<path class="st3" d="M351.4,44c0.7-0.4,1.4-0.6,2.3-0.6v3.2c-0.1,0-0.3,0-0.5,0c-1,0-1.9,0.3-2.5,0.8c-0.6,0.6-0.9,1.3-0.9,2.3v5.7
		h-3.4V43.6h3.4v2.1C350.2,45,350.7,44.4,351.4,44z"/>
	<path class="st3" d="M374.3,44.7c0.8,0.8,1.2,1.9,1.2,3.3v7.4h-3.4V49c0-0.8-0.2-1.4-0.6-1.8c-0.4-0.4-1-0.6-1.7-0.6
		c-0.8,0-1.4,0.3-1.9,0.9c-0.5,0.6-0.7,1.3-0.7,2.2v5.9h-3.4V49c0-0.7-0.2-1.3-0.6-1.8s-1-0.6-1.7-0.6c-0.8,0-1.4,0.3-1.9,0.9
		s-0.7,1.3-0.7,2.2v5.9h-3.4V43.6h3.4v2c0.8-1.4,2.2-2.1,4-2.2c1,0,1.8,0.2,2.5,0.7s1.2,1.1,1.5,2c0.4-0.9,0.9-1.6,1.7-2
		c0.7-0.5,1.6-0.7,2.6-0.7C372.5,43.4,373.5,43.8,374.3,44.7z"/>
	<path class="st3" d="M385.2,55.4V54c-0.4,0.5-0.9,0.9-1.5,1.1c-0.6,0.3-1.4,0.4-2.2,0.4c-1.2,0-2.2-0.3-3-1
		c-0.7-0.7-1.1-1.6-1.1-2.7c0-1.1,0.4-2,1.2-2.6c0.8-0.6,1.9-0.9,3.3-1h3.3v-0.2c0-0.6-0.2-1.1-0.6-1.5c-0.4-0.3-1-0.5-1.8-0.5
		c-1.1,0-2.3,0.3-3.5,1l-1.1-2.3c0.9-0.5,1.8-0.8,2.6-1c0.8-0.2,1.7-0.3,2.7-0.3c1.6,0,2.8,0.4,3.7,1.1c0.9,0.7,1.3,1.8,1.3,3.1
		l0,7.7H385.2z M384.3,52.6c0.5-0.3,0.8-0.8,0.9-1.3v-1.1h-2.7c-0.7,0-1.1,0.1-1.5,0.3c-0.3,0.2-0.5,0.6-0.5,1
		c0,0.5,0.2,0.8,0.5,1.1s0.8,0.4,1.4,0.4C383.2,53.1,383.8,53,384.3,52.6z"/>
	<path class="st3" d="M402.1,44.7c0.8,0.8,1.2,1.9,1.2,3.3v7.4h-3.4V49c0-0.7-0.2-1.3-0.6-1.8s-1-0.6-1.7-0.6c-0.8,0-1.5,0.3-2,0.9
		c-0.5,0.6-0.7,1.3-0.7,2.2v5.8h-3.4V43.6h3.4v2.1c0.8-1.4,2.2-2.2,4.1-2.2C400.3,43.4,401.3,43.8,402.1,44.7z"/>
	<path class="st3" d="M411.5,46.3c-0.9,0-1.5,0.3-2.1,0.9c-0.5,0.6-0.8,1.3-0.8,2.3c0,1,0.3,1.7,0.8,2.3c0.5,0.6,1.2,0.9,2,0.9
		c1.2,0,2.1-0.5,2.8-1.4l2.3,1.6c-0.5,0.8-1.2,1.5-2.1,1.9c-0.9,0.5-2,0.7-3.2,0.7c-1.2,0-2.2-0.2-3.1-0.7c-0.9-0.5-1.6-1.2-2.1-2.1
		c-0.5-0.9-0.8-2-0.8-3.1c0-1.2,0.3-2.3,0.8-3.2s1.2-1.6,2.1-2.1c0.9-0.5,2-0.8,3.2-0.8c1.1,0,2.1,0.2,3,0.6s1.6,1,2.1,1.8l-2.3,1.7
		C413.5,46.8,412.6,46.3,411.5,46.3z"/>
	<path class="st3" d="M427.7,45.1c1,1.1,1.5,2.6,1.5,4.6c0,0.4,0,0.6,0,0.8h-8.5c0.2,0.7,0.6,1.3,1.1,1.7s1.2,0.6,2,0.6
		c0.6,0,1.1-0.1,1.6-0.3c0.5-0.2,1-0.5,1.4-0.9l1.8,1.8c-0.6,0.7-1.3,1.2-2.2,1.6c-0.9,0.4-1.8,0.5-2.9,0.5c-1.2,0-2.3-0.2-3.3-0.7
		c-0.9-0.5-1.7-1.2-2.2-2.1c-0.5-0.9-0.8-2-0.8-3.1c0-1.2,0.3-2.3,0.8-3.2c0.5-0.9,1.2-1.6,2.2-2.1c0.9-0.5,2-0.8,3.2-0.8
		C425.2,43.5,426.7,44,427.7,45.1z M426,48.5c0-0.8-0.3-1.4-0.7-1.9c-0.5-0.5-1.1-0.7-1.9-0.7c-0.7,0-1.3,0.2-1.8,0.7
		c-0.5,0.5-0.8,1.1-0.9,1.9H426z"/>
</g>
<path class="st4" d="M105,472.2h387"/>
<path class="st5" d="M75,502.2l30-29h387l-30,29H75z"/>
<path class="st6" d="M105,389.2h387"/>
<path class="st6" d="M105,307.2h387"/>
<path class="st6" d="M105,224.2h387"/>
<path class="st6" d="M105,141.2h387"/>
<g>
	<g>
		<g>
			<defs>
				<rect id="SVGID_1_" x="74.9" y="140.9" width="417.2" height="361.7"/>
			</defs>
			<clipPath id="SVGID_2_">
				<use xlink:href="#SVGID_1_"  style="overflow:visible;"/>
			</clipPath>
			<path class="st7" d="M295.5,198.7v274l-25,25v-274L295.5,198.7z"/>
		</g>
	</g>
</g>
<g>
	<g>
		<g>
			<defs>
				<rect id="SVGID_3_" x="74.9" y="140.9" width="417.2" height="361.7"/>
			</defs>
			<clipPath id="SVGID_4_">
				<use xlink:href="#SVGID_3_"  style="overflow:visible;"/>
			</clipPath>
			<path class="st8" d="M270.5,223.7h-99l25-25h99L270.5,223.7z"/>
		</g>
	</g>
</g>
<g>
	<g>
		<g>
			<defs>
				<rect id="SVGID_5_" x="74.9" y="140.9" width="417.2" height="361.7"/>
			</defs>
			<clipPath id="SVGID_6_">
				<use xlink:href="#SVGID_5_"  style="overflow:visible;"/>
			</clipPath>
			<path class="st9" d="M270.5,497.7h-99v-274h99V497.7z"/>
		</g>
	</g>
</g>
<g>
	<g>
		<g>
			<defs>
				<rect id="SVGID_7_" x="74.9" y="140.9" width="417.2" height="361.7"/>
			</defs>
			<clipPath id="SVGID_8_">
				<use xlink:href="#SVGID_7_"  style="overflow:visible;"/>
			</clipPath>
			<path class="st10" d="M270.5,497.7h-99v-274h99V497.7z"/>
		</g>
	</g>
</g>
<g>
	<g>
		<g>
			<defs>
				<rect id="SVGID_9_" x="74.9" y="140.9" width="417.2" height="361.7"/>
			</defs>
			<clipPath id="SVGID_10_">
				<use xlink:href="#SVGID_9_"  style="overflow:visible;"/>
			</clipPath>
			<path class="st11" d="M395.5,409.7v63l-25,25v-63L395.5,409.7z"/>
		</g>
	</g>
</g>
<g>
	<g>
		<g>
			<defs>
				<rect id="SVGID_11_" x="74.9" y="140.9" width="417.2" height="361.7"/>
			</defs>
			<clipPath id="SVGID_12_">
				<use xlink:href="#SVGID_11_"  style="overflow:visible;"/>
			</clipPath>
			<path class="st12" d="M370.5,434.7h-99l25-25h99L370.5,434.7z"/>
		</g>
	</g>
</g>
<g>
	<g>
		<g>
			<defs>
				<rect id="SVGID_13_" x="74.9" y="140.9" width="417.2" height="361.7"/>
			</defs>
			<clipPath id="SVGID_14_">
				<use xlink:href="#SVGID_13_"  style="overflow:visible;"/>
			</clipPath>
			<path class="st13" d="M370.5,497.7h-99v-63h99V497.7z"/>
		</g>
	</g>
</g>
<g>
	<g>
		<g>
			<defs>
				<rect id="SVGID_15_" x="74.9" y="140.9" width="417.2" height="361.7"/>
			</defs>
			<clipPath id="SVGID_16_">
				<use xlink:href="#SVGID_15_"  style="overflow:visible;"/>
			</clipPath>
			<path class="st14" d="M370.5,497.7h-99v-63h99V497.7z"/>
		</g>
	</g>
</g>
<path class="st15" d="M203.8,240.2h-1.1V233l-2.2,0.8v-1l3.1-1.2h0.2V240.2z M211.5,231.7v0.9h-0.2c-0.8,0-1.5,0.3-2,0.8
	s-0.8,1.2-0.9,2c0.5-0.5,1.1-0.8,1.8-0.8s1.3,0.3,1.8,0.8s0.7,1.2,0.7,2c0,0.9-0.2,1.6-0.7,2.1s-1.1,0.8-1.9,0.8s-1.5-0.3-2-0.9
	c-0.5-0.6-0.8-1.4-0.8-2.4v-0.4c0-1.6,0.3-2.8,1-3.6s1.7-1.3,3-1.3L211.5,231.7L211.5,231.7z M210,235.6c-0.4,0-0.7,0.1-1,0.3
	s-0.5,0.5-0.7,0.8v0.4c0,0.7,0.2,1.3,0.5,1.7s0.7,0.6,1.2,0.6s0.9-0.2,1.2-0.5c0.3-0.4,0.4-0.8,0.4-1.4s-0.1-1.1-0.4-1.4
	C210.9,235.7,210.5,235.6,210,235.6z M214.7,236l0.4-4.2h4.4v1H216l-0.3,2.3c0.4-0.2,0.9-0.4,1.4-0.4c0.8,0,1.4,0.3,1.8,0.8
	c0.5,0.5,0.7,1.2,0.7,2.1s-0.2,1.6-0.7,2.1s-1.1,0.8-2,0.8c-0.8,0-1.4-0.2-1.8-0.6c-0.5-0.4-0.8-1-0.8-1.8h1
	c0.1,0.5,0.2,0.9,0.5,1.1s0.7,0.4,1.1,0.4c0.5,0,0.9-0.2,1.2-0.5s0.4-0.8,0.4-1.4c0-0.6-0.2-1-0.5-1.4s-0.7-0.5-1.2-0.5
	s-0.8,0.1-1.1,0.3l-0.3,0.2L214.7,236z M221.3,241.9l-0.6-0.4c0.4-0.5,0.6-1,0.6-1.6v-1h1.1v0.8c0,0.4-0.1,0.8-0.3,1.2
	S221.6,241.7,221.3,241.9z M228.8,240.2h-5.6v-0.8l3-3.3c0.4-0.5,0.7-0.9,0.9-1.2s0.2-0.6,0.2-1s-0.1-0.8-0.4-1.1
	c-0.3-0.3-0.6-0.4-1.1-0.4s-0.9,0.2-1.2,0.5s-0.5,0.7-0.5,1.3H223c0-0.8,0.2-1.4,0.8-1.9c0.5-0.5,1.2-0.7,2-0.7s1.4,0.2,1.9,0.6
	s0.7,1,0.7,1.7c0,0.8-0.5,1.8-1.6,3l-2.3,2.5h4.3L228.8,240.2L228.8,240.2z M235.4,233.9c0,0.4-0.1,0.8-0.3,1.1s-0.5,0.6-0.9,0.8
	c0.4,0.2,0.8,0.5,1,0.8c0.3,0.4,0.4,0.8,0.4,1.2c0,0.7-0.2,1.3-0.8,1.8c-0.5,0.4-1.1,0.7-2,0.7c-0.8,0-1.5-0.2-2-0.7
	c-0.5-0.4-0.7-1-0.7-1.8c0-0.5,0.1-0.9,0.4-1.2c0.2-0.4,0.6-0.7,1-0.8c-0.4-0.2-0.7-0.4-0.9-0.8s-0.3-0.7-0.3-1.1
	c0-0.7,0.2-1.3,0.7-1.7s1.1-0.6,1.8-0.6c0.8,0,1.4,0.2,1.8,0.6C235.2,232.6,235.4,233.2,235.4,233.9z M234.5,237.9
	c0-0.5-0.2-0.9-0.5-1.2s-0.7-0.5-1.2-0.5s-0.9,0.2-1.2,0.5s-0.4,0.7-0.4,1.2s0.1,0.9,0.4,1.1c0.3,0.3,0.7,0.4,1.2,0.4
	s0.9-0.1,1.2-0.4S234.5,238.4,234.5,237.9z M232.9,232.5c-0.4,0-0.8,0.1-1,0.4c-0.3,0.3-0.4,0.6-0.4,1.1c0,0.4,0.1,0.8,0.4,1
	s0.6,0.4,1,0.4s0.8-0.1,1-0.4s0.4-0.6,0.4-1s-0.1-0.8-0.4-1.1C233.6,232.6,233.3,232.5,232.9,232.5z M242.6,236.6
	c0,1.3-0.2,2.2-0.7,2.8c-0.4,0.6-1.1,0.9-2,0.9s-1.6-0.3-2-0.9s-0.7-1.5-0.7-2.7v-1.4c0-1.3,0.2-2.2,0.6-2.8c0.4-0.6,1.1-0.9,2-0.9
	s1.6,0.3,2,0.9c0.4,0.6,0.7,1.5,0.7,2.7L242.6,236.6L242.6,236.6z M241.5,235.1c0-0.9-0.1-1.6-0.4-2c-0.2-0.4-0.7-0.6-1.2-0.6
	c-0.6,0-1,0.2-1.2,0.6c-0.2,0.4-0.4,1.1-0.4,1.9v1.7c0,0.9,0.1,1.6,0.4,2c0.3,0.4,0.7,0.7,1.2,0.7s0.9-0.2,1.2-0.6s0.4-1.1,0.4-2
	V235.1z"/>
<path class="st0" d="M203.8,240.2h-1.1V233l-2.2,0.8v-1l3.1-1.2h0.2V240.2z M211.5,231.7v0.9h-0.2c-0.8,0-1.5,0.3-2,0.8
	s-0.8,1.2-0.9,2c0.5-0.5,1.1-0.8,1.8-0.8s1.3,0.3,1.8,0.8s0.7,1.2,0.7,2c0,0.9-0.2,1.6-0.7,2.1s-1.1,0.8-1.9,0.8s-1.5-0.3-2-0.9
	c-0.5-0.6-0.8-1.4-0.8-2.4v-0.4c0-1.6,0.3-2.8,1-3.6s1.7-1.3,3-1.3L211.5,231.7L211.5,231.7z M210,235.6c-0.4,0-0.7,0.1-1,0.3
	s-0.5,0.5-0.7,0.8v0.4c0,0.7,0.2,1.3,0.5,1.7s0.7,0.6,1.2,0.6s0.9-0.2,1.2-0.5c0.3-0.4,0.4-0.8,0.4-1.4s-0.1-1.1-0.4-1.4
	C210.9,235.7,210.5,235.6,210,235.6z M214.7,236l0.4-4.2h4.4v1H216l-0.3,2.3c0.4-0.2,0.9-0.4,1.4-0.4c0.8,0,1.4,0.3,1.8,0.8
	c0.5,0.5,0.7,1.2,0.7,2.1s-0.2,1.6-0.7,2.1s-1.1,0.8-2,0.8c-0.8,0-1.4-0.2-1.8-0.6c-0.5-0.4-0.8-1-0.8-1.8h1
	c0.1,0.5,0.2,0.9,0.5,1.1s0.7,0.4,1.1,0.4c0.5,0,0.9-0.2,1.2-0.5s0.4-0.8,0.4-1.4c0-0.6-0.2-1-0.5-1.4s-0.7-0.5-1.2-0.5
	s-0.8,0.1-1.1,0.3l-0.3,0.2L214.7,236z M221.3,241.9l-0.6-0.4c0.4-0.5,0.6-1,0.6-1.6v-1h1.1v0.8c0,0.4-0.1,0.8-0.3,1.2
	S221.6,241.7,221.3,241.9z M228.8,240.2h-5.6v-0.8l3-3.3c0.4-0.5,0.7-0.9,0.9-1.2s0.2-0.6,0.2-1s-0.1-0.8-0.4-1.1
	c-0.3-0.3-0.6-0.4-1.1-0.4s-0.9,0.2-1.2,0.5s-0.5,0.7-0.5,1.3H223c0-0.8,0.2-1.4,0.8-1.9c0.5-0.5,1.2-0.7,2-0.7s1.4,0.2,1.9,0.6
	s0.7,1,0.7,1.7c0,0.8-0.5,1.8-1.6,3l-2.3,2.5h4.3L228.8,240.2L228.8,240.2z M235.4,233.9c0,0.4-0.1,0.8-0.3,1.1s-0.5,0.6-0.9,0.8
	c0.4,0.2,0.8,0.5,1,0.8c0.3,0.4,0.4,0.8,0.4,1.2c0,0.7-0.2,1.3-0.8,1.8c-0.5,0.4-1.1,0.7-2,0.7c-0.8,0-1.5-0.2-2-0.7
	c-0.5-0.4-0.7-1-0.7-1.8c0-0.5,0.1-0.9,0.4-1.2c0.2-0.4,0.6-0.7,1-0.8c-0.4-0.2-0.7-0.4-0.9-0.8s-0.3-0.7-0.3-1.1
	c0-0.7,0.2-1.3,0.7-1.7s1.1-0.6,1.8-0.6c0.8,0,1.4,0.2,1.8,0.6C235.2,232.6,235.4,233.2,235.4,233.9z M234.5,237.9
	c0-0.5-0.2-0.9-0.5-1.2s-0.7-0.5-1.2-0.5s-0.9,0.2-1.2,0.5s-0.4,0.7-0.4,1.2s0.1,0.9,0.4,1.1c0.3,0.3,0.7,0.4,1.2,0.4
	s0.9-0.1,1.2-0.4S234.5,238.4,234.5,237.9z M232.9,232.5c-0.4,0-0.8,0.1-1,0.4c-0.3,0.3-0.4,0.6-0.4,1.1c0,0.4,0.1,0.8,0.4,1
	s0.6,0.4,1,0.4s0.8-0.1,1-0.4s0.4-0.6,0.4-1s-0.1-0.8-0.4-1.1C233.6,232.6,233.3,232.5,232.9,232.5z M242.6,236.6
	c0,1.3-0.2,2.2-0.7,2.8c-0.4,0.6-1.1,0.9-2,0.9s-1.6-0.3-2-0.9s-0.7-1.5-0.7-2.7v-1.4c0-1.3,0.2-2.2,0.6-2.8c0.4-0.6,1.1-0.9,2-0.9
	s1.6,0.3,2,0.9c0.4,0.6,0.7,1.5,0.7,2.7L242.6,236.6L242.6,236.6z M241.5,235.1c0-0.9-0.1-1.6-0.4-2c-0.2-0.4-0.7-0.6-1.2-0.6
	c-0.6,0-1,0.2-1.2,0.6c-0.2,0.4-0.4,1.1-0.4,1.9v1.7c0,0.9,0.1,1.6,0.4,2c0.3,0.4,0.7,0.7,1.2,0.7s0.9-0.2,1.2-0.6s0.4-1.1,0.4-2
	V235.1z"/>
<path class="st16" d="M305.3,446.5h0.8c0.5,0,0.9-0.1,1.2-0.4c0.3-0.3,0.4-0.6,0.4-1.1c0-1-0.5-1.5-1.5-1.5c-0.5,0-0.8,0.1-1.1,0.4
	c-0.3,0.3-0.4,0.6-0.4,1.1h-1.1c0-0.7,0.2-1.2,0.7-1.7c0.5-0.4,1.1-0.7,1.9-0.7s1.4,0.2,1.9,0.6s0.7,1,0.7,1.8
	c0,0.4-0.1,0.7-0.4,1.1s-0.6,0.6-1,0.8c0.5,0.1,0.8,0.4,1.1,0.7c0.3,0.3,0.4,0.8,0.4,1.3c0,0.8-0.2,1.4-0.8,1.8
	c-0.5,0.4-1.2,0.7-2,0.7s-1.4-0.2-2-0.7c-0.5-0.4-0.8-1-0.8-1.7h1.1c0,0.4,0.1,0.8,0.4,1.1c0.3,0.3,0.7,0.4,1.2,0.4s0.9-0.1,1.2-0.4
	c0.3-0.3,0.4-0.7,0.4-1.2s-0.2-0.9-0.5-1.1c-0.3-0.3-0.7-0.4-1.3-0.4H305v-0.9L305.3,446.5L305.3,446.5z M315.9,445
	c0,0.4-0.1,0.8-0.3,1.1c-0.2,0.3-0.5,0.6-0.9,0.8c0.4,0.2,0.8,0.5,1,0.8c0.3,0.4,0.4,0.8,0.4,1.2c0,0.7-0.2,1.3-0.8,1.8
	c-0.5,0.4-1.1,0.7-2,0.7c-0.8,0-1.5-0.2-2-0.7c-0.5-0.4-0.7-1-0.7-1.8c0-0.5,0.1-0.9,0.4-1.2c0.2-0.4,0.6-0.7,1-0.8
	c-0.4-0.2-0.7-0.4-0.9-0.8c-0.2-0.3-0.3-0.7-0.3-1.1c0-0.7,0.2-1.3,0.7-1.7c0.5-0.4,1.1-0.6,1.8-0.6c0.8,0,1.4,0.2,1.8,0.6
	C315.7,443.7,315.9,444.3,315.9,445z M315,449c0-0.5-0.2-0.9-0.5-1.2c-0.3-0.3-0.7-0.5-1.2-0.5s-0.9,0.2-1.2,0.5
	c-0.3,0.3-0.4,0.7-0.4,1.2s0.1,0.9,0.4,1.1c0.3,0.3,0.7,0.4,1.2,0.4s0.9-0.1,1.2-0.4S315,449.5,315,449z M313.4,443.6
	c-0.4,0-0.8,0.1-1,0.4c-0.3,0.3-0.4,0.6-0.4,1.1c0,0.4,0.1,0.8,0.4,1c0.3,0.3,0.6,0.4,1,0.4s0.8-0.1,1-0.4c0.3-0.3,0.4-0.6,0.4-1
	s-0.1-0.8-0.4-1.1C314.1,443.7,313.8,443.6,313.4,443.6z M317.8,453l-0.6-0.4c0.4-0.5,0.6-1,0.6-1.6v-1h1.1v0.8
	c0,0.4-0.1,0.8-0.3,1.2C318.3,452.5,318.1,452.8,317.8,453z M325.1,447.7c0,1.3-0.2,2.2-0.7,2.8c-0.4,0.6-1.1,0.9-2,0.9
	s-1.6-0.3-2-0.9s-0.7-1.5-0.7-2.7v-1.4c0-1.3,0.2-2.2,0.6-2.8c0.4-0.6,1.1-0.9,2-0.9s1.6,0.3,2,0.9s0.7,1.5,0.7,2.7v1.4H325.1z
	 M324,446.2c0-0.9-0.1-1.6-0.4-2c-0.2-0.4-0.7-0.6-1.2-0.6c-0.6,0-1,0.2-1.2,0.6s-0.4,1.1-0.4,1.9v1.7c0,0.9,0.1,1.6,0.4,2
	s0.7,0.7,1.2,0.7s0.9-0.2,1.2-0.6c0.3-0.4,0.4-1.1,0.4-2V446.2z M332.1,447.7c0,1.3-0.2,2.2-0.7,2.8c-0.4,0.6-1.1,0.9-2,0.9
	s-1.6-0.3-2-0.9s-0.7-1.5-0.7-2.7v-1.4c0-1.3,0.2-2.2,0.6-2.8c0.4-0.6,1.1-0.9,2-0.9s1.6,0.3,2,0.9s0.7,1.5,0.7,2.7v1.4H332.1z
	 M331,446.2c0-0.9-0.1-1.6-0.4-2c-0.2-0.4-0.7-0.6-1.2-0.6c-0.6,0-1,0.2-1.2,0.6s-0.4,1.1-0.4,1.9v1.7c0,0.9,0.1,1.6,0.4,2
	s0.7,0.7,1.2,0.7s0.9-0.2,1.2-0.6c0.3-0.4,0.4-1.1,0.4-2V446.2z M339.1,447.7c0,1.3-0.2,2.2-0.7,2.8c-0.4,0.6-1.1,0.9-2,0.9
	s-1.6-0.3-2-0.9s-0.7-1.5-0.7-2.7v-1.4c0-1.3,0.2-2.2,0.6-2.8c0.4-0.6,1.1-0.9,2-0.9s1.6,0.3,2,0.9s0.7,1.5,0.7,2.7v1.4H339.1z
	 M338,446.2c0-0.9-0.1-1.6-0.4-2c-0.2-0.4-0.7-0.6-1.2-0.6c-0.6,0-1,0.2-1.2,0.6s-0.4,1.1-0.4,1.9v1.7c0,0.9,0.1,1.6,0.4,2
	s0.7,0.7,1.2,0.7s0.9-0.2,1.2-0.6c0.3-0.4,0.4-1.1,0.4-2V446.2z"/>
<path class="st0" d="M305.3,446.5h0.8c0.5,0,0.9-0.1,1.2-0.4c0.3-0.3,0.4-0.6,0.4-1.1c0-1-0.5-1.5-1.5-1.5c-0.5,0-0.8,0.1-1.1,0.4
	c-0.3,0.3-0.4,0.6-0.4,1.1h-1.1c0-0.7,0.2-1.2,0.7-1.7c0.5-0.4,1.1-0.7,1.9-0.7s1.4,0.2,1.9,0.6s0.7,1,0.7,1.8
	c0,0.4-0.1,0.7-0.4,1.1s-0.6,0.6-1,0.8c0.5,0.1,0.8,0.4,1.1,0.7c0.3,0.3,0.4,0.8,0.4,1.3c0,0.8-0.2,1.4-0.8,1.8
	c-0.5,0.4-1.2,0.7-2,0.7s-1.4-0.2-2-0.7c-0.5-0.4-0.8-1-0.8-1.7h1.1c0,0.4,0.1,0.8,0.4,1.1c0.3,0.3,0.7,0.4,1.2,0.4s0.9-0.1,1.2-0.4
	c0.3-0.3,0.4-0.7,0.4-1.2s-0.2-0.9-0.5-1.1c-0.3-0.3-0.7-0.4-1.3-0.4H305v-0.9L305.3,446.5L305.3,446.5z M315.9,445
	c0,0.4-0.1,0.8-0.3,1.1c-0.2,0.3-0.5,0.6-0.9,0.8c0.4,0.2,0.8,0.5,1,0.8c0.3,0.4,0.4,0.8,0.4,1.2c0,0.7-0.2,1.3-0.8,1.8
	c-0.5,0.4-1.1,0.7-2,0.7c-0.8,0-1.5-0.2-2-0.7c-0.5-0.4-0.7-1-0.7-1.8c0-0.5,0.1-0.9,0.4-1.2c0.2-0.4,0.6-0.7,1-0.8
	c-0.4-0.2-0.7-0.4-0.9-0.8c-0.2-0.3-0.3-0.7-0.3-1.1c0-0.7,0.2-1.3,0.7-1.7c0.5-0.4,1.1-0.6,1.8-0.6c0.8,0,1.4,0.2,1.8,0.6
	C315.7,443.7,315.9,444.3,315.9,445z M315,449c0-0.5-0.2-0.9-0.5-1.2c-0.3-0.3-0.7-0.5-1.2-0.5s-0.9,0.2-1.2,0.5
	c-0.3,0.3-0.4,0.7-0.4,1.2s0.1,0.9,0.4,1.1c0.3,0.3,0.7,0.4,1.2,0.4s0.9-0.1,1.2-0.4S315,449.5,315,449z M313.4,443.6
	c-0.4,0-0.8,0.1-1,0.4c-0.3,0.3-0.4,0.6-0.4,1.1c0,0.4,0.1,0.8,0.4,1c0.3,0.3,0.6,0.4,1,0.4s0.8-0.1,1-0.4c0.3-0.3,0.4-0.6,0.4-1
	s-0.1-0.8-0.4-1.1C314.1,443.7,313.8,443.6,313.4,443.6z M317.8,453l-0.6-0.4c0.4-0.5,0.6-1,0.6-1.6v-1h1.1v0.8
	c0,0.4-0.1,0.8-0.3,1.2C318.3,452.5,318.1,452.8,317.8,453z M325.1,447.7c0,1.3-0.2,2.2-0.7,2.8c-0.4,0.6-1.1,0.9-2,0.9
	s-1.6-0.3-2-0.9s-0.7-1.5-0.7-2.7v-1.4c0-1.3,0.2-2.2,0.6-2.8c0.4-0.6,1.1-0.9,2-0.9s1.6,0.3,2,0.9s0.7,1.5,0.7,2.7v1.4H325.1z
	 M324,446.2c0-0.9-0.1-1.6-0.4-2c-0.2-0.4-0.7-0.6-1.2-0.6c-0.6,0-1,0.2-1.2,0.6s-0.4,1.1-0.4,1.9v1.7c0,0.9,0.1,1.6,0.4,2
	s0.7,0.7,1.2,0.7s0.9-0.2,1.2-0.6c0.3-0.4,0.4-1.1,0.4-2V446.2z M332.1,447.7c0,1.3-0.2,2.2-0.7,2.8c-0.4,0.6-1.1,0.9-2,0.9
	s-1.6-0.3-2-0.9s-0.7-1.5-0.7-2.7v-1.4c0-1.3,0.2-2.2,0.6-2.8c0.4-0.6,1.1-0.9,2-0.9s1.6,0.3,2,0.9s0.7,1.5,0.7,2.7v1.4H332.1z
	 M331,446.2c0-0.9-0.1-1.6-0.4-2c-0.2-0.4-0.7-0.6-1.2-0.6c-0.6,0-1,0.2-1.2,0.6s-0.4,1.1-0.4,1.9v1.7c0,0.9,0.1,1.6,0.4,2
	s0.7,0.7,1.2,0.7s0.9-0.2,1.2-0.6c0.3-0.4,0.4-1.1,0.4-2V446.2z M339.1,447.7c0,1.3-0.2,2.2-0.7,2.8c-0.4,0.6-1.1,0.9-2,0.9
	s-1.6-0.3-2-0.9s-0.7-1.5-0.7-2.7v-1.4c0-1.3,0.2-2.2,0.6-2.8c0.4-0.6,1.1-0.9,2-0.9s1.6,0.3,2,0.9s0.7,1.5,0.7,2.7v1.4H339.1z
	 M338,446.2c0-0.9-0.1-1.6-0.4-2c-0.2-0.4-0.7-0.6-1.2-0.6c-0.6,0-1,0.2-1.2,0.6s-0.4,1.1-0.4,1.9v1.7c0,0.9,0.1,1.6,0.4,2
	s0.7,0.7,1.2,0.7s0.9-0.2,1.2-0.6c0.3-0.4,0.4-1.1,0.4-2V446.2z"/>
<path class="st17" d="M68,473.4c0,1.3-0.2,2.2-0.7,2.8c-0.4,0.6-1.1,0.9-2,0.9s-1.6-0.3-2-0.9s-0.7-1.5-0.7-2.7v-1.4
	c0-1.3,0.2-2.2,0.6-2.8c0.4-0.6,1.1-0.9,2-0.9c0.9,0,1.6,0.3,2,0.9s0.7,1.5,0.7,2.7v1.4H68z M66.9,471.9c0-0.9-0.1-1.6-0.4-2
	c-0.2-0.4-0.7-0.6-1.2-0.6c-0.6,0-1,0.2-1.2,0.6c-0.2,0.4-0.4,1.1-0.4,1.9v1.7c0,0.9,0.1,1.6,0.4,2s0.7,0.7,1.2,0.7s0.9-0.2,1.2-0.6
	c0.3-0.4,0.4-1.1,0.4-2V471.9z"/>
<path class="st17" d="M33.1,389.8l0.4-4.2h4.4v1h-3.5l-0.3,2.3c0.4-0.2,0.9-0.4,1.4-0.4c0.8,0,1.4,0.3,1.8,0.8
	c0.5,0.5,0.7,1.2,0.7,2.1s-0.2,1.6-0.7,2.1s-1.1,0.8-2,0.8c-0.8,0-1.4-0.2-1.8-0.6c-0.5-0.4-0.8-1-0.8-1.8h1
	c0.1,0.5,0.2,0.9,0.5,1.1s0.7,0.4,1.1,0.4c0.5,0,0.9-0.2,1.2-0.5s0.4-0.8,0.4-1.4s-0.2-1-0.5-1.4s-0.7-0.5-1.2-0.5s-0.8,0.1-1.1,0.3
	l-0.3,0.2L33.1,389.8z M45,390.5c0,1.3-0.2,2.2-0.7,2.8c-0.4,0.6-1.1,0.9-2,0.9s-1.6-0.3-2-0.9s-0.7-1.5-0.7-2.7v-1.4
	c0-1.3,0.2-2.2,0.6-2.8c0.4-0.6,1.1-0.9,2-0.9s1.6,0.3,2,0.9s0.7,1.5,0.7,2.7v1.4H45z M43.9,389c0-0.9-0.1-1.6-0.4-2
	c-0.2-0.4-0.7-0.6-1.2-0.6c-0.6,0-1,0.2-1.2,0.6s-0.4,1.1-0.4,1.9v1.7c0,0.9,0.1,1.6,0.4,2c0.3,0.4,0.7,0.7,1.2,0.7s0.9-0.2,1.2-0.6
	s0.4-1.1,0.4-2V389z M46.7,395.8l-0.6-0.4c0.4-0.5,0.6-1,0.6-1.6v-1h1.1v0.8c0,0.4-0.1,0.8-0.3,1.2C47.2,395.3,47,395.6,46.7,395.8z
	 M54,390.5c0,1.3-0.2,2.2-0.7,2.8c-0.4,0.6-1.1,0.9-2,0.9s-1.6-0.3-2-0.9s-0.7-1.5-0.7-2.7v-1.4c0-1.3,0.2-2.2,0.6-2.8
	c0.4-0.6,1.1-0.9,2-0.9s1.6,0.3,2,0.9s0.7,1.5,0.7,2.7v1.4H54z M52.9,389c0-0.9-0.1-1.6-0.4-2c-0.2-0.4-0.7-0.6-1.2-0.6
	c-0.6,0-1,0.2-1.2,0.6s-0.4,1.1-0.4,1.9v1.7c0,0.9,0.1,1.6,0.4,2c0.3,0.4,0.7,0.7,1.2,0.7s0.9-0.2,1.2-0.6s0.4-1.1,0.4-2V389z
	 M61,390.5c0,1.3-0.2,2.2-0.7,2.8c-0.4,0.6-1.1,0.9-2,0.9s-1.6-0.3-2-0.9s-0.7-1.5-0.7-2.7v-1.4c0-1.3,0.2-2.2,0.6-2.8
	c0.4-0.6,1.1-0.9,2-0.9s1.6,0.3,2,0.9s0.7,1.5,0.7,2.7v1.4H61z M59.9,389c0-0.9-0.1-1.6-0.4-2c-0.2-0.4-0.7-0.6-1.2-0.6
	c-0.6,0-1,0.2-1.2,0.6s-0.4,1.1-0.4,1.9v1.7c0,0.9,0.1,1.6,0.4,2c0.3,0.4,0.7,0.7,1.2,0.7s0.9-0.2,1.2-0.6s0.4-1.1,0.4-2V389z
	 M68,390.5c0,1.3-0.2,2.2-0.7,2.8c-0.4,0.6-1.1,0.9-2,0.9s-1.6-0.3-2-0.9s-0.7-1.5-0.7-2.7v-1.4c0-1.3,0.2-2.2,0.6-2.8
	c0.4-0.6,1.1-0.9,2-0.9c0.9,0,1.6,0.3,2,0.9s0.7,1.5,0.7,2.7v1.4H68z M66.9,389c0-0.9-0.1-1.6-0.4-2c-0.2-0.4-0.7-0.6-1.2-0.6
	c-0.6,0-1,0.2-1.2,0.6c-0.2,0.4-0.4,1.1-0.4,1.9v1.7c0,0.9,0.1,1.6,0.4,2s0.7,0.7,1.2,0.7s0.9-0.2,1.2-0.6c0.3-0.4,0.4-1.1,0.4-2
	V389z"/>
<path class="st17" d="M29.2,311.2h-1.1V304l-2.2,0.8v-1l3.1-1.2h0.2V311.2z M38,307.6c0,1.3-0.2,2.2-0.7,2.8c-0.4,0.6-1.1,0.9-2,0.9
	s-1.6-0.3-2-0.9s-0.7-1.5-0.7-2.7v-1.4c0-1.3,0.2-2.2,0.6-2.8c0.4-0.6,1.1-0.9,2-0.9s1.6,0.3,2,0.9s0.7,1.5,0.7,2.7v1.4H38z
	 M36.9,306.1c0-0.9-0.1-1.6-0.4-2c-0.2-0.4-0.7-0.6-1.2-0.6c-0.6,0-1,0.2-1.2,0.6s-0.4,1.1-0.4,1.9v1.7c0,0.9,0.1,1.6,0.4,2
	c0.3,0.4,0.7,0.7,1.2,0.7s0.9-0.2,1.2-0.6s0.4-1.1,0.4-2V306.1z M45,307.6c0,1.3-0.2,2.2-0.7,2.8c-0.4,0.6-1.1,0.9-2,0.9
	s-1.6-0.3-2-0.9s-0.7-1.5-0.7-2.7v-1.4c0-1.3,0.2-2.2,0.6-2.8c0.4-0.6,1.1-0.9,2-0.9s1.6,0.3,2,0.9s0.7,1.5,0.7,2.7v1.4H45z
	 M43.9,306.1c0-0.9-0.1-1.6-0.4-2c-0.2-0.4-0.7-0.6-1.2-0.6c-0.6,0-1,0.2-1.2,0.6s-0.4,1.1-0.4,1.9v1.7c0,0.9,0.1,1.6,0.4,2
	c0.3,0.4,0.7,0.7,1.2,0.7s0.9-0.2,1.2-0.6s0.4-1.1,0.4-2V306.1z M46.7,312.9l-0.6-0.4c0.4-0.5,0.6-1,0.6-1.6v-1h1.1v0.8
	c0,0.4-0.1,0.8-0.3,1.2C47.2,312.3,47,312.7,46.7,312.9z M54,307.6c0,1.3-0.2,2.2-0.7,2.8c-0.4,0.6-1.1,0.9-2,0.9s-1.6-0.3-2-0.9
	s-0.7-1.5-0.7-2.7v-1.4c0-1.3,0.2-2.2,0.6-2.8c0.4-0.6,1.1-0.9,2-0.9s1.6,0.3,2,0.9s0.7,1.5,0.7,2.7v1.4H54z M52.9,306.1
	c0-0.9-0.1-1.6-0.4-2c-0.2-0.4-0.7-0.6-1.2-0.6c-0.6,0-1,0.2-1.2,0.6s-0.4,1.1-0.4,1.9v1.7c0,0.9,0.1,1.6,0.4,2
	c0.3,0.4,0.7,0.7,1.2,0.7s0.9-0.2,1.2-0.6s0.4-1.1,0.4-2V306.1z M61,307.6c0,1.3-0.2,2.2-0.7,2.8c-0.4,0.6-1.1,0.9-2,0.9
	s-1.6-0.3-2-0.9s-0.7-1.5-0.7-2.7v-1.4c0-1.3,0.2-2.2,0.6-2.8c0.4-0.6,1.1-0.9,2-0.9s1.6,0.3,2,0.9s0.7,1.5,0.7,2.7v1.4H61z
	 M59.9,306.1c0-0.9-0.1-1.6-0.4-2c-0.2-0.4-0.7-0.6-1.2-0.6c-0.6,0-1,0.2-1.2,0.6s-0.4,1.1-0.4,1.9v1.7c0,0.9,0.1,1.6,0.4,2
	c0.3,0.4,0.7,0.7,1.2,0.7s0.9-0.2,1.2-0.6s0.4-1.1,0.4-2V306.1z M68,307.6c0,1.3-0.2,2.2-0.7,2.8c-0.4,0.6-1.1,0.9-2,0.9
	s-1.6-0.3-2-0.9s-0.7-1.5-0.7-2.7v-1.4c0-1.3,0.2-2.2,0.6-2.8c0.4-0.6,1.1-0.9,2-0.9c0.9,0,1.6,0.3,2,0.9s0.7,1.5,0.7,2.7v1.4H68z
	 M66.9,306.1c0-0.9-0.1-1.6-0.4-2c-0.2-0.4-0.7-0.6-1.2-0.6c-0.6,0-1,0.2-1.2,0.6c-0.2,0.4-0.4,1.1-0.4,1.9v1.7c0,0.9,0.1,1.6,0.4,2
	s0.7,0.7,1.2,0.7s0.9-0.2,1.2-0.6c0.3-0.4,0.4-1.1,0.4-2V306.1z"/>
<path class="st17" d="M29.2,228.3h-1.1v-7.2l-2.2,0.8v-1l3.1-1.2h0.2V228.3z M33.1,224l0.4-4.2h4.4v1h-3.5l-0.3,2.3
	c0.4-0.2,0.9-0.4,1.4-0.4c0.8,0,1.4,0.3,1.8,0.8c0.5,0.5,0.7,1.2,0.7,2.1s-0.2,1.6-0.7,2.1s-1.1,0.8-2,0.8c-0.8,0-1.4-0.2-1.8-0.6
	c-0.5-0.4-0.8-1-0.8-1.8h1c0.1,0.5,0.2,0.9,0.5,1.1s0.7,0.4,1.1,0.4c0.5,0,0.9-0.2,1.2-0.5s0.4-0.8,0.4-1.4c0-0.6-0.2-1-0.5-1.4
	s-0.7-0.5-1.2-0.5s-0.8,0.1-1.1,0.3l-0.3,0.2L33.1,224z M45,224.6c0,1.3-0.2,2.2-0.7,2.8c-0.4,0.6-1.1,0.9-2,0.9s-1.6-0.3-2-0.9
	c-0.4-0.6-0.7-1.5-0.7-2.7v-1.4c0-1.3,0.2-2.2,0.6-2.8c0.4-0.6,1.1-0.9,2-0.9s1.6,0.3,2,0.9c0.4,0.6,0.7,1.5,0.7,2.7v1.4H45z
	 M43.9,223.2c0-0.9-0.1-1.6-0.4-2c-0.2-0.4-0.7-0.6-1.2-0.6c-0.6,0-1,0.2-1.2,0.6c-0.2,0.4-0.4,1.1-0.4,1.9v1.7c0,0.9,0.1,1.6,0.4,2
	c0.3,0.4,0.7,0.7,1.2,0.7s0.9-0.2,1.2-0.6c0.3-0.4,0.4-1.1,0.4-2V223.2z M46.7,230l-0.6-0.4c0.4-0.5,0.6-1,0.6-1.6v-1h1.1v0.8
	c0,0.4-0.1,0.8-0.3,1.2C47.2,229.4,47,229.7,46.7,230z M54,224.6c0,1.3-0.2,2.2-0.7,2.8c-0.4,0.6-1.1,0.9-2,0.9s-1.6-0.3-2-0.9
	c-0.4-0.6-0.7-1.5-0.7-2.7v-1.4c0-1.3,0.2-2.2,0.6-2.8c0.4-0.6,1.1-0.9,2-0.9s1.6,0.3,2,0.9c0.4,0.6,0.7,1.5,0.7,2.7v1.4H54z
	 M52.9,223.2c0-0.9-0.1-1.6-0.4-2c-0.2-0.4-0.7-0.6-1.2-0.6c-0.6,0-1,0.2-1.2,0.6c-0.2,0.4-0.4,1.1-0.4,1.9v1.7c0,0.9,0.1,1.6,0.4,2
	c0.3,0.4,0.7,0.7,1.2,0.7s0.9-0.2,1.2-0.6c0.3-0.4,0.4-1.1,0.4-2V223.2z M61,224.6c0,1.3-0.2,2.2-0.7,2.8c-0.4,0.6-1.1,0.9-2,0.9
	s-1.6-0.3-2-0.9c-0.4-0.6-0.7-1.5-0.7-2.7v-1.4c0-1.3,0.2-2.2,0.6-2.8c0.4-0.6,1.1-0.9,2-0.9s1.6,0.3,2,0.9c0.4,0.6,0.7,1.5,0.7,2.7
	v1.4H61z M59.9,223.2c0-0.9-0.1-1.6-0.4-2c-0.2-0.4-0.7-0.6-1.2-0.6c-0.6,0-1,0.2-1.2,0.6c-0.2,0.4-0.4,1.1-0.4,1.9v1.7
	c0,0.9,0.1,1.6,0.4,2c0.3,0.4,0.7,0.7,1.2,0.7s0.9-0.2,1.2-0.6c0.3-0.4,0.4-1.1,0.4-2V223.2z M68,224.6c0,1.3-0.2,2.2-0.7,2.8
	c-0.4,0.6-1.1,0.9-2,0.9s-1.6-0.3-2-0.9c-0.4-0.6-0.7-1.5-0.7-2.7v-1.4c0-1.3,0.2-2.2,0.6-2.8c0.4-0.6,1.1-0.9,2-0.9
	c0.9,0,1.6,0.3,2,0.9c0.4,0.6,0.7,1.5,0.7,2.7v1.4H68z M66.9,223.2c0-0.9-0.1-1.6-0.4-2c-0.2-0.4-0.7-0.6-1.2-0.6
	c-0.6,0-1,0.2-1.2,0.6c-0.2,0.4-0.4,1.1-0.4,1.9v1.7c0,0.9,0.1,1.6,0.4,2s0.7,0.7,1.2,0.7s0.9-0.2,1.2-0.6c0.3-0.4,0.4-1.1,0.4-2
	V223.2z"/>
<path class="st17" d="M31.2,145.4h-5.6v-0.8l3-3.3c0.4-0.5,0.7-0.9,0.9-1.2c0.2-0.3,0.2-0.6,0.2-1s-0.1-0.8-0.4-1.1
	s-0.6-0.4-1.1-0.4s-0.9,0.2-1.2,0.5c-0.3,0.3-0.5,0.7-0.5,1.3h-1.1c0-0.8,0.2-1.4,0.8-1.9c0.5-0.5,1.2-0.7,2-0.7s1.4,0.2,1.9,0.6
	c0.5,0.4,0.7,1,0.7,1.7c0,0.8-0.5,1.8-1.6,3l-2.3,2.5h4.3V145.4z M38,141.7c0,1.3-0.2,2.2-0.7,2.8c-0.4,0.6-1.1,0.9-2,0.9
	s-1.6-0.3-2-0.9c-0.4-0.6-0.7-1.5-0.7-2.7v-1.4c0-1.3,0.2-2.2,0.6-2.8c0.4-0.6,1.1-0.9,2-0.9s1.6,0.3,2,0.9c0.4,0.6,0.7,1.5,0.7,2.7
	v1.4H38z M36.9,140.2c0-0.9-0.1-1.6-0.4-2c-0.2-0.4-0.7-0.6-1.2-0.6c-0.6,0-1,0.2-1.2,0.6c-0.2,0.4-0.4,1.1-0.4,1.9v1.7
	c0,0.9,0.1,1.6,0.4,2c0.3,0.4,0.7,0.7,1.2,0.7s0.9-0.2,1.2-0.6c0.3-0.4,0.4-1.1,0.4-2V140.2z M45,141.7c0,1.3-0.2,2.2-0.7,2.8
	c-0.4,0.6-1.1,0.9-2,0.9s-1.6-0.3-2-0.9c-0.4-0.6-0.7-1.5-0.7-2.7v-1.4c0-1.3,0.2-2.2,0.6-2.8c0.4-0.6,1.1-0.9,2-0.9s1.6,0.3,2,0.9
	c0.4,0.6,0.7,1.5,0.7,2.7v1.4H45z M43.9,140.2c0-0.9-0.1-1.6-0.4-2c-0.2-0.4-0.7-0.6-1.2-0.6c-0.6,0-1,0.2-1.2,0.6
	c-0.2,0.4-0.4,1.1-0.4,1.9v1.7c0,0.9,0.1,1.6,0.4,2c0.3,0.4,0.7,0.7,1.2,0.7s0.9-0.2,1.2-0.6c0.3-0.4,0.4-1.1,0.4-2V140.2z
	 M46.7,147.1l-0.6-0.4c0.4-0.5,0.6-1,0.6-1.6v-1h1.1v0.8c0,0.4-0.1,0.8-0.3,1.2C47.2,146.5,47,146.8,46.7,147.1z M54,141.7
	c0,1.3-0.2,2.2-0.7,2.8c-0.4,0.6-1.1,0.9-2,0.9s-1.6-0.3-2-0.9c-0.4-0.6-0.7-1.5-0.7-2.7v-1.4c0-1.3,0.2-2.2,0.6-2.8
	c0.4-0.6,1.1-0.9,2-0.9s1.6,0.3,2,0.9c0.4,0.6,0.7,1.5,0.7,2.7v1.4H54z M52.9,140.2c0-0.9-0.1-1.6-0.4-2c-0.2-0.4-0.7-0.6-1.2-0.6
	c-0.6,0-1,0.2-1.2,0.6c-0.2,0.4-0.4,1.1-0.4,1.9v1.7c0,0.9,0.1,1.6,0.4,2c0.3,0.4,0.7,0.7,1.2,0.7s0.9-0.2,1.2-0.6
	c0.3-0.4,0.4-1.1,0.4-2V140.2z M61,141.7c0,1.3-0.2,2.2-0.7,2.8c-0.4,0.6-1.1,0.9-2,0.9s-1.6-0.3-2-0.9c-0.4-0.6-0.7-1.5-0.7-2.7
	v-1.4c0-1.3,0.2-2.2,0.6-2.8c0.4-0.6,1.1-0.9,2-0.9s1.6,0.3,2,0.9c0.4,0.6,0.7,1.5,0.7,2.7v1.4H61z M59.9,140.2c0-0.9-0.1-1.6-0.4-2
	c-0.2-0.4-0.7-0.6-1.2-0.6c-0.6,0-1,0.2-1.2,0.6c-0.2,0.4-0.4,1.1-0.4,1.9v1.7c0,0.9,0.1,1.6,0.4,2c0.3,0.4,0.7,0.7,1.2,0.7
	s0.9-0.2,1.2-0.6c0.3-0.4,0.4-1.1,0.4-2V140.2z M68,141.7c0,1.3-0.2,2.2-0.7,2.8c-0.4,0.6-1.1,0.9-2,0.9s-1.6-0.3-2-0.9
	c-0.4-0.6-0.7-1.5-0.7-2.7v-1.4c0-1.3,0.2-2.2,0.6-2.8c0.4-0.6,1.1-0.9,2-0.9c0.9,0,1.6,0.3,2,0.9c0.4,0.6,0.7,1.5,0.7,2.7v1.4H68z
	 M66.9,140.2c0-0.9-0.1-1.6-0.4-2c-0.2-0.4-0.7-0.6-1.2-0.6c-0.6,0-1,0.2-1.2,0.6c-0.2,0.4-0.4,1.1-0.4,1.9v1.7c0,0.9,0.1,1.6,0.4,2
	s0.7,0.7,1.2,0.7s0.9-0.2,1.2-0.6c0.3-0.4,0.4-1.1,0.4-2V140.2z"/>
<path class="st3" d="M65.5,528.8c0-0.6,0.4-1,1-1h10c0.6,0,1,0.4,1,1v10c0,0.6-0.4,1-1,1h-10c-0.6,0-1-0.4-1-1V528.8z"/>
<path class="st17" d="M89.1,534.1l2.2-4.3h1.3l-2.9,5.3v3.2h-1.1v-3.2l-2.9-5.3H87L89.1,534.1z M97.2,537.7c-0.4,0.5-1,0.8-1.9,0.8
	c-0.7,0-1.2-0.2-1.5-0.6s-0.5-1-0.5-1.8V532h1.1v4.1c0,1,0.4,1.5,1.2,1.5c0.8,0,1.4-0.3,1.7-0.9V532h1.1v6.3h-1L97.2,537.7z
	 M100.1,535.1c0-1,0.2-1.8,0.7-2.4s1.1-0.9,1.8-0.9c0.8,0,1.4,0.3,1.8,0.8v-0.7h1v6.2c0,0.8-0.2,1.5-0.7,1.9c-0.5,0.5-1.1,0.7-2,0.7
	c-0.5,0-0.9-0.1-1.3-0.3s-0.8-0.5-1-0.8l0.6-0.7c0.5,0.6,1,0.9,1.7,0.9c0.5,0,0.9-0.2,1.2-0.5c0.3-0.3,0.5-0.7,0.5-1.2v-0.5
	c-0.4,0.5-1,0.8-1.8,0.8c-0.7,0-1.3-0.3-1.8-0.9C100.3,536.9,100.1,536.1,100.1,535.1z M101.2,535.2c0,0.7,0.1,1.3,0.4,1.7
	s0.7,0.6,1.2,0.6c0.7,0,1.2-0.3,1.5-0.9v-2.9c-0.3-0.6-0.8-0.9-1.5-0.9c-0.5,0-0.9,0.2-1.2,0.6C101.3,533.8,101.2,534.4,101.2,535.2
	z M111.2,538.3c-0.1-0.1-0.1-0.3-0.2-0.7c-0.5,0.5-1.1,0.8-1.8,0.8c-0.6,0-1.1-0.2-1.5-0.5c-0.4-0.4-0.6-0.8-0.6-1.4
	c0-0.7,0.2-1.2,0.8-1.5s1.2-0.5,2.1-0.5h1V534c0-0.4-0.1-0.7-0.3-0.9c-0.2-0.2-0.6-0.3-1-0.3s-0.7,0.1-1,0.3s-0.4,0.4-0.4,0.7h-1.1
	c0-0.3,0.1-0.6,0.3-0.9c0.2-0.3,0.5-0.5,0.9-0.7s0.8-0.3,1.3-0.3c0.7,0,1.3,0.2,1.7,0.5c0.4,0.4,0.6,0.9,0.7,1.5v2.9
	c0,0.6,0.1,1,0.2,1.4v0.1H111.2z M109.4,537.5c0.3,0,0.7-0.1,1-0.3s0.5-0.4,0.7-0.7v-1.3h-0.8c-1.3,0-2,0.4-2,1.2
	c0,0.3,0.1,0.6,0.3,0.8S109.1,537.5,109.4,537.5z M114.5,538.3v-8.5h2.8c0.9,0,1.6,0.2,2.1,0.6c0.5,0.4,0.7,0.9,0.7,1.7
	c0,0.4-0.1,0.8-0.3,1.1c-0.2,0.3-0.5,0.5-0.9,0.7c0.5,0.1,0.8,0.4,1.1,0.7c0.3,0.4,0.4,0.8,0.4,1.3c0,0.8-0.2,1.4-0.8,1.8
	c-0.5,0.4-1.2,0.7-2.1,0.7L114.5,538.3L114.5,538.3z M115.6,534.3v3.1h1.9c0.5,0,0.9-0.1,1.2-0.4s0.5-0.6,0.5-1.1
	c0-1-0.6-1.5-1.7-1.5L115.6,534.3L115.6,534.3z M115.6,533.4h1.7c0.5,0,0.9-0.1,1.2-0.4c0.3-0.2,0.5-0.6,0.5-1c0-0.5-0.1-0.8-0.4-1
	s-0.7-0.3-1.2-0.3h-1.7L115.6,533.4L115.6,533.4z M123.4,536.7l1.5-4.8h1.2l-2.5,7.3c-0.4,1.1-1,1.6-1.9,1.6h-0.2l-0.4-0.1v-0.9h0.3
	c0.4,0,0.7-0.1,0.9-0.2c0.2-0.1,0.4-0.4,0.5-0.8l0.2-0.7l-2.3-6.3h1.2L123.4,536.7z M128.8,530.4v1.5h1.2v0.8h-1.2v3.9
	c0,0.3,0.1,0.5,0.2,0.6s0.3,0.2,0.5,0.2c0.1,0,0.3,0,0.5-0.1v0.9c-0.3,0.1-0.6,0.1-0.8,0.1c-0.5,0-0.8-0.1-1.1-0.4
	c-0.2-0.3-0.4-0.7-0.4-1.3v-3.9h-1.2V532h1.2v-1.5L128.8,530.4L128.8,530.4z M134,538.4c-0.9,0-1.6-0.3-2.1-0.8
	c-0.5-0.6-0.8-1.3-0.8-2.3v-0.2c0-0.6,0.1-1.2,0.4-1.7c0.2-0.5,0.6-0.9,1-1.2s0.9-0.4,1.4-0.4c0.8,0,1.5,0.3,1.9,0.8
	s0.7,1.3,0.7,2.3v0.5h-4.3c0,0.6,0.2,1.1,0.5,1.5c0.4,0.4,0.8,0.6,1.3,0.6c0.4,0,0.7-0.1,1-0.2c0.3-0.2,0.5-0.4,0.7-0.6l0.7,0.5
	C135.8,538,135,538.4,134,538.4z M133.8,532.7c-0.4,0-0.8,0.2-1.1,0.5s-0.5,0.8-0.5,1.3h3.2v-0.1c0-0.6-0.2-1-0.5-1.3
	C134.6,532.9,134.3,532.7,133.8,532.7z M140.5,538.3v-8.5h2.4c0.7,0,1.4,0.2,2,0.5s1,0.8,1.3,1.4s0.5,1.3,0.5,2.1v0.5
	c0,0.8-0.2,1.5-0.5,2.1s-0.7,1.1-1.3,1.4c-0.6,0.3-1.2,0.5-2,0.5H140.5z M141.6,530.7v6.7h1.2c0.9,0,1.5-0.3,2-0.8s0.7-1.3,0.7-2.3
	v-0.5c0-1-0.2-1.7-0.7-2.2c-0.4-0.5-1.1-0.8-1.9-0.8h-1.3V530.7z M148.5,538.3v-8.5h2.8c0.9,0,1.6,0.2,2.1,0.6
	c0.5,0.4,0.7,0.9,0.7,1.7c0,0.4-0.1,0.8-0.3,1.1s-0.5,0.5-0.9,0.7c0.5,0.1,0.8,0.4,1.1,0.7c0.3,0.4,0.4,0.8,0.4,1.3
	c0,0.8-0.2,1.4-0.8,1.8c-0.5,0.4-1.2,0.7-2.1,0.7L148.5,538.3L148.5,538.3z M149.6,534.3v3.1h1.9c0.5,0,0.9-0.1,1.2-0.4
	s0.5-0.6,0.5-1.1c0-1-0.6-1.5-1.7-1.5L149.6,534.3L149.6,534.3z M149.6,533.4h1.7c0.5,0,0.9-0.1,1.2-0.4c0.3-0.2,0.5-0.6,0.5-1
	c0-0.5-0.1-0.8-0.4-1c-0.3-0.2-0.7-0.3-1.2-0.3h-1.7v2.7H149.6z M158.3,534.8c0-0.9,0.1-1.7,0.3-2.5s0.6-1.6,1.1-2.2s1-1.1,1.5-1.4
	l0.2,0.7c-0.6,0.4-1,1.1-1.4,2s-0.6,1.9-0.6,3v0.5c0,1.5,0.3,2.8,0.8,3.9c0.3,0.7,0.7,1.2,1.2,1.6l-0.2,0.7c-0.5-0.3-1-0.8-1.5-1.5
	C158.7,538.3,158.3,536.7,158.3,534.8z M165.8,538.3h-1.1v-7.2l-2.2,0.8v-1l3.1-1.2h0.2V538.3z M169.3,537.7c0-0.2,0.1-0.3,0.2-0.5
	c0.1-0.1,0.3-0.2,0.5-0.2s0.4,0.1,0.5,0.2s0.2,0.3,0.2,0.5s-0.1,0.3-0.2,0.5c-0.1,0.1-0.3,0.2-0.5,0.2s-0.4-0.1-0.5-0.2
	S169.3,537.9,169.3,537.7z M177.4,532c0,0.4-0.1,0.8-0.3,1.1s-0.5,0.6-0.9,0.8c0.4,0.2,0.8,0.5,1,0.8c0.3,0.4,0.4,0.8,0.4,1.2
	c0,0.7-0.2,1.3-0.8,1.8c-0.5,0.4-1.1,0.7-2,0.7c-0.8,0-1.5-0.2-2-0.7c-0.5-0.4-0.7-1-0.7-1.8c0-0.5,0.1-0.9,0.4-1.2
	c0.2-0.4,0.6-0.7,1-0.8c-0.4-0.2-0.7-0.4-0.9-0.8s-0.3-0.7-0.3-1.1c0-0.7,0.2-1.3,0.7-1.7s1.1-0.6,1.8-0.6c0.8,0,1.4,0.2,1.8,0.6
	C177.2,530.7,177.4,531.3,177.4,532z M176.5,536c0-0.5-0.2-0.9-0.5-1.2s-0.7-0.5-1.2-0.5s-0.9,0.2-1.2,0.5s-0.4,0.7-0.4,1.2
	s0.1,0.9,0.4,1.1c0.3,0.3,0.7,0.4,1.2,0.4s0.9-0.1,1.2-0.4S176.5,536.5,176.5,536z M174.9,530.5c-0.4,0-0.8,0.1-1,0.4
	c-0.3,0.3-0.4,0.6-0.4,1.1c0,0.4,0.1,0.8,0.4,1s0.6,0.4,1,0.4s0.8-0.1,1-0.4s0.4-0.6,0.4-1s-0.1-0.8-0.4-1.1
	C175.6,530.7,175.3,530.5,174.9,530.5z M183.4,534.6c-0.2,0.3-0.5,0.5-0.8,0.7s-0.7,0.2-1,0.2c-0.5,0-0.9-0.1-1.3-0.4
	s-0.6-0.6-0.8-1s-0.3-0.9-0.3-1.5s0.1-1.1,0.3-1.5c0.2-0.5,0.5-0.8,0.9-1s0.9-0.4,1.4-0.4c0.8,0,1.5,0.3,2,1
	c0.5,0.6,0.7,1.5,0.7,2.6v0.3c0,1.7-0.3,2.9-1,3.6s-1.6,1.2-3,1.2h-0.2v-0.9h0.2c0.9,0,1.6-0.3,2.1-0.7S183.3,535.5,183.4,534.6z
	 M181.7,534.6c0.4,0,0.7-0.1,1-0.3s0.5-0.5,0.7-0.8V533c0-0.7-0.2-1.3-0.5-1.7s-0.7-0.7-1.2-0.7s-0.9,0.2-1.2,0.5
	c-0.3,0.4-0.4,0.8-0.4,1.5c0,0.6,0.1,1.1,0.4,1.4C180.8,534.4,181.2,534.6,181.7,534.6z M187.3,532v0.7c0.5-0.5,1.1-0.8,1.9-0.8
	c0.9,0,1.5,0.3,1.8,1c0.2-0.3,0.5-0.5,0.8-0.7s0.7-0.3,1.2-0.3c1.4,0,2.1,0.7,2.1,2.2v4.2H194v-4.2c0-0.4-0.1-0.8-0.3-1
	s-0.6-0.3-1-0.3s-0.7,0.1-1,0.4c-0.3,0.2-0.4,0.6-0.5,1v4.2h-1.1v-4.2c0-0.9-0.5-1.4-1.4-1.4c-0.7,0-1.2,0.3-1.5,0.9v4.6h-1.1V532
	H187.3z M201,536.6c0-0.3-0.1-0.5-0.3-0.7s-0.6-0.3-1.2-0.4c-0.5-0.1-1-0.3-1.3-0.4s-0.6-0.4-0.7-0.6c-0.1-0.2-0.2-0.5-0.2-0.8
	c0-0.5,0.2-1,0.7-1.3c0.4-0.4,1-0.5,1.7-0.5s1.3,0.2,1.7,0.6c0.4,0.4,0.7,0.8,0.7,1.4H201c0-0.3-0.1-0.5-0.4-0.8
	c-0.2-0.2-0.6-0.3-0.9-0.3c-0.4,0-0.7,0.1-0.9,0.3s-0.3,0.4-0.3,0.7s0.1,0.5,0.3,0.6s0.6,0.3,1.1,0.4c0.5,0.1,1,0.3,1.3,0.4
	s0.6,0.4,0.7,0.6c0.2,0.2,0.2,0.5,0.2,0.9c0,0.6-0.2,1-0.7,1.4c-0.4,0.3-1,0.5-1.8,0.5c-0.5,0-1-0.1-1.4-0.3s-0.7-0.4-0.9-0.8
	s-0.3-0.7-0.3-1h1.1c0,0.4,0.2,0.7,0.4,0.9c0.3,0.2,0.6,0.3,1.1,0.3c0.4,0,0.7-0.1,1-0.2S201,536.9,201,536.6z M207.5,538.3h-1.1v-9
	h1.1V538.3z M213.2,538.3c-0.1-0.1-0.1-0.3-0.2-0.7c-0.5,0.5-1.1,0.8-1.8,0.8c-0.6,0-1.1-0.2-1.5-0.5c-0.4-0.4-0.6-0.8-0.6-1.4
	c0-0.7,0.2-1.2,0.8-1.5s1.2-0.5,2.1-0.5h1V534c0-0.4-0.1-0.7-0.3-0.9s-0.6-0.3-1-0.3s-0.7,0.1-1,0.3s-0.4,0.4-0.4,0.7h-1.1
	c0-0.3,0.1-0.6,0.3-0.9c0.2-0.3,0.5-0.5,0.9-0.7s0.8-0.3,1.3-0.3c0.7,0,1.3,0.2,1.7,0.5c0.4,0.4,0.6,0.9,0.7,1.5v2.9
	c0,0.6,0.1,1,0.2,1.4v0.1H213.2z M211.4,537.5c0.3,0,0.7-0.1,1-0.3s0.5-0.4,0.7-0.7v-1.3h-0.8c-1.3,0-2,0.4-2,1.2
	c0,0.3,0.1,0.6,0.3,0.8C210.8,537.4,211.1,537.5,211.4,537.5z M217.8,530.4v1.5h1.2v0.8h-1.2v3.9c0,0.3,0.1,0.5,0.2,0.6
	s0.3,0.2,0.5,0.2c0.1,0,0.3,0,0.5-0.1v0.9c-0.3,0.1-0.6,0.1-0.8,0.1c-0.5,0-0.8-0.1-1.1-0.4c-0.2-0.3-0.4-0.7-0.4-1.3v-3.9h-1.2V532
	h1.2v-1.5L217.8,530.4L217.8,530.4z M223,538.4c-0.9,0-1.6-0.3-2.1-0.8c-0.5-0.6-0.8-1.3-0.8-2.3v-0.2c0-0.6,0.1-1.2,0.4-1.7
	c0.2-0.5,0.6-0.9,1-1.2s0.9-0.4,1.4-0.4c0.8,0,1.5,0.3,1.9,0.8s0.7,1.3,0.7,2.3v0.5h-4.3c0,0.6,0.2,1.1,0.5,1.5
	c0.4,0.4,0.8,0.6,1.3,0.6c0.4,0,0.7-0.1,1-0.2c0.3-0.2,0.5-0.4,0.7-0.6l0.7,0.5C224.8,538,224,538.4,223,538.4z M222.8,532.7
	c-0.4,0-0.8,0.2-1.1,0.5s-0.5,0.8-0.5,1.3h3.2v-0.1c0-0.6-0.2-1-0.5-1.3C223.6,532.9,223.3,532.7,222.8,532.7z M227.3,532v0.8
	c0.5-0.6,1.1-0.9,1.9-0.9c1.3,0,2,0.8,2,2.3v4.2h-1.1v-4.2c0-0.4-0.1-0.8-0.3-1s-0.5-0.3-1-0.3c-0.4,0-0.7,0.1-0.9,0.3
	c-0.3,0.2-0.5,0.4-0.6,0.7v4.5h-1.1V532H227.3z M235.9,537.5c0.4,0,0.7-0.1,1-0.3s0.5-0.5,0.5-0.9h1c0,0.4-0.2,0.7-0.4,1
	s-0.5,0.6-0.9,0.8s-0.8,0.3-1.2,0.3c-0.9,0-1.6-0.3-2.1-0.9c-0.5-0.6-0.8-1.4-0.8-2.4V535c0-0.6,0.1-1.2,0.3-1.6
	c0.2-0.5,0.6-0.8,1-1.1s0.9-0.4,1.5-0.4c0.7,0,1.3,0.2,1.8,0.6c0.5,0.4,0.7,1,0.8,1.7h-1c0-0.4-0.2-0.8-0.5-1s-0.6-0.4-1-0.4
	c-0.6,0-1,0.2-1.3,0.6s-0.5,1-0.5,1.7v0.2c0,0.7,0.2,1.3,0.5,1.7S235.3,537.5,235.9,537.5z M241.4,536.7l1.5-4.8h1.2l-2.5,7.3
	c-0.4,1.1-1,1.6-1.9,1.6h-0.2l-0.4-0.1v-0.9h0.3c0.4,0,0.7-0.1,0.9-0.2c0.2-0.1,0.4-0.4,0.5-0.8l0.2-0.7l-2.3-6.3h1.2L241.4,536.7z
	 M247.8,534.9c0,0.9-0.1,1.7-0.3,2.5s-0.6,1.5-1.1,2.2s-1,1.2-1.5,1.4l-0.2-0.7c0.6-0.5,1.1-1.2,1.5-2.1c0.4-1,0.6-2.1,0.6-3.2v-0.2
	c0-0.8-0.1-1.6-0.3-2.3s-0.4-1.3-0.7-1.9c-0.3-0.6-0.6-1-1-1.3l0.2-0.7c0.5,0.3,1,0.8,1.5,1.4s0.8,1.4,1,2.2
	C247.7,533.1,247.8,534,247.8,534.9z"/>
<path class="st18" d="M264.5,528.8c0-0.6,0.4-1,1-1h10c0.6,0,1,0.4,1,1v10c0,0.6-0.4,1-1,1h-10c-0.6,0-1-0.4-1-1V528.8z"/>
<path class="st17" d="M291.8,535.6c-0.1,0.9-0.4,1.6-1,2.1s-1.3,0.7-2.2,0.7c-1,0-1.8-0.4-2.4-1.1c-0.6-0.7-0.9-1.7-0.9-2.9v-0.8
	c0-0.8,0.1-1.5,0.4-2.1s0.7-1.1,1.2-1.4s1.1-0.5,1.8-0.5c0.9,0,1.6,0.3,2.2,0.8s0.9,1.2,1,2.1h-1.1c-0.1-0.7-0.3-1.2-0.6-1.5
	s-0.8-0.5-1.4-0.5c-0.7,0-1.3,0.3-1.7,0.8s-0.6,1.3-0.6,2.3v0.8c0,0.9,0.2,1.7,0.6,2.2s0.9,0.8,1.6,0.8c0.6,0,1.1-0.1,1.4-0.4
	c0.3-0.3,0.6-0.8,0.7-1.5h1V535.6z M293,535.1c0-0.6,0.1-1.2,0.4-1.7c0.2-0.5,0.6-0.9,1-1.1c0.4-0.3,0.9-0.4,1.5-0.4
	c0.9,0,1.6,0.3,2.1,0.9c0.5,0.6,0.8,1.4,0.8,2.4v0.1c0,0.6-0.1,1.2-0.4,1.7s-0.6,0.9-1,1.2s-0.9,0.4-1.5,0.4c-0.9,0-1.6-0.3-2.1-0.9
	C293.3,536.9,293,536.1,293,535.1L293,535.1z M294.1,535.2c0,0.7,0.2,1.3,0.5,1.7s0.8,0.6,1.3,0.6c0.6,0,1-0.2,1.3-0.6
	c0.3-0.4,0.5-1,0.5-1.8c0-0.7-0.2-1.2-0.5-1.7c-0.3-0.4-0.8-0.7-1.3-0.7s-1,0.2-1.3,0.6C294.3,533.8,294.1,534.4,294.1,535.2z
	 M302.9,537.5c0.4,0,0.7-0.1,1-0.3s0.5-0.5,0.5-0.9h1c0,0.4-0.2,0.7-0.4,1c-0.2,0.3-0.5,0.6-0.9,0.8s-0.8,0.3-1.2,0.3
	c-0.9,0-1.6-0.3-2.1-0.9c-0.5-0.6-0.8-1.4-0.8-2.4V535c0-0.6,0.1-1.2,0.3-1.6c0.2-0.5,0.6-0.8,1-1.1s0.9-0.4,1.5-0.4
	c0.7,0,1.3,0.2,1.8,0.6c0.5,0.4,0.7,1,0.8,1.7h-1c0-0.4-0.2-0.8-0.5-1s-0.6-0.4-1-0.4c-0.6,0-1,0.2-1.3,0.6s-0.5,1-0.5,1.7v0.2
	c0,0.7,0.2,1.3,0.5,1.7S302.3,537.5,302.9,537.5z M308.1,535.4l-0.7,0.7v2.2h-1.1v-9h1.1v5.4l0.6-0.7l2-2.1h1.3l-2.5,2.7l2.8,3.7
	h-1.3L308.1,535.4z M315.4,532.9c-0.2,0-0.3,0-0.5,0c-0.7,0-1.2,0.3-1.5,0.9v4.5h-1.1V532h1v0.7c0.4-0.6,0.9-0.8,1.5-0.8
	c0.2,0,0.4,0,0.5,0.1v0.9H315.4z M316,535.1c0-0.6,0.1-1.2,0.4-1.7c0.2-0.5,0.6-0.9,1-1.1c0.4-0.3,0.9-0.4,1.5-0.4
	c0.9,0,1.6,0.3,2.1,0.9c0.5,0.6,0.8,1.4,0.8,2.4v0.1c0,0.6-0.1,1.2-0.4,1.7s-0.6,0.9-1,1.2s-0.9,0.4-1.5,0.4c-0.9,0-1.6-0.3-2.1-0.9
	C316.3,536.9,316,536.1,316,535.1L316,535.1z M317.1,535.2c0,0.7,0.2,1.3,0.5,1.7s0.8,0.6,1.3,0.6c0.6,0,1-0.2,1.3-0.6
	c0.3-0.4,0.5-1,0.5-1.8c0-0.7-0.2-1.2-0.5-1.7c-0.3-0.4-0.8-0.7-1.3-0.7s-1,0.2-1.3,0.6C317.3,533.8,317.1,534.4,317.1,535.2z
	 M327.2,538.3c-0.1-0.1-0.1-0.3-0.2-0.7c-0.5,0.5-1.1,0.8-1.8,0.8c-0.6,0-1.1-0.2-1.5-0.5c-0.4-0.4-0.6-0.8-0.6-1.4
	c0-0.7,0.2-1.2,0.8-1.5s1.2-0.5,2.1-0.5h1V534c0-0.4-0.1-0.7-0.3-0.9c-0.2-0.2-0.6-0.3-1-0.3s-0.7,0.1-1,0.3s-0.4,0.4-0.4,0.7h-1.1
	c0-0.3,0.1-0.6,0.3-0.9c0.2-0.3,0.5-0.5,0.9-0.7s0.8-0.3,1.3-0.3c0.7,0,1.3,0.2,1.7,0.5c0.4,0.4,0.6,0.9,0.7,1.5v2.9
	c0,0.6,0.1,1,0.2,1.4v0.1H327.2z M325.4,537.5c0.3,0,0.7-0.1,1-0.3s0.5-0.4,0.7-0.7v-1.3h-0.8c-1.3,0-2,0.4-2,1.2
	c0,0.3,0.1,0.6,0.3,0.8S325.1,537.5,325.4,537.5z M332.9,537.5c0.4,0,0.7-0.1,1-0.3s0.5-0.5,0.5-0.9h1c0,0.4-0.2,0.7-0.4,1
	c-0.2,0.3-0.5,0.6-0.9,0.8s-0.8,0.3-1.2,0.3c-0.9,0-1.6-0.3-2.1-0.9c-0.5-0.6-0.8-1.4-0.8-2.4V535c0-0.6,0.1-1.2,0.3-1.6
	c0.2-0.5,0.6-0.8,1-1.1s0.9-0.4,1.5-0.4c0.7,0,1.3,0.2,1.8,0.6c0.5,0.4,0.7,1,0.8,1.7h-1c0-0.4-0.2-0.8-0.5-1s-0.6-0.4-1-0.4
	c-0.6,0-1,0.2-1.3,0.6s-0.5,1-0.5,1.7v0.2c0,0.7,0.2,1.3,0.5,1.7S332.3,537.5,332.9,537.5z M337.4,532.7c0.5-0.6,1.1-0.9,1.9-0.9
	c1.3,0,2,0.8,2,2.3v4.2h-1.1v-4.2c0-0.4-0.1-0.8-0.3-1c-0.2-0.2-0.5-0.3-1-0.3c-0.4,0-0.7,0.1-0.9,0.3c-0.3,0.2-0.5,0.4-0.6,0.7v4.5
	h-1.1v-9h1.1V532.7z M343.5,538.3v-8.5h2.4c0.7,0,1.4,0.2,2,0.5s1,0.8,1.3,1.4s0.5,1.3,0.5,2.1v0.5c0,0.8-0.2,1.5-0.5,2.1
	s-0.7,1.1-1.3,1.4c-0.6,0.3-1.2,0.5-2,0.5H343.5z M344.6,530.7v6.7h1.2c0.9,0,1.5-0.3,2-0.8s0.7-1.3,0.7-2.3v-0.5
	c0-1-0.2-1.7-0.7-2.2c-0.4-0.5-1.1-0.8-1.9-0.8h-1.3L344.6,530.7L344.6,530.7z M351.5,538.3v-8.5h2.8c0.9,0,1.6,0.2,2.1,0.6
	c0.5,0.4,0.7,0.9,0.7,1.7c0,0.4-0.1,0.8-0.3,1.1c-0.2,0.3-0.5,0.5-0.9,0.7c0.5,0.1,0.8,0.4,1.1,0.7c0.3,0.4,0.4,0.8,0.4,1.3
	c0,0.8-0.2,1.4-0.8,1.8c-0.5,0.4-1.2,0.7-2.1,0.7L351.5,538.3L351.5,538.3z M352.6,534.3v3.1h1.9c0.5,0,0.9-0.1,1.2-0.4
	s0.5-0.6,0.5-1.1c0-1-0.6-1.5-1.7-1.5L352.6,534.3L352.6,534.3z M352.6,533.4h1.7c0.5,0,0.9-0.1,1.2-0.4c0.3-0.2,0.5-0.6,0.5-1
	c0-0.5-0.1-0.8-0.4-1s-0.7-0.3-1.2-0.3h-1.7v2.7H352.6z M361.3,534.8c0-0.9,0.1-1.7,0.3-2.5c0.2-0.8,0.6-1.6,1.1-2.2s1-1.1,1.5-1.4
	l0.2,0.7c-0.6,0.4-1,1.1-1.4,2s-0.6,1.9-0.6,3v0.5c0,1.5,0.3,2.8,0.8,3.9c0.3,0.7,0.7,1.2,1.2,1.6l-0.2,0.7c-0.5-0.3-1-0.8-1.5-1.5
	C361.7,538.3,361.3,536.7,361.3,534.8z M365.7,534l0.4-4.2h4.4v1H367l-0.3,2.3c0.4-0.2,0.9-0.4,1.4-0.4c0.8,0,1.4,0.3,1.8,0.8
	c0.5,0.5,0.7,1.2,0.7,2.1s-0.2,1.6-0.7,2.1s-1.1,0.8-2,0.8c-0.8,0-1.4-0.2-1.8-0.6c-0.5-0.4-0.8-1-0.8-1.8h1
	c0.1,0.5,0.2,0.9,0.5,1.1s0.7,0.4,1.1,0.4c0.5,0,0.9-0.2,1.2-0.5s0.4-0.8,0.4-1.4c0-0.6-0.2-1-0.5-1.4s-0.7-0.5-1.2-0.5
	s-0.8,0.1-1.1,0.3l-0.3,0.2L365.7,534z M372.3,537.7c0-0.2,0.1-0.3,0.2-0.5c0.1-0.1,0.3-0.2,0.5-0.2s0.4,0.1,0.5,0.2
	s0.2,0.3,0.2,0.5s-0.1,0.3-0.2,0.5c-0.1,0.1-0.3,0.2-0.5,0.2s-0.4-0.1-0.5-0.2S372.3,537.9,372.3,537.7z M376.8,533.5h0.8
	c0.5,0,0.9-0.1,1.2-0.4s0.4-0.6,0.4-1.1c0-1-0.5-1.5-1.5-1.5c-0.5,0-0.8,0.1-1.1,0.4c-0.3,0.3-0.4,0.6-0.4,1.1h-1.1
	c0-0.7,0.2-1.2,0.7-1.7c0.5-0.4,1.1-0.7,1.9-0.7s1.4,0.2,1.9,0.6s0.7,1,0.7,1.8c0,0.4-0.1,0.7-0.4,1.1s-0.6,0.6-1,0.8
	c0.5,0.1,0.8,0.4,1.1,0.7c0.3,0.3,0.4,0.8,0.4,1.3c0,0.8-0.2,1.4-0.8,1.8c-0.5,0.4-1.2,0.7-2,0.7s-1.4-0.2-2-0.7
	c-0.5-0.4-0.8-1-0.8-1.7h1.1c0,0.4,0.1,0.8,0.4,1.1s0.7,0.4,1.2,0.4s0.9-0.1,1.2-0.4c0.3-0.3,0.4-0.7,0.4-1.2s-0.2-0.9-0.5-1.1
	c-0.3-0.3-0.7-0.4-1.3-0.4h-0.8v-0.9L376.8,533.5L376.8,533.5z M386.5,529.8v0.9h-0.2c-0.8,0-1.5,0.3-2,0.8s-0.8,1.2-0.9,2
	c0.5-0.5,1.1-0.8,1.8-0.8c0.7,0,1.3,0.3,1.8,0.8s0.7,1.2,0.7,2c0,0.9-0.2,1.6-0.7,2.1s-1.1,0.8-1.9,0.8s-1.5-0.3-2-0.9
	c-0.5-0.6-0.8-1.4-0.8-2.4v-0.4c0-1.6,0.3-2.8,1-3.6s1.7-1.3,3-1.3L386.5,529.8L386.5,529.8z M385,533.6c-0.4,0-0.7,0.1-1,0.3
	s-0.5,0.5-0.7,0.8v0.4c0,0.7,0.2,1.3,0.5,1.7s0.7,0.6,1.2,0.6s0.9-0.2,1.2-0.5c0.3-0.4,0.4-0.8,0.4-1.4s-0.1-1.1-0.4-1.4
	C385.9,533.8,385.5,533.6,385,533.6z M390.3,532v0.7c0.5-0.5,1.1-0.8,1.9-0.8c0.9,0,1.5,0.3,1.8,1c0.2-0.3,0.5-0.5,0.8-0.7
	s0.7-0.3,1.2-0.3c1.4,0,2.1,0.7,2.1,2.2v4.2H397v-4.2c0-0.4-0.1-0.8-0.3-1c-0.2-0.2-0.6-0.3-1-0.3s-0.7,0.1-1,0.4
	c-0.3,0.2-0.4,0.6-0.5,1v4.2h-1.1v-4.2c0-0.9-0.5-1.4-1.4-1.4c-0.7,0-1.2,0.3-1.5,0.9v4.6h-1.1V532H390.3z M404,536.6
	c0-0.3-0.1-0.5-0.3-0.7c-0.2-0.2-0.6-0.3-1.2-0.4c-0.5-0.1-1-0.3-1.3-0.4s-0.6-0.4-0.7-0.6c-0.1-0.2-0.2-0.5-0.2-0.8
	c0-0.5,0.2-1,0.7-1.3c0.4-0.4,1-0.5,1.7-0.5s1.3,0.2,1.7,0.6c0.4,0.4,0.7,0.8,0.7,1.4H404c0-0.3-0.1-0.5-0.4-0.8
	c-0.2-0.2-0.6-0.3-0.9-0.3c-0.4,0-0.7,0.1-0.9,0.3c-0.2,0.2-0.3,0.4-0.3,0.7s0.1,0.5,0.3,0.6s0.6,0.3,1.1,0.4c0.5,0.1,1,0.3,1.3,0.4
	s0.6,0.4,0.7,0.6c0.2,0.2,0.2,0.5,0.2,0.9c0,0.6-0.2,1-0.7,1.4c-0.4,0.3-1,0.5-1.8,0.5c-0.5,0-1-0.1-1.4-0.3s-0.7-0.4-0.9-0.8
	s-0.3-0.7-0.3-1h1.1c0,0.4,0.2,0.7,0.4,0.9c0.3,0.2,0.6,0.3,1.1,0.3c0.4,0,0.7-0.1,1-0.2S404,536.9,404,536.6z M410.5,538.3h-1.1v-9
	h1.1V538.3z M416.2,538.3c-0.1-0.1-0.1-0.3-0.2-0.7c-0.5,0.5-1.1,0.8-1.8,0.8c-0.6,0-1.1-0.2-1.5-0.5c-0.4-0.4-0.6-0.8-0.6-1.4
	c0-0.7,0.2-1.2,0.8-1.5s1.2-0.5,2.1-0.5h1V534c0-0.4-0.1-0.7-0.3-0.9c-0.2-0.2-0.6-0.3-1-0.3s-0.7,0.1-1,0.3s-0.4,0.4-0.4,0.7h-1.1
	c0-0.3,0.1-0.6,0.3-0.9c0.2-0.3,0.5-0.5,0.9-0.7s0.8-0.3,1.3-0.3c0.7,0,1.3,0.2,1.7,0.5c0.4,0.4,0.6,0.9,0.7,1.5v2.9
	c0,0.6,0.1,1,0.2,1.4v0.1H416.2z M414.4,537.5c0.3,0,0.7-0.1,1-0.3s0.5-0.4,0.7-0.7v-1.3h-0.8c-1.3,0-2,0.4-2,1.2
	c0,0.3,0.1,0.6,0.3,0.8S414.1,537.5,414.4,537.5z M420.8,530.4v1.5h1.2v0.8h-1.2v3.9c0,0.3,0.1,0.5,0.2,0.6s0.3,0.2,0.5,0.2
	c0.1,0,0.3,0,0.5-0.1v0.9c-0.3,0.1-0.6,0.1-0.8,0.1c-0.5,0-0.8-0.1-1.1-0.4c-0.2-0.3-0.4-0.7-0.4-1.3v-3.9h-1.2V532h1.2v-1.5
	L420.8,530.4L420.8,530.4z M426,538.4c-0.9,0-1.6-0.3-2.1-0.8c-0.5-0.6-0.8-1.3-0.8-2.3v-0.2c0-0.6,0.1-1.2,0.4-1.7
	c0.2-0.5,0.6-0.9,1-1.2s0.9-0.4,1.4-0.4c0.8,0,1.5,0.3,1.9,0.8s0.7,1.3,0.7,2.3v0.5h-4.3c0,0.6,0.2,1.1,0.5,1.5
	c0.4,0.4,0.8,0.6,1.3,0.6c0.4,0,0.7-0.1,1-0.2c0.3-0.2,0.5-0.4,0.7-0.6l0.7,0.5C427.8,538,427,538.4,426,538.4z M425.8,532.7
	c-0.4,0-0.8,0.2-1.1,0.5c-0.3,0.3-0.5,0.8-0.5,1.3h3.2v-0.1c0-0.6-0.2-1-0.5-1.3C426.6,532.9,426.3,532.7,425.8,532.7z M430.3,532
	v0.8c0.5-0.6,1.1-0.9,1.9-0.9c1.3,0,2,0.8,2,2.3v4.2h-1.1v-4.2c0-0.4-0.1-0.8-0.3-1c-0.2-0.2-0.5-0.3-1-0.3c-0.4,0-0.7,0.1-0.9,0.3
	c-0.3,0.2-0.5,0.4-0.6,0.7v4.5h-1.1V532H430.3z M438.9,537.5c0.4,0,0.7-0.1,1-0.3s0.5-0.5,0.5-0.9h1c0,0.4-0.2,0.7-0.4,1
	c-0.2,0.3-0.5,0.6-0.9,0.8s-0.8,0.3-1.2,0.3c-0.9,0-1.6-0.3-2.1-0.9c-0.5-0.6-0.8-1.4-0.8-2.4V535c0-0.6,0.1-1.2,0.3-1.6
	c0.2-0.5,0.6-0.8,1-1.1s0.9-0.4,1.5-0.4c0.7,0,1.3,0.2,1.8,0.6c0.5,0.4,0.7,1,0.8,1.7h-1c0-0.4-0.2-0.8-0.5-1s-0.6-0.4-1-0.4
	c-0.6,0-1,0.2-1.3,0.6s-0.5,1-0.5,1.7v0.2c0,0.7,0.2,1.3,0.5,1.7S438.3,537.5,438.9,537.5z M444.4,536.7l1.5-4.8h1.2l-2.5,7.3
	c-0.4,1.1-1,1.6-1.9,1.6h-0.2l-0.4-0.1v-0.9h0.3c0.4,0,0.7-0.1,0.9-0.2c0.2-0.1,0.4-0.4,0.5-0.8l0.2-0.7l-2.3-6.3h1.2L444.4,536.7z
	 M450.8,534.9c0,0.9-0.1,1.7-0.3,2.5c-0.2,0.8-0.6,1.5-1.1,2.2s-1,1.2-1.5,1.4l-0.2-0.7c0.6-0.5,1.1-1.2,1.5-2.1
	c0.4-1,0.6-2.1,0.6-3.2v-0.2c0-0.8-0.1-1.6-0.3-2.3c-0.2-0.7-0.4-1.3-0.7-1.9c-0.3-0.6-0.6-1-1-1.3l0.2-0.7c0.5,0.3,1,0.8,1.5,1.4
	s0.8,1.4,1,2.2C450.7,533.1,450.8,534,450.8,534.9z"/>
<path d="M214.5,110.1c0,0.8-0.1,1.5-0.4,2.1s-0.6,1.1-1.1,1.4l1.5,1.2l-0.8,0.7l-1.8-1.4c-0.3,0.1-0.6,0.1-0.9,0.1
	c-0.7,0-1.3-0.2-1.8-0.5s-0.9-0.8-1.2-1.4s-0.4-1.3-0.4-2.1v-0.6c0-0.8,0.1-1.5,0.4-2.2c0.3-0.6,0.7-1.1,1.2-1.4s1.1-0.5,1.8-0.5
	s1.3,0.2,1.8,0.5s0.9,0.8,1.2,1.4s0.4,1.4,0.4,2.2v0.5C214.4,110.1,214.5,110.1,214.5,110.1z M213.4,109.6c0-1-0.2-1.8-0.6-2.3
	c-0.4-0.6-1-0.8-1.7-0.8s-1.3,0.3-1.7,0.8s-0.6,1.3-0.6,2.2v0.6c0,1,0.2,1.7,0.6,2.3s1,0.8,1.7,0.8s1.3-0.3,1.7-0.8s0.6-1.3,0.6-2.3
	V109.6z M219.7,113.5c-0.4,0.5-1,0.8-1.9,0.8c-0.7,0-1.2-0.2-1.5-0.6c-0.4-0.4-0.5-1-0.5-1.8v-4.1h1.1v4.1c0,1,0.4,1.5,1.2,1.5
	s1.4-0.3,1.7-0.9v-4.6h1.1v6.3h-1L219.7,113.5z M225.5,114.2c-0.9,0-1.6-0.3-2.1-0.8c-0.5-0.6-0.8-1.3-0.8-2.3v-0.2
	c0-0.6,0.1-1.2,0.4-1.7c0.2-0.5,0.6-0.9,1-1.2c0.4-0.3,0.9-0.4,1.4-0.4c0.8,0,1.5,0.3,1.9,0.8c0.5,0.5,0.7,1.3,0.7,2.3v0.5h-4.3
	c0,0.6,0.2,1.1,0.5,1.5c0.4,0.4,0.8,0.6,1.3,0.6c0.4,0,0.7-0.1,1-0.2c0.3-0.2,0.5-0.4,0.7-0.6l0.7,0.5
	C227.3,113.8,226.5,114.2,225.5,114.2z M225.3,108.5c-0.4,0-0.8,0.2-1.1,0.5s-0.5,0.8-0.5,1.3h3.2v-0.1c0-0.6-0.2-1-0.5-1.3
	C226.1,108.7,225.8,108.5,225.3,108.5z M231.9,108.7c-0.2,0-0.3,0-0.5,0c-0.7,0-1.2,0.3-1.5,0.9v4.5h-1.1v-6.3h1v0.7
	c0.4-0.6,0.9-0.8,1.5-0.8c0.2,0,0.4,0,0.5,0.1v0.9C231.8,108.7,231.9,108.7,231.9,108.7z M234,114.1h-1.1v-6.3h1.1V114.1z
	 M232.8,106.1c0-0.2,0.1-0.3,0.2-0.5c0.1-0.1,0.3-0.2,0.5-0.2s0.4,0.1,0.5,0.2s0.2,0.3,0.2,0.5s-0.1,0.3-0.2,0.4
	c-0.1,0.1-0.3,0.2-0.5,0.2s-0.4-0.1-0.5-0.2S232.8,106.3,232.8,106.1z M238.5,114.2c-0.9,0-1.6-0.3-2.1-0.8
	c-0.5-0.6-0.8-1.3-0.8-2.3v-0.2c0-0.6,0.1-1.2,0.4-1.7c0.2-0.5,0.6-0.9,1-1.2c0.4-0.3,0.9-0.4,1.4-0.4c0.8,0,1.5,0.3,1.9,0.8
	c0.5,0.5,0.7,1.3,0.7,2.3v0.5h-4.3c0,0.6,0.2,1.1,0.5,1.5c0.4,0.4,0.8,0.6,1.3,0.6c0.4,0,0.7-0.1,1-0.2c0.3-0.2,0.5-0.4,0.7-0.6
	l0.7,0.5C240.3,113.8,239.5,114.2,238.5,114.2z M238.3,108.5c-0.4,0-0.8,0.2-1.1,0.5s-0.5,0.8-0.5,1.3h3.2v-0.1c0-0.6-0.2-1-0.5-1.3
	C239.1,108.7,238.8,108.5,238.3,108.5z M245.5,112.4c0-0.3-0.1-0.5-0.3-0.7s-0.6-0.3-1.2-0.4c-0.5-0.1-1-0.3-1.3-0.4
	c-0.3-0.2-0.6-0.4-0.7-0.6c-0.1-0.2-0.2-0.5-0.2-0.8c0-0.5,0.2-1,0.7-1.3c0.4-0.4,1-0.5,1.7-0.5s1.3,0.2,1.7,0.6s0.7,0.8,0.7,1.4
	h-1.1c0-0.3-0.1-0.5-0.4-0.8c-0.2-0.2-0.6-0.3-0.9-0.3c-0.4,0-0.7,0.1-0.9,0.3c-0.2,0.2-0.3,0.4-0.3,0.7c0,0.3,0.1,0.5,0.3,0.6
	s0.6,0.3,1.1,0.4s1,0.3,1.3,0.4c0.3,0.2,0.6,0.4,0.7,0.6c0.2,0.2,0.2,0.5,0.2,0.9c0,0.6-0.2,1-0.7,1.4c-0.4,0.3-1,0.5-1.8,0.5
	c-0.5,0-1-0.1-1.4-0.3c-0.4-0.2-0.7-0.4-0.9-0.8c-0.2-0.3-0.3-0.7-0.3-1h1.1c0,0.4,0.2,0.7,0.4,0.9c0.3,0.2,0.6,0.3,1.1,0.3
	c0.4,0,0.7-0.1,1-0.2C245.4,112.9,245.5,112.7,245.5,112.4z M256.2,111c0,1-0.2,1.7-0.7,2.3s-1,0.9-1.8,0.9s-1.4-0.2-1.8-0.7v3h-1.1
	v-8.8h1v0.7c0.4-0.5,1.1-0.8,1.8-0.8c0.8,0,1.4,0.3,1.8,0.9c0.4,0.6,0.7,1.4,0.7,2.4v0.1H256.2z M255.1,110.9c0-0.7-0.2-1.3-0.5-1.7
	c-0.3-0.4-0.7-0.6-1.2-0.6c-0.7,0-1.1,0.3-1.5,0.9v3c0.3,0.6,0.8,0.9,1.5,0.9c0.5,0,0.9-0.2,1.2-0.6
	C254.9,112.3,255.1,111.7,255.1,110.9z M260.5,114.2c-0.9,0-1.6-0.3-2.1-0.8c-0.5-0.6-0.8-1.3-0.8-2.3v-0.2c0-0.6,0.1-1.2,0.4-1.7
	c0.2-0.5,0.6-0.9,1-1.2c0.4-0.3,0.9-0.4,1.4-0.4c0.8,0,1.5,0.3,1.9,0.8c0.5,0.5,0.7,1.3,0.7,2.3v0.5h-4.3c0,0.6,0.2,1.1,0.5,1.5
	c0.4,0.4,0.8,0.6,1.3,0.6c0.4,0,0.7-0.1,1-0.2c0.3-0.2,0.5-0.4,0.7-0.6l0.7,0.5C262.3,113.8,261.5,114.2,260.5,114.2z M260.3,108.5
	c-0.4,0-0.8,0.2-1.1,0.5c-0.3,0.3-0.5,0.8-0.5,1.3h3.2v-0.1c0-0.6-0.2-1-0.5-1.3C261.1,108.7,260.8,108.5,260.3,108.5z M266.9,108.7
	c-0.2,0-0.3,0-0.5,0c-0.7,0-1.2,0.3-1.5,0.9v4.5h-1.1v-6.3h1v0.7c0.4-0.6,0.9-0.8,1.5-0.8c0.2,0,0.4,0,0.5,0.1v0.9
	C266.8,108.7,266.9,108.7,266.9,108.7z M273.5,110.3c-1-0.3-1.7-0.6-2.1-1s-0.7-0.9-0.7-1.5c0-0.7,0.3-1.2,0.8-1.7
	c0.5-0.4,1.2-0.7,2.1-0.7c0.6,0,1.1,0.1,1.6,0.3c0.5,0.2,0.8,0.5,1.1,0.9c0.3,0.4,0.4,0.8,0.4,1.3h-1.1c0-0.5-0.2-0.9-0.5-1.2
	c-0.3-0.3-0.8-0.4-1.4-0.4s-1,0.1-1.3,0.4c-0.3,0.2-0.5,0.6-0.5,1s0.1,0.7,0.4,0.9c0.3,0.2,0.8,0.5,1.5,0.7s1.3,0.4,1.7,0.7
	c0.4,0.2,0.7,0.5,0.9,0.8c0.2,0.3,0.3,0.7,0.3,1.1c0,0.7-0.3,1.3-0.8,1.7c-0.5,0.4-1.3,0.6-2.2,0.6c-0.6,0-1.1-0.1-1.7-0.3
	c-0.5-0.2-0.9-0.5-1.2-0.9c-0.3-0.4-0.4-0.8-0.4-1.3h1.1c0,0.5,0.2,0.9,0.6,1.2c0.4,0.3,0.9,0.5,1.5,0.5s1-0.1,1.4-0.4
	c0.3-0.2,0.5-0.6,0.5-1s-0.1-0.7-0.4-1S274.3,110.5,273.5,110.3z M280.5,114.2c-0.9,0-1.6-0.3-2.1-0.8c-0.5-0.6-0.8-1.3-0.8-2.3
	v-0.2c0-0.6,0.1-1.2,0.4-1.7c0.2-0.5,0.6-0.9,1-1.2c0.4-0.3,0.9-0.4,1.4-0.4c0.8,0,1.5,0.3,1.9,0.8c0.5,0.5,0.7,1.3,0.7,2.3v0.5
	h-4.3c0,0.6,0.2,1.1,0.5,1.5c0.4,0.4,0.8,0.6,1.3,0.6c0.4,0,0.7-0.1,1-0.2c0.3-0.2,0.5-0.4,0.7-0.6l0.7,0.5
	C282.3,113.8,281.5,114.2,280.5,114.2z M280.3,108.5c-0.4,0-0.8,0.2-1.1,0.5c-0.3,0.3-0.5,0.8-0.5,1.3h3.2v-0.1c0-0.6-0.2-1-0.5-1.3
	C281.1,108.7,280.8,108.5,280.3,108.5z M286.4,113.3c0.4,0,0.7-0.1,1-0.3c0.3-0.2,0.5-0.5,0.5-0.9h1c0,0.4-0.2,0.7-0.4,1
	c-0.2,0.3-0.5,0.6-0.9,0.8c-0.4,0.2-0.8,0.3-1.2,0.3c-0.9,0-1.6-0.3-2.1-0.9s-0.8-1.4-0.8-2.4v-0.2c0-0.6,0.1-1.2,0.3-1.6
	c0.2-0.5,0.6-0.8,1-1.1c0.4-0.3,0.9-0.4,1.5-0.4c0.7,0,1.3,0.2,1.8,0.6s0.7,1,0.8,1.7h-1c0-0.4-0.2-0.8-0.5-1
	c-0.3-0.3-0.6-0.4-1-0.4c-0.6,0-1,0.2-1.3,0.6s-0.5,1-0.5,1.7v0.2c0,0.7,0.2,1.3,0.5,1.7C285.4,113.1,285.8,113.3,286.4,113.3z
	 M289.5,110.9c0-0.6,0.1-1.2,0.4-1.7c0.2-0.5,0.6-0.9,1-1.1c0.4-0.3,0.9-0.4,1.5-0.4c0.9,0,1.6,0.3,2.1,0.9s0.8,1.4,0.8,2.4v0.1
	c0,0.6-0.1,1.2-0.4,1.7c-0.2,0.5-0.6,0.9-1,1.2c-0.4,0.3-0.9,0.4-1.5,0.4c-0.9,0-1.6-0.3-2.1-0.9
	C289.8,112.7,289.5,111.9,289.5,110.9L289.5,110.9z M290.6,111c0,0.7,0.2,1.3,0.5,1.7c0.3,0.4,0.8,0.6,1.3,0.6c0.6,0,1-0.2,1.3-0.6
	s0.5-1,0.5-1.8c0-0.7-0.2-1.2-0.5-1.7c-0.3-0.4-0.8-0.7-1.3-0.7s-1,0.2-1.3,0.6C290.8,109.6,290.6,110.2,290.6,111z M297.8,107.8
	v0.8c0.5-0.6,1.1-0.9,1.9-0.9c1.3,0,2,0.8,2,2.3v4.2h-1.1V110c0-0.4-0.1-0.8-0.3-1c-0.2-0.2-0.5-0.3-1-0.3c-0.4,0-0.7,0.1-0.9,0.3
	c-0.3,0.2-0.5,0.4-0.6,0.7v4.5h-1.1v-6.3L297.8,107.8L297.8,107.8z M303.6,110.9c0-1,0.2-1.8,0.7-2.3c0.5-0.6,1.1-0.9,1.8-0.9
	c0.7,0,1.3,0.2,1.8,0.8v-3.3h1.1v9h-1v-0.7c-0.4,0.5-1,0.8-1.8,0.8c-0.7,0-1.3-0.3-1.8-0.9C303.8,112.7,303.6,111.9,303.6,110.9
	L303.6,110.9z M304.6,111c0,0.7,0.1,1.3,0.4,1.7c0.3,0.4,0.7,0.6,1.2,0.6c0.7,0,1.2-0.3,1.5-0.9v-2.9c-0.3-0.6-0.8-0.9-1.5-0.9
	c-0.5,0-0.9,0.2-1.2,0.6C304.8,109.6,304.6,110.2,304.6,111z"/>
</svg>
