<?xml version="1.0" encoding="utf-8"?>
<!-- Generator: Adobe Illustrator 23.0.1, SVG Export Plug-In . SVG Version: 6.00 Build 0)  -->
<svg version="1.1" id="Layer_1" xmlns="http://www.w3.org/2000/svg" xmlns:xlink="http://www.w3.org/1999/xlink" x="0px" y="0px"
	 viewBox="0 0 518 565.7" style="enable-background:new 0 0 518 565.7;" xml:space="preserve">
<style type="text/css">
	.st0{fill:#FFFFFF;stroke:#E8E8E8;stroke-miterlimit:10;}
	.st1{fill:#F75821;}
	.st2{font-family:'Montserrat-SemiBold';}
	.st3{font-size:22px;}
	.st4{fill:none;stroke:#333333;stroke-miterlimit:10;}
	.st5{fill:#EEEEEE;}
	.st6{fill:none;stroke:#CCCCCC;stroke-miterlimit:10;}
	.st7{clip-path:url(#SVGID_2_);fill:#A13915;}
	.st8{clip-path:url(#SVGID_4_);fill:#F9794D;}
	.st9{clip-path:url(#SVGID_6_);fill:none;}
	.st10{clip-path:url(#SVGID_8_);fill:#F75821;}
	.st11{clip-path:url(#SVGID_10_);fill:#151B35;}
	.st12{clip-path:url(#SVGID_12_);fill:#4D5474;}
	.st13{clip-path:url(#SVGID_14_);fill:none;}
	.st14{clip-path:url(#SVGID_16_);fill:#202951;}
	.st15{fill:none;stroke:#F75821;stroke-width:3;stroke-linecap:round;stroke-linejoin:round;stroke-miterlimit:10;}
	.st16{fill:#FFFFFF;}
	.st17{fill:none;stroke:#202951;stroke-width:3;stroke-linecap:round;stroke-linejoin:round;stroke-miterlimit:10;}
	.st18{fill:#757575;}
	.st19{fill:#202951;}
</style>
<g>
	<path class="st0" d="M507.5,0h-497C5,0,0.5,4.5,0.5,10v545.7c0,5.5,4.5,10,10,10h497c5.5,0,10-4.5,10-10V10
		C517.5,4.5,513,0,507.5,0z"/>
	<text transform="matrix(1 0 0 1 148.6152 45.3822)" class="st1 st2 st3">2.5x Better Query by</text>
	<text transform="matrix(1 0 0 1 93.0152 71.7823)" class="st1 st2 st3">Secondary Index Performance</text>
	<path class="st4" d="M104.5,472.2h389"/>
	<path class="st5" d="M74.5,502.2l30-29h389l-30,29H74.5z"/>
	<path class="st6" d="M104.5,406.2h389"/>
	<path class="st6" d="M104.5,339.2h389"/>
	<path class="st6" d="M104.5,272.2h389"/>
	<path class="st6" d="M104.5,206.2h389"/>
	<path class="st6" d="M104.5,139.2h389"/>
	<g>
		<g>
			<g>
				<defs>
					<rect id="SVGID_1_" x="74.5" y="139" width="419" height="363.3"/>
				</defs>
				<clipPath id="SVGID_2_">
					<use xlink:href="#SVGID_1_"  style="overflow:visible;"/>
				</clipPath>
				<path class="st7" d="M296,198.7v274l-25,25v-274L296,198.7z"/>
			</g>
		</g>
	</g>
	<g>
		<g>
			<g>
				<defs>
					<rect id="SVGID_3_" x="74.5" y="139" width="419" height="363.3"/>
				</defs>
				<clipPath id="SVGID_4_">
					<use xlink:href="#SVGID_3_"  style="overflow:visible;"/>
				</clipPath>
				<path class="st8" d="M271,223.7H171l25-25h100L271,223.7z"/>
			</g>
		</g>
	</g>
	<g>
		<g>
			<g>
				<defs>
					<rect id="SVGID_5_" x="74.5" y="139" width="419" height="363.3"/>
				</defs>
				<clipPath id="SVGID_6_">
					<use xlink:href="#SVGID_5_"  style="overflow:visible;"/>
				</clipPath>
				<path class="st9" d="M271,497.7H171v-274h100V497.7z"/>
			</g>
		</g>
	</g>
	<g>
		<g>
			<g>
				<defs>
					<rect id="SVGID_7_" x="74.5" y="139" width="419" height="363.3"/>
				</defs>
				<clipPath id="SVGID_8_">
					<use xlink:href="#SVGID_7_"  style="overflow:visible;"/>
				</clipPath>
				<path class="st10" d="M271,497.7H171v-274h100V497.7z"/>
			</g>
		</g>
	</g>
	<g>
		<g>
			<g>
				<defs>
					<rect id="SVGID_9_" x="74.5" y="139" width="419" height="363.3"/>
				</defs>
				<clipPath id="SVGID_10_">
					<use xlink:href="#SVGID_9_"  style="overflow:visible;"/>
				</clipPath>
				<path class="st11" d="M397,368.7v104l-25,25v-104L397,368.7z"/>
			</g>
		</g>
	</g>
	<g>
		<g>
			<g>
				<defs>
					<rect id="SVGID_11_" x="74.5" y="139" width="419" height="363.3"/>
				</defs>
				<clipPath id="SVGID_12_">
					<use xlink:href="#SVGID_11_"  style="overflow:visible;"/>
				</clipPath>
				<path class="st12" d="M372,393.7H272l25-25h100L372,393.7z"/>
			</g>
		</g>
	</g>
	<g>
		<g>
			<g>
				<defs>
					<rect id="SVGID_13_" x="74.5" y="139" width="419" height="363.3"/>
				</defs>
				<clipPath id="SVGID_14_">
					<use xlink:href="#SVGID_13_"  style="overflow:visible;"/>
				</clipPath>
				<path class="st13" d="M372,497.7H272v-104h100V497.7z"/>
			</g>
		</g>
	</g>
	<g>
		<g>
			<g>
				<defs>
					<rect id="SVGID_15_" x="74.5" y="139" width="419" height="363.3"/>
				</defs>
				<clipPath id="SVGID_16_">
					<use xlink:href="#SVGID_15_"  style="overflow:visible;"/>
				</clipPath>
				<path class="st14" d="M372,497.7H272v-104h100V497.7z"/>
			</g>
		</g>
	</g>
	<path class="st15" d="M203.8,240.1h-1.1v-7.2l-2.2,0.8v-1l3.1-1.2h0.2V240.1z M212.6,236.5c0,1.3-0.2,2.2-0.7,2.8
		c-0.4,0.6-1.1,0.9-2,0.9s-1.6-0.3-2-0.9s-0.7-1.5-0.7-2.7v-1.4c0-1.3,0.2-2.2,0.6-2.8c0.4-0.6,1.1-0.9,2-0.9s1.6,0.3,2,0.9
		c0.4,0.6,0.7,1.5,0.7,2.7L212.6,236.5L212.6,236.5z M211.5,235c0-0.9-0.1-1.6-0.4-2c-0.2-0.4-0.7-0.6-1.2-0.6c-0.6,0-1,0.2-1.2,0.6
		c-0.2,0.4-0.4,1.1-0.4,1.9v1.7c0,0.9,0.1,1.6,0.4,2c0.3,0.4,0.7,0.7,1.2,0.7s0.9-0.2,1.2-0.6s0.4-1.1,0.4-2V235z M219.8,240.1h-5.6
		v-0.8l3-3.3c0.4-0.5,0.7-0.9,0.9-1.2s0.2-0.6,0.2-1s-0.1-0.8-0.4-1.1c-0.3-0.3-0.6-0.4-1.1-0.4s-0.9,0.2-1.2,0.5s-0.5,0.7-0.5,1.3
		H214c0-0.8,0.2-1.4,0.8-1.9c0.5-0.5,1.2-0.7,2-0.7s1.4,0.2,1.9,0.6s0.7,1,0.7,1.7c0,0.8-0.5,1.8-1.6,3l-2.3,2.5h4.3L219.8,240.1
		L219.8,240.1z M221.3,241.8l-0.6-0.4c0.4-0.5,0.6-1,0.6-1.6v-1h1.1v0.8c0,0.4-0.1,0.8-0.3,1.2S221.6,241.6,221.3,241.8z
		 M228.7,232.2l-3.5,7.9H224l3.5-7.6H223v-0.9h5.8v0.6H228.7z M234.5,231.6v0.9h-0.2c-0.8,0-1.5,0.3-2,0.8s-0.8,1.2-0.9,2
		c0.5-0.5,1.1-0.8,1.8-0.8s1.3,0.3,1.8,0.8s0.7,1.2,0.7,2c0,0.9-0.2,1.6-0.7,2.1s-1.1,0.8-1.9,0.8s-1.5-0.3-2-0.9
		c-0.5-0.6-0.8-1.4-0.8-2.4v-0.4c0-1.6,0.3-2.8,1-3.6s1.7-1.3,3-1.3L234.5,231.6L234.5,231.6z M233,235.5c-0.4,0-0.7,0.1-1,0.3
		s-0.5,0.5-0.7,0.8v0.4c0,0.7,0.2,1.3,0.5,1.7s0.7,0.6,1.2,0.6s0.9-0.2,1.2-0.5c0.3-0.4,0.4-0.8,0.4-1.4s-0.1-1.1-0.4-1.4
		C233.9,235.6,233.5,235.5,233,235.5z M242.6,236.5c0,1.3-0.2,2.2-0.7,2.8c-0.4,0.6-1.1,0.9-2,0.9s-1.6-0.3-2-0.9s-0.7-1.5-0.7-2.7
		v-1.4c0-1.3,0.2-2.2,0.6-2.8c0.4-0.6,1.1-0.9,2-0.9s1.6,0.3,2,0.9c0.4,0.6,0.7,1.5,0.7,2.7L242.6,236.5L242.6,236.5z M241.5,235
		c0-0.9-0.1-1.6-0.4-2c-0.2-0.4-0.7-0.6-1.2-0.6c-0.6,0-1,0.2-1.2,0.6c-0.2,0.4-0.4,1.1-0.4,1.9v1.7c0,0.9,0.1,1.6,0.4,2
		c0.3,0.4,0.7,0.7,1.2,0.7s0.9-0.2,1.2-0.6s0.4-1.1,0.4-2V235z"/>
	<path class="st16" d="M203.8,240.1h-1.1v-7.2l-2.2,0.8v-1l3.1-1.2h0.2V240.1z M212.6,236.5c0,1.3-0.2,2.2-0.7,2.8
		c-0.4,0.6-1.1,0.9-2,0.9s-1.6-0.3-2-0.9s-0.7-1.5-0.7-2.7v-1.4c0-1.3,0.2-2.2,0.6-2.8c0.4-0.6,1.1-0.9,2-0.9s1.6,0.3,2,0.9
		c0.4,0.6,0.7,1.5,0.7,2.7L212.6,236.5L212.6,236.5z M211.5,235c0-0.9-0.1-1.6-0.4-2c-0.2-0.4-0.7-0.6-1.2-0.6c-0.6,0-1,0.2-1.2,0.6
		c-0.2,0.4-0.4,1.1-0.4,1.9v1.7c0,0.9,0.1,1.6,0.4,2c0.3,0.4,0.7,0.7,1.2,0.7s0.9-0.2,1.2-0.6s0.4-1.1,0.4-2V235z M219.8,240.1h-5.6
		v-0.8l3-3.3c0.4-0.5,0.7-0.9,0.9-1.2s0.2-0.6,0.2-1s-0.1-0.8-0.4-1.1c-0.3-0.3-0.6-0.4-1.1-0.4s-0.9,0.2-1.2,0.5s-0.5,0.7-0.5,1.3
		H214c0-0.8,0.2-1.4,0.8-1.9c0.5-0.5,1.2-0.7,2-0.7s1.4,0.2,1.9,0.6s0.7,1,0.7,1.7c0,0.8-0.5,1.8-1.6,3l-2.3,2.5h4.3L219.8,240.1
		L219.8,240.1z M221.3,241.8l-0.6-0.4c0.4-0.5,0.6-1,0.6-1.6v-1h1.1v0.8c0,0.4-0.1,0.8-0.3,1.2S221.6,241.6,221.3,241.8z
		 M228.7,232.2l-3.5,7.9H224l3.5-7.6H223v-0.9h5.8v0.6H228.7z M234.5,231.6v0.9h-0.2c-0.8,0-1.5,0.3-2,0.8s-0.8,1.2-0.9,2
		c0.5-0.5,1.1-0.8,1.8-0.8s1.3,0.3,1.8,0.8s0.7,1.2,0.7,2c0,0.9-0.2,1.6-0.7,2.1s-1.1,0.8-1.9,0.8s-1.5-0.3-2-0.9
		c-0.5-0.6-0.8-1.4-0.8-2.4v-0.4c0-1.6,0.3-2.8,1-3.6s1.7-1.3,3-1.3L234.5,231.6L234.5,231.6z M233,235.5c-0.4,0-0.7,0.1-1,0.3
		s-0.5,0.5-0.7,0.8v0.4c0,0.7,0.2,1.3,0.5,1.7s0.7,0.6,1.2,0.6s0.9-0.2,1.2-0.5c0.3-0.4,0.4-0.8,0.4-1.4s-0.1-1.1-0.4-1.4
		C233.9,235.6,233.5,235.5,233,235.5z M242.6,236.5c0,1.3-0.2,2.2-0.7,2.8c-0.4,0.6-1.1,0.9-2,0.9s-1.6-0.3-2-0.9s-0.7-1.5-0.7-2.7
		v-1.4c0-1.3,0.2-2.2,0.6-2.8c0.4-0.6,1.1-0.9,2-0.9s1.6,0.3,2,0.9c0.4,0.6,0.7,1.5,0.7,2.7L242.6,236.5L242.6,236.5z M241.5,235
		c0-0.9-0.1-1.6-0.4-2c-0.2-0.4-0.7-0.6-1.2-0.6c-0.6,0-1,0.2-1.2,0.6c-0.2,0.4-0.4,1.1-0.4,1.9v1.7c0,0.9,0.1,1.6,0.4,2
		c0.3,0.4,0.7,0.7,1.2,0.7s0.9-0.2,1.2-0.6s0.4-1.1,0.4-2V235z"/>
	<path class="st17" d="M306.3,405.4h0.8c0.5,0,0.9-0.1,1.2-0.4s0.4-0.6,0.4-1.1c0-1-0.5-1.5-1.5-1.5c-0.5,0-0.8,0.1-1.1,0.4
		c-0.3,0.3-0.4,0.6-0.4,1.1h-1.1c0-0.7,0.2-1.2,0.7-1.7c0.5-0.4,1.1-0.7,1.9-0.7s1.4,0.2,1.9,0.6c0.5,0.4,0.7,1,0.7,1.8
		c0,0.4-0.1,0.7-0.4,1.1c-0.3,0.4-0.6,0.6-1,0.8c0.5,0.1,0.8,0.4,1.1,0.7c0.3,0.3,0.4,0.8,0.4,1.3c0,0.8-0.2,1.4-0.8,1.8
		c-0.5,0.4-1.2,0.7-2,0.7s-1.4-0.2-2-0.7c-0.5-0.4-0.8-1-0.8-1.7h1.1c0,0.4,0.1,0.8,0.4,1.1c0.3,0.3,0.7,0.4,1.2,0.4
		s0.9-0.1,1.2-0.4c0.3-0.3,0.4-0.7,0.4-1.2s-0.2-0.9-0.5-1.1c-0.3-0.3-0.7-0.4-1.3-0.4H306v-0.9L306.3,405.4L306.3,405.4z
		 M315.9,406.4c-0.2,0.3-0.5,0.5-0.8,0.7s-0.7,0.2-1,0.2c-0.5,0-0.9-0.1-1.3-0.4s-0.6-0.6-0.8-1c-0.2-0.4-0.3-0.9-0.3-1.5
		c0-0.6,0.1-1.1,0.3-1.5c0.2-0.5,0.5-0.8,0.9-1s0.9-0.4,1.4-0.4c0.8,0,1.5,0.3,2,1c0.5,0.6,0.7,1.5,0.7,2.6v0.3c0,1.7-0.3,2.9-1,3.6
		s-1.6,1.2-3,1.2h-0.2v-0.9h0.2c0.9,0,1.6-0.3,2.1-0.7S315.8,407.4,315.9,406.4z M314.2,406.4c0.4,0,0.7-0.1,1-0.3
		c0.3-0.2,0.5-0.5,0.7-0.8v-0.4c0-0.7-0.2-1.3-0.5-1.7s-0.7-0.7-1.2-0.7s-0.9,0.2-1.2,0.5c-0.3,0.4-0.4,0.8-0.4,1.5
		c0,0.6,0.1,1.1,0.4,1.4S313.7,406.4,314.2,406.4z M318.8,411.9l-0.6-0.4c0.4-0.5,0.6-1,0.6-1.6v-1h1.1v0.8c0,0.4-0.1,0.8-0.3,1.2
		S319.1,411.6,318.8,411.9z M326.1,406.5c0,1.3-0.2,2.2-0.7,2.8c-0.4,0.6-1.1,0.9-2,0.9s-1.6-0.3-2-0.9c-0.4-0.6-0.7-1.5-0.7-2.7
		v-1.4c0-1.3,0.2-2.2,0.6-2.8s1.1-0.9,2-0.9s1.6,0.3,2,0.9c0.4,0.6,0.7,1.5,0.7,2.7v1.4H326.1z M325,405c0-0.9-0.1-1.6-0.4-2
		c-0.2-0.4-0.7-0.6-1.2-0.6c-0.6,0-1,0.2-1.2,0.6c-0.2,0.4-0.4,1.1-0.4,1.9v1.7c0,0.9,0.1,1.6,0.4,2c0.3,0.4,0.7,0.7,1.2,0.7
		s0.9-0.2,1.2-0.6c0.3-0.4,0.4-1.1,0.4-2V405z M333.1,406.5c0,1.3-0.2,2.2-0.7,2.8c-0.4,0.6-1.1,0.9-2,0.9s-1.6-0.3-2-0.9
		c-0.4-0.6-0.7-1.5-0.7-2.7v-1.4c0-1.3,0.2-2.2,0.6-2.8s1.1-0.9,2-0.9s1.6,0.3,2,0.9c0.4,0.6,0.7,1.5,0.7,2.7v1.4H333.1z M332,405
		c0-0.9-0.1-1.6-0.4-2c-0.2-0.4-0.7-0.6-1.2-0.6c-0.6,0-1,0.2-1.2,0.6c-0.2,0.4-0.4,1.1-0.4,1.9v1.7c0,0.9,0.1,1.6,0.4,2
		c0.3,0.4,0.7,0.7,1.2,0.7s0.9-0.2,1.2-0.6c0.3-0.4,0.4-1.1,0.4-2V405z M338.3,410.2h-1.1V403l-2.2,0.7v-1l3.1-1.2h0.2L338.3,410.2
		L338.3,410.2z"/>
	<path class="st16" d="M306.3,405.4h0.8c0.5,0,0.9-0.1,1.2-0.4s0.4-0.6,0.4-1.1c0-1-0.5-1.5-1.5-1.5c-0.5,0-0.8,0.1-1.1,0.4
		c-0.3,0.3-0.4,0.6-0.4,1.1h-1.1c0-0.7,0.2-1.2,0.7-1.7c0.5-0.4,1.1-0.7,1.9-0.7s1.4,0.2,1.9,0.6c0.5,0.4,0.7,1,0.7,1.8
		c0,0.4-0.1,0.7-0.4,1.1c-0.3,0.4-0.6,0.6-1,0.8c0.5,0.1,0.8,0.4,1.1,0.7c0.3,0.3,0.4,0.8,0.4,1.3c0,0.8-0.2,1.4-0.8,1.8
		c-0.5,0.4-1.2,0.7-2,0.7s-1.4-0.2-2-0.7c-0.5-0.4-0.8-1-0.8-1.7h1.1c0,0.4,0.1,0.8,0.4,1.1c0.3,0.3,0.7,0.4,1.2,0.4
		s0.9-0.1,1.2-0.4c0.3-0.3,0.4-0.7,0.4-1.2s-0.2-0.9-0.5-1.1c-0.3-0.3-0.7-0.4-1.3-0.4H306v-0.9L306.3,405.4L306.3,405.4z
		 M315.9,406.4c-0.2,0.3-0.5,0.5-0.8,0.7s-0.7,0.2-1,0.2c-0.5,0-0.9-0.1-1.3-0.4s-0.6-0.6-0.8-1c-0.2-0.4-0.3-0.9-0.3-1.5
		c0-0.6,0.1-1.1,0.3-1.5c0.2-0.5,0.5-0.8,0.9-1s0.9-0.4,1.4-0.4c0.8,0,1.5,0.3,2,1c0.5,0.6,0.7,1.5,0.7,2.6v0.3c0,1.7-0.3,2.9-1,3.6
		s-1.6,1.2-3,1.2h-0.2v-0.9h0.2c0.9,0,1.6-0.3,2.1-0.7S315.8,407.4,315.9,406.4z M314.2,406.4c0.4,0,0.7-0.1,1-0.3
		c0.3-0.2,0.5-0.5,0.7-0.8v-0.4c0-0.7-0.2-1.3-0.5-1.7s-0.7-0.7-1.2-0.7s-0.9,0.2-1.2,0.5c-0.3,0.4-0.4,0.8-0.4,1.5
		c0,0.6,0.1,1.1,0.4,1.4S313.7,406.4,314.2,406.4z M318.8,411.9l-0.6-0.4c0.4-0.5,0.6-1,0.6-1.6v-1h1.1v0.8c0,0.4-0.1,0.8-0.3,1.2
		S319.1,411.6,318.8,411.9z M326.1,406.5c0,1.3-0.2,2.2-0.7,2.8c-0.4,0.6-1.1,0.9-2,0.9s-1.6-0.3-2-0.9c-0.4-0.6-0.7-1.5-0.7-2.7
		v-1.4c0-1.3,0.2-2.2,0.6-2.8s1.1-0.9,2-0.9s1.6,0.3,2,0.9c0.4,0.6,0.7,1.5,0.7,2.7v1.4H326.1z M325,405c0-0.9-0.1-1.6-0.4-2
		c-0.2-0.4-0.7-0.6-1.2-0.6c-0.6,0-1,0.2-1.2,0.6c-0.2,0.4-0.4,1.1-0.4,1.9v1.7c0,0.9,0.1,1.6,0.4,2c0.3,0.4,0.7,0.7,1.2,0.7
		s0.9-0.2,1.2-0.6c0.3-0.4,0.4-1.1,0.4-2V405z M333.1,406.5c0,1.3-0.2,2.2-0.7,2.8c-0.4,0.6-1.1,0.9-2,0.9s-1.6-0.3-2-0.9
		c-0.4-0.6-0.7-1.5-0.7-2.7v-1.4c0-1.3,0.2-2.2,0.6-2.8s1.1-0.9,2-0.9s1.6,0.3,2,0.9c0.4,0.6,0.7,1.5,0.7,2.7v1.4H333.1z M332,405
		c0-0.9-0.1-1.6-0.4-2c-0.2-0.4-0.7-0.6-1.2-0.6c-0.6,0-1,0.2-1.2,0.6c-0.2,0.4-0.4,1.1-0.4,1.9v1.7c0,0.9,0.1,1.6,0.4,2
		c0.3,0.4,0.7,0.7,1.2,0.7s0.9-0.2,1.2-0.6c0.3-0.4,0.4-1.1,0.4-2V405z M338.3,410.2h-1.1V403l-2.2,0.7v-1l3.1-1.2h0.2L338.3,410.2
		L338.3,410.2z"/>
	<path class="st18" d="M67.6,473.2c0,1.3-0.2,2.2-0.7,2.8c-0.4,0.6-1.1,0.9-2,0.9s-1.6-0.3-2-0.9c-0.4-0.6-0.7-1.5-0.7-2.7v-1.4
		c0-1.3,0.2-2.2,0.6-2.8c0.4-0.6,1.1-0.9,2-0.9c0.9,0,1.6,0.3,2,0.9c0.4,0.6,0.7,1.5,0.7,2.7L67.6,473.2L67.6,473.2z M66.5,471.7
		c0-0.9-0.1-1.6-0.4-2c-0.2-0.4-0.7-0.6-1.2-0.6c-0.6,0-1,0.2-1.2,0.6c-0.2,0.4-0.4,1.1-0.4,1.9v1.7c0,0.9,0.1,1.6,0.4,2
		c0.3,0.4,0.7,0.7,1.2,0.7s0.9-0.2,1.2-0.6c0.3-0.4,0.4-1.1,0.4-2V471.7z"/>
	<path class="st18" d="M37.8,410.2h-5.6v-0.8l3-3.3c0.4-0.5,0.7-0.9,0.9-1.2s0.2-0.6,0.2-1c0-0.4-0.1-0.8-0.4-1.1
		c-0.3-0.3-0.6-0.4-1.1-0.4s-0.9,0.2-1.2,0.5s-0.5,0.7-0.5,1.3H32c0-0.8,0.2-1.4,0.8-1.9c0.5-0.5,1.2-0.7,2-0.7s1.4,0.2,1.9,0.6
		c0.5,0.4,0.7,1,0.7,1.7c0,0.8-0.5,1.8-1.6,3l-2.3,2.5h4.3C37.8,409.4,37.8,410.2,37.8,410.2z M39.7,405.9l0.4-4.2h4.4v1H41
		l-0.3,2.3c0.4-0.2,0.9-0.4,1.4-0.4c0.8,0,1.4,0.3,1.8,0.8c0.5,0.5,0.7,1.2,0.7,2.1c0,0.9-0.2,1.6-0.7,2.1s-1.1,0.8-2,0.8
		c-0.8,0-1.4-0.2-1.8-0.6c-0.5-0.4-0.8-1-0.8-1.8h1c0.1,0.5,0.2,0.9,0.5,1.1s0.7,0.4,1.1,0.4c0.5,0,0.9-0.2,1.2-0.5s0.4-0.8,0.4-1.4
		c0-0.6-0.2-1-0.5-1.4c-0.3-0.4-0.7-0.5-1.2-0.5s-0.8,0.1-1.1,0.3l-0.3,0.2L39.7,405.9z M46.3,411.9l-0.6-0.4c0.4-0.5,0.6-1,0.6-1.6
		v-1h1.1v0.8c0,0.4-0.1,0.8-0.3,1.2S46.6,411.7,46.3,411.9z M53.6,406.6c0,1.3-0.2,2.2-0.7,2.8c-0.4,0.6-1.1,0.9-2,0.9
		s-1.6-0.3-2-0.9c-0.4-0.6-0.7-1.5-0.7-2.7v-1.4c0-1.3,0.2-2.2,0.6-2.8c0.4-0.6,1.1-0.9,2-0.9s1.6,0.3,2,0.9
		c0.4,0.6,0.7,1.5,0.7,2.7v1.4H53.6z M52.5,405.1c0-0.9-0.1-1.6-0.4-2c-0.2-0.4-0.7-0.6-1.2-0.6c-0.6,0-1,0.2-1.2,0.6
		c-0.2,0.4-0.4,1.1-0.4,1.9v1.7c0,0.9,0.1,1.6,0.4,2c0.3,0.4,0.7,0.7,1.2,0.7s0.9-0.2,1.2-0.6c0.3-0.4,0.4-1.1,0.4-2V405.1z
		 M60.6,406.6c0,1.3-0.2,2.2-0.7,2.8c-0.4,0.6-1.1,0.9-2,0.9s-1.6-0.3-2-0.9c-0.4-0.6-0.7-1.5-0.7-2.7v-1.4c0-1.3,0.2-2.2,0.6-2.8
		c0.4-0.6,1.1-0.9,2-0.9s1.6,0.3,2,0.9c0.4,0.6,0.7,1.5,0.7,2.7v1.4H60.6z M59.5,405.1c0-0.9-0.1-1.6-0.4-2
		c-0.2-0.4-0.7-0.6-1.2-0.6c-0.6,0-1,0.2-1.2,0.6c-0.2,0.4-0.4,1.1-0.4,1.9v1.7c0,0.9,0.1,1.6,0.4,2c0.3,0.4,0.7,0.7,1.2,0.7
		s0.9-0.2,1.2-0.6c0.3-0.4,0.4-1.1,0.4-2V405.1z M67.6,406.6c0,1.3-0.2,2.2-0.7,2.8c-0.4,0.6-1.1,0.9-2,0.9s-1.6-0.3-2-0.9
		c-0.4-0.6-0.7-1.5-0.7-2.7v-1.4c0-1.3,0.2-2.2,0.6-2.8c0.4-0.6,1.1-0.9,2-0.9c0.9,0,1.6,0.3,2,0.9c0.4,0.6,0.7,1.5,0.7,2.7
		L67.6,406.6L67.6,406.6z M66.5,405.1c0-0.9-0.1-1.6-0.4-2c-0.2-0.4-0.7-0.6-1.2-0.6c-0.6,0-1,0.2-1.2,0.6c-0.2,0.4-0.4,1.1-0.4,1.9
		v1.7c0,0.9,0.1,1.6,0.4,2c0.3,0.4,0.7,0.7,1.2,0.7s0.9-0.2,1.2-0.6c0.3-0.4,0.4-1.1,0.4-2V405.1z"/>
	<path class="st18" d="M32.7,339.3l0.4-4.2h4.4v1H34l-0.3,2.3c0.4-0.2,0.9-0.4,1.4-0.4c0.8,0,1.4,0.3,1.8,0.8
		c0.5,0.5,0.7,1.2,0.7,2.1c0,0.9-0.2,1.6-0.7,2.1s-1.1,0.8-2,0.8c-0.8,0-1.4-0.2-1.8-0.6c-0.5-0.4-0.8-1-0.8-1.8h1
		c0.1,0.5,0.2,0.9,0.5,1.1s0.7,0.4,1.1,0.4c0.5,0,0.9-0.2,1.2-0.5s0.4-0.8,0.4-1.4c0-0.6-0.2-1-0.5-1.4c-0.3-0.4-0.7-0.5-1.2-0.5
		s-0.8,0.1-1.1,0.3l-0.3,0.2L32.7,339.3z M44.6,339.9c0,1.3-0.2,2.2-0.7,2.8c-0.4,0.6-1.1,0.9-2,0.9s-1.6-0.3-2-0.9
		c-0.4-0.6-0.7-1.5-0.7-2.7v-1.4c0-1.3,0.2-2.2,0.6-2.8c0.4-0.6,1.1-0.9,2-0.9s1.6,0.3,2,0.9c0.4,0.6,0.7,1.5,0.7,2.7v1.4H44.6z
		 M43.5,338.4c0-0.9-0.1-1.6-0.4-2c-0.2-0.4-0.7-0.6-1.2-0.6c-0.6,0-1,0.2-1.2,0.6c-0.2,0.4-0.4,1.1-0.4,1.9v1.7
		c0,0.9,0.1,1.6,0.4,2c0.3,0.4,0.7,0.7,1.2,0.7s0.9-0.2,1.2-0.6c0.3-0.4,0.4-1.1,0.4-2V338.4z M46.3,345.2l-0.6-0.4
		c0.4-0.5,0.6-1,0.6-1.6v-1h1.1v0.8c0,0.4-0.1,0.8-0.3,1.2C46.8,344.7,46.6,345,46.3,345.2z M53.6,339.9c0,1.3-0.2,2.2-0.7,2.8
		c-0.4,0.6-1.1,0.9-2,0.9s-1.6-0.3-2-0.9c-0.4-0.6-0.7-1.5-0.7-2.7v-1.4c0-1.3,0.2-2.2,0.6-2.8c0.4-0.6,1.1-0.9,2-0.9s1.6,0.3,2,0.9
		c0.4,0.6,0.7,1.5,0.7,2.7v1.4H53.6z M52.5,338.4c0-0.9-0.1-1.6-0.4-2c-0.2-0.4-0.7-0.6-1.2-0.6c-0.6,0-1,0.2-1.2,0.6
		c-0.2,0.4-0.4,1.1-0.4,1.9v1.7c0,0.9,0.1,1.6,0.4,2c0.3,0.4,0.7,0.7,1.2,0.7s0.9-0.2,1.2-0.6c0.3-0.4,0.4-1.1,0.4-2V338.4z
		 M60.6,339.9c0,1.3-0.2,2.2-0.7,2.8c-0.4,0.6-1.1,0.9-2,0.9s-1.6-0.3-2-0.9c-0.4-0.6-0.7-1.5-0.7-2.7v-1.4c0-1.3,0.2-2.2,0.6-2.8
		c0.4-0.6,1.1-0.9,2-0.9s1.6,0.3,2,0.9c0.4,0.6,0.7,1.5,0.7,2.7v1.4H60.6z M59.5,338.4c0-0.9-0.1-1.6-0.4-2
		c-0.2-0.4-0.7-0.6-1.2-0.6c-0.6,0-1,0.2-1.2,0.6c-0.2,0.4-0.4,1.1-0.4,1.9v1.7c0,0.9,0.1,1.6,0.4,2c0.3,0.4,0.7,0.7,1.2,0.7
		s0.9-0.2,1.2-0.6c0.3-0.4,0.4-1.1,0.4-2V338.4z M67.6,339.9c0,1.3-0.2,2.2-0.7,2.8c-0.4,0.6-1.1,0.9-2,0.9s-1.6-0.3-2-0.9
		c-0.4-0.6-0.7-1.5-0.7-2.7v-1.4c0-1.3,0.2-2.2,0.6-2.8c0.4-0.6,1.1-0.9,2-0.9c0.9,0,1.6,0.3,2,0.9c0.4,0.6,0.7,1.5,0.7,2.7
		L67.6,339.9L67.6,339.9z M66.5,338.4c0-0.9-0.1-1.6-0.4-2c-0.2-0.4-0.7-0.6-1.2-0.6c-0.6,0-1,0.2-1.2,0.6c-0.2,0.4-0.4,1.1-0.4,1.9
		v1.7c0,0.9,0.1,1.6,0.4,2c0.3,0.4,0.7,0.7,1.2,0.7s0.9-0.2,1.2-0.6c0.3-0.4,0.4-1.1,0.4-2V338.4z"/>
	<path class="st18" d="M37.7,268.9l-3.5,7.9H33l3.5-7.6H32v-0.9h5.8L37.7,268.9L37.7,268.9z M39.7,272.6l0.4-4.2h4.4v1H41l-0.3,2.3
		c0.4-0.2,0.9-0.4,1.4-0.4c0.8,0,1.4,0.3,1.8,0.8c0.5,0.5,0.7,1.2,0.7,2.1s-0.2,1.6-0.7,2.1s-1.1,0.8-2,0.8c-0.8,0-1.4-0.2-1.8-0.6
		c-0.5-0.4-0.8-1-0.8-1.8h1c0.1,0.5,0.2,0.9,0.5,1.1s0.7,0.4,1.1,0.4c0.5,0,0.9-0.2,1.2-0.5s0.4-0.8,0.4-1.4s-0.2-1-0.5-1.4
		s-0.7-0.5-1.2-0.5s-0.8,0.1-1.1,0.3l-0.3,0.2L39.7,272.6z M46.3,278.6l-0.6-0.4c0.4-0.5,0.6-1,0.6-1.6v-1h1.1v0.8
		c0,0.4-0.1,0.8-0.3,1.2C46.8,278,46.6,278.3,46.3,278.6z M53.6,273.2c0,1.3-0.2,2.2-0.7,2.8c-0.4,0.6-1.1,0.9-2,0.9s-1.6-0.3-2-0.9
		c-0.4-0.6-0.7-1.5-0.7-2.7v-1.4c0-1.3,0.2-2.2,0.6-2.8c0.4-0.6,1.1-0.9,2-0.9s1.6,0.3,2,0.9s0.7,1.5,0.7,2.7v1.4H53.6z M52.5,271.7
		c0-0.9-0.1-1.6-0.4-2c-0.2-0.4-0.7-0.6-1.2-0.6c-0.6,0-1,0.2-1.2,0.6c-0.2,0.4-0.4,1.1-0.4,1.9v1.7c0,0.9,0.1,1.6,0.4,2
		c0.3,0.4,0.7,0.7,1.2,0.7s0.9-0.2,1.2-0.6c0.3-0.4,0.4-1.1,0.4-2V271.7z M60.6,273.2c0,1.3-0.2,2.2-0.7,2.8c-0.4,0.6-1.1,0.9-2,0.9
		s-1.6-0.3-2-0.9c-0.4-0.6-0.7-1.5-0.7-2.7v-1.4c0-1.3,0.2-2.2,0.6-2.8c0.4-0.6,1.1-0.9,2-0.9s1.6,0.3,2,0.9s0.7,1.5,0.7,2.7v1.4
		H60.6z M59.5,271.7c0-0.9-0.1-1.6-0.4-2c-0.2-0.4-0.7-0.6-1.2-0.6c-0.6,0-1,0.2-1.2,0.6c-0.2,0.4-0.4,1.1-0.4,1.9v1.7
		c0,0.9,0.1,1.6,0.4,2c0.3,0.4,0.7,0.7,1.2,0.7s0.9-0.2,1.2-0.6c0.3-0.4,0.4-1.1,0.4-2V271.7z M67.6,273.2c0,1.3-0.2,2.2-0.7,2.8
		c-0.4,0.6-1.1,0.9-2,0.9s-1.6-0.3-2-0.9c-0.4-0.6-0.7-1.5-0.7-2.7v-1.4c0-1.3,0.2-2.2,0.6-2.8c0.4-0.6,1.1-0.9,2-0.9
		c0.9,0,1.6,0.3,2,0.9s0.7,1.5,0.7,2.7L67.6,273.2L67.6,273.2z M66.5,271.7c0-0.9-0.1-1.6-0.4-2c-0.2-0.4-0.7-0.6-1.2-0.6
		c-0.6,0-1,0.2-1.2,0.6c-0.2,0.4-0.4,1.1-0.4,1.9v1.7c0,0.9,0.1,1.6,0.4,2c0.3,0.4,0.7,0.7,1.2,0.7s0.9-0.2,1.2-0.6
		c0.3-0.4,0.4-1.1,0.4-2V271.7z"/>
	<path class="st18" d="M28.8,210.2h-1.1V203l-2.2,0.8v-1l3.1-1.2h0.2V210.2z M37.6,206.6c0,1.3-0.2,2.2-0.7,2.8
		c-0.4,0.6-1.1,0.9-2,0.9s-1.6-0.3-2-0.9s-0.7-1.5-0.7-2.7v-1.4c0-1.3,0.2-2.2,0.6-2.8c0.4-0.6,1.1-0.9,2-0.9s1.6,0.3,2,0.9
		s0.7,1.5,0.7,2.7v1.4H37.6z M36.5,205.1c0-0.9-0.1-1.6-0.4-2c-0.2-0.4-0.7-0.6-1.2-0.6c-0.6,0-1,0.2-1.2,0.6s-0.4,1.1-0.4,1.9v1.7
		c0,0.9,0.1,1.6,0.4,2c0.3,0.4,0.7,0.7,1.2,0.7s0.9-0.2,1.2-0.6s0.4-1.1,0.4-2V205.1z M44.6,206.6c0,1.3-0.2,2.2-0.7,2.8
		c-0.4,0.6-1.1,0.9-2,0.9s-1.6-0.3-2-0.9s-0.7-1.5-0.7-2.7v-1.4c0-1.3,0.2-2.2,0.6-2.8c0.4-0.6,1.1-0.9,2-0.9s1.6,0.3,2,0.9
		s0.7,1.5,0.7,2.7v1.4H44.6z M43.5,205.1c0-0.9-0.1-1.6-0.4-2c-0.2-0.4-0.7-0.6-1.2-0.6c-0.6,0-1,0.2-1.2,0.6s-0.4,1.1-0.4,1.9v1.7
		c0,0.9,0.1,1.6,0.4,2c0.3,0.4,0.7,0.7,1.2,0.7s0.9-0.2,1.2-0.6s0.4-1.1,0.4-2V205.1z M46.3,211.9l-0.6-0.4c0.4-0.5,0.6-1,0.6-1.6
		v-1h1.1v0.8c0,0.4-0.1,0.8-0.3,1.2S46.6,211.7,46.3,211.9z M53.6,206.6c0,1.3-0.2,2.2-0.7,2.8c-0.4,0.6-1.1,0.9-2,0.9
		s-1.6-0.3-2-0.9s-0.7-1.5-0.7-2.7v-1.4c0-1.3,0.2-2.2,0.6-2.8c0.4-0.6,1.1-0.9,2-0.9s1.6,0.3,2,0.9s0.7,1.5,0.7,2.7v1.4H53.6z
		 M52.5,205.1c0-0.9-0.1-1.6-0.4-2c-0.2-0.4-0.7-0.6-1.2-0.6c-0.6,0-1,0.2-1.2,0.6s-0.4,1.1-0.4,1.9v1.7c0,0.9,0.1,1.6,0.4,2
		c0.3,0.4,0.7,0.7,1.2,0.7s0.9-0.2,1.2-0.6s0.4-1.1,0.4-2V205.1z M60.6,206.6c0,1.3-0.2,2.2-0.7,2.8c-0.4,0.6-1.1,0.9-2,0.9
		s-1.6-0.3-2-0.9s-0.7-1.5-0.7-2.7v-1.4c0-1.3,0.2-2.2,0.6-2.8c0.4-0.6,1.1-0.9,2-0.9s1.6,0.3,2,0.9s0.7,1.5,0.7,2.7v1.4H60.6z
		 M59.5,205.1c0-0.9-0.1-1.6-0.4-2c-0.2-0.4-0.7-0.6-1.2-0.6c-0.6,0-1,0.2-1.2,0.6s-0.4,1.1-0.4,1.9v1.7c0,0.9,0.1,1.6,0.4,2
		c0.3,0.4,0.7,0.7,1.2,0.7s0.9-0.2,1.2-0.6s0.4-1.1,0.4-2V205.1z M67.6,206.6c0,1.3-0.2,2.2-0.7,2.8c-0.4,0.6-1.1,0.9-2,0.9
		s-1.6-0.3-2-0.9s-0.7-1.5-0.7-2.7v-1.4c0-1.3,0.2-2.2,0.6-2.8c0.4-0.6,1.1-0.9,2-0.9c0.9,0,1.6,0.3,2,0.9s0.7,1.5,0.7,2.7
		L67.6,206.6L67.6,206.6z M66.5,205.1c0-0.9-0.1-1.6-0.4-2c-0.2-0.4-0.7-0.6-1.2-0.6c-0.6,0-1,0.2-1.2,0.6s-0.4,1.1-0.4,1.9v1.7
		c0,0.9,0.1,1.6,0.4,2c0.3,0.4,0.7,0.7,1.2,0.7s0.9-0.2,1.2-0.6s0.4-1.1,0.4-2V205.1z"/>
	<path class="st18" d="M28.8,143.5h-1.1v-7.2l-2.2,0.8v-1l3.1-1.2h0.2V143.5z M37.8,143.5h-5.6v-0.8l3-3.3c0.4-0.5,0.7-0.9,0.9-1.2
		s0.2-0.6,0.2-1s-0.1-0.8-0.4-1.1c-0.3-0.3-0.6-0.4-1.1-0.4s-0.9,0.2-1.2,0.5s-0.5,0.7-0.5,1.3H32c0-0.8,0.2-1.4,0.8-1.9
		c0.5-0.5,1.2-0.7,2-0.7s1.4,0.2,1.9,0.6c0.5,0.4,0.7,1,0.7,1.7c0,0.8-0.5,1.8-1.6,3l-2.3,2.5h4.3V143.5z M39.7,139.3l0.4-4.2h4.4v1
		H41l-0.3,2.3c0.4-0.3,0.9-0.4,1.4-0.4c0.8,0,1.4,0.3,1.8,0.8c0.5,0.5,0.7,1.2,0.7,2.1s-0.2,1.6-0.7,2.1s-1.1,0.8-2,0.8
		c-0.8,0-1.4-0.2-1.8-0.6c-0.5-0.4-0.8-1-0.8-1.8h1c0.1,0.5,0.2,0.9,0.5,1.1c0.3,0.2,0.7,0.4,1.1,0.4c0.5,0,0.9-0.2,1.2-0.5
		s0.4-0.8,0.4-1.4c0-0.6-0.2-1-0.5-1.4c-0.3-0.3-0.7-0.5-1.2-0.5s-0.8,0.1-1.1,0.3l-0.3,0.2L39.7,139.3z M46.3,145.2l-0.6-0.4
		c0.4-0.5,0.6-1,0.6-1.6v-1h1.1v0.8c0,0.4-0.1,0.8-0.3,1.2C46.8,144.7,46.6,145,46.3,145.2z M53.6,139.9c0,1.3-0.2,2.2-0.7,2.8
		c-0.4,0.6-1.1,0.9-2,0.9s-1.6-0.3-2-0.9s-0.7-1.5-0.7-2.7v-1.4c0-1.3,0.2-2.2,0.6-2.8c0.4-0.6,1.1-0.9,2-0.9s1.6,0.3,2,0.9
		c0.4,0.6,0.7,1.5,0.7,2.7v1.4C53.5,139.9,53.6,139.9,53.6,139.9z M52.5,138.4c0-0.9-0.1-1.6-0.4-2c-0.2-0.4-0.7-0.6-1.2-0.6
		c-0.6,0-1,0.2-1.2,0.6c-0.2,0.4-0.4,1.1-0.4,1.9v1.7c0,0.9,0.1,1.6,0.4,2c0.3,0.4,0.7,0.7,1.2,0.7s0.9-0.2,1.2-0.6
		c0.3-0.4,0.4-1.1,0.4-2V138.4z M60.6,139.9c0,1.3-0.2,2.2-0.7,2.8c-0.4,0.6-1.1,0.9-2,0.9s-1.6-0.3-2-0.9s-0.7-1.5-0.7-2.7v-1.4
		c0-1.3,0.2-2.2,0.6-2.8c0.4-0.6,1.1-0.9,2-0.9s1.6,0.3,2,0.9c0.4,0.6,0.7,1.5,0.7,2.7v1.4C60.5,139.9,60.6,139.9,60.6,139.9z
		 M59.5,138.4c0-0.9-0.1-1.6-0.4-2c-0.2-0.4-0.7-0.6-1.2-0.6c-0.6,0-1,0.2-1.2,0.6c-0.2,0.4-0.4,1.1-0.4,1.9v1.7
		c0,0.9,0.1,1.6,0.4,2c0.3,0.4,0.7,0.7,1.2,0.7s0.9-0.2,1.2-0.6c0.3-0.4,0.4-1.1,0.4-2V138.4z M67.6,139.9c0,1.3-0.2,2.2-0.7,2.8
		c-0.4,0.6-1.1,0.9-2,0.9s-1.6-0.3-2-0.9s-0.7-1.5-0.7-2.7v-1.4c0-1.3,0.2-2.2,0.6-2.8c0.4-0.6,1.1-0.9,2-0.9c0.9,0,1.6,0.3,2,0.9
		c0.4,0.6,0.7,1.5,0.7,2.7L67.6,139.9L67.6,139.9z M66.5,138.4c0-0.9-0.1-1.6-0.4-2c-0.2-0.4-0.7-0.6-1.2-0.6c-0.6,0-1,0.2-1.2,0.6
		c-0.2,0.4-0.4,1.1-0.4,1.9v1.7c0,0.9,0.1,1.6,0.4,2c0.3,0.4,0.7,0.7,1.2,0.7s0.9-0.2,1.2-0.6c0.3-0.4,0.4-1.1,0.4-2V138.4z"/>
	<path class="st1" d="M73,528.7c0-0.6,0.4-1,1-1h10c0.6,0,1,0.4,1,1v10c0,0.6-0.4,1-1,1H74c-0.6,0-1-0.4-1-1V528.7z"/>
	<path class="st18" d="M96.6,533.9l2.2-4.3h1.3l-2.9,5.3v3.2H96v-3.2l-2.9-5.3h1.3L96.6,533.9z M104.7,537.6c-0.4,0.5-1,0.8-1.9,0.8
		c-0.7,0-1.2-0.2-1.5-0.6c-0.3-0.4-0.5-1-0.5-1.8v-4.1h1.1v4.1c0,1,0.4,1.5,1.2,1.5c0.8,0,1.4-0.3,1.7-0.9V532h1.1v6.3h-1
		L104.7,537.6z M107.6,535c0-1,0.2-1.8,0.7-2.4c0.5-0.6,1.1-0.9,1.8-0.9c0.8,0,1.4,0.3,1.8,0.8v-0.7h1v6.2c0,0.8-0.2,1.5-0.7,1.9
		c-0.5,0.5-1.1,0.7-2,0.7c-0.5,0-0.9-0.1-1.3-0.3c-0.4-0.2-0.8-0.5-1-0.8l0.6-0.7c0.5,0.6,1,0.9,1.7,0.9c0.5,0,0.9-0.2,1.2-0.5
		c0.3-0.3,0.5-0.7,0.5-1.2v-0.5c-0.4,0.5-1,0.8-1.8,0.8c-0.7,0-1.3-0.3-1.8-0.9C107.8,536.8,107.6,536,107.6,535z M108.7,535.1
		c0,0.7,0.1,1.3,0.4,1.7s0.7,0.6,1.2,0.6c0.7,0,1.2-0.3,1.5-0.9v-2.9c-0.3-0.6-0.8-0.9-1.5-0.9c-0.5,0-0.9,0.2-1.2,0.6
		C108.8,533.7,108.7,534.3,108.7,535.1z M118.7,538.2c-0.1-0.1-0.1-0.3-0.2-0.7c-0.5,0.5-1.1,0.8-1.8,0.8c-0.6,0-1.1-0.2-1.5-0.5
		c-0.4-0.4-0.6-0.8-0.6-1.4c0-0.7,0.2-1.2,0.8-1.5s1.2-0.5,2.1-0.5h1v-0.5c0-0.4-0.1-0.7-0.3-0.9c-0.2-0.2-0.6-0.3-1-0.3
		s-0.7,0.1-1,0.3s-0.4,0.4-0.4,0.7h-1.1c0-0.3,0.1-0.6,0.3-0.9c0.2-0.3,0.5-0.5,0.9-0.7s0.8-0.3,1.3-0.3c0.7,0,1.3,0.2,1.7,0.5
		c0.4,0.4,0.6,0.9,0.7,1.5v2.9c0,0.6,0.1,1,0.2,1.4v0.1H118.7z M116.9,537.4c0.3,0,0.7-0.1,1-0.3c0.3-0.2,0.5-0.4,0.7-0.7v-1.3h-0.8
		c-1.3,0-2,0.4-2,1.2c0,0.3,0.1,0.6,0.3,0.8C116.3,537.3,116.6,537.4,116.9,537.4z M122,538.2v-8.5h2.8c0.9,0,1.6,0.2,2.1,0.6
		c0.5,0.4,0.7,0.9,0.7,1.7c0,0.4-0.1,0.8-0.3,1.1c-0.2,0.3-0.5,0.5-0.9,0.7c0.5,0.1,0.8,0.4,1.1,0.7c0.3,0.4,0.4,0.8,0.4,1.3
		c0,0.8-0.2,1.4-0.8,1.8c-0.5,0.4-1.2,0.7-2.1,0.7h-3C122,538.3,122,538.2,122,538.2z M123.1,534.2v3.1h1.9c0.5,0,0.9-0.1,1.2-0.4
		s0.5-0.6,0.5-1.1c0-1-0.6-1.5-1.7-1.5L123.1,534.2L123.1,534.2z M123.1,533.3h1.7c0.5,0,0.9-0.1,1.2-0.4c0.3-0.2,0.5-0.6,0.5-1
		c0-0.5-0.1-0.8-0.4-1s-0.7-0.3-1.2-0.3h-1.7L123.1,533.3L123.1,533.3z M130.9,536.6l1.5-4.8h1.2l-2.5,7.3c-0.4,1.1-1,1.6-1.9,1.6
		H129l-0.4-0.1v-0.9h0.3c0.4,0,0.7-0.1,0.9-0.2c0.2-0.1,0.4-0.4,0.5-0.8l0.2-0.7l-2.3-6.3h1.2L130.9,536.6z M136.3,530.3v1.5h1.2
		v0.8h-1.2v3.9c0,0.3,0.1,0.5,0.2,0.6c0.1,0.1,0.3,0.2,0.5,0.2c0.1,0,0.3,0,0.5-0.1v0.9c-0.3,0.1-0.6,0.1-0.8,0.1
		c-0.5,0-0.8-0.1-1.1-0.4c-0.2-0.3-0.4-0.7-0.4-1.3v-3.8H134v-0.8h1.2v-1.5h1.1V530.3z M141.5,538.3c-0.9,0-1.6-0.3-2.1-0.8
		c-0.5-0.6-0.8-1.3-0.8-2.3V535c0-0.6,0.1-1.2,0.4-1.7c0.2-0.5,0.6-0.9,1-1.2c0.4-0.3,0.9-0.4,1.4-0.4c0.8,0,1.5,0.3,1.9,0.8
		s0.7,1.3,0.7,2.3v0.5h-4.3c0,0.6,0.2,1.1,0.5,1.5c0.4,0.4,0.8,0.6,1.3,0.6c0.4,0,0.7-0.1,1-0.2c0.3-0.2,0.5-0.4,0.7-0.6l0.7,0.5
		C143.3,537.9,142.5,538.3,141.5,538.3z M141.3,532.6c-0.4,0-0.8,0.2-1.1,0.5s-0.5,0.8-0.5,1.3h3.2v-0.1c0-0.6-0.2-1-0.5-1.3
		C142.1,532.8,141.8,532.6,141.3,532.6z M148,538.2v-8.5h2.4c0.7,0,1.4,0.2,2,0.5s1,0.8,1.3,1.4c0.3,0.6,0.5,1.3,0.5,2.1v0.5
		c0,0.8-0.2,1.5-0.5,2.1c-0.3,0.6-0.7,1.1-1.3,1.4s-1.2,0.5-2,0.5H148z M149.1,530.6v6.7h1.2c0.9,0,1.5-0.3,2-0.8s0.7-1.3,0.7-2.3
		v-0.5c0-1-0.2-1.7-0.7-2.2c-0.4-0.5-1.1-0.8-1.9-0.8h-1.3V530.6z M156,538.2v-8.5h2.8c0.9,0,1.6,0.2,2.1,0.6
		c0.5,0.4,0.7,0.9,0.7,1.7c0,0.4-0.1,0.8-0.3,1.1c-0.2,0.3-0.5,0.5-0.9,0.7c0.5,0.1,0.8,0.4,1.1,0.7c0.3,0.4,0.4,0.8,0.4,1.3
		c0,0.8-0.2,1.4-0.8,1.8c-0.5,0.4-1.2,0.7-2.1,0.7h-3V538.2z M157.1,534.2v3.1h1.9c0.5,0,0.9-0.1,1.2-0.4s0.5-0.6,0.5-1.1
		c0-1-0.6-1.5-1.7-1.5L157.1,534.2L157.1,534.2z M157.1,533.3h1.7c0.5,0,0.9-0.1,1.2-0.4c0.3-0.2,0.5-0.6,0.5-1c0-0.5-0.1-0.8-0.4-1
		c-0.3-0.2-0.7-0.3-1.2-0.3h-1.7v2.7L157.1,533.3L157.1,533.3z M165.8,534.7c0-0.9,0.1-1.7,0.3-2.5s0.6-1.6,1.1-2.2
		c0.5-0.6,1-1.1,1.5-1.4l0.2,0.7c-0.6,0.4-1,1.1-1.4,2c-0.4,0.9-0.6,1.9-0.6,3v0.5c0,1.5,0.3,2.8,0.8,3.9c0.3,0.7,0.7,1.2,1.2,1.6
		l-0.2,0.7c-0.5-0.3-1-0.8-1.5-1.5C166.2,538.2,165.8,536.6,165.8,534.7z M171.3,533.4h0.8c0.5,0,0.9-0.1,1.2-0.4s0.4-0.6,0.4-1.1
		c0-1-0.5-1.5-1.5-1.5c-0.5,0-0.8,0.1-1.1,0.4s-0.4,0.6-0.4,1.1h-1.1c0-0.7,0.2-1.2,0.7-1.7c0.5-0.4,1.1-0.7,1.9-0.7
		c0.8,0,1.4,0.2,1.9,0.6c0.5,0.4,0.7,1,0.7,1.8c0,0.4-0.1,0.7-0.4,1.1c-0.3,0.4-0.6,0.6-1,0.8c0.5,0.1,0.8,0.4,1.1,0.7
		c0.3,0.3,0.4,0.8,0.4,1.3c0,0.8-0.2,1.4-0.8,1.8c-0.5,0.4-1.2,0.7-2,0.7s-1.4-0.2-2-0.7c-0.5-0.4-0.8-1-0.8-1.7h1.1
		c0,0.4,0.1,0.8,0.4,1.1c0.3,0.3,0.7,0.4,1.2,0.4s0.9-0.1,1.2-0.4s0.4-0.7,0.4-1.2s-0.2-0.9-0.5-1.1c-0.3-0.3-0.7-0.4-1.3-0.4H171
		v-0.9L171.3,533.4L171.3,533.4z M176.8,537.6c0-0.2,0.1-0.3,0.2-0.5c0.1-0.1,0.3-0.2,0.5-0.2s0.4,0.1,0.5,0.2
		c0.1,0.1,0.2,0.3,0.2,0.5s-0.1,0.3-0.2,0.5c-0.1,0.1-0.3,0.2-0.5,0.2s-0.4-0.1-0.5-0.2C176.9,538,176.8,537.8,176.8,537.6z
		 M183.9,534.5c-0.2,0.3-0.5,0.5-0.8,0.7s-0.7,0.2-1,0.2c-0.5,0-0.9-0.1-1.3-0.4s-0.6-0.6-0.8-1c-0.2-0.4-0.3-0.9-0.3-1.5
		c0-0.6,0.1-1.1,0.3-1.5c0.2-0.5,0.5-0.8,0.9-1s0.9-0.4,1.4-0.4c0.8,0,1.5,0.3,2,1c0.5,0.6,0.7,1.5,0.7,2.6v0.3c0,1.7-0.3,2.9-1,3.6
		s-1.6,1.2-3,1.2h-0.2v-0.9h0.2c0.9,0,1.6-0.3,2.1-0.7S183.8,535.4,183.9,534.5z M182.2,534.5c0.4,0,0.7-0.1,1-0.3
		c0.3-0.2,0.5-0.5,0.7-0.8V533c0-0.7-0.2-1.3-0.5-1.7s-0.7-0.7-1.2-0.7s-0.9,0.2-1.2,0.5c-0.3,0.4-0.4,0.8-0.4,1.5
		c0,0.6,0.1,1.1,0.4,1.4C181.3,534.3,181.7,534.5,182.2,534.5z M187.8,531.9v0.7c0.5-0.5,1.1-0.8,1.9-0.8c0.9,0,1.5,0.3,1.8,1
		c0.2-0.3,0.5-0.5,0.8-0.7s0.7-0.3,1.2-0.3c1.4,0,2.1,0.7,2.1,2.2v4.2h-1.1V534c0-0.4-0.1-0.8-0.3-1s-0.6-0.3-1-0.3s-0.7,0.1-1,0.4
		c-0.3,0.2-0.4,0.6-0.5,1v4.2h-1.1v-4.2c0-0.9-0.5-1.4-1.4-1.4c-0.7,0-1.2,0.3-1.5,0.9v4.6h-1.1v-6.3L187.8,531.9L187.8,531.9z
		 M201.5,536.5c0-0.3-0.1-0.5-0.3-0.7s-0.6-0.3-1.2-0.4c-0.5-0.1-1-0.3-1.3-0.4c-0.3-0.1-0.6-0.4-0.7-0.6c-0.1-0.2-0.2-0.5-0.2-0.8
		c0-0.5,0.2-1,0.7-1.3c0.4-0.4,1-0.5,1.7-0.5s1.3,0.2,1.7,0.6c0.4,0.4,0.7,0.8,0.7,1.4h-1.1c0-0.3-0.1-0.5-0.4-0.8
		c-0.2-0.2-0.6-0.3-0.9-0.3c-0.4,0-0.7,0.1-0.9,0.3c-0.2,0.2-0.3,0.4-0.3,0.7s0.1,0.5,0.3,0.6c0.2,0.1,0.6,0.3,1.1,0.4
		c0.5,0.1,1,0.3,1.3,0.4c0.3,0.1,0.6,0.4,0.7,0.6c0.2,0.2,0.2,0.5,0.2,0.9c0,0.6-0.2,1-0.7,1.4c-0.4,0.3-1,0.5-1.8,0.5
		c-0.5,0-1-0.1-1.4-0.3s-0.7-0.4-0.9-0.8c-0.2-0.4-0.3-0.7-0.3-1h1.1c0,0.4,0.2,0.7,0.4,0.9c0.3,0.2,0.6,0.3,1.1,0.3
		c0.4,0,0.7-0.1,1-0.2C201.4,537.3,201.5,536.8,201.5,536.5z M208,538.2h-1.1v-9h1.1V538.2z M213.7,538.2c-0.1-0.1-0.1-0.3-0.2-0.7
		c-0.5,0.5-1.1,0.8-1.8,0.8c-0.6,0-1.1-0.2-1.5-0.5c-0.4-0.4-0.6-0.8-0.6-1.4c0-0.7,0.2-1.2,0.8-1.5s1.2-0.5,2.1-0.5h1v-0.5
		c0-0.4-0.1-0.7-0.3-0.9c-0.2-0.2-0.6-0.3-1-0.3s-0.7,0.1-1,0.3s-0.4,0.4-0.4,0.7h-1.1c0-0.3,0.1-0.6,0.3-0.9s0.5-0.5,0.9-0.7
		s0.8-0.3,1.3-0.3c0.7,0,1.3,0.2,1.7,0.5c0.4,0.4,0.6,0.9,0.7,1.5v2.9c0,0.6,0.1,1,0.2,1.4v0.1H213.7z M211.9,537.4
		c0.3,0,0.7-0.1,1-0.3c0.3-0.2,0.5-0.4,0.7-0.7v-1.3h-0.8c-1.3,0-2,0.4-2,1.2c0,0.3,0.1,0.6,0.3,0.8
		C211.3,537.3,211.6,537.4,211.9,537.4z M218.3,530.3v1.5h1.2v0.8h-1.2v3.9c0,0.3,0.1,0.5,0.2,0.6c0.1,0.1,0.3,0.2,0.5,0.2
		c0.1,0,0.3,0,0.5-0.1v0.9c-0.3,0.1-0.6,0.1-0.8,0.1c-0.5,0-0.8-0.1-1.1-0.4c-0.2-0.3-0.4-0.7-0.4-1.3v-3.8H216v-0.8h1.2v-1.5h1.1
		V530.3z M223.5,538.3c-0.9,0-1.6-0.3-2.1-0.8c-0.5-0.6-0.8-1.3-0.8-2.3V535c0-0.6,0.1-1.2,0.4-1.7c0.2-0.5,0.6-0.9,1-1.2
		c0.4-0.3,0.9-0.4,1.4-0.4c0.8,0,1.5,0.3,1.9,0.8s0.7,1.3,0.7,2.3v0.5h-4.3c0,0.6,0.2,1.1,0.5,1.5c0.4,0.4,0.8,0.6,1.3,0.6
		c0.4,0,0.7-0.1,1-0.2c0.3-0.2,0.5-0.4,0.7-0.6l0.7,0.5C225.3,537.9,224.5,538.3,223.5,538.3z M223.3,532.6c-0.4,0-0.8,0.2-1.1,0.5
		s-0.5,0.8-0.5,1.3h3.2v-0.1c0-0.6-0.2-1-0.5-1.3C224.1,532.8,223.8,532.6,223.3,532.6z M227.8,531.9v0.8c0.5-0.6,1.1-0.9,1.9-0.9
		c1.3,0,2,0.8,2,2.3v4.2h-1.1v-4.2c0-0.4-0.1-0.8-0.3-1s-0.5-0.3-1-0.3c-0.4,0-0.7,0.1-0.9,0.3c-0.3,0.2-0.5,0.4-0.6,0.7v4.5h-1.1
		V532L227.8,531.9L227.8,531.9L227.8,531.9z M236.4,537.4c0.4,0,0.7-0.1,1-0.3c0.3-0.2,0.5-0.5,0.5-0.9h1c0,0.4-0.2,0.7-0.4,1
		s-0.5,0.6-0.9,0.8c-0.4,0.2-0.8,0.3-1.2,0.3c-0.9,0-1.6-0.3-2.1-0.9c-0.5-0.6-0.8-1.4-0.8-2.4v-0.2c0-0.6,0.1-1.2,0.3-1.6
		c0.2-0.5,0.6-0.8,1-1.1c0.4-0.3,0.9-0.4,1.5-0.4c0.7,0,1.3,0.2,1.8,0.6c0.5,0.4,0.7,1,0.8,1.7h-1c0-0.4-0.2-0.8-0.5-1
		s-0.6-0.4-1-0.4c-0.6,0-1,0.2-1.3,0.6c-0.3,0.4-0.5,1-0.5,1.7v0.2c0,0.7,0.2,1.3,0.5,1.7S235.8,537.4,236.4,537.4z M241.9,536.6
		l1.5-4.8h1.2l-2.5,7.3c-0.4,1.1-1,1.6-1.9,1.6H240l-0.4-0.1v-0.9h0.3c0.4,0,0.7-0.1,0.9-0.2c0.2-0.1,0.4-0.4,0.5-0.8l0.2-0.7
		l-2.3-6.3h1.2L241.9,536.6z M248.3,534.8c0,0.9-0.1,1.7-0.3,2.5s-0.6,1.5-1.1,2.2s-1,1.2-1.5,1.4l-0.2-0.7c0.6-0.5,1.1-1.2,1.5-2.1
		c0.4-1,0.6-2.1,0.6-3.2v-0.2c0-0.8-0.1-1.6-0.3-2.3c-0.2-0.7-0.4-1.3-0.7-1.9c-0.3-0.6-0.6-1-1-1.3l0.2-0.7c0.5,0.3,1,0.8,1.5,1.4
		c0.5,0.6,0.8,1.4,1,2.2C248.2,533,248.3,533.9,248.3,534.8z"/>
	<path class="st19" d="M265,528.7c0-0.6,0.4-1,1-1h10c0.6,0,1,0.4,1,1v10c0,0.6-0.4,1-1,1h-10c-0.6,0-1-0.4-1-1V528.7z"/>
	<path class="st18" d="M292.3,535.5c-0.1,0.9-0.4,1.6-1,2.1s-1.3,0.7-2.2,0.7c-1,0-1.8-0.4-2.4-1.1s-0.9-1.7-0.9-2.9v-0.8
		c0-0.8,0.1-1.5,0.4-2.1c0.3-0.6,0.7-1.1,1.2-1.4s1.1-0.5,1.8-0.5c0.9,0,1.6,0.3,2.2,0.8s0.9,1.2,1,2.1h-1.1
		c-0.1-0.7-0.3-1.2-0.6-1.5s-0.8-0.5-1.4-0.5c-0.7,0-1.3,0.3-1.7,0.8s-0.6,1.3-0.6,2.3v0.8c0,0.9,0.2,1.7,0.6,2.2s0.9,0.8,1.6,0.8
		c0.6,0,1.1-0.1,1.4-0.4s0.6-0.8,0.7-1.5h1V535.5z M293.5,535c0-0.6,0.1-1.2,0.4-1.7c0.2-0.5,0.6-0.9,1-1.1c0.4-0.3,0.9-0.4,1.5-0.4
		c0.9,0,1.6,0.3,2.1,0.9c0.5,0.6,0.8,1.4,0.8,2.4v0.1c0,0.6-0.1,1.2-0.4,1.7s-0.6,0.9-1,1.2s-0.9,0.4-1.5,0.4
		c-0.9,0-1.6-0.3-2.1-0.9C293.8,536.8,293.5,536,293.5,535L293.5,535z M294.6,535.1c0,0.7,0.2,1.3,0.5,1.7s0.8,0.6,1.3,0.6
		c0.6,0,1-0.2,1.3-0.6c0.3-0.4,0.5-1,0.5-1.8c0-0.7-0.2-1.2-0.5-1.7c-0.3-0.4-0.8-0.7-1.3-0.7s-1,0.2-1.3,0.6
		C294.8,533.7,294.6,534.3,294.6,535.1z M303.4,537.4c0.4,0,0.7-0.1,1-0.3c0.3-0.2,0.5-0.5,0.5-0.9h1c0,0.4-0.2,0.7-0.4,1
		c-0.2,0.3-0.5,0.6-0.9,0.8c-0.4,0.2-0.8,0.3-1.2,0.3c-0.9,0-1.6-0.3-2.1-0.9c-0.5-0.6-0.8-1.4-0.8-2.4v-0.2c0-0.6,0.1-1.2,0.3-1.6
		c0.2-0.5,0.6-0.8,1-1.1c0.4-0.3,0.9-0.4,1.5-0.4c0.7,0,1.3,0.2,1.8,0.6c0.5,0.4,0.7,1,0.8,1.7h-1c0-0.4-0.2-0.8-0.5-1
		s-0.6-0.4-1-0.4c-0.6,0-1,0.2-1.3,0.6c-0.3,0.4-0.5,1-0.5,1.7v0.2c0,0.7,0.2,1.3,0.5,1.7S302.8,537.4,303.4,537.4z M308.6,535.3
		l-0.7,0.7v2.2h-1.1v-9h1.1v5.4l0.6-0.7l2-2.1h1.3l-2.5,2.7l2.8,3.7h-1.3L308.6,535.3z M315.9,532.8c-0.2,0-0.3,0-0.5,0
		c-0.7,0-1.2,0.3-1.5,0.9v4.5h-1.1v-6.3h1v0.7c0.4-0.6,0.9-0.8,1.5-0.8c0.2,0,0.4,0,0.5,0.1v0.9L315.9,532.8L315.9,532.8z
		 M316.5,535c0-0.6,0.1-1.2,0.4-1.7c0.2-0.5,0.6-0.9,1-1.1c0.4-0.3,0.9-0.4,1.5-0.4c0.9,0,1.6,0.3,2.1,0.9c0.5,0.6,0.8,1.4,0.8,2.4
		v0.1c0,0.6-0.1,1.2-0.4,1.7s-0.6,0.9-1,1.2s-0.9,0.4-1.5,0.4c-0.9,0-1.6-0.3-2.1-0.9C316.8,536.8,316.5,536,316.5,535L316.5,535z
		 M317.6,535.1c0,0.7,0.2,1.3,0.5,1.7s0.8,0.6,1.3,0.6c0.6,0,1-0.2,1.3-0.6c0.3-0.4,0.5-1,0.5-1.8c0-0.7-0.2-1.2-0.5-1.7
		c-0.3-0.4-0.8-0.7-1.3-0.7s-1,0.2-1.3,0.6C317.8,533.7,317.6,534.3,317.6,535.1z M327.7,538.2c-0.1-0.1-0.1-0.3-0.2-0.7
		c-0.5,0.5-1.1,0.8-1.8,0.8c-0.6,0-1.1-0.2-1.5-0.5c-0.4-0.4-0.6-0.8-0.6-1.4c0-0.7,0.2-1.2,0.8-1.5s1.2-0.5,2.1-0.5h1v-0.5
		c0-0.4-0.1-0.7-0.3-0.9c-0.2-0.2-0.6-0.3-1-0.3s-0.7,0.1-1,0.3s-0.4,0.4-0.4,0.7h-1.1c0-0.3,0.1-0.6,0.3-0.9
		c0.2-0.3,0.5-0.5,0.9-0.7s0.8-0.3,1.3-0.3c0.7,0,1.3,0.2,1.7,0.5c0.4,0.4,0.6,0.9,0.7,1.5v2.9c0,0.6,0.1,1,0.2,1.4v0.1H327.7z
		 M325.9,537.4c0.3,0,0.7-0.1,1-0.3c0.3-0.2,0.5-0.4,0.7-0.7v-1.3h-0.8c-1.3,0-2,0.4-2,1.2c0,0.3,0.1,0.6,0.3,0.8
		C325.3,537.3,325.6,537.4,325.9,537.4z M333.4,537.4c0.4,0,0.7-0.1,1-0.3c0.3-0.2,0.5-0.5,0.5-0.9h1c0,0.4-0.2,0.7-0.4,1
		c-0.2,0.3-0.5,0.6-0.9,0.8c-0.4,0.2-0.8,0.3-1.2,0.3c-0.9,0-1.6-0.3-2.1-0.9c-0.5-0.6-0.8-1.4-0.8-2.4v-0.2c0-0.6,0.1-1.2,0.3-1.6
		c0.2-0.5,0.6-0.8,1-1.1c0.4-0.3,0.9-0.4,1.5-0.4c0.7,0,1.3,0.2,1.8,0.6c0.5,0.4,0.7,1,0.8,1.7h-1c0-0.4-0.2-0.8-0.5-1
		s-0.6-0.4-1-0.4c-0.6,0-1,0.2-1.3,0.6c-0.3,0.4-0.5,1-0.5,1.7v0.2c0,0.7,0.2,1.3,0.5,1.7S332.8,537.4,333.4,537.4z M337.9,532.6
		c0.5-0.6,1.1-0.9,1.9-0.9c1.3,0,2,0.8,2,2.3v4.2h-1.1V534c0-0.4-0.1-0.8-0.3-1c-0.2-0.2-0.5-0.3-1-0.3c-0.4,0-0.7,0.1-0.9,0.3
		c-0.3,0.2-0.5,0.4-0.6,0.7v4.5h-1.1v-9h1.1V532.6z M344,538.2v-8.5h2.4c0.7,0,1.4,0.2,2,0.5s1,0.8,1.3,1.4c0.3,0.6,0.5,1.3,0.5,2.1
		v0.5c0,0.8-0.2,1.5-0.5,2.1c-0.3,0.6-0.7,1.1-1.3,1.4c-0.6,0.3-1.2,0.5-2,0.5H344z M345.1,530.6v6.7h1.2c0.9,0,1.5-0.3,2-0.8
		s0.7-1.3,0.7-2.3v-0.5c0-1-0.2-1.7-0.7-2.2c-0.4-0.5-1.1-0.8-1.9-0.8h-1.3L345.1,530.6L345.1,530.6z M352,538.2v-8.5h2.8
		c0.9,0,1.6,0.2,2.1,0.6c0.5,0.4,0.7,0.9,0.7,1.7c0,0.4-0.1,0.8-0.3,1.1c-0.2,0.3-0.5,0.5-0.9,0.7c0.5,0.1,0.8,0.4,1.1,0.7
		c0.3,0.4,0.4,0.8,0.4,1.3c0,0.8-0.2,1.4-0.8,1.8c-0.5,0.4-1.2,0.7-2.1,0.7h-3L352,538.2L352,538.2z M353.1,534.2v3.1h1.9
		c0.5,0,0.9-0.1,1.2-0.4s0.5-0.6,0.5-1.1c0-1-0.6-1.5-1.7-1.5L353.1,534.2L353.1,534.2z M353.1,533.3h1.7c0.5,0,0.9-0.1,1.2-0.4
		c0.3-0.2,0.5-0.6,0.5-1c0-0.5-0.1-0.8-0.4-1s-0.7-0.3-1.2-0.3h-1.7v2.7L353.1,533.3L353.1,533.3z M361.8,534.7
		c0-0.9,0.1-1.7,0.3-2.5c0.2-0.8,0.6-1.6,1.1-2.2c0.5-0.6,1-1.1,1.5-1.4l0.2,0.7c-0.6,0.4-1,1.1-1.4,2c-0.4,0.9-0.6,1.9-0.6,3v0.5
		c0,1.5,0.3,2.8,0.8,3.9c0.3,0.7,0.7,1.2,1.2,1.6l-0.2,0.7c-0.5-0.3-1-0.8-1.5-1.5C362.2,538.2,361.8,536.6,361.8,534.7z
		 M367.3,533.4h0.8c0.5,0,0.9-0.1,1.2-0.4s0.4-0.6,0.4-1.1c0-1-0.5-1.5-1.5-1.5c-0.5,0-0.8,0.1-1.1,0.4c-0.3,0.3-0.4,0.6-0.4,1.1
		h-1.1c0-0.7,0.2-1.2,0.7-1.7c0.5-0.4,1.1-0.7,1.9-0.7s1.4,0.2,1.9,0.6c0.5,0.4,0.7,1,0.7,1.8c0,0.4-0.1,0.7-0.4,1.1
		c-0.3,0.4-0.6,0.6-1,0.8c0.5,0.1,0.8,0.4,1.1,0.7c0.3,0.3,0.4,0.8,0.4,1.3c0,0.8-0.2,1.4-0.8,1.8c-0.5,0.4-1.2,0.7-2,0.7
		s-1.4-0.2-2-0.7c-0.5-0.4-0.8-1-0.8-1.7h1.1c0,0.4,0.1,0.8,0.4,1.1c0.3,0.3,0.7,0.4,1.2,0.4s0.9-0.1,1.2-0.4
		c0.3-0.3,0.4-0.7,0.4-1.2s-0.2-0.9-0.5-1.1c-0.3-0.3-0.7-0.4-1.3-0.4H367v-0.9L367.3,533.4L367.3,533.4z M372.8,537.6
		c0-0.2,0.1-0.3,0.2-0.5c0.1-0.1,0.3-0.2,0.5-0.2s0.4,0.1,0.5,0.2c0.1,0.1,0.2,0.3,0.2,0.5s-0.1,0.3-0.2,0.5
		c-0.1,0.1-0.3,0.2-0.5,0.2s-0.4-0.1-0.5-0.2C372.9,538,372.8,537.8,372.8,537.6z M377.3,533.4h0.8c0.5,0,0.9-0.1,1.2-0.4
		s0.4-0.6,0.4-1.1c0-1-0.5-1.5-1.5-1.5c-0.5,0-0.8,0.1-1.1,0.4c-0.3,0.3-0.4,0.6-0.4,1.1h-1.1c0-0.7,0.2-1.2,0.7-1.7
		c0.5-0.4,1.1-0.7,1.9-0.7s1.4,0.2,1.9,0.6c0.5,0.4,0.7,1,0.7,1.8c0,0.4-0.1,0.7-0.4,1.1c-0.3,0.4-0.6,0.6-1,0.8
		c0.5,0.1,0.8,0.4,1.1,0.7c0.3,0.3,0.4,0.8,0.4,1.3c0,0.8-0.2,1.4-0.8,1.8c-0.5,0.4-1.2,0.7-2,0.7s-1.4-0.2-2-0.7
		c-0.5-0.4-0.8-1-0.8-1.7h1.1c0,0.4,0.1,0.8,0.4,1.1c0.3,0.3,0.7,0.4,1.2,0.4s0.9-0.1,1.2-0.4c0.3-0.3,0.4-0.7,0.4-1.2
		s-0.2-0.9-0.5-1.1c-0.3-0.3-0.7-0.4-1.3-0.4H377v-0.9L377.3,533.4L377.3,533.4z M383.8,531.9v0.7c0.5-0.5,1.1-0.8,1.9-0.8
		c0.9,0,1.5,0.3,1.8,1c0.2-0.3,0.5-0.5,0.8-0.7s0.7-0.3,1.2-0.3c1.4,0,2.1,0.7,2.1,2.2v4.2h-1.1V534c0-0.4-0.1-0.8-0.3-1
		c-0.2-0.2-0.6-0.3-1-0.3s-0.7,0.1-1,0.4c-0.3,0.2-0.4,0.6-0.5,1v4.2h-1.1v-4.2c0-0.9-0.5-1.4-1.4-1.4c-0.7,0-1.2,0.3-1.5,0.9v4.6
		h-1.1v-6.3L383.8,531.9L383.8,531.9z M397.5,536.5c0-0.3-0.1-0.5-0.3-0.7c-0.2-0.2-0.6-0.3-1.2-0.4c-0.5-0.1-1-0.3-1.3-0.4
		c-0.3-0.1-0.6-0.4-0.7-0.6s-0.2-0.5-0.2-0.8c0-0.5,0.2-1,0.7-1.3c0.4-0.4,1-0.5,1.7-0.5s1.3,0.2,1.7,0.6c0.4,0.4,0.7,0.8,0.7,1.4
		h-1.1c0-0.3-0.1-0.5-0.4-0.8c-0.2-0.2-0.6-0.3-0.9-0.3c-0.4,0-0.7,0.1-0.9,0.3c-0.2,0.2-0.3,0.4-0.3,0.7s0.1,0.5,0.3,0.6
		c0.2,0.1,0.6,0.3,1.1,0.4c0.5,0.1,1,0.3,1.3,0.4c0.3,0.1,0.6,0.4,0.7,0.6c0.2,0.2,0.2,0.5,0.2,0.9c0,0.6-0.2,1-0.7,1.4
		c-0.4,0.3-1,0.5-1.8,0.5c-0.5,0-1-0.1-1.4-0.3s-0.7-0.4-0.9-0.8c-0.2-0.4-0.3-0.7-0.3-1h1.1c0,0.4,0.2,0.7,0.4,0.9
		c0.3,0.2,0.6,0.3,1.1,0.3c0.4,0,0.7-0.1,1-0.2C397.4,537.3,397.5,536.8,397.5,536.5z M404,538.2h-1.1v-9h1.1V538.2z M409.7,538.2
		c-0.1-0.1-0.1-0.3-0.2-0.7c-0.5,0.5-1.1,0.8-1.8,0.8c-0.6,0-1.1-0.2-1.5-0.5c-0.4-0.4-0.6-0.8-0.6-1.4c0-0.7,0.2-1.2,0.8-1.5
		s1.2-0.5,2.1-0.5h1v-0.5c0-0.4-0.1-0.7-0.3-0.9c-0.2-0.2-0.6-0.3-1-0.3s-0.7,0.1-1,0.3s-0.4,0.4-0.4,0.7h-1.1
		c0-0.3,0.1-0.6,0.3-0.9c0.2-0.3,0.5-0.5,0.9-0.7s0.8-0.3,1.3-0.3c0.7,0,1.3,0.2,1.7,0.5c0.4,0.4,0.6,0.9,0.7,1.5v2.9
		c0,0.6,0.1,1,0.2,1.4v0.1H409.7z M407.9,537.4c0.3,0,0.7-0.1,1-0.3c0.3-0.2,0.5-0.4,0.7-0.7v-1.3h-0.8c-1.3,0-2,0.4-2,1.2
		c0,0.3,0.1,0.6,0.3,0.8C407.3,537.3,407.6,537.4,407.9,537.4z M414.3,530.3v1.5h1.2v0.8h-1.2v3.9c0,0.3,0.1,0.5,0.2,0.6
		c0.1,0.1,0.3,0.2,0.5,0.2c0.1,0,0.3,0,0.5-0.1v0.9c-0.3,0.1-0.6,0.1-0.8,0.1c-0.5,0-0.8-0.1-1.1-0.4c-0.2-0.3-0.4-0.7-0.4-1.3v-3.8
		H412v-0.8h1.2v-1.5h1.1L414.3,530.3L414.3,530.3z M419.5,538.3c-0.9,0-1.6-0.3-2.1-0.8c-0.5-0.6-0.8-1.3-0.8-2.3V535
		c0-0.6,0.1-1.2,0.4-1.7c0.2-0.5,0.6-0.9,1-1.2c0.4-0.3,0.9-0.4,1.4-0.4c0.8,0,1.5,0.3,1.9,0.8s0.7,1.3,0.7,2.3v0.5h-4.3
		c0,0.6,0.2,1.1,0.5,1.5c0.4,0.4,0.8,0.6,1.3,0.6c0.4,0,0.7-0.1,1-0.2c0.3-0.2,0.5-0.4,0.7-0.6l0.7,0.5
		C421.3,537.9,420.5,538.3,419.5,538.3z M419.3,532.6c-0.4,0-0.8,0.2-1.1,0.5c-0.3,0.3-0.5,0.8-0.5,1.3h3.2v-0.1
		c0-0.6-0.2-1-0.5-1.3C420.1,532.8,419.8,532.6,419.3,532.6z M423.8,531.9v0.8c0.5-0.6,1.1-0.9,1.9-0.9c1.3,0,2,0.8,2,2.3v4.2h-1.1
		v-4.2c0-0.4-0.1-0.8-0.3-1c-0.2-0.2-0.5-0.3-1-0.3c-0.4,0-0.7,0.1-0.9,0.3c-0.3,0.2-0.5,0.4-0.6,0.7v4.5h-1.1V532L423.8,531.9
		L423.8,531.9z M432.4,537.4c0.4,0,0.7-0.1,1-0.3c0.3-0.2,0.5-0.5,0.5-0.9h1c0,0.4-0.2,0.7-0.4,1c-0.2,0.3-0.5,0.6-0.9,0.8
		c-0.4,0.2-0.8,0.3-1.2,0.3c-0.9,0-1.6-0.3-2.1-0.9c-0.5-0.6-0.8-1.4-0.8-2.4v-0.2c0-0.6,0.1-1.2,0.3-1.6c0.2-0.5,0.6-0.8,1-1.1
		c0.4-0.3,0.9-0.4,1.5-0.4c0.7,0,1.3,0.2,1.8,0.6c0.5,0.4,0.7,1,0.8,1.7h-1c0-0.4-0.2-0.8-0.5-1s-0.6-0.4-1-0.4
		c-0.6,0-1,0.2-1.3,0.6c-0.3,0.4-0.5,1-0.5,1.7v0.2c0,0.7,0.2,1.3,0.5,1.7S431.8,537.4,432.4,537.4z M437.9,536.6l1.5-4.8h1.2
		l-2.5,7.3c-0.4,1.1-1,1.6-1.9,1.6H436l-0.4-0.1v-0.9h0.3c0.4,0,0.7-0.1,0.9-0.2c0.2-0.1,0.4-0.4,0.5-0.8l0.2-0.7l-2.3-6.3h1.2
		L437.9,536.6z M444.3,534.8c0,0.9-0.1,1.7-0.3,2.5c-0.2,0.8-0.6,1.5-1.1,2.2s-1,1.2-1.5,1.4l-0.2-0.7c0.6-0.5,1.1-1.2,1.5-2.1
		c0.4-1,0.6-2.1,0.6-3.2v-0.2c0-0.8-0.1-1.6-0.3-2.3c-0.2-0.7-0.4-1.3-0.7-1.9c-0.3-0.6-0.6-1-1-1.3l0.2-0.7c0.5,0.3,1,0.8,1.5,1.4
		c0.5,0.6,0.8,1.4,1,2.2C444.2,533,444.3,533.9,444.3,534.8z"/>
	<path d="M165,108.4c-1-0.3-1.7-0.6-2.1-1c-0.4-0.4-0.7-0.9-0.7-1.5c0-0.7,0.3-1.2,0.8-1.7c0.5-0.4,1.2-0.7,2.1-0.7
		c0.6,0,1.1,0.1,1.6,0.3s0.8,0.5,1.1,0.9c0.3,0.4,0.4,0.8,0.4,1.3H167c0-0.5-0.2-0.9-0.5-1.2c-0.3-0.3-0.8-0.4-1.4-0.4
		c-0.6,0-1,0.1-1.3,0.4c-0.3,0.2-0.5,0.6-0.5,1s0.1,0.7,0.4,0.9c0.3,0.2,0.8,0.5,1.5,0.7s1.3,0.4,1.7,0.7c0.4,0.2,0.7,0.5,0.9,0.8
		s0.3,0.7,0.3,1.1c0,0.7-0.3,1.3-0.8,1.7c-0.5,0.4-1.3,0.6-2.2,0.6c-0.6,0-1.1-0.1-1.7-0.3c-0.5-0.2-0.9-0.5-1.2-0.9
		s-0.4-0.8-0.4-1.3h1.1c0,0.5,0.2,0.9,0.6,1.2s0.9,0.5,1.5,0.5s1-0.1,1.4-0.4c0.3-0.2,0.5-0.6,0.5-1s-0.1-0.7-0.4-1
		S165.8,108.6,165,108.4z M172,112.3c-0.9,0-1.6-0.3-2.1-0.8c-0.5-0.6-0.8-1.3-0.8-2.3V109c0-0.6,0.1-1.2,0.4-1.7
		c0.2-0.5,0.6-0.9,1-1.2c0.4-0.3,0.9-0.4,1.4-0.4c0.8,0,1.5,0.3,1.9,0.8s0.7,1.3,0.7,2.3v0.5h-4.3c0,0.6,0.2,1.1,0.5,1.5
		c0.4,0.4,0.8,0.6,1.3,0.6c0.4,0,0.7-0.1,1-0.2c0.3-0.2,0.5-0.4,0.7-0.6l0.7,0.5C173.8,111.9,173,112.3,172,112.3z M171.8,106.6
		c-0.4,0-0.8,0.2-1.1,0.5c-0.3,0.3-0.5,0.8-0.5,1.3h3.2v-0.1c0-0.6-0.2-1-0.5-1.3C172.6,106.8,172.3,106.6,171.8,106.6z
		 M177.9,111.4c0.4,0,0.7-0.1,1-0.3s0.5-0.5,0.5-0.9h1c0,0.4-0.2,0.7-0.4,1s-0.5,0.6-0.9,0.8c-0.4,0.2-0.8,0.3-1.2,0.3
		c-0.9,0-1.6-0.3-2.1-0.9c-0.5-0.6-0.8-1.4-0.8-2.4v-0.2c0-0.6,0.1-1.2,0.3-1.6c0.2-0.5,0.6-0.8,1-1.1s0.9-0.4,1.5-0.4
		c0.7,0,1.3,0.2,1.8,0.6c0.5,0.4,0.7,1,0.8,1.7h-1c0-0.4-0.2-0.8-0.5-1s-0.6-0.4-1-0.4c-0.6,0-1,0.2-1.3,0.6c-0.3,0.4-0.5,1-0.5,1.7
		v0.2c0,0.7,0.2,1.3,0.5,1.7S177.3,111.4,177.9,111.4z M181,109c0-0.6,0.1-1.2,0.4-1.7c0.2-0.5,0.6-0.9,1-1.1
		c0.4-0.3,0.9-0.4,1.5-0.4c0.9,0,1.6,0.3,2.1,0.9c0.5,0.6,0.8,1.4,0.8,2.4v0.1c0,0.6-0.1,1.2-0.4,1.7s-0.6,0.9-1,1.2
		c-0.4,0.3-0.9,0.4-1.5,0.4c-0.9,0-1.6-0.3-2.1-0.9C181.3,110.8,181,110,181,109L181,109z M182.1,109.1c0,0.7,0.2,1.3,0.5,1.7
		c0.3,0.4,0.8,0.6,1.3,0.6c0.6,0,1-0.2,1.3-0.6c0.3-0.4,0.5-1,0.5-1.8c0-0.7-0.2-1.2-0.5-1.7c-0.3-0.4-0.8-0.7-1.3-0.7
		s-1,0.2-1.3,0.6C182.3,107.7,182.1,108.3,182.1,109.1z M189.3,105.9v0.8c0.5-0.6,1.1-0.9,1.9-0.9c1.3,0,2,0.8,2,2.3v4.2h-1.1v-4.2
		c0-0.4-0.1-0.8-0.3-1s-0.5-0.3-1-0.3c-0.4,0-0.7,0.1-0.9,0.3c-0.3,0.2-0.5,0.4-0.6,0.7v4.5h-1.1V106h1.1L189.3,105.9L189.3,105.9z
		 M195.1,109c0-1,0.2-1.8,0.7-2.3c0.5-0.6,1.1-0.9,1.8-0.9s1.3,0.2,1.8,0.8v-3.3h1.1v9h-1v-0.7c-0.4,0.5-1,0.8-1.8,0.8
		c-0.7,0-1.3-0.3-1.8-0.9C195.3,110.8,195.1,110,195.1,109L195.1,109z M196.1,109.1c0,0.7,0.1,1.3,0.4,1.7c0.3,0.4,0.7,0.6,1.2,0.6
		c0.7,0,1.2-0.3,1.5-0.9v-2.9c-0.3-0.6-0.8-0.9-1.5-0.9c-0.5,0-0.9,0.2-1.2,0.6C196.3,107.7,196.1,108.3,196.1,109.1z M206.2,112.2
		c-0.1-0.1-0.1-0.3-0.2-0.7c-0.5,0.5-1.1,0.8-1.8,0.8c-0.6,0-1.1-0.2-1.5-0.5c-0.4-0.4-0.6-0.8-0.6-1.4c0-0.7,0.2-1.2,0.8-1.5
		s1.2-0.5,2.1-0.5h1v-0.5c0-0.4-0.1-0.7-0.3-0.9c-0.2-0.2-0.6-0.3-1-0.3s-0.7,0.1-1,0.3c-0.3,0.2-0.4,0.4-0.4,0.7h-1.1
		c0-0.3,0.1-0.6,0.3-0.9s0.5-0.5,0.9-0.7c0.4-0.2,0.8-0.3,1.3-0.3c0.7,0,1.3,0.2,1.7,0.5c0.4,0.4,0.6,0.9,0.7,1.5v2.9
		c0,0.6,0.1,1,0.2,1.4v0.1H206.2z M204.4,111.4c0.3,0,0.7-0.1,1-0.3s0.5-0.4,0.7-0.7v-1.3h-0.8c-1.3,0-2,0.4-2,1.2
		c0,0.3,0.1,0.6,0.3,0.8C203.8,111.3,204.1,111.4,204.4,111.4z M212.4,106.8c-0.2,0-0.3,0-0.5,0c-0.7,0-1.2,0.3-1.5,0.9v4.5h-1.1
		v-6.3h1v0.7c0.4-0.6,0.9-0.8,1.5-0.8c0.2,0,0.4,0,0.5,0.1v0.9C212.3,106.8,212.4,106.8,212.4,106.8z M215.4,110.6l1.5-4.8h1.2
		l-2.5,7.3c-0.4,1.1-1,1.6-1.9,1.6h-0.2H213v-0.9h0.3c0.4,0,0.7-0.1,0.9-0.2c0.2-0.1,0.4-0.4,0.5-0.8l0.2-0.7l-2.3-6.3h1.2
		L215.4,110.6z M223.7,112.2h-1.1v-8.5h1.1V112.2z M226.3,105.9v0.8c0.5-0.6,1.1-0.9,1.9-0.9c1.3,0,2,0.8,2,2.3v4.2h-1.1v-4.2
		c0-0.4-0.1-0.8-0.3-1s-0.5-0.3-1-0.3c-0.4,0-0.7,0.1-0.9,0.3c-0.3,0.2-0.5,0.4-0.6,0.7v4.5h-1.1V106h1.1L226.3,105.9L226.3,105.9z
		 M232.1,109c0-1,0.2-1.8,0.7-2.3c0.5-0.6,1.1-0.9,1.8-0.9s1.3,0.2,1.8,0.8v-3.3h1.1v9h-1v-0.7c-0.4,0.5-1,0.8-1.8,0.8
		c-0.7,0-1.3-0.3-1.8-0.9C232.3,110.8,232.1,110,232.1,109L232.1,109z M233.1,109.1c0,0.7,0.1,1.3,0.4,1.7c0.3,0.4,0.7,0.6,1.2,0.6
		c0.7,0,1.2-0.3,1.5-0.9v-2.9c-0.3-0.6-0.8-0.9-1.5-0.9c-0.5,0-0.9,0.2-1.2,0.6C233.3,107.7,233.1,108.3,233.1,109.1z M242,112.3
		c-0.9,0-1.6-0.3-2.1-0.8c-0.5-0.6-0.8-1.3-0.8-2.3V109c0-0.6,0.1-1.2,0.4-1.7c0.2-0.5,0.6-0.9,1-1.2c0.4-0.3,0.9-0.4,1.4-0.4
		c0.8,0,1.5,0.3,1.9,0.8s0.7,1.3,0.7,2.3v0.5h-4.3c0,0.6,0.2,1.1,0.5,1.5c0.4,0.4,0.8,0.6,1.3,0.6c0.4,0,0.7-0.1,1-0.2
		c0.3-0.2,0.5-0.4,0.7-0.6l0.7,0.5C243.8,111.9,243,112.3,242,112.3z M241.8,106.6c-0.4,0-0.8,0.2-1.1,0.5c-0.3,0.3-0.5,0.8-0.5,1.3
		h3.2v-0.1c0-0.6-0.2-1-0.5-1.3C242.6,106.8,242.3,106.6,241.8,106.6z M247.5,108.2l1.4-2.3h1.3l-2.1,3.1l2.1,3.2H249l-1.5-2.4
		l-1.5,2.4h-1.3l2.1-3.2l-2.1-3.1h1.2L247.5,108.2z M261,108.2c0,0.8-0.1,1.5-0.4,2.1s-0.6,1.1-1.1,1.4l1.5,1.2l-0.8,0.7l-1.8-1.4
		c-0.3,0.1-0.6,0.1-0.9,0.1c-0.7,0-1.3-0.2-1.8-0.5c-0.5-0.3-0.9-0.8-1.2-1.4c-0.3-0.6-0.4-1.3-0.4-2.1v-0.6c0-0.8,0.1-1.5,0.4-2.2
		c0.3-0.6,0.7-1.1,1.2-1.4c0.5-0.3,1.1-0.5,1.8-0.5s1.3,0.2,1.8,0.5c0.5,0.3,0.9,0.8,1.2,1.4c0.3,0.6,0.4,1.4,0.4,2.2L261,108.2
		L261,108.2z M259.9,107.7c0-1-0.2-1.8-0.6-2.3c-0.4-0.6-1-0.8-1.7-0.8s-1.3,0.3-1.7,0.8s-0.6,1.3-0.6,2.2v0.6c0,1,0.2,1.7,0.6,2.3
		c0.4,0.6,1,0.8,1.7,0.8s1.3-0.3,1.7-0.8c0.4-0.5,0.6-1.3,0.6-2.3V107.7z M266.2,111.6c-0.4,0.5-1,0.8-1.9,0.8
		c-0.7,0-1.2-0.2-1.5-0.6c-0.3-0.4-0.5-1-0.5-1.8v-4.1h1.1v4.1c0,1,0.4,1.5,1.2,1.5c0.8,0,1.4-0.3,1.7-0.9V106h1.1v6.3h-1
		L266.2,111.6z M272,112.3c-0.9,0-1.6-0.3-2.1-0.8c-0.5-0.6-0.8-1.3-0.8-2.3V109c0-0.6,0.1-1.2,0.4-1.7c0.2-0.5,0.6-0.9,1-1.2
		c0.4-0.3,0.9-0.4,1.4-0.4c0.8,0,1.5,0.3,1.9,0.8s0.7,1.3,0.7,2.3v0.5h-4.3c0,0.6,0.2,1.1,0.5,1.5c0.4,0.4,0.8,0.6,1.3,0.6
		c0.4,0,0.7-0.1,1-0.2c0.3-0.2,0.5-0.4,0.7-0.6l0.7,0.5C273.8,111.9,273,112.3,272,112.3z M271.8,106.6c-0.4,0-0.8,0.2-1.1,0.5
		c-0.3,0.3-0.5,0.8-0.5,1.3h3.2v-0.1c0-0.6-0.2-1-0.5-1.3C272.6,106.8,272.3,106.6,271.8,106.6z M278.4,106.8c-0.2,0-0.3,0-0.5,0
		c-0.7,0-1.2,0.3-1.5,0.9v4.5h-1.1v-6.3h1v0.7c0.4-0.6,0.9-0.8,1.5-0.8c0.2,0,0.4,0,0.5,0.1v0.9
		C278.3,106.8,278.4,106.8,278.4,106.8z M280.5,112.2h-1.1v-6.3h1.1V112.2z M279.3,104.2c0-0.2,0.1-0.3,0.2-0.5
		c0.1-0.1,0.3-0.2,0.5-0.2s0.4,0.1,0.5,0.2s0.2,0.3,0.2,0.5s-0.1,0.3-0.2,0.4s-0.3,0.2-0.5,0.2s-0.4-0.1-0.5-0.2
		S279.3,104.4,279.3,104.2z M285,112.3c-0.9,0-1.6-0.3-2.1-0.8c-0.5-0.6-0.8-1.3-0.8-2.3V109c0-0.6,0.1-1.2,0.4-1.7
		c0.2-0.5,0.6-0.9,1-1.2c0.4-0.3,0.9-0.4,1.4-0.4c0.8,0,1.5,0.3,1.9,0.8s0.7,1.3,0.7,2.3v0.5h-4.3c0,0.6,0.2,1.1,0.5,1.5
		c0.4,0.4,0.8,0.6,1.3,0.6c0.4,0,0.7-0.1,1-0.2c0.3-0.2,0.5-0.4,0.7-0.6l0.7,0.5C286.8,111.9,286,112.3,285,112.3z M284.8,106.6
		c-0.4,0-0.8,0.2-1.1,0.5c-0.3,0.3-0.5,0.8-0.5,1.3h3.2v-0.1c0-0.6-0.2-1-0.5-1.3C285.6,106.8,285.3,106.6,284.8,106.6z M292,110.5
		c0-0.3-0.1-0.5-0.3-0.7c-0.2-0.2-0.6-0.3-1.2-0.4c-0.5-0.1-1-0.3-1.3-0.4s-0.6-0.4-0.7-0.6s-0.2-0.5-0.2-0.8c0-0.5,0.2-1,0.7-1.3
		c0.4-0.4,1-0.5,1.7-0.5s1.3,0.2,1.7,0.6c0.4,0.4,0.7,0.8,0.7,1.4H292c0-0.3-0.1-0.5-0.4-0.8c-0.2-0.2-0.6-0.3-0.9-0.3
		c-0.4,0-0.7,0.1-0.9,0.3c-0.2,0.2-0.3,0.4-0.3,0.7s0.1,0.5,0.3,0.6s0.6,0.3,1.1,0.4c0.5,0.1,1,0.3,1.3,0.4s0.6,0.4,0.7,0.6
		c0.2,0.2,0.2,0.5,0.2,0.9c0,0.6-0.2,1-0.7,1.4c-0.4,0.3-1,0.5-1.8,0.5c-0.5,0-1-0.1-1.4-0.3c-0.4-0.2-0.7-0.4-0.9-0.8
		s-0.3-0.7-0.3-1h1.1c0,0.4,0.2,0.7,0.4,0.9c0.3,0.2,0.6,0.3,1.1,0.3c0.4,0,0.7-0.1,1-0.2S292,110.8,292,110.5z M302.7,109.1
		c0,1-0.2,1.7-0.7,2.3c-0.5,0.6-1,0.9-1.8,0.9s-1.4-0.2-1.8-0.7v3h-1.1v-8.8h1v0.7c0.4-0.5,1.1-0.8,1.8-0.8c0.8,0,1.4,0.3,1.8,0.9
		s0.7,1.4,0.7,2.4v0.1H302.7z M301.6,109c0-0.7-0.2-1.3-0.5-1.7s-0.7-0.6-1.2-0.6c-0.7,0-1.1,0.3-1.5,0.9v3c0.3,0.6,0.8,0.9,1.5,0.9
		c0.5,0,0.9-0.2,1.2-0.6C301.4,110.4,301.6,109.8,301.6,109z M307,112.3c-0.9,0-1.6-0.3-2.1-0.8c-0.5-0.6-0.8-1.3-0.8-2.3V109
		c0-0.6,0.1-1.2,0.4-1.7c0.2-0.5,0.6-0.9,1-1.2c0.4-0.3,0.9-0.4,1.4-0.4c0.8,0,1.5,0.3,1.9,0.8s0.7,1.3,0.7,2.3v0.5h-4.3
		c0,0.6,0.2,1.1,0.5,1.5c0.4,0.4,0.8,0.6,1.3,0.6c0.4,0,0.7-0.1,1-0.2c0.3-0.2,0.5-0.4,0.7-0.6l0.7,0.5
		C308.8,111.9,308,112.3,307,112.3z M306.8,106.6c-0.4,0-0.8,0.2-1.1,0.5c-0.3,0.3-0.5,0.8-0.5,1.3h3.2v-0.1c0-0.6-0.2-1-0.5-1.3
		C307.6,106.8,307.3,106.6,306.8,106.6z M313.4,106.8c-0.2,0-0.3,0-0.5,0c-0.7,0-1.2,0.3-1.5,0.9v4.5h-1.1v-6.3h1v0.7
		c0.4-0.6,0.9-0.8,1.5-0.8c0.2,0,0.4,0,0.5,0.1v0.9C313.3,106.8,313.4,106.8,313.4,106.8z M320,108.4c-1-0.3-1.7-0.6-2.1-1
		c-0.4-0.4-0.7-0.9-0.7-1.5c0-0.7,0.3-1.2,0.8-1.7c0.5-0.4,1.2-0.7,2.1-0.7c0.6,0,1.1,0.1,1.6,0.3s0.8,0.5,1.1,0.9
		c0.3,0.4,0.4,0.8,0.4,1.3H322c0-0.5-0.2-0.9-0.5-1.2c-0.3-0.3-0.8-0.4-1.4-0.4s-1,0.1-1.3,0.4c-0.3,0.2-0.5,0.6-0.5,1
		s0.1,0.7,0.4,0.9c0.3,0.2,0.8,0.5,1.5,0.7s1.3,0.4,1.7,0.7c0.4,0.2,0.7,0.5,0.9,0.8c0.2,0.3,0.3,0.7,0.3,1.1c0,0.7-0.3,1.3-0.8,1.7
		c-0.5,0.4-1.3,0.6-2.2,0.6c-0.6,0-1.1-0.1-1.7-0.3c-0.5-0.2-0.9-0.5-1.2-0.9c-0.3-0.4-0.4-0.8-0.4-1.3h1.1c0,0.5,0.2,0.9,0.6,1.2
		s0.9,0.5,1.5,0.5s1-0.1,1.4-0.4c0.3-0.2,0.5-0.6,0.5-1s-0.1-0.7-0.4-1S320.8,108.6,320,108.4z M327,112.3c-0.9,0-1.6-0.3-2.1-0.8
		c-0.5-0.6-0.8-1.3-0.8-2.3V109c0-0.6,0.1-1.2,0.4-1.7c0.2-0.5,0.6-0.9,1-1.2c0.4-0.3,0.9-0.4,1.4-0.4c0.8,0,1.5,0.3,1.9,0.8
		s0.7,1.3,0.7,2.3v0.5h-4.3c0,0.6,0.2,1.1,0.5,1.5c0.4,0.4,0.8,0.6,1.3,0.6c0.4,0,0.7-0.1,1-0.2c0.3-0.2,0.5-0.4,0.7-0.6l0.7,0.5
		C328.8,111.9,328,112.3,327,112.3z M326.8,106.6c-0.4,0-0.8,0.2-1.1,0.5c-0.3,0.3-0.5,0.8-0.5,1.3h3.2v-0.1c0-0.6-0.2-1-0.5-1.3
		C327.6,106.8,327.3,106.6,326.8,106.6z M332.9,111.4c0.4,0,0.7-0.1,1-0.3s0.5-0.5,0.5-0.9h1c0,0.4-0.2,0.7-0.4,1
		c-0.2,0.3-0.5,0.6-0.9,0.8c-0.4,0.2-0.8,0.3-1.2,0.3c-0.9,0-1.6-0.3-2.1-0.9c-0.5-0.6-0.8-1.4-0.8-2.4v-0.2c0-0.6,0.1-1.2,0.3-1.6
		c0.2-0.5,0.6-0.8,1-1.1s0.9-0.4,1.5-0.4c0.7,0,1.3,0.2,1.8,0.6c0.5,0.4,0.7,1,0.8,1.7h-1c0-0.4-0.2-0.8-0.5-1s-0.6-0.4-1-0.4
		c-0.6,0-1,0.2-1.3,0.6c-0.3,0.4-0.5,1-0.5,1.7v0.2c0,0.7,0.2,1.3,0.5,1.7S332.3,111.4,332.9,111.4z M336,109c0-0.6,0.1-1.2,0.4-1.7
		c0.2-0.5,0.6-0.9,1-1.1c0.4-0.3,0.9-0.4,1.5-0.4c0.9,0,1.6,0.3,2.1,0.9c0.5,0.6,0.8,1.4,0.8,2.4v0.1c0,0.6-0.1,1.2-0.4,1.7
		s-0.6,0.9-1,1.2c-0.4,0.3-0.9,0.4-1.5,0.4c-0.9,0-1.6-0.3-2.1-0.9C336.3,110.8,336,110,336,109L336,109z M337.1,109.1
		c0,0.7,0.2,1.3,0.5,1.7c0.3,0.4,0.8,0.6,1.3,0.6c0.6,0,1-0.2,1.3-0.6c0.3-0.4,0.5-1,0.5-1.8c0-0.7-0.2-1.2-0.5-1.7
		c-0.3-0.4-0.8-0.7-1.3-0.7s-1,0.2-1.3,0.6C337.3,107.7,337.1,108.3,337.1,109.1z M344.3,105.9v0.8c0.5-0.6,1.1-0.9,1.9-0.9
		c1.3,0,2,0.8,2,2.3v4.2h-1.1v-4.2c0-0.4-0.1-0.8-0.3-1c-0.2-0.2-0.5-0.3-1-0.3c-0.4,0-0.7,0.1-0.9,0.3c-0.3,0.2-0.5,0.4-0.6,0.7
		v4.5h-1.1V106h1.1V105.9z M350.1,109c0-1,0.2-1.8,0.7-2.3c0.5-0.6,1.1-0.9,1.8-0.9c0.7,0,1.3,0.2,1.8,0.8v-3.3h1.1v9h-1v-0.7
		c-0.4,0.5-1,0.8-1.8,0.8c-0.7,0-1.3-0.3-1.8-0.9C350.3,110.8,350.1,110,350.1,109L350.1,109z M351.1,109.1c0,0.7,0.1,1.3,0.4,1.7
		c0.3,0.4,0.7,0.6,1.2,0.6c0.7,0,1.2-0.3,1.5-0.9v-2.9c-0.3-0.6-0.8-0.9-1.5-0.9c-0.5,0-0.9,0.2-1.2,0.6
		C351.3,107.7,351.1,108.3,351.1,109.1z"/>
</g>
</svg>
