<?xml version="1.0" encoding="utf-8"?>
<!-- Generator: Adobe Illustrator 23.0.1, SVG Export Plug-In . SVG Version: 6.00 Build 0)  -->
<svg version="1.1" id="Layer_1" xmlns="http://www.w3.org/2000/svg" xmlns:xlink="http://www.w3.org/1999/xlink" x="0px" y="0px"
	 viewBox="0 0 516 565.7" style="enable-background:new 0 0 516 565.7;" xml:space="preserve">
<style type="text/css">
	.st0{fill:#FFFFFF;stroke:#E8E8E8;stroke-miterlimit:10;}
	.st1{fill:#F75821;}
	.st2{font-family:'Montserrat-SemiBold';}
	.st3{font-size:22px;}
	.st4{fill:none;stroke:#333333;stroke-miterlimit:10;}
	.st5{fill:#EEEEEE;}
	.st6{fill:none;stroke:#CCCCCC;stroke-miterlimit:10;}
	.st7{clip-path:url(#SVGID_2_);fill:#A13915;}
	.st8{clip-path:url(#SVGID_4_);fill:#F9794D;}
	.st9{clip-path:url(#SVGID_6_);fill:none;}
	.st10{clip-path:url(#SVGID_8_);fill:#F75821;}
	.st11{clip-path:url(#SVGID_10_);fill:#151B35;}
	.st12{clip-path:url(#SVGID_12_);fill:#4D5474;}
	.st13{clip-path:url(#SVGID_14_);fill:none;}
	.st14{clip-path:url(#SVGID_16_);fill:#202951;}
	.st15{fill:none;stroke:#F75821;stroke-width:3;stroke-linecap:round;stroke-linejoin:round;stroke-miterlimit:10;}
	.st16{fill:#FFFFFF;}
	.st17{fill:none;stroke:#202951;stroke-width:3;stroke-linecap:round;stroke-linejoin:round;stroke-miterlimit:10;}
	.st18{fill:#757575;}
	.st19{fill:#202951;}
</style>
<g>
	<g>
		<path class="st0" d="M507,0H10C4.5,0,0,4.5,0,10v545.7c0,5.5,4.5,10,10,10h497c5.5,0,10-4.5,10-10V10C517,4.5,512.5,0,507,0z"/>
		<text transform="matrix(1 0 0 1 87.3652 55.3822)" class="st1 st2 st3">5X Better Write Performance</text>
	</g>
	<path class="st4" d="M92.5,472.2h399"/>
	<path class="st5" d="M61.5,503.2l31-30h399l-31,30H61.5z"/>
	<path class="st6" d="M92.5,389.2h399"/>
	<path class="st6" d="M92.5,307.2h399"/>
	<path class="st6" d="M92.5,225.2h399"/>
	<path class="st6" d="M92.5,143.2h399"/>
	<g>
		<g>
			<defs>
				<rect id="SVGID_1_" x="61.3" y="142.7" width="430.4" height="360"/>
			</defs>
			<clipPath id="SVGID_2_">
				<use xlink:href="#SVGID_1_"  style="overflow:visible;"/>
			</clipPath>
			<path class="st7" d="M289,193.7v278l-26,26v-278L289,193.7z"/>
		</g>
	</g>
	<g>
		<g>
			<defs>
				<rect id="SVGID_3_" x="61.3" y="142.7" width="430.4" height="360"/>
			</defs>
			<clipPath id="SVGID_4_">
				<use xlink:href="#SVGID_3_"  style="overflow:visible;"/>
			</clipPath>
			<path class="st8" d="M263,219.7H160l26-26h103L263,219.7z"/>
		</g>
	</g>
	<g>
		<g>
			<defs>
				<rect id="SVGID_5_" x="61.3" y="142.7" width="430.4" height="360"/>
			</defs>
			<clipPath id="SVGID_6_">
				<use xlink:href="#SVGID_5_"  style="overflow:visible;"/>
			</clipPath>
			<path class="st9" d="M263,497.7H160v-278h103V497.7z"/>
		</g>
	</g>
	<g>
		<g>
			<defs>
				<rect id="SVGID_7_" x="61.3" y="142.7" width="430.4" height="360"/>
			</defs>
			<clipPath id="SVGID_8_">
				<use xlink:href="#SVGID_7_"  style="overflow:visible;"/>
			</clipPath>
			<path class="st10" d="M263,497.7H160v-278h103V497.7z"/>
		</g>
	</g>
	<g>
		<g>
			<defs>
				<rect id="SVGID_9_" x="61.3" y="142.7" width="430.4" height="360"/>
			</defs>
			<clipPath id="SVGID_10_">
				<use xlink:href="#SVGID_9_"  style="overflow:visible;"/>
			</clipPath>
			<path class="st11" d="M393,419.7v52l-26,26v-52L393,419.7z"/>
		</g>
	</g>
	<g>
		<g>
			<defs>
				<rect id="SVGID_11_" x="61.3" y="142.7" width="430.4" height="360"/>
			</defs>
			<clipPath id="SVGID_12_">
				<use xlink:href="#SVGID_11_"  style="overflow:visible;"/>
			</clipPath>
			<path class="st12" d="M367,445.7H264l26-26h103L367,445.7z"/>
		</g>
	</g>
	<g>
		<g>
			<defs>
				<rect id="SVGID_13_" x="61.3" y="142.7" width="430.4" height="360"/>
			</defs>
			<clipPath id="SVGID_14_">
				<use xlink:href="#SVGID_13_"  style="overflow:visible;"/>
			</clipPath>
			<path class="st13" d="M367,497.7H264v-52h103V497.7z"/>
		</g>
	</g>
	<g>
		<g>
			<defs>
				<rect id="SVGID_15_" x="61.3" y="142.7" width="430.4" height="360"/>
			</defs>
			<clipPath id="SVGID_16_">
				<use xlink:href="#SVGID_15_"  style="overflow:visible;"/>
			</clipPath>
			<path class="st14" d="M367,497.7H264v-52h103V497.7z"/>
		</g>
	</g>
	<path class="st15" d="M202,228.4v0.9h-0.2c-0.8,0-1.5,0.3-2,0.8s-0.8,1.2-0.9,2c0.5-0.5,1.1-0.8,1.8-0.8s1.3,0.3,1.8,0.8
		c0.4,0.5,0.7,1.2,0.7,2c0,0.9-0.2,1.6-0.7,2.1s-1.1,0.8-1.9,0.8s-1.5-0.3-2-0.9c-0.5-0.6-0.8-1.4-0.8-2.4v-0.4c0-1.6,0.3-2.8,1-3.6
		s1.7-1.3,3-1.3L202,228.4L202,228.4z M200.5,232.2c-0.4,0-0.7,0.1-1,0.3s-0.5,0.5-0.7,0.8v0.4c0,0.7,0.2,1.3,0.5,1.7
		s0.7,0.6,1.2,0.6s0.9-0.2,1.2-0.5c0.3-0.4,0.4-0.8,0.4-1.4c0-0.6-0.1-1.1-0.4-1.4C201.4,232.4,201,232.2,200.5,232.2z M204.8,238.6
		l-0.6-0.4c0.4-0.5,0.6-1,0.6-1.6v-1h1.1v0.8c0,0.4-0.1,0.8-0.3,1.2C205.3,238.1,205.1,238.4,204.8,238.6z M212.2,229l-3.5,7.9h-1.1
		l3.5-7.6h-4.6v-0.9h5.8L212.2,229L212.2,229z M214.2,232.6l0.4-4.2h4.4v1h-3.5l-0.3,2.3c0.4-0.2,0.9-0.4,1.4-0.4
		c0.8,0,1.4,0.3,1.8,0.8c0.5,0.5,0.7,1.2,0.7,2.1s-0.2,1.6-0.7,2.1s-1.1,0.8-2,0.8c-0.8,0-1.4-0.2-1.8-0.6c-0.5-0.4-0.8-1-0.8-1.8h1
		c0.1,0.5,0.2,0.9,0.5,1.1s0.7,0.4,1.1,0.4c0.5,0,0.9-0.2,1.2-0.5s0.4-0.8,0.4-1.4c0-0.6-0.2-1-0.5-1.4s-0.7-0.5-1.2-0.5
		s-0.8,0.1-1.1,0.3l-0.3,0.2L214.2,232.6z M226.1,233.3c0,1.3-0.2,2.2-0.7,2.8c-0.4,0.6-1.1,0.9-2,0.9s-1.6-0.3-2-0.9
		c-0.4-0.6-0.7-1.5-0.7-2.7V232c0-1.3,0.2-2.2,0.6-2.8c0.4-0.6,1.1-0.9,2-0.9s1.6,0.3,2,0.9c0.4,0.6,0.7,1.5,0.7,2.7L226.1,233.3
		L226.1,233.3z M225,231.8c0-0.9-0.1-1.6-0.4-2c-0.2-0.4-0.7-0.6-1.2-0.6c-0.6,0-1,0.2-1.2,0.6c-0.2,0.4-0.4,1.1-0.4,1.9v1.7
		c0,0.9,0.1,1.6,0.4,2c0.3,0.4,0.7,0.7,1.2,0.7s0.9-0.2,1.2-0.6c0.3-0.4,0.4-1.1,0.4-2V231.8z"/>
	<path class="st16" d="M202,228.4v0.9h-0.2c-0.8,0-1.5,0.3-2,0.8s-0.8,1.2-0.9,2c0.5-0.5,1.1-0.8,1.8-0.8s1.3,0.3,1.8,0.8
		c0.4,0.5,0.7,1.2,0.7,2c0,0.9-0.2,1.6-0.7,2.1s-1.1,0.8-1.9,0.8s-1.5-0.3-2-0.9c-0.5-0.6-0.8-1.4-0.8-2.4v-0.4c0-1.6,0.3-2.8,1-3.6
		s1.7-1.3,3-1.3L202,228.4L202,228.4z M200.5,232.2c-0.4,0-0.7,0.1-1,0.3s-0.5,0.5-0.7,0.8v0.4c0,0.7,0.2,1.3,0.5,1.7
		s0.7,0.6,1.2,0.6s0.9-0.2,1.2-0.5c0.3-0.4,0.4-0.8,0.4-1.4c0-0.6-0.1-1.1-0.4-1.4C201.4,232.4,201,232.2,200.5,232.2z M204.8,238.6
		l-0.6-0.4c0.4-0.5,0.6-1,0.6-1.6v-1h1.1v0.8c0,0.4-0.1,0.8-0.3,1.2C205.3,238.1,205.1,238.4,204.8,238.6z M212.2,229l-3.5,7.9h-1.1
		l3.5-7.6h-4.6v-0.9h5.8L212.2,229L212.2,229z M214.2,232.6l0.4-4.2h4.4v1h-3.5l-0.3,2.3c0.4-0.2,0.9-0.4,1.4-0.4
		c0.8,0,1.4,0.3,1.8,0.8c0.5,0.5,0.7,1.2,0.7,2.1s-0.2,1.6-0.7,2.1s-1.1,0.8-2,0.8c-0.8,0-1.4-0.2-1.8-0.6c-0.5-0.4-0.8-1-0.8-1.8h1
		c0.1,0.5,0.2,0.9,0.5,1.1s0.7,0.4,1.1,0.4c0.5,0,0.9-0.2,1.2-0.5s0.4-0.8,0.4-1.4c0-0.6-0.2-1-0.5-1.4s-0.7-0.5-1.2-0.5
		s-0.8,0.1-1.1,0.3l-0.3,0.2L214.2,232.6z M226.1,233.3c0,1.3-0.2,2.2-0.7,2.8c-0.4,0.6-1.1,0.9-2,0.9s-1.6-0.3-2-0.9
		c-0.4-0.6-0.7-1.5-0.7-2.7V232c0-1.3,0.2-2.2,0.6-2.8c0.4-0.6,1.1-0.9,2-0.9s1.6,0.3,2,0.9c0.4,0.6,0.7,1.5,0.7,2.7L226.1,233.3
		L226.1,233.3z M225,231.8c0-0.9-0.1-1.6-0.4-2c-0.2-0.4-0.7-0.6-1.2-0.6c-0.6,0-1,0.2-1.2,0.6c-0.2,0.4-0.4,1.1-0.4,1.9v1.7
		c0,0.9,0.1,1.6,0.4,2c0.3,0.4,0.7,0.7,1.2,0.7s0.9-0.2,1.2-0.6c0.3-0.4,0.4-1.1,0.4-2V231.8z"/>
	<path class="st17" d="M305.3,462.2h-1.1V455l-2.2,0.8v-1l3.1-1.2h0.2V462.2z M308.8,463.9l-0.6-0.4c0.4-0.5,0.6-1,0.6-1.6v-1h1.1
		v0.8c0,0.4-0.1,0.8-0.3,1.2S309.1,463.7,308.8,463.9z M316.3,462.2h-5.6v-0.8l3-3.3c0.4-0.5,0.7-0.9,0.9-1.2c0.2-0.3,0.2-0.6,0.2-1
		c0-0.4-0.1-0.8-0.4-1.1c-0.3-0.3-0.6-0.4-1.1-0.4s-0.9,0.2-1.2,0.5c-0.3,0.3-0.5,0.7-0.5,1.3h-1.1c0-0.8,0.2-1.4,0.8-1.9
		c0.5-0.5,1.2-0.7,2-0.7s1.4,0.2,1.9,0.6c0.5,0.4,0.7,1,0.7,1.7c0,0.8-0.5,1.8-1.6,3l-2.3,2.5h4.3L316.3,462.2L316.3,462.2z
		 M323.2,454.3l-3.5,7.9h-1.1l3.5-7.6h-4.6v-0.9h5.8L323.2,454.3L323.2,454.3z M330.3,462.2h-5.6v-0.8l3-3.3
		c0.4-0.5,0.7-0.9,0.9-1.2c0.2-0.3,0.2-0.6,0.2-1c0-0.4-0.1-0.8-0.4-1.1c-0.3-0.3-0.6-0.4-1.1-0.4s-0.9,0.2-1.2,0.5
		c-0.3,0.3-0.5,0.7-0.5,1.3h-1.1c0-0.8,0.2-1.4,0.8-1.9c0.5-0.5,1.2-0.7,2-0.7s1.4,0.2,1.9,0.6c0.5,0.4,0.7,1,0.7,1.7
		c0,0.8-0.5,1.8-1.6,3l-2.3,2.5h4.3L330.3,462.2L330.3,462.2z"/>
	<path class="st16" d="M305.3,462.2h-1.1V455l-2.2,0.8v-1l3.1-1.2h0.2V462.2z M308.8,463.9l-0.6-0.4c0.4-0.5,0.6-1,0.6-1.6v-1h1.1
		v0.8c0,0.4-0.1,0.8-0.3,1.2S309.1,463.7,308.8,463.9z M316.3,462.2h-5.6v-0.8l3-3.3c0.4-0.5,0.7-0.9,0.9-1.2c0.2-0.3,0.2-0.6,0.2-1
		c0-0.4-0.1-0.8-0.4-1.1c-0.3-0.3-0.6-0.4-1.1-0.4s-0.9,0.2-1.2,0.5c-0.3,0.3-0.5,0.7-0.5,1.3h-1.1c0-0.8,0.2-1.4,0.8-1.9
		c0.5-0.5,1.2-0.7,2-0.7s1.4,0.2,1.9,0.6c0.5,0.4,0.7,1,0.7,1.7c0,0.8-0.5,1.8-1.6,3l-2.3,2.5h4.3L316.3,462.2L316.3,462.2z
		 M323.2,454.3l-3.5,7.9h-1.1l3.5-7.6h-4.6v-0.9h5.8L323.2,454.3L323.2,454.3z M330.3,462.2h-5.6v-0.8l3-3.3
		c0.4-0.5,0.7-0.9,0.9-1.2c0.2-0.3,0.2-0.6,0.2-1c0-0.4-0.1-0.8-0.4-1.1c-0.3-0.3-0.6-0.4-1.1-0.4s-0.9,0.2-1.2,0.5
		c-0.3,0.3-0.5,0.7-0.5,1.3h-1.1c0-0.8,0.2-1.4,0.8-1.9c0.5-0.5,1.2-0.7,2-0.7s1.4,0.2,1.9,0.6c0.5,0.4,0.7,1,0.7,1.7
		c0,0.8-0.5,1.8-1.6,3l-2.3,2.5h4.3L330.3,462.2L330.3,462.2z"/>
	<path class="st18" d="M54.4,472.6c0,1.3-0.2,2.2-0.7,2.8c-0.4,0.6-1.1,0.9-2,0.9s-1.6-0.3-2-0.9c-0.4-0.6-0.7-1.5-0.7-2.7v-1.4
		c0-1.3,0.2-2.2,0.6-2.8c0.4-0.6,1.1-0.9,2-0.9s1.6,0.3,2,0.9c0.4,0.6,0.7,1.5,0.7,2.7v1.4H54.4z M53.3,471.1c0-0.9-0.1-1.6-0.4-2
		c-0.2-0.4-0.7-0.6-1.2-0.6c-0.6,0-1,0.2-1.2,0.6c-0.2,0.4-0.4,1.1-0.4,1.9v1.7c0,0.9,0.1,1.6,0.4,2c0.3,0.4,0.7,0.7,1.2,0.7
		s0.9-0.2,1.2-0.6c0.3-0.4,0.4-1.1,0.4-2V471.1z"/>
	<path class="st18" d="M31.6,393.9H26v-0.8l3-3.3c0.4-0.5,0.7-0.9,0.9-1.2c0.2-0.3,0.2-0.6,0.2-1c0-0.4-0.1-0.8-0.4-1.1
		c-0.3-0.3-0.6-0.4-1.1-0.4s-0.9,0.2-1.2,0.5c-0.3,0.3-0.5,0.7-0.5,1.3h-1.1c0-0.8,0.2-1.4,0.8-1.9c0.5-0.5,1.2-0.7,2-0.7
		s1.4,0.2,1.9,0.6c0.5,0.4,0.7,1,0.7,1.7c0,0.8-0.5,1.8-1.6,3l-2.3,2.5h4.3C31.6,393.1,31.6,393.9,31.6,393.9z M33.1,395.7l-0.6-0.4
		c0.4-0.5,0.6-1,0.6-1.6v-1h1.1v0.8c0,0.4-0.1,0.8-0.3,1.2C33.6,395.1,33.4,395.4,33.1,395.7z M40.4,390.3c0,1.3-0.2,2.2-0.7,2.8
		c-0.4,0.6-1.1,0.9-2,0.9s-1.6-0.3-2-0.9c-0.4-0.6-0.7-1.4-0.7-2.6v-1.4c0-1.3,0.2-2.2,0.6-2.8c0.4-0.6,1.1-0.9,2-0.9s1.6,0.3,2,0.9
		c0.4,0.6,0.7,1.5,0.7,2.7v1.3H40.4z M39.3,388.8c0-0.9-0.1-1.6-0.4-2c-0.2-0.4-0.7-0.6-1.2-0.6c-0.6,0-1,0.2-1.2,0.6
		c-0.2,0.4-0.4,1.1-0.4,1.9v1.7c0,0.9,0.1,1.6,0.4,2c0.3,0.4,0.7,0.7,1.2,0.7s0.9-0.2,1.2-0.6c0.3-0.4,0.4-1.1,0.4-2V388.8z
		 M47.4,390.3c0,1.3-0.2,2.2-0.7,2.8c-0.4,0.6-1.1,0.9-2,0.9s-1.6-0.3-2-0.9c-0.4-0.6-0.7-1.4-0.7-2.6v-1.4c0-1.3,0.2-2.2,0.6-2.8
		c0.4-0.6,1.1-0.9,2-0.9s1.6,0.3,2,0.9c0.4,0.6,0.7,1.5,0.7,2.7v1.3H47.4z M46.3,388.8c0-0.9-0.1-1.6-0.4-2
		c-0.2-0.4-0.7-0.6-1.2-0.6c-0.6,0-1,0.2-1.2,0.6c-0.2,0.4-0.4,1.1-0.4,1.9v1.7c0,0.9,0.1,1.6,0.4,2c0.3,0.4,0.7,0.7,1.2,0.7
		s0.9-0.2,1.2-0.6c0.3-0.4,0.4-1.1,0.4-2V388.8z M54.4,390.3c0,1.3-0.2,2.2-0.7,2.8c-0.4,0.6-1.1,0.9-2,0.9s-1.6-0.3-2-0.9
		c-0.4-0.6-0.7-1.4-0.7-2.6v-1.4c0-1.3,0.2-2.2,0.6-2.8c0.4-0.6,1.1-0.9,2-0.9s1.6,0.3,2,0.9c0.4,0.6,0.7,1.5,0.7,2.7v1.3H54.4z
		 M53.3,388.8c0-0.9-0.1-1.6-0.4-2c-0.2-0.4-0.7-0.6-1.2-0.6c-0.6,0-1,0.2-1.2,0.6c-0.2,0.4-0.4,1.1-0.4,1.9v1.7
		c0,0.9,0.1,1.6,0.4,2c0.3,0.4,0.7,0.7,1.2,0.7s0.9-0.2,1.2-0.6c0.3-0.4,0.4-1.1,0.4-2V388.8z"/>
	<path class="st18" d="M30.6,308.8h1.2v0.9h-1.2v2h-1.1v-2h-3.9v-0.6l3.8-5.9h1.2V308.8z M26.8,308.8h2.7v-4.1l-0.1,0.2L26.8,308.8z
		 M33.1,313.4l-0.6-0.4c0.4-0.5,0.6-1,0.6-1.6v-1h1.1v0.8c0,0.4-0.1,0.8-0.3,1.2C33.6,312.8,33.4,313.2,33.1,313.4z M40.4,308.1
		c0,1.3-0.2,2.2-0.7,2.8c-0.4,0.6-1.1,0.9-2,0.9s-1.6-0.3-2-0.9s-0.7-1.5-0.7-2.7v-1.4c0-1.3,0.2-2.2,0.6-2.8c0.4-0.6,1.1-0.9,2-0.9
		s1.6,0.3,2,0.9c0.4,0.6,0.7,1.5,0.7,2.7v1.4H40.4z M39.3,306.6c0-0.9-0.1-1.6-0.4-2c-0.2-0.4-0.7-0.6-1.2-0.6c-0.6,0-1,0.2-1.2,0.6
		c-0.2,0.4-0.4,1.1-0.4,1.9v1.7c0,0.9,0.1,1.6,0.4,2c0.3,0.4,0.7,0.7,1.2,0.7s0.9-0.2,1.2-0.6c0.3-0.4,0.4-1.1,0.4-2V306.6z
		 M47.4,308.1c0,1.3-0.2,2.2-0.7,2.8c-0.4,0.6-1.1,0.9-2,0.9s-1.6-0.3-2-0.9s-0.7-1.5-0.7-2.7v-1.4c0-1.3,0.2-2.2,0.6-2.8
		c0.4-0.6,1.1-0.9,2-0.9s1.6,0.3,2,0.9c0.4,0.6,0.7,1.5,0.7,2.7v1.4H47.4z M46.3,306.6c0-0.9-0.1-1.6-0.4-2
		c-0.2-0.4-0.7-0.6-1.2-0.6c-0.6,0-1,0.2-1.2,0.6c-0.2,0.4-0.4,1.1-0.4,1.9v1.7c0,0.9,0.1,1.6,0.4,2c0.3,0.4,0.7,0.7,1.2,0.7
		s0.9-0.2,1.2-0.6c0.3-0.4,0.4-1.1,0.4-2V306.6z M54.4,308.1c0,1.3-0.2,2.2-0.7,2.8c-0.4,0.6-1.1,0.9-2,0.9s-1.6-0.3-2-0.9
		s-0.7-1.5-0.7-2.7v-1.4c0-1.3,0.2-2.2,0.6-2.8c0.4-0.6,1.1-0.9,2-0.9s1.6,0.3,2,0.9c0.4,0.6,0.7,1.5,0.7,2.7v1.4H54.4z M53.3,306.6
		c0-0.9-0.1-1.6-0.4-2c-0.2-0.4-0.7-0.6-1.2-0.6c-0.6,0-1,0.2-1.2,0.6c-0.2,0.4-0.4,1.1-0.4,1.9v1.7c0,0.9,0.1,1.6,0.4,2
		c0.3,0.4,0.7,0.7,1.2,0.7s0.9-0.2,1.2-0.6c0.3-0.4,0.4-1.1,0.4-2V306.6z"/>
	<path class="st18" d="M30.3,220.9v0.9h-0.2c-0.8,0-1.5,0.3-2,0.8s-0.8,1.2-0.9,2c0.5-0.5,1.1-0.8,1.8-0.8c0.7,0,1.3,0.3,1.8,0.8
		c0.4,0.5,0.7,1.2,0.7,2c0,0.9-0.2,1.6-0.7,2.1s-1.1,0.8-1.9,0.8s-1.5-0.3-2-0.9c-0.5-0.6-0.8-1.4-0.8-2.4v-0.4c0-1.6,0.3-2.8,1-3.6
		s1.7-1.3,3-1.3L30.3,220.9L30.3,220.9z M28.8,224.8c-0.4,0-0.7,0.1-1,0.3s-0.5,0.5-0.7,0.8v0.4c0,0.7,0.2,1.3,0.5,1.7
		s0.7,0.6,1.2,0.6s0.9-0.2,1.2-0.5c0.3-0.4,0.4-0.8,0.4-1.4c0-0.6-0.1-1.1-0.4-1.4C29.7,224.9,29.3,224.8,28.8,224.8z M33.1,231.2
		l-0.6-0.4c0.4-0.5,0.6-1,0.6-1.6v-1h1.1v0.8c0,0.4-0.1,0.8-0.3,1.2C33.6,230.6,33.4,230.9,33.1,231.2z M40.4,225.8
		c0,1.3-0.2,2.2-0.7,2.8c-0.4,0.6-1.1,0.9-2,0.9s-1.6-0.3-2-0.9s-0.7-1.5-0.7-2.7v-1.4c0-1.3,0.2-2.2,0.6-2.8c0.4-0.6,1.1-0.9,2-0.9
		s1.6,0.3,2,0.9c0.4,0.6,0.7,1.5,0.7,2.7v1.4H40.4z M39.3,224.3c0-0.9-0.1-1.6-0.4-2c-0.2-0.4-0.7-0.6-1.2-0.6c-0.6,0-1,0.2-1.2,0.6
		c-0.2,0.4-0.4,1.1-0.4,1.9v1.7c0,0.9,0.1,1.6,0.4,2c0.3,0.4,0.7,0.7,1.2,0.7s0.9-0.2,1.2-0.6c0.3-0.4,0.4-1.1,0.4-2V224.3z
		 M47.4,225.8c0,1.3-0.2,2.2-0.7,2.8c-0.4,0.6-1.1,0.9-2,0.9s-1.6-0.3-2-0.9s-0.7-1.5-0.7-2.7v-1.4c0-1.3,0.2-2.2,0.6-2.8
		c0.4-0.6,1.1-0.9,2-0.9s1.6,0.3,2,0.9c0.4,0.6,0.7,1.5,0.7,2.7v1.4H47.4z M46.3,224.3c0-0.9-0.1-1.6-0.4-2
		c-0.2-0.4-0.7-0.6-1.2-0.6c-0.6,0-1,0.2-1.2,0.6c-0.2,0.4-0.4,1.1-0.4,1.9v1.7c0,0.9,0.1,1.6,0.4,2c0.3,0.4,0.7,0.7,1.2,0.7
		s0.9-0.2,1.2-0.6c0.3-0.4,0.4-1.1,0.4-2V224.3z M54.4,225.8c0,1.3-0.2,2.2-0.7,2.8c-0.4,0.6-1.1,0.9-2,0.9s-1.6-0.3-2-0.9
		s-0.7-1.5-0.7-2.7v-1.4c0-1.3,0.2-2.2,0.6-2.8c0.4-0.6,1.1-0.9,2-0.9s1.6,0.3,2,0.9c0.4,0.6,0.7,1.5,0.7,2.7v1.4H54.4z M53.3,224.3
		c0-0.9-0.1-1.6-0.4-2c-0.2-0.4-0.7-0.6-1.2-0.6c-0.6,0-1,0.2-1.2,0.6c-0.2,0.4-0.4,1.1-0.4,1.9v1.7c0,0.9,0.1,1.6,0.4,2
		c0.3,0.4,0.7,0.7,1.2,0.7s0.9-0.2,1.2-0.6c0.3-0.4,0.4-1.1,0.4-2V224.3z"/>
	<path class="st18" d="M31.2,140.9c0,0.4-0.1,0.8-0.3,1.1c-0.2,0.3-0.5,0.6-0.9,0.8c0.4,0.2,0.8,0.5,1,0.8c0.3,0.4,0.4,0.8,0.4,1.2
		c0,0.7-0.3,1.3-0.8,1.8c-0.5,0.4-1.1,0.7-2,0.7c-0.8,0-1.5-0.2-2-0.7c-0.5-0.4-0.7-1-0.7-1.8c0-0.5,0.1-0.9,0.4-1.2
		c0.2-0.4,0.6-0.7,1-0.8c-0.4-0.2-0.7-0.4-0.9-0.8c-0.2-0.3-0.3-0.7-0.3-1.1c0-0.7,0.2-1.3,0.7-1.7s1.1-0.6,1.8-0.6
		c0.7,0,1.4,0.2,1.8,0.6C31,139.6,31.2,140.2,31.2,140.9z M30.3,144.9c0-0.5-0.2-0.9-0.5-1.2s-0.7-0.5-1.2-0.5s-0.9,0.2-1.2,0.5
		c-0.3,0.3-0.4,0.7-0.4,1.2s0.1,0.9,0.4,1.1c0.3,0.3,0.7,0.4,1.2,0.4s0.9-0.1,1.2-0.4C30.2,145.7,30.3,145.4,30.3,144.9z
		 M28.7,139.4c-0.4,0-0.8,0.1-1,0.4c-0.3,0.3-0.4,0.6-0.4,1.1c0,0.4,0.1,0.8,0.4,1c0.3,0.3,0.6,0.4,1,0.4s0.8-0.1,1-0.4
		c0.3-0.3,0.4-0.6,0.4-1c0-0.4-0.1-0.8-0.4-1.1C29.4,139.6,29.1,139.4,28.7,139.4z M33.1,148.9l-0.6-0.4c0.4-0.5,0.6-1,0.6-1.6v-1
		h1.1v0.8c0,0.4-0.1,0.8-0.3,1.2C33.6,148.3,33.4,148.7,33.1,148.9z M40.4,143.6c0,1.3-0.2,2.2-0.7,2.8c-0.4,0.6-1.1,0.9-2,0.9
		s-1.6-0.3-2-0.9c-0.4-0.6-0.7-1.5-0.7-2.7v-1.4c0-1.3,0.2-2.2,0.6-2.8c0.4-0.6,1.1-0.9,2-0.9s1.6,0.3,2,0.9
		c0.4,0.6,0.7,1.5,0.7,2.7v1.4H40.4z M39.3,142.1c0-0.9-0.1-1.6-0.4-2c-0.2-0.4-0.7-0.6-1.2-0.6c-0.6,0-1,0.2-1.2,0.6
		c-0.2,0.4-0.4,1.1-0.4,1.9v1.7c0,0.9,0.1,1.6,0.4,2c0.3,0.4,0.7,0.7,1.2,0.7s0.9-0.2,1.2-0.6c0.3-0.4,0.4-1.1,0.4-2V142.1z
		 M47.4,143.6c0,1.3-0.2,2.2-0.7,2.8c-0.4,0.6-1.1,0.9-2,0.9s-1.6-0.3-2-0.9c-0.4-0.6-0.7-1.5-0.7-2.7v-1.4c0-1.3,0.2-2.2,0.6-2.8
		c0.4-0.6,1.1-0.9,2-0.9s1.6,0.3,2,0.9c0.4,0.6,0.7,1.5,0.7,2.7v1.4H47.4z M46.3,142.1c0-0.9-0.1-1.6-0.4-2
		c-0.2-0.4-0.7-0.6-1.2-0.6c-0.6,0-1,0.2-1.2,0.6c-0.2,0.4-0.4,1.1-0.4,1.9v1.7c0,0.9,0.1,1.6,0.4,2c0.3,0.4,0.7,0.7,1.2,0.7
		s0.9-0.2,1.2-0.6c0.3-0.4,0.4-1.1,0.4-2V142.1z M54.4,143.6c0,1.3-0.2,2.2-0.7,2.8c-0.4,0.6-1.1,0.9-2,0.9s-1.6-0.3-2-0.9
		c-0.4-0.6-0.7-1.5-0.7-2.7v-1.4c0-1.3,0.2-2.2,0.6-2.8c0.4-0.6,1.1-0.9,2-0.9s1.6,0.3,2,0.9c0.4,0.6,0.7,1.5,0.7,2.7v1.4H54.4z
		 M53.3,142.1c0-0.9-0.1-1.6-0.4-2c-0.2-0.4-0.7-0.6-1.2-0.6c-0.6,0-1,0.2-1.2,0.6c-0.2,0.4-0.4,1.1-0.4,1.9v1.7
		c0,0.9,0.1,1.6,0.4,2c0.3,0.4,0.7,0.7,1.2,0.7s0.9-0.2,1.2-0.6c0.3-0.4,0.4-1.1,0.4-2V142.1z"/>
	<path class="st1" d="M58.5,528.9c0-0.6,0.4-1,1-1h10c0.6,0,1,0.4,1,1v10c0,0.6-0.4,1-1,1h-10c-0.6,0-1-0.4-1-1V528.9z"/>
	<path class="st18" d="M82.1,534.2l2.2-4.3h1.3l-2.9,5.3v3.2h-1.1v-3.2l-2.9-5.3H80L82.1,534.2z M90.2,537.8c-0.4,0.5-1,0.8-1.9,0.8
		c-0.7,0-1.2-0.2-1.5-0.6c-0.4-0.4-0.5-1-0.5-1.8v-4.1h1.1v4.1c0,1,0.4,1.5,1.2,1.5c0.8,0,1.4-0.3,1.7-0.9v-4.6h1.1v6.3h-1
		L90.2,537.8z M93.1,535.2c0-1,0.2-1.8,0.7-2.4c0.5-0.6,1.1-0.9,1.8-0.9c0.8,0,1.4,0.3,1.8,0.8V532h1v6.2c0,0.8-0.2,1.5-0.7,1.9
		c-0.5,0.5-1.1,0.7-2,0.7c-0.5,0-0.9-0.1-1.3-0.3s-0.8-0.5-1-0.8L94,539c0.5,0.6,1,0.9,1.7,0.9c0.5,0,0.9-0.2,1.2-0.5
		c0.3-0.3,0.5-0.7,0.5-1.2v-0.5c-0.4,0.5-1,0.8-1.8,0.8c-0.7,0-1.3-0.3-1.8-0.9C93.3,537,93.1,536.2,93.1,535.2z M94.2,535.3
		c0,0.7,0.1,1.3,0.4,1.7s0.7,0.6,1.2,0.6c0.7,0,1.2-0.3,1.5-0.9v-2.9c-0.3-0.6-0.8-0.9-1.5-0.9c-0.5,0-0.9,0.2-1.2,0.6
		C94.3,533.9,94.2,534.5,94.2,535.3z M104.2,538.4c-0.1-0.1-0.1-0.3-0.2-0.7c-0.5,0.5-1.1,0.8-1.8,0.8c-0.6,0-1.1-0.2-1.5-0.5
		c-0.4-0.4-0.6-0.8-0.6-1.4c0-0.7,0.2-1.2,0.8-1.5c0.5-0.4,1.2-0.5,2.1-0.5h1v-0.5c0-0.4-0.1-0.7-0.3-0.9c-0.2-0.2-0.6-0.3-1-0.3
		s-0.7,0.1-1,0.3s-0.4,0.4-0.4,0.7h-1.1c0-0.3,0.1-0.6,0.3-0.9c0.2-0.3,0.5-0.5,0.9-0.7s0.8-0.3,1.3-0.3c0.7,0,1.3,0.2,1.7,0.5
		c0.4,0.4,0.6,0.9,0.7,1.5v2.9c0,0.6,0.1,1,0.2,1.4v0.1H104.2z M102.4,537.6c0.3,0,0.7-0.1,1-0.3s0.5-0.4,0.7-0.7v-1.3h-0.8
		c-1.3,0-2,0.4-2,1.2c0,0.3,0.1,0.6,0.3,0.8C101.8,537.5,102.1,537.6,102.4,537.6z M107.5,538.4v-8.5h2.8c0.9,0,1.6,0.2,2.1,0.6
		c0.5,0.4,0.7,0.9,0.7,1.7c0,0.4-0.1,0.8-0.3,1.1c-0.2,0.3-0.5,0.5-0.9,0.7c0.5,0.1,0.8,0.4,1.1,0.7c0.3,0.4,0.4,0.8,0.4,1.3
		c0,0.8-0.2,1.4-0.8,1.8c-0.5,0.4-1.2,0.7-2.1,0.7h-3V538.4z M108.6,534.4v3.1h1.9c0.5,0,0.9-0.1,1.2-0.4c0.3-0.3,0.5-0.6,0.5-1.1
		c0-1-0.6-1.5-1.7-1.5L108.6,534.4L108.6,534.4z M108.6,533.5h1.7c0.5,0,0.9-0.1,1.2-0.4c0.3-0.2,0.5-0.6,0.5-1c0-0.5-0.1-0.8-0.4-1
		s-0.7-0.3-1.2-0.3h-1.7L108.6,533.5L108.6,533.5z M116.4,536.8l1.5-4.8h1.2l-2.5,7.3c-0.4,1.1-1,1.6-1.9,1.6h-0.2l-0.4-0.1v-0.9
		h0.3c0.4,0,0.7-0.1,0.9-0.2c0.2-0.1,0.4-0.4,0.5-0.8l0.2-0.7l-2.3-6.3h1.2L116.4,536.8z M121.8,530.5v1.5h1.2v0.8h-1.2v3.9
		c0,0.3,0.1,0.5,0.2,0.6c0.1,0.1,0.3,0.2,0.5,0.2c0.1,0,0.3,0,0.5-0.1v0.9c-0.3,0.1-0.6,0.1-0.8,0.1c-0.5,0-0.8-0.1-1.1-0.4
		c-0.2-0.3-0.4-0.7-0.4-1.3v-3.9h-1.2V532h1.2v-1.5H121.8L121.8,530.5z M127,538.5c-0.9,0-1.6-0.3-2.1-0.8c-0.5-0.6-0.8-1.3-0.8-2.3
		v-0.2c0-0.6,0.1-1.2,0.4-1.7c0.2-0.5,0.6-0.9,1-1.2s0.9-0.4,1.4-0.4c0.8,0,1.5,0.3,1.9,0.8c0.5,0.5,0.7,1.3,0.7,2.3v0.5h-4.3
		c0,0.6,0.2,1.1,0.5,1.5c0.4,0.4,0.8,0.6,1.3,0.6c0.4,0,0.7-0.1,1-0.2c0.3-0.2,0.5-0.4,0.7-0.6l0.7,0.5
		C128.8,538.1,128,538.5,127,538.5z M126.8,532.8c-0.4,0-0.8,0.2-1.1,0.5c-0.3,0.3-0.5,0.8-0.5,1.3h3.2v-0.1c0-0.6-0.2-1-0.5-1.3
		C127.6,533,127.3,532.8,126.8,532.8z M133.5,538.4v-8.5h2.4c0.7,0,1.4,0.2,2,0.5s1,0.8,1.3,1.4c0.3,0.6,0.5,1.3,0.5,2.1v0.5
		c0,0.8-0.2,1.5-0.5,2.1c-0.3,0.6-0.7,1.1-1.3,1.4s-1.2,0.5-2,0.5H133.5z M134.6,530.8v6.7h1.2c0.9,0,1.5-0.3,2-0.8s0.7-1.3,0.7-2.3
		v-0.5c0-1-0.2-1.7-0.7-2.2c-0.4-0.5-1.1-0.8-1.9-0.8h-1.3V530.8z M141.5,538.4v-8.5h2.8c0.9,0,1.6,0.2,2.1,0.6
		c0.5,0.4,0.7,0.9,0.7,1.7c0,0.4-0.1,0.8-0.3,1.1c-0.2,0.3-0.5,0.5-0.9,0.7c0.5,0.1,0.8,0.4,1.1,0.7c0.3,0.4,0.4,0.8,0.4,1.3
		c0,0.8-0.2,1.4-0.8,1.8c-0.5,0.4-1.2,0.7-2.1,0.7h-3V538.4z M142.6,534.4v3.1h1.9c0.5,0,0.9-0.1,1.2-0.4s0.5-0.6,0.5-1.1
		c0-1-0.6-1.5-1.7-1.5L142.6,534.4L142.6,534.4z M142.6,533.5h1.7c0.5,0,0.9-0.1,1.2-0.4c0.3-0.2,0.5-0.6,0.5-1c0-0.5-0.1-0.8-0.4-1
		c-0.3-0.2-0.7-0.3-1.2-0.3h-1.7v2.7H142.6z M151.3,534.9c0-0.9,0.1-1.7,0.3-2.5s0.6-1.6,1.1-2.2c0.5-0.7,1-1.1,1.5-1.4l0.2,0.7
		c-0.6,0.4-1,1.1-1.4,2c-0.4,0.9-0.6,1.9-0.6,3v0.5c0,1.5,0.3,2.8,0.8,3.9c0.3,0.7,0.7,1.2,1.2,1.6l-0.2,0.7c-0.5-0.3-1-0.8-1.5-1.5
		C151.7,538.4,151.3,536.8,151.3,534.9z M158.8,538.4h-1.1v-7.2l-2.2,0.8v-1l3.1-1.2h0.2V538.4z M167.4,532.1c0,0.4-0.1,0.8-0.3,1.1
		c-0.2,0.3-0.5,0.6-0.9,0.8c0.4,0.2,0.8,0.5,1,0.8c0.3,0.4,0.4,0.8,0.4,1.2c0,0.7-0.2,1.3-0.8,1.8c-0.5,0.4-1.1,0.7-2,0.7
		c-0.8,0-1.5-0.2-2-0.7c-0.5-0.4-0.7-1-0.7-1.8c0-0.5,0.1-0.9,0.4-1.2c0.2-0.4,0.6-0.7,1-0.8c-0.4-0.2-0.7-0.4-0.9-0.8
		c-0.2-0.3-0.3-0.7-0.3-1.1c0-0.7,0.2-1.3,0.7-1.7c0.5-0.4,1.1-0.6,1.8-0.6c0.8,0,1.4,0.2,1.8,0.6
		C167.2,530.8,167.4,531.4,167.4,532.1z M166.5,536.1c0-0.5-0.2-0.9-0.5-1.2c-0.3-0.3-0.7-0.5-1.2-0.5s-0.9,0.2-1.2,0.5
		s-0.4,0.7-0.4,1.2s0.1,0.9,0.4,1.1c0.3,0.3,0.7,0.4,1.2,0.4s0.9-0.1,1.2-0.4C166.4,536.9,166.5,536.6,166.5,536.1z M164.9,530.6
		c-0.4,0-0.8,0.1-1,0.4c-0.3,0.3-0.4,0.6-0.4,1.1c0,0.4,0.1,0.8,0.4,1c0.3,0.3,0.6,0.4,1,0.4s0.8-0.1,1-0.4c0.3-0.3,0.4-0.6,0.4-1
		c0-0.4-0.1-0.8-0.4-1.1C165.6,530.8,165.3,530.6,164.9,530.6z M169.3,537.8c0-0.2,0.1-0.3,0.2-0.5c0.1-0.1,0.3-0.2,0.5-0.2
		s0.4,0.1,0.5,0.2c0.1,0.1,0.2,0.3,0.2,0.5s-0.1,0.3-0.2,0.5c-0.1,0.1-0.3,0.2-0.5,0.2s-0.4-0.1-0.5-0.2
		C169.4,538.2,169.3,538,169.3,537.8z M176.4,534.7c-0.2,0.3-0.5,0.5-0.8,0.7s-0.7,0.2-1,0.2c-0.5,0-0.9-0.1-1.3-0.4
		c-0.4-0.2-0.6-0.6-0.8-1c-0.2-0.4-0.3-0.9-0.3-1.5c0-0.6,0.1-1.1,0.3-1.5c0.2-0.5,0.5-0.8,0.9-1s0.9-0.4,1.4-0.4c0.8,0,1.5,0.3,2,1
		c0.5,0.6,0.7,1.5,0.7,2.6v0.3c0,1.7-0.3,2.9-1,3.6c-0.7,0.8-1.6,1.2-3,1.2h-0.2v-0.9h0.2c0.9,0,1.6-0.3,2.1-0.7
		C176.1,536.3,176.3,535.6,176.4,534.7z M174.7,534.7c0.4,0,0.7-0.1,1-0.3c0.3-0.2,0.5-0.5,0.7-0.8v-0.4c0-0.7-0.2-1.3-0.5-1.7
		c-0.3-0.4-0.7-0.7-1.2-0.7s-0.9,0.2-1.2,0.5c-0.3,0.4-0.4,0.8-0.4,1.5c0,0.6,0.1,1.1,0.4,1.4C173.8,534.5,174.2,534.7,174.7,534.7z
		 M183.5,529.9v0.9h-0.2c-0.8,0-1.5,0.3-2,0.8s-0.8,1.2-0.9,2c0.5-0.5,1.1-0.8,1.8-0.8s1.3,0.3,1.8,0.8c0.4,0.5,0.7,1.2,0.7,2
		c0,0.9-0.2,1.6-0.7,2.1s-1.1,0.8-1.9,0.8c-0.8,0-1.5-0.3-2-0.9c-0.5-0.6-0.8-1.4-0.8-2.4v-0.5c0-1.6,0.3-2.8,1-3.6
		c0.7-0.8,1.7-1.3,3-1.3h0.2V529.9z M182,533.7c-0.4,0-0.7,0.1-1,0.3s-0.5,0.5-0.7,0.8v0.4c0,0.7,0.2,1.3,0.5,1.7s0.7,0.6,1.2,0.6
		s0.9-0.2,1.2-0.5c0.3-0.4,0.4-0.8,0.4-1.4c0-0.6-0.1-1.1-0.4-1.4C182.9,533.9,182.5,533.7,182,533.7z M187.3,532.1v0.7
		c0.5-0.5,1.1-0.8,1.9-0.8c0.9,0,1.5,0.3,1.8,1c0.2-0.3,0.5-0.5,0.8-0.7s0.7-0.3,1.2-0.3c1.4,0,2.1,0.7,2.1,2.2v4.2H194v-4.2
		c0-0.4-0.1-0.8-0.3-1s-0.6-0.3-1-0.3s-0.7,0.1-1,0.4c-0.3,0.2-0.4,0.6-0.5,1v4.2h-1.1v-4.2c0-0.9-0.5-1.4-1.4-1.4
		c-0.7,0-1.2,0.3-1.5,0.9v4.6h-1.1v-6.3L187.3,532.1L187.3,532.1z M201,536.7c0-0.3-0.1-0.5-0.3-0.7s-0.6-0.3-1.2-0.4
		c-0.5-0.1-1-0.3-1.3-0.4c-0.3-0.2-0.6-0.4-0.7-0.6c-0.1-0.2-0.2-0.5-0.2-0.8c0-0.5,0.2-1,0.7-1.3c0.4-0.4,1-0.5,1.7-0.5
		s1.3,0.2,1.7,0.6c0.4,0.4,0.7,0.8,0.7,1.4H201c0-0.3-0.1-0.5-0.4-0.8c-0.2-0.2-0.6-0.3-0.9-0.3c-0.4,0-0.7,0.1-0.9,0.3
		c-0.2,0.2-0.3,0.4-0.3,0.7s0.1,0.5,0.3,0.6c0.2,0.1,0.6,0.3,1.1,0.4c0.5,0.1,1,0.3,1.3,0.4c0.3,0.2,0.6,0.4,0.7,0.6
		c0.2,0.2,0.2,0.5,0.2,0.9c0,0.6-0.2,1-0.7,1.4c-0.4,0.3-1,0.5-1.8,0.5c-0.5,0-1-0.1-1.4-0.3s-0.7-0.4-0.9-0.8
		c-0.2-0.3-0.3-0.7-0.3-1h1.1c0,0.4,0.2,0.7,0.4,0.9c0.3,0.2,0.6,0.3,1.1,0.3c0.4,0,0.7-0.1,1-0.2C200.9,537.2,201,537,201,536.7z
		 M207.5,538.4h-1.1v-9h1.1V538.4z M213.2,538.4c-0.1-0.1-0.1-0.3-0.2-0.7c-0.5,0.5-1.1,0.8-1.8,0.8c-0.6,0-1.1-0.2-1.5-0.5
		c-0.4-0.4-0.6-0.8-0.6-1.4c0-0.7,0.2-1.2,0.8-1.5c0.5-0.4,1.2-0.5,2.1-0.5h1v-0.5c0-0.4-0.1-0.7-0.3-0.9c-0.2-0.2-0.6-0.3-1-0.3
		s-0.7,0.1-1,0.3s-0.4,0.4-0.4,0.7h-1.1c0-0.3,0.1-0.6,0.3-0.9s0.5-0.5,0.9-0.7s0.8-0.3,1.3-0.3c0.7,0,1.3,0.2,1.7,0.5
		c0.4,0.4,0.6,0.9,0.7,1.5v2.9c0,0.6,0.1,1,0.2,1.4v0.1H213.2z M211.4,537.6c0.3,0,0.7-0.1,1-0.3s0.5-0.4,0.7-0.7v-1.3h-0.8
		c-1.3,0-2,0.4-2,1.2c0,0.3,0.1,0.6,0.3,0.8C210.8,537.5,211.1,537.6,211.4,537.6z M217.8,530.5v1.5h1.2v0.8h-1.2v3.9
		c0,0.3,0.1,0.5,0.2,0.6c0.1,0.1,0.3,0.2,0.5,0.2c0.1,0,0.3,0,0.5-0.1v0.9c-0.3,0.1-0.6,0.1-0.8,0.1c-0.5,0-0.8-0.1-1.1-0.4
		c-0.2-0.3-0.4-0.7-0.4-1.3v-3.9h-1.2V532h1.2v-1.5H217.8L217.8,530.5z M223,538.5c-0.9,0-1.6-0.3-2.1-0.8c-0.5-0.6-0.8-1.3-0.8-2.3
		v-0.2c0-0.6,0.1-1.2,0.4-1.7c0.2-0.5,0.6-0.9,1-1.2s0.9-0.4,1.4-0.4c0.8,0,1.5,0.3,1.9,0.8c0.5,0.5,0.7,1.3,0.7,2.3v0.5h-4.3
		c0,0.6,0.2,1.1,0.5,1.5c0.4,0.4,0.8,0.6,1.3,0.6c0.4,0,0.7-0.1,1-0.2c0.3-0.2,0.5-0.4,0.7-0.6l0.7,0.5
		C224.8,538.1,224,538.5,223,538.5z M222.8,532.8c-0.4,0-0.8,0.2-1.1,0.5s-0.5,0.8-0.5,1.3h3.2v-0.1c0-0.6-0.2-1-0.5-1.3
		C223.6,533,223.3,532.8,222.8,532.8z M227.3,532.1v0.8c0.5-0.6,1.1-0.9,1.9-0.9c1.3,0,2,0.8,2,2.3v4.2h-1.1v-4.2
		c0-0.4-0.1-0.8-0.3-1s-0.5-0.3-1-0.3c-0.4,0-0.7,0.1-0.9,0.3c-0.3,0.2-0.5,0.4-0.6,0.7v4.5h-1.1v-6.3h1.1V532.1z M235.9,537.6
		c0.4,0,0.7-0.1,1-0.3s0.5-0.5,0.5-0.9h1c0,0.4-0.2,0.7-0.4,1s-0.5,0.6-0.9,0.8s-0.8,0.3-1.2,0.3c-0.9,0-1.6-0.3-2.1-0.9
		c-0.5-0.6-0.8-1.4-0.8-2.4V535c0-0.6,0.1-1.2,0.3-1.6c0.2-0.5,0.6-0.8,1-1.1s0.9-0.4,1.5-0.4c0.7,0,1.3,0.2,1.8,0.6
		c0.5,0.4,0.7,1,0.8,1.7h-1c0-0.4-0.2-0.8-0.5-1c-0.3-0.3-0.6-0.4-1-0.4c-0.6,0-1,0.2-1.3,0.6c-0.3,0.4-0.5,1-0.5,1.7v0.2
		c0,0.7,0.2,1.3,0.5,1.7C234.9,537.4,235.3,537.6,235.9,537.6z M241.4,536.8l1.5-4.8h1.2l-2.5,7.3c-0.4,1.1-1,1.6-1.9,1.6h-0.2
		l-0.4-0.1v-0.9h0.3c0.4,0,0.7-0.1,0.9-0.2c0.2-0.1,0.4-0.4,0.5-0.8l0.2-0.7l-2.3-6.3h1.2L241.4,536.8z M247.8,535
		c0,0.9-0.1,1.7-0.3,2.5s-0.6,1.5-1.1,2.2s-1,1.2-1.5,1.4l-0.2-0.7c0.6-0.5,1.1-1.2,1.5-2.1c0.4-1,0.6-2.1,0.6-3.2v-0.2
		c0-0.8-0.1-1.6-0.3-2.3c-0.2-0.7-0.4-1.3-0.7-1.9c-0.3-0.6-0.6-1-1-1.3l0.2-0.7c0.5,0.3,1,0.8,1.5,1.4c0.5,0.7,0.8,1.4,1,2.2
		C247.7,533.2,247.8,534.1,247.8,535z"/>
	<path class="st19" d="M264.5,528.9c0-0.6,0.4-1,1-1h10c0.6,0,1,0.4,1,1v10c0,0.6-0.4,1-1,1h-10c-0.6,0-1-0.4-1-1V528.9z"/>
	<path class="st18" d="M291.8,535.7c-0.1,0.9-0.4,1.6-1,2.1s-1.3,0.7-2.2,0.7c-1,0-1.8-0.4-2.4-1.1s-0.9-1.7-0.9-2.9v-0.8
		c0-0.8,0.1-1.5,0.4-2.1c0.3-0.6,0.7-1.1,1.2-1.4s1.1-0.5,1.8-0.5c0.9,0,1.6,0.3,2.2,0.8s0.9,1.2,1,2.1h-1.1
		c-0.1-0.7-0.3-1.2-0.6-1.5c-0.3-0.3-0.8-0.5-1.4-0.5c-0.7,0-1.3,0.3-1.7,0.8c-0.4,0.5-0.6,1.3-0.6,2.3v0.8c0,0.9,0.2,1.7,0.6,2.2
		s0.9,0.8,1.6,0.8c0.6,0,1.1-0.1,1.4-0.4s0.6-0.8,0.7-1.5h1V535.7z M293,535.2c0-0.6,0.1-1.2,0.4-1.7c0.2-0.5,0.6-0.9,1-1.1
		c0.4-0.3,0.9-0.4,1.5-0.4c0.9,0,1.6,0.3,2.1,0.9c0.5,0.6,0.8,1.4,0.8,2.4v0.1c0,0.6-0.1,1.2-0.4,1.7c-0.2,0.5-0.6,0.9-1,1.2
		s-0.9,0.4-1.5,0.4c-0.9,0-1.6-0.3-2.1-0.9C293.3,537,293,536.2,293,535.2L293,535.2z M294.1,535.3c0,0.7,0.2,1.3,0.5,1.7
		s0.8,0.6,1.3,0.6c0.6,0,1-0.2,1.3-0.6c0.3-0.4,0.5-1,0.5-1.8c0-0.7-0.2-1.2-0.5-1.7c-0.3-0.4-0.8-0.7-1.3-0.7s-1,0.2-1.3,0.6
		C294.3,533.9,294.1,534.5,294.1,535.3z M302.9,537.6c0.4,0,0.7-0.1,1-0.3s0.5-0.5,0.5-0.9h1c0,0.4-0.2,0.7-0.4,1
		c-0.2,0.3-0.5,0.6-0.9,0.8s-0.8,0.3-1.2,0.3c-0.9,0-1.6-0.3-2.1-0.9c-0.5-0.6-0.8-1.4-0.8-2.4V535c0-0.6,0.1-1.2,0.3-1.6
		c0.2-0.5,0.6-0.8,1-1.1s0.9-0.4,1.5-0.4c0.7,0,1.3,0.2,1.8,0.6c0.5,0.4,0.7,1,0.8,1.7h-1c0-0.4-0.2-0.8-0.5-1
		c-0.3-0.3-0.6-0.4-1-0.4c-0.6,0-1,0.2-1.3,0.6c-0.3,0.4-0.5,1-0.5,1.7v0.2c0,0.7,0.2,1.3,0.5,1.7
		C301.9,537.4,302.3,537.6,302.9,537.6z M308.1,535.5l-0.7,0.7v2.2h-1.1v-9h1.1v5.4l0.6-0.7l2-2.1h1.3l-2.5,2.7l2.8,3.7h-1.3
		L308.1,535.5z M315.4,533c-0.2,0-0.3,0-0.5,0c-0.7,0-1.2,0.3-1.5,0.9v4.5h-1.1v-6.3h1v0.7c0.4-0.6,0.9-0.8,1.5-0.8
		c0.2,0,0.4,0,0.5,0.1v0.9H315.4z M316,535.2c0-0.6,0.1-1.2,0.4-1.7c0.2-0.5,0.6-0.9,1-1.1c0.4-0.3,0.9-0.4,1.5-0.4
		c0.9,0,1.6,0.3,2.1,0.9c0.5,0.6,0.8,1.4,0.8,2.4v0.1c0,0.6-0.1,1.2-0.4,1.7c-0.2,0.5-0.6,0.9-1,1.2s-0.9,0.4-1.5,0.4
		c-0.9,0-1.6-0.3-2.1-0.9C316.3,537,316,536.2,316,535.2L316,535.2z M317.1,535.3c0,0.7,0.2,1.3,0.5,1.7s0.8,0.6,1.3,0.6
		c0.6,0,1-0.2,1.3-0.6c0.3-0.4,0.5-1,0.5-1.8c0-0.7-0.2-1.2-0.5-1.7c-0.3-0.4-0.8-0.7-1.3-0.7s-1,0.2-1.3,0.6
		C317.3,533.9,317.1,534.5,317.1,535.3z M327.2,538.4c-0.1-0.1-0.1-0.3-0.2-0.7c-0.5,0.5-1.1,0.8-1.8,0.8c-0.6,0-1.1-0.2-1.5-0.5
		c-0.4-0.4-0.6-0.8-0.6-1.4c0-0.7,0.2-1.2,0.8-1.5c0.5-0.4,1.2-0.5,2.1-0.5h1v-0.5c0-0.4-0.1-0.7-0.3-0.9c-0.2-0.2-0.6-0.3-1-0.3
		s-0.7,0.1-1,0.3s-0.4,0.4-0.4,0.7h-1.1c0-0.3,0.1-0.6,0.3-0.9c0.2-0.3,0.5-0.5,0.9-0.7s0.8-0.3,1.3-0.3c0.7,0,1.3,0.2,1.7,0.5
		c0.4,0.4,0.6,0.9,0.7,1.5v2.9c0,0.6,0.1,1,0.2,1.4v0.1H327.2z M325.4,537.6c0.3,0,0.7-0.1,1-0.3s0.5-0.4,0.7-0.7v-1.3h-0.8
		c-1.3,0-2,0.4-2,1.2c0,0.3,0.1,0.6,0.3,0.8C324.8,537.5,325.1,537.6,325.4,537.6z M332.9,537.6c0.4,0,0.7-0.1,1-0.3
		s0.5-0.5,0.5-0.9h1c0,0.4-0.2,0.7-0.4,1c-0.2,0.3-0.5,0.6-0.9,0.8s-0.8,0.3-1.2,0.3c-0.9,0-1.6-0.3-2.1-0.9
		c-0.5-0.6-0.8-1.4-0.8-2.4V535c0-0.6,0.1-1.2,0.3-1.6c0.2-0.5,0.6-0.8,1-1.1s0.9-0.4,1.5-0.4c0.7,0,1.3,0.2,1.8,0.6
		c0.5,0.4,0.7,1,0.8,1.7h-1c0-0.4-0.2-0.8-0.5-1c-0.3-0.3-0.6-0.4-1-0.4c-0.6,0-1,0.2-1.3,0.6c-0.3,0.4-0.5,1-0.5,1.7v0.2
		c0,0.7,0.2,1.3,0.5,1.7C331.9,537.4,332.3,537.6,332.9,537.6z M337.4,532.8c0.5-0.6,1.1-0.9,1.9-0.9c1.3,0,2,0.8,2,2.3v4.2h-1.1
		v-4.2c0-0.4-0.1-0.8-0.3-1c-0.2-0.2-0.5-0.3-1-0.3c-0.4,0-0.7,0.1-0.9,0.3c-0.3,0.2-0.5,0.4-0.6,0.7v4.5h-1.1v-9h1.1V532.8z
		 M343.5,538.4v-8.5h2.4c0.7,0,1.4,0.2,2,0.5s1,0.8,1.3,1.4c0.3,0.6,0.5,1.3,0.5,2.1v0.5c0,0.8-0.2,1.5-0.5,2.1
		c-0.3,0.6-0.7,1.1-1.3,1.4c-0.6,0.3-1.2,0.5-2,0.5H343.5z M344.6,530.8v6.7h1.2c0.9,0,1.5-0.3,2-0.8s0.7-1.3,0.7-2.3v-0.5
		c0-1-0.2-1.7-0.7-2.2c-0.4-0.5-1.1-0.8-1.9-0.8h-1.3V530.8z M351.5,538.4v-8.5h2.8c0.9,0,1.6,0.2,2.1,0.6c0.5,0.4,0.7,0.9,0.7,1.7
		c0,0.4-0.1,0.8-0.3,1.1c-0.2,0.3-0.5,0.5-0.9,0.7c0.5,0.1,0.8,0.4,1.1,0.7c0.3,0.4,0.4,0.8,0.4,1.3c0,0.8-0.2,1.4-0.8,1.8
		c-0.5,0.4-1.2,0.7-2.1,0.7h-3V538.4z M352.6,534.4v3.1h1.9c0.5,0,0.9-0.1,1.2-0.4c0.3-0.3,0.5-0.6,0.5-1.1c0-1-0.6-1.5-1.7-1.5
		L352.6,534.4L352.6,534.4z M352.6,533.5h1.7c0.5,0,0.9-0.1,1.2-0.4c0.3-0.2,0.5-0.6,0.5-1c0-0.5-0.1-0.8-0.4-1s-0.7-0.3-1.2-0.3
		h-1.7v2.7H352.6z M361.3,534.9c0-0.9,0.1-1.7,0.3-2.5c0.2-0.8,0.6-1.6,1.1-2.2c0.5-0.7,1-1.1,1.5-1.4l0.2,0.7c-0.6,0.4-1,1.1-1.4,2
		c-0.4,0.9-0.6,1.9-0.6,3v0.5c0,1.5,0.3,2.8,0.8,3.9c0.3,0.7,0.7,1.2,1.2,1.6l-0.2,0.7c-0.5-0.3-1-0.8-1.5-1.5
		C361.7,538.4,361.3,536.8,361.3,534.9z M365.7,534.1l0.4-4.2h4.4v1H367l-0.3,2.3c0.4-0.2,0.9-0.4,1.4-0.4c0.8,0,1.4,0.3,1.8,0.8
		c0.5,0.5,0.7,1.2,0.7,2.1c0,0.9-0.2,1.6-0.7,2.1s-1.1,0.8-2,0.8c-0.8,0-1.4-0.2-1.8-0.6c-0.5-0.4-0.8-1-0.8-1.8h1
		c0.1,0.5,0.2,0.9,0.5,1.1c0.3,0.3,0.7,0.4,1.1,0.4c0.5,0,0.9-0.2,1.2-0.5c0.3-0.3,0.4-0.8,0.4-1.4c0-0.6-0.2-1-0.5-1.4
		c-0.3-0.3-0.7-0.5-1.2-0.5s-0.8,0.1-1.1,0.3l-0.3,0.2L365.7,534.1z M377.6,534.8c0,1.3-0.2,2.2-0.7,2.8c-0.4,0.6-1.1,0.9-2,0.9
		s-1.6-0.3-2-0.9c-0.4-0.6-0.7-1.5-0.7-2.7v-1.4c0-1.3,0.2-2.2,0.6-2.8c0.4-0.6,1.1-0.9,2-0.9s1.6,0.3,2,0.9
		c0.4,0.6,0.7,1.5,0.7,2.7v1.4H377.6z M376.5,533.3c0-0.9-0.1-1.6-0.4-2c-0.2-0.4-0.7-0.6-1.2-0.6c-0.6,0-1,0.2-1.2,0.6
		c-0.2,0.4-0.4,1.1-0.4,1.9v1.7c0,0.9,0.1,1.6,0.4,2c0.3,0.4,0.7,0.7,1.2,0.7s0.9-0.2,1.2-0.6c0.3-0.4,0.4-1.1,0.4-2V533.3z
		 M379.3,537.8c0-0.2,0.1-0.3,0.2-0.5c0.1-0.1,0.3-0.2,0.5-0.2s0.4,0.1,0.5,0.2c0.1,0.1,0.2,0.3,0.2,0.5s-0.1,0.3-0.2,0.5
		c-0.1,0.1-0.3,0.2-0.5,0.2s-0.4-0.1-0.5-0.2C379.4,538.2,379.3,538,379.3,537.8z M383.8,533.6h0.8c0.5,0,0.9-0.1,1.2-0.4
		c0.3-0.3,0.4-0.6,0.4-1.1c0-1-0.5-1.5-1.5-1.5c-0.5,0-0.8,0.1-1.1,0.4c-0.3,0.3-0.4,0.6-0.4,1.1h-1.1c0-0.7,0.2-1.2,0.7-1.7
		c0.5-0.4,1.1-0.7,1.9-0.7s1.4,0.2,1.9,0.6c0.5,0.4,0.7,1,0.7,1.8c0,0.4-0.1,0.7-0.4,1.1c-0.2,0.3-0.6,0.6-1,0.8
		c0.5,0.1,0.8,0.4,1.1,0.7c0.3,0.3,0.4,0.8,0.4,1.3c0,0.8-0.2,1.4-0.8,1.8c-0.5,0.4-1.2,0.7-2,0.7s-1.4-0.2-2-0.7
		c-0.5-0.4-0.8-1-0.8-1.7h1.1c0,0.4,0.1,0.8,0.4,1.1c0.3,0.3,0.7,0.4,1.2,0.4s0.9-0.1,1.2-0.4c0.3-0.3,0.4-0.7,0.4-1.2
		s-0.2-0.9-0.5-1.1c-0.3-0.3-0.7-0.4-1.3-0.4h-0.8v-0.9H383.8z M390.8,533.6h0.8c0.5,0,0.9-0.1,1.2-0.4c0.3-0.3,0.4-0.6,0.4-1.1
		c0-1-0.5-1.5-1.5-1.5c-0.5,0-0.8,0.1-1.1,0.4c-0.3,0.3-0.4,0.6-0.4,1.1h-1.1c0-0.7,0.2-1.2,0.7-1.7c0.5-0.4,1.1-0.7,1.9-0.7
		s1.4,0.2,1.9,0.6c0.5,0.4,0.7,1,0.7,1.8c0,0.4-0.1,0.7-0.4,1.1c-0.2,0.3-0.6,0.6-1,0.8c0.5,0.1,0.8,0.4,1.1,0.7
		c0.3,0.3,0.4,0.8,0.4,1.3c0,0.8-0.2,1.4-0.8,1.8c-0.5,0.4-1.2,0.7-2,0.7s-1.4-0.2-2-0.7c-0.5-0.4-0.8-1-0.8-1.7h1.1
		c0,0.4,0.1,0.8,0.4,1.1c0.3,0.3,0.7,0.4,1.2,0.4s0.9-0.1,1.2-0.4c0.3-0.3,0.4-0.7,0.4-1.2s-0.2-0.9-0.5-1.1
		c-0.3-0.3-0.7-0.4-1.3-0.4h-0.8v-0.9H390.8z M397.3,532.1v0.7c0.5-0.5,1.1-0.8,1.9-0.8c0.9,0,1.5,0.3,1.8,1
		c0.2-0.3,0.5-0.5,0.8-0.7s0.7-0.3,1.2-0.3c1.4,0,2.1,0.7,2.1,2.2v4.2H404v-4.2c0-0.4-0.1-0.8-0.3-1c-0.2-0.2-0.6-0.3-1-0.3
		s-0.7,0.1-1,0.4c-0.3,0.2-0.4,0.6-0.5,1v4.2h-1.1v-4.2c0-0.9-0.5-1.4-1.4-1.4c-0.7,0-1.2,0.3-1.5,0.9v4.6h-1.1v-6.3L397.3,532.1
		L397.3,532.1z M411,536.7c0-0.3-0.1-0.5-0.3-0.7c-0.2-0.2-0.6-0.3-1.2-0.4c-0.5-0.1-1-0.3-1.3-0.4c-0.3-0.2-0.6-0.4-0.7-0.6
		s-0.2-0.5-0.2-0.8c0-0.5,0.2-1,0.7-1.3c0.4-0.4,1-0.5,1.7-0.5s1.3,0.2,1.7,0.6c0.4,0.4,0.7,0.8,0.7,1.4H411c0-0.3-0.1-0.5-0.4-0.8
		c-0.2-0.2-0.6-0.3-0.9-0.3c-0.4,0-0.7,0.1-0.9,0.3c-0.2,0.2-0.3,0.4-0.3,0.7s0.1,0.5,0.3,0.6c0.2,0.1,0.6,0.3,1.1,0.4
		c0.5,0.1,1,0.3,1.3,0.4c0.3,0.2,0.6,0.4,0.7,0.6c0.2,0.2,0.2,0.5,0.2,0.9c0,0.6-0.2,1-0.7,1.4c-0.4,0.3-1,0.5-1.8,0.5
		c-0.5,0-1-0.1-1.4-0.3s-0.7-0.4-0.9-0.8c-0.2-0.3-0.3-0.7-0.3-1h1.1c0,0.4,0.2,0.7,0.4,0.9c0.3,0.2,0.6,0.3,1.1,0.3
		c0.4,0,0.7-0.1,1-0.2C410.9,537.2,411,537,411,536.7z M417.5,538.4h-1.1v-9h1.1V538.4z M423.2,538.4c-0.1-0.1-0.1-0.3-0.2-0.7
		c-0.5,0.5-1.1,0.8-1.8,0.8c-0.6,0-1.1-0.2-1.5-0.5c-0.4-0.4-0.6-0.8-0.6-1.4c0-0.7,0.2-1.2,0.8-1.5c0.5-0.4,1.2-0.5,2.1-0.5h1v-0.5
		c0-0.4-0.1-0.7-0.3-0.9c-0.2-0.2-0.6-0.3-1-0.3s-0.7,0.1-1,0.3s-0.4,0.4-0.4,0.7h-1.1c0-0.3,0.1-0.6,0.3-0.9
		c0.2-0.3,0.5-0.5,0.9-0.7s0.8-0.3,1.3-0.3c0.7,0,1.3,0.2,1.7,0.5c0.4,0.4,0.6,0.9,0.7,1.5v2.9c0,0.6,0.1,1,0.2,1.4v0.1H423.2z
		 M421.4,537.6c0.3,0,0.7-0.1,1-0.3s0.5-0.4,0.7-0.7v-1.3h-0.8c-1.3,0-2,0.4-2,1.2c0,0.3,0.1,0.6,0.3,0.8
		C420.8,537.5,421.1,537.6,421.4,537.6z M427.8,530.5v1.5h1.2v0.8h-1.2v3.9c0,0.3,0.1,0.5,0.2,0.6c0.1,0.1,0.3,0.2,0.5,0.2
		c0.1,0,0.3,0,0.5-0.1v0.9c-0.3,0.1-0.6,0.1-0.8,0.1c-0.5,0-0.8-0.1-1.1-0.4c-0.2-0.3-0.4-0.7-0.4-1.3v-3.9h-1.2V532h1.2v-1.5H427.8
		L427.8,530.5z M433,538.5c-0.9,0-1.6-0.3-2.1-0.8c-0.5-0.6-0.8-1.3-0.8-2.3v-0.2c0-0.6,0.1-1.2,0.4-1.7c0.2-0.5,0.6-0.9,1-1.2
		s0.9-0.4,1.4-0.4c0.8,0,1.5,0.3,1.9,0.8c0.5,0.5,0.7,1.3,0.7,2.3v0.5h-4.3c0,0.6,0.2,1.1,0.5,1.5c0.4,0.4,0.8,0.6,1.3,0.6
		c0.4,0,0.7-0.1,1-0.2c0.3-0.2,0.5-0.4,0.7-0.6l0.7,0.5C434.8,538.1,434,538.5,433,538.5z M432.8,532.8c-0.4,0-0.8,0.2-1.1,0.5
		c-0.3,0.3-0.5,0.8-0.5,1.3h3.2v-0.1c0-0.6-0.2-1-0.5-1.3C433.6,533,433.3,532.8,432.8,532.8z M437.3,532.1v0.8
		c0.5-0.6,1.1-0.9,1.9-0.9c1.3,0,2,0.8,2,2.3v4.2h-1.1v-4.2c0-0.4-0.1-0.8-0.3-1c-0.2-0.2-0.5-0.3-1-0.3c-0.4,0-0.7,0.1-0.9,0.3
		c-0.3,0.2-0.5,0.4-0.6,0.7v4.5h-1.1v-6.3h1.1V532.1z M445.9,537.6c0.4,0,0.7-0.1,1-0.3s0.5-0.5,0.5-0.9h1c0,0.4-0.2,0.7-0.4,1
		c-0.2,0.3-0.5,0.6-0.9,0.8s-0.8,0.3-1.2,0.3c-0.9,0-1.6-0.3-2.1-0.9c-0.5-0.6-0.8-1.4-0.8-2.4V535c0-0.6,0.1-1.2,0.3-1.6
		c0.2-0.5,0.6-0.8,1-1.1s0.9-0.4,1.5-0.4c0.7,0,1.3,0.2,1.8,0.6c0.5,0.4,0.7,1,0.8,1.7h-1c0-0.4-0.2-0.8-0.5-1
		c-0.3-0.3-0.6-0.4-1-0.4c-0.6,0-1,0.2-1.3,0.6c-0.3,0.4-0.5,1-0.5,1.7v0.2c0,0.7,0.2,1.3,0.5,1.7
		C444.9,537.4,445.3,537.6,445.9,537.6z M451.4,536.8l1.5-4.8h1.2l-2.5,7.3c-0.4,1.1-1,1.6-1.9,1.6h-0.2l-0.4-0.1v-0.9h0.3
		c0.4,0,0.7-0.1,0.9-0.2c0.2-0.1,0.4-0.4,0.5-0.8l0.2-0.7l-2.3-6.3h1.2L451.4,536.8z M457.8,535c0,0.9-0.1,1.7-0.3,2.5
		c-0.2,0.8-0.6,1.5-1.1,2.2s-1,1.2-1.5,1.4l-0.2-0.7c0.6-0.5,1.1-1.2,1.5-2.1c0.4-1,0.6-2.1,0.6-3.2v-0.2c0-0.8-0.1-1.6-0.3-2.3
		c-0.2-0.7-0.4-1.3-0.7-1.9c-0.3-0.6-0.6-1-1-1.3l0.2-0.7c0.5,0.3,1,0.8,1.5,1.4c0.5,0.7,0.8,1.4,1,2.2
		C457.7,533.2,457.8,534.1,457.8,535z"/>
	<path class="st19" d="M149.5,112.2c-1-0.3-1.7-0.6-2.1-1c-0.4-0.4-0.7-0.9-0.7-1.5c0-0.7,0.3-1.2,0.8-1.7c0.5-0.4,1.2-0.7,2.1-0.7
		c0.6,0,1.1,0.1,1.6,0.3c0.5,0.2,0.8,0.5,1.1,0.9s0.4,0.8,0.4,1.3h-1.1c0-0.5-0.2-0.9-0.5-1.2c-0.3-0.3-0.8-0.4-1.4-0.4
		c-0.6,0-1,0.1-1.3,0.4c-0.3,0.2-0.5,0.6-0.5,1c0,0.4,0.1,0.7,0.4,0.9c0.3,0.2,0.8,0.5,1.5,0.7c0.7,0.2,1.3,0.4,1.7,0.7
		c0.4,0.2,0.7,0.5,0.9,0.8c0.2,0.3,0.3,0.7,0.3,1.1c0,0.7-0.3,1.3-0.8,1.7s-1.3,0.6-2.2,0.6c-0.6,0-1.1-0.1-1.7-0.3
		c-0.5-0.2-0.9-0.5-1.2-0.9c-0.3-0.4-0.4-0.8-0.4-1.3h1.1c0,0.5,0.2,0.9,0.6,1.2c0.4,0.3,0.9,0.5,1.5,0.5s1-0.1,1.4-0.4
		c0.3-0.2,0.5-0.6,0.5-1c0-0.4-0.1-0.7-0.4-1C150.8,112.6,150.3,112.4,149.5,112.2z M156.5,116.1c-0.9,0-1.6-0.3-2.1-0.8
		c-0.5-0.6-0.8-1.3-0.8-2.3v-0.2c0-0.6,0.1-1.2,0.4-1.7c0.2-0.5,0.6-0.9,1-1.2c0.4-0.3,0.9-0.4,1.4-0.4c0.8,0,1.5,0.3,1.9,0.8
		c0.5,0.5,0.7,1.3,0.7,2.3v0.5h-4.3c0,0.6,0.2,1.1,0.5,1.5c0.4,0.4,0.8,0.6,1.3,0.6c0.4,0,0.7-0.1,1-0.2c0.3-0.2,0.5-0.4,0.7-0.6
		l0.7,0.5C158.3,115.7,157.5,116.1,156.5,116.1z M156.3,110.4c-0.4,0-0.8,0.2-1.1,0.5c-0.3,0.3-0.5,0.8-0.5,1.3h3.2v-0.1
		c0-0.6-0.2-1-0.5-1.3C157.1,110.6,156.8,110.4,156.3,110.4z M162.4,115.2c0.4,0,0.7-0.1,1-0.3c0.3-0.2,0.5-0.5,0.5-0.9h1
		c0,0.4-0.2,0.7-0.4,1c-0.2,0.3-0.5,0.6-0.9,0.8s-0.8,0.3-1.2,0.3c-0.9,0-1.6-0.3-2.1-0.9c-0.5-0.6-0.8-1.4-0.8-2.4v-0.1
		c0-0.6,0.1-1.2,0.3-1.6c0.2-0.5,0.6-0.8,1-1.1c0.4-0.3,0.9-0.4,1.5-0.4c0.7,0,1.3,0.2,1.8,0.6s0.7,1,0.8,1.7h-1
		c0-0.4-0.2-0.8-0.5-1c-0.3-0.3-0.6-0.4-1-0.4c-0.6,0-1,0.2-1.3,0.6s-0.5,1-0.5,1.7v0.2c0,0.7,0.2,1.3,0.5,1.7
		C161.4,115,161.8,115.2,162.4,115.2z M165.5,112.8c0-0.6,0.1-1.2,0.4-1.7c0.2-0.5,0.6-0.9,1-1.1c0.4-0.3,0.9-0.4,1.5-0.4
		c0.9,0,1.6,0.3,2.1,0.9s0.8,1.4,0.8,2.4v0.1c0,0.6-0.1,1.2-0.4,1.7c-0.2,0.5-0.6,0.9-1,1.2s-0.9,0.4-1.5,0.4
		c-0.9,0-1.6-0.3-2.1-0.9C165.8,114.6,165.5,113.8,165.5,112.8L165.5,112.8z M166.6,112.9c0,0.7,0.2,1.3,0.5,1.7s0.8,0.6,1.3,0.6
		c0.6,0,1-0.2,1.3-0.6s0.5-1,0.5-1.8c0-0.7-0.2-1.2-0.5-1.7c-0.3-0.4-0.8-0.7-1.3-0.7s-1,0.2-1.3,0.6
		C166.8,111.5,166.6,112.1,166.6,112.9z M173.8,109.7v0.8c0.5-0.6,1.1-0.9,1.9-0.9c1.3,0,2,0.8,2,2.3v4.2h-1.1v-4.2
		c0-0.4-0.1-0.8-0.3-1c-0.2-0.2-0.5-0.3-1-0.3c-0.4,0-0.7,0.1-0.9,0.3c-0.3,0.2-0.5,0.4-0.6,0.7v4.5h-1.1v-6.4H173.8z M179.6,112.8
		c0-1,0.2-1.8,0.7-2.3c0.5-0.6,1.1-0.9,1.8-0.9s1.3,0.2,1.8,0.8v-3.3h1.1v9h-1v-0.7c-0.4,0.5-1,0.8-1.8,0.8c-0.7,0-1.3-0.3-1.8-0.9
		C179.8,114.6,179.6,113.8,179.6,112.8L179.6,112.8z M180.6,112.9c0,0.7,0.1,1.3,0.4,1.7c0.3,0.4,0.7,0.6,1.2,0.6
		c0.7,0,1.2-0.3,1.5-0.9v-2.9c-0.3-0.6-0.8-0.9-1.5-0.9c-0.5,0-0.9,0.2-1.2,0.6C180.8,111.5,180.6,112.1,180.6,112.9z M190.7,116
		c-0.1-0.1-0.1-0.3-0.2-0.7c-0.5,0.5-1.1,0.8-1.8,0.8c-0.6,0-1.1-0.2-1.5-0.5c-0.4-0.4-0.6-0.8-0.6-1.4c0-0.7,0.2-1.2,0.8-1.5
		c0.5-0.4,1.2-0.5,2.1-0.5h1v-0.5c0-0.4-0.1-0.7-0.3-0.9c-0.2-0.2-0.6-0.3-1-0.3s-0.7,0.1-1,0.3c-0.3,0.2-0.4,0.4-0.4,0.7h-1.1
		c0-0.3,0.1-0.6,0.3-0.9s0.5-0.5,0.9-0.7c0.4-0.2,0.8-0.3,1.3-0.3c0.7,0,1.3,0.2,1.7,0.5c0.4,0.4,0.6,0.9,0.7,1.5v2.9
		c0,0.6,0.1,1,0.2,1.4v0.1C191.8,116,190.7,116,190.7,116z M188.9,115.2c0.3,0,0.7-0.1,1-0.3c0.3-0.2,0.5-0.4,0.7-0.7v-1.3h-0.8
		c-1.3,0-2,0.4-2,1.2c0,0.3,0.1,0.6,0.3,0.8C188.3,115.1,188.6,115.2,188.9,115.2z M196.9,110.6c-0.2,0-0.3,0-0.5,0
		c-0.7,0-1.2,0.3-1.5,0.9v4.5h-1.1v-6.3h1v0.7c0.4-0.6,0.9-0.8,1.5-0.8c0.2,0,0.4,0,0.5,0.1v0.9H196.9z M199.9,114.4l1.5-4.8h1.2
		l-2.5,7.3c-0.4,1.1-1,1.6-1.9,1.6H198l-0.4-0.1v-0.9h0.3c0.4,0,0.7-0.1,0.9-0.2s0.4-0.4,0.5-0.8l0.2-0.7l-2.3-6.3h1.2L199.9,114.4z
		 M208.2,116h-1.1v-8.5h1.1V116z M210.8,109.7v0.8c0.5-0.6,1.1-0.9,1.9-0.9c1.3,0,2,0.8,2,2.3v4.2h-1.1v-4.2c0-0.4-0.1-0.8-0.3-1
		c-0.2-0.2-0.5-0.3-1-0.3c-0.4,0-0.7,0.1-0.9,0.3c-0.3,0.2-0.5,0.4-0.6,0.7v4.5h-1.1v-6.4H210.8z M216.6,112.8c0-1,0.2-1.8,0.7-2.3
		c0.5-0.6,1.1-0.9,1.8-0.9s1.3,0.2,1.8,0.8v-3.3h1.1v9h-1v-0.7c-0.4,0.5-1,0.8-1.8,0.8c-0.7,0-1.3-0.3-1.8-0.9
		C216.8,114.6,216.6,113.8,216.6,112.8L216.6,112.8z M217.6,112.9c0,0.7,0.1,1.3,0.4,1.7c0.3,0.4,0.7,0.6,1.2,0.6
		c0.7,0,1.2-0.3,1.5-0.9v-2.9c-0.3-0.6-0.8-0.9-1.5-0.9c-0.5,0-0.9,0.2-1.2,0.6C217.8,111.5,217.6,112.1,217.6,112.9z M226.5,116.1
		c-0.9,0-1.6-0.3-2.1-0.8c-0.5-0.6-0.8-1.3-0.8-2.3v-0.2c0-0.6,0.1-1.2,0.4-1.7c0.2-0.5,0.6-0.9,1-1.2c0.4-0.3,0.9-0.4,1.4-0.4
		c0.8,0,1.5,0.3,1.9,0.8c0.5,0.5,0.7,1.3,0.7,2.3v0.5h-4.3c0,0.6,0.2,1.1,0.5,1.5c0.4,0.4,0.8,0.6,1.3,0.6c0.4,0,0.7-0.1,1-0.2
		c0.3-0.2,0.5-0.4,0.7-0.6l0.7,0.5C228.3,115.7,227.5,116.1,226.5,116.1z M226.3,110.4c-0.4,0-0.8,0.2-1.1,0.5
		c-0.3,0.3-0.5,0.8-0.5,1.3h3.2v-0.1c0-0.6-0.2-1-0.5-1.3C227.1,110.6,226.8,110.4,226.3,110.4z M232,112l1.4-2.3h1.3l-2.1,3.1
		l2.1,3.2h-1.2l-1.5-2.4l-1.5,2.4h-1.3l2.1-3.2l-2.1-3.1h1.2L232,112z M241.1,112.8h-2.9v-0.9h2.9V112.8z M246.1,112.7v3.3H245v-8.5
		h3.2c0.9,0,1.7,0.2,2.2,0.7s0.8,1.1,0.8,1.9c0,0.8-0.3,1.5-0.8,1.9c-0.5,0.4-1.2,0.7-2.2,0.7H246.1z M246.1,111.7h2
		c0.6,0,1.1-0.1,1.4-0.4c0.3-0.3,0.5-0.7,0.5-1.2s-0.2-0.9-0.5-1.2c-0.3-0.3-0.8-0.5-1.3-0.5h-2.1L246.1,111.7L246.1,111.7z
		 M256.7,115.4c-0.4,0.5-1,0.8-1.9,0.8c-0.7,0-1.2-0.2-1.5-0.6c-0.4-0.4-0.5-1-0.5-1.8v-4.1h1.1v4c0,1,0.4,1.5,1.2,1.5
		s1.4-0.3,1.7-0.9v-4.6h1.1v6.3h-1L256.7,115.4z M262.9,110.6c-0.2,0-0.3,0-0.5,0c-0.7,0-1.2,0.3-1.5,0.9v4.5h-1.1v-6.3h1v0.7
		c0.4-0.6,0.9-0.8,1.5-0.8c0.2,0,0.4,0,0.5,0.1v0.9H262.9z M266.5,116.1c-0.9,0-1.6-0.3-2.1-0.8c-0.5-0.6-0.8-1.3-0.8-2.3v-0.2
		c0-0.6,0.1-1.2,0.4-1.7c0.2-0.5,0.6-0.9,1-1.2c0.4-0.3,0.9-0.4,1.4-0.4c0.8,0,1.5,0.3,1.9,0.8c0.5,0.5,0.7,1.3,0.7,2.3v0.5h-4.3
		c0,0.6,0.2,1.1,0.5,1.5c0.4,0.4,0.8,0.6,1.3,0.6c0.4,0,0.7-0.1,1-0.2c0.3-0.2,0.5-0.4,0.7-0.6l0.7,0.5
		C268.3,115.7,267.5,116.1,266.5,116.1z M266.3,110.4c-0.4,0-0.8,0.2-1.1,0.5c-0.3,0.3-0.5,0.8-0.5,1.3h3.2v-0.1
		c0-0.6-0.2-1-0.5-1.3C267.1,110.6,266.8,110.4,266.3,110.4z M274.2,116h-1.1v-8.5h1.1V116z M276.8,109.7v0.8
		c0.5-0.6,1.1-0.9,1.9-0.9c1.3,0,2,0.8,2,2.3v4.2h-1.1v-4.2c0-0.4-0.1-0.8-0.3-1c-0.2-0.2-0.5-0.3-1-0.3c-0.4,0-0.7,0.1-0.9,0.3
		c-0.3,0.2-0.5,0.4-0.6,0.7v4.5h-1.1v-6.4H276.8z M286.5,114.3c0-0.3-0.1-0.5-0.3-0.7c-0.2-0.2-0.6-0.3-1.2-0.4
		c-0.5-0.1-1-0.3-1.3-0.4c-0.3-0.2-0.6-0.4-0.7-0.6c-0.1-0.2-0.2-0.5-0.2-0.8c0-0.5,0.2-1,0.7-1.3c0.4-0.4,1-0.5,1.7-0.5
		s1.3,0.2,1.7,0.6c0.4,0.4,0.7,0.8,0.7,1.4h-1.1c0-0.3-0.1-0.5-0.4-0.8c-0.2-0.2-0.6-0.3-0.9-0.3c-0.4,0-0.7,0.1-0.9,0.3
		c-0.2,0.2-0.3,0.4-0.3,0.7c0,0.3,0.1,0.5,0.3,0.6c0.2,0.1,0.6,0.3,1.1,0.4c0.5,0.1,1,0.3,1.3,0.4c0.3,0.2,0.6,0.4,0.7,0.6
		c0.2,0.2,0.2,0.5,0.2,0.9c0,0.6-0.2,1-0.7,1.4c-0.4,0.3-1,0.5-1.8,0.5c-0.5,0-1-0.1-1.4-0.3s-0.7-0.4-0.9-0.8
		c-0.2-0.3-0.3-0.7-0.3-1h1.1c0,0.4,0.2,0.7,0.4,0.9c0.3,0.2,0.6,0.3,1.1,0.3c0.4,0,0.7-0.1,1-0.2
		C286.4,114.8,286.5,114.6,286.5,114.3z M291.5,116.1c-0.9,0-1.6-0.3-2.1-0.8c-0.5-0.6-0.8-1.3-0.8-2.3v-0.2c0-0.6,0.1-1.2,0.4-1.7
		c0.2-0.5,0.6-0.9,1-1.2c0.4-0.3,0.9-0.4,1.4-0.4c0.8,0,1.5,0.3,1.9,0.8c0.5,0.5,0.7,1.3,0.7,2.3v0.5h-4.3c0,0.6,0.2,1.1,0.5,1.5
		c0.4,0.4,0.8,0.6,1.3,0.6c0.4,0,0.7-0.1,1-0.2c0.3-0.2,0.5-0.4,0.7-0.6l0.7,0.5C293.3,115.7,292.5,116.1,291.5,116.1z M291.3,110.4
		c-0.4,0-0.8,0.2-1.1,0.5c-0.3,0.3-0.5,0.8-0.5,1.3h3.2v-0.1c0-0.6-0.2-1-0.5-1.3C292.1,110.6,291.8,110.4,291.3,110.4z
		 M297.9,110.6c-0.2,0-0.3,0-0.5,0c-0.7,0-1.2,0.3-1.5,0.9v4.5h-1.1v-6.3h1v0.7c0.4-0.6,0.9-0.8,1.5-0.8c0.2,0,0.4,0,0.5,0.1v0.9
		H297.9z M300.3,108.1v1.6h1.2v0.8h-1.2v3.9c0,0.3,0.1,0.5,0.2,0.6c0.1,0.1,0.3,0.2,0.5,0.2c0.1,0,0.3,0,0.5-0.1v0.9
		c-0.3,0.1-0.6,0.1-0.8,0.1c-0.5,0-0.8-0.1-1.1-0.4c-0.2-0.3-0.4-0.7-0.4-1.3v-3.9H298v-0.8h1.2v-1.5L300.3,108.1L300.3,108.1z
		 M306.5,114.3c0-0.3-0.1-0.5-0.3-0.7c-0.2-0.2-0.6-0.3-1.2-0.4c-0.5-0.1-1-0.3-1.3-0.4c-0.3-0.2-0.6-0.4-0.7-0.6
		c-0.1-0.2-0.2-0.5-0.2-0.8c0-0.5,0.2-1,0.7-1.3c0.4-0.4,1-0.5,1.7-0.5s1.3,0.2,1.7,0.6c0.4,0.4,0.7,0.8,0.7,1.4h-1.1
		c0-0.3-0.1-0.5-0.4-0.8c-0.2-0.2-0.6-0.3-0.9-0.3c-0.4,0-0.7,0.1-0.9,0.3c-0.2,0.2-0.3,0.4-0.3,0.7c0,0.3,0.1,0.5,0.3,0.6
		c0.2,0.1,0.6,0.3,1.1,0.4c0.5,0.1,1,0.3,1.3,0.4c0.3,0.2,0.6,0.4,0.7,0.6c0.2,0.2,0.2,0.5,0.2,0.9c0,0.6-0.2,1-0.7,1.4
		c-0.4,0.3-1,0.5-1.8,0.5c-0.5,0-1-0.1-1.4-0.3s-0.7-0.4-0.9-0.8c-0.2-0.3-0.3-0.7-0.3-1h1.1c0,0.4,0.2,0.7,0.4,0.9
		c0.3,0.2,0.6,0.3,1.1,0.3c0.4,0,0.7-0.1,1-0.2C306.4,114.8,306.5,114.6,306.5,114.3z M317.2,112.9c0,1-0.2,1.7-0.7,2.3
		s-1,0.9-1.8,0.9s-1.4-0.2-1.8-0.7v3h-1.1v-8.7h1v0.7c0.4-0.5,1.1-0.8,1.8-0.8c0.8,0,1.4,0.3,1.8,0.9c0.4,0.6,0.7,1.4,0.7,2.4l0,0
		H317.2z M316.1,112.8c0-0.7-0.2-1.3-0.5-1.7c-0.3-0.4-0.7-0.6-1.2-0.6c-0.7,0-1.1,0.3-1.5,0.9v3c0.3,0.6,0.8,0.9,1.5,0.9
		c0.5,0,0.9-0.2,1.2-0.6C315.9,114.2,316.1,113.6,316.1,112.8z M321.5,116.1c-0.9,0-1.6-0.3-2.1-0.8c-0.5-0.6-0.8-1.3-0.8-2.3v-0.2
		c0-0.6,0.1-1.2,0.4-1.7c0.2-0.5,0.6-0.9,1-1.2c0.4-0.3,0.9-0.4,1.4-0.4c0.8,0,1.5,0.3,1.9,0.8c0.5,0.5,0.7,1.3,0.7,2.3v0.5h-4.3
		c0,0.6,0.2,1.1,0.5,1.5c0.4,0.4,0.8,0.6,1.3,0.6c0.4,0,0.7-0.1,1-0.2c0.3-0.2,0.5-0.4,0.7-0.6l0.7,0.5
		C323.3,115.7,322.5,116.1,321.5,116.1z M321.3,110.4c-0.4,0-0.8,0.2-1.1,0.5c-0.3,0.3-0.5,0.8-0.5,1.3h3.2v-0.1
		c0-0.6-0.2-1-0.5-1.3C322.1,110.6,321.8,110.4,321.3,110.4z M327.9,110.6c-0.2,0-0.3,0-0.5,0c-0.7,0-1.2,0.3-1.5,0.9v4.5h-1.1v-6.3
		h1v0.7c0.4-0.6,0.9-0.8,1.5-0.8c0.2,0,0.4,0,0.5,0.1v0.9H327.9z M334.5,112.2c-1-0.3-1.7-0.6-2.1-1s-0.7-0.9-0.7-1.5
		c0-0.7,0.3-1.2,0.8-1.7c0.5-0.4,1.2-0.7,2.1-0.7c0.6,0,1.1,0.1,1.6,0.3c0.5,0.2,0.8,0.5,1.1,0.9c0.3,0.4,0.4,0.8,0.4,1.3h-1.1
		c0-0.5-0.2-0.9-0.5-1.2c-0.3-0.3-0.8-0.4-1.4-0.4s-1,0.1-1.3,0.4c-0.3,0.2-0.5,0.6-0.5,1c0,0.4,0.1,0.7,0.4,0.9
		c0.3,0.2,0.8,0.5,1.5,0.7c0.7,0.2,1.3,0.4,1.7,0.7c0.4,0.2,0.7,0.5,0.9,0.8c0.2,0.3,0.3,0.7,0.3,1.1c0,0.7-0.3,1.3-0.8,1.7
		s-1.3,0.6-2.2,0.6c-0.6,0-1.1-0.1-1.7-0.3c-0.5-0.2-0.9-0.5-1.2-0.9c-0.3-0.4-0.4-0.8-0.4-1.3h1.1c0,0.5,0.2,0.9,0.6,1.2
		c0.4,0.3,0.9,0.5,1.5,0.5s1-0.1,1.4-0.4c0.3-0.2,0.5-0.6,0.5-1c0-0.4-0.1-0.7-0.4-1S335.3,112.4,334.5,112.2z M341.5,116.1
		c-0.9,0-1.6-0.3-2.1-0.8c-0.5-0.6-0.8-1.3-0.8-2.3v-0.2c0-0.6,0.1-1.2,0.4-1.7c0.2-0.5,0.6-0.9,1-1.2c0.4-0.3,0.9-0.4,1.4-0.4
		c0.8,0,1.5,0.3,1.9,0.8c0.5,0.5,0.7,1.3,0.7,2.3v0.5h-4.3c0,0.6,0.2,1.1,0.5,1.5c0.4,0.4,0.8,0.6,1.3,0.6c0.4,0,0.7-0.1,1-0.2
		c0.3-0.2,0.5-0.4,0.7-0.6l0.7,0.5C343.3,115.7,342.5,116.1,341.5,116.1z M341.3,110.4c-0.4,0-0.8,0.2-1.1,0.5
		c-0.3,0.3-0.5,0.8-0.5,1.3h3.2v-0.1c0-0.6-0.2-1-0.5-1.3C342.1,110.6,341.8,110.4,341.3,110.4z M347.4,115.2c0.4,0,0.7-0.1,1-0.3
		c0.3-0.2,0.5-0.5,0.5-0.9h1c0,0.4-0.2,0.7-0.4,1c-0.2,0.3-0.5,0.6-0.9,0.8s-0.8,0.3-1.2,0.3c-0.9,0-1.6-0.3-2.1-0.9
		c-0.5-0.6-0.8-1.4-0.8-2.4v-0.1c0-0.6,0.1-1.2,0.3-1.6c0.2-0.5,0.6-0.8,1-1.1c0.4-0.3,0.9-0.4,1.5-0.4c0.7,0,1.3,0.2,1.8,0.6
		s0.7,1,0.8,1.7h-1c0-0.4-0.2-0.8-0.5-1c-0.3-0.3-0.6-0.4-1-0.4c-0.6,0-1,0.2-1.3,0.6s-0.5,1-0.5,1.7v0.2c0,0.7,0.2,1.3,0.5,1.7
		C346.4,115,346.8,115.2,347.4,115.2z M350.5,112.8c0-0.6,0.1-1.2,0.4-1.7c0.2-0.5,0.6-0.9,1-1.1c0.4-0.3,0.9-0.4,1.5-0.4
		c0.9,0,1.6,0.3,2.1,0.9s0.8,1.4,0.8,2.4v0.1c0,0.6-0.1,1.2-0.4,1.7c-0.2,0.5-0.6,0.9-1,1.2s-0.9,0.4-1.5,0.4
		c-0.9,0-1.6-0.3-2.1-0.9C350.8,114.6,350.5,113.8,350.5,112.8L350.5,112.8z M351.6,112.9c0,0.7,0.2,1.3,0.5,1.7s0.8,0.6,1.3,0.6
		c0.6,0,1-0.2,1.3-0.6s0.5-1,0.5-1.8c0-0.7-0.2-1.2-0.5-1.7c-0.3-0.4-0.8-0.7-1.3-0.7s-1,0.2-1.3,0.6
		C351.8,111.5,351.6,112.1,351.6,112.9z M358.8,109.7v0.8c0.5-0.6,1.1-0.9,1.9-0.9c1.3,0,2,0.8,2,2.3v4.2h-1.1v-4.2
		c0-0.4-0.1-0.8-0.3-1c-0.2-0.2-0.5-0.3-1-0.3c-0.4,0-0.7,0.1-0.9,0.3c-0.3,0.2-0.5,0.4-0.6,0.7v4.5h-1.1v-6.4H358.8z M364.6,112.8
		c0-1,0.2-1.8,0.7-2.3c0.5-0.6,1.1-0.9,1.8-0.9c0.7,0,1.3,0.2,1.8,0.8v-3.3h1.1v9h-1v-0.7c-0.4,0.5-1,0.8-1.8,0.8
		c-0.7,0-1.3-0.3-1.8-0.9C364.8,114.6,364.6,113.8,364.6,112.8L364.6,112.8z M365.6,112.9c0,0.7,0.1,1.3,0.4,1.7s0.7,0.6,1.2,0.6
		c0.7,0,1.2-0.3,1.5-0.9v-2.9c-0.3-0.6-0.8-0.9-1.5-0.9c-0.5,0-0.9,0.2-1.2,0.6C365.8,111.5,365.6,112.1,365.6,112.9z"/>
</g>
</svg>
