<?xml version="1.0" encoding="utf-8"?>
<!-- Generator: Adobe Illustrator 23.0.1, SVG Export Plug-In . SVG Version: 6.00 Build 0)  -->
<svg version="1.1" id="Layer_1" xmlns="http://www.w3.org/2000/svg" xmlns:xlink="http://www.w3.org/1999/xlink" x="0px" y="0px"
	 viewBox="0 0 517 565.7" style="enable-background:new 0 0 517 565.7;" xml:space="preserve">
<style type="text/css">
	.st0{fill:#FFFFFF;}
	.st1{fill:#E8E8E8;}
	.st2{enable-background:new    ;}
	.st3{fill:#F75821;}
	.st4{fill:none;stroke:#333333;stroke-miterlimit:10;}
	.st5{fill:#EEEEEE;}
	.st6{fill:none;stroke:#CCCCCC;stroke-miterlimit:10;}
	.st7{clip-path:url(#SVGID_2_);fill:#A13915;}
	.st8{clip-path:url(#SVGID_4_);fill:#F9794D;}
	.st9{clip-path:url(#SVGID_6_);fill:none;}
	.st10{clip-path:url(#SVGID_8_);fill:#F75821;}
	.st11{clip-path:url(#SVGID_10_);fill:#151B35;}
	.st12{clip-path:url(#SVGID_12_);fill:#4D5474;}
	.st13{clip-path:url(#SVGID_14_);fill:none;}
	.st14{clip-path:url(#SVGID_16_);fill:#202951;}
	.st15{fill:none;stroke:#F75821;stroke-width:3;stroke-linecap:round;stroke-linejoin:round;stroke-miterlimit:10;}
	.st16{fill:none;stroke:#202951;stroke-width:3;stroke-linecap:round;stroke-linejoin:round;stroke-miterlimit:10;}
	.st17{fill:#757575;}
	.st18{fill:#202951;}
</style>
<g>
	<path class="st0" d="M10,565.2c-5.2,0-9.5-4.3-9.5-9.5V10c0-5.2,4.3-9.5,9.5-9.5h497c5.2,0,9.5,4.3,9.5,9.5v545.7
		c0,5.2-4.3,9.5-9.5,9.5H10z"/>
	<path class="st1" d="M507,1c5,0,9,4,9,9v545.7c0,5-4,9-9,9H10c-5,0-9-4-9-9V10c0-5,4-9,9-9H507 M507,0H10C4.5,0,0,4.5,0,10v545.7
		c0,5.5,4.5,10,10,10h497c5.5,0,10-4.5,10-10V10C517,4.5,512.5,0,507,0L507,0z"/>
</g>
<g class="st2">
	<path class="st3" d="M105.1,33h6.6v15.4h-3.5V36h-3.1V33z"/>
	<path class="st3" d="M117.7,45.6c0.3,0.3,0.5,0.7,0.5,1.3c0,0.5-0.2,0.9-0.5,1.3s-0.7,0.5-1.2,0.5c-0.5,0-0.9-0.2-1.2-0.5
		c-0.3-0.3-0.5-0.8-0.5-1.3c0-0.5,0.2-0.9,0.5-1.3c0.3-0.3,0.7-0.5,1.2-0.5C117,45.1,117.4,45.3,117.7,45.6z"/>
	<path class="st3" d="M129.7,34c1,0.7,1.4,1.7,1.4,3c0,0.7-0.2,1.3-0.5,1.9s-0.8,1-1.5,1.4c0.9,0.3,1.5,0.9,2,1.5
		c0.5,0.7,0.7,1.5,0.7,2.4c0,0.9-0.2,1.7-0.7,2.4s-1.2,1.2-2.1,1.6c-0.9,0.4-2,0.6-3.2,0.6c-1.2,0-2.3-0.2-3.2-0.5s-1.6-0.9-2.1-1.5
		s-0.7-1.4-0.7-2.3c0-0.9,0.3-1.7,0.8-2.4c0.5-0.7,1.2-1.2,2.2-1.6c-0.7-0.4-1.2-0.8-1.6-1.4c-0.4-0.6-0.6-1.2-0.6-1.9
		c0-1.2,0.5-2.2,1.4-2.9s2.2-1.1,3.8-1.1C127.5,32.9,128.8,33.2,129.7,34z M123.8,42.2c-0.5,0.4-0.7,0.9-0.7,1.6s0.2,1.2,0.7,1.6
		c0.5,0.4,1.2,0.6,2.1,0.6s1.6-0.2,2.1-0.6c0.5-0.4,0.7-0.9,0.7-1.6s-0.2-1.2-0.7-1.6c-0.5-0.4-1.2-0.6-2.1-0.6
		S124.3,41.8,123.8,42.2z M124.1,35.7c-0.4,0.3-0.6,0.8-0.6,1.4c0,0.6,0.2,1,0.6,1.4s1,0.5,1.8,0.5s1.4-0.2,1.8-0.5s0.6-0.8,0.6-1.4
		s-0.2-1.1-0.6-1.4s-1-0.5-1.8-0.5S124.5,35.4,124.1,35.7z"/>
	<path class="st3" d="M133.4,36.6h3.9l2.2,3.6l2.3-3.6h3.7l-3.8,5.8l4,6.1h-3.9l-2.4-3.9l-2.6,3.9h-3.7l4.1-6L133.4,36.6z"/>
	<path class="st3" d="M163.9,34c1,0.7,1.5,1.6,1.5,2.8c0,0.8-0.2,1.5-0.7,2.1c-0.5,0.6-1.1,1-1.9,1.2c1,0.2,1.8,0.6,2.4,1.3
		c0.6,0.7,0.9,1.6,0.9,2.6c0,1.3-0.5,2.4-1.6,3.1c-1,0.8-2.5,1.1-4.2,1.1h-7.3V33h7.1C161.5,33,162.9,33.3,163.9,34z M161.2,38.8
		c0.4-0.3,0.6-0.7,0.6-1.3c0-0.5-0.2-0.9-0.6-1.2c-0.4-0.3-0.9-0.4-1.6-0.4h-3.4v3.4h3.4C160.3,39.2,160.8,39.1,161.2,38.8z
		 M161.6,45.1c0.5-0.3,0.7-0.8,0.7-1.4c0-0.6-0.2-1-0.7-1.3c-0.5-0.3-1.1-0.5-1.9-0.5h-3.4v3.7h3.4
		C160.5,45.6,161.1,45.4,161.6,45.1z"/>
	<path class="st3" d="M177.8,38.1c1,1.1,1.5,2.6,1.5,4.6c0,0.4,0,0.6,0,0.8h-8.5c0.2,0.7,0.6,1.3,1.1,1.7s1.2,0.6,2,0.6
		c0.6,0,1.1-0.1,1.6-0.3c0.5-0.2,1-0.5,1.4-0.9l1.8,1.8c-0.6,0.7-1.3,1.2-2.2,1.6c-0.9,0.4-1.8,0.5-2.9,0.5c-1.2,0-2.3-0.2-3.3-0.7
		c-0.9-0.5-1.7-1.2-2.2-2.1c-0.5-0.9-0.8-2-0.8-3.1c0-1.2,0.3-2.3,0.8-3.2c0.5-0.9,1.2-1.6,2.2-2.1c0.9-0.5,2-0.8,3.2-0.8
		C175.3,36.5,176.8,37,177.8,38.1z M176.1,41.5c0-0.8-0.3-1.4-0.7-1.9c-0.5-0.5-1.1-0.7-1.9-0.7c-0.7,0-1.3,0.2-1.8,0.7
		c-0.5,0.5-0.8,1.1-0.9,1.9H176.1z"/>
	<path class="st3" d="M188.8,47.7c-0.4,0.3-0.9,0.5-1.5,0.6c-0.5,0.1-1.1,0.2-1.6,0.2c-1.1,0-2-0.3-2.7-0.9s-1-1.5-1-2.7v-5.5h-1.6
		v-2.3h1.6v-3.3h3.4v3.3h3.2v2.4h-3.2v4.9c0,0.9,0.4,1.4,1.1,1.4c0.5,0,1-0.1,1.7-0.4L188.8,47.7z"/>
	<path class="st3" d="M198.2,47.7c-0.4,0.3-0.9,0.5-1.5,0.6c-0.5,0.1-1.1,0.2-1.6,0.2c-1.1,0-2-0.3-2.7-0.9s-1-1.5-1-2.7v-5.5h-1.6
		v-2.3h1.6v-3.3h3.4v3.3h3.2v2.4h-3.2v4.9c0,0.9,0.4,1.4,1.1,1.4c0.5,0,1-0.1,1.7-0.4L198.2,47.7z"/>
	<path class="st3" d="M209.6,38.1c1,1.1,1.5,2.6,1.5,4.6c0,0.4,0,0.6,0,0.8h-8.5c0.2,0.7,0.6,1.3,1.1,1.7c0.5,0.4,1.2,0.6,2,0.6
		c0.6,0,1.1-0.1,1.6-0.3c0.5-0.2,1-0.5,1.4-0.9l1.8,1.8c-0.6,0.7-1.3,1.2-2.2,1.6c-0.9,0.4-1.8,0.5-2.9,0.5c-1.2,0-2.3-0.2-3.3-0.7
		c-0.9-0.5-1.6-1.2-2.2-2.1c-0.5-0.9-0.8-2-0.8-3.1c0-1.2,0.3-2.3,0.8-3.2s1.2-1.6,2.2-2.1c0.9-0.5,2-0.8,3.2-0.8
		C207.1,36.5,208.6,37,209.6,38.1z M207.9,41.5c0-0.8-0.3-1.4-0.7-1.9s-1.1-0.7-1.9-0.7c-0.7,0-1.3,0.2-1.8,0.7s-0.8,1.1-0.9,1.9
		H207.9z"/>
	<path class="st3" d="M218.3,37c0.7-0.4,1.4-0.6,2.3-0.6v3.2c-0.1,0-0.3,0-0.5,0c-1,0-1.9,0.3-2.5,0.8c-0.6,0.6-0.9,1.3-0.9,2.3v5.7
		h-3.4V36.6h3.4v2.1C217.1,38,217.6,37.4,218.3,37z"/>
	<path class="st3" d="M235.3,36.1c-0.9-0.3-1.6-0.4-2.3-0.4c-0.6,0-1.1,0.1-1.4,0.3c-0.4,0.2-0.5,0.5-0.5,1c0,0.5,0.3,1,0.8,1.2
		c0.5,0.3,1.3,0.6,2.3,0.9c1.1,0.3,1.9,0.6,2.6,0.9c0.7,0.3,1.3,0.8,1.7,1.4c0.5,0.6,0.7,1.4,0.7,2.4c0,1-0.3,1.8-0.8,2.5
		c-0.5,0.7-1.2,1.2-2.1,1.6c-0.9,0.4-1.9,0.5-3.1,0.5c-1.2,0-2.5-0.2-3.7-0.7c-1.2-0.4-2.2-1-3.1-1.8l1.4-2.8
		c0.8,0.7,1.7,1.3,2.7,1.7c1,0.4,1.9,0.6,2.8,0.6c0.7,0,1.3-0.1,1.7-0.4s0.6-0.6,0.6-1.1c0-0.4-0.1-0.7-0.4-1s-0.6-0.5-1-0.6
		s-1-0.3-1.7-0.5c-1.1-0.3-1.9-0.6-2.6-0.9c-0.7-0.3-1.2-0.7-1.7-1.3c-0.5-0.6-0.7-1.4-0.7-2.4c0-0.9,0.2-1.7,0.7-2.4
		c0.5-0.7,1.2-1.2,2.1-1.6s1.9-0.6,3.1-0.6c1.1,0,2.1,0.2,3.1,0.5c1,0.3,1.9,0.7,2.7,1.2l-1.3,2.9C237,36.8,236.2,36.4,235.3,36.1z"
		/>
	<path class="st3" d="M251,38.1c1,1.1,1.5,2.6,1.5,4.6c0,0.4,0,0.6,0,0.8H244c0.2,0.7,0.6,1.3,1.1,1.7s1.2,0.6,2,0.6
		c0.6,0,1.1-0.1,1.6-0.3c0.5-0.2,1-0.5,1.4-0.9l1.8,1.8c-0.6,0.7-1.3,1.2-2.2,1.6c-0.9,0.4-1.8,0.5-2.9,0.5c-1.2,0-2.3-0.2-3.3-0.7
		c-0.9-0.5-1.7-1.2-2.2-2.1c-0.5-0.9-0.8-2-0.8-3.1c0-1.2,0.3-2.3,0.8-3.2c0.5-0.9,1.2-1.6,2.2-2.1c0.9-0.5,2-0.8,3.2-0.8
		C248.6,36.5,250,37,251,38.1z M249.3,41.5c0-0.8-0.3-1.4-0.7-1.9c-0.5-0.5-1.1-0.7-1.9-0.7c-0.7,0-1.3,0.2-1.8,0.7
		c-0.5,0.5-0.8,1.1-0.9,1.9H249.3z"/>
	<path class="st3" d="M260,39.3c-0.9,0-1.5,0.3-2.1,0.9c-0.5,0.6-0.8,1.3-0.8,2.3c0,1,0.3,1.7,0.8,2.3c0.5,0.6,1.2,0.9,2,0.9
		c1.2,0,2.1-0.5,2.8-1.4l2.3,1.6c-0.5,0.8-1.2,1.5-2.1,1.9c-0.9,0.5-2,0.7-3.2,0.7c-1.2,0-2.2-0.2-3.1-0.7c-0.9-0.5-1.6-1.2-2.1-2.1
		c-0.5-0.9-0.8-2-0.8-3.1c0-1.2,0.3-2.3,0.8-3.2s1.2-1.6,2.1-2.1c0.9-0.5,2-0.8,3.2-0.8c1.1,0,2.1,0.2,3,0.6s1.6,1,2.1,1.8l-2.3,1.7
		C262,39.8,261.1,39.3,260,39.3z"/>
	<path class="st3" d="M275.4,37.2c1,0.5,1.7,1.2,2.2,2.1c0.5,0.9,0.8,2,0.8,3.2c0,1.2-0.3,2.2-0.8,3.2c-0.5,0.9-1.3,1.6-2.2,2.1
		s-2.1,0.8-3.3,0.8c-1.3,0-2.4-0.3-3.3-0.8c-1-0.5-1.7-1.2-2.2-2.1s-0.8-2-0.8-3.2c0-1.2,0.3-2.3,0.8-3.2s1.3-1.6,2.2-2.1
		c1-0.5,2.1-0.7,3.3-0.7C273.3,36.5,274.4,36.7,275.4,37.2z M269.9,40.2c-0.5,0.6-0.8,1.4-0.8,2.4s0.3,1.8,0.8,2.4s1.3,0.9,2.1,0.9
		c0.9,0,1.6-0.3,2.1-0.9c0.5-0.6,0.8-1.4,0.8-2.4s-0.3-1.8-0.8-2.4c-0.6-0.6-1.3-0.9-2.1-0.9C271.2,39.3,270.5,39.6,269.9,40.2z"/>
	<path class="st3" d="M291.3,37.7c0.8,0.8,1.2,1.9,1.2,3.3v7.4h-3.4V42c0-0.7-0.2-1.3-0.6-1.8c-0.4-0.4-1-0.6-1.7-0.6
		c-0.8,0-1.5,0.3-2,0.9s-0.7,1.3-0.7,2.2v5.8h-3.4V36.6h3.4v2.1c0.8-1.4,2.2-2.2,4.1-2.2C289.5,36.4,290.5,36.8,291.3,37.7z"/>
	<path class="st3" d="M307.1,32.1v16.3h-3.4v-1.7c-0.4,0.6-1,1.1-1.6,1.4c-0.6,0.3-1.3,0.5-2.2,0.5c-1.1,0-2.1-0.3-2.9-0.8
		c-0.8-0.5-1.5-1.2-2-2.1c-0.5-0.9-0.7-2-0.7-3.2c0-1.2,0.2-2.2,0.7-3.1c0.5-0.9,1.1-1.6,1.9-2.1c0.8-0.5,1.8-0.7,2.9-0.7
		c1.7,0,2.9,0.6,3.8,1.9v-6.2H307.1z M302.9,44.9c0.5-0.6,0.8-1.4,0.8-2.4s-0.3-1.8-0.8-2.4c-0.5-0.6-1.3-0.9-2.1-0.9
		c-0.9,0-1.6,0.3-2.1,0.9c-0.6,0.6-0.8,1.4-0.8,2.4c0,1,0.3,1.8,0.8,2.4c0.5,0.6,1.3,0.9,2.1,0.9C301.6,45.8,302.3,45.5,302.9,44.9z
		"/>
	<path class="st3" d="M317.3,48.4V47c-0.4,0.5-0.9,0.9-1.5,1.1c-0.6,0.3-1.4,0.4-2.2,0.4c-1.2,0-2.2-0.3-3-1
		c-0.7-0.7-1.1-1.6-1.1-2.7c0-1.1,0.4-2,1.2-2.6c0.8-0.6,1.9-0.9,3.3-1h3.3v-0.2c0-0.6-0.2-1.1-0.6-1.5s-1-0.5-1.8-0.5
		c-1.1,0-2.3,0.3-3.5,1l-1.1-2.3c0.9-0.5,1.8-0.8,2.6-1c0.8-0.2,1.7-0.3,2.7-0.3c1.6,0,2.8,0.4,3.7,1.1c0.9,0.7,1.3,1.8,1.3,3.1
		l0,7.7H317.3z M316.4,45.6c0.5-0.3,0.8-0.8,0.9-1.3v-1.1h-2.7c-0.7,0-1.1,0.1-1.5,0.3c-0.3,0.2-0.5,0.6-0.5,1
		c0,0.5,0.2,0.8,0.5,1.1c0.3,0.3,0.8,0.4,1.4,0.4C315.3,46.1,315.9,46,316.4,45.6z"/>
	<path class="st3" d="M328.6,37c0.7-0.4,1.4-0.6,2.3-0.6v3.2c-0.1,0-0.3,0-0.5,0c-1,0-1.9,0.3-2.5,0.8c-0.6,0.6-0.9,1.3-0.9,2.3v5.7
		h-3.4V36.6h3.4v2.1C327.4,38,327.9,37.4,328.6,37z"/>
	<path class="st3" d="M334.7,52.8c-0.6,0-1.2-0.1-1.7-0.3c-0.5-0.2-1-0.5-1.5-0.9l1.4-2.4c0.5,0.4,1,0.6,1.5,0.6
		c0.7,0,1.2-0.4,1.6-1.1l0.3-0.7l-4.9-11.6h3.5l3.1,8.1l2.8-8.1h3.4L339,49.7C338.2,51.8,336.7,52.8,334.7,52.8z"/>
	<path class="st3" d="M350.9,33h3.5v15.4h-3.5V33z"/>
	<path class="st3" d="M368.3,37.7c0.8,0.8,1.2,1.9,1.2,3.3v7.4h-3.4V42c0-0.7-0.2-1.3-0.6-1.8c-0.4-0.4-1-0.6-1.7-0.6
		c-0.8,0-1.5,0.3-2,0.9s-0.7,1.3-0.7,2.2v5.8h-3.4V36.6h3.4v2.1c0.8-1.4,2.2-2.2,4.1-2.2C366.5,36.4,367.6,36.8,368.3,37.7z"/>
	<path class="st3" d="M384.1,32.1v16.3h-3.4v-1.7c-0.4,0.6-1,1.1-1.6,1.4s-1.3,0.5-2.2,0.5c-1.1,0-2.1-0.3-2.9-0.8s-1.5-1.2-2-2.1
		c-0.5-0.9-0.7-2-0.7-3.2c0-1.2,0.2-2.2,0.7-3.1c0.5-0.9,1.1-1.6,1.9-2.1c0.8-0.5,1.8-0.7,2.9-0.7c1.7,0,2.9,0.6,3.8,1.9v-6.2H384.1
		z M379.9,44.9c0.5-0.6,0.8-1.4,0.8-2.4s-0.3-1.8-0.8-2.4c-0.6-0.6-1.3-0.9-2.1-0.9c-0.9,0-1.6,0.3-2.1,0.9
		c-0.5,0.6-0.8,1.4-0.8,2.4c0,1,0.3,1.8,0.8,2.4s1.3,0.9,2.1,0.9C378.7,45.8,379.4,45.5,379.9,44.9z"/>
	<path class="st3" d="M396.9,38.1c1,1.1,1.5,2.6,1.5,4.6c0,0.4,0,0.6,0,0.8h-8.5c0.2,0.7,0.6,1.3,1.1,1.7s1.2,0.6,2,0.6
		c0.6,0,1.1-0.1,1.6-0.3c0.5-0.2,1-0.5,1.4-0.9l1.8,1.8c-0.6,0.7-1.3,1.2-2.2,1.6c-0.9,0.4-1.8,0.5-2.9,0.5c-1.2,0-2.3-0.2-3.3-0.7
		c-0.9-0.5-1.7-1.2-2.2-2.1c-0.5-0.9-0.8-2-0.8-3.1c0-1.2,0.3-2.3,0.8-3.2c0.5-0.9,1.2-1.6,2.2-2.1c0.9-0.5,2-0.8,3.2-0.8
		C394.5,36.5,396,37,396.9,38.1z M395.2,41.5c0-0.8-0.3-1.4-0.7-1.9c-0.5-0.5-1.1-0.7-1.9-0.7c-0.7,0-1.3,0.2-1.8,0.7
		c-0.5,0.5-0.8,1.1-0.9,1.9H395.2z"/>
	<path class="st3" d="M398.8,36.6h3.9l2.2,3.6l2.3-3.6h3.7l-3.8,5.8l4,6.1h-3.9l-2.4-3.9l-2.6,3.9h-3.7l4.1-6L398.8,36.6z"/>
</g>
<g class="st2">
	<path class="st3" d="M168,76.7c-0.6,0.5-1.3,0.9-2.1,1.2c-0.8,0.3-1.6,0.5-2.3,0.5c-1,0-2-0.3-2.8-0.9c-0.8-0.6-1.5-1.4-2.1-2.5
		c-1.5,0-2.9-0.4-4.1-1.1c-1.2-0.7-2.2-1.7-2.9-2.9c-0.7-1.2-1.1-2.5-1.1-4c0-1.5,0.4-2.8,1.1-4s1.7-2.2,3-2.8c1.3-0.7,2.7-1,4.2-1
		c1.5,0,2.9,0.3,4.2,1c1.3,0.7,2.3,1.6,3,2.8c0.7,1.2,1.1,2.6,1.1,4c0,1.7-0.5,3.2-1.4,4.6c-0.9,1.3-2.2,2.3-3.8,2.9
		c0.7,0.7,1.3,1.1,2,1.1c0.4,0,0.8-0.1,1.3-0.3c0.5-0.2,1-0.5,1.5-0.9L168,76.7z M154.8,69.6c0.4,0.7,1,1.3,1.7,1.8
		c0.7,0.4,1.5,0.7,2.4,0.7c0.9,0,1.6-0.2,2.3-0.6c0.7-0.4,1.3-1,1.7-1.8c0.4-0.8,0.6-1.6,0.6-2.5c0-0.9-0.2-1.7-0.6-2.5
		c-0.4-0.7-1-1.3-1.7-1.8s-1.5-0.6-2.3-0.6c-0.9,0-1.6,0.2-2.4,0.6c-0.7,0.4-1.3,1-1.7,1.8c-0.4,0.7-0.6,1.6-0.6,2.5
		C154.2,68,154.4,68.8,154.8,69.6z"/>
	<path class="st3" d="M180.8,63v11.8h-3.4v-2.1c-0.8,1.5-2.1,2.2-4,2.2c-1.3,0-2.3-0.4-3.1-1.2c-0.8-0.8-1.2-1.9-1.2-3.3V63h3.4v6.5
		c0,0.7,0.2,1.3,0.6,1.8c0.4,0.4,0.9,0.6,1.6,0.6c0.8,0,1.4-0.3,1.9-0.9c0.5-0.6,0.7-1.3,0.7-2.2V63H180.8z"/>
	<path class="st3" d="M193.5,64.5c1,1.1,1.5,2.6,1.5,4.6c0,0.4,0,0.6,0,0.8h-8.5c0.2,0.7,0.6,1.3,1.1,1.7c0.5,0.4,1.2,0.6,2,0.6
		c0.6,0,1.1-0.1,1.6-0.3c0.5-0.2,1-0.5,1.4-0.9l1.8,1.8c-0.6,0.7-1.3,1.2-2.2,1.6s-1.8,0.5-2.9,0.5c-1.2,0-2.3-0.2-3.3-0.7
		c-0.9-0.5-1.6-1.2-2.2-2.1c-0.5-0.9-0.8-2-0.8-3.1c0-1.2,0.3-2.3,0.8-3.2c0.5-0.9,1.2-1.6,2.2-2.1c0.9-0.5,2-0.8,3.2-0.8
		C191,62.9,192.5,63.4,193.5,64.5z M191.8,67.9c0-0.8-0.3-1.4-0.7-1.9c-0.5-0.5-1.1-0.7-1.9-0.7c-0.7,0-1.3,0.2-1.8,0.7
		c-0.5,0.5-0.8,1.1-0.9,1.9H191.8z"/>
	<path class="st3" d="M202.2,63.4c0.7-0.4,1.4-0.6,2.3-0.6V66c-0.1,0-0.3,0-0.5,0c-1,0-1.9,0.3-2.5,0.8c-0.6,0.6-0.9,1.3-0.9,2.3
		v5.7h-3.4V63h3.4v2.1C201,64.4,201.5,63.8,202.2,63.4z"/>
	<path class="st3" d="M208.3,79.2c-0.6,0-1.2-0.1-1.7-0.3c-0.5-0.2-1-0.5-1.5-0.9l1.4-2.4c0.5,0.4,1,0.6,1.5,0.6
		c0.7,0,1.2-0.4,1.6-1.1l0.3-0.7L205,63h3.5l3.1,8.1l2.8-8.1h3.4l-5.2,13.2C211.8,78.2,210.3,79.2,208.3,79.2z"/>
	<path class="st3" d="M235.6,60.8c1.1,0.9,1.6,2.2,1.6,3.9c0,1.8-0.5,3.2-1.6,4.2s-2.6,1.5-4.5,1.5H228v4.4h-3.5V59.4h6.5
		C233,59.4,234.5,59.9,235.6,60.8z M233.1,66.8c0.5-0.4,0.8-1.1,0.8-2c0-0.9-0.3-1.5-0.8-1.9c-0.5-0.4-1.3-0.6-2.3-0.6H228v5.2h2.9
		C231.8,67.5,232.6,67.3,233.1,66.8z"/>
	<path class="st3" d="M248.8,64.5c1,1.1,1.5,2.6,1.5,4.6c0,0.4,0,0.6,0,0.8h-8.5c0.2,0.7,0.6,1.3,1.1,1.7c0.5,0.4,1.2,0.6,2,0.6
		c0.6,0,1.1-0.1,1.6-0.3c0.5-0.2,1-0.5,1.4-0.9l1.8,1.8c-0.6,0.7-1.3,1.2-2.2,1.6s-1.8,0.5-2.9,0.5c-1.2,0-2.3-0.2-3.3-0.7
		c-0.9-0.5-1.6-1.2-2.2-2.1c-0.5-0.9-0.8-2-0.8-3.1c0-1.2,0.3-2.3,0.8-3.2c0.5-0.9,1.2-1.6,2.2-2.1c0.9-0.5,2-0.8,3.2-0.8
		C246.3,62.9,247.8,63.4,248.8,64.5z M247.1,67.9c0-0.8-0.3-1.4-0.7-1.9c-0.5-0.5-1.1-0.7-1.9-0.7c-0.7,0-1.3,0.2-1.8,0.7
		c-0.5,0.5-0.8,1.1-0.9,1.9H247.1z"/>
	<path class="st3" d="M257.5,63.4c0.7-0.4,1.4-0.6,2.3-0.6V66c-0.1,0-0.3,0-0.5,0c-1,0-1.9,0.3-2.5,0.8c-0.6,0.6-0.9,1.3-0.9,2.3
		v5.7h-3.4V63h3.4v2.1C256.3,64.4,256.8,63.8,257.5,63.4z"/>
	<path class="st3" d="M266,61.5c-0.3,0.2-0.4,0.6-0.4,1v1h2.8v2.4h-2.8v9h-3.4v-9h-1.6v-2.4h1.6v-1.1c0-0.9,0.2-1.6,0.6-2.2
		c0.4-0.6,0.9-1.1,1.6-1.4c0.7-0.3,1.4-0.5,2.2-0.5c0.8,0,1.5,0.2,2.3,0.5l-0.5,2.6c-0.2-0.1-0.5-0.2-0.7-0.2s-0.5-0.1-0.7-0.1
		C266.6,61.1,266.3,61.2,266,61.5z"/>
	<path class="st3" d="M278.4,63.6c1,0.5,1.7,1.2,2.2,2.1c0.5,0.9,0.8,2,0.8,3.2c0,1.2-0.3,2.2-0.8,3.2c-0.5,0.9-1.3,1.6-2.2,2.1
		c-1,0.5-2.1,0.8-3.3,0.8c-1.3,0-2.4-0.3-3.3-0.8s-1.7-1.2-2.2-2.1c-0.5-0.9-0.8-2-0.8-3.2c0-1.2,0.3-2.3,0.8-3.2
		c0.5-0.9,1.3-1.6,2.2-2.1c1-0.5,2.1-0.7,3.3-0.7C276.4,62.9,277.5,63.1,278.4,63.6z M273,66.6c-0.6,0.6-0.8,1.4-0.8,2.4
		s0.3,1.8,0.8,2.4c0.5,0.6,1.3,0.9,2.1,0.9c0.9,0,1.6-0.3,2.1-0.9s0.8-1.4,0.8-2.4s-0.3-1.8-0.8-2.4s-1.3-0.9-2.1-0.9
		C274.2,65.7,273.5,66,273,66.6z"/>
	<path class="st3" d="M288.7,63.4c0.7-0.4,1.4-0.6,2.3-0.6V66c-0.1,0-0.3,0-0.5,0c-1,0-1.9,0.3-2.5,0.8s-0.9,1.3-0.9,2.3v5.7h-3.4
		V63h3.4v2.1C287.5,64.4,288,63.8,288.7,63.4z"/>
	<path class="st3" d="M311.6,64.1c0.8,0.8,1.2,1.9,1.2,3.3v7.4h-3.4v-6.4c0-0.8-0.2-1.4-0.6-1.8c-0.4-0.4-1-0.6-1.7-0.6
		c-0.8,0-1.4,0.3-1.9,0.9c-0.5,0.6-0.7,1.3-0.7,2.2v5.9h-3.4v-6.4c0-0.7-0.2-1.3-0.6-1.8s-1-0.6-1.7-0.6c-0.8,0-1.4,0.3-1.9,0.9
		s-0.7,1.3-0.7,2.2v5.9h-3.4V63h3.4v2c0.8-1.4,2.2-2.1,4-2.2c1,0,1.8,0.2,2.5,0.7s1.2,1.1,1.5,2c0.4-0.9,0.9-1.6,1.7-2
		c0.7-0.5,1.6-0.7,2.6-0.7C309.8,62.8,310.8,63.2,311.6,64.1z"/>
	<path class="st3" d="M322.6,74.8v-1.4c-0.4,0.5-0.9,0.9-1.5,1.1c-0.6,0.3-1.4,0.4-2.2,0.4c-1.2,0-2.2-0.3-3-1
		c-0.7-0.7-1.1-1.6-1.1-2.7c0-1.1,0.4-2,1.2-2.6c0.8-0.6,1.9-0.9,3.3-1h3.3v-0.2c0-0.6-0.2-1.1-0.6-1.5c-0.4-0.3-1-0.5-1.8-0.5
		c-1.1,0-2.3,0.3-3.5,1l-1.1-2.3c0.9-0.5,1.8-0.8,2.6-1c0.8-0.2,1.7-0.3,2.7-0.3c1.6,0,2.8,0.4,3.7,1.1c0.9,0.7,1.3,1.8,1.3,3.1
		l0,7.7H322.6z M321.6,72c0.5-0.3,0.8-0.8,0.9-1.3v-1.1h-2.7c-0.7,0-1.1,0.1-1.5,0.3c-0.3,0.2-0.5,0.6-0.5,1c0,0.5,0.2,0.8,0.5,1.1
		s0.8,0.4,1.4,0.4C320.5,72.5,321.1,72.4,321.6,72z"/>
	<path class="st3" d="M339.4,64.1c0.8,0.8,1.2,1.9,1.2,3.3v7.4h-3.4v-6.4c0-0.7-0.2-1.3-0.6-1.8s-1-0.6-1.7-0.6
		c-0.8,0-1.5,0.3-2,0.9c-0.5,0.6-0.7,1.3-0.7,2.2v5.8h-3.4V63h3.4V65c0.8-1.4,2.2-2.2,4.1-2.2C337.6,62.8,338.7,63.2,339.4,64.1z"/>
	<path class="st3" d="M348.8,65.7c-0.9,0-1.5,0.3-2.1,0.9c-0.5,0.6-0.8,1.3-0.8,2.3c0,1,0.3,1.7,0.8,2.3s1.2,0.9,2,0.9
		c1.2,0,2.1-0.5,2.8-1.4l2.3,1.6c-0.5,0.8-1.2,1.5-2.1,1.9c-0.9,0.5-2,0.7-3.2,0.7c-1.2,0-2.2-0.2-3.1-0.7c-0.9-0.5-1.6-1.2-2.1-2.1
		c-0.5-0.9-0.8-2-0.8-3.1c0-1.2,0.3-2.3,0.8-3.2s1.2-1.6,2.1-2.1c0.9-0.5,2-0.8,3.2-0.8c1.1,0,2.1,0.2,3,0.6c0.9,0.4,1.6,1,2.1,1.8
		l-2.3,1.7C350.8,66.2,349.9,65.7,348.8,65.7z"/>
	<path class="st3" d="M365,64.5c1,1.1,1.5,2.6,1.5,4.6c0,0.4,0,0.6,0,0.8H358c0.2,0.7,0.6,1.3,1.1,1.7c0.5,0.4,1.2,0.6,2,0.6
		c0.6,0,1.1-0.1,1.6-0.3c0.5-0.2,1-0.5,1.4-0.9l1.8,1.8c-0.6,0.7-1.3,1.2-2.2,1.6c-0.9,0.4-1.8,0.5-2.9,0.5c-1.2,0-2.3-0.2-3.3-0.7
		c-0.9-0.5-1.6-1.2-2.2-2.1c-0.5-0.9-0.8-2-0.8-3.1c0-1.2,0.3-2.3,0.8-3.2s1.2-1.6,2.2-2.1c0.9-0.5,2-0.8,3.2-0.8
		C362.5,62.9,364,63.4,365,64.5z M363.3,67.9c0-0.8-0.3-1.4-0.7-1.9s-1.1-0.7-1.9-0.7c-0.7,0-1.3,0.2-1.8,0.7s-0.8,1.1-0.9,1.9
		H363.3z"/>
</g>
<path class="st4" d="M104,472.2h389"/>
<path class="st5" d="M74,502.2l30-29h389l-30,29H74z"/>
<path class="st6" d="M104,406.2h389"/>
<path class="st6" d="M104,339.2h389"/>
<path class="st6" d="M104,272.2h389"/>
<path class="st6" d="M104,206.2h389"/>
<path class="st6" d="M104,139.2h389"/>
<g>
	<g>
		<defs>
			<rect id="SVGID_1_" x="74" y="139" width="419" height="363.3"/>
		</defs>
		<clipPath id="SVGID_2_">
			<use xlink:href="#SVGID_1_"  style="overflow:visible;"/>
		</clipPath>
		<path class="st7" d="M295.5,198.7v274l-25,25v-274L295.5,198.7z"/>
	</g>
</g>
<g>
	<g>
		<defs>
			<rect id="SVGID_3_" x="74" y="139" width="419" height="363.3"/>
		</defs>
		<clipPath id="SVGID_4_">
			<use xlink:href="#SVGID_3_"  style="overflow:visible;"/>
		</clipPath>
		<path class="st8" d="M270.5,223.7h-100l25-25h100L270.5,223.7z"/>
	</g>
</g>
<g>
	<g>
		<defs>
			<rect id="SVGID_5_" x="74" y="139" width="419" height="363.3"/>
		</defs>
		<clipPath id="SVGID_6_">
			<use xlink:href="#SVGID_5_"  style="overflow:visible;"/>
		</clipPath>
		<path class="st9" d="M270.5,497.7h-100v-274h100V497.7z"/>
	</g>
</g>
<g>
	<g>
		<defs>
			<rect id="SVGID_7_" x="74" y="139" width="419" height="363.3"/>
		</defs>
		<clipPath id="SVGID_8_">
			<use xlink:href="#SVGID_7_"  style="overflow:visible;"/>
		</clipPath>
		<path class="st10" d="M270.5,497.7h-100v-274h100V497.7z"/>
	</g>
</g>
<g>
	<g>
		<defs>
			<rect id="SVGID_9_" x="74" y="139" width="419" height="363.3"/>
		</defs>
		<clipPath id="SVGID_10_">
			<use xlink:href="#SVGID_9_"  style="overflow:visible;"/>
		</clipPath>
		<path class="st11" d="M396.5,319.7v153l-25,25v-153L396.5,319.7z"/>
	</g>
</g>
<g>
	<g>
		<defs>
			<rect id="SVGID_11_" x="74" y="139" width="419" height="363.3"/>
		</defs>
		<clipPath id="SVGID_12_">
			<use xlink:href="#SVGID_11_"  style="overflow:visible;"/>
		</clipPath>
		<path class="st12" d="M371.5,344.7h-100l25-25h100L371.5,344.7z"/>
	</g>
</g>
<g>
	<g>
		<defs>
			<rect id="SVGID_13_" x="74" y="139" width="419" height="363.3"/>
		</defs>
		<clipPath id="SVGID_14_">
			<use xlink:href="#SVGID_13_"  style="overflow:visible;"/>
		</clipPath>
		<path class="st13" d="M371.5,497.7h-100v-153h100V497.7z"/>
	</g>
</g>
<g>
	<g>
		<defs>
			<rect id="SVGID_15_" x="74" y="139" width="419" height="363.3"/>
		</defs>
		<clipPath id="SVGID_16_">
			<use xlink:href="#SVGID_15_"  style="overflow:visible;"/>
		</clipPath>
		<path class="st14" d="M371.5,497.7h-100v-153h100V497.7z"/>
	</g>
</g>
<path class="st15" d="M203.3,240.1h-1.1v-7.2l-2.2,0.8v-1l3.1-1.2h0.2V240.1z M212.1,236.5c0,1.3-0.2,2.2-0.7,2.8
	c-0.4,0.6-1.1,0.9-2,0.9s-1.6-0.3-2-0.9s-0.7-1.5-0.7-2.7v-1.4c0-1.3,0.2-2.2,0.6-2.8c0.4-0.6,1.1-0.9,2-0.9s1.6,0.3,2,0.9
	c0.4,0.6,0.7,1.5,0.7,2.7L212.1,236.5L212.1,236.5z M211,235c0-0.9-0.1-1.6-0.4-2c-0.2-0.4-0.7-0.6-1.2-0.6c-0.6,0-1,0.2-1.2,0.6
	c-0.2,0.4-0.4,1.1-0.4,1.9v1.7c0,0.9,0.1,1.6,0.4,2c0.3,0.4,0.7,0.7,1.2,0.7s0.9-0.2,1.2-0.6s0.4-1.1,0.4-2V235z M219.3,240.1h-5.6
	v-0.8l3-3.3c0.4-0.5,0.7-0.9,0.9-1.2s0.2-0.6,0.2-1s-0.1-0.8-0.4-1.1c-0.3-0.3-0.6-0.4-1.1-0.4s-0.9,0.2-1.2,0.5s-0.5,0.7-0.5,1.3
	h-1.1c0-0.8,0.2-1.4,0.8-1.9c0.5-0.5,1.2-0.7,2-0.7s1.4,0.2,1.9,0.6s0.7,1,0.7,1.7c0,0.8-0.5,1.8-1.6,3l-2.3,2.5h4.3L219.3,240.1
	L219.3,240.1z M220.8,241.8l-0.6-0.4c0.4-0.5,0.6-1,0.6-1.6v-1h1.1v0.8c0,0.4-0.1,0.8-0.3,1.2S221.1,241.6,220.8,241.8z
	 M228.2,232.2l-3.5,7.9h-1.1l3.5-7.6h-4.6v-0.9h5.8L228.2,232.2L228.2,232.2z M234,231.6v0.9h-0.2c-0.8,0-1.5,0.3-2,0.8
	s-0.8,1.2-0.9,2c0.5-0.5,1.1-0.8,1.8-0.8s1.3,0.3,1.8,0.8s0.7,1.2,0.7,2c0,0.9-0.2,1.6-0.7,2.1s-1.1,0.8-1.9,0.8s-1.5-0.3-2-0.9
	c-0.5-0.6-0.8-1.4-0.8-2.4v-0.4c0-1.6,0.3-2.8,1-3.6s1.7-1.3,3-1.3L234,231.6L234,231.6z M232.5,235.5c-0.4,0-0.7,0.1-1,0.3
	s-0.5,0.5-0.7,0.8v0.4c0,0.7,0.2,1.3,0.5,1.7s0.7,0.6,1.2,0.6s0.9-0.2,1.2-0.5c0.3-0.4,0.4-0.8,0.4-1.4s-0.1-1.1-0.4-1.4
	C233.4,235.6,233,235.5,232.5,235.5z M242.1,236.5c0,1.3-0.2,2.2-0.7,2.8c-0.4,0.6-1.1,0.9-2,0.9s-1.6-0.3-2-0.9s-0.7-1.5-0.7-2.7
	v-1.4c0-1.3,0.2-2.2,0.6-2.8c0.4-0.6,1.1-0.9,2-0.9s1.6,0.3,2,0.9c0.4,0.6,0.7,1.5,0.7,2.7L242.1,236.5L242.1,236.5z M241,235
	c0-0.9-0.1-1.6-0.4-2c-0.2-0.4-0.7-0.6-1.2-0.6c-0.6,0-1,0.2-1.2,0.6c-0.2,0.4-0.4,1.1-0.4,1.9v1.7c0,0.9,0.1,1.6,0.4,2
	c0.3,0.4,0.7,0.7,1.2,0.7s0.9-0.2,1.2-0.6s0.4-1.1,0.4-2V235z"/>
<path class="st0" d="M203.3,240.1h-1.1v-7.2l-2.2,0.8v-1l3.1-1.2h0.2V240.1z M212.1,236.5c0,1.3-0.2,2.2-0.7,2.8
	c-0.4,0.6-1.1,0.9-2,0.9s-1.6-0.3-2-0.9s-0.7-1.5-0.7-2.7v-1.4c0-1.3,0.2-2.2,0.6-2.8c0.4-0.6,1.1-0.9,2-0.9s1.6,0.3,2,0.9
	c0.4,0.6,0.7,1.5,0.7,2.7L212.1,236.5L212.1,236.5z M211,235c0-0.9-0.1-1.6-0.4-2c-0.2-0.4-0.7-0.6-1.2-0.6c-0.6,0-1,0.2-1.2,0.6
	c-0.2,0.4-0.4,1.1-0.4,1.9v1.7c0,0.9,0.1,1.6,0.4,2c0.3,0.4,0.7,0.7,1.2,0.7s0.9-0.2,1.2-0.6s0.4-1.1,0.4-2V235z M219.3,240.1h-5.6
	v-0.8l3-3.3c0.4-0.5,0.7-0.9,0.9-1.2s0.2-0.6,0.2-1s-0.1-0.8-0.4-1.1c-0.3-0.3-0.6-0.4-1.1-0.4s-0.9,0.2-1.2,0.5s-0.5,0.7-0.5,1.3
	h-1.1c0-0.8,0.2-1.4,0.8-1.9c0.5-0.5,1.2-0.7,2-0.7s1.4,0.2,1.9,0.6s0.7,1,0.7,1.7c0,0.8-0.5,1.8-1.6,3l-2.3,2.5h4.3L219.3,240.1
	L219.3,240.1z M220.8,241.8l-0.6-0.4c0.4-0.5,0.6-1,0.6-1.6v-1h1.1v0.8c0,0.4-0.1,0.8-0.3,1.2S221.1,241.6,220.8,241.8z
	 M228.2,232.2l-3.5,7.9h-1.1l3.5-7.6h-4.6v-0.9h5.8L228.2,232.2L228.2,232.2z M234,231.6v0.9h-0.2c-0.8,0-1.5,0.3-2,0.8
	s-0.8,1.2-0.9,2c0.5-0.5,1.1-0.8,1.8-0.8s1.3,0.3,1.8,0.8s0.7,1.2,0.7,2c0,0.9-0.2,1.6-0.7,2.1s-1.1,0.8-1.9,0.8s-1.5-0.3-2-0.9
	c-0.5-0.6-0.8-1.4-0.8-2.4v-0.4c0-1.6,0.3-2.8,1-3.6s1.7-1.3,3-1.3L234,231.6L234,231.6z M232.5,235.5c-0.4,0-0.7,0.1-1,0.3
	s-0.5,0.5-0.7,0.8v0.4c0,0.7,0.2,1.3,0.5,1.7s0.7,0.6,1.2,0.6s0.9-0.2,1.2-0.5c0.3-0.4,0.4-0.8,0.4-1.4s-0.1-1.1-0.4-1.4
	C233.4,235.6,233,235.5,232.5,235.5z M242.1,236.5c0,1.3-0.2,2.2-0.7,2.8c-0.4,0.6-1.1,0.9-2,0.9s-1.6-0.3-2-0.9s-0.7-1.5-0.7-2.7
	v-1.4c0-1.3,0.2-2.2,0.6-2.8c0.4-0.6,1.1-0.9,2-0.9s1.6,0.3,2,0.9c0.4,0.6,0.7,1.5,0.7,2.7L242.1,236.5L242.1,236.5z M241,235
	c0-0.9-0.1-1.6-0.4-2c-0.2-0.4-0.7-0.6-1.2-0.6c-0.6,0-1,0.2-1.2,0.6c-0.2,0.4-0.4,1.1-0.4,1.9v1.7c0,0.9,0.1,1.6,0.4,2
	c0.3,0.4,0.7,0.7,1.2,0.7s0.9-0.2,1.2-0.6s0.4-1.1,0.4-2V235z"/>
<path class="st16" d="M304.7,356.8l0.4-4.2h4.4v1H306l-0.3,2.3c0.4-0.2,0.9-0.4,1.4-0.4c0.8,0,1.4,0.3,1.8,0.8
	c0.5,0.5,0.7,1.2,0.7,2.1s-0.2,1.6-0.7,2.1s-1.1,0.8-2,0.8c-0.8,0-1.4-0.2-1.8-0.6c-0.5-0.4-0.8-1-0.8-1.8h1
	c0.1,0.5,0.2,0.9,0.5,1.1s0.7,0.4,1.1,0.4c0.5,0,0.9-0.2,1.2-0.5s0.4-0.8,0.4-1.4s-0.2-1-0.5-1.4s-0.7-0.5-1.2-0.5s-0.8,0.1-1.1,0.3
	l-0.3,0.2L304.7,356.8z M316.7,353.2l-3.5,7.9H312l3.5-7.6H311v-0.9h5.8L316.7,353.2L316.7,353.2z M318.3,362.8l-0.6-0.4
	c0.4-0.5,0.6-1,0.6-1.6v-1h1.1v0.8c0,0.4-0.1,0.8-0.3,1.2C318.8,362.2,318.6,362.6,318.3,362.8z M324.8,358.2h1.2v0.9h-1.2v2h-1.1
	v-2h-3.9v-0.6l3.8-5.9h1.2V358.2z M321,358.2h2.7V354l-0.1,0.2L321,358.2z M332.6,357.5c0,1.3-0.2,2.2-0.7,2.8
	c-0.4,0.6-1.1,0.9-2,0.9s-1.6-0.3-2-0.9s-0.7-1.5-0.7-2.7v-1.4c0-1.3,0.2-2.2,0.6-2.8c0.4-0.6,1.1-0.9,2-0.9s1.6,0.3,2,0.9
	s0.7,1.5,0.7,2.7v1.4H332.6z M331.5,356c0-0.9-0.1-1.6-0.4-2c-0.2-0.4-0.7-0.6-1.2-0.6c-0.6,0-1,0.2-1.2,0.6s-0.4,1.1-0.4,1.9v1.7
	c0,0.9,0.1,1.6,0.4,2s0.7,0.7,1.2,0.7s0.9-0.2,1.2-0.6c0.3-0.4,0.4-1.1,0.4-2V356z M339.6,357.5c0,1.3-0.2,2.2-0.7,2.8
	c-0.4,0.6-1.1,0.9-2,0.9s-1.6-0.3-2-0.9s-0.7-1.5-0.7-2.7v-1.4c0-1.3,0.2-2.2,0.6-2.8c0.4-0.6,1.1-0.9,2-0.9s1.6,0.3,2,0.9
	s0.7,1.5,0.7,2.7v1.4H339.6z M338.5,356c0-0.9-0.1-1.6-0.4-2c-0.2-0.4-0.7-0.6-1.2-0.6c-0.6,0-1,0.2-1.2,0.6s-0.4,1.1-0.4,1.9v1.7
	c0,0.9,0.1,1.6,0.4,2s0.7,0.7,1.2,0.7s0.9-0.2,1.2-0.6c0.3-0.4,0.4-1.1,0.4-2V356z"/>
<path class="st0" d="M304.7,356.8l0.4-4.2h4.4v1H306l-0.3,2.3c0.4-0.2,0.9-0.4,1.4-0.4c0.8,0,1.4,0.3,1.8,0.8
	c0.5,0.5,0.7,1.2,0.7,2.1s-0.2,1.6-0.7,2.1s-1.1,0.8-2,0.8c-0.8,0-1.4-0.2-1.8-0.6c-0.5-0.4-0.8-1-0.8-1.8h1
	c0.1,0.5,0.2,0.9,0.5,1.1s0.7,0.4,1.1,0.4c0.5,0,0.9-0.2,1.2-0.5s0.4-0.8,0.4-1.4s-0.2-1-0.5-1.4s-0.7-0.5-1.2-0.5s-0.8,0.1-1.1,0.3
	l-0.3,0.2L304.7,356.8z M316.7,353.2l-3.5,7.9H312l3.5-7.6H311v-0.9h5.8L316.7,353.2L316.7,353.2z M318.3,362.8l-0.6-0.4
	c0.4-0.5,0.6-1,0.6-1.6v-1h1.1v0.8c0,0.4-0.1,0.8-0.3,1.2C318.8,362.2,318.6,362.6,318.3,362.8z M324.8,358.2h1.2v0.9h-1.2v2h-1.1
	v-2h-3.9v-0.6l3.8-5.9h1.2V358.2z M321,358.2h2.7V354l-0.1,0.2L321,358.2z M332.6,357.5c0,1.3-0.2,2.2-0.7,2.8
	c-0.4,0.6-1.1,0.9-2,0.9s-1.6-0.3-2-0.9s-0.7-1.5-0.7-2.7v-1.4c0-1.3,0.2-2.2,0.6-2.8c0.4-0.6,1.1-0.9,2-0.9s1.6,0.3,2,0.9
	s0.7,1.5,0.7,2.7v1.4H332.6z M331.5,356c0-0.9-0.1-1.6-0.4-2c-0.2-0.4-0.7-0.6-1.2-0.6c-0.6,0-1,0.2-1.2,0.6s-0.4,1.1-0.4,1.9v1.7
	c0,0.9,0.1,1.6,0.4,2s0.7,0.7,1.2,0.7s0.9-0.2,1.2-0.6c0.3-0.4,0.4-1.1,0.4-2V356z M339.6,357.5c0,1.3-0.2,2.2-0.7,2.8
	c-0.4,0.6-1.1,0.9-2,0.9s-1.6-0.3-2-0.9s-0.7-1.5-0.7-2.7v-1.4c0-1.3,0.2-2.2,0.6-2.8c0.4-0.6,1.1-0.9,2-0.9s1.6,0.3,2,0.9
	s0.7,1.5,0.7,2.7v1.4H339.6z M338.5,356c0-0.9-0.1-1.6-0.4-2c-0.2-0.4-0.7-0.6-1.2-0.6c-0.6,0-1,0.2-1.2,0.6s-0.4,1.1-0.4,1.9v1.7
	c0,0.9,0.1,1.6,0.4,2s0.7,0.7,1.2,0.7s0.9-0.2,1.2-0.6c0.3-0.4,0.4-1.1,0.4-2V356z"/>
<path class="st17" d="M67.1,473.2c0,1.3-0.2,2.2-0.7,2.8c-0.4,0.6-1.1,0.9-2,0.9s-1.6-0.3-2-0.9s-0.7-1.5-0.7-2.7v-1.4
	c0-1.3,0.2-2.2,0.6-2.8c0.4-0.6,1.1-0.9,2-0.9c0.9,0,1.6,0.3,2,0.9s0.7,1.5,0.7,2.7L67.1,473.2L67.1,473.2z M66,471.7
	c0-0.9-0.1-1.6-0.4-2c-0.2-0.4-0.7-0.6-1.2-0.6c-0.6,0-1,0.2-1.2,0.6s-0.4,1.1-0.4,1.9v1.7c0,0.9,0.1,1.6,0.4,2
	c0.3,0.4,0.7,0.7,1.2,0.7s0.9-0.2,1.2-0.6c0.3-0.4,0.4-1.1,0.4-2V471.7z"/>
<path class="st17" d="M37.3,410.2h-5.6v-0.8l3-3.3c0.4-0.5,0.7-0.9,0.9-1.2c0.2-0.3,0.2-0.6,0.2-1s-0.1-0.8-0.4-1.1
	c-0.3-0.3-0.6-0.4-1.1-0.4s-0.9,0.2-1.2,0.5s-0.5,0.7-0.5,1.3h-1.1c0-0.8,0.2-1.4,0.8-1.9c0.5-0.5,1.2-0.7,2-0.7s1.4,0.2,1.9,0.6
	s0.7,1,0.7,1.7c0,0.8-0.5,1.8-1.6,3l-2.3,2.5h4.3C37.3,409.4,37.3,410.2,37.3,410.2z M39.2,405.9l0.4-4.2H44v1h-3.5l-0.3,2.3
	c0.4-0.2,0.9-0.4,1.4-0.4c0.8,0,1.4,0.3,1.8,0.8c0.5,0.5,0.7,1.2,0.7,2.1s-0.2,1.6-0.7,2.1s-1.1,0.8-2,0.8c-0.8,0-1.4-0.2-1.8-0.6
	c-0.5-0.4-0.8-1-0.8-1.8h1c0.1,0.5,0.2,0.9,0.5,1.1s0.7,0.4,1.1,0.4c0.5,0,0.9-0.2,1.2-0.5s0.4-0.8,0.4-1.4s-0.2-1-0.5-1.4
	s-0.7-0.5-1.2-0.5s-0.8,0.1-1.1,0.3l-0.3,0.2L39.2,405.9z M45.8,411.9l-0.6-0.4c0.4-0.5,0.6-1,0.6-1.6v-1h1.1v0.8
	c0,0.4-0.1,0.8-0.3,1.2S46.1,411.7,45.8,411.9z M53.1,406.6c0,1.3-0.2,2.2-0.7,2.8c-0.4,0.6-1.1,0.9-2,0.9s-1.6-0.3-2-0.9
	s-0.7-1.5-0.7-2.7v-1.4c0-1.3,0.2-2.2,0.6-2.8c0.4-0.6,1.1-0.9,2-0.9s1.6,0.3,2,0.9s0.7,1.5,0.7,2.7v1.4H53.1z M52,405.1
	c0-0.9-0.1-1.6-0.4-2c-0.2-0.4-0.7-0.6-1.2-0.6c-0.6,0-1,0.2-1.2,0.6s-0.4,1.1-0.4,1.9v1.7c0,0.9,0.1,1.6,0.4,2
	c0.3,0.4,0.7,0.7,1.2,0.7s0.9-0.2,1.2-0.6s0.4-1.1,0.4-2V405.1z M60.1,406.6c0,1.3-0.2,2.2-0.7,2.8c-0.4,0.6-1.1,0.9-2,0.9
	s-1.6-0.3-2-0.9s-0.7-1.5-0.7-2.7v-1.4c0-1.3,0.2-2.2,0.6-2.8c0.4-0.6,1.1-0.9,2-0.9s1.6,0.3,2,0.9s0.7,1.5,0.7,2.7v1.4H60.1z
	 M59,405.1c0-0.9-0.1-1.6-0.4-2c-0.2-0.4-0.7-0.6-1.2-0.6c-0.6,0-1,0.2-1.2,0.6s-0.4,1.1-0.4,1.9v1.7c0,0.9,0.1,1.6,0.4,2
	c0.3,0.4,0.7,0.7,1.2,0.7s0.9-0.2,1.2-0.6s0.4-1.1,0.4-2V405.1z M67.1,406.6c0,1.3-0.2,2.2-0.7,2.8c-0.4,0.6-1.1,0.9-2,0.9
	s-1.6-0.3-2-0.9s-0.7-1.5-0.7-2.7v-1.4c0-1.3,0.2-2.2,0.6-2.8c0.4-0.6,1.1-0.9,2-0.9c0.9,0,1.6,0.3,2,0.9s0.7,1.5,0.7,2.7
	L67.1,406.6L67.1,406.6z M66,405.1c0-0.9-0.1-1.6-0.4-2c-0.2-0.4-0.7-0.6-1.2-0.6c-0.6,0-1,0.2-1.2,0.6s-0.4,1.1-0.4,1.9v1.7
	c0,0.9,0.1,1.6,0.4,2c0.3,0.4,0.7,0.7,1.2,0.7s0.9-0.2,1.2-0.6s0.4-1.1,0.4-2V405.1z"/>
<path class="st17" d="M32.2,339.3l0.4-4.2H37v1h-3.5l-0.3,2.3c0.4-0.2,0.9-0.4,1.4-0.4c0.8,0,1.4,0.3,1.8,0.8
	c0.5,0.5,0.7,1.2,0.7,2.1s-0.2,1.6-0.7,2.1s-1.1,0.8-2,0.8c-0.8,0-1.4-0.2-1.8-0.6c-0.5-0.4-0.8-1-0.8-1.8h1
	c0.1,0.5,0.2,0.9,0.5,1.1s0.7,0.4,1.1,0.4c0.5,0,0.9-0.2,1.2-0.5s0.4-0.8,0.4-1.4s-0.2-1-0.5-1.4s-0.7-0.5-1.2-0.5s-0.8,0.1-1.1,0.3
	l-0.3,0.2L32.2,339.3z M44.1,339.9c0,1.3-0.2,2.2-0.7,2.8c-0.4,0.6-1.1,0.9-2,0.9s-1.6-0.3-2-0.9s-0.7-1.5-0.7-2.7v-1.4
	c0-1.3,0.2-2.2,0.6-2.8c0.4-0.6,1.1-0.9,2-0.9s1.6,0.3,2,0.9s0.7,1.5,0.7,2.7v1.4H44.1z M43,338.4c0-0.9-0.1-1.6-0.4-2
	c-0.2-0.4-0.7-0.6-1.2-0.6c-0.6,0-1,0.2-1.2,0.6s-0.4,1.1-0.4,1.9v1.7c0,0.9,0.1,1.6,0.4,2c0.3,0.4,0.7,0.7,1.2,0.7s0.9-0.2,1.2-0.6
	s0.4-1.1,0.4-2V338.4z M45.8,345.2l-0.6-0.4c0.4-0.5,0.6-1,0.6-1.6v-1h1.1v0.8c0,0.4-0.1,0.8-0.3,1.2
	C46.3,344.7,46.1,345,45.8,345.2z M53.1,339.9c0,1.3-0.2,2.2-0.7,2.8c-0.4,0.6-1.1,0.9-2,0.9s-1.6-0.3-2-0.9s-0.7-1.5-0.7-2.7v-1.4
	c0-1.3,0.2-2.2,0.6-2.8c0.4-0.6,1.1-0.9,2-0.9s1.6,0.3,2,0.9s0.7,1.5,0.7,2.7v1.4H53.1z M52,338.4c0-0.9-0.1-1.6-0.4-2
	c-0.2-0.4-0.7-0.6-1.2-0.6c-0.6,0-1,0.2-1.2,0.6s-0.4,1.1-0.4,1.9v1.7c0,0.9,0.1,1.6,0.4,2c0.3,0.4,0.7,0.7,1.2,0.7s0.9-0.2,1.2-0.6
	s0.4-1.1,0.4-2V338.4z M60.1,339.9c0,1.3-0.2,2.2-0.7,2.8c-0.4,0.6-1.1,0.9-2,0.9s-1.6-0.3-2-0.9s-0.7-1.5-0.7-2.7v-1.4
	c0-1.3,0.2-2.2,0.6-2.8c0.4-0.6,1.1-0.9,2-0.9s1.6,0.3,2,0.9s0.7,1.5,0.7,2.7v1.4H60.1z M59,338.4c0-0.9-0.1-1.6-0.4-2
	c-0.2-0.4-0.7-0.6-1.2-0.6c-0.6,0-1,0.2-1.2,0.6s-0.4,1.1-0.4,1.9v1.7c0,0.9,0.1,1.6,0.4,2c0.3,0.4,0.7,0.7,1.2,0.7s0.9-0.2,1.2-0.6
	s0.4-1.1,0.4-2V338.4z M67.1,339.9c0,1.3-0.2,2.2-0.7,2.8c-0.4,0.6-1.1,0.9-2,0.9s-1.6-0.3-2-0.9s-0.7-1.5-0.7-2.7v-1.4
	c0-1.3,0.2-2.2,0.6-2.8c0.4-0.6,1.1-0.9,2-0.9c0.9,0,1.6,0.3,2,0.9s0.7,1.5,0.7,2.7L67.1,339.9L67.1,339.9z M66,338.4
	c0-0.9-0.1-1.6-0.4-2c-0.2-0.4-0.7-0.6-1.2-0.6c-0.6,0-1,0.2-1.2,0.6s-0.4,1.1-0.4,1.9v1.7c0,0.9,0.1,1.6,0.4,2
	c0.3,0.4,0.7,0.7,1.2,0.7s0.9-0.2,1.2-0.6c0.3-0.4,0.4-1.1,0.4-2V338.4z"/>
<path class="st17" d="M37.2,268.9l-3.5,7.9h-1.1l3.5-7.6h-4.6v-0.9h5.8v0.6H37.2z M39.2,272.6l0.4-4.2H44v1h-3.5l-0.3,2.3
	c0.4-0.2,0.9-0.4,1.4-0.4c0.8,0,1.4,0.3,1.8,0.8c0.5,0.5,0.7,1.2,0.7,2.1s-0.2,1.6-0.7,2.1s-1.1,0.8-2,0.8c-0.8,0-1.4-0.2-1.8-0.6
	c-0.5-0.4-0.8-1-0.8-1.8h1c0.1,0.5,0.2,0.9,0.5,1.1s0.7,0.4,1.1,0.4c0.5,0,0.9-0.2,1.2-0.5s0.4-0.8,0.4-1.4s-0.2-1-0.5-1.4
	s-0.7-0.5-1.2-0.5s-0.8,0.1-1.1,0.3l-0.3,0.2L39.2,272.6z M45.8,278.6l-0.6-0.4c0.4-0.5,0.6-1,0.6-1.6v-1h1.1v0.8
	c0,0.4-0.1,0.8-0.3,1.2C46.3,278,46.1,278.3,45.8,278.6z M53.1,273.2c0,1.3-0.2,2.2-0.7,2.8c-0.4,0.6-1.1,0.9-2,0.9s-1.6-0.3-2-0.9
	s-0.7-1.5-0.7-2.7v-1.4c0-1.3,0.2-2.2,0.6-2.8c0.4-0.6,1.1-0.9,2-0.9s1.6,0.3,2,0.9s0.7,1.5,0.7,2.7v1.4H53.1z M52,271.7
	c0-0.9-0.1-1.6-0.4-2c-0.2-0.4-0.7-0.6-1.2-0.6c-0.6,0-1,0.2-1.2,0.6s-0.4,1.1-0.4,1.9v1.7c0,0.9,0.1,1.6,0.4,2
	c0.3,0.4,0.7,0.7,1.2,0.7s0.9-0.2,1.2-0.6s0.4-1.1,0.4-2V271.7z M60.1,273.2c0,1.3-0.2,2.2-0.7,2.8c-0.4,0.6-1.1,0.9-2,0.9
	s-1.6-0.3-2-0.9s-0.7-1.5-0.7-2.7v-1.4c0-1.3,0.2-2.2,0.6-2.8c0.4-0.6,1.1-0.9,2-0.9s1.6,0.3,2,0.9s0.7,1.5,0.7,2.7v1.4H60.1z
	 M59,271.7c0-0.9-0.1-1.6-0.4-2c-0.2-0.4-0.7-0.6-1.2-0.6c-0.6,0-1,0.2-1.2,0.6s-0.4,1.1-0.4,1.9v1.7c0,0.9,0.1,1.6,0.4,2
	c0.3,0.4,0.7,0.7,1.2,0.7s0.9-0.2,1.2-0.6s0.4-1.1,0.4-2V271.7z M67.1,273.2c0,1.3-0.2,2.2-0.7,2.8c-0.4,0.6-1.1,0.9-2,0.9
	s-1.6-0.3-2-0.9s-0.7-1.5-0.7-2.7v-1.4c0-1.3,0.2-2.2,0.6-2.8c0.4-0.6,1.1-0.9,2-0.9c0.9,0,1.6,0.3,2,0.9s0.7,1.5,0.7,2.7
	L67.1,273.2L67.1,273.2z M66,271.7c0-0.9-0.1-1.6-0.4-2c-0.2-0.4-0.7-0.6-1.2-0.6c-0.6,0-1,0.2-1.2,0.6s-0.4,1.1-0.4,1.9v1.7
	c0,0.9,0.1,1.6,0.4,2c0.3,0.4,0.7,0.7,1.2,0.7s0.9-0.2,1.2-0.6c0.3-0.4,0.4-1.1,0.4-2V271.7z"/>
<path class="st17" d="M28.3,210.2h-1.1V203l-2.2,0.8v-1l3.1-1.2h0.2V210.2z M37.1,206.6c0,1.3-0.2,2.2-0.7,2.8
	c-0.4,0.6-1.1,0.9-2,0.9s-1.6-0.3-2-0.9s-0.7-1.5-0.7-2.7v-1.4c0-1.3,0.2-2.2,0.6-2.8c0.4-0.6,1.1-0.9,2-0.9s1.6,0.3,2,0.9
	c0.4,0.6,0.7,1.5,0.7,2.7v1.4H37.1z M36,205.1c0-0.9-0.1-1.6-0.4-2c-0.2-0.4-0.7-0.6-1.2-0.6c-0.6,0-1,0.2-1.2,0.6
	c-0.2,0.4-0.4,1.1-0.4,1.9v1.7c0,0.9,0.1,1.6,0.4,2c0.3,0.4,0.7,0.7,1.2,0.7s0.9-0.2,1.2-0.6s0.4-1.1,0.4-2V205.1z M44.1,206.6
	c0,1.3-0.2,2.2-0.7,2.8c-0.4,0.6-1.1,0.9-2,0.9s-1.6-0.3-2-0.9s-0.7-1.5-0.7-2.7v-1.4c0-1.3,0.2-2.2,0.6-2.8c0.4-0.6,1.1-0.9,2-0.9
	s1.6,0.3,2,0.9c0.4,0.6,0.7,1.5,0.7,2.7v1.4H44.1z M43,205.1c0-0.9-0.1-1.6-0.4-2c-0.2-0.4-0.7-0.6-1.2-0.6c-0.6,0-1,0.2-1.2,0.6
	c-0.2,0.4-0.4,1.1-0.4,1.9v1.7c0,0.9,0.1,1.6,0.4,2c0.3,0.4,0.7,0.7,1.2,0.7s0.9-0.2,1.2-0.6s0.4-1.1,0.4-2V205.1z M45.8,211.9
	l-0.6-0.4c0.4-0.5,0.6-1,0.6-1.6v-1h1.1v0.8c0,0.4-0.1,0.8-0.3,1.2S46.1,211.7,45.8,211.9z M53.1,206.6c0,1.3-0.2,2.2-0.7,2.8
	c-0.4,0.6-1.1,0.9-2,0.9s-1.6-0.3-2-0.9s-0.7-1.5-0.7-2.7v-1.4c0-1.3,0.2-2.2,0.6-2.8c0.4-0.6,1.1-0.9,2-0.9s1.6,0.3,2,0.9
	c0.4,0.6,0.7,1.5,0.7,2.7v1.4H53.1z M52,205.1c0-0.9-0.1-1.6-0.4-2c-0.2-0.4-0.7-0.6-1.2-0.6c-0.6,0-1,0.2-1.2,0.6
	c-0.2,0.4-0.4,1.1-0.4,1.9v1.7c0,0.9,0.1,1.6,0.4,2c0.3,0.4,0.7,0.7,1.2,0.7s0.9-0.2,1.2-0.6s0.4-1.1,0.4-2V205.1z M60.1,206.6
	c0,1.3-0.2,2.2-0.7,2.8c-0.4,0.6-1.1,0.9-2,0.9s-1.6-0.3-2-0.9s-0.7-1.5-0.7-2.7v-1.4c0-1.3,0.2-2.2,0.6-2.8c0.4-0.6,1.1-0.9,2-0.9
	s1.6,0.3,2,0.9c0.4,0.6,0.7,1.5,0.7,2.7v1.4H60.1z M59,205.1c0-0.9-0.1-1.6-0.4-2c-0.2-0.4-0.7-0.6-1.2-0.6c-0.6,0-1,0.2-1.2,0.6
	c-0.2,0.4-0.4,1.1-0.4,1.9v1.7c0,0.9,0.1,1.6,0.4,2c0.3,0.4,0.7,0.7,1.2,0.7s0.9-0.2,1.2-0.6s0.4-1.1,0.4-2V205.1z M67.1,206.6
	c0,1.3-0.2,2.2-0.7,2.8c-0.4,0.6-1.1,0.9-2,0.9s-1.6-0.3-2-0.9s-0.7-1.5-0.7-2.7v-1.4c0-1.3,0.2-2.2,0.6-2.8c0.4-0.6,1.1-0.9,2-0.9
	c0.9,0,1.6,0.3,2,0.9c0.4,0.6,0.7,1.5,0.7,2.7L67.1,206.6L67.1,206.6z M66,205.1c0-0.9-0.1-1.6-0.4-2c-0.2-0.4-0.7-0.6-1.2-0.6
	c-0.6,0-1,0.2-1.2,0.6c-0.2,0.4-0.4,1.1-0.4,1.9v1.7c0,0.9,0.1,1.6,0.4,2c0.3,0.4,0.7,0.7,1.2,0.7s0.9-0.2,1.2-0.6s0.4-1.1,0.4-2
	V205.1z"/>
<path class="st17" d="M28.3,143.5h-1.1v-7.2l-2.2,0.8v-1l3.1-1.2h0.2V143.5z M37.3,143.5h-5.6v-0.8l3-3.3c0.4-0.5,0.7-0.9,0.9-1.2
	s0.2-0.6,0.2-1s-0.1-0.8-0.4-1.1c-0.3-0.3-0.6-0.4-1.1-0.4s-0.9,0.2-1.2,0.5s-0.5,0.7-0.5,1.3h-1.1c0-0.8,0.2-1.4,0.8-1.9
	c0.5-0.5,1.2-0.7,2-0.7s1.4,0.2,1.9,0.6c0.5,0.4,0.7,1,0.7,1.7c0,0.8-0.5,1.8-1.6,3l-2.3,2.5h4.3C37.3,142.7,37.3,143.5,37.3,143.5z
	 M39.2,139.3l0.4-4.2H44v1h-3.5l-0.3,2.3c0.4-0.2,0.9-0.4,1.4-0.4c0.8,0,1.4,0.3,1.8,0.8c0.5,0.5,0.7,1.2,0.7,2.1s-0.2,1.6-0.7,2.1
	s-1.1,0.8-2,0.8c-0.8,0-1.4-0.2-1.8-0.6c-0.5-0.4-0.8-1-0.8-1.8h1c0.1,0.5,0.2,0.9,0.5,1.1s0.7,0.4,1.1,0.4c0.5,0,0.9-0.2,1.2-0.5
	s0.4-0.8,0.4-1.4c0-0.6-0.2-1-0.5-1.4s-0.7-0.5-1.2-0.5s-0.8,0.1-1.1,0.3l-0.3,0.2L39.2,139.3z M45.8,145.2l-0.6-0.4
	c0.4-0.5,0.6-1,0.6-1.6v-1h1.1v0.8c0,0.4-0.1,0.8-0.3,1.2S46.1,145,45.8,145.2z M53.1,139.9c0,1.3-0.2,2.2-0.7,2.8
	c-0.4,0.6-1.1,0.9-2,0.9s-1.6-0.3-2-0.9s-0.7-1.5-0.7-2.7v-1.4c0-1.3,0.2-2.2,0.6-2.8c0.4-0.6,1.1-0.9,2-0.9s1.6,0.3,2,0.9
	c0.4,0.6,0.7,1.5,0.7,2.7v1.4H53.1z M52,138.4c0-0.9-0.1-1.6-0.4-2c-0.2-0.4-0.7-0.6-1.2-0.6c-0.6,0-1,0.2-1.2,0.6
	c-0.2,0.4-0.4,1.1-0.4,1.9v1.7c0,0.9,0.1,1.6,0.4,2c0.3,0.4,0.7,0.7,1.2,0.7s0.9-0.2,1.2-0.6s0.4-1.1,0.4-2V138.4z M60.1,139.9
	c0,1.3-0.2,2.2-0.7,2.8c-0.4,0.6-1.1,0.9-2,0.9s-1.6-0.3-2-0.9s-0.7-1.5-0.7-2.7v-1.4c0-1.3,0.2-2.2,0.6-2.8c0.4-0.6,1.1-0.9,2-0.9
	s1.6,0.3,2,0.9c0.4,0.6,0.7,1.5,0.7,2.7v1.4H60.1z M59,138.4c0-0.9-0.1-1.6-0.4-2c-0.2-0.4-0.7-0.6-1.2-0.6c-0.6,0-1,0.2-1.2,0.6
	c-0.2,0.4-0.4,1.1-0.4,1.9v1.7c0,0.9,0.1,1.6,0.4,2c0.3,0.4,0.7,0.7,1.2,0.7s0.9-0.2,1.2-0.6s0.4-1.1,0.4-2V138.4z M67.1,139.9
	c0,1.3-0.2,2.2-0.7,2.8c-0.4,0.6-1.1,0.9-2,0.9s-1.6-0.3-2-0.9s-0.7-1.5-0.7-2.7v-1.4c0-1.3,0.2-2.2,0.6-2.8c0.4-0.6,1.1-0.9,2-0.9
	c0.9,0,1.6,0.3,2,0.9c0.4,0.6,0.7,1.5,0.7,2.7L67.1,139.9L67.1,139.9z M66,138.4c0-0.9-0.1-1.6-0.4-2c-0.2-0.4-0.7-0.6-1.2-0.6
	c-0.6,0-1,0.2-1.2,0.6c-0.2,0.4-0.4,1.1-0.4,1.9v1.7c0,0.9,0.1,1.6,0.4,2c0.3,0.4,0.7,0.7,1.2,0.7s0.9-0.2,1.2-0.6s0.4-1.1,0.4-2
	V138.4z"/>
<path class="st3" d="M65.5,528.7c0-0.6,0.4-1,1-1h10c0.6,0,1,0.4,1,1v10c0,0.6-0.4,1-1,1h-10c-0.6,0-1-0.4-1-1V528.7z"/>
<path class="st17" d="M89.1,534l2.2-4.3h1.3l-2.9,5.3v3.2h-1.1V535l-2.9-5.3H87L89.1,534z M97.2,537.6c-0.4,0.5-1,0.8-1.9,0.8
	c-0.7,0-1.2-0.2-1.5-0.6c-0.4-0.4-0.5-1-0.5-1.8v-4.1h1.1v4.1c0,1,0.4,1.5,1.2,1.5c0.8,0,1.4-0.3,1.7-0.9V532h1.1v6.3h-1L97.2,537.6
	z M100.1,535c0-1,0.2-1.8,0.7-2.4c0.5-0.6,1.1-0.9,1.8-0.9c0.8,0,1.4,0.3,1.8,0.8v-0.7h1v6.2c0,0.8-0.2,1.5-0.7,1.9
	c-0.5,0.5-1.1,0.7-2,0.7c-0.5,0-0.9-0.1-1.3-0.3s-0.8-0.5-1-0.8l0.6-0.7c0.5,0.6,1,0.9,1.7,0.9c0.5,0,0.9-0.2,1.2-0.5
	c0.3-0.3,0.5-0.7,0.5-1.2v-0.5c-0.4,0.5-1,0.8-1.8,0.8c-0.7,0-1.3-0.3-1.8-0.9C100.3,536.8,100.1,536,100.1,535z M101.2,535.1
	c0,0.7,0.1,1.3,0.4,1.7s0.7,0.6,1.2,0.6c0.7,0,1.2-0.3,1.5-0.9v-2.9c-0.3-0.6-0.8-0.9-1.5-0.9c-0.5,0-0.9,0.2-1.2,0.6
	C101.3,533.7,101.2,534.3,101.2,535.1z M111.2,538.2c-0.1-0.1-0.1-0.3-0.2-0.7c-0.5,0.5-1.1,0.8-1.8,0.8c-0.6,0-1.1-0.2-1.5-0.5
	c-0.4-0.4-0.6-0.8-0.6-1.4c0-0.7,0.2-1.2,0.8-1.5c0.5-0.4,1.2-0.5,2.1-0.5h1v-0.5c0-0.4-0.1-0.7-0.3-0.9c-0.2-0.2-0.6-0.3-1-0.3
	s-0.7,0.1-1,0.3s-0.4,0.4-0.4,0.7h-1.1c0-0.3,0.1-0.6,0.3-0.9c0.2-0.3,0.5-0.5,0.9-0.7s0.8-0.3,1.3-0.3c0.7,0,1.3,0.2,1.7,0.5
	c0.4,0.4,0.6,0.9,0.7,1.5v2.9c0,0.6,0.1,1,0.2,1.4v0.1L111.2,538.2L111.2,538.2z M109.4,537.4c0.3,0,0.7-0.1,1-0.3s0.5-0.4,0.7-0.7
	v-1.3h-0.8c-1.3,0-2,0.4-2,1.2c0,0.3,0.1,0.6,0.3,0.8C108.8,537.3,109.1,537.4,109.4,537.4z M114.5,538.2v-8.5h2.8
	c0.9,0,1.6,0.2,2.1,0.6c0.5,0.4,0.7,0.9,0.7,1.7c0,0.4-0.1,0.8-0.3,1.1c-0.2,0.3-0.5,0.5-0.9,0.7c0.5,0.1,0.8,0.4,1.1,0.7
	c0.3,0.4,0.4,0.8,0.4,1.3c0,0.8-0.2,1.4-0.8,1.8c-0.5,0.4-1.2,0.7-2.1,0.7L114.5,538.2L114.5,538.2z M115.6,534.2v3.1h1.9
	c0.5,0,0.9-0.1,1.2-0.4c0.3-0.3,0.5-0.6,0.5-1.1c0-1-0.6-1.5-1.7-1.5L115.6,534.2L115.6,534.2z M115.6,533.3h1.7
	c0.5,0,0.9-0.1,1.2-0.4c0.3-0.2,0.5-0.6,0.5-1c0-0.5-0.1-0.8-0.4-1s-0.7-0.3-1.2-0.3h-1.7L115.6,533.3L115.6,533.3z M123.4,536.6
	l1.5-4.8h1.2l-2.5,7.3c-0.4,1.1-1,1.6-1.9,1.6h-0.2l-0.4-0.1v-0.9h0.3c0.4,0,0.7-0.1,0.9-0.2c0.2-0.1,0.4-0.4,0.5-0.8l0.2-0.7
	l-2.3-6.3h1.2L123.4,536.6z M128.8,530.3v1.5h1.2v0.8h-1.2v3.9c0,0.3,0.1,0.5,0.2,0.6s0.3,0.2,0.5,0.2c0.1,0,0.3,0,0.5-0.1v0.9
	c-0.3,0.1-0.6,0.1-0.8,0.1c-0.5,0-0.8-0.1-1.1-0.4c-0.2-0.3-0.4-0.7-0.4-1.3v-3.9h-1.2v-0.8h1.2v-1.5H128.8z M134,538.3
	c-0.9,0-1.6-0.3-2.1-0.8c-0.5-0.6-0.8-1.3-0.8-2.3V535c0-0.6,0.1-1.2,0.4-1.7c0.2-0.5,0.6-0.9,1-1.2s0.9-0.4,1.4-0.4
	c0.8,0,1.5,0.3,1.9,0.8c0.5,0.5,0.7,1.3,0.7,2.3v0.5h-4.3c0,0.6,0.2,1.1,0.5,1.5c0.4,0.4,0.8,0.6,1.3,0.6c0.4,0,0.7-0.1,1-0.2
	c0.3-0.2,0.5-0.4,0.7-0.6l0.7,0.5C135.8,537.9,135,538.3,134,538.3z M133.8,532.6c-0.4,0-0.8,0.2-1.1,0.5s-0.5,0.8-0.5,1.3h3.2v-0.1
	c0-0.6-0.2-1-0.5-1.3C134.6,532.8,134.3,532.6,133.8,532.6z M140.5,538.2v-8.5h2.4c0.7,0,1.4,0.2,2,0.5s1,0.8,1.3,1.4
	c0.3,0.6,0.5,1.3,0.5,2.1v0.5c0,0.8-0.2,1.5-0.5,2.1s-0.7,1.1-1.3,1.4c-0.6,0.3-1.2,0.5-2,0.5H140.5z M141.6,530.6v6.7h1.2
	c0.9,0,1.5-0.3,2-0.8s0.7-1.3,0.7-2.3v-0.5c0-1-0.2-1.7-0.7-2.2c-0.4-0.5-1.1-0.8-1.9-0.8h-1.3V530.6z M148.5,538.2v-8.5h2.8
	c0.9,0,1.6,0.2,2.1,0.6c0.5,0.4,0.7,0.9,0.7,1.7c0,0.4-0.1,0.8-0.3,1.1s-0.5,0.5-0.9,0.7c0.5,0.1,0.8,0.4,1.1,0.7
	c0.3,0.4,0.4,0.8,0.4,1.3c0,0.8-0.2,1.4-0.8,1.8c-0.5,0.4-1.2,0.7-2.1,0.7L148.5,538.2L148.5,538.2z M149.6,534.2v3.1h1.9
	c0.5,0,0.9-0.1,1.2-0.4c0.3-0.3,0.5-0.6,0.5-1.1c0-1-0.6-1.5-1.7-1.5L149.6,534.2L149.6,534.2z M149.6,533.3h1.7
	c0.5,0,0.9-0.1,1.2-0.4c0.3-0.2,0.5-0.6,0.5-1c0-0.5-0.1-0.8-0.4-1c-0.3-0.2-0.7-0.3-1.2-0.3h-1.7v2.7H149.6z M158.3,534.7
	c0-0.9,0.1-1.7,0.3-2.5s0.6-1.6,1.1-2.2c0.5-0.7,1-1.1,1.5-1.4l0.2,0.7c-0.6,0.4-1,1.1-1.4,2s-0.6,1.9-0.6,3v0.5
	c0,1.5,0.3,2.8,0.8,3.9c0.3,0.7,0.7,1.2,1.2,1.6l-0.2,0.7c-0.5-0.3-1-0.8-1.5-1.5C158.7,538.2,158.3,536.6,158.3,534.7z
	 M163.8,533.4h0.8c0.5,0,0.9-0.1,1.2-0.4c0.3-0.3,0.4-0.6,0.4-1.1c0-1-0.5-1.5-1.5-1.5c-0.5,0-0.8,0.1-1.1,0.4
	c-0.3,0.3-0.4,0.6-0.4,1.1h-1.1c0-0.7,0.2-1.2,0.7-1.7c0.5-0.4,1.1-0.7,1.9-0.7c0.8,0,1.4,0.2,1.9,0.6c0.5,0.4,0.7,1,0.7,1.8
	c0,0.4-0.1,0.7-0.4,1.1s-0.6,0.6-1,0.8c0.5,0.1,0.8,0.4,1.1,0.7s0.4,0.8,0.4,1.3c0,0.8-0.2,1.4-0.8,1.8c-0.5,0.4-1.2,0.7-2,0.7
	s-1.4-0.2-2-0.7c-0.5-0.4-0.8-1-0.8-1.7h1.1c0,0.4,0.1,0.8,0.4,1.1c0.3,0.3,0.7,0.4,1.2,0.4s0.9-0.1,1.2-0.4
	c0.3-0.3,0.4-0.7,0.4-1.2s-0.2-0.9-0.5-1.1c-0.3-0.3-0.7-0.4-1.3-0.4h-0.8v-0.9H163.8z M169.3,537.6c0-0.2,0.1-0.3,0.2-0.5
	c0.1-0.1,0.3-0.2,0.5-0.2s0.4,0.1,0.5,0.2s0.2,0.3,0.2,0.5s-0.1,0.3-0.2,0.5c-0.1,0.1-0.3,0.2-0.5,0.2s-0.4-0.1-0.5-0.2
	C169.4,538,169.3,537.8,169.3,537.6z M177.4,531.9c0,0.4-0.1,0.8-0.3,1.1s-0.5,0.6-0.9,0.8c0.4,0.2,0.8,0.5,1,0.8
	c0.3,0.4,0.4,0.8,0.4,1.2c0,0.7-0.2,1.3-0.8,1.8c-0.5,0.4-1.1,0.7-2,0.7c-0.8,0-1.5-0.2-2-0.7c-0.5-0.4-0.7-1-0.7-1.8
	c0-0.5,0.1-0.9,0.4-1.2c0.2-0.4,0.6-0.7,1-0.8c-0.4-0.2-0.7-0.4-0.9-0.8c-0.2-0.3-0.3-0.7-0.3-1.1c0-0.7,0.2-1.3,0.7-1.7
	s1.1-0.6,1.8-0.6c0.8,0,1.4,0.2,1.8,0.6C177.2,530.6,177.4,531.2,177.4,531.9z M176.5,535.9c0-0.5-0.2-0.9-0.5-1.2s-0.7-0.5-1.2-0.5
	s-0.9,0.2-1.2,0.5s-0.4,0.7-0.4,1.2s0.1,0.9,0.4,1.1c0.3,0.3,0.7,0.4,1.2,0.4s0.9-0.1,1.2-0.4S176.5,536.4,176.5,535.9z
	 M174.9,530.4c-0.4,0-0.8,0.1-1,0.4c-0.3,0.3-0.4,0.6-0.4,1.1c0,0.4,0.1,0.8,0.4,1c0.3,0.3,0.6,0.4,1,0.4s0.8-0.1,1-0.4
	c0.3-0.3,0.4-0.6,0.4-1s-0.1-0.8-0.4-1.1C175.6,530.6,175.3,530.4,174.9,530.4z M183.4,534.5c-0.2,0.3-0.5,0.5-0.8,0.7
	s-0.7,0.2-1,0.2c-0.5,0-0.9-0.1-1.3-0.4c-0.4-0.2-0.6-0.6-0.8-1s-0.3-0.9-0.3-1.5s0.1-1.1,0.3-1.5c0.2-0.5,0.5-0.8,0.9-1
	s0.9-0.4,1.4-0.4c0.8,0,1.5,0.3,2,1c0.5,0.6,0.7,1.5,0.7,2.6v0.3c0,1.7-0.3,2.9-1,3.6c-0.7,0.8-1.6,1.2-3,1.2h-0.2v-0.9h0.2
	c0.9,0,1.6-0.3,2.1-0.7C183.1,536.1,183.3,535.4,183.4,534.5z M181.7,534.5c0.4,0,0.7-0.1,1-0.3s0.5-0.5,0.7-0.8V533
	c0-0.7-0.2-1.3-0.5-1.7s-0.7-0.7-1.2-0.7s-0.9,0.2-1.2,0.5c-0.3,0.4-0.4,0.8-0.4,1.5c0,0.6,0.1,1.1,0.4,1.4
	C180.8,534.3,181.2,534.5,181.7,534.5z M187.3,531.9v0.7c0.5-0.5,1.1-0.8,1.9-0.8c0.9,0,1.5,0.3,1.8,1c0.2-0.3,0.5-0.5,0.8-0.7
	s0.7-0.3,1.2-0.3c1.4,0,2.1,0.7,2.1,2.2v4.2H194V534c0-0.4-0.1-0.8-0.3-1s-0.6-0.3-1-0.3s-0.7,0.1-1,0.4c-0.3,0.2-0.4,0.6-0.5,1v4.2
	h-1.1V534c0-0.9-0.5-1.4-1.4-1.4c-0.7,0-1.2,0.3-1.5,0.9v4.6h-1.1v-6.3h1.2V531.9z M201,536.5c0-0.3-0.1-0.5-0.3-0.7
	s-0.6-0.3-1.2-0.4c-0.5-0.1-1-0.3-1.3-0.4c-0.3-0.2-0.6-0.4-0.7-0.6c-0.1-0.2-0.2-0.5-0.2-0.8c0-0.5,0.2-1,0.7-1.3
	c0.4-0.4,1-0.5,1.7-0.5s1.3,0.2,1.7,0.6c0.4,0.4,0.7,0.8,0.7,1.4H201c0-0.3-0.1-0.5-0.4-0.8c-0.2-0.2-0.6-0.3-0.9-0.3
	c-0.4,0-0.7,0.1-0.9,0.3s-0.3,0.4-0.3,0.7s0.1,0.5,0.3,0.6s0.6,0.3,1.1,0.4c0.5,0.1,1,0.3,1.3,0.4c0.3,0.2,0.6,0.4,0.7,0.6
	c0.2,0.2,0.2,0.5,0.2,0.9c0,0.6-0.2,1-0.7,1.4c-0.4,0.3-1,0.5-1.8,0.5c-0.5,0-1-0.1-1.4-0.3s-0.7-0.4-0.9-0.8
	c-0.2-0.3-0.3-0.7-0.3-1h1.1c0,0.4,0.2,0.7,0.4,0.9c0.3,0.2,0.6,0.3,1.1,0.3c0.4,0,0.7-0.1,1-0.2C200.9,537,201,536.8,201,536.5z
	 M207.5,538.2h-1.1v-9h1.1V538.2z M213.2,538.2c-0.1-0.1-0.1-0.3-0.2-0.7c-0.5,0.5-1.1,0.8-1.8,0.8c-0.6,0-1.1-0.2-1.5-0.5
	c-0.4-0.4-0.6-0.8-0.6-1.4c0-0.7,0.2-1.2,0.8-1.5c0.5-0.4,1.2-0.5,2.1-0.5h1v-0.5c0-0.4-0.1-0.7-0.3-0.9s-0.6-0.3-1-0.3
	s-0.7,0.1-1,0.3s-0.4,0.4-0.4,0.7h-1.1c0-0.3,0.1-0.6,0.3-0.9c0.2-0.3,0.5-0.5,0.9-0.7s0.8-0.3,1.3-0.3c0.7,0,1.3,0.2,1.7,0.5
	c0.4,0.4,0.6,0.9,0.7,1.5v2.9c0,0.6,0.1,1,0.2,1.4v0.1L213.2,538.2L213.2,538.2z M211.4,537.4c0.3,0,0.7-0.1,1-0.3s0.5-0.4,0.7-0.7
	v-1.3h-0.8c-1.3,0-2,0.4-2,1.2c0,0.3,0.1,0.6,0.3,0.8C210.8,537.3,211.1,537.4,211.4,537.4z M217.8,530.3v1.5h1.2v0.8h-1.2v3.9
	c0,0.3,0.1,0.5,0.2,0.6s0.3,0.2,0.5,0.2c0.1,0,0.3,0,0.5-0.1v0.9c-0.3,0.1-0.6,0.1-0.8,0.1c-0.5,0-0.8-0.1-1.1-0.4
	c-0.2-0.3-0.4-0.7-0.4-1.3v-3.9h-1.2v-0.8h1.2v-1.5H217.8z M223,538.3c-0.9,0-1.6-0.3-2.1-0.8c-0.5-0.6-0.8-1.3-0.8-2.3V535
	c0-0.6,0.1-1.2,0.4-1.7c0.2-0.5,0.6-0.9,1-1.2s0.9-0.4,1.4-0.4c0.8,0,1.5,0.3,1.9,0.8c0.5,0.5,0.7,1.3,0.7,2.3v0.5h-4.3
	c0,0.6,0.2,1.1,0.5,1.5c0.4,0.4,0.8,0.6,1.3,0.6c0.4,0,0.7-0.1,1-0.2c0.3-0.2,0.5-0.4,0.7-0.6l0.7,0.5
	C224.8,537.9,224,538.3,223,538.3z M222.8,532.6c-0.4,0-0.8,0.2-1.1,0.5s-0.5,0.8-0.5,1.3h3.2v-0.1c0-0.6-0.2-1-0.5-1.3
	C223.6,532.8,223.3,532.6,222.8,532.6z M227.3,531.9v0.8c0.5-0.6,1.1-0.9,1.9-0.9c1.3,0,2,0.8,2,2.3v4.2h-1.1V534
	c0-0.4-0.1-0.8-0.3-1s-0.5-0.3-1-0.3c-0.4,0-0.7,0.1-0.9,0.3c-0.3,0.2-0.5,0.4-0.6,0.7v4.5h-1.1v-6.3H227.3z M235.9,537.4
	c0.4,0,0.7-0.1,1-0.3s0.5-0.5,0.5-0.9h1c0,0.4-0.2,0.7-0.4,1s-0.5,0.6-0.9,0.8s-0.8,0.3-1.2,0.3c-0.9,0-1.6-0.3-2.1-0.9
	c-0.5-0.6-0.8-1.4-0.8-2.4v-0.2c0-0.6,0.1-1.2,0.3-1.6c0.2-0.5,0.6-0.8,1-1.1s0.9-0.4,1.5-0.4c0.7,0,1.3,0.2,1.8,0.6
	c0.5,0.4,0.7,1,0.8,1.7h-1c0-0.4-0.2-0.8-0.5-1c-0.3-0.3-0.6-0.4-1-0.4c-0.6,0-1,0.2-1.3,0.6c-0.3,0.4-0.5,1-0.5,1.7v0.2
	c0,0.7,0.2,1.3,0.5,1.7C234.9,537.2,235.3,537.4,235.9,537.4z M241.4,536.6l1.5-4.8h1.2l-2.5,7.3c-0.4,1.1-1,1.6-1.9,1.6h-0.2
	l-0.4-0.1v-0.9h0.3c0.4,0,0.7-0.1,0.9-0.2c0.2-0.1,0.4-0.4,0.5-0.8l0.2-0.7l-2.3-6.3h1.2L241.4,536.6z M247.8,534.8
	c0,0.9-0.1,1.7-0.3,2.5s-0.6,1.5-1.1,2.2s-1,1.2-1.5,1.4l-0.2-0.7c0.6-0.5,1.1-1.2,1.5-2.1c0.4-1,0.6-2.1,0.6-3.2v-0.2
	c0-0.8-0.1-1.6-0.3-2.3s-0.4-1.3-0.7-1.9c-0.3-0.6-0.6-1-1-1.3l0.2-0.7c0.5,0.3,1,0.8,1.5,1.4c0.5,0.7,0.8,1.4,1,2.2
	C247.7,533,247.8,533.9,247.8,534.8z"/>
<path class="st18" d="M264.5,528.7c0-0.6,0.4-1,1-1h10c0.6,0,1,0.4,1,1v10c0,0.6-0.4,1-1,1h-10c-0.6,0-1-0.4-1-1V528.7z"/>
<path class="st17" d="M291.8,535.5c-0.1,0.9-0.4,1.6-1,2.1s-1.3,0.7-2.2,0.7c-1,0-1.8-0.4-2.4-1.1c-0.6-0.7-0.9-1.7-0.9-2.9v-0.8
	c0-0.8,0.1-1.5,0.4-2.1s0.7-1.1,1.2-1.4c0.5-0.3,1.1-0.5,1.8-0.5c0.9,0,1.6,0.3,2.2,0.8s0.9,1.2,1,2.1h-1.1
	c-0.1-0.7-0.3-1.2-0.6-1.5c-0.3-0.3-0.8-0.5-1.4-0.5c-0.7,0-1.3,0.3-1.7,0.8s-0.6,1.3-0.6,2.3v0.8c0,0.9,0.2,1.7,0.6,2.2
	s0.9,0.8,1.6,0.8c0.6,0,1.1-0.1,1.4-0.4c0.3-0.3,0.6-0.8,0.7-1.5h1V535.5z M293,535c0-0.6,0.1-1.2,0.4-1.7c0.2-0.5,0.6-0.9,1-1.1
	c0.4-0.3,0.9-0.4,1.5-0.4c0.9,0,1.6,0.3,2.1,0.9c0.5,0.6,0.8,1.4,0.8,2.4v0.1c0,0.6-0.1,1.2-0.4,1.7c-0.2,0.5-0.6,0.9-1,1.2
	s-0.9,0.4-1.5,0.4c-0.9,0-1.6-0.3-2.1-0.9C293.3,536.8,293,536,293,535L293,535z M294.1,535.1c0,0.7,0.2,1.3,0.5,1.7
	s0.8,0.6,1.3,0.6c0.6,0,1-0.2,1.3-0.6c0.3-0.4,0.5-1,0.5-1.8c0-0.7-0.2-1.2-0.5-1.7c-0.3-0.4-0.8-0.7-1.3-0.7s-1,0.2-1.3,0.6
	C294.3,533.7,294.1,534.3,294.1,535.1z M302.9,537.4c0.4,0,0.7-0.1,1-0.3s0.5-0.5,0.5-0.9h1c0,0.4-0.2,0.7-0.4,1
	c-0.2,0.3-0.5,0.6-0.9,0.8s-0.8,0.3-1.2,0.3c-0.9,0-1.6-0.3-2.1-0.9c-0.5-0.6-0.8-1.4-0.8-2.4v-0.2c0-0.6,0.1-1.2,0.3-1.6
	c0.2-0.5,0.6-0.8,1-1.1s0.9-0.4,1.5-0.4c0.7,0,1.3,0.2,1.8,0.6c0.5,0.4,0.7,1,0.8,1.7h-1c0-0.4-0.2-0.8-0.5-1
	c-0.3-0.3-0.6-0.4-1-0.4c-0.6,0-1,0.2-1.3,0.6c-0.3,0.4-0.5,1-0.5,1.7v0.2c0,0.7,0.2,1.3,0.5,1.7
	C301.9,537.2,302.3,537.4,302.9,537.4z M308.1,535.3l-0.7,0.7v2.2h-1.1v-9h1.1v5.4l0.6-0.7l2-2.1h1.3l-2.5,2.7l2.8,3.7h-1.3
	L308.1,535.3z M315.4,532.8c-0.2,0-0.3,0-0.5,0c-0.7,0-1.2,0.3-1.5,0.9v4.5h-1.1v-6.3h1v0.7c0.4-0.6,0.9-0.8,1.5-0.8
	c0.2,0,0.4,0,0.5,0.1v0.9H315.4z M316,535c0-0.6,0.1-1.2,0.4-1.7c0.2-0.5,0.6-0.9,1-1.1c0.4-0.3,0.9-0.4,1.5-0.4
	c0.9,0,1.6,0.3,2.1,0.9c0.5,0.6,0.8,1.4,0.8,2.4v0.1c0,0.6-0.1,1.2-0.4,1.7c-0.2,0.5-0.6,0.9-1,1.2s-0.9,0.4-1.5,0.4
	c-0.9,0-1.6-0.3-2.1-0.9C316.3,536.8,316,536,316,535L316,535z M317.1,535.1c0,0.7,0.2,1.3,0.5,1.7s0.8,0.6,1.3,0.6
	c0.6,0,1-0.2,1.3-0.6c0.3-0.4,0.5-1,0.5-1.8c0-0.7-0.2-1.2-0.5-1.7c-0.3-0.4-0.8-0.7-1.3-0.7s-1,0.2-1.3,0.6
	C317.3,533.7,317.1,534.3,317.1,535.1z M327.2,538.2c-0.1-0.1-0.1-0.3-0.2-0.7c-0.5,0.5-1.1,0.8-1.8,0.8c-0.6,0-1.1-0.2-1.5-0.5
	c-0.4-0.4-0.6-0.8-0.6-1.4c0-0.7,0.2-1.2,0.8-1.5c0.5-0.4,1.2-0.5,2.1-0.5h1v-0.5c0-0.4-0.1-0.7-0.3-0.9c-0.2-0.2-0.6-0.3-1-0.3
	s-0.7,0.1-1,0.3s-0.4,0.4-0.4,0.7h-1.1c0-0.3,0.1-0.6,0.3-0.9c0.2-0.3,0.5-0.5,0.9-0.7s0.8-0.3,1.3-0.3c0.7,0,1.3,0.2,1.7,0.5
	c0.4,0.4,0.6,0.9,0.7,1.5v2.9c0,0.6,0.1,1,0.2,1.4v0.1L327.2,538.2L327.2,538.2z M325.4,537.4c0.3,0,0.7-0.1,1-0.3s0.5-0.4,0.7-0.7
	v-1.3h-0.8c-1.3,0-2,0.4-2,1.2c0,0.3,0.1,0.6,0.3,0.8C324.8,537.3,325.1,537.4,325.4,537.4z M332.9,537.4c0.4,0,0.7-0.1,1-0.3
	s0.5-0.5,0.5-0.9h1c0,0.4-0.2,0.7-0.4,1c-0.2,0.3-0.5,0.6-0.9,0.8s-0.8,0.3-1.2,0.3c-0.9,0-1.6-0.3-2.1-0.9
	c-0.5-0.6-0.8-1.4-0.8-2.4v-0.2c0-0.6,0.1-1.2,0.3-1.6c0.2-0.5,0.6-0.8,1-1.1s0.9-0.4,1.5-0.4c0.7,0,1.3,0.2,1.8,0.6
	c0.5,0.4,0.7,1,0.8,1.7h-1c0-0.4-0.2-0.8-0.5-1c-0.3-0.3-0.6-0.4-1-0.4c-0.6,0-1,0.2-1.3,0.6c-0.3,0.4-0.5,1-0.5,1.7v0.2
	c0,0.7,0.2,1.3,0.5,1.7C331.9,537.2,332.3,537.4,332.9,537.4z M337.4,532.6c0.5-0.6,1.1-0.9,1.9-0.9c1.3,0,2,0.8,2,2.3v4.2h-1.1V534
	c0-0.4-0.1-0.8-0.3-1c-0.2-0.2-0.5-0.3-1-0.3c-0.4,0-0.7,0.1-0.9,0.3c-0.3,0.2-0.5,0.4-0.6,0.7v4.5h-1.1v-9h1.1V532.6z M343.5,538.2
	v-8.5h2.4c0.7,0,1.4,0.2,2,0.5s1,0.8,1.3,1.4c0.3,0.6,0.5,1.3,0.5,2.1v0.5c0,0.8-0.2,1.5-0.5,2.1s-0.7,1.1-1.3,1.4
	c-0.6,0.3-1.2,0.5-2,0.5H343.5z M344.6,530.6v6.7h1.2c0.9,0,1.5-0.3,2-0.8s0.7-1.3,0.7-2.3v-0.5c0-1-0.2-1.7-0.7-2.2
	c-0.4-0.5-1.1-0.8-1.9-0.8h-1.3V530.6z M351.5,538.2v-8.5h2.8c0.9,0,1.6,0.2,2.1,0.6c0.5,0.4,0.7,0.9,0.7,1.7c0,0.4-0.1,0.8-0.3,1.1
	c-0.2,0.3-0.5,0.5-0.9,0.7c0.5,0.1,0.8,0.4,1.1,0.7c0.3,0.4,0.4,0.8,0.4,1.3c0,0.8-0.2,1.4-0.8,1.8c-0.5,0.4-1.2,0.7-2.1,0.7
	L351.5,538.2L351.5,538.2z M352.6,534.2v3.1h1.9c0.5,0,0.9-0.1,1.2-0.4c0.3-0.3,0.5-0.6,0.5-1.1c0-1-0.6-1.5-1.7-1.5L352.6,534.2
	L352.6,534.2z M352.6,533.3h1.7c0.5,0,0.9-0.1,1.2-0.4c0.3-0.2,0.5-0.6,0.5-1c0-0.5-0.1-0.8-0.4-1s-0.7-0.3-1.2-0.3h-1.7v2.7H352.6z
	 M361.3,534.7c0-0.9,0.1-1.7,0.3-2.5c0.2-0.8,0.6-1.6,1.1-2.2c0.5-0.7,1-1.1,1.5-1.4l0.2,0.7c-0.6,0.4-1,1.1-1.4,2s-0.6,1.9-0.6,3
	v0.5c0,1.5,0.3,2.8,0.8,3.9c0.3,0.7,0.7,1.2,1.2,1.6l-0.2,0.7c-0.5-0.3-1-0.8-1.5-1.5C361.7,538.2,361.3,536.6,361.3,534.7z
	 M370.8,538.2h-5.6v-0.8l3-3.3c0.4-0.5,0.7-0.9,0.9-1.2c0.2-0.3,0.2-0.6,0.2-1s-0.1-0.8-0.4-1.1s-0.6-0.4-1.1-0.4s-0.9,0.2-1.2,0.5
	c-0.3,0.3-0.5,0.7-0.5,1.3H365c0-0.8,0.2-1.4,0.8-1.9c0.5-0.5,1.2-0.7,2-0.7s1.4,0.2,1.9,0.6c0.5,0.4,0.7,1,0.7,1.7
	c0,0.8-0.5,1.8-1.6,3l-2.3,2.5h4.3V538.2z M372.3,537.6c0-0.2,0.1-0.3,0.2-0.5c0.1-0.1,0.3-0.2,0.5-0.2s0.4,0.1,0.5,0.2
	s0.2,0.3,0.2,0.5s-0.1,0.3-0.2,0.5c-0.1,0.1-0.3,0.2-0.5,0.2s-0.4-0.1-0.5-0.2C372.4,538,372.3,537.8,372.3,537.6z M380.8,538.2
	h-5.6v-0.8l3-3.3c0.4-0.5,0.7-0.9,0.9-1.2c0.2-0.3,0.2-0.6,0.2-1s-0.1-0.8-0.4-1.1s-0.6-0.4-1.1-0.4s-0.9,0.2-1.2,0.5
	c-0.3,0.3-0.5,0.7-0.5,1.3H375c0-0.8,0.2-1.4,0.8-1.9c0.5-0.5,1.2-0.7,2-0.7s1.4,0.2,1.9,0.6c0.5,0.4,0.7,1,0.7,1.7
	c0,0.8-0.5,1.8-1.6,3l-2.3,2.5h4.3V538.2z M387.4,531.9c0,0.4-0.1,0.8-0.3,1.1c-0.2,0.3-0.5,0.6-0.9,0.8c0.4,0.2,0.8,0.5,1,0.8
	c0.3,0.4,0.4,0.8,0.4,1.2c0,0.7-0.2,1.3-0.8,1.8c-0.5,0.4-1.1,0.7-2,0.7c-0.8,0-1.5-0.2-2-0.7c-0.5-0.4-0.7-1-0.7-1.8
	c0-0.5,0.1-0.9,0.4-1.2c0.2-0.4,0.6-0.7,1-0.8c-0.4-0.2-0.7-0.4-0.9-0.8c-0.2-0.3-0.3-0.7-0.3-1.1c0-0.7,0.2-1.3,0.7-1.7
	s1.1-0.6,1.8-0.6c0.8,0,1.4,0.2,1.8,0.6C387.2,530.6,387.4,531.2,387.4,531.9z M386.5,535.9c0-0.5-0.2-0.9-0.5-1.2s-0.7-0.5-1.2-0.5
	s-0.9,0.2-1.2,0.5c-0.3,0.3-0.4,0.7-0.4,1.2s0.1,0.9,0.4,1.1c0.3,0.3,0.7,0.4,1.2,0.4s0.9-0.1,1.2-0.4S386.5,536.4,386.5,535.9z
	 M384.9,530.4c-0.4,0-0.8,0.1-1,0.4c-0.3,0.3-0.4,0.6-0.4,1.1c0,0.4,0.1,0.8,0.4,1c0.3,0.3,0.6,0.4,1,0.4s0.8-0.1,1-0.4
	c0.3-0.3,0.4-0.6,0.4-1s-0.1-0.8-0.4-1.1C385.6,530.6,385.3,530.4,384.9,530.4z M390.3,531.9v0.7c0.5-0.5,1.1-0.8,1.9-0.8
	c0.9,0,1.5,0.3,1.8,1c0.2-0.3,0.5-0.5,0.8-0.7s0.7-0.3,1.2-0.3c1.4,0,2.1,0.7,2.1,2.2v4.2H397V534c0-0.4-0.1-0.8-0.3-1
	c-0.2-0.2-0.6-0.3-1-0.3s-0.7,0.1-1,0.4c-0.3,0.2-0.4,0.6-0.5,1v4.2h-1.1V534c0-0.9-0.5-1.4-1.4-1.4c-0.7,0-1.2,0.3-1.5,0.9v4.6
	h-1.1v-6.3h1.2V531.9z M404,536.5c0-0.3-0.1-0.5-0.3-0.7c-0.2-0.2-0.6-0.3-1.2-0.4c-0.5-0.1-1-0.3-1.3-0.4c-0.3-0.2-0.6-0.4-0.7-0.6
	c-0.1-0.2-0.2-0.5-0.2-0.8c0-0.5,0.2-1,0.7-1.3c0.4-0.4,1-0.5,1.7-0.5s1.3,0.2,1.7,0.6c0.4,0.4,0.7,0.8,0.7,1.4H404
	c0-0.3-0.1-0.5-0.4-0.8c-0.2-0.2-0.6-0.3-0.9-0.3c-0.4,0-0.7,0.1-0.9,0.3c-0.2,0.2-0.3,0.4-0.3,0.7s0.1,0.5,0.3,0.6
	c0.2,0.1,0.6,0.3,1.1,0.4c0.5,0.1,1,0.3,1.3,0.4c0.3,0.2,0.6,0.4,0.7,0.6c0.2,0.2,0.2,0.5,0.2,0.9c0,0.6-0.2,1-0.7,1.4
	c-0.4,0.3-1,0.5-1.8,0.5c-0.5,0-1-0.1-1.4-0.3s-0.7-0.4-0.9-0.8c-0.2-0.3-0.3-0.7-0.3-1h1.1c0,0.4,0.2,0.7,0.4,0.9
	c0.3,0.2,0.6,0.3,1.1,0.3c0.4,0,0.7-0.1,1-0.2C403.9,537,404,536.8,404,536.5z M410.5,538.2h-1.1v-9h1.1V538.2z M416.2,538.2
	c-0.1-0.1-0.1-0.3-0.2-0.7c-0.5,0.5-1.1,0.8-1.8,0.8c-0.6,0-1.1-0.2-1.5-0.5c-0.4-0.4-0.6-0.8-0.6-1.4c0-0.7,0.2-1.2,0.8-1.5
	c0.5-0.4,1.2-0.5,2.1-0.5h1v-0.5c0-0.4-0.1-0.7-0.3-0.9c-0.2-0.2-0.6-0.3-1-0.3s-0.7,0.1-1,0.3s-0.4,0.4-0.4,0.7h-1.1
	c0-0.3,0.1-0.6,0.3-0.9c0.2-0.3,0.5-0.5,0.9-0.7s0.8-0.3,1.3-0.3c0.7,0,1.3,0.2,1.7,0.5c0.4,0.4,0.6,0.9,0.7,1.5v2.9
	c0,0.6,0.1,1,0.2,1.4v0.1L416.2,538.2L416.2,538.2z M414.4,537.4c0.3,0,0.7-0.1,1-0.3s0.5-0.4,0.7-0.7v-1.3h-0.8c-1.3,0-2,0.4-2,1.2
	c0,0.3,0.1,0.6,0.3,0.8C413.8,537.3,414.1,537.4,414.4,537.4z M420.8,530.3v1.5h1.2v0.8h-1.2v3.9c0,0.3,0.1,0.5,0.2,0.6
	s0.3,0.2,0.5,0.2c0.1,0,0.3,0,0.5-0.1v0.9c-0.3,0.1-0.6,0.1-0.8,0.1c-0.5,0-0.8-0.1-1.1-0.4c-0.2-0.3-0.4-0.7-0.4-1.3v-3.9h-1.2
	v-0.8h1.2v-1.5H420.8z M426,538.3c-0.9,0-1.6-0.3-2.1-0.8c-0.5-0.6-0.8-1.3-0.8-2.3V535c0-0.6,0.1-1.2,0.4-1.7
	c0.2-0.5,0.6-0.9,1-1.2s0.9-0.4,1.4-0.4c0.8,0,1.5,0.3,1.9,0.8c0.5,0.5,0.7,1.3,0.7,2.3v0.5h-4.3c0,0.6,0.2,1.1,0.5,1.5
	c0.4,0.4,0.8,0.6,1.3,0.6c0.4,0,0.7-0.1,1-0.2c0.3-0.2,0.5-0.4,0.7-0.6l0.7,0.5C427.8,537.9,427,538.3,426,538.3z M425.8,532.6
	c-0.4,0-0.8,0.2-1.1,0.5c-0.3,0.3-0.5,0.8-0.5,1.3h3.2v-0.1c0-0.6-0.2-1-0.5-1.3C426.6,532.8,426.3,532.6,425.8,532.6z M430.3,531.9
	v0.8c0.5-0.6,1.1-0.9,1.9-0.9c1.3,0,2,0.8,2,2.3v4.2h-1.1V534c0-0.4-0.1-0.8-0.3-1c-0.2-0.2-0.5-0.3-1-0.3c-0.4,0-0.7,0.1-0.9,0.3
	c-0.3,0.2-0.5,0.4-0.6,0.7v4.5h-1.1v-6.3H430.3z M438.9,537.4c0.4,0,0.7-0.1,1-0.3s0.5-0.5,0.5-0.9h1c0,0.4-0.2,0.7-0.4,1
	c-0.2,0.3-0.5,0.6-0.9,0.8s-0.8,0.3-1.2,0.3c-0.9,0-1.6-0.3-2.1-0.9c-0.5-0.6-0.8-1.4-0.8-2.4v-0.2c0-0.6,0.1-1.2,0.3-1.6
	c0.2-0.5,0.6-0.8,1-1.1s0.9-0.4,1.5-0.4c0.7,0,1.3,0.2,1.8,0.6c0.5,0.4,0.7,1,0.8,1.7h-1c0-0.4-0.2-0.8-0.5-1
	c-0.3-0.3-0.6-0.4-1-0.4c-0.6,0-1,0.2-1.3,0.6c-0.3,0.4-0.5,1-0.5,1.7v0.2c0,0.7,0.2,1.3,0.5,1.7
	C437.9,537.2,438.3,537.4,438.9,537.4z M444.4,536.6l1.5-4.8h1.2l-2.5,7.3c-0.4,1.1-1,1.6-1.9,1.6h-0.2l-0.4-0.1v-0.9h0.3
	c0.4,0,0.7-0.1,0.9-0.2c0.2-0.1,0.4-0.4,0.5-0.8l0.2-0.7l-2.3-6.3h1.2L444.4,536.6z M450.8,534.8c0,0.9-0.1,1.7-0.3,2.5
	c-0.2,0.8-0.6,1.5-1.1,2.2s-1,1.2-1.5,1.4l-0.2-0.7c0.6-0.5,1.1-1.2,1.5-2.1c0.4-1,0.6-2.1,0.6-3.2v-0.2c0-0.8-0.1-1.6-0.3-2.3
	c-0.2-0.7-0.4-1.3-0.7-1.9c-0.3-0.6-0.6-1-1-1.3l0.2-0.7c0.5,0.3,1,0.8,1.5,1.4c0.5,0.7,0.8,1.4,1,2.2
	C450.7,533,450.8,533.9,450.8,534.8z"/>
<path d="M164.5,108.4c-1-0.3-1.7-0.6-2.1-1c-0.4-0.4-0.7-0.9-0.7-1.5c0-0.7,0.3-1.2,0.8-1.7c0.5-0.4,1.2-0.7,2.1-0.7
	c0.6,0,1.1,0.1,1.6,0.3c0.5,0.2,0.8,0.5,1.1,0.9s0.4,0.8,0.4,1.3h-1.1c0-0.5-0.2-0.9-0.5-1.2c-0.3-0.3-0.8-0.4-1.4-0.4
	c-0.6,0-1,0.1-1.3,0.4c-0.3,0.2-0.5,0.6-0.5,1s0.1,0.7,0.4,0.9c0.3,0.2,0.8,0.5,1.5,0.7s1.3,0.4,1.7,0.7c0.4,0.2,0.7,0.5,0.9,0.8
	s0.3,0.7,0.3,1.1c0,0.7-0.3,1.3-0.8,1.7c-0.5,0.4-1.3,0.6-2.2,0.6c-0.6,0-1.1-0.1-1.7-0.3c-0.5-0.2-0.9-0.5-1.2-0.9
	s-0.4-0.8-0.4-1.3h1.1c0,0.5,0.2,0.9,0.6,1.2c0.4,0.3,0.9,0.5,1.5,0.5s1-0.1,1.4-0.4c0.3-0.2,0.5-0.6,0.5-1s-0.1-0.7-0.4-1
	C165.8,108.8,165.3,108.6,164.5,108.4z M171.5,112.3c-0.9,0-1.6-0.3-2.1-0.8c-0.5-0.6-0.8-1.3-0.8-2.3V109c0-0.6,0.1-1.2,0.4-1.7
	c0.2-0.5,0.6-0.9,1-1.2c0.4-0.3,0.9-0.4,1.4-0.4c0.8,0,1.5,0.3,1.9,0.8c0.5,0.5,0.7,1.3,0.7,2.3v0.5h-4.3c0,0.6,0.2,1.1,0.5,1.5
	c0.4,0.4,0.8,0.6,1.3,0.6c0.4,0,0.7-0.1,1-0.2c0.3-0.2,0.5-0.4,0.7-0.6l0.7,0.5C173.3,111.9,172.5,112.3,171.5,112.3z M171.3,106.6
	c-0.4,0-0.8,0.2-1.1,0.5s-0.5,0.8-0.5,1.3h3.2v-0.1c0-0.6-0.2-1-0.5-1.3C172.1,106.8,171.8,106.6,171.3,106.6z M177.4,111.4
	c0.4,0,0.7-0.1,1-0.3c0.3-0.2,0.5-0.5,0.5-0.9h1c0,0.4-0.2,0.7-0.4,1s-0.5,0.6-0.9,0.8c-0.4,0.2-0.8,0.3-1.2,0.3
	c-0.9,0-1.6-0.3-2.1-0.9s-0.8-1.4-0.8-2.4v-0.2c0-0.6,0.1-1.2,0.3-1.6c0.2-0.5,0.6-0.8,1-1.1c0.4-0.3,0.9-0.4,1.5-0.4
	c0.7,0,1.3,0.2,1.8,0.6s0.7,1,0.8,1.7h-1c0-0.4-0.2-0.8-0.5-1c-0.3-0.3-0.6-0.4-1-0.4c-0.6,0-1,0.2-1.3,0.6s-0.5,1-0.5,1.7v0.2
	c0,0.7,0.2,1.3,0.5,1.7C176.4,111.2,176.8,111.4,177.4,111.4z M180.5,109c0-0.6,0.1-1.2,0.4-1.7c0.2-0.5,0.6-0.9,1-1.1
	c0.4-0.3,0.9-0.4,1.5-0.4c0.9,0,1.6,0.3,2.1,0.9s0.8,1.4,0.8,2.4v0.1c0,0.6-0.1,1.2-0.4,1.7c-0.2,0.5-0.6,0.9-1,1.2
	c-0.4,0.3-0.9,0.4-1.5,0.4c-0.9,0-1.6-0.3-2.1-0.9C180.8,110.8,180.5,110,180.5,109L180.5,109z M181.6,109.1c0,0.7,0.2,1.3,0.5,1.7
	c0.3,0.4,0.8,0.6,1.3,0.6c0.6,0,1-0.2,1.3-0.6s0.5-1,0.5-1.8c0-0.7-0.2-1.2-0.5-1.7c-0.3-0.4-0.8-0.7-1.3-0.7s-1,0.2-1.3,0.6
	C181.8,107.7,181.6,108.3,181.6,109.1z M188.8,105.9v0.8c0.5-0.6,1.1-0.9,1.9-0.9c1.3,0,2,0.8,2,2.3v4.2h-1.1V108
	c0-0.4-0.1-0.8-0.3-1s-0.5-0.3-1-0.3c-0.4,0-0.7,0.1-0.9,0.3c-0.3,0.2-0.5,0.4-0.6,0.7v4.5h-1.1v-6.3
	C187.7,105.9,188.8,105.9,188.8,105.9z M194.6,109c0-1,0.2-1.8,0.7-2.3c0.5-0.6,1.1-0.9,1.8-0.9s1.3,0.2,1.8,0.8v-3.3h1.1v9h-1v-0.7
	c-0.4,0.5-1,0.8-1.8,0.8c-0.7,0-1.3-0.3-1.8-0.9C194.8,110.8,194.6,110,194.6,109L194.6,109z M195.6,109.1c0,0.7,0.1,1.3,0.4,1.7
	c0.3,0.4,0.7,0.6,1.2,0.6c0.7,0,1.2-0.3,1.5-0.9v-2.9c-0.3-0.6-0.8-0.9-1.5-0.9c-0.5,0-0.9,0.2-1.2,0.6
	C195.8,107.7,195.6,108.3,195.6,109.1z M205.7,112.2c-0.1-0.1-0.1-0.3-0.2-0.7c-0.5,0.5-1.1,0.8-1.8,0.8c-0.6,0-1.1-0.2-1.5-0.5
	c-0.4-0.4-0.6-0.8-0.6-1.4c0-0.7,0.2-1.2,0.8-1.5c0.5-0.4,1.2-0.5,2.1-0.5h1v-0.5c0-0.4-0.1-0.7-0.3-0.9c-0.2-0.2-0.6-0.3-1-0.3
	s-0.7,0.1-1,0.3c-0.3,0.2-0.4,0.4-0.4,0.7h-1.1c0-0.3,0.1-0.6,0.3-0.9s0.5-0.5,0.9-0.7s0.8-0.3,1.3-0.3c0.7,0,1.3,0.2,1.7,0.5
	c0.4,0.4,0.6,0.9,0.7,1.5v2.9c0,0.6,0.1,1,0.2,1.4v0.1H205.7z M203.9,111.4c0.3,0,0.7-0.1,1-0.3c0.3-0.2,0.5-0.4,0.7-0.7v-1.3h-0.8
	c-1.3,0-2,0.4-2,1.2c0,0.3,0.1,0.6,0.3,0.8C203.3,111.3,203.6,111.4,203.9,111.4z M211.9,106.8c-0.2,0-0.3,0-0.5,0
	c-0.7,0-1.2,0.3-1.5,0.9v4.5h-1.1v-6.3h1v0.7c0.4-0.6,0.9-0.8,1.5-0.8c0.2,0,0.4,0,0.5,0.1v0.9H211.9z M214.9,110.6l1.5-4.8h1.2
	l-2.5,7.3c-0.4,1.1-1,1.6-1.9,1.6H213l-0.4-0.1v-0.9h0.3c0.4,0,0.7-0.1,0.9-0.2s0.4-0.4,0.5-0.8l0.2-0.7l-2.3-6.3h1.2L214.9,110.6z
	 M223.2,112.2h-1.1v-8.5h1.1V112.2z M225.8,105.9v0.8c0.5-0.6,1.1-0.9,1.9-0.9c1.3,0,2,0.8,2,2.3v4.2h-1.1V108c0-0.4-0.1-0.8-0.3-1
	s-0.5-0.3-1-0.3c-0.4,0-0.7,0.1-0.9,0.3c-0.3,0.2-0.5,0.4-0.6,0.7v4.5h-1.1v-6.3C224.7,105.9,225.8,105.9,225.8,105.9z M231.6,109
	c0-1,0.2-1.8,0.7-2.3c0.5-0.6,1.1-0.9,1.8-0.9s1.3,0.2,1.8,0.8v-3.3h1.1v9h-1v-0.7c-0.4,0.5-1,0.8-1.8,0.8c-0.7,0-1.3-0.3-1.8-0.9
	C231.8,110.8,231.6,110,231.6,109L231.6,109z M232.6,109.1c0,0.7,0.1,1.3,0.4,1.7c0.3,0.4,0.7,0.6,1.2,0.6c0.7,0,1.2-0.3,1.5-0.9
	v-2.9c-0.3-0.6-0.8-0.9-1.5-0.9c-0.5,0-0.9,0.2-1.2,0.6C232.8,107.7,232.6,108.3,232.6,109.1z M241.5,112.3c-0.9,0-1.6-0.3-2.1-0.8
	c-0.5-0.6-0.8-1.3-0.8-2.3V109c0-0.6,0.1-1.2,0.4-1.7c0.2-0.5,0.6-0.9,1-1.2c0.4-0.3,0.9-0.4,1.4-0.4c0.8,0,1.5,0.3,1.9,0.8
	c0.5,0.5,0.7,1.3,0.7,2.3v0.5h-4.3c0,0.6,0.2,1.1,0.5,1.5c0.4,0.4,0.8,0.6,1.3,0.6c0.4,0,0.7-0.1,1-0.2c0.3-0.2,0.5-0.4,0.7-0.6
	l0.7,0.5C243.3,111.9,242.5,112.3,241.5,112.3z M241.3,106.6c-0.4,0-0.8,0.2-1.1,0.5s-0.5,0.8-0.5,1.3h3.2v-0.1c0-0.6-0.2-1-0.5-1.3
	C242.1,106.8,241.8,106.6,241.3,106.6z M247,108.2l1.4-2.3h1.3l-2.1,3.1l2.1,3.2h-1.2l-1.5-2.4l-1.5,2.4h-1.3l2.1-3.2l-2.1-3.1h1.2
	L247,108.2z M260.5,108.2c0,0.8-0.1,1.5-0.4,2.1s-0.6,1.1-1.1,1.4l1.5,1.2l-0.8,0.7l-1.8-1.4c-0.3,0.1-0.6,0.1-0.9,0.1
	c-0.7,0-1.3-0.2-1.8-0.5s-0.9-0.8-1.2-1.4s-0.4-1.3-0.4-2.1v-0.6c0-0.8,0.1-1.5,0.4-2.2c0.3-0.6,0.7-1.1,1.2-1.4s1.1-0.5,1.8-0.5
	s1.3,0.2,1.8,0.5s0.9,0.8,1.2,1.4s0.4,1.4,0.4,2.2L260.5,108.2L260.5,108.2z M259.4,107.7c0-1-0.2-1.8-0.6-2.3
	c-0.4-0.6-1-0.8-1.7-0.8s-1.3,0.3-1.7,0.8s-0.6,1.3-0.6,2.2v0.6c0,1,0.2,1.7,0.6,2.3s1,0.8,1.7,0.8s1.3-0.3,1.7-0.8
	c0.4-0.5,0.6-1.3,0.6-2.3V107.7z M265.7,111.6c-0.4,0.5-1,0.8-1.9,0.8c-0.7,0-1.2-0.2-1.5-0.6c-0.4-0.4-0.5-1-0.5-1.8v-4.1h1.1v4.1
	c0,1,0.4,1.5,1.2,1.5c0.8,0,1.4-0.3,1.7-0.9V106h1.1v6.3h-1L265.7,111.6z M271.5,112.3c-0.9,0-1.6-0.3-2.1-0.8
	c-0.5-0.6-0.8-1.3-0.8-2.3V109c0-0.6,0.1-1.2,0.4-1.7c0.2-0.5,0.6-0.9,1-1.2c0.4-0.3,0.9-0.4,1.4-0.4c0.8,0,1.5,0.3,1.9,0.8
	c0.5,0.5,0.7,1.3,0.7,2.3v0.5h-4.3c0,0.6,0.2,1.1,0.5,1.5c0.4,0.4,0.8,0.6,1.3,0.6c0.4,0,0.7-0.1,1-0.2c0.3-0.2,0.5-0.4,0.7-0.6
	l0.7,0.5C273.3,111.9,272.5,112.3,271.5,112.3z M271.3,106.6c-0.4,0-0.8,0.2-1.1,0.5c-0.3,0.3-0.5,0.8-0.5,1.3h3.2v-0.1
	c0-0.6-0.2-1-0.5-1.3C272.1,106.8,271.8,106.6,271.3,106.6z M277.9,106.8c-0.2,0-0.3,0-0.5,0c-0.7,0-1.2,0.3-1.5,0.9v4.5h-1.1v-6.3
	h1v0.7c0.4-0.6,0.9-0.8,1.5-0.8c0.2,0,0.4,0,0.5,0.1v0.9H277.9z M280,112.2h-1.1v-6.3h1.1V112.2z M278.8,104.2
	c0-0.2,0.1-0.3,0.2-0.5c0.1-0.1,0.3-0.2,0.5-0.2s0.4,0.1,0.5,0.2s0.2,0.3,0.2,0.5s-0.1,0.3-0.2,0.4s-0.3,0.2-0.5,0.2
	s-0.4-0.1-0.5-0.2S278.8,104.4,278.8,104.2z M284.5,112.3c-0.9,0-1.6-0.3-2.1-0.8c-0.5-0.6-0.8-1.3-0.8-2.3V109
	c0-0.6,0.1-1.2,0.4-1.7c0.2-0.5,0.6-0.9,1-1.2c0.4-0.3,0.9-0.4,1.4-0.4c0.8,0,1.5,0.3,1.9,0.8c0.5,0.5,0.7,1.3,0.7,2.3v0.5h-4.3
	c0,0.6,0.2,1.1,0.5,1.5c0.4,0.4,0.8,0.6,1.3,0.6c0.4,0,0.7-0.1,1-0.2c0.3-0.2,0.5-0.4,0.7-0.6l0.7,0.5
	C286.3,111.9,285.5,112.3,284.5,112.3z M284.3,106.6c-0.4,0-0.8,0.2-1.1,0.5c-0.3,0.3-0.5,0.8-0.5,1.3h3.2v-0.1c0-0.6-0.2-1-0.5-1.3
	C285.1,106.8,284.8,106.6,284.3,106.6z M291.5,110.5c0-0.3-0.1-0.5-0.3-0.7c-0.2-0.2-0.6-0.3-1.2-0.4c-0.5-0.1-1-0.3-1.3-0.4
	c-0.3-0.2-0.6-0.4-0.7-0.6s-0.2-0.5-0.2-0.8c0-0.5,0.2-1,0.7-1.3c0.4-0.4,1-0.5,1.7-0.5s1.3,0.2,1.7,0.6c0.4,0.4,0.7,0.8,0.7,1.4
	h-1.1c0-0.3-0.1-0.5-0.4-0.8c-0.2-0.2-0.6-0.3-0.9-0.3c-0.4,0-0.7,0.1-0.9,0.3c-0.2,0.2-0.3,0.4-0.3,0.7c0,0.3,0.1,0.5,0.3,0.6
	c0.2,0.1,0.6,0.3,1.1,0.4s1,0.3,1.3,0.4c0.3,0.2,0.6,0.4,0.7,0.6c0.2,0.2,0.2,0.5,0.2,0.9c0,0.6-0.2,1-0.7,1.4
	c-0.4,0.3-1,0.5-1.8,0.5c-0.5,0-1-0.1-1.4-0.3c-0.4-0.2-0.7-0.4-0.9-0.8c-0.2-0.3-0.3-0.7-0.3-1h1.1c0,0.4,0.2,0.7,0.4,0.9
	c0.3,0.2,0.6,0.3,1.1,0.3c0.4,0,0.7-0.1,1-0.2C291.4,111,291.5,110.8,291.5,110.5z M302.2,109.1c0,1-0.2,1.7-0.7,2.3s-1,0.9-1.8,0.9
	s-1.4-0.2-1.8-0.7v3h-1.1v-8.8h1v0.7c0.4-0.5,1.1-0.8,1.8-0.8c0.8,0,1.4,0.3,1.8,0.9s0.7,1.4,0.7,2.4v0.1H302.2z M301.1,109
	c0-0.7-0.2-1.3-0.5-1.7c-0.3-0.4-0.7-0.6-1.2-0.6c-0.7,0-1.1,0.3-1.5,0.9v3c0.3,0.6,0.8,0.9,1.5,0.9c0.5,0,0.9-0.2,1.2-0.6
	C300.9,110.4,301.1,109.8,301.1,109z M306.5,112.3c-0.9,0-1.6-0.3-2.1-0.8c-0.5-0.6-0.8-1.3-0.8-2.3V109c0-0.6,0.1-1.2,0.4-1.7
	c0.2-0.5,0.6-0.9,1-1.2c0.4-0.3,0.9-0.4,1.4-0.4c0.8,0,1.5,0.3,1.9,0.8c0.5,0.5,0.7,1.3,0.7,2.3v0.5h-4.3c0,0.6,0.2,1.1,0.5,1.5
	c0.4,0.4,0.8,0.6,1.3,0.6c0.4,0,0.7-0.1,1-0.2c0.3-0.2,0.5-0.4,0.7-0.6l0.7,0.5C308.3,111.9,307.5,112.3,306.5,112.3z M306.3,106.6
	c-0.4,0-0.8,0.2-1.1,0.5c-0.3,0.3-0.5,0.8-0.5,1.3h3.2v-0.1c0-0.6-0.2-1-0.5-1.3C307.1,106.8,306.8,106.6,306.3,106.6z M312.9,106.8
	c-0.2,0-0.3,0-0.5,0c-0.7,0-1.2,0.3-1.5,0.9v4.5h-1.1v-6.3h1v0.7c0.4-0.6,0.9-0.8,1.5-0.8c0.2,0,0.4,0,0.5,0.1v0.9H312.9z
	 M319.5,108.4c-1-0.3-1.7-0.6-2.1-1s-0.7-0.9-0.7-1.5c0-0.7,0.3-1.2,0.8-1.7c0.5-0.4,1.2-0.7,2.1-0.7c0.6,0,1.1,0.1,1.6,0.3
	c0.5,0.2,0.8,0.5,1.1,0.9c0.3,0.4,0.4,0.8,0.4,1.3h-1.1c0-0.5-0.2-0.9-0.5-1.2c-0.3-0.3-0.8-0.4-1.4-0.4s-1,0.1-1.3,0.4
	c-0.3,0.2-0.5,0.6-0.5,1s0.1,0.7,0.4,0.9c0.3,0.2,0.8,0.5,1.5,0.7s1.3,0.4,1.7,0.7c0.4,0.2,0.7,0.5,0.9,0.8c0.2,0.3,0.3,0.7,0.3,1.1
	c0,0.7-0.3,1.3-0.8,1.7c-0.5,0.4-1.3,0.6-2.2,0.6c-0.6,0-1.1-0.1-1.7-0.3c-0.5-0.2-0.9-0.5-1.2-0.9c-0.3-0.4-0.4-0.8-0.4-1.3h1.1
	c0,0.5,0.2,0.9,0.6,1.2c0.4,0.3,0.9,0.5,1.5,0.5s1-0.1,1.4-0.4c0.3-0.2,0.5-0.6,0.5-1s-0.1-0.7-0.4-1
	C320.8,108.8,320.3,108.6,319.5,108.4z M326.5,112.3c-0.9,0-1.6-0.3-2.1-0.8c-0.5-0.6-0.8-1.3-0.8-2.3V109c0-0.6,0.1-1.2,0.4-1.7
	c0.2-0.5,0.6-0.9,1-1.2c0.4-0.3,0.9-0.4,1.4-0.4c0.8,0,1.5,0.3,1.9,0.8c0.5,0.5,0.7,1.3,0.7,2.3v0.5h-4.3c0,0.6,0.2,1.1,0.5,1.5
	c0.4,0.4,0.8,0.6,1.3,0.6c0.4,0,0.7-0.1,1-0.2c0.3-0.2,0.5-0.4,0.7-0.6l0.7,0.5C328.3,111.9,327.5,112.3,326.5,112.3z M326.3,106.6
	c-0.4,0-0.8,0.2-1.1,0.5c-0.3,0.3-0.5,0.8-0.5,1.3h3.2v-0.1c0-0.6-0.2-1-0.5-1.3C327.1,106.8,326.8,106.6,326.3,106.6z M332.4,111.4
	c0.4,0,0.7-0.1,1-0.3c0.3-0.2,0.5-0.5,0.5-0.9h1c0,0.4-0.2,0.7-0.4,1c-0.2,0.3-0.5,0.6-0.9,0.8c-0.4,0.2-0.8,0.3-1.2,0.3
	c-0.9,0-1.6-0.3-2.1-0.9s-0.8-1.4-0.8-2.4v-0.2c0-0.6,0.1-1.2,0.3-1.6c0.2-0.5,0.6-0.8,1-1.1c0.4-0.3,0.9-0.4,1.5-0.4
	c0.7,0,1.3,0.2,1.8,0.6s0.7,1,0.8,1.7h-1c0-0.4-0.2-0.8-0.5-1c-0.3-0.3-0.6-0.4-1-0.4c-0.6,0-1,0.2-1.3,0.6s-0.5,1-0.5,1.7v0.2
	c0,0.7,0.2,1.3,0.5,1.7C331.4,111.2,331.8,111.4,332.4,111.4z M335.5,109c0-0.6,0.1-1.2,0.4-1.7c0.2-0.5,0.6-0.9,1-1.1
	c0.4-0.3,0.9-0.4,1.5-0.4c0.9,0,1.6,0.3,2.1,0.9s0.8,1.4,0.8,2.4v0.1c0,0.6-0.1,1.2-0.4,1.7c-0.2,0.5-0.6,0.9-1,1.2
	c-0.4,0.3-0.9,0.4-1.5,0.4c-0.9,0-1.6-0.3-2.1-0.9C335.8,110.8,335.5,110,335.5,109L335.5,109z M336.6,109.1c0,0.7,0.2,1.3,0.5,1.7
	c0.3,0.4,0.8,0.6,1.3,0.6c0.6,0,1-0.2,1.3-0.6s0.5-1,0.5-1.8c0-0.7-0.2-1.2-0.5-1.7c-0.3-0.4-0.8-0.7-1.3-0.7s-1,0.2-1.3,0.6
	C336.8,107.7,336.6,108.3,336.6,109.1z M343.8,105.9v0.8c0.5-0.6,1.1-0.9,1.9-0.9c1.3,0,2,0.8,2,2.3v4.2h-1.1V108
	c0-0.4-0.1-0.8-0.3-1c-0.2-0.2-0.5-0.3-1-0.3c-0.4,0-0.7,0.1-0.9,0.3c-0.3,0.2-0.5,0.4-0.6,0.7v4.5h-1.1v-6.3
	C342.7,105.9,343.8,105.9,343.8,105.9z M349.6,109c0-1,0.2-1.8,0.7-2.3c0.5-0.6,1.1-0.9,1.8-0.9c0.7,0,1.3,0.2,1.8,0.8v-3.3h1.1v9
	h-1v-0.7c-0.4,0.5-1,0.8-1.8,0.8c-0.7,0-1.3-0.3-1.8-0.9C349.8,110.8,349.6,110,349.6,109L349.6,109z M350.6,109.1
	c0,0.7,0.1,1.3,0.4,1.7c0.3,0.4,0.7,0.6,1.2,0.6c0.7,0,1.2-0.3,1.5-0.9v-2.9c-0.3-0.6-0.8-0.9-1.5-0.9c-0.5,0-0.9,0.2-1.2,0.6
	C350.8,107.7,350.6,108.3,350.6,109.1z"/>
</svg>
