<?xml version="1.0" encoding="utf-8"?>
<!-- Generator: Adobe Illustrator 23.0.1, SVG Export Plug-In . SVG Version: 6.00 Build 0)  -->
<svg version="1.1" id="Layer_1" xmlns="http://www.w3.org/2000/svg" xmlns:xlink="http://www.w3.org/1999/xlink" x="0px" y="0px"
	 viewBox="0 0 517 565.7" style="enable-background:new 0 0 517 565.7;" xml:space="preserve">
<style type="text/css">
	.st0{fill:#FFFFFF;stroke:#E8E8E8;stroke-miterlimit:10;}
	.st1{fill:#F75821;}
	.st2{font-family:'Montserrat-SemiBold';}
	.st3{font-size:22px;}
	.st4{fill:none;stroke:#333333;stroke-miterlimit:10;}
	.st5{fill:#EEEEEE;}
	.st6{fill:none;stroke:#CCCCCC;stroke-miterlimit:10;}
	.st7{clip-path:url(#SVGID_2_);fill:#A13915;}
	.st8{clip-path:url(#SVGID_4_);fill:#F9794D;}
	.st9{clip-path:url(#SVGID_6_);fill:none;}
	.st10{clip-path:url(#SVGID_8_);fill:#F75821;}
	.st11{clip-path:url(#SVGID_10_);fill:#151B35;}
	.st12{clip-path:url(#SVGID_12_);fill:#4D5474;}
	.st13{clip-path:url(#SVGID_14_);fill:none;}
	.st14{clip-path:url(#SVGID_16_);fill:#202951;}
	.st15{fill:none;stroke:#F75821;stroke-width:3;stroke-linecap:round;stroke-linejoin:round;stroke-miterlimit:10;}
	.st16{fill:#FFFFFF;}
	.st17{fill:none;stroke:#202951;stroke-width:3;stroke-linecap:round;stroke-linejoin:round;stroke-miterlimit:10;}
	.st18{fill:#757575;}
	.st19{fill:#202951;}
</style>
<g>
	<g>
		<path class="st0" d="M507,0H10C4.5,0,0,4.5,0,10v545.7c0,5.5,4.5,10,10,10h497c5.5,0,10-4.5,10-10V10C517,4.5,512.5,0,507,0z"/>
		<text transform="matrix(1 0 0 1 87.387 55.3822)" class="st1 st2 st3">10x Better Read Performance</text>
	</g>
	<path class="st4" d="M106.6,472.2h382"/>
	<path class="st5" d="M76.6,502.2l30-29h382l-30,29H76.6z"/>
	<path class="st6" d="M106.6,389.2h382"/>
	<path class="st6" d="M106.6,306.2h382"/>
	<path class="st6" d="M106.6,222.2h382"/>
	<path class="st6" d="M106.6,139.2h382"/>
	<g>
		<g>
			<defs>
				<rect id="SVGID_1_" x="76.6" y="139" width="412" height="363.3"/>
			</defs>
			<clipPath id="SVGID_2_">
				<use xlink:href="#SVGID_1_"  style="overflow:visible;"/>
			</clipPath>
			<path class="st7" d="M294.1,178.7v294l-25,25v-294L294.1,178.7z"/>
		</g>
	</g>
	<g>
		<g>
			<defs>
				<rect id="SVGID_3_" x="76.6" y="139" width="412" height="363.3"/>
			</defs>
			<clipPath id="SVGID_4_">
				<use xlink:href="#SVGID_3_"  style="overflow:visible;"/>
			</clipPath>
			<path class="st8" d="M269.1,203.7h-98l25-25h98L269.1,203.7z"/>
		</g>
	</g>
	<g>
		<g>
			<defs>
				<rect id="SVGID_5_" x="76.6" y="139" width="412" height="363.3"/>
			</defs>
			<clipPath id="SVGID_6_">
				<use xlink:href="#SVGID_5_"  style="overflow:visible;"/>
			</clipPath>
			<path class="st9" d="M269.1,497.7h-98v-294h98V497.7z"/>
		</g>
	</g>
	<g>
		<g>
			<defs>
				<rect id="SVGID_7_" x="76.6" y="139" width="412" height="363.3"/>
			</defs>
			<clipPath id="SVGID_8_">
				<use xlink:href="#SVGID_7_"  style="overflow:visible;"/>
			</clipPath>
			<path class="st10" d="M269.1,497.7h-98v-294h98V497.7z"/>
		</g>
	</g>
	<g>
		<g>
			<defs>
				<rect id="SVGID_9_" x="76.6" y="139" width="412" height="363.3"/>
			</defs>
			<clipPath id="SVGID_10_">
				<use xlink:href="#SVGID_9_"  style="overflow:visible;"/>
			</clipPath>
			<path class="st11" d="M393.1,442.7v30l-25,25v-30L393.1,442.7z"/>
		</g>
	</g>
	<g>
		<g>
			<defs>
				<rect id="SVGID_11_" x="76.6" y="139" width="412" height="363.3"/>
			</defs>
			<clipPath id="SVGID_12_">
				<use xlink:href="#SVGID_11_"  style="overflow:visible;"/>
			</clipPath>
			<path class="st12" d="M368.1,467.7h-98l25-25h98L368.1,467.7z"/>
		</g>
	</g>
	<g>
		<g>
			<defs>
				<rect id="SVGID_13_" x="76.6" y="139" width="412" height="363.3"/>
			</defs>
			<clipPath id="SVGID_14_">
				<use xlink:href="#SVGID_13_"  style="overflow:visible;"/>
			</clipPath>
			<path class="st13" d="M368.1,497.7h-98v-30h98V497.7z"/>
		</g>
	</g>
	<g>
		<g>
			<defs>
				<rect id="SVGID_15_" x="76.6" y="139" width="412" height="363.3"/>
			</defs>
			<clipPath id="SVGID_16_">
				<use xlink:href="#SVGID_15_"  style="overflow:visible;"/>
			</clipPath>
			<path class="st14" d="M368.1,497.7h-98v-30h98V497.7z"/>
		</g>
	</g>
	<path class="st15" d="M208,214.5c0,0.4-0.1,0.8-0.3,1.1s-0.5,0.6-0.9,0.8c0.4,0.2,0.8,0.5,1,0.8c0.3,0.4,0.4,0.8,0.4,1.2
		c0,0.7-0.2,1.3-0.8,1.8c-0.5,0.4-1.1,0.7-2,0.7c-0.8,0-1.5-0.2-2-0.7c-0.5-0.4-0.7-1-0.7-1.8c0-0.5,0.1-0.9,0.4-1.2
		c0.2-0.4,0.6-0.7,1-0.8c-0.4-0.2-0.7-0.4-0.9-0.8s-0.3-0.7-0.3-1.1c0-0.7,0.2-1.3,0.7-1.7s1.1-0.6,1.8-0.6c0.8,0,1.4,0.2,1.8,0.6
		C207.8,213.2,208,213.8,208,214.5z M207.1,218.5c0-0.5-0.2-0.9-0.5-1.2s-0.7-0.5-1.2-0.5s-0.9,0.2-1.2,0.5s-0.4,0.7-0.4,1.2
		s0.1,0.9,0.4,1.1c0.3,0.3,0.7,0.4,1.2,0.4s0.9-0.1,1.2-0.4S207.1,219,207.1,218.5z M205.5,213.1c-0.4,0-0.8,0.1-1,0.4
		c-0.3,0.3-0.4,0.6-0.4,1.1c0,0.4,0.1,0.8,0.4,1s0.6,0.4,1,0.4s0.8-0.1,1-0.4s0.4-0.6,0.4-1s-0.1-0.8-0.4-1.1
		C206.2,213.2,205.9,213.1,205.5,213.1z M215,214.5c0,0.4-0.1,0.8-0.3,1.1s-0.5,0.6-0.9,0.8c0.4,0.2,0.8,0.5,1,0.8
		c0.3,0.4,0.4,0.8,0.4,1.2c0,0.7-0.2,1.3-0.8,1.8c-0.5,0.4-1.1,0.7-2,0.7c-0.8,0-1.5-0.2-2-0.7c-0.5-0.4-0.7-1-0.7-1.8
		c0-0.5,0.1-0.9,0.4-1.2c0.2-0.4,0.6-0.7,1-0.8c-0.4-0.2-0.7-0.4-0.9-0.8s-0.3-0.7-0.3-1.1c0-0.7,0.2-1.3,0.7-1.7s1.1-0.6,1.8-0.6
		c0.8,0,1.4,0.2,1.8,0.6C214.8,213.2,215,213.8,215,214.5z M214.1,218.5c0-0.5-0.2-0.9-0.5-1.2s-0.7-0.5-1.2-0.5s-0.9,0.2-1.2,0.5
		s-0.4,0.7-0.4,1.2s0.1,0.9,0.4,1.1c0.3,0.3,0.7,0.4,1.2,0.4s0.9-0.1,1.2-0.4S214.1,219,214.1,218.5z M212.5,213.1
		c-0.4,0-0.8,0.1-1,0.4c-0.3,0.3-0.4,0.6-0.4,1.1c0,0.4,0.1,0.8,0.4,1s0.6,0.4,1,0.4s0.8-0.1,1-0.4s0.4-0.6,0.4-1s-0.1-0.8-0.4-1.1
		C213.2,213.2,212.9,213.1,212.5,213.1z M216.9,222.5l-0.6-0.4c0.4-0.5,0.6-1,0.6-1.6v-1h1.1v0.8c0,0.4-0.1,0.8-0.3,1.2
		S217.2,222.3,216.9,222.5z M224.2,217.2c0,1.3-0.2,2.2-0.7,2.8c-0.4,0.6-1.1,0.9-2,0.9s-1.6-0.3-2-0.9s-0.7-1.5-0.7-2.7v-1.4
		c0-1.3,0.2-2.2,0.6-2.8c0.4-0.6,1.1-0.9,2-0.9s1.6,0.3,2,0.9c0.4,0.6,0.7,1.5,0.7,2.7L224.2,217.2L224.2,217.2z M223.1,215.7
		c0-0.9-0.1-1.6-0.4-2c-0.2-0.4-0.7-0.6-1.2-0.6c-0.6,0-1,0.2-1.2,0.6c-0.2,0.4-0.4,1.1-0.4,1.9v1.7c0,0.9,0.1,1.6,0.4,2
		c0.3,0.4,0.7,0.7,1.2,0.7s0.9-0.2,1.2-0.6s0.4-1.1,0.4-2V215.7z M231.2,217.2c0,1.3-0.2,2.2-0.7,2.8c-0.4,0.6-1.1,0.9-2,0.9
		s-1.6-0.3-2-0.9s-0.7-1.5-0.7-2.7v-1.4c0-1.3,0.2-2.2,0.6-2.8c0.4-0.6,1.1-0.9,2-0.9s1.6,0.3,2,0.9c0.4,0.6,0.7,1.5,0.7,2.7
		L231.2,217.2L231.2,217.2z M230.1,215.7c0-0.9-0.1-1.6-0.4-2c-0.2-0.4-0.7-0.6-1.2-0.6c-0.6,0-1,0.2-1.2,0.6
		c-0.2,0.4-0.4,1.1-0.4,1.9v1.7c0,0.9,0.1,1.6,0.4,2c0.3,0.4,0.7,0.7,1.2,0.7s0.9-0.2,1.2-0.6s0.4-1.1,0.4-2V215.7z M238.2,217.2
		c0,1.3-0.2,2.2-0.7,2.8c-0.4,0.6-1.1,0.9-2,0.9s-1.6-0.3-2-0.9s-0.7-1.5-0.7-2.7v-1.4c0-1.3,0.2-2.2,0.6-2.8c0.4-0.6,1.1-0.9,2-0.9
		s1.6,0.3,2,0.9c0.4,0.6,0.7,1.5,0.7,2.7L238.2,217.2L238.2,217.2z M237.1,215.7c0-0.9-0.1-1.6-0.4-2c-0.2-0.4-0.7-0.6-1.2-0.6
		c-0.6,0-1,0.2-1.2,0.6c-0.2,0.4-0.4,1.1-0.4,1.9v1.7c0,0.9,0.1,1.6,0.4,2c0.3,0.4,0.7,0.7,1.2,0.7s0.9-0.2,1.2-0.6s0.4-1.1,0.4-2
		V215.7z"/>
	<path class="st16" d="M208,214.5c0,0.4-0.1,0.8-0.3,1.1s-0.5,0.6-0.9,0.8c0.4,0.2,0.8,0.5,1,0.8c0.3,0.4,0.4,0.8,0.4,1.2
		c0,0.7-0.2,1.3-0.8,1.8c-0.5,0.4-1.1,0.7-2,0.7c-0.8,0-1.5-0.2-2-0.7c-0.5-0.4-0.7-1-0.7-1.8c0-0.5,0.1-0.9,0.4-1.2
		c0.2-0.4,0.6-0.7,1-0.8c-0.4-0.2-0.7-0.4-0.9-0.8s-0.3-0.7-0.3-1.1c0-0.7,0.2-1.3,0.7-1.7s1.1-0.6,1.8-0.6c0.8,0,1.4,0.2,1.8,0.6
		C207.8,213.2,208,213.8,208,214.5z M207.1,218.5c0-0.5-0.2-0.9-0.5-1.2s-0.7-0.5-1.2-0.5s-0.9,0.2-1.2,0.5s-0.4,0.7-0.4,1.2
		s0.1,0.9,0.4,1.1c0.3,0.3,0.7,0.4,1.2,0.4s0.9-0.1,1.2-0.4S207.1,219,207.1,218.5z M205.5,213.1c-0.4,0-0.8,0.1-1,0.4
		c-0.3,0.3-0.4,0.6-0.4,1.1c0,0.4,0.1,0.8,0.4,1s0.6,0.4,1,0.4s0.8-0.1,1-0.4s0.4-0.6,0.4-1s-0.1-0.8-0.4-1.1
		C206.2,213.2,205.9,213.1,205.5,213.1z M215,214.5c0,0.4-0.1,0.8-0.3,1.1s-0.5,0.6-0.9,0.8c0.4,0.2,0.8,0.5,1,0.8
		c0.3,0.4,0.4,0.8,0.4,1.2c0,0.7-0.2,1.3-0.8,1.8c-0.5,0.4-1.1,0.7-2,0.7c-0.8,0-1.5-0.2-2-0.7c-0.5-0.4-0.7-1-0.7-1.8
		c0-0.5,0.1-0.9,0.4-1.2c0.2-0.4,0.6-0.7,1-0.8c-0.4-0.2-0.7-0.4-0.9-0.8s-0.3-0.7-0.3-1.1c0-0.7,0.2-1.3,0.7-1.7s1.1-0.6,1.8-0.6
		c0.8,0,1.4,0.2,1.8,0.6C214.8,213.2,215,213.8,215,214.5z M214.1,218.5c0-0.5-0.2-0.9-0.5-1.2s-0.7-0.5-1.2-0.5s-0.9,0.2-1.2,0.5
		s-0.4,0.7-0.4,1.2s0.1,0.9,0.4,1.1c0.3,0.3,0.7,0.4,1.2,0.4s0.9-0.1,1.2-0.4S214.1,219,214.1,218.5z M212.5,213.1
		c-0.4,0-0.8,0.1-1,0.4c-0.3,0.3-0.4,0.6-0.4,1.1c0,0.4,0.1,0.8,0.4,1s0.6,0.4,1,0.4s0.8-0.1,1-0.4s0.4-0.6,0.4-1s-0.1-0.8-0.4-1.1
		C213.2,213.2,212.9,213.1,212.5,213.1z M216.9,222.5l-0.6-0.4c0.4-0.5,0.6-1,0.6-1.6v-1h1.1v0.8c0,0.4-0.1,0.8-0.3,1.2
		S217.2,222.3,216.9,222.5z M224.2,217.2c0,1.3-0.2,2.2-0.7,2.8c-0.4,0.6-1.1,0.9-2,0.9s-1.6-0.3-2-0.9s-0.7-1.5-0.7-2.7v-1.4
		c0-1.3,0.2-2.2,0.6-2.8c0.4-0.6,1.1-0.9,2-0.9s1.6,0.3,2,0.9c0.4,0.6,0.7,1.5,0.7,2.7L224.2,217.2L224.2,217.2z M223.1,215.7
		c0-0.9-0.1-1.6-0.4-2c-0.2-0.4-0.7-0.6-1.2-0.6c-0.6,0-1,0.2-1.2,0.6c-0.2,0.4-0.4,1.1-0.4,1.9v1.7c0,0.9,0.1,1.6,0.4,2
		c0.3,0.4,0.7,0.7,1.2,0.7s0.9-0.2,1.2-0.6s0.4-1.1,0.4-2V215.7z M231.2,217.2c0,1.3-0.2,2.2-0.7,2.8c-0.4,0.6-1.1,0.9-2,0.9
		s-1.6-0.3-2-0.9s-0.7-1.5-0.7-2.7v-1.4c0-1.3,0.2-2.2,0.6-2.8c0.4-0.6,1.1-0.9,2-0.9s1.6,0.3,2,0.9c0.4,0.6,0.7,1.5,0.7,2.7
		L231.2,217.2L231.2,217.2z M230.1,215.7c0-0.9-0.1-1.6-0.4-2c-0.2-0.4-0.7-0.6-1.2-0.6c-0.6,0-1,0.2-1.2,0.6
		c-0.2,0.4-0.4,1.1-0.4,1.9v1.7c0,0.9,0.1,1.6,0.4,2c0.3,0.4,0.7,0.7,1.2,0.7s0.9-0.2,1.2-0.6s0.4-1.1,0.4-2V215.7z M238.2,217.2
		c0,1.3-0.2,2.2-0.7,2.8c-0.4,0.6-1.1,0.9-2,0.9s-1.6-0.3-2-0.9s-0.7-1.5-0.7-2.7v-1.4c0-1.3,0.2-2.2,0.6-2.8c0.4-0.6,1.1-0.9,2-0.9
		s1.6,0.3,2,0.9c0.4,0.6,0.7,1.5,0.7,2.7L238.2,217.2L238.2,217.2z M237.1,215.7c0-0.9-0.1-1.6-0.4-2c-0.2-0.4-0.7-0.6-1.2-0.6
		c-0.6,0-1,0.2-1.2,0.6c-0.2,0.4-0.4,1.1-0.4,1.9v1.7c0,0.9,0.1,1.6,0.4,2c0.3,0.4,0.7,0.7,1.2,0.7s0.9-0.2,1.2-0.6s0.4-1.1,0.4-2
		V215.7z"/>
	<path class="st17" d="M309.5,480.4c-0.2,0.3-0.5,0.5-0.8,0.7s-0.7,0.2-1,0.2c-0.5,0-0.9-0.1-1.3-0.4s-0.6-0.6-0.8-1
		c-0.2-0.4-0.3-0.9-0.3-1.5c0-0.6,0.1-1.1,0.3-1.5c0.2-0.5,0.5-0.8,0.9-1s0.9-0.4,1.4-0.4c0.8,0,1.5,0.3,2,1
		c0.5,0.6,0.7,1.5,0.7,2.6v0.3c0,1.7-0.3,2.9-1,3.6s-1.6,1.2-3,1.2h-0.2v-0.9h0.2c0.9,0,1.6-0.3,2.1-0.7S309.4,481.4,309.5,480.4z
		 M307.8,480.4c0.4,0,0.7-0.1,1-0.3c0.3-0.2,0.5-0.5,0.7-0.8v-0.4c0-0.7-0.2-1.3-0.5-1.7s-0.7-0.7-1.2-0.7s-0.9,0.2-1.2,0.5
		c-0.3,0.4-0.4,0.8-0.4,1.5c0,0.6,0.1,1.1,0.4,1.4S307.3,480.4,307.8,480.4z M312.4,485.9l-0.6-0.4c0.4-0.5,0.6-1,0.6-1.6v-1h1.1
		v0.8c0,0.4-0.1,0.8-0.3,1.2S312.7,485.6,312.4,485.9z M319.7,480.5c0,1.3-0.2,2.2-0.7,2.8c-0.4,0.6-1.1,0.9-2,0.9s-1.6-0.3-2-0.9
		c-0.4-0.6-0.7-1.5-0.7-2.7v-1.4c0-1.3,0.2-2.2,0.6-2.8s1.1-0.9,2-0.9s1.6,0.3,2,0.9c0.4,0.6,0.7,1.5,0.7,2.7v1.4H319.7z M318.6,479
		c0-0.9-0.1-1.6-0.4-2c-0.2-0.4-0.7-0.6-1.2-0.6c-0.6,0-1,0.2-1.2,0.6c-0.2,0.4-0.4,1.1-0.4,1.9v1.7c0,0.9,0.1,1.6,0.4,2
		c0.3,0.4,0.7,0.7,1.2,0.7s0.9-0.2,1.2-0.6c0.3-0.4,0.4-1.1,0.4-2V479z M326.7,480.5c0,1.3-0.2,2.2-0.7,2.8c-0.4,0.6-1.1,0.9-2,0.9
		s-1.6-0.3-2-0.9c-0.4-0.6-0.7-1.5-0.7-2.7v-1.4c0-1.3,0.2-2.2,0.6-2.8s1.1-0.9,2-0.9s1.6,0.3,2,0.9c0.4,0.6,0.7,1.5,0.7,2.7v1.4
		H326.7z M325.6,479c0-0.9-0.1-1.6-0.4-2c-0.2-0.4-0.7-0.6-1.2-0.6c-0.6,0-1,0.2-1.2,0.6c-0.2,0.4-0.4,1.1-0.4,1.9v1.7
		c0,0.9,0.1,1.6,0.4,2c0.3,0.4,0.7,0.7,1.2,0.7s0.9-0.2,1.2-0.6c0.3-0.4,0.4-1.1,0.4-2V479z M333.7,480.5c0,1.3-0.2,2.2-0.7,2.8
		c-0.4,0.6-1.1,0.9-2,0.9s-1.6-0.3-2-0.9c-0.4-0.6-0.7-1.5-0.7-2.7v-1.4c0-1.3,0.2-2.2,0.6-2.8s1.1-0.9,2-0.9s1.6,0.3,2,0.9
		c0.4,0.6,0.7,1.5,0.7,2.7v1.4H333.7z M332.6,479c0-0.9-0.1-1.6-0.4-2c-0.2-0.4-0.7-0.6-1.2-0.6c-0.6,0-1,0.2-1.2,0.6
		c-0.2,0.4-0.4,1.1-0.4,1.9v1.7c0,0.9,0.1,1.6,0.4,2c0.3,0.4,0.7,0.7,1.2,0.7s0.9-0.2,1.2-0.6c0.3-0.4,0.4-1.1,0.4-2V479z"/>
	<path class="st16" d="M309.5,480.4c-0.2,0.3-0.5,0.5-0.8,0.7s-0.7,0.2-1,0.2c-0.5,0-0.9-0.1-1.3-0.4s-0.6-0.6-0.8-1
		c-0.2-0.4-0.3-0.9-0.3-1.5c0-0.6,0.1-1.1,0.3-1.5c0.2-0.5,0.5-0.8,0.9-1s0.9-0.4,1.4-0.4c0.8,0,1.5,0.3,2,1
		c0.5,0.6,0.7,1.5,0.7,2.6v0.3c0,1.7-0.3,2.9-1,3.6s-1.6,1.2-3,1.2h-0.2v-0.9h0.2c0.9,0,1.6-0.3,2.1-0.7S309.4,481.4,309.5,480.4z
		 M307.8,480.4c0.4,0,0.7-0.1,1-0.3c0.3-0.2,0.5-0.5,0.7-0.8v-0.4c0-0.7-0.2-1.3-0.5-1.7s-0.7-0.7-1.2-0.7s-0.9,0.2-1.2,0.5
		c-0.3,0.4-0.4,0.8-0.4,1.5c0,0.6,0.1,1.1,0.4,1.4S307.3,480.4,307.8,480.4z M312.4,485.9l-0.6-0.4c0.4-0.5,0.6-1,0.6-1.6v-1h1.1
		v0.8c0,0.4-0.1,0.8-0.3,1.2S312.7,485.6,312.4,485.9z M319.7,480.5c0,1.3-0.2,2.2-0.7,2.8c-0.4,0.6-1.1,0.9-2,0.9s-1.6-0.3-2-0.9
		c-0.4-0.6-0.7-1.5-0.7-2.7v-1.4c0-1.3,0.2-2.2,0.6-2.8s1.1-0.9,2-0.9s1.6,0.3,2,0.9c0.4,0.6,0.7,1.5,0.7,2.7v1.4H319.7z M318.6,479
		c0-0.9-0.1-1.6-0.4-2c-0.2-0.4-0.7-0.6-1.2-0.6c-0.6,0-1,0.2-1.2,0.6c-0.2,0.4-0.4,1.1-0.4,1.9v1.7c0,0.9,0.1,1.6,0.4,2
		c0.3,0.4,0.7,0.7,1.2,0.7s0.9-0.2,1.2-0.6c0.3-0.4,0.4-1.1,0.4-2V479z M326.7,480.5c0,1.3-0.2,2.2-0.7,2.8c-0.4,0.6-1.1,0.9-2,0.9
		s-1.6-0.3-2-0.9c-0.4-0.6-0.7-1.5-0.7-2.7v-1.4c0-1.3,0.2-2.2,0.6-2.8s1.1-0.9,2-0.9s1.6,0.3,2,0.9c0.4,0.6,0.7,1.5,0.7,2.7v1.4
		H326.7z M325.6,479c0-0.9-0.1-1.6-0.4-2c-0.2-0.4-0.7-0.6-1.2-0.6c-0.6,0-1,0.2-1.2,0.6c-0.2,0.4-0.4,1.1-0.4,1.9v1.7
		c0,0.9,0.1,1.6,0.4,2c0.3,0.4,0.7,0.7,1.2,0.7s0.9-0.2,1.2-0.6c0.3-0.4,0.4-1.1,0.4-2V479z M333.7,480.5c0,1.3-0.2,2.2-0.7,2.8
		c-0.4,0.6-1.1,0.9-2,0.9s-1.6-0.3-2-0.9c-0.4-0.6-0.7-1.5-0.7-2.7v-1.4c0-1.3,0.2-2.2,0.6-2.8s1.1-0.9,2-0.9s1.6,0.3,2,0.9
		c0.4,0.6,0.7,1.5,0.7,2.7v1.4H333.7z M332.6,479c0-0.9-0.1-1.6-0.4-2c-0.2-0.4-0.7-0.6-1.2-0.6c-0.6,0-1,0.2-1.2,0.6
		c-0.2,0.4-0.4,1.1-0.4,1.9v1.7c0,0.9,0.1,1.6,0.4,2c0.3,0.4,0.7,0.7,1.2,0.7s0.9-0.2,1.2-0.6c0.3-0.4,0.4-1.1,0.4-2V479z"/>
	<path class="st18" d="M69.7,473.2c0,1.3-0.2,2.2-0.7,2.8c-0.4,0.6-1.1,0.9-2,0.9s-1.6-0.3-2-0.9c-0.4-0.6-0.7-1.5-0.7-2.7v-1.4
		c0-1.3,0.2-2.2,0.6-2.8s1.1-0.9,2-0.9s1.6,0.3,2,0.9c0.4,0.6,0.7,1.5,0.7,2.7L69.7,473.2L69.7,473.2z M68.6,471.7
		c0-0.9-0.1-1.6-0.4-2c-0.2-0.4-0.7-0.6-1.2-0.6c-0.6,0-1,0.2-1.2,0.6c-0.2,0.4-0.4,1.1-0.4,1.9v1.7c0,0.9,0.1,1.6,0.4,2
		c0.3,0.4,0.7,0.7,1.2,0.7s0.9-0.2,1.2-0.6c0.3-0.4,0.4-1.1,0.4-2V471.7z"/>
	<path class="st18" d="M39.9,393.5h-5.6v-0.8l3-3.3c0.4-0.5,0.7-0.9,0.9-1.2s0.2-0.6,0.2-1c0-0.4-0.1-0.8-0.4-1.1
		c-0.3-0.3-0.6-0.4-1.1-0.4s-0.9,0.2-1.2,0.5s-0.5,0.7-0.5,1.3h-1.1c0-0.8,0.2-1.4,0.8-1.9c0.5-0.5,1.2-0.7,2-0.7s1.4,0.2,1.9,0.6
		c0.5,0.4,0.7,1,0.7,1.7c0,0.8-0.5,1.8-1.6,3l-2.3,2.5h4.3C39.9,392.7,39.9,393.5,39.9,393.5z M41.8,389.3l0.4-4.2h4.4v1h-3.5
		l-0.3,2.3c0.4-0.2,0.9-0.4,1.4-0.4c0.8,0,1.4,0.3,1.8,0.8c0.5,0.5,0.7,1.2,0.7,2.1c0,0.9-0.2,1.6-0.7,2.1s-1.1,0.8-2,0.8
		c-0.8,0-1.4-0.2-1.8-0.6c-0.5-0.4-0.8-1-0.8-1.8h1c0.1,0.5,0.2,0.9,0.5,1.1s0.7,0.4,1.1,0.4c0.5,0,0.9-0.2,1.2-0.5s0.4-0.8,0.4-1.4
		c0-0.6-0.2-1-0.5-1.4c-0.3-0.4-0.7-0.5-1.2-0.5s-0.8,0.1-1.1,0.3l-0.3,0.2L41.8,389.3z M48.4,395.2l-0.6-0.4c0.4-0.5,0.6-1,0.6-1.6
		v-1h1.1v0.8c0,0.4-0.1,0.8-0.3,1.2C48.9,394.7,48.7,395,48.4,395.2z M55.7,389.9c0,1.3-0.2,2.2-0.7,2.8c-0.4,0.6-1.1,0.9-2,0.9
		s-1.6-0.3-2-0.9c-0.4-0.6-0.7-1.5-0.7-2.7v-1.4c0-1.3,0.2-2.2,0.6-2.8c0.4-0.6,1.1-0.9,2-0.9s1.6,0.3,2,0.9
		c0.4,0.6,0.7,1.5,0.7,2.7v1.4H55.7z M54.6,388.4c0-0.9-0.1-1.6-0.4-2c-0.2-0.4-0.7-0.6-1.2-0.6c-0.6,0-1,0.2-1.2,0.6
		c-0.2,0.4-0.4,1.1-0.4,1.9v1.7c0,0.9,0.1,1.6,0.4,2c0.3,0.4,0.7,0.7,1.2,0.7s0.9-0.2,1.2-0.6c0.3-0.4,0.4-1.1,0.4-2V388.4z
		 M62.7,389.9c0,1.3-0.2,2.2-0.7,2.8c-0.4,0.6-1.1,0.9-2,0.9s-1.6-0.3-2-0.9c-0.4-0.6-0.7-1.5-0.7-2.7v-1.4c0-1.3,0.2-2.2,0.6-2.8
		c0.4-0.6,1.1-0.9,2-0.9s1.6,0.3,2,0.9c0.4,0.6,0.7,1.5,0.7,2.7v1.4H62.7z M61.6,388.4c0-0.9-0.1-1.6-0.4-2
		c-0.2-0.4-0.7-0.6-1.2-0.6c-0.6,0-1,0.2-1.2,0.6c-0.2,0.4-0.4,1.1-0.4,1.9v1.7c0,0.9,0.1,1.6,0.4,2c0.3,0.4,0.7,0.7,1.2,0.7
		s0.9-0.2,1.2-0.6c0.3-0.4,0.4-1.1,0.4-2V388.4z M69.7,389.9c0,1.3-0.2,2.2-0.7,2.8c-0.4,0.6-1.1,0.9-2,0.9s-1.6-0.3-2-0.9
		c-0.4-0.6-0.7-1.5-0.7-2.7v-1.4c0-1.3,0.2-2.2,0.6-2.8s1.1-0.9,2-0.9s1.6,0.3,2,0.9c0.4,0.6,0.7,1.5,0.7,2.7L69.7,389.9L69.7,389.9
		z M68.6,388.4c0-0.9-0.1-1.6-0.4-2c-0.2-0.4-0.7-0.6-1.2-0.6c-0.6,0-1,0.2-1.2,0.6c-0.2,0.4-0.4,1.1-0.4,1.9v1.7
		c0,0.9,0.1,1.6,0.4,2c0.3,0.4,0.7,0.7,1.2,0.7s0.9-0.2,1.2-0.6c0.3-0.4,0.4-1.1,0.4-2V388.4z"/>
	<path class="st18" d="M34.8,305.9l0.4-4.2h4.4v1h-3.5l-0.3,2.3c0.4-0.2,0.9-0.4,1.4-0.4c0.8,0,1.4,0.3,1.8,0.8
		c0.5,0.5,0.7,1.2,0.7,2.1c0,0.9-0.2,1.6-0.7,2.1s-1.1,0.8-2,0.8c-0.8,0-1.4-0.2-1.8-0.6c-0.5-0.4-0.8-1-0.8-1.8h1
		c0.1,0.5,0.2,0.9,0.5,1.1s0.7,0.4,1.1,0.4c0.5,0,0.9-0.2,1.2-0.5c0.3-0.3,0.4-0.8,0.4-1.4c0-0.6-0.2-1-0.5-1.4
		c-0.3-0.4-0.7-0.5-1.2-0.5s-0.8,0.1-1.1,0.3l-0.3,0.2L34.8,305.9z M46.7,306.6c0,1.3-0.2,2.2-0.7,2.8c-0.4,0.6-1.1,0.9-2,0.9
		s-1.6-0.3-2-0.9s-0.7-1.5-0.7-2.7v-1.4c0-1.3,0.2-2.2,0.6-2.8c0.4-0.6,1.1-0.9,2-0.9s1.6,0.3,2,0.9c0.4,0.6,0.7,1.5,0.7,2.7v1.4
		H46.7z M45.6,305.1c0-0.9-0.1-1.6-0.4-2c-0.2-0.4-0.7-0.6-1.2-0.6c-0.6,0-1,0.2-1.2,0.6c-0.2,0.4-0.4,1.1-0.4,1.9v1.7
		c0,0.9,0.1,1.6,0.4,2c0.3,0.4,0.7,0.7,1.2,0.7s0.9-0.2,1.2-0.6c0.3-0.4,0.4-1.1,0.4-2V305.1z M48.4,311.9l-0.6-0.4
		c0.4-0.5,0.6-1,0.6-1.6v-1h1.1v0.8c0,0.4-0.1,0.8-0.3,1.2S48.7,311.7,48.4,311.9z M55.7,306.6c0,1.3-0.2,2.2-0.7,2.8
		c-0.4,0.6-1.1,0.9-2,0.9s-1.6-0.3-2-0.9s-0.7-1.5-0.7-2.7v-1.4c0-1.3,0.2-2.2,0.6-2.8c0.4-0.6,1.1-0.9,2-0.9s1.6,0.3,2,0.9
		c0.4,0.6,0.7,1.5,0.7,2.7v1.4H55.7z M54.6,305.1c0-0.9-0.1-1.6-0.4-2c-0.2-0.4-0.7-0.6-1.2-0.6c-0.6,0-1,0.2-1.2,0.6
		c-0.2,0.4-0.4,1.1-0.4,1.9v1.7c0,0.9,0.1,1.6,0.4,2c0.3,0.4,0.7,0.7,1.2,0.7s0.9-0.2,1.2-0.6c0.3-0.4,0.4-1.1,0.4-2V305.1z
		 M62.7,306.6c0,1.3-0.2,2.2-0.7,2.8c-0.4,0.6-1.1,0.9-2,0.9s-1.6-0.3-2-0.9s-0.7-1.5-0.7-2.7v-1.4c0-1.3,0.2-2.2,0.6-2.8
		c0.4-0.6,1.1-0.9,2-0.9s1.6,0.3,2,0.9c0.4,0.6,0.7,1.5,0.7,2.7v1.4H62.7z M61.6,305.1c0-0.9-0.1-1.6-0.4-2
		c-0.2-0.4-0.7-0.6-1.2-0.6c-0.6,0-1,0.2-1.2,0.6c-0.2,0.4-0.4,1.1-0.4,1.9v1.7c0,0.9,0.1,1.6,0.4,2c0.3,0.4,0.7,0.7,1.2,0.7
		s0.9-0.2,1.2-0.6c0.3-0.4,0.4-1.1,0.4-2V305.1z M69.7,306.6c0,1.3-0.2,2.2-0.7,2.8c-0.4,0.6-1.1,0.9-2,0.9s-1.6-0.3-2-0.9
		s-0.7-1.5-0.7-2.7v-1.4c0-1.3,0.2-2.2,0.6-2.8s1.1-0.9,2-0.9s1.6,0.3,2,0.9c0.4,0.6,0.7,1.5,0.7,2.7L69.7,306.6L69.7,306.6z
		 M68.6,305.1c0-0.9-0.1-1.6-0.4-2c-0.2-0.4-0.7-0.6-1.2-0.6c-0.6,0-1,0.2-1.2,0.6c-0.2,0.4-0.4,1.1-0.4,1.9v1.7
		c0,0.9,0.1,1.6,0.4,2c0.3,0.4,0.7,0.7,1.2,0.7s0.9-0.2,1.2-0.6c0.3-0.4,0.4-1.1,0.4-2V305.1z"/>
	<path class="st18" d="M39.8,218.9l-3.5,7.9h-1.2l3.5-7.6h-4.5v-0.9h5.8L39.8,218.9L39.8,218.9z M41.8,222.6l0.4-4.2h4.4v1h-3.5
		l-0.3,2.3c0.4-0.2,0.9-0.4,1.4-0.4c0.8,0,1.4,0.3,1.8,0.8c0.5,0.5,0.7,1.2,0.7,2.1s-0.2,1.6-0.7,2.1s-1.1,0.8-2,0.8
		c-0.8,0-1.4-0.2-1.8-0.6c-0.5-0.4-0.8-1-0.8-1.8h1c0.1,0.5,0.2,0.9,0.5,1.1s0.7,0.4,1.1,0.4c0.5,0,0.9-0.2,1.2-0.5s0.4-0.8,0.4-1.4
		c0-0.6-0.2-1-0.5-1.4s-0.7-0.5-1.2-0.5s-0.8,0.1-1.1,0.3l-0.3,0.2L41.8,222.6z M48.4,228.6l-0.6-0.4c0.4-0.5,0.6-1,0.6-1.6v-1h1.1
		v0.8c0,0.4-0.1,0.8-0.3,1.2C48.9,228,48.7,228.3,48.4,228.6z M55.7,223.2c0,1.3-0.2,2.2-0.7,2.8c-0.4,0.6-1.1,0.9-2,0.9
		s-1.6-0.3-2-0.9c-0.4-0.6-0.7-1.5-0.7-2.7v-1.4c0-1.3,0.2-2.2,0.6-2.8c0.4-0.6,1.1-0.9,2-0.9s1.6,0.3,2,0.9
		c0.4,0.6,0.7,1.5,0.7,2.7v1.4H55.7z M54.6,221.7c0-0.9-0.1-1.6-0.4-2c-0.2-0.4-0.7-0.6-1.2-0.6c-0.6,0-1,0.2-1.2,0.6
		c-0.2,0.4-0.4,1.1-0.4,1.9v1.7c0,0.9,0.1,1.6,0.4,2c0.3,0.4,0.7,0.7,1.2,0.7s0.9-0.2,1.2-0.6c0.3-0.4,0.4-1.1,0.4-2V221.7z
		 M62.7,223.2c0,1.3-0.2,2.2-0.7,2.8c-0.4,0.6-1.1,0.9-2,0.9s-1.6-0.3-2-0.9c-0.4-0.6-0.7-1.5-0.7-2.7v-1.4c0-1.3,0.2-2.2,0.6-2.8
		c0.4-0.6,1.1-0.9,2-0.9s1.6,0.3,2,0.9c0.4,0.6,0.7,1.5,0.7,2.7v1.4H62.7z M61.6,221.7c0-0.9-0.1-1.6-0.4-2
		c-0.2-0.4-0.7-0.6-1.2-0.6c-0.6,0-1,0.2-1.2,0.6c-0.2,0.4-0.4,1.1-0.4,1.9v1.7c0,0.9,0.1,1.6,0.4,2c0.3,0.4,0.7,0.7,1.2,0.7
		s0.9-0.2,1.2-0.6c0.3-0.4,0.4-1.1,0.4-2V221.7z M69.7,223.2c0,1.3-0.2,2.2-0.7,2.8c-0.4,0.6-1.1,0.9-2,0.9s-1.6-0.3-2-0.9
		c-0.4-0.6-0.7-1.5-0.7-2.7v-1.4c0-1.3,0.2-2.2,0.6-2.8s1.1-0.9,2-0.9s1.6,0.3,2,0.9c0.4,0.6,0.7,1.5,0.7,2.7L69.7,223.2L69.7,223.2
		z M68.6,221.7c0-0.9-0.1-1.6-0.4-2c-0.2-0.4-0.7-0.6-1.2-0.6c-0.6,0-1,0.2-1.2,0.6c-0.2,0.4-0.4,1.1-0.4,1.9v1.7
		c0,0.9,0.1,1.6,0.4,2c0.3,0.4,0.7,0.7,1.2,0.7s0.9-0.2,1.2-0.6c0.3-0.4,0.4-1.1,0.4-2V221.7z"/>
	<path class="st18" d="M30.9,143.5h-1.1v-7.2l-2.2,0.8v-1l3.1-1.2h0.2V143.5z M39.7,139.9c0,1.3-0.2,2.2-0.7,2.8
		c-0.4,0.6-1.1,0.9-2,0.9s-1.6-0.3-2-0.9s-0.7-1.5-0.7-2.7v-1.4c0-1.3,0.2-2.2,0.6-2.8c0.4-0.6,1.1-0.9,2-0.9s1.6,0.3,2,0.9
		c0.4,0.6,0.7,1.5,0.7,2.7v1.4H39.7z M38.6,138.4c0-0.9-0.1-1.6-0.4-2c-0.2-0.4-0.7-0.6-1.2-0.6c-0.6,0-1,0.2-1.2,0.6
		c-0.2,0.4-0.4,1.1-0.4,1.9v1.7c0,0.9,0.1,1.6,0.4,2c0.3,0.4,0.7,0.7,1.2,0.7s0.9-0.2,1.2-0.6c0.3-0.4,0.4-1.1,0.4-2V138.4z
		 M46.7,139.9c0,1.3-0.2,2.2-0.7,2.8c-0.4,0.6-1.1,0.9-2,0.9s-1.6-0.3-2-0.9s-0.7-1.5-0.7-2.7v-1.4c0-1.3,0.2-2.2,0.6-2.8
		c0.4-0.6,1.1-0.9,2-0.9s1.6,0.3,2,0.9c0.4,0.6,0.7,1.5,0.7,2.7v1.4H46.7z M45.6,138.4c0-0.9-0.1-1.6-0.4-2
		c-0.2-0.4-0.7-0.6-1.2-0.6c-0.6,0-1,0.2-1.2,0.6c-0.2,0.4-0.4,1.1-0.4,1.9v1.7c0,0.9,0.1,1.6,0.4,2c0.3,0.4,0.7,0.7,1.2,0.7
		s0.9-0.2,1.2-0.6c0.3-0.4,0.4-1.1,0.4-2V138.4z M48.4,145.2l-0.6-0.4c0.4-0.5,0.6-1,0.6-1.6v-1h1.1v0.8c0,0.4-0.1,0.8-0.3,1.2
		C48.9,144.7,48.7,145,48.4,145.2z M55.7,139.9c0,1.3-0.2,2.2-0.7,2.8c-0.4,0.6-1.1,0.9-2,0.9s-1.6-0.3-2-0.9s-0.7-1.5-0.7-2.7v-1.4
		c0-1.3,0.2-2.2,0.6-2.8c0.4-0.6,1.1-0.9,2-0.9s1.6,0.3,2,0.9c0.4,0.6,0.7,1.5,0.7,2.7v1.4H55.7z M54.6,138.4c0-0.9-0.1-1.6-0.4-2
		c-0.2-0.4-0.7-0.6-1.2-0.6c-0.6,0-1,0.2-1.2,0.6c-0.2,0.4-0.4,1.1-0.4,1.9v1.7c0,0.9,0.1,1.6,0.4,2c0.3,0.4,0.7,0.7,1.2,0.7
		s0.9-0.2,1.2-0.6c0.3-0.4,0.4-1.1,0.4-2V138.4z M62.7,139.9c0,1.3-0.2,2.2-0.7,2.8c-0.4,0.6-1.1,0.9-2,0.9s-1.6-0.3-2-0.9
		s-0.7-1.5-0.7-2.7v-1.4c0-1.3,0.2-2.2,0.6-2.8c0.4-0.6,1.1-0.9,2-0.9s1.6,0.3,2,0.9c0.4,0.6,0.7,1.5,0.7,2.7v1.4H62.7z M61.6,138.4
		c0-0.9-0.1-1.6-0.4-2c-0.2-0.4-0.7-0.6-1.2-0.6c-0.6,0-1,0.2-1.2,0.6c-0.2,0.4-0.4,1.1-0.4,1.9v1.7c0,0.9,0.1,1.6,0.4,2
		c0.3,0.4,0.7,0.7,1.2,0.7s0.9-0.2,1.2-0.6c0.3-0.4,0.4-1.1,0.4-2V138.4z M69.7,139.9c0,1.3-0.2,2.2-0.7,2.8c-0.4,0.6-1.1,0.9-2,0.9
		s-1.6-0.3-2-0.9s-0.7-1.5-0.7-2.7v-1.4c0-1.3,0.2-2.2,0.6-2.8c0.4-0.6,1.1-0.9,2-0.9s1.6,0.3,2,0.9c0.4,0.6,0.7,1.5,0.7,2.7
		L69.7,139.9L69.7,139.9z M68.6,138.4c0-0.9-0.1-1.6-0.4-2c-0.2-0.4-0.7-0.6-1.2-0.6c-0.6,0-1,0.2-1.2,0.6c-0.2,0.4-0.4,1.1-0.4,1.9
		v1.7c0,0.9,0.1,1.6,0.4,2c0.3,0.4,0.7,0.7,1.2,0.7s0.9-0.2,1.2-0.6c0.3-0.4,0.4-1.1,0.4-2V138.4z"/>
	<path class="st1" d="M64.6,528.7c0-0.6,0.4-1,1-1h10c0.6,0,1,0.4,1,1v10c0,0.6-0.4,1-1,1h-10c-0.6,0-1-0.4-1-1V528.7z"/>
	<path class="st18" d="M88.2,533.9l2.2-4.3h1.3l-2.9,5.3v3.2h-1.1v-3.2l-2.9-5.3h1.3L88.2,533.9z M96.3,537.6
		c-0.4,0.5-1,0.8-1.9,0.8c-0.7,0-1.2-0.2-1.5-0.6c-0.3-0.4-0.5-1-0.5-1.8v-4.1h1.1v4.1c0,1,0.4,1.5,1.2,1.5c0.8,0,1.4-0.3,1.7-0.9
		V532h1.1v6.3h-1L96.3,537.6z M99.2,535c0-1,0.2-1.8,0.7-2.4c0.5-0.6,1.1-0.9,1.8-0.9c0.8,0,1.4,0.3,1.8,0.8v-0.7h1v6.2
		c0,0.8-0.2,1.5-0.7,1.9c-0.5,0.5-1.1,0.7-2,0.7c-0.5,0-0.9-0.1-1.3-0.3c-0.4-0.2-0.8-0.5-1-0.8l0.6-0.7c0.5,0.6,1,0.9,1.7,0.9
		c0.5,0,0.9-0.2,1.2-0.5c0.3-0.3,0.5-0.7,0.5-1.2v-0.5c-0.4,0.5-1,0.8-1.8,0.8c-0.7,0-1.3-0.3-1.8-0.9C99.4,536.8,99.2,536,99.2,535
		z M100.3,535.1c0,0.7,0.1,1.3,0.4,1.7s0.7,0.6,1.2,0.6c0.7,0,1.2-0.3,1.5-0.9v-2.9c-0.3-0.6-0.8-0.9-1.5-0.9
		c-0.5,0-0.9,0.2-1.2,0.6C100.4,533.7,100.3,534.3,100.3,535.1z M110.3,538.2c-0.1-0.1-0.1-0.3-0.2-0.7c-0.5,0.5-1.1,0.8-1.8,0.8
		c-0.6,0-1.1-0.2-1.5-0.5c-0.4-0.4-0.6-0.8-0.6-1.4c0-0.7,0.2-1.2,0.8-1.5s1.2-0.5,2.1-0.5h1v-0.5c0-0.4-0.1-0.7-0.3-0.9
		c-0.2-0.2-0.6-0.3-1-0.3s-0.7,0.1-1,0.3s-0.4,0.4-0.4,0.7h-1.1c0-0.3,0.1-0.6,0.3-0.9c0.2-0.3,0.5-0.5,0.9-0.7s0.8-0.3,1.3-0.3
		c0.7,0,1.3,0.2,1.7,0.5c0.4,0.4,0.6,0.9,0.7,1.5v2.9c0,0.6,0.1,1,0.2,1.4v0.1H110.3z M108.5,537.4c0.3,0,0.7-0.1,1-0.3
		c0.3-0.2,0.5-0.4,0.7-0.7v-1.3h-0.8c-1.3,0-2,0.4-2,1.2c0,0.3,0.1,0.6,0.3,0.8C107.9,537.3,108.2,537.4,108.5,537.4z M113.6,538.2
		v-8.5h2.8c0.9,0,1.6,0.2,2.1,0.6c0.5,0.4,0.7,0.9,0.7,1.7c0,0.4-0.1,0.8-0.3,1.1c-0.2,0.3-0.5,0.5-0.9,0.7c0.5,0.1,0.8,0.4,1.1,0.7
		c0.3,0.4,0.4,0.8,0.4,1.3c0,0.8-0.2,1.4-0.8,1.8c-0.5,0.4-1.2,0.7-2.1,0.7h-3V538.2z M114.7,534.2v3.1h1.9c0.5,0,0.9-0.1,1.2-0.4
		s0.5-0.6,0.5-1.1c0-1-0.6-1.5-1.7-1.5L114.7,534.2L114.7,534.2z M114.7,533.3h1.7c0.5,0,0.9-0.1,1.2-0.4c0.3-0.2,0.5-0.6,0.5-1
		c0-0.5-0.1-0.8-0.4-1s-0.7-0.3-1.2-0.3h-1.7L114.7,533.3L114.7,533.3z M122.5,536.6l1.5-4.8h1.2l-2.5,7.3c-0.4,1.1-1,1.6-1.9,1.6
		h-0.2h-0.5v-0.9h0.3c0.4,0,0.7-0.1,0.9-0.2c0.2-0.1,0.4-0.4,0.5-0.8l0.2-0.7l-2.3-6.3h1.2L122.5,536.6z M127.9,530.3v1.5h1.2v0.8
		h-1.2v3.9c0,0.3,0.1,0.5,0.2,0.6c0.1,0.1,0.3,0.2,0.5,0.2c0.1,0,0.3,0,0.5-0.1v0.9c-0.3,0.1-0.6,0.1-0.8,0.1
		c-0.5,0-0.8-0.1-1.1-0.4c-0.2-0.3-0.4-0.7-0.4-1.3v-3.8h-1.2v-0.8h1.2v-1.5h1.1V530.3z M133.1,538.3c-0.9,0-1.6-0.3-2.1-0.8
		c-0.5-0.6-0.8-1.3-0.8-2.3V535c0-0.6,0.1-1.2,0.4-1.7c0.2-0.5,0.6-0.9,1-1.2c0.4-0.3,0.9-0.4,1.4-0.4c0.8,0,1.5,0.3,1.9,0.8
		s0.7,1.3,0.7,2.3v0.5h-4.3c0,0.6,0.2,1.1,0.5,1.5c0.4,0.4,0.8,0.6,1.3,0.6c0.4,0,0.7-0.1,1-0.2c0.3-0.2,0.5-0.4,0.7-0.6l0.7,0.5
		C134.9,537.9,134.1,538.3,133.1,538.3z M132.9,532.6c-0.4,0-0.8,0.2-1.1,0.5s-0.5,0.8-0.5,1.3h3.2v-0.1c0-0.6-0.2-1-0.5-1.3
		C133.7,532.8,133.4,532.6,132.9,532.6z M139.6,538.2v-8.5h2.4c0.7,0,1.4,0.2,2,0.5s1,0.8,1.3,1.4c0.3,0.6,0.5,1.3,0.5,2.1v0.5
		c0,0.8-0.2,1.5-0.5,2.1c-0.3,0.6-0.7,1.1-1.3,1.4s-1.2,0.5-2,0.5H139.6z M140.7,530.6v6.7h1.2c0.9,0,1.5-0.3,2-0.8s0.7-1.3,0.7-2.3
		v-0.5c0-1-0.2-1.7-0.7-2.2c-0.4-0.5-1.1-0.8-1.9-0.8h-1.3V530.6z M147.6,538.2v-8.5h2.8c0.9,0,1.6,0.2,2.1,0.6
		c0.5,0.4,0.7,0.9,0.7,1.7c0,0.4-0.1,0.8-0.3,1.1c-0.2,0.3-0.5,0.5-0.9,0.7c0.5,0.1,0.8,0.4,1.1,0.7c0.3,0.4,0.4,0.8,0.4,1.3
		c0,0.8-0.2,1.4-0.8,1.8c-0.5,0.4-1.2,0.7-2.1,0.7h-3V538.2z M148.7,534.2v3.1h1.9c0.5,0,0.9-0.1,1.2-0.4s0.5-0.6,0.5-1.1
		c0-1-0.6-1.5-1.7-1.5L148.7,534.2L148.7,534.2z M148.7,533.3h1.7c0.5,0,0.9-0.1,1.2-0.4c0.3-0.2,0.5-0.6,0.5-1c0-0.5-0.1-0.8-0.4-1
		c-0.3-0.2-0.7-0.3-1.2-0.3h-1.7v2.7H148.7z M157.4,534.7c0-0.9,0.1-1.7,0.3-2.5s0.6-1.6,1.1-2.2c0.5-0.6,1-1.1,1.5-1.4l0.2,0.7
		c-0.6,0.4-1,1.1-1.4,2c-0.4,0.9-0.6,1.9-0.6,3v0.5c0,1.5,0.3,2.8,0.8,3.9c0.3,0.7,0.7,1.2,1.2,1.6l-0.2,0.7c-0.5-0.3-1-0.8-1.5-1.5
		C157.8,538.2,157.4,536.6,157.4,534.7z M164.9,538.2h-1.1V531l-2.2,0.8v-1l3.1-1.2h0.2V538.2z M168.4,537.6c0-0.2,0.1-0.3,0.2-0.5
		c0.1-0.1,0.3-0.2,0.5-0.2s0.4,0.1,0.5,0.2c0.1,0.1,0.2,0.3,0.2,0.5s-0.1,0.3-0.2,0.5c-0.1,0.1-0.3,0.2-0.5,0.2s-0.4-0.1-0.5-0.2
		C168.5,538,168.4,537.8,168.4,537.6z M175.9,535.3h1.2v0.9h-1.2v2h-1.1v-2h-3.9v-0.6l3.8-5.9h1.2V535.3z M172.1,535.3h2.7v-4.2
		l-0.1,0.2L172.1,535.3z M178.8,533.9l0.4-4.2h4.4v1h-3.5l-0.3,2.3c0.4-0.2,0.9-0.4,1.4-0.4c0.8,0,1.4,0.3,1.8,0.8
		c0.5,0.5,0.7,1.2,0.7,2.1c0,0.9-0.2,1.6-0.7,2.1s-1.1,0.8-2,0.8c-0.8,0-1.4-0.2-1.8-0.6c-0.5-0.4-0.8-1-0.8-1.8h1
		c0.1,0.5,0.2,0.9,0.5,1.1s0.7,0.4,1.1,0.4c0.5,0,0.9-0.2,1.2-0.5s0.4-0.8,0.4-1.4c0-0.6-0.2-1-0.5-1.4c-0.3-0.4-0.7-0.5-1.2-0.5
		s-0.8,0.1-1.1,0.3l-0.3,0.2L178.8,533.9z M186.4,531.9v0.7c0.5-0.5,1.1-0.8,1.9-0.8c0.9,0,1.5,0.3,1.8,1c0.2-0.3,0.5-0.5,0.8-0.7
		s0.7-0.3,1.2-0.3c1.4,0,2.1,0.7,2.1,2.2v4.2h-1.1V534c0-0.4-0.1-0.8-0.3-1s-0.6-0.3-1-0.3s-0.7,0.1-1,0.4c-0.3,0.2-0.4,0.6-0.5,1
		v4.2h-1.1v-4.2c0-0.9-0.5-1.4-1.4-1.4c-0.7,0-1.2,0.3-1.5,0.9v4.6h-1.1v-6.3L186.4,531.9L186.4,531.9z M200.1,536.5
		c0-0.3-0.1-0.5-0.3-0.7s-0.6-0.3-1.2-0.4c-0.5-0.1-1-0.3-1.3-0.4c-0.3-0.1-0.6-0.4-0.7-0.6c-0.1-0.2-0.2-0.5-0.2-0.8
		c0-0.5,0.2-1,0.7-1.3c0.4-0.4,1-0.5,1.7-0.5s1.3,0.2,1.7,0.6c0.4,0.4,0.7,0.8,0.7,1.4h-1.1c0-0.3-0.1-0.5-0.4-0.8
		c-0.2-0.2-0.6-0.3-0.9-0.3c-0.4,0-0.7,0.1-0.9,0.3c-0.2,0.2-0.3,0.4-0.3,0.7s0.1,0.5,0.3,0.6c0.2,0.1,0.6,0.3,1.1,0.4
		c0.5,0.1,1,0.3,1.3,0.4c0.3,0.1,0.6,0.4,0.7,0.6c0.2,0.2,0.2,0.5,0.2,0.9c0,0.6-0.2,1-0.7,1.4c-0.4,0.3-1,0.5-1.8,0.5
		c-0.5,0-1-0.1-1.4-0.3s-0.7-0.4-0.9-0.8c-0.2-0.4-0.3-0.7-0.3-1h1.1c0,0.4,0.2,0.7,0.4,0.9c0.3,0.2,0.6,0.3,1.1,0.3
		c0.4,0,0.7-0.1,1-0.2C200,537.3,200.1,536.8,200.1,536.5z M206.6,538.2h-1.1v-9h1.1V538.2z M212.3,538.2c-0.1-0.1-0.1-0.3-0.2-0.7
		c-0.5,0.5-1.1,0.8-1.8,0.8c-0.6,0-1.1-0.2-1.5-0.5c-0.4-0.4-0.6-0.8-0.6-1.4c0-0.7,0.2-1.2,0.8-1.5s1.2-0.5,2.1-0.5h1v-0.5
		c0-0.4-0.1-0.7-0.3-0.9c-0.2-0.2-0.6-0.3-1-0.3s-0.7,0.1-1,0.3s-0.4,0.4-0.4,0.7h-1.1c0-0.3,0.1-0.6,0.3-0.9s0.5-0.5,0.9-0.7
		s0.8-0.3,1.3-0.3c0.7,0,1.3,0.2,1.7,0.5c0.4,0.4,0.6,0.9,0.7,1.5v2.9c0,0.6,0.1,1,0.2,1.4v0.1H212.3z M210.5,537.4
		c0.3,0,0.7-0.1,1-0.3c0.3-0.2,0.5-0.4,0.7-0.7v-1.3h-0.8c-1.3,0-2,0.4-2,1.2c0,0.3,0.1,0.6,0.3,0.8
		C209.9,537.3,210.2,537.4,210.5,537.4z M216.9,530.3v1.5h1.2v0.8h-1.2v3.9c0,0.3,0.1,0.5,0.2,0.6c0.1,0.1,0.3,0.2,0.5,0.2
		c0.1,0,0.3,0,0.5-0.1v0.9c-0.3,0.1-0.6,0.1-0.8,0.1c-0.5,0-0.8-0.1-1.1-0.4c-0.2-0.3-0.4-0.7-0.4-1.3v-3.8h-1.2v-0.8h1.2v-1.5h1.1
		V530.3z M222.1,538.3c-0.9,0-1.6-0.3-2.1-0.8c-0.5-0.6-0.8-1.3-0.8-2.3V535c0-0.6,0.1-1.2,0.4-1.7c0.2-0.5,0.6-0.9,1-1.2
		c0.4-0.3,0.9-0.4,1.4-0.4c0.8,0,1.5,0.3,1.9,0.8s0.7,1.3,0.7,2.3v0.5h-4.3c0,0.6,0.2,1.1,0.5,1.5c0.4,0.4,0.8,0.6,1.3,0.6
		c0.4,0,0.7-0.1,1-0.2c0.3-0.2,0.5-0.4,0.7-0.6l0.7,0.5C223.9,537.9,223.1,538.3,222.1,538.3z M221.9,532.6c-0.4,0-0.8,0.2-1.1,0.5
		s-0.5,0.8-0.5,1.3h3.2v-0.1c0-0.6-0.2-1-0.5-1.3C222.7,532.8,222.4,532.6,221.9,532.6z M226.4,531.9v0.8c0.5-0.6,1.1-0.9,1.9-0.9
		c1.3,0,2,0.8,2,2.3v4.2h-1.1v-4.2c0-0.4-0.1-0.8-0.3-1s-0.5-0.3-1-0.3c-0.4,0-0.7,0.1-0.9,0.3c-0.3,0.2-0.5,0.4-0.6,0.7v4.5h-1.1
		V532L226.4,531.9L226.4,531.9z M235,537.4c0.4,0,0.7-0.1,1-0.3c0.3-0.2,0.5-0.5,0.5-0.9h1c0,0.4-0.2,0.7-0.4,1s-0.5,0.6-0.9,0.8
		c-0.4,0.2-0.8,0.3-1.2,0.3c-0.9,0-1.6-0.3-2.1-0.9c-0.5-0.6-0.8-1.4-0.8-2.4v-0.2c0-0.6,0.1-1.2,0.3-1.6c0.2-0.5,0.6-0.8,1-1.1
		c0.4-0.3,0.9-0.4,1.5-0.4c0.7,0,1.3,0.2,1.8,0.6c0.5,0.4,0.7,1,0.8,1.7h-1c0-0.4-0.2-0.8-0.5-1s-0.6-0.4-1-0.4
		c-0.6,0-1,0.2-1.3,0.6c-0.3,0.4-0.5,1-0.5,1.7v0.2c0,0.7,0.2,1.3,0.5,1.7S234.4,537.4,235,537.4z M240.5,536.6l1.5-4.8h1.2
		l-2.5,7.3c-0.4,1.1-1,1.6-1.9,1.6h-0.2h-0.5v-0.9h0.3c0.4,0,0.7-0.1,0.9-0.2c0.2-0.1,0.4-0.4,0.5-0.8l0.2-0.7l-2.3-6.3h1.2
		L240.5,536.6z M246.9,534.8c0,0.9-0.1,1.7-0.3,2.5s-0.6,1.5-1.1,2.2s-1,1.2-1.5,1.4l-0.2-0.7c0.6-0.5,1.1-1.2,1.5-2.1
		c0.4-1,0.6-2.1,0.6-3.2v-0.2c0-0.8-0.1-1.6-0.3-2.3c-0.2-0.7-0.4-1.3-0.7-1.9c-0.3-0.6-0.6-1-1-1.3l0.2-0.7c0.5,0.3,1,0.8,1.5,1.4
		c0.5,0.6,0.8,1.4,1,2.2C246.8,533,246.9,533.9,246.9,534.8z"/>
	<path class="st19" d="M263.6,528.7c0-0.6,0.4-1,1-1h10c0.6,0,1,0.4,1,1v10c0,0.6-0.4,1-1,1h-10c-0.6,0-1-0.4-1-1V528.7z"/>
	<path class="st18" d="M290.9,535.5c-0.1,0.9-0.4,1.6-1,2.1s-1.3,0.7-2.2,0.7c-1,0-1.8-0.4-2.4-1.1s-0.9-1.7-0.9-2.9v-0.8
		c0-0.8,0.1-1.5,0.4-2.1c0.3-0.6,0.7-1.1,1.2-1.4s1.1-0.5,1.8-0.5c0.9,0,1.6,0.3,2.2,0.8s0.9,1.2,1,2.1h-1.1
		c-0.1-0.7-0.3-1.2-0.6-1.5s-0.8-0.5-1.4-0.5c-0.7,0-1.3,0.3-1.7,0.8s-0.6,1.3-0.6,2.3v0.8c0,0.9,0.2,1.7,0.6,2.2s0.9,0.8,1.6,0.8
		c0.6,0,1.1-0.1,1.4-0.4s0.6-0.8,0.7-1.5h1V535.5z M292.1,535c0-0.6,0.1-1.2,0.4-1.7c0.2-0.5,0.6-0.9,1-1.1c0.4-0.3,0.9-0.4,1.5-0.4
		c0.9,0,1.6,0.3,2.1,0.9c0.5,0.6,0.8,1.4,0.8,2.4v0.1c0,0.6-0.1,1.2-0.4,1.7s-0.6,0.9-1,1.2s-0.9,0.4-1.5,0.4
		c-0.9,0-1.6-0.3-2.1-0.9C292.4,536.8,292.1,536,292.1,535L292.1,535z M293.2,535.1c0,0.7,0.2,1.3,0.5,1.7s0.8,0.6,1.3,0.6
		c0.6,0,1-0.2,1.3-0.6c0.3-0.4,0.5-1,0.5-1.8c0-0.7-0.2-1.2-0.5-1.7c-0.3-0.4-0.8-0.7-1.3-0.7s-1,0.2-1.3,0.6
		C293.4,533.7,293.2,534.3,293.2,535.1z M302,537.4c0.4,0,0.7-0.1,1-0.3c0.3-0.2,0.5-0.5,0.5-0.9h1c0,0.4-0.2,0.7-0.4,1
		c-0.2,0.3-0.5,0.6-0.9,0.8c-0.4,0.2-0.8,0.3-1.2,0.3c-0.9,0-1.6-0.3-2.1-0.9c-0.5-0.6-0.8-1.4-0.8-2.4v-0.2c0-0.6,0.1-1.2,0.3-1.6
		c0.2-0.5,0.6-0.8,1-1.1c0.4-0.3,0.9-0.4,1.5-0.4c0.7,0,1.3,0.2,1.8,0.6c0.5,0.4,0.7,1,0.8,1.7h-1c0-0.4-0.2-0.8-0.5-1
		s-0.6-0.4-1-0.4c-0.6,0-1,0.2-1.3,0.6c-0.3,0.4-0.5,1-0.5,1.7v0.2c0,0.7,0.2,1.3,0.5,1.7S301.4,537.4,302,537.4z M307.2,535.3
		l-0.7,0.7v2.2h-1.1v-9h1.1v5.4l0.6-0.7l2-2.1h1.3l-2.5,2.7l2.8,3.7h-1.3L307.2,535.3z M314.5,532.8c-0.2,0-0.3,0-0.5,0
		c-0.7,0-1.2,0.3-1.5,0.9v4.5h-1.1v-6.3h1v0.7c0.4-0.6,0.9-0.8,1.5-0.8c0.2,0,0.4,0,0.5,0.1v0.9H314.5z M315.1,535
		c0-0.6,0.1-1.2,0.4-1.7c0.2-0.5,0.6-0.9,1-1.1c0.4-0.3,0.9-0.4,1.5-0.4c0.9,0,1.6,0.3,2.1,0.9c0.5,0.6,0.8,1.4,0.8,2.4v0.1
		c0,0.6-0.1,1.2-0.4,1.7s-0.6,0.9-1,1.2s-0.9,0.4-1.5,0.4c-0.9,0-1.6-0.3-2.1-0.9C315.4,536.8,315.1,536,315.1,535L315.1,535z
		 M316.2,535.1c0,0.7,0.2,1.3,0.5,1.7s0.8,0.6,1.3,0.6c0.6,0,1-0.2,1.3-0.6c0.3-0.4,0.5-1,0.5-1.8c0-0.7-0.2-1.2-0.5-1.7
		c-0.3-0.4-0.8-0.7-1.3-0.7s-1,0.2-1.3,0.6C316.4,533.7,316.2,534.3,316.2,535.1z M326.3,538.2c-0.1-0.1-0.1-0.3-0.2-0.7
		c-0.5,0.5-1.1,0.8-1.8,0.8c-0.6,0-1.1-0.2-1.5-0.5c-0.4-0.4-0.6-0.8-0.6-1.4c0-0.7,0.2-1.2,0.8-1.5s1.2-0.5,2.1-0.5h1v-0.5
		c0-0.4-0.1-0.7-0.3-0.9c-0.2-0.2-0.6-0.3-1-0.3s-0.7,0.1-1,0.3s-0.4,0.4-0.4,0.7h-1.1c0-0.3,0.1-0.6,0.3-0.9
		c0.2-0.3,0.5-0.5,0.9-0.7s0.8-0.3,1.3-0.3c0.7,0,1.3,0.2,1.7,0.5c0.4,0.4,0.6,0.9,0.7,1.5v2.9c0,0.6,0.1,1,0.2,1.4v0.1H326.3z
		 M324.5,537.4c0.3,0,0.7-0.1,1-0.3c0.3-0.2,0.5-0.4,0.7-0.7v-1.3h-0.8c-1.3,0-2,0.4-2,1.2c0,0.3,0.1,0.6,0.3,0.8
		C323.9,537.3,324.2,537.4,324.5,537.4z M332,537.4c0.4,0,0.7-0.1,1-0.3c0.3-0.2,0.5-0.5,0.5-0.9h1c0,0.4-0.2,0.7-0.4,1
		c-0.2,0.3-0.5,0.6-0.9,0.8c-0.4,0.2-0.8,0.3-1.2,0.3c-0.9,0-1.6-0.3-2.1-0.9c-0.5-0.6-0.8-1.4-0.8-2.4v-0.2c0-0.6,0.1-1.2,0.3-1.6
		c0.2-0.5,0.6-0.8,1-1.1c0.4-0.3,0.9-0.4,1.5-0.4c0.7,0,1.3,0.2,1.8,0.6c0.5,0.4,0.7,1,0.8,1.7h-1c0-0.4-0.2-0.8-0.5-1
		s-0.6-0.4-1-0.4c-0.6,0-1,0.2-1.3,0.6c-0.3,0.4-0.5,1-0.5,1.7v0.2c0,0.7,0.2,1.3,0.5,1.7S331.4,537.4,332,537.4z M336.5,532.6
		c0.5-0.6,1.1-0.9,1.9-0.9c1.3,0,2,0.8,2,2.3v4.2h-1.1V534c0-0.4-0.1-0.8-0.3-1c-0.2-0.2-0.5-0.3-1-0.3c-0.4,0-0.7,0.1-0.9,0.3
		c-0.3,0.2-0.5,0.4-0.6,0.7v4.5h-1.1v-9h1.1V532.6z M342.6,538.2v-8.5h2.4c0.7,0,1.4,0.2,2,0.5s1,0.8,1.3,1.4
		c0.3,0.6,0.5,1.3,0.5,2.1v0.5c0,0.8-0.2,1.5-0.5,2.1c-0.3,0.6-0.7,1.1-1.3,1.4c-0.6,0.3-1.2,0.5-2,0.5H342.6z M343.7,530.6v6.7h1.2
		c0.9,0,1.5-0.3,2-0.8s0.7-1.3,0.7-2.3v-0.5c0-1-0.2-1.7-0.7-2.2c-0.4-0.5-1.1-0.8-1.9-0.8h-1.3V530.6z M350.6,538.2v-8.5h2.8
		c0.9,0,1.6,0.2,2.1,0.6c0.5,0.4,0.7,0.9,0.7,1.7c0,0.4-0.1,0.8-0.3,1.1c-0.2,0.3-0.5,0.5-0.9,0.7c0.5,0.1,0.8,0.4,1.1,0.7
		c0.3,0.4,0.4,0.8,0.4,1.3c0,0.8-0.2,1.4-0.8,1.8c-0.5,0.4-1.2,0.7-2.1,0.7h-3V538.2z M351.7,534.2v3.1h1.9c0.5,0,0.9-0.1,1.2-0.4
		s0.5-0.6,0.5-1.1c0-1-0.6-1.5-1.7-1.5L351.7,534.2L351.7,534.2z M351.7,533.3h1.7c0.5,0,0.9-0.1,1.2-0.4c0.3-0.2,0.5-0.6,0.5-1
		c0-0.5-0.1-0.8-0.4-1s-0.7-0.3-1.2-0.3h-1.7v2.7H351.7z M360.4,534.7c0-0.9,0.1-1.7,0.3-2.5c0.2-0.8,0.6-1.6,1.1-2.2
		c0.5-0.6,1-1.1,1.5-1.4l0.2,0.7c-0.6,0.4-1,1.1-1.4,2c-0.4,0.9-0.6,1.9-0.6,3v0.5c0,1.5,0.3,2.8,0.8,3.9c0.3,0.7,0.7,1.2,1.2,1.6
		l-0.2,0.7c-0.5-0.3-1-0.8-1.5-1.5C360.8,538.2,360.4,536.6,360.4,534.7z M367.9,538.2h-1.1V531l-2.2,0.8v-1l3.1-1.2h0.2V538.2z
		 M375.9,535.3h1.2v0.9h-1.2v2h-1.1v-2h-3.9v-0.6l3.8-5.9h1.2V535.3z M372.1,535.3h2.7v-4.2l-0.1,0.2L372.1,535.3z M378.4,537.6
		c0-0.2,0.1-0.3,0.2-0.5c0.1-0.1,0.3-0.2,0.5-0.2s0.4,0.1,0.5,0.2c0.1,0.1,0.2,0.3,0.2,0.5s-0.1,0.3-0.2,0.5
		c-0.1,0.1-0.3,0.2-0.5,0.2s-0.4-0.1-0.5-0.2C378.5,538,378.4,537.8,378.4,537.6z M385.9,535.3h1.2v0.9h-1.2v2h-1.1v-2h-3.9v-0.6
		l3.8-5.9h1.2V535.3z M382.1,535.3h2.7v-4.2l-0.1,0.2L382.1,535.3z M389.4,531.9v0.7c0.5-0.5,1.1-0.8,1.9-0.8c0.9,0,1.5,0.3,1.8,1
		c0.2-0.3,0.5-0.5,0.8-0.7s0.7-0.3,1.2-0.3c1.4,0,2.1,0.7,2.1,2.2v4.2h-1.1V534c0-0.4-0.1-0.8-0.3-1c-0.2-0.2-0.6-0.3-1-0.3
		s-0.7,0.1-1,0.4c-0.3,0.2-0.4,0.6-0.5,1v4.2h-1.1v-4.2c0-0.9-0.5-1.4-1.4-1.4c-0.7,0-1.2,0.3-1.5,0.9v4.6h-1.1v-6.3L389.4,531.9
		L389.4,531.9z M403.1,536.5c0-0.3-0.1-0.5-0.3-0.7c-0.2-0.2-0.6-0.3-1.2-0.4c-0.5-0.1-1-0.3-1.3-0.4c-0.3-0.1-0.6-0.4-0.7-0.6
		s-0.2-0.5-0.2-0.8c0-0.5,0.2-1,0.7-1.3c0.4-0.4,1-0.5,1.7-0.5s1.3,0.2,1.7,0.6c0.4,0.4,0.7,0.8,0.7,1.4h-1.1c0-0.3-0.1-0.5-0.4-0.8
		c-0.2-0.2-0.6-0.3-0.9-0.3c-0.4,0-0.7,0.1-0.9,0.3c-0.2,0.2-0.3,0.4-0.3,0.7s0.1,0.5,0.3,0.6c0.2,0.1,0.6,0.3,1.1,0.4
		c0.5,0.1,1,0.3,1.3,0.4c0.3,0.1,0.6,0.4,0.7,0.6c0.2,0.2,0.2,0.5,0.2,0.9c0,0.6-0.2,1-0.7,1.4c-0.4,0.3-1,0.5-1.8,0.5
		c-0.5,0-1-0.1-1.4-0.3s-0.7-0.4-0.9-0.8c-0.2-0.4-0.3-0.7-0.3-1h1.1c0,0.4,0.2,0.7,0.4,0.9c0.3,0.2,0.6,0.3,1.1,0.3
		c0.4,0,0.7-0.1,1-0.2C403,537.3,403.1,536.8,403.1,536.5z M409.6,538.2h-1.1v-9h1.1V538.2z M415.3,538.2c-0.1-0.1-0.1-0.3-0.2-0.7
		c-0.5,0.5-1.1,0.8-1.8,0.8c-0.6,0-1.1-0.2-1.5-0.5c-0.4-0.4-0.6-0.8-0.6-1.4c0-0.7,0.2-1.2,0.8-1.5s1.2-0.5,2.1-0.5h1v-0.5
		c0-0.4-0.1-0.7-0.3-0.9c-0.2-0.2-0.6-0.3-1-0.3s-0.7,0.1-1,0.3s-0.4,0.4-0.4,0.7h-1.1c0-0.3,0.1-0.6,0.3-0.9
		c0.2-0.3,0.5-0.5,0.9-0.7s0.8-0.3,1.3-0.3c0.7,0,1.3,0.2,1.7,0.5c0.4,0.4,0.6,0.9,0.7,1.5v2.9c0,0.6,0.1,1,0.2,1.4v0.1H415.3z
		 M413.5,537.4c0.3,0,0.7-0.1,1-0.3c0.3-0.2,0.5-0.4,0.7-0.7v-1.3h-0.8c-1.3,0-2,0.4-2,1.2c0,0.3,0.1,0.6,0.3,0.8
		C412.9,537.3,413.2,537.4,413.5,537.4z M419.9,530.3v1.5h1.2v0.8h-1.2v3.9c0,0.3,0.1,0.5,0.2,0.6c0.1,0.1,0.3,0.2,0.5,0.2
		c0.1,0,0.3,0,0.5-0.1v0.9c-0.3,0.1-0.6,0.1-0.8,0.1c-0.5,0-0.8-0.1-1.1-0.4c-0.2-0.3-0.4-0.7-0.4-1.3v-3.8h-1.2v-0.8h1.2v-1.5h1.1
		V530.3z M425.1,538.3c-0.9,0-1.6-0.3-2.1-0.8c-0.5-0.6-0.8-1.3-0.8-2.3V535c0-0.6,0.1-1.2,0.4-1.7c0.2-0.5,0.6-0.9,1-1.2
		c0.4-0.3,0.9-0.4,1.4-0.4c0.8,0,1.5,0.3,1.9,0.8s0.7,1.3,0.7,2.3v0.5h-4.3c0,0.6,0.2,1.1,0.5,1.5c0.4,0.4,0.8,0.6,1.3,0.6
		c0.4,0,0.7-0.1,1-0.2c0.3-0.2,0.5-0.4,0.7-0.6l0.7,0.5C426.9,537.9,426.1,538.3,425.1,538.3z M424.9,532.6c-0.4,0-0.8,0.2-1.1,0.5
		c-0.3,0.3-0.5,0.8-0.5,1.3h3.2v-0.1c0-0.6-0.2-1-0.5-1.3C425.7,532.8,425.4,532.6,424.9,532.6z M429.4,531.9v0.8
		c0.5-0.6,1.1-0.9,1.9-0.9c1.3,0,2,0.8,2,2.3v4.2h-1.1v-4.2c0-0.4-0.1-0.8-0.3-1c-0.2-0.2-0.5-0.3-1-0.3c-0.4,0-0.7,0.1-0.9,0.3
		c-0.3,0.2-0.5,0.4-0.6,0.7v4.5h-1.1V532L429.4,531.9L429.4,531.9z M438,537.4c0.4,0,0.7-0.1,1-0.3c0.3-0.2,0.5-0.5,0.5-0.9h1
		c0,0.4-0.2,0.7-0.4,1c-0.2,0.3-0.5,0.6-0.9,0.8c-0.4,0.2-0.8,0.3-1.2,0.3c-0.9,0-1.6-0.3-2.1-0.9c-0.5-0.6-0.8-1.4-0.8-2.4v-0.2
		c0-0.6,0.1-1.2,0.3-1.6c0.2-0.5,0.6-0.8,1-1.1c0.4-0.3,0.9-0.4,1.5-0.4c0.7,0,1.3,0.2,1.8,0.6c0.5,0.4,0.7,1,0.8,1.7h-1
		c0-0.4-0.2-0.8-0.5-1s-0.6-0.4-1-0.4c-0.6,0-1,0.2-1.3,0.6c-0.3,0.4-0.5,1-0.5,1.7v0.2c0,0.7,0.2,1.3,0.5,1.7
		S437.4,537.4,438,537.4z M443.5,536.6l1.5-4.8h1.2l-2.5,7.3c-0.4,1.1-1,1.6-1.9,1.6h-0.2h-0.5v-0.9h0.3c0.4,0,0.7-0.1,0.9-0.2
		c0.2-0.1,0.4-0.4,0.5-0.8l0.2-0.7l-2.3-6.3h1.2L443.5,536.6z M449.9,534.8c0,0.9-0.1,1.7-0.3,2.5c-0.2,0.8-0.6,1.5-1.1,2.2
		s-1,1.2-1.5,1.4l-0.2-0.7c0.6-0.5,1.1-1.2,1.5-2.1c0.4-1,0.6-2.1,0.6-3.2v-0.2c0-0.8-0.1-1.6-0.3-2.3c-0.2-0.7-0.4-1.3-0.7-1.9
		c-0.3-0.6-0.6-1-1-1.3l0.2-0.7c0.5,0.3,1,0.8,1.5,1.4c0.5,0.6,0.8,1.4,1,2.2C449.8,533,449.9,533.9,449.9,534.8z"/>
	<path class="st19" d="M117.2,108.7h-2v3.5h-1.1v-8.5h2.8c1,0,1.7,0.2,2.2,0.7c0.5,0.4,0.8,1.1,0.8,1.9c0,0.5-0.1,1-0.4,1.4
		s-0.7,0.7-1.2,0.9l2,3.6v0.1h-1.2L117.2,108.7z M115.2,107.8h1.7c0.6,0,1-0.1,1.3-0.4c0.3-0.3,0.5-0.7,0.5-1.2s-0.2-0.9-0.5-1.2
		c-0.3-0.3-0.8-0.4-1.4-0.4h-1.7L115.2,107.8L115.2,107.8z M123.6,112.3c-0.9,0-1.6-0.3-2.1-0.8c-0.5-0.6-0.8-1.3-0.8-2.3V109
		c0-0.6,0.1-1.2,0.4-1.7c0.2-0.5,0.6-0.9,1-1.2c0.4-0.3,0.9-0.4,1.4-0.4c0.8,0,1.5,0.3,1.9,0.8s0.7,1.3,0.7,2.3v0.5h-4.3
		c0,0.6,0.2,1.1,0.5,1.5c0.4,0.4,0.8,0.6,1.3,0.6c0.4,0,0.7-0.1,1-0.2c0.3-0.2,0.5-0.4,0.7-0.6l0.7,0.5
		C125.4,111.9,124.6,112.3,123.6,112.3z M123.4,106.6c-0.4,0-0.8,0.2-1.1,0.5c-0.3,0.3-0.5,0.8-0.5,1.3h3.2v-0.1
		c0-0.6-0.2-1-0.5-1.3C124.2,106.8,123.9,106.6,123.4,106.6z M130.8,112.2c-0.1-0.1-0.1-0.3-0.2-0.7c-0.5,0.5-1.1,0.8-1.8,0.8
		c-0.6,0-1.1-0.2-1.5-0.5c-0.4-0.4-0.6-0.8-0.6-1.4c0-0.7,0.2-1.2,0.8-1.5s1.2-0.5,2.1-0.5h1v-0.5c0-0.4-0.1-0.7-0.3-0.9
		c-0.2-0.2-0.6-0.3-1-0.3c-0.4,0-0.7,0.1-1,0.3c-0.3,0.2-0.4,0.4-0.4,0.7h-1.1c0-0.3,0.1-0.6,0.3-0.9c0.2-0.3,0.5-0.5,0.9-0.7
		c0.4-0.2,0.8-0.3,1.3-0.3c0.7,0,1.3,0.2,1.7,0.5c0.4,0.4,0.6,0.9,0.7,1.5v2.9c0,0.6,0.1,1,0.2,1.4v0.1H130.8z M129,111.4
		c0.3,0,0.7-0.1,1-0.3s0.5-0.4,0.7-0.7v-1.3h-0.8c-1.3,0-2,0.4-2,1.2c0,0.3,0.1,0.6,0.3,0.8C128.4,111.3,128.7,111.4,129,111.4z
		 M133.7,109c0-1,0.2-1.8,0.7-2.3c0.5-0.6,1.1-0.9,1.8-0.9s1.3,0.2,1.8,0.8v-3.3h1.1v9h-1v-0.7c-0.4,0.5-1,0.8-1.8,0.8
		c-0.7,0-1.3-0.3-1.8-0.9C133.9,110.8,133.7,110,133.7,109L133.7,109z M134.7,109.1c0,0.7,0.1,1.3,0.4,1.7c0.3,0.4,0.7,0.6,1.2,0.6
		c0.7,0,1.2-0.3,1.5-0.9v-2.9c-0.3-0.6-0.8-0.9-1.5-0.9c-0.5,0-0.9,0.2-1.2,0.6C134.9,107.7,134.7,108.3,134.7,109.1z M145.2,108.9
		v3.3h-1.1v-8.5h3.2c0.9,0,1.7,0.2,2.2,0.7s0.8,1.1,0.8,1.9c0,0.8-0.3,1.5-0.8,1.9s-1.2,0.7-2.2,0.7H145.2z M145.2,107.9h2
		c0.6,0,1.1-0.1,1.4-0.4c0.3-0.3,0.5-0.7,0.5-1.2s-0.2-0.9-0.5-1.2c-0.3-0.3-0.8-0.5-1.3-0.5h-2.1L145.2,107.9L145.2,107.9z
		 M154.6,112.3c-0.9,0-1.6-0.3-2.1-0.8c-0.5-0.6-0.8-1.3-0.8-2.3V109c0-0.6,0.1-1.2,0.4-1.7c0.2-0.5,0.6-0.9,1-1.2
		c0.4-0.3,0.9-0.4,1.4-0.4c0.8,0,1.5,0.3,1.9,0.8s0.7,1.3,0.7,2.3v0.5h-4.3c0,0.6,0.2,1.1,0.5,1.5c0.4,0.4,0.8,0.6,1.3,0.6
		c0.4,0,0.7-0.1,1-0.2c0.3-0.2,0.5-0.4,0.7-0.6l0.7,0.5C156.4,111.9,155.6,112.3,154.6,112.3z M154.4,106.6c-0.4,0-0.8,0.2-1.1,0.5
		c-0.3,0.3-0.5,0.8-0.5,1.3h3.2v-0.1c0-0.6-0.2-1-0.5-1.3C155.2,106.8,154.9,106.6,154.4,106.6z M161,106.8c-0.2,0-0.3,0-0.5,0
		c-0.7,0-1.2,0.3-1.5,0.9v4.5h-1.1v-6.3h1v0.7c0.4-0.6,0.9-0.8,1.5-0.8c0.2,0,0.4,0,0.5,0.1v0.9H161z M162.5,112.2v-5.5h-1v-0.8h1
		v-0.6c0-0.7,0.2-1.2,0.5-1.6c0.4-0.4,0.9-0.6,1.5-0.6c0.2,0,0.5,0,0.8,0.1l-0.1,0.9c-0.2,0-0.4-0.1-0.6-0.1c-0.4,0-0.6,0.1-0.8,0.3
		c-0.2,0.2-0.3,0.5-0.3,0.9v0.7h1.4v0.8h-1.4v5.5H162.5z M165.6,109c0-0.6,0.1-1.2,0.4-1.7c0.2-0.5,0.6-0.9,1-1.1
		c0.4-0.3,0.9-0.4,1.5-0.4c0.9,0,1.6,0.3,2.1,0.9c0.5,0.6,0.8,1.4,0.8,2.4v0.1c0,0.6-0.1,1.2-0.4,1.7s-0.6,0.9-1,1.2
		c-0.4,0.3-0.9,0.4-1.5,0.4c-0.9,0-1.6-0.3-2.1-0.9C165.9,110.8,165.6,110,165.6,109L165.6,109z M166.7,109.1c0,0.7,0.2,1.3,0.5,1.7
		c0.3,0.4,0.8,0.6,1.3,0.6c0.6,0,1-0.2,1.3-0.6c0.3-0.4,0.5-1,0.5-1.8c0-0.7-0.2-1.2-0.5-1.7c-0.3-0.4-0.8-0.7-1.3-0.7
		s-1,0.2-1.3,0.6C166.9,107.7,166.7,108.3,166.7,109.1z M176,106.8c-0.2,0-0.3,0-0.5,0c-0.7,0-1.2,0.3-1.5,0.9v4.5h-1.1v-6.3h1v0.7
		c0.4-0.6,0.9-0.8,1.5-0.8c0.2,0,0.4,0,0.5,0.1v0.9H176z M177.9,105.9v0.7c0.5-0.5,1.1-0.8,1.9-0.8c0.9,0,1.5,0.3,1.8,1
		c0.2-0.3,0.5-0.5,0.8-0.7s0.7-0.3,1.2-0.3c1.4,0,2.1,0.7,2.1,2.2v4.2h-1.1V108c0-0.4-0.1-0.8-0.3-1s-0.6-0.3-1-0.3s-0.7,0.1-1,0.4
		c-0.3,0.2-0.4,0.6-0.5,1v4.2h-1.1v-4.2c0-0.9-0.5-1.4-1.4-1.4c-0.7,0-1.2,0.3-1.5,0.9v4.6h-1.1v-6.3H177.9z M191.8,112.2
		c-0.1-0.1-0.1-0.3-0.2-0.7c-0.5,0.5-1.1,0.8-1.8,0.8c-0.6,0-1.1-0.2-1.5-0.5c-0.4-0.4-0.6-0.8-0.6-1.4c0-0.7,0.2-1.2,0.8-1.5
		s1.2-0.5,2.1-0.5h1v-0.5c0-0.4-0.1-0.7-0.3-0.9c-0.2-0.2-0.6-0.3-1-0.3s-0.7,0.1-1,0.3c-0.3,0.2-0.4,0.4-0.4,0.7h-1.1
		c0-0.3,0.1-0.6,0.3-0.9s0.5-0.5,0.9-0.7c0.4-0.2,0.8-0.3,1.3-0.3c0.7,0,1.3,0.2,1.7,0.5c0.4,0.4,0.6,0.9,0.7,1.5v2.9
		c0,0.6,0.1,1,0.2,1.4v0.1H191.8z M190,111.4c0.3,0,0.7-0.1,1-0.3s0.5-0.4,0.7-0.7v-1.3h-0.8c-1.3,0-2,0.4-2,1.2
		c0,0.3,0.1,0.6,0.3,0.8C189.4,111.3,189.7,111.4,190,111.4z M195.9,105.9v0.8c0.5-0.6,1.1-0.9,1.9-0.9c1.3,0,2,0.8,2,2.3v4.2h-1.1
		v-4.2c0-0.4-0.1-0.8-0.3-1s-0.5-0.3-1-0.3c-0.4,0-0.7,0.1-0.9,0.3c-0.3,0.2-0.5,0.4-0.6,0.7v4.5h-1.1V106h1.1V105.9z M204.5,111.4
		c0.4,0,0.7-0.1,1-0.3s0.5-0.5,0.5-0.9h1c0,0.4-0.2,0.7-0.4,1s-0.5,0.6-0.9,0.8c-0.4,0.2-0.8,0.3-1.2,0.3c-0.9,0-1.6-0.3-2.1-0.9
		c-0.5-0.6-0.8-1.4-0.8-2.4v-0.2c0-0.6,0.1-1.2,0.3-1.6c0.2-0.5,0.6-0.8,1-1.1s0.9-0.4,1.5-0.4c0.7,0,1.3,0.2,1.8,0.6
		c0.5,0.4,0.7,1,0.8,1.7h-1c0-0.4-0.2-0.8-0.5-1s-0.6-0.4-1-0.4c-0.6,0-1,0.2-1.3,0.6c-0.3,0.4-0.5,1-0.5,1.7v0.2
		c0,0.7,0.2,1.3,0.5,1.7S203.9,111.4,204.5,111.4z M210.6,112.3c-0.9,0-1.6-0.3-2.1-0.8c-0.5-0.6-0.8-1.3-0.8-2.3V109
		c0-0.6,0.1-1.2,0.4-1.7c0.2-0.5,0.6-0.9,1-1.2c0.4-0.3,0.9-0.4,1.4-0.4c0.8,0,1.5,0.3,1.9,0.8s0.7,1.3,0.7,2.3v0.5h-4.3
		c0,0.6,0.2,1.1,0.5,1.5c0.4,0.4,0.8,0.6,1.3,0.6c0.4,0,0.7-0.1,1-0.2c0.3-0.2,0.5-0.4,0.7-0.6l0.7,0.5
		C212.4,111.9,211.6,112.3,210.6,112.3z M210.4,106.6c-0.4,0-0.8,0.2-1.1,0.5c-0.3,0.3-0.5,0.8-0.5,1.3h3.2v-0.1
		c0-0.6-0.2-1-0.5-1.3C211.2,106.8,210.9,106.6,210.4,106.6z M222.3,109.1c0,1-0.2,1.7-0.7,2.3c-0.5,0.6-1,0.9-1.8,0.9
		s-1.4-0.2-1.8-0.7v3h-1.1v-8.8h1v0.7c0.4-0.5,1.1-0.8,1.8-0.8c0.8,0,1.4,0.3,1.8,0.9c0.4,0.6,0.7,1.4,0.7,2.4v0.1H222.3z
		 M221.2,109c0-0.7-0.2-1.3-0.5-1.7s-0.7-0.6-1.2-0.6c-0.7,0-1.1,0.3-1.5,0.9v3c0.3,0.6,0.8,0.9,1.5,0.9c0.5,0,0.9-0.2,1.2-0.6
		C221,110.4,221.2,109.8,221.2,109z M226.6,112.3c-0.9,0-1.6-0.3-2.1-0.8c-0.5-0.6-0.8-1.3-0.8-2.3V109c0-0.6,0.1-1.2,0.4-1.7
		c0.2-0.5,0.6-0.9,1-1.2c0.4-0.3,0.9-0.4,1.4-0.4c0.8,0,1.5,0.3,1.9,0.8s0.7,1.3,0.7,2.3v0.5h-4.3c0,0.6,0.2,1.1,0.5,1.5
		c0.4,0.4,0.8,0.6,1.3,0.6c0.4,0,0.7-0.1,1-0.2c0.3-0.2,0.5-0.4,0.7-0.6l0.7,0.5C228.4,111.9,227.6,112.3,226.6,112.3z M226.4,106.6
		c-0.4,0-0.8,0.2-1.1,0.5c-0.3,0.3-0.5,0.8-0.5,1.3h3.2v-0.1c0-0.6-0.2-1-0.5-1.3C227.2,106.8,226.9,106.6,226.4,106.6z M233,106.8
		c-0.2,0-0.3,0-0.5,0c-0.7,0-1.2,0.3-1.5,0.9v4.5h-1.1v-6.3h1v0.7c0.4-0.6,0.9-0.8,1.5-0.8c0.2,0,0.4,0,0.5,0.1v0.9H233z
		 M239.6,108.4c-1-0.3-1.7-0.6-2.1-1c-0.4-0.4-0.7-0.9-0.7-1.5c0-0.7,0.3-1.2,0.8-1.7c0.5-0.4,1.2-0.7,2.1-0.7
		c0.6,0,1.1,0.1,1.6,0.3s0.8,0.5,1.1,0.9c0.3,0.4,0.4,0.8,0.4,1.3h-1.1c0-0.5-0.2-0.9-0.5-1.2c-0.3-0.3-0.8-0.4-1.4-0.4
		c-0.6,0-1,0.1-1.3,0.4c-0.3,0.2-0.5,0.6-0.5,1s0.1,0.7,0.4,0.9c0.3,0.2,0.8,0.5,1.5,0.7s1.3,0.4,1.7,0.7c0.4,0.2,0.7,0.5,0.9,0.8
		s0.3,0.7,0.3,1.1c0,0.7-0.3,1.3-0.8,1.7c-0.5,0.4-1.3,0.6-2.2,0.6c-0.6,0-1.1-0.1-1.7-0.3c-0.5-0.2-0.9-0.5-1.2-0.9
		s-0.4-0.8-0.4-1.3h1.1c0,0.5,0.2,0.9,0.6,1.2s0.9,0.5,1.5,0.5s1-0.1,1.4-0.4c0.3-0.2,0.5-0.6,0.5-1s-0.1-0.7-0.4-1
		S240.4,108.6,239.6,108.4z M246.6,112.3c-0.9,0-1.6-0.3-2.1-0.8c-0.5-0.6-0.8-1.3-0.8-2.3V109c0-0.6,0.1-1.2,0.4-1.7
		c0.2-0.5,0.6-0.9,1-1.2c0.4-0.3,0.9-0.4,1.4-0.4c0.8,0,1.5,0.3,1.9,0.8s0.7,1.3,0.7,2.3v0.5h-4.3c0,0.6,0.2,1.1,0.5,1.5
		c0.4,0.4,0.8,0.6,1.3,0.6c0.4,0,0.7-0.1,1-0.2c0.3-0.2,0.5-0.4,0.7-0.6l0.7,0.5C248.4,111.9,247.6,112.3,246.6,112.3z M246.4,106.6
		c-0.4,0-0.8,0.2-1.1,0.5c-0.3,0.3-0.5,0.8-0.5,1.3h3.2v-0.1c0-0.6-0.2-1-0.5-1.3C247.2,106.8,246.9,106.6,246.4,106.6z
		 M252.5,111.4c0.4,0,0.7-0.1,1-0.3s0.5-0.5,0.5-0.9h1c0,0.4-0.2,0.7-0.4,1s-0.5,0.6-0.9,0.8c-0.4,0.2-0.8,0.3-1.2,0.3
		c-0.9,0-1.6-0.3-2.1-0.9c-0.5-0.6-0.8-1.4-0.8-2.4v-0.2c0-0.6,0.1-1.2,0.3-1.6c0.2-0.5,0.6-0.8,1-1.1s0.9-0.4,1.5-0.4
		c0.7,0,1.3,0.2,1.8,0.6c0.5,0.4,0.7,1,0.8,1.7h-1c0-0.4-0.2-0.8-0.5-1s-0.6-0.4-1-0.4c-0.6,0-1,0.2-1.3,0.6c-0.3,0.4-0.5,1-0.5,1.7
		v0.2c0,0.7,0.2,1.3,0.5,1.7S251.9,111.4,252.5,111.4z M255.6,109c0-0.6,0.1-1.2,0.4-1.7c0.2-0.5,0.6-0.9,1-1.1
		c0.4-0.3,0.9-0.4,1.5-0.4c0.9,0,1.6,0.3,2.1,0.9c0.5,0.6,0.8,1.4,0.8,2.4v0.1c0,0.6-0.1,1.2-0.4,1.7s-0.6,0.9-1,1.2
		c-0.4,0.3-0.9,0.4-1.5,0.4c-0.9,0-1.6-0.3-2.1-0.9C255.9,110.8,255.6,110,255.6,109L255.6,109z M256.7,109.1c0,0.7,0.2,1.3,0.5,1.7
		c0.3,0.4,0.8,0.6,1.3,0.6c0.6,0,1-0.2,1.3-0.6c0.3-0.4,0.5-1,0.5-1.8c0-0.7-0.2-1.2-0.5-1.7c-0.3-0.4-0.8-0.7-1.3-0.7
		s-1,0.2-1.3,0.6C256.9,107.7,256.7,108.3,256.7,109.1z M263.9,105.9v0.8c0.5-0.6,1.1-0.9,1.9-0.9c1.3,0,2,0.8,2,2.3v4.2h-1.1v-4.2
		c0-0.4-0.1-0.8-0.3-1c-0.2-0.2-0.5-0.3-1-0.3c-0.4,0-0.7,0.1-0.9,0.3c-0.3,0.2-0.5,0.4-0.6,0.7v4.5h-1.1V106h1.1V105.9z M269.7,109
		c0-1,0.2-1.8,0.7-2.3c0.5-0.6,1.1-0.9,1.8-0.9c0.7,0,1.3,0.2,1.8,0.8v-3.3h1.1v9h-1v-0.7c-0.4,0.5-1,0.8-1.8,0.8
		c-0.7,0-1.3-0.3-1.8-0.9C269.9,110.8,269.7,110,269.7,109L269.7,109z M270.7,109.1c0,0.7,0.1,1.3,0.4,1.7c0.3,0.4,0.7,0.6,1.2,0.6
		c0.7,0,1.2-0.3,1.5-0.9v-2.9c-0.3-0.6-0.8-0.9-1.5-0.9c-0.5,0-0.9,0.2-1.2,0.6C270.9,107.7,270.7,108.3,270.7,109.1z M285.5,110.7
		l1.2-4.8h1.1l-1.8,6.3h-0.9l-1.5-4.8l-1.5,4.8h-0.9l-1.8-6.3h1.1l1.2,4.8l1.5-4.8h0.9L285.5,110.7z M290.1,112.2H289v-6.3h1.1
		V112.2z M288.9,104.2c0-0.2,0.1-0.3,0.2-0.5c0.1-0.1,0.3-0.2,0.5-0.2s0.4,0.1,0.5,0.2s0.2,0.3,0.2,0.5s-0.1,0.3-0.2,0.4
		s-0.3,0.2-0.5,0.2s-0.4-0.1-0.5-0.2S288.9,104.4,288.9,104.2z M293.4,104.3v1.5h1.2v0.9h-1.2v3.9c0,0.3,0.1,0.5,0.2,0.6
		s0.3,0.2,0.5,0.2c0.1,0,0.3,0,0.5-0.1v0.9c-0.3,0.1-0.6,0.1-0.8,0.1c-0.5,0-0.8-0.1-1.1-0.4c-0.2-0.3-0.4-0.7-0.4-1.3v-3.9h-1.2
		v-0.8h1.2v-1.5L293.4,104.3L293.4,104.3z M297,106.6c0.5-0.6,1.1-0.9,1.9-0.9c1.3,0,2,0.8,2,2.3v4.2h-1.1V108c0-0.4-0.1-0.8-0.3-1
		c-0.2-0.2-0.5-0.3-1-0.3c-0.4,0-0.7,0.1-0.9,0.3c-0.3,0.2-0.5,0.4-0.6,0.7v4.5h-1.1v-9h1.1V106.6z M309.8,112.2
		c-0.1-0.1-0.1-0.3-0.2-0.7c-0.5,0.5-1.1,0.8-1.8,0.8c-0.6,0-1.1-0.2-1.5-0.5c-0.4-0.4-0.6-0.8-0.6-1.4c0-0.7,0.2-1.2,0.8-1.5
		s1.2-0.5,2.1-0.5h1v-0.5c0-0.4-0.1-0.7-0.3-0.9c-0.2-0.2-0.6-0.3-1-0.3s-0.7,0.1-1,0.3c-0.3,0.2-0.4,0.4-0.4,0.7h-1.1
		c0-0.3,0.1-0.6,0.3-0.9c0.2-0.3,0.5-0.5,0.9-0.7c0.4-0.2,0.8-0.3,1.3-0.3c0.7,0,1.3,0.2,1.7,0.5c0.4,0.4,0.6,0.9,0.7,1.5v2.9
		c0,0.6,0.1,1,0.2,1.4v0.1H309.8z M308,111.4c0.3,0,0.7-0.1,1-0.3s0.5-0.4,0.7-0.7v-1.3h-0.8c-1.3,0-2,0.4-2,1.2
		c0,0.3,0.1,0.6,0.3,0.8C307.4,111.3,307.7,111.4,308,111.4z M317.5,103.7l2.8,7l2.8-7h1.5v8.5h-1.1v-3.3l0.1-3.6l-2.8,6.9h-0.9
		l-2.8-6.9l0.1,3.6v3.3h-1.1v-8.5H317.5z M327.1,112.2H326v-6.3h1.1V112.2z M325.9,104.2c0-0.2,0.1-0.3,0.2-0.5
		c0.1-0.1,0.3-0.2,0.5-0.2s0.4,0.1,0.5,0.2s0.2,0.3,0.2,0.5s-0.1,0.3-0.2,0.4s-0.3,0.2-0.5,0.2s-0.4-0.1-0.5-0.2
		S325.9,104.4,325.9,104.2z M331.1,108.2l1.4-2.3h1.3l-2.1,3.1l2.1,3.2h-1.2l-1.5-2.4l-1.5,2.4h-1.3l2.1-3.2l-2.1-3.1h1.2
		L331.1,108.2z M337.6,112.3c-0.9,0-1.6-0.3-2.1-0.8c-0.5-0.6-0.8-1.3-0.8-2.3V109c0-0.6,0.1-1.2,0.4-1.7c0.2-0.5,0.6-0.9,1-1.2
		c0.4-0.3,0.9-0.4,1.4-0.4c0.8,0,1.5,0.3,1.9,0.8s0.7,1.3,0.7,2.3v0.5h-4.3c0,0.6,0.2,1.1,0.5,1.5c0.4,0.4,0.8,0.6,1.3,0.6
		c0.4,0,0.7-0.1,1-0.2c0.3-0.2,0.5-0.4,0.7-0.6l0.7,0.5C339.4,111.9,338.6,112.3,337.6,112.3z M337.4,106.6c-0.4,0-0.8,0.2-1.1,0.5
		c-0.3,0.3-0.5,0.8-0.5,1.3h3.2v-0.1c0-0.6-0.2-1-0.5-1.3C338.2,106.8,337.9,106.6,337.4,106.6z M340.7,109c0-1,0.2-1.8,0.7-2.3
		c0.5-0.6,1.1-0.9,1.8-0.9c0.7,0,1.3,0.2,1.8,0.8v-3.3h1.1v9h-1v-0.7c-0.4,0.5-1,0.8-1.8,0.8c-0.7,0-1.3-0.3-1.8-0.9
		C340.9,110.8,340.7,110,340.7,109L340.7,109z M341.7,109.1c0,0.7,0.1,1.3,0.4,1.7c0.3,0.4,0.7,0.6,1.2,0.6c0.7,0,1.2-0.3,1.5-0.9
		v-2.9c-0.3-0.6-0.8-0.9-1.5-0.9c-0.5,0-0.9,0.2-1.2,0.6C341.9,107.7,341.7,108.3,341.7,109.1z M352.9,109.5l0.2,1.1l0.2-1l1.7-6h1
		l1.6,6l0.2,1l0.2-1.2l1.3-5.8h1.1l-2.1,8.5h-1l-1.8-6.2l-0.1-0.7l-0.1,0.7l-1.8,6.2h-1l-2.1-8.5h1.1L352.9,109.5z M361.6,109
		c0-0.6,0.1-1.2,0.4-1.7c0.2-0.5,0.6-0.9,1-1.1c0.4-0.3,0.9-0.4,1.5-0.4c0.9,0,1.6,0.3,2.1,0.9c0.5,0.6,0.8,1.4,0.8,2.4v0.1
		c0,0.6-0.1,1.2-0.4,1.7s-0.6,0.9-1,1.2c-0.4,0.3-0.9,0.4-1.5,0.4c-0.9,0-1.6-0.3-2.1-0.9C361.9,110.8,361.6,110,361.6,109
		L361.6,109z M362.7,109.1c0,0.7,0.2,1.3,0.5,1.7c0.3,0.4,0.8,0.6,1.3,0.6c0.6,0,1-0.2,1.3-0.6c0.3-0.4,0.5-1,0.5-1.8
		c0-0.7-0.2-1.2-0.5-1.7c-0.3-0.4-0.8-0.7-1.3-0.7s-1,0.2-1.3,0.6C362.9,107.7,362.7,108.3,362.7,109.1z M372,106.8
		c-0.2,0-0.3,0-0.5,0c-0.7,0-1.2,0.3-1.5,0.9v4.5h-1.1v-6.3h1v0.7c0.4-0.6,0.9-0.8,1.5-0.8c0.2,0,0.4,0,0.5,0.1v0.9H372z
		 M374.7,109.3L374,110v2.2h-1.1v-9h1.1v5.4l0.6-0.7l2-2.1h1.3l-2.5,2.7l2.8,3.7h-1.3L374.7,109.3z M380.1,112.2H379v-9h1.1V112.2z
		 M381.6,109c0-0.6,0.1-1.2,0.4-1.7c0.2-0.5,0.6-0.9,1-1.1c0.4-0.3,0.9-0.4,1.5-0.4c0.9,0,1.6,0.3,2.1,0.9c0.5,0.6,0.8,1.4,0.8,2.4
		v0.1c0,0.6-0.1,1.2-0.4,1.7s-0.6,0.9-1,1.2c-0.4,0.3-0.9,0.4-1.5,0.4c-0.9,0-1.6-0.3-2.1-0.9C381.9,110.8,381.6,110,381.6,109
		L381.6,109z M382.7,109.1c0,0.7,0.2,1.3,0.5,1.7c0.3,0.4,0.8,0.6,1.3,0.6c0.6,0,1-0.2,1.3-0.6c0.3-0.4,0.5-1,0.5-1.8
		c0-0.7-0.2-1.2-0.5-1.7c-0.3-0.4-0.8-0.7-1.3-0.7s-1,0.2-1.3,0.6C382.9,107.7,382.7,108.3,382.7,109.1z M392.8,112.2
		c-0.1-0.1-0.1-0.3-0.2-0.7c-0.5,0.5-1.1,0.8-1.8,0.8c-0.6,0-1.1-0.2-1.5-0.5c-0.4-0.4-0.6-0.8-0.6-1.4c0-0.7,0.2-1.2,0.8-1.5
		s1.2-0.5,2.1-0.5h1v-0.5c0-0.4-0.1-0.7-0.3-0.9c-0.2-0.2-0.6-0.3-1-0.3s-0.7,0.1-1,0.3c-0.3,0.2-0.4,0.4-0.4,0.7h-1.1
		c0-0.3,0.1-0.6,0.3-0.9c0.2-0.3,0.5-0.5,0.9-0.7c0.4-0.2,0.8-0.3,1.3-0.3c0.7,0,1.3,0.2,1.7,0.5c0.4,0.4,0.6,0.9,0.7,1.5v2.9
		c0,0.6,0.1,1,0.2,1.4v0.1H392.8z M391,111.4c0.3,0,0.7-0.1,1-0.3s0.5-0.4,0.7-0.7v-1.3h-0.8c-1.3,0-2,0.4-2,1.2
		c0,0.3,0.1,0.6,0.3,0.8C390.4,111.3,390.7,111.4,391,111.4z M395.7,109c0-1,0.2-1.8,0.7-2.3c0.5-0.6,1.1-0.9,1.8-0.9
		c0.7,0,1.3,0.2,1.8,0.8v-3.3h1.1v9h-1v-0.7c-0.4,0.5-1,0.8-1.8,0.8c-0.7,0-1.3-0.3-1.8-0.9C395.9,110.8,395.7,110,395.7,109
		L395.7,109z M396.7,109.1c0,0.7,0.1,1.3,0.4,1.7c0.3,0.4,0.7,0.6,1.2,0.6c0.7,0,1.2-0.3,1.5-0.9v-2.9c-0.3-0.6-0.8-0.9-1.5-0.9
		c-0.5,0-0.9,0.2-1.2,0.6C396.9,107.7,396.7,108.3,396.7,109.1z"/>
</g>
</svg>
