<?xml version="1.0" encoding="utf-8"?>
<!-- Generator: Adobe Illustrator 23.0.1, SVG Export Plug-In . SVG Version: 6.00 Build 0)  -->
<svg version="1.1" id="Layer_1" xmlns="http://www.w3.org/2000/svg" xmlns:xlink="http://www.w3.org/1999/xlink" x="0px" y="0px"
	 viewBox="0 0 518 566.7" style="enable-background:new 0 0 518 566.7;" xml:space="preserve">
<style type="text/css">
	.st0{fill:#FFFFFF;stroke:#E8E8E8;stroke-miterlimit:10;}
	.st1{enable-background:new    ;}
	.st2{fill:#F75821;}
	.st3{fill:none;stroke:#333333;stroke-miterlimit:10;}
	.st4{fill:#EEEEEE;}
	.st5{fill:none;stroke:#CCCCCC;stroke-miterlimit:10;}
	.st6{clip-path:url(#SVGID_2_);}
	.st7{fill:#A13915;}
	.st8{clip-path:url(#SVGID_4_);}
	.st9{fill:#F9794D;}
	.st10{clip-path:url(#SVGID_6_);}
	.st11{fill:none;}
	.st12{clip-path:url(#SVGID_8_);}
	.st13{clip-path:url(#SVGID_10_);}
	.st14{fill:#151B35;}
	.st15{clip-path:url(#SVGID_12_);}
	.st16{fill:#4D5474;}
	.st17{clip-path:url(#SVGID_14_);}
	.st18{clip-path:url(#SVGID_16_);}
	.st19{fill:#202951;}
	.st20{fill:none;stroke:#F75821;stroke-width:3;stroke-linecap:round;stroke-linejoin:round;}
	.st21{fill:#FFFFFF;}
	.st22{fill:none;stroke:#202951;stroke-width:3;stroke-linecap:round;stroke-linejoin:round;}
	.st23{fill:#757575;}
</style>
<title>graph3</title>
<path class="st0" d="M10.5,0.5h497c5.5,0,10,4.5,10,10v545.7c0,5.5-4.5,10-10,10h-497c-5.5,0-10-4.5-10-10V10.5
	C0.5,5,5,0.5,10.5,0.5z"/>
<g class="st1">
	<path class="st2" d="M144.1,46v2.9h-11.6v-2.4l5.7-5.9c0.5-0.5,0.9-1,1.2-1.5c0.3-0.5,0.5-0.9,0.5-1.3c0-0.5-0.2-0.9-0.6-1.1
		s-0.9-0.4-1.6-0.4c-0.7,0-1.4,0.2-2.1,0.5c-0.7,0.3-1.5,0.8-2.2,1.4l-1.4-2.6c2-1.5,4.1-2.3,6.2-2.3c1,0,1.9,0.2,2.7,0.5
		s1.4,0.8,1.8,1.4c0.4,0.6,0.7,1.3,0.7,2.1c0,0.8-0.3,1.6-0.8,2.4c-0.5,0.8-1.2,1.7-2.2,2.7L137,46H144.1z"/>
	<path class="st2" d="M148.6,46.1c0.3,0.3,0.5,0.7,0.5,1.3c0,0.5-0.2,0.9-0.5,1.3s-0.7,0.5-1.2,0.5c-0.5,0-0.9-0.2-1.2-0.5
		c-0.3-0.3-0.5-0.8-0.5-1.3c0-0.5,0.2-0.9,0.5-1.3c0.3-0.3,0.7-0.5,1.2-0.5C147.9,45.6,148.3,45.7,148.6,46.1z"/>
	<path class="st2" d="M160.1,39.7c0.9,0.4,1.6,0.9,2.1,1.7s0.7,1.5,0.7,2.4c0,1.1-0.3,2-0.8,2.8c-0.5,0.8-1.2,1.4-2.2,1.8
		c-0.9,0.4-2,0.6-3.2,0.6c-1,0-2-0.2-3.1-0.5c-1.1-0.3-2-0.8-2.8-1.4l1.3-2.6c0.6,0.5,1.3,0.9,2.1,1.2c0.7,0.3,1.5,0.4,2.2,0.4
		c0.9,0,1.5-0.2,2-0.6s0.7-0.9,0.7-1.6c0-0.7-0.2-1.2-0.7-1.6c-0.5-0.4-1.2-0.5-2.2-0.5c-0.5,0-1.3,0-2.1,0c-0.9,0-1.6,0.1-2,0.1
		v-8.6h10.1v2.9h-6.9v2.7h1.7C158.1,39.1,159.2,39.3,160.1,39.7z"/>
	<path class="st2" d="M164.2,33.5h4l3.2,4.7l3.2-4.7h4.1l-5.1,7.4l5.6,8h-4.2l-3.6-5.1l-3.6,5.1h-4.1l5.5-7.9L164.2,33.5z"/>
	<path class="st2" d="M197.5,34.5c1,0.7,1.5,1.6,1.5,2.8c0,0.8-0.2,1.5-0.7,2.1c-0.5,0.6-1.1,1-1.9,1.2c1,0.2,1.8,0.6,2.4,1.3
		c0.6,0.7,0.9,1.6,0.9,2.6c0,1.3-0.5,2.4-1.6,3.1c-1,0.8-2.5,1.1-4.2,1.1h-7.3V33.5h7.1C195.2,33.5,196.5,33.8,197.5,34.5z
		 M194.8,39.2c0.4-0.3,0.6-0.7,0.6-1.3c0-0.5-0.2-0.9-0.6-1.2c-0.4-0.3-0.9-0.4-1.6-0.4h-3.4v3.4h3.4
		C194,39.7,194.5,39.5,194.8,39.2z M195.2,45.5c0.5-0.3,0.7-0.8,0.7-1.4c0-0.6-0.2-1-0.7-1.3c-0.5-0.3-1.1-0.5-1.9-0.5h-3.4V46h3.4
		C194.1,46,194.8,45.9,195.2,45.5z"/>
	<path class="st2" d="M211.4,38.6c1,1.1,1.5,2.6,1.5,4.6c0,0.4,0,0.6,0,0.8h-8.5c0.2,0.7,0.6,1.3,1.1,1.7c0.5,0.4,1.2,0.6,2,0.6
		c0.6,0,1.1-0.1,1.6-0.3c0.5-0.2,1-0.5,1.4-0.9l1.8,1.8c-0.6,0.7-1.3,1.2-2.2,1.6s-1.8,0.5-2.9,0.5c-1.2,0-2.3-0.2-3.3-0.7
		c-0.9-0.5-1.6-1.2-2.2-2.1c-0.5-0.9-0.8-2-0.8-3.1c0-1.2,0.3-2.3,0.8-3.2c0.5-0.9,1.2-1.6,2.2-2.1c0.9-0.5,2-0.8,3.2-0.8
		C209,36.9,210.4,37.5,211.4,38.6z M209.7,42c0-0.8-0.3-1.4-0.7-1.9c-0.5-0.5-1.1-0.7-1.9-0.7c-0.7,0-1.3,0.2-1.8,0.7
		c-0.5,0.5-0.8,1.1-0.9,1.9H209.7z"/>
	<path class="st2" d="M222.4,48.2c-0.4,0.3-0.9,0.5-1.5,0.6c-0.5,0.1-1.1,0.2-1.6,0.2c-1.1,0-2-0.3-2.7-0.9s-1-1.5-1-2.7v-5.5H214
		v-2.3h1.6v-3.3h3.4v3.3h3.2v2.4H219v4.9c0,0.9,0.4,1.4,1.1,1.4c0.5,0,1-0.1,1.6-0.4L222.4,48.2z"/>
</g>
<g class="st1">
	<path class="st2" d="M231.8,48.2c-0.4,0.3-0.9,0.5-1.5,0.6c-0.5,0.1-1.1,0.2-1.6,0.2c-1.1,0-2-0.3-2.7-0.9s-1-1.5-1-2.7v-5.5h-1.6
		v-2.3h1.6v-3.3h3.4v3.3h3.2v2.4h-3.2v4.9c0,0.9,0.4,1.4,1.1,1.4c0.5,0,1-0.1,1.6-0.4L231.8,48.2z"/>
</g>
<g class="st1">
	<path class="st2" d="M243.2,38.6c1,1.1,1.5,2.6,1.5,4.6c0,0.4,0,0.6,0,0.8h-8.5c0.2,0.7,0.6,1.3,1.1,1.7c0.5,0.4,1.2,0.6,2,0.6
		c0.6,0,1.1-0.1,1.6-0.3c0.5-0.2,1-0.5,1.4-0.9l1.8,1.8c-0.6,0.7-1.3,1.2-2.2,1.6S240,49,238.9,49c-1.2,0-2.3-0.2-3.3-0.7
		c-0.9-0.5-1.6-1.2-2.2-2.1c-0.5-0.9-0.8-2-0.8-3.1c0-1.2,0.3-2.3,0.8-3.2c0.5-0.9,1.2-1.6,2.2-2.1c0.9-0.5,2-0.8,3.2-0.8
		C240.8,36.9,242.2,37.5,243.2,38.6z M241.5,42c0-0.8-0.3-1.4-0.7-1.9c-0.5-0.5-1.1-0.7-1.9-0.7c-0.7,0-1.3,0.2-1.8,0.7
		c-0.5,0.5-0.8,1.1-0.9,1.9H241.5z"/>
	<path class="st2" d="M251.9,37.5c0.7-0.4,1.4-0.6,2.3-0.6v3.2c-0.1,0-0.3,0-0.5,0c-1,0-1.9,0.3-2.5,0.8c-0.6,0.6-0.9,1.3-0.9,2.3
		v5.7h-3.4V37h3.4v2.1C250.7,38.4,251.2,37.9,251.9,37.5z"/>
	<path class="st2" d="M272,34.4c1.2,0.7,2.2,1.6,2.9,2.7s1,2.5,1,4s-0.3,2.8-1,4c-0.7,1.2-1.7,2.1-2.9,2.7c-1.2,0.7-2.7,1-4.3,1
		h-6.4V33.5h6.5C269.4,33.5,270.8,33.8,272,34.4z M270.2,45.3c0.7-0.4,1.2-1,1.6-1.7c0.4-0.7,0.6-1.5,0.6-2.5s-0.2-1.8-0.6-2.5
		s-1-1.3-1.7-1.7c-0.7-0.4-1.5-0.6-2.4-0.6h-3v9.5h3.1C268.7,45.9,269.5,45.7,270.2,45.3z"/>
	<path class="st2" d="M281.1,32.3c0.3,0.4,0.5,0.8,0.5,1.4c0,0.6-0.2,1-0.5,1.4c-0.3,0.4-0.8,0.5-1.3,0.5c-0.5,0-1-0.2-1.3-0.5
		c-0.3-0.4-0.5-0.8-0.5-1.4c0-0.6,0.2-1,0.5-1.4c0.3-0.4,0.8-0.5,1.3-0.5C280.3,31.8,280.8,32,281.1,32.3z M278.1,37h3.4v11.8h-3.4
		V37z"/>
	<path class="st2" d="M290.3,39.7c-0.6-0.2-1.2-0.3-1.7-0.3c-0.4,0-0.7,0.1-1,0.2c-0.2,0.1-0.4,0.4-0.4,0.7c0,0.3,0.2,0.6,0.5,0.7
		c0.3,0.2,0.9,0.4,1.6,0.6c0.8,0.2,1.5,0.5,2.1,0.7c0.5,0.2,1,0.6,1.4,1.1c0.4,0.5,0.6,1.1,0.6,1.9c0,1.2-0.5,2.1-1.4,2.7
		c-0.9,0.7-2.1,1-3.5,1c-1,0-1.9-0.1-2.8-0.4s-1.7-0.7-2.3-1.2l1.1-2.3c0.6,0.5,1.3,0.8,2,1.1c0.7,0.3,1.4,0.4,2.1,0.4
		c0.5,0,0.8-0.1,1.1-0.2c0.3-0.2,0.4-0.4,0.4-0.7c0-0.3-0.2-0.6-0.5-0.8s-0.9-0.4-1.7-0.6c-0.8-0.2-1.5-0.5-2-0.7
		c-0.5-0.2-1-0.6-1.4-1.1c-0.4-0.5-0.6-1.1-0.6-1.9c0-1.2,0.4-2.1,1.3-2.7c0.9-0.6,2-1,3.3-1c0.8,0,1.6,0.1,2.4,0.3
		c0.8,0.2,1.5,0.6,2.2,1l-1.2,2.3C291.6,40.1,290.9,39.9,290.3,39.7z"/>
	<path class="st2" d="M303.1,48.2c-0.4,0.3-0.9,0.5-1.5,0.6c-0.5,0.1-1.1,0.2-1.6,0.2c-1.1,0-2-0.3-2.7-0.9s-1-1.5-1-2.7v-5.5h-1.7
		v-2.3h1.7v-3.3h3.4v3.3h3.2v2.4h-3.2v4.9c0,0.9,0.4,1.4,1.1,1.4c0.5,0,1-0.1,1.6-0.4L303.1,48.2z"/>
	<path class="st2" d="M310.1,37.5c0.7-0.4,1.4-0.6,2.3-0.6v3.2c-0.1,0-0.3,0-0.5,0c-1,0-1.9,0.3-2.5,0.8c-0.6,0.6-0.9,1.3-0.9,2.3
		v5.7h-3.4V37h3.4v2.1C308.9,38.4,309.4,37.9,310.1,37.5z"/>
	<path class="st2" d="M317.3,32.3c0.3,0.4,0.5,0.8,0.5,1.4c0,0.6-0.2,1-0.5,1.4c-0.3,0.4-0.8,0.5-1.3,0.5c-0.5,0-1-0.2-1.3-0.5
		s-0.5-0.8-0.5-1.4c0-0.6,0.2-1,0.5-1.4c0.3-0.4,0.8-0.5,1.3-0.5C316.5,31.8,316.9,32,317.3,32.3z M314.3,37h3.4v11.8h-3.4V37z"/>
	<path class="st2" d="M331.1,37.7c0.8,0.5,1.5,1.2,2,2.1c0.5,0.9,0.7,2,0.7,3.2c0,1.2-0.2,2.2-0.7,3.1c-0.5,0.9-1.1,1.6-1.9,2.1
		c-0.8,0.5-1.8,0.7-2.9,0.7c-0.8,0-1.6-0.2-2.2-0.5c-0.6-0.3-1.2-0.8-1.6-1.4v1.7H321V32.5h3.4v6.2c0.4-0.6,1-1.1,1.6-1.4
		s1.4-0.5,2.1-0.5C329.2,36.9,330.2,37.2,331.1,37.7z M329.5,45.3c0.5-0.6,0.8-1.4,0.8-2.4c0-1-0.3-1.7-0.8-2.3s-1.2-0.9-2.1-0.9
		c-0.9,0-1.6,0.3-2.1,0.9c-0.6,0.6-0.8,1.4-0.8,2.3c0,1,0.3,1.8,0.8,2.4c0.5,0.6,1.3,0.9,2.1,0.9C328.2,46.2,328.9,45.9,329.5,45.3z
		"/>
	<path class="st2" d="M347.2,37v11.8h-3.4v-2.1c-0.8,1.5-2.1,2.2-4,2.2c-1.3,0-2.3-0.4-3.1-1.2c-0.8-0.8-1.2-1.9-1.2-3.3V37h3.4v6.5
		c0,0.7,0.2,1.3,0.6,1.8c0.4,0.4,0.9,0.6,1.6,0.6c0.8,0,1.4-0.3,1.9-0.9c0.5-0.6,0.7-1.3,0.7-2.2V37H347.2z"/>
</g>
<g class="st1">
	<path class="st2" d="M357.8,48.2c-0.4,0.3-0.9,0.5-1.5,0.6c-0.5,0.1-1.1,0.2-1.6,0.2c-1.1,0-2-0.3-2.7-0.9s-1-1.5-1-2.7v-5.5h-1.7
		v-2.3h1.7v-3.3h3.4v3.3h3.2v2.4h-3.2v4.9c0,0.9,0.4,1.4,1.1,1.4c0.5,0,1-0.1,1.6-0.4L357.8,48.2z"/>
</g>
<g class="st1">
	<path class="st2" d="M369.2,38.6c1,1.1,1.5,2.6,1.5,4.6c0,0.4,0,0.6,0,0.8h-8.5c0.2,0.7,0.6,1.3,1.1,1.7s1.2,0.6,2,0.6
		c0.6,0,1.1-0.1,1.6-0.3c0.5-0.2,1-0.5,1.4-0.9l1.8,1.8c-0.6,0.7-1.3,1.2-2.2,1.6c-0.9,0.4-1.8,0.5-2.9,0.5c-1.2,0-2.3-0.2-3.3-0.7
		c-0.9-0.5-1.7-1.2-2.2-2.1c-0.5-0.9-0.8-2-0.8-3.1c0-1.2,0.3-2.3,0.8-3.2c0.5-0.9,1.2-1.6,2.2-2.1c0.9-0.5,2-0.8,3.2-0.8
		C366.7,36.9,368.2,37.5,369.2,38.6z M367.5,42c0-0.8-0.3-1.4-0.7-1.9c-0.5-0.5-1.1-0.7-1.9-0.7c-0.7,0-1.3,0.2-1.8,0.7
		c-0.5,0.5-0.8,1.1-0.9,1.9H367.5z"/>
	<path class="st2" d="M384.6,32.5v16.3h-3.4v-1.7c-0.4,0.6-1,1.1-1.6,1.4c-0.6,0.3-1.3,0.5-2.2,0.5c-1.1,0-2.1-0.3-2.9-0.8
		c-0.8-0.5-1.5-1.2-2-2.1c-0.5-0.9-0.7-2-0.7-3.2c0-1.2,0.2-2.2,0.7-3.1c0.5-0.9,1.1-1.6,1.9-2.1c0.8-0.5,1.8-0.7,2.9-0.7
		c1.7,0,2.9,0.6,3.8,1.9v-6.2H384.6z M380.4,45.4c0.5-0.6,0.8-1.4,0.8-2.4s-0.3-1.8-0.8-2.4c-0.5-0.6-1.3-0.9-2.1-0.9
		c-0.9,0-1.6,0.3-2.1,0.9c-0.6,0.6-0.8,1.4-0.8,2.4c0,1,0.3,1.8,0.8,2.4c0.5,0.6,1.3,0.9,2.1,0.9C379.1,46.3,379.8,46,380.4,45.4z"
		/>
</g>
<g class="st1">
	<path class="st2" d="M119.2,59.9h12.9v2.9h-4.7v12.5h-3.5V62.8h-4.7V59.9z"/>
</g>
<g class="st1">
	<path class="st2" d="M138.4,63.9c0.7-0.4,1.4-0.6,2.3-0.6v3.2c-0.1,0-0.3,0-0.5,0c-1,0-1.9,0.3-2.5,0.8s-0.9,1.3-0.9,2.3v5.7h-3.4
		V63.4h3.4v2.1C137.2,64.8,137.7,64.3,138.4,63.9z"/>
</g>
<g class="st1">
	<path class="st2" d="M149,75.3v-1.4c-0.4,0.5-0.9,0.9-1.5,1.1c-0.6,0.3-1.4,0.4-2.2,0.4c-1.2,0-2.2-0.3-3-1
		c-0.7-0.7-1.1-1.6-1.1-2.7c0-1.1,0.4-2,1.2-2.6c0.8-0.6,1.9-0.9,3.3-1h3.3v-0.2c0-0.6-0.2-1.1-0.6-1.5c-0.4-0.3-1-0.5-1.8-0.5
		c-1.1,0-2.3,0.3-3.5,1l-1.1-2.3c0.9-0.5,1.8-0.8,2.6-1c0.8-0.2,1.7-0.3,2.7-0.3c1.6,0,2.8,0.4,3.7,1.1c0.9,0.7,1.3,1.8,1.3,3.1
		l0,7.7H149z M148.1,72.5c0.5-0.3,0.8-0.8,0.9-1.3v-1.1h-2.7c-0.7,0-1.1,0.1-1.5,0.3c-0.3,0.2-0.5,0.6-0.5,1c0,0.5,0.2,0.8,0.5,1.1
		s0.8,0.4,1.4,0.4C146.9,73,147.5,72.8,148.1,72.5z"/>
	<path class="st2" d="M165.9,64.5c0.8,0.8,1.2,1.9,1.2,3.3v7.4h-3.4v-6.4c0-0.7-0.2-1.3-0.6-1.8s-1-0.6-1.7-0.6
		c-0.8,0-1.5,0.3-2,0.9c-0.5,0.6-0.7,1.3-0.7,2.2v5.8h-3.4V63.4h3.4v2.1c0.8-1.4,2.2-2.2,4.1-2.2C164,63.3,165.1,63.7,165.9,64.5z"
		/>
	<path class="st2" d="M175.5,66.1c-0.6-0.2-1.2-0.3-1.7-0.3c-0.4,0-0.7,0.1-1,0.2c-0.2,0.1-0.4,0.4-0.4,0.7c0,0.3,0.2,0.6,0.5,0.7
		c0.3,0.2,0.9,0.4,1.7,0.6c0.8,0.2,1.5,0.5,2.1,0.7c0.5,0.2,1,0.6,1.4,1.1c0.4,0.5,0.6,1.1,0.6,1.9c0,1.2-0.5,2.1-1.4,2.7
		s-2.1,1-3.5,1c-1,0-1.9-0.1-2.8-0.4c-0.9-0.3-1.7-0.7-2.3-1.2l1.1-2.3c0.6,0.5,1.3,0.8,2,1.1c0.7,0.3,1.4,0.4,2.1,0.4
		c0.5,0,0.8-0.1,1.1-0.2c0.3-0.2,0.4-0.4,0.4-0.7c0-0.3-0.2-0.6-0.5-0.8s-0.9-0.4-1.7-0.6c-0.8-0.2-1.5-0.5-2-0.7
		c-0.5-0.2-1-0.6-1.4-1.1s-0.6-1.1-0.6-1.9c0-1.2,0.4-2.1,1.3-2.7c0.9-0.6,2-1,3.3-1c0.8,0,1.6,0.1,2.4,0.3c0.8,0.2,1.5,0.6,2.2,1
		l-1.2,2.3C176.8,66.5,176.2,66.3,175.5,66.1z"/>
	<path class="st2" d="M187.8,75.3v-1.4c-0.4,0.5-0.9,0.9-1.5,1.1c-0.6,0.3-1.4,0.4-2.2,0.4c-1.2,0-2.2-0.3-3-1
		c-0.7-0.7-1.1-1.6-1.1-2.7c0-1.1,0.4-2,1.2-2.6c0.8-0.6,1.9-0.9,3.3-1h3.3v-0.2c0-0.6-0.2-1.1-0.6-1.5s-1-0.5-1.8-0.5
		c-1.1,0-2.3,0.3-3.5,1l-1.1-2.3c0.9-0.5,1.8-0.8,2.6-1c0.8-0.2,1.7-0.3,2.7-0.3c1.6,0,2.8,0.4,3.7,1.1c0.9,0.7,1.3,1.8,1.3,3.1
		l0,7.7H187.8z M186.9,72.5c0.5-0.3,0.8-0.8,0.9-1.3v-1.1h-2.7c-0.7,0-1.1,0.1-1.5,0.3c-0.3,0.2-0.5,0.6-0.5,1
		c0,0.5,0.2,0.8,0.5,1.1c0.3,0.3,0.8,0.4,1.4,0.4C185.8,73,186.4,72.8,186.9,72.5z"/>
	<path class="st2" d="M199.3,66.2c-0.9,0-1.5,0.3-2.1,0.9c-0.5,0.6-0.8,1.3-0.8,2.3c0,1,0.3,1.7,0.8,2.3c0.5,0.6,1.2,0.9,2,0.9
		c1.2,0,2.1-0.5,2.8-1.4l2.3,1.6c-0.5,0.8-1.2,1.5-2.1,1.9c-0.9,0.5-2,0.7-3.2,0.7c-1.2,0-2.2-0.2-3.1-0.7c-0.9-0.5-1.6-1.2-2.1-2.1
		c-0.5-0.9-0.8-2-0.8-3.1c0-1.2,0.3-2.3,0.8-3.2s1.2-1.6,2.1-2.1c0.9-0.5,2-0.8,3.2-0.8c1.1,0,2.1,0.2,3,0.6s1.6,1,2.1,1.8l-2.3,1.7
		C201.3,66.6,200.4,66.2,199.3,66.2z"/>
	<path class="st2" d="M213.8,74.6c-0.4,0.3-0.9,0.5-1.5,0.6c-0.5,0.1-1.1,0.2-1.6,0.2c-1.1,0-2-0.3-2.7-0.9s-1-1.5-1-2.7v-5.5h-1.7
		V64h1.7v-3.3h3.4V64h3.2v2.4h-3.2v4.9c0,0.9,0.4,1.4,1.1,1.4c0.5,0,1-0.1,1.6-0.4L213.8,74.6z"/>
	<path class="st2" d="M218.8,58.7c0.3,0.4,0.5,0.8,0.5,1.4c0,0.6-0.2,1-0.5,1.4c-0.3,0.4-0.8,0.5-1.3,0.5c-0.5,0-1-0.2-1.3-0.5
		s-0.5-0.8-0.5-1.4c0-0.6,0.2-1,0.5-1.4c0.3-0.4,0.8-0.5,1.3-0.5C218.1,58.2,218.5,58.4,218.8,58.7z M215.8,63.4h3.4v11.8h-3.4V63.4
		z"/>
	<path class="st2" d="M231.1,64.1c1,0.5,1.7,1.2,2.2,2.1c0.5,0.9,0.8,2,0.8,3.2c0,1.2-0.3,2.2-0.8,3.2c-0.5,0.9-1.3,1.6-2.2,2.1
		s-2.1,0.8-3.3,0.8c-1.3,0-2.4-0.3-3.3-0.8c-1-0.5-1.7-1.2-2.2-2.1s-0.8-2-0.8-3.2c0-1.2,0.3-2.3,0.8-3.2s1.3-1.6,2.2-2.1
		c1-0.5,2.1-0.7,3.3-0.7C229.1,63.3,230.2,63.6,231.1,64.1z M225.7,67c-0.5,0.6-0.8,1.4-0.8,2.4s0.3,1.8,0.8,2.4s1.3,0.9,2.1,0.9
		c0.9,0,1.6-0.3,2.1-0.9c0.5-0.6,0.8-1.4,0.8-2.4s-0.3-1.8-0.8-2.4c-0.6-0.6-1.3-0.9-2.1-0.9C226.9,66.1,226.2,66.4,225.7,67z"/>
	<path class="st2" d="M247,64.5c0.8,0.8,1.2,1.9,1.2,3.3v7.4h-3.4v-6.4c0-0.7-0.2-1.3-0.6-1.8c-0.4-0.4-1-0.6-1.7-0.6
		c-0.8,0-1.5,0.3-2,0.9s-0.7,1.3-0.7,2.2v5.8h-3.4V63.4h3.4v2.1c0.8-1.4,2.2-2.2,4.1-2.2C245.2,63.3,246.3,63.7,247,64.5z"/>
	<path class="st2" d="M267.4,61.3c1.1,0.9,1.6,2.2,1.6,3.9c0,1.8-0.5,3.2-1.6,4.2s-2.6,1.5-4.5,1.5h-3.1v4.4h-3.5V59.9h6.5
		C264.9,59.9,266.4,60.3,267.4,61.3z M265,67.3c0.5-0.4,0.8-1.1,0.8-2c0-0.9-0.3-1.5-0.8-1.9s-1.3-0.6-2.3-0.6h-2.9V68h2.9
		C263.7,68,264.5,67.7,265,67.3z"/>
	<path class="st2" d="M280.6,65c1,1.1,1.5,2.6,1.5,4.6c0,0.4,0,0.6,0,0.8h-8.5c0.2,0.7,0.6,1.3,1.1,1.7s1.2,0.6,2,0.6
		c0.6,0,1.1-0.1,1.6-0.3c0.5-0.2,1-0.5,1.4-0.9l1.8,1.8c-0.6,0.7-1.3,1.2-2.2,1.6c-0.9,0.4-1.8,0.5-2.9,0.5c-1.2,0-2.3-0.2-3.3-0.7
		c-0.9-0.5-1.7-1.2-2.2-2.1c-0.5-0.9-0.8-2-0.8-3.1c0-1.2,0.3-2.3,0.8-3.2c0.5-0.9,1.2-1.6,2.2-2.1c0.9-0.5,2-0.8,3.2-0.8
		C278.2,63.3,279.6,63.9,280.6,65z M278.9,68.4c0-0.8-0.3-1.4-0.7-1.9c-0.5-0.5-1.1-0.7-1.9-0.7c-0.7,0-1.3,0.2-1.8,0.7
		c-0.5,0.5-0.8,1.1-0.9,1.9H278.9z"/>
	<path class="st2" d="M289.3,63.9c0.7-0.4,1.4-0.6,2.3-0.6v3.2c-0.1,0-0.3,0-0.5,0c-1,0-1.9,0.3-2.5,0.8c-0.6,0.6-0.9,1.3-0.9,2.3
		v5.7h-3.4V63.4h3.4v2.1C288.1,64.8,288.7,64.3,289.3,63.9z"/>
</g>
<g class="st1">
	<path class="st2" d="M297.9,61.9c-0.3,0.2-0.4,0.6-0.4,1v1h2.8v2.4h-2.8v9h-3.4v-9h-1.6V64h1.6v-1.1c0-0.9,0.2-1.6,0.6-2.2
		c0.4-0.6,0.9-1.1,1.6-1.4s1.4-0.5,2.2-0.5c0.8,0,1.5,0.2,2.3,0.5l-0.5,2.6c-0.2-0.1-0.5-0.2-0.7-0.2c-0.2-0.1-0.5-0.1-0.7-0.1
		C298.5,61.6,298.2,61.7,297.9,61.9z"/>
</g>
<g class="st1">
	<path class="st2" d="M310.3,64.1c1,0.5,1.7,1.2,2.2,2.1c0.5,0.9,0.8,2,0.8,3.2c0,1.2-0.3,2.2-0.8,3.2c-0.5,0.9-1.3,1.6-2.2,2.1
		s-2.1,0.8-3.3,0.8c-1.3,0-2.4-0.3-3.3-0.8c-1-0.5-1.7-1.2-2.2-2.1s-0.8-2-0.8-3.2c0-1.2,0.3-2.3,0.8-3.2s1.3-1.6,2.2-2.1
		c1-0.5,2.1-0.7,3.3-0.7C308.2,63.3,309.3,63.6,310.3,64.1z M304.8,67c-0.5,0.6-0.8,1.4-0.8,2.4s0.3,1.8,0.8,2.4s1.3,0.9,2.1,0.9
		c0.9,0,1.6-0.3,2.1-0.9c0.5-0.6,0.8-1.4,0.8-2.4s-0.3-1.8-0.8-2.4c-0.6-0.6-1.3-0.9-2.1-0.9C306.1,66.1,305.4,66.4,304.8,67z"/>
	<path class="st2" d="M320.6,63.9c0.7-0.4,1.4-0.6,2.3-0.6v3.2c-0.1,0-0.3,0-0.5,0c-1,0-1.9,0.3-2.5,0.8c-0.6,0.6-0.9,1.3-0.9,2.3
		v5.7h-3.4V63.4h3.4v2.1C319.4,64.8,319.9,64.3,320.6,63.9z"/>
	<path class="st2" d="M343.5,64.5c0.8,0.8,1.2,1.9,1.2,3.3v7.4h-3.4v-6.4c0-0.8-0.2-1.4-0.6-1.8c-0.4-0.4-1-0.6-1.7-0.6
		c-0.8,0-1.4,0.3-1.9,0.9c-0.5,0.6-0.7,1.3-0.7,2.2v5.9H333v-6.4c0-0.7-0.2-1.3-0.6-1.8s-1-0.6-1.7-0.6c-0.8,0-1.4,0.3-1.9,0.9
		s-0.7,1.3-0.7,2.2v5.9h-3.4V63.4h3.4v2c0.8-1.4,2.2-2.1,4-2.2c1,0,1.8,0.2,2.5,0.7s1.2,1.1,1.5,2c0.4-0.9,0.9-1.6,1.7-2
		c0.7-0.5,1.6-0.7,2.6-0.7C341.7,63.3,342.7,63.7,343.5,64.5z"/>
	<path class="st2" d="M354.4,75.3v-1.4c-0.4,0.5-0.9,0.9-1.5,1.1c-0.6,0.3-1.4,0.4-2.2,0.4c-1.2,0-2.2-0.3-3-1
		c-0.7-0.7-1.1-1.6-1.1-2.7c0-1.1,0.4-2,1.2-2.6c0.8-0.6,1.9-0.9,3.3-1h3.3v-0.2c0-0.6-0.2-1.1-0.6-1.5s-1-0.5-1.8-0.5
		c-1.1,0-2.3,0.3-3.5,1l-1.1-2.3c0.9-0.5,1.8-0.8,2.6-1c0.8-0.2,1.7-0.3,2.7-0.3c1.6,0,2.8,0.4,3.7,1.1c0.9,0.7,1.3,1.8,1.3,3.1
		l0,7.7H354.4z M353.5,72.5c0.5-0.3,0.8-0.8,0.9-1.3v-1.1h-2.7c-0.7,0-1.1,0.1-1.5,0.3c-0.3,0.2-0.5,0.6-0.5,1
		c0,0.5,0.2,0.8,0.5,1.1c0.3,0.3,0.8,0.4,1.4,0.4C352.4,73,353,72.8,353.5,72.5z"/>
	<path class="st2" d="M371.3,64.5c0.8,0.8,1.2,1.9,1.2,3.3v7.4h-3.4v-6.4c0-0.7-0.2-1.3-0.6-1.8c-0.4-0.4-1-0.6-1.7-0.6
		c-0.8,0-1.5,0.3-2,0.9s-0.7,1.3-0.7,2.2v5.8h-3.4V63.4h3.4v2.1c0.8-1.4,2.2-2.2,4.1-2.2C369.5,63.3,370.5,63.7,371.3,64.5z"/>
</g>
<g class="st1">
	<path class="st2" d="M380.7,66.2c-0.9,0-1.5,0.3-2.1,0.9c-0.5,0.6-0.8,1.3-0.8,2.3c0,1,0.3,1.7,0.8,2.3c0.5,0.6,1.2,0.9,2,0.9
		c1.2,0,2.1-0.5,2.8-1.4l2.3,1.6c-0.5,0.8-1.2,1.5-2.1,1.9c-0.9,0.5-2,0.7-3.2,0.7c-1.2,0-2.2-0.2-3.1-0.7c-0.9-0.5-1.6-1.2-2.1-2.1
		c-0.5-0.9-0.8-2-0.8-3.1c0-1.2,0.3-2.3,0.8-3.2s1.2-1.6,2.1-2.1c0.9-0.5,2-0.8,3.2-0.8c1.1,0,2.1,0.2,3,0.6s1.6,1,2.1,1.8l-2.3,1.7
		C382.7,66.6,381.8,66.2,380.7,66.2z"/>
</g>
<g class="st1">
	<path class="st2" d="M396.9,65c1,1.1,1.5,2.6,1.5,4.6c0,0.4,0,0.6,0,0.8h-8.5c0.2,0.7,0.6,1.3,1.1,1.7s1.2,0.6,2,0.6
		c0.6,0,1.1-0.1,1.6-0.3c0.5-0.2,1-0.5,1.4-0.9l1.8,1.8c-0.6,0.7-1.3,1.2-2.2,1.6c-0.9,0.4-1.8,0.5-2.9,0.5c-1.2,0-2.3-0.2-3.3-0.7
		c-0.9-0.5-1.6-1.2-2.2-2.1c-0.5-0.9-0.8-2-0.8-3.1c0-1.2,0.3-2.3,0.8-3.2c0.5-0.9,1.2-1.6,2.2-2.1c0.9-0.5,2-0.8,3.2-0.8
		C394.4,63.3,395.9,63.9,396.9,65z M395.2,68.4c0-0.8-0.3-1.4-0.7-1.9c-0.5-0.5-1.1-0.7-1.9-0.7c-0.7,0-1.3,0.2-1.8,0.7
		c-0.5,0.5-0.8,1.1-0.9,1.9H395.2z"/>
</g>
<path class="st3" d="M100.5,473.7h390"/>
<path class="st4" d="M70.5,503.7l30-29h390l-30,29H70.5z"/>
<path class="st5" d="M100.5,390.7h390"/>
<path class="st5" d="M100.5,308.7h390"/>
<path class="st5" d="M100.5,225.7h390"/>
<path class="st5" d="M100.5,143.7h390"/>
<g>
	<defs>
		<rect id="SVGID_1_" x="70.3" y="143.2" width="420.4" height="360"/>
	</defs>
	<clipPath id="SVGID_2_">
		<use xlink:href="#SVGID_1_"  style="overflow:visible;"/>
	</clipPath>
	<g class="st6">
		<path class="st7" d="M292,180.2v293l-25,25v-293L292,180.2z"/>
	</g>
</g>
<g>
	<defs>
		<rect id="SVGID_3_" x="70.3" y="143.2" width="420.4" height="360"/>
	</defs>
	<clipPath id="SVGID_4_">
		<use xlink:href="#SVGID_3_"  style="overflow:visible;"/>
	</clipPath>
	<g class="st8">
		<path class="st9" d="M267,205.2H167l25-25h100L267,205.2z"/>
	</g>
</g>
<g>
	<defs>
		<rect id="SVGID_5_" x="70.3" y="143.2" width="420.4" height="360"/>
	</defs>
	<clipPath id="SVGID_6_">
		<use xlink:href="#SVGID_5_"  style="overflow:visible;"/>
	</clipPath>
	<g class="st10">
		<path class="st11" d="M267,498.2H167v-293h100V498.2z"/>
	</g>
</g>
<g>
	<defs>
		<rect id="SVGID_7_" x="70.3" y="143.2" width="420.4" height="360"/>
	</defs>
	<clipPath id="SVGID_8_">
		<use xlink:href="#SVGID_7_"  style="overflow:visible;"/>
	</clipPath>
	<g class="st12">
		<path class="st2" d="M267,498.2H167v-293h100V498.2z"/>
	</g>
</g>
<g>
	<defs>
		<rect id="SVGID_9_" x="70.3" y="143.2" width="420.4" height="360"/>
	</defs>
	<clipPath id="SVGID_10_">
		<use xlink:href="#SVGID_9_"  style="overflow:visible;"/>
	</clipPath>
	<g class="st13">
		<path class="st14" d="M393,393.2v80l-25,25v-80L393,393.2z"/>
	</g>
</g>
<g>
	<defs>
		<rect id="SVGID_11_" x="70.3" y="143.2" width="420.4" height="360"/>
	</defs>
	<clipPath id="SVGID_12_">
		<use xlink:href="#SVGID_11_"  style="overflow:visible;"/>
	</clipPath>
	<g class="st15">
		<path class="st16" d="M368,418.2H268l25-25h100L368,418.2z"/>
	</g>
</g>
<g>
	<defs>
		<rect id="SVGID_13_" x="70.3" y="143.2" width="420.4" height="360"/>
	</defs>
	<clipPath id="SVGID_14_">
		<use xlink:href="#SVGID_13_"  style="overflow:visible;"/>
	</clipPath>
	<g class="st17">
		<path class="st11" d="M368,498.2H268v-80h100V498.2z"/>
	</g>
</g>
<g>
	<defs>
		<rect id="SVGID_15_" x="70.3" y="143.2" width="420.4" height="360"/>
	</defs>
	<clipPath id="SVGID_16_">
		<use xlink:href="#SVGID_15_"  style="overflow:visible;"/>
	</clipPath>
	<g class="st18">
		<path class="st19" d="M368,498.2H268v-80h100V498.2z"/>
	</g>
</g>
<path class="st20" d="M208.4,215.7c0,0.4-0.1,0.8-0.3,1.1c-0.2,0.3-0.5,0.6-0.9,0.8c0.4,0.2,0.8,0.5,1.1,0.8
	c0.3,0.4,0.4,0.8,0.4,1.2c0,0.7-0.3,1.3-0.8,1.8c-0.6,0.5-1.3,0.7-2,0.7c-0.7,0-1.4-0.2-2-0.7c-0.5-0.5-0.8-1.1-0.7-1.8
	c0-0.4,0.1-0.9,0.4-1.2c0.3-0.4,0.6-0.7,1.1-0.8c-0.4-0.2-0.7-0.4-0.9-0.8c-0.2-0.3-0.3-0.7-0.3-1.1c0-0.6,0.2-1.3,0.7-1.7
	c1.1-0.9,2.6-0.9,3.6,0C208.1,214.4,208.4,215,208.4,215.7z M207.5,219.7c0-0.4-0.1-0.8-0.4-1.1c-0.6-0.7-1.6-0.7-2.3-0.1
	c-0.3,0.3-0.5,0.8-0.5,1.2c0,0.4,0.1,0.8,0.4,1.1c0.3,0.3,0.8,0.4,1.2,0.4c0.4,0,0.9-0.1,1.2-0.4
	C207.4,220.5,207.5,220.1,207.5,219.7L207.5,219.7z M205.9,214.2c-0.4,0-0.7,0.1-1,0.4c-0.5,0.6-0.5,1.5,0,2.1
	c0.3,0.3,0.6,0.4,1,0.4c0.4,0,0.7-0.1,1-0.4c0.3-0.3,0.4-0.7,0.4-1.1c0-0.4-0.1-0.8-0.4-1.1C206.6,214.4,206.3,214.2,205.9,214.2
	L205.9,214.2z M210.3,223.7l-0.6-0.4c0.3-0.5,0.6-1,0.6-1.6v-1h1.1v0.8c0,0.4-0.1,0.8-0.3,1.2C210.8,223.1,210.6,223.4,210.3,223.7
	L210.3,223.7z M217.4,215.7c0,0.4-0.1,0.8-0.3,1.1c-0.2,0.3-0.5,0.6-0.9,0.8c0.4,0.2,0.8,0.5,1.1,0.8c0.3,0.4,0.4,0.8,0.4,1.2
	c0,0.7-0.3,1.3-0.8,1.8c-0.6,0.5-1.3,0.7-2,0.7c-0.7,0-1.4-0.2-2-0.7c-0.5-0.5-0.8-1.1-0.7-1.8c0-0.4,0.1-0.9,0.4-1.2
	c0.3-0.4,0.6-0.7,1.1-0.8c-0.4-0.2-0.7-0.4-0.9-0.8c-0.2-0.3-0.3-0.7-0.3-1.1c0-0.6,0.2-1.3,0.7-1.7c1.1-0.9,2.6-0.9,3.6,0
	C217.1,214.4,217.4,215,217.4,215.7L217.4,215.7z M216.5,219.7c0-0.4-0.1-0.8-0.4-1.1c-0.6-0.7-1.6-0.7-2.3-0.1
	c-0.3,0.3-0.5,0.8-0.5,1.2c0,0.4,0.1,0.8,0.4,1.1c0.3,0.3,0.8,0.4,1.2,0.4c0.4,0,0.9-0.1,1.2-0.4
	C216.4,220.5,216.5,220.1,216.5,219.7L216.5,219.7z M214.9,214.3c-0.4,0-0.7,0.1-1,0.4c-0.5,0.6-0.5,1.5,0,2.1
	c0.3,0.3,0.6,0.4,1,0.4c0.4,0,0.7-0.1,1-0.4c0.3-0.3,0.4-0.7,0.4-1.1c0-0.4-0.1-0.8-0.4-1.1C215.6,214.4,215.3,214.2,214.9,214.3
	L214.9,214.3z M224.7,214.1l-3.5,7.9h-1.1l3.5-7.6H219v-0.9h5.8L224.7,214.1z M230.4,218.3c-0.2,0.3-0.5,0.5-0.8,0.7
	c-0.3,0.1-0.7,0.2-1,0.2c-0.5,0-0.9-0.1-1.3-0.4c-0.4-0.2-0.7-0.6-0.8-1c-0.4-1-0.4-2,0-3c0.2-0.4,0.5-0.8,0.9-1.1
	c0.4-0.3,0.9-0.4,1.4-0.4c0.8,0,1.5,0.3,2,1c0.5,0.8,0.8,1.7,0.7,2.6v0.3c0.1,1.3-0.3,2.6-1,3.6c-0.8,0.8-1.9,1.2-3,1.2h-0.2v-0.9
	h0.2c1.4,0.2,2.7-0.9,2.8-2.3C230.3,218.7,230.3,218.5,230.4,218.3L230.4,218.3z M228.7,218.3c0.4,0,0.7-0.1,1-0.3
	c0.3-0.2,0.5-0.5,0.7-0.8v-0.4c0-0.6-0.1-1.2-0.5-1.7c-0.4-0.7-1.3-0.9-2-0.5c-0.1,0.1-0.3,0.2-0.4,0.3c-0.3,0.4-0.4,0.9-0.4,1.4
	c0,0.5,0.1,1,0.4,1.4C227.8,218.1,228.3,218.3,228.7,218.3L228.7,218.3z"/>
<path class="st21" d="M208.4,215.7c0,0.4-0.1,0.8-0.3,1.1c-0.2,0.3-0.5,0.6-0.9,0.8c0.4,0.2,0.8,0.5,1.1,0.8
	c0.3,0.4,0.4,0.8,0.4,1.2c0,0.7-0.3,1.3-0.8,1.8c-0.6,0.5-1.3,0.7-2,0.7c-0.7,0-1.4-0.2-2-0.7c-0.5-0.5-0.8-1.1-0.7-1.8
	c0-0.4,0.1-0.9,0.4-1.2c0.3-0.4,0.6-0.7,1.1-0.8c-0.4-0.2-0.7-0.4-0.9-0.8c-0.2-0.3-0.3-0.7-0.3-1.1c0-0.6,0.2-1.3,0.7-1.7
	c1.1-0.9,2.6-0.9,3.6,0C208.1,214.4,208.4,215,208.4,215.7z M207.5,219.7c0-0.4-0.1-0.8-0.4-1.1c-0.6-0.7-1.6-0.7-2.3-0.1
	c-0.3,0.3-0.5,0.8-0.5,1.2c0,0.4,0.1,0.8,0.4,1.1c0.3,0.3,0.8,0.4,1.2,0.4c0.4,0,0.9-0.1,1.2-0.4
	C207.4,220.5,207.5,220.1,207.5,219.7L207.5,219.7z M205.9,214.2c-0.4,0-0.7,0.1-1,0.4c-0.5,0.6-0.5,1.5,0,2.1
	c0.3,0.3,0.6,0.4,1,0.4c0.4,0,0.7-0.1,1-0.4c0.3-0.3,0.4-0.7,0.4-1.1c0-0.4-0.1-0.8-0.4-1.1C206.6,214.4,206.3,214.2,205.9,214.2
	L205.9,214.2z M210.3,223.7l-0.6-0.4c0.3-0.5,0.6-1,0.6-1.6v-1h1.1v0.8c0,0.4-0.1,0.8-0.3,1.2C210.8,223.1,210.6,223.4,210.3,223.7
	L210.3,223.7z M217.4,215.7c0,0.4-0.1,0.8-0.3,1.1c-0.2,0.3-0.5,0.6-0.9,0.8c0.4,0.2,0.8,0.5,1.1,0.8c0.3,0.4,0.4,0.8,0.4,1.2
	c0,0.7-0.3,1.3-0.8,1.8c-0.6,0.5-1.3,0.7-2,0.7c-0.7,0-1.4-0.2-2-0.7c-0.5-0.5-0.8-1.1-0.7-1.8c0-0.4,0.1-0.9,0.4-1.2
	c0.3-0.4,0.6-0.7,1.1-0.8c-0.4-0.2-0.7-0.4-0.9-0.8c-0.2-0.3-0.3-0.7-0.3-1.1c0-0.6,0.2-1.3,0.7-1.7c1.1-0.9,2.6-0.9,3.6,0
	C217.1,214.4,217.4,215,217.4,215.7L217.4,215.7z M216.5,219.7c0-0.4-0.1-0.8-0.4-1.1c-0.6-0.7-1.6-0.7-2.3-0.1
	c-0.3,0.3-0.5,0.8-0.5,1.2c0,0.4,0.1,0.8,0.4,1.1c0.3,0.3,0.8,0.4,1.2,0.4c0.4,0,0.9-0.1,1.2-0.4
	C216.4,220.5,216.5,220.1,216.5,219.7L216.5,219.7z M214.9,214.3c-0.4,0-0.7,0.1-1,0.4c-0.5,0.6-0.5,1.5,0,2.1
	c0.3,0.3,0.6,0.4,1,0.4c0.4,0,0.7-0.1,1-0.4c0.3-0.3,0.4-0.7,0.4-1.1c0-0.4-0.1-0.8-0.4-1.1C215.6,214.4,215.3,214.2,214.9,214.3
	L214.9,214.3z M224.7,214.1l-3.5,7.9h-1.1l3.5-7.6H219v-0.9h5.8L224.7,214.1z M230.4,218.3c-0.2,0.3-0.5,0.5-0.8,0.7
	c-0.3,0.1-0.7,0.2-1,0.2c-0.5,0-0.9-0.1-1.3-0.4c-0.4-0.2-0.7-0.6-0.8-1c-0.4-1-0.4-2,0-3c0.2-0.4,0.5-0.8,0.9-1.1
	c0.4-0.3,0.9-0.4,1.4-0.4c0.8,0,1.5,0.3,2,1c0.5,0.8,0.8,1.7,0.7,2.6v0.3c0.1,1.3-0.3,2.6-1,3.6c-0.8,0.8-1.9,1.2-3,1.2h-0.2v-0.9
	h0.2c1.4,0.2,2.7-0.9,2.8-2.3C230.3,218.7,230.3,218.5,230.4,218.3L230.4,218.3z M228.7,218.3c0.4,0,0.7-0.1,1-0.3
	c0.3-0.2,0.5-0.5,0.7-0.8v-0.4c0-0.6-0.1-1.2-0.5-1.7c-0.4-0.7-1.3-0.9-2-0.5c-0.1,0.1-0.3,0.2-0.4,0.3c-0.3,0.4-0.4,0.9-0.4,1.4
	c0,0.5,0.1,1,0.4,1.4C227.8,218.1,228.3,218.3,228.7,218.3L228.7,218.3z"/>
<path class="st22" d="M309.8,434.9h-5.6v-0.8l3-3.3c0.3-0.4,0.6-0.8,0.9-1.2c0.2-0.3,0.3-0.7,0.2-1c0-0.4-0.1-0.8-0.4-1.1
	c-0.3-0.3-0.7-0.5-1.1-0.4c-0.5,0-0.9,0.1-1.2,0.5c-0.3,0.3-0.5,0.8-0.5,1.3h-1.1c0-0.7,0.2-1.4,0.8-1.9c0.5-0.5,1.3-0.8,2-0.7
	c0.7,0,1.4,0.2,1.9,0.6c0.5,0.4,0.7,1,0.7,1.7c-0.2,1.2-0.7,2.2-1.6,3l-2.3,2.5h4.3V434.9z M311.3,436.6l-0.6-0.4
	c0.3-0.5,0.6-1,0.6-1.6v-1h1.1v0.9c0,0.4-0.1,0.8-0.3,1.2C311.8,436,311.6,436.3,311.3,436.6L311.3,436.6z M317.8,432h1.2v0.9h-1.2
	v2h-1.1v-2h-3.9v-0.6l3.8-5.9h1.2V432z M314,432h2.6v-4.2l-0.1,0.2L314,432z M325.8,434.9h-5.6v-0.8l3-3.3c0.3-0.4,0.6-0.8,0.9-1.2
	c0.2-0.3,0.3-0.7,0.2-1c0-0.4-0.1-0.8-0.4-1.1c-0.3-0.3-0.7-0.5-1.1-0.4c-0.5,0-0.9,0.1-1.2,0.5c-0.3,0.3-0.5,0.8-0.5,1.3h-1.1
	c0-0.7,0.2-1.4,0.8-1.9c0.5-0.5,1.3-0.8,2-0.7c0.7,0,1.4,0.2,1.9,0.6c0.5,0.4,0.7,1,0.7,1.7c-0.2,1.2-0.7,2.2-1.6,3l-2.3,2.5h4.3
	V434.9z M332.4,428.5c0,0.4-0.1,0.8-0.3,1.1c-0.2,0.3-0.5,0.6-0.9,0.8c0.4,0.2,0.8,0.5,1,0.9c0.3,0.4,0.4,0.8,0.4,1.2
	c0,0.7-0.3,1.3-0.8,1.8c-0.5,0.5-1.2,0.7-2,0.7c-0.7,0-1.4-0.2-2-0.7c-0.5-0.5-0.8-1.1-0.7-1.8c0-0.4,0.1-0.9,0.4-1.2
	c0.3-0.4,0.6-0.7,1-0.9c-0.4-0.2-0.7-0.4-0.9-0.8c-0.2-0.3-0.3-0.7-0.3-1.1c0-0.6,0.2-1.3,0.7-1.7c1.1-0.9,2.6-0.9,3.6,0
	C332.2,427.3,332.4,427.9,332.4,428.5L332.4,428.5z M331.5,432.5c0-0.4-0.1-0.9-0.5-1.2c-0.7-0.6-1.7-0.6-2.4,0
	c-0.3,0.3-0.5,0.7-0.4,1.2c0,0.4,0.1,0.8,0.4,1.1c0.3,0.3,0.8,0.4,1.2,0.4c0.4,0,0.9-0.1,1.2-0.4C331.4,433.4,331.5,433,331.5,432.5
	L331.5,432.5z M329.9,427.1c-0.4,0-0.8,0.1-1,0.4c-0.5,0.6-0.5,1.5,0,2.1c0.3,0.3,0.6,0.4,1,0.4c0.4,0,0.8-0.1,1-0.4
	c0.3-0.3,0.4-0.7,0.4-1c0-0.4-0.1-0.8-0.4-1.1C330.6,427.3,330.3,427.1,329.9,427.1L329.9,427.1z"/>
<path class="st21" d="M309.8,434.9h-5.6v-0.8l3-3.3c0.3-0.4,0.6-0.8,0.9-1.2c0.2-0.3,0.3-0.7,0.2-1c0-0.4-0.1-0.8-0.4-1.1
	c-0.3-0.3-0.7-0.5-1.1-0.4c-0.5,0-0.9,0.1-1.2,0.5c-0.3,0.3-0.5,0.8-0.5,1.3h-1.1c0-0.7,0.2-1.4,0.8-1.9c0.5-0.5,1.3-0.8,2-0.7
	c0.7,0,1.4,0.2,1.9,0.6c0.5,0.4,0.7,1,0.7,1.7c-0.2,1.2-0.7,2.2-1.6,3l-2.3,2.5h4.3V434.9z M311.3,436.6l-0.6-0.4
	c0.3-0.5,0.6-1,0.6-1.6v-1h1.1v0.9c0,0.4-0.1,0.8-0.3,1.2C311.8,436,311.6,436.3,311.3,436.6L311.3,436.6z M317.8,432h1.2v0.9h-1.2
	v2h-1.1v-2h-3.9v-0.6l3.8-5.9h1.2V432z M314,432h2.6v-4.2l-0.1,0.2L314,432z M325.8,434.9h-5.6v-0.8l3-3.3c0.3-0.4,0.6-0.8,0.9-1.2
	c0.2-0.3,0.3-0.7,0.2-1c0-0.4-0.1-0.8-0.4-1.1c-0.3-0.3-0.7-0.5-1.1-0.4c-0.5,0-0.9,0.1-1.2,0.5c-0.3,0.3-0.5,0.8-0.5,1.3h-1.1
	c0-0.7,0.2-1.4,0.8-1.9c0.5-0.5,1.3-0.8,2-0.7c0.7,0,1.4,0.2,1.9,0.6c0.5,0.4,0.7,1,0.7,1.7c-0.2,1.2-0.7,2.2-1.6,3l-2.3,2.5h4.3
	V434.9z M332.4,428.5c0,0.4-0.1,0.8-0.3,1.1c-0.2,0.3-0.5,0.6-0.9,0.8c0.4,0.2,0.8,0.5,1,0.9c0.3,0.4,0.4,0.8,0.4,1.2
	c0,0.7-0.3,1.3-0.8,1.8c-0.5,0.5-1.2,0.7-2,0.7c-0.7,0-1.4-0.2-2-0.7c-0.5-0.5-0.8-1.1-0.7-1.8c0-0.4,0.1-0.9,0.4-1.2
	c0.3-0.4,0.6-0.7,1-0.9c-0.4-0.2-0.7-0.4-0.9-0.8c-0.2-0.3-0.3-0.7-0.3-1.1c0-0.6,0.2-1.3,0.7-1.7c1.1-0.9,2.6-0.9,3.6,0
	C332.2,427.3,332.4,427.9,332.4,428.5L332.4,428.5z M331.5,432.5c0-0.4-0.1-0.9-0.5-1.2c-0.7-0.6-1.7-0.6-2.4,0
	c-0.3,0.3-0.5,0.7-0.4,1.2c0,0.4,0.1,0.8,0.4,1.1c0.3,0.3,0.8,0.4,1.2,0.4c0.4,0,0.9-0.1,1.2-0.4C331.4,433.4,331.5,433,331.5,432.5
	L331.5,432.5z M329.9,427.1c-0.4,0-0.8,0.1-1,0.4c-0.5,0.6-0.5,1.5,0,2.1c0.3,0.3,0.6,0.4,1,0.4c0.4,0,0.8-0.1,1-0.4
	c0.3-0.3,0.4-0.7,0.4-1c0-0.4-0.1-0.8-0.4-1.1C330.6,427.3,330.3,427.1,329.9,427.1L329.9,427.1z"/>
<path class="st23" d="M63.4,474c0.1,1-0.2,2-0.7,2.8c-0.5,0.6-1.2,1-2,0.9c-0.8,0.1-1.5-0.3-2-0.9c-0.5-0.8-0.7-1.8-0.7-2.7v-1.4
	c-0.1-1,0.2-1.9,0.6-2.8c1-1.1,2.8-1.2,3.9-0.2c0.1,0.1,0.1,0.1,0.2,0.2c0.5,0.8,0.7,1.8,0.7,2.7L63.4,474z M62.3,472.6
	c0-0.7-0.1-1.4-0.4-2c-0.3-0.4-0.7-0.7-1.2-0.6c-0.5,0-1,0.2-1.2,0.6c-0.3,0.6-0.4,1.3-0.4,1.9v1.7c0,0.7,0.1,1.4,0.4,2
	c0.3,0.4,0.7,0.7,1.2,0.6c0.5,0,0.9-0.2,1.2-0.6c0.3-0.6,0.5-1.3,0.4-2L62.3,472.6z"/>
<path class="st23" d="M40.6,395.2H35v-0.8l3-3.3c0.3-0.4,0.6-0.8,0.9-1.2c0.2-0.3,0.3-0.7,0.2-1c0-0.4-0.1-0.8-0.4-1.1
	c-0.3-0.3-0.7-0.5-1.1-0.4c-0.5,0-0.9,0.1-1.2,0.5c-0.3,0.3-0.5,0.8-0.5,1.3h-1.1c0-0.7,0.2-1.4,0.8-1.9c0.5-0.5,1.3-0.8,2-0.7
	c0.7,0,1.4,0.2,1.9,0.6c0.5,0.4,0.7,1,0.7,1.7c-0.2,1.2-0.7,2.2-1.6,3l-2.3,2.5h4.3V395.2z M42.1,396.9l-0.6-0.4
	c0.3-0.5,0.6-1,0.6-1.6v-1h1.1v0.8c0,0.4-0.1,0.8-0.3,1.2C42.6,396.3,42.4,396.6,42.1,396.9z M44.5,390.9l0.4-4.2h4.4v1h-3.5
	l-0.3,2.4c0.4-0.3,0.9-0.4,1.4-0.4c0.7,0,1.4,0.3,1.8,0.8c0.5,0.6,0.7,1.3,0.7,2.1c0,0.8-0.2,1.5-0.7,2.1c-0.5,0.5-1.3,0.8-2,0.8
	c-0.7,0-1.3-0.2-1.8-0.6c-0.5-0.5-0.8-1.1-0.8-1.8h1c0,0.4,0.2,0.8,0.5,1.1c0.3,0.3,0.7,0.4,1.1,0.4c0.5,0,0.9-0.2,1.2-0.5
	c0.3-0.4,0.5-0.9,0.4-1.4c0-0.5-0.1-1-0.5-1.4c-0.3-0.3-0.8-0.5-1.2-0.5c-0.4,0-0.8,0.1-1.1,0.3l-0.3,0.2L44.5,390.9z M56.4,391.5
	c0.1,1-0.2,2-0.7,2.8c-0.5,0.6-1.2,1-2,0.9c-0.8,0.1-1.5-0.3-2-0.9c-0.5-0.8-0.7-1.8-0.7-2.7v-1.4c-0.1-1,0.2-1.9,0.6-2.8
	c1-1.1,2.8-1.2,3.9-0.2c0.1,0.1,0.1,0.1,0.2,0.2c0.5,0.8,0.7,1.8,0.7,2.7L56.4,391.5z M55.3,390c0-0.7-0.1-1.4-0.4-2
	c-0.3-0.4-0.7-0.7-1.2-0.6c-0.5,0-1,0.2-1.2,0.6c-0.3,0.6-0.4,1.3-0.4,1.9v1.7c0,0.7,0.1,1.4,0.4,2c0.3,0.4,0.7,0.7,1.2,0.6
	c0.5,0,0.9-0.2,1.2-0.6c0.3-0.6,0.5-1.3,0.4-2L55.3,390z M63.4,391.5c0.1,1-0.2,2-0.7,2.8c-0.5,0.6-1.2,1-2,0.9
	c-0.8,0.1-1.5-0.3-2-0.9c-0.5-0.8-0.7-1.8-0.7-2.7v-1.4c-0.1-1,0.2-1.9,0.6-2.8c1-1.1,2.8-1.2,3.9-0.2c0.1,0.1,0.1,0.1,0.2,0.2
	c0.5,0.8,0.7,1.8,0.7,2.7L63.4,391.5z M62.3,390c0-0.7-0.1-1.4-0.4-2c-0.3-0.4-0.7-0.7-1.2-0.6c-0.5,0-1,0.2-1.2,0.6
	c-0.3,0.6-0.4,1.3-0.4,1.9v1.7c0,0.7,0.1,1.4,0.4,2c0.3,0.4,0.7,0.7,1.2,0.6c0.5,0,0.9-0.2,1.2-0.6c0.3-0.6,0.5-1.3,0.4-2L62.3,390z
	"/>
<path class="st23" d="M35.5,308.4l0.4-4.2h4.4v1h-3.5l-0.3,2.3c0.4-0.3,0.9-0.4,1.4-0.4c0.7,0,1.4,0.3,1.8,0.8
	c0.5,0.6,0.7,1.3,0.7,2.1c0,0.8-0.2,1.5-0.7,2.1c-0.5,0.5-1.3,0.8-2,0.8c-0.7,0-1.3-0.2-1.8-0.6c-0.5-0.5-0.8-1.1-0.8-1.8h1
	c0,0.4,0.2,0.8,0.5,1.1c0.3,0.3,0.7,0.4,1.1,0.4c0.5,0,0.9-0.2,1.2-0.5c0.3-0.4,0.5-0.9,0.4-1.4c0-0.5-0.1-1-0.5-1.4
	c-0.3-0.3-0.8-0.5-1.2-0.5c-0.4,0-0.8,0.1-1.1,0.3l-0.3,0.2L35.5,308.4z M42.1,314.4l-0.6-0.4c0.3-0.5,0.6-1,0.6-1.6v-1h1.1v0.8
	c0,0.4-0.1,0.8-0.3,1.2C42.6,313.8,42.4,314.1,42.1,314.4L42.1,314.4z M49.4,309.1c0.1,1-0.2,2-0.7,2.8c-0.5,0.6-1.2,1-2,0.9
	c-0.8,0.1-1.5-0.3-2-0.9c-0.5-0.8-0.7-1.8-0.7-2.7v-1.4c-0.1-1,0.2-1.9,0.6-2.8c1-1.1,2.8-1.2,3.9-0.2c0.1,0.1,0.1,0.1,0.2,0.2
	c0.5,0.8,0.7,1.8,0.7,2.7L49.4,309.1z M48.3,307.6c0-0.7-0.1-1.4-0.4-2c-0.3-0.4-0.7-0.7-1.2-0.6c-0.5,0-1,0.2-1.2,0.6
	c-0.3,0.6-0.4,1.3-0.4,1.9v1.7c0,0.7,0.1,1.4,0.4,2c0.3,0.4,0.7,0.7,1.2,0.6c0.5,0,0.9-0.2,1.2-0.6c0.3-0.6,0.5-1.3,0.4-2
	L48.3,307.6z M56.4,309.1c0.1,1-0.2,2-0.7,2.8c-0.5,0.6-1.2,1-2,0.9c-0.8,0.1-1.5-0.3-2-0.9c-0.5-0.8-0.7-1.8-0.7-2.7v-1.4
	c-0.1-1,0.2-1.9,0.6-2.8c1-1.1,2.8-1.2,3.9-0.2c0.1,0.1,0.1,0.1,0.2,0.2c0.5,0.8,0.7,1.8,0.7,2.7L56.4,309.1z M55.3,307.6
	c0-0.7-0.1-1.4-0.4-2c-0.3-0.4-0.7-0.7-1.2-0.6c-0.5,0-1,0.2-1.2,0.6c-0.3,0.6-0.4,1.3-0.4,1.9v1.7c0,0.7,0.1,1.4,0.4,2
	c0.3,0.4,0.7,0.7,1.2,0.6c0.5,0,0.9-0.2,1.2-0.6c0.3-0.6,0.5-1.3,0.4-2L55.3,307.6z M63.4,309.1c0.1,1-0.2,2-0.7,2.8
	c-0.5,0.6-1.2,1-2,0.9c-0.8,0.1-1.5-0.3-2-0.9c-0.5-0.8-0.7-1.8-0.7-2.7v-1.4c-0.1-1,0.2-1.9,0.6-2.8c1-1.1,2.8-1.2,3.9-0.2
	c0.1,0.1,0.1,0.1,0.2,0.2c0.5,0.8,0.7,1.8,0.7,2.7L63.4,309.1z M62.3,307.6c0-0.7-0.1-1.4-0.4-2c-0.3-0.4-0.7-0.7-1.2-0.6
	c-0.5,0-1,0.2-1.2,0.6c-0.3,0.6-0.4,1.3-0.4,1.9v1.7c0,0.7,0.1,1.4,0.4,2c0.3,0.4,0.7,0.7,1.2,0.6c0.5,0,0.9-0.2,1.2-0.6
	c0.3-0.6,0.5-1.3,0.4-2L62.3,307.6z"/>
<path class="st23" d="M40.5,222.3l-3.5,7.9h-1.2l3.5-7.6h-4.6v-0.9h5.8V222.3z M42.1,231.9l-0.6-0.4c0.3-0.5,0.6-1,0.6-1.6v-1h1.1
	v0.8c0,0.4-0.1,0.8-0.3,1.2C42.6,231.3,42.4,231.6,42.1,231.9z M44.5,225.9l0.4-4.2h4.4v1h-3.5l-0.3,2.4c0.4-0.3,0.9-0.4,1.4-0.4
	c0.7,0,1.4,0.3,1.8,0.8c0.5,0.6,0.7,1.3,0.7,2.1c0,0.8-0.2,1.5-0.7,2.1c-0.5,0.5-1.3,0.8-2,0.8c-0.7,0-1.3-0.2-1.8-0.6
	c-0.5-0.5-0.8-1.1-0.8-1.8h1c0,0.4,0.2,0.8,0.5,1.1c0.3,0.3,0.7,0.4,1.1,0.4c0.5,0,0.9-0.2,1.2-0.5c0.3-0.4,0.5-0.9,0.4-1.4
	c0-0.5-0.1-1-0.5-1.4c-0.3-0.3-0.8-0.5-1.2-0.5c-0.4,0-0.8,0.1-1.1,0.3l-0.3,0.2L44.5,225.9z M56.4,226.5c0.1,1-0.2,2-0.7,2.8
	c-0.5,0.6-1.2,1-2,0.9c-0.8,0.1-1.5-0.3-2-0.9c-0.5-0.8-0.7-1.8-0.7-2.7v-1.4c-0.1-1,0.2-1.9,0.6-2.8c1-1.1,2.8-1.2,3.9-0.2
	c0.1,0.1,0.1,0.1,0.2,0.2c0.5,0.8,0.7,1.8,0.7,2.7L56.4,226.5z M55.3,225c0-0.7-0.1-1.4-0.4-2c-0.3-0.4-0.7-0.7-1.2-0.6
	c-0.5,0-1,0.2-1.2,0.6c-0.3,0.6-0.4,1.3-0.4,1.9v1.7c0,0.7,0.1,1.4,0.4,2.1c0.3,0.4,0.7,0.7,1.2,0.6c0.5,0,0.9-0.2,1.2-0.6
	c0.3-0.6,0.5-1.3,0.4-2L55.3,225z M63.4,226.5c0.1,1-0.2,2-0.7,2.8c-0.5,0.6-1.2,1-2,0.9c-0.8,0.1-1.5-0.3-2-0.9
	c-0.5-0.8-0.7-1.8-0.7-2.7v-1.4c-0.1-1,0.2-1.9,0.6-2.8c1-1.1,2.8-1.2,3.9-0.2c0.1,0.1,0.1,0.1,0.2,0.2c0.5,0.8,0.7,1.8,0.7,2.7
	L63.4,226.5z M62.3,225c0-0.7-0.1-1.4-0.4-2c-0.3-0.4-0.7-0.7-1.2-0.6c-0.5,0-1,0.2-1.2,0.6c-0.3,0.6-0.4,1.3-0.4,1.9v1.7
	c0,0.7,0.1,1.4,0.4,2.1c0.3,0.4,0.7,0.7,1.2,0.6c0.5,0,0.9-0.2,1.2-0.6c0.3-0.6,0.5-1.3,0.4-2L62.3,225z"/>
<path class="st23" d="M31.6,147.7h-1.1v-7.2l-2.2,0.8v-1l3.1-1.2h0.2V147.7z M40.4,144.1c0.1,1-0.2,2-0.7,2.8c-0.5,0.6-1.2,1-2,0.9
	c-0.8,0.1-1.5-0.3-2-0.9c-0.5-0.8-0.7-1.8-0.7-2.7v-1.4c-0.1-1,0.2-1.9,0.6-2.8c1-1.1,2.8-1.2,3.9-0.2c0.1,0.1,0.1,0.1,0.2,0.2
	c0.5,0.8,0.7,1.8,0.7,2.7L40.4,144.1z M39.3,142.6c0-0.7-0.1-1.4-0.4-2c-0.3-0.4-0.7-0.7-1.2-0.6c-0.5,0-1,0.2-1.2,0.6
	c-0.3,0.6-0.4,1.3-0.4,1.9v1.7c0,0.7,0.1,1.4,0.4,2.1c0.3,0.4,0.7,0.7,1.2,0.6c0.5,0,0.9-0.2,1.2-0.6c0.3-0.6,0.5-1.3,0.4-2
	L39.3,142.6z M42.1,149.4l-0.6-0.4c0.3-0.5,0.6-1,0.6-1.6v-1h1.1v0.8c0,0.4-0.1,0.8-0.3,1.2C42.6,148.8,42.4,149.1,42.1,149.4z
	 M49.4,144.1c0.1,1-0.2,2-0.7,2.8c-0.5,0.6-1.2,1-2,0.9c-0.8,0.1-1.5-0.3-2-0.9c-0.5-0.8-0.7-1.8-0.7-2.7v-1.4
	c-0.1-1,0.2-1.9,0.6-2.8c1-1.1,2.8-1.2,3.9-0.2c0.1,0.1,0.1,0.1,0.2,0.2c0.5,0.8,0.7,1.8,0.7,2.7L49.4,144.1z M48.3,142.6
	c0-0.7-0.1-1.4-0.4-2c-0.3-0.4-0.7-0.7-1.2-0.6c-0.5,0-1,0.2-1.2,0.6c-0.3,0.6-0.4,1.3-0.4,1.9v1.7c0,0.7,0.1,1.4,0.4,2.1
	c0.3,0.4,0.7,0.7,1.2,0.6c0.5,0,0.9-0.2,1.2-0.6c0.3-0.6,0.5-1.3,0.4-2L48.3,142.6z M56.4,144.1c0.1,1-0.2,2-0.7,2.8
	c-0.5,0.6-1.2,1-2,0.9c-0.8,0.1-1.5-0.3-2-0.9c-0.5-0.8-0.7-1.8-0.7-2.7v-1.4c-0.1-1,0.2-1.9,0.6-2.8c1-1.1,2.8-1.2,3.9-0.2
	c0.1,0.1,0.1,0.1,0.2,0.2c0.5,0.8,0.7,1.8,0.7,2.7L56.4,144.1z M55.3,142.6c0-0.7-0.1-1.4-0.4-2c-0.3-0.4-0.7-0.7-1.2-0.6
	c-0.5,0-1,0.2-1.2,0.6c-0.3,0.6-0.4,1.3-0.4,1.9v1.7c0,0.7,0.1,1.4,0.4,2.1c0.3,0.4,0.7,0.7,1.2,0.6c0.5,0,0.9-0.2,1.2-0.6
	c0.3-0.6,0.5-1.3,0.4-2L55.3,142.6z M63.4,144.1c0.1,1-0.2,2-0.7,2.8c-0.5,0.6-1.2,1-2,0.9c-0.8,0.1-1.5-0.3-2-0.9
	c-0.5-0.8-0.7-1.8-0.7-2.7v-1.4c-0.1-1,0.2-1.9,0.6-2.8c1-1.1,2.8-1.2,3.9-0.2c0.1,0.1,0.1,0.1,0.2,0.2c0.5,0.8,0.7,1.8,0.7,2.7
	L63.4,144.1z M62.3,142.6c0-0.7-0.1-1.4-0.4-2c-0.3-0.4-0.7-0.7-1.2-0.6c-0.5,0-1,0.2-1.2,0.6c-0.3,0.6-0.4,1.3-0.4,1.9v1.7
	c0,0.7,0.1,1.4,0.4,2.1c0.3,0.4,0.7,0.7,1.2,0.6c0.5,0,0.9-0.2,1.2-0.6c0.3-0.6,0.5-1.3,0.4-2L62.3,142.6z"/>
<path class="st2" d="M66,529.4c0-0.6,0.4-1,1-1h10c0.6,0,1,0.4,1,1v10c0,0.6-0.4,1-1,1H67c-0.6,0-1-0.4-1-1V529.4z"/>
<path class="st23" d="M89.6,534.6l2.2-4.3h1.3l-2.9,5.3v3.2H89v-3.2l-2.9-5.3h1.3L89.6,534.6z M97.7,538.3c-0.5,0.5-1.2,0.8-1.8,0.8
	c-0.6,0-1.1-0.2-1.6-0.6c-0.4-0.5-0.6-1.1-0.5-1.8v-4.1h1.1v4.1c0,1,0.4,1.5,1.2,1.5c0.7,0.1,1.4-0.3,1.7-0.9v-4.6h1.1v6.3h-1
	L97.7,538.3z M100.6,535.7c0-0.8,0.2-1.7,0.7-2.4c0.4-0.6,1.1-0.9,1.8-0.9c0.7,0,1.4,0.3,1.8,0.8v-0.7h1v6.2c0,0.7-0.2,1.4-0.7,1.9
	c-0.5,0.5-1.3,0.8-2,0.7c-0.5,0-0.9-0.1-1.3-0.3c-0.4-0.2-0.7-0.4-1-0.8l0.6-0.7c0.4,0.5,1,0.9,1.7,0.9c0.5,0,0.9-0.1,1.2-0.5
	c0.3-0.3,0.5-0.8,0.4-1.2v-0.5c-0.4,0.5-1.1,0.8-1.8,0.8c-0.7,0-1.4-0.3-1.8-0.9C100.7,537.4,100.5,536.5,100.6,535.7z M101.7,535.8
	c0,0.6,0.1,1.2,0.4,1.7c0.3,0.4,0.7,0.6,1.2,0.6c0.6,0,1.2-0.3,1.5-0.9v-2.9c-0.3-0.6-0.9-0.9-1.5-0.9c-0.5,0-1,0.2-1.2,0.6
	C101.8,534.5,101.6,535.2,101.7,535.8z M111.7,538.9c-0.1-0.2-0.1-0.4-0.2-0.7c-0.5,0.5-1.1,0.8-1.8,0.8c-0.6,0-1.1-0.2-1.6-0.5
	c-0.4-0.3-0.6-0.8-0.6-1.4c0-0.6,0.3-1.2,0.8-1.5c0.6-0.4,1.4-0.6,2.1-0.5h1v-0.5c0-0.3-0.1-0.7-0.3-0.9c-0.3-0.2-0.6-0.4-1-0.3
	c-0.4,0-0.7,0.1-1,0.3c-0.2,0.2-0.4,0.4-0.4,0.7h-1.1c0-0.3,0.1-0.7,0.3-0.9c0.2-0.3,0.6-0.5,0.9-0.7c0.4-0.2,0.8-0.3,1.3-0.3
	c0.6,0,1.3,0.2,1.8,0.6c0.4,0.4,0.7,0.9,0.7,1.5v2.9c0,0.5,0.1,0.9,0.2,1.4v0.1L111.7,538.9z M109.9,538.1c0.4,0,0.7-0.1,1-0.3
	c0.3-0.2,0.5-0.4,0.7-0.7v-1.3h-0.8c-1.3,0-2,0.4-2,1.2c0,0.3,0.1,0.6,0.3,0.8C109.3,538,109.6,538.1,109.9,538.1L109.9,538.1z
	 M114.9,538.9v-8.5h2.8c0.7-0.1,1.5,0.1,2.1,0.6c0.5,0.4,0.8,1,0.7,1.7c0,0.4-0.1,0.8-0.3,1.1c-0.2,0.3-0.6,0.6-0.9,0.7
	c0.4,0.1,0.8,0.4,1.1,0.7c0.3,0.4,0.4,0.8,0.4,1.3c0,0.7-0.2,1.4-0.8,1.8c-0.6,0.5-1.3,0.7-2.1,0.7H114.9z M116.1,534.9v3.1h1.9
	c0.5,0,0.9-0.1,1.2-0.4c0.3-0.3,0.5-0.7,0.4-1.1c0-1-0.6-1.5-1.7-1.5L116.1,534.9z M116.1,534h1.7c0.4,0,0.8-0.1,1.2-0.4
	c0.3-0.2,0.5-0.6,0.5-1c0-0.4-0.1-0.8-0.4-1c-0.4-0.2-0.8-0.4-1.2-0.3h-1.7L116.1,534z M123.8,537.3l1.5-4.8h1.2l-2.5,7.3
	c-0.4,1-1,1.6-1.9,1.6h-0.2l-0.4-0.1v-0.9h0.3c0.3,0,0.6-0.1,0.9-0.2c0.2-0.2,0.4-0.5,0.5-0.8l0.2-0.7l-2.3-6.3h1.2L123.8,537.3z
	 M129.3,531v1.5h1.2v0.8h-1.2v3.9c0,0.2,0,0.4,0.1,0.6c0.1,0.1,0.3,0.2,0.5,0.2c0.2,0,0.3,0,0.5-0.1v0.9c-0.3,0.1-0.5,0.1-0.8,0.1
	c-0.4,0-0.8-0.1-1.1-0.4c-0.3-0.4-0.4-0.8-0.4-1.3v-3.9H127v-0.8h1.2V531H129.3z M134.4,539c-0.8,0-1.6-0.3-2.1-0.8
	c-0.5-0.6-0.8-1.4-0.8-2.3v-0.2c0-0.6,0.1-1.2,0.4-1.7c0.2-0.5,0.6-0.9,1-1.2c0.4-0.3,0.9-0.4,1.4-0.4c0.7,0,1.4,0.3,1.9,0.8
	c0.5,0.7,0.7,1.5,0.7,2.3v0.4h-4.3c0,0.6,0.2,1.1,0.6,1.5c0.3,0.4,0.8,0.6,1.4,0.6c0.3,0,0.7-0.1,0.9-0.2c0.3-0.2,0.5-0.4,0.7-0.6
	l0.6,0.5C136.3,538.6,135.4,539.1,134.4,539z M134.3,533.3c-0.4,0-0.8,0.2-1.1,0.5c-0.3,0.4-0.5,0.8-0.5,1.3h3.2V535
	c0-0.5-0.2-0.9-0.4-1.3C135.1,533.5,134.7,533.3,134.3,533.3L134.3,533.3z M141,538.9v-8.5h2.4c0.7,0,1.4,0.1,2,0.5
	c0.6,0.3,1,0.8,1.3,1.4c0.3,0.6,0.5,1.4,0.5,2.1v0.5c0,0.7-0.1,1.5-0.5,2.1c-0.3,0.6-0.8,1.1-1.3,1.4c-0.6,0.3-1.3,0.5-2,0.5
	L141,538.9z M142.1,531.3v6.7h1.2c0.8,0,1.5-0.3,2-0.8c0.5-0.6,0.8-1.5,0.7-2.3v-0.5c0.1-0.8-0.2-1.6-0.7-2.2
	c-0.5-0.6-1.2-0.9-1.9-0.8L142.1,531.3z M149,538.9v-8.5h2.8c0.7-0.1,1.5,0.1,2.1,0.6c0.5,0.4,0.8,1,0.7,1.7c0,0.4-0.1,0.8-0.3,1.1
	c-0.2,0.3-0.6,0.6-0.9,0.7c0.4,0.1,0.8,0.4,1.1,0.7c0.3,0.4,0.4,0.8,0.4,1.3c0,0.7-0.2,1.4-0.8,1.8c-0.6,0.5-1.3,0.7-2.1,0.7H149z
	 M150.1,534.9v3.1h1.9c0.5,0,0.9-0.1,1.2-0.4c0.3-0.3,0.5-0.7,0.4-1.1c0-1-0.6-1.5-1.7-1.5L150.1,534.9z M150.1,534h1.7
	c0.4,0,0.8-0.1,1.2-0.4c0.3-0.2,0.5-0.6,0.5-1c0-0.4-0.1-0.8-0.4-1c-0.4-0.2-0.8-0.4-1.2-0.3h-1.7V534z M158.8,535.4
	c0-0.9,0.1-1.7,0.3-2.5c0.2-0.8,0.6-1.5,1.1-2.2c0.4-0.6,0.9-1.1,1.5-1.4l0.2,0.7c-0.6,0.5-1.1,1.2-1.4,2c-0.4,1-0.6,2-0.6,3v0.5
	c0,1.4,0.3,2.7,0.8,3.9c0.3,0.6,0.7,1.1,1.2,1.6l-0.2,0.7c-0.6-0.4-1.1-0.9-1.5-1.5C159.2,538.7,158.7,537.1,158.8,535.4
	L158.8,535.4z M166.3,538.9h-1.1v-7.2l-2.2,0.8v-1l3.1-1.2h0.2V538.9z M174.3,536h1.2v0.9h-1.2v2h-1.1v-2h-3.9v-0.6l3.8-5.9h1.2
	L174.3,536z M170.5,536h2.6v-4.2l-0.1,0.2L170.5,536z M176.8,538.3c0-0.2,0.1-0.3,0.2-0.5c0.1-0.1,0.3-0.2,0.5-0.2
	c0.2,0,0.4,0.1,0.5,0.2c0.2,0.3,0.2,0.7,0,0.9c-0.1,0.1-0.3,0.2-0.5,0.2c-0.2,0-0.4,0-0.5-0.2C176.9,538.6,176.8,538.5,176.8,538.3
	L176.8,538.3z M184.3,536h1.2v0.9h-1.2v2h-1.1v-2h-3.9v-0.6l3.8-5.9h1.2L184.3,536z M180.5,536h2.6v-4.2l-0.1,0.2L180.5,536z
	 M187.8,532.5v0.7c0.5-0.5,1.2-0.9,1.9-0.8c0.8-0.1,1.5,0.3,1.8,1c0.2-0.3,0.5-0.6,0.8-0.7c0.4-0.2,0.8-0.3,1.2-0.3
	c1.4,0,2.1,0.7,2.1,2.2v4.2h-1.1v-4.2c0-0.4-0.1-0.7-0.3-1c-0.3-0.2-0.6-0.4-1-0.3c-0.4,0-0.7,0.1-1,0.4c-0.3,0.3-0.4,0.6-0.4,1v4.2
	h-1.1v-4.2c0.1-0.7-0.3-1.3-1-1.4c-0.1,0-0.2,0-0.4,0c-0.6,0-1.2,0.3-1.4,0.9v4.6h-1.1v-6.3L187.8,532.5z M201.5,537.2
	c0-0.3-0.1-0.5-0.4-0.7c-0.3-0.2-0.7-0.4-1.1-0.4c-0.5-0.1-0.9-0.2-1.3-0.4c-0.3-0.1-0.5-0.3-0.7-0.6c-0.2-0.2-0.2-0.5-0.2-0.8
	c0-0.5,0.2-1,0.7-1.3c1-0.7,2.4-0.7,3.4,0c0.4,0.3,0.7,0.9,0.7,1.4h-1.1c0-0.3-0.1-0.6-0.4-0.8c-0.3-0.2-0.6-0.3-0.9-0.3
	c-0.3,0-0.7,0.1-0.9,0.3c-0.2,0.2-0.3,0.4-0.3,0.7c0,0.2,0.1,0.5,0.3,0.6c0.4,0.2,0.7,0.3,1.1,0.4c0.5,0.1,0.9,0.2,1.3,0.4
	c0.3,0.1,0.5,0.3,0.7,0.6c0.2,0.3,0.3,0.6,0.2,0.9c0,0.5-0.2,1.1-0.7,1.4c-0.5,0.4-1.1,0.5-1.8,0.5c-0.5,0-0.9-0.1-1.4-0.3
	c-0.4-0.2-0.7-0.4-0.9-0.8c-0.2-0.3-0.3-0.7-0.3-1h1.1c0,0.3,0.2,0.7,0.4,0.9c0.6,0.4,1.4,0.4,2.1,0.1
	C201.4,537.7,201.5,537.5,201.5,537.2L201.5,537.2z M208,538.9h-1.1v-9h1.1L208,538.9z M213.7,538.9c-0.1-0.2-0.1-0.4-0.1-0.7
	c-0.5,0.5-1.1,0.8-1.8,0.8c-0.6,0-1.1-0.2-1.6-0.5c-0.4-0.3-0.6-0.8-0.6-1.4c0-0.6,0.3-1.2,0.8-1.5c0.6-0.4,1.4-0.6,2.1-0.5h1v-0.5
	c0-0.3-0.1-0.7-0.3-0.9c-0.3-0.2-0.6-0.4-1-0.3c-0.4,0-0.7,0.1-1,0.3c-0.2,0.2-0.4,0.4-0.4,0.7h-1.1c0-0.3,0.1-0.7,0.3-0.9
	c0.2-0.3,0.6-0.5,0.9-0.7c0.4-0.2,0.8-0.3,1.3-0.3c0.7,0,1.3,0.2,1.8,0.6c0.4,0.4,0.7,0.9,0.7,1.5v2.9c0,0.5,0.1,0.9,0.2,1.4v0.1
	L213.7,538.9z M211.9,538c0.4,0,0.7-0.1,1-0.3c0.3-0.2,0.5-0.4,0.6-0.7v-1.3h-0.8c-1.3,0-2,0.4-2,1.2c0,0.3,0.1,0.6,0.3,0.8
	C211.3,538,211.6,538.1,211.9,538L211.9,538z M218.3,531v1.5h1.2v0.8h-1.2v3.9c0,0.2,0,0.4,0.1,0.6c0.1,0.1,0.3,0.2,0.5,0.2
	c0.2,0,0.3,0,0.5-0.1v0.9c-0.3,0.1-0.5,0.1-0.8,0.1c-0.4,0-0.8-0.1-1.1-0.4c-0.3-0.4-0.4-0.8-0.4-1.3v-3.9h-1.1v-0.8h1.1V531
	L218.3,531z M223.4,539c-0.8,0-1.6-0.3-2.1-0.8c-0.5-0.6-0.8-1.4-0.8-2.3v-0.2c0-0.6,0.1-1.2,0.4-1.7c0.2-0.5,0.6-0.9,1-1.2
	c0.4-0.3,0.9-0.4,1.4-0.4c0.7,0,1.4,0.3,1.9,0.8c0.5,0.7,0.7,1.5,0.7,2.3v0.4h-4.3c0,0.6,0.2,1.1,0.6,1.5c0.3,0.4,0.8,0.6,1.4,0.6
	c0.3,0,0.7-0.1,0.9-0.2c0.3-0.2,0.5-0.4,0.7-0.6l0.6,0.5C225.3,538.6,224.4,539,223.4,539L223.4,539z M223.3,533.4
	c-0.4,0-0.8,0.2-1.1,0.5c-0.3,0.4-0.5,0.8-0.5,1.3h3.2v-0.1c0-0.5-0.2-0.9-0.4-1.3C224.1,533.5,223.7,533.3,223.3,533.4L223.3,533.4
	z M227.8,532.6v0.8c0.5-0.6,1.2-0.9,1.9-0.9c1.3,0,2,0.8,2,2.3v4.2h-1.1v-4.2c0-0.4-0.1-0.7-0.3-1c-0.3-0.2-0.6-0.4-1-0.3
	c-0.3,0-0.7,0.1-0.9,0.3c-0.3,0.2-0.5,0.4-0.6,0.7v4.5h-1.1v-6.3L227.8,532.6z M236.4,538.1c0.4,0,0.7-0.1,1-0.3
	c0.3-0.2,0.5-0.5,0.5-0.9h1c0,0.4-0.2,0.7-0.4,1c-0.2,0.3-0.6,0.6-0.9,0.8c-0.4,0.2-0.8,0.3-1.2,0.3c-0.8,0-1.5-0.3-2.1-0.9
	c-0.5-0.7-0.8-1.5-0.8-2.4v-0.2c0-0.6,0.1-1.1,0.3-1.6c0.2-0.5,0.6-0.8,1-1.1c0.5-0.3,1-0.4,1.5-0.4c0.6,0,1.3,0.2,1.8,0.7
	c0.5,0.4,0.8,1,0.8,1.7h-1c0-0.8-0.7-1.4-1.5-1.4c-0.5,0-1,0.2-1.3,0.6c-0.3,0.5-0.5,1.1-0.5,1.7v0.2c0,0.6,0.1,1.2,0.5,1.7
	C235.4,537.9,235.9,538.1,236.4,538.1L236.4,538.1z M241.9,537.3l1.5-4.8h1.1l-2.5,7.3c-0.4,1-1,1.6-1.9,1.6h-0.2l-0.4-0.1v-0.9h0.3
	c0.3,0,0.6-0.1,0.9-0.2c0.2-0.2,0.4-0.5,0.5-0.8l0.2-0.7l-2.3-6.3h1.2L241.9,537.3z M248.3,535.5c0,0.8-0.1,1.7-0.3,2.5
	c-0.2,0.8-0.6,1.5-1.1,2.2c-0.4,0.6-0.9,1.1-1.5,1.4l-0.2-0.7c0.7-0.6,1.2-1.3,1.4-2.1c0.4-1,0.6-2.1,0.6-3.2v-0.2
	c0-0.8-0.1-1.5-0.3-2.3c-0.2-0.7-0.4-1.3-0.7-1.9c-0.2-0.5-0.6-0.9-1-1.3l0.2-0.7c0.6,0.4,1.1,0.8,1.5,1.4c0.5,0.7,0.8,1.4,1,2.2
	C248.2,533.7,248.3,534.6,248.3,535.5L248.3,535.5z"/>
<path class="st19" d="M265,529.4c0-0.6,0.4-1,1-1h10c0.6,0,1,0.4,1,1v10c0,0.6-0.4,1-1,1h-10c-0.6,0-1-0.4-1-1V529.4z"/>
<path class="st23" d="M292.3,536.2c-0.1,0.8-0.4,1.5-1,2.1c-0.6,0.5-1.5,0.8-2.3,0.7c-0.9,0-1.8-0.4-2.4-1.1c-0.6-0.8-1-1.9-0.9-2.9
	v-0.8c0-0.7,0.1-1.4,0.4-2.1c0.3-0.6,0.7-1.1,1.2-1.4c0.5-0.3,1.2-0.5,1.8-0.5c0.8,0,1.6,0.2,2.2,0.8c0.6,0.5,0.9,1.3,1,2.1h-1.1
	c0-0.5-0.3-1.1-0.6-1.5c-0.4-0.3-0.9-0.5-1.4-0.5c-0.7,0-1.3,0.3-1.7,0.8c-0.4,0.7-0.7,1.5-0.6,2.3v0.8c0,0.8,0.2,1.6,0.6,2.2
	c0.4,0.5,1,0.8,1.6,0.8c0.5,0,1-0.1,1.4-0.4c0.4-0.4,0.6-0.9,0.7-1.5L292.3,536.2z M293.5,535.6c0-0.6,0.1-1.1,0.4-1.7
	c0.2-0.5,0.6-0.9,1-1.1c0.4-0.3,1-0.4,1.5-0.4c0.8,0,1.6,0.3,2.1,0.9c0.6,0.7,0.9,1.5,0.8,2.4v0.1c0,0.6-0.1,1.1-0.4,1.7
	c-0.2,0.5-0.6,0.9-1,1.2c-0.5,0.3-1,0.4-1.5,0.4c-0.8,0-1.6-0.3-2.1-0.9C293.8,537.5,293.5,536.6,293.5,535.6L293.5,535.6z
	 M294.6,535.8c0,0.6,0.1,1.2,0.5,1.7c0.3,0.4,0.8,0.7,1.3,0.6c0.5,0,1-0.2,1.3-0.6c0.4-0.5,0.5-1.2,0.5-1.8c0-0.6-0.2-1.2-0.5-1.7
	c-0.3-0.4-0.8-0.7-1.3-0.7c-0.5,0-1,0.2-1.3,0.6C294.8,534.5,294.6,535.1,294.6,535.8z M303.4,538.1c0.4,0,0.7-0.1,1-0.3
	c0.3-0.2,0.5-0.5,0.5-0.9h1c0,0.4-0.2,0.7-0.4,1c-0.2,0.3-0.6,0.6-0.9,0.8c-0.4,0.2-0.8,0.3-1.2,0.3c-0.8,0-1.5-0.3-2.1-0.9
	c-0.5-0.7-0.8-1.5-0.8-2.4v-0.2c0-0.6,0.1-1.1,0.3-1.6c0.2-0.5,0.6-0.8,1-1.1c0.5-0.3,1-0.4,1.5-0.4c0.6,0,1.3,0.2,1.8,0.7
	c0.5,0.4,0.8,1,0.8,1.7h-1c0-0.8-0.7-1.4-1.5-1.4c-0.5,0-1,0.2-1.3,0.6c-0.3,0.5-0.5,1.1-0.5,1.7v0.2c0,0.6,0.1,1.2,0.5,1.7
	C302.4,537.9,302.9,538.1,303.4,538.1z M308.6,536l-0.7,0.7v2.2h-1.1v-9h1.1v5.4l0.6-0.7l2-2.1h1.3l-2.5,2.7l2.8,3.7h-1.3L308.6,536
	z M315.9,533.5c-0.2,0-0.4,0-0.5,0c-0.6-0.1-1.2,0.3-1.5,0.9v4.5h-1.1v-6.3h1v0.7c0.3-0.5,0.9-0.9,1.5-0.8c0.2,0,0.3,0,0.5,0.1
	L315.9,533.5z M316.5,535.7c0-0.6,0.1-1.1,0.4-1.7c0.2-0.5,0.6-0.9,1-1.1c0.4-0.3,1-0.4,1.5-0.4c0.8,0,1.6,0.3,2.1,0.9
	c0.6,0.7,0.9,1.5,0.8,2.4v0.1c0,0.6-0.1,1.1-0.4,1.7c-0.2,0.5-0.6,0.9-1,1.2c-0.5,0.3-1,0.4-1.5,0.4c-0.8,0-1.6-0.3-2.1-0.9
	C316.8,537.5,316.5,536.6,316.5,535.7L316.5,535.7z M317.6,535.8c0,0.6,0.1,1.2,0.5,1.7c0.3,0.4,0.8,0.7,1.3,0.6
	c0.5,0,1-0.2,1.3-0.6c0.4-0.5,0.5-1.2,0.5-1.8c0-0.6-0.2-1.2-0.5-1.7c-0.3-0.4-0.8-0.7-1.3-0.7c-0.5,0-1,0.2-1.3,0.6
	C317.8,534.5,317.6,535.1,317.6,535.8L317.6,535.8z M327.7,538.9c-0.1-0.2-0.1-0.4-0.1-0.7c-0.5,0.5-1.1,0.8-1.8,0.8
	c-0.6,0-1.1-0.2-1.5-0.5c-0.4-0.3-0.6-0.8-0.6-1.4c0-0.6,0.3-1.2,0.8-1.5c0.6-0.4,1.4-0.6,2.1-0.5h1v-0.5c0-0.3-0.1-0.7-0.3-0.9
	c-0.3-0.2-0.6-0.4-1-0.3c-0.4,0-0.7,0.1-1,0.3c-0.2,0.2-0.4,0.4-0.4,0.7h-1.1c0-0.3,0.1-0.7,0.3-0.9c0.2-0.3,0.6-0.5,0.9-0.7
	c0.4-0.2,0.8-0.3,1.3-0.3c0.6,0,1.3,0.2,1.8,0.6c0.4,0.4,0.7,0.9,0.7,1.5v2.9c0,0.5,0.1,0.9,0.2,1.4v0.1L327.7,538.9z M325.9,538.1
	c0.4,0,0.7-0.1,1-0.3c0.3-0.2,0.5-0.4,0.6-0.7v-1.3h-0.8c-1.3,0-2,0.4-2,1.2c0,0.3,0.1,0.6,0.3,0.8
	C325.3,538,325.6,538.1,325.9,538.1L325.9,538.1z M333.4,538.1c0.4,0,0.7-0.1,1-0.3c0.3-0.2,0.5-0.5,0.5-0.9h1c0,0.4-0.2,0.7-0.4,1
	c-0.2,0.3-0.6,0.6-0.9,0.8c-0.4,0.2-0.8,0.3-1.2,0.3c-0.8,0-1.5-0.3-2.1-0.9c-0.5-0.7-0.8-1.5-0.8-2.4v-0.2c0-0.6,0.1-1.1,0.3-1.6
	c0.2-0.5,0.6-0.8,1-1.1c0.5-0.3,1-0.4,1.5-0.4c0.6,0,1.3,0.2,1.8,0.7c0.5,0.4,0.8,1,0.8,1.7h-1c0-0.8-0.7-1.4-1.5-1.4
	c-0.5,0-1,0.2-1.3,0.6c-0.3,0.5-0.5,1.1-0.5,1.7v0.2c0,0.6,0.1,1.2,0.5,1.7C332.4,537.9,332.9,538.1,333.4,538.1z M337.9,533.3
	c0.5-0.6,1.1-0.9,1.9-0.9c1.3,0,2,0.8,2,2.3v4.2h-1.1v-4.2c0-0.4-0.1-0.7-0.3-1c-0.3-0.2-0.6-0.4-1-0.3c-0.3,0-0.7,0.1-0.9,0.3
	c-0.3,0.2-0.5,0.4-0.6,0.7v4.5h-1.1v-9h1.1L337.9,533.3z M344,538.9v-8.5h2.4c0.7,0,1.4,0.2,2,0.5c0.6,0.3,1,0.8,1.3,1.4
	c0.3,0.6,0.5,1.4,0.5,2.1v0.5c0,0.7-0.1,1.5-0.5,2.1c-0.3,0.6-0.8,1.1-1.3,1.4c-0.6,0.3-1.3,0.5-2,0.5L344,538.9z M345.1,531.3v6.7
	h1.2c0.8,0,1.5-0.3,2-0.8c0.5-0.6,0.8-1.5,0.7-2.3v-0.5c0.1-0.8-0.2-1.6-0.7-2.2c-0.5-0.6-1.2-0.9-1.9-0.8L345.1,531.3z M352,538.9
	v-8.5h2.8c0.7-0.1,1.5,0.1,2.1,0.6c0.5,0.4,0.8,1,0.7,1.7c0,0.4-0.1,0.8-0.3,1.1c-0.2,0.3-0.6,0.6-0.9,0.7c0.4,0.1,0.8,0.4,1.1,0.7
	c0.3,0.4,0.4,0.8,0.4,1.3c0,0.7-0.2,1.4-0.8,1.8c-0.6,0.5-1.3,0.7-2.1,0.7H352z M353.1,534.9v3.1h1.9c0.5,0,0.9-0.1,1.2-0.4
	c0.3-0.3,0.5-0.7,0.5-1.1c0-1-0.6-1.5-1.7-1.5L353.1,534.9z M353.1,534h1.7c0.4,0,0.8-0.1,1.2-0.4c0.3-0.2,0.5-0.6,0.5-1
	c0-0.4-0.1-0.8-0.4-1c-0.4-0.2-0.8-0.4-1.2-0.3h-1.7V534z M361.8,535.4c0-0.9,0.1-1.7,0.3-2.5c0.2-0.8,0.6-1.5,1.1-2.2
	c0.4-0.6,0.9-1.1,1.5-1.4l0.2,0.7c-0.6,0.5-1.1,1.2-1.4,2c-0.4,1-0.6,2-0.6,3v0.5c0,1.4,0.3,2.7,0.8,3.9c0.3,0.6,0.7,1.1,1.2,1.6
	l-0.2,0.7c-0.6-0.4-1.1-0.9-1.5-1.5C362.2,538.8,361.7,537.1,361.8,535.4L361.8,535.4z M371.3,538.9h-5.6v-0.8l3-3.3
	c0.3-0.4,0.6-0.8,0.9-1.2c0.2-0.3,0.3-0.7,0.2-1c0-0.4-0.1-0.8-0.4-1.1c-0.3-0.3-0.7-0.5-1.1-0.4c-0.5,0-0.9,0.1-1.2,0.5
	c-0.3,0.3-0.5,0.8-0.5,1.3h-1.1c0-0.7,0.2-1.4,0.8-1.9c0.5-0.5,1.3-0.8,2-0.7c0.7,0,1.4,0.2,1.9,0.6c0.5,0.4,0.7,1,0.7,1.7
	c-0.2,1.2-0.7,2.2-1.6,3L367,538h4.3L371.3,538.9z M377,530.3v0.9h-0.2c-0.7,0-1.5,0.3-2,0.8c-0.5,0.5-0.8,1.2-0.9,2
	c0.5-0.5,1.1-0.8,1.8-0.8c0.7,0,1.3,0.3,1.8,0.8c0.5,0.6,0.7,1.3,0.7,2c0,0.8-0.2,1.5-0.7,2.1c-1,1-2.7,1.1-3.8,0
	c-0.1,0-0.1-0.1-0.1-0.2c-0.5-0.7-0.8-1.6-0.8-2.4v-0.4c-0.1-1.3,0.3-2.6,1-3.6c0.7-0.9,1.9-1.3,3-1.3L377,530.3z M375.5,534.2
	c-0.4,0-0.7,0.1-1,0.3c-0.3,0.2-0.5,0.5-0.7,0.8v0.4c0,0.6,0.1,1.2,0.5,1.7c0.3,0.4,0.7,0.6,1.2,0.6c0.4,0,0.9-0.2,1.1-0.5
	c0.3-0.4,0.4-0.9,0.4-1.4c0-0.5-0.1-1-0.4-1.4C376.4,534.4,376,534.2,375.5,534.2L375.5,534.2z M379.8,538.3c0-0.2,0.1-0.3,0.2-0.5
	c0.1-0.1,0.3-0.2,0.5-0.2c0.2,0,0.4,0.1,0.5,0.2c0.2,0.3,0.2,0.7,0,0.9c-0.1,0.1-0.3,0.2-0.5,0.2c-0.2,0-0.4,0-0.5-0.2
	C379.9,538.6,379.8,538.5,379.8,538.3L379.8,538.3z M384.3,534.1h0.8c0.4,0,0.9-0.1,1.2-0.4c0.3-0.3,0.5-0.7,0.4-1.1
	c0.1-0.7-0.4-1.4-1.1-1.5c-0.1,0-0.2,0-0.4,0c-0.4,0-0.8,0.1-1.1,0.4c-0.3,0.3-0.4,0.7-0.4,1.1h-1.1c0-0.6,0.3-1.3,0.7-1.7
	c0.5-0.5,1.2-0.7,1.9-0.7c0.7,0,1.4,0.2,1.9,0.6c0.5,0.5,0.7,1.1,0.7,1.8c0,0.4-0.1,0.8-0.4,1.1c-0.2,0.4-0.6,0.6-1,0.8
	c0.9,0.2,1.5,1.1,1.5,2c0,0.7-0.2,1.4-0.8,1.8c-0.5,0.5-1.2,0.7-2,0.7c-0.7,0-1.4-0.2-2-0.7c-0.5-0.4-0.8-1.1-0.8-1.7h1.1
	c0,0.4,0.1,0.8,0.4,1.1c0.3,0.3,0.8,0.4,1.2,0.4c0.4,0,0.9-0.1,1.2-0.4c0.3-0.3,0.5-0.8,0.4-1.2c0-0.4-0.1-0.8-0.5-1.1
	c-0.4-0.3-0.9-0.4-1.3-0.4h-0.8L384.3,534.1z M390.8,532.5v0.7c0.5-0.5,1.2-0.9,1.9-0.8c0.8-0.1,1.5,0.3,1.8,1
	c0.2-0.3,0.5-0.6,0.8-0.7c0.4-0.2,0.8-0.3,1.2-0.3c1.4,0,2.1,0.7,2.1,2.2v4.2h-1.1v-4.2c0-0.4-0.1-0.7-0.3-1c-0.3-0.2-0.6-0.4-1-0.3
	c-0.4,0-0.7,0.1-1,0.4c-0.3,0.3-0.4,0.6-0.5,1v4.2h-1.1v-4.2c0.1-0.7-0.3-1.3-1-1.4c-0.1,0-0.2,0-0.4,0c-0.6,0-1.2,0.3-1.5,0.9v4.6
	h-1.1v-6.3L390.8,532.5z M404.5,537.2c0-0.3-0.1-0.5-0.4-0.7c-0.3-0.2-0.7-0.4-1.1-0.4c-0.5-0.1-0.9-0.2-1.3-0.4
	c-0.3-0.1-0.5-0.3-0.7-0.6c-0.2-0.2-0.2-0.5-0.2-0.8c0-0.5,0.2-1,0.7-1.3c1-0.7,2.4-0.7,3.4,0c0.4,0.3,0.7,0.9,0.7,1.4h-1.1
	c0-0.3-0.1-0.6-0.4-0.8c-0.3-0.2-0.6-0.3-0.9-0.3c-0.3,0-0.7,0.1-0.9,0.3c-0.2,0.2-0.3,0.4-0.3,0.7c0,0.2,0.1,0.5,0.3,0.6
	c0.4,0.2,0.7,0.3,1.1,0.4c0.5,0.1,0.9,0.2,1.3,0.4c0.3,0.1,0.5,0.3,0.7,0.6c0.2,0.3,0.3,0.6,0.2,0.9c0,0.5-0.2,1.1-0.7,1.4
	c-0.5,0.4-1.1,0.5-1.8,0.5c-0.5,0-0.9-0.1-1.4-0.3c-0.4-0.2-0.7-0.4-0.9-0.8c-0.2-0.3-0.3-0.7-0.3-1h1.1c0,0.3,0.2,0.7,0.4,0.9
	c0.6,0.4,1.4,0.4,2.1,0.1C404.4,537.7,404.5,537.5,404.5,537.2L404.5,537.2z M411,538.9h-1.1v-9h1.1V538.9z M416.7,538.9
	c-0.1-0.2-0.1-0.4-0.1-0.7c-0.5,0.5-1.1,0.8-1.8,0.8c-0.6,0-1.1-0.2-1.5-0.5c-0.4-0.3-0.6-0.8-0.6-1.4c0-0.6,0.3-1.2,0.8-1.5
	c0.6-0.4,1.4-0.6,2.1-0.5h1v-0.5c0-0.3-0.1-0.7-0.3-0.9c-0.3-0.2-0.6-0.4-1-0.3c-0.4,0-0.7,0.1-1,0.3c-0.2,0.2-0.4,0.4-0.4,0.7h-1.1
	c0-0.3,0.1-0.7,0.3-0.9c0.2-0.3,0.6-0.5,0.9-0.7c0.4-0.2,0.8-0.3,1.3-0.3c0.6,0,1.3,0.2,1.8,0.6c0.4,0.4,0.7,0.9,0.7,1.5v2.9
	c0,0.5,0.1,0.9,0.2,1.4v0.1L416.7,538.9z M414.9,538c0.4,0,0.7-0.1,1-0.3c0.3-0.2,0.5-0.4,0.6-0.7v-1.3h-0.8c-1.3,0-2,0.4-2,1.2
	c0,0.3,0.1,0.6,0.3,0.8C414.3,538,414.6,538.1,414.9,538L414.9,538z M421.3,531v1.5h1.2v0.8h-1.2v3.9c0,0.2,0,0.4,0.1,0.6
	c0.1,0.1,0.3,0.2,0.5,0.2c0.2,0,0.3,0,0.5-0.1v0.9c-0.3,0.1-0.5,0.1-0.8,0.1c-0.4,0-0.8-0.1-1.1-0.4c-0.3-0.4-0.4-0.8-0.4-1.3v-3.9
	H419v-0.8h1.1V531L421.3,531z M426.4,539c-0.8,0-1.6-0.3-2.1-0.8c-0.5-0.6-0.8-1.4-0.8-2.3v-0.2c0-0.6,0.1-1.2,0.4-1.7
	c0.2-0.5,0.6-0.9,1-1.2c0.4-0.3,0.9-0.4,1.4-0.4c0.7,0,1.4,0.3,1.9,0.8c0.5,0.7,0.7,1.5,0.7,2.3v0.4h-4.3c0,0.6,0.2,1.1,0.5,1.5
	c0.3,0.4,0.8,0.6,1.4,0.6c0.3,0,0.7-0.1,1-0.2c0.3-0.2,0.5-0.4,0.7-0.6l0.6,0.5C428.4,538.6,427.4,539.1,426.4,539L426.4,539z
	 M426.3,533.4c-0.4,0-0.8,0.2-1.1,0.5c-0.3,0.4-0.5,0.8-0.5,1.3h3.2v-0.1c0-0.5-0.2-0.9-0.5-1.3
	C427.1,533.5,426.7,533.3,426.3,533.4L426.3,533.4z M430.8,532.6v0.8c0.5-0.6,1.2-0.9,1.9-0.9c1.3,0,2,0.8,2,2.3v4.2h-1.1v-4.2
	c0-0.4-0.1-0.7-0.3-1c-0.3-0.2-0.6-0.4-1-0.3c-0.3,0-0.7,0.1-0.9,0.3c-0.3,0.2-0.5,0.4-0.6,0.7v4.5h-1.1v-6.3L430.8,532.6z
	 M439.4,538.2c0.4,0,0.7-0.1,1-0.3c0.3-0.2,0.5-0.5,0.5-0.9h1c0,0.4-0.2,0.7-0.4,1c-0.2,0.3-0.6,0.6-0.9,0.8
	c-0.4,0.2-0.8,0.3-1.2,0.3c-0.8,0-1.5-0.3-2.1-0.9c-0.5-0.7-0.8-1.5-0.8-2.4v-0.2c0-0.6,0.1-1.1,0.3-1.6c0.2-0.5,0.6-0.8,1-1.1
	c0.5-0.3,1-0.4,1.5-0.4c0.6,0,1.3,0.2,1.8,0.7c0.5,0.4,0.8,1,0.8,1.7h-1c0-0.8-0.7-1.4-1.5-1.4c-0.5,0-1,0.2-1.3,0.6
	c-0.3,0.5-0.5,1.1-0.5,1.7v0.2c0,0.6,0.1,1.2,0.5,1.7C438.4,537.9,438.9,538.1,439.4,538.2L439.4,538.2z M444.9,537.3l1.5-4.8h1.1
	l-2.5,7.3c-0.4,1-1,1.6-1.9,1.6h-0.2l-0.4-0.1v-0.9h0.3c0.3,0,0.6-0.1,0.9-0.2c0.2-0.2,0.4-0.5,0.5-0.8l0.2-0.7l-2.3-6.3h1.2
	L444.9,537.3z M451.3,535.5c0,0.8-0.1,1.7-0.3,2.5c-0.2,0.8-0.6,1.5-1.1,2.2c-0.4,0.6-0.9,1.1-1.5,1.4l-0.2-0.7
	c0.7-0.6,1.2-1.3,1.5-2.1c0.4-1,0.6-2.1,0.6-3.2v-0.2c0-0.8-0.1-1.5-0.3-2.3c-0.2-0.7-0.4-1.3-0.7-1.9c-0.2-0.5-0.6-0.9-1-1.3
	l0.2-0.7c0.6,0.4,1.1,0.8,1.5,1.4c0.5,0.7,0.8,1.4,1,2.2C451.2,533.7,451.3,534.6,451.3,535.5L451.3,535.5z"/>
<path d="M162,116.5V108h2.4c0.7,0,1.4,0.1,2,0.5c0.6,0.3,1,0.8,1.3,1.4c0.3,0.6,0.5,1.4,0.5,2.1v0.5c0,0.7-0.1,1.5-0.5,2.1
	c-0.3,0.6-0.8,1.1-1.3,1.4c-0.6,0.3-1.3,0.5-2,0.5L162,116.5z M163.1,108.9v6.7h1.2c0.8,0,1.5-0.3,2-0.8c0.5-0.6,0.8-1.5,0.7-2.3
	V112c0.1-0.8-0.2-1.6-0.7-2.2c-0.5-0.6-1.2-0.9-1.9-0.8L163.1,108.9z M171,116.5h-1.1v-6.3h1.1L171,116.5z M169.9,108.5
	c0-0.2,0-0.4,0.1-0.5c0.1-0.1,0.3-0.2,0.5-0.2c0.2,0,0.4,0.1,0.5,0.2c0.1,0.1,0.2,0.3,0.2,0.4c0,0.2-0.1,0.3-0.2,0.4
	c-0.1,0.1-0.3,0.2-0.5,0.2C170.2,109.1,169.9,108.9,169.9,108.5C169.8,108.5,169.8,108.5,169.9,108.5L169.9,108.5z M176.5,114.8
	c0-0.3-0.1-0.5-0.4-0.7c-0.3-0.2-0.7-0.4-1.1-0.4c-0.5-0.1-0.9-0.2-1.3-0.4c-0.3-0.1-0.5-0.3-0.7-0.6c-0.2-0.2-0.2-0.5-0.2-0.8
	c0-0.5,0.2-1,0.7-1.3c1-0.7,2.4-0.7,3.4,0c0.4,0.3,0.7,0.9,0.7,1.4h-1.1c0-0.3-0.1-0.6-0.4-0.8c-0.3-0.2-0.6-0.3-0.9-0.3
	c-0.3,0-0.7,0.1-0.9,0.3c-0.2,0.2-0.3,0.4-0.3,0.7c0,0.2,0.1,0.5,0.3,0.6c0.4,0.2,0.7,0.3,1.1,0.4c0.5,0.1,0.9,0.2,1.3,0.4
	c0.3,0.1,0.5,0.3,0.7,0.6c0.2,0.3,0.3,0.6,0.2,0.9c0,0.5-0.2,1.1-0.7,1.4c-0.5,0.4-1.1,0.5-1.8,0.5c-0.5,0-0.9-0.1-1.4-0.3
	c-0.4-0.2-0.7-0.4-0.9-0.8c-0.2-0.3-0.3-0.6-0.3-1h1.1c0,0.3,0.2,0.7,0.4,0.9c0.6,0.4,1.4,0.4,2.1,0.1
	C176.4,115.4,176.5,115.1,176.5,114.8L176.5,114.8z M180.3,108.6v1.5h1.2v0.8h-1.2v3.9c0,0.2,0,0.4,0.1,0.6c0.1,0.1,0.3,0.2,0.5,0.2
	c0.2,0,0.3,0,0.5-0.1v0.9c-0.3,0.1-0.5,0.1-0.8,0.1c-0.4,0-0.8-0.1-1.1-0.4c-0.3-0.4-0.4-0.8-0.4-1.3V111h-1.1v-0.8h1.1v-1.5
	L180.3,108.6z M185.9,111.1c-0.2,0-0.4,0-0.5,0c-0.6-0.1-1.2,0.3-1.4,0.9v4.5h-1.1v-6.3h1v0.7c0.3-0.5,0.9-0.9,1.5-0.8
	c0.2,0,0.3,0,0.5,0.1L185.9,111.1z M188,116.5h-1.1v-6.3h1.1L188,116.5z M186.9,108.5c0-0.2,0-0.4,0.1-0.5c0.1-0.1,0.3-0.2,0.5-0.2
	c0.2,0,0.4,0.1,0.5,0.2c0.1,0.1,0.2,0.3,0.2,0.4c0,0.2-0.1,0.3-0.2,0.4c-0.1,0.1-0.3,0.2-0.5,0.2
	C187.2,109.1,186.9,108.9,186.9,108.5C186.8,108.5,186.8,108.5,186.9,108.5L186.9,108.5z M195.2,113.4c0,0.8-0.2,1.7-0.7,2.3
	c-0.4,0.6-1.1,0.9-1.8,0.9c-0.7,0-1.4-0.3-1.9-0.9l-0.1,0.7h-1v-9h1.1v3.4c0.4-0.5,1.1-0.9,1.8-0.8c0.7,0,1.4,0.3,1.8,0.9
	C195,111.7,195.2,112.5,195.2,113.4L195.2,113.4z M194.1,113.3c0-0.6-0.1-1.2-0.4-1.7c-0.3-0.4-0.7-0.6-1.2-0.6
	c-0.7,0-1.3,0.4-1.5,1v2.8c0.3,0.6,0.9,1,1.5,1c0.5,0,0.9-0.2,1.2-0.6C194,114.6,194.2,113.9,194.1,113.3L194.1,113.3z M200.8,115.9
	c-0.5,0.5-1.2,0.8-1.9,0.8c-0.6,0-1.1-0.2-1.6-0.6c-0.4-0.5-0.6-1.1-0.5-1.8v-4.1h1.1v4.1c0,1,0.4,1.4,1.2,1.4
	c0.7,0.1,1.4-0.3,1.6-0.9v-4.6h1.1v6.3h-1L200.8,115.9z M205.3,108.6v1.5h1.2v0.8h-1.2v3.9c0,0.2,0,0.4,0.1,0.6
	c0.1,0.1,0.3,0.2,0.5,0.2c0.2,0,0.3,0,0.5-0.1v0.9c-0.3,0.1-0.5,0.1-0.8,0.1c-0.4,0-0.8-0.1-1.1-0.4c-0.3-0.4-0.4-0.8-0.4-1.3V111
	h-1.1v-0.8h1.1v-1.5L205.3,108.6z M210.5,116.6c-0.8,0-1.6-0.3-2.1-0.8c-0.5-0.6-0.8-1.4-0.8-2.3v-0.2c0-0.6,0.1-1.2,0.4-1.7
	c0.2-0.5,0.6-0.9,1-1.2c0.4-0.3,0.9-0.4,1.4-0.4c0.7,0,1.4,0.3,1.9,0.8c0.5,0.7,0.7,1.5,0.7,2.3v0.4h-4.3c0,0.6,0.2,1.1,0.6,1.5
	c0.3,0.4,0.8,0.6,1.4,0.6c0.3,0,0.7-0.1,0.9-0.2c0.3-0.2,0.5-0.4,0.7-0.6l0.6,0.5C212.3,116.2,211.4,116.7,210.5,116.6L210.5,116.6z
	 M210.3,111c-0.4,0-0.8,0.2-1.1,0.5c-0.3,0.4-0.5,0.8-0.5,1.3h3.2v-0.1c0-0.5-0.2-0.9-0.4-1.3C211.1,111.1,210.7,110.9,210.3,111
	L210.3,111z M213.6,113.3c0-0.8,0.2-1.7,0.7-2.3c0.4-0.6,1.1-0.9,1.8-0.9c0.7,0,1.3,0.2,1.8,0.8v-3.3h1.1v9h-1v-0.7
	c-0.8,1-2.3,1.1-3.3,0.3c-0.1-0.1-0.2-0.2-0.3-0.3C213.8,115.1,213.6,114.2,213.6,113.3L213.6,113.3z M214.7,113.4
	c0,0.6,0.1,1.2,0.4,1.7c0.3,0.4,0.7,0.6,1.2,0.6c0.7,0,1.3-0.3,1.5-0.9v-2.9c-0.3-0.6-0.9-0.9-1.5-0.9c-0.5,0-1,0.2-1.2,0.6
	C214.8,112.1,214.6,112.8,214.7,113.4L214.7,113.4z M229.9,108.9h-2.8v7.6H226v-7.6h-2.8V108h6.6L229.9,108.9z M233.9,111.1
	c-0.2,0-0.4,0-0.5,0c-0.6-0.1-1.2,0.3-1.4,0.9v4.5h-1.1v-6.3h1v0.7c0.3-0.5,0.9-0.9,1.5-0.8c0.2,0,0.3,0,0.5,0.1L233.9,111.1z
	 M238.8,116.5c-0.1-0.2-0.1-0.4-0.1-0.7c-0.5,0.5-1.1,0.8-1.8,0.8c-0.6,0-1.1-0.2-1.6-0.5c-0.4-0.3-0.6-0.8-0.6-1.4
	c0-0.6,0.3-1.2,0.8-1.5c0.6-0.4,1.4-0.6,2.1-0.6h1v-0.5c0-0.3-0.1-0.7-0.3-0.9c-0.3-0.2-0.6-0.4-1-0.3c-0.4,0-0.7,0.1-1,0.3
	c-0.2,0.2-0.4,0.4-0.4,0.7h-1.1c0-0.3,0.1-0.7,0.3-0.9c0.2-0.3,0.6-0.5,0.9-0.7c0.4-0.2,0.8-0.3,1.3-0.3c0.6,0,1.2,0.2,1.7,0.6
	c0.4,0.4,0.7,0.9,0.7,1.5v2.9c0,0.5,0.1,0.9,0.2,1.4v0.1L238.8,116.5z M237,115.7c0.4,0,0.7-0.1,1-0.3c0.3-0.2,0.5-0.4,0.6-0.7v-1.3
	h-0.8c-1.3,0-2,0.4-2,1.2c0,0.3,0.1,0.6,0.3,0.8C236.4,115.6,236.6,115.7,237,115.7L237,115.7z M242.9,110.2v0.8
	c0.5-0.6,1.2-0.9,1.9-0.9c1.3,0,2,0.8,2,2.3v4.2h-1.1v-4.2c0-0.4-0.1-0.7-0.3-1c-0.3-0.2-0.6-0.4-1-0.3c-0.3,0-0.7,0.1-0.9,0.3
	c-0.3,0.2-0.5,0.4-0.6,0.7v4.5h-1.1v-6.3H242.9z M252.5,114.8c0-0.3-0.1-0.5-0.4-0.7c-0.3-0.2-0.7-0.4-1.1-0.4
	c-0.5-0.1-0.9-0.2-1.3-0.4c-0.3-0.1-0.5-0.3-0.7-0.6c-0.2-0.2-0.2-0.5-0.2-0.8c0-0.5,0.2-1,0.7-1.3c1-0.7,2.4-0.7,3.4,0
	c0.4,0.3,0.7,0.9,0.7,1.4h-1.1c0-0.3-0.1-0.6-0.4-0.8c-0.3-0.2-0.6-0.3-0.9-0.3c-0.3,0-0.7,0.1-0.9,0.3c-0.2,0.2-0.3,0.4-0.3,0.7
	c0,0.2,0.1,0.5,0.3,0.6c0.4,0.2,0.7,0.3,1.1,0.4c0.5,0.1,0.9,0.2,1.3,0.4c0.3,0.1,0.5,0.3,0.7,0.6c0.2,0.3,0.3,0.6,0.2,0.9
	c0,0.5-0.2,1.1-0.7,1.4c-0.5,0.4-1.1,0.5-1.8,0.5c-0.5,0-0.9-0.1-1.4-0.3c-0.4-0.2-0.7-0.4-0.9-0.8c-0.2-0.3-0.3-0.6-0.3-1h1.1
	c0,0.3,0.2,0.7,0.4,0.9c0.6,0.4,1.4,0.4,2.1,0.1C252.4,115.4,252.6,115.1,252.5,114.8L252.5,114.8z M258.8,116.5
	c-0.1-0.2-0.1-0.4-0.1-0.7c-0.5,0.5-1.1,0.8-1.8,0.8c-0.6,0-1.1-0.2-1.6-0.5c-0.4-0.3-0.6-0.8-0.6-1.4c0-0.6,0.3-1.2,0.8-1.5
	c0.6-0.4,1.4-0.6,2.1-0.6h1v-0.5c0-0.3-0.1-0.7-0.3-0.9c-0.3-0.2-0.6-0.4-1-0.3c-0.4,0-0.7,0.1-1,0.3c-0.2,0.2-0.4,0.4-0.4,0.7h-1.1
	c0-0.3,0.1-0.7,0.3-0.9c0.2-0.3,0.6-0.5,0.9-0.7c0.4-0.2,0.8-0.3,1.3-0.3c0.6,0,1.2,0.2,1.7,0.6c0.4,0.4,0.7,0.9,0.7,1.5v2.9
	c0,0.5,0.1,0.9,0.2,1.4v0.1L258.8,116.5z M257,115.7c0.4,0,0.7-0.1,1-0.3c0.3-0.2,0.5-0.4,0.6-0.7v-1.3h-0.8c-1.3,0-2,0.4-2,1.2
	c0,0.3,0.1,0.6,0.3,0.8C256.4,115.6,256.6,115.7,257,115.7L257,115.7z M264.4,115.8c0.4,0,0.7-0.1,1-0.3c0.3-0.2,0.5-0.5,0.5-0.9h1
	c0,0.4-0.2,0.7-0.4,1c-0.2,0.3-0.6,0.6-0.9,0.8c-0.4,0.2-0.8,0.3-1.2,0.3c-0.8,0-1.5-0.3-2.1-0.9c-0.5-0.7-0.8-1.5-0.8-2.4v-0.2
	c0-0.6,0.1-1.1,0.3-1.6c0.2-0.5,0.6-0.8,1-1.1c0.5-0.3,1-0.4,1.5-0.4c0.6,0,1.3,0.2,1.8,0.7c0.5,0.4,0.8,1,0.8,1.7h-1
	c0-0.8-0.7-1.4-1.5-1.4c-0.5,0-1,0.2-1.3,0.6c-0.3,0.5-0.5,1.1-0.5,1.7v0.2c0,0.6,0.1,1.2,0.5,1.7
	C263.4,115.5,263.9,115.7,264.4,115.8L264.4,115.8z M269.3,108.6v1.5h1.2v0.8h-1.2v3.9c0,0.2,0,0.4,0.1,0.6c0.1,0.1,0.3,0.2,0.5,0.2
	c0.2,0,0.3,0,0.5-0.1v0.9c-0.3,0.1-0.5,0.1-0.8,0.1c-0.4,0-0.8-0.1-1.1-0.4c-0.3-0.4-0.4-0.8-0.4-1.3V111H267v-0.8h1.1v-1.5
	L269.3,108.6z M273,116.5h-1.1v-6.3h1.1L273,116.5z M271.9,108.5c0-0.2,0-0.4,0.1-0.5c0.1-0.1,0.3-0.2,0.5-0.2
	c0.2,0,0.4,0.1,0.5,0.2c0.1,0.1,0.2,0.3,0.2,0.4c0,0.2-0.1,0.3-0.2,0.4c-0.1,0.1-0.3,0.2-0.5,0.2
	C272.2,109.1,271.9,108.9,271.9,108.5C271.8,108.5,271.8,108.5,271.9,108.5L271.9,108.5z M274.6,113.3c0-0.6,0.1-1.1,0.4-1.7
	c0.2-0.5,0.6-0.9,1-1.1c0.4-0.3,1-0.4,1.5-0.4c0.8,0,1.6,0.3,2.1,0.9c0.6,0.7,0.9,1.5,0.8,2.4v0.1c0,0.6-0.1,1.1-0.4,1.7
	c-0.2,0.5-0.6,0.9-1,1.2c-0.5,0.3-1,0.4-1.5,0.4c-0.8,0-1.6-0.3-2.1-0.9C274.8,115.1,274.5,114.3,274.6,113.3L274.6,113.3z
	 M275.6,113.4c0,0.6,0.1,1.2,0.5,1.7c0.3,0.4,0.8,0.7,1.3,0.6c0.5,0,1-0.2,1.3-0.6c0.4-0.5,0.5-1.2,0.5-1.8c0-0.6-0.2-1.2-0.5-1.7
	c-0.3-0.4-0.8-0.7-1.3-0.7c-0.5,0-1,0.2-1.3,0.6C275.8,112.1,275.6,112.8,275.6,113.4L275.6,113.4z M282.9,110.2v0.8
	c0.5-0.6,1.2-0.9,1.9-0.9c1.3,0,2,0.8,2,2.3v4.2h-1.1v-4.2c0-0.4-0.1-0.7-0.3-1c-0.3-0.2-0.6-0.4-1-0.3c-0.3,0-0.7,0.1-0.9,0.3
	c-0.3,0.2-0.5,0.4-0.6,0.7v4.5h-1.1v-6.3H282.9z M292.5,114.9c0-0.3-0.1-0.5-0.4-0.7c-0.3-0.2-0.7-0.4-1.1-0.4
	c-0.5-0.1-0.9-0.2-1.3-0.4c-0.3-0.1-0.5-0.3-0.7-0.6c-0.2-0.2-0.2-0.5-0.2-0.8c0-0.5,0.2-1,0.7-1.3c1-0.7,2.4-0.7,3.4,0
	c0.4,0.3,0.7,0.9,0.7,1.4h-1.1c0-0.3-0.1-0.6-0.4-0.8c-0.3-0.2-0.6-0.3-0.9-0.3c-0.3,0-0.7,0.1-0.9,0.3c-0.2,0.2-0.3,0.4-0.3,0.7
	c0,0.2,0.1,0.5,0.3,0.6c0.4,0.2,0.7,0.3,1.1,0.4c0.5,0.1,0.9,0.2,1.3,0.4c0.3,0.1,0.5,0.3,0.7,0.6c0.2,0.3,0.3,0.6,0.2,0.9
	c0,0.5-0.2,1.1-0.7,1.4c-0.5,0.4-1.1,0.5-1.8,0.5c-0.5,0-0.9-0.1-1.4-0.3c-0.4-0.2-0.7-0.4-0.9-0.8c-0.2-0.3-0.3-0.6-0.3-1h1.1
	c0,0.3,0.2,0.7,0.4,0.9c0.6,0.4,1.4,0.4,2.1,0.1C292.4,115.4,292.6,115.1,292.5,114.9L292.5,114.9z M303.2,113.4
	c0,0.8-0.2,1.6-0.6,2.3c-0.4,0.6-1.1,0.9-1.8,0.9c-0.7,0-1.3-0.2-1.8-0.7v3.1h-1.1v-8.8h1l0,0.7c0.5-0.5,1.1-0.8,1.8-0.8
	c0.7,0,1.4,0.3,1.8,0.9c0.5,0.7,0.7,1.5,0.7,2.4L303.2,113.4z M302.1,113.3c0-0.6-0.1-1.2-0.5-1.7c-0.3-0.4-0.7-0.6-1.2-0.6
	c-0.6,0-1.2,0.3-1.5,0.9v3c0.3,0.6,0.9,0.9,1.5,0.9c0.5,0,0.9-0.2,1.2-0.6C302,114.6,302.1,113.9,302.1,113.3L302.1,113.3z
	 M307.5,116.7c-0.8,0-1.6-0.3-2.1-0.8c-0.5-0.6-0.8-1.4-0.8-2.3v-0.2c0-0.6,0.1-1.2,0.4-1.7c0.2-0.5,0.6-0.9,1-1.2
	c0.4-0.3,0.9-0.4,1.4-0.4c0.7,0,1.4,0.3,1.9,0.8c0.5,0.7,0.7,1.5,0.7,2.3v0.4h-4.3c0,0.6,0.2,1.1,0.5,1.5c0.3,0.4,0.8,0.6,1.4,0.6
	c0.3,0,0.7-0.1,1-0.2c0.3-0.2,0.5-0.4,0.7-0.6l0.6,0.5C309.4,116.3,308.4,116.7,307.5,116.7L307.5,116.7z M307.3,111
	c-0.4,0-0.8,0.2-1.1,0.5c-0.3,0.4-0.5,0.8-0.5,1.3h3.2v-0.1c0-0.5-0.2-0.9-0.5-1.3C308.1,111.1,307.7,110.9,307.3,111L307.3,111z
	 M313.9,111.2c-0.2,0-0.4,0-0.5,0c-0.6-0.1-1.2,0.3-1.5,0.9v4.5h-1.1v-6.3h1v0.7c0.3-0.5,0.9-0.9,1.5-0.8c0.2,0,0.3,0,0.5,0.1
	L313.9,111.2z M320.5,112.7c-0.8-0.2-1.5-0.5-2.1-1c-0.4-0.4-0.7-0.9-0.7-1.5c0-0.6,0.3-1.3,0.8-1.7c0.6-0.5,1.3-0.7,2.1-0.7
	c0.5,0,1.1,0.1,1.6,0.3c0.4,0.2,0.8,0.5,1.1,0.9c0.3,0.4,0.4,0.9,0.4,1.3h-1.1c0-0.5-0.2-0.9-0.5-1.2c-0.4-0.3-0.9-0.5-1.4-0.4
	c-0.5,0-0.9,0.1-1.3,0.4c-0.3,0.2-0.5,0.6-0.5,1c0,0.3,0.2,0.7,0.4,0.9c0.5,0.3,1,0.5,1.5,0.7c0.6,0.1,1.1,0.4,1.6,0.7
	c0.4,0.2,0.7,0.5,0.9,0.8c0.2,0.3,0.3,0.7,0.3,1.1c0,0.7-0.3,1.3-0.8,1.7c-0.6,0.4-1.4,0.7-2.2,0.6c-0.6,0-1.1-0.1-1.6-0.3
	c-0.5-0.2-0.9-0.5-1.2-0.9c-0.3-0.4-0.4-0.9-0.4-1.3h1.1c0,0.5,0.2,0.9,0.6,1.2c0.4,0.3,1,0.5,1.5,0.4c0.5,0,1-0.1,1.4-0.4
	c0.3-0.2,0.5-0.6,0.5-1c0-0.4-0.1-0.8-0.4-1C321.6,113.1,321.1,112.8,320.5,112.7L320.5,112.7z M327.5,116.7c-0.8,0-1.6-0.3-2.1-0.8
	c-0.5-0.6-0.8-1.4-0.8-2.3v-0.2c0-0.6,0.1-1.2,0.4-1.7c0.2-0.5,0.6-0.9,1-1.2c0.4-0.3,0.9-0.4,1.4-0.4c0.7,0,1.4,0.3,1.9,0.8
	c0.5,0.7,0.7,1.5,0.7,2.3v0.4h-4.3c0,0.6,0.2,1.1,0.5,1.5c0.3,0.4,0.8,0.6,1.4,0.6c0.3,0,0.7-0.1,1-0.2c0.3-0.2,0.5-0.4,0.7-0.6
	l0.6,0.5C329.4,116.3,328.4,116.7,327.5,116.7L327.5,116.7z M327.3,111c-0.4,0-0.8,0.2-1.1,0.5c-0.3,0.4-0.5,0.8-0.5,1.3h3.2v-0.1
	c0-0.5-0.2-0.9-0.5-1.3C328.1,111.1,327.7,110.9,327.3,111L327.3,111z M333.4,115.8c0.4,0,0.7-0.1,1-0.3c0.3-0.2,0.5-0.5,0.5-0.9h1
	c0,0.4-0.2,0.7-0.4,1c-0.2,0.3-0.6,0.6-0.9,0.8c-0.4,0.2-0.8,0.3-1.2,0.3c-0.8,0-1.5-0.3-2.1-0.9c-0.5-0.7-0.8-1.5-0.8-2.4v-0.2
	c0-0.6,0.1-1.1,0.3-1.6c0.2-0.5,0.6-0.8,1-1.1c0.5-0.3,1-0.4,1.5-0.4c0.6,0,1.3,0.2,1.8,0.7c0.5,0.4,0.8,1,0.8,1.7h-1
	c0-0.8-0.7-1.4-1.5-1.4c-0.5,0-1,0.2-1.3,0.6c-0.3,0.5-0.5,1.1-0.5,1.7v0.2c0,0.6,0.1,1.2,0.5,1.7
	C332.4,115.5,332.9,115.7,333.4,115.8L333.4,115.8z M336.5,113.3c0-0.6,0.1-1.1,0.4-1.7c0.2-0.5,0.6-0.9,1-1.1
	c0.4-0.3,1-0.4,1.5-0.4c0.8,0,1.6,0.3,2.1,0.9c0.6,0.7,0.9,1.5,0.8,2.4v0.1c0,0.6-0.1,1.1-0.4,1.7c-0.2,0.5-0.6,0.9-1,1.2
	c-0.5,0.3-1,0.4-1.5,0.4c-0.8,0-1.6-0.3-2.1-0.9C336.8,115.1,336.5,114.3,336.5,113.3L336.5,113.3z M337.6,113.4
	c0,0.6,0.1,1.2,0.5,1.7c0.3,0.4,0.8,0.7,1.3,0.6c0.5,0,1-0.2,1.3-0.6c0.4-0.5,0.5-1.2,0.5-1.8c0-0.6-0.2-1.2-0.5-1.7
	c-0.3-0.4-0.8-0.7-1.3-0.7c-0.5,0-1,0.2-1.3,0.6C337.8,112.1,337.6,112.8,337.6,113.4L337.6,113.4z M344.9,110.2v0.8
	c0.5-0.6,1.2-0.9,1.9-0.9c1.3,0,2,0.8,2,2.3v4.2h-1.1v-4.2c0-0.4-0.1-0.7-0.3-1c-0.3-0.2-0.6-0.4-1-0.3c-0.3,0-0.7,0.1-0.9,0.3
	c-0.3,0.2-0.5,0.4-0.6,0.7v4.5h-1.1v-6.3H344.9z M350.6,113.3c0-0.8,0.2-1.7,0.7-2.3c0.4-0.6,1.1-0.9,1.8-0.9c0.7,0,1.3,0.2,1.8,0.8
	v-3.3h1.1v9h-1l0-0.7c-0.8,1-2.3,1.1-3.3,0.3c-0.1-0.1-0.2-0.2-0.3-0.3C350.8,115.1,350.5,114.3,350.6,113.3L350.6,113.3z
	 M351.7,113.4c0,0.6,0.1,1.2,0.4,1.7c0.3,0.4,0.7,0.6,1.2,0.6c0.7,0,1.3-0.3,1.5-0.9v-2.9c-0.3-0.6-0.9-0.9-1.5-0.9
	c-0.5,0-1,0.2-1.2,0.6C351.8,112.2,351.6,112.8,351.7,113.4L351.7,113.4z"/>
</svg>
