<?xml version="1.0" encoding="utf-8"?>
<!-- Generator: Adobe Illustrator 23.0.1, SVG Export Plug-In . SVG Version: 6.00 Build 0)  -->
<svg version="1.1" id="Layer_1" xmlns="http://www.w3.org/2000/svg" xmlns:xlink="http://www.w3.org/1999/xlink" x="0px" y="0px"
	 viewBox="0 0 518 566.7" style="enable-background:new 0 0 518 566.7;" xml:space="preserve">
<style type="text/css">
	.st0{fill:#FFFFFF;stroke:#E8E8E8;stroke-miterlimit:10;}
	.st1{enable-background:new    ;}
	.st2{fill:#F75821;}
	.st3{fill:none;stroke:#333333;stroke-miterlimit:10;}
	.st4{fill:#EEEEEE;}
	.st5{fill:none;stroke:#CCCCCC;stroke-miterlimit:10;}
	.st6{clip-path:url(#SVGID_2_);}
	.st7{fill:#A13915;}
	.st8{clip-path:url(#SVGID_4_);}
	.st9{fill:#F9794D;}
	.st10{clip-path:url(#SVGID_6_);}
	.st11{fill:none;}
	.st12{clip-path:url(#SVGID_8_);}
	.st13{clip-path:url(#SVGID_10_);}
	.st14{fill:#151B35;}
	.st15{clip-path:url(#SVGID_12_);}
	.st16{fill:#4D5474;}
	.st17{clip-path:url(#SVGID_14_);}
	.st18{clip-path:url(#SVGID_16_);}
	.st19{fill:#202951;}
	.st20{fill:none;stroke:#F75821;stroke-width:3;stroke-linecap:round;stroke-linejoin:round;}
	.st21{fill:#FFFFFF;}
	.st22{fill:none;stroke:#202951;stroke-width:3;stroke-linecap:round;stroke-linejoin:round;}
	.st23{fill:#757575;}
</style>
<title>graph2</title>
<path class="st0" d="M10.5,0.5h497c5.5,0,10,4.5,10,10v545.7c0,5.5-4.5,10-10,10h-497c-5.5,0-10-4.5-10-10V10.5
	C0.5,5,5,0.5,10.5,0.5z"/>
<g class="st1">
	<path class="st2" d="M80.6,41.3c1.3,0.7,2.3,1.6,3,2.8c0.7,1.2,1.1,2.6,1.1,4s-0.4,2.8-1.1,4c-0.7,1.2-1.7,2.2-3,2.9s-2.7,1-4.2,1
		c-1.5,0-2.9-0.3-4.2-1c-1.3-0.7-2.3-1.7-3-2.9s-1.1-2.6-1.1-4.1c0-1.5,0.4-2.8,1.1-4s1.7-2.2,3-2.8c1.3-0.7,2.7-1,4.2-1
		C77.9,40.2,79.3,40.6,80.6,41.3z M74,43.9c-0.7,0.4-1.3,1-1.7,1.8c-0.4,0.7-0.6,1.6-0.6,2.5c0,0.9,0.2,1.7,0.6,2.5
		c0.4,0.7,1,1.3,1.7,1.8c0.7,0.4,1.5,0.7,2.4,0.7c0.9,0,1.6-0.2,2.3-0.6c0.7-0.4,1.3-1,1.7-1.8c0.4-0.8,0.6-1.6,0.6-2.5
		c0-0.9-0.2-1.7-0.6-2.5c-0.4-0.7-1-1.3-1.7-1.8s-1.5-0.6-2.3-0.6C75.6,43.3,74.8,43.5,74,43.9z"/>
</g>
<g class="st1">
	<path class="st2" d="M85.1,44.1l3.5,0l2.8,8.6l2.8-8.6h3.4L93,55.9h-3.5L85.1,44.1z"/>
</g>
<g class="st1">
	<path class="st2" d="M108,45.6c1,1.1,1.5,2.6,1.5,4.6c0,0.4,0,0.6,0,0.8H101c0.2,0.7,0.6,1.3,1.1,1.7c0.5,0.4,1.2,0.6,2,0.6
		c0.6,0,1.1-0.1,1.6-0.3c0.5-0.2,1-0.5,1.4-0.9l1.8,1.8c-0.6,0.7-1.3,1.2-2.2,1.6s-1.8,0.5-2.9,0.5c-1.2,0-2.3-0.2-3.3-0.7
		c-0.9-0.5-1.6-1.2-2.2-2.1c-0.5-0.9-0.8-2-0.8-3.1c0-1.2,0.3-2.3,0.8-3.2c0.5-0.9,1.2-1.6,2.2-2.1c0.9-0.5,2-0.8,3.2-0.8
		C105.6,43.9,107,44.5,108,45.6z M106.3,49c0-0.8-0.3-1.4-0.7-1.9c-0.5-0.5-1.1-0.7-1.9-0.7c-0.7,0-1.3,0.2-1.8,0.7
		c-0.5,0.5-0.8,1.1-0.9,1.9H106.3z"/>
	<path class="st2" d="M116.7,44.5c0.7-0.4,1.4-0.6,2.3-0.6v3.2c-0.1,0-0.3,0-0.5,0c-1,0-1.9,0.3-2.5,0.8c-0.6,0.6-0.9,1.3-0.9,2.3
		v5.7h-3.4V44h3.4v2.1C115.5,45.4,116.1,44.9,116.7,44.5z"/>
	<path class="st2" d="M135.5,48.2c0.8,0.7,1.2,1.7,1.2,2.9c0,1-0.3,1.8-0.8,2.6c-0.5,0.8-1.2,1.3-2.2,1.8c-0.9,0.4-2,0.6-3.3,0.6
		c-1.1,0-2.1-0.2-3.2-0.5c-1.1-0.3-2-0.8-2.7-1.3l1.3-2.6c0.6,0.5,1.3,0.9,2,1.2s1.5,0.4,2.2,0.4c1,0,1.7-0.2,2.2-0.6
		c0.5-0.4,0.8-0.9,0.8-1.6s-0.3-1.2-0.8-1.6c-0.5-0.4-1.3-0.5-2.3-0.5h-2.5v-2l3.8-3.7h-6.2l0-2.8h10.5v2.1l-4.4,4.2l0.8,0.1
		C133.6,47,134.7,47.5,135.5,48.2z"/>
	<path class="st2" d="M138.1,40.5h4l3.2,4.7l3.2-4.7h4.1l-5.1,7.4l5.6,8H149l-3.6-5.1l-3.6,5.1h-4.1l5.5-7.9L138.1,40.5z"/>
	<path class="st2" d="M171.4,41.5c1,0.7,1.5,1.6,1.5,2.8c0,0.8-0.2,1.5-0.7,2.1c-0.5,0.6-1.1,1-1.9,1.2c1,0.2,1.8,0.6,2.4,1.3
		c0.6,0.7,0.9,1.6,0.9,2.6c0,1.3-0.5,2.4-1.6,3.1c-1,0.8-2.5,1.1-4.2,1.1h-7.3V40.5h7.1C169.1,40.5,170.4,40.8,171.4,41.5z
		 M168.7,46.2c0.4-0.3,0.6-0.7,0.6-1.3c0-0.5-0.2-0.9-0.6-1.2c-0.4-0.3-0.9-0.4-1.6-0.4h-3.4v3.4h3.4
		C167.8,46.7,168.4,46.5,168.7,46.2z M169.1,52.5c0.5-0.3,0.7-0.8,0.7-1.4c0-0.6-0.2-1-0.7-1.3c-0.5-0.3-1.1-0.5-1.9-0.5h-3.4V53
		h3.4C168,53,168.6,52.9,169.1,52.5z"/>
	<path class="st2" d="M185.3,45.6c1,1.1,1.5,2.6,1.5,4.6c0,0.4,0,0.6,0,0.8h-8.5c0.2,0.7,0.6,1.3,1.1,1.7c0.5,0.4,1.2,0.6,2,0.6
		c0.6,0,1.1-0.1,1.6-0.3c0.5-0.2,1-0.5,1.4-0.9l1.8,1.8c-0.6,0.7-1.3,1.2-2.2,1.6S182.1,56,181,56c-1.2,0-2.3-0.2-3.3-0.7
		c-0.9-0.5-1.6-1.2-2.2-2.1c-0.5-0.9-0.8-2-0.8-3.1c0-1.2,0.3-2.3,0.8-3.2c0.5-0.9,1.2-1.6,2.2-2.1c0.9-0.5,2-0.8,3.2-0.8
		C182.9,43.9,184.3,44.5,185.3,45.6z M183.6,49c0-0.8-0.3-1.4-0.7-1.9c-0.5-0.5-1.1-0.7-1.9-0.7c-0.7,0-1.3,0.2-1.8,0.7
		c-0.5,0.5-0.8,1.1-0.9,1.9H183.6z"/>
	<path class="st2" d="M196.3,55.2c-0.4,0.3-0.9,0.5-1.5,0.6c-0.5,0.1-1.1,0.2-1.6,0.2c-1.1,0-2-0.3-2.7-0.9s-1-1.5-1-2.7v-5.5h-1.6
		v-2.3h1.6v-3.3h3.4v3.3h3.2v2.4h-3.2v4.9c0,0.9,0.4,1.4,1.1,1.4c0.5,0,1-0.1,1.6-0.4L196.3,55.2z"/>
</g>
<g class="st1">
	<path class="st2" d="M205.7,55.2c-0.4,0.3-0.9,0.5-1.5,0.6c-0.5,0.1-1.1,0.2-1.6,0.2c-1.1,0-2-0.3-2.7-0.9s-1-1.5-1-2.7v-5.5h-1.6
		v-2.3h1.6v-3.3h3.4v3.3h3.2v2.4h-3.2v4.9c0,0.9,0.4,1.4,1.1,1.4c0.5,0,1-0.1,1.6-0.4L205.7,55.2z"/>
</g>
<g class="st1">
	<path class="st2" d="M217.1,45.6c1,1.1,1.5,2.6,1.5,4.6c0,0.4,0,0.6,0,0.8h-8.5c0.2,0.7,0.6,1.3,1.1,1.7c0.5,0.4,1.2,0.6,2,0.6
		c0.6,0,1.1-0.1,1.6-0.3c0.5-0.2,1-0.5,1.4-0.9l1.8,1.8c-0.6,0.7-1.3,1.2-2.2,1.6c-0.9,0.4-1.8,0.5-2.9,0.5c-1.2,0-2.3-0.2-3.3-0.7
		c-0.9-0.5-1.6-1.2-2.2-2.1c-0.5-0.9-0.8-2-0.8-3.1c0-1.2,0.3-2.3,0.8-3.2s1.2-1.6,2.2-2.1c0.9-0.5,2-0.8,3.2-0.8
		C214.6,43.9,216.1,44.5,217.1,45.6z M215.4,49c0-0.8-0.3-1.4-0.7-1.9s-1.1-0.7-1.9-0.7c-0.7,0-1.3,0.2-1.8,0.7s-0.8,1.1-0.9,1.9
		H215.4z"/>
	<path class="st2" d="M225.8,44.5c0.7-0.4,1.4-0.6,2.3-0.6v3.2c-0.1,0-0.3,0-0.5,0c-1,0-1.9,0.3-2.5,0.8s-0.9,1.3-0.9,2.3v5.7h-3.4
		V44h3.4v2.1C224.6,45.4,225.1,44.9,225.8,44.5z"/>
	<path class="st2" d="M251.4,57.7c-0.6,0.5-1.3,0.9-2.1,1.2c-0.8,0.3-1.6,0.5-2.3,0.5c-1,0-2-0.3-2.8-0.9c-0.8-0.6-1.5-1.4-2.1-2.5
		c-1.5,0-2.9-0.4-4.1-1.1c-1.2-0.7-2.2-1.7-2.9-2.9c-0.7-1.2-1.1-2.5-1.1-4c0-1.5,0.4-2.8,1.1-4c0.7-1.2,1.7-2.2,3-2.8
		c1.3-0.7,2.7-1,4.2-1c1.5,0,2.9,0.3,4.2,1c1.3,0.7,2.3,1.6,3,2.8c0.7,1.2,1.1,2.6,1.1,4c0,1.7-0.5,3.2-1.4,4.6
		c-0.9,1.3-2.2,2.3-3.8,2.9c0.7,0.7,1.3,1.1,2,1.1c0.4,0,0.8-0.1,1.3-0.3c0.5-0.2,1-0.5,1.5-0.9L251.4,57.7z M238.3,50.6
		c0.4,0.7,1,1.3,1.7,1.8c0.7,0.4,1.5,0.7,2.4,0.7s1.6-0.2,2.3-0.6c0.7-0.4,1.3-1,1.7-1.8c0.4-0.8,0.6-1.6,0.6-2.5
		c0-0.9-0.2-1.7-0.6-2.5c-0.4-0.7-1-1.3-1.7-1.8c-0.7-0.4-1.5-0.6-2.3-0.6s-1.6,0.2-2.4,0.6s-1.3,1-1.7,1.8
		c-0.4,0.7-0.6,1.6-0.6,2.5C237.6,49.1,237.8,49.9,238.3,50.6z"/>
	<path class="st2" d="M264.2,44v11.8h-3.4v-2.1c-0.8,1.5-2.1,2.2-4,2.2c-1.3,0-2.3-0.4-3.1-1.2c-0.8-0.8-1.2-1.9-1.2-3.3V44h3.4v6.5
		c0,0.7,0.2,1.3,0.6,1.8c0.4,0.4,0.9,0.6,1.6,0.6c0.8,0,1.4-0.3,1.9-0.9c0.5-0.6,0.7-1.3,0.7-2.2V44H264.2z"/>
	<path class="st2" d="M276.9,45.6c1,1.1,1.5,2.6,1.5,4.6c0,0.4,0,0.6,0,0.8h-8.5c0.2,0.7,0.6,1.3,1.1,1.7s1.2,0.6,2,0.6
		c0.6,0,1.1-0.1,1.6-0.3c0.5-0.2,1-0.5,1.4-0.9l1.8,1.8c-0.6,0.7-1.3,1.2-2.2,1.6c-0.9,0.4-1.8,0.5-2.9,0.5c-1.2,0-2.3-0.2-3.3-0.7
		c-0.9-0.5-1.7-1.2-2.2-2.1c-0.5-0.9-0.8-2-0.8-3.1c0-1.2,0.3-2.3,0.8-3.2c0.5-0.9,1.2-1.6,2.2-2.1c0.9-0.5,2-0.8,3.2-0.8
		C274.5,43.9,275.9,44.5,276.9,45.6z M275.2,49c0-0.8-0.3-1.4-0.7-1.9c-0.5-0.5-1.1-0.7-1.9-0.7c-0.7,0-1.3,0.2-1.8,0.7
		c-0.5,0.5-0.8,1.1-0.9,1.9H275.2z"/>
</g>
<g class="st1">
	<path class="st2" d="M285.6,44.5c0.7-0.4,1.4-0.6,2.3-0.6v3.2c-0.1,0-0.3,0-0.5,0c-1,0-1.9,0.3-2.5,0.8s-0.9,1.3-0.9,2.3v5.7h-3.4
		V44h3.4v2.1C284.4,45.4,284.9,44.9,285.6,44.5z"/>
</g>
<g class="st1">
	<path class="st2" d="M291.7,60.3c-0.6,0-1.2-0.1-1.7-0.3c-0.5-0.2-1-0.5-1.5-0.9l1.4-2.4c0.5,0.4,1,0.6,1.5,0.6
		c0.7,0,1.2-0.4,1.6-1.1l0.3-0.7L288.4,44h3.5l3.1,8.1l2.8-8.1h3.4L296,57.2C295.2,59.3,293.8,60.3,291.7,60.3z"/>
	<path class="st2" d="M319,41.9c1.1,0.9,1.6,2.2,1.6,3.9c0,1.8-0.5,3.2-1.6,4.2s-2.6,1.5-4.5,1.5h-3.1v4.4h-3.5V40.5h6.5
		C316.4,40.5,317.9,40.9,319,41.9z M316.5,47.9c0.5-0.4,0.8-1.1,0.8-2c0-0.9-0.3-1.5-0.8-1.9s-1.3-0.6-2.3-0.6h-2.9v5.2h2.9
		C315.2,48.6,316,48.3,316.5,47.9z"/>
	<path class="st2" d="M332.2,45.6c1,1.1,1.5,2.6,1.5,4.6c0,0.4,0,0.6,0,0.8h-8.5c0.2,0.7,0.6,1.3,1.1,1.7c0.5,0.4,1.2,0.6,2,0.6
		c0.6,0,1.1-0.1,1.6-0.3c0.5-0.2,1-0.5,1.4-0.9l1.8,1.8c-0.6,0.7-1.3,1.2-2.2,1.6c-0.9,0.4-1.8,0.5-2.9,0.5c-1.2,0-2.3-0.2-3.3-0.7
		c-0.9-0.5-1.6-1.2-2.2-2.1c-0.5-0.9-0.8-2-0.8-3.1c0-1.2,0.3-2.3,0.8-3.2s1.2-1.6,2.2-2.1c0.9-0.5,2-0.8,3.2-0.8
		C329.7,43.9,331.2,44.5,332.2,45.6z M330.5,49c0-0.8-0.3-1.4-0.7-1.9s-1.1-0.7-1.9-0.7c-0.7,0-1.3,0.2-1.8,0.7s-0.8,1.1-0.9,1.9
		H330.5z"/>
	<path class="st2" d="M340.9,44.5c0.7-0.4,1.4-0.6,2.3-0.6v3.2c-0.1,0-0.3,0-0.5,0c-1,0-1.9,0.3-2.5,0.8s-0.9,1.3-0.9,2.3v5.7h-3.4
		V44h3.4v2.1C339.7,45.4,340.2,44.9,340.9,44.5z"/>
</g>
<g class="st1">
	<path class="st2" d="M349.4,42.5c-0.3,0.2-0.4,0.6-0.4,1v1h2.8v2.4h-2.8v9h-3.4v-9h-1.6v-2.4h1.6v-1.1c0-0.9,0.2-1.6,0.6-2.2
		c0.4-0.6,0.9-1.1,1.6-1.4c0.7-0.3,1.4-0.5,2.2-0.5c0.8,0,1.5,0.2,2.3,0.5l-0.5,2.6c-0.2-0.1-0.5-0.2-0.7-0.2s-0.5-0.1-0.7-0.1
		C350,42.2,349.7,42.3,349.4,42.5z"/>
</g>
<g class="st1">
	<path class="st2" d="M361.8,44.7c1,0.5,1.7,1.2,2.2,2.1s0.8,2,0.8,3.2c0,1.2-0.3,2.2-0.8,3.2s-1.3,1.6-2.2,2.1
		c-1,0.5-2.1,0.8-3.3,0.8c-1.3,0-2.4-0.3-3.3-0.8s-1.7-1.2-2.2-2.1c-0.5-0.9-0.8-2-0.8-3.2c0-1.2,0.3-2.3,0.8-3.2
		c0.5-0.9,1.3-1.6,2.2-2.1c1-0.5,2.1-0.7,3.3-0.7C359.8,43.9,360.9,44.2,361.8,44.7z M356.4,47.6c-0.5,0.6-0.8,1.4-0.8,2.4
		s0.3,1.8,0.8,2.4c0.6,0.6,1.3,0.9,2.1,0.9c0.9,0,1.6-0.3,2.1-0.9s0.8-1.4,0.8-2.4s-0.3-1.8-0.8-2.4s-1.3-0.9-2.1-0.9
		C357.7,46.7,356.9,47,356.4,47.6z"/>
	<path class="st2" d="M372.1,44.5c0.7-0.4,1.4-0.6,2.3-0.6v3.2c-0.1,0-0.3,0-0.5,0c-1,0-1.9,0.3-2.5,0.8s-0.9,1.3-0.9,2.3v5.7h-3.4
		V44h3.4v2.1C370.9,45.4,371.4,44.9,372.1,44.5z"/>
	<path class="st2" d="M395,45.1c0.8,0.8,1.2,1.9,1.2,3.3v7.4h-3.4v-6.4c0-0.8-0.2-1.4-0.6-1.8c-0.4-0.4-1-0.6-1.7-0.6
		c-0.8,0-1.4,0.3-1.9,0.9s-0.7,1.3-0.7,2.2v5.9h-3.4v-6.4c0-0.7-0.2-1.3-0.6-1.8c-0.4-0.4-1-0.6-1.7-0.6c-0.8,0-1.4,0.3-1.9,0.9
		s-0.7,1.3-0.7,2.2v5.9h-3.4V44h3.4v2c0.8-1.4,2.2-2.1,4-2.2c1,0,1.8,0.2,2.5,0.7s1.2,1.1,1.5,2c0.4-0.9,0.9-1.6,1.7-2
		c0.7-0.5,1.6-0.7,2.6-0.7C393.2,43.9,394.3,44.3,395,45.1z"/>
	<path class="st2" d="M406,55.9v-1.4c-0.4,0.5-0.9,0.9-1.5,1.1c-0.6,0.3-1.4,0.4-2.2,0.4c-1.2,0-2.2-0.3-3-1
		c-0.7-0.7-1.1-1.6-1.1-2.7c0-1.1,0.4-2,1.2-2.6c0.8-0.6,1.9-0.9,3.3-1h3.3v-0.2c0-0.6-0.2-1.1-0.6-1.5s-1-0.5-1.8-0.5
		c-1.1,0-2.3,0.3-3.5,1l-1.1-2.3c0.9-0.5,1.8-0.8,2.6-1c0.8-0.2,1.7-0.3,2.7-0.3c1.6,0,2.8,0.4,3.7,1.1s1.3,1.8,1.3,3.1l0,7.7H406z
		 M405,53.1c0.5-0.3,0.8-0.8,0.9-1.3v-1.1h-2.7c-0.7,0-1.1,0.1-1.5,0.3c-0.3,0.2-0.5,0.6-0.5,1c0,0.5,0.2,0.8,0.5,1.1
		c0.3,0.3,0.8,0.4,1.4,0.4C403.9,53.6,404.5,53.4,405,53.1z"/>
	<path class="st2" d="M422.9,45.1c0.8,0.8,1.2,1.9,1.2,3.3v7.4h-3.4v-6.4c0-0.7-0.2-1.3-0.6-1.8c-0.4-0.4-1-0.6-1.7-0.6
		c-0.8,0-1.5,0.3-2,0.9c-0.5,0.6-0.7,1.3-0.7,2.2v5.8h-3.4V44h3.4v2.1c0.8-1.4,2.2-2.2,4.1-2.2C421,43.9,422.1,44.3,422.9,45.1z"/>
</g>
<g class="st1">
	<path class="st2" d="M432.2,46.8c-0.9,0-1.5,0.3-2.1,0.9c-0.5,0.6-0.8,1.3-0.8,2.3c0,1,0.3,1.7,0.8,2.3c0.5,0.6,1.2,0.9,2,0.9
		c1.2,0,2.1-0.5,2.8-1.4l2.3,1.6c-0.5,0.8-1.2,1.5-2.1,1.9c-0.9,0.5-2,0.7-3.2,0.7c-1.2,0-2.2-0.2-3.1-0.7c-0.9-0.5-1.6-1.2-2.1-2.1
		c-0.5-0.9-0.8-2-0.8-3.1c0-1.2,0.3-2.3,0.8-3.2s1.2-1.6,2.1-2.1c0.9-0.5,2-0.8,3.2-0.8c1.1,0,2.1,0.2,3,0.6s1.6,1,2.1,1.8l-2.3,1.7
		C434.2,47.2,433.3,46.8,432.2,46.8z"/>
</g>
<g class="st1">
	<path class="st2" d="M448.4,45.6c1,1.1,1.5,2.6,1.5,4.6c0,0.4,0,0.6,0,0.8h-8.5c0.2,0.7,0.6,1.3,1.1,1.7c0.5,0.4,1.2,0.6,2,0.6
		c0.6,0,1.1-0.1,1.6-0.3c0.5-0.2,1-0.5,1.4-0.9l1.8,1.8c-0.6,0.7-1.3,1.2-2.2,1.6c-0.9,0.4-1.8,0.5-2.9,0.5c-1.2,0-2.3-0.2-3.3-0.7
		c-0.9-0.5-1.6-1.2-2.2-2.1c-0.5-0.9-0.8-2-0.8-3.1c0-1.2,0.3-2.3,0.8-3.2s1.2-1.6,2.2-2.1c0.9-0.5,2-0.8,3.2-0.8
		C446,43.9,447.4,44.5,448.4,45.6z M446.7,49c0-0.8-0.3-1.4-0.7-1.9s-1.1-0.7-1.9-0.7c-0.7,0-1.3,0.2-1.8,0.7s-0.8,1.1-0.9,1.9
		H446.7z"/>
</g>
<path class="st3" d="M105.5,472.7h387"/>
<path class="st4" d="M75.5,502.7l30-29h387l-30,29H75.5z"/>
<path class="st5" d="M105.5,389.7h387"/>
<path class="st5" d="M105.5,307.7h387"/>
<path class="st5" d="M105.5,224.7h387"/>
<path class="st5" d="M105.5,141.7h387"/>
<g>
	<defs>
		<rect id="SVGID_1_" x="75.4" y="141.4" width="417.2" height="361.7"/>
	</defs>
	<clipPath id="SVGID_2_">
		<use xlink:href="#SVGID_1_"  style="overflow:visible;"/>
	</clipPath>
	<g class="st6">
		<path class="st7" d="M296,199.2v274l-25,25v-274L296,199.2z"/>
	</g>
</g>
<g>
	<defs>
		<rect id="SVGID_3_" x="75.4" y="141.4" width="417.2" height="361.7"/>
	</defs>
	<clipPath id="SVGID_4_">
		<use xlink:href="#SVGID_3_"  style="overflow:visible;"/>
	</clipPath>
	<g class="st8">
		<path class="st9" d="M271,224.2h-99l25-25h99L271,224.2z"/>
	</g>
</g>
<g>
	<defs>
		<rect id="SVGID_5_" x="75.4" y="141.4" width="417.2" height="361.7"/>
	</defs>
	<clipPath id="SVGID_6_">
		<use xlink:href="#SVGID_5_"  style="overflow:visible;"/>
	</clipPath>
	<g class="st10">
		<path class="st11" d="M271,498.2h-99v-274h99V498.2z"/>
	</g>
</g>
<g>
	<defs>
		<rect id="SVGID_7_" x="75.4" y="141.4" width="417.2" height="361.7"/>
	</defs>
	<clipPath id="SVGID_8_">
		<use xlink:href="#SVGID_7_"  style="overflow:visible;"/>
	</clipPath>
	<g class="st12">
		<path class="st2" d="M271,498.2h-99v-274h99V498.2z"/>
	</g>
</g>
<g>
	<defs>
		<rect id="SVGID_9_" x="75.4" y="141.4" width="417.2" height="361.7"/>
	</defs>
	<clipPath id="SVGID_10_">
		<use xlink:href="#SVGID_9_"  style="overflow:visible;"/>
	</clipPath>
	<g class="st13">
		<path class="st14" d="M396,410.2v63l-25,25v-63L396,410.2z"/>
	</g>
</g>
<g>
	<defs>
		<rect id="SVGID_11_" x="75.4" y="141.4" width="417.2" height="361.7"/>
	</defs>
	<clipPath id="SVGID_12_">
		<use xlink:href="#SVGID_11_"  style="overflow:visible;"/>
	</clipPath>
	<g class="st15">
		<path class="st16" d="M371,435.2h-99l25-25h99L371,435.2z"/>
	</g>
</g>
<g>
	<defs>
		<rect id="SVGID_13_" x="75.4" y="141.4" width="417.2" height="361.7"/>
	</defs>
	<clipPath id="SVGID_14_">
		<use xlink:href="#SVGID_13_"  style="overflow:visible;"/>
	</clipPath>
	<g class="st17">
		<path class="st11" d="M371,498.2h-99v-63h99V498.2z"/>
	</g>
</g>
<g>
	<defs>
		<rect id="SVGID_15_" x="75.4" y="141.4" width="417.2" height="361.7"/>
	</defs>
	<clipPath id="SVGID_16_">
		<use xlink:href="#SVGID_15_"  style="overflow:visible;"/>
	</clipPath>
	<g class="st18">
		<path class="st19" d="M371,498.2h-99v-63h99V498.2z"/>
	</g>
</g>
<path class="st20" d="M204.3,241.2h-1.1V234l-2.2,0.8v-1l3.1-1.2h0.2V241.2z M212,232.7v0.9h-0.2c-0.7,0-1.5,0.3-2,0.8
	c-0.5,0.5-0.8,1.2-0.9,2c0.5-0.5,1.1-0.8,1.8-0.8c0.7,0,1.3,0.3,1.8,0.8c0.9,1.2,0.9,2.9-0.1,4.1c-1,1-2.7,1.1-3.7,0
	c-0.1-0.1-0.1-0.1-0.2-0.2c-0.5-0.7-0.8-1.6-0.8-2.4v-0.4c-0.1-1.3,0.3-2.6,1-3.6c0.7-0.9,1.9-1.3,3-1.3L212,232.7z M210.6,236.5
	c-0.4,0-0.7,0.1-1,0.3c-0.3,0.2-0.5,0.5-0.7,0.8v0.4c0,0.6,0.1,1.2,0.5,1.7c0.3,0.4,0.7,0.6,1.2,0.6c0.4,0,0.9-0.2,1.1-0.5
	c0.3-0.4,0.4-0.9,0.4-1.4c0-0.5-0.1-1-0.4-1.4C211.4,236.7,211,236.5,210.6,236.5L210.6,236.5z M215.2,236.9l0.4-4.2h4.4v1h-3.5
	l-0.2,2.3c0.4-0.3,0.9-0.4,1.4-0.4c0.7,0,1.4,0.3,1.9,0.8c0.5,0.6,0.7,1.3,0.7,2.1c0,0.8-0.2,1.5-0.7,2.1c-0.5,0.5-1.3,0.8-2,0.8
	c-0.7,0-1.3-0.2-1.8-0.6c-0.5-0.5-0.8-1.1-0.8-1.8h1c0,0.4,0.2,0.8,0.5,1.1c0.3,0.3,0.7,0.4,1.1,0.4c0.5,0,0.9-0.2,1.2-0.5
	c0.3-0.4,0.5-0.9,0.4-1.4c0-0.5-0.1-1-0.5-1.4c-0.3-0.4-0.8-0.5-1.2-0.5c-0.4,0-0.8,0.1-1.1,0.3l-0.3,0.2L215.2,236.9z M221.8,242.9
	l-0.6-0.4c0.4-0.5,0.6-1,0.6-1.6v-1h1.1v0.9c0,0.4-0.1,0.8-0.3,1.2C222.3,242.3,222.1,242.6,221.8,242.9L221.8,242.9z M229.1,237.6
	c0.1,1-0.2,2-0.6,2.8c-1,1.1-2.7,1.2-3.8,0.2c-0.1-0.1-0.1-0.1-0.2-0.2c-0.5-0.8-0.7-1.8-0.7-2.7v-1.4c-0.1-1,0.2-1.9,0.6-2.8
	c1-1.1,2.8-1.2,3.9-0.2c0.1,0.1,0.1,0.1,0.2,0.2c0.5,0.8,0.7,1.8,0.7,2.7L229.1,237.6z M228,236.1c0-0.7-0.1-1.4-0.4-2
	c-0.3-0.4-0.7-0.7-1.2-0.6c-0.5,0-1,0.2-1.2,0.6c-0.3,0.6-0.4,1.3-0.4,1.9v1.7c0,0.7,0.1,1.4,0.4,2c0.3,0.4,0.7,0.7,1.2,0.7
	c0.5,0,0.9-0.2,1.2-0.6c0.3-0.6,0.5-1.3,0.4-2V236.1z M236.1,237.6c0.1,1-0.2,2-0.6,2.8c-1,1.1-2.7,1.2-3.8,0.2
	c-0.1-0.1-0.1-0.1-0.2-0.2c-0.5-0.8-0.7-1.8-0.7-2.7v-1.4c-0.1-1,0.2-1.9,0.6-2.8c1-1.1,2.8-1.2,3.9-0.2c0.1,0.1,0.1,0.1,0.2,0.2
	c0.5,0.8,0.7,1.8,0.7,2.7L236.1,237.6z M235,236.1c0-0.7-0.1-1.4-0.4-2c-0.3-0.4-0.7-0.7-1.2-0.6c-0.5,0-1,0.2-1.2,0.6
	c-0.3,0.6-0.4,1.3-0.4,1.9v1.7c0,0.7,0.1,1.4,0.4,2c0.3,0.4,0.7,0.7,1.2,0.7c0.5,0,0.9-0.2,1.2-0.6c0.3-0.6,0.5-1.3,0.4-2V236.1z
	 M243.1,237.6c0.1,1-0.2,2-0.6,2.8c-1,1.1-2.7,1.2-3.8,0.2c-0.1-0.1-0.1-0.1-0.2-0.2c-0.5-0.8-0.7-1.8-0.7-2.7v-1.4
	c-0.1-1,0.2-1.9,0.6-2.8c1-1.1,2.8-1.2,3.9-0.2c0.1,0.1,0.1,0.1,0.2,0.2c0.5,0.8,0.7,1.8,0.7,2.7L243.1,237.6z M242,236.1
	c0-0.7-0.1-1.4-0.4-2c-0.3-0.4-0.7-0.7-1.2-0.6c-0.5,0-1,0.2-1.2,0.6c-0.3,0.6-0.4,1.3-0.4,1.9v1.7c0,0.7,0.1,1.4,0.4,2
	c0.3,0.4,0.7,0.7,1.2,0.7c0.5,0,0.9-0.2,1.2-0.6c0.3-0.6,0.5-1.3,0.4-2V236.1z"/>
<path class="st21" d="M204.3,241.2h-1.1V234l-2.2,0.8v-1l3.1-1.2h0.2V241.2z M212,232.7v0.9h-0.2c-0.7,0-1.5,0.3-2,0.8
	c-0.5,0.5-0.8,1.2-0.9,2c0.5-0.5,1.1-0.8,1.8-0.8c0.7,0,1.3,0.3,1.8,0.8c0.9,1.2,0.9,2.9-0.1,4.1c-1,1-2.7,1.1-3.7,0
	c-0.1-0.1-0.1-0.1-0.2-0.2c-0.5-0.7-0.8-1.6-0.8-2.4v-0.4c-0.1-1.3,0.3-2.6,1-3.6c0.7-0.9,1.9-1.3,3-1.3L212,232.7z M210.6,236.5
	c-0.4,0-0.7,0.1-1,0.3c-0.3,0.2-0.5,0.5-0.7,0.8v0.4c0,0.6,0.1,1.2,0.5,1.7c0.3,0.4,0.7,0.6,1.2,0.6c0.4,0,0.9-0.2,1.1-0.5
	c0.3-0.4,0.4-0.9,0.4-1.4c0-0.5-0.1-1-0.4-1.4C211.4,236.7,211,236.5,210.6,236.5L210.6,236.5z M215.2,236.9l0.4-4.2h4.4v1h-3.5
	l-0.2,2.3c0.4-0.3,0.9-0.4,1.4-0.4c0.7,0,1.4,0.3,1.9,0.8c0.5,0.6,0.7,1.3,0.7,2.1c0,0.8-0.2,1.5-0.7,2.1c-0.5,0.5-1.3,0.8-2,0.8
	c-0.7,0-1.3-0.2-1.8-0.6c-0.5-0.5-0.8-1.1-0.8-1.8h1c0,0.4,0.2,0.8,0.5,1.1c0.3,0.3,0.7,0.4,1.1,0.4c0.5,0,0.9-0.2,1.2-0.5
	c0.3-0.4,0.5-0.9,0.4-1.4c0-0.5-0.1-1-0.5-1.4c-0.3-0.4-0.8-0.5-1.2-0.5c-0.4,0-0.8,0.1-1.1,0.3l-0.3,0.2L215.2,236.9z M221.8,242.9
	l-0.6-0.4c0.4-0.5,0.6-1,0.6-1.6v-1h1.1v0.9c0,0.4-0.1,0.8-0.3,1.2C222.3,242.3,222.1,242.6,221.8,242.9L221.8,242.9z M229.1,237.6
	c0.1,1-0.2,2-0.6,2.8c-1,1.1-2.7,1.2-3.8,0.2c-0.1-0.1-0.1-0.1-0.2-0.2c-0.5-0.8-0.7-1.8-0.7-2.7v-1.4c-0.1-1,0.2-1.9,0.6-2.8
	c1-1.1,2.8-1.2,3.9-0.2c0.1,0.1,0.1,0.1,0.2,0.2c0.5,0.8,0.7,1.8,0.7,2.7L229.1,237.6z M228,236.1c0-0.7-0.1-1.4-0.4-2
	c-0.3-0.4-0.7-0.7-1.2-0.6c-0.5,0-1,0.2-1.2,0.6c-0.3,0.6-0.4,1.3-0.4,1.9v1.7c0,0.7,0.1,1.4,0.4,2c0.3,0.4,0.7,0.7,1.2,0.7
	c0.5,0,0.9-0.2,1.2-0.6c0.3-0.6,0.5-1.3,0.4-2V236.1z M236.1,237.6c0.1,1-0.2,2-0.6,2.8c-1,1.1-2.7,1.2-3.8,0.2
	c-0.1-0.1-0.1-0.1-0.2-0.2c-0.5-0.8-0.7-1.8-0.7-2.7v-1.4c-0.1-1,0.2-1.9,0.6-2.8c1-1.1,2.8-1.2,3.9-0.2c0.1,0.1,0.1,0.1,0.2,0.2
	c0.5,0.8,0.7,1.8,0.7,2.7L236.1,237.6z M235,236.1c0-0.7-0.1-1.4-0.4-2c-0.3-0.4-0.7-0.7-1.2-0.6c-0.5,0-1,0.2-1.2,0.6
	c-0.3,0.6-0.4,1.3-0.4,1.9v1.7c0,0.7,0.1,1.4,0.4,2c0.3,0.4,0.7,0.7,1.2,0.7c0.5,0,0.9-0.2,1.2-0.6c0.3-0.6,0.5-1.3,0.4-2V236.1z
	 M243.1,237.6c0.1,1-0.2,2-0.6,2.8c-1,1.1-2.7,1.2-3.8,0.2c-0.1-0.1-0.1-0.1-0.2-0.2c-0.5-0.8-0.7-1.8-0.7-2.7v-1.4
	c-0.1-1,0.2-1.9,0.6-2.8c1-1.1,2.8-1.2,3.9-0.2c0.1,0.1,0.1,0.1,0.2,0.2c0.5,0.8,0.7,1.8,0.7,2.7L243.1,237.6z M242,236.1
	c0-0.7-0.1-1.4-0.4-2c-0.3-0.4-0.7-0.7-1.2-0.6c-0.5,0-1,0.2-1.2,0.6c-0.3,0.6-0.4,1.3-0.4,1.9v1.7c0,0.7,0.1,1.4,0.4,2
	c0.3,0.4,0.7,0.7,1.2,0.7c0.5,0,0.9-0.2,1.2-0.6c0.3-0.6,0.5-1.3,0.4-2V236.1z"/>
<path class="st22" d="M305.8,447h0.8c0.4,0,0.9-0.1,1.2-0.4c0.3-0.3,0.5-0.7,0.4-1.1c0.1-0.7-0.4-1.4-1.1-1.5c-0.1,0-0.2,0-0.4,0
	c-0.4,0-0.8,0.1-1.1,0.4c-0.3,0.3-0.4,0.7-0.4,1.1h-1.1c0-0.6,0.3-1.3,0.7-1.7c0.5-0.5,1.2-0.7,1.9-0.7c0.7,0,1.4,0.2,1.9,0.6
	c0.5,0.5,0.7,1.1,0.7,1.8c0,0.4-0.1,0.8-0.4,1.1c-0.3,0.3-0.6,0.6-1,0.8c0.9,0.2,1.5,1.1,1.5,2c0,0.7-0.2,1.4-0.8,1.8
	c-0.5,0.5-1.2,0.7-2,0.7c-0.7,0-1.4-0.2-2-0.7c-0.5-0.4-0.8-1.1-0.8-1.7h1.1c0,0.4,0.1,0.8,0.4,1.1c0.3,0.3,0.8,0.4,1.2,0.4
	c0.8,0.1,1.5-0.5,1.6-1.3c0-0.1,0-0.2,0-0.3c0-0.4-0.1-0.8-0.5-1.1c-0.4-0.3-0.9-0.4-1.3-0.4h-0.8L305.8,447z M316.4,445.5
	c0,0.4-0.1,0.8-0.3,1.1c-0.2,0.3-0.5,0.6-0.9,0.8c0.4,0.2,0.8,0.5,1,0.9c0.3,0.4,0.4,0.8,0.4,1.2c0,0.7-0.2,1.3-0.8,1.8
	c-0.5,0.5-1.2,0.7-2,0.7c-0.7,0-1.4-0.2-2-0.7c-0.5-0.4-0.8-1.1-0.7-1.8c0-0.4,0.1-0.9,0.4-1.2c0.3-0.4,0.6-0.7,1-0.9
	c-0.4-0.2-0.7-0.4-0.9-0.8c-0.2-0.3-0.3-0.7-0.3-1.1c0-0.6,0.2-1.3,0.7-1.7c1.1-0.9,2.6-0.9,3.6,0
	C316.2,444.2,316.4,444.8,316.4,445.5L316.4,445.5z M315.5,449.5c0-0.4-0.1-0.9-0.5-1.2c-0.7-0.6-1.7-0.6-2.4,0
	c-0.3,0.3-0.5,0.7-0.4,1.2c0,0.4,0.1,0.8,0.4,1.1c0.3,0.3,0.8,0.4,1.2,0.4c0.4,0,0.9-0.1,1.2-0.4
	C315.4,450.3,315.5,449.9,315.5,449.5L315.5,449.5z M313.9,444c-0.4,0-0.8,0.1-1,0.4c-0.3,0.3-0.4,0.7-0.4,1.1c0,0.4,0.1,0.8,0.4,1
	c0.3,0.3,0.6,0.4,1,0.4c0.4,0,0.8-0.1,1-0.4c0.5-0.6,0.5-1.5,0-2.1C314.6,444.1,314.3,444,313.9,444z M318.3,453.5l-0.6-0.4
	c0.4-0.5,0.6-1,0.6-1.6v-1h1.1v0.9c0,0.4-0.1,0.8-0.3,1.2C318.9,452.9,318.6,453.2,318.3,453.5L318.3,453.5z M325.6,448.1
	c0.1,1-0.2,2-0.6,2.9c-1,1.1-2.7,1.2-3.8,0.2c-0.1-0.1-0.2-0.2-0.2-0.2c-0.5-0.8-0.7-1.8-0.7-2.7v-1.4c-0.1-1,0.2-1.9,0.6-2.8
	c1-1.1,2.8-1.2,3.9-0.2c0.1,0.1,0.1,0.1,0.2,0.2c0.5,0.8,0.7,1.8,0.7,2.7L325.6,448.1z M324.5,446.6c0-0.7-0.1-1.4-0.4-2
	c-0.3-0.4-0.7-0.7-1.2-0.6c-0.5,0-1,0.2-1.2,0.6c-0.3,0.6-0.4,1.3-0.4,1.9v1.7c0,0.7,0.1,1.4,0.4,2c0.3,0.4,0.7,0.7,1.2,0.7
	c0.5,0,0.9-0.2,1.2-0.6c0.3-0.6,0.5-1.3,0.4-2V446.6z M332.6,448.1c0.1,1-0.2,2-0.6,2.9c-1,1.1-2.7,1.2-3.8,0.2
	c-0.1-0.1-0.2-0.2-0.2-0.2c-0.5-0.8-0.7-1.8-0.7-2.7v-1.4c-0.1-1,0.2-1.9,0.6-2.8c1-1.1,2.8-1.2,3.9-0.2c0.1,0.1,0.1,0.1,0.2,0.2
	c0.5,0.8,0.7,1.8,0.7,2.7L332.6,448.1z M331.5,446.6c0-0.7-0.1-1.4-0.4-2c-0.3-0.4-0.7-0.7-1.2-0.6c-0.5,0-1,0.2-1.2,0.6
	c-0.3,0.6-0.4,1.3-0.4,1.9v1.7c0,0.7,0.1,1.4,0.4,2c0.3,0.4,0.7,0.7,1.2,0.7c0.5,0,0.9-0.2,1.2-0.6c0.3-0.6,0.5-1.3,0.4-2V446.6z
	 M339.6,448.1c0.1,1-0.2,2-0.6,2.9c-1,1.1-2.7,1.2-3.8,0.2c-0.1-0.1-0.2-0.2-0.2-0.2c-0.5-0.8-0.7-1.8-0.7-2.7v-1.4
	c-0.1-1,0.2-1.9,0.6-2.8c1-1.1,2.8-1.2,3.9-0.2c0.1,0.1,0.1,0.1,0.2,0.2c0.5,0.8,0.7,1.8,0.7,2.7L339.6,448.1z M338.5,446.6
	c0-0.7-0.1-1.4-0.4-2c-0.3-0.4-0.7-0.7-1.2-0.6c-0.5,0-1,0.2-1.2,0.6c-0.3,0.6-0.4,1.3-0.4,1.9v1.7c0,0.7,0.1,1.4,0.4,2
	c0.3,0.4,0.7,0.7,1.2,0.7c0.5,0,0.9-0.2,1.2-0.6c0.3-0.6,0.5-1.3,0.4-2V446.6z"/>
<path class="st21" d="M305.8,447h0.8c0.4,0,0.9-0.1,1.2-0.4c0.3-0.3,0.5-0.7,0.4-1.1c0.1-0.7-0.4-1.4-1.1-1.5c-0.1,0-0.2,0-0.4,0
	c-0.4,0-0.8,0.1-1.1,0.4c-0.3,0.3-0.4,0.7-0.4,1.1h-1.1c0-0.6,0.3-1.3,0.7-1.7c0.5-0.5,1.2-0.7,1.9-0.7c0.7,0,1.4,0.2,1.9,0.6
	c0.5,0.5,0.7,1.1,0.7,1.8c0,0.4-0.1,0.8-0.4,1.1c-0.3,0.3-0.6,0.6-1,0.8c0.9,0.2,1.5,1.1,1.5,2c0,0.7-0.2,1.4-0.8,1.8
	c-0.5,0.5-1.2,0.7-2,0.7c-0.7,0-1.4-0.2-2-0.7c-0.5-0.4-0.8-1.1-0.8-1.7h1.1c0,0.4,0.1,0.8,0.4,1.1c0.3,0.3,0.8,0.4,1.2,0.4
	c0.8,0.1,1.5-0.5,1.6-1.3c0-0.1,0-0.2,0-0.3c0-0.4-0.1-0.8-0.5-1.1c-0.4-0.3-0.9-0.4-1.3-0.4h-0.8L305.8,447z M316.4,445.5
	c0,0.4-0.1,0.8-0.3,1.1c-0.2,0.3-0.5,0.6-0.9,0.8c0.4,0.2,0.8,0.5,1,0.9c0.3,0.4,0.4,0.8,0.4,1.2c0,0.7-0.2,1.3-0.8,1.8
	c-0.5,0.5-1.2,0.7-2,0.7c-0.7,0-1.4-0.2-2-0.7c-0.5-0.4-0.8-1.1-0.7-1.8c0-0.4,0.1-0.9,0.4-1.2c0.3-0.4,0.6-0.7,1-0.9
	c-0.4-0.2-0.7-0.4-0.9-0.8c-0.2-0.3-0.3-0.7-0.3-1.1c0-0.6,0.2-1.3,0.7-1.7c1.1-0.9,2.6-0.9,3.6,0
	C316.2,444.2,316.4,444.8,316.4,445.5L316.4,445.5z M315.5,449.5c0-0.4-0.1-0.9-0.5-1.2c-0.7-0.6-1.7-0.6-2.4,0
	c-0.3,0.3-0.5,0.7-0.4,1.2c0,0.4,0.1,0.8,0.4,1.1c0.3,0.3,0.8,0.4,1.2,0.4c0.4,0,0.9-0.1,1.2-0.4
	C315.4,450.3,315.5,449.9,315.5,449.5L315.5,449.5z M313.9,444c-0.4,0-0.8,0.1-1,0.4c-0.3,0.3-0.4,0.7-0.4,1.1c0,0.4,0.1,0.8,0.4,1
	c0.3,0.3,0.6,0.4,1,0.4c0.4,0,0.8-0.1,1-0.4c0.5-0.6,0.5-1.5,0-2.1C314.6,444.1,314.3,444,313.9,444z M318.3,453.5l-0.6-0.4
	c0.4-0.5,0.6-1,0.6-1.6v-1h1.1v0.9c0,0.4-0.1,0.8-0.3,1.2C318.9,452.9,318.6,453.2,318.3,453.5L318.3,453.5z M325.6,448.1
	c0.1,1-0.2,2-0.6,2.9c-1,1.1-2.7,1.2-3.8,0.2c-0.1-0.1-0.2-0.2-0.2-0.2c-0.5-0.8-0.7-1.8-0.7-2.7v-1.4c-0.1-1,0.2-1.9,0.6-2.8
	c1-1.1,2.8-1.2,3.9-0.2c0.1,0.1,0.1,0.1,0.2,0.2c0.5,0.8,0.7,1.8,0.7,2.7L325.6,448.1z M324.5,446.6c0-0.7-0.1-1.4-0.4-2
	c-0.3-0.4-0.7-0.7-1.2-0.6c-0.5,0-1,0.2-1.2,0.6c-0.3,0.6-0.4,1.3-0.4,1.9v1.7c0,0.7,0.1,1.4,0.4,2c0.3,0.4,0.7,0.7,1.2,0.7
	c0.5,0,0.9-0.2,1.2-0.6c0.3-0.6,0.5-1.3,0.4-2V446.6z M332.6,448.1c0.1,1-0.2,2-0.6,2.9c-1,1.1-2.7,1.2-3.8,0.2
	c-0.1-0.1-0.2-0.2-0.2-0.2c-0.5-0.8-0.7-1.8-0.7-2.7v-1.4c-0.1-1,0.2-1.9,0.6-2.8c1-1.1,2.8-1.2,3.9-0.2c0.1,0.1,0.1,0.1,0.2,0.2
	c0.5,0.8,0.7,1.8,0.7,2.7L332.6,448.1z M331.5,446.6c0-0.7-0.1-1.4-0.4-2c-0.3-0.4-0.7-0.7-1.2-0.6c-0.5,0-1,0.2-1.2,0.6
	c-0.3,0.6-0.4,1.3-0.4,1.9v1.7c0,0.7,0.1,1.4,0.4,2c0.3,0.4,0.7,0.7,1.2,0.7c0.5,0,0.9-0.2,1.2-0.6c0.3-0.6,0.5-1.3,0.4-2V446.6z
	 M339.6,448.1c0.1,1-0.2,2-0.6,2.9c-1,1.1-2.7,1.2-3.8,0.2c-0.1-0.1-0.2-0.2-0.2-0.2c-0.5-0.8-0.7-1.8-0.7-2.7v-1.4
	c-0.1-1,0.2-1.9,0.6-2.8c1-1.1,2.8-1.2,3.9-0.2c0.1,0.1,0.1,0.1,0.2,0.2c0.5,0.8,0.7,1.8,0.7,2.7L339.6,448.1z M338.5,446.6
	c0-0.7-0.1-1.4-0.4-2c-0.3-0.4-0.7-0.7-1.2-0.6c-0.5,0-1,0.2-1.2,0.6c-0.3,0.6-0.4,1.3-0.4,1.9v1.7c0,0.7,0.1,1.4,0.4,2
	c0.3,0.4,0.7,0.7,1.2,0.7c0.5,0,0.9-0.2,1.2-0.6c0.3-0.6,0.5-1.3,0.4-2V446.6z"/>
<path class="st23" d="M68.5,473.9c0.1,1-0.2,2-0.7,2.8c-0.5,0.6-1.2,1-2,0.9c-0.8,0-1.5-0.3-2-0.9c-0.5-0.8-0.7-1.8-0.7-2.7v-1.4
	c-0.1-1,0.2-1.9,0.6-2.8c1-1.1,2.7-1.2,3.9-0.2c0.1,0.1,0.2,0.1,0.2,0.2c0.5,0.8,0.7,1.8,0.7,2.7L68.5,473.9z M67.4,472.4
	c0.1-0.7-0.1-1.4-0.4-2c-0.3-0.4-0.7-0.7-1.2-0.6c-0.5,0-1,0.2-1.2,0.6c-0.3,0.6-0.4,1.3-0.4,1.9v1.7c0,0.7,0.1,1.4,0.4,2
	c0.3,0.4,0.7,0.7,1.2,0.7c0.5,0,0.9-0.2,1.2-0.6c0.3-0.6,0.4-1.3,0.4-2V472.4z"/>
<path class="st23" d="M33.6,390.3l0.4-4.2h4.4v1H35l-0.3,2.3c0.4-0.3,0.9-0.4,1.4-0.4c0.7,0,1.4,0.3,1.8,0.8
	c0.5,0.6,0.7,1.3,0.7,2.1c0.1,0.8-0.2,1.5-0.7,2.1c-0.5,0.5-1.3,0.8-2,0.8c-0.7,0-1.3-0.2-1.8-0.6c-0.5-0.5-0.8-1.1-0.8-1.8h1
	c0,0.4,0.2,0.8,0.5,1.1c0.3,0.3,0.7,0.4,1.1,0.4c0.5,0,0.9-0.2,1.2-0.5c0.3-0.4,0.5-0.9,0.4-1.4c0-0.5-0.1-1-0.5-1.4
	c-0.3-0.4-0.8-0.5-1.2-0.5c-0.4,0-0.8,0.1-1.1,0.3l-0.3,0.2L33.6,390.3z M45.5,391c0.1,1-0.2,2-0.7,2.9c-1,1.1-2.7,1.2-3.8,0.2
	c-0.1-0.1-0.2-0.2-0.2-0.2c-0.5-0.8-0.7-1.8-0.7-2.7v-1.4c-0.1-1,0.2-1.9,0.6-2.8c1-1.1,2.8-1.2,3.9-0.2c0.1,0.1,0.1,0.1,0.2,0.2
	c0.5,0.8,0.7,1.8,0.7,2.7V391z M44.4,389.5c0-0.7-0.1-1.4-0.4-2c-0.3-0.4-0.7-0.7-1.2-0.6c-0.5,0-1,0.2-1.2,0.6
	c-0.3,0.6-0.4,1.3-0.4,1.9v1.7c0,0.7,0.1,1.4,0.4,2c0.3,0.4,0.7,0.7,1.2,0.7c0.5,0,0.9-0.2,1.2-0.6c0.3-0.6,0.4-1.3,0.4-2V389.5z
	 M47.2,396.3l-0.6-0.4c0.4-0.5,0.6-1,0.6-1.6v-1h1.1v0.9c0,0.4-0.1,0.8-0.3,1.2C47.7,395.7,47.5,396,47.2,396.3z M54.5,391
	c0.1,1-0.2,2-0.7,2.9c-1,1.1-2.7,1.2-3.8,0.2c-0.1-0.1-0.2-0.2-0.2-0.2c-0.5-0.8-0.7-1.8-0.7-2.7v-1.4c-0.1-1,0.2-1.9,0.6-2.8
	c1-1.1,2.8-1.2,3.9-0.2c0.1,0.1,0.1,0.1,0.2,0.2c0.5,0.8,0.7,1.8,0.7,2.7V391z M53.4,389.5c0-0.7-0.1-1.4-0.4-2
	c-0.3-0.4-0.7-0.7-1.2-0.6c-0.5,0-1,0.2-1.2,0.6c-0.3,0.6-0.4,1.3-0.4,1.9v1.7c0,0.7,0.1,1.4,0.4,2c0.3,0.4,0.7,0.7,1.2,0.7
	c0.5,0,0.9-0.2,1.2-0.6c0.3-0.6,0.4-1.3,0.4-2V389.5z M61.5,391c0.1,1-0.2,2-0.7,2.9c-1,1.1-2.7,1.2-3.8,0.2
	c-0.1-0.1-0.2-0.2-0.2-0.2c-0.5-0.8-0.7-1.8-0.7-2.7v-1.4c-0.1-1,0.2-1.9,0.6-2.8c1-1.1,2.8-1.2,3.9-0.2c0.1,0.1,0.1,0.1,0.2,0.2
	c0.5,0.8,0.7,1.8,0.7,2.7V391z M60.4,389.5c0-0.7-0.1-1.4-0.4-2c-0.3-0.4-0.7-0.7-1.2-0.6c-0.5,0-1,0.2-1.2,0.6
	c-0.3,0.6-0.4,1.3-0.4,1.9v1.7c0,0.7,0.1,1.4,0.4,2c0.3,0.4,0.7,0.7,1.2,0.7c0.5,0,0.9-0.2,1.2-0.6c0.3-0.6,0.4-1.3,0.4-2V389.5z
	 M68.5,391c0.1,1-0.2,2-0.7,2.9c-1,1.1-2.7,1.2-3.8,0.2c-0.1-0.1-0.2-0.2-0.2-0.2c-0.5-0.8-0.7-1.8-0.7-2.7v-1.4
	c-0.1-1,0.2-1.9,0.6-2.8c1-1.1,2.8-1.2,3.9-0.2c0.1,0.1,0.1,0.1,0.2,0.2c0.5,0.8,0.7,1.8,0.7,2.7V391z M67.4,389.5
	c0-0.7-0.1-1.4-0.4-2c-0.3-0.4-0.7-0.7-1.2-0.6c-0.5,0-1,0.2-1.2,0.6c-0.3,0.6-0.4,1.3-0.4,1.9v1.7c0,0.7,0.1,1.4,0.4,2
	c0.3,0.4,0.7,0.7,1.2,0.7c0.5,0,0.9-0.2,1.2-0.6c0.3-0.6,0.4-1.3,0.4-2V389.5z"/>
<path class="st23" d="M29.7,311.7h-1.1v-7.2l-2.2,0.8v-1l3.1-1.2h0.2V311.7z M38.5,308c0.1,1-0.2,2-0.7,2.8c-0.5,0.6-1.2,1-2,0.9
	c-0.8,0.1-1.5-0.3-2-0.9c-0.5-0.8-0.7-1.8-0.7-2.7v-1.4c-0.1-1,0.2-1.9,0.6-2.8c1-1.1,2.8-1.2,3.9-0.2c0.1,0.1,0.1,0.1,0.2,0.2
	c0.5,0.8,0.7,1.8,0.7,2.7L38.5,308z M37.4,306.6c0-0.7-0.1-1.4-0.4-2c-0.3-0.4-0.7-0.7-1.2-0.6c-0.5,0-1,0.2-1.2,0.6
	c-0.3,0.6-0.4,1.3-0.4,1.9v1.7c0,0.7,0.1,1.4,0.4,2c0.3,0.4,0.7,0.7,1.2,0.6c0.5,0.1,1-0.2,1.2-0.6c0.3-0.6,0.5-1.3,0.4-2
	L37.4,306.6z M45.5,308c0.1,1-0.2,2-0.7,2.8c-0.5,0.6-1.2,1-2,0.9c-0.8,0.1-1.5-0.3-2-0.9c-0.5-0.8-0.7-1.8-0.7-2.7v-1.4
	c-0.1-1,0.2-1.9,0.6-2.8c1-1.1,2.8-1.2,3.9-0.2c0.1,0.1,0.1,0.1,0.2,0.2c0.5,0.8,0.7,1.8,0.7,2.7L45.5,308z M44.4,306.6
	c0-0.7-0.1-1.4-0.4-2c-0.3-0.4-0.7-0.7-1.2-0.6c-0.5,0-1,0.2-1.2,0.6c-0.3,0.6-0.4,1.3-0.4,1.9v1.7c0,0.7,0.1,1.4,0.4,2
	c0.3,0.4,0.7,0.7,1.2,0.6c0.5,0.1,1-0.2,1.2-0.6c0.3-0.6,0.5-1.3,0.4-2L44.4,306.6z M47.2,313.4l-0.6-0.4c0.3-0.5,0.6-1,0.6-1.6v-1
	h1.1v0.8c0,0.4-0.1,0.8-0.3,1.2C47.7,312.8,47.5,313.1,47.2,313.4L47.2,313.4z M54.5,308c0.1,1-0.2,2-0.7,2.8c-0.5,0.6-1.2,1-2,0.9
	c-0.8,0.1-1.5-0.3-2-0.9c-0.5-0.8-0.7-1.8-0.7-2.7v-1.4c-0.1-1,0.2-1.9,0.6-2.8c1-1.1,2.8-1.2,3.9-0.2c0.1,0.1,0.1,0.1,0.2,0.2
	c0.5,0.8,0.7,1.8,0.7,2.7L54.5,308z M53.4,306.6c0-0.7-0.1-1.4-0.4-2c-0.3-0.4-0.7-0.7-1.2-0.6c-0.5,0-1,0.2-1.2,0.6
	c-0.3,0.6-0.4,1.3-0.4,1.9v1.7c0,0.7,0.1,1.4,0.4,2c0.3,0.4,0.7,0.7,1.2,0.6c0.5,0.1,1-0.2,1.2-0.6c0.3-0.6,0.5-1.3,0.4-2
	L53.4,306.6z M61.5,308c0.1,1-0.2,2-0.7,2.8c-0.5,0.6-1.2,1-2,0.9c-0.8,0.1-1.5-0.3-2-0.9c-0.5-0.8-0.7-1.8-0.7-2.7v-1.4
	c-0.1-1,0.2-1.9,0.6-2.8c1-1.1,2.8-1.2,3.9-0.2c0.1,0.1,0.1,0.1,0.2,0.2c0.5,0.8,0.7,1.8,0.7,2.7L61.5,308z M60.4,306.6
	c0-0.7-0.1-1.4-0.4-2c-0.3-0.4-0.7-0.7-1.2-0.6c-0.5,0-1,0.2-1.2,0.6c-0.3,0.6-0.4,1.3-0.4,1.9v1.7c0,0.7,0.1,1.4,0.4,2
	c0.3,0.4,0.7,0.7,1.2,0.6c0.5,0.1,1-0.2,1.2-0.6c0.3-0.6,0.5-1.3,0.4-2L60.4,306.6z M68.5,308c0.1,1-0.2,2-0.7,2.8
	c-0.5,0.6-1.2,1-2,0.9c-0.8,0.1-1.5-0.3-2-0.9c-0.5-0.8-0.7-1.8-0.7-2.7v-1.4c-0.1-1,0.2-1.9,0.6-2.8c1-1.1,2.8-1.2,3.9-0.2
	c0.1,0.1,0.1,0.1,0.2,0.2c0.5,0.8,0.7,1.8,0.7,2.7L68.5,308z M67.4,306.6c0-0.7-0.1-1.4-0.4-2c-0.3-0.4-0.7-0.7-1.2-0.6
	c-0.5,0-1,0.2-1.2,0.6c-0.3,0.6-0.4,1.3-0.4,1.9v1.7c0,0.7,0.1,1.4,0.4,2c0.3,0.4,0.7,0.7,1.2,0.6c0.5,0.1,1-0.2,1.2-0.6
	c0.3-0.6,0.5-1.3,0.4-2L67.4,306.6z"/>
<path class="st23" d="M29.7,228.8h-1.1v-7.2l-2.2,0.8v-1l3.1-1.2h0.2V228.8z M33.6,224.5l0.4-4.2h4.4v1H35l-0.3,2.3
	c0.4-0.3,0.9-0.4,1.4-0.4c0.7,0,1.4,0.3,1.8,0.8c0.5,0.6,0.7,1.3,0.7,2.1c0,0.8-0.2,1.5-0.7,2.1c-0.5,0.5-1.3,0.8-2,0.8
	c-0.7,0-1.3-0.2-1.8-0.6c-0.5-0.5-0.8-1.1-0.8-1.8h1c0,0.4,0.2,0.8,0.5,1.1c0.3,0.3,0.7,0.4,1.2,0.3c0.5,0,0.9-0.2,1.2-0.5
	c0.3-0.4,0.5-0.9,0.4-1.4c0-0.5-0.1-1-0.5-1.4c-0.3-0.3-0.8-0.5-1.2-0.5c-0.4,0-0.8,0.1-1.1,0.3l-0.3,0.2L33.6,224.5z M45.5,225.1
	c0.1,1-0.2,2-0.7,2.8c-0.5,0.6-1.2,1-2,0.9c-0.8,0-1.5-0.3-2-0.9c-0.5-0.8-0.7-1.8-0.7-2.7v-1.4c-0.1-1,0.2-1.9,0.6-2.8
	c1-1.1,2.7-1.2,3.9-0.2c0.1,0.1,0.2,0.1,0.2,0.2c0.5,0.8,0.7,1.8,0.7,2.7L45.5,225.1z M44.4,223.7c0.1-0.7-0.1-1.4-0.4-2
	c-0.3-0.4-0.7-0.7-1.2-0.6c-0.5,0-1,0.2-1.2,0.6c-0.3,0.6-0.4,1.3-0.4,1.9v1.7c0,0.7,0.1,1.4,0.4,2c0.3,0.4,0.7,0.7,1.2,0.7
	c0.5,0,0.9-0.2,1.2-0.6c0.3-0.6,0.4-1.3,0.4-1.9V223.7z M47.2,230.5l-0.6-0.4c0.3-0.5,0.6-1,0.6-1.6v-1h1.1v0.8
	c0,0.4-0.1,0.8-0.3,1.2C47.7,229.9,47.5,230.2,47.2,230.5L47.2,230.5z M54.5,225.1c0.1,1-0.2,2-0.7,2.8c-0.5,0.6-1.2,1-2,0.9
	c-0.8,0-1.5-0.3-2-0.9c-0.5-0.8-0.7-1.8-0.7-2.7v-1.4c-0.1-1,0.2-1.9,0.6-2.8c1-1.1,2.7-1.2,3.9-0.2c0.1,0.1,0.2,0.1,0.2,0.2
	c0.5,0.8,0.7,1.8,0.7,2.7L54.5,225.1z M53.4,223.7c0.1-0.7-0.1-1.4-0.4-2c-0.3-0.4-0.7-0.7-1.2-0.6c-0.5,0-1,0.2-1.2,0.6
	c-0.3,0.6-0.4,1.3-0.4,1.9v1.7c0,0.7,0.1,1.4,0.4,2c0.3,0.4,0.7,0.7,1.2,0.7c0.5,0,0.9-0.2,1.2-0.6c0.3-0.6,0.4-1.3,0.4-1.9V223.7z
	 M61.5,225.1c0.1,1-0.2,2-0.7,2.8c-0.5,0.6-1.2,1-2,0.9c-0.8,0-1.5-0.3-2-0.9c-0.5-0.8-0.7-1.8-0.7-2.7v-1.4c-0.1-1,0.2-1.9,0.6-2.8
	c1-1.1,2.7-1.2,3.9-0.2c0.1,0.1,0.2,0.1,0.2,0.2c0.5,0.8,0.7,1.8,0.7,2.7L61.5,225.1z M60.4,223.7c0.1-0.7-0.1-1.4-0.4-2
	c-0.3-0.4-0.7-0.7-1.2-0.6c-0.5,0-1,0.2-1.2,0.6c-0.3,0.6-0.4,1.3-0.4,1.9v1.7c0,0.7,0.1,1.4,0.4,2c0.3,0.4,0.7,0.7,1.2,0.7
	c0.5,0,0.9-0.2,1.2-0.6c0.3-0.6,0.4-1.3,0.4-1.9V223.7z M68.5,225.1c0.1,1-0.2,2-0.7,2.8c-0.5,0.6-1.2,1-2,0.9c-0.8,0-1.5-0.3-2-0.9
	c-0.5-0.8-0.7-1.8-0.7-2.7v-1.4c-0.1-1,0.2-1.9,0.6-2.8c1-1.1,2.7-1.2,3.9-0.2c0.1,0.1,0.2,0.1,0.2,0.2c0.5,0.8,0.7,1.8,0.7,2.7
	L68.5,225.1z M67.4,223.7c0.1-0.7-0.1-1.4-0.4-2c-0.3-0.4-0.7-0.7-1.2-0.6c-0.5,0-1,0.2-1.2,0.6c-0.3,0.6-0.4,1.3-0.4,1.9v1.7
	c0,0.7,0.1,1.4,0.4,2c0.3,0.4,0.7,0.7,1.2,0.7c0.5,0,0.9-0.2,1.2-0.6c0.3-0.6,0.4-1.3,0.4-1.9V223.7z"/>
<path class="st23" d="M31.7,145.9h-5.6v-0.8l3-3.3c0.3-0.4,0.6-0.8,0.9-1.2c0.2-0.3,0.3-0.7,0.2-1c0-0.4-0.1-0.8-0.4-1.1
	c-0.3-0.3-0.7-0.5-1.1-0.4c-0.5,0-0.9,0.1-1.2,0.5c-0.3,0.3-0.5,0.8-0.5,1.3H26c0-0.7,0.2-1.4,0.8-1.9c0.5-0.5,1.3-0.8,2-0.7
	c0.7,0,1.4,0.2,1.9,0.6c0.5,0.4,0.7,1,0.7,1.7c-0.2,1.2-0.7,2.2-1.6,3l-2.3,2.5h4.3V145.9z M38.5,142.2c0.1,1-0.2,2-0.7,2.9
	c-1,1.1-2.7,1.2-3.8,0.2c-0.1-0.1-0.2-0.2-0.2-0.2c-0.5-0.8-0.7-1.8-0.7-2.7v-1.4c-0.1-1,0.2-1.9,0.6-2.8c0.5-0.6,1.2-1,2-0.9
	c0.8-0.1,1.5,0.3,2,0.9c0.5,0.8,0.7,1.8,0.7,2.7L38.5,142.2z M37.4,140.7c0-0.7-0.1-1.4-0.4-2c-0.3-0.4-0.7-0.7-1.2-0.6
	c-0.5,0-1,0.2-1.2,0.6c-0.3,0.6-0.4,1.3-0.4,1.9v1.7c0,0.7,0.1,1.4,0.4,2c0.3,0.4,0.7,0.7,1.2,0.7c0.5,0,0.9-0.2,1.2-0.6
	c0.3-0.6,0.5-1.3,0.4-2V140.7z M45.5,142.2c0.1,1-0.2,2-0.7,2.9c-1,1.1-2.7,1.2-3.8,0.2c-0.1-0.1-0.2-0.2-0.2-0.2
	c-0.5-0.8-0.7-1.8-0.7-2.7v-1.4c-0.1-1,0.2-1.9,0.6-2.8c1-1.1,2.8-1.2,3.9-0.2c0.1,0.1,0.1,0.1,0.2,0.2c0.5,0.8,0.7,1.8,0.7,2.7
	V142.2z M44.4,140.7c0-0.7-0.1-1.4-0.4-2c-0.3-0.4-0.7-0.7-1.2-0.6c-0.5,0-1,0.2-1.2,0.6c-0.3,0.6-0.4,1.3-0.4,1.9v1.7
	c0,0.7,0.1,1.4,0.4,2c0.3,0.4,0.7,0.7,1.2,0.7c0.5,0,0.9-0.2,1.2-0.6c0.3-0.6,0.5-1.3,0.4-2V140.7z M47.2,147.6l-0.6-0.4
	c0.4-0.5,0.6-1,0.6-1.6v-1h1.1v0.9c0,0.4-0.1,0.8-0.3,1.2C47.7,146.9,47.5,147.3,47.2,147.6L47.2,147.6z M54.5,142.2
	c0.1,1-0.2,2-0.7,2.9c-1,1.1-2.7,1.2-3.8,0.2c-0.1-0.1-0.2-0.2-0.2-0.2c-0.5-0.8-0.7-1.8-0.7-2.7v-1.4c-0.1-1,0.2-1.9,0.6-2.8
	c1-1.1,2.8-1.2,3.9-0.2c0.1,0.1,0.1,0.1,0.2,0.2c0.5,0.8,0.7,1.8,0.7,2.7V142.2z M53.4,140.7c0-0.7-0.1-1.4-0.4-2
	c-0.3-0.4-0.7-0.7-1.2-0.6c-0.5,0-1,0.2-1.2,0.6c-0.3,0.6-0.4,1.3-0.4,1.9v1.7c0,0.7,0.1,1.4,0.4,2c0.3,0.4,0.7,0.7,1.2,0.7
	c0.5,0,0.9-0.2,1.2-0.6c0.3-0.6,0.5-1.3,0.4-2V140.7z M61.5,142.2c0.1,1-0.2,2-0.7,2.9c-1,1.1-2.7,1.2-3.8,0.2
	c-0.1-0.1-0.2-0.2-0.2-0.2c-0.5-0.8-0.7-1.8-0.7-2.7v-1.4c-0.1-1,0.2-1.9,0.6-2.8c1-1.1,2.8-1.2,3.9-0.2c0.1,0.1,0.1,0.1,0.2,0.2
	c0.5,0.8,0.7,1.8,0.7,2.7V142.2z M60.4,140.7c0-0.7-0.1-1.4-0.4-2c-0.3-0.4-0.7-0.7-1.2-0.6c-0.5,0-1,0.2-1.2,0.6
	c-0.3,0.6-0.4,1.3-0.4,1.9v1.7c0,0.7,0.1,1.4,0.4,2c0.3,0.4,0.7,0.7,1.2,0.7c0.5,0,0.9-0.2,1.2-0.6c0.3-0.6,0.5-1.3,0.4-2V140.7z
	 M68.5,142.2c0.1,1-0.2,2-0.7,2.9c-1,1.1-2.7,1.2-3.8,0.2c-0.1-0.1-0.2-0.2-0.2-0.2c-0.5-0.8-0.7-1.8-0.7-2.7v-1.4
	c-0.1-1,0.2-1.9,0.6-2.8c1-1.1,2.8-1.2,3.9-0.2c0.1,0.1,0.1,0.1,0.2,0.2c0.5,0.8,0.7,1.8,0.7,2.7V142.2z M67.4,140.7
	c0-0.7-0.1-1.4-0.4-2c-0.3-0.4-0.7-0.7-1.2-0.6c-0.5,0-1,0.2-1.2,0.6c-0.3,0.6-0.4,1.3-0.4,1.9v1.7c0,0.7,0.1,1.4,0.4,2
	c0.3,0.4,0.7,0.7,1.2,0.7c0.5,0,0.9-0.2,1.2-0.6c0.3-0.6,0.5-1.3,0.4-2V140.7z"/>
<path class="st2" d="M73,529.3c0-0.6,0.4-1,1-1h10c0.6,0,1,0.4,1,1v10c0,0.6-0.4,1-1,1H74c-0.6,0-1-0.4-1-1V529.3z"/>
<path class="st23" d="M96.6,534.5l2.2-4.3h1.3l-2.9,5.3v3.2H96v-3.2l-2.9-5.3h1.3L96.6,534.5z M104.7,538.2
	c-0.5,0.5-1.2,0.8-1.8,0.8c-0.6,0-1.1-0.2-1.6-0.6c-0.4-0.5-0.6-1.1-0.5-1.8v-4.1h1.1v4.1c0,1,0.4,1.5,1.2,1.5
	c0.7,0.1,1.4-0.3,1.7-0.9v-4.6h1.1v6.3h-1L104.7,538.2z M107.6,535.6c0-0.8,0.2-1.7,0.7-2.4c0.4-0.6,1.1-0.9,1.8-0.9
	c0.7,0,1.4,0.3,1.8,0.8v-0.7h1v6.2c0,0.7-0.2,1.4-0.7,1.9c-0.5,0.5-1.3,0.8-2,0.7c-0.5,0-0.9-0.1-1.3-0.3c-0.4-0.2-0.7-0.4-1-0.8
	l0.6-0.7c0.4,0.5,1,0.9,1.7,0.9c0.5,0,0.9-0.1,1.2-0.5c0.3-0.3,0.5-0.8,0.4-1.2v-0.5c-0.4,0.5-1.1,0.8-1.8,0.8
	c-0.7,0-1.4-0.3-1.8-0.9C107.7,537.3,107.5,536.4,107.6,535.6L107.6,535.6z M108.7,535.7c0,0.6,0.1,1.2,0.4,1.7
	c0.3,0.4,0.7,0.6,1.2,0.6c0.6,0,1.2-0.3,1.5-0.9v-2.9c-0.3-0.6-0.9-0.9-1.5-0.9c-0.5,0-1,0.2-1.2,0.6
	C108.8,534.4,108.6,535.1,108.7,535.7L108.7,535.7z M118.7,538.8c-0.1-0.2-0.1-0.4-0.2-0.7c-0.5,0.5-1.1,0.8-1.8,0.8
	c-0.6,0-1.1-0.2-1.6-0.5c-0.4-0.3-0.6-0.8-0.6-1.4c0-0.6,0.3-1.2,0.8-1.5c0.6-0.4,1.4-0.6,2.1-0.5h1v-0.5c0-0.3-0.1-0.7-0.3-0.9
	c-0.3-0.2-0.6-0.4-1-0.3c-0.4,0-0.7,0.1-1,0.3c-0.2,0.2-0.4,0.4-0.4,0.7h-1.1c0-0.3,0.1-0.7,0.3-0.9c0.2-0.3,0.6-0.5,0.9-0.7
	c0.4-0.2,0.8-0.3,1.3-0.3c0.6,0,1.2,0.2,1.7,0.5c0.4,0.4,0.7,0.9,0.7,1.5v2.9c0,0.5,0.1,0.9,0.2,1.4v0.1L118.7,538.8z M116.9,538
	c0.4,0,0.7-0.1,1-0.3c0.3-0.2,0.5-0.4,0.7-0.7v-1.3h-0.8c-1.3,0-2,0.4-2,1.2c0,0.3,0.1,0.6,0.3,0.8C116.3,537.9,116.6,538,116.9,538
	L116.9,538z M121.9,538.8v-8.5h2.8c0.7-0.1,1.5,0.1,2.1,0.6c0.5,0.4,0.8,1,0.7,1.7c0,0.4-0.1,0.8-0.3,1.1c-0.2,0.3-0.6,0.6-0.9,0.7
	c0.4,0.1,0.8,0.4,1.1,0.7c0.3,0.4,0.4,0.8,0.4,1.3c0,0.7-0.2,1.4-0.8,1.8c-0.6,0.5-1.3,0.7-2.1,0.7H121.9z M123.1,534.8v3.1h1.9
	c0.5,0,0.9-0.1,1.2-0.4c0.3-0.3,0.5-0.7,0.4-1.1c0-1-0.6-1.5-1.7-1.5H123.1z M123.1,533.9h1.7c0.4,0,0.8-0.1,1.2-0.4
	c0.3-0.2,0.5-0.6,0.5-1c0-0.4-0.1-0.8-0.4-1c-0.4-0.2-0.8-0.4-1.2-0.3h-1.7L123.1,533.9z M130.8,537.2l1.5-4.8h1.1l-2.5,7.3
	c-0.4,1-1,1.6-1.9,1.6h-0.2l-0.4-0.1v-0.9h0.3c0.3,0,0.6-0.1,0.9-0.2c0.2-0.2,0.4-0.5,0.5-0.8l0.2-0.7l-2.3-6.3h1.2L130.8,537.2z
	 M136.3,530.9v1.5h1.2v0.8h-1.1v3.9c0,0.2,0,0.4,0.1,0.6c0.1,0.1,0.3,0.2,0.5,0.2c0.2,0,0.3,0,0.5-0.1v0.9c-0.3,0.1-0.5,0.1-0.8,0.1
	c-0.4,0-0.8-0.1-1.1-0.4c-0.3-0.4-0.4-0.8-0.4-1.3v-3.9h-1.1v-0.8h1.1v-1.5H136.3z M141.4,538.9c-0.8,0-1.6-0.3-2.1-0.8
	c-0.5-0.6-0.8-1.4-0.8-2.3v-0.2c0-0.6,0.1-1.2,0.4-1.7c0.2-0.5,0.6-0.9,1-1.2c0.4-0.3,0.9-0.4,1.4-0.4c0.7,0,1.4,0.3,1.9,0.8
	c0.5,0.7,0.7,1.5,0.7,2.3v0.5h-4.3c0,0.6,0.2,1.1,0.6,1.5c0.3,0.4,0.8,0.6,1.4,0.6c0.3,0,0.7-0.1,0.9-0.2c0.3-0.2,0.5-0.4,0.7-0.6
	l0.6,0.5C143.3,538.5,142.4,538.9,141.4,538.9L141.4,538.9z M141.3,533.2c-0.4,0-0.8,0.2-1.1,0.5c-0.3,0.4-0.5,0.8-0.5,1.3h3.2v0
	c0-0.5-0.2-0.9-0.4-1.3C142.1,533.4,141.7,533.2,141.3,533.2L141.3,533.2z M147.9,538.8v-8.5h2.4c0.7,0,1.4,0.1,2,0.5
	c0.6,0.3,1,0.8,1.3,1.4c0.3,0.6,0.5,1.4,0.5,2.1v0.5c0,0.7-0.1,1.5-0.5,2.1c-0.3,0.6-0.8,1.1-1.3,1.4c-0.6,0.3-1.3,0.5-2,0.5
	L147.9,538.8z M149.1,531.2v6.7h1.2c0.8,0,1.5-0.3,2-0.8c0.5-0.6,0.8-1.5,0.7-2.3v-0.5c0.1-0.8-0.2-1.6-0.7-2.2
	c-0.5-0.6-1.2-0.9-1.9-0.8H149.1z M155.9,538.8v-8.5h2.8c0.7-0.1,1.5,0.1,2.1,0.6c0.5,0.4,0.8,1,0.7,1.7c0,0.4-0.1,0.8-0.3,1.1
	c-0.2,0.3-0.6,0.6-0.9,0.7c0.4,0.1,0.8,0.4,1.1,0.7c0.3,0.4,0.4,0.8,0.4,1.3c0,0.7-0.2,1.4-0.8,1.8c-0.6,0.5-1.3,0.7-2.1,0.7H155.9z
	 M157.1,534.8v3.1h1.9c0.5,0,0.9-0.1,1.2-0.4c0.3-0.3,0.5-0.7,0.4-1.1c0-1-0.6-1.5-1.7-1.5H157.1z M157.1,533.9h1.7
	c0.4,0,0.8-0.1,1.2-0.4c0.3-0.2,0.5-0.6,0.5-1c0-0.4-0.1-0.8-0.4-1c-0.4-0.2-0.8-0.4-1.2-0.3h-1.7V533.9z M165.7,535.3
	c0-0.9,0.1-1.7,0.3-2.5c0.2-0.8,0.6-1.5,1.1-2.2c0.4-0.6,0.9-1.1,1.5-1.4l0.2,0.7c-0.6,0.5-1.1,1.2-1.4,2c-0.4,1-0.6,2-0.6,3v0.5
	c0,1.4,0.3,2.7,0.8,3.9c0.3,0.6,0.7,1.1,1.2,1.6l-0.2,0.7c-0.6-0.4-1.1-0.9-1.5-1.5C166.2,538.6,165.7,537,165.7,535.3L165.7,535.3z
	 M173.2,538.8h-1.1v-7.2l-2.2,0.8v-1l3.1-1.2h0.2V538.8z M176.8,538.2c0-0.2,0.1-0.3,0.2-0.5c0.1-0.1,0.3-0.2,0.5-0.2
	c0.2,0,0.4,0.1,0.5,0.2c0.2,0.3,0.2,0.7,0,0.9c-0.1,0.1-0.3,0.2-0.5,0.2c-0.2,0-0.4,0-0.5-0.2C176.9,538.5,176.8,538.4,176.8,538.2
	L176.8,538.2z M183.8,535c-0.2,0.3-0.5,0.5-0.8,0.7c-0.3,0.2-0.7,0.2-1,0.2c-0.5,0-0.9-0.1-1.3-0.4c-0.4-0.2-0.7-0.6-0.8-1
	c-0.2-0.5-0.3-1-0.3-1.5c0-0.5,0.1-1,0.3-1.5c0.2-0.4,0.5-0.8,0.9-1c0.4-0.3,0.9-0.4,1.4-0.4c0.8,0,1.5,0.4,2,1
	c0.5,0.8,0.8,1.7,0.7,2.6v0.3c0.1,1.3-0.3,2.6-1,3.6c-0.8,0.8-1.9,1.2-3,1.2h-0.2v-0.9h0.3c1.4,0.2,2.7-0.9,2.8-2.3
	C183.9,535.4,183.9,535.2,183.8,535L183.8,535z M182.1,535c0.4,0,0.7-0.1,1-0.3c0.3-0.2,0.5-0.5,0.7-0.8v-0.4c0-0.6-0.1-1.2-0.5-1.7
	c-0.4-0.7-1.3-0.9-2-0.5c-0.1,0.1-0.3,0.2-0.4,0.3c-0.3,0.4-0.4,0.9-0.4,1.5c0,0.5,0.1,1,0.4,1.4C181.3,534.8,181.7,535,182.1,535
	L182.1,535z M187.8,532.4v0.7c0.5-0.5,1.2-0.9,1.9-0.8c0.8-0.1,1.5,0.3,1.8,1c0.2-0.3,0.5-0.6,0.8-0.7c0.4-0.2,0.8-0.3,1.2-0.3
	c1.4,0,2.1,0.7,2.1,2.2v4.2h-1.1v-4.1c0-0.4-0.1-0.7-0.3-1c-0.3-0.2-0.6-0.4-1-0.3c-0.4,0-0.7,0.1-1,0.4c-0.3,0.3-0.4,0.6-0.4,1v4.2
	h-1.1v-4.2c0.1-0.7-0.3-1.3-1-1.4c-0.1,0-0.2,0-0.4,0c-0.6,0-1.2,0.3-1.4,0.9v4.6h-1.1v-6.3L187.8,532.4z M201.5,537.1
	c0-0.3-0.1-0.5-0.4-0.7c-0.3-0.2-0.7-0.4-1.1-0.4c-0.5-0.1-0.9-0.2-1.3-0.4c-0.3-0.1-0.5-0.3-0.7-0.6c-0.2-0.2-0.2-0.5-0.2-0.8
	c0-0.5,0.2-1,0.7-1.3c1-0.7,2.4-0.7,3.4,0c0.4,0.3,0.7,0.9,0.7,1.4h-1.1c0-0.3-0.1-0.6-0.4-0.8c-0.3-0.2-0.6-0.3-0.9-0.3
	c-0.3,0-0.7,0.1-0.9,0.3c-0.2,0.2-0.3,0.4-0.3,0.7c0,0.2,0.1,0.5,0.3,0.6c0.4,0.2,0.7,0.3,1.1,0.4c0.5,0.1,0.9,0.2,1.3,0.4
	c0.3,0.1,0.5,0.3,0.7,0.6c0.2,0.3,0.3,0.6,0.2,0.9c0,0.5-0.2,1.1-0.7,1.4c-0.5,0.4-1.1,0.5-1.8,0.5c-0.5,0-0.9-0.1-1.4-0.3
	c-0.4-0.2-0.7-0.4-0.9-0.8c-0.2-0.3-0.3-0.6-0.3-1h1.1c0,0.3,0.2,0.7,0.4,0.9c0.6,0.4,1.4,0.4,2.1,0.1
	C201.4,537.6,201.5,537.4,201.5,537.1L201.5,537.1z M207.9,538.8h-1.1v-9h1.1L207.9,538.8z M213.7,538.8c-0.1-0.2-0.1-0.4-0.1-0.7
	c-0.5,0.5-1.1,0.8-1.8,0.8c-0.6,0-1.1-0.2-1.6-0.5c-0.4-0.3-0.6-0.8-0.6-1.4c0-0.6,0.3-1.2,0.8-1.5c0.6-0.4,1.4-0.6,2.1-0.5h1v-0.5
	c0-0.3-0.1-0.7-0.3-0.9c-0.3-0.2-0.6-0.4-1-0.3c-0.4,0-0.7,0.1-1,0.3c-0.2,0.2-0.4,0.4-0.4,0.7h-1.1c0-0.3,0.1-0.7,0.3-0.9
	c0.2-0.3,0.6-0.5,0.9-0.7c0.4-0.2,0.8-0.3,1.3-0.3c0.6,0,1.2,0.2,1.7,0.5c0.4,0.4,0.7,0.9,0.7,1.5v2.9c0,0.5,0.1,0.9,0.2,1.4v0.1
	L213.7,538.8z M211.9,537.9c0.4,0,0.7-0.1,1-0.3c0.3-0.2,0.5-0.4,0.6-0.7v-1.3h-0.8c-1.3,0-2,0.4-2,1.2c0,0.3,0.1,0.6,0.3,0.8
	C211.3,537.9,211.6,538,211.9,537.9L211.9,537.9z M218.2,530.9v1.5h1.2v0.8h-1.1v3.9c0,0.2,0,0.4,0.1,0.6c0.1,0.1,0.3,0.2,0.5,0.2
	c0.2,0,0.3,0,0.5-0.1v0.9c-0.3,0.1-0.5,0.1-0.8,0.1c-0.4,0-0.8-0.1-1.1-0.4c-0.3-0.4-0.4-0.8-0.4-1.3v-3.9h-1.1v-0.8h1.1v-1.5H218.2
	z M223.4,538.9c-0.8,0-1.6-0.3-2.1-0.8c-0.5-0.6-0.8-1.4-0.8-2.3v-0.2c0-0.6,0.1-1.2,0.4-1.7c0.2-0.5,0.6-0.9,1-1.2
	c0.4-0.3,0.9-0.4,1.4-0.4c0.7,0,1.4,0.3,1.9,0.8c0.5,0.7,0.7,1.5,0.7,2.3v0.5h-4.3c0,0.6,0.2,1.1,0.6,1.5c0.3,0.4,0.8,0.6,1.4,0.6
	c0.3,0,0.7-0.1,0.9-0.2c0.3-0.2,0.5-0.4,0.7-0.6l0.6,0.5C225.3,538.5,224.4,538.9,223.4,538.9L223.4,538.9z M223.2,533.2
	c-0.4,0-0.8,0.2-1.1,0.5c-0.3,0.4-0.5,0.8-0.5,1.3h3.2v0c0-0.5-0.2-0.9-0.4-1.3C224.1,533.4,223.7,533.2,223.2,533.2L223.2,533.2z
	 M227.8,532.4v0.8c0.5-0.6,1.2-0.9,1.9-0.9c1.3,0,2,0.8,2,2.3v4.2h-1.1v-4.2c0-0.4-0.1-0.7-0.3-1c-0.3-0.2-0.6-0.4-1-0.3
	c-0.3,0-0.7,0.1-0.9,0.3c-0.3,0.2-0.5,0.4-0.6,0.7v4.5h-1.1v-6.3L227.8,532.4z M236.3,538c0.4,0,0.7-0.1,1-0.3
	c0.3-0.2,0.5-0.5,0.5-0.9h1c0,0.4-0.2,0.7-0.4,1c-0.2,0.3-0.6,0.6-0.9,0.8c-0.4,0.2-0.8,0.3-1.2,0.3c-0.8,0-1.5-0.3-2.1-0.9
	c-0.5-0.7-0.8-1.5-0.8-2.4v-0.2c0-0.6,0.1-1.1,0.3-1.6c0.2-0.5,0.6-0.8,1-1.1c0.5-0.3,1-0.4,1.5-0.4c0.6,0,1.3,0.2,1.8,0.7
	c0.5,0.4,0.8,1,0.8,1.7h-1c0-0.8-0.7-1.4-1.5-1.4c-0.5,0-1,0.2-1.3,0.6c-0.3,0.5-0.5,1.1-0.5,1.7v0.2c0,0.6,0.1,1.2,0.5,1.7
	C235.3,537.8,235.8,538,236.3,538L236.3,538z M241.8,537.2l1.5-4.8h1.1l-2.5,7.4c-0.4,1-1,1.6-1.9,1.6h-0.2l-0.4-0.1v-0.9h0.3
	c0.3,0,0.6-0.1,0.9-0.2c0.2-0.2,0.4-0.5,0.5-0.8l0.2-0.7l-2.3-6.3h1.2L241.8,537.2z M248.3,535.4c0,0.9-0.1,1.7-0.4,2.5
	c-0.2,0.8-0.6,1.5-1.1,2.2c-0.4,0.6-0.9,1.1-1.5,1.4l-0.2-0.7c0.7-0.6,1.2-1.3,1.4-2.1c0.4-1,0.6-2.1,0.6-3.2v-0.2
	c0-0.8,0-1.5-0.2-2.3c-0.2-0.7-0.4-1.3-0.7-1.9c-0.2-0.5-0.6-0.9-1-1.3l0.2-0.7c0.6,0.4,1.1,0.8,1.5,1.4c0.5,0.7,0.8,1.4,1,2.2
	C248.2,533.6,248.3,534.5,248.3,535.4L248.3,535.4z"/>
<path class="st19" d="M265,529.3c0-0.6,0.4-1,1-1h10c0.6,0,1,0.4,1,1v10c0,0.6-0.4,1-1,1h-10c-0.6,0-1-0.4-1-1V529.3z"/>
<path class="st23" d="M292.3,536.1c-0.1,0.8-0.4,1.5-1,2.1c-0.6,0.5-1.4,0.8-2.2,0.7c-0.9,0-1.8-0.4-2.4-1.1c-0.6-0.8-1-1.9-0.9-2.9
	v-0.8c0-0.7,0.1-1.4,0.4-2.1c0.3-0.6,0.7-1.1,1.2-1.4c0.5-0.3,1.2-0.5,1.8-0.5c0.8,0,1.6,0.2,2.2,0.8c0.6,0.5,0.9,1.3,1,2.1h-1.1
	c0-0.5-0.3-1.1-0.6-1.5c-0.4-0.3-0.9-0.5-1.4-0.5c-0.7,0-1.3,0.3-1.7,0.8c-0.4,0.7-0.7,1.5-0.6,2.3v0.9c0,0.8,0.2,1.6,0.6,2.2
	c0.4,0.5,0.9,0.8,1.6,0.8c0.5,0,1-0.1,1.4-0.4c0.4-0.4,0.6-0.9,0.7-1.5L292.3,536.1z M293.5,535.5c0-0.6,0.1-1.1,0.4-1.7
	c0.2-0.5,0.6-0.9,1-1.1c0.4-0.3,1-0.4,1.5-0.4c0.8,0,1.6,0.3,2.1,0.9c0.6,0.7,0.9,1.5,0.8,2.4v0.1c0,0.6-0.1,1.1-0.4,1.7
	c-0.2,0.5-0.6,0.9-1,1.2c-0.5,0.3-1,0.4-1.5,0.4c-0.8,0-1.6-0.3-2.1-0.9C293.8,537.4,293.5,536.5,293.5,535.5L293.5,535.5z
	 M294.6,535.7c0,0.6,0.1,1.2,0.5,1.7c0.3,0.4,0.8,0.7,1.3,0.6c0.5,0,1-0.2,1.3-0.6c0.4-0.5,0.5-1.2,0.5-1.8c0-0.6-0.2-1.2-0.5-1.7
	c-0.3-0.4-0.8-0.7-1.3-0.7c-0.5,0-1,0.2-1.3,0.6C294.8,534.4,294.6,535,294.6,535.7z M303.4,538c0.4,0,0.7-0.1,1-0.3
	c0.3-0.2,0.5-0.5,0.5-0.9h1c0,0.4-0.2,0.7-0.4,1c-0.2,0.3-0.6,0.6-0.9,0.8c-0.4,0.2-0.8,0.3-1.2,0.3c-0.8,0-1.5-0.3-2.1-0.9
	c-0.5-0.7-0.8-1.5-0.8-2.4v-0.2c0-0.6,0.1-1.1,0.3-1.6c0.2-0.5,0.6-0.8,1-1.1c0.5-0.3,1-0.4,1.5-0.4c0.6,0,1.3,0.2,1.8,0.7
	c0.5,0.4,0.8,1,0.8,1.7h-1c0-0.8-0.7-1.4-1.5-1.4c-0.5,0-1,0.2-1.3,0.6c-0.3,0.5-0.5,1.1-0.5,1.7v0.2c0,0.6,0.1,1.2,0.5,1.7
	C302.4,537.8,302.9,538,303.4,538L303.4,538z M308.6,535.9l-0.7,0.7v2.2h-1.1v-9h1.1v5.4l0.6-0.7l2-2.1h1.3l-2.5,2.7l2.8,3.7h-1.3
	L308.6,535.9z M315.9,533.4c-0.2,0-0.4,0-0.5,0c-0.6-0.1-1.2,0.3-1.5,0.9v4.5h-1.1v-6.3h1v0.7c0.3-0.5,0.9-0.9,1.5-0.8
	c0.2,0,0.3,0,0.5,0.1L315.9,533.4z M316.5,535.6c0-0.6,0.1-1.1,0.4-1.7c0.2-0.5,0.6-0.9,1-1.1c0.4-0.3,1-0.4,1.5-0.4
	c0.8,0,1.6,0.3,2.1,0.9c0.6,0.7,0.9,1.5,0.8,2.4v0.1c0,0.6-0.1,1.1-0.4,1.7c-0.2,0.5-0.6,0.9-1,1.2c-0.5,0.3-1,0.4-1.5,0.4
	c-0.8,0-1.6-0.3-2.1-0.9C316.8,537.4,316.5,536.5,316.5,535.6L316.5,535.6z M317.6,535.7c0,0.6,0.1,1.2,0.5,1.7
	c0.3,0.4,0.8,0.7,1.3,0.6c0.5,0,1-0.2,1.3-0.6c0.4-0.5,0.5-1.2,0.5-1.8c0-0.6-0.2-1.2-0.5-1.7c-0.3-0.4-0.8-0.7-1.3-0.7
	c-0.5,0-1,0.2-1.3,0.6C317.8,534.4,317.6,535,317.6,535.7L317.6,535.7z M327.7,538.8c-0.1-0.2-0.1-0.4-0.1-0.7
	c-0.5,0.5-1.1,0.8-1.8,0.8c-0.6,0-1.1-0.2-1.5-0.5c-0.4-0.3-0.6-0.8-0.6-1.4c0-0.6,0.3-1.2,0.8-1.5c0.6-0.4,1.4-0.6,2.1-0.5h1v-0.5
	c0-0.3-0.1-0.7-0.3-0.9c-0.3-0.2-0.6-0.4-1-0.3c-0.4,0-0.7,0.1-1,0.3c-0.2,0.2-0.4,0.4-0.4,0.7h-1.1c0-0.3,0.1-0.7,0.3-0.9
	c0.2-0.3,0.6-0.5,0.9-0.7c0.4-0.2,0.8-0.3,1.3-0.3c0.6,0,1.2,0.2,1.7,0.5c0.4,0.4,0.7,0.9,0.7,1.5v2.9c0,0.5,0.1,0.9,0.2,1.4v0.1
	L327.7,538.8z M325.9,538c0.4,0,0.7-0.1,1-0.3c0.3-0.2,0.5-0.4,0.6-0.7v-1.3h-0.8c-1.3,0-2,0.4-2,1.2c0,0.3,0.1,0.6,0.3,0.8
	C325.3,537.9,325.6,538,325.9,538L325.9,538z M333.4,538c0.4,0,0.7-0.1,1-0.3c0.3-0.2,0.5-0.5,0.5-0.9h1c0,0.4-0.2,0.7-0.4,1
	c-0.2,0.3-0.6,0.6-0.9,0.8c-0.4,0.2-0.8,0.3-1.2,0.3c-0.8,0-1.5-0.3-2.1-0.9c-0.5-0.7-0.8-1.5-0.8-2.4v-0.2c0-0.6,0.1-1.1,0.3-1.6
	c0.2-0.5,0.6-0.8,1-1.1c0.5-0.3,1-0.4,1.5-0.4c0.6,0,1.3,0.2,1.8,0.7c0.5,0.4,0.8,1,0.8,1.7h-1c0-0.8-0.7-1.4-1.5-1.4
	c-0.5,0-1,0.2-1.3,0.6c-0.3,0.5-0.5,1.1-0.5,1.7v0.2c0,0.6,0.1,1.2,0.5,1.7C332.4,537.8,332.9,538,333.4,538L333.4,538z
	 M337.9,533.2c0.5-0.6,1.1-0.9,1.9-0.9c1.3,0,2,0.8,2,2.3v4.2h-1.1v-4.2c0-0.4-0.1-0.7-0.3-1c-0.3-0.2-0.6-0.4-1-0.3
	c-0.3,0-0.7,0.1-0.9,0.3c-0.3,0.2-0.5,0.4-0.6,0.7v4.5h-1.1v-9h1.1L337.9,533.2z M344,538.8v-8.5h2.4c0.7,0,1.4,0.2,2,0.5
	c0.6,0.3,1,0.8,1.3,1.4c0.3,0.6,0.5,1.4,0.5,2.1v0.5c0,0.7-0.1,1.5-0.5,2.1c-0.3,0.6-0.8,1.1-1.3,1.4c-0.6,0.3-1.3,0.5-2,0.5
	L344,538.8z M345.1,531.2v6.7h1.2c0.8,0,1.5-0.3,2-0.8c0.5-0.6,0.8-1.5,0.7-2.3v-0.5c0.1-0.8-0.2-1.6-0.7-2.2
	c-0.5-0.6-1.2-0.9-1.9-0.8H345.1z M352,538.8v-8.5h2.8c0.7-0.1,1.5,0.1,2.1,0.6c0.5,0.4,0.8,1,0.7,1.7c0,0.4-0.1,0.8-0.3,1.1
	c-0.2,0.3-0.6,0.6-0.9,0.7c0.4,0.1,0.8,0.4,1.1,0.7c0.3,0.4,0.4,0.8,0.4,1.3c0,0.7-0.2,1.4-0.8,1.8c-0.6,0.5-1.3,0.7-2.1,0.7H352z
	 M353.1,534.8v3.1h1.9c0.5,0,0.9-0.1,1.2-0.4c0.3-0.3,0.5-0.7,0.5-1.1c0-1-0.6-1.5-1.7-1.5H353.1z M353.1,533.9h1.7
	c0.4,0,0.8-0.1,1.2-0.4c0.3-0.2,0.5-0.6,0.5-1c0-0.4-0.1-0.8-0.4-1c-0.4-0.2-0.8-0.4-1.2-0.3h-1.7V533.9z M361.8,535.3
	c0-0.9,0.1-1.7,0.3-2.5c0.2-0.8,0.6-1.5,1.1-2.2c0.4-0.6,0.9-1.1,1.5-1.4l0.2,0.7c-0.6,0.5-1.1,1.2-1.4,2c-0.4,1-0.6,2-0.6,3v0.5
	c0,1.4,0.3,2.7,0.8,3.9c0.3,0.6,0.7,1.1,1.2,1.6l-0.2,0.7c-0.6-0.4-1.1-0.9-1.5-1.5C362.2,538.7,361.7,537,361.8,535.3L361.8,535.3z
	 M367.3,534h0.8c0.4,0,0.9-0.1,1.2-0.4c0.3-0.3,0.5-0.7,0.4-1.1c0.1-0.7-0.4-1.4-1.1-1.5c-0.1,0-0.2,0-0.4,0c-0.4,0-0.8,0.1-1.1,0.4
	c-0.3,0.3-0.4,0.7-0.4,1.1h-1.1c0-0.6,0.3-1.3,0.7-1.7c0.5-0.5,1.2-0.7,1.9-0.7c0.7,0,1.4,0.2,1.9,0.6c0.5,0.5,0.7,1.1,0.7,1.8
	c0,0.4-0.1,0.8-0.4,1.1c-0.2,0.4-0.6,0.6-1,0.8c0.9,0.2,1.5,1.1,1.5,2c0,0.7-0.2,1.4-0.8,1.8c-0.5,0.5-1.2,0.7-2,0.7
	c-0.7,0-1.4-0.2-2-0.7c-0.5-0.4-0.8-1.1-0.8-1.7h1.1c0,0.4,0.1,0.8,0.4,1.1c0.3,0.3,0.8,0.4,1.2,0.4c0.4,0,0.9-0.1,1.2-0.4
	c0.3-0.3,0.5-0.8,0.4-1.2c0-0.4-0.1-0.8-0.5-1.1c-0.4-0.3-0.9-0.4-1.3-0.4h-0.8L367.3,534z M372.8,538.2c0-0.2,0.1-0.3,0.2-0.5
	c0.1-0.1,0.3-0.2,0.5-0.2c0.2,0,0.4,0.1,0.5,0.2c0.2,0.3,0.2,0.7,0,0.9c-0.1,0.1-0.3,0.2-0.5,0.2c-0.2,0-0.4,0-0.5-0.2
	C372.9,538.5,372.8,538.4,372.8,538.2L372.8,538.2z M380.3,535.9h1.2v0.9h-1.2v2h-1.1v-2h-3.9v-0.6l3.8-5.9h1.2V535.9z M376.5,535.9
	h2.6v-4.2l-0.1,0.2L376.5,535.9z M383.8,532.4v0.7c0.5-0.5,1.2-0.9,1.9-0.8c0.8-0.1,1.5,0.3,1.8,1c0.2-0.3,0.5-0.6,0.8-0.7
	c0.4-0.2,0.8-0.3,1.2-0.3c1.4,0,2.1,0.7,2.1,2.2v4.2h-1.1v-4.2c0-0.4-0.1-0.7-0.3-1c-0.3-0.2-0.6-0.4-1-0.3c-0.4,0-0.7,0.1-1,0.4
	c-0.3,0.3-0.4,0.6-0.5,1v4.2h-1.1v-4.2c0.1-0.7-0.3-1.3-1-1.4c-0.1,0-0.2,0-0.4,0c-0.6,0-1.2,0.3-1.5,0.9v4.6h-1.1v-6.3L383.8,532.4
	z M397.5,537.1c0-0.3-0.1-0.5-0.4-0.7c-0.4-0.2-0.8-0.4-1.2-0.4c-0.5-0.1-0.9-0.2-1.3-0.4c-0.3-0.1-0.5-0.3-0.7-0.6
	c-0.2-0.2-0.2-0.5-0.2-0.8c0-0.5,0.2-1,0.7-1.3c1-0.7,2.4-0.7,3.4,0c0.4,0.3,0.7,0.9,0.7,1.4h-1.1c0-0.3-0.1-0.6-0.4-0.8
	c-0.3-0.2-0.6-0.3-0.9-0.3c-0.3,0-0.7,0.1-0.9,0.3c-0.2,0.2-0.3,0.4-0.3,0.7c0,0.2,0.1,0.5,0.3,0.6c0.4,0.2,0.7,0.3,1.1,0.4
	c0.5,0.1,0.9,0.2,1.3,0.4c0.3,0.1,0.5,0.3,0.7,0.6c0.2,0.3,0.3,0.6,0.2,0.9c0,0.5-0.2,1.1-0.7,1.4c-0.5,0.4-1.1,0.5-1.8,0.5
	c-0.5,0-0.9-0.1-1.4-0.3c-0.4-0.2-0.7-0.4-0.9-0.8c-0.2-0.3-0.3-0.6-0.3-1h1.1c0,0.3,0.2,0.7,0.4,0.9c0.6,0.4,1.4,0.4,2.1,0.1
	C397.4,537.6,397.5,537.4,397.5,537.1L397.5,537.1z M404,538.8h-1.1v-9h1.1V538.8z M409.7,538.8c-0.1-0.2-0.1-0.4-0.1-0.7
	c-0.5,0.5-1.1,0.8-1.8,0.8c-0.6,0-1.1-0.2-1.5-0.5c-0.4-0.3-0.6-0.8-0.6-1.4c0-0.6,0.3-1.2,0.8-1.5c0.6-0.4,1.4-0.6,2.1-0.5h1v-0.5
	c0-0.3-0.1-0.7-0.3-0.9c-0.3-0.2-0.6-0.4-1-0.3c-0.4,0-0.7,0.1-1,0.3c-0.2,0.2-0.4,0.4-0.4,0.7h-1.1c0-0.3,0.1-0.7,0.3-0.9
	c0.2-0.3,0.6-0.5,0.9-0.7c0.4-0.2,0.8-0.3,1.3-0.3c0.6,0,1.2,0.2,1.7,0.5c0.4,0.4,0.7,0.9,0.7,1.5v2.9c0,0.5,0.1,0.9,0.2,1.4v0.1
	L409.7,538.8z M407.9,537.9c0.4,0,0.7-0.1,1-0.3c0.3-0.2,0.5-0.4,0.6-0.7v-1.3h-0.8c-1.3,0-2,0.4-2,1.2c0,0.3,0.1,0.6,0.3,0.8
	C407.3,537.9,407.6,538,407.9,537.9L407.9,537.9z M414.3,530.9v1.5h1.2v0.8h-1.2v3.9c0,0.2,0,0.4,0.1,0.6c0.1,0.1,0.3,0.2,0.5,0.2
	c0.2,0,0.3,0,0.5-0.1v0.9c-0.3,0.1-0.5,0.1-0.8,0.1c-0.4,0-0.8-0.1-1.1-0.4c-0.3-0.4-0.4-0.8-0.4-1.3v-3.9H412v-0.8h1.1v-1.5H414.3z
	 M419.4,538.9c-0.8,0-1.6-0.3-2.1-0.8c-0.5-0.6-0.8-1.4-0.8-2.3v-0.2c0-0.6,0.1-1.2,0.4-1.7c0.2-0.5,0.6-0.9,1-1.2
	c0.4-0.3,0.9-0.4,1.4-0.4c0.7,0,1.4,0.3,1.9,0.8c0.5,0.7,0.7,1.5,0.7,2.3v0.5h-4.3c0,0.6,0.2,1.1,0.5,1.5c0.3,0.4,0.8,0.6,1.4,0.6
	c0.3,0,0.7-0.1,1-0.2c0.3-0.2,0.5-0.4,0.7-0.6l0.6,0.5C421.4,538.5,420.4,539,419.4,538.9L419.4,538.9z M419.3,533.2
	c-0.4,0-0.8,0.2-1.1,0.5c-0.3,0.4-0.5,0.8-0.5,1.3h3.2v0c0-0.5-0.2-0.9-0.5-1.3C420.1,533.4,419.7,533.2,419.3,533.2L419.3,533.2z
	 M423.8,532.4v0.8c0.5-0.6,1.2-0.9,1.9-0.9c1.3,0,2,0.8,2,2.3v4.2h-1.1v-4.2c0-0.4-0.1-0.7-0.3-1c-0.3-0.2-0.6-0.4-1-0.3
	c-0.3,0-0.7,0.1-0.9,0.3c-0.3,0.2-0.5,0.4-0.6,0.7v4.5h-1.1v-6.3L423.8,532.4z M432.4,538c0.4,0,0.7-0.1,1-0.3
	c0.3-0.2,0.5-0.5,0.5-0.9h1c0,0.4-0.2,0.7-0.4,1c-0.2,0.3-0.6,0.6-0.9,0.8c-0.4,0.2-0.8,0.3-1.2,0.3c-0.8,0-1.5-0.3-2.1-0.9
	c-0.5-0.7-0.8-1.5-0.8-2.4v-0.2c0-0.6,0.1-1.1,0.3-1.6c0.2-0.5,0.6-0.8,1-1.1c0.5-0.3,1-0.4,1.5-0.4c0.6,0,1.3,0.2,1.8,0.7
	c0.5,0.4,0.8,1,0.8,1.7h-1c0-0.8-0.7-1.4-1.5-1.4c-0.5,0-1,0.2-1.3,0.6c-0.3,0.5-0.5,1.1-0.5,1.7v0.2c0,0.6,0.1,1.2,0.5,1.7
	C431.4,537.8,431.9,538,432.4,538L432.4,538z M437.9,537.2l1.5-4.8h1.1l-2.5,7.3c-0.4,1-1,1.6-1.9,1.6h-0.2l-0.4-0.1v-0.9h0.3
	c0.3,0,0.6-0.1,0.9-0.2c0.2-0.2,0.4-0.5,0.5-0.8l0.2-0.7l-2.3-6.3h1.2L437.9,537.2z M444.3,535.4c0,0.9-0.1,1.7-0.4,2.5
	c-0.2,0.8-0.6,1.5-1.1,2.2c-0.4,0.6-0.9,1.1-1.5,1.4l-0.2-0.7c0.7-0.6,1.2-1.3,1.5-2.1c0.4-1,0.6-2.1,0.6-3.2v-0.2
	c0-0.8-0.1-1.6-0.2-2.3c-0.2-0.7-0.4-1.3-0.7-1.9c-0.2-0.5-0.6-0.9-1-1.3l0.2-0.7c0.6,0.4,1.1,0.8,1.5,1.4c0.5,0.7,0.8,1.4,1,2.2
	C444.2,533.6,444.3,534.5,444.3,535.4L444.3,535.4z"/>
<path d="M215,110.6c0,0.7-0.1,1.5-0.4,2.1c-0.2,0.6-0.6,1-1.1,1.4l1.5,1.2l-0.8,0.7l-1.8-1.4c-0.3,0.1-0.6,0.1-0.9,0.1
	c-0.6,0-1.2-0.2-1.8-0.5c-0.5-0.3-1-0.8-1.2-1.4c-0.3-0.7-0.4-1.4-0.4-2.1v-0.6c0-0.7,0.1-1.5,0.4-2.2c0.3-0.6,0.7-1.1,1.2-1.4
	c0.5-0.3,1.1-0.5,1.8-0.5c0.6,0,1.3,0.2,1.8,0.5c0.5,0.3,1,0.9,1.2,1.4c0.3,0.7,0.4,1.4,0.4,2.2V110.6z M213.9,110
	c0.1-0.8-0.2-1.6-0.6-2.3c-0.7-0.9-2.1-1.1-3-0.4c-0.1,0.1-0.3,0.2-0.4,0.4c-0.4,0.7-0.7,1.5-0.6,2.2v0.6c0,0.8,0.2,1.6,0.6,2.3
	c0.4,0.5,1,0.9,1.7,0.8c0.7,0,1.3-0.3,1.7-0.8c0.4-0.7,0.6-1.5,0.6-2.3V110z M220.2,114c-0.5,0.5-1.2,0.8-1.9,0.8
	c-0.6,0-1.1-0.2-1.6-0.6c-0.4-0.5-0.6-1.1-0.5-1.8v-4.1h1.1v4.1c0,1,0.4,1.4,1.2,1.4c0.7,0.1,1.4-0.3,1.6-0.9v-4.6h1.1v6.3h-1
	L220.2,114z M226,114.7c-0.8,0-1.6-0.3-2.1-0.8c-0.5-0.6-0.8-1.4-0.8-2.3v-0.2c0-0.6,0.1-1.2,0.4-1.7c0.2-0.5,0.6-0.9,1-1.2
	c0.4-0.3,0.9-0.4,1.4-0.4c0.7,0,1.4,0.3,1.9,0.8c0.5,0.7,0.7,1.5,0.7,2.3v0.4h-4.3c0,0.6,0.2,1.1,0.6,1.5c0.3,0.4,0.8,0.6,1.4,0.6
	c0.3,0,0.7-0.1,0.9-0.2c0.3-0.2,0.5-0.4,0.7-0.6l0.6,0.5C227.8,114.3,226.9,114.7,226,114.7L226,114.7z M225.8,109
	c-0.4,0-0.8,0.2-1.1,0.5c-0.3,0.4-0.5,0.8-0.5,1.3h3.2v-0.1c0-0.5-0.2-0.9-0.4-1.3C226.6,109.2,226.2,109,225.8,109L225.8,109z
	 M232.4,109.2c-0.2,0-0.4,0-0.5,0c-0.6-0.1-1.2,0.3-1.4,0.9v4.5h-1.1v-6.3h1v0.7c0.3-0.5,0.9-0.9,1.5-0.8c0.2,0,0.3,0,0.5,0.1
	L232.4,109.2z M234.5,114.6h-1.1v-6.3h1.1V114.6z M233.3,106.6c0-0.2,0-0.3,0.1-0.4c0.1-0.1,0.3-0.2,0.5-0.2c0.2,0,0.4,0.1,0.5,0.2
	c0.1,0.1,0.2,0.3,0.2,0.4c0,0.2-0.1,0.3-0.2,0.4c-0.1,0.1-0.3,0.2-0.5,0.2c-0.3,0-0.6-0.2-0.6-0.5
	C233.3,106.7,233.3,106.6,233.3,106.6z M239,114.7c-0.8,0-1.6-0.3-2.1-0.8c-0.5-0.6-0.8-1.4-0.8-2.3v-0.2c0-0.6,0.1-1.2,0.4-1.7
	c0.2-0.5,0.6-0.9,1-1.2c0.4-0.3,0.9-0.4,1.4-0.4c0.7,0,1.4,0.3,1.9,0.8c0.5,0.7,0.7,1.5,0.7,2.3v0.4h-4.3c0,0.6,0.2,1.1,0.6,1.5
	c0.3,0.4,0.8,0.6,1.4,0.6c0.3,0,0.7-0.1,0.9-0.2c0.3-0.2,0.5-0.4,0.7-0.6l0.6,0.5C240.8,114.3,239.9,114.8,239,114.7L239,114.7z
	 M238.8,109c-0.4,0-0.8,0.2-1.1,0.5c-0.3,0.4-0.5,0.8-0.5,1.3h3.2v-0.1c0-0.5-0.2-0.9-0.4-1.3C239.6,109.2,239.2,109,238.8,109
	L238.8,109z M246,112.9c0-0.3-0.1-0.5-0.4-0.7c-0.3-0.2-0.7-0.4-1.1-0.4c-0.5-0.1-0.9-0.2-1.3-0.4c-0.3-0.1-0.5-0.3-0.7-0.6
	c-0.2-0.2-0.2-0.5-0.2-0.8c0-0.5,0.2-1,0.7-1.3c1-0.7,2.4-0.7,3.4,0c0.4,0.3,0.7,0.9,0.7,1.4h-1c0-0.3-0.1-0.6-0.4-0.8
	c-0.3-0.2-0.6-0.3-0.9-0.3c-0.3,0-0.7,0.1-0.9,0.3c-0.2,0.2-0.3,0.4-0.3,0.7c0,0.2,0.1,0.5,0.3,0.6c0.4,0.2,0.7,0.3,1.1,0.4
	c0.5,0.1,0.9,0.2,1.3,0.4c0.3,0.1,0.5,0.3,0.7,0.6c0.2,0.3,0.3,0.6,0.2,0.9c0,0.5-0.2,1.1-0.7,1.4c-0.5,0.4-1.1,0.5-1.8,0.5
	c-0.5,0-0.9-0.1-1.4-0.3c-0.4-0.2-0.7-0.4-0.9-0.8c-0.2-0.3-0.3-0.7-0.3-1.1h1.1c0,0.3,0.2,0.7,0.4,0.9c0.6,0.4,1.4,0.4,2.1,0.1
	C245.9,113.4,246,113.2,246,112.9z M256.6,111.5c0,0.8-0.2,1.6-0.6,2.3c-0.4,0.6-1.1,0.9-1.8,0.9c-0.7,0-1.3-0.2-1.8-0.7v3h-1.1
	v-8.8h1l0.1,0.7c0.5-0.5,1.1-0.8,1.8-0.8c0.7,0,1.4,0.3,1.8,0.9c0.5,0.7,0.7,1.5,0.7,2.4L256.6,111.5z M255.6,111.4
	c0-0.6-0.1-1.2-0.5-1.7c-0.3-0.4-0.7-0.6-1.2-0.6c-0.6,0-1.2,0.3-1.5,0.9v3c0.3,0.6,0.9,0.9,1.5,0.9c0.5,0,0.9-0.2,1.2-0.6
	C255.5,112.6,255.6,112,255.6,111.4L255.6,111.4z M260.9,114.7c-0.8,0-1.6-0.3-2.1-0.8c-0.5-0.6-0.8-1.4-0.8-2.3v-0.2
	c0-0.6,0.1-1.2,0.4-1.7c0.2-0.5,0.6-0.9,1-1.2c0.4-0.3,0.9-0.4,1.4-0.4c0.7,0,1.4,0.3,1.9,0.8c0.5,0.7,0.7,1.5,0.7,2.3v0.4h-4.3
	c0,0.6,0.2,1.1,0.5,1.5c0.3,0.4,0.8,0.6,1.4,0.6c0.3,0,0.7-0.1,1-0.2c0.3-0.2,0.5-0.4,0.7-0.6l0.6,0.5
	C262.9,114.3,262,114.8,260.9,114.7L260.9,114.7z M260.8,109c-0.4,0-0.8,0.2-1.1,0.5c-0.3,0.4-0.5,0.8-0.5,1.3h3.2v-0.1
	c0-0.5-0.2-0.9-0.5-1.3C261.6,109.2,261.2,109,260.8,109L260.8,109z M267.4,109.2c-0.2,0-0.4,0-0.5,0c-0.6-0.1-1.2,0.3-1.5,0.9v4.5
	h-1.1v-6.3h1v0.7c0.3-0.5,0.9-0.9,1.5-0.8c0.2,0,0.3,0,0.5,0.1L267.4,109.2z M274,110.8c-0.8-0.2-1.5-0.5-2.1-1
	c-0.4-0.4-0.7-0.9-0.7-1.5c0-0.6,0.3-1.3,0.8-1.7c0.6-0.5,1.3-0.7,2.1-0.7c0.5,0,1.1,0.1,1.6,0.3c0.4,0.2,0.8,0.5,1.1,0.9
	c0.3,0.4,0.4,0.9,0.4,1.3H276c0-0.5-0.2-0.9-0.5-1.2c-0.4-0.3-0.9-0.5-1.4-0.4c-0.5,0-0.9,0.1-1.3,0.4c-0.3,0.2-0.5,0.6-0.5,1
	c0,0.3,0.2,0.7,0.4,0.9c0.5,0.3,1,0.5,1.5,0.7c0.6,0.1,1.1,0.4,1.6,0.7c0.4,0.2,0.7,0.5,0.9,0.8c0.2,0.3,0.3,0.7,0.3,1.1
	c0,0.7-0.3,1.3-0.8,1.7c-0.6,0.4-1.4,0.7-2.2,0.6c-0.6,0-1.1-0.1-1.6-0.3c-0.5-0.2-0.9-0.5-1.2-0.9c-0.3-0.4-0.4-0.9-0.4-1.3h1.1
	c0,0.5,0.2,0.9,0.6,1.2c0.4,0.3,1,0.5,1.5,0.4c0.5,0,1-0.1,1.4-0.4c0.3-0.2,0.5-0.6,0.5-1c0-0.4-0.1-0.8-0.4-1
	C275.1,111.1,274.6,110.9,274,110.8L274,110.8z M280.9,114.7c-0.8,0-1.6-0.3-2.1-0.8c-0.5-0.6-0.8-1.4-0.8-2.3v-0.2
	c0-0.6,0.1-1.2,0.4-1.7c0.2-0.5,0.6-0.9,1-1.2c0.4-0.3,0.9-0.4,1.4-0.4c0.7,0,1.4,0.3,1.9,0.8c0.5,0.7,0.7,1.5,0.7,2.3v0.4h-4.3
	c0,0.6,0.2,1.1,0.5,1.5c0.3,0.4,0.8,0.6,1.4,0.6c0.3,0,0.7-0.1,1-0.2c0.3-0.2,0.5-0.4,0.7-0.6l0.6,0.5
	C282.9,114.3,282,114.8,280.9,114.7L280.9,114.7z M280.8,109c-0.4,0-0.8,0.2-1.1,0.5c-0.3,0.4-0.5,0.8-0.5,1.3h3.2v-0.1
	c0-0.5-0.2-0.9-0.5-1.3C281.6,109.2,281.2,109,280.8,109L280.8,109z M286.8,113.8c0.4,0,0.7-0.1,1-0.3c0.3-0.2,0.5-0.5,0.5-0.9h1
	c0,0.4-0.2,0.7-0.4,1c-0.2,0.3-0.6,0.6-0.9,0.8c-0.4,0.2-0.8,0.3-1.2,0.3c-0.8,0-1.5-0.3-2.1-0.9c-0.5-0.7-0.8-1.5-0.8-2.4v-0.2
	c0-0.6,0.1-1.1,0.3-1.6c0.2-0.5,0.6-0.8,1-1.1c0.5-0.3,1-0.4,1.5-0.4c0.6,0,1.3,0.2,1.8,0.7c0.5,0.4,0.8,1,0.8,1.7h-1
	c0-0.8-0.7-1.4-1.5-1.4c-0.5,0-1,0.2-1.3,0.6c-0.3,0.5-0.5,1.1-0.5,1.7v0.2c0,0.6,0.1,1.2,0.5,1.7
	C285.9,113.6,286.4,113.8,286.8,113.8L286.8,113.8z M290,111.3c0-0.6,0.1-1.1,0.4-1.7c0.2-0.5,0.6-0.9,1-1.1c0.4-0.3,1-0.4,1.5-0.4
	c0.8,0,1.6,0.3,2.1,0.9c0.6,0.7,0.9,1.5,0.8,2.4v0.1c0,0.6-0.1,1.1-0.4,1.7c-0.2,0.5-0.6,0.9-1,1.2c-0.5,0.3-1,0.4-1.5,0.4
	c-0.8,0-1.6-0.3-2.1-0.9C290.2,113.2,289.9,112.3,290,111.3L290,111.3z M291.1,111.5c0,0.6,0.1,1.2,0.5,1.7c0.3,0.4,0.8,0.7,1.3,0.6
	c0.5,0,1-0.2,1.3-0.6c0.4-0.5,0.5-1.2,0.5-1.8c0-0.6-0.2-1.2-0.5-1.7c-0.3-0.4-0.8-0.7-1.3-0.7c-0.5,0-1,0.2-1.3,0.6
	C291.2,110.2,291.1,110.8,291.1,111.5L291.1,111.5z M298.3,108.2v0.8c0.5-0.6,1.2-0.9,1.9-0.9c1.3,0,2,0.8,2,2.3v4.2h-1.1v-4.2
	c0-0.4-0.1-0.7-0.3-1c-0.3-0.2-0.6-0.4-1-0.3c-0.3,0-0.7,0.1-0.9,0.3c-0.3,0.2-0.5,0.4-0.6,0.7v4.5h-1.1v-6.3H298.3z M304,111.4
	c0-0.8,0.2-1.7,0.7-2.3c0.4-0.6,1.1-0.9,1.8-0.9c0.7,0,1.3,0.2,1.8,0.8v-3.3h1.1v9h-1l0-0.7c-0.8,1-2.3,1.1-3.3,0.3
	c-0.1-0.1-0.2-0.2-0.3-0.3C304.2,113.1,304,112.3,304,111.4L304,111.4z M305.1,111.5c0,0.6,0.1,1.2,0.4,1.7c0.3,0.4,0.7,0.6,1.2,0.6
	c0.7,0,1.3-0.3,1.5-0.9V110c-0.3-0.6-0.9-0.9-1.5-0.9c-0.5,0-1,0.2-1.2,0.6C305.2,110.3,305.1,110.9,305.1,111.5L305.1,111.5z"/>
</svg>
