<?xml version="1.0" encoding="utf-8"?>
<!-- Generator: Adobe Illustrator 23.0.1, SVG Export Plug-In . SVG Version: 6.00 Build 0)  -->
<svg version="1.1" id="Layer_1" xmlns="http://www.w3.org/2000/svg" xmlns:xlink="http://www.w3.org/1999/xlink" x="0px" y="0px"
	 viewBox="0 0 518 566.7" style="enable-background:new 0 0 518 566.7;" xml:space="preserve">
<style type="text/css">
	.st0{fill:#FFFFFF;stroke:#E8E8E8;stroke-miterlimit:10;}
	.st1{enable-background:new    ;}
	.st2{fill:#F75821;}
	.st3{fill:none;stroke:#333333;stroke-miterlimit:10;}
	.st4{fill:#EEEEEE;}
	.st5{fill:none;stroke:#CCCCCC;stroke-miterlimit:10;}
	.st6{clip-path:url(#SVGID_2_);}
	.st7{fill:#A13915;}
	.st8{clip-path:url(#SVGID_4_);}
	.st9{fill:#F9794D;}
	.st10{clip-path:url(#SVGID_6_);}
	.st11{fill:none;}
	.st12{clip-path:url(#SVGID_8_);}
	.st13{clip-path:url(#SVGID_10_);}
	.st14{fill:#151B35;}
	.st15{clip-path:url(#SVGID_12_);}
	.st16{fill:#4D5474;}
	.st17{clip-path:url(#SVGID_14_);}
	.st18{clip-path:url(#SVGID_16_);}
	.st19{fill:#202951;}
	.st20{fill:none;stroke:#F75821;stroke-width:3;stroke-linecap:round;stroke-linejoin:round;}
	.st21{fill:#FFFFFF;}
	.st22{fill:none;stroke:#202951;stroke-width:3;stroke-linecap:round;stroke-linejoin:round;}
	.st23{fill:#757575;}
</style>
<title>graph1</title>
<path class="st0" d="M10.5,0.5h497c5.5,0,10,4.5,10,10v545.7c0,5.5-4.5,10-10,10h-497c-5.5,0-10-4.5-10-10V10.5
	C0.5,5,5,0.5,10.5,0.5z"/>
<g class="st1">
	<path class="st2" d="M100.6,53v2.9H89v-2.4l5.7-5.9c0.5-0.5,0.9-1,1.2-1.5c0.3-0.5,0.5-0.9,0.5-1.3c0-0.5-0.2-0.9-0.6-1.1
		s-0.9-0.4-1.6-0.4c-0.7,0-1.4,0.2-2.1,0.5c-0.7,0.3-1.5,0.8-2.2,1.4l-1.4-2.6c2-1.5,4.1-2.3,6.2-2.3c1,0,1.9,0.2,2.7,0.5
		s1.4,0.8,1.8,1.4c0.4,0.6,0.7,1.3,0.7,2.1c0,0.8-0.3,1.6-0.8,2.4c-0.5,0.8-1.2,1.7-2.2,2.7L93.6,53H100.6z"/>
	<path class="st2" d="M105.1,53.1c0.3,0.3,0.5,0.7,0.5,1.3c0,0.5-0.2,0.9-0.5,1.3s-0.7,0.5-1.2,0.5c-0.5,0-0.9-0.2-1.2-0.5
		c-0.3-0.3-0.5-0.8-0.5-1.3c0-0.5,0.2-0.9,0.5-1.3c0.3-0.3,0.7-0.5,1.2-0.5C104.4,52.6,104.8,52.7,105.1,53.1z"/>
	<path class="st2" d="M116.6,46.7c0.9,0.4,1.6,0.9,2.1,1.7s0.7,1.5,0.7,2.4c0,1.1-0.3,2-0.8,2.8c-0.5,0.8-1.2,1.4-2.2,1.8
		c-0.9,0.4-2,0.6-3.2,0.6c-1,0-2-0.2-3.1-0.5c-1.1-0.3-2-0.8-2.8-1.4l1.3-2.6c0.6,0.5,1.3,0.9,2.1,1.2c0.7,0.3,1.5,0.4,2.2,0.4
		c0.9,0,1.5-0.2,2-0.6s0.7-0.9,0.7-1.6c0-0.7-0.2-1.2-0.7-1.6c-0.5-0.4-1.2-0.5-2.2-0.5c-0.5,0-1.3,0-2.1,0c-0.9,0-1.6,0.1-2,0.1
		v-8.6h10.1v2.9h-6.9v2.7h1.7C114.7,46.1,115.7,46.3,116.6,46.7z"/>
	<path class="st2" d="M120.8,40.5h4l3.2,4.7l3.2-4.7h4.1l-5.1,7.4l5.6,8h-4.2l-3.6-5.1l-3.6,5.1h-4.1l5.5-7.9L120.8,40.5z"/>
	<path class="st2" d="M154,41.5c1,0.7,1.5,1.6,1.5,2.8c0,0.8-0.2,1.5-0.7,2.1c-0.5,0.6-1.1,1-1.9,1.2c1,0.2,1.8,0.6,2.4,1.3
		c0.6,0.7,0.9,1.6,0.9,2.6c0,1.3-0.5,2.4-1.6,3.1c-1,0.8-2.5,1.1-4.2,1.1h-7.3V40.5h7.1C151.7,40.5,153,40.8,154,41.5z M151.4,46.2
		c0.4-0.3,0.6-0.7,0.6-1.3c0-0.5-0.2-0.9-0.6-1.2c-0.4-0.3-0.9-0.4-1.6-0.4h-3.4v3.4h3.4C150.5,46.7,151,46.5,151.4,46.2z
		 M151.8,52.5c0.5-0.3,0.7-0.8,0.7-1.4c0-0.6-0.2-1-0.7-1.3c-0.5-0.3-1.1-0.5-1.9-0.5h-3.4V53h3.4C150.7,53,151.3,52.9,151.8,52.5z"
		/>
	<path class="st2" d="M167.9,45.6c1,1.1,1.5,2.6,1.5,4.6c0,0.4,0,0.6,0,0.8h-8.5c0.2,0.7,0.6,1.3,1.1,1.7c0.5,0.4,1.2,0.6,2,0.6
		c0.6,0,1.1-0.1,1.6-0.3c0.5-0.2,1-0.5,1.4-0.9l1.8,1.8c-0.6,0.7-1.3,1.2-2.2,1.6s-1.8,0.5-2.9,0.5c-1.2,0-2.3-0.2-3.3-0.7
		c-0.9-0.5-1.6-1.2-2.2-2.1c-0.5-0.9-0.8-2-0.8-3.1c0-1.2,0.3-2.3,0.8-3.2c0.5-0.9,1.2-1.6,2.2-2.1c0.9-0.5,2-0.8,3.2-0.8
		C165.5,43.9,167,44.5,167.9,45.6z M166.2,49c0-0.8-0.3-1.4-0.7-1.9c-0.5-0.5-1.1-0.7-1.9-0.7c-0.7,0-1.3,0.2-1.8,0.7
		c-0.5,0.5-0.8,1.1-0.9,1.9H166.2z"/>
	<path class="st2" d="M179,55.2c-0.4,0.3-0.9,0.5-1.5,0.6c-0.5,0.1-1.1,0.2-1.6,0.2c-1.1,0-2-0.3-2.7-0.9s-1-1.5-1-2.7v-5.5h-1.6
		v-2.3h1.6v-3.3h3.4v3.3h3.2v2.4h-3.2v4.9c0,0.9,0.4,1.4,1.1,1.4c0.5,0,1-0.1,1.6-0.4L179,55.2z"/>
</g>
<g class="st1">
	<path class="st2" d="M188.4,55.2c-0.4,0.3-0.9,0.5-1.5,0.6c-0.5,0.1-1.1,0.2-1.6,0.2c-1.1,0-2-0.3-2.7-0.9s-1-1.5-1-2.7v-5.5h-1.6
		v-2.3h1.6v-3.3h3.4v3.3h3.2v2.4h-3.2v4.9c0,0.9,0.4,1.4,1.1,1.4c0.5,0,1-0.1,1.6-0.4L188.4,55.2z"/>
</g>
<g class="st1">
	<path class="st2" d="M199.7,45.6c1,1.1,1.5,2.6,1.5,4.6c0,0.4,0,0.6,0,0.8h-8.5c0.2,0.7,0.6,1.3,1.1,1.7c0.5,0.4,1.2,0.6,2,0.6
		c0.6,0,1.1-0.1,1.6-0.3c0.5-0.2,1-0.5,1.4-0.9l1.8,1.8c-0.6,0.7-1.3,1.2-2.2,1.6s-1.8,0.5-2.9,0.5c-1.2,0-2.3-0.2-3.3-0.7
		c-0.9-0.5-1.6-1.2-2.2-2.1c-0.5-0.9-0.8-2-0.8-3.1c0-1.2,0.3-2.3,0.8-3.2c0.5-0.9,1.2-1.6,2.2-2.1c0.9-0.5,2-0.8,3.2-0.8
		C197.3,43.9,198.7,44.5,199.7,45.6z M198,49c0-0.8-0.3-1.4-0.7-1.9c-0.5-0.5-1.1-0.7-1.9-0.7c-0.7,0-1.3,0.2-1.8,0.7
		c-0.5,0.5-0.8,1.1-0.9,1.9H198z"/>
	<path class="st2" d="M208.4,44.5c0.7-0.4,1.4-0.6,2.3-0.6v3.2c-0.1,0-0.3,0-0.5,0c-1,0-1.9,0.3-2.5,0.8c-0.6,0.6-0.9,1.3-0.9,2.3
		v5.7h-3.4V44h3.4v2.1C207.2,45.4,207.8,44.9,208.4,44.5z"/>
	<path class="st2" d="M217.8,40.5h3.5v15.4h-3.5V40.5z"/>
	<path class="st2" d="M235.3,45.1c0.8,0.8,1.2,1.9,1.2,3.3v7.4h-3.4v-6.4c0-0.7-0.2-1.3-0.6-1.8c-0.4-0.4-1-0.6-1.7-0.6
		c-0.8,0-1.5,0.3-2,0.9c-0.5,0.6-0.7,1.3-0.7,2.2v5.8h-3.4V44h3.4v2.1c0.8-1.4,2.2-2.2,4.1-2.2C233.4,43.9,234.5,44.3,235.3,45.1z"
		/>
	<path class="st2" d="M244.9,46.7c-0.6-0.2-1.2-0.3-1.7-0.3c-0.4,0-0.7,0.1-1,0.2s-0.4,0.4-0.4,0.7c0,0.3,0.2,0.6,0.5,0.7
		c0.3,0.2,0.9,0.4,1.6,0.6c0.8,0.2,1.5,0.5,2.1,0.7s1,0.6,1.4,1.1s0.6,1.1,0.6,1.9c0,1.2-0.5,2.1-1.4,2.7c-0.9,0.7-2.1,1-3.5,1
		c-1,0-1.9-0.1-2.8-0.4c-0.9-0.3-1.7-0.7-2.3-1.2l1.1-2.3c0.6,0.5,1.3,0.8,2,1.1s1.4,0.4,2.1,0.4c0.5,0,0.8-0.1,1.1-0.2
		c0.3-0.2,0.4-0.4,0.4-0.7c0-0.3-0.2-0.6-0.5-0.8s-0.9-0.4-1.7-0.6c-0.8-0.2-1.5-0.5-2-0.7c-0.5-0.2-1-0.6-1.4-1.1
		c-0.4-0.5-0.6-1.1-0.6-1.9c0-1.2,0.4-2.1,1.3-2.7c0.9-0.6,2-1,3.3-1c0.8,0,1.6,0.1,2.4,0.3c0.8,0.2,1.5,0.6,2.2,1l-1.2,2.3
		C246.2,47.1,245.5,46.9,244.9,46.7z"/>
	<path class="st2" d="M259.8,45.6c1,1.1,1.5,2.6,1.5,4.6c0,0.4,0,0.6,0,0.8h-8.5c0.2,0.7,0.6,1.3,1.1,1.7c0.5,0.4,1.2,0.6,2,0.6
		c0.6,0,1.1-0.1,1.6-0.3c0.5-0.2,1-0.5,1.4-0.9l1.8,1.8c-0.6,0.7-1.3,1.2-2.2,1.6s-1.8,0.5-2.9,0.5c-1.2,0-2.3-0.2-3.3-0.7
		c-0.9-0.5-1.6-1.2-2.2-2.1c-0.5-0.9-0.8-2-0.8-3.1c0-1.2,0.3-2.3,0.8-3.2c0.5-0.9,1.2-1.6,2.2-2.1c0.9-0.5,2-0.8,3.2-0.8
		C257.3,43.9,258.8,44.5,259.8,45.6z M258.1,49c0-0.8-0.3-1.4-0.7-1.9c-0.5-0.5-1.1-0.7-1.9-0.7c-0.7,0-1.3,0.2-1.8,0.7
		c-0.5,0.5-0.8,1.1-0.9,1.9H258.1z"/>
	<path class="st2" d="M268.5,44.5c0.7-0.4,1.4-0.6,2.3-0.6v3.2c-0.1,0-0.3,0-0.5,0c-1,0-1.9,0.3-2.5,0.8s-0.9,1.3-0.9,2.3v5.7h-3.4
		V44h3.4v2.1C267.3,45.4,267.8,44.9,268.5,44.5z"/>
	<path class="st2" d="M280,55.2c-0.4,0.3-0.9,0.5-1.5,0.6c-0.5,0.1-1.1,0.2-1.6,0.2c-1.1,0-2-0.3-2.7-0.9s-1-1.5-1-2.7v-5.5h-1.7
		v-2.3h1.7v-3.3h3.4v3.3h3.2v2.4h-3.2v4.9c0,0.9,0.4,1.4,1.1,1.4c0.5,0,1-0.1,1.6-0.4L280,55.2z"/>
	<path class="st2" d="M298.3,41.9c1.1,0.9,1.6,2.2,1.6,3.9c0,1.8-0.5,3.2-1.6,4.2s-2.6,1.5-4.5,1.5h-3.1v4.4h-3.5V40.5h6.5
		C295.7,40.5,297.2,40.9,298.3,41.9z M295.8,47.9c0.5-0.4,0.8-1.1,0.8-2c0-0.9-0.3-1.5-0.8-1.9c-0.5-0.4-1.3-0.6-2.3-0.6h-2.9v5.2
		h2.9C294.6,48.6,295.3,48.3,295.8,47.9z"/>
	<path class="st2" d="M311.5,45.6c1,1.1,1.5,2.6,1.5,4.6c0,0.4,0,0.6,0,0.8h-8.5c0.2,0.7,0.6,1.3,1.1,1.7s1.2,0.6,2,0.6
		c0.6,0,1.1-0.1,1.6-0.3c0.5-0.2,1-0.5,1.4-0.9l1.8,1.8c-0.6,0.7-1.3,1.2-2.2,1.6c-0.9,0.4-1.8,0.5-2.9,0.5c-1.2,0-2.3-0.2-3.3-0.7
		c-0.9-0.5-1.7-1.2-2.2-2.1c-0.5-0.9-0.8-2-0.8-3.1c0-1.2,0.3-2.3,0.8-3.2c0.5-0.9,1.2-1.6,2.2-2.1c0.9-0.5,2-0.8,3.2-0.8
		C309.1,43.9,310.5,44.5,311.5,45.6z M309.8,49c0-0.8-0.3-1.4-0.7-1.9c-0.5-0.5-1.1-0.7-1.9-0.7c-0.7,0-1.3,0.2-1.8,0.7
		c-0.5,0.5-0.8,1.1-0.9,1.9H309.8z"/>
	<path class="st2" d="M320.2,44.5c0.7-0.4,1.4-0.6,2.3-0.6v3.2c-0.1,0-0.3,0-0.5,0c-1,0-1.9,0.3-2.5,0.8c-0.6,0.6-0.9,1.3-0.9,2.3
		v5.7h-3.4V44h3.4v2.1C319,45.4,319.5,44.9,320.2,44.5z"/>
</g>
<g class="st1">
	<path class="st2" d="M328.8,42.5c-0.3,0.2-0.4,0.6-0.4,1v1h2.8v2.4h-2.8v9H325v-9h-1.6v-2.4h1.6v-1.1c0-0.9,0.2-1.6,0.6-2.2
		c0.4-0.6,0.9-1.1,1.6-1.4s1.4-0.5,2.2-0.5c0.8,0,1.5,0.2,2.3,0.5l-0.5,2.6c-0.2-0.1-0.5-0.2-0.7-0.2c-0.2-0.1-0.5-0.1-0.7-0.1
		C329.4,42.2,329,42.3,328.8,42.5z"/>
</g>
<g class="st1">
	<path class="st2" d="M341.1,44.7c1,0.5,1.7,1.2,2.2,2.1c0.5,0.9,0.8,2,0.8,3.2c0,1.2-0.3,2.2-0.8,3.2c-0.5,0.9-1.3,1.6-2.2,2.1
		c-1,0.5-2.1,0.8-3.3,0.8c-1.3,0-2.4-0.3-3.3-0.8s-1.7-1.2-2.2-2.1c-0.5-0.9-0.8-2-0.8-3.2c0-1.2,0.3-2.3,0.8-3.2
		c0.5-0.9,1.3-1.6,2.2-2.1c1-0.5,2.1-0.7,3.3-0.7C339.1,43.9,340.2,44.2,341.1,44.7z M335.7,47.6c-0.6,0.6-0.8,1.4-0.8,2.4
		s0.3,1.8,0.8,2.4c0.5,0.6,1.3,0.9,2.1,0.9c0.9,0,1.6-0.3,2.1-0.9s0.8-1.4,0.8-2.4s-0.3-1.8-0.8-2.4s-1.3-0.9-2.1-0.9
		C337,46.7,336.2,47,335.7,47.6z"/>
	<path class="st2" d="M351.4,44.5c0.7-0.4,1.4-0.6,2.3-0.6v3.2c-0.1,0-0.3,0-0.5,0c-1,0-1.9,0.3-2.5,0.8s-0.9,1.3-0.9,2.3v5.7h-3.4
		V44h3.4v2.1C350.2,45.4,350.7,44.9,351.4,44.5z"/>
	<path class="st2" d="M374.3,45.1c0.8,0.8,1.2,1.9,1.2,3.3v7.4h-3.4v-6.4c0-0.8-0.2-1.4-0.6-1.8c-0.4-0.4-1-0.6-1.7-0.6
		c-0.8,0-1.4,0.3-1.9,0.9s-0.7,1.3-0.7,2.2v5.9h-3.4v-6.4c0-0.7-0.2-1.3-0.6-1.8s-1-0.6-1.7-0.6c-0.8,0-1.4,0.3-1.9,0.9
		S359,49.1,359,50v5.9h-3.4V44h3.4v2c0.8-1.4,2.2-2.1,4-2.2c1,0,1.8,0.2,2.5,0.7s1.2,1.1,1.5,2c0.4-0.9,0.9-1.6,1.7-2
		c0.7-0.5,1.6-0.7,2.6-0.7C372.5,43.9,373.6,44.3,374.3,45.1z"/>
	<path class="st2" d="M385.3,55.9v-1.4c-0.4,0.5-0.9,0.9-1.5,1.1c-0.6,0.3-1.4,0.4-2.2,0.4c-1.2,0-2.2-0.3-3-1
		c-0.7-0.7-1.1-1.6-1.1-2.7c0-1.1,0.4-2,1.2-2.6c0.8-0.6,1.9-0.9,3.3-1h3.3v-0.2c0-0.6-0.2-1.1-0.6-1.5c-0.4-0.3-1-0.5-1.8-0.5
		c-1.1,0-2.3,0.3-3.5,1l-1.1-2.3c0.9-0.5,1.8-0.8,2.6-1c0.8-0.2,1.7-0.3,2.7-0.3c1.6,0,2.8,0.4,3.7,1.1c0.9,0.7,1.3,1.8,1.3,3.1
		l0,7.7H385.3z M384.3,53.1c0.5-0.3,0.8-0.8,0.9-1.3v-1.1h-2.7c-0.7,0-1.1,0.1-1.5,0.3c-0.3,0.2-0.5,0.6-0.5,1
		c0,0.5,0.2,0.8,0.5,1.1s0.8,0.4,1.4,0.4C383.2,53.6,383.8,53.4,384.3,53.1z"/>
	<path class="st2" d="M402.2,45.1c0.8,0.8,1.2,1.9,1.2,3.3v7.4H400v-6.4c0-0.7-0.2-1.3-0.6-1.8s-1-0.6-1.7-0.6c-0.8,0-1.5,0.3-2,0.9
		c-0.5,0.6-0.7,1.3-0.7,2.2v5.8h-3.4V44h3.4v2.1c0.8-1.4,2.2-2.2,4.1-2.2C400.3,43.9,401.4,44.3,402.2,45.1z"/>
</g>
<g class="st1">
	<path class="st2" d="M411.5,46.8c-0.9,0-1.5,0.3-2.1,0.9c-0.5,0.6-0.8,1.3-0.8,2.3c0,1,0.3,1.7,0.8,2.3s1.2,0.9,2,0.9
		c1.2,0,2.1-0.5,2.8-1.4l2.3,1.6c-0.5,0.8-1.2,1.5-2.1,1.9c-0.9,0.5-2,0.7-3.2,0.7c-1.2,0-2.2-0.2-3.1-0.7c-0.9-0.5-1.6-1.2-2.1-2.1
		c-0.5-0.9-0.8-2-0.8-3.1c0-1.2,0.3-2.3,0.8-3.2s1.2-1.6,2.1-2.1c0.9-0.5,2-0.8,3.2-0.8c1.1,0,2.1,0.2,3,0.6c0.9,0.4,1.6,1,2.1,1.8
		l-2.3,1.7C413.5,47.2,412.6,46.8,411.5,46.8z"/>
</g>
<g class="st1">
	<path class="st2" d="M427.7,45.6c1,1.1,1.5,2.6,1.5,4.6c0,0.4,0,0.6,0,0.8h-8.5c0.2,0.7,0.6,1.3,1.1,1.7c0.5,0.4,1.2,0.6,2,0.6
		c0.6,0,1.1-0.1,1.6-0.3c0.5-0.2,1-0.5,1.4-0.9l1.8,1.8c-0.6,0.7-1.3,1.2-2.2,1.6c-0.9,0.4-1.8,0.5-2.9,0.5c-1.2,0-2.3-0.2-3.3-0.7
		c-0.9-0.5-1.6-1.2-2.2-2.1c-0.5-0.9-0.8-2-0.8-3.1c0-1.2,0.3-2.3,0.8-3.2s1.2-1.6,2.2-2.1c0.9-0.5,2-0.8,3.2-0.8
		C425.3,43.9,426.7,44.5,427.7,45.6z M426,49c0-0.8-0.3-1.4-0.7-1.9s-1.1-0.7-1.9-0.7c-0.7,0-1.3,0.2-1.8,0.7s-0.8,1.1-0.9,1.9H426z
		"/>
</g>
<path class="st3" d="M105,472.7h388"/>
<path class="st4" d="M75,502.7l30-29h388l-30,29H75z"/>
<path class="st5" d="M105,390.7h388"/>
<path class="st5" d="M105,307.7h388"/>
<path class="st5" d="M105,224.7h388"/>
<path class="st5" d="M105,142.7h388"/>
<g>
	<defs>
		<rect id="SVGID_1_" x="74.8" y="142.3" width="418.3" height="360.8"/>
	</defs>
	<clipPath id="SVGID_2_">
		<use xlink:href="#SVGID_1_"  style="overflow:visible;"/>
	</clipPath>
	<g class="st6">
		<path class="st7" d="M295.5,182.2v291l-25,25v-291L295.5,182.2z"/>
	</g>
</g>
<g>
	<defs>
		<rect id="SVGID_3_" x="74.8" y="142.3" width="418.3" height="360.8"/>
	</defs>
	<clipPath id="SVGID_4_">
		<use xlink:href="#SVGID_3_"  style="overflow:visible;"/>
	</clipPath>
	<g class="st8">
		<path class="st9" d="M270.5,207.2h-100l25-25h100L270.5,207.2z"/>
	</g>
</g>
<g>
	<defs>
		<rect id="SVGID_5_" x="74.8" y="142.3" width="418.3" height="360.8"/>
	</defs>
	<clipPath id="SVGID_6_">
		<use xlink:href="#SVGID_5_"  style="overflow:visible;"/>
	</clipPath>
	<g class="st10">
		<path class="st11" d="M270.5,498.2h-100v-291h100V498.2z"/>
	</g>
</g>
<g>
	<defs>
		<rect id="SVGID_7_" x="74.8" y="142.3" width="418.3" height="360.8"/>
	</defs>
	<clipPath id="SVGID_8_">
		<use xlink:href="#SVGID_7_"  style="overflow:visible;"/>
	</clipPath>
	<g class="st12">
		<path class="st2" d="M270.5,498.2h-100v-291h100V498.2z"/>
	</g>
</g>
<g>
	<defs>
		<rect id="SVGID_9_" x="74.8" y="142.3" width="418.3" height="360.8"/>
	</defs>
	<clipPath id="SVGID_10_">
		<use xlink:href="#SVGID_9_"  style="overflow:visible;"/>
	</clipPath>
	<g class="st13">
		<path class="st14" d="M396.5,418.2v55l-25,25v-55L396.5,418.2z"/>
	</g>
</g>
<g>
	<defs>
		<rect id="SVGID_11_" x="74.8" y="142.3" width="418.3" height="360.8"/>
	</defs>
	<clipPath id="SVGID_12_">
		<use xlink:href="#SVGID_11_"  style="overflow:visible;"/>
	</clipPath>
	<g class="st15">
		<path class="st16" d="M371.5,443.2h-100l25-25h100L371.5,443.2z"/>
	</g>
</g>
<g>
	<defs>
		<rect id="SVGID_13_" x="74.8" y="142.3" width="418.3" height="360.8"/>
	</defs>
	<clipPath id="SVGID_14_">
		<use xlink:href="#SVGID_13_"  style="overflow:visible;"/>
	</clipPath>
	<g class="st17">
		<path class="st11" d="M371.5,498.2h-100v-55h100V498.2z"/>
	</g>
</g>
<g>
	<defs>
		<rect id="SVGID_15_" x="74.8" y="142.3" width="418.3" height="360.8"/>
	</defs>
	<clipPath id="SVGID_16_">
		<use xlink:href="#SVGID_15_"  style="overflow:visible;"/>
	</clipPath>
	<g class="st18">
		<path class="st19" d="M371.5,498.2h-100v-55h100V498.2z"/>
	</g>
</g>
<path class="st20" d="M208.4,217.5c0,0.4-0.1,0.8-0.3,1.1c-0.2,0.3-0.5,0.6-0.9,0.8c0.4,0.2,0.8,0.5,1.1,0.8
	c0.3,0.4,0.4,0.8,0.4,1.2c0,0.7-0.3,1.3-0.8,1.8c-0.6,0.5-1.3,0.7-2,0.7c-0.7,0-1.4-0.2-2-0.7c-0.5-0.5-0.8-1.1-0.7-1.8
	c0-0.4,0.1-0.9,0.4-1.2c0.3-0.4,0.6-0.7,1.1-0.8c-0.4-0.2-0.7-0.4-0.9-0.8c-0.2-0.3-0.3-0.7-0.3-1.1c0-0.6,0.2-1.3,0.7-1.7
	c1.1-0.9,2.6-0.9,3.6,0C208.1,216.2,208.4,216.8,208.4,217.5z M207.5,221.5c0-0.4-0.1-0.8-0.4-1.1c-0.6-0.7-1.6-0.7-2.3-0.1
	c-0.3,0.3-0.5,0.8-0.5,1.2c0,0.4,0.1,0.8,0.4,1.1c0.3,0.3,0.8,0.4,1.2,0.4c0.4,0,0.9-0.1,1.2-0.4
	C207.4,222.3,207.5,221.9,207.5,221.5L207.5,221.5z M205.9,216c-0.4,0-0.7,0.1-1,0.4c-0.5,0.6-0.5,1.5,0,2.1c0.3,0.3,0.6,0.4,1,0.4
	c0.4,0,0.7-0.1,1-0.4c0.3-0.3,0.4-0.6,0.4-1c0-0.4-0.1-0.8-0.4-1.1C206.6,216.2,206.3,216,205.9,216z M215.4,217.4
	c0,0.4-0.1,0.8-0.3,1.1c-0.2,0.3-0.5,0.6-0.9,0.8c0.4,0.2,0.8,0.5,1.1,0.8c0.3,0.4,0.4,0.8,0.4,1.2c0,0.7-0.3,1.3-0.8,1.8
	c-0.6,0.5-1.3,0.7-2,0.7c-0.7,0-1.4-0.2-2-0.7c-0.5-0.5-0.8-1.1-0.7-1.8c0-0.4,0.1-0.9,0.4-1.2c0.3-0.4,0.6-0.7,1.1-0.8
	c-0.4-0.2-0.7-0.4-0.9-0.8c-0.2-0.3-0.3-0.7-0.3-1.1c0-0.6,0.2-1.3,0.7-1.7c1.1-0.9,2.6-0.9,3.6,0
	C215.1,216.2,215.4,216.8,215.4,217.4L215.4,217.4z M214.5,221.4c0-0.4-0.1-0.8-0.4-1.1c-0.6-0.7-1.6-0.7-2.3-0.1
	c-0.3,0.3-0.5,0.8-0.5,1.2c0,0.4,0.1,0.8,0.4,1.1c0.3,0.3,0.8,0.4,1.2,0.4c0.4,0,0.9-0.1,1.2-0.4
	C214.4,222.3,214.5,221.9,214.5,221.4L214.5,221.4z M212.9,216c-0.4,0-0.7,0.1-1,0.4c-0.5,0.6-0.5,1.5,0,2.1c0.3,0.3,0.6,0.4,1,0.4
	c0.4,0,0.7-0.1,1-0.4c0.3-0.3,0.4-0.6,0.4-1c0-0.4-0.1-0.8-0.4-1.1C213.6,216.2,213.3,216,212.9,216z M217.3,225.5l-0.6-0.4
	c0.3-0.5,0.6-1,0.6-1.6v-1h1.1v0.8c0,0.4-0.1,0.8-0.3,1.2C217.8,224.9,217.6,225.2,217.3,225.5L217.3,225.5z M224.6,220.1
	c0.1,1-0.2,2-0.6,2.8c-0.5,0.6-1.2,1-2,0.9c-0.8,0-1.5-0.3-2-0.9c-0.5-0.8-0.7-1.8-0.7-2.7v-1.4c-0.1-1,0.2-1.9,0.6-2.8
	c1-1.1,2.7-1.2,3.9-0.2c0.1,0.1,0.2,0.1,0.2,0.2c0.5,0.8,0.7,1.8,0.7,2.7L224.6,220.1z M223.5,218.6c0.1-0.7-0.1-1.4-0.4-2
	c-0.3-0.4-0.7-0.7-1.2-0.6c-0.5,0-1,0.2-1.2,0.6c-0.3,0.6-0.4,1.3-0.4,1.9v1.7c0,0.7,0.1,1.4,0.4,2c0.3,0.4,0.7,0.7,1.2,0.7
	c0.5,0,0.9-0.2,1.2-0.6c0.3-0.6,0.4-1.3,0.4-1.9V218.6z M231.6,220.1c0.1,1-0.2,2-0.6,2.8c-0.5,0.6-1.2,1-2,0.9
	c-0.8,0-1.5-0.3-2-0.9c-0.5-0.8-0.7-1.8-0.7-2.7v-1.4c-0.1-1,0.2-1.9,0.6-2.8c1-1.1,2.7-1.2,3.9-0.2c0.1,0.1,0.2,0.1,0.2,0.2
	c0.5,0.8,0.7,1.8,0.7,2.7L231.6,220.1z M230.5,218.6c0.1-0.7-0.1-1.4-0.4-2c-0.3-0.4-0.7-0.7-1.2-0.6c-0.5,0-1,0.2-1.2,0.6
	c-0.3,0.6-0.4,1.3-0.4,1.9v1.7c0,0.7,0.1,1.4,0.4,2c0.3,0.4,0.7,0.7,1.2,0.7c0.5,0,0.9-0.2,1.2-0.6c0.3-0.6,0.4-1.3,0.4-1.9V218.6z
	 M238.6,220.1c0.1,1-0.2,2-0.6,2.8c-0.5,0.6-1.2,1-2,0.9c-0.8,0-1.5-0.3-2-0.9c-0.5-0.8-0.7-1.8-0.7-2.7v-1.4
	c-0.1-1,0.2-1.9,0.6-2.8c1-1.1,2.7-1.2,3.9-0.2c0.1,0.1,0.2,0.1,0.2,0.2c0.5,0.8,0.7,1.8,0.7,2.7L238.6,220.1z M237.5,218.6
	c0.1-0.7-0.1-1.4-0.4-2c-0.3-0.4-0.7-0.7-1.2-0.6c-0.5,0-1,0.2-1.2,0.6c-0.3,0.6-0.4,1.3-0.4,1.9v1.7c0,0.7,0.1,1.4,0.4,2
	c0.3,0.4,0.7,0.7,1.2,0.7c0.5,0,0.9-0.2,1.2-0.6c0.3-0.6,0.4-1.3,0.4-1.9V218.6z"/>
<path class="st21" d="M208.4,217.5c0,0.4-0.1,0.8-0.3,1.1c-0.2,0.3-0.5,0.6-0.9,0.8c0.4,0.2,0.8,0.5,1.1,0.8
	c0.3,0.4,0.4,0.8,0.4,1.2c0,0.7-0.3,1.3-0.8,1.8c-0.6,0.5-1.3,0.7-2,0.7c-0.7,0-1.4-0.2-2-0.7c-0.5-0.5-0.8-1.1-0.7-1.8
	c0-0.4,0.1-0.9,0.4-1.2c0.3-0.4,0.6-0.7,1.1-0.8c-0.4-0.2-0.7-0.4-0.9-0.8c-0.2-0.3-0.3-0.7-0.3-1.1c0-0.6,0.2-1.3,0.7-1.7
	c1.1-0.9,2.6-0.9,3.6,0C208.1,216.2,208.4,216.8,208.4,217.5z M207.5,221.5c0-0.4-0.1-0.8-0.4-1.1c-0.6-0.7-1.6-0.7-2.3-0.1
	c-0.3,0.3-0.5,0.8-0.5,1.2c0,0.4,0.1,0.8,0.4,1.1c0.3,0.3,0.8,0.4,1.2,0.4c0.4,0,0.9-0.1,1.2-0.4
	C207.4,222.3,207.5,221.9,207.5,221.5L207.5,221.5z M205.9,216c-0.4,0-0.7,0.1-1,0.4c-0.5,0.6-0.5,1.5,0,2.1c0.3,0.3,0.6,0.4,1,0.4
	c0.4,0,0.7-0.1,1-0.4c0.3-0.3,0.4-0.6,0.4-1c0-0.4-0.1-0.8-0.4-1.1C206.6,216.2,206.3,216,205.9,216z M215.4,217.4
	c0,0.4-0.1,0.8-0.3,1.1c-0.2,0.3-0.5,0.6-0.9,0.8c0.4,0.2,0.8,0.5,1.1,0.8c0.3,0.4,0.4,0.8,0.4,1.2c0,0.7-0.3,1.3-0.8,1.8
	c-0.6,0.5-1.3,0.7-2,0.7c-0.7,0-1.4-0.2-2-0.7c-0.5-0.5-0.8-1.1-0.7-1.8c0-0.4,0.1-0.9,0.4-1.2c0.3-0.4,0.6-0.7,1.1-0.8
	c-0.4-0.2-0.7-0.4-0.9-0.8c-0.2-0.3-0.3-0.7-0.3-1.1c0-0.6,0.2-1.3,0.7-1.7c1.1-0.9,2.6-0.9,3.6,0
	C215.1,216.2,215.4,216.8,215.4,217.4L215.4,217.4z M214.5,221.4c0-0.4-0.1-0.8-0.4-1.1c-0.6-0.7-1.6-0.7-2.3-0.1
	c-0.3,0.3-0.5,0.8-0.5,1.2c0,0.4,0.1,0.8,0.4,1.1c0.3,0.3,0.8,0.4,1.2,0.4c0.4,0,0.9-0.1,1.2-0.4
	C214.4,222.3,214.5,221.9,214.5,221.4L214.5,221.4z M212.9,216c-0.4,0-0.7,0.1-1,0.4c-0.5,0.6-0.5,1.5,0,2.1c0.3,0.3,0.6,0.4,1,0.4
	c0.4,0,0.7-0.1,1-0.4c0.3-0.3,0.4-0.6,0.4-1c0-0.4-0.1-0.8-0.4-1.1C213.6,216.2,213.3,216,212.9,216z M217.3,225.5l-0.6-0.4
	c0.3-0.5,0.6-1,0.6-1.6v-1h1.1v0.8c0,0.4-0.1,0.8-0.3,1.2C217.8,224.9,217.6,225.2,217.3,225.5L217.3,225.5z M224.6,220.1
	c0.1,1-0.2,2-0.6,2.8c-0.5,0.6-1.2,1-2,0.9c-0.8,0-1.5-0.3-2-0.9c-0.5-0.8-0.7-1.8-0.7-2.7v-1.4c-0.1-1,0.2-1.9,0.6-2.8
	c1-1.1,2.7-1.2,3.9-0.2c0.1,0.1,0.2,0.1,0.2,0.2c0.5,0.8,0.7,1.8,0.7,2.7L224.6,220.1z M223.5,218.6c0.1-0.7-0.1-1.4-0.4-2
	c-0.3-0.4-0.7-0.7-1.2-0.6c-0.5,0-1,0.2-1.2,0.6c-0.3,0.6-0.4,1.3-0.4,1.9v1.7c0,0.7,0.1,1.4,0.4,2c0.3,0.4,0.7,0.7,1.2,0.7
	c0.5,0,0.9-0.2,1.2-0.6c0.3-0.6,0.4-1.3,0.4-1.9V218.6z M231.6,220.1c0.1,1-0.2,2-0.6,2.8c-0.5,0.6-1.2,1-2,0.9
	c-0.8,0-1.5-0.3-2-0.9c-0.5-0.8-0.7-1.8-0.7-2.7v-1.4c-0.1-1,0.2-1.9,0.6-2.8c1-1.1,2.7-1.2,3.9-0.2c0.1,0.1,0.2,0.1,0.2,0.2
	c0.5,0.8,0.7,1.8,0.7,2.7L231.6,220.1z M230.5,218.6c0.1-0.7-0.1-1.4-0.4-2c-0.3-0.4-0.7-0.7-1.2-0.6c-0.5,0-1,0.2-1.2,0.6
	c-0.3,0.6-0.4,1.3-0.4,1.9v1.7c0,0.7,0.1,1.4,0.4,2c0.3,0.4,0.7,0.7,1.2,0.7c0.5,0,0.9-0.2,1.2-0.6c0.3-0.6,0.4-1.3,0.4-1.9V218.6z
	 M238.6,220.1c0.1,1-0.2,2-0.6,2.8c-0.5,0.6-1.2,1-2,0.9c-0.8,0-1.5-0.3-2-0.9c-0.5-0.8-0.7-1.8-0.7-2.7v-1.4
	c-0.1-1,0.2-1.9,0.6-2.8c1-1.1,2.7-1.2,3.9-0.2c0.1,0.1,0.2,0.1,0.2,0.2c0.5,0.8,0.7,1.8,0.7,2.7L238.6,220.1z M237.5,218.6
	c0.1-0.7-0.1-1.4-0.4-2c-0.3-0.4-0.7-0.7-1.2-0.6c-0.5,0-1,0.2-1.2,0.6c-0.3,0.6-0.4,1.3-0.4,1.9v1.7c0,0.7,0.1,1.4,0.4,2
	c0.3,0.4,0.7,0.7,1.2,0.7c0.5,0,0.9-0.2,1.2-0.6c0.3-0.6,0.4-1.3,0.4-1.9V218.6z"/>
<path class="st22" d="M307.8,460.3h-1.1v-7.2l-2.2,0.8v-1l3.1-1.2h0.2V460.3z M315.5,451.8v0.9h-0.2c-0.7,0-1.5,0.3-2,0.8
	c-0.5,0.5-0.8,1.2-0.9,2c0.5-0.5,1.1-0.8,1.8-0.8c0.7,0,1.3,0.3,1.8,0.8c0.9,1.2,0.9,2.9,0,4.1c-1,1-2.7,1.1-3.7,0
	c-0.1-0.1-0.1-0.1-0.2-0.2c-0.5-0.7-0.8-1.6-0.8-2.4v-0.4c-0.1-1.3,0.3-2.6,1-3.6c0.7-0.9,1.9-1.3,3-1.3L315.5,451.8z M314,455.6
	c-0.4,0-0.7,0.1-1,0.3c-0.3,0.2-0.5,0.5-0.7,0.8v0.4c0,0.6,0.1,1.2,0.5,1.7c0.3,0.4,0.7,0.6,1.2,0.6c0.4,0,0.9-0.2,1.1-0.5
	c0.3-0.4,0.4-0.9,0.4-1.4c0-0.5-0.1-1-0.4-1.4C314.9,455.8,314.5,455.6,314,455.6z M318.3,462l-0.6-0.4c0.4-0.5,0.6-1,0.6-1.6v-1
	h1.1v0.8c0,0.4-0.1,0.8-0.3,1.2C318.8,461.4,318.6,461.7,318.3,462L318.3,462z M320.7,456l0.4-4.2h4.4v1h-3.5l-0.3,2.3
	c0.4-0.3,0.9-0.4,1.4-0.4c0.7,0,1.4,0.3,1.9,0.8c0.5,0.6,0.7,1.3,0.7,2.1c0,0.8-0.2,1.5-0.7,2.1c-0.5,0.5-1.3,0.8-2,0.8
	c-0.7,0-1.3-0.2-1.8-0.6c-0.5-0.5-0.8-1.1-0.8-1.8h1c0,0.4,0.2,0.8,0.5,1.1c0.3,0.3,0.7,0.4,1.1,0.4c0.5,0,0.9-0.2,1.2-0.5
	c0.3-0.4,0.5-0.9,0.4-1.4c0-0.5-0.1-1-0.5-1.4c-0.3-0.4-0.8-0.5-1.2-0.5c-0.4,0-0.8,0.1-1.1,0.3l-0.3,0.2L320.7,456z M332.6,456.7
	c0.1,1-0.2,2-0.6,2.8c-1,1.1-2.7,1.2-3.8,0.2c-0.1-0.1-0.2-0.1-0.2-0.2c-0.5-0.8-0.7-1.8-0.7-2.7v-1.4c-0.1-1,0.2-1.9,0.6-2.8
	c1-1.1,2.8-1.2,3.9-0.2c0.1,0.1,0.1,0.1,0.2,0.2c0.5,0.8,0.7,1.8,0.7,2.7L332.6,456.7z M331.5,455.2c0-0.7-0.1-1.4-0.4-2
	c-0.3-0.4-0.7-0.7-1.2-0.6c-0.5,0-1,0.2-1.2,0.6c-0.3,0.6-0.4,1.3-0.4,1.9v1.7c0,0.7,0.1,1.4,0.4,2c0.3,0.4,0.7,0.7,1.2,0.7
	c0.5,0,0.9-0.2,1.2-0.6c0.3-0.6,0.5-1.3,0.4-2V455.2z M339.6,456.7c0.1,1-0.2,2-0.6,2.8c-1,1.1-2.7,1.2-3.8,0.2
	c-0.1-0.1-0.2-0.1-0.2-0.2c-0.5-0.8-0.7-1.8-0.7-2.7v-1.4c-0.1-1,0.2-1.9,0.6-2.8c1-1.1,2.8-1.2,3.9-0.2c0.1,0.1,0.1,0.1,0.2,0.2
	c0.5,0.8,0.7,1.8,0.7,2.7L339.6,456.7z M338.5,455.2c0-0.7-0.1-1.4-0.4-2c-0.3-0.4-0.7-0.7-1.2-0.6c-0.5,0-1,0.2-1.2,0.6
	c-0.3,0.6-0.4,1.3-0.4,1.9v1.7c0,0.7,0.1,1.4,0.4,2c0.3,0.4,0.7,0.7,1.2,0.7c0.5,0,0.9-0.2,1.2-0.6c0.3-0.6,0.5-1.3,0.4-2V455.2z"/>
<path class="st21" d="M307.8,460.3h-1.1v-7.2l-2.2,0.8v-1l3.1-1.2h0.2V460.3z M315.5,451.8v0.9h-0.2c-0.7,0-1.5,0.3-2,0.8
	c-0.5,0.5-0.8,1.2-0.9,2c0.5-0.5,1.1-0.8,1.8-0.8c0.7,0,1.3,0.3,1.8,0.8c0.9,1.2,0.9,2.9,0,4.1c-1,1-2.7,1.1-3.7,0
	c-0.1-0.1-0.1-0.1-0.2-0.2c-0.5-0.7-0.8-1.6-0.8-2.4v-0.4c-0.1-1.3,0.3-2.6,1-3.6c0.7-0.9,1.9-1.3,3-1.3L315.5,451.8z M314,455.6
	c-0.4,0-0.7,0.1-1,0.3c-0.3,0.2-0.5,0.5-0.7,0.8v0.4c0,0.6,0.1,1.2,0.5,1.7c0.3,0.4,0.7,0.6,1.2,0.6c0.4,0,0.9-0.2,1.1-0.5
	c0.3-0.4,0.4-0.9,0.4-1.4c0-0.5-0.1-1-0.4-1.4C314.9,455.8,314.5,455.6,314,455.6z M318.3,462l-0.6-0.4c0.4-0.5,0.6-1,0.6-1.6v-1
	h1.1v0.8c0,0.4-0.1,0.8-0.3,1.2C318.8,461.4,318.6,461.7,318.3,462L318.3,462z M320.7,456l0.4-4.2h4.4v1h-3.5l-0.3,2.3
	c0.4-0.3,0.9-0.4,1.4-0.4c0.7,0,1.4,0.3,1.9,0.8c0.5,0.6,0.7,1.3,0.7,2.1c0,0.8-0.2,1.5-0.7,2.1c-0.5,0.5-1.3,0.8-2,0.8
	c-0.7,0-1.3-0.2-1.8-0.6c-0.5-0.5-0.8-1.1-0.8-1.8h1c0,0.4,0.2,0.8,0.5,1.1c0.3,0.3,0.7,0.4,1.1,0.4c0.5,0,0.9-0.2,1.2-0.5
	c0.3-0.4,0.5-0.9,0.4-1.4c0-0.5-0.1-1-0.5-1.4c-0.3-0.4-0.8-0.5-1.2-0.5c-0.4,0-0.8,0.1-1.1,0.3l-0.3,0.2L320.7,456z M332.6,456.7
	c0.1,1-0.2,2-0.6,2.8c-1,1.1-2.7,1.2-3.8,0.2c-0.1-0.1-0.2-0.1-0.2-0.2c-0.5-0.8-0.7-1.8-0.7-2.7v-1.4c-0.1-1,0.2-1.9,0.6-2.8
	c1-1.1,2.8-1.2,3.9-0.2c0.1,0.1,0.1,0.1,0.2,0.2c0.5,0.8,0.7,1.8,0.7,2.7L332.6,456.7z M331.5,455.2c0-0.7-0.1-1.4-0.4-2
	c-0.3-0.4-0.7-0.7-1.2-0.6c-0.5,0-1,0.2-1.2,0.6c-0.3,0.6-0.4,1.3-0.4,1.9v1.7c0,0.7,0.1,1.4,0.4,2c0.3,0.4,0.7,0.7,1.2,0.7
	c0.5,0,0.9-0.2,1.2-0.6c0.3-0.6,0.5-1.3,0.4-2V455.2z M339.6,456.7c0.1,1-0.2,2-0.6,2.8c-1,1.1-2.7,1.2-3.8,0.2
	c-0.1-0.1-0.2-0.1-0.2-0.2c-0.5-0.8-0.7-1.8-0.7-2.7v-1.4c-0.1-1,0.2-1.9,0.6-2.8c1-1.1,2.8-1.2,3.9-0.2c0.1,0.1,0.1,0.1,0.2,0.2
	c0.5,0.8,0.7,1.8,0.7,2.7L339.6,456.7z M338.5,455.2c0-0.7-0.1-1.4-0.4-2c-0.3-0.4-0.7-0.7-1.2-0.6c-0.5,0-1,0.2-1.2,0.6
	c-0.3,0.6-0.4,1.3-0.4,1.9v1.7c0,0.7,0.1,1.4,0.4,2c0.3,0.4,0.7,0.7,1.2,0.7c0.5,0,0.9-0.2,1.2-0.6c0.3-0.6,0.5-1.3,0.4-2V455.2z"/>
<path class="st23" d="M67.9,474c0.1,1-0.2,2-0.7,2.9c-1,1.1-2.7,1.2-3.8,0.2c-0.1-0.1-0.2-0.2-0.2-0.2c-0.5-0.8-0.7-1.8-0.7-2.7
	v-1.4c-0.1-1,0.2-1.9,0.6-2.8c1-1.1,2.8-1.2,3.9-0.2c0.1,0.1,0.1,0.1,0.2,0.2c0.5,0.8,0.7,1.8,0.7,2.7V474z M66.8,472.5
	c0-0.7-0.1-1.4-0.4-2c-0.3-0.4-0.7-0.7-1.2-0.6c-0.5,0-1,0.2-1.2,0.6c-0.3,0.6-0.4,1.3-0.4,1.9v1.7c0,0.7,0.1,1.4,0.4,2
	c0.2,0.4,0.7,0.7,1.2,0.7c0.5,0,0.9-0.2,1.2-0.6c0.3-0.6,0.4-1.3,0.4-2L66.8,472.5z"/>
<path class="st23" d="M38.2,394.9h-5.6v-0.8l3-3.3c0.3-0.4,0.6-0.8,0.9-1.2c0.2-0.3,0.3-0.7,0.2-1c0-0.4-0.1-0.8-0.4-1.1
	c-0.3-0.3-0.7-0.5-1.1-0.4c-0.5,0-0.9,0.1-1.2,0.5c-0.3,0.3-0.5,0.8-0.5,1.3h-1.1c0-0.7,0.2-1.4,0.8-1.9c0.5-0.5,1.3-0.8,2-0.7
	c0.7,0,1.4,0.2,1.9,0.6c0.5,0.4,0.7,1,0.7,1.7c-0.2,1.2-0.7,2.2-1.6,3l-2.2,2.5h4.3L38.2,394.9z M40.1,390.6l0.4-4.2h4.4v1h-3.5
	l-0.3,2.3c0.4-0.3,0.9-0.4,1.4-0.4c0.7,0,1.4,0.3,1.8,0.8c0.5,0.6,0.7,1.3,0.7,2.1c0,0.8-0.2,1.5-0.7,2.1c-0.5,0.5-1.3,0.8-2,0.8
	c-0.7,0-1.3-0.2-1.8-0.6c-0.5-0.5-0.8-1.1-0.8-1.8h1c0,0.4,0.2,0.8,0.5,1.1c0.3,0.3,0.7,0.4,1.1,0.4c0.5,0,0.9-0.2,1.2-0.5
	c0.3-0.4,0.5-0.9,0.4-1.4c0-0.5-0.1-1-0.5-1.4c-0.3-0.4-0.8-0.5-1.2-0.5c-0.4,0-0.8,0.1-1.1,0.3l-0.3,0.2L40.1,390.6z M46.6,396.6
	l-0.6-0.4c0.4-0.5,0.6-1,0.6-1.6v-1h1.1v0.9c0,0.4-0.1,0.8-0.3,1.2C47.2,396,46.9,396.3,46.6,396.6L46.6,396.6z M53.9,391.3
	c0.1,1-0.2,2-0.7,2.8c-1,1.1-2.7,1.2-3.8,0.2c-0.1-0.1-0.1-0.1-0.2-0.2c-0.5-0.8-0.7-1.8-0.7-2.7V390c-0.1-1,0.2-1.9,0.6-2.8
	c1-1.1,2.8-1.2,3.9-0.2c0.1,0.1,0.1,0.1,0.2,0.2c0.5,0.8,0.7,1.8,0.7,2.7L53.9,391.3z M52.8,389.8c0-0.7-0.1-1.4-0.4-2
	c-0.3-0.4-0.7-0.7-1.2-0.6c-0.5,0-1,0.2-1.2,0.6c-0.3,0.6-0.4,1.3-0.4,1.9v1.7c0,0.7,0.1,1.4,0.4,2c0.2,0.4,0.7,0.7,1.2,0.7
	c0.5,0,0.9-0.2,1.2-0.6c0.3-0.6,0.5-1.3,0.4-2L52.8,389.8z M60.9,391.3c0.1,1-0.2,2-0.7,2.8c-1,1.1-2.7,1.2-3.8,0.2
	c-0.1-0.1-0.1-0.1-0.2-0.2c-0.5-0.8-0.7-1.8-0.7-2.7V390c-0.1-1,0.2-1.9,0.6-2.8c1-1.1,2.8-1.2,3.9-0.2c0.1,0.1,0.1,0.1,0.2,0.2
	c0.5,0.8,0.7,1.8,0.7,2.7L60.9,391.3z M59.8,389.8c0-0.7-0.1-1.4-0.4-2c-0.3-0.4-0.7-0.7-1.2-0.6c-0.5,0-1,0.2-1.2,0.6
	c-0.3,0.6-0.4,1.3-0.4,1.9v1.7c0,0.7,0.1,1.4,0.4,2c0.2,0.4,0.7,0.7,1.2,0.7c0.5,0,0.9-0.2,1.2-0.6c0.3-0.6,0.5-1.3,0.4-2
	L59.8,389.8z M67.9,391.3c0.1,1-0.2,2-0.7,2.8c-1,1.1-2.7,1.2-3.8,0.2c-0.1-0.1-0.2-0.2-0.2-0.2c-0.5-0.8-0.7-1.8-0.7-2.7V390
	c-0.1-1,0.2-1.9,0.6-2.8c1-1.1,2.8-1.2,3.9-0.2c0.1,0.1,0.1,0.1,0.2,0.2c0.5,0.8,0.7,1.8,0.7,2.7V391.3z M66.8,389.8
	c0-0.7-0.1-1.4-0.4-2c-0.3-0.4-0.7-0.7-1.2-0.6c-0.5,0-1,0.2-1.2,0.6c-0.3,0.6-0.4,1.3-0.4,1.9v1.7c0,0.7,0.1,1.4,0.4,2
	c0.2,0.4,0.7,0.7,1.2,0.7c0.5,0,0.9-0.2,1.2-0.6c0.3-0.6,0.5-1.3,0.4-2L66.8,389.8z"/>
<path class="st23" d="M33,307.9l0.4-4.2h4.4v1h-3.5l-0.3,2.3c0.4-0.3,0.9-0.4,1.4-0.4c0.7,0,1.4,0.3,1.8,0.8
	c0.5,0.6,0.7,1.3,0.7,2.1c0,0.8-0.2,1.5-0.7,2.1c-0.5,0.5-1.3,0.8-2,0.8c-0.7,0-1.3-0.2-1.8-0.6c-0.5-0.5-0.8-1.1-0.8-1.8h1
	c0,0.4,0.2,0.8,0.5,1.1c0.3,0.3,0.7,0.4,1.1,0.4c0.5,0,0.9-0.2,1.2-0.5c0.3-0.4,0.5-0.9,0.4-1.4c0-0.5-0.1-1-0.5-1.4
	c-0.3-0.3-0.8-0.5-1.2-0.5c-0.4,0-0.8,0.1-1.1,0.3l-0.3,0.2L33,307.9z M44.9,308.6c0.1,1-0.2,2-0.7,2.8c-0.5,0.6-1.2,1-2,0.9
	c-0.8,0.1-1.5-0.3-2-0.9c-0.5-0.8-0.7-1.8-0.7-2.7v-1.4c-0.1-1,0.2-1.9,0.6-2.8c1-1.1,2.8-1.2,3.9-0.2c0.1,0.1,0.1,0.1,0.2,0.2
	c0.5,0.8,0.7,1.8,0.7,2.7L44.9,308.6z M43.8,307.1c0-0.7-0.1-1.4-0.4-2c-0.3-0.4-0.7-0.7-1.2-0.6c-0.5,0-1,0.2-1.2,0.6
	c-0.3,0.6-0.4,1.3-0.4,1.9v1.7c0,0.7,0.1,1.4,0.4,2c0.3,0.4,0.7,0.7,1.2,0.6c0.5,0,0.9-0.2,1.2-0.6c0.3-0.6,0.5-1.3,0.4-2
	L43.8,307.1z M46.6,313.9l-0.6-0.4c0.3-0.5,0.6-1,0.6-1.6v-1h1.1v0.8c0,0.4-0.1,0.8-0.3,1.2C47.2,313.3,46.9,313.6,46.6,313.9z
	 M53.9,308.6c0.1,1-0.2,2-0.7,2.8c-0.5,0.6-1.2,1-2,0.9c-0.8,0.1-1.5-0.3-2-0.9c-0.5-0.8-0.7-1.8-0.7-2.7v-1.4
	c-0.1-1,0.2-1.9,0.6-2.8c1-1.1,2.8-1.2,3.9-0.2c0.1,0.1,0.1,0.1,0.2,0.2c0.5,0.8,0.7,1.8,0.7,2.7L53.9,308.6z M52.8,307.1
	c0-0.7-0.1-1.4-0.4-2c-0.3-0.4-0.7-0.7-1.2-0.6c-0.5,0-1,0.2-1.2,0.6c-0.3,0.6-0.4,1.3-0.4,1.9v1.7c0,0.7,0.1,1.4,0.4,2
	c0.3,0.4,0.7,0.7,1.2,0.6c0.5,0,0.9-0.2,1.2-0.6c0.3-0.6,0.5-1.3,0.4-2L52.8,307.1z M60.9,308.6c0.1,1-0.2,2-0.7,2.8
	c-0.5,0.6-1.2,1-2,0.9c-0.8,0.1-1.5-0.3-2-0.9c-0.5-0.8-0.7-1.8-0.7-2.7v-1.4c-0.1-1,0.2-1.9,0.6-2.8c1-1.1,2.8-1.2,3.9-0.2
	c0.1,0.1,0.1,0.1,0.2,0.2c0.5,0.8,0.7,1.8,0.7,2.7L60.9,308.6z M59.8,307.1c0-0.7-0.1-1.4-0.4-2c-0.3-0.4-0.7-0.7-1.2-0.6
	c-0.5,0-1,0.2-1.2,0.6c-0.3,0.6-0.4,1.3-0.4,1.9v1.7c0,0.7,0.1,1.4,0.4,2c0.3,0.4,0.7,0.7,1.2,0.6c0.5,0,0.9-0.2,1.2-0.6
	c0.3-0.6,0.5-1.3,0.4-2L59.8,307.1z M67.9,308.6c0.1,1-0.2,2-0.7,2.8c-0.5,0.6-1.2,1-2,0.9c-0.8,0.1-1.5-0.3-2-0.9
	c-0.5-0.8-0.7-1.8-0.7-2.7v-1.4c-0.1-1,0.2-1.9,0.6-2.8c1-1.1,2.8-1.2,3.9-0.2c0.1,0.1,0.1,0.1,0.2,0.2c0.5,0.8,0.7,1.8,0.7,2.7
	L67.9,308.6z M66.8,307.1c0-0.7-0.1-1.4-0.4-2c-0.3-0.4-0.7-0.7-1.2-0.6c-0.5,0-1,0.2-1.2,0.6c-0.3,0.6-0.4,1.3-0.4,1.9v1.7
	c0,0.7,0.1,1.4,0.4,2c0.3,0.4,0.7,0.7,1.2,0.6c0.5,0,0.9-0.2,1.2-0.6c0.3-0.6,0.5-1.3,0.4-2L66.8,307.1z"/>
<path class="st23" d="M38.1,221.6l-3.5,7.9h-1.1l3.5-7.6h-4.6V221h5.8V221.6z M40.1,225.2l0.4-4.2h4.4v1h-3.5l-0.3,2.3
	c0.4-0.3,0.9-0.4,1.4-0.4c0.7,0,1.4,0.3,1.8,0.8c0.5,0.6,0.7,1.3,0.7,2.1c0,0.8-0.2,1.5-0.7,2.1c-0.5,0.5-1.3,0.8-2,0.8
	c-0.7,0-1.3-0.2-1.8-0.6c-0.5-0.5-0.8-1.1-0.8-1.8h1c0,0.4,0.2,0.8,0.5,1.1c0.3,0.3,0.7,0.4,1.1,0.4c0.5,0,0.9-0.2,1.2-0.5
	c0.3-0.4,0.5-0.9,0.4-1.4c0-0.5-0.1-1-0.5-1.4c-0.3-0.3-0.8-0.5-1.2-0.5c-0.4,0-0.8,0.1-1.1,0.3l-0.3,0.2L40.1,225.2z M46.7,231.2
	l-0.6-0.4c0.3-0.5,0.6-1,0.6-1.6v-1h1.1v0.8c0,0.4-0.1,0.8-0.3,1.2C47.2,230.6,47,230.9,46.7,231.2L46.7,231.2z M53.9,225.9
	c0.1,1-0.2,2-0.7,2.8c-0.5,0.6-1.2,1-2,0.9c-0.8,0.1-1.5-0.3-2-0.9c-0.5-0.8-0.7-1.8-0.7-2.7v-1.4c-0.1-1,0.2-1.9,0.6-2.8
	c1-1.1,2.8-1.2,3.9-0.2c0.1,0.1,0.1,0.1,0.2,0.2c0.5,0.8,0.7,1.8,0.7,2.7L53.9,225.9z M52.8,224.4c0-0.7-0.1-1.4-0.4-2
	c-0.3-0.4-0.7-0.7-1.2-0.6c-0.5,0-1,0.2-1.2,0.6c-0.3,0.6-0.4,1.3-0.4,1.9v1.7c0,0.7,0.1,1.4,0.4,2.1c0.3,0.4,0.7,0.7,1.2,0.6
	c0.5,0,0.9-0.2,1.2-0.6c0.3-0.6,0.5-1.3,0.4-2L52.8,224.4z M60.9,225.9c0.1,1-0.2,2-0.7,2.8c-0.5,0.6-1.2,1-2,0.9
	c-0.8,0.1-1.5-0.3-2-0.9c-0.5-0.8-0.7-1.8-0.7-2.7v-1.4c-0.1-1,0.2-1.9,0.6-2.8c1-1.1,2.8-1.2,3.9-0.2c0.1,0.1,0.1,0.1,0.2,0.2
	c0.5,0.8,0.7,1.8,0.7,2.7L60.9,225.9z M59.8,224.4c0-0.7-0.1-1.4-0.4-2c-0.3-0.4-0.7-0.7-1.2-0.6c-0.5,0-1,0.2-1.2,0.6
	c-0.3,0.6-0.4,1.3-0.4,1.9v1.7c0,0.7,0.1,1.4,0.4,2.1c0.3,0.4,0.7,0.7,1.2,0.6c0.5,0,0.9-0.2,1.2-0.6c0.3-0.6,0.5-1.3,0.4-2
	L59.8,224.4z M67.9,225.9c0.1,1-0.2,2-0.7,2.8c-0.5,0.6-1.2,1-2,0.9c-0.8,0.1-1.5-0.3-2-0.9c-0.5-0.8-0.7-1.8-0.7-2.7v-1.4
	c-0.1-1,0.2-1.9,0.6-2.8c1-1.1,2.8-1.2,3.9-0.2c0.1,0.1,0.1,0.1,0.2,0.2c0.5,0.8,0.7,1.8,0.7,2.7L67.9,225.9z M66.8,224.4
	c0-0.7-0.1-1.4-0.4-2c-0.3-0.4-0.7-0.7-1.2-0.6c-0.5,0-1,0.2-1.2,0.6c-0.3,0.6-0.4,1.3-0.4,1.9v1.7c0,0.7,0.1,1.4,0.4,2.1
	c0.3,0.4,0.7,0.7,1.2,0.6c0.5,0,0.9-0.2,1.2-0.6c0.3-0.6,0.5-1.3,0.4-2L66.8,224.4z"/>
<path class="st23" d="M29.1,146.8H28v-7.2l-2.2,0.8v-1l3.2-1.2h0.2L29.1,146.8z M37.9,143.1c0.1,1-0.2,2-0.7,2.8
	c-0.5,0.6-1.2,1-2,0.9c-0.8,0-1.5-0.3-2-0.9c-0.5-0.8-0.7-1.8-0.7-2.7v-1.4c-0.1-1,0.2-1.9,0.6-2.8c0.5-0.6,1.3-1,2-0.9
	c0.8-0.1,1.5,0.3,2,0.9c0.5,0.8,0.7,1.8,0.7,2.7L37.9,143.1z M36.8,141.7c0.1-0.7-0.1-1.4-0.4-2c-0.3-0.4-0.7-0.7-1.2-0.6
	c-0.5,0-1,0.2-1.2,0.6c-0.3,0.6-0.4,1.3-0.4,1.9v1.7c0,0.7,0.1,1.4,0.4,2c0.2,0.4,0.7,0.7,1.2,0.7c0.5,0,0.9-0.2,1.2-0.6
	c0.3-0.6,0.4-1.3,0.4-1.9L36.8,141.7z M44.9,143.1c0.1,1-0.2,2-0.7,2.8c-0.5,0.6-1.2,1-2,0.9c-0.8,0-1.5-0.3-2-0.9
	c-0.5-0.8-0.7-1.8-0.7-2.7v-1.4c-0.1-1,0.2-1.9,0.6-2.8c1-1.1,2.7-1.2,3.9-0.2c0.1,0.1,0.2,0.1,0.2,0.2c0.5,0.8,0.7,1.8,0.7,2.7
	L44.9,143.1z M43.8,141.7c0.1-0.7-0.1-1.4-0.4-2c-0.3-0.4-0.7-0.7-1.2-0.6c-0.5,0-1,0.2-1.2,0.6c-0.3,0.6-0.4,1.3-0.4,1.9v1.7
	c0,0.7,0.1,1.4,0.4,2c0.2,0.4,0.7,0.7,1.2,0.7c0.5,0,0.9-0.2,1.2-0.6c0.3-0.6,0.4-1.3,0.4-1.9L43.8,141.7z M46.6,148.5l-0.6-0.4
	c0.3-0.5,0.6-1,0.6-1.6v-1h1.1v0.8c0,0.4-0.1,0.8-0.3,1.2C47.2,147.9,46.9,148.2,46.6,148.5L46.6,148.5z M53.9,143.1
	c0.1,1-0.2,2-0.7,2.8c-0.5,0.6-1.2,1-2,0.9c-0.8,0-1.5-0.3-2-0.9c-0.5-0.8-0.7-1.8-0.7-2.7v-1.4c-0.1-1,0.2-1.9,0.6-2.8
	c1-1.1,2.7-1.2,3.9-0.2c0.1,0.1,0.2,0.1,0.2,0.2c0.5,0.8,0.7,1.8,0.7,2.7L53.9,143.1z M52.8,141.7c0.1-0.7-0.1-1.4-0.4-2
	c-0.3-0.4-0.7-0.7-1.2-0.6c-0.5,0-1,0.2-1.2,0.6c-0.3,0.6-0.4,1.3-0.4,1.9v1.7c0,0.7,0.1,1.4,0.4,2c0.2,0.4,0.7,0.7,1.2,0.7
	c0.5,0,0.9-0.2,1.2-0.6c0.3-0.6,0.4-1.3,0.4-1.9L52.8,141.7z M60.9,143.1c0.1,1-0.2,2-0.7,2.8c-0.5,0.6-1.2,1-2,0.9
	c-0.8,0-1.5-0.3-2-0.9c-0.5-0.8-0.7-1.8-0.7-2.7v-1.4c-0.1-1,0.2-1.9,0.6-2.8c1-1.1,2.7-1.2,3.9-0.2c0.1,0.1,0.2,0.1,0.2,0.2
	c0.5,0.8,0.7,1.8,0.7,2.7L60.9,143.1z M59.8,141.7c0.1-0.7-0.1-1.4-0.4-2c-0.3-0.4-0.7-0.7-1.2-0.6c-0.5,0-1,0.2-1.2,0.6
	c-0.3,0.6-0.4,1.3-0.4,1.9v1.7c0,0.7,0.1,1.4,0.4,2c0.2,0.4,0.7,0.7,1.2,0.7c0.5,0,0.9-0.2,1.2-0.6c0.3-0.6,0.4-1.3,0.4-1.9
	L59.8,141.7z M67.9,143.1c0.1,1-0.2,2-0.7,2.8c-0.5,0.6-1.2,1-2,0.9c-0.8,0-1.5-0.3-2-0.9c-0.5-0.8-0.7-1.8-0.7-2.7v-1.4
	c-0.1-1,0.2-1.9,0.6-2.8c1-1.1,2.7-1.2,3.9-0.2c0.1,0.1,0.2,0.1,0.2,0.2c0.5,0.8,0.7,1.8,0.7,2.7L67.9,143.1z M66.8,141.7
	c0.1-0.7-0.1-1.4-0.4-2c-0.3-0.4-0.7-0.7-1.2-0.6c-0.5,0-1,0.2-1.2,0.6c-0.3,0.6-0.4,1.3-0.4,1.9v1.7c0,0.7,0.1,1.4,0.4,2
	c0.2,0.4,0.7,0.7,1.2,0.7c0.5,0,0.9-0.2,1.2-0.6c0.3-0.6,0.4-1.3,0.4-1.9L66.8,141.7z"/>
<path class="st2" d="M79.5,529.3c0-0.6,0.4-1,1-1h10c0.6,0,1,0.4,1,1v10c0,0.6-0.4,1-1,1h-10c-0.6,0-1-0.4-1-1V529.3z"/>
<path class="st23" d="M103.1,534.6l2.2-4.3h1.3l-2.9,5.3v3.2h-1.1v-3.2l-2.9-5.3h1.3L103.1,534.6z M111.2,538.2
	c-0.5,0.5-1.2,0.8-1.8,0.8c-0.6,0-1.1-0.2-1.6-0.6c-0.4-0.5-0.6-1.1-0.5-1.8v-4.1h1.1v4.1c0,1,0.4,1.5,1.2,1.5
	c0.7,0.1,1.4-0.3,1.7-0.9v-4.6h1.1v6.3h-1L111.2,538.2z M114.1,535.6c0-0.8,0.2-1.7,0.7-2.4c0.4-0.6,1.1-0.9,1.8-0.9
	c0.7,0,1.4,0.3,1.8,0.8v-0.7h1v6.2c0,0.7-0.2,1.4-0.7,1.9c-0.5,0.5-1.3,0.8-2,0.7c-0.5,0-0.9-0.1-1.3-0.3c-0.4-0.2-0.7-0.4-1-0.8
	l0.6-0.7c0.4,0.5,1,0.9,1.7,0.9c0.5,0,0.9-0.1,1.2-0.5c0.3-0.3,0.5-0.8,0.4-1.2v-0.5c-0.4,0.5-1.1,0.8-1.8,0.8
	c-0.7,0-1.4-0.3-1.8-0.9C114.2,537.3,114,536.5,114.1,535.6z M115.2,535.7c0,0.6,0.1,1.2,0.4,1.7c0.3,0.4,0.7,0.6,1.2,0.6
	c0.6,0,1.2-0.3,1.5-0.9v-2.9c-0.3-0.6-0.9-0.9-1.5-0.9c-0.5,0-1,0.2-1.2,0.6C115.3,534.5,115.1,535.1,115.2,535.7z M125.2,538.8
	c-0.1-0.2-0.1-0.4-0.2-0.7c-0.5,0.5-1.1,0.8-1.8,0.8c-0.6,0-1.1-0.2-1.6-0.5c-0.4-0.3-0.6-0.8-0.6-1.4c0-0.6,0.3-1.2,0.8-1.5
	c0.6-0.4,1.4-0.6,2.1-0.5h1v-0.5c0-0.3-0.1-0.7-0.3-0.9c-0.3-0.2-0.6-0.4-1-0.3c-0.4,0-0.7,0.1-1,0.3c-0.2,0.2-0.4,0.4-0.4,0.7h-1.1
	c0-0.3,0.1-0.7,0.3-0.9c0.2-0.3,0.6-0.5,0.9-0.7c0.4-0.2,0.8-0.3,1.3-0.3c0.6,0,1.2,0.2,1.7,0.5c0.4,0.4,0.7,0.9,0.7,1.5v2.9
	c0,0.5,0.1,0.9,0.2,1.4v0.1L125.2,538.8z M123.4,538c0.4,0,0.7-0.1,1-0.3c0.3-0.2,0.5-0.4,0.7-0.7v-1.3h-0.8c-1.3,0-2,0.4-2,1.2
	c0,0.3,0.1,0.6,0.3,0.8C122.8,537.9,123.1,538,123.4,538L123.4,538z M128.4,538.8v-8.5h2.8c0.7-0.1,1.5,0.1,2.1,0.6
	c0.5,0.4,0.8,1,0.7,1.7c0,0.4-0.1,0.8-0.3,1.1c-0.2,0.3-0.6,0.6-0.9,0.7c0.4,0.1,0.8,0.4,1.1,0.7c0.3,0.4,0.4,0.8,0.4,1.3
	c0,0.7-0.2,1.4-0.8,1.8c-0.6,0.5-1.3,0.7-2.1,0.7H128.4z M129.6,534.8v3.1h1.9c0.5,0,0.9-0.1,1.2-0.4c0.3-0.3,0.5-0.7,0.4-1.1
	c0-1-0.6-1.5-1.7-1.5H129.6z M129.6,533.9h1.7c0.4,0,0.8-0.1,1.2-0.4c0.3-0.2,0.5-0.6,0.5-1c0-0.4-0.1-0.8-0.4-1
	c-0.4-0.2-0.8-0.4-1.2-0.3h-1.7V533.9z M137.4,537.2l1.5-4.8h1.2l-2.6,7.3c-0.4,1-1,1.6-1.9,1.6h-0.2l-0.4-0.1v-0.9h0.3
	c0.3,0,0.6-0.1,0.9-0.2c0.2-0.2,0.4-0.5,0.5-0.8l0.2-0.7l-2.3-6.3h1.2L137.4,537.2z M142.8,531v1.5h1.2v0.8h-1.2v3.9
	c0,0.2,0,0.4,0.1,0.6c0.1,0.1,0.3,0.2,0.5,0.2c0.2,0,0.3,0,0.5-0.1v0.9c-0.3,0.1-0.5,0.1-0.8,0.1c-0.4,0-0.8-0.1-1.1-0.4
	c-0.3-0.4-0.4-0.8-0.4-1.3v-3.9h-1.1v-0.8h1.1V531H142.8z M147.9,539c-0.8,0-1.6-0.3-2.1-0.8c-0.5-0.6-0.8-1.4-0.8-2.3v-0.2
	c0-0.6,0.1-1.2,0.4-1.7c0.2-0.5,0.6-0.9,1-1.2c0.4-0.3,0.9-0.4,1.4-0.4c0.7,0,1.4,0.3,1.9,0.8c0.5,0.7,0.7,1.5,0.7,2.3v0.4h-4.3
	c0,0.6,0.2,1.1,0.6,1.5c0.3,0.4,0.8,0.6,1.4,0.6c0.3,0,0.7-0.1,0.9-0.2c0.3-0.2,0.5-0.4,0.7-0.6l0.6,0.5
	C149.8,538.6,148.9,539,147.9,539L147.9,539z M147.8,533.3c-0.4,0-0.8,0.2-1.1,0.5c-0.3,0.4-0.5,0.8-0.5,1.3h3.2V535
	c0-0.5-0.2-0.9-0.4-1.3C148.6,533.4,148.2,533.3,147.8,533.3L147.8,533.3z M154.5,538.9v-8.5h2.4c0.7,0,1.4,0.1,2,0.5
	c0.6,0.3,1,0.8,1.3,1.4c0.3,0.6,0.5,1.4,0.5,2.1v0.5c0,0.7-0.1,1.5-0.5,2.1c-0.3,0.6-0.8,1.1-1.3,1.4c-0.6,0.3-1.3,0.5-2,0.5
	L154.5,538.9z M155.6,531.3v6.7h1.2c0.8,0,1.5-0.3,2-0.8c0.5-0.6,0.8-1.5,0.7-2.3v-0.5c0.1-0.8-0.2-1.6-0.7-2.2
	c-0.5-0.6-1.2-0.9-1.9-0.8H155.6z M162.5,538.9v-8.5h2.8c0.7-0.1,1.5,0.1,2.1,0.6c0.5,0.4,0.8,1,0.7,1.7c0,0.4-0.1,0.8-0.3,1.1
	c-0.2,0.3-0.6,0.6-0.9,0.7c0.4,0.1,0.8,0.4,1.1,0.7c0.3,0.4,0.4,0.8,0.4,1.3c0,0.7-0.2,1.4-0.8,1.8c-0.6,0.5-1.3,0.7-2.1,0.7H162.5z
	 M163.6,534.9v3.1h1.9c0.5,0,0.9-0.1,1.2-0.4c0.3-0.3,0.5-0.7,0.4-1.1c0-1-0.6-1.5-1.7-1.5H163.6z M163.6,534h1.7
	c0.4,0,0.8-0.1,1.2-0.4c0.3-0.2,0.5-0.6,0.5-1c0-0.4-0.1-0.8-0.4-1c-0.4-0.2-0.8-0.4-1.2-0.3h-1.7V534z M172.3,535.4
	c0-0.9,0.1-1.7,0.3-2.5c0.2-0.8,0.6-1.5,1.1-2.2c0.4-0.6,0.9-1.1,1.5-1.4l0.2,0.7c-0.6,0.5-1.1,1.2-1.4,2c-0.4,1-0.6,2-0.6,3v0.5
	c0,1.4,0.3,2.7,0.8,3.9c0.3,0.6,0.7,1.1,1.2,1.6l-0.2,0.7c-0.6-0.4-1.1-0.9-1.5-1.5C172.7,538.7,172.2,537.1,172.3,535.4
	L172.3,535.4z M180.8,536h1.2v0.9h-1.2v2h-1.1v-2h-3.9v-0.6l3.8-5.9h1.2V536z M177.1,536h2.6v-4.2l-0.1,0.2L177.1,536z M184.3,532.5
	v0.7c0.5-0.5,1.2-0.9,1.9-0.8c0.8-0.1,1.5,0.3,1.8,1c0.2-0.3,0.5-0.6,0.8-0.7c0.4-0.2,0.8-0.3,1.2-0.3c1.4,0,2.1,0.7,2.1,2.2v4.2
	h-1.1v-4.2c0-0.4-0.1-0.7-0.3-1c-0.3-0.2-0.6-0.4-1-0.3c-0.4,0-0.7,0.1-1,0.4c-0.3,0.3-0.4,0.6-0.4,1v4.2h-1.1v-4.2
	c0.1-0.7-0.3-1.3-1-1.4c-0.1,0-0.2,0-0.4,0c-0.6,0-1.2,0.3-1.4,0.9v4.6h-1.1v-6.3L184.3,532.5z M198,537.2c0-0.3-0.1-0.5-0.4-0.7
	c-0.3-0.2-0.7-0.4-1.1-0.4c-0.5-0.1-0.9-0.2-1.3-0.4c-0.3-0.1-0.5-0.3-0.7-0.6c-0.2-0.2-0.2-0.5-0.2-0.8c0-0.5,0.2-1,0.7-1.3
	c1-0.7,2.4-0.7,3.4,0c0.4,0.3,0.7,0.9,0.7,1.4h-1c0-0.3-0.1-0.6-0.4-0.8c-0.3-0.2-0.6-0.3-0.9-0.3c-0.3,0-0.7,0.1-0.9,0.3
	c-0.2,0.2-0.3,0.4-0.3,0.7c0,0.2,0.1,0.5,0.3,0.6c0.4,0.2,0.7,0.3,1.1,0.4c0.5,0.1,0.9,0.2,1.3,0.4c0.3,0.1,0.5,0.3,0.7,0.6
	c0.2,0.3,0.3,0.6,0.2,0.9c0,0.5-0.2,1.1-0.7,1.4c-0.5,0.4-1.1,0.5-1.8,0.5c-0.5,0-0.9-0.1-1.4-0.3c-0.4-0.2-0.7-0.4-0.9-0.8
	c-0.2-0.3-0.3-0.6-0.3-1h1.1c0,0.3,0.2,0.7,0.4,0.9c0.6,0.4,1.4,0.4,2.1,0.1C197.9,537.7,198,537.4,198,537.2z M204.5,538.8h-1.1v-9
	h1.1V538.8z M210.2,538.8c-0.1-0.2-0.1-0.4-0.1-0.7c-0.5,0.5-1.1,0.8-1.8,0.8c-0.6,0-1.1-0.2-1.6-0.5c-0.4-0.3-0.6-0.8-0.6-1.4
	c0-0.6,0.3-1.2,0.8-1.5c0.6-0.4,1.4-0.6,2.1-0.5h1v-0.5c0-0.3-0.1-0.7-0.3-0.9c-0.3-0.2-0.6-0.4-1-0.3c-0.4,0-0.7,0.1-1,0.3
	c-0.2,0.2-0.4,0.4-0.4,0.7h-1.1c0-0.3,0.1-0.7,0.3-0.9c0.2-0.3,0.6-0.5,0.9-0.7c0.4-0.2,0.8-0.3,1.3-0.3c0.6,0,1.2,0.2,1.7,0.5
	c0.4,0.4,0.7,0.9,0.7,1.5v2.9c0,0.5,0.1,0.9,0.2,1.4v0.1L210.2,538.8z M208.4,538c0.4,0,0.7-0.1,1-0.3c0.3-0.2,0.5-0.4,0.6-0.7v-1.3
	h-0.8c-1.3,0-2,0.4-2,1.2c0,0.3,0.1,0.6,0.3,0.8C207.8,537.9,208.1,538,208.4,538L208.4,538z M214.8,531v1.5h1.2v0.8h-1.2v3.9
	c0,0.2,0,0.4,0.1,0.6c0.1,0.1,0.3,0.2,0.5,0.2c0.2,0,0.3,0,0.5-0.1v0.9c-0.3,0.1-0.5,0.1-0.8,0.1c-0.4,0-0.8-0.1-1.1-0.4
	c-0.3-0.4-0.4-0.8-0.4-1.3v-3.9h-1.1v-0.8h1.1V531L214.8,531z M219.9,539c-0.8,0-1.6-0.3-2.1-0.8c-0.5-0.6-0.8-1.4-0.8-2.3v-0.2
	c0-0.6,0.1-1.2,0.4-1.7c0.2-0.5,0.6-0.9,1-1.2c0.4-0.3,0.9-0.4,1.4-0.4c0.7,0,1.4,0.3,1.9,0.8c0.5,0.7,0.7,1.5,0.7,2.3v0.4h-4.3
	c0,0.6,0.2,1.1,0.6,1.5c0.3,0.4,0.8,0.6,1.4,0.6c0.3,0,0.7-0.1,0.9-0.2c0.3-0.2,0.5-0.4,0.7-0.6l0.6,0.5
	C221.8,538.5,220.9,539,219.9,539L219.9,539z M219.8,533.3c-0.4,0-0.8,0.2-1.1,0.5c-0.3,0.4-0.5,0.8-0.5,1.3h3.2V535
	c0-0.5-0.2-0.9-0.4-1.3C220.6,533.4,220.2,533.3,219.8,533.3L219.8,533.3z M224.3,532.5v0.8c0.5-0.6,1.2-0.9,1.9-0.9
	c1.3,0,2,0.8,2,2.3v4.2h-1.1v-4.2c0-0.4-0.1-0.7-0.3-1c-0.3-0.2-0.6-0.4-1-0.3c-0.3,0-0.7,0.1-0.9,0.3c-0.3,0.2-0.5,0.4-0.6,0.7v4.5
	h-1.1v-6.3L224.3,532.5z M232.8,538.1c0.4,0,0.7-0.1,1-0.3c0.3-0.2,0.5-0.5,0.5-0.9h1c0,0.4-0.2,0.7-0.4,1c-0.2,0.3-0.6,0.6-0.9,0.8
	c-0.4,0.2-0.8,0.3-1.2,0.3c-0.8,0-1.5-0.3-2.1-0.9c-0.5-0.7-0.8-1.5-0.8-2.4v-0.2c0-0.6,0.1-1.1,0.3-1.6c0.2-0.5,0.6-0.8,1-1.1
	c0.5-0.3,1-0.4,1.5-0.4c0.6,0,1.3,0.2,1.8,0.7c0.5,0.4,0.8,1,0.8,1.7h-1c0-0.8-0.7-1.4-1.5-1.4c-0.5,0-1,0.2-1.3,0.6
	c-0.3,0.5-0.5,1.1-0.5,1.7v0.2c0,0.6,0.1,1.2,0.5,1.7C231.9,537.9,232.4,538.1,232.8,538.1L232.8,538.1z M238.4,537.3l1.5-4.8h1.1
	l-2.6,7.3c-0.4,1-1,1.6-1.9,1.6h-0.2l-0.4-0.1v-0.9h0.3c0.3,0,0.6-0.1,0.9-0.2c0.2-0.2,0.4-0.5,0.5-0.8l0.2-0.7l-2.3-6.3h1.2
	L238.4,537.3z M244.8,535.5c0,0.9-0.1,1.7-0.4,2.5c-0.2,0.8-0.6,1.5-1.1,2.2c-0.4,0.6-0.9,1.1-1.5,1.4l-0.2-0.7
	c0.7-0.6,1.2-1.3,1.4-2.1c0.4-1,0.6-2.1,0.6-3.2v-0.2c0-0.8-0.1-1.5-0.3-2.3c-0.2-0.7-0.4-1.3-0.7-1.9c-0.2-0.5-0.6-0.9-1-1.3
	l0.2-0.7c0.6,0.4,1.1,0.8,1.5,1.4c0.5,0.7,0.8,1.4,1.1,2.2C244.7,533.7,244.8,534.6,244.8,535.5L244.8,535.5z"/>
<path class="st19" d="M261.5,529.3c0-0.6,0.4-1,1-1h10c0.6,0,1,0.4,1,1v10c0,0.6-0.4,1-1,1h-10c-0.6,0-1-0.4-1-1V529.3z"/>
<path class="st23" d="M288.8,536.1c-0.1,0.8-0.4,1.5-1,2.1c-0.6,0.5-1.4,0.8-2.2,0.7c-0.9,0-1.8-0.4-2.4-1.1c-0.6-0.8-1-1.9-0.9-2.9
	v-0.8c0-0.7,0.1-1.4,0.4-2.1c0.3-0.6,0.7-1.1,1.2-1.4c0.5-0.3,1.2-0.5,1.8-0.5c0.8,0,1.6,0.2,2.2,0.8c0.6,0.5,0.9,1.3,1,2.1h-1.1
	c0-0.5-0.3-1.1-0.6-1.5c-0.4-0.3-0.9-0.5-1.4-0.5c-0.7,0-1.3,0.3-1.7,0.8c-0.4,0.7-0.7,1.5-0.6,2.3v0.8c0,0.8,0.2,1.6,0.6,2.2
	c0.4,0.5,1,0.8,1.6,0.8c0.5,0,1-0.1,1.4-0.4c0.4-0.4,0.6-0.9,0.7-1.5L288.8,536.1z M290,535.6c0-0.6,0.1-1.1,0.4-1.7
	c0.2-0.5,0.6-0.9,1-1.1c0.4-0.3,1-0.4,1.5-0.4c0.8,0,1.6,0.3,2.1,0.9c0.6,0.7,0.9,1.5,0.8,2.4v0.1c0,0.6-0.1,1.1-0.4,1.7
	c-0.2,0.5-0.6,0.9-1,1.2c-0.5,0.3-1,0.4-1.5,0.4c-0.8,0-1.6-0.3-2.1-0.9C290.3,537.4,290,536.5,290,535.6L290,535.6z M291.1,535.7
	c0,0.6,0.1,1.2,0.5,1.7c0.3,0.4,0.8,0.7,1.3,0.6c0.5,0,1-0.2,1.3-0.6c0.4-0.5,0.5-1.2,0.5-1.8c0-0.6-0.2-1.2-0.5-1.7
	c-0.3-0.4-0.8-0.7-1.3-0.7c-0.5,0-1,0.2-1.3,0.6C291.3,534.5,291.1,535.1,291.1,535.7z M299.9,538.1c0.4,0,0.7-0.1,1-0.3
	c0.3-0.2,0.5-0.5,0.5-0.9h1c0,0.4-0.2,0.7-0.4,1c-0.2,0.3-0.6,0.6-0.9,0.8c-0.4,0.2-0.8,0.3-1.2,0.3c-0.8,0-1.5-0.3-2.1-0.9
	c-0.5-0.7-0.8-1.5-0.8-2.4v-0.2c0-0.6,0.1-1.1,0.3-1.6c0.2-0.5,0.6-0.8,1-1.1c0.5-0.3,1-0.4,1.5-0.4c0.6,0,1.3,0.2,1.8,0.7
	c0.5,0.4,0.8,1,0.8,1.7h-1c0-0.8-0.7-1.4-1.5-1.4c-0.5,0-1,0.2-1.3,0.6c-0.3,0.5-0.5,1.1-0.5,1.7v0.2c0,0.6,0.1,1.2,0.5,1.7
	C298.9,537.8,299.4,538.1,299.9,538.1z M305.1,535.9l-0.7,0.7v2.2h-1.1v-9h1.1v5.4l0.6-0.7l2-2.1h1.3l-2.5,2.7l2.8,3.7h-1.3
	L305.1,535.9z M312.4,533.5c-0.2,0-0.4,0-0.5,0c-0.6-0.1-1.2,0.3-1.5,0.9v4.5h-1.1v-6.3h1v0.7c0.3-0.5,0.9-0.9,1.5-0.8
	c0.2,0,0.3,0,0.5,0.1L312.4,533.5z M313,535.6c0-0.6,0.1-1.1,0.4-1.7c0.2-0.5,0.6-0.9,1-1.1c0.4-0.3,1-0.4,1.5-0.4
	c0.8,0,1.6,0.3,2.1,0.9c0.6,0.7,0.9,1.5,0.8,2.4v0.1c0,0.6-0.1,1.1-0.4,1.7c-0.2,0.5-0.6,0.9-1,1.2c-0.5,0.3-1,0.4-1.5,0.4
	c-0.8,0-1.6-0.3-2.1-0.9C313.3,537.4,313,536.5,313,535.6L313,535.6z M314.1,535.7c0,0.6,0.1,1.2,0.5,1.7c0.3,0.4,0.8,0.7,1.3,0.6
	c0.5,0,1-0.2,1.3-0.6c0.4-0.5,0.5-1.2,0.5-1.8c0-0.6-0.2-1.2-0.5-1.7c-0.3-0.4-0.8-0.7-1.3-0.7c-0.5,0-1,0.2-1.3,0.6
	C314.3,534.5,314.1,535.1,314.1,535.7L314.1,535.7z M324.2,538.8c-0.1-0.2-0.1-0.4-0.1-0.7c-0.5,0.5-1.1,0.8-1.8,0.8
	c-0.6,0-1.1-0.2-1.5-0.5c-0.4-0.3-0.6-0.8-0.6-1.4c0-0.6,0.3-1.2,0.8-1.5c0.6-0.4,1.4-0.6,2.1-0.5h1v-0.5c0-0.3-0.1-0.7-0.3-0.9
	c-0.3-0.2-0.6-0.4-1-0.3c-0.4,0-0.7,0.1-1,0.3c-0.2,0.2-0.4,0.4-0.4,0.7h-1.1c0-0.3,0.1-0.7,0.3-0.9c0.2-0.3,0.6-0.5,0.9-0.7
	c0.4-0.2,0.8-0.3,1.3-0.3c0.6,0,1.2,0.2,1.7,0.5c0.4,0.4,0.7,0.9,0.7,1.5v2.9c0,0.5,0.1,0.9,0.2,1.4v0.1L324.2,538.8z M322.4,538
	c0.4,0,0.7-0.1,1-0.3c0.3-0.2,0.5-0.4,0.6-0.7v-1.3h-0.8c-1.3,0-2,0.4-2,1.2c0,0.3,0.1,0.6,0.3,0.8C321.8,537.9,322.1,538,322.4,538
	L322.4,538z M329.9,538.1c0.4,0,0.7-0.1,1-0.3c0.3-0.2,0.5-0.5,0.5-0.9h1c0,0.4-0.2,0.7-0.4,1c-0.2,0.3-0.6,0.6-0.9,0.8
	c-0.4,0.2-0.8,0.3-1.2,0.3c-0.8,0-1.5-0.3-2.1-0.9c-0.5-0.7-0.8-1.5-0.8-2.4v-0.2c0-0.6,0.1-1.1,0.3-1.6c0.2-0.5,0.6-0.8,1-1.1
	c0.5-0.3,1-0.4,1.5-0.4c0.6,0,1.3,0.2,1.8,0.7c0.5,0.4,0.8,1,0.8,1.7h-1c0-0.8-0.7-1.4-1.5-1.4c-0.5,0-1,0.2-1.3,0.6
	c-0.3,0.5-0.5,1.1-0.5,1.7v0.2c0,0.6,0.1,1.2,0.5,1.7C328.9,537.8,329.4,538.1,329.9,538.1z M334.4,533.3c0.5-0.6,1.1-0.9,1.9-0.9
	c1.3,0,2,0.8,2,2.3v4.2h-1.1v-4.2c0-0.4-0.1-0.7-0.3-1c-0.3-0.2-0.6-0.4-1-0.3c-0.3,0-0.7,0.1-0.9,0.3c-0.3,0.2-0.5,0.4-0.6,0.7v4.5
	h-1.1v-9h1.1L334.4,533.3z M340.5,538.8v-8.5h2.4c0.7,0,1.4,0.2,2,0.5c0.6,0.3,1,0.8,1.3,1.4c0.3,0.6,0.5,1.4,0.5,2.1v0.5
	c0,0.7-0.1,1.5-0.5,2.1c-0.3,0.6-0.8,1.1-1.3,1.4c-0.6,0.3-1.3,0.5-2,0.5L340.5,538.8z M341.6,531.2v6.7h1.2c0.8,0,1.5-0.3,2-0.8
	c0.5-0.6,0.8-1.5,0.7-2.3v-0.5c0.1-0.8-0.2-1.6-0.7-2.2c-0.5-0.6-1.2-0.9-1.9-0.8H341.6z M348.5,538.8v-8.5h2.8
	c0.7-0.1,1.5,0.1,2.1,0.6c0.5,0.4,0.8,1,0.7,1.7c0,0.4-0.1,0.8-0.3,1.1c-0.2,0.3-0.6,0.6-0.9,0.7c0.4,0.1,0.8,0.4,1.1,0.7
	c0.3,0.4,0.4,0.8,0.4,1.3c0,0.7-0.2,1.4-0.8,1.8c-0.6,0.5-1.3,0.7-2.1,0.7H348.5z M349.6,534.8v3.1h1.9c0.5,0,0.9-0.1,1.2-0.4
	c0.3-0.3,0.5-0.7,0.5-1.1c0-1-0.6-1.5-1.7-1.5H349.6z M349.6,533.9h1.7c0.4,0,0.8-0.1,1.2-0.4c0.3-0.2,0.5-0.6,0.5-1
	c0-0.4-0.1-0.8-0.4-1c-0.4-0.2-0.8-0.4-1.2-0.3h-1.7V533.9z M358.3,535.4c0-0.9,0.1-1.7,0.3-2.5c0.2-0.8,0.6-1.5,1.1-2.2
	c0.4-0.6,0.9-1.1,1.5-1.4l0.2,0.7c-0.6,0.5-1.1,1.2-1.4,2c-0.4,1-0.6,2-0.6,3v0.5c0,1.4,0.3,2.7,0.8,3.9c0.3,0.6,0.7,1.1,1.2,1.6
	l-0.2,0.7c-0.6-0.4-1.1-0.9-1.5-1.5C358.7,538.7,358.2,537.1,358.3,535.4L358.3,535.4z M365.8,538.8h-1.1v-7.2l-2.2,0.8v-1l3.1-1.2
	h0.2V538.8z M373.5,530.3v0.9h-0.2c-0.7,0-1.5,0.3-2,0.8c-0.5,0.5-0.8,1.2-0.9,2c0.5-0.5,1.1-0.8,1.8-0.8c0.7,0,1.3,0.3,1.8,0.8
	c0.5,0.6,0.7,1.3,0.7,2c0,0.8-0.2,1.5-0.7,2.1c-1,1.1-2.7,1.1-3.8,0.1c-0.1-0.1-0.1-0.1-0.2-0.2c-0.5-0.7-0.8-1.6-0.8-2.4v-0.4
	c-0.1-1.3,0.3-2.6,1-3.6c0.7-0.9,1.9-1.3,3-1.3L373.5,530.3z M372,534.1c-0.4,0-0.7,0.1-1,0.3c-0.3,0.2-0.5,0.5-0.7,0.8v0.4
	c0,0.6,0.1,1.2,0.5,1.7c0.3,0.4,0.7,0.6,1.2,0.6c0.4,0,0.9-0.2,1.1-0.5c0.3-0.4,0.4-0.9,0.4-1.4c0-0.5-0.1-1-0.4-1.4
	C372.9,534.3,372.5,534.1,372,534.1L372,534.1z M377.3,532.5v0.7c0.5-0.5,1.2-0.9,1.9-0.8c0.8-0.1,1.5,0.3,1.8,1
	c0.2-0.3,0.5-0.6,0.8-0.7c0.4-0.2,0.8-0.3,1.2-0.3c1.4,0,2.1,0.7,2.1,2.2v4.2h-1.1v-4.2c0-0.4-0.1-0.7-0.3-1c-0.3-0.2-0.6-0.4-1-0.3
	c-0.4,0-0.7,0.1-1,0.4c-0.3,0.3-0.4,0.6-0.5,1v4.2h-1.1v-4.2c0.1-0.7-0.3-1.3-1-1.4c-0.1,0-0.2,0-0.4,0c-0.6,0-1.2,0.3-1.5,0.9v4.6
	h-1.1v-6.3L377.3,532.5z M391,537.2c0-0.3-0.1-0.5-0.4-0.7c-0.3-0.2-0.7-0.4-1.1-0.4c-0.5-0.1-0.9-0.2-1.3-0.4
	c-0.3-0.1-0.5-0.3-0.7-0.6c-0.2-0.2-0.2-0.5-0.2-0.8c0-0.5,0.2-1,0.7-1.3c1-0.7,2.4-0.7,3.4,0c0.4,0.3,0.7,0.9,0.7,1.4h-1
	c0-0.3-0.1-0.6-0.4-0.8c-0.3-0.2-0.6-0.3-0.9-0.3c-0.3,0-0.7,0.1-0.9,0.3c-0.2,0.2-0.3,0.4-0.3,0.7c0,0.2,0.1,0.5,0.3,0.6
	c0.4,0.2,0.7,0.3,1.1,0.4c0.5,0.1,0.9,0.2,1.3,0.4c0.3,0.1,0.5,0.3,0.7,0.6c0.2,0.3,0.3,0.6,0.2,0.9c0,0.5-0.2,1.1-0.7,1.4
	c-0.5,0.4-1.1,0.5-1.8,0.5c-0.5,0-0.9-0.1-1.4-0.3c-0.4-0.2-0.7-0.4-0.9-0.8c-0.2-0.3-0.3-0.6-0.3-1h1.1c0,0.3,0.2,0.7,0.4,0.9
	c0.6,0.4,1.4,0.4,2.1,0.1C390.9,537.7,391,537.4,391,537.2z M397.5,538.8h-1.1v-9h1.1V538.8z M403.2,538.8c-0.1-0.2-0.1-0.4-0.1-0.7
	c-0.5,0.5-1.1,0.8-1.8,0.8c-0.6,0-1.1-0.2-1.5-0.5c-0.4-0.3-0.6-0.8-0.6-1.4c0-0.6,0.3-1.2,0.8-1.5c0.6-0.4,1.4-0.6,2.1-0.5h1v-0.5
	c0-0.3-0.1-0.7-0.3-0.9c-0.3-0.2-0.6-0.4-1-0.3c-0.4,0-0.7,0.1-1,0.3c-0.2,0.2-0.4,0.4-0.4,0.7h-1.1c0-0.3,0.1-0.7,0.3-0.9
	c0.2-0.3,0.6-0.5,0.9-0.7c0.4-0.2,0.8-0.3,1.3-0.3c0.6,0,1.2,0.2,1.7,0.5c0.4,0.4,0.7,0.9,0.7,1.5v2.9c0,0.5,0.1,0.9,0.2,1.4v0.1
	L403.2,538.8z M401.4,538c0.4,0,0.7-0.1,1-0.3c0.3-0.2,0.5-0.4,0.6-0.7v-1.3h-0.8c-1.3,0-2,0.4-2,1.2c0,0.3,0.1,0.6,0.3,0.8
	C400.8,537.9,401.1,538,401.4,538L401.4,538z M407.8,531v1.5h1.2v0.8h-1.2v3.9c0,0.2,0,0.4,0.1,0.6c0.1,0.1,0.3,0.2,0.5,0.2
	c0.2,0,0.3,0,0.5-0.1v0.9c-0.3,0.1-0.5,0.1-0.8,0.1c-0.4,0-0.8-0.1-1.1-0.4c-0.3-0.4-0.4-0.8-0.4-1.3v-3.9h-1.1v-0.8h1.1V531
	L407.8,531z M412.9,539c-0.8,0-1.6-0.3-2.1-0.8c-0.5-0.6-0.8-1.4-0.8-2.3v-0.2c0-0.6,0.1-1.2,0.4-1.7c0.2-0.5,0.6-0.9,1-1.2
	c0.4-0.3,0.9-0.4,1.4-0.4c0.7,0,1.4,0.3,1.9,0.8c0.5,0.7,0.7,1.5,0.7,2.3v0.4h-4.3c0,0.6,0.2,1.1,0.5,1.5c0.3,0.4,0.8,0.6,1.4,0.6
	c0.3,0,0.7-0.1,1-0.2c0.3-0.2,0.5-0.4,0.7-0.6l0.6,0.5C414.9,538.6,414,539,412.9,539L412.9,539z M412.8,533.3
	c-0.4,0-0.8,0.2-1.1,0.5c-0.3,0.4-0.5,0.8-0.5,1.3h3.2V535c0-0.5-0.2-0.9-0.5-1.3C413.6,533.4,413.2,533.3,412.8,533.3L412.8,533.3z
	 M417.3,532.5v0.8c0.5-0.6,1.2-0.9,1.9-0.9c1.3,0,2,0.8,2,2.3v4.2h-1.1v-4.2c0-0.4-0.1-0.7-0.3-1c-0.3-0.2-0.6-0.4-1-0.3
	c-0.3,0-0.7,0.1-0.9,0.3c-0.3,0.2-0.5,0.4-0.6,0.7v4.5h-1.1v-6.3L417.3,532.5z M425.8,538.1c0.4,0,0.7-0.1,1-0.3
	c0.3-0.2,0.5-0.5,0.5-0.9h1c0,0.4-0.2,0.7-0.4,1c-0.2,0.3-0.6,0.6-0.9,0.8c-0.4,0.2-0.8,0.3-1.2,0.3c-0.8,0-1.5-0.3-2.1-0.9
	c-0.5-0.7-0.8-1.5-0.8-2.4v-0.2c0-0.6,0.1-1.1,0.3-1.6c0.2-0.5,0.6-0.8,1-1.1c0.5-0.3,1-0.4,1.5-0.4c0.6,0,1.3,0.2,1.8,0.7
	c0.5,0.4,0.8,1,0.8,1.7h-1c0-0.8-0.7-1.4-1.5-1.4c-0.5,0-1,0.2-1.3,0.6c-0.3,0.5-0.5,1.1-0.5,1.7v0.2c0,0.6,0.1,1.2,0.5,1.7
	C424.9,537.9,425.4,538.1,425.8,538.1L425.8,538.1z M431.4,537.3l1.5-4.8h1.1l-2.5,7.3c-0.4,1-1,1.6-1.9,1.6h-0.2l-0.4-0.1v-0.9h0.3
	c0.3,0,0.6-0.1,0.9-0.2c0.2-0.2,0.4-0.5,0.5-0.8l0.2-0.7l-2.3-6.3h1.2L431.4,537.3z M437.8,535.5c0,0.9-0.1,1.7-0.4,2.5
	c-0.2,0.8-0.6,1.5-1.1,2.2c-0.4,0.6-0.9,1.1-1.5,1.4l-0.2-0.7c0.7-0.6,1.2-1.3,1.5-2.1c0.4-1,0.6-2.1,0.6-3.2v-0.2
	c0-0.8-0.1-1.5-0.3-2.3c-0.2-0.7-0.4-1.3-0.7-1.9c-0.2-0.5-0.6-0.9-1-1.3l0.2-0.7c0.6,0.4,1.1,0.8,1.5,1.4c0.5,0.7,0.8,1.4,1,2.2
	C437.7,533.7,437.8,534.6,437.8,535.5L437.8,535.5z"/>
<path d="M211.2,115.5h-1.1V107h1.1V115.5z M213.8,109.2v0.8c0.5-0.6,1.2-0.9,1.9-0.9c1.3,0,2,0.8,2,2.3v4.2h-1.1v-4.2
	c0-0.4-0.1-0.7-0.3-1c-0.3-0.2-0.6-0.4-1-0.3c-0.3,0-0.7,0.1-0.9,0.3c-0.3,0.2-0.5,0.4-0.6,0.7v4.5h-1.1v-6.3H213.8z M223.5,113.9
	c0-0.3-0.1-0.5-0.4-0.7c-0.3-0.2-0.7-0.4-1.1-0.4c-0.5-0.1-0.9-0.2-1.3-0.4c-0.3-0.1-0.5-0.3-0.7-0.6c-0.2-0.2-0.2-0.5-0.2-0.8
	c0-0.5,0.2-1,0.7-1.3c1-0.7,2.4-0.7,3.4,0c0.4,0.3,0.7,0.9,0.7,1.4h-1.1c0-0.3-0.1-0.6-0.4-0.8c-0.3-0.2-0.6-0.3-0.9-0.3
	c-0.3,0-0.7,0.1-0.9,0.3c-0.2,0.2-0.3,0.4-0.3,0.7c0,0.2,0.1,0.5,0.3,0.6c0.4,0.2,0.7,0.3,1.1,0.4c0.5,0.1,0.9,0.2,1.3,0.4
	c0.3,0.1,0.5,0.3,0.7,0.6c0.2,0.3,0.3,0.6,0.2,0.9c0,0.5-0.2,1.1-0.7,1.4c-0.5,0.4-1.1,0.5-1.8,0.5c-0.5,0-0.9-0.1-1.4-0.3
	c-0.4-0.2-0.7-0.4-0.9-0.8c-0.2-0.3-0.3-0.6-0.3-1h1.1c0,0.3,0.2,0.7,0.4,0.9c0.6,0.4,1.4,0.4,2.1,0.1
	C223.4,114.4,223.5,114.1,223.5,113.9L223.5,113.9z M228.4,115.7c-0.8,0-1.6-0.3-2.1-0.8c-0.5-0.6-0.8-1.4-0.8-2.3v-0.2
	c0-0.6,0.1-1.2,0.4-1.7c0.2-0.5,0.6-0.9,1-1.2c0.4-0.3,0.9-0.4,1.4-0.4c0.7,0,1.4,0.3,1.9,0.8c0.5,0.7,0.7,1.5,0.7,2.3v0.4h-4.3
	c0,0.6,0.2,1.1,0.6,1.5c0.3,0.4,0.8,0.6,1.4,0.6c0.3,0,0.7-0.1,0.9-0.2c0.3-0.2,0.5-0.4,0.7-0.6l0.6,0.5
	C230.3,115.2,229.4,115.7,228.4,115.7L228.4,115.7z M228.3,110c-0.4,0-0.8,0.2-1.1,0.5c-0.3,0.4-0.5,0.8-0.5,1.3h3.2v-0.1
	c0-0.5-0.2-0.9-0.4-1.3C229.1,110.1,228.7,110,228.3,110L228.3,110z M234.9,110.2c-0.2,0-0.4,0-0.5,0c-0.6-0.1-1.2,0.3-1.4,0.9v4.5
	h-1.1v-6.3h1v0.7c0.3-0.5,0.9-0.9,1.5-0.8c0.2,0,0.3,0,0.5,0.1L234.9,110.2z M237.3,107.7v1.5h1.2v0.8h-1.2v4c0,0.2,0,0.4,0.1,0.6
	c0.1,0.1,0.3,0.2,0.5,0.2c0.2,0,0.3,0,0.5-0.1v0.9c-0.3,0.1-0.5,0.1-0.8,0.1c-0.4,0-0.8-0.1-1.1-0.4c-0.3-0.4-0.4-0.8-0.4-1.3v-4
	h-1.1v-0.8h1.1v-1.5L237.3,107.7z M243.5,113.9c0-0.3-0.1-0.5-0.4-0.7c-0.3-0.2-0.7-0.4-1.1-0.4c-0.5-0.1-0.9-0.2-1.3-0.4
	c-0.3-0.1-0.5-0.3-0.7-0.6c-0.2-0.2-0.2-0.5-0.2-0.8c0-0.5,0.2-1,0.7-1.3c1-0.7,2.4-0.7,3.4,0c0.4,0.3,0.7,0.9,0.7,1.4h-1.1
	c0-0.3-0.1-0.6-0.4-0.8c-0.3-0.2-0.6-0.3-0.9-0.3c-0.3,0-0.7,0.1-0.9,0.3c-0.2,0.2-0.3,0.4-0.3,0.7c0,0.2,0.1,0.5,0.3,0.6
	c0.4,0.2,0.7,0.3,1.1,0.4c0.5,0.1,0.9,0.2,1.3,0.4c0.3,0.1,0.5,0.3,0.7,0.6c0.2,0.3,0.3,0.6,0.2,0.9c0,0.5-0.2,1.1-0.7,1.4
	c-0.5,0.4-1.1,0.5-1.8,0.5c-0.5,0-0.9-0.1-1.4-0.3c-0.4-0.2-0.7-0.4-0.9-0.8c-0.2-0.3-0.3-0.6-0.3-1h1.1c0,0.3,0.2,0.7,0.4,0.9
	c0.6,0.4,1.4,0.4,2.1,0.1C243.4,114.4,243.5,114.1,243.5,113.9L243.5,113.9z M250.1,112.2v3.3H249V107h3.2c0.8,0,1.6,0.2,2.2,0.7
	c1,1,1,2.7,0,3.8c-0.6,0.5-1.4,0.7-2.2,0.7L250.1,112.2z M250.1,111.3h2c0.5,0,1-0.1,1.4-0.4c0.3-0.3,0.5-0.8,0.5-1.2
	c0-0.5-0.2-0.9-0.5-1.2c-0.4-0.3-0.8-0.5-1.3-0.5h-2.1L250.1,111.3z M259.4,115.7c-0.8,0-1.6-0.3-2.1-0.8c-0.5-0.6-0.8-1.4-0.8-2.3
	v-0.2c0-0.6,0.1-1.2,0.4-1.7c0.2-0.5,0.6-0.9,1-1.2c0.4-0.3,0.9-0.4,1.4-0.4c0.7,0,1.4,0.3,1.9,0.8c0.5,0.7,0.7,1.5,0.7,2.3v0.4
	h-4.3c0,0.6,0.2,1.1,0.5,1.5c0.3,0.4,0.8,0.6,1.4,0.6c0.3,0,0.7-0.1,1-0.2c0.3-0.2,0.5-0.4,0.7-0.6l0.6,0.5
	C261.4,115.3,260.4,115.7,259.4,115.7L259.4,115.7z M259.3,110c-0.4,0-0.8,0.2-1.1,0.5c-0.3,0.4-0.5,0.8-0.5,1.3h3.2v-0.1
	c0-0.5-0.2-0.9-0.5-1.3C260.1,110.1,259.7,110,259.3,110L259.3,110z M265.9,110.2c-0.2,0-0.4,0-0.5,0c-0.6-0.1-1.2,0.3-1.5,0.9v4.5
	h-1.1v-6.3h1v0.7c0.3-0.5,0.9-0.9,1.5-0.8c0.2,0,0.3,0,0.5,0.1L265.9,110.2z M272.5,111.7c-0.8-0.2-1.5-0.5-2.1-1
	c-0.4-0.4-0.7-0.9-0.7-1.5c0-0.6,0.3-1.3,0.8-1.7c0.6-0.5,1.3-0.7,2.1-0.7c0.5,0,1.1,0.1,1.6,0.3c0.4,0.2,0.8,0.5,1.1,0.9
	c0.3,0.4,0.4,0.9,0.4,1.3h-1.1c0-0.5-0.2-0.9-0.5-1.2c-0.4-0.3-0.9-0.5-1.4-0.4c-0.5,0-0.9,0.1-1.3,0.4c-0.3,0.2-0.5,0.6-0.5,1
	c0,0.3,0.2,0.7,0.4,0.9c0.5,0.3,1,0.5,1.5,0.7c0.6,0.1,1.1,0.4,1.6,0.7c0.4,0.2,0.7,0.5,0.9,0.8c0.2,0.3,0.3,0.7,0.3,1.1
	c0,0.7-0.3,1.3-0.8,1.7c-0.6,0.4-1.4,0.7-2.2,0.6c-0.6,0-1.1-0.1-1.6-0.3c-0.5-0.2-0.9-0.5-1.2-0.9c-0.3-0.4-0.4-0.9-0.4-1.3h1.1
	c0,0.5,0.2,0.9,0.6,1.2c0.4,0.3,1,0.5,1.5,0.4c0.5,0,1-0.1,1.4-0.4c0.3-0.2,0.5-0.6,0.5-1c0-0.4-0.1-0.8-0.4-1
	C273.6,112.1,273.1,111.9,272.5,111.7L272.5,111.7z M279.4,115.7c-0.8,0-1.6-0.3-2.1-0.8c-0.5-0.6-0.8-1.4-0.8-2.3v-0.2
	c0-0.6,0.1-1.2,0.4-1.7c0.2-0.5,0.6-0.9,1-1.2c0.4-0.3,0.9-0.4,1.4-0.4c0.7,0,1.4,0.3,1.9,0.8c0.5,0.7,0.7,1.5,0.7,2.3v0.4h-4.3
	c0,0.6,0.2,1.1,0.5,1.5c0.3,0.4,0.8,0.6,1.4,0.6c0.3,0,0.7-0.1,1-0.2c0.3-0.2,0.5-0.4,0.7-0.6l0.6,0.5
	C281.4,115.3,280.4,115.7,279.4,115.7L279.4,115.7z M279.3,110c-0.4,0-0.8,0.2-1.1,0.5c-0.3,0.4-0.5,0.8-0.5,1.3h3.2v-0.1
	c0-0.5-0.2-0.9-0.5-1.3C280.1,110.1,279.7,110,279.3,110L279.3,110z M285.4,114.8c0.4,0,0.7-0.1,1-0.3c0.3-0.2,0.5-0.5,0.5-0.9h1
	c0,0.4-0.2,0.7-0.4,1c-0.2,0.3-0.6,0.6-0.9,0.8c-0.4,0.2-0.8,0.3-1.2,0.3c-0.8,0-1.5-0.3-2.1-0.9c-0.5-0.7-0.8-1.5-0.8-2.4v-0.2
	c0-0.6,0.1-1.1,0.3-1.6c0.2-0.5,0.6-0.8,1-1.1c0.5-0.3,1-0.4,1.5-0.4c0.6,0,1.3,0.2,1.8,0.7c0.5,0.4,0.8,1,0.8,1.7h-1
	c0-0.8-0.7-1.4-1.5-1.4c-0.5,0-1,0.2-1.3,0.6c-0.3,0.5-0.5,1.1-0.5,1.7v0.2c0,0.6,0.1,1.2,0.5,1.7
	C284.4,114.5,284.9,114.8,285.4,114.8L285.4,114.8z M288.5,112.3c0-0.6,0.1-1.1,0.4-1.7c0.2-0.5,0.6-0.9,1-1.1
	c0.4-0.3,1-0.4,1.5-0.4c0.8,0,1.6,0.3,2.1,0.9c0.6,0.7,0.9,1.5,0.8,2.4v0.1c0,0.6-0.1,1.1-0.4,1.7c-0.2,0.5-0.6,0.9-1,1.2
	c-0.5,0.3-1,0.4-1.5,0.4c-0.8,0-1.6-0.3-2.1-0.9C288.8,114.1,288.5,113.2,288.5,112.3L288.5,112.3z M289.6,112.4
	c0,0.6,0.1,1.2,0.5,1.7c0.3,0.4,0.8,0.7,1.3,0.6c0.5,0,1-0.2,1.3-0.6c0.4-0.5,0.5-1.2,0.5-1.8c0-0.6-0.2-1.2-0.5-1.7
	c-0.3-0.4-0.8-0.7-1.3-0.7c-0.5,0-1,0.2-1.3,0.6C289.8,111.2,289.6,111.8,289.6,112.4L289.6,112.4z M296.8,109.2v0.8
	c0.5-0.6,1.2-0.9,1.9-0.9c1.3,0,2,0.8,2,2.3v4.2h-1.1v-4.2c0-0.4-0.1-0.7-0.3-1c-0.3-0.2-0.6-0.4-1-0.3c-0.3,0-0.7,0.1-0.9,0.3
	c-0.3,0.2-0.5,0.4-0.6,0.7v4.5h-1.1v-6.3H296.8z M302.6,112.3c0-0.8,0.2-1.7,0.7-2.3c0.4-0.6,1.1-0.9,1.8-0.9c0.7,0,1.3,0.2,1.8,0.8
	v-3.3h1.1v9h-1l0-0.7c-0.8,1-2.3,1.1-3.3,0.3c-0.1-0.1-0.2-0.2-0.3-0.3C302.8,114.1,302.5,113.2,302.6,112.3L302.6,112.3z
	 M303.6,112.4c0,0.6,0.1,1.2,0.4,1.7c0.3,0.4,0.7,0.6,1.2,0.6c0.7,0,1.3-0.3,1.5-0.9v-2.9c-0.3-0.6-0.9-0.9-1.5-0.9
	c-0.5,0-1,0.2-1.2,0.6C303.7,111.2,303.6,111.8,303.6,112.4L303.6,112.4z"/>
</svg>
