<?xml version="1.0" encoding="UTF-8"?>
<svg width="19px" height="19px" viewBox="0 0 19 19" version="1.1" xmlns="http://www.w3.org/2000/svg" xmlns:xlink="http://www.w3.org/1999/xlink">
    <!-- Generator: Sketch 52.6 (67491) - http://www.bohemiancoding.com/sketch -->
    <title>no</title>
    <desc>Created with Sketch.</desc>
    <g id="YugaWeb-v2" stroke="none" stroke-width="1" fill="none" fill-rule="evenodd">
        <g id="06-usecasestmplt-desktop" transform="translate(-711.000000, -4487.000000)" fill="#F42D2D">
            <g id="S8" transform="translate(-30.000000, 4162.000000)">
                <g id="TABLE" transform="translate(150.000000, 189.000000)">
                    <path d="M608.756971,139.781768 L606.218175,137.243007 C605.827658,136.85249 605.194506,136.852482 604.803979,137.242989 L600.499875,141.546844 L596.196021,137.242989 C595.805497,136.852465 595.172332,136.852465 594.781807,137.242989 L592.242994,139.781733 C591.852469,140.172257 591.852469,140.805422 592.242994,141.195946 C592.243005,141.195958 592.243017,141.19597 592.243029,141.195981 L596.547133,145.499587 L592.243278,149.803441 C591.852754,150.193966 591.852754,150.827131 592.243278,151.217655 L594.782056,153.756433 C595.172581,154.146958 595.805746,154.146958 596.19627,153.756433 L600.499875,149.452828 L604.80373,153.756433 C605.194257,154.146941 605.827409,154.146933 606.217926,153.756416 L608.756722,151.217655 C609.147246,150.827131 609.147246,150.193966 608.756722,149.803441 L604.452867,145.499587 L608.756971,141.195981 C609.147515,140.805477 609.147546,140.172312 608.757042,139.781768 C608.75703,139.781756 608.757018,139.781744 608.757006,139.781733 Z" id="no"></path>
                </g>
            </g>
        </g>
    </g>
</svg>