<?xml version="1.0" encoding="UTF-8"?>
<svg width="21px" height="15px" viewBox="0 0 21 15" version="1.1" xmlns="http://www.w3.org/2000/svg" xmlns:xlink="http://www.w3.org/1999/xlink">
    <!-- Generator: Sketch 52.6 (67491) - http://www.bohemiancoding.com/sketch -->
    <title>yes</title>
    <desc>Created with Sketch.</desc>
    <g id="YugaWeb-v2" stroke="none" stroke-width="1" fill="none" fill-rule="evenodd">
        <g id="06-usecasestmplt-desktop" transform="translate(-710.000000, -4431.000000)" fill="#A6DD72">
            <g id="S8" transform="translate(-30.000000, 4162.000000)">
                <g id="TABLE" transform="translate(150.000000, 189.000000)">
                    <path d="M590.23684,89.219617 C589.920394,88.9023215 589.921243,88.3826474 590.238255,88.065918 L592.275627,86.0282636 C592.592639,85.7109681 593.111747,85.7109681 593.429043,86.0276975 L596.737861,89.3291561 C597.055156,89.6458856 597.573698,89.6453195 597.890427,89.3280239 L606.958117,80.2388231 C607.274846,79.9215276 607.793954,79.9201123 608.112099,80.2362757 L610.13928,82.2490219 C610.457708,82.5651853 610.45884,83.083161 610.142111,83.4004566 L599.146023,94.4228674 C598.829294,94.740163 598.20376,95 597.755131,95 L596.805509,95 C596.357163,95 595.731629,94.7395969 595.415183,94.4223014 L590.23684,89.219617 Z" id="yes"></path>
                </g>
            </g>
        </g>
    </g>
</svg>