<?xml version="1.0" encoding="utf-8"?>
<!-- Generator: Adobe Illustrator 23.0.1, SVG Export Plug-In . SVG Version: 6.00 Build 0)  -->
<svg version="1.1" id="Layer_1" xmlns="http://www.w3.org/2000/svg" xmlns:xlink="http://www.w3.org/1999/xlink" x="0px" y="0px"
	 viewBox="0 0 540 720" style="enable-background:new 0 0 540 720;" xml:space="preserve">
<style type="text/css">
	.st0{clip-path:url(#SVGID_2_);}
	.st1{fill:#FFFFFF;}
	.st2{font-family:'Montserrat-Bold';}
	.st3{font-size:28px;}
	.st4{font-family:'OpenSans-Light';}
	.st5{font-size:14px;}
	.st6{fill:#F75821;}
	.st7{font-size:12px;}
</style>
<g>
	<defs>
		<rect id="SVGID_1_" width="540" height="720"/>
	</defs>
	<clipPath id="SVGID_2_">
		<use xlink:href="#SVGID_1_"  style="overflow:visible;"/>
	</clipPath>
	<g class="st0">
		<defs>
			<rect id="SVGID_3_" x="-1.4" y="-1.3" width="542.8" height="722.5"/>
		</defs>
		<clipPath id="SVGID_4_">
			<use xlink:href="#SVGID_3_"  style="overflow:visible;"/>
		</clipPath>
		<g style="clip-path:url(#SVGID_4_);">
			
				<image style="overflow:visible;" width="1214" height="1616" xlink:href="3345A8D6A877872.jpg"  transform="matrix(0.4471 0 0 0.4471 -1.3852 -1.2508)">
			</image>
		</g>
	</g>
</g>
<text transform="matrix(1 0 0 1 32.3999 588.7031)"><tspan x="0" y="0" class="st1 st2 st3">Y</tspan><tspan x="17.9" y="0" class="st1 st2 st3">ugaB</tspan><tspan x="95.5" y="0" class="st1 st2 st3">y</tspan><tspan x="112.6" y="0" class="st1 st2 st3">t</tspan><tspan x="124.4" y="0" class="st1 st2 st3">e DB </tspan><tspan x="202.4" y="0" class="st1 st2 st3">v</tspan><tspan x="219" y="0" class="st1 st2 st3">s </tspan><tspan x="241.7" y="0" class="st1 st2 st3">C</tspan><tspan x="261.8" y="0" class="st1 st2 st3">o</tspan><tspan x="280.1" y="0" class="st1 st2 st3">ck</tspan><tspan x="315" y="0" class="st1 st2 st3">ro</tspan><tspan x="344.9" y="0" class="st1 st2 st3">a</tspan><tspan x="362.4" y="0" class="st1 st2 st3">c</tspan><tspan x="378.8" y="0" class="st1 st2 st3">hDB</tspan></text>
<text transform="matrix(1 0 0 1 32.3999 622.3037)"><tspan x="0" y="0" class="st1 st2 st3">Be</tspan><tspan x="39.1" y="0" class="st1 st2 st3">n</tspan><tspan x="58.6" y="0" class="st1 st2 st3">c</tspan><tspan x="75" y="0" class="st1 st2 st3">hma</tspan><tspan x="141" y="0" class="st1 st2 st3">r</tspan><tspan x="153" y="0" class="st1 st2 st3">k</tspan><tspan x="171" y="0" class="st1 st2 st3">s</tspan></text>
<text transform="matrix(1 0 0 1 32.3999 685.4316)" class="st1 st4 st5">January 2019</text>
<rect x="32.4" y="649.4" class="st6" width="475.2" height="4.3"/>
<rect x="30" y="30" class="st6" width="199.7" height="27.3"/>
<text transform="matrix(1 0 0 1 50.771 47.6206)"><tspan x="0" y="0" class="st1 st2 st7">T</tspan><tspan x="7.4" y="0" class="st1 st2 st7">E</tspan><tspan x="15.5" y="0" class="st1 st2 st7">CHNI</tspan><tspan x="47.6" y="0" class="st1 st2 st7">C</tspan><tspan x="56.2" y="0" class="st1 st2 st7">AL </tspan><tspan x="76" y="0" class="st1 st2 st7">W</tspan><tspan x="89.8" y="0" class="st1 st2 st7">HITE</tspan><tspan x="118.9" y="0" class="st1 st2 st7">P</tspan><tspan x="127.2" y="0" class="st1 st2 st7">A</tspan><tspan x="136.4" y="0" class="st1 st2 st7">P</tspan><tspan x="145" y="0" class="st1 st2 st7">ER</tspan></text>
</svg>
