<?xml version="1.0" encoding="utf-8"?>
<!-- Generator: Adobe Illustrator 23.0.1, SVG Export Plug-In . SVG Version: 6.00 Build 0)  -->
<svg version="1.1" id="Layer_1" xmlns="http://www.w3.org/2000/svg" xmlns:xlink="http://www.w3.org/1999/xlink" x="0px" y="0px"
	 viewBox="0 0 725 929" style="enable-background:new 0 0 725 929;" xml:space="preserve">
<style type="text/css">
	.st0{clip-path:url(#SVGID_2_);}
	.st1{fill-rule:evenodd;clip-rule:evenodd;fill-opacity:0;}
	.st2{fill-rule:evenodd;clip-rule:evenodd;fill:#202951;}
	.st3{fill:#FFFFFF;}
</style>
<g>
	<defs>
		<rect id="SVGID_1_" x="-291" y="-26" width="1280" height="960"/>
	</defs>
	<clipPath id="SVGID_2_">
		<use xlink:href="#SVGID_1_"  style="overflow:visible;"/>
	</clipPath>
	<g class="st0">
		<path class="st1" d="M-291-26H989v960H-291V-26z"/>
		<path class="st2" d="M-5-4h735v960H-5V-4z"/>
		<path class="st1" d="M36,803h343v107H36V803z"/>
		<path class="st3" d="M54.9,826.5l-4.3-5.7l-1.1,1.3v4.4h-3v-14.2h3v6.3l5-6.3h3.7l-5.7,6.7l6,7.5H54.9z M66.1,826.5v-1.1
			c-0.7,0.9-1.8,1.3-3.3,1.3c-1,0-1.8-0.3-2.5-0.9c-0.7-0.6-1-1.5-1-2.5c0-1,0.3-1.8,1-2.4c0.7-0.6,1.5-0.9,2.6-0.9
			c1.5,0,2.6,0.4,3.3,1.3v-1.4c0-0.5-0.2-1-0.6-1.3c-0.4-0.3-1-0.5-1.6-0.5c-1.1,0-2.1,0.4-3,1.2l-1-1.8c1.3-1.1,2.8-1.6,4.5-1.6
			c1.4,0,2.6,0.3,3.3,1c0.8,0.7,1.2,1.6,1.2,2.9v6.7H66.1z M63.9,824.9c1,0,1.7-0.3,2.2-0.9v-1.3c-0.5-0.6-1.2-0.9-2.2-0.9
			c-0.5,0-1,0.1-1.4,0.4c-0.4,0.3-0.6,0.7-0.6,1.2c0,0.5,0.2,0.9,0.6,1.1C62.9,824.8,63.4,824.9,63.9,824.9z M71.5,826.5v-10.3h2.7
			v1.4c0.4-0.5,0.9-0.8,1.4-1.2c0.6-0.3,1.2-0.5,1.9-0.5v2.7l-0.8-0.1c-0.5,0-1,0.1-1.5,0.3c-0.5,0.2-0.8,0.5-1.1,0.8v6.8H71.5z
			 M82.6,826.8c-1.9,0-2.9-0.9-2.9-2.8v-5.4H78v-2.4h1.7v-2.8h2.7v2.8h2.1v2.4h-2.1v4.7c0,0.3,0.1,0.6,0.2,0.8
			c0.2,0.2,0.4,0.3,0.7,0.3c0.4,0,0.7-0.1,0.9-0.3l0.6,2C84.4,826.5,83.7,826.8,82.6,826.8z M93.3,826.5v-6.3c0-1.2-0.6-1.9-1.9-1.9
			c-0.9,0-1.7,0.4-2.4,1.2v6.9h-2.7v-14.2h2.7v5.3c0.3-0.4,0.8-0.8,1.4-1.1c0.6-0.3,1.4-0.5,2.2-0.5c1.1,0,2,0.3,2.5,0.9
			c0.6,0.6,0.8,1.4,0.8,2.4v7.3H93.3z M100.1,815.1c-0.4,0-0.8-0.2-1.1-0.5s-0.5-0.7-0.5-1.2c0-0.5,0.2-0.8,0.5-1.1
			c0.3-0.3,0.7-0.5,1.1-0.5c0.5,0,0.8,0.2,1.2,0.5c0.3,0.3,0.5,0.7,0.5,1.1c0,0.5-0.2,0.8-0.5,1.2S100.5,815.1,100.1,815.1z
			 M98.7,826.5v-10.3h2.7v10.3H98.7z M110.8,826.5l-2.7-4l-1.2,1.3v2.6h-2.7v-14.2h2.7v8.5l3.9-4.6h3.3l-4.1,4.7l4.2,5.6H110.8z
			 M129.1,826.5l-2.8-5.1h-2.2v5.1h-3v-14.2h6.7c1.4,0,2.6,0.4,3.5,1.3c0.9,0.9,1.3,1.9,1.3,3.3c0,1.1-0.3,2-0.9,2.8
			c-0.6,0.8-1.3,1.2-2.2,1.4l3.2,5.4H129.1z M127.3,818.8c0.6,0,1.1-0.2,1.5-0.5c0.4-0.3,0.6-0.8,0.6-1.4c0-0.6-0.2-1.1-0.6-1.4
			c-0.4-0.3-0.9-0.5-1.5-0.5h-3.2v3.8H127.3z M140.9,826.5v-1.1c-0.8,0.9-1.8,1.3-3.3,1.3c-1,0-1.8-0.3-2.5-0.9
			c-0.7-0.6-1-1.5-1-2.5c0-1,0.3-1.8,1-2.4c0.7-0.6,1.5-0.9,2.6-0.9c1.5,0,2.6,0.4,3.3,1.3v-1.4c0-0.5-0.2-1-0.6-1.3
			c-0.4-0.3-1-0.5-1.6-0.5c-1.1,0-2.1,0.4-3,1.2l-1-1.8c1.2-1.1,2.8-1.6,4.5-1.6c1.4,0,2.6,0.3,3.3,1c0.8,0.7,1.2,1.6,1.2,2.9v6.7
			H140.9z M138.7,824.9c1,0,1.7-0.3,2.2-0.9v-1.3c-0.5-0.6-1.2-0.9-2.2-0.9c-0.5,0-1,0.1-1.4,0.4c-0.4,0.3-0.6,0.7-0.6,1.2
			c0,0.5,0.2,0.9,0.6,1.1C137.7,824.8,138.2,824.9,138.7,824.9z M153.3,826.5v-6.2c0-1.3-0.6-1.9-1.9-1.9c-1,0-1.8,0.4-2.4,1.2v6.9
			h-2.7v-10.3h2.7v1.3c0.3-0.4,0.8-0.8,1.4-1.1c0.6-0.3,1.3-0.5,2.2-0.5c1.1,0,2,0.3,2.5,0.9c0.6,0.6,0.8,1.4,0.8,2.4v7.3H153.3z
			 M162.9,830.7c-0.9,0-1.7-0.1-2.4-0.3c-0.7-0.2-1.4-0.6-2-1.2l1.2-2c0.8,0.9,1.8,1.3,3.2,1.3c0.9,0,1.6-0.2,2.1-0.7
			c0.5-0.5,0.7-1.1,0.8-1.9v-1c-0.9,1.1-1.9,1.6-3.2,1.6c-1.4,0-2.5-0.5-3.3-1.4c-0.8-0.9-1.2-2.2-1.2-3.8c0-1.6,0.4-2.9,1.2-3.8
			c0.8-1,1.9-1.4,3.3-1.4c1.3,0,2.4,0.5,3.2,1.6v-1.3h2.7v9.6c0,1.6-0.5,2.8-1.5,3.6C166,830.3,164.7,830.7,162.9,830.7z M163.4,824
			c0.5,0,0.9-0.1,1.3-0.3c0.4-0.2,0.8-0.5,1-0.8v-3.3c-0.2-0.3-0.6-0.6-1-0.8c-0.4-0.2-0.9-0.3-1.3-0.3c-0.8,0-1.4,0.2-1.9,0.8
			c-0.5,0.5-0.7,1.2-0.7,2.1c0,0.9,0.2,1.6,0.7,2.1C162,823.8,162.6,824,163.4,824z M177.3,826.5v-1.1c-0.8,0.9-1.8,1.3-3.3,1.3
			c-1,0-1.8-0.3-2.5-0.9c-0.7-0.6-1-1.5-1-2.5c0-1,0.3-1.8,1-2.4c0.7-0.6,1.5-0.9,2.6-0.9c1.5,0,2.6,0.4,3.3,1.3v-1.4
			c0-0.5-0.2-1-0.6-1.3c-0.4-0.3-1-0.5-1.6-0.5c-1.1,0-2.1,0.4-3,1.2l-1-1.8c1.2-1.1,2.8-1.6,4.5-1.6c1.4,0,2.6,0.3,3.3,1
			c0.8,0.7,1.2,1.6,1.2,2.9v6.7H177.3z M175.2,824.9c1,0,1.7-0.3,2.2-0.9v-1.3c-0.5-0.6-1.2-0.9-2.2-0.9c-0.5,0-1,0.1-1.4,0.4
			c-0.4,0.3-0.6,0.7-0.6,1.2c0,0.5,0.2,0.9,0.6,1.1C174.1,824.8,174.6,824.9,175.2,824.9z M189.7,826.5v-6.2c0-1.3-0.6-1.9-1.9-1.9
			c-1,0-1.8,0.4-2.4,1.2v6.9h-2.7v-10.3h2.7v1.3c0.3-0.4,0.8-0.8,1.4-1.1c0.6-0.3,1.3-0.5,2.2-0.5c1.1,0,2,0.3,2.5,0.9
			c0.6,0.6,0.8,1.4,0.8,2.4v7.3H189.7z M201.3,826.5v-1.1c-0.8,0.9-1.8,1.3-3.3,1.3c-1,0-1.8-0.3-2.5-0.9c-0.7-0.6-1-1.5-1-2.5
			c0-1,0.3-1.8,1-2.4c0.7-0.6,1.5-0.9,2.6-0.9c1.5,0,2.6,0.4,3.3,1.3v-1.4c0-0.5-0.2-1-0.6-1.3c-0.4-0.3-1-0.5-1.6-0.5
			c-1.1,0-2.1,0.4-3,1.2l-1-1.8c1.2-1.1,2.7-1.6,4.5-1.6c1.4,0,2.6,0.3,3.3,1c0.8,0.7,1.2,1.6,1.2,2.9v6.7H201.3z M199.1,824.9
			c1,0,1.7-0.3,2.2-0.9v-1.3c-0.5-0.6-1.2-0.9-2.2-0.9c-0.5,0-1,0.1-1.4,0.4c-0.4,0.3-0.6,0.7-0.6,1.2c0,0.5,0.2,0.9,0.6,1.1
			C198.1,824.8,198.5,824.9,199.1,824.9z M210.1,826.8c-1.9,0-2.9-0.9-2.9-2.8v-5.4h-1.7v-2.4h1.7v-2.8h2.7v2.8h2.1v2.4h-2.1v4.7
			c0,0.3,0.1,0.6,0.2,0.8c0.2,0.2,0.4,0.3,0.7,0.3c0.4,0,0.7-0.1,0.9-0.3l0.6,2C211.9,826.5,211.1,826.8,210.1,826.8z M220.8,826.5
			v-6.3c0-1.2-0.6-1.9-1.9-1.9c-0.9,0-1.7,0.4-2.4,1.2v6.9h-2.7v-14.2h2.7v5.3c0.3-0.4,0.8-0.8,1.4-1.1c0.6-0.3,1.4-0.5,2.2-0.5
			c1.1,0,2,0.3,2.5,0.9c0.6,0.6,0.8,1.4,0.8,2.4v7.3H220.8z M232.4,826.5v-1.1c-0.8,0.9-1.8,1.3-3.3,1.3c-1,0-1.8-0.3-2.5-0.9
			c-0.7-0.6-1-1.5-1-2.5c0-1,0.3-1.8,1-2.4c0.7-0.6,1.5-0.9,2.6-0.9c1.5,0,2.6,0.4,3.3,1.3v-1.4c0-0.5-0.2-1-0.6-1.3
			c-0.4-0.3-1-0.5-1.6-0.5c-1.1,0-2.1,0.4-3,1.2l-1-1.8c1.2-1.1,2.8-1.6,4.5-1.6c1.4,0,2.6,0.3,3.3,1c0.8,0.7,1.2,1.6,1.2,2.9v6.7
			H232.4z M230.2,824.9c1,0,1.7-0.3,2.2-0.9v-1.3c-0.5-0.6-1.2-0.9-2.2-0.9c-0.5,0-1,0.1-1.4,0.4c-0.4,0.3-0.6,0.7-0.6,1.2
			c0,0.5,0.2,0.9,0.6,1.1C229.2,824.8,229.7,824.9,230.2,824.9z M244.8,826.5v-6.2c0-1.3-0.6-1.9-1.9-1.9c-1,0-1.8,0.4-2.4,1.2v6.9
			h-2.7v-10.3h2.7v1.3c0.3-0.4,0.8-0.8,1.4-1.1c0.6-0.3,1.3-0.5,2.2-0.5c1.1,0,2,0.3,2.5,0.9c0.6,0.6,0.8,1.4,0.8,2.4v7.3H244.8z"/>
		<path class="st3" d="M51.3,850.6c-1.6,0-2.9-0.5-3.9-1.5c-1-1-1.6-2.4-1.6-4c0-1.6,0.5-2.9,1.6-4c1.1-1,2.4-1.5,3.9-1.5
			c1.7,0,3.1,0.7,4.1,2.1l-1.1,0.6c-0.3-0.4-0.7-0.8-1.2-1.1c-0.5-0.3-1.1-0.4-1.7-0.4c-1.2,0-2.2,0.4-2.9,1.2
			c-0.8,0.8-1.2,1.8-1.2,3.1c0,1.3,0.4,2.3,1.2,3.1c0.8,0.8,1.8,1.2,3,1.2c0.6,0,1.2-0.1,1.7-0.4c0.5-0.3,0.9-0.7,1.2-1.1l1.1,0.6
			C54.3,849.9,53,850.6,51.3,850.6z M60.4,850.6c-1.1,0-2-0.4-2.8-1.1c-0.7-0.8-1.1-1.7-1.1-2.9s0.4-2.2,1.1-2.9
			c0.7-0.8,1.6-1.1,2.8-1.1c1.1,0,2,0.4,2.8,1.1c0.7,0.8,1.1,1.7,1.1,2.9s-0.4,2.2-1.1,2.9C62.4,850.2,61.5,850.6,60.4,850.6z
			 M60.4,849.5c0.8,0,1.4-0.3,1.8-0.8s0.7-1.3,0.7-2.2c0-0.9-0.2-1.6-0.7-2.1c-0.5-0.6-1.1-0.8-1.8-0.8s-1.4,0.3-1.9,0.8
			c-0.5,0.6-0.7,1.3-0.7,2.1c0,0.9,0.2,1.6,0.7,2.2C59,849.2,59.6,849.5,60.4,849.5z M65.5,847V846h3.8v1.1H65.5z M71,850.4v-10.7h7
			v1.2h-5.7v3.4h5.5v1.2h-5.5v4.9H71z M83.1,850.6c-1.1,0-2-0.4-2.8-1.1c-0.7-0.8-1.1-1.7-1.1-2.9c0-1.2,0.4-2.2,1.1-2.9
			c0.7-0.8,1.6-1.1,2.8-1.1c1.1,0,2,0.4,2.8,1.1c0.7,0.8,1.1,1.7,1.1,2.9c0,1.2-0.4,2.2-1.1,2.9C85.2,850.2,84.3,850.6,83.1,850.6z
			 M83.1,849.5c0.7,0,1.4-0.3,1.8-0.8c0.5-0.6,0.7-1.3,0.7-2.2c0-0.9-0.2-1.6-0.7-2.1c-0.5-0.6-1.1-0.8-1.8-0.8
			c-0.8,0-1.4,0.3-1.9,0.8c-0.5,0.6-0.7,1.3-0.7,2.1c0,0.9,0.2,1.6,0.7,2.2C81.8,849.2,82.4,849.5,83.1,849.5z M94.1,850.4v-1.1
			c-0.3,0.3-0.7,0.6-1.2,0.9c-0.5,0.2-1,0.4-1.6,0.4c-1.6,0-2.5-0.8-2.5-2.5v-5.5h1.2v5.1c0,0.6,0.1,1.1,0.4,1.3
			c0.3,0.3,0.7,0.4,1.3,0.4c0.5,0,0.9-0.1,1.3-0.3c0.4-0.2,0.7-0.5,1-0.8v-5.7h1.2v7.7H94.1z M103,850.4v-5.1c0-0.7-0.2-1.1-0.5-1.4
			c-0.3-0.3-0.7-0.4-1.2-0.4c-0.4,0-0.9,0.1-1.3,0.4c-0.4,0.2-0.7,0.5-1,0.8v5.6h-1.2v-7.7h1.2v1.1c0.3-0.4,0.7-0.7,1.2-0.9
			c0.5-0.2,1-0.4,1.5-0.4c1.6,0,2.5,0.8,2.5,2.5v5.4H103z M112.1,850.4v-1.2c-0.3,0.4-0.7,0.7-1.1,1c-0.4,0.2-0.9,0.4-1.5,0.4
			c-1,0-1.9-0.4-2.5-1.1c-0.6-0.7-0.9-1.7-0.9-3c0-1.2,0.3-2.2,1-3c0.6-0.7,1.5-1.1,2.5-1.1c0.5,0,1,0.1,1.5,0.4
			c0.5,0.2,0.8,0.6,1.1,1v-4.1h1.2v10.7H112.1z M109.8,849.5c0.5,0,0.9-0.1,1.4-0.3c0.4-0.2,0.7-0.5,1-0.9v-3.5
			c-0.2-0.3-0.5-0.6-1-0.9c-0.4-0.2-0.9-0.4-1.4-0.4c-0.8,0-1.4,0.3-1.8,0.8c-0.4,0.5-0.7,1.3-0.7,2.2c0,0.9,0.2,1.6,0.7,2.2
			C108.5,849.2,109.1,849.5,109.8,849.5z M119.2,850.6c-1.2,0-2.1-0.4-2.8-1.1c-0.7-0.8-1.1-1.7-1.1-2.9c0-1.1,0.4-2.1,1.1-2.9
			c0.7-0.8,1.6-1.2,2.7-1.2c1.1,0,2,0.4,2.7,1.2c0.7,0.8,1,1.8,1,3v0.3h-6.2c0,0.8,0.3,1.4,0.8,1.9c0.5,0.5,1.2,0.7,1.9,0.7
			c0.9,0,1.7-0.3,2.4-1l0.6,0.8C121.5,850.2,120.5,850.6,119.2,850.6z M121.6,846c0-0.7-0.2-1.3-0.7-1.8s-1.1-0.8-1.8-0.8
			c-0.7,0-1.3,0.2-1.8,0.8c-0.5,0.5-0.7,1.1-0.7,1.8H121.6z M124.8,850.4v-7.7h1.2v1.2c0.7-0.9,1.6-1.4,2.6-1.4v1.2l-0.5,0
			c-0.4,0-0.8,0.1-1.2,0.4c-0.4,0.3-0.7,0.5-0.9,0.8v5.5H124.8z M141.1,850.4c-0.4-0.3-0.8-0.7-1.2-1.1c-0.9,0.9-1.9,1.3-3.1,1.3
			c-1,0-1.8-0.3-2.4-0.8c-0.6-0.5-0.9-1.3-0.9-2.2c0-0.7,0.2-1.3,0.6-1.8c0.4-0.5,1-1,1.8-1.4c-0.5-0.9-0.8-1.7-0.8-2.4
			c0-0.7,0.2-1.3,0.8-1.8c0.5-0.5,1.2-0.7,1.9-0.7c0.7,0,1.3,0.2,1.8,0.6c0.4,0.4,0.7,0.9,0.7,1.5c0,0.4-0.1,0.8-0.3,1.1
			c-0.2,0.3-0.5,0.6-0.8,0.9c-0.3,0.3-0.9,0.6-1.6,1c0.3,0.5,0.8,1,1.2,1.5l1.2,1.4c0.5-0.7,0.9-1.5,1.2-2.4l1,0.5
			c-0.5,1.2-1,2.1-1.5,2.8c0.5,0.5,1.2,1.2,2.1,2H141.1z M137,849.6c0.8,0,1.5-0.4,2.2-1.1c-1.2-1.3-2.2-2.4-2.8-3.3
			c-0.4,0.3-0.8,0.6-1.1,1c-0.3,0.3-0.4,0.8-0.4,1.4c0,0.6,0.2,1.1,0.6,1.5C135.9,849.4,136.4,849.6,137,849.6z M136.3,842
			c0,0.5,0.2,1.1,0.6,1.8c0.8-0.4,1.3-0.7,1.6-1.1c0.3-0.3,0.5-0.7,0.5-1.1c0-0.4-0.1-0.7-0.4-0.9c-0.2-0.2-0.5-0.3-0.9-0.3
			c-0.4,0-0.8,0.2-1.1,0.5C136.5,841.3,136.3,841.6,136.3,842z M153.6,850.6c-1.6,0-2.9-0.5-3.9-1.5c-1-1-1.6-2.4-1.6-4
			c0-1.6,0.5-2.9,1.6-4c1.1-1,2.4-1.5,3.9-1.5c1.7,0,3.1,0.7,4.1,2.1l-1.1,0.6c-0.3-0.4-0.7-0.8-1.2-1.1c-0.5-0.3-1.1-0.4-1.7-0.4
			c-1.2,0-2.2,0.4-2.9,1.2c-0.8,0.8-1.2,1.8-1.2,3.1c0,1.3,0.4,2.3,1.2,3.1c0.8,0.8,1.8,1.2,3,1.2c0.6,0,1.2-0.1,1.7-0.4
			c0.5-0.3,0.9-0.7,1.2-1.1l1.1,0.6C156.7,849.9,155.3,850.6,153.6,850.6z M162.1,850.4v-9.5h-3.4v-1.2h8.1v1.2h-3.4v9.5H162.1z
			 M173.4,850.6c-1.6,0-2.8-0.5-3.8-1.6c-1-1-1.5-2.4-1.5-4c0-1.6,0.5-2.9,1.5-4c1-1,2.3-1.6,3.8-1.6c1.6,0,2.8,0.5,3.8,1.6
			c1,1,1.5,2.4,1.5,4c0,1.6-0.5,2.9-1.5,4C176.2,850.1,175,850.6,173.4,850.6z M173.4,849.4c1.2,0,2.1-0.4,2.8-1.2
			c0.7-0.8,1.1-1.9,1.1-3.1c0-1.3-0.4-2.3-1.1-3.1c-0.7-0.8-1.7-1.2-2.8-1.2c-1.1,0-2.1,0.4-2.8,1.2c-0.7,0.8-1.1,1.8-1.1,3.1
			c0,1.3,0.4,2.3,1.1,3.1C171.3,849,172.2,849.4,173.4,849.4z M182.3,850c0,0.5-0.1,1-0.4,1.4c-0.2,0.4-0.6,0.8-0.9,1l-0.6-0.5
			c0.3-0.2,0.5-0.4,0.7-0.7c0.2-0.3,0.3-0.5,0.4-0.8l-0.2,0c-0.2,0-0.4-0.1-0.6-0.2c-0.1-0.2-0.2-0.4-0.2-0.6c0-0.2,0.1-0.4,0.2-0.6
			c0.2-0.2,0.4-0.2,0.6-0.2c0.3,0,0.5,0.1,0.7,0.3C182.2,849.3,182.3,849.6,182.3,850z M195.8,850.4v-4.5l-4.2-6.2h1.6l3.3,5l3.3-5
			h1.6l-4.2,6.2v4.5H195.8z M207.9,850.4v-1.1c-0.3,0.3-0.7,0.6-1.2,0.9c-0.5,0.2-1,0.4-1.6,0.4c-1.6,0-2.5-0.8-2.5-2.5v-5.5h1.2
			v5.1c0,0.6,0.1,1.1,0.4,1.3c0.3,0.3,0.7,0.4,1.3,0.4c0.5,0,0.9-0.1,1.3-0.3c0.4-0.2,0.7-0.5,1-0.8v-5.7h1.2v7.7H207.9z
			 M214.6,853.5c-0.7,0-1.2-0.1-1.7-0.2c-0.5-0.2-0.9-0.5-1.4-0.9l0.6-0.9c0.3,0.4,0.7,0.6,1.1,0.8c0.4,0.2,0.9,0.2,1.4,0.2
			c0.8,0,1.4-0.2,1.8-0.6c0.4-0.4,0.7-1,0.7-1.7v-1.1c-0.3,0.4-0.6,0.7-1.1,1c-0.4,0.3-0.9,0.4-1.5,0.4c-1,0-1.9-0.4-2.5-1.1
			c-0.6-0.7-0.9-1.7-0.9-2.9c0-1.2,0.3-2.2,1-2.9c0.6-0.7,1.5-1.1,2.5-1.1c1.1,0,1.9,0.5,2.6,1.4v-1.2h1.2v7.5c0,1.1-0.3,1.9-1,2.5
			C216.7,853.2,215.8,853.5,214.6,853.5z M214.8,849.4c0.4,0,0.9-0.1,1.3-0.3c0.4-0.2,0.8-0.5,1-0.9v-3.4c-0.2-0.4-0.6-0.7-1-0.9
			c-0.4-0.2-0.9-0.3-1.3-0.3c-0.8,0-1.4,0.3-1.8,0.8c-0.4,0.5-0.7,1.2-0.7,2.1c0,0.9,0.2,1.6,0.7,2.1
			C213.4,849.2,214,849.4,214.8,849.4z M225.5,850.4v-0.9c-0.6,0.7-1.5,1.1-2.6,1.1c-0.8,0-1.4-0.2-1.9-0.7
			c-0.5-0.5-0.8-1.1-0.8-1.8c0-0.7,0.2-1.3,0.8-1.8c0.5-0.5,1.2-0.7,2-0.7c1.1,0,2,0.3,2.6,1v-1.4c0-0.5-0.2-0.9-0.6-1.2
			c-0.4-0.3-0.8-0.4-1.4-0.4c-0.9,0-1.7,0.4-2.4,1.1l-0.6-0.8c0.8-0.9,1.8-1.3,3.1-1.3c0.9,0,1.7,0.2,2.2,0.7
			c0.5,0.5,0.8,1.1,0.8,1.9v5.3H225.5z M223.4,849.7c0.9,0,1.7-0.3,2.1-1v-1.5c-0.5-0.6-1.2-1-2.1-1c-0.6,0-1,0.2-1.4,0.5
			s-0.5,0.7-0.5,1.2s0.2,0.9,0.5,1.2S222.8,849.7,223.4,849.7z M229.2,850.4v-10.7h4.8c0.9,0,1.6,0.2,2.2,0.8c0.5,0.5,0.8,1.1,0.8,2
			c0,0.6-0.2,1.2-0.5,1.6s-0.8,0.7-1.3,0.9c0.6,0.1,1,0.4,1.5,0.9c0.4,0.5,0.6,1.1,0.6,1.7c0,0.9-0.3,1.6-0.8,2.1
			c-0.6,0.5-1.3,0.8-2.3,0.8H229.2z M233.7,844.3c0.6,0,1.1-0.2,1.4-0.5c0.3-0.3,0.5-0.7,0.5-1.2c0-0.5-0.2-0.9-0.5-1.2
			c-0.3-0.3-0.8-0.5-1.4-0.5h-3.2v3.4H233.7z M233.8,849.2c0.6,0,1.1-0.2,1.5-0.5c0.4-0.3,0.5-0.8,0.5-1.4c0-0.5-0.2-1-0.5-1.3
			c-0.4-0.3-0.8-0.5-1.4-0.5h-3.3v3.7H233.8z M238.9,852.3c0.2,0.1,0.4,0.1,0.7,0.1c0.3,0,0.5-0.1,0.7-0.2c0.2-0.1,0.3-0.3,0.5-0.6
			l0.5-1.2l-3.2-7.8h1.3l2.6,6.3l2.6-6.3h1.3l-3.9,9.3c-0.4,1-1.2,1.6-2.3,1.6c-0.3,0-0.6,0-0.9-0.1L238.9,852.3z M249,850.6
			c-1.1,0-1.7-0.6-1.7-1.8v-5.1H246v-1.1h1.3v-2.1h1.2v2.1h1.6v1.1h-1.6v4.8c0,0.3,0.1,0.5,0.2,0.7c0.1,0.2,0.3,0.3,0.6,0.3
			c0.3,0,0.6-0.1,0.8-0.3l0.4,0.9C250.1,850.4,249.6,850.6,249,850.6z M255.2,850.6c-1.2,0-2.1-0.4-2.8-1.1
			c-0.7-0.8-1.1-1.7-1.1-2.9c0-1.1,0.4-2.1,1.1-2.9c0.7-0.8,1.6-1.2,2.7-1.2c1.1,0,2,0.4,2.7,1.2c0.7,0.8,1,1.8,1,3v0.3h-6.2
			c0,0.8,0.3,1.4,0.8,1.9c0.5,0.5,1.2,0.7,1.9,0.7c0.9,0,1.7-0.3,2.4-1l0.6,0.8C257.5,850.2,256.5,850.6,255.2,850.6z M257.6,846
			c0-0.7-0.2-1.3-0.7-1.8s-1.1-0.8-1.8-0.8c-0.7,0-1.3,0.2-1.8,0.8c-0.5,0.5-0.7,1.1-0.7,1.8H257.6z"/>
		<path class="st3" d="M48,894.6c-1.1,0-2.1-0.4-2.8-1.2l0.7-1c0.6,0.7,1.3,1.1,2,1.1c0.7,0,1.2-0.2,1.6-0.6c0.4-0.4,0.6-1,0.6-1.6
			v-7.4h1.3v7.5c0,1.1-0.3,1.9-0.9,2.5C49.8,894.3,49,894.6,48,894.6z M58.6,894.4v-0.9c-0.6,0.7-1.5,1.1-2.6,1.1
			c-0.8,0-1.4-0.2-1.9-0.7c-0.5-0.5-0.8-1.1-0.8-1.8c0-0.7,0.2-1.3,0.8-1.8c0.5-0.5,1.2-0.7,2-0.7c1.1,0,2,0.3,2.6,1v-1.4
			c0-0.5-0.2-0.9-0.6-1.2c-0.4-0.3-0.8-0.4-1.4-0.4c-0.9,0-1.7,0.4-2.4,1.1l-0.6-0.8c0.8-0.9,1.8-1.3,3.1-1.3c0.9,0,1.7,0.2,2.2,0.7
			c0.5,0.5,0.8,1.1,0.8,1.9v5.3H58.6z M56.5,893.7c0.9,0,1.7-0.3,2.1-1v-1.5c-0.5-0.6-1.2-1-2.1-1c-0.6,0-1,0.2-1.4,0.5
			c-0.4,0.3-0.5,0.7-0.5,1.2c0,0.5,0.2,0.9,0.5,1.2C55.5,893.6,55.9,893.7,56.5,893.7z M67.5,894.4v-5.1c0-0.7-0.2-1.1-0.5-1.4
			c-0.3-0.3-0.7-0.4-1.2-0.4c-0.4,0-0.9,0.1-1.3,0.4c-0.4,0.2-0.7,0.5-1,0.8v5.6h-1.2v-7.7h1.2v1.1c0.3-0.4,0.7-0.7,1.2-0.9
			c0.5-0.2,1-0.4,1.5-0.4c1.6,0,2.5,0.8,2.5,2.5v5.4H67.5z M76.3,894.4v-1.1c-0.3,0.3-0.7,0.6-1.2,0.9c-0.5,0.2-1,0.4-1.6,0.4
			c-1.6,0-2.5-0.8-2.5-2.5v-5.5h1.2v5.1c0,0.6,0.1,1.1,0.4,1.3c0.3,0.3,0.7,0.4,1.3,0.4c0.5,0,0.9-0.1,1.3-0.3
			c0.4-0.2,0.7-0.5,1-0.8v-5.7h1.2v7.7H76.3z M84.7,894.4v-0.9c-0.6,0.7-1.5,1.1-2.6,1.1c-0.8,0-1.4-0.2-1.9-0.7
			c-0.5-0.5-0.8-1.1-0.8-1.8c0-0.7,0.2-1.3,0.8-1.8c0.5-0.5,1.2-0.7,2-0.7c1.1,0,2,0.3,2.6,1v-1.4c0-0.5-0.2-0.9-0.6-1.2
			c-0.4-0.3-0.8-0.4-1.4-0.4c-0.9,0-1.7,0.4-2.4,1.1l-0.6-0.8c0.8-0.9,1.8-1.3,3.1-1.3c0.9,0,1.7,0.2,2.2,0.7
			c0.5,0.5,0.8,1.1,0.8,1.9v5.3H84.7z M82.6,893.7c0.9,0,1.7-0.3,2.1-1v-1.5c-0.5-0.6-1.2-1-2.1-1c-0.6,0-1,0.2-1.4,0.5
			c-0.4,0.3-0.5,0.7-0.5,1.2s0.2,0.9,0.5,1.2C81.5,893.6,82,893.7,82.6,893.7z M88.3,894.4v-7.7h1.2v1.2c0.7-0.9,1.6-1.4,2.6-1.4
			v1.2l-0.5,0c-0.4,0-0.8,0.1-1.2,0.4c-0.4,0.3-0.7,0.5-0.9,0.8v5.5H88.3z M93.3,896.3c0.2,0.1,0.4,0.1,0.7,0.1
			c0.3,0,0.5-0.1,0.7-0.2c0.2-0.1,0.3-0.3,0.5-0.6l0.5-1.2l-3.2-7.8h1.3l2.6,6.3l2.6-6.3h1.3l-3.9,9.3c-0.4,1-1.2,1.6-2.3,1.6
			c-0.3,0-0.6,0-0.9-0.1L93.3,896.3z M105.2,894.4v-1.1c1.9-1.5,3.2-2.6,3.9-3.2c0.7-0.7,1.2-1.3,1.5-1.8c0.3-0.5,0.5-1.1,0.5-1.6
			c0-0.6-0.2-1.1-0.6-1.4c-0.4-0.4-0.9-0.5-1.6-0.5c-1.2,0-2.2,0.4-2.9,1.3l-0.8-0.9c0.4-0.5,0.9-1,1.6-1.2c0.7-0.3,1.4-0.4,2.1-0.4
			c1,0,1.9,0.3,2.6,0.9c0.7,0.6,1,1.3,1,2.3c0,0.9-0.4,1.8-1.1,2.7c-0.7,1-2.1,2.2-4.1,3.8h5.2v1.2H105.2z M118.6,894.6
			c-1.2,0-2.2-0.5-3-1.5c-0.7-1-1.1-2.4-1.1-4c0-1.7,0.4-3,1.1-4c0.8-1,1.7-1.5,3-1.5c0.8,0,1.6,0.2,2.2,0.7c0.6,0.5,1.1,1.1,1.4,2
			c0.3,0.8,0.5,1.8,0.5,2.8c0,1-0.2,2-0.5,2.8c-0.3,0.9-0.8,1.5-1.4,2C120.2,894.3,119.5,894.6,118.6,894.6z M118.6,893.4
			c0.9,0,1.5-0.4,2-1.2c0.5-0.8,0.7-1.8,0.7-3.2c0-1.4-0.2-2.4-0.7-3.2c-0.5-0.8-1.1-1.1-2-1.1c-0.9,0-1.5,0.4-2,1.1
			c-0.5,0.8-0.7,1.8-0.7,3.2c0,1.4,0.2,2.4,0.7,3.2C117.1,893,117.8,893.4,118.6,893.4z M126.4,894.4v-8.9l-1.7,1.8l-0.8-0.8
			l2.7-2.8h1.2v10.7H126.4z M133.3,894.6c-1.2,0-2.2-0.4-3-1.3l0.7-1c0.3,0.3,0.6,0.6,0.9,0.8c0.3,0.2,0.8,0.3,1.3,0.3
			c0.9,0,1.7-0.4,2.2-1.1c0.5-0.8,0.8-1.8,0.8-3V889l0-0.2c-0.3,0.5-0.8,0.9-1.3,1.2c-0.6,0.3-1.1,0.5-1.7,0.5
			c-1.1,0-1.9-0.3-2.5-0.9c-0.6-0.6-1-1.5-1-2.5c0-1,0.3-1.8,1-2.5c0.7-0.7,1.6-1,2.7-1c1.3,0,2.3,0.5,3,1.5c0.7,1,1.1,2.3,1.1,4.1
			c0,1.7-0.4,3-1.2,4C135.6,894.1,134.6,894.6,133.3,894.6z M133.6,889.3c0.5,0,1-0.1,1.5-0.4c0.5-0.3,0.9-0.7,1.1-1.2
			c-0.1-0.9-0.4-1.7-0.9-2.2c-0.5-0.5-1.1-0.8-1.8-0.8c-0.7,0-1.3,0.2-1.8,0.7c-0.5,0.4-0.7,1-0.7,1.6c0,0.7,0.2,1.3,0.7,1.7
			C132.2,889.1,132.8,889.3,133.6,889.3z"/>
		<path class="st1" d="M29.8,154.8h619v371h-619V154.8z"/>
		<path class="st3" d="M41.6,288.4v-28.5h15c2.5,0,4.5,0.7,6,2c1.5,1.3,2.2,3.1,2.2,5.2c0,1.7-0.5,3.2-1.4,4.3
			c-0.9,1.2-2.1,1.9-3.5,2.2c1.5,0.2,2.8,1,3.8,2.3c1.1,1.3,1.6,2.9,1.6,4.7c0,2.3-0.7,4.1-2.2,5.5c-1.5,1.4-3.5,2.1-6.1,2.1H41.6z
			 M55.2,271.3c1,0,1.8-0.3,2.4-0.8c0.6-0.6,0.9-1.3,0.9-2.2c0-0.9-0.3-1.7-0.9-2.2c-0.6-0.6-1.4-0.9-2.4-0.9h-7.6v6.2H55.2z
			 M55.4,283.1c1.2,0,2.1-0.3,2.7-0.9c0.6-0.6,1-1.4,1-2.4c0-0.9-0.3-1.7-0.9-2.3c-0.6-0.7-1.5-1-2.7-1h-7.8v6.6H55.4z M79.4,288.9
			c-3.2,0-5.9-1-8-3c-2-2-3.1-4.6-3.1-7.8c0-3.1,1-5.6,3-7.7c2-2.1,4.6-3.1,7.6-3.1c3,0,5.5,1,7.4,3.1c1.9,2.1,2.9,4.8,2.9,8.2v1.2
			H74.1c0.2,1.3,0.8,2.4,1.8,3.4c1,0.9,2.4,1.4,4.2,1.4c0.9,0,1.8-0.2,2.9-0.5c1.1-0.4,1.9-0.9,2.6-1.5l2.4,3.5
			c-1,0.9-2.3,1.7-3.8,2.1C82.6,288.6,81,288.9,79.4,288.9z M84.1,276.1c-0.1-1.4-0.6-2.5-1.5-3.3c-0.9-0.8-2.1-1.3-3.5-1.3
			c-1.4,0-2.6,0.4-3.5,1.3c-0.9,0.9-1.4,1.9-1.6,3.2H84.1z M107.2,288.4v-12.5c0-2.6-1.3-3.8-3.8-3.8c-2,0-3.5,0.8-4.7,2.4v13.9
			h-5.4v-20.6h5.4v2.7c0.6-0.8,1.6-1.5,2.8-2.2c1.2-0.7,2.7-1,4.4-1c2.3,0,4,0.6,5,1.8c1.1,1.2,1.7,2.8,1.7,4.8v14.5H107.2z
			 M127.6,288.9c-3.2,0-5.9-1-7.9-3.1c-2-2.1-3-4.6-3-7.8c0-3.1,1-5.7,3-7.7c2-2.1,4.7-3.1,7.9-3.1c2.1,0,3.8,0.4,5.1,1.2
			c1.3,0.8,2.3,1.6,3,2.5l-3.5,3.3c-1-1.5-2.4-2.2-4.3-2.2c-1.7,0-3,0.5-4,1.6c-1,1.1-1.5,2.5-1.5,4.3c0,1.8,0.5,3.2,1.5,4.4
			c1,1.1,2.4,1.7,4,1.7c1.8,0,3.3-0.7,4.3-2.2l3.5,3.3c-0.7,1-1.7,1.8-3,2.6C131.4,288.5,129.7,288.9,127.6,288.9z M153.2,288.4
			v-12.5c0-2.5-1.3-3.8-3.8-3.8c-1.9,0-3.4,0.8-4.7,2.4v13.9h-5.4v-28.5h5.4v10.5c0.6-0.8,1.6-1.5,2.8-2.2c1.2-0.7,2.7-1,4.4-1
			c2.3,0,4,0.6,5,1.7c1.1,1.1,1.6,2.7,1.6,4.8v14.6H153.2z M189.6,288.4v-13c0-2.2-1-3.3-3.1-3.3c-1,0-1.8,0.3-2.6,0.8
			c-0.7,0.5-1.3,1.1-1.7,1.6v13.9h-5.5v-13c0-2.2-1-3.3-3.1-3.3c-0.9,0-1.8,0.3-2.5,0.8c-0.7,0.5-1.3,1.1-1.7,1.6v13.9H164v-20.6
			h5.4v2.7c0.5-0.8,1.4-1.5,2.7-2.2c1.3-0.7,2.7-1,4-1c3,0,4.9,1.2,5.7,3.8c0.7-1.1,1.6-1.9,2.9-2.7c1.3-0.7,2.7-1.1,4.1-1.1
			c4,0,6.1,2.1,6.1,6.2v14.9H189.6z M212.8,288.4v-2.1c-1.5,1.8-3.7,2.6-6.5,2.6c-2,0-3.7-0.6-5.1-1.9c-1.4-1.3-2.1-2.9-2.1-4.9
			c0-2,0.7-3.6,2-4.8c1.3-1.2,3.1-1.8,5.2-1.8c3,0,5.1,0.8,6.5,2.5v-2.8c0-1.1-0.4-1.9-1.2-2.5c-0.8-0.6-1.9-0.9-3.3-0.9
			c-2.3,0-4.3,0.8-6,2.4l-2-3.6c2.5-2.2,5.5-3.2,9-3.2c2.9,0,5.1,0.7,6.7,2c1.6,1.3,2.3,3.3,2.3,5.8v13.3H212.8z M208.4,285.2
			c2,0,3.4-0.6,4.4-1.8v-2.5c-0.9-1.2-2.4-1.8-4.4-1.8c-1.1,0-2,0.3-2.8,0.8c-0.8,0.5-1.1,1.3-1.1,2.3c0,1,0.4,1.7,1.1,2.2
			C206.4,285,207.3,285.2,208.4,285.2z M223.5,288.4v-20.6h5.4v2.8c0.7-0.9,1.7-1.7,2.9-2.3c1.2-0.7,2.4-1,3.7-1v5.3l-1.5-0.1
			c-1,0-1.9,0.2-2.9,0.7c-1,0.4-1.7,1-2.1,1.7v13.6H223.5z M252.2,288.4l-5.5-7.9l-2.5,2.6v5.3h-5.4v-28.5h5.4v17l7.8-9.2h6.7
			l-8.1,9.3l8.4,11.3H252.2z M264.4,265.5c-0.9,0-1.7-0.3-2.3-0.9c-0.6-0.6-1-1.4-1-2.3s0.3-1.7,1-2.3c0.6-0.6,1.4-0.9,2.3-0.9
			c0.9,0,1.7,0.3,2.3,0.9c0.6,0.6,0.9,1.4,0.9,2.3s-0.3,1.7-0.9,2.3S265.3,265.5,264.4,265.5z M261.7,288.4v-20.6h5.4v20.6H261.7z
			 M286.4,288.4v-12.5c0-2.6-1.3-3.8-3.8-3.8c-2,0-3.5,0.8-4.7,2.4v13.9h-5.4v-20.6h5.4v2.7c0.6-0.8,1.6-1.5,2.8-2.2
			c1.2-0.7,2.7-1,4.4-1c2.3,0,4,0.6,5,1.8c1.1,1.2,1.7,2.8,1.7,4.8v14.5H286.4z M305.7,296.7c-1.8,0-3.4-0.2-4.8-0.7
			c-1.4-0.4-2.8-1.2-4.1-2.4l2.4-3.9c1.5,1.7,3.7,2.6,6.5,2.6c1.8,0,3.2-0.5,4.2-1.4c1-0.9,1.5-2.2,1.5-3.8V285
			c-1.7,2.2-3.9,3.2-6.4,3.2c-2.8,0-5-0.9-6.6-2.8c-1.6-1.9-2.5-4.5-2.5-7.7c0-3.2,0.8-5.7,2.5-7.6c1.6-1.9,3.8-2.9,6.6-2.9
			c2.6,0,4.7,1.1,6.4,3.2v-2.7h5.5V287c0,3.1-1,5.5-2.9,7.2C311.9,295.9,309.2,296.7,305.7,296.7z M306.7,283.4
			c0.9,0,1.8-0.2,2.7-0.7c0.9-0.5,1.5-1,2-1.7v-6.7c-0.5-0.7-1.1-1.2-2-1.7c-0.9-0.4-1.8-0.7-2.7-0.7c-1.5,0-2.8,0.5-3.8,1.5
			c-1,1-1.5,2.4-1.5,4.2c0,1.8,0.5,3.2,1.5,4.2C303.9,282.9,305.1,283.4,306.7,283.4z"/>
		<path class="st3" d="M49.5,339.7v-11.6l-11-16.8h6.9l7.1,11.4l7-11.4h6.9l-10.9,16.8v11.6H49.5z M82.9,339.7v-2.6
			c-1.8,2.1-4.3,3.1-7.2,3.1c-2.3,0-4-0.6-5-1.7c-1.1-1.2-1.6-2.7-1.6-4.8v-14.6h5.4v12.5c0,2.5,1.3,3.8,3.8,3.8
			c1.8,0,3.4-0.8,4.7-2.3v-14h5.4v20.6H82.9z M102.1,348.1c-1.8,0-3.4-0.2-4.8-0.7c-1.4-0.4-2.8-1.2-4.1-2.4l2.4-3.9
			c1.5,1.7,3.7,2.6,6.5,2.6c1.8,0,3.2-0.5,4.2-1.4c1-0.9,1.5-2.2,1.5-3.8v-2.1c-1.7,2.2-3.9,3.2-6.4,3.2c-2.8,0-5-0.9-6.6-2.8
			c-1.6-1.9-2.5-4.5-2.5-7.7c0-3.2,0.8-5.7,2.5-7.6c1.6-1.9,3.8-2.9,6.6-2.9c2.6,0,4.7,1.1,6.4,3.2v-2.7h5.5v19.2
			c0,3.1-1,5.5-2.9,7.2C108.4,347.2,105.7,348.1,102.1,348.1z M103.1,334.8c0.9,0,1.8-0.2,2.7-0.7c0.9-0.5,1.5-1,2-1.7v-6.7
			c-0.5-0.7-1.1-1.2-2-1.7c-0.9-0.4-1.8-0.7-2.7-0.7c-1.5,0-2.8,0.5-3.8,1.5c-1,1-1.5,2.4-1.5,4.2c0,1.8,0.5,3.2,1.5,4.2
			C100.3,334.3,101.6,334.8,103.1,334.8z M131,339.7v-2.1c-1.5,1.8-3.7,2.6-6.5,2.6c-2,0-3.7-0.6-5.1-1.9c-1.4-1.3-2.1-2.9-2.1-4.9
			c0-2,0.7-3.6,2-4.8c1.3-1.2,3.1-1.8,5.2-1.8c3,0,5.1,0.8,6.5,2.5v-2.8c0-1.1-0.4-1.9-1.2-2.5c-0.8-0.6-1.9-0.9-3.3-0.9
			c-2.3,0-4.3,0.8-6,2.4l-2-3.6c2.5-2.2,5.5-3.2,9-3.2c2.9,0,5.1,0.7,6.7,2c1.6,1.3,2.3,3.3,2.3,5.8v13.3H131z M126.6,336.6
			c2,0,3.4-0.6,4.4-1.8v-2.5c-0.9-1.2-2.4-1.8-4.4-1.8c-1.1,0-2,0.3-2.8,0.8c-0.8,0.5-1.1,1.3-1.1,2.3c0,1,0.4,1.7,1.1,2.2
			C124.6,336.3,125.5,336.6,126.6,336.6z M141.9,339.7v-28.5h15c2.5,0,4.5,0.7,6,2c1.5,1.3,2.2,3.1,2.2,5.2c0,1.7-0.5,3.2-1.4,4.3
			c-0.9,1.2-2.1,1.9-3.5,2.2c1.5,0.2,2.8,1,3.8,2.3c1.1,1.3,1.6,2.9,1.6,4.7c0,2.3-0.7,4.1-2.2,5.5c-1.5,1.4-3.5,2.1-6.1,2.1H141.9z
			 M155.5,322.6c1,0,1.8-0.3,2.4-0.8c0.6-0.6,0.9-1.3,0.9-2.2c0-0.9-0.3-1.7-0.9-2.2c-0.6-0.6-1.4-0.9-2.4-0.9H148v6.2H155.5z
			 M155.7,334.5c1.2,0,2.1-0.3,2.7-0.9c0.6-0.6,1-1.4,1-2.4c0-0.9-0.3-1.7-0.9-2.3c-0.6-0.7-1.5-1-2.7-1H148v6.6H155.7z
			 M170.1,342.9c0.5,0.2,1,0.3,1.7,0.3c1.4,0,2.4-0.5,2.9-1.5l0.8-1.8l-8.4-20.9h5.8l5.4,14.3l5.4-14.3h5.8l-9.7,24
			c-0.8,1.9-1.8,3.2-3.2,3.9c-1.3,0.7-2.9,1-4.6,1.1c-1,0-1.9-0.1-2.7-0.3L170.1,342.9z M198.8,340.2c-3.9,0-5.8-1.9-5.8-5.6v-10.8
			h-3.4v-4.7h3.4v-5.6h5.5v5.6h4.2v4.7h-4.2v9.3c0,0.6,0.2,1.2,0.5,1.6c0.3,0.4,0.8,0.6,1.4,0.6c0.9,0,1.5-0.2,1.9-0.6l1.2,4.1
			C202.4,339.8,200.9,340.2,198.8,340.2z M216,340.2c-3.2,0-5.9-1-8-3c-2-2-3.1-4.6-3.1-7.8c0-3.1,1-5.6,3-7.7
			c2-2.1,4.6-3.1,7.6-3.1c3,0,5.5,1,7.4,3.1c1.9,2.1,2.9,4.8,2.9,8.2v1.2h-15.3c0.2,1.3,0.8,2.4,1.8,3.4c1,0.9,2.4,1.4,4.2,1.4
			c0.9,0,1.8-0.2,2.9-0.5c1.1-0.4,1.9-0.9,2.6-1.5l2.4,3.5c-1,0.9-2.3,1.7-3.8,2.1C219.2,340,217.6,340.2,216,340.2z M220.8,327.5
			c-0.1-1.4-0.6-2.5-1.5-3.3c-0.9-0.8-2.1-1.3-3.5-1.3c-1.4,0-2.6,0.4-3.5,1.3c-0.9,0.9-1.4,1.9-1.6,3.2H220.8z M241,339.7v-28.5
			h11.2c4.5,0,8.1,1.3,10.9,3.9c2.8,2.6,4.2,6.1,4.2,10.3c0,4.2-1.4,7.7-4.2,10.3c-2.8,2.6-6.4,3.9-10.9,3.9H241z M252.2,334.4
			c2.6,0,4.8-0.8,6.4-2.5c1.7-1.7,2.5-3.8,2.5-6.4c0-2.7-0.8-4.9-2.4-6.5c-1.6-1.6-3.8-2.4-6.5-2.4H247v17.8H252.2z M271.6,339.7
			v-28.5h15c2.5,0,4.5,0.7,6,2c1.5,1.3,2.2,3.1,2.2,5.2c0,1.7-0.5,3.2-1.4,4.3c-0.9,1.2-2.1,1.9-3.5,2.2c1.5,0.2,2.8,1,3.8,2.3
			c1.1,1.3,1.6,2.9,1.6,4.7c0,2.3-0.7,4.1-2.2,5.5c-1.5,1.4-3.5,2.1-6.1,2.1H271.6z M285.3,322.6c1,0,1.8-0.3,2.4-0.8
			c0.6-0.6,0.9-1.3,0.9-2.2c0-0.9-0.3-1.7-0.9-2.2c-0.6-0.6-1.4-0.9-2.4-0.9h-7.6v6.2H285.3z M285.5,334.5c1.2,0,2.1-0.3,2.7-0.9
			c0.6-0.6,1-1.4,1-2.4c0-0.9-0.3-1.7-0.9-2.3c-0.6-0.7-1.5-1-2.7-1h-7.8v6.6H285.5z M316,339.7l-8.3-20.6h5.8l5.4,14.3l5.4-14.3
			h5.8l-8.3,20.6H316z M340,340.2c-1.8,0-3.5-0.3-5.1-0.8c-1.6-0.6-3-1.4-4.1-2.4l2.3-3.8c0.8,0.8,1.9,1.4,3.3,2
			c1.4,0.6,2.6,0.8,3.8,0.8c2.3,0,3.5-0.7,3.5-2.2c0-0.6-0.3-1-0.9-1.3c-0.6-0.3-1.4-0.5-2.2-0.7l-2.9-0.6c-4.1-0.9-6.1-2.9-6.1-6.1
			c0-1.9,0.8-3.5,2.4-4.7c1.6-1.2,3.6-1.8,6.1-1.8c3.2,0,6,0.9,8.3,2.8l-2.2,3.7c-0.6-0.6-1.5-1.2-2.6-1.7c-1.1-0.5-2.3-0.7-3.5-0.7
			c-1,0-1.8,0.2-2.4,0.6c-0.6,0.4-0.9,0.9-0.9,1.5c0,0.5,0.3,0.9,0.9,1.2c0.6,0.2,1.3,0.5,2.2,0.7c0.9,0.2,1.9,0.4,3,0.6
			c1.1,0.2,2,0.6,2.9,1.1c0.9,0.5,1.7,1.1,2.3,2c0.6,0.8,0.9,1.9,0.9,3.3c0,2-0.8,3.6-2.4,4.8C344.8,339.6,342.7,340.2,340,340.2z
			 M355.7,340.2c-0.9,0-1.8-0.3-2.4-1c-0.7-0.7-1-1.5-1-2.4c0-0.9,0.3-1.7,1-2.4c0.7-0.7,1.5-1,2.4-1c0.9,0,1.8,0.3,2.4,1
			c0.7,0.7,1,1.5,1,2.4c0,0.9-0.3,1.7-1,2.4C357.4,339.8,356.6,340.2,355.7,340.2z M388.7,340.2c-4.4,0-8-1.4-10.9-4.2
			c-2.8-2.8-4.3-6.3-4.3-10.5c0-2.8,0.7-5.3,2-7.6c1.3-2.3,3.1-4,5.5-5.3c2.3-1.2,4.9-1.9,7.7-1.9c5.2,0,9.2,2.3,11.9,7l-5.2,2.6
			c-0.6-1.2-1.5-2.1-2.7-2.9c-1.2-0.8-2.5-1.2-4-1.2c-2.6,0-4.7,0.9-6.4,2.7c-1.7,1.8-2.5,4-2.5,6.7c0,2.8,0.9,5,2.6,6.8
			c1.7,1.7,3.8,2.6,6.4,2.6c1.5,0,2.8-0.4,4-1.2c1.2-0.8,2.1-1.8,2.7-3l5.2,2.5C397.9,337.9,393.9,340.2,388.7,340.2z M413.6,340.2
			c-3.2,0-5.8-1-7.8-3.1c-2-2.1-3-4.6-3-7.8c0-3.1,1-5.7,3-7.7c2-2,4.7-3,7.8-3c3.2,0,5.8,1,7.8,3c2.1,2,3.1,4.6,3.1,7.7
			c0,3.2-1,5.8-3.1,7.8C419.4,339.2,416.8,340.2,413.6,340.2z M413.6,335.4c1.6,0,2.8-0.6,3.8-1.7c1-1.1,1.5-2.6,1.5-4.3
			c0-1.7-0.5-3.1-1.5-4.2c-1-1.1-2.2-1.7-3.8-1.7c-1.5,0-2.8,0.5-3.8,1.6c-1,1.1-1.5,2.5-1.5,4.3c0,1.8,0.5,3.3,1.5,4.4
			C410.9,334.8,412.1,335.4,413.6,335.4z M438.1,340.2c-3.2,0-5.9-1-7.9-3.1c-2-2.1-3-4.6-3-7.8c0-3.1,1-5.7,3-7.7
			c2-2.1,4.7-3.1,7.9-3.1c2.1,0,3.8,0.4,5.1,1.2c1.3,0.8,2.3,1.6,3,2.5l-3.5,3.3c-1-1.5-2.4-2.2-4.3-2.2c-1.7,0-3,0.5-4,1.6
			c-1,1.1-1.5,2.5-1.5,4.3c0,1.8,0.5,3.2,1.5,4.4c1,1.1,2.4,1.7,4,1.7c1.8,0,3.3-0.7,4.3-2.2l3.5,3.3c-0.7,1-1.7,1.8-3,2.6
			C442,339.8,440.2,340.2,438.1,340.2z M463.2,339.7l-5.5-7.9l-2.5,2.6v5.3h-5.4v-28.5h5.4v17l7.8-9.2h6.7l-8.1,9.3l8.4,11.3H463.2z
			 M472.6,339.7v-20.6h5.4v2.8c0.7-0.9,1.7-1.7,2.9-2.3c1.2-0.7,2.4-1,3.7-1v5.3l-1.5-0.1c-1,0-1.9,0.2-2.9,0.7
			c-1,0.4-1.7,1-2.1,1.7v13.6H472.6z M497.6,340.2c-3.2,0-5.8-1-7.8-3.1c-2-2.1-3-4.6-3-7.8c0-3.1,1-5.7,3-7.7c2-2,4.7-3,7.8-3
			c3.2,0,5.8,1,7.8,3c2.1,2,3.1,4.6,3.1,7.7c0,3.2-1,5.8-3.1,7.8C503.4,339.2,500.7,340.2,497.6,340.2z M497.6,335.4
			c1.6,0,2.8-0.6,3.8-1.7c1-1.1,1.5-2.6,1.5-4.3c0-1.7-0.5-3.1-1.5-4.2c-1-1.1-2.3-1.7-3.8-1.7c-1.5,0-2.8,0.5-3.8,1.6
			c-1,1.1-1.5,2.5-1.5,4.3c0,1.8,0.5,3.3,1.5,4.4C494.8,334.8,496.1,335.4,497.6,335.4z M524.9,339.7v-2.1c-1.5,1.8-3.7,2.6-6.5,2.6
			c-2,0-3.7-0.6-5.1-1.9c-1.4-1.3-2.1-2.9-2.1-4.9c0-2,0.7-3.6,2-4.8c1.3-1.2,3.1-1.8,5.2-1.8c3,0,5.1,0.8,6.5,2.5v-2.8
			c0-1.1-0.4-1.9-1.2-2.5c-0.8-0.6-1.9-0.9-3.3-0.9c-2.3,0-4.3,0.8-6,2.4l-2-3.6c2.5-2.2,5.5-3.2,9-3.2c2.9,0,5.1,0.7,6.7,2
			c1.6,1.3,2.3,3.3,2.3,5.8v13.3H524.9z M520.5,336.6c2,0,3.4-0.6,4.4-1.8v-2.5c-0.9-1.2-2.4-1.8-4.4-1.8c-1.1,0-2,0.3-2.8,0.8
			c-0.8,0.5-1.1,1.3-1.1,2.3c0,1,0.4,1.7,1.1,2.2C518.5,336.3,519.4,336.6,520.5,336.6z M545.2,340.2c-3.2,0-5.9-1-7.9-3.1
			c-2-2.1-3-4.6-3-7.8c0-3.1,1-5.7,3-7.7c2-2.1,4.7-3.1,7.9-3.1c2.1,0,3.8,0.4,5.1,1.2c1.3,0.8,2.3,1.6,3,2.5l-3.5,3.3
			c-1-1.5-2.4-2.2-4.3-2.2c-1.7,0-3,0.5-4,1.6c-1,1.1-1.5,2.5-1.5,4.3c0,1.8,0.5,3.2,1.5,4.4c1,1.1,2.4,1.7,4,1.7
			c1.8,0,3.3-0.7,4.3-2.2l3.5,3.3c-0.7,1-1.7,1.8-3,2.6C549.1,339.8,547.4,340.2,545.2,340.2z M570.9,339.7v-12.5
			c0-2.5-1.3-3.8-3.8-3.8c-1.9,0-3.4,0.8-4.7,2.4v13.9h-5.4v-28.5h5.4v10.5c0.6-0.8,1.6-1.5,2.8-2.2c1.2-0.7,2.7-1,4.4-1
			c2.3,0,4,0.6,5,1.7c1.1,1.1,1.6,2.7,1.6,4.8v14.6H570.9z M581.8,339.7v-28.5H593c4.5,0,8.1,1.3,10.9,3.9c2.8,2.6,4.2,6.1,4.2,10.3
			c0,4.2-1.4,7.7-4.2,10.3c-2.8,2.6-6.4,3.9-10.9,3.9H581.8z M593,334.4c2.6,0,4.8-0.8,6.4-2.5c1.7-1.7,2.5-3.8,2.5-6.4
			c0-2.7-0.8-4.9-2.4-6.5c-1.6-1.6-3.8-2.4-6.5-2.4h-5.2v17.8H593z M612.4,339.7v-28.5h15c2.5,0,4.5,0.7,6,2
			c1.5,1.3,2.2,3.1,2.2,5.2c0,1.7-0.5,3.2-1.4,4.3c-0.9,1.2-2.1,1.9-3.5,2.2c1.5,0.2,2.8,1,3.8,2.3c1.1,1.3,1.6,2.9,1.6,4.7
			c0,2.3-0.7,4.1-2.2,5.5c-1.5,1.4-3.5,2.1-6.1,2.1H612.4z M626.1,322.6c1,0,1.8-0.3,2.4-0.8c0.6-0.6,0.9-1.3,0.9-2.2
			c0-0.9-0.3-1.7-0.9-2.2c-0.6-0.6-1.4-0.9-2.4-0.9h-7.6v6.2H626.1z M626.3,334.5c1.2,0,2.1-0.3,2.7-0.9c0.6-0.6,1-1.4,1-2.4
			c0-0.9-0.3-1.7-0.9-2.3c-0.6-0.7-1.5-1-2.7-1h-7.8v6.6H626.3z"/>
		<path class="st3" d="M42.6,390.7v-15.9h-3.4v-4.7h3.4V369c0-2.2,0.6-4,1.9-5.2c1.3-1.3,3-1.9,5-1.9c2.4,0,4.2,0.6,5.4,1.9l-2,3.2
			c-0.6-0.6-1.3-0.8-2.2-0.8c-0.7,0-1.4,0.2-1.8,0.7c-0.5,0.5-0.7,1.2-0.7,2.2v1.1h4.2v4.7h-4.2v15.9H42.6z M64.9,391.2
			c-3.2,0-5.8-1-7.8-3.1c-2-2.1-3-4.6-3-7.8c0-3.1,1-5.7,3-7.7c2-2,4.7-3,7.8-3c3.2,0,5.8,1,7.8,3c2.1,2,3.1,4.6,3.1,7.7
			c0,3.2-1,5.8-3.1,7.8C70.7,390.2,68.1,391.2,64.9,391.2z M64.9,386.4c1.6,0,2.8-0.6,3.8-1.7c1-1.1,1.5-2.6,1.5-4.3
			c0-1.7-0.5-3.1-1.5-4.2c-1-1.1-2.2-1.7-3.8-1.7c-1.5,0-2.8,0.5-3.8,1.6c-1,1.1-1.5,2.5-1.5,4.3c0,1.8,0.5,3.3,1.5,4.4
			C62.2,385.8,63.4,386.4,64.9,386.4z M79.9,390.7v-20.6h5.4v2.8c0.7-0.9,1.7-1.7,2.9-2.3c1.2-0.7,2.4-1,3.7-1v5.3l-1.5-0.1
			c-1,0-1.9,0.2-2.9,0.7c-1,0.4-1.7,1-2.1,1.7v13.6H79.9z M106.3,390.7v-28.5h6.1v28.5H106.3z M131.7,390.7v-12.5
			c0-2.6-1.3-3.8-3.8-3.8c-2,0-3.5,0.8-4.7,2.4v13.9h-5.4v-20.6h5.4v2.7c0.6-0.8,1.6-1.5,2.8-2.2c1.2-0.7,2.7-1,4.4-1
			c2.3,0,4,0.6,5,1.8c1.1,1.2,1.7,2.8,1.7,4.8v14.5H131.7z M149.4,391.2c-3.9,0-5.8-1.9-5.8-5.6v-10.8h-3.4v-4.7h3.4v-5.6h5.5v5.6
			h4.2v4.7h-4.2v9.3c0,0.6,0.2,1.2,0.5,1.6c0.3,0.4,0.8,0.6,1.4,0.6c0.9,0,1.5-0.2,1.9-0.6l1.2,4.1
			C153,390.8,151.5,391.2,149.4,391.2z M166.6,391.2c-3.3,0-5.9-1-8-3c-2-2-3.1-4.6-3.1-7.8c0-3.1,1-5.6,3-7.7
			c2-2.1,4.6-3.1,7.6-3.1c3,0,5.5,1,7.4,3.1c1.9,2.1,2.9,4.8,2.9,8.2v1.2h-15.3c0.2,1.3,0.8,2.4,1.8,3.4c1,0.9,2.4,1.4,4.2,1.4
			c0.9,0,1.8-0.2,2.9-0.5c1.1-0.4,1.9-0.9,2.6-1.5l2.4,3.5c-1,0.9-2.3,1.7-3.8,2.1C169.8,391,168.3,391.2,166.6,391.2z M171.4,378.5
			c-0.1-1.4-0.6-2.5-1.5-3.3c-0.9-0.8-2.1-1.3-3.5-1.3c-1.4,0-2.6,0.4-3.5,1.3c-0.9,0.9-1.4,1.9-1.6,3.2H171.4z M180.5,390.7v-20.6
			h5.4v2.8c0.7-0.9,1.7-1.7,2.9-2.3c1.2-0.7,2.4-1,3.7-1v5.3l-1.5-0.1c-1,0-1.9,0.2-2.9,0.7c-1,0.4-1.7,1-2.1,1.7v13.6H180.5z
			 M209.8,390.7v-12.5c0-2.6-1.3-3.8-3.8-3.8c-2,0-3.5,0.8-4.7,2.4v13.9h-5.4v-20.6h5.4v2.7c0.6-0.8,1.6-1.5,2.8-2.2
			c1.2-0.7,2.7-1,4.4-1c2.3,0,4,0.6,5,1.8c1.1,1.2,1.7,2.8,1.7,4.8v14.5H209.8z M230.3,391.2c-3.2,0-5.9-1-8-3c-2-2-3.1-4.6-3.1-7.8
			c0-3.1,1-5.6,3-7.7c2-2.1,4.6-3.1,7.6-3.1c3,0,5.5,1,7.4,3.1c1.9,2.1,2.9,4.8,2.9,8.2v1.2h-15.3c0.2,1.3,0.8,2.4,1.8,3.4
			c1,0.9,2.4,1.4,4.2,1.4c0.9,0,1.8-0.2,2.9-0.5c1.1-0.4,1.9-0.9,2.6-1.5l2.4,3.5c-1,0.9-2.3,1.7-3.8,2.1
			C233.5,391,231.9,391.2,230.3,391.2z M235,378.5c-0.1-1.4-0.6-2.5-1.5-3.3c-0.9-0.8-2.1-1.3-3.5-1.3c-1.4,0-2.6,0.4-3.5,1.3
			c-0.9,0.9-1.4,1.9-1.6,3.2H235z M251.1,391.2c-3.9,0-5.8-1.9-5.8-5.6v-10.8h-3.4v-4.7h3.4v-5.6h5.5v5.6h4.2v4.7h-4.2v9.3
			c0,0.6,0.2,1.2,0.5,1.6c0.3,0.4,0.8,0.6,1.4,0.6c0.9,0,1.5-0.2,1.9-0.6l1.2,4.1C254.7,390.8,253.2,391.2,251.1,391.2z
			 M257.2,382.7v-4.6h10.2v4.6H257.2z M281.6,391.2c-5.1,0-9.1-1.5-12-4.5l3.3-4.6c1,1.1,2.2,2,3.8,2.7c1.5,0.7,3.3,1.1,5.2,1.1
			c1.7,0,2.9-0.3,3.7-1c0.8-0.6,1.2-1.4,1.2-2.2c0-0.9-0.5-1.5-1.4-2c-0.9-0.5-3.2-1.1-6.8-2c-5.5-1.3-8.2-4.1-8.2-8.3
			c0-2.4,1-4.5,3-6.2c2-1.7,4.6-2.5,7.8-2.5c4.5,0,8.2,1.3,11.1,4l-3.4,4.4c-2.2-2.1-5-3.1-8.3-3.1c-1.3,0-2.3,0.3-3,0.8
			c-0.7,0.5-1,1.2-1,2.1c0,0.7,0.4,1.3,1.2,1.7c0.8,0.4,1.8,0.8,3.1,1l3.9,1c5.4,1.4,8.1,4.2,8.1,8.4c0,2.8-1,5-3,6.7
			C288,390.4,285.2,391.2,281.6,391.2z M306.6,391.2c-3.2,0-5.9-1-7.9-3.1c-2-2.1-3-4.6-3-7.8c0-3.1,1-5.7,3-7.7
			c2-2.1,4.7-3.1,7.9-3.1c2.1,0,3.8,0.4,5.1,1.2c1.3,0.8,2.3,1.6,3,2.5l-3.5,3.3c-1-1.5-2.4-2.2-4.3-2.2c-1.7,0-3,0.5-4,1.6
			c-1,1.1-1.5,2.5-1.5,4.3c0,1.8,0.5,3.2,1.5,4.4c1,1.1,2.4,1.7,4,1.7c1.8,0,3.3-0.7,4.3-2.2l3.5,3.3c-0.7,1-1.7,1.8-3,2.6
			C310.4,390.8,308.7,391.2,306.6,391.2z M330.7,390.7v-2.1c-1.5,1.8-3.7,2.6-6.5,2.6c-2,0-3.7-0.6-5.1-1.9
			c-1.4-1.3-2.1-2.9-2.1-4.9c0-2,0.7-3.6,2-4.8c1.3-1.2,3.1-1.8,5.2-1.8c3,0,5.1,0.8,6.5,2.5v-2.8c0-1.1-0.4-1.9-1.2-2.5
			c-0.8-0.6-1.9-0.9-3.3-0.9c-2.3,0-4.3,0.8-6,2.4l-2-3.6c2.5-2.2,5.5-3.2,9-3.2c2.9,0,5.1,0.7,6.7,2c1.6,1.3,2.3,3.3,2.3,5.8v13.3
			H330.7z M326.3,387.6c2,0,3.4-0.6,4.4-1.8v-2.5c-0.9-1.2-2.4-1.8-4.4-1.8c-1.1,0-2,0.3-2.8,0.8c-0.8,0.5-1.1,1.3-1.1,2.3
			c0,1,0.4,1.7,1.1,2.2C324.3,387.3,325.2,387.6,326.3,387.6z M341.4,390.7v-28.5h5.4v28.5H341.4z M361.9,391.2c-3.2,0-5.9-1-8-3
			c-2-2-3.1-4.6-3.1-7.8c0-3.1,1-5.6,3-7.7c2-2.1,4.6-3.1,7.6-3.1c3,0,5.5,1,7.4,3.1c1.9,2.1,2.9,4.8,2.9,8.2v1.2h-15.3
			c0.2,1.3,0.8,2.4,1.8,3.4c1,0.9,2.4,1.4,4.2,1.4c0.9,0,1.8-0.2,2.9-0.5c1.1-0.4,1.9-0.9,2.6-1.5l2.4,3.5c-1,0.9-2.3,1.7-3.8,2.1
			C365.1,391,363.5,391.2,361.9,391.2z M366.7,378.5c-0.1-1.4-0.6-2.5-1.5-3.3c-0.9-0.8-2.1-1.3-3.5-1.3c-1.4,0-2.6,0.4-3.5,1.3
			c-0.9,0.9-1.4,1.9-1.6,3.2H366.7z"/>
		<path class="st3" d="M48.1,441.7v-23.1h-8.3v-5.3h22.7v5.3h-8.3v23.1H48.1z M66.3,441.7v-20.6h5.4v2.8c0.7-0.9,1.7-1.7,2.9-2.3
			c1.2-0.7,2.4-1,3.7-1v5.3l-1.5-0.1c-1,0-1.9,0.2-2.9,0.7c-1,0.4-1.7,1-2.1,1.7v13.6H66.3z M94,441.7v-2.1
			c-1.5,1.8-3.7,2.6-6.5,2.6c-2,0-3.7-0.6-5.1-1.9c-1.4-1.3-2.1-2.9-2.1-4.9c0-2,0.7-3.6,2-4.8c1.3-1.2,3.1-1.8,5.2-1.8
			c3,0,5.1,0.8,6.5,2.5v-2.8c0-1.1-0.4-1.9-1.2-2.5c-0.8-0.6-1.9-0.9-3.3-0.9c-2.3,0-4.3,0.8-6,2.4l-2-3.6c2.5-2.2,5.5-3.2,9-3.2
			c2.9,0,5.1,0.7,6.7,2c1.6,1.3,2.3,3.3,2.3,5.8v13.3H94z M89.6,438.6c2,0,3.4-0.6,4.4-1.8v-2.5c-0.9-1.2-2.4-1.8-4.4-1.8
			c-1.1,0-2,0.3-2.8,0.8c-0.8,0.5-1.1,1.3-1.1,2.3c0,1,0.4,1.7,1.1,2.2C87.6,438.3,88.6,438.6,89.6,438.6z M118.7,441.7v-12.5
			c0-2.6-1.3-3.8-3.8-3.8c-2,0-3.5,0.8-4.7,2.4v13.9h-5.4v-20.6h5.4v2.7c0.6-0.8,1.6-1.5,2.8-2.2c1.2-0.7,2.7-1,4.4-1
			c2.3,0,4,0.6,5,1.8c1.1,1.2,1.7,2.8,1.7,4.8v14.5H118.7z M136.9,442.2c-1.8,0-3.5-0.3-5.1-0.8c-1.6-0.6-3-1.4-4.1-2.4l2.3-3.8
			c0.8,0.8,1.9,1.4,3.3,2c1.4,0.6,2.6,0.8,3.8,0.8c2.3,0,3.5-0.7,3.5-2.2c0-0.6-0.3-1-0.9-1.3c-0.6-0.3-1.4-0.5-2.2-0.7l-2.9-0.6
			c-4.1-0.9-6.1-2.9-6.1-6.1c0-1.9,0.8-3.5,2.4-4.7c1.6-1.2,3.6-1.8,6.1-1.8c3.2,0,6,0.9,8.3,2.8l-2.2,3.7c-0.6-0.6-1.5-1.2-2.6-1.7
			c-1.1-0.5-2.3-0.7-3.5-0.7c-1,0-1.8,0.2-2.4,0.6c-0.6,0.4-0.9,0.9-0.9,1.5c0,0.5,0.3,0.9,0.9,1.2c0.6,0.2,1.3,0.5,2.2,0.7
			c0.9,0.2,1.9,0.4,3,0.6c1.1,0.2,2,0.6,2.9,1.1c0.9,0.5,1.7,1.1,2.3,2c0.6,0.8,0.9,1.9,0.9,3.3c0,2-0.8,3.6-2.4,4.8
			C141.8,441.6,139.6,442.2,136.9,442.2z M162.2,441.7v-2.1c-1.5,1.8-3.7,2.6-6.5,2.6c-2,0-3.7-0.6-5.1-1.9
			c-1.4-1.3-2.1-2.9-2.1-4.9c0-2,0.7-3.6,2-4.8c1.3-1.2,3.1-1.8,5.2-1.8c3,0,5.1,0.8,6.5,2.5v-2.8c0-1.1-0.4-1.9-1.2-2.5
			c-0.8-0.6-1.9-0.9-3.3-0.9c-2.3,0-4.3,0.8-6,2.4l-2-3.6c2.5-2.2,5.5-3.2,9-3.2c2.9,0,5.1,0.7,6.7,2c1.6,1.3,2.3,3.3,2.3,5.8v13.3
			H162.2z M157.8,438.6c2,0,3.4-0.6,4.4-1.8v-2.5c-0.9-1.2-2.4-1.8-4.4-1.8c-1.1,0-2,0.3-2.8,0.8c-0.8,0.5-1.1,1.3-1.1,2.3
			c0,1,0.4,1.7,1.1,2.2C155.8,438.3,156.8,438.6,157.8,438.6z M182.6,442.2c-3.2,0-5.9-1-7.9-3.1c-2-2.1-3-4.6-3-7.8
			c0-3.1,1-5.7,3-7.7c2-2.1,4.7-3.1,7.9-3.1c2.1,0,3.8,0.4,5.1,1.2c1.3,0.8,2.3,1.6,3,2.5l-3.5,3.3c-1-1.5-2.4-2.2-4.3-2.2
			c-1.7,0-3,0.5-4,1.6c-1,1.1-1.5,2.5-1.5,4.3c0,1.8,0.5,3.2,1.5,4.4c1,1.1,2.4,1.7,4,1.7c1.8,0,3.3-0.7,4.3-2.2l3.5,3.3
			c-0.7,1-1.7,1.8-3,2.6C186.4,441.8,184.7,442.2,182.6,442.2z M201.2,442.2c-3.9,0-5.8-1.9-5.8-5.6v-10.8h-3.4v-4.7h3.4v-5.6h5.5
			v5.6h4.2v4.7h-4.2v9.3c0,0.6,0.2,1.2,0.5,1.6c0.3,0.4,0.8,0.6,1.4,0.6c0.9,0,1.5-0.2,1.9-0.6l1.2,4.1
			C204.8,441.8,203.3,442.2,201.2,442.2z M211.4,418.9c-0.9,0-1.7-0.3-2.3-0.9c-0.6-0.6-1-1.4-1-2.3c0-0.9,0.3-1.7,1-2.3
			c0.6-0.6,1.4-0.9,2.3-0.9c0.9,0,1.7,0.3,2.3,0.9c0.6,0.6,0.9,1.4,0.9,2.3c0,0.9-0.3,1.7-0.9,2.3
			C213.1,418.6,212.3,418.9,211.4,418.9z M208.7,441.7v-20.6h5.4v20.6H208.7z M229,442.2c-3.2,0-5.8-1-7.8-3.1c-2-2.1-3-4.6-3-7.8
			c0-3.1,1-5.7,3-7.7c2-2,4.7-3,7.8-3c3.2,0,5.8,1,7.8,3c2.1,2,3.1,4.6,3.1,7.7c0,3.2-1,5.8-3.1,7.8
			C234.8,441.2,232.2,442.2,229,442.2z M229,437.4c1.6,0,2.8-0.6,3.8-1.7c1-1.1,1.5-2.6,1.5-4.3c0-1.7-0.5-3.1-1.5-4.2
			c-1-1.1-2.2-1.7-3.8-1.7c-1.5,0-2.8,0.5-3.8,1.6c-1,1.1-1.5,2.5-1.5,4.3c0,1.8,0.5,3.3,1.5,4.4C226.3,436.8,227.5,437.4,229,437.4
			z M257.9,441.7v-12.5c0-2.6-1.3-3.8-3.8-3.8c-2,0-3.5,0.8-4.7,2.4v13.9H244v-20.6h5.4v2.7c0.6-0.8,1.6-1.5,2.8-2.2
			c1.2-0.7,2.7-1,4.4-1c2.3,0,4,0.6,5,1.8c1.1,1.2,1.7,2.8,1.7,4.8v14.5H257.9z M281,441.7v-2.1c-1.5,1.8-3.7,2.6-6.5,2.6
			c-2,0-3.7-0.6-5.1-1.9c-1.4-1.3-2.1-2.9-2.1-4.9c0-2,0.7-3.6,2-4.8c1.3-1.2,3.1-1.8,5.2-1.8c3,0,5.1,0.8,6.5,2.5v-2.8
			c0-1.1-0.4-1.9-1.2-2.5c-0.8-0.6-1.9-0.9-3.3-0.9c-2.3,0-4.3,0.8-6,2.4l-2-3.6c2.5-2.2,5.5-3.2,9-3.2c2.9,0,5.1,0.7,6.7,2
			c1.6,1.3,2.3,3.3,2.3,5.8v13.3H281z M276.7,438.6c2,0,3.4-0.6,4.4-1.8v-2.5c-0.9-1.2-2.4-1.8-4.4-1.8c-1.1,0-2,0.3-2.8,0.8
			c-0.8,0.5-1.1,1.3-1.1,2.3c0,1,0.4,1.7,1.1,2.2C274.7,438.3,275.6,438.6,276.7,438.6z M291.8,441.7v-28.5h5.4v28.5H291.8z
			 M335.4,441.7l-5-19.5l-5,19.5H319l-8.1-28.5h6.8l5,20.6l5.4-20.6h4.7l5.4,20.6l5-20.6h6.8l-8.1,28.5H335.4z M362.3,442.2
			c-3.2,0-5.8-1-7.8-3.1c-2-2.1-3-4.6-3-7.8c0-3.1,1-5.7,3-7.7c2-2,4.7-3,7.8-3c3.2,0,5.8,1,7.8,3c2.1,2,3.1,4.6,3.1,7.7
			c0,3.2-1,5.8-3.1,7.8C368,441.2,365.4,442.2,362.3,442.2z M362.3,437.4c1.6,0,2.8-0.6,3.8-1.7c1-1.1,1.5-2.6,1.5-4.3
			c0-1.7-0.5-3.1-1.5-4.2c-1-1.1-2.2-1.7-3.8-1.7c-1.5,0-2.8,0.5-3.8,1.6c-1,1.1-1.5,2.5-1.5,4.3c0,1.8,0.5,3.3,1.5,4.4
			C359.5,436.8,360.8,437.4,362.3,437.4z M377.2,441.7v-20.6h5.4v2.8c0.7-0.9,1.7-1.7,2.9-2.3c1.2-0.7,2.4-1,3.7-1v5.3l-1.5-0.1
			c-1,0-1.9,0.2-2.9,0.7c-1,0.4-1.7,1-2.1,1.7v13.6H377.2z M405.9,441.7l-5.5-7.9l-2.5,2.6v5.3h-5.4v-28.5h5.4v17l7.8-9.2h6.7
			l-8.1,9.3l8.4,11.3H405.9z M415.4,441.7v-28.5h5.4v28.5H415.4z M435.7,442.2c-3.2,0-5.8-1-7.8-3.1c-2-2.1-3-4.6-3-7.8
			c0-3.1,1-5.7,3-7.7c2-2,4.7-3,7.8-3c3.2,0,5.8,1,7.8,3c2.1,2,3.1,4.6,3.1,7.7c0,3.2-1,5.8-3.1,7.8
			C441.5,441.2,438.9,442.2,435.7,442.2z M435.7,437.4c1.6,0,2.8-0.6,3.8-1.7c1-1.1,1.5-2.6,1.5-4.3c0-1.7-0.5-3.1-1.5-4.2
			c-1-1.1-2.2-1.7-3.8-1.7c-1.5,0-2.8,0.5-3.8,1.6c-1,1.1-1.5,2.5-1.5,4.3c0,1.8,0.5,3.3,1.5,4.4C433,436.8,434.2,437.4,435.7,437.4
			z M463,441.7v-2.1c-1.5,1.8-3.7,2.6-6.5,2.6c-2,0-3.7-0.6-5.1-1.9c-1.4-1.3-2.1-2.9-2.1-4.9c0-2,0.7-3.6,2-4.8
			c1.3-1.2,3.1-1.8,5.2-1.8c3,0,5.1,0.8,6.5,2.5v-2.8c0-1.1-0.4-1.9-1.2-2.5c-0.8-0.6-1.9-0.9-3.3-0.9c-2.3,0-4.3,0.8-6,2.4l-2-3.6
			c2.5-2.2,5.5-3.2,9-3.2c2.9,0,5.1,0.7,6.7,2c1.6,1.3,2.3,3.3,2.3,5.8v13.3H463z M458.7,438.6c2,0,3.4-0.6,4.4-1.8v-2.5
			c-0.9-1.2-2.4-1.8-4.4-1.8c-1.1,0-2,0.3-2.8,0.8c-0.8,0.5-1.1,1.3-1.1,2.3c0,1,0.4,1.7,1.1,2.2
			C456.7,438.3,457.6,438.6,458.7,438.6z M488,441.7v-2.6c-1.7,2.1-3.8,3.2-6.3,3.2c-2.7,0-4.9-1-6.6-2.9c-1.7-2-2.5-4.6-2.5-7.9
			c0-3.2,0.8-5.9,2.5-7.8c1.7-2,3.9-3,6.6-3c2.6,0,4.7,1.1,6.3,3.2v-10.5h5.5v28.5H488z M483.3,437.4c0.9,0,1.8-0.2,2.7-0.7
			c0.9-0.4,1.6-1,2-1.7v-7.3c-0.4-0.7-1.1-1.2-2-1.7c-0.9-0.4-1.8-0.7-2.7-0.7c-1.5,0-2.8,0.6-3.8,1.7c-1,1.1-1.5,2.6-1.5,4.3
			c0,1.7,0.5,3.2,1.4,4.3C480.4,436.8,481.7,437.4,483.3,437.4z M506.2,442.2c-1.8,0-3.5-0.3-5.1-0.8c-1.6-0.6-3-1.4-4.1-2.4
			l2.3-3.8c0.8,0.8,1.9,1.4,3.3,2c1.4,0.6,2.6,0.8,3.8,0.8c2.3,0,3.5-0.7,3.5-2.2c0-0.6-0.3-1-0.9-1.3c-0.6-0.3-1.4-0.5-2.2-0.7
			l-2.9-0.6c-4.1-0.9-6.1-2.9-6.1-6.1c0-1.9,0.8-3.5,2.4-4.7c1.6-1.2,3.6-1.8,6.1-1.8c3.2,0,6,0.9,8.3,2.8l-2.2,3.7
			c-0.6-0.6-1.5-1.2-2.6-1.7c-1.1-0.5-2.3-0.7-3.5-0.7c-1,0-1.8,0.2-2.4,0.6c-0.6,0.4-0.9,0.9-0.9,1.5c0,0.5,0.3,0.9,0.9,1.2
			c0.6,0.2,1.3,0.5,2.2,0.7c0.9,0.2,1.9,0.4,3,0.6c1.1,0.2,2,0.6,2.9,1.1c0.9,0.5,1.7,1.1,2.3,2c0.6,0.8,0.9,1.9,0.9,3.3
			c0,2-0.8,3.6-2.4,4.8C511.1,441.6,508.9,442.2,506.2,442.2z"/>
		<path class="st1" d="M37,701h631v44H37V701z"/>
		<path class="st3" d="M54.9,725.4l-0.9-2.4h-5.3l-1,2.4h-1.5l4.3-10.7h1.6l4.3,10.7H54.9z M51.3,716.1l-2.3,5.8h4.5L51.3,716.1z
			 M65,725.4v-4.5l-4.2-6.2h1.6l3.3,5l3.3-5h1.6l-4.2,6.2v4.5H65z M76.3,725.5c-1.4,0-2.4-0.4-3.2-1.1c-0.8-0.7-1.1-1.8-1.1-3.2
			v-6.5h1.3v6.5c0,1,0.3,1.8,0.8,2.3c0.5,0.6,1.3,0.9,2.2,0.9c1,0,1.8-0.3,2.3-0.9c0.5-0.6,0.8-1.3,0.8-2.3v-6.5h1.3v6.5
			c0,1.4-0.4,2.5-1.1,3.2C78.8,725.2,77.7,725.5,76.3,725.5z M88.2,725.6c-1.6,0-2.9-0.5-3.9-1.6c-1-1.1-1.6-2.4-1.6-4
			c0-1.6,0.5-2.9,1.6-4c1.1-1,2.4-1.5,3.9-1.5c1.7,0,3.1,0.7,4.2,2l-1.1,0.7c-0.3-0.4-0.8-0.8-1.3-1.1c-0.5-0.3-1.1-0.4-1.8-0.4
			c-1.2,0-2.2,0.4-2.9,1.2c-0.8,0.8-1.2,1.8-1.2,3.1c0,1.3,0.4,2.3,1.2,3.1c0.8,0.8,1.8,1.2,2.9,1.2c0.5,0,1.1-0.1,1.6-0.3
			c0.5-0.2,0.9-0.5,1.3-0.8v-2.2h-3.7v-1.2h5v3.9C91.3,725,89.9,725.6,88.2,725.6z M102.1,725.4l-0.9-2.4h-5.3l-1,2.4h-1.5l4.3-10.7
			h1.6l4.3,10.7H102.1z M98.5,716.1l-2.3,5.8h4.5L98.5,716.1z M105.1,725.4v-10.7h4.8c0.9,0,1.6,0.3,2.2,0.8c0.5,0.5,0.8,1.1,0.8,2
			c0,0.6-0.2,1.2-0.5,1.6c-0.3,0.4-0.8,0.7-1.3,0.9c0.6,0.1,1,0.4,1.5,0.9c0.4,0.5,0.6,1.1,0.6,1.7c0,0.9-0.3,1.6-0.8,2.1
			c-0.6,0.5-1.3,0.8-2.3,0.8H105.1z M109.6,719.3c0.6,0,1.1-0.2,1.4-0.5c0.3-0.3,0.5-0.7,0.5-1.2c0-0.5-0.2-0.9-0.5-1.2
			c-0.3-0.3-0.8-0.5-1.4-0.5h-3.2v3.4H109.6z M109.7,724.2c0.6,0,1.1-0.2,1.5-0.5c0.4-0.3,0.5-0.8,0.5-1.4c0-0.5-0.2-1-0.5-1.3
			c-0.4-0.3-0.8-0.5-1.4-0.5h-3.3v3.7H109.7z M118.2,725.4v-4.5l-4.2-6.2h1.6l3.3,5l3.3-5h1.6l-4.2,6.2v4.5H118.2z M127.8,725.4
			v-9.5h-3.4v-1.2h8.1v1.2h-3.4v9.5H127.8z M134.3,725.4v-10.7h7v1.2h-5.7v3.4h5.5v1.2h-5.5v3.7h5.7v1.2H134.3z M150.1,725.4v-9.5
			h-3.4v-1.2h8.1v1.2h-3.4v9.5H150.1z M156.6,725.4v-10.7h7v1.2h-5.7v3.4h5.5v1.2h-5.5v3.7h5.7v1.2H156.6z M170.8,725.5
			c-1.6,0-2.9-0.5-3.9-1.5c-1-1-1.6-2.4-1.6-4c0-1.6,0.5-2.9,1.6-4c1.1-1,2.4-1.5,3.9-1.5c1.7,0,3.1,0.7,4.1,2.1l-1.1,0.6
			c-0.3-0.4-0.7-0.8-1.2-1.1c-0.5-0.3-1.1-0.4-1.7-0.4c-1.2,0-2.2,0.4-2.9,1.2c-0.8,0.8-1.2,1.8-1.2,3.1c0,1.3,0.4,2.3,1.2,3.1
			c0.8,0.8,1.8,1.2,3,1.2c0.6,0,1.2-0.1,1.7-0.4c0.5-0.3,0.9-0.7,1.2-1.1l1.1,0.6C173.8,724.8,172.4,725.5,170.8,725.5z
			 M184.1,725.4v-4.9h-6.2v4.9h-1.3v-10.7h1.3v4.6h6.2v-4.6h1.3v10.7H184.1z M195.5,725.4l-6.2-8.5v8.5h-1.3v-10.7h1.4l6.1,8.3v-8.3
			h1.3v10.7H195.5z M199.3,725.4v-10.7h1.3v10.7H199.3z M208.1,725.5c-1.6,0-2.9-0.5-3.9-1.5c-1-1-1.6-2.4-1.6-4
			c0-1.6,0.5-2.9,1.6-4c1.1-1,2.4-1.5,3.9-1.5c1.7,0,3.1,0.7,4.1,2.1l-1.1,0.6c-0.3-0.4-0.7-0.8-1.2-1.1c-0.5-0.3-1.1-0.4-1.7-0.4
			c-1.2,0-2.2,0.4-2.9,1.2c-0.8,0.8-1.2,1.8-1.2,3.1c0,1.3,0.4,2.3,1.2,3.1c0.8,0.8,1.8,1.2,3,1.2c0.6,0,1.2-0.1,1.7-0.4
			c0.5-0.3,0.9-0.7,1.2-1.1l1.1,0.6C211.2,724.8,209.8,725.5,208.1,725.5z M221.5,725.4l-0.9-2.4h-5.3l-1,2.4h-1.5l4.3-10.7h1.6
			l4.3,10.7H221.5z M217.9,716.1l-2.3,5.8h4.5L217.9,716.1z M224.4,725.4v-10.7h1.3v9.5h5v1.2H224.4z M236.7,725.4v-10.7h4.3
			c1,0,1.8,0.3,2.4,0.9c0.6,0.6,0.9,1.4,0.9,2.3c0,0.9-0.3,1.7-0.9,2.3c-0.6,0.6-1.4,0.9-2.4,0.9h-3v4.2H236.7z M240.8,719.9
			c0.6,0,1.2-0.2,1.5-0.6c0.4-0.4,0.6-0.9,0.6-1.5c0-0.6-0.2-1.1-0.6-1.5c-0.4-0.4-0.9-0.6-1.5-0.6H238v4.1H240.8z M253.7,725.4
			l-0.9-2.4h-5.3l-1,2.4H245l4.3-10.7h1.6l4.3,10.7H253.7z M250.1,716.1l-2.3,5.8h4.5L250.1,716.1z M256.6,725.4v-10.7h4.3
			c1,0,1.8,0.3,2.4,0.9c0.6,0.6,0.9,1.4,0.9,2.3c0,0.9-0.3,1.7-0.9,2.3c-0.6,0.6-1.4,0.9-2.4,0.9h-3v4.2H256.6z M260.8,719.9
			c0.6,0,1.2-0.2,1.5-0.6c0.4-0.4,0.6-0.9,0.6-1.5c0-0.6-0.2-1.1-0.6-1.5c-0.4-0.4-0.9-0.6-1.5-0.6H258v4.1H260.8z M266,725.4v-10.7
			h7v1.2h-5.7v3.4h5.5v1.2h-5.5v3.7h5.7v1.2H266z M281.3,725.4l-2.7-4.2h-2.1v4.2h-1.3v-10.7h4.3c1,0,1.8,0.3,2.4,0.9
			c0.6,0.6,0.9,1.4,0.9,2.3c0,0.9-0.3,1.6-0.8,2.2c-0.5,0.5-1.2,0.8-2,0.9l2.9,4.4H281.3z M279.2,720c0.6,0,1.2-0.2,1.5-0.6
			c0.4-0.4,0.6-0.9,0.6-1.5c0-0.6-0.2-1.1-0.6-1.5c-0.4-0.4-0.9-0.6-1.5-0.6h-2.8v4.1H279.2z"/>
	</g>
</g>
</svg>
