<?xml version="1.0" encoding="UTF-8"?>
<svg width="415px" height="107px" viewBox="0 0 415 107" version="1.1" xmlns="http://www.w3.org/2000/svg" xmlns:xlink="http://www.w3.org/1999/xlink">
    <!-- Generator: Sketch 53.2 (72643) - https://sketchapp.com -->
    <title>DB logo with tagline</title>
    <desc>Created with Sketch.</desc>
    <defs>
        <polygon id="path-1" points="0.283454404 0.564393342 34.8585089 0.564393342 34.8585089 52.3223116 0.283454404 52.3223116"></polygon>
        <polygon id="path-3" points="0.469417366 0.14683286 35.3199022 0.14683286 35.3199022 51.2870274 0.469417366 51.2870274"></polygon>
        <polygon id="path-5" points="0.644173162 0.453415312 39.9602384 0.453415312 39.9602384 49.2558711 0.644173162 49.2558711"></polygon>
    </defs>
    <g id="YugaWeb-v2" stroke="none" stroke-width="1" fill="none" fill-rule="evenodd">
        <g id="NEW-HERO-IMAGE" transform="translate(-512.000000, -130.000000)">
            <g id="DB-logo-with-tagline" transform="translate(512.000000, 129.000000)">
                <path d="M97.492,87.2 L104.836,87.2 C106.628009,87.2 108.219993,87.5479965 109.612,88.244 C111.004007,88.9400035 112.083996,89.9239936 112.852,91.196 C113.620004,92.4680064 114.004,93.9359917 114.004,95.6 C114.004,97.2640083 113.620004,98.7319936 112.852,100.004 C112.083996,101.276006 111.004007,102.259997 109.612,102.956 C108.219993,103.652003 106.628009,104 104.836,104 L97.492,104 L97.492,87.2 Z M104.692,101.36 C105.924006,101.36 107.007995,101.124002 107.944,100.652 C108.880005,100.179998 109.599997,99.5080044 110.104,98.636 C110.608003,97.7639956 110.86,96.7520058 110.86,95.6 C110.86,94.4479942 110.608003,93.4360044 110.104,92.564 C109.599997,91.6919956 108.880005,91.0200024 107.944,90.548 C107.007995,90.0759976 105.924006,89.84 104.692,89.84 L100.612,89.84 L100.612,101.36 L104.692,101.36 Z M117.316,87.2 L120.436,87.2 L120.436,104 L117.316,104 L117.316,87.2 Z M130.18,104.24 C128.883994,104.24 127.632006,104.056002 126.424,103.688 C125.215994,103.319998 124.260004,102.832003 123.556,102.224 L124.636,99.8 C125.324003,100.344003 126.167995,100.787998 127.168,101.132 C128.168005,101.476002 129.171995,101.648 130.18,101.648 C131.428006,101.648 132.359997,101.448002 132.976,101.048 C133.592003,100.647998 133.9,100.120003 133.9,99.464 C133.9,98.9839976 133.728002,98.5880016 133.384,98.276 C133.039998,97.9639984 132.604003,97.7200009 132.076,97.544 C131.547997,97.3679991 130.828005,97.1680011 129.916,96.944 C128.635994,96.6399985 127.600004,96.3360015 126.808,96.032 C126.015996,95.7279985 125.336003,95.2520032 124.768,94.604 C124.199997,93.9559968 123.916,93.0800055 123.916,91.976 C123.916,91.0479954 124.167997,90.2040038 124.672,89.444 C125.176003,88.6839962 125.935995,88.0800022 126.952,87.632 C127.968005,87.1839978 129.211993,86.96 130.684,86.96 C131.708005,86.96 132.715995,87.0879987 133.708,87.344 C134.700005,87.6000013 135.555996,87.9679976 136.276,88.448 L135.292,90.872 C134.555996,90.4399978 133.788004,90.1120011 132.988,89.888 C132.187996,89.6639989 131.412004,89.552 130.66,89.552 C129.427994,89.552 128.512003,89.7599979 127.912,90.176 C127.311997,90.5920021 127.012,91.1439966 127.012,91.832 C127.012,92.3120024 127.183998,92.7039985 127.528,93.008 C127.872002,93.3120015 128.307997,93.5519991 128.836,93.728 C129.364003,93.9040009 130.083995,94.1039989 130.996,94.328 C132.244006,94.6160014 133.267996,94.9159984 134.068,95.228 C134.868004,95.5400016 135.551997,96.0159968 136.12,96.656 C136.688003,97.2960032 136.972,98.1599946 136.972,99.248 C136.972,100.176005 136.720003,101.015996 136.216,101.768 C135.711997,102.520004 134.948005,103.119998 133.924,103.568 C132.899995,104.016002 131.652007,104.24 130.18,104.24 Z M143.236,89.84 L137.668,89.84 L137.668,87.2 L151.924,87.2 L151.924,89.84 L146.356,89.84 L146.356,104 L143.236,104 L143.236,89.84 Z M165.268,104 L161.836,99.08 C161.691999,99.0960001 161.476001,99.104 161.188,99.104 L157.396,99.104 L157.396,104 L154.276,104 L154.276,87.2 L161.188,87.2 C162.644007,87.2 163.911995,87.4399976 164.992,87.92 C166.072005,88.4000024 166.899997,89.0879955 167.476,89.984 C168.052003,90.8800045 168.34,91.9439938 168.34,93.176 C168.34,94.4400063 168.032003,95.5279954 167.416,96.44 C166.799997,97.3520046 165.916006,98.0319978 164.764,98.48 L168.628,104 L165.268,104 Z M165.196,93.176 C165.196,92.1039946 164.844004,91.2800029 164.14,90.704 C163.435996,90.1279971 162.404007,89.84 161.044,89.84 L157.396,89.84 L157.396,96.536 L161.044,96.536 C162.404007,96.536 163.435996,96.2440029 164.14,95.66 C164.844004,95.0759971 165.196,94.2480054 165.196,93.176 Z M171.82,87.2 L174.94,87.2 L174.94,104 L171.82,104 L171.82,87.2 Z M191.38,95.264 C192.308005,95.5680015 193.043997,96.0759964 193.588,96.788 C194.132003,97.5000036 194.404,98.3839947 194.404,99.44 C194.404,100.896007 193.844006,102.019996 192.724,102.812 C191.603994,103.604004 189.972011,104 187.828,104 L179.476,104 L179.476,87.2 L187.348,87.2 C189.33201,87.2 190.859995,87.5879961 191.932,88.364 C193.004005,89.1400039 193.54,90.2079932 193.54,91.568 C193.54,92.4000042 193.348002,93.1359968 192.964,93.776 C192.579998,94.4160032 192.052003,94.9119982 191.38,95.264 Z M182.596,89.648 L182.596,94.28 L187.012,94.28 C188.100005,94.28 188.935997,94.084002 189.52,93.692 C190.104003,93.299998 190.396,92.7280038 190.396,91.976 C190.396,91.2079962 190.104003,90.628002 189.52,90.236 C188.935997,89.843998 188.100005,89.648 187.012,89.648 L182.596,89.648 Z M187.636,101.552 C190.052012,101.552 191.26,100.744008 191.26,99.128 C191.26,97.5119919 190.052012,96.704 187.636,96.704 L182.596,96.704 L182.596,101.552 L187.636,101.552 Z M204.964,104.24 C202.643988,104.24 200.836006,103.588007 199.54,102.284 C198.243994,100.979993 197.596,99.1120122 197.596,96.68 L197.596,87.2 L200.716,87.2 L200.716,96.56 C200.716,99.8560165 202.139986,101.504 204.988,101.504 C207.820014,101.504 209.236,99.8560165 209.236,96.56 L209.236,87.2 L212.308,87.2 L212.308,96.68 C212.308,99.1120122 211.664006,100.979993 210.376,102.284 C209.087994,103.588007 207.284012,104.24 204.964,104.24 Z M219.772,89.84 L214.204,89.84 L214.204,87.2 L228.46,87.2 L228.46,89.84 L222.892,89.84 L222.892,104 L219.772,104 L219.772,89.84 Z M243.412,101.384 L243.412,104 L230.812,104 L230.812,87.2 L243.076,87.2 L243.076,89.816 L233.932,89.816 L233.932,94.184 L242.044,94.184 L242.044,96.752 L233.932,96.752 L233.932,101.384 L243.412,101.384 Z M246.892,87.2 L254.236,87.2 C256.028009,87.2 257.619993,87.5479965 259.012,88.244 C260.404007,88.9400035 261.483996,89.9239936 262.252,91.196 C263.020004,92.4680064 263.404,93.9359917 263.404,95.6 C263.404,97.2640083 263.020004,98.7319936 262.252,100.004 C261.483996,101.276006 260.404007,102.259997 259.012,102.956 C257.619993,103.652003 256.028009,104 254.236,104 L246.892,104 L246.892,87.2 Z M254.092,101.36 C255.324006,101.36 256.407995,101.124002 257.344,100.652 C258.280005,100.179998 258.999997,99.5080044 259.504,98.636 C260.008003,97.7639956 260.26,96.7520058 260.26,95.6 C260.26,94.4479942 260.008003,93.4360044 259.504,92.564 C258.999997,91.6919956 258.280005,91.0200024 257.344,90.548 C256.407995,90.0759976 255.324006,89.84 254.092,89.84 L250.012,89.84 L250.012,101.36 L254.092,101.36 Z M278.548,104.24 C277.251994,104.24 276.000006,104.056002 274.792,103.688 C273.583994,103.319998 272.628004,102.832003 271.924,102.224 L273.004,99.8 C273.692003,100.344003 274.535995,100.787998 275.536,101.132 C276.536005,101.476002 277.539995,101.648 278.548,101.648 C279.796006,101.648 280.727997,101.448002 281.344,101.048 C281.960003,100.647998 282.268,100.120003 282.268,99.464 C282.268,98.9839976 282.096002,98.5880016 281.752,98.276 C281.407998,97.9639984 280.972003,97.7200009 280.444,97.544 C279.915997,97.3679991 279.196005,97.1680011 278.284,96.944 C277.003994,96.6399985 275.968004,96.3360015 275.176,96.032 C274.383996,95.7279985 273.704003,95.2520032 273.136,94.604 C272.567997,93.9559968 272.284,93.0800055 272.284,91.976 C272.284,91.0479954 272.535997,90.2040038 273.04,89.444 C273.544003,88.6839962 274.303995,88.0800022 275.32,87.632 C276.336005,87.1839978 277.579993,86.96 279.052,86.96 C280.076005,86.96 281.083995,87.0879987 282.076,87.344 C283.068005,87.6000013 283.923996,87.9679976 284.644,88.448 L283.66,90.872 C282.923996,90.4399978 282.156004,90.1120011 281.356,89.888 C280.555996,89.6639989 279.780004,89.552 279.028,89.552 C277.795994,89.552 276.880003,89.7599979 276.28,90.176 C275.679997,90.5920021 275.38,91.1439966 275.38,91.832 C275.38,92.3120024 275.551998,92.7039985 275.896,93.008 C276.240002,93.3120015 276.675997,93.5519991 277.204,93.728 C277.732003,93.9040009 278.451995,94.1039989 279.364,94.328 C280.612006,94.6160014 281.635996,94.9159984 282.436,95.228 C283.236004,95.5400016 283.919997,96.0159968 284.488,96.656 C285.056003,97.2960032 285.34,98.1599946 285.34,99.248 C285.34,100.176005 285.088003,101.015996 284.584,101.768 C284.079997,102.520004 283.316005,103.119998 282.292,103.568 C281.267995,104.016002 280.020007,104.24 278.548,104.24 Z M306.172,105.68 C305.611997,106.336003 304.960004,106.831998 304.216,107.168 C303.471996,107.504002 302.660004,107.672 301.78,107.672 C300.627994,107.672 299.572005,107.412003 298.612,106.892 C297.651995,106.371997 296.556006,105.472006 295.324,104.192 C293.771992,104.063999 292.380006,103.612004 291.148,102.836 C289.915994,102.059996 288.956003,101.044006 288.268,99.788 C287.579997,98.5319937 287.236,97.1360077 287.236,95.6 C287.236,93.9679918 287.627996,92.4920066 288.412,91.172 C289.196004,89.8519934 290.275993,88.8200037 291.652,88.076 C293.028007,87.3319963 294.571991,86.96 296.284,86.96 C297.996009,86.96 299.539993,87.3319963 300.916,88.076 C302.292007,88.8200037 303.371996,89.8479934 304.156,91.16 C304.940004,92.4720066 305.332,93.9519918 305.332,95.6 C305.332,96.9280066 305.068003,98.1559944 304.54,99.284 C304.011997,100.412006 303.276005,101.371996 302.332,102.164 C301.387995,102.956004 300.292006,103.527998 299.044,103.88 C299.508002,104.376002 299.963998,104.735999 300.412,104.96 C300.860002,105.184001 301.339997,105.296 301.852,105.296 C302.956006,105.296 303.915996,104.848004 304.732,103.952 L306.172,105.68 Z M290.38,95.6 C290.38,96.7200056 290.635997,97.7319955 291.148,98.636 C291.660003,99.5400045 292.363996,100.243997 293.26,100.748 C294.156004,101.252003 295.163994,101.504 296.284,101.504 C297.404006,101.504 298.411996,101.252003 299.308,100.748 C300.204004,100.243997 300.907997,99.5400045 301.42,98.636 C301.932003,97.7319955 302.188,96.7200056 302.188,95.6 C302.188,94.4799944 301.932003,93.4680045 301.42,92.564 C300.907997,91.6599955 300.204004,90.9560025 299.308,90.452 C298.411996,89.9479975 297.404006,89.696 296.284,89.696 C295.163994,89.696 294.156004,89.9479975 293.26,90.452 C292.363996,90.9560025 291.660003,91.6599955 291.148,92.564 C290.635997,93.4680045 290.38,94.4799944 290.38,95.6 Z M308.644,87.2 L311.764,87.2 L311.764,101.36 L320.548,101.36 L320.548,104 L308.644,104 L308.644,87.2 Z" id="DISTRIBUTEDSQL" fill="#FFFFFF" fill-rule="nonzero"></path>
                <g id="YugaByteDB-WHITE" stroke-width="1" fill-rule="evenodd">
                    <polygon id="Fill-1" fill="#FEFEFE" fill-rule="nonzero" points="37.3232794 1.09461645 21.2400475 27.3516749 5.29358104 1.09461645 -0.000379903907 1.09461645 18.8333563 31.6141967 18.8333563 49.8970722 23.6467388 49.8970722 23.6467388 31.7509622 42.5469581 1.09461645"></polygon>
                    <g id="Group-23" transform="translate(43.688950, 0.641961)">
                        <path d="M11.9187253,49.9431173 C8.0228107,49.9431173 5.1241439,48.6495444 3.22462436,46.0604994 C1.32130579,43.4714542 0.37154602,39.609731 0.37154602,34.4772292 L0.37154602,13.4438495 L5.04626359,13.4438495 L5.04626359,33.6528378 C5.04626359,41.7637862 7.81766258,45.8192604 13.3623601,45.8192604 C14.7376123,45.8192604 16.0881706,45.5894186 17.4178343,45.1316344 C18.7455985,44.67385 19.9707886,44.0090182 21.0953042,43.1371389 C22.2179202,42.2671588 23.226565,41.2376192 24.1193393,40.0466205 C25.0140129,38.8537223 25.7339308,37.5012643 26.2828919,35.9892469 L26.2828919,13.4438495 L30.9595091,13.4438495 L30.9595091,43.2055215 C30.9595091,44.4895967 31.5084701,45.1316344 32.6101916,45.1316344 L32.6101916,49.2554912 C32.0593308,49.3466682 31.6110443,49.3922567 31.2691307,49.3922567 L30.5473133,49.3922567 C29.4474914,49.3466682 28.5528178,48.9572666 27.8670913,48.224052 C27.1775657,47.4908376 26.8356521,46.5049869 26.8356521,45.2683997 L26.8356521,41.1445428 C25.2761467,43.9406356 23.1581823,46.1060878 20.4760608,47.6408996 C17.7958387,49.1757114 14.9446599,49.9431173 11.9187253,49.9431173" id="Fill-2" fill="#FEFEFE" fill-rule="nonzero"></path>
                        <g id="Group-6" transform="translate(38.854627, 12.261353)">
                            <g id="Fill-4-Clipped">
                                <mask id="mask-2" fill="white">
                                    <use xlink:href="#path-1"></use>
                                </mask>
                                <g id="path-1"></g>
                                <path d="M18.3611817,33.5571481 C19.736434,33.5571481 21.0869922,33.3064115 22.4166559,32.8011394 C23.7444202,32.2977667 24.9487156,31.6215376 26.0257432,30.774352 C27.1027708,29.9252667 28.0069421,28.9755069 28.7401565,27.9212737 C29.4733711,26.8689398 29.9539496,25.7900127 30.1837913,24.6901909 L30.1837913,13.6235901 C29.6785191,12.3414144 28.9927926,11.1485162 28.1209131,10.0486944 C27.2509332,8.94887256 26.2650826,8.01050991 25.1652608,7.23170691 C24.0654389,6.45290389 22.8858373,5.83366052 21.6264558,5.37587632 C20.3651749,4.91619258 19.0943963,4.68825024 17.8122206,4.68825024 C15.7930314,4.68825024 13.9960859,5.1118431 12.4137861,5.95902882 C10.8333859,6.80811405 9.49422461,7.91743345 8.39440281,9.29458512 C7.294581,10.6679377 6.45689288,12.2274433 5.8851375,13.9674032 C5.31148261,15.7092626 5.02465515,17.4720167 5.02465515,19.261364 C5.02465515,21.1836778 5.36846819,23.0186137 6.05609427,24.7585737 C6.74372034,26.5004331 7.69537962,28.0238476 8.90917259,29.3288176 C10.1229656,30.6356871 11.5324091,31.6671261 13.1356036,32.423135 C14.7406976,33.1791437 16.4806575,33.5571481 18.3611817,33.5571481 M17.0562119,37.4758569 C14.5811379,37.4758569 12.3226092,36.9591875 10.2844247,35.9296479 C8.24434076,34.8982088 6.47968712,33.5343539 4.99046381,31.838083 C3.50314001,30.145611 2.3444331,28.1967039 1.52194114,25.9970603 C0.695650142,23.7974167 0.283454404,21.527491 0.283454404,19.1929814 C0.283454404,16.7160079 0.682353505,14.3454076 1.48585027,12.0773812 C2.2874475,9.8093549 3.42146068,7.82815603 4.88788975,6.13188509 C6.35431882,4.43561414 8.10757535,3.08505577 10.1476593,2.07641089 C12.1858438,1.06776602 14.442473,0.564393342 16.917547,0.564393342 C19.9871705,0.564393342 22.6445983,1.33179924 24.8917299,2.86661101 C27.1350626,4.4014228 29.0611753,6.3370332 30.6643698,8.67534174 L30.6643698,1.18363672 L34.8585089,1.18363672 L34.8585089,37.1320438 C34.8585089,39.6052182 34.3874281,41.7934647 33.4471659,43.6967834 C32.5088032,45.5963028 31.2475223,47.1899999 29.6671221,48.4740749 C28.0867219,49.7562507 26.2327907,50.7174076 24.0996302,51.3594451 C21.9683694,52.0014828 19.7117401,52.3225016 17.3297427,52.3225016 C13.2039863,52.3225016 9.88172661,51.589287 7.3629637,50.1228579 C4.84230129,48.6564289 2.80411682,46.6866271 1.24461129,44.2115532 L4.13188097,41.9435269 C5.55272159,44.2343474 7.4313464,45.9173217 9.76965495,46.9962488 C12.106064,48.0713768 14.6248269,48.6108404 17.3297427,48.6108404 C19.0716022,48.6108404 20.7203851,48.3696014 22.2798906,47.8890229 C23.8355971,47.4084446 25.2013517,46.6961247 26.3695562,45.7577621 C27.5377606,44.8193994 28.4647262,43.6284006 29.1523522,42.1847657 C29.8399784,40.741131 30.1837913,39.0562571 30.1837913,37.1320438 L30.1837913,30.0525345 C28.8085392,32.3433552 26.9299145,34.1516978 24.5479169,35.4832608 C22.1640198,36.8110251 19.6661517,37.4758569 17.0562119,37.4758569" id="Fill-4" fill="#FEFEFE" fill-rule="nonzero" mask="url(#mask-2)"></path>
                            </g>
                        </g>
                        <path d="M94.1267014,46.3686015 C96.5542873,46.3686015 98.7900219,45.9108173 100.828206,44.9933494 C102.86829,44.0777808 104.414499,42.8620884 105.468732,41.3500709 C105.880928,40.9378752 106.19055,40.4914881 106.397598,40.0109096 C106.602746,39.5303311 106.70532,39.083944 106.70532,38.6698488 L106.70532,32.8288262 C105.147714,32.2323771 103.531223,31.7745929 101.859645,31.4535741 C100.186169,31.1325552 98.4804003,30.9710962 96.7385409,30.9710962 C93.4390754,30.9710962 90.7588533,31.6587221 88.6978746,33.0339743 C86.6349963,34.4092266 85.6035572,36.2194685 85.6035572,38.4628012 C85.6035572,39.5626229 85.8201025,40.594062 86.2550924,41.5571184 C86.691982,42.520175 87.2865315,43.3559635 88.0444398,44.0663838 C88.8004487,44.7768041 89.70462,45.3371624 90.7588533,45.7493581 C91.8111872,46.1615538 92.9338032,46.3686015 94.1267014,46.3686015 M93.0268796,49.9434972 C91.3306087,49.9434972 89.7616055,49.6566697 88.3179707,49.0830148 C86.8762354,48.5112594 85.6149545,47.7210593 84.5379269,46.7124145 C83.4608993,45.7056691 82.6251106,44.524168 82.0305611,43.1717102 C81.4322124,41.8211517 81.1358873,40.3661198 81.1358873,38.8066142 C81.1358873,37.2509077 81.5024946,35.8072728 82.2357092,34.4776091 C82.9689238,33.149845 83.9984633,32.0025353 85.328127,31.0394787 C86.6558911,30.0783219 88.2381909,29.3337103 90.0712272,28.8056438 C91.9042636,28.2813764 93.9215533,28.0154437 96.1211969,28.0154437 C97.9542333,28.0154437 99.8081644,28.1769029 101.686789,28.4979217 C103.567313,28.8189404 105.238891,29.2767248 106.70532,29.8712743 L106.70532,26.6401916 C106.70532,23.4793912 105.812546,20.9701258 104.025098,19.1142952 C102.23765,17.2584646 99.7625759,16.3314991 96.6017754,16.3314991 C94.7687391,16.3314991 92.8901141,16.6981064 90.965901,17.4313209 C89.0397882,18.1626359 87.0927805,19.2168693 85.1229789,20.5921214 L83.4722964,17.4997036 C88.1014255,14.3844916 92.5899902,12.824986 96.9455883,12.824986 C101.436053,12.824986 104.96346,14.086267 107.531611,16.6069294 C110.095962,19.1256922 111.380037,22.6094111 111.380037,27.0542869 L111.380037,43.2059013 C111.380037,44.4899766 111.951793,45.1320143 113.097203,45.1320143 L113.097203,49.2558711 C112.3184,49.3926366 111.72385,49.4610193 111.311655,49.4610193 C110.118756,49.4610193 109.191791,49.1646942 108.526959,48.5682451 C107.862127,47.9736954 107.506917,47.1493039 107.463228,46.0931711 L107.324563,43.2761837 C105.67578,45.4283393 103.599605,47.0809214 101.103637,48.2244321 C98.6057685,49.3698423 95.9141494,49.9434972 93.0268796,49.9434972" id="Fill-7" fill="#FEFEFE" fill-rule="nonzero"></path>
                        <path d="M154.339951,35.8526714 C154.339951,34.6616726 154.134803,33.5048652 153.720708,32.3803496 C153.308512,31.2596332 152.72346,30.2737825 151.967451,29.4246973 C151.213342,28.5775115 150.318668,27.891785 149.287229,27.3618191 C148.25769,26.8375517 147.144571,26.571619 145.953572,26.571619 L127.256601,26.571619 L127.256601,45.0634415 L145.472994,45.0634415 C146.709581,45.0634415 147.868288,44.8108054 148.943416,44.3055332 C150.020443,43.8040602 150.958806,43.1278313 151.762303,42.2787459 C152.562001,41.4315603 153.192641,40.4457096 153.652325,39.3230936 C154.110109,38.2004776 154.339951,37.0436702 154.339951,35.8526714 L154.339951,35.8526714 Z M127.256601,4.64546498 L127.256601,22.6548097 L144.027459,22.6548097 C145.220358,22.6548097 146.331577,22.4021736 147.363016,21.8988009 C148.394455,21.3954281 149.275832,20.7305963 150.009046,19.9043054 C150.740361,19.0799139 151.314016,18.1301541 151.728112,17.0531266 C152.140307,15.976099 152.345456,14.8420858 152.345456,13.6510871 C152.345456,12.4126003 152.149805,11.2443958 151.762303,10.144574 C151.372901,9.0447522 150.820141,8.09499244 150.111621,7.29149568 C149.4012,6.48989843 148.565412,5.84976035 147.604255,5.36728239 C146.641198,4.88670395 145.586965,4.64546498 144.441555,4.64546498 L127.256601,4.64546498 Z M159.149534,36.6770629 C159.149534,38.5100992 158.782927,40.1949731 158.049713,41.7297848 C157.316498,43.2645966 156.332547,44.5942603 155.09596,45.7149767 C153.857473,46.8394923 152.413838,47.7094722 150.765055,48.3287156 C149.116272,48.9460594 147.351619,49.2556812 145.472994,49.2556812 L122.447018,49.2556812 L122.447018,0.453225361 L145.953572,0.453225361 C147.649843,0.453225361 149.184655,0.819832631 150.558008,1.55114765 C151.93326,2.28626171 153.103364,3.23602148 154.064521,4.40422598 C155.027577,5.57433001 155.772189,6.90399368 156.298356,8.39131748 C156.826422,9.88054079 157.088556,11.3811612 157.088556,12.8950783 C157.088556,15.3682527 156.471212,17.6248819 155.234625,19.664966 C153.996138,21.7031503 152.277073,23.2284646 150.077429,24.2352099 C152.873522,25.0596013 155.084563,26.5963127 156.710551,28.8415447 C158.33654,31.0867769 159.149534,33.6986162 159.149534,36.6770629 L159.149534,36.6770629 Z" id="Fill-9" fill="#FEFEFE" fill-rule="nonzero"></path>
                        <g id="Group-13" transform="translate(162.323395, 13.296637)">
                            <g id="Fill-11-Clipped">
                                <mask id="mask-4" fill="white">
                                    <use xlink:href="#path-3"></use>
                                </mask>
                                <g id="path-3"></g>
                                <path d="M6.65615248,46.9566927 C7.02086024,47.0003816 7.37796991,47.0364725 7.72178293,47.0611662 C8.06369645,47.082061 8.39611237,47.093458 8.71903069,47.093458 C9.54342216,47.093458 10.1949574,46.9794868 10.6774353,46.7515446 C11.1580138,46.5217027 11.6271951,46.0164305 12.0849793,45.239527 C12.544663,44.4588246 13.0594328,43.3362084 13.6330877,41.8697794 C14.2048431,40.4033504 15.0178375,38.4335486 16.0720708,35.9584746 L0.469417366,0.14683286 L5.28090034,0.14683286 L18.5490444,31.6294695 L30.8503327,0.14683286 L35.3199022,0.14683286 L16.7596969,46.3393489 C16.2563242,47.667113 15.4186361,48.8220208 14.2504316,49.8078715 C13.0822271,50.7937222 11.4904297,51.2875971 9.47313995,51.2875971 C9.01535575,51.2875971 8.58036577,51.2762001 8.16817003,51.253406 C7.75597429,51.2306116 7.24880258,51.1717266 6.65615248,51.0805497 L6.65615248,46.9566927 Z" id="Fill-11" fill="#FEFEFE" fill-rule="nonzero" mask="url(#mask-4)"></path>
                            </g>
                        </g>
                        <path d="M221.35728,47.5362361 C221.079949,47.6749009 220.679151,47.8591545 220.152985,48.0870967 C219.624918,48.3169387 219.01897,48.5448811 218.331346,48.7747228 C217.643719,49.0045646 216.864915,49.2097129 215.994936,49.3939662 C215.124956,49.5744206 214.207488,49.6674971 213.244431,49.6674971 C212.235787,49.6674971 211.27273,49.5307316 210.357162,49.2553013 C209.441593,48.9817705 208.639996,48.5581777 207.95237,47.9826232 C207.264743,47.4127674 206.715782,46.6909498 206.303587,45.8190705 C205.889492,44.9490904 205.684344,43.9404456 205.684344,42.7931359 L205.684344,17.1553207 L200.736095,17.1553207 L200.736095,13.4436595 L205.684344,13.4436595 L205.684344,1.34561964 L210.357162,1.34561964 L210.357162,13.4436595 L218.606774,13.4436595 L218.606774,17.1553207 L210.357162,17.1553207 L210.357162,41.4881659 C210.450239,42.8178296 210.91942,43.7903836 211.766606,44.409627 C212.613792,45.0288702 213.588245,45.3365925 214.688067,45.3365925 C216.017731,45.3365925 217.185935,45.1219467 218.194579,44.6850573 C219.201324,44.2500674 219.843362,43.9404456 220.118792,43.7561923 L221.35728,47.5362361 Z" id="Fill-14" fill="#FEFEFE" fill-rule="nonzero"></path>
                        <path d="M254.970038,29.4592686 C254.833273,27.5350552 254.384986,25.7817987 253.628976,24.199499 C252.872968,22.6190988 251.911812,21.2571431 250.741707,20.111733 C249.573502,18.9663226 248.221044,18.0716489 246.688132,17.4296113 C245.151421,16.7894732 243.514034,16.4684544 241.772175,16.4684544 C240.030316,16.4684544 238.381533,16.7894732 236.822027,17.4296113 C235.264422,18.0716489 233.900566,18.9663226 232.732362,20.111733 C231.564159,21.2571431 230.625795,22.6304958 229.915376,24.2355897 C229.204955,25.8387842 228.781361,27.5806437 228.644596,29.4592686 L254.970038,29.4592686 Z M241.772175,49.9436872 C239.160337,49.9436872 236.765042,49.4498121 234.590093,48.465861 C232.411343,47.4800103 230.52322,46.1275525 228.918128,44.4103868 C227.313034,42.6913215 226.065048,40.7101226 225.170375,38.462991 C224.277602,36.2196586 223.831213,33.8129673 223.831213,31.2448169 C223.831213,28.726054 224.277602,26.3554537 225.170375,24.1311162 C226.065048,21.9086783 227.303536,19.9635704 228.885835,18.2900937 C230.466235,16.616617 232.354357,15.2888528 234.554002,14.3030022 C236.753646,13.3171515 239.137542,12.825176 241.703793,12.825176 C244.315633,12.825176 246.709028,13.3171515 248.885876,14.3030022 C251.060827,15.2888528 252.929953,16.6299136 254.48756,18.324285 C256.045165,20.0205559 257.258958,21.9675636 258.130839,24.1672072 C259.000817,26.3668508 259.437708,28.7032597 259.437708,31.1764341 L259.437708,32.276256 C259.437708,32.6447629 259.413013,32.897399 259.367426,33.0341643 L228.712979,33.0341643 C228.849744,34.9583776 229.296131,36.7344283 230.052141,38.3604171 C230.808149,39.9883053 231.782602,41.3977488 232.973602,42.5887476 C234.1646,43.7816457 235.528455,44.7086113 237.063267,45.3715436 C238.599978,46.0363754 240.235464,46.3687913 241.977324,46.3687913 C243.122735,46.3687913 244.268144,46.2073323 245.415453,45.8863135 C246.558964,45.5671942 247.615098,45.1303047 248.576254,44.5813435 C249.539311,44.0304829 250.409292,43.3561533 251.189994,42.5545562 C251.966897,41.752959 252.563347,40.8696823 252.975542,39.9066259 L257.031017,41.0064478 C256.482056,42.338011 255.703251,43.5404069 254.694607,44.6155349 C253.685961,45.6925624 252.517758,46.6328247 251.189994,47.4344219 C249.860331,48.236019 248.392002,48.8552624 246.788808,49.2902525 C245.185612,49.7252423 243.514034,49.9436872 241.772175,49.9436872 L241.772175,49.9436872 Z" id="Fill-16" fill="#FEFEFE" fill-rule="nonzero"></path>
                        <path d="M315.045951,24.7856906 C315.045951,22.4473821 314.724933,20.2952265 314.082896,18.3254247 C313.440859,16.355623 312.502495,14.6574525 311.265907,13.2366119 C310.027422,11.8176708 308.505906,10.717849 306.695663,9.939046 C304.883522,9.15834348 302.832041,8.76894196 300.543121,8.76894196 L292.293507,8.76894196 L292.293507,40.9373053 L300.543121,40.9373053 C302.879528,40.9373053 304.953804,40.5270091 306.764047,39.7007181 C308.574289,38.874427 310.086305,37.7423133 311.2982,36.300578 C312.513893,34.8550438 313.440859,33.1492751 314.082896,31.1775739 C314.724933,29.2077721 315.045951,27.0784107 315.045951,24.7856906 L315.045951,24.7856906 Z M282.809206,49.2553013 L282.809206,0.452845457 L300.543121,0.452845457 C304.530212,0.452845457 308.023428,1.09488306 311.024669,2.37705875 C314.025911,3.66113394 316.535174,5.40109384 318.552464,7.60263698 C320.565955,9.80038108 322.079872,12.3780291 323.088518,15.3336815 C324.097162,18.2893339 324.600536,21.4406367 324.600536,24.7856906 C324.600536,28.4973518 324.038278,31.8538028 322.91756,34.8550438 C321.793045,37.8562845 320.176554,40.4225354 318.069987,42.5537964 C315.96152,44.6850573 313.42946,46.3338402 310.475709,47.5020447 C307.520055,48.6721487 304.207294,49.2553013 300.543121,49.2553013 L282.809206,49.2553013 Z" id="Fill-18" fill="#F75821" fill-rule="nonzero"></path>
                        <g id="Group-22" transform="translate(331.380635, 0.000000)">
                            <g id="Fill-20-Clipped">
                                <mask id="mask-6" fill="white">
                                    <use xlink:href="#path-5"></use>
                                </mask>
                                <g id="path-5"></g>
                                <path d="M30.4058452,34.8898049 C30.4058452,34.0198249 30.2557832,33.1840364 29.9594581,32.3805397 C29.6593339,31.5789423 29.2585355,30.8799191 28.7551626,30.2853696 C28.25179,29.6889205 27.6572405,29.2197391 26.9696144,28.8740265 C26.2819882,28.5302135 25.5278791,28.3592568 24.701588,28.3592568 L10.1284742,28.3592568 L10.1284742,41.2133054 L24.2191101,41.2133054 C25.0890901,41.2133054 25.9039839,41.0537458 26.6599928,40.7327269 C27.4160015,40.4117082 28.0694362,39.9653211 28.6183973,39.3916662 C29.169258,38.8199108 29.6023484,38.1436819 29.9252667,37.3648789 C30.244386,36.5860758 30.4058452,35.7597848 30.4058452,34.8898049 L30.4058452,34.8898049 Z M10.1284742,8.56436372 L10.1284742,20.8675516 L22.7754753,20.8675516 C24.3805692,20.8675516 25.7425248,20.316691 26.8670402,19.2168693 C27.9896564,18.1170474 28.5481152,16.6069294 28.5481152,14.6808166 C28.5481152,12.8021918 28.0352449,11.3129685 27.0038057,10.2131467 C25.9723666,9.11332485 24.701588,8.56436372 23.187671,8.56436372 L10.1284742,8.56436372 Z M39.9604284,36.6753533 C39.9604284,38.7382314 39.5463331,40.5484736 38.7238412,42.1060796 C37.8975502,43.6655851 36.7635371,44.9724546 35.3218018,46.0247883 C33.8781669,47.0790218 32.2027907,47.8806189 30.3013716,48.4295802 C28.3999526,48.9804408 26.3731653,49.2558711 24.2191101,49.2558711 L0.644173162,49.2558711 L0.644173162,0.453415312 L26.7625667,0.453415312 C28.4588377,0.453415312 29.9936494,0.818123062 31.3689015,1.5513376 C32.7422543,2.28645166 33.9123583,3.23621142 34.8754147,4.40441594 C35.8346721,5.57262045 36.5811831,6.90418364 37.1073501,8.39150744 C37.6354166,9.88073075 37.8975502,11.3813512 37.8975502,12.8933687 C37.8975502,15.2772657 37.3030007,17.5111007 36.1120019,19.5948737 C34.9191036,21.6805461 33.1791437,23.2286545 30.8864237,24.2353999 C33.6825163,25.0597914 35.8935572,26.539517 37.5195458,28.6688784 C39.147434,30.8001393 39.9604284,33.4689643 39.9604284,36.6753533 L39.9604284,36.6753533 Z" id="Fill-20" fill="#F75821" fill-rule="nonzero" mask="url(#mask-6)"></path>
                            </g>
                        </g>
                    </g>
                </g>
            </g>
        </g>
    </g>
</svg>